solid CATIA STL
  facet normal -3.603960e-003  5.286704e-002 -9.985951e-001
    outer loop
      vertex  2.565000e+001  0.000000e+000 -1.185000e+001
      vertex  2.522808e+001  1.279163e+000 -1.178076e+001
      vertex  2.900000e+001  9.522536e-001 -1.181168e+001
    endloop
  endfacet
  facet normal  1.867133e-002 -2.546031e-002  9.995015e-001
    outer loop
      vertex  2.565000e+001  0.000000e+000  1.185000e+001
      vertex  2.557946e+001 -5.462208e-001  1.183740e+001
      vertex  2.900000e+001  9.522536e-001  1.181168e+001
    endloop
  endfacet
  facet normal  1.812537e-002  3.092935e-001 -9.507939e-001
    outer loop
      vertex  2.350000e+001  5.126457e+000 -1.068372e+001
      vertex  2.411802e+001  2.059261e+000 -1.166970e+001
      vertex  2.343576e+001  2.149040e+000 -1.165350e+001
    endloop
  endfacet
  facet normal  1.812537e-002  3.092935e-001 -9.507939e-001
    outer loop
      vertex  6.118016e+000  2.059261e+000 -1.166970e+001
      vertex  5.435763e+000  2.149040e+000 -1.165350e+001
      vertex  5.500000e+000  5.126457e+000 -1.068372e+001
    endloop
  endfacet
  facet normal  -0.000000e+000  8.402815e-001  5.421503e-001
    outer loop
      vertex  0.000000e+000  1.096232e+001  4.500000e+000
      vertex  0.000000e+000  8.618110e+000  8.133307e+000
      vertex  5.500000e+000  8.618110e+000  8.133307e+000
    endloop
  endfacet
  facet normal  3.424997e-003  9.194696e-002 -9.957580e-001
    outer loop
      vertex  4.161862e+000  1.682821e+000 -1.172990e+001
      vertex  3.420543e+000  5.462208e-001 -1.183740e+001
      vertex  0.000000e+000  9.522536e-001 -1.181168e+001
    endloop
  endfacet
  facet normal  0.000000e+000  8.402815e-001 -5.421503e-001
    outer loop
      vertex  0.000000e+000  1.096232e+001 -4.500000e+000
      vertex  2.900000e+001  1.096232e+001 -4.500000e+000
      vertex  2.900000e+001  8.618110e+000 -8.133307e+000
    endloop
  endfacet
  facet normal  0.000000e+000  8.402815e-001 -5.421503e-001
    outer loop
      vertex  0.000000e+000  1.096232e+001 -4.500000e+000
      vertex  2.900000e+001  8.618110e+000 -8.133307e+000
      vertex  2.350000e+001  8.618110e+000 -8.133307e+000
    endloop
  endfacet
  facet normal  0.000000e+000  8.402816e-001 -5.421503e-001
    outer loop
      vertex  0.000000e+000  1.096232e+001 -4.500000e+000
      vertex  2.350000e+001  8.618110e+000 -8.133307e+000
      vertex  5.500000e+000  8.618110e+000 -8.133307e+000
    endloop
  endfacet
  facet normal  0.000000e+000  8.402815e-001 -5.421503e-001
    outer loop
      vertex  0.000000e+000  1.096232e+001 -4.500000e+000
      vertex  5.500000e+000  8.618110e+000 -8.133307e+000
      vertex  0.000000e+000  8.618110e+000 -8.133307e+000
    endloop
  endfacet
  facet normal  3.624649e-003  3.066953e-001  9.518008e-001
    outer loop
      vertex  5.500000e+000  5.126457e+000  1.068372e+001
      vertex  6.118016e+000  2.059261e+000  1.166970e+001
      vertex  2.216186e+001  1.682821e+000  1.172990e+001
    endloop
  endfacet
  facet normal -1.806911e-002  2.095767e-001  9.776253e-001
    outer loop
      vertex  5.500000e+000  5.126457e+000  1.068372e+001
      vertex  2.216186e+001  1.682821e+000  1.172990e+001
      vertex  2.343576e+001  2.149040e+000  1.165350e+001
    endloop
  endfacet
  facet normal  0.000000e+000  3.096979e-001  9.508350e-001
    outer loop
      vertex  5.500000e+000  5.126457e+000  1.068372e+001
      vertex  2.343576e+001  2.149040e+000  1.165350e+001
      vertex  2.350000e+001  5.126457e+000  1.068372e+001
    endloop
  endfacet
  facet normal  0.000000e+000  5.898392e-001  8.075207e-001
    outer loop
      vertex  5.500000e+000  5.126457e+000  1.068372e+001
      vertex  2.350000e+001  5.126457e+000  1.068372e+001
      vertex  2.350000e+001  8.618110e+000  8.133307e+000
    endloop
  endfacet
  facet normal  0.000000e+000  5.898392e-001  8.075207e-001
    outer loop
      vertex  5.500000e+000  5.126457e+000  1.068372e+001
      vertex  2.350000e+001  8.618110e+000  8.133307e+000
      vertex  5.500000e+000  8.618110e+000  8.133307e+000
    endloop
  endfacet
  facet normal  0.000000e+000  5.898393e-001  8.075207e-001
    outer loop
      vertex  5.500000e+000  5.126457e+000  1.068372e+001
      vertex  5.500000e+000  8.618110e+000  8.133307e+000
      vertex  0.000000e+000  8.618110e+000  8.133307e+000
    endloop
  endfacet
  facet normal  0.000000e+000  5.898393e-001  8.075207e-001
    outer loop
      vertex  5.500000e+000  5.126457e+000  1.068372e+001
      vertex  0.000000e+000  8.618110e+000  8.133307e+000
      vertex  0.000000e+000  5.126457e+000  1.068372e+001
    endloop
  endfacet
  facet normal  -0.000000e+000  3.096979e-001  9.508350e-001
    outer loop
      vertex  5.500000e+000  5.126457e+000  1.068372e+001
      vertex  0.000000e+000  5.126457e+000  1.068372e+001
      vertex  5.435763e+000  2.149040e+000  1.165350e+001
    endloop
  endfacet
  facet normal  1.812537e-002  3.092935e-001  9.507939e-001
    outer loop
      vertex  5.500000e+000  5.126457e+000  1.068372e+001
      vertex  5.435763e+000  2.149040e+000  1.165350e+001
      vertex  6.118016e+000  2.059261e+000  1.166970e+001
    endloop
  endfacet
  facet normal -1.968567e-002 -1.028236e-001 -9.945047e-001
    outer loop
      vertex  0.000000e+000 -3.348736e+000 -1.136699e+001
      vertex  0.000000e+000  9.522536e-001 -1.181168e+001
      vertex  3.420543e+000  5.462208e-001 -1.183740e+001
    endloop
  endfacet
  facet normal -1.883707e-001  4.694932e-002 -9.809752e-001
    outer loop
      vertex  0.000000e+000 -3.348736e+000 -1.136699e+001
      vertex  3.420543e+000  5.462208e-001 -1.183740e+001
      vertex  3.350000e+000  2.632904e-016 -1.185000e+001
    endloop
  endfacet
  facet normal -6.738590e-002 -7.607844e-002 -9.948223e-001
    outer loop
      vertex  0.000000e+000 -3.348736e+000 -1.136699e+001
      vertex  3.350000e+000  2.632904e-016 -1.185000e+001
      vertex  3.771925e+000 -1.279163e+000 -1.178076e+001
    endloop
  endfacet
  facet normal -1.749089e-002 -1.652701e-001 -9.860933e-001
    outer loop
      vertex  0.000000e+000 -3.348736e+000 -1.136699e+001
      vertex  3.771925e+000 -1.279163e+000 -1.178076e+001
      vertex  4.881984e+000 -2.059261e+000 -1.166970e+001
    endloop
  endfacet
  facet normal -4.663052e-003 -2.117741e-001 -9.773076e-001
    outer loop
      vertex  0.000000e+000 -3.348736e+000 -1.136699e+001
      vertex  4.881984e+000 -2.059261e+000 -1.166970e+001
      vertex  5.564237e+000 -2.149040e+000 -1.165350e+001
    endloop
  endfacet
  facet normal  0.000000e+000 -2.322885e-001 -9.726470e-001
    outer loop
      vertex  0.000000e+000 -3.348736e+000 -1.136699e+001
      vertex  5.564237e+000 -2.149040e+000 -1.165350e+001
      vertex  5.500000e+000 -3.348736e+000 -1.136699e+001
    endloop
  endfacet
  facet normal -3.449253e-002 -1.027824e-001  9.941058e-001
    outer loop
      vertex  0.000000e+000  9.522536e-001  1.181168e+001
      vertex  0.000000e+000 -3.348736e+000  1.136699e+001
      vertex  4.881984e+000 -2.059261e+000  1.166970e+001
    endloop
  endfacet
  facet normal -3.474054e-001 -5.972616e-001  7.229024e-001
    outer loop
      vertex  0.000000e+000  9.522536e-001  1.181168e+001
      vertex  4.881984e+000 -2.059261e+000  1.166970e+001
      vertex  3.771925e+000 -1.279163e+000  1.178076e+001
    endloop
  endfacet
  facet normal -2.952947e-002 -6.373825e-002  9.975296e-001
    outer loop
      vertex  0.000000e+000  9.522536e-001  1.181168e+001
      vertex  3.771925e+000 -1.279163e+000  1.178076e+001
      vertex  3.350000e+000  2.632904e-016  1.185000e+001
    endloop
  endfacet
  facet normal -4.710415e-003  2.366214e-002  9.997089e-001
    outer loop
      vertex  0.000000e+000  9.522536e-001  1.181168e+001
      vertex  3.350000e+000  2.632904e-016  1.185000e+001
      vertex  3.420543e+000  5.462208e-001  1.183740e+001
    endloop
  endfacet
  facet normal  3.424997e-003  9.194696e-002  9.957580e-001
    outer loop
      vertex  0.000000e+000  9.522536e-001  1.181168e+001
      vertex  3.420543e+000  5.462208e-001  1.183740e+001
      vertex  4.161862e+000  1.682821e+000  1.172990e+001
    endloop
  endfacet
  facet normal -1.713831e-002  2.071218e-001  9.781651e-001
    outer loop
      vertex  0.000000e+000  9.522536e-001  1.181168e+001
      vertex  4.161862e+000  1.682821e+000  1.172990e+001
      vertex  5.435763e+000  2.149040e+000  1.165350e+001
    endloop
  endfacet
  facet normal -2.933019e-002  2.607516e-001  9.649604e-001
    outer loop
      vertex  0.000000e+000  9.522536e-001  1.181168e+001
      vertex  5.435763e+000  2.149040e+000  1.165350e+001
      vertex  0.000000e+000  5.126457e+000  1.068372e+001
    endloop
  endfacet
  facet normal  0.000000e+000 -2.322885e-001 -9.726470e-001
    outer loop
      vertex  2.900000e+001 -3.348736e+000 -1.136699e+001
      vertex  2.350000e+001 -3.348736e+000 -1.136699e+001
      vertex  2.356424e+001 -2.149040e+000 -1.165350e+001
    endloop
  endfacet
  facet normal  1.013316e-002 -1.886093e-001 -9.819999e-001
    outer loop
      vertex  2.900000e+001 -3.348736e+000 -1.136699e+001
      vertex  2.356424e+001 -2.149040e+000 -1.165350e+001
      vertex  2.483814e+001 -1.682821e+000 -1.172990e+001
    endloop
  endfacet
  facet normal  3.881703e-002 -1.191539e-001 -9.921167e-001
    outer loop
      vertex  2.900000e+001 -3.348736e+000 -1.136699e+001
      vertex  2.483814e+001 -1.682821e+000 -1.172990e+001
      vertex  2.557946e+001 -5.462208e-001 -1.183740e+001
    endloop
  endfacet
  facet normal  1.065970e-001 -3.667992e-002 -9.936255e-001
    outer loop
      vertex  2.900000e+001 -3.348736e+000 -1.136699e+001
      vertex  2.557946e+001 -5.462208e-001 -1.183740e+001
      vertex  2.565000e+001  0.000000e+000 -1.185000e+001
    endloop
  endfacet
  facet normal  4.057948e-002 -1.027588e-001 -9.938782e-001
    outer loop
      vertex  2.900000e+001 -3.348736e+000 -1.136699e+001
      vertex  2.565000e+001  0.000000e+000 -1.185000e+001
      vertex  2.900000e+001  9.522536e-001 -1.181168e+001
    endloop
  endfacet
  facet normal  4.220343e-004 -1.403511e-001 -9.901017e-001
    outer loop
      vertex  2.288198e+001 -2.059261e+000 -1.166970e+001
      vertex  6.838138e+000 -1.682821e+000 -1.172990e+001
      vertex  2.177192e+001 -1.279163e+000 -1.178076e+001
    endloop
  endfacet
  facet normal -8.602427e-004 -9.360566e-002 -9.956089e-001
    outer loop
      vertex  2.177192e+001 -1.279163e+000 -1.178076e+001
      vertex  6.838138e+000 -1.682821e+000 -1.172990e+001
      vertex  7.579457e+000 -5.462208e-001 -1.183740e+001
    endloop
  endfacet
  facet normal  1.214801e-003 -5.365313e-002 -9.985589e-001
    outer loop
      vertex  2.177192e+001 -1.279163e+000 -1.178076e+001
      vertex  7.579457e+000 -5.462208e-001 -1.183740e+001
      vertex  2.135000e+001  2.632904e-016 -1.185000e+001
    endloop
  endfacet
  facet normal  4.430654e-019 -2.305438e-002 -9.997342e-001
    outer loop
      vertex  2.135000e+001  2.632904e-016 -1.185000e+001
      vertex  7.579457e+000 -5.462208e-001 -1.183740e+001
      vertex  7.650000e+000  0.000000e+000 -1.185000e+001
    endloop
  endfacet
  facet normal -4.430654e-019  2.305438e-002 -9.997342e-001
    outer loop
      vertex  2.135000e+001  2.632904e-016 -1.185000e+001
      vertex  7.650000e+000  0.000000e+000 -1.185000e+001
      vertex  2.142054e+001  5.462208e-001 -1.183740e+001
    endloop
  endfacet
  facet normal -1.214802e-003  5.365314e-002 -9.985590e-001
    outer loop
      vertex  2.142054e+001  5.462208e-001 -1.183740e+001
      vertex  7.650000e+000  0.000000e+000 -1.185000e+001
      vertex  7.228075e+000  1.279163e+000 -1.178076e+001
    endloop
  endfacet
  facet normal  8.602427e-004  9.360565e-002 -9.956089e-001
    outer loop
      vertex  2.142054e+001  5.462208e-001 -1.183740e+001
      vertex  7.228075e+000  1.279163e+000 -1.178076e+001
      vertex  2.216186e+001  1.682821e+000 -1.172990e+001
    endloop
  endfacet
  facet normal -4.220343e-004  1.403511e-001 -9.901017e-001
    outer loop
      vertex  2.216186e+001  1.682821e+000 -1.172990e+001
      vertex  7.228075e+000  1.279163e+000 -1.178076e+001
      vertex  6.118016e+000  2.059261e+000 -1.166970e+001
    endloop
  endfacet
  facet normal  8.595116e-005  1.614854e-001 -9.868750e-001
    outer loop
      vertex  2.216186e+001  1.682821e+000 -1.172990e+001
      vertex  6.118016e+000  2.059261e+000 -1.166970e+001
      vertex  2.343576e+001  2.149040e+000 -1.165350e+001
    endloop
  endfacet
  facet normal -6.953364e-004  3.059085e-001 -9.520607e-001
    outer loop
      vertex  2.343576e+001  2.149040e+000 -1.165350e+001
      vertex  6.118016e+000  2.059261e+000 -1.166970e+001
      vertex  5.500000e+000  5.126457e+000 -1.068372e+001
    endloop
  endfacet
  facet normal  0.000000e+000  3.096979e-001 -9.508350e-001
    outer loop
      vertex  2.343576e+001  2.149040e+000 -1.165350e+001
      vertex  5.500000e+000  5.126457e+000 -1.068372e+001
      vertex  2.350000e+001  5.126457e+000 -1.068372e+001
    endloop
  endfacet
  facet normal -7.421433e-003 -2.319061e-001 -9.727098e-001
    outer loop
      vertex  2.356424e+001 -2.149040e+000 -1.165350e+001
      vertex  2.350000e+001 -3.348736e+000 -1.136699e+001
      vertex  2.288198e+001 -2.059261e+000 -1.166970e+001
    endloop
  endfacet
  facet normal  0.000000e+000 -2.285426e-001 -9.735339e-001
    outer loop
      vertex  2.288198e+001 -2.059261e+000 -1.166970e+001
      vertex  2.350000e+001 -3.348736e+000 -1.136699e+001
      vertex  5.500000e+000 -3.348736e+000 -1.136699e+001
    endloop
  endfacet
  facet normal -1.303674e-003 -2.118535e-001 -9.773006e-001
    outer loop
      vertex  2.288198e+001 -2.059261e+000 -1.166970e+001
      vertex  5.500000e+000 -3.348736e+000 -1.136699e+001
      vertex  6.838138e+000 -1.682821e+000 -1.172990e+001
    endloop
  endfacet
  facet normal  2.719365e-002 -2.335798e-001 -9.719573e-001
    outer loop
      vertex  6.838138e+000 -1.682821e+000 -1.172990e+001
      vertex  5.500000e+000 -3.348736e+000 -1.136699e+001
      vertex  5.564237e+000 -2.149040e+000 -1.165350e+001
    endloop
  endfacet
  facet normal -8.595116e-005 -1.614854e-001  9.868750e-001
    outer loop
      vertex  6.838138e+000 -1.682821e+000  1.172990e+001
      vertex  5.564237e+000 -2.149040e+000  1.165350e+001
      vertex  2.288198e+001 -2.059261e+000  1.166970e+001
    endloop
  endfacet
  facet normal  2.944978e-004 -2.323034e-001  9.726434e-001
    outer loop
      vertex  2.288198e+001 -2.059261e+000  1.166970e+001
      vertex  5.564237e+000 -2.149040e+000  1.165350e+001
      vertex  5.500000e+000 -3.348736e+000  1.136699e+001
    endloop
  endfacet
  facet normal -2.527026e-003 -1.961314e-001  9.805744e-001
    outer loop
      vertex  2.288198e+001 -2.059261e+000  1.166970e+001
      vertex  5.500000e+000 -3.348736e+000  1.136699e+001
      vertex  2.356424e+001 -2.149040e+000  1.165350e+001
    endloop
  endfacet
  facet normal  0.000000e+000 -2.322885e-001  9.726470e-001
    outer loop
      vertex  2.356424e+001 -2.149040e+000  1.165350e+001
      vertex  5.500000e+000 -3.348736e+000  1.136699e+001
      vertex  2.350000e+001 -3.348736e+000  1.136699e+001
    endloop
  endfacet
  facet normal  2.719366e-002 -2.335798e-001  9.719573e-001
    outer loop
      vertex  2.356424e+001 -2.149040e+000  1.165350e+001
      vertex  2.350000e+001 -3.348736e+000  1.136699e+001
      vertex  2.483814e+001 -1.682821e+000  1.172990e+001
    endloop
  endfacet
  facet normal  0.000000e+000  3.096979e-001  9.508350e-001
    outer loop
      vertex  2.350000e+001  5.126457e+000  1.068372e+001
      vertex  2.343576e+001  2.149040e+000  1.165350e+001
      vertex  2.900000e+001  5.126457e+000  1.068372e+001
    endloop
  endfacet
  facet normal  1.470732e-002  2.847096e-001  9.585010e-001
    outer loop
      vertex  2.900000e+001  5.126457e+000  1.068372e+001
      vertex  2.343576e+001  2.149040e+000  1.165350e+001
      vertex  2.411802e+001  2.059261e+000  1.166970e+001
    endloop
  endfacet
  facet normal  3.106225e-002  2.607380e-001  9.649099e-001
    outer loop
      vertex  2.900000e+001  5.126457e+000  1.068372e+001
      vertex  2.411802e+001  2.059261e+000  1.166970e+001
      vertex  2.900000e+001  9.522536e-001  1.181168e+001
    endloop
  endfacet
  facet normal  4.671704e-003  1.474508e-001  9.890584e-001
    outer loop
      vertex  2.900000e+001  9.522536e-001  1.181168e+001
      vertex  2.411802e+001  2.059261e+000  1.166970e+001
      vertex  2.522808e+001  1.279163e+000  1.178076e+001
    endloop
  endfacet
  facet normal -3.603960e-003  5.286704e-002  9.985951e-001
    outer loop
      vertex  2.900000e+001  9.522536e-001  1.181168e+001
      vertex  2.522808e+001  1.279163e+000  1.178076e+001
      vertex  2.565000e+001  0.000000e+000  1.185000e+001
    endloop
  endfacet
  facet normal -7.421434e-003 -2.319061e-001  9.727099e-001
    outer loop
      vertex  5.564237e+000 -2.149040e+000  1.165350e+001
      vertex  4.881984e+000 -2.059261e+000  1.166970e+001
      vertex  5.500000e+000 -3.348736e+000  1.136699e+001
    endloop
  endfacet
  facet normal  0.000000e+000 -2.285426e-001  9.735339e-001
    outer loop
      vertex  5.500000e+000 -3.348736e+000  1.136699e+001
      vertex  4.881984e+000 -2.059261e+000  1.166970e+001
      vertex  0.000000e+000 -3.348736e+000  1.136699e+001
    endloop
  endfacet
  facet normal  0.000000e+000 -4.528580e-001  8.915826e-001
    outer loop
      vertex  5.500000e+000 -3.348736e+000  1.136699e+001
      vertex  0.000000e+000 -3.348736e+000  1.136699e+001
      vertex  5.500000e+000 -7.203865e+000  9.408870e+000
    endloop
  endfacet
  facet normal  0.000000e+000 -4.528580e-001  8.915826e-001
    outer loop
      vertex  5.500000e+000 -7.203865e+000  9.408870e+000
      vertex  0.000000e+000 -3.348736e+000  1.136699e+001
      vertex  0.000000e+000 -7.203865e+000  9.408870e+000
    endloop
  endfacet
  facet normal  0.000000e+000 -7.425777e-001  6.697600e-001
    outer loop
      vertex  5.500000e+000 -7.203865e+000  9.408870e+000
      vertex  0.000000e+000 -7.203865e+000  9.408870e+000
      vertex  5.500000e+000 -1.009985e+001  6.198026e+000
    endloop
  endfacet
  facet normal  0.000000e+000 -7.425777e-001  6.697600e-001
    outer loop
      vertex  5.500000e+000 -1.009985e+001  6.198026e+000
      vertex  0.000000e+000 -7.203865e+000  9.408870e+000
      vertex  0.000000e+000 -1.009985e+001  6.198026e+000
    endloop
  endfacet
  facet normal  0.000000e+000 -9.334286e-001  3.587633e-001
    outer loop
      vertex  5.500000e+000 -1.009985e+001  6.198026e+000
      vertex  0.000000e+000 -1.009985e+001  6.198026e+000
      vertex  5.500000e+000 -1.165111e+001  2.161958e+000
    endloop
  endfacet
  facet normal  0.000000e+000 -9.334286e-001  3.587633e-001
    outer loop
      vertex  5.500000e+000 -1.165111e+001  2.161958e+000
      vertex  0.000000e+000 -1.009985e+001  6.198026e+000
      vertex  0.000000e+000 -1.165111e+001  2.161958e+000
    endloop
  endfacet
  facet normal  0.000000e+000 -1.000000e+000  0.000000e+000
    outer loop
      vertex  5.500000e+000 -1.165111e+001  2.161958e+000
      vertex  0.000000e+000 -1.165111e+001  2.161958e+000
      vertex  5.500000e+000 -1.165111e+001 -2.161958e+000
    endloop
  endfacet
  facet normal  0.000000e+000 -1.000000e+000  0.000000e+000
    outer loop
      vertex  5.500000e+000 -1.165111e+001 -2.161958e+000
      vertex  0.000000e+000 -1.165111e+001  2.161958e+000
      vertex  0.000000e+000 -1.165111e+001 -2.161958e+000
    endloop
  endfacet
  facet normal  0.000000e+000 -9.334286e-001 -3.587633e-001
    outer loop
      vertex  5.500000e+000 -1.165111e+001 -2.161958e+000
      vertex  0.000000e+000 -1.165111e+001 -2.161958e+000
      vertex  5.500000e+000 -1.009985e+001 -6.198026e+000
    endloop
  endfacet
  facet normal  -0.000000e+000 -9.334286e-001 -3.587633e-001
    outer loop
      vertex  5.500000e+000 -1.009985e+001 -6.198026e+000
      vertex  0.000000e+000 -1.165111e+001 -2.161958e+000
      vertex  0.000000e+000 -1.009985e+001 -6.198026e+000
    endloop
  endfacet
  facet normal  0.000000e+000 -7.425777e-001 -6.697600e-001
    outer loop
      vertex  5.500000e+000 -1.009985e+001 -6.198026e+000
      vertex  0.000000e+000 -1.009985e+001 -6.198026e+000
      vertex  5.500000e+000 -7.203865e+000 -9.408870e+000
    endloop
  endfacet
  facet normal  -0.000000e+000 -7.425777e-001 -6.697600e-001
    outer loop
      vertex  5.500000e+000 -7.203865e+000 -9.408870e+000
      vertex  0.000000e+000 -1.009985e+001 -6.198026e+000
      vertex  0.000000e+000 -7.203865e+000 -9.408870e+000
    endloop
  endfacet
  facet normal  0.000000e+000 -4.528580e-001 -8.915826e-001
    outer loop
      vertex  5.500000e+000 -7.203865e+000 -9.408870e+000
      vertex  0.000000e+000 -7.203865e+000 -9.408870e+000
      vertex  5.500000e+000 -3.348736e+000 -1.136699e+001
    endloop
  endfacet
  facet normal  -0.000000e+000 -4.528580e-001 -8.915826e-001
    outer loop
      vertex  5.500000e+000 -3.348736e+000 -1.136699e+001
      vertex  0.000000e+000 -7.203865e+000 -9.408870e+000
      vertex  0.000000e+000 -3.348736e+000 -1.136699e+001
    endloop
  endfacet
  facet normal  0.000000e+000  8.402815e-001  5.421503e-001
    outer loop
      vertex  0.000000e+000  1.096232e+001  4.500000e+000
      vertex  5.500000e+000  8.618110e+000  8.133307e+000
      vertex  2.900000e+001  1.096232e+001  4.500000e+000
    endloop
  endfacet
  facet normal  0.000000e+000  8.402816e-001  5.421503e-001
    outer loop
      vertex  2.900000e+001  1.096232e+001  4.500000e+000
      vertex  5.500000e+000  8.618110e+000  8.133307e+000
      vertex  2.350000e+001  8.618110e+000  8.133307e+000
    endloop
  endfacet
  facet normal  -0.000000e+000  8.402815e-001  5.421503e-001
    outer loop
      vertex  2.900000e+001  1.096232e+001  4.500000e+000
      vertex  2.350000e+001  8.618110e+000  8.133307e+000
      vertex  2.900000e+001  8.618110e+000  8.133307e+000
    endloop
  endfacet
  facet normal  0.000000e+000  5.898393e-001 -8.075207e-001
    outer loop
      vertex  0.000000e+000  8.618110e+000 -8.133307e+000
      vertex  5.500000e+000  8.618110e+000 -8.133307e+000
      vertex  0.000000e+000  5.126457e+000 -1.068372e+001
    endloop
  endfacet
  facet normal  0.000000e+000  5.898393e-001 -8.075207e-001
    outer loop
      vertex  0.000000e+000  5.126457e+000 -1.068372e+001
      vertex  5.500000e+000  8.618110e+000 -8.133307e+000
      vertex  5.500000e+000  5.126457e+000 -1.068372e+001
    endloop
  endfacet
  facet normal  0.000000e+000  2.608639e-001 -9.653756e-001
    outer loop
      vertex  0.000000e+000  5.126457e+000 -1.068372e+001
      vertex  5.500000e+000  5.126457e+000 -1.068372e+001
      vertex  0.000000e+000  9.522536e-001 -1.181168e+001
    endloop
  endfacet
  facet normal -4.066631e-002  3.102349e-001 -9.497898e-001
    outer loop
      vertex  0.000000e+000  9.522536e-001 -1.181168e+001
      vertex  5.500000e+000  5.126457e+000 -1.068372e+001
      vertex  5.435763e+000  2.149040e+000 -1.165350e+001
    endloop
  endfacet
  facet normal -1.713832e-002  2.071218e-001 -9.781651e-001
    outer loop
      vertex  0.000000e+000  9.522536e-001 -1.181168e+001
      vertex  5.435763e+000  2.149040e+000 -1.165350e+001
      vertex  4.161862e+000  1.682821e+000 -1.172990e+001
    endloop
  endfacet
  facet normal  0.000000e+000  5.898393e-001 -8.075207e-001
    outer loop
      vertex  2.900000e+001  8.618110e+000 -8.133307e+000
      vertex  2.900000e+001  5.126457e+000 -1.068372e+001
      vertex  2.350000e+001  8.618110e+000 -8.133307e+000
    endloop
  endfacet
  facet normal  0.000000e+000  5.898393e-001 -8.075207e-001
    outer loop
      vertex  2.350000e+001  8.618110e+000 -8.133307e+000
      vertex  2.900000e+001  5.126457e+000 -1.068372e+001
      vertex  2.350000e+001  5.126457e+000 -1.068372e+001
    endloop
  endfacet
  facet normal  0.000000e+000  5.898392e-001 -8.075207e-001
    outer loop
      vertex  2.350000e+001  8.618110e+000 -8.133307e+000
      vertex  2.350000e+001  5.126457e+000 -1.068372e+001
      vertex  5.500000e+000  8.618110e+000 -8.133307e+000
    endloop
  endfacet
  facet normal  0.000000e+000  5.898392e-001 -8.075207e-001
    outer loop
      vertex  5.500000e+000  8.618110e+000 -8.133307e+000
      vertex  2.350000e+001  5.126457e+000 -1.068372e+001
      vertex  5.500000e+000  5.126457e+000 -1.068372e+001
    endloop
  endfacet
  facet normal  -0.000000e+000 -4.528580e-001 -8.915826e-001
    outer loop
      vertex  5.500000e+000 -3.348736e+000 -1.136699e+001
      vertex  2.350000e+001 -3.348736e+000 -1.136699e+001
      vertex  5.500000e+000 -7.203865e+000 -9.408870e+000
    endloop
  endfacet
  facet normal  0.000000e+000 -4.528580e-001 -8.915826e-001
    outer loop
      vertex  5.500000e+000 -7.203865e+000 -9.408870e+000
      vertex  2.350000e+001 -3.348736e+000 -1.136699e+001
      vertex  2.350000e+001 -7.203865e+000 -9.408870e+000
    endloop
  endfacet
  facet normal  -0.000000e+000 -7.425777e-001 -6.697600e-001
    outer loop
      vertex  5.500000e+000 -7.203865e+000 -9.408870e+000
      vertex  2.350000e+001 -7.203865e+000 -9.408870e+000
      vertex  5.500000e+000 -1.009985e+001 -6.198026e+000
    endloop
  endfacet
  facet normal  0.000000e+000 -7.425777e-001 -6.697600e-001
    outer loop
      vertex  5.500000e+000 -1.009985e+001 -6.198026e+000
      vertex  2.350000e+001 -7.203865e+000 -9.408870e+000
      vertex  2.350000e+001 -1.009985e+001 -6.198026e+000
    endloop
  endfacet
  facet normal  -0.000000e+000 -9.334285e-001 -3.587633e-001
    outer loop
      vertex  5.500000e+000 -1.009985e+001 -6.198026e+000
      vertex  2.350000e+001 -1.009985e+001 -6.198026e+000
      vertex  5.500000e+000 -1.165111e+001 -2.161958e+000
    endloop
  endfacet
  facet normal  0.000000e+000 -9.334285e-001 -3.587633e-001
    outer loop
      vertex  5.500000e+000 -1.165111e+001 -2.161958e+000
      vertex  2.350000e+001 -1.009985e+001 -6.198026e+000
      vertex  2.350000e+001 -1.165111e+001 -2.161958e+000
    endloop
  endfacet
  facet normal  0.000000e+000 -1.000000e+000  0.000000e+000
    outer loop
      vertex  5.500000e+000 -1.165111e+001 -2.161958e+000
      vertex  2.350000e+001 -1.165111e+001 -2.161958e+000
      vertex  5.500000e+000 -1.165111e+001  2.161958e+000
    endloop
  endfacet
  facet normal  0.000000e+000 -1.000000e+000  0.000000e+000
    outer loop
      vertex  5.500000e+000 -1.165111e+001  2.161958e+000
      vertex  2.350000e+001 -1.165111e+001 -2.161958e+000
      vertex  2.350000e+001 -1.165111e+001  2.161958e+000
    endloop
  endfacet
  facet normal  0.000000e+000 -9.334285e-001  3.587633e-001
    outer loop
      vertex  5.500000e+000 -1.165111e+001  2.161958e+000
      vertex  2.350000e+001 -1.165111e+001  2.161958e+000
      vertex  5.500000e+000 -1.009985e+001  6.198026e+000
    endloop
  endfacet
  facet normal  0.000000e+000 -9.334285e-001  3.587633e-001
    outer loop
      vertex  5.500000e+000 -1.009985e+001  6.198026e+000
      vertex  2.350000e+001 -1.165111e+001  2.161958e+000
      vertex  2.350000e+001 -1.009985e+001  6.198026e+000
    endloop
  endfacet
  facet normal  0.000000e+000 -7.425777e-001  6.697600e-001
    outer loop
      vertex  5.500000e+000 -1.009985e+001  6.198026e+000
      vertex  2.350000e+001 -1.009985e+001  6.198026e+000
      vertex  5.500000e+000 -7.203865e+000  9.408870e+000
    endloop
  endfacet
  facet normal  0.000000e+000 -7.425777e-001  6.697600e-001
    outer loop
      vertex  5.500000e+000 -7.203865e+000  9.408870e+000
      vertex  2.350000e+001 -1.009985e+001  6.198026e+000
      vertex  2.350000e+001 -7.203865e+000  9.408870e+000
    endloop
  endfacet
  facet normal  0.000000e+000 -4.528580e-001  8.915826e-001
    outer loop
      vertex  5.500000e+000 -7.203865e+000  9.408870e+000
      vertex  2.350000e+001 -7.203865e+000  9.408870e+000
      vertex  5.500000e+000 -3.348736e+000  1.136699e+001
    endloop
  endfacet
  facet normal  0.000000e+000 -4.528580e-001  8.915826e-001
    outer loop
      vertex  5.500000e+000 -3.348736e+000  1.136699e+001
      vertex  2.350000e+001 -7.203865e+000  9.408870e+000
      vertex  2.350000e+001 -3.348736e+000  1.136699e+001
    endloop
  endfacet
  facet normal  1.503106e-003 -9.513333e-002  9.954634e-001
    outer loop
      vertex  6.838138e+000 -1.682821e+000  1.172990e+001
      vertex  2.288198e+001 -2.059261e+000  1.166970e+001
      vertex  7.579457e+000 -5.462208e-001  1.183740e+001
    endloop
  endfacet
  facet normal -3.588265e-003 -1.459416e-001  9.892867e-001
    outer loop
      vertex  7.579457e+000 -5.462208e-001  1.183740e+001
      vertex  2.288198e+001 -2.059261e+000  1.166970e+001
      vertex  2.177192e+001 -1.279163e+000  1.178076e+001
    endloop
  endfacet
  facet normal  2.781122e-003 -2.341327e-002  9.997221e-001
    outer loop
      vertex  7.579457e+000 -5.462208e-001  1.183740e+001
      vertex  2.177192e+001 -1.279163e+000  1.178076e+001
      vertex  7.650000e+000  0.000000e+000  1.185000e+001
    endloop
  endfacet
  facet normal  1.038799e-018 -5.405269e-002  9.985380e-001
    outer loop
      vertex  7.650000e+000  0.000000e+000  1.185000e+001
      vertex  2.177192e+001 -1.279163e+000  1.178076e+001
      vertex  2.135000e+001  2.632904e-016  1.185000e+001
    endloop
  endfacet
  facet normal -1.038799e-018  5.405269e-002  9.985380e-001
    outer loop
      vertex  7.650000e+000  0.000000e+000  1.185000e+001
      vertex  2.135000e+001  2.632904e-016  1.185000e+001
      vertex  7.228075e+000  1.279163e+000  1.178076e+001
    endloop
  endfacet
  facet normal -2.781122e-003  2.341327e-002  9.997221e-001
    outer loop
      vertex  7.228075e+000  1.279163e+000  1.178076e+001
      vertex  2.135000e+001  2.632904e-016  1.185000e+001
      vertex  2.142054e+001  5.462208e-001  1.183740e+001
    endloop
  endfacet
  facet normal  3.588266e-003  1.459416e-001  9.892867e-001
    outer loop
      vertex  7.228075e+000  1.279163e+000  1.178076e+001
      vertex  2.142054e+001  5.462208e-001  1.183740e+001
      vertex  6.118016e+000  2.059261e+000  1.166970e+001
    endloop
  endfacet
  facet normal -1.503106e-003  9.513333e-002  9.954634e-001
    outer loop
      vertex  6.118016e+000  2.059261e+000  1.166970e+001
      vertex  2.142054e+001  5.462208e-001  1.183740e+001
      vertex  2.216186e+001  1.682821e+000  1.172990e+001
    endloop
  endfacet
  facet normal  0.000000e+000  3.060355e-001 -9.520200e-001
    outer loop
      vertex  2.350000e+001  5.126457e+000 -1.068372e+001
      vertex  2.900000e+001  5.126457e+000 -1.068372e+001
      vertex  2.411802e+001  2.059261e+000 -1.166970e+001
    endloop
  endfacet
  facet normal  3.106225e-002  2.607380e-001 -9.649099e-001
    outer loop
      vertex  2.411802e+001  2.059261e+000 -1.166970e+001
      vertex  2.900000e+001  5.126457e+000 -1.068372e+001
      vertex  2.900000e+001  9.522536e-001 -1.181168e+001
    endloop
  endfacet
  facet normal  4.671704e-003  1.474508e-001 -9.890584e-001
    outer loop
      vertex  2.411802e+001  2.059261e+000 -1.166970e+001
      vertex  2.900000e+001  9.522536e-001 -1.181168e+001
      vertex  2.522808e+001  1.279163e+000 -1.178076e+001
    endloop
  endfacet
  facet normal  -0.000000e+000 -4.528580e-001 -8.915826e-001
    outer loop
      vertex  2.350000e+001 -3.348736e+000 -1.136699e+001
      vertex  2.900000e+001 -3.348736e+000 -1.136699e+001
      vertex  2.350000e+001 -7.203865e+000 -9.408870e+000
    endloop
  endfacet
  facet normal  0.000000e+000 -4.528580e-001 -8.915826e-001
    outer loop
      vertex  2.350000e+001 -7.203865e+000 -9.408870e+000
      vertex  2.900000e+001 -3.348736e+000 -1.136699e+001
      vertex  2.900000e+001 -7.203865e+000 -9.408870e+000
    endloop
  endfacet
  facet normal  -0.000000e+000 -7.425777e-001 -6.697600e-001
    outer loop
      vertex  2.350000e+001 -7.203865e+000 -9.408870e+000
      vertex  2.900000e+001 -7.203865e+000 -9.408870e+000
      vertex  2.350000e+001 -1.009985e+001 -6.198026e+000
    endloop
  endfacet
  facet normal  0.000000e+000 -7.425777e-001 -6.697600e-001
    outer loop
      vertex  2.350000e+001 -1.009985e+001 -6.198026e+000
      vertex  2.900000e+001 -7.203865e+000 -9.408870e+000
      vertex  2.900000e+001 -1.009985e+001 -6.198026e+000
    endloop
  endfacet
  facet normal  -0.000000e+000 -9.334286e-001 -3.587633e-001
    outer loop
      vertex  2.350000e+001 -1.009985e+001 -6.198026e+000
      vertex  2.900000e+001 -1.009985e+001 -6.198026e+000
      vertex  2.350000e+001 -1.165111e+001 -2.161958e+000
    endloop
  endfacet
  facet normal  0.000000e+000 -9.334286e-001 -3.587633e-001
    outer loop
      vertex  2.350000e+001 -1.165111e+001 -2.161958e+000
      vertex  2.900000e+001 -1.009985e+001 -6.198026e+000
      vertex  2.900000e+001 -1.165111e+001 -2.161958e+000
    endloop
  endfacet
  facet normal  0.000000e+000 -1.000000e+000  0.000000e+000
    outer loop
      vertex  2.350000e+001 -1.165111e+001 -2.161958e+000
      vertex  2.900000e+001 -1.165111e+001 -2.161958e+000
      vertex  2.350000e+001 -1.165111e+001  2.161958e+000
    endloop
  endfacet
  facet normal  0.000000e+000 -1.000000e+000  0.000000e+000
    outer loop
      vertex  2.350000e+001 -1.165111e+001  2.161958e+000
      vertex  2.900000e+001 -1.165111e+001 -2.161958e+000
      vertex  2.900000e+001 -1.165111e+001  2.161958e+000
    endloop
  endfacet
  facet normal  0.000000e+000 -9.334286e-001  3.587633e-001
    outer loop
      vertex  2.350000e+001 -1.165111e+001  2.161958e+000
      vertex  2.900000e+001 -1.165111e+001  2.161958e+000
      vertex  2.350000e+001 -1.009985e+001  6.198026e+000
    endloop
  endfacet
  facet normal  0.000000e+000 -9.334286e-001  3.587633e-001
    outer loop
      vertex  2.350000e+001 -1.009985e+001  6.198026e+000
      vertex  2.900000e+001 -1.165111e+001  2.161958e+000
      vertex  2.900000e+001 -1.009985e+001  6.198026e+000
    endloop
  endfacet
  facet normal  0.000000e+000 -7.425777e-001  6.697600e-001
    outer loop
      vertex  2.350000e+001 -1.009985e+001  6.198026e+000
      vertex  2.900000e+001 -1.009985e+001  6.198026e+000
      vertex  2.350000e+001 -7.203865e+000  9.408870e+000
    endloop
  endfacet
  facet normal  0.000000e+000 -7.425777e-001  6.697600e-001
    outer loop
      vertex  2.350000e+001 -7.203865e+000  9.408870e+000
      vertex  2.900000e+001 -1.009985e+001  6.198026e+000
      vertex  2.900000e+001 -7.203865e+000  9.408870e+000
    endloop
  endfacet
  facet normal  0.000000e+000 -4.528580e-001  8.915826e-001
    outer loop
      vertex  2.350000e+001 -7.203865e+000  9.408870e+000
      vertex  2.900000e+001 -7.203865e+000  9.408870e+000
      vertex  2.350000e+001 -3.348736e+000  1.136699e+001
    endloop
  endfacet
  facet normal  0.000000e+000 -4.528580e-001  8.915826e-001
    outer loop
      vertex  2.350000e+001 -3.348736e+000  1.136699e+001
      vertex  2.900000e+001 -7.203865e+000  9.408870e+000
      vertex  2.900000e+001 -3.348736e+000  1.136699e+001
    endloop
  endfacet
  facet normal  0.000000e+000 -2.128535e-001  9.770842e-001
    outer loop
      vertex  2.350000e+001 -3.348736e+000  1.136699e+001
      vertex  2.900000e+001 -3.348736e+000  1.136699e+001
      vertex  2.483814e+001 -1.682821e+000  1.172990e+001
    endloop
  endfacet
  facet normal  4.552355e-002 -1.027369e-001  9.936664e-001
    outer loop
      vertex  2.483814e+001 -1.682821e+000  1.172990e+001
      vertex  2.900000e+001 -3.348736e+000  1.136699e+001
      vertex  2.900000e+001  9.522536e-001  1.181168e+001
    endloop
  endfacet
  facet normal  6.772845e-002 -1.376368e-001  9.881644e-001
    outer loop
      vertex  2.483814e+001 -1.682821e+000  1.172990e+001
      vertex  2.900000e+001  9.522536e-001  1.181168e+001
      vertex  2.557946e+001 -5.462208e-001  1.183740e+001
    endloop
  endfacet
  facet normal  -0.000000e+000  5.898393e-001  8.075207e-001
    outer loop
      vertex  2.900000e+001  8.618110e+000  8.133307e+000
      vertex  2.350000e+001  8.618110e+000  8.133307e+000
      vertex  2.900000e+001  5.126457e+000  1.068372e+001
    endloop
  endfacet
  facet normal  0.000000e+000  5.898393e-001  8.075207e-001
    outer loop
      vertex  2.900000e+001  5.126457e+000  1.068372e+001
      vertex  2.350000e+001  8.618110e+000  8.133307e+000
      vertex  2.350000e+001  5.126457e+000  1.068372e+001
    endloop
  endfacet
  facet normal  0.000000e+000  0.000000e+000  1.000000e+000
    outer loop
      vertex  7.650000e+000  0.000000e+000 -4.500000e+000
      vertex  7.020279e+000 -1.520280e+000 -4.500000e+000
      vertex  2.135000e+001  2.632904e-016 -4.500000e+000
    endloop
  endfacet
  facet normal  0.000000e+000  0.000000e+000  1.000000e+000
    outer loop
      vertex  7.650000e+000  0.000000e+000 -4.500000e+000
      vertex  2.135000e+001  2.632904e-016 -4.500000e+000
      vertex  7.020279e+000  1.520280e+000 -4.500000e+000
    endloop
  endfacet
  facet normal  -0.000000e+000  0.000000e+000  1.000000e+000
    outer loop
      vertex  2.900000e+001  1.096232e+001 -4.500000e+000
      vertex  0.000000e+000  1.096232e+001 -4.500000e+000
      vertex  2.350000e+001  2.150000e+000 -4.500000e+000
    endloop
  endfacet
  facet normal  -0.000000e+000  0.000000e+000  1.000000e+000
    outer loop
      vertex  2.900000e+001  1.096232e+001 -4.500000e+000
      vertex  2.350000e+001  2.150000e+000 -4.500000e+000
      vertex  2.502028e+001  1.520280e+000 -4.500000e+000
    endloop
  endfacet
  facet normal  -0.000000e+000  0.000000e+000  1.000000e+000
    outer loop
      vertex  2.900000e+001  1.096232e+001 -4.500000e+000
      vertex  2.502028e+001  1.520280e+000 -4.500000e+000
      vertex  2.565000e+001  0.000000e+000 -4.500000e+000
    endloop
  endfacet
  facet normal  -0.000000e+000  0.000000e+000  1.000000e+000
    outer loop
      vertex  2.900000e+001  1.096232e+001 -4.500000e+000
      vertex  2.565000e+001  0.000000e+000 -4.500000e+000
      vertex  2.900000e+001 -7.500000e+000 -4.500000e+000
    endloop
  endfacet
  facet normal  0.000000e+000  0.000000e+000  9.999999e-001
    outer loop
      vertex  0.000000e+000  1.096232e+001 -4.500000e+000
      vertex  0.000000e+000 -7.500000e+000 -4.500000e+000
      vertex  3.350000e+000  2.632904e-016 -4.500000e+000
    endloop
  endfacet
  facet normal  0.000000e+000  -0.000000e+000  9.999999e-001
    outer loop
      vertex  0.000000e+000  1.096232e+001 -4.500000e+000
      vertex  3.350000e+000  2.632904e-016 -4.500000e+000
      vertex  3.979720e+000  1.520280e+000 -4.500000e+000
    endloop
  endfacet
  facet normal  0.000000e+000  -0.000000e+000  1.000000e+000
    outer loop
      vertex  0.000000e+000  1.096232e+001 -4.500000e+000
      vertex  3.979720e+000  1.520280e+000 -4.500000e+000
      vertex  5.500000e+000  2.150000e+000 -4.500000e+000
    endloop
  endfacet
  facet normal  -0.000000e+000  -0.000000e+000  1.000000e+000
    outer loop
      vertex  0.000000e+000  1.096232e+001 -4.500000e+000
      vertex  5.500000e+000  2.150000e+000 -4.500000e+000
      vertex  7.020279e+000  1.520280e+000 -4.500000e+000
    endloop
  endfacet
  facet normal  -0.000000e+000  -0.000000e+000  1.000000e+000
    outer loop
      vertex  0.000000e+000  1.096232e+001 -4.500000e+000
      vertex  7.020279e+000  1.520280e+000 -4.500000e+000
      vertex  2.135000e+001  2.632904e-016 -4.500000e+000
    endloop
  endfacet
  facet normal  0.000000e+000  -0.000000e+000  1.000000e+000
    outer loop
      vertex  0.000000e+000  1.096232e+001 -4.500000e+000
      vertex  2.135000e+001  2.632904e-016 -4.500000e+000
      vertex  2.197972e+001  1.520280e+000 -4.500000e+000
    endloop
  endfacet
  facet normal  0.000000e+000  -0.000000e+000  1.000000e+000
    outer loop
      vertex  0.000000e+000  1.096232e+001 -4.500000e+000
      vertex  2.197972e+001  1.520280e+000 -4.500000e+000
      vertex  2.350000e+001  2.150000e+000 -4.500000e+000
    endloop
  endfacet
  facet normal  0.000000e+000  0.000000e+000  9.999999e-001
    outer loop
      vertex  0.000000e+000 -7.500000e+000 -4.500000e+000
      vertex  2.350000e+001 -2.150000e+000 -4.500000e+000
      vertex  2.197972e+001 -1.520280e+000 -4.500000e+000
    endloop
  endfacet
  facet normal  0.000000e+000  0.000000e+000  1.000000e+000
    outer loop
      vertex  0.000000e+000 -7.500000e+000 -4.500000e+000
      vertex  2.197972e+001 -1.520280e+000 -4.500000e+000
      vertex  2.135000e+001  2.632904e-016 -4.500000e+000
    endloop
  endfacet
  facet normal  0.000000e+000  0.000000e+000  1.000000e+000
    outer loop
      vertex  0.000000e+000 -7.500000e+000 -4.500000e+000
      vertex  2.135000e+001  2.632904e-016 -4.500000e+000
      vertex  7.020279e+000 -1.520280e+000 -4.500000e+000
    endloop
  endfacet
  facet normal  0.000000e+000  0.000000e+000  1.000000e+000
    outer loop
      vertex  0.000000e+000 -7.500000e+000 -4.500000e+000
      vertex  7.020279e+000 -1.520280e+000 -4.500000e+000
      vertex  5.500000e+000 -2.150000e+000 -4.500000e+000
    endloop
  endfacet
  facet normal  0.000000e+000  0.000000e+000  1.000000e+000
    outer loop
      vertex  0.000000e+000 -7.500000e+000 -4.500000e+000
      vertex  5.500000e+000 -2.150000e+000 -4.500000e+000
      vertex  3.979720e+000 -1.520280e+000 -4.500000e+000
    endloop
  endfacet
  facet normal  0.000000e+000  0.000000e+000  1.000000e+000
    outer loop
      vertex  0.000000e+000 -7.500000e+000 -4.500000e+000
      vertex  3.979720e+000 -1.520280e+000 -4.500000e+000
      vertex  3.350000e+000  2.632904e-016 -4.500000e+000
    endloop
  endfacet
  facet normal  0.000000e+000  0.000000e+000  1.000000e+000
    outer loop
      vertex  2.900000e+001 -7.500000e+000 -4.500000e+000
      vertex  2.565000e+001  0.000000e+000 -4.500000e+000
      vertex  2.502028e+001 -1.520280e+000 -4.500000e+000
    endloop
  endfacet
  facet normal  0.000000e+000  0.000000e+000  1.000000e+000
    outer loop
      vertex  2.900000e+001 -7.500000e+000 -4.500000e+000
      vertex  2.502028e+001 -1.520280e+000 -4.500000e+000
      vertex  2.350000e+001 -2.150000e+000 -4.500000e+000
    endloop
  endfacet
  facet normal  0.000000e+000  0.000000e+000  1.000000e+000
    outer loop
      vertex  2.900000e+001 -7.500000e+000 -4.500000e+000
      vertex  2.350000e+001 -2.150000e+000 -4.500000e+000
      vertex  0.000000e+000 -7.500000e+000 -4.500000e+000
    endloop
  endfacet
  facet normal  0.000000e+000  0.000000e+000 -1.000000e+000
    outer loop
      vertex  7.650000e+000  0.000000e+000  4.500000e+000
      vertex  7.020279e+000  1.520280e+000  4.500000e+000
      vertex  2.135000e+001  2.632904e-016  4.500000e+000
    endloop
  endfacet
  facet normal  0.000000e+000  0.000000e+000 -1.000000e+000
    outer loop
      vertex  7.650000e+000  0.000000e+000  4.500000e+000
      vertex  2.135000e+001  2.632904e-016  4.500000e+000
      vertex  7.020279e+000 -1.520280e+000  4.500000e+000
    endloop
  endfacet
  facet normal  0.000000e+000  0.000000e+000 -1.000000e+000
    outer loop
      vertex  2.900000e+001 -7.500000e+000  4.500000e+000
      vertex  0.000000e+000 -7.500000e+000  4.500000e+000
      vertex  2.350000e+001 -2.150000e+000  4.500000e+000
    endloop
  endfacet
  facet normal  0.000000e+000  0.000000e+000 -1.000000e+000
    outer loop
      vertex  2.900000e+001 -7.500000e+000  4.500000e+000
      vertex  2.350000e+001 -2.150000e+000  4.500000e+000
      vertex  2.502028e+001 -1.520280e+000  4.500000e+000
    endloop
  endfacet
  facet normal  0.000000e+000  0.000000e+000 -1.000000e+000
    outer loop
      vertex  2.900000e+001 -7.500000e+000  4.500000e+000
      vertex  2.502028e+001 -1.520280e+000  4.500000e+000
      vertex  2.565000e+001  0.000000e+000  4.500000e+000
    endloop
  endfacet
  facet normal  0.000000e+000  0.000000e+000 -1.000000e+000
    outer loop
      vertex  2.900000e+001 -7.500000e+000  4.500000e+000
      vertex  2.565000e+001  0.000000e+000  4.500000e+000
      vertex  2.900000e+001  1.096232e+001  4.500000e+000
    endloop
  endfacet
  facet normal  0.000000e+000  0.000000e+000 -9.999999e-001
    outer loop
      vertex  0.000000e+000 -7.500000e+000  4.500000e+000
      vertex  0.000000e+000  1.096232e+001  4.500000e+000
      vertex  3.350000e+000  2.632904e-016  4.500000e+000
    endloop
  endfacet
  facet normal  0.000000e+000  -0.000000e+000 -1.000000e+000
    outer loop
      vertex  0.000000e+000 -7.500000e+000  4.500000e+000
      vertex  3.350000e+000  2.632904e-016  4.500000e+000
      vertex  3.979720e+000 -1.520280e+000  4.500000e+000
    endloop
  endfacet
  facet normal  0.000000e+000  -0.000000e+000 -1.000000e+000
    outer loop
      vertex  0.000000e+000 -7.500000e+000  4.500000e+000
      vertex  3.979720e+000 -1.520280e+000  4.500000e+000
      vertex  5.500000e+000 -2.150000e+000  4.500000e+000
    endloop
  endfacet
  facet normal  0.000000e+000  -0.000000e+000 -1.000000e+000
    outer loop
      vertex  0.000000e+000 -7.500000e+000  4.500000e+000
      vertex  5.500000e+000 -2.150000e+000  4.500000e+000
      vertex  7.020279e+000 -1.520280e+000  4.500000e+000
    endloop
  endfacet
  facet normal  0.000000e+000  -0.000000e+000 -1.000000e+000
    outer loop
      vertex  0.000000e+000 -7.500000e+000  4.500000e+000
      vertex  7.020279e+000 -1.520280e+000  4.500000e+000
      vertex  2.135000e+001  2.632904e-016  4.500000e+000
    endloop
  endfacet
  facet normal  0.000000e+000  -0.000000e+000 -1.000000e+000
    outer loop
      vertex  0.000000e+000 -7.500000e+000  4.500000e+000
      vertex  2.135000e+001  2.632904e-016  4.500000e+000
      vertex  2.197972e+001 -1.520280e+000  4.500000e+000
    endloop
  endfacet
  facet normal  0.000000e+000  -0.000000e+000 -9.999999e-001
    outer loop
      vertex  0.000000e+000 -7.500000e+000  4.500000e+000
      vertex  2.197972e+001 -1.520280e+000  4.500000e+000
      vertex  2.350000e+001 -2.150000e+000  4.500000e+000
    endloop
  endfacet
  facet normal  -0.000000e+000  0.000000e+000 -1.000000e+000
    outer loop
      vertex  0.000000e+000  1.096232e+001  4.500000e+000
      vertex  2.350000e+001  2.150000e+000  4.500000e+000
      vertex  2.197972e+001  1.520280e+000  4.500000e+000
    endloop
  endfacet
  facet normal  -0.000000e+000  0.000000e+000 -1.000000e+000
    outer loop
      vertex  0.000000e+000  1.096232e+001  4.500000e+000
      vertex  2.197972e+001  1.520280e+000  4.500000e+000
      vertex  2.135000e+001  2.632904e-016  4.500000e+000
    endloop
  endfacet
  facet normal  0.000000e+000  0.000000e+000 -9.999999e-001
    outer loop
      vertex  0.000000e+000  1.096232e+001  4.500000e+000
      vertex  2.135000e+001  2.632904e-016  4.500000e+000
      vertex  7.020279e+000  1.520280e+000  4.500000e+000
    endloop
  endfacet
  facet normal  0.000000e+000  0.000000e+000 -1.000000e+000
    outer loop
      vertex  0.000000e+000  1.096232e+001  4.500000e+000
      vertex  7.020279e+000  1.520280e+000  4.500000e+000
      vertex  5.500000e+000  2.150000e+000  4.500000e+000
    endloop
  endfacet
  facet normal  -0.000000e+000  0.000000e+000 -1.000000e+000
    outer loop
      vertex  0.000000e+000  1.096232e+001  4.500000e+000
      vertex  5.500000e+000  2.150000e+000  4.500000e+000
      vertex  3.979720e+000  1.520280e+000  4.500000e+000
    endloop
  endfacet
  facet normal  -0.000000e+000  0.000000e+000 -9.999999e-001
    outer loop
      vertex  0.000000e+000  1.096232e+001  4.500000e+000
      vertex  3.979720e+000  1.520280e+000  4.500000e+000
      vertex  3.350000e+000  2.632904e-016  4.500000e+000
    endloop
  endfacet
  facet normal  0.000000e+000  0.000000e+000 -1.000000e+000
    outer loop
      vertex  2.900000e+001  1.096232e+001  4.500000e+000
      vertex  2.565000e+001  0.000000e+000  4.500000e+000
      vertex  2.502028e+001  1.520280e+000  4.500000e+000
    endloop
  endfacet
  facet normal  0.000000e+000  0.000000e+000 -1.000000e+000
    outer loop
      vertex  2.900000e+001  1.096232e+001  4.500000e+000
      vertex  2.502028e+001  1.520280e+000  4.500000e+000
      vertex  2.350000e+001  2.150000e+000  4.500000e+000
    endloop
  endfacet
  facet normal  0.000000e+000  0.000000e+000 -1.000000e+000
    outer loop
      vertex  2.900000e+001  1.096232e+001  4.500000e+000
      vertex  2.350000e+001  2.150000e+000  4.500000e+000
      vertex  0.000000e+000  1.096232e+001  4.500000e+000
    endloop
  endfacet
  facet normal -3.825969e-001 -9.236701e-001  2.128929e-002
    outer loop
      vertex  2.502028e+001  1.520280e+000  4.500000e+000
      vertex  2.411802e+001  2.059261e+000  1.166970e+001
      vertex  2.350000e+001  2.150000e+000  4.500000e+000
    endloop
  endfacet
  facet normal  8.371776e-001 -5.468604e-001 -8.796277e-003
    outer loop
      vertex  2.216186e+001  1.682821e+000  1.172990e+001
      vertex  2.142054e+001  5.462208e-001  1.183740e+001
      vertex  2.197972e+001  1.520280e+000  4.500000e+000
    endloop
  endfacet
  facet normal  9.902264e-001 -1.265294e-001  5.866749e-002
    outer loop
      vertex  2.197972e+001  1.520280e+000  4.500000e+000
      vertex  2.142054e+001  5.462208e-001  1.183740e+001
      vertex  2.135000e+001  2.632904e-016  1.185000e+001
    endloop
  endfacet
  facet normal  9.238794e-001 -3.826836e-001  0.000000e+000
    outer loop
      vertex  2.197972e+001  1.520280e+000  4.500000e+000
      vertex  2.135000e+001  2.632904e-016  1.185000e+001
      vertex  2.135000e+001  2.632904e-016  4.500000e+000
    endloop
  endfacet
  facet normal -1.304368e-001 -9.914558e-001 -1.304343e-003
    outer loop
      vertex  2.411802e+001  2.059261e+000  1.166970e+001
      vertex  2.343576e+001  2.149040e+000  1.165350e+001
      vertex  2.350000e+001  2.150000e+000  4.500000e+000
    endloop
  endfacet
  facet normal  3.438392e-001 -9.390239e-001  2.961634e-003
    outer loop
      vertex  2.350000e+001  2.150000e+000  4.500000e+000
      vertex  2.343576e+001  2.149040e+000  1.165350e+001
      vertex  2.216186e+001  1.682821e+000  1.172990e+001
    endloop
  endfacet
  facet normal  3.826600e-001 -9.238223e-001  1.112902e-002
    outer loop
      vertex  2.350000e+001  2.150000e+000  4.500000e+000
      vertex  2.216186e+001  1.682821e+000  1.172990e+001
      vertex  2.197972e+001  1.520280e+000  4.500000e+000
    endloop
  endfacet
  facet normal -5.742219e-001 -8.186294e-001 -1.072198e-002
    outer loop
      vertex  2.411802e+001  2.059261e+000  1.166970e+001
      vertex  2.502028e+001  1.520280e+000  4.500000e+000
      vertex  2.522808e+001  1.279163e+000  1.178076e+001
    endloop
  endfacet
  facet normal -9.237928e-001 -3.826477e-001  1.369333e-002
    outer loop
      vertex  2.522808e+001  1.279163e+000  1.178076e+001
      vertex  2.502028e+001  1.520280e+000  4.500000e+000
      vertex  2.565000e+001  0.000000e+000  4.500000e+000
    endloop
  endfacet
  facet normal -9.496727e-001 -3.132441e-001  0.000000e+000
    outer loop
      vertex  2.522808e+001  1.279163e+000  1.178076e+001
      vertex  2.565000e+001  0.000000e+000  4.500000e+000
      vertex  2.565000e+001  0.000000e+000  1.185000e+001
    endloop
  endfacet
  facet normal -3.825969e-001 -9.236701e-001 -2.128929e-002
    outer loop
      vertex  2.411802e+001  2.059261e+000 -1.166970e+001
      vertex  2.502028e+001  1.520280e+000 -4.500000e+000
      vertex  2.350000e+001  2.150000e+000 -4.500000e+000
    endloop
  endfacet
  facet normal  8.371776e-001 -5.468604e-001  8.796277e-003
    outer loop
      vertex  2.216186e+001  1.682821e+000 -1.172990e+001
      vertex  2.197972e+001  1.520280e+000 -4.500000e+000
      vertex  2.142054e+001  5.462208e-001 -1.183740e+001
    endloop
  endfacet
  facet normal  9.237019e-001 -3.826101e-001 -1.960235e-002
    outer loop
      vertex  2.142054e+001  5.462208e-001 -1.183740e+001
      vertex  2.197972e+001  1.520280e+000 -4.500000e+000
      vertex  2.135000e+001  2.632904e-016 -4.500000e+000
    endloop
  endfacet
  facet normal  9.917638e-001 -1.280808e-001  0.000000e+000
    outer loop
      vertex  2.142054e+001  5.462208e-001 -1.183740e+001
      vertex  2.135000e+001  2.632904e-016 -4.500000e+000
      vertex  2.135000e+001  2.632904e-016 -1.185000e+001
    endloop
  endfacet
  facet normal -1.304368e-001 -9.914558e-001  1.304343e-003
    outer loop
      vertex  2.411802e+001  2.059261e+000 -1.166970e+001
      vertex  2.350000e+001  2.150000e+000 -4.500000e+000
      vertex  2.343576e+001  2.149040e+000 -1.165350e+001
    endloop
  endfacet
  facet normal  3.826816e-001 -9.238744e-001 -3.312467e-003
    outer loop
      vertex  2.343576e+001  2.149040e+000 -1.165350e+001
      vertex  2.350000e+001  2.150000e+000 -4.500000e+000
      vertex  2.197972e+001  1.520280e+000 -4.500000e+000
    endloop
  endfacet
  facet normal  3.443149e-001 -9.387719e-001 -1.243113e-002
    outer loop
      vertex  2.343576e+001  2.149040e+000 -1.165350e+001
      vertex  2.197972e+001  1.520280e+000 -4.500000e+000
      vertex  2.216186e+001  1.682821e+000 -1.172990e+001
    endloop
  endfacet
  facet normal -5.742219e-001 -8.186294e-001  1.072198e-002
    outer loop
      vertex  2.411802e+001  2.059261e+000 -1.166970e+001
      vertex  2.522808e+001  1.279163e+000 -1.178076e+001
      vertex  2.502028e+001  1.520280e+000 -4.500000e+000
    endloop
  endfacet
  facet normal -9.498088e-001 -3.123816e-001 -1.676284e-002
    outer loop
      vertex  2.502028e+001  1.520280e+000 -4.500000e+000
      vertex  2.522808e+001  1.279163e+000 -1.178076e+001
      vertex  2.565000e+001  0.000000e+000 -1.185000e+001
    endloop
  endfacet
  facet normal -9.238794e-001 -3.826836e-001  0.000000e+000
    outer loop
      vertex  2.502028e+001  1.520280e+000 -4.500000e+000
      vertex  2.565000e+001  0.000000e+000 -1.185000e+001
      vertex  2.565000e+001  0.000000e+000 -4.500000e+000
    endloop
  endfacet
  facet normal  3.825969e-001  9.236701e-001  2.128929e-002
    outer loop
      vertex  2.197972e+001 -1.520280e+000  4.500000e+000
      vertex  2.288198e+001 -2.059261e+000  1.166970e+001
      vertex  2.350000e+001 -2.150000e+000  4.500000e+000
    endloop
  endfacet
  facet normal -8.371776e-001  5.468604e-001 -8.796277e-003
    outer loop
      vertex  2.483814e+001 -1.682821e+000  1.172990e+001
      vertex  2.557946e+001 -5.462208e-001  1.183740e+001
      vertex  2.502028e+001 -1.520280e+000  4.500000e+000
    endloop
  endfacet
  facet normal -9.902264e-001  1.265294e-001  5.866749e-002
    outer loop
      vertex  2.502028e+001 -1.520280e+000  4.500000e+000
      vertex  2.557946e+001 -5.462208e-001  1.183740e+001
      vertex  2.565000e+001  0.000000e+000  1.185000e+001
    endloop
  endfacet
  facet normal -9.238794e-001  3.826836e-001  0.000000e+000
    outer loop
      vertex  2.502028e+001 -1.520280e+000  4.500000e+000
      vertex  2.565000e+001  0.000000e+000  1.185000e+001
      vertex  2.565000e+001  0.000000e+000  4.500000e+000
    endloop
  endfacet
  facet normal  1.304368e-001  9.914558e-001 -1.304343e-003
    outer loop
      vertex  2.288198e+001 -2.059261e+000  1.166970e+001
      vertex  2.356424e+001 -2.149040e+000  1.165350e+001
      vertex  2.350000e+001 -2.150000e+000  4.500000e+000
    endloop
  endfacet
  facet normal -3.438392e-001  9.390239e-001  2.961634e-003
    outer loop
      vertex  2.350000e+001 -2.150000e+000  4.500000e+000
      vertex  2.356424e+001 -2.149040e+000  1.165350e+001
      vertex  2.483814e+001 -1.682821e+000  1.172990e+001
    endloop
  endfacet
  facet normal -3.826600e-001  9.238223e-001  1.112902e-002
    outer loop
      vertex  2.350000e+001 -2.150000e+000  4.500000e+000
      vertex  2.483814e+001 -1.682821e+000  1.172990e+001
      vertex  2.502028e+001 -1.520280e+000  4.500000e+000
    endloop
  endfacet
  facet normal  5.742219e-001  8.186294e-001 -1.072198e-002
    outer loop
      vertex  2.288198e+001 -2.059261e+000  1.166970e+001
      vertex  2.197972e+001 -1.520280e+000  4.500000e+000
      vertex  2.177192e+001 -1.279163e+000  1.178076e+001
    endloop
  endfacet
  facet normal  9.237928e-001  3.826477e-001  1.369333e-002
    outer loop
      vertex  2.177192e+001 -1.279163e+000  1.178076e+001
      vertex  2.197972e+001 -1.520280e+000  4.500000e+000
      vertex  2.135000e+001  2.632904e-016  4.500000e+000
    endloop
  endfacet
  facet normal  9.496727e-001  3.132441e-001  -0.000000e+000
    outer loop
      vertex  2.177192e+001 -1.279163e+000  1.178076e+001
      vertex  2.135000e+001  2.632904e-016  4.500000e+000
      vertex  2.135000e+001  2.632904e-016  1.185000e+001
    endloop
  endfacet
  facet normal  3.825969e-001  9.236701e-001 -2.128929e-002
    outer loop
      vertex  2.288198e+001 -2.059261e+000 -1.166970e+001
      vertex  2.197972e+001 -1.520280e+000 -4.500000e+000
      vertex  2.350000e+001 -2.150000e+000 -4.500000e+000
    endloop
  endfacet
  facet normal -8.371776e-001  5.468604e-001  8.796277e-003
    outer loop
      vertex  2.483814e+001 -1.682821e+000 -1.172990e+001
      vertex  2.502028e+001 -1.520280e+000 -4.500000e+000
      vertex  2.557946e+001 -5.462208e-001 -1.183740e+001
    endloop
  endfacet
  facet normal -9.237019e-001  3.826101e-001 -1.960235e-002
    outer loop
      vertex  2.557946e+001 -5.462208e-001 -1.183740e+001
      vertex  2.502028e+001 -1.520280e+000 -4.500000e+000
      vertex  2.565000e+001  0.000000e+000 -4.500000e+000
    endloop
  endfacet
  facet normal -9.917638e-001  1.280808e-001  0.000000e+000
    outer loop
      vertex  2.557946e+001 -5.462208e-001 -1.183740e+001
      vertex  2.565000e+001  0.000000e+000 -4.500000e+000
      vertex  2.565000e+001  0.000000e+000 -1.185000e+001
    endloop
  endfacet
  facet normal  1.304368e-001  9.914558e-001  1.304343e-003
    outer loop
      vertex  2.288198e+001 -2.059261e+000 -1.166970e+001
      vertex  2.350000e+001 -2.150000e+000 -4.500000e+000
      vertex  2.356424e+001 -2.149040e+000 -1.165350e+001
    endloop
  endfacet
  facet normal -3.826816e-001  9.238744e-001 -3.312467e-003
    outer loop
      vertex  2.356424e+001 -2.149040e+000 -1.165350e+001
      vertex  2.350000e+001 -2.150000e+000 -4.500000e+000
      vertex  2.502028e+001 -1.520280e+000 -4.500000e+000
    endloop
  endfacet
  facet normal -3.443149e-001  9.387719e-001 -1.243113e-002
    outer loop
      vertex  2.356424e+001 -2.149040e+000 -1.165350e+001
      vertex  2.502028e+001 -1.520280e+000 -4.500000e+000
      vertex  2.483814e+001 -1.682821e+000 -1.172990e+001
    endloop
  endfacet
  facet normal  5.742219e-001  8.186294e-001  1.072198e-002
    outer loop
      vertex  2.288198e+001 -2.059261e+000 -1.166970e+001
      vertex  2.177192e+001 -1.279163e+000 -1.178076e+001
      vertex  2.197972e+001 -1.520280e+000 -4.500000e+000
    endloop
  endfacet
  facet normal  9.498088e-001  3.123816e-001 -1.676284e-002
    outer loop
      vertex  2.197972e+001 -1.520280e+000 -4.500000e+000
      vertex  2.177192e+001 -1.279163e+000 -1.178076e+001
      vertex  2.135000e+001  2.632904e-016 -1.185000e+001
    endloop
  endfacet
  facet normal  9.238794e-001  3.826836e-001  -0.000000e+000
    outer loop
      vertex  2.197972e+001 -1.520280e+000 -4.500000e+000
      vertex  2.135000e+001  2.632904e-016 -1.185000e+001
      vertex  2.135000e+001  2.632904e-016 -4.500000e+000
    endloop
  endfacet
  facet normal -3.825968e-001 -9.236701e-001  2.128930e-002
    outer loop
      vertex  7.020279e+000  1.520280e+000  4.500000e+000
      vertex  6.118016e+000  2.059261e+000  1.166970e+001
      vertex  5.500000e+000  2.150000e+000  4.500000e+000
    endloop
  endfacet
  facet normal  8.371778e-001 -5.468602e-001 -8.796425e-003
    outer loop
      vertex  4.161862e+000  1.682821e+000  1.172990e+001
      vertex  3.420543e+000  5.462208e-001  1.183740e+001
      vertex  3.979720e+000  1.520280e+000  4.500000e+000
    endloop
  endfacet
  facet normal  9.902261e-001 -1.265319e-001  5.866691e-002
    outer loop
      vertex  3.979720e+000  1.520280e+000  4.500000e+000
      vertex  3.420543e+000  5.462208e-001  1.183740e+001
      vertex  3.350000e+000  2.632904e-016  1.185000e+001
    endloop
  endfacet
  facet normal  9.238794e-001 -3.826835e-001  0.000000e+000
    outer loop
      vertex  3.979720e+000  1.520280e+000  4.500000e+000
      vertex  3.350000e+000  2.632904e-016  1.185000e+001
      vertex  3.350000e+000  2.632904e-016  4.500000e+000
    endloop
  endfacet
  facet normal -1.304368e-001 -9.914558e-001 -1.304334e-003
    outer loop
      vertex  6.118016e+000  2.059261e+000  1.166970e+001
      vertex  5.435763e+000  2.149040e+000  1.165350e+001
      vertex  5.500000e+000  2.150000e+000  4.500000e+000
    endloop
  endfacet
  facet normal  3.438392e-001 -9.390239e-001  2.961611e-003
    outer loop
      vertex  5.500000e+000  2.150000e+000  4.500000e+000
      vertex  5.435763e+000  2.149040e+000  1.165350e+001
      vertex  4.161862e+000  1.682821e+000  1.172990e+001
    endloop
  endfacet
  facet normal  3.826598e-001 -9.238223e-001  1.112896e-002
    outer loop
      vertex  5.500000e+000  2.150000e+000  4.500000e+000
      vertex  4.161862e+000  1.682821e+000  1.172990e+001
      vertex  3.979720e+000  1.520280e+000  4.500000e+000
    endloop
  endfacet
  facet normal -5.742222e-001 -8.186293e-001 -1.072204e-002
    outer loop
      vertex  6.118016e+000  2.059261e+000  1.166970e+001
      vertex  7.020279e+000  1.520280e+000  4.500000e+000
      vertex  7.228075e+000  1.279163e+000  1.178076e+001
    endloop
  endfacet
  facet normal -9.237928e-001 -3.826477e-001  1.369321e-002
    outer loop
      vertex  7.228075e+000  1.279163e+000  1.178076e+001
      vertex  7.020279e+000  1.520280e+000  4.500000e+000
      vertex  7.650000e+000  0.000000e+000  4.500000e+000
    endloop
  endfacet
  facet normal -9.496724e-001 -3.132447e-001  0.000000e+000
    outer loop
      vertex  7.228075e+000  1.279163e+000  1.178076e+001
      vertex  7.650000e+000  0.000000e+000  4.500000e+000
      vertex  7.650000e+000  0.000000e+000  1.185000e+001
    endloop
  endfacet
  facet normal -3.825968e-001 -9.236701e-001 -2.128930e-002
    outer loop
      vertex  6.118016e+000  2.059261e+000 -1.166970e+001
      vertex  7.020279e+000  1.520280e+000 -4.500000e+000
      vertex  5.500000e+000  2.150000e+000 -4.500000e+000
    endloop
  endfacet
  facet normal  8.371778e-001 -5.468602e-001  8.796425e-003
    outer loop
      vertex  4.161862e+000  1.682821e+000 -1.172990e+001
      vertex  3.979720e+000  1.520280e+000 -4.500000e+000
      vertex  3.420543e+000  5.462208e-001 -1.183740e+001
    endloop
  endfacet
  facet normal  9.237019e-001 -3.826099e-001 -1.960216e-002
    outer loop
      vertex  3.420543e+000  5.462208e-001 -1.183740e+001
      vertex  3.979720e+000  1.520280e+000 -4.500000e+000
      vertex  3.350000e+000  2.632904e-016 -4.500000e+000
    endloop
  endfacet
  facet normal  9.917634e-001 -1.280833e-001  0.000000e+000
    outer loop
      vertex  3.420543e+000  5.462208e-001 -1.183740e+001
      vertex  3.350000e+000  2.632904e-016 -4.500000e+000
      vertex  3.350000e+000  2.632904e-016 -1.185000e+001
    endloop
  endfacet
  facet normal -1.304368e-001 -9.914558e-001  1.304334e-003
    outer loop
      vertex  6.118016e+000  2.059261e+000 -1.166970e+001
      vertex  5.500000e+000  2.150000e+000 -4.500000e+000
      vertex  5.435763e+000  2.149040e+000 -1.165350e+001
    endloop
  endfacet
  facet normal  3.826814e-001 -9.238744e-001 -3.312440e-003
    outer loop
      vertex  5.435763e+000  2.149040e+000 -1.165350e+001
      vertex  5.500000e+000  2.150000e+000 -4.500000e+000
      vertex  3.979720e+000  1.520280e+000 -4.500000e+000
    endloop
  endfacet
  facet normal  3.443149e-001 -9.387719e-001 -1.243108e-002
    outer loop
      vertex  5.435763e+000  2.149040e+000 -1.165350e+001
      vertex  3.979720e+000  1.520280e+000 -4.500000e+000
      vertex  4.161862e+000  1.682821e+000 -1.172990e+001
    endloop
  endfacet
  facet normal -5.742222e-001 -8.186293e-001  1.072204e-002
    outer loop
      vertex  6.118016e+000  2.059261e+000 -1.166970e+001
      vertex  7.228075e+000  1.279163e+000 -1.178076e+001
      vertex  7.020279e+000  1.520280e+000 -4.500000e+000
    endloop
  endfacet
  facet normal -9.498085e-001 -3.123823e-001 -1.676269e-002
    outer loop
      vertex  7.020279e+000  1.520280e+000 -4.500000e+000
      vertex  7.228075e+000  1.279163e+000 -1.178076e+001
      vertex  7.650000e+000  0.000000e+000 -1.185000e+001
    endloop
  endfacet
  facet normal -9.238794e-001 -3.826836e-001  0.000000e+000
    outer loop
      vertex  7.020279e+000  1.520280e+000 -4.500000e+000
      vertex  7.650000e+000  0.000000e+000 -1.185000e+001
      vertex  7.650000e+000  0.000000e+000 -4.500000e+000
    endloop
  endfacet
  facet normal  3.825968e-001  9.236701e-001  2.128930e-002
    outer loop
      vertex  3.979720e+000 -1.520280e+000  4.500000e+000
      vertex  4.881984e+000 -2.059261e+000  1.166970e+001
      vertex  5.500000e+000 -2.150000e+000  4.500000e+000
    endloop
  endfacet
  facet normal -8.371778e-001  5.468602e-001 -8.796397e-003
    outer loop
      vertex  6.838138e+000 -1.682821e+000  1.172990e+001
      vertex  7.579457e+000 -5.462208e-001  1.183740e+001
      vertex  7.020279e+000 -1.520280e+000  4.500000e+000
    endloop
  endfacet
  facet normal -9.902261e-001  1.265319e-001  5.866694e-002
    outer loop
      vertex  7.020279e+000 -1.520280e+000  4.500000e+000
      vertex  7.579457e+000 -5.462208e-001  1.183740e+001
      vertex  7.650000e+000  0.000000e+000  1.185000e+001
    endloop
  endfacet
  facet normal -9.238794e-001  3.826836e-001  0.000000e+000
    outer loop
      vertex  7.020279e+000 -1.520280e+000  4.500000e+000
      vertex  7.650000e+000  0.000000e+000  1.185000e+001
      vertex  7.650000e+000  0.000000e+000  4.500000e+000
    endloop
  endfacet
  facet normal  1.304368e-001  9.914558e-001 -1.304334e-003
    outer loop
      vertex  4.881984e+000 -2.059261e+000  1.166970e+001
      vertex  5.564237e+000 -2.149040e+000  1.165350e+001
      vertex  5.500000e+000 -2.150000e+000  4.500000e+000
    endloop
  endfacet
  facet normal -3.438392e-001  9.390239e-001  2.961611e-003
    outer loop
      vertex  5.500000e+000 -2.150000e+000  4.500000e+000
      vertex  5.564237e+000 -2.149040e+000  1.165350e+001
      vertex  6.838138e+000 -1.682821e+000  1.172990e+001
    endloop
  endfacet
  facet normal -3.826599e-001  9.238223e-001  1.112898e-002
    outer loop
      vertex  5.500000e+000 -2.150000e+000  4.500000e+000
      vertex  6.838138e+000 -1.682821e+000  1.172990e+001
      vertex  7.020279e+000 -1.520280e+000  4.500000e+000
    endloop
  endfacet
  facet normal  5.742221e-001  8.186293e-001 -1.072204e-002
    outer loop
      vertex  4.881984e+000 -2.059261e+000  1.166970e+001
      vertex  3.979720e+000 -1.520280e+000  4.500000e+000
      vertex  3.771925e+000 -1.279163e+000  1.178076e+001
    endloop
  endfacet
  facet normal  9.237929e-001  3.826476e-001  1.369322e-002
    outer loop
      vertex  3.771925e+000 -1.279163e+000  1.178076e+001
      vertex  3.979720e+000 -1.520280e+000  4.500000e+000
      vertex  3.350000e+000  2.632904e-016  4.500000e+000
    endloop
  endfacet
  facet normal  9.496725e-001  3.132446e-001  -0.000000e+000
    outer loop
      vertex  3.771925e+000 -1.279163e+000  1.178076e+001
      vertex  3.350000e+000  2.632904e-016  4.500000e+000
      vertex  3.350000e+000  2.632904e-016  1.185000e+001
    endloop
  endfacet
  facet normal  3.825968e-001  9.236701e-001 -2.128930e-002
    outer loop
      vertex  4.881984e+000 -2.059261e+000 -1.166970e+001
      vertex  3.979720e+000 -1.520280e+000 -4.500000e+000
      vertex  5.500000e+000 -2.150000e+000 -4.500000e+000
    endloop
  endfacet
  facet normal -8.371778e-001  5.468602e-001  8.796397e-003
    outer loop
      vertex  6.838138e+000 -1.682821e+000 -1.172990e+001
      vertex  7.020279e+000 -1.520280e+000 -4.500000e+000
      vertex  7.579457e+000 -5.462208e-001 -1.183740e+001
    endloop
  endfacet
  facet normal -9.237019e-001  3.826101e-001 -1.960217e-002
    outer loop
      vertex  7.579457e+000 -5.462208e-001 -1.183740e+001
      vertex  7.020279e+000 -1.520280e+000 -4.500000e+000
      vertex  7.650000e+000  0.000000e+000 -4.500000e+000
    endloop
  endfacet
  facet normal -9.917634e-001  1.280833e-001  0.000000e+000
    outer loop
      vertex  7.579457e+000 -5.462208e-001 -1.183740e+001
      vertex  7.650000e+000  0.000000e+000 -4.500000e+000
      vertex  7.650000e+000  0.000000e+000 -1.185000e+001
    endloop
  endfacet
  facet normal  1.304368e-001  9.914558e-001  1.304334e-003
    outer loop
      vertex  4.881984e+000 -2.059261e+000 -1.166970e+001
      vertex  5.500000e+000 -2.150000e+000 -4.500000e+000
      vertex  5.564237e+000 -2.149040e+000 -1.165350e+001
    endloop
  endfacet
  facet normal -3.826815e-001  9.238744e-001 -3.312441e-003
    outer loop
      vertex  5.564237e+000 -2.149040e+000 -1.165350e+001
      vertex  5.500000e+000 -2.150000e+000 -4.500000e+000
      vertex  7.020279e+000 -1.520280e+000 -4.500000e+000
    endloop
  endfacet
  facet normal -3.443149e-001  9.387719e-001 -1.243109e-002
    outer loop
      vertex  5.564237e+000 -2.149040e+000 -1.165350e+001
      vertex  7.020279e+000 -1.520280e+000 -4.500000e+000
      vertex  6.838138e+000 -1.682821e+000 -1.172990e+001
    endloop
  endfacet
  facet normal  5.742221e-001  8.186293e-001  1.072204e-002
    outer loop
      vertex  4.881984e+000 -2.059261e+000 -1.166970e+001
      vertex  3.771925e+000 -1.279163e+000 -1.178076e+001
      vertex  3.979720e+000 -1.520280e+000 -4.500000e+000
    endloop
  endfacet
  facet normal  9.498086e-001  3.123821e-001 -1.676269e-002
    outer loop
      vertex  3.979720e+000 -1.520280e+000 -4.500000e+000
      vertex  3.771925e+000 -1.279163e+000 -1.178076e+001
      vertex  3.350000e+000  2.632904e-016 -1.185000e+001
    endloop
  endfacet
  facet normal  9.238794e-001  3.826835e-001  -0.000000e+000
    outer loop
      vertex  3.979720e+000 -1.520280e+000 -4.500000e+000
      vertex  3.350000e+000  2.632904e-016 -1.185000e+001
      vertex  3.350000e+000  2.632904e-016 -4.500000e+000
    endloop
  endfacet
  facet normal  1.000000e+000  0.000000e+000  0.000000e+000
    outer loop
      vertex  2.900000e+001 -7.500000e+000 -4.500000e+000
      vertex  2.900000e+001 -1.165111e+001 -2.161958e+000
      vertex  2.900000e+001 -1.009985e+001 -6.198026e+000
    endloop
  endfacet
  facet normal  1.000000e+000  0.000000e+000  0.000000e+000
    outer loop
      vertex  2.900000e+001 -7.500000e+000 -4.500000e+000
      vertex  2.900000e+001 -1.009985e+001 -6.198026e+000
      vertex  2.900000e+001  1.096232e+001 -4.500000e+000
    endloop
  endfacet
  facet normal  1.000000e+000  0.000000e+000  0.000000e+000
    outer loop
      vertex  2.900000e+001 -7.500000e+000  4.500000e+000
      vertex  2.900000e+001  1.096232e+001  4.500000e+000
      vertex  2.900000e+001 -1.009985e+001  6.198026e+000
    endloop
  endfacet
  facet normal  1.000000e+000  0.000000e+000  0.000000e+000
    outer loop
      vertex  2.900000e+001 -7.500000e+000  4.500000e+000
      vertex  2.900000e+001 -1.009985e+001  6.198026e+000
      vertex  2.900000e+001 -1.165111e+001  2.161958e+000
    endloop
  endfacet
  facet normal  1.000000e+000  -0.000000e+000  0.000000e+000
    outer loop
      vertex  2.900000e+001 -7.500000e+000  4.500000e+000
      vertex  2.900000e+001 -1.165111e+001  2.161958e+000
      vertex  2.900000e+001 -1.165111e+001 -2.161958e+000
    endloop
  endfacet
  facet normal  1.000000e+000  -0.000000e+000  0.000000e+000
    outer loop
      vertex  2.900000e+001 -7.500000e+000  4.500000e+000
      vertex  2.900000e+001 -1.165111e+001 -2.161958e+000
      vertex  2.900000e+001 -7.500000e+000 -4.500000e+000
    endloop
  endfacet
  facet normal  9.999999e-001  0.000000e+000  0.000000e+000
    outer loop
      vertex  2.900000e+001 -1.009985e+001  6.198026e+000
      vertex  2.900000e+001  1.096232e+001  4.500000e+000
      vertex  2.900000e+001 -7.203865e+000  9.408870e+000
    endloop
  endfacet
  facet normal  9.999999e-001  0.000000e+000  0.000000e+000
    outer loop
      vertex  2.900000e+001 -7.203865e+000  9.408870e+000
      vertex  2.900000e+001  1.096232e+001  4.500000e+000
      vertex  2.900000e+001  8.618110e+000  8.133307e+000
    endloop
  endfacet
  facet normal  1.000000e+000  0.000000e+000  0.000000e+000
    outer loop
      vertex  2.900000e+001 -7.203865e+000  9.408870e+000
      vertex  2.900000e+001  8.618110e+000  8.133307e+000
      vertex  2.900000e+001 -3.348736e+000  1.136699e+001
    endloop
  endfacet
  facet normal  9.999999e-001  0.000000e+000  0.000000e+000
    outer loop
      vertex  2.900000e+001 -3.348736e+000  1.136699e+001
      vertex  2.900000e+001  8.618110e+000  8.133307e+000
      vertex  2.900000e+001  5.126457e+000  1.068372e+001
    endloop
  endfacet
  facet normal  1.000000e+000  0.000000e+000  0.000000e+000
    outer loop
      vertex  2.900000e+001 -3.348736e+000  1.136699e+001
      vertex  2.900000e+001  5.126457e+000  1.068372e+001
      vertex  2.900000e+001  9.522536e-001  1.181168e+001
    endloop
  endfacet
  facet normal  1.000000e+000  -0.000000e+000  0.000000e+000
    outer loop
      vertex  2.900000e+001  1.096232e+001 -4.500000e+000
      vertex  2.900000e+001 -1.009985e+001 -6.198026e+000
      vertex  2.900000e+001  8.618110e+000 -8.133307e+000
    endloop
  endfacet
  facet normal  1.000000e+000  0.000000e+000  0.000000e+000
    outer loop
      vertex  2.900000e+001  8.618110e+000 -8.133307e+000
      vertex  2.900000e+001 -1.009985e+001 -6.198026e+000
      vertex  2.900000e+001 -7.203865e+000 -9.408870e+000
    endloop
  endfacet
  facet normal  1.000000e+000  -0.000000e+000  0.000000e+000
    outer loop
      vertex  2.900000e+001  8.618110e+000 -8.133307e+000
      vertex  2.900000e+001 -7.203865e+000 -9.408870e+000
      vertex  2.900000e+001  5.126457e+000 -1.068372e+001
    endloop
  endfacet
  facet normal  9.999999e-001  0.000000e+000  0.000000e+000
    outer loop
      vertex  2.900000e+001 -3.348736e+000 -1.136699e+001
      vertex  2.900000e+001  9.522536e-001 -1.181168e+001
      vertex  2.900000e+001 -7.203865e+000 -9.408870e+000
    endloop
  endfacet
  facet normal  1.000000e+000  0.000000e+000  0.000000e+000
    outer loop
      vertex  2.900000e+001 -7.203865e+000 -9.408870e+000
      vertex  2.900000e+001  9.522536e-001 -1.181168e+001
      vertex  2.900000e+001  5.126457e+000 -1.068372e+001
    endloop
  endfacet
  facet normal -1.000000e+000  0.000000e+000  0.000000e+000
    outer loop
      vertex  0.000000e+000 -1.009985e+001 -6.198026e+000
      vertex  0.000000e+000 -1.165111e+001 -2.161958e+000
      vertex  0.000000e+000 -7.500000e+000 -4.500000e+000
    endloop
  endfacet
  facet normal -1.000000e+000  0.000000e+000  0.000000e+000
    outer loop
      vertex  0.000000e+000  1.096232e+001 -4.500000e+000
      vertex  0.000000e+000 -1.009985e+001 -6.198026e+000
      vertex  0.000000e+000 -7.500000e+000 -4.500000e+000
    endloop
  endfacet
  facet normal -1.000000e+000  0.000000e+000  0.000000e+000
    outer loop
      vertex  0.000000e+000 -7.500000e+000  4.500000e+000
      vertex  0.000000e+000 -7.500000e+000 -4.500000e+000
      vertex  0.000000e+000 -1.165111e+001 -2.161958e+000
    endloop
  endfacet
  facet normal -1.000000e+000  0.000000e+000  0.000000e+000
    outer loop
      vertex  0.000000e+000 -7.500000e+000  4.500000e+000
      vertex  0.000000e+000 -1.165111e+001 -2.161958e+000
      vertex  0.000000e+000 -1.165111e+001  2.161958e+000
    endloop
  endfacet
  facet normal -1.000000e+000  0.000000e+000  0.000000e+000
    outer loop
      vertex  0.000000e+000 -7.500000e+000  4.500000e+000
      vertex  0.000000e+000 -1.165111e+001  2.161958e+000
      vertex  0.000000e+000 -1.009985e+001  6.198026e+000
    endloop
  endfacet
  facet normal -1.000000e+000  0.000000e+000  0.000000e+000
    outer loop
      vertex  0.000000e+000 -7.500000e+000  4.500000e+000
      vertex  0.000000e+000 -1.009985e+001  6.198026e+000
      vertex  0.000000e+000  1.096232e+001  4.500000e+000
    endloop
  endfacet
  facet normal -1.000000e+000  0.000000e+000  0.000000e+000
    outer loop
      vertex  0.000000e+000  9.522536e-001  1.181168e+001
      vertex  0.000000e+000  5.126457e+000  1.068372e+001
      vertex  0.000000e+000 -3.348736e+000  1.136699e+001
    endloop
  endfacet
  facet normal -9.999999e-001  0.000000e+000  0.000000e+000
    outer loop
      vertex  0.000000e+000 -3.348736e+000  1.136699e+001
      vertex  0.000000e+000  5.126457e+000  1.068372e+001
      vertex  0.000000e+000  8.618110e+000  8.133307e+000
    endloop
  endfacet
  facet normal -1.000000e+000  0.000000e+000  0.000000e+000
    outer loop
      vertex  0.000000e+000 -3.348736e+000  1.136699e+001
      vertex  0.000000e+000  8.618110e+000  8.133307e+000
      vertex  0.000000e+000 -7.203865e+000  9.408870e+000
    endloop
  endfacet
  facet normal -9.999999e-001  0.000000e+000  0.000000e+000
    outer loop
      vertex  0.000000e+000 -7.203865e+000  9.408870e+000
      vertex  0.000000e+000  8.618110e+000  8.133307e+000
      vertex  0.000000e+000  1.096232e+001  4.500000e+000
    endloop
  endfacet
  facet normal -9.999999e-001  0.000000e+000  0.000000e+000
    outer loop
      vertex  0.000000e+000 -7.203865e+000  9.408870e+000
      vertex  0.000000e+000  1.096232e+001  4.500000e+000
      vertex  0.000000e+000 -1.009985e+001  6.198026e+000
    endloop
  endfacet
  facet normal -1.000000e+000  0.000000e+000  0.000000e+000
    outer loop
      vertex  0.000000e+000  5.126457e+000 -1.068372e+001
      vertex  0.000000e+000 -7.203865e+000 -9.408870e+000
      vertex  0.000000e+000  8.618110e+000 -8.133307e+000
    endloop
  endfacet
  facet normal -1.000000e+000  -0.000000e+000  0.000000e+000
    outer loop
      vertex  0.000000e+000  8.618110e+000 -8.133307e+000
      vertex  0.000000e+000 -7.203865e+000 -9.408870e+000
      vertex  0.000000e+000 -1.009985e+001 -6.198026e+000
    endloop
  endfacet
  facet normal -1.000000e+000  0.000000e+000  0.000000e+000
    outer loop
      vertex  0.000000e+000  8.618110e+000 -8.133307e+000
      vertex  0.000000e+000 -1.009985e+001 -6.198026e+000
      vertex  0.000000e+000  1.096232e+001 -4.500000e+000
    endloop
  endfacet
  facet normal -1.000000e+000  0.000000e+000  0.000000e+000
    outer loop
      vertex  0.000000e+000 -3.348736e+000 -1.136699e+001
      vertex  0.000000e+000 -7.203865e+000 -9.408870e+000
      vertex  0.000000e+000  9.522536e-001 -1.181168e+001
    endloop
  endfacet
  facet normal -1.000000e+000  0.000000e+000  0.000000e+000
    outer loop
      vertex  0.000000e+000  9.522536e-001 -1.181168e+001
      vertex  0.000000e+000 -7.203865e+000 -9.408870e+000
      vertex  0.000000e+000  5.126457e+000 -1.068372e+001
    endloop
  endfacet
  facet normal  0.000000e+000  1.000000e+000  0.000000e+000
    outer loop
      vertex  0.000000e+000 -7.500000e+000  4.500000e+000
      vertex  2.900000e+001 -7.500000e+000  4.500000e+000
      vertex  0.000000e+000 -7.500000e+000 -4.500000e+000
    endloop
  endfacet
  facet normal  0.000000e+000  1.000000e+000  0.000000e+000
    outer loop
      vertex  0.000000e+000 -7.500000e+000 -4.500000e+000
      vertex  2.900000e+001 -7.500000e+000  4.500000e+000
      vertex  2.900000e+001 -7.500000e+000 -4.500000e+000
    endloop
  endfacet
endsolid CATIA STL
