solid CATIA STL
  facet normal -1.000000e+000  0.000000e+000  0.000000e+000
    outer loop
      vertex -1.000000e+001  4.500000e+000  0.000000e+000
      vertex -1.000000e+001  4.010558e+000  3.669445e+000
      vertex -1.000000e+001  2.708300e+001 -3.038379e-015
    endloop
  endfacet
  facet normal -1.000000e+000  -0.000000e+000  0.000000e+000
    outer loop
      vertex -1.000000e+001  4.500000e+000  0.000000e+000
      vertex -1.000000e+001  2.708300e+001 -3.038379e-015
      vertex -1.000000e+001  4.010558e+000 -3.669445e+000
    endloop
  endfacet
  facet normal -1.000000e+000  0.000000e+000  0.000000e+000
    outer loop
      vertex -1.000000e+001  2.708300e+001 -3.038379e-015
      vertex -1.000000e+001  2.576453e+000 -7.082322e+000
      vertex -1.000000e+001  4.010558e+000 -3.669445e+000
    endloop
  endfacet
  facet normal -1.000000e+000  0.000000e+000  0.000000e+000
    outer loop
      vertex -1.000000e+001  2.708300e+001 -3.038379e-015
      vertex -1.000000e+001  4.010558e+000  3.669445e+000
      vertex -1.000000e+001  2.576453e+000  7.082322e+000
    endloop
  endfacet
  facet normal -9.999999e-001  0.000000e+000  0.000000e+000
    outer loop
      vertex -1.000000e+001  4.040400e+001 -1.000000e+001
      vertex -1.000000e+001  2.979590e-001 -1.000000e+001
      vertex -1.000000e+001  3.128300e+001 -4.200000e+000
    endloop
  endfacet
  facet normal -1.000000e+000  0.000000e+000  0.000000e+000
    outer loop
      vertex -1.000000e+001  4.040400e+001 -1.000000e+001
      vertex -1.000000e+001  3.128300e+001 -4.200000e+000
      vertex -1.000000e+001  3.338300e+001 -3.637307e+000
    endloop
  endfacet
  facet normal -1.000000e+000  0.000000e+000  0.000000e+000
    outer loop
      vertex -1.000000e+001  4.040400e+001 -1.000000e+001
      vertex -1.000000e+001  3.338300e+001 -3.637307e+000
      vertex -1.000000e+001  3.492031e+001 -2.100000e+000
    endloop
  endfacet
  facet normal -1.000000e+000  0.000000e+000  0.000000e+000
    outer loop
      vertex -1.000000e+001  4.040400e+001 -1.000000e+001
      vertex -1.000000e+001  3.492031e+001 -2.100000e+000
      vertex -1.000000e+001  3.548300e+001 -3.552714e-015
    endloop
  endfacet
  facet normal -1.000000e+000  0.000000e+000  0.000000e+000
    outer loop
      vertex -1.000000e+001  4.040400e+001 -1.000000e+001
      vertex -1.000000e+001  3.548300e+001 -3.552714e-015
      vertex -1.000000e+001  4.040400e+001  1.000000e+001
    endloop
  endfacet
  facet normal -1.000000e+000  0.000000e+000  -0.000000e+000
    outer loop
      vertex -1.000000e+001  2.979590e-001 -1.000000e+001
      vertex -1.000000e+001  2.576453e+000 -7.082322e+000
      vertex -1.000000e+001  2.708300e+001 -3.038379e-015
    endloop
  endfacet
  facet normal -1.000000e+000  0.000000e+000  -0.000000e+000
    outer loop
      vertex -1.000000e+001  2.979590e-001 -1.000000e+001
      vertex -1.000000e+001  2.708300e+001 -3.038379e-015
      vertex -1.000000e+001  2.764569e+001 -2.100000e+000
    endloop
  endfacet
  facet normal -1.000000e+000  0.000000e+000  -0.000000e+000
    outer loop
      vertex -1.000000e+001  2.979590e-001 -1.000000e+001
      vertex -1.000000e+001  2.764569e+001 -2.100000e+000
      vertex -1.000000e+001  2.918300e+001 -3.637307e+000
    endloop
  endfacet
  facet normal -1.000000e+000  0.000000e+000  -0.000000e+000
    outer loop
      vertex -1.000000e+001  2.979590e-001 -1.000000e+001
      vertex -1.000000e+001  2.918300e+001 -3.637307e+000
      vertex -1.000000e+001  3.128300e+001 -4.200000e+000
    endloop
  endfacet
  facet normal -1.000000e+000  -0.000000e+000  0.000000e+000
    outer loop
      vertex -1.000000e+001  2.979590e-001  1.000000e+001
      vertex -1.000000e+001  3.128300e+001  4.200000e+000
      vertex -1.000000e+001  2.918300e+001  3.637307e+000
    endloop
  endfacet
  facet normal -1.000000e+000  -0.000000e+000  0.000000e+000
    outer loop
      vertex -1.000000e+001  2.979590e-001  1.000000e+001
      vertex -1.000000e+001  2.918300e+001  3.637307e+000
      vertex -1.000000e+001  2.764569e+001  2.100000e+000
    endloop
  endfacet
  facet normal -1.000000e+000  -0.000000e+000  0.000000e+000
    outer loop
      vertex -1.000000e+001  2.979590e-001  1.000000e+001
      vertex -1.000000e+001  2.764569e+001  2.100000e+000
      vertex -1.000000e+001  2.708300e+001 -3.038379e-015
    endloop
  endfacet
  facet normal -1.000000e+000  0.000000e+000  0.000000e+000
    outer loop
      vertex -1.000000e+001  2.979590e-001  1.000000e+001
      vertex -1.000000e+001  2.708300e+001 -3.038379e-015
      vertex -1.000000e+001  2.576453e+000  7.082322e+000
    endloop
  endfacet
  facet normal -1.000000e+000  0.000000e+000  0.000000e+000
    outer loop
      vertex -1.000000e+001  4.040400e+001  1.000000e+001
      vertex -1.000000e+001  3.548300e+001 -3.552714e-015
      vertex -1.000000e+001  3.492031e+001  2.100000e+000
    endloop
  endfacet
  facet normal -1.000000e+000  0.000000e+000  0.000000e+000
    outer loop
      vertex -1.000000e+001  4.040400e+001  1.000000e+001
      vertex -1.000000e+001  3.492031e+001  2.100000e+000
      vertex -1.000000e+001  3.338300e+001  3.637307e+000
    endloop
  endfacet
  facet normal -1.000000e+000  0.000000e+000  0.000000e+000
    outer loop
      vertex -1.000000e+001  4.040400e+001  1.000000e+001
      vertex -1.000000e+001  3.338300e+001  3.637307e+000
      vertex -1.000000e+001  3.128300e+001  4.200000e+000
    endloop
  endfacet
  facet normal -9.999999e-001  0.000000e+000  0.000000e+000
    outer loop
      vertex -1.000000e+001  4.040400e+001  1.000000e+001
      vertex -1.000000e+001  3.128300e+001  4.200000e+000
      vertex -1.000000e+001  2.979590e-001  1.000000e+001
    endloop
  endfacet
  facet normal  1.000000e+000  0.000000e+000  0.000000e+000
    outer loop
      vertex -8.500000e+000  2.708300e+001 -3.038379e-015
      vertex -8.500000e+000  3.761602e+000  4.486638e+000
      vertex -8.500000e+000  4.500000e+000  0.000000e+000
    endloop
  endfacet
  facet normal  1.000000e+000  0.000000e+000  0.000000e+000
    outer loop
      vertex -8.500000e+000  3.761602e+000 -4.486638e+000
      vertex -8.500000e+000  2.708300e+001 -3.038379e-015
      vertex -8.500000e+000  4.500000e+000  0.000000e+000
    endloop
  endfacet
  facet normal  1.000000e+000  0.000000e+000  0.000000e+000
    outer loop
      vertex -8.500000e+000  3.852900e+001 -8.500000e+000
      vertex -8.500000e+000  3.852900e+001  8.500000e+000
      vertex -8.500000e+000  3.548300e+001 -3.552714e-015
    endloop
  endfacet
  facet normal  1.000000e+000  0.000000e+000  0.000000e+000
    outer loop
      vertex -8.500000e+000  3.852900e+001 -8.500000e+000
      vertex -8.500000e+000  3.548300e+001 -3.552714e-015
      vertex -8.500000e+000  3.492031e+001 -2.100000e+000
    endloop
  endfacet
  facet normal  1.000000e+000  0.000000e+000  0.000000e+000
    outer loop
      vertex -8.500000e+000  3.852900e+001 -8.500000e+000
      vertex -8.500000e+000  3.492031e+001 -2.100000e+000
      vertex -8.500000e+000  3.338300e+001 -3.637307e+000
    endloop
  endfacet
  facet normal  9.999999e-001  0.000000e+000  0.000000e+000
    outer loop
      vertex -8.500000e+000  3.852900e+001 -8.500000e+000
      vertex -8.500000e+000  3.338300e+001 -3.637307e+000
      vertex -8.500000e+000  3.128300e+001 -4.200000e+000
    endloop
  endfacet
  facet normal  1.000000e+000  0.000000e+000  0.000000e+000
    outer loop
      vertex -8.500000e+000  3.852900e+001 -8.500000e+000
      vertex -8.500000e+000  3.128300e+001 -4.200000e+000
      vertex -8.500000e+000  1.624298e+000 -8.500000e+000
    endloop
  endfacet
  facet normal  1.000000e+000  0.000000e+000  0.000000e+000
    outer loop
      vertex -8.500000e+000  1.624298e+000 -8.500000e+000
      vertex -8.500000e+000  3.128300e+001 -4.200000e+000
      vertex -8.500000e+000  2.918300e+001 -3.637307e+000
    endloop
  endfacet
  facet normal  1.000000e+000  0.000000e+000  0.000000e+000
    outer loop
      vertex -8.500000e+000  1.624298e+000 -8.500000e+000
      vertex -8.500000e+000  2.918300e+001 -3.637307e+000
      vertex -8.500000e+000  2.764569e+001 -2.100000e+000
    endloop
  endfacet
  facet normal  1.000000e+000  0.000000e+000  0.000000e+000
    outer loop
      vertex -8.500000e+000  1.624298e+000 -8.500000e+000
      vertex -8.500000e+000  2.764569e+001 -2.100000e+000
      vertex -8.500000e+000  2.708300e+001 -3.038379e-015
    endloop
  endfacet
  facet normal  1.000000e+000  0.000000e+000  0.000000e+000
    outer loop
      vertex -8.500000e+000  1.624298e+000 -8.500000e+000
      vertex -8.500000e+000  2.708300e+001 -3.038379e-015
      vertex -8.500000e+000  3.761602e+000 -4.486638e+000
    endloop
  endfacet
  facet normal  1.000000e+000  -0.000000e+000  -0.000000e+000
    outer loop
      vertex -8.500000e+000  1.624298e+000  8.500000e+000
      vertex -8.500000e+000  3.761602e+000  4.486638e+000
      vertex -8.500000e+000  2.708300e+001 -3.038379e-015
    endloop
  endfacet
  facet normal  1.000000e+000  0.000000e+000  -0.000000e+000
    outer loop
      vertex -8.500000e+000  1.624298e+000  8.500000e+000
      vertex -8.500000e+000  2.708300e+001 -3.038379e-015
      vertex -8.500000e+000  2.764569e+001  2.100000e+000
    endloop
  endfacet
  facet normal  1.000000e+000  0.000000e+000  -0.000000e+000
    outer loop
      vertex -8.500000e+000  1.624298e+000  8.500000e+000
      vertex -8.500000e+000  2.764569e+001  2.100000e+000
      vertex -8.500000e+000  2.918300e+001  3.637307e+000
    endloop
  endfacet
  facet normal  1.000000e+000  0.000000e+000  -0.000000e+000
    outer loop
      vertex -8.500000e+000  1.624298e+000  8.500000e+000
      vertex -8.500000e+000  2.918300e+001  3.637307e+000
      vertex -8.500000e+000  3.128300e+001  4.200000e+000
    endloop
  endfacet
  facet normal  1.000000e+000  -0.000000e+000  0.000000e+000
    outer loop
      vertex -8.500000e+000  3.852900e+001  8.500000e+000
      vertex -8.500000e+000  1.624298e+000  8.500000e+000
      vertex -8.500000e+000  3.128300e+001  4.200000e+000
    endloop
  endfacet
  facet normal  9.999999e-001  -0.000000e+000  0.000000e+000
    outer loop
      vertex -8.500000e+000  3.852900e+001  8.500000e+000
      vertex -8.500000e+000  3.128300e+001  4.200000e+000
      vertex -8.500000e+000  3.338300e+001  3.637307e+000
    endloop
  endfacet
  facet normal  1.000000e+000  -0.000000e+000  0.000000e+000
    outer loop
      vertex -8.500000e+000  3.852900e+001  8.500000e+000
      vertex -8.500000e+000  3.338300e+001  3.637307e+000
      vertex -8.500000e+000  3.492031e+001  2.100000e+000
    endloop
  endfacet
  facet normal  1.000000e+000  -0.000000e+000  0.000000e+000
    outer loop
      vertex -8.500000e+000  3.852900e+001  8.500000e+000
      vertex -8.500000e+000  3.492031e+001  2.100000e+000
      vertex -8.500000e+000  3.548300e+001 -3.552714e-015
    endloop
  endfacet
  facet normal  0.000000e+000  2.588189e-001 -9.659258e-001
    outer loop
      vertex -1.000000e+001  3.128300e+001  4.200000e+000
      vertex -8.500000e+000  2.918300e+001  3.637307e+000
      vertex -1.000000e+001  2.918300e+001  3.637307e+000
    endloop
  endfacet
  facet normal  0.000000e+000  7.071066e-001 -7.071070e-001
    outer loop
      vertex -1.000000e+001  2.918300e+001  3.637307e+000
      vertex -8.500000e+000  2.918300e+001  3.637307e+000
      vertex -8.500000e+000  2.764569e+001  2.100000e+000
    endloop
  endfacet
  facet normal  0.000000e+000  7.071066e-001 -7.071070e-001
    outer loop
      vertex -1.000000e+001  2.918300e+001  3.637307e+000
      vertex -8.500000e+000  2.764569e+001  2.100000e+000
      vertex -1.000000e+001  2.764569e+001  2.100000e+000
    endloop
  endfacet
  facet normal  0.000000e+000  9.659259e-001 -2.588188e-001
    outer loop
      vertex -1.000000e+001  2.764569e+001  2.100000e+000
      vertex -8.500000e+000  2.764569e+001  2.100000e+000
      vertex -8.500000e+000  2.708300e+001 -3.038379e-015
    endloop
  endfacet
  facet normal  0.000000e+000  9.659259e-001 -2.588188e-001
    outer loop
      vertex -1.000000e+001  2.764569e+001  2.100000e+000
      vertex -8.500000e+000  2.708300e+001 -3.038379e-015
      vertex -1.000000e+001  2.708300e+001 -3.038379e-015
    endloop
  endfacet
  facet normal  0.000000e+000  2.588189e-001 -9.659258e-001
    outer loop
      vertex -8.500000e+000  2.918300e+001  3.637307e+000
      vertex -1.000000e+001  3.128300e+001  4.200000e+000
      vertex -8.500000e+000  3.128300e+001  4.200000e+000
    endloop
  endfacet
  facet normal  -0.000000e+000 -2.588191e-001 -9.659258e-001
    outer loop
      vertex -8.500000e+000  3.128300e+001  4.200000e+000
      vertex -1.000000e+001  3.128300e+001  4.200000e+000
      vertex -1.000000e+001  3.338300e+001  3.637307e+000
    endloop
  endfacet
  facet normal  0.000000e+000 -2.588191e-001 -9.659258e-001
    outer loop
      vertex -8.500000e+000  3.128300e+001  4.200000e+000
      vertex -1.000000e+001  3.338300e+001  3.637307e+000
      vertex -8.500000e+000  3.338300e+001  3.637307e+000
    endloop
  endfacet
  facet normal  -0.000000e+000 -7.071066e-001 -7.071070e-001
    outer loop
      vertex -8.500000e+000  3.338300e+001  3.637307e+000
      vertex -1.000000e+001  3.338300e+001  3.637307e+000
      vertex -1.000000e+001  3.492031e+001  2.100000e+000
    endloop
  endfacet
  facet normal  0.000000e+000 -7.071066e-001 -7.071070e-001
    outer loop
      vertex -8.500000e+000  3.338300e+001  3.637307e+000
      vertex -1.000000e+001  3.492031e+001  2.100000e+000
      vertex -8.500000e+000  3.492031e+001  2.100000e+000
    endloop
  endfacet
  facet normal  -0.000000e+000 -9.659257e-001 -2.588196e-001
    outer loop
      vertex -8.500000e+000  3.492031e+001  2.100000e+000
      vertex -1.000000e+001  3.492031e+001  2.100000e+000
      vertex -1.000000e+001  3.548300e+001 -3.552714e-015
    endloop
  endfacet
  facet normal  0.000000e+000 -9.659257e-001 -2.588196e-001
    outer loop
      vertex -8.500000e+000  3.492031e+001  2.100000e+000
      vertex -1.000000e+001  3.548300e+001 -3.552714e-015
      vertex -8.500000e+000  3.548300e+001 -3.552714e-015
    endloop
  endfacet
  facet normal  0.000000e+000 -2.588191e-001  9.659258e-001
    outer loop
      vertex -1.000000e+001  3.128300e+001 -4.200000e+000
      vertex -8.500000e+000  3.338300e+001 -3.637307e+000
      vertex -1.000000e+001  3.338300e+001 -3.637307e+000
    endloop
  endfacet
  facet normal  0.000000e+000 -7.071066e-001  7.071070e-001
    outer loop
      vertex -1.000000e+001  3.338300e+001 -3.637307e+000
      vertex -8.500000e+000  3.338300e+001 -3.637307e+000
      vertex -8.500000e+000  3.492031e+001 -2.100000e+000
    endloop
  endfacet
  facet normal  0.000000e+000 -7.071066e-001  7.071070e-001
    outer loop
      vertex -1.000000e+001  3.338300e+001 -3.637307e+000
      vertex -8.500000e+000  3.492031e+001 -2.100000e+000
      vertex -1.000000e+001  3.492031e+001 -2.100000e+000
    endloop
  endfacet
  facet normal  0.000000e+000 -9.659257e-001  2.588196e-001
    outer loop
      vertex -1.000000e+001  3.492031e+001 -2.100000e+000
      vertex -8.500000e+000  3.492031e+001 -2.100000e+000
      vertex -8.500000e+000  3.548300e+001 -3.552714e-015
    endloop
  endfacet
  facet normal  0.000000e+000 -9.659257e-001  2.588196e-001
    outer loop
      vertex -1.000000e+001  3.492031e+001 -2.100000e+000
      vertex -8.500000e+000  3.548300e+001 -3.552714e-015
      vertex -1.000000e+001  3.548300e+001 -3.552714e-015
    endloop
  endfacet
  facet normal  0.000000e+000 -2.588191e-001  9.659258e-001
    outer loop
      vertex -8.500000e+000  3.338300e+001 -3.637307e+000
      vertex -1.000000e+001  3.128300e+001 -4.200000e+000
      vertex -8.500000e+000  3.128300e+001 -4.200000e+000
    endloop
  endfacet
  facet normal  0.000000e+000  2.588189e-001  9.659258e-001
    outer loop
      vertex -8.500000e+000  3.128300e+001 -4.200000e+000
      vertex -1.000000e+001  3.128300e+001 -4.200000e+000
      vertex -1.000000e+001  2.918300e+001 -3.637307e+000
    endloop
  endfacet
  facet normal  -0.000000e+000  2.588189e-001  9.659258e-001
    outer loop
      vertex -8.500000e+000  3.128300e+001 -4.200000e+000
      vertex -1.000000e+001  2.918300e+001 -3.637307e+000
      vertex -8.500000e+000  2.918300e+001 -3.637307e+000
    endloop
  endfacet
  facet normal  0.000000e+000  7.071066e-001  7.071070e-001
    outer loop
      vertex -8.500000e+000  2.918300e+001 -3.637307e+000
      vertex -1.000000e+001  2.918300e+001 -3.637307e+000
      vertex -1.000000e+001  2.764569e+001 -2.100000e+000
    endloop
  endfacet
  facet normal  -0.000000e+000  7.071066e-001  7.071070e-001
    outer loop
      vertex -8.500000e+000  2.918300e+001 -3.637307e+000
      vertex -1.000000e+001  2.764569e+001 -2.100000e+000
      vertex -8.500000e+000  2.764569e+001 -2.100000e+000
    endloop
  endfacet
  facet normal  0.000000e+000  9.659259e-001  2.588188e-001
    outer loop
      vertex -8.500000e+000  2.764569e+001 -2.100000e+000
      vertex -1.000000e+001  2.764569e+001 -2.100000e+000
      vertex -1.000000e+001  2.708300e+001 -3.038379e-015
    endloop
  endfacet
  facet normal  -0.000000e+000  9.659259e-001  2.588188e-001
    outer loop
      vertex -8.500000e+000  2.764569e+001 -2.100000e+000
      vertex -1.000000e+001  2.708300e+001 -3.038379e-015
      vertex -8.500000e+000  2.708300e+001 -3.038379e-015
    endloop
  endfacet
  facet normal  0.000000e+000  0.000000e+000  1.000000e+000
    outer loop
      vertex  1.000000e+001  2.979590e-001  1.000000e+001
      vertex  1.000000e+001  1.540400e+001  1.000000e+001
      vertex -1.000000e+001  2.979590e-001  1.000000e+001
    endloop
  endfacet
  facet normal  0.000000e+000  0.000000e+000  1.000000e+000
    outer loop
      vertex -1.000000e+001  2.979590e-001  1.000000e+001
      vertex  1.000000e+001  1.540400e+001  1.000000e+001
      vertex -1.000000e+001  4.040400e+001  1.000000e+001
    endloop
  endfacet
  facet normal  1.000000e+000  0.000000e+000  -0.000000e+000
    outer loop
      vertex  1.000000e+001  2.979590e-001  1.000000e+001
      vertex  1.000000e+001  2.576453e+000  7.082322e+000
      vertex  1.000000e+001  1.540400e+001  1.000000e+001
    endloop
  endfacet
  facet normal  1.000000e+000  0.000000e+000  0.000000e+000
    outer loop
      vertex  1.000000e+001  1.540400e+001 -1.000000e+001
      vertex  1.000000e+001  1.540400e+001  1.000000e+001
      vertex  1.000000e+001  2.576453e+000  7.082322e+000
    endloop
  endfacet
  facet normal  1.000000e+000  0.000000e+000  0.000000e+000
    outer loop
      vertex  1.000000e+001  1.540400e+001 -1.000000e+001
      vertex  1.000000e+001  2.576453e+000  7.082322e+000
      vertex  1.000000e+001  4.010558e+000  3.669445e+000
    endloop
  endfacet
  facet normal  1.000000e+000  0.000000e+000  0.000000e+000
    outer loop
      vertex  1.000000e+001  1.540400e+001 -1.000000e+001
      vertex  1.000000e+001  4.010558e+000  3.669445e+000
      vertex  1.000000e+001  4.500000e+000  0.000000e+000
    endloop
  endfacet
  facet normal  1.000000e+000  0.000000e+000  0.000000e+000
    outer loop
      vertex  1.000000e+001  1.540400e+001 -1.000000e+001
      vertex  1.000000e+001  4.500000e+000  0.000000e+000
      vertex  1.000000e+001  4.010558e+000 -3.669445e+000
    endloop
  endfacet
  facet normal  1.000000e+000  0.000000e+000  0.000000e+000
    outer loop
      vertex  1.000000e+001  1.540400e+001 -1.000000e+001
      vertex  1.000000e+001  4.010558e+000 -3.669445e+000
      vertex  1.000000e+001  2.576453e+000 -7.082322e+000
    endloop
  endfacet
  facet normal  1.000000e+000  0.000000e+000  0.000000e+000
    outer loop
      vertex  1.000000e+001  1.540400e+001 -1.000000e+001
      vertex  1.000000e+001  2.576453e+000 -7.082322e+000
      vertex  1.000000e+001  2.979590e-001 -1.000000e+001
    endloop
  endfacet
  facet normal  0.000000e+000  0.000000e+000 -1.000000e+000
    outer loop
      vertex -8.500000e+000  1.624298e+000  8.500000e+000
      vertex -8.500000e+000  3.852900e+001  8.500000e+000
      vertex  8.500000e+000  1.624298e+000  8.500000e+000
    endloop
  endfacet
  facet normal  0.000000e+000  0.000000e+000 -1.000000e+000
    outer loop
      vertex  8.500000e+000  1.624298e+000  8.500000e+000
      vertex -8.500000e+000  3.852900e+001  8.500000e+000
      vertex  8.500000e+000  1.727900e+001  8.500000e+000
    endloop
  endfacet
  facet normal -1.000000e+000  0.000000e+000  0.000000e+000
    outer loop
      vertex  8.500000e+000  1.727900e+001 -8.500000e+000
      vertex  8.500000e+000  1.624298e+000 -8.500000e+000
      vertex  8.500000e+000  3.761602e+000 -4.486638e+000
    endloop
  endfacet
  facet normal -1.000000e+000  0.000000e+000  0.000000e+000
    outer loop
      vertex  8.500000e+000  1.727900e+001 -8.500000e+000
      vertex  8.500000e+000  3.761602e+000 -4.486638e+000
      vertex  8.500000e+000  4.500000e+000  0.000000e+000
    endloop
  endfacet
  facet normal -1.000000e+000  0.000000e+000  0.000000e+000
    outer loop
      vertex  8.500000e+000  1.727900e+001 -8.500000e+000
      vertex  8.500000e+000  4.500000e+000  0.000000e+000
      vertex  8.500000e+000  3.761602e+000  4.486638e+000
    endloop
  endfacet
  facet normal -1.000000e+000  0.000000e+000  0.000000e+000
    outer loop
      vertex  8.500000e+000  1.727900e+001 -8.500000e+000
      vertex  8.500000e+000  3.761602e+000  4.486638e+000
      vertex  8.500000e+000  1.624298e+000  8.500000e+000
    endloop
  endfacet
  facet normal -1.000000e+000  0.000000e+000  0.000000e+000
    outer loop
      vertex  8.500000e+000  1.727900e+001 -8.500000e+000
      vertex  8.500000e+000  1.624298e+000  8.500000e+000
      vertex  8.500000e+000  1.727900e+001  8.500000e+000
    endloop
  endfacet
  facet normal  0.000000e+000  0.000000e+000  1.000000e+000
    outer loop
      vertex  8.500000e+000  1.624298e+000 -8.500000e+000
      vertex  8.500000e+000  1.727900e+001 -8.500000e+000
      vertex -8.500000e+000  1.624298e+000 -8.500000e+000
    endloop
  endfacet
  facet normal  0.000000e+000  0.000000e+000  1.000000e+000
    outer loop
      vertex -8.500000e+000  1.624298e+000 -8.500000e+000
      vertex  8.500000e+000  1.727900e+001 -8.500000e+000
      vertex -8.500000e+000  3.852900e+001 -8.500000e+000
    endloop
  endfacet
  facet normal  0.000000e+000  0.000000e+000 -1.000000e+000
    outer loop
      vertex -1.000000e+001  2.979590e-001 -1.000000e+001
      vertex -1.000000e+001  4.040400e+001 -1.000000e+001
      vertex  1.000000e+001  2.979590e-001 -1.000000e+001
    endloop
  endfacet
  facet normal  0.000000e+000  0.000000e+000 -1.000000e+000
    outer loop
      vertex  1.000000e+001  2.979590e-001 -1.000000e+001
      vertex -1.000000e+001  4.040400e+001 -1.000000e+001
      vertex  1.000000e+001  1.540400e+001 -1.000000e+001
    endloop
  endfacet
  facet normal -1.152500e-001 -8.767595e-001 -4.669157e-001
    outer loop
      vertex -1.000000e+001  2.576453e+000  7.082322e+000
      vertex -8.500000e+000  3.761602e+000  4.486638e+000
      vertex -8.500000e+000  1.624298e+000  8.500000e+000
    endloop
  endfacet
  facet normal  8.114619e-002 -7.855486e-001 -6.134562e-001
    outer loop
      vertex -1.000000e+001  2.979590e-001  1.000000e+001
      vertex -1.000000e+001  2.576453e+000  7.082322e+000
      vertex -8.500000e+000  1.624298e+000  8.500000e+000
    endloop
  endfacet
  facet normal  1.152500e-001 -8.767595e-001 -4.669157e-001
    outer loop
      vertex  8.500000e+000  3.761602e+000  4.486638e+000
      vertex  1.000000e+001  2.576453e+000  7.082322e+000
      vertex  8.500000e+000  1.624298e+000  8.500000e+000
    endloop
  endfacet
  facet normal  0.000000e+000 -7.491414e-001 -6.624101e-001
    outer loop
      vertex  1.000000e+001  2.979590e-001  1.000000e+001
      vertex -1.000000e+001  2.979590e-001  1.000000e+001
      vertex -8.500000e+000  1.624298e+000  8.500000e+000
    endloop
  endfacet
  facet normal  0.000000e+000 -7.491413e-001 -6.624101e-001
    outer loop
      vertex  1.000000e+001  2.979590e-001  1.000000e+001
      vertex -8.500000e+000  1.624298e+000  8.500000e+000
      vertex  8.500000e+000  1.624298e+000  8.500000e+000
    endloop
  endfacet
  facet normal -8.114623e-002 -7.855486e-001 -6.134562e-001
    outer loop
      vertex  1.000000e+001  2.979590e-001  1.000000e+001
      vertex  8.500000e+000  1.624298e+000  8.500000e+000
      vertex  1.000000e+001  2.576453e+000  7.082322e+000
    endloop
  endfacet
  facet normal -5.794124e-002 -9.203660e-001 -3.867416e-001
    outer loop
      vertex  1.000000e+001  2.576453e+000  7.082322e+000
      vertex  8.500000e+000  3.761602e+000  4.486638e+000
      vertex  1.000000e+001  4.010558e+000  3.669445e+000
    endloop
  endfacet
  facet normal  7.508422e-002 -9.839408e-001 -1.619342e-001
    outer loop
      vertex  1.000000e+001  4.010558e+000  3.669445e+000
      vertex  8.500000e+000  3.761602e+000  4.486638e+000
      vertex  8.500000e+000  4.500000e+000  0.000000e+000
    endloop
  endfacet
  facet normal  0.000000e+000 -9.912215e-001 -1.322123e-001
    outer loop
      vertex  1.000000e+001  4.010558e+000  3.669445e+000
      vertex  8.500000e+000  4.500000e+000  0.000000e+000
      vertex  1.000000e+001  4.500000e+000  0.000000e+000
    endloop
  endfacet
  facet normal  5.794124e-002 -9.203660e-001 -3.867416e-001
    outer loop
      vertex -1.000000e+001  2.576453e+000  7.082322e+000
      vertex -1.000000e+001  4.010558e+000  3.669445e+000
      vertex -8.500000e+000  3.761602e+000  4.486638e+000
    endloop
  endfacet
  facet normal -9.209191e-002 -9.870093e-001 -1.316504e-001
    outer loop
      vertex -8.500000e+000  3.761602e+000  4.486638e+000
      vertex -1.000000e+001  4.010558e+000  3.669445e+000
      vertex -1.000000e+001  4.500000e+000  0.000000e+000
    endloop
  endfacet
  facet normal  0.000000e+000 -9.867262e-001 -1.623926e-001
    outer loop
      vertex -8.500000e+000  3.761602e+000  4.486638e+000
      vertex -1.000000e+001  4.500000e+000  0.000000e+000
      vertex -8.500000e+000  4.500000e+000  0.000000e+000
    endloop
  endfacet
  facet normal  8.114626e-002 -7.855486e-001  6.134562e-001
    outer loop
      vertex -1.000000e+001  2.576453e+000 -7.082322e+000
      vertex -1.000000e+001  2.979590e-001 -1.000000e+001
      vertex -8.500000e+000  1.624298e+000 -8.500000e+000
    endloop
  endfacet
  facet normal -1.152500e-001 -8.767595e-001  4.669157e-001
    outer loop
      vertex -8.500000e+000  3.761602e+000 -4.486638e+000
      vertex -1.000000e+001  2.576453e+000 -7.082322e+000
      vertex -8.500000e+000  1.624298e+000 -8.500000e+000
    endloop
  endfacet
  facet normal  0.000000e+000 -7.491413e-001  6.624101e-001
    outer loop
      vertex  8.500000e+000  1.624298e+000 -8.500000e+000
      vertex -8.500000e+000  1.624298e+000 -8.500000e+000
      vertex -1.000000e+001  2.979590e-001 -1.000000e+001
    endloop
  endfacet
  facet normal  0.000000e+000 -7.491414e-001  6.624101e-001
    outer loop
      vertex  8.500000e+000  1.624298e+000 -8.500000e+000
      vertex -1.000000e+001  2.979590e-001 -1.000000e+001
      vertex  1.000000e+001  2.979590e-001 -1.000000e+001
    endloop
  endfacet
  facet normal -8.114626e-002 -7.855486e-001  6.134562e-001
    outer loop
      vertex  8.500000e+000  1.624298e+000 -8.500000e+000
      vertex  1.000000e+001  2.979590e-001 -1.000000e+001
      vertex  1.000000e+001  2.576453e+000 -7.082322e+000
    endloop
  endfacet
  facet normal  1.152500e-001 -8.767595e-001  4.669157e-001
    outer loop
      vertex  8.500000e+000  1.624298e+000 -8.500000e+000
      vertex  1.000000e+001  2.576453e+000 -7.082322e+000
      vertex  8.500000e+000  3.761602e+000 -4.486638e+000
    endloop
  endfacet
  facet normal  5.794124e-002 -9.203660e-001  3.867416e-001
    outer loop
      vertex -1.000000e+001  2.576453e+000 -7.082322e+000
      vertex -8.500000e+000  3.761602e+000 -4.486638e+000
      vertex -1.000000e+001  4.010558e+000 -3.669445e+000
    endloop
  endfacet
  facet normal -7.508422e-002 -9.839408e-001  1.619342e-001
    outer loop
      vertex -1.000000e+001  4.010558e+000 -3.669445e+000
      vertex -8.500000e+000  3.761602e+000 -4.486638e+000
      vertex -8.500000e+000  4.500000e+000  0.000000e+000
    endloop
  endfacet
  facet normal  0.000000e+000 -9.912215e-001  1.322123e-001
    outer loop
      vertex -1.000000e+001  4.010558e+000 -3.669445e+000
      vertex -8.500000e+000  4.500000e+000  0.000000e+000
      vertex -1.000000e+001  4.500000e+000  0.000000e+000
    endloop
  endfacet
  facet normal -5.794124e-002 -9.203660e-001  3.867416e-001
    outer loop
      vertex  1.000000e+001  2.576453e+000 -7.082322e+000
      vertex  1.000000e+001  4.010558e+000 -3.669445e+000
      vertex  8.500000e+000  3.761602e+000 -4.486638e+000
    endloop
  endfacet
  facet normal  9.209191e-002 -9.870093e-001  1.316504e-001
    outer loop
      vertex  8.500000e+000  3.761602e+000 -4.486638e+000
      vertex  1.000000e+001  4.010558e+000 -3.669445e+000
      vertex  1.000000e+001  4.500000e+000  0.000000e+000
    endloop
  endfacet
  facet normal  0.000000e+000 -9.867262e-001  1.623926e-001
    outer loop
      vertex  8.500000e+000  3.761602e+000 -4.486638e+000
      vertex  1.000000e+001  4.500000e+000  0.000000e+000
      vertex  8.500000e+000  4.500000e+000  0.000000e+000
    endloop
  endfacet
  facet normal  7.808686e-001  6.246952e-001  0.000000e+000
    outer loop
      vertex  1.000000e+001  1.540400e+001 -1.000000e+001
      vertex  8.500000e+000  1.727900e+001 -8.500000e+000
      vertex  1.000000e+001  1.540400e+001  1.000000e+001
    endloop
  endfacet
  facet normal  7.808686e-001  6.246952e-001  0.000000e+000
    outer loop
      vertex  1.000000e+001  1.540400e+001  1.000000e+001
      vertex  8.500000e+000  1.727900e+001 -8.500000e+000
      vertex  8.500000e+000  1.727900e+001  8.500000e+000
    endloop
  endfacet
  facet normal  7.808688e-001  6.246950e-001 -3.673826e-007
    outer loop
      vertex  1.000000e+001  1.540400e+001  1.000000e+001
      vertex  8.500000e+000  1.727900e+001  8.500000e+000
      vertex -1.000000e+001  4.040400e+001  1.000000e+001
    endloop
  endfacet
  facet normal  7.808688e-001  6.246951e-001  0.000000e+000
    outer loop
      vertex -1.000000e+001  4.040400e+001  1.000000e+001
      vertex  8.500000e+000  1.727900e+001  8.500000e+000
      vertex -8.500000e+000  3.852900e+001  8.500000e+000
    endloop
  endfacet
  facet normal  7.808688e-001  6.246950e-001  0.000000e+000
    outer loop
      vertex -1.000000e+001  4.040400e+001  1.000000e+001
      vertex -8.500000e+000  3.852900e+001  8.500000e+000
      vertex -1.000000e+001  4.040400e+001 -1.000000e+001
    endloop
  endfacet
  facet normal  7.808688e-001  6.246951e-001  0.000000e+000
    outer loop
      vertex -1.000000e+001  4.040400e+001 -1.000000e+001
      vertex -8.500000e+000  3.852900e+001  8.500000e+000
      vertex -8.500000e+000  3.852900e+001 -8.500000e+000
    endloop
  endfacet
  facet normal  7.808688e-001  6.246950e-001  0.000000e+000
    outer loop
      vertex -1.000000e+001  4.040400e+001 -1.000000e+001
      vertex -8.500000e+000  3.852900e+001 -8.500000e+000
      vertex  1.000000e+001  1.540400e+001 -1.000000e+001
    endloop
  endfacet
  facet normal  7.808688e-001  6.246950e-001  4.322148e-007
    outer loop
      vertex  1.000000e+001  1.540400e+001 -1.000000e+001
      vertex -8.500000e+000  3.852900e+001 -8.500000e+000
      vertex  8.500000e+000  1.727900e+001 -8.500000e+000
    endloop
  endfacet
endsolid CATIA STL
