solid CATIA STL
  facet normal  3.826831e-001  1.404919e-003  9.238787e-001
    outer loop
      vertex  8.838835e-001  7.000000e+001  8.838835e-001
      vertex -7.653790e-017  7.000000e+001  1.250000e+000
      vertex  4.323316e-001  2.968685e+000  1.172855e+000
    endloop
  endfacet
  facet normal  3.132758e-002 -9.482574e-004  9.995087e-001
    outer loop
      vertex  4.323316e-001  2.968685e+000  1.172855e+000
      vertex -7.653790e-017  7.000000e+001  1.250000e+000
      vertex -3.580050e-001  2.978562e+000  1.197636e+000
    endloop
  endfacet
  facet normal -3.826831e-001  1.322332e-003  9.238787e-001
    outer loop
      vertex -3.580050e-001  2.978562e+000  1.197636e+000
      vertex -7.653790e-017  7.000000e+001  1.250000e+000
      vertex -8.838835e-001  7.000000e+001  8.838835e-001
    endloop
  endfacet
  facet normal  9.584982e-001  0.000000e+000  2.850984e-001
    outer loop
      vertex  1.250000e+000  2.727178e+000  1.530758e-016
      vertex  1.250000e+000  7.000000e+001  1.530758e-016
      vertex  1.046797e+000  2.811444e+000  6.831657e-001
    endloop
  endfacet
  facet normal  9.238790e-001  1.096932e-003  3.826832e-001
    outer loop
      vertex  1.046797e+000  2.811444e+000  6.831657e-001
      vertex  1.250000e+000  7.000000e+001  1.530758e-016
      vertex  8.838835e-001  7.000000e+001  8.838835e-001
    endloop
  endfacet
  facet normal  6.231033e-001 -8.256933e-004  7.821392e-001
    outer loop
      vertex  1.046797e+000  2.811444e+000  6.831657e-001
      vertex  8.838835e-001  7.000000e+001  8.838835e-001
      vertex  4.323316e-001  2.968685e+000  1.172855e+000
    endloop
  endfacet
  facet normal -9.238796e-001  0.000000e+000  3.826834e-001
    outer loop
      vertex -1.250000e+000  7.000000e+001  0.000000e+000
      vertex -1.250000e+000  2.727178e+000  0.000000e+000
      vertex -8.838835e-001  7.000000e+001  8.838835e-001
    endloop
  endfacet
  facet normal -9.497515e-001  1.056314e-003  3.130034e-001
    outer loop
      vertex -8.838835e-001  7.000000e+001  8.838835e-001
      vertex -1.250000e+000  2.727178e+000  0.000000e+000
      vertex -1.004872e+000  2.826700e+000  7.434592e-001
    endloop
  endfacet
  facet normal -5.745184e-001 -6.762467e-004  8.184914e-001
    outer loop
      vertex -8.838835e-001  7.000000e+001  8.838835e-001
      vertex -1.004872e+000  2.826700e+000  7.434592e-001
      vertex -3.580050e-001  2.978562e+000  1.197636e+000
    endloop
  endfacet
  facet normal -3.826831e-001  1.404919e-003 -9.238787e-001
    outer loop
      vertex -8.838835e-001  7.000000e+001 -8.838835e-001
      vertex  2.296137e-016  7.000000e+001 -1.250000e+000
      vertex -4.323316e-001  2.968685e+000 -1.172855e+000
    endloop
  endfacet
  facet normal -3.132758e-002 -9.482574e-004 -9.995087e-001
    outer loop
      vertex -4.323316e-001  2.968685e+000 -1.172855e+000
      vertex  2.296137e-016  7.000000e+001 -1.250000e+000
      vertex  3.580050e-001  2.978562e+000 -1.197636e+000
    endloop
  endfacet
  facet normal  3.826831e-001  1.322332e-003 -9.238787e-001
    outer loop
      vertex  3.580050e-001  2.978562e+000 -1.197636e+000
      vertex  2.296137e-016  7.000000e+001 -1.250000e+000
      vertex  8.838835e-001  7.000000e+001 -8.838835e-001
    endloop
  endfacet
  facet normal -9.584982e-001  -0.000000e+000 -2.850984e-001
    outer loop
      vertex -1.250000e+000  2.727178e+000  0.000000e+000
      vertex -1.250000e+000  7.000000e+001  0.000000e+000
      vertex -1.046797e+000  2.811444e+000 -6.831657e-001
    endloop
  endfacet
  facet normal -9.238790e-001  1.096932e-003 -3.826832e-001
    outer loop
      vertex -1.046797e+000  2.811444e+000 -6.831657e-001
      vertex -1.250000e+000  7.000000e+001  0.000000e+000
      vertex -8.838835e-001  7.000000e+001 -8.838835e-001
    endloop
  endfacet
  facet normal -6.231033e-001 -8.256933e-004 -7.821392e-001
    outer loop
      vertex -1.046797e+000  2.811444e+000 -6.831657e-001
      vertex -8.838835e-001  7.000000e+001 -8.838835e-001
      vertex -4.323316e-001  2.968685e+000 -1.172855e+000
    endloop
  endfacet
  facet normal  9.238796e-001  0.000000e+000 -3.826834e-001
    outer loop
      vertex  1.250000e+000  7.000000e+001  1.530758e-016
      vertex  1.250000e+000  2.727178e+000  1.530758e-016
      vertex  8.838835e-001  7.000000e+001 -8.838835e-001
    endloop
  endfacet
  facet normal  9.497515e-001  1.056314e-003 -3.130034e-001
    outer loop
      vertex  8.838835e-001  7.000000e+001 -8.838835e-001
      vertex  1.250000e+000  2.727178e+000  1.530758e-016
      vertex  1.004872e+000  2.826700e+000 -7.434592e-001
    endloop
  endfacet
  facet normal  5.745184e-001 -6.762467e-004 -8.184914e-001
    outer loop
      vertex  8.838835e-001  7.000000e+001 -8.838835e-001
      vertex  1.004872e+000  2.826700e+000 -7.434592e-001
      vertex  3.580050e-001  2.978562e+000 -1.197636e+000
    endloop
  endfacet
  facet normal -1.375020e-002  9.990927e-001 -4.030550e-002
    outer loop
      vertex  9.270510e-001  2.853169e+000 -4.500000e+000
      vertex -4.323316e-001  2.968685e+000 -1.172855e+000
      vertex  3.580050e-001  2.978562e+000 -1.197636e+000
    endloop
  endfacet
  facet normal  2.271158e-001  9.738654e-001  2.157166e-003
    outer loop
      vertex  3.580050e-001  2.978562e+000 -1.197636e+000
      vertex  1.004872e+000  2.826700e+000 -7.434592e-001
      vertex  9.270510e-001  2.853169e+000 -4.500000e+000
    endloop
  endfacet
  facet normal  2.457497e-001  9.693291e-001 -2.886816e-003
    outer loop
      vertex  4.323316e-001  2.968685e+000  1.172855e+000
      vertex  9.270510e-001  2.853169e+000  4.500000e+000
      vertex  1.046797e+000  2.811444e+000  6.831657e-001
    endloop
  endfacet
  facet normal  9.510565e-001  3.090170e-001  -0.000000e+000
    outer loop
      vertex  3.000000e+000  0.000000e+000  4.500000e+000
      vertex  2.427051e+000  1.763356e+000  1.110223e-016
      vertex  2.427051e+000  1.763356e+000  4.500000e+000
    endloop
  endfacet
  facet normal -9.510565e-001  3.090170e-001  0.000000e+000
    outer loop
      vertex -3.000000e+000  3.673819e-016 -4.500000e+000
      vertex -3.000000e+000  3.673819e-016  4.500000e+000
      vertex -2.427051e+000  1.763356e+000  1.110223e-016
    endloop
  endfacet
  facet normal -9.510565e-001  3.090170e-001  0.000000e+000
    outer loop
      vertex -2.427051e+000  1.763356e+000  1.110223e-016
      vertex -3.000000e+000  3.673819e-016  4.500000e+000
      vertex -2.427051e+000  1.763356e+000  4.500000e+000
    endloop
  endfacet
  facet normal -6.335451e-001  7.737058e-001  0.000000e+000
    outer loop
      vertex -2.427051e+000  1.763356e+000  1.110223e-016
      vertex -2.427051e+000  1.763356e+000  4.500000e+000
      vertex -1.250000e+000  2.727178e+000  0.000000e+000
    endloop
  endfacet
  facet normal -5.876731e-001  8.088628e-001  1.952861e-002
    outer loop
      vertex -1.250000e+000  2.727178e+000  0.000000e+000
      vertex -2.427051e+000  1.763356e+000  4.500000e+000
      vertex -9.270510e-001  2.853169e+000  4.500000e+000
    endloop
  endfacet
  facet normal -3.796816e-001  9.251162e-001  1.346921e-003
    outer loop
      vertex -1.250000e+000  2.727178e+000  0.000000e+000
      vertex -9.270510e-001  2.853169e+000  4.500000e+000
      vertex -1.004872e+000  2.826700e+000  7.434592e-001
    endloop
  endfacet
  facet normal  9.510565e-001  3.090170e-001  -0.000000e+000
    outer loop
      vertex  3.000000e+000  0.000000e+000  4.500000e+000
      vertex  3.000000e+000  0.000000e+000 -4.500000e+000
      vertex  2.427051e+000  1.763356e+000  1.110223e-016
    endloop
  endfacet
  facet normal  9.510565e-001  3.090170e-001  0.000000e+000
    outer loop
      vertex  2.427051e+000  1.763356e+000  1.110223e-016
      vertex  3.000000e+000  0.000000e+000 -4.500000e+000
      vertex  2.427051e+000  1.763356e+000 -4.500000e+000
    endloop
  endfacet
  facet normal  6.335451e-001  7.737058e-001  -0.000000e+000
    outer loop
      vertex  2.427051e+000  1.763356e+000  1.110223e-016
      vertex  2.427051e+000  1.763356e+000 -4.500000e+000
      vertex  1.250000e+000  2.727178e+000  1.530758e-016
    endloop
  endfacet
  facet normal  5.876731e-001  8.088628e-001 -1.952861e-002
    outer loop
      vertex  1.250000e+000  2.727178e+000  1.530758e-016
      vertex  2.427051e+000  1.763356e+000 -4.500000e+000
      vertex  9.270510e-001  2.853169e+000 -4.500000e+000
    endloop
  endfacet
  facet normal  3.796816e-001  9.251162e-001 -1.346921e-003
    outer loop
      vertex  1.250000e+000  2.727178e+000  1.530758e-016
      vertex  9.270510e-001  2.853169e+000 -4.500000e+000
      vertex  1.004872e+000  2.826700e+000 -7.434592e-001
    endloop
  endfacet
  facet normal -6.333657e-001  7.734867e-001 -2.379826e-002
    outer loop
      vertex -1.250000e+000  2.727178e+000  0.000000e+000
      vertex -9.270510e-001  2.853169e+000 -4.500000e+000
      vertex -2.427051e+000  1.763356e+000  1.110223e-016
    endloop
  endfacet
  facet normal -5.877852e-001  8.090171e-001  0.000000e+000
    outer loop
      vertex -2.427051e+000  1.763356e+000  1.110223e-016
      vertex -9.270510e-001  2.853169e+000 -4.500000e+000
      vertex -2.427051e+000  1.763356e+000 -4.500000e+000
    endloop
  endfacet
  facet normal -9.510565e-001  3.090170e-001  0.000000e+000
    outer loop
      vertex -2.427051e+000  1.763356e+000  1.110223e-016
      vertex -2.427051e+000  1.763356e+000 -4.500000e+000
      vertex -3.000000e+000  3.673819e-016 -4.500000e+000
    endloop
  endfacet
  facet normal -3.807690e-001  9.055614e-001 -1.870123e-001
    outer loop
      vertex -4.323316e-001  2.968685e+000 -1.172855e+000
      vertex  9.270510e-001  2.853169e+000 -4.500000e+000
      vertex -1.046797e+000  2.811444e+000 -6.831657e-001
    endloop
  endfacet
  facet normal  0.000000e+000  9.999402e-001  1.093141e-002
    outer loop
      vertex -1.046797e+000  2.811444e+000 -6.831657e-001
      vertex  9.270510e-001  2.853169e+000 -4.500000e+000
      vertex -9.270510e-001  2.853169e+000 -4.500000e+000
    endloop
  endfacet
  facet normal -3.891856e-001  9.211568e-001 -2.139851e-003
    outer loop
      vertex -1.046797e+000  2.811444e+000 -6.831657e-001
      vertex -9.270510e-001  2.853169e+000 -4.500000e+000
      vertex -1.250000e+000  2.727178e+000  0.000000e+000
    endloop
  endfacet
  facet normal -2.271158e-001  9.738654e-001 -2.157166e-003
    outer loop
      vertex -1.004872e+000  2.826700e+000  7.434592e-001
      vertex -9.270510e-001  2.853169e+000  4.500000e+000
      vertex -3.580050e-001  2.978562e+000  1.197636e+000
    endloop
  endfacet
  facet normal  0.000000e+000  9.992799e-001  3.794324e-002
    outer loop
      vertex -3.580050e-001  2.978562e+000  1.197636e+000
      vertex -9.270510e-001  2.853169e+000  4.500000e+000
      vertex  9.270510e-001  2.853169e+000  4.500000e+000
    endloop
  endfacet
  facet normal  1.351486e-002  9.993742e-001  3.268775e-002
    outer loop
      vertex -3.580050e-001  2.978562e+000  1.197636e+000
      vertex  9.270510e-001  2.853169e+000  4.500000e+000
      vertex  4.323316e-001  2.968685e+000  1.172855e+000
    endloop
  endfacet
  facet normal  5.877852e-001  8.090171e-001  -0.000000e+000
    outer loop
      vertex  2.427051e+000  1.763356e+000  4.500000e+000
      vertex  2.427051e+000  1.763356e+000  1.110223e-016
      vertex  9.270510e-001  2.853169e+000  4.500000e+000
    endloop
  endfacet
  facet normal  6.333657e-001  7.734867e-001  2.379826e-002
    outer loop
      vertex  9.270510e-001  2.853169e+000  4.500000e+000
      vertex  2.427051e+000  1.763356e+000  1.110223e-016
      vertex  1.250000e+000  2.727178e+000  1.530758e-016
    endloop
  endfacet
  facet normal  3.891857e-001  9.211568e-001  2.139851e-003
    outer loop
      vertex  9.270510e-001  2.853169e+000  4.500000e+000
      vertex  1.250000e+000  2.727178e+000  1.530758e-016
      vertex  1.046797e+000  2.811444e+000  6.831657e-001
    endloop
  endfacet
  facet normal  -0.000000e+000  0.000000e+000  1.000000e+000
    outer loop
      vertex  9.270510e-001  2.853169e+000  4.500000e+000
      vertex -9.270510e-001  2.853169e+000  4.500000e+000
      vertex  2.427051e+000  1.763356e+000  4.500000e+000
    endloop
  endfacet
  facet normal  0.000000e+000  0.000000e+000  9.999999e-001
    outer loop
      vertex  2.427051e+000  1.763356e+000  4.500000e+000
      vertex -9.270510e-001  2.853169e+000  4.500000e+000
      vertex -2.427051e+000  1.763356e+000  4.500000e+000
    endloop
  endfacet
  facet normal  -0.000000e+000  0.000000e+000  1.000000e+000
    outer loop
      vertex  2.427051e+000  1.763356e+000  4.500000e+000
      vertex -2.427051e+000  1.763356e+000  4.500000e+000
      vertex  3.000000e+000  0.000000e+000  4.500000e+000
    endloop
  endfacet
  facet normal  0.000000e+000  0.000000e+000  9.999999e-001
    outer loop
      vertex  3.000000e+000  0.000000e+000  4.500000e+000
      vertex -2.427051e+000  1.763356e+000  4.500000e+000
      vertex -3.000000e+000  3.673819e-016  4.500000e+000
    endloop
  endfacet
  facet normal  0.000000e+000  0.000000e+000  9.999999e-001
    outer loop
      vertex  3.000000e+000  0.000000e+000  4.500000e+000
      vertex -3.000000e+000  3.673819e-016  4.500000e+000
      vertex  2.427051e+000 -1.763356e+000  4.500000e+000
    endloop
  endfacet
  facet normal  0.000000e+000  0.000000e+000  1.000000e+000
    outer loop
      vertex  2.427051e+000 -1.763356e+000  4.500000e+000
      vertex -3.000000e+000  3.673819e-016  4.500000e+000
      vertex -2.427051e+000 -1.763356e+000  4.500000e+000
    endloop
  endfacet
  facet normal  -0.000000e+000  0.000000e+000  9.999999e-001
    outer loop
      vertex  2.427051e+000 -1.763356e+000  4.500000e+000
      vertex -2.427051e+000 -1.763356e+000  4.500000e+000
      vertex  9.270510e-001 -2.853169e+000  4.500000e+000
    endloop
  endfacet
  facet normal  0.000000e+000  0.000000e+000  1.000000e+000
    outer loop
      vertex  9.270510e-001 -2.853169e+000  4.500000e+000
      vertex -2.427051e+000 -1.763356e+000  4.500000e+000
      vertex -9.270510e-001 -2.853169e+000  4.500000e+000
    endloop
  endfacet
  facet normal  0.000000e+000  0.000000e+000 -1.000000e+000
    outer loop
      vertex  3.000000e+000  0.000000e+000 -4.500000e+000
      vertex -2.427051e+000  1.763356e+000 -4.500000e+000
      vertex  2.427051e+000  1.763356e+000 -4.500000e+000
    endloop
  endfacet
  facet normal  0.000000e+000  0.000000e+000 -9.999999e-001
    outer loop
      vertex  2.427051e+000  1.763356e+000 -4.500000e+000
      vertex -2.427051e+000  1.763356e+000 -4.500000e+000
      vertex -9.270510e-001  2.853169e+000 -4.500000e+000
    endloop
  endfacet
  facet normal  0.000000e+000  0.000000e+000 -1.000000e+000
    outer loop
      vertex  2.427051e+000  1.763356e+000 -4.500000e+000
      vertex -9.270510e-001  2.853169e+000 -4.500000e+000
      vertex  9.270510e-001  2.853169e+000 -4.500000e+000
    endloop
  endfacet
  facet normal  0.000000e+000  0.000000e+000 -9.999999e-001
    outer loop
      vertex -2.427051e+000  1.763356e+000 -4.500000e+000
      vertex  3.000000e+000  0.000000e+000 -4.500000e+000
      vertex -3.000000e+000  3.673819e-016 -4.500000e+000
    endloop
  endfacet
  facet normal  0.000000e+000  0.000000e+000 -9.999999e-001
    outer loop
      vertex -3.000000e+000  3.673819e-016 -4.500000e+000
      vertex  3.000000e+000  0.000000e+000 -4.500000e+000
      vertex  2.427051e+000 -1.763356e+000 -4.500000e+000
    endloop
  endfacet
  facet normal  0.000000e+000  0.000000e+000 -1.000000e+000
    outer loop
      vertex -3.000000e+000  3.673819e-016 -4.500000e+000
      vertex  2.427051e+000 -1.763356e+000 -4.500000e+000
      vertex -2.427051e+000 -1.763356e+000 -4.500000e+000
    endloop
  endfacet
  facet normal  0.000000e+000  0.000000e+000 -9.999999e-001
    outer loop
      vertex -2.427051e+000 -1.763356e+000 -4.500000e+000
      vertex  2.427051e+000 -1.763356e+000 -4.500000e+000
      vertex  9.270510e-001 -2.853169e+000 -4.500000e+000
    endloop
  endfacet
  facet normal  0.000000e+000  0.000000e+000 -1.000000e+000
    outer loop
      vertex -2.427051e+000 -1.763356e+000 -4.500000e+000
      vertex  9.270510e-001 -2.853169e+000 -4.500000e+000
      vertex -9.270510e-001 -2.853169e+000 -4.500000e+000
    endloop
  endfacet
  facet normal  9.510565e-001 -3.090170e-001  0.000000e+000
    outer loop
      vertex  3.000000e+000  0.000000e+000 -4.500000e+000
      vertex  3.000000e+000  0.000000e+000  4.500000e+000
      vertex  2.427051e+000 -1.763356e+000 -4.500000e+000
    endloop
  endfacet
  facet normal  9.510565e-001 -3.090170e-001  0.000000e+000
    outer loop
      vertex  2.427051e+000 -1.763356e+000 -4.500000e+000
      vertex  3.000000e+000  0.000000e+000  4.500000e+000
      vertex  2.427051e+000 -1.763356e+000  4.500000e+000
    endloop
  endfacet
  facet normal  5.877852e-001 -8.090171e-001  0.000000e+000
    outer loop
      vertex  2.427051e+000 -1.763356e+000 -4.500000e+000
      vertex  2.427051e+000 -1.763356e+000  4.500000e+000
      vertex  9.270510e-001 -2.853169e+000 -4.500000e+000
    endloop
  endfacet
  facet normal  5.877852e-001 -8.090171e-001  0.000000e+000
    outer loop
      vertex  9.270510e-001 -2.853169e+000 -4.500000e+000
      vertex  2.427051e+000 -1.763356e+000  4.500000e+000
      vertex  9.270510e-001 -2.853169e+000  4.500000e+000
    endloop
  endfacet
  facet normal  0.000000e+000 -1.000000e+000  -0.000000e+000
    outer loop
      vertex  9.270510e-001 -2.853169e+000 -4.500000e+000
      vertex  9.270510e-001 -2.853169e+000  4.500000e+000
      vertex -9.270510e-001 -2.853169e+000 -4.500000e+000
    endloop
  endfacet
  facet normal  0.000000e+000 -1.000000e+000  0.000000e+000
    outer loop
      vertex -9.270510e-001 -2.853169e+000 -4.500000e+000
      vertex  9.270510e-001 -2.853169e+000  4.500000e+000
      vertex -9.270510e-001 -2.853169e+000  4.500000e+000
    endloop
  endfacet
  facet normal -5.877852e-001 -8.090171e-001  -0.000000e+000
    outer loop
      vertex -9.270510e-001 -2.853169e+000 -4.500000e+000
      vertex -9.270510e-001 -2.853169e+000  4.500000e+000
      vertex -2.427051e+000 -1.763356e+000 -4.500000e+000
    endloop
  endfacet
  facet normal -5.877852e-001 -8.090171e-001  0.000000e+000
    outer loop
      vertex -2.427051e+000 -1.763356e+000 -4.500000e+000
      vertex -9.270510e-001 -2.853169e+000  4.500000e+000
      vertex -2.427051e+000 -1.763356e+000  4.500000e+000
    endloop
  endfacet
  facet normal -9.510565e-001 -3.090170e-001  -0.000000e+000
    outer loop
      vertex -2.427051e+000 -1.763356e+000 -4.500000e+000
      vertex -2.427051e+000 -1.763356e+000  4.500000e+000
      vertex -3.000000e+000  3.673819e-016 -4.500000e+000
    endloop
  endfacet
  facet normal -9.510565e-001 -3.090170e-001  0.000000e+000
    outer loop
      vertex -3.000000e+000  3.673819e-016 -4.500000e+000
      vertex -2.427051e+000 -1.763356e+000  4.500000e+000
      vertex -3.000000e+000  3.673819e-016  4.500000e+000
    endloop
  endfacet
  facet normal  0.000000e+000  1.000000e+000  0.000000e+000
    outer loop
      vertex  8.838835e-001  7.000000e+001  8.838835e-001
      vertex -8.838835e-001  7.000000e+001  8.838835e-001
      vertex -7.653790e-017  7.000000e+001  1.250000e+000
    endloop
  endfacet
  facet normal  0.000000e+000  1.000000e+000  0.000000e+000
    outer loop
      vertex -8.838835e-001  7.000000e+001  8.838835e-001
      vertex  8.838835e-001  7.000000e+001  8.838835e-001
      vertex -1.250000e+000  7.000000e+001  0.000000e+000
    endloop
  endfacet
  facet normal  0.000000e+000  1.000000e+000  0.000000e+000
    outer loop
      vertex -1.250000e+000  7.000000e+001  0.000000e+000
      vertex  8.838835e-001  7.000000e+001  8.838835e-001
      vertex  1.250000e+000  7.000000e+001  1.530758e-016
    endloop
  endfacet
  facet normal  0.000000e+000  1.000000e+000  0.000000e+000
    outer loop
      vertex -1.250000e+000  7.000000e+001  0.000000e+000
      vertex  1.250000e+000  7.000000e+001  1.530758e-016
      vertex -8.838835e-001  7.000000e+001 -8.838835e-001
    endloop
  endfacet
  facet normal  0.000000e+000  1.000000e+000  0.000000e+000
    outer loop
      vertex -8.838835e-001  7.000000e+001 -8.838835e-001
      vertex  1.250000e+000  7.000000e+001  1.530758e-016
      vertex  8.838835e-001  7.000000e+001 -8.838835e-001
    endloop
  endfacet
  facet normal  0.000000e+000  1.000000e+000  0.000000e+000
    outer loop
      vertex -8.838835e-001  7.000000e+001 -8.838835e-001
      vertex  8.838835e-001  7.000000e+001 -8.838835e-001
      vertex  2.296137e-016  7.000000e+001 -1.250000e+000
    endloop
  endfacet
endsolid CATIA STL
