solid CATIA STL
  facet normal -9.238792e-001  -0.000000e+000 -3.826843e-001
    outer loop
      vertex  4.646828e+001 -3.080000e+001  2.497619e+001
      vertex  4.646828e+001 -2.580000e+001  2.497619e+001
      vertex  4.720052e+001 -3.080000e+001  2.320842e+001
    endloop
  endfacet
  facet normal -9.238792e-001  0.000000e+000 -3.826843e-001
    outer loop
      vertex  4.720052e+001 -3.080000e+001  2.320842e+001
      vertex  4.646828e+001 -2.580000e+001  2.497619e+001
      vertex  4.720052e+001 -2.580000e+001  2.320842e+001
    endloop
  endfacet
  facet normal -3.826838e-001  -0.000000e+000 -9.238794e-001
    outer loop
      vertex  4.720052e+001 -3.080000e+001  2.320842e+001
      vertex  4.720052e+001 -2.580000e+001  2.320842e+001
      vertex  4.896828e+001 -3.080000e+001  2.247619e+001
    endloop
  endfacet
  facet normal -3.826838e-001  0.000000e+000 -9.238794e-001
    outer loop
      vertex  4.896828e+001 -3.080000e+001  2.247619e+001
      vertex  4.720052e+001 -2.580000e+001  2.320842e+001
      vertex  4.896828e+001 -2.580000e+001  2.247619e+001
    endloop
  endfacet
  facet normal  3.826831e-001  0.000000e+000 -9.238797e-001
    outer loop
      vertex  4.896828e+001 -3.080000e+001  2.247619e+001
      vertex  4.896828e+001 -2.580000e+001  2.247619e+001
      vertex  5.073605e+001 -3.080000e+001  2.320842e+001
    endloop
  endfacet
  facet normal  3.826831e-001  0.000000e+000 -9.238797e-001
    outer loop
      vertex  5.073605e+001 -3.080000e+001  2.320842e+001
      vertex  4.896828e+001 -2.580000e+001  2.247619e+001
      vertex  5.073605e+001 -2.580000e+001  2.320842e+001
    endloop
  endfacet
  facet normal  9.238799e-001  0.000000e+000 -3.826826e-001
    outer loop
      vertex  5.073605e+001 -3.080000e+001  2.320842e+001
      vertex  5.073605e+001 -2.580000e+001  2.320842e+001
      vertex  5.146828e+001 -3.080000e+001  2.497619e+001
    endloop
  endfacet
  facet normal  9.238799e-001  0.000000e+000 -3.826826e-001
    outer loop
      vertex  5.146828e+001 -3.080000e+001  2.497619e+001
      vertex  5.073605e+001 -2.580000e+001  2.320842e+001
      vertex  5.146828e+001 -2.580000e+001  2.497619e+001
    endloop
  endfacet
  facet normal -1.881853e-001  3.849196e-002  9.813790e-001
    outer loop
      vertex  4.797559e+001 -2.791294e+001  2.727065e+001
      vertex  4.806502e+001 -2.841026e+001  2.730731e+001
      vertex  4.896828e+001 -2.830000e+001  2.747619e+001
    endloop
  endfacet
  facet normal -9.236953e-001 -1.995360e-002  3.826081e-001
    outer loop
      vertex  4.646828e+001 -3.080000e+001  2.497619e+001
      vertex  4.720052e+001 -3.080000e+001  2.674396e+001
      vertex  4.713334e+001 -2.902922e+001  2.667413e+001
    endloop
  endfacet
  facet normal -8.534437e-001 -1.562332e-001  4.972175e-001
    outer loop
      vertex  4.646828e+001 -3.080000e+001  2.497619e+001
      vertex  4.713334e+001 -2.902922e+001  2.667413e+001
      vertex  4.689759e+001 -2.868706e+001  2.637698e+001
    endloop
  endfacet
  facet normal -9.358091e-001 -4.190397e-002  3.500077e-001
    outer loop
      vertex  4.646828e+001 -3.080000e+001  2.497619e+001
      vertex  4.689759e+001 -2.868706e+001  2.637698e+001
      vertex  4.684500e+001 -2.818974e+001  2.629591e+001
    endloop
  endfacet
  facet normal -9.615912e-001  0.000000e+000  2.744858e-001
    outer loop
      vertex  4.646828e+001 -3.080000e+001  2.497619e+001
      vertex  4.684500e+001 -2.818974e+001  2.629591e+001
      vertex  4.646828e+001 -2.580000e+001  2.497619e+001
    endloop
  endfacet
  facet normal -3.826838e-001  0.000000e+000  9.238794e-001
    outer loop
      vertex  4.720052e+001 -3.080000e+001  2.674396e+001
      vertex  4.896828e+001 -3.080000e+001  2.747619e+001
      vertex  4.896828e+001 -2.830000e+001  2.747619e+001
    endloop
  endfacet
  facet normal -1.608768e-001 -1.709518e-001  9.720566e-001
    outer loop
      vertex  4.720052e+001 -3.080000e+001  2.674396e+001
      vertex  4.896828e+001 -2.830000e+001  2.747619e+001
      vertex  4.806502e+001 -2.841026e+001  2.730731e+001
    endloop
  endfacet
  facet normal  2.325015e-001 -3.020482e-001  9.245053e-001
    outer loop
      vertex  4.720052e+001 -3.080000e+001  2.674396e+001
      vertex  4.806502e+001 -2.841026e+001  2.730731e+001
      vertex  4.785149e+001 -2.886365e+001  2.721288e+001
    endloop
  endfacet
  facet normal -5.086518e-001 -3.730247e-002  8.601639e-001
    outer loop
      vertex  4.720052e+001 -3.080000e+001  2.674396e+001
      vertex  4.785149e+001 -2.886365e+001  2.721288e+001
      vertex  4.746985e+001 -2.909039e+001  2.697736e+001
    endloop
  endfacet
  facet normal -6.183490e-001 -9.873613e-003  7.858415e-001
    outer loop
      vertex  4.720052e+001 -3.080000e+001  2.674396e+001
      vertex  4.746985e+001 -2.909039e+001  2.697736e+001
      vertex  4.737275e+001 -2.910000e+001  2.690083e+001
    endloop
  endfacet
  facet normal -6.871881e-001  2.578857e-003  7.264749e-001
    outer loop
      vertex  4.720052e+001 -3.080000e+001  2.674396e+001
      vertex  4.737275e+001 -2.910000e+001  2.690083e+001
      vertex  4.713334e+001 -2.902922e+001  2.667413e+001
    endloop
  endfacet
  facet normal -9.218918e-001  6.555521e-002  3.818611e-001
    outer loop
      vertex  4.720052e+001 -2.580000e+001  2.674396e+001
      vertex  4.646828e+001 -2.580000e+001  2.497619e+001
      vertex  4.684500e+001 -2.818974e+001  2.629591e+001
    endloop
  endfacet
  facet normal -8.552255e-001  3.023027e-002  5.173735e-001
    outer loop
      vertex  4.720052e+001 -2.580000e+001  2.674396e+001
      vertex  4.684500e+001 -2.818974e+001  2.629591e+001
      vertex  4.697737e+001 -2.773635e+001  2.648823e+001
    endloop
  endfacet
  facet normal -7.374651e-001 -4.206890e-003  6.753721e-001
    outer loop
      vertex  4.720052e+001 -2.580000e+001  2.674396e+001
      vertex  4.697737e+001 -2.773635e+001  2.648823e+001
      vertex  4.727954e+001 -2.750961e+001  2.681960e+001
    endloop
  endfacet
  facet normal -6.572325e-001  2.966625e-003  7.536820e-001
    outer loop
      vertex  4.720052e+001 -2.580000e+001  2.674396e+001
      vertex  4.727954e+001 -2.750961e+001  2.681960e+001
      vertex  4.737275e+001 -2.750000e+001  2.690083e+001
    endloop
  endfacet
  facet normal -5.832240e-001  1.586046e-002  8.121566e-001
    outer loop
      vertex  4.720052e+001 -2.580000e+001  2.674396e+001
      vertex  4.737275e+001 -2.750000e+001  2.690083e+001
      vertex  4.763990e+001 -2.757078e+001  2.709407e+001
    endloop
  endfacet
  facet normal -3.970608e-001  8.220962e-002  9.141030e-001
    outer loop
      vertex  4.720052e+001 -2.580000e+001  2.674396e+001
      vertex  4.763990e+001 -2.757078e+001  2.709407e+001
      vertex  4.797559e+001 -2.791294e+001  2.727065e+001
    endloop
  endfacet
  facet normal -1.246660e-001  1.966889e-001  9.725080e-001
    outer loop
      vertex  4.720052e+001 -2.580000e+001  2.674396e+001
      vertex  4.797559e+001 -2.791294e+001  2.727065e+001
      vertex  4.896828e+001 -2.830000e+001  2.747619e+001
    endloop
  endfacet
  facet normal -3.826838e-001  0.000000e+000  9.238794e-001
    outer loop
      vertex  4.720052e+001 -2.580000e+001  2.674396e+001
      vertex  4.896828e+001 -2.830000e+001  2.747619e+001
      vertex  4.896828e+001 -2.580000e+001  2.747619e+001
    endloop
  endfacet
  facet normal  3.826831e-001  -0.000000e+000  9.238797e-001
    outer loop
      vertex  4.896828e+001 -2.580000e+001  2.747619e+001
      vertex  4.896828e+001 -2.830000e+001  2.747619e+001
      vertex  5.073605e+001 -2.580000e+001  2.674396e+001
    endloop
  endfacet
  facet normal  3.826831e-001  0.000000e+000  9.238797e-001
    outer loop
      vertex  5.073605e+001 -2.580000e+001  2.674396e+001
      vertex  4.896828e+001 -2.830000e+001  2.747619e+001
      vertex  5.073605e+001 -2.830000e+001  2.674396e+001
    endloop
  endfacet
  facet normal  9.238799e-001  -0.000000e+000  3.826826e-001
    outer loop
      vertex  5.073605e+001 -2.580000e+001  2.674396e+001
      vertex  5.073605e+001 -2.830000e+001  2.674396e+001
      vertex  5.146828e+001 -2.580000e+001  2.497619e+001
    endloop
  endfacet
  facet normal  9.238799e-001  0.000000e+000  3.826826e-001
    outer loop
      vertex  5.146828e+001 -2.580000e+001  2.497619e+001
      vertex  5.073605e+001 -2.830000e+001  2.674396e+001
      vertex  5.146828e+001 -3.080000e+001  2.497619e+001
    endloop
  endfacet
  facet normal  3.826831e-001  -0.000000e+000  9.238797e-001
    outer loop
      vertex  4.896828e+001 -2.830000e+001  2.747619e+001
      vertex  4.896828e+001 -3.080000e+001  2.747619e+001
      vertex  5.073605e+001 -2.830000e+001  2.674396e+001
    endloop
  endfacet
  facet normal  3.826831e-001  0.000000e+000  9.238797e-001
    outer loop
      vertex  5.073605e+001 -2.830000e+001  2.674396e+001
      vertex  4.896828e+001 -3.080000e+001  2.747619e+001
      vertex  5.073605e+001 -3.080000e+001  2.674396e+001
    endloop
  endfacet
  facet normal  9.238799e-001  -0.000000e+000  3.826826e-001
    outer loop
      vertex  5.073605e+001 -2.830000e+001  2.674396e+001
      vertex  5.073605e+001 -3.080000e+001  2.674396e+001
      vertex  5.146828e+001 -3.080000e+001  2.497619e+001
    endloop
  endfacet
  facet normal  0.000000e+000 -1.000000e+000  0.000000e+000
    outer loop
      vertex  4.896828e+001 -3.130000e+001  2.697619e+001
      vertex  4.755407e+001 -3.130000e+001  2.639040e+001
      vertex  5.038250e+001 -3.130000e+001  2.639040e+001
    endloop
  endfacet
  facet normal  -0.000000e+000 -1.000000e+000  0.000000e+000
    outer loop
      vertex  4.896828e+001 -3.130000e+001  2.297619e+001
      vertex  5.038250e+001 -3.130000e+001  2.356198e+001
      vertex  4.755407e+001 -3.130000e+001  2.356198e+001
    endloop
  endfacet
  facet normal  0.000000e+000 -1.000000e+000  0.000000e+000
    outer loop
      vertex  4.755407e+001 -3.130000e+001  2.356198e+001
      vertex  5.038250e+001 -3.130000e+001  2.356198e+001
      vertex  5.096828e+001 -3.130000e+001  2.497619e+001
    endloop
  endfacet
  facet normal  -0.000000e+000 -9.999999e-001  0.000000e+000
    outer loop
      vertex  4.755407e+001 -3.130000e+001  2.356198e+001
      vertex  5.096828e+001 -3.130000e+001  2.497619e+001
      vertex  4.696828e+001 -3.130000e+001  2.497619e+001
    endloop
  endfacet
  facet normal  0.000000e+000 -9.999999e-001  0.000000e+000
    outer loop
      vertex  4.696828e+001 -3.130000e+001  2.497619e+001
      vertex  5.096828e+001 -3.130000e+001  2.497619e+001
      vertex  5.038250e+001 -3.130000e+001  2.639040e+001
    endloop
  endfacet
  facet normal  -0.000000e+000 -1.000000e+000  0.000000e+000
    outer loop
      vertex  4.696828e+001 -3.130000e+001  2.497619e+001
      vertex  5.038250e+001 -3.130000e+001  2.639040e+001
      vertex  4.755407e+001 -3.130000e+001  2.639040e+001
    endloop
  endfacet
  facet normal  6.785985e-001 -6.785985e-001 -2.810839e-001
    outer loop
      vertex  5.146828e+001 -3.080000e+001  2.497619e+001
      vertex  5.096828e+001 -3.130000e+001  2.497619e+001
      vertex  5.073605e+001 -3.080000e+001  2.320842e+001
    endloop
  endfacet
  facet normal  6.785983e-001 -6.785986e-001 -2.810840e-001
    outer loop
      vertex  5.073605e+001 -3.080000e+001  2.320842e+001
      vertex  5.096828e+001 -3.130000e+001  2.497619e+001
      vertex  5.038250e+001 -3.130000e+001  2.356198e+001
    endloop
  endfacet
  facet normal  2.810843e-001 -6.785987e-001 -6.785982e-001
    outer loop
      vertex  5.073605e+001 -3.080000e+001  2.320842e+001
      vertex  5.038250e+001 -3.130000e+001  2.356198e+001
      vertex  4.896828e+001 -3.080000e+001  2.247619e+001
    endloop
  endfacet
  facet normal  2.810845e-001 -6.785983e-001 -6.785983e-001
    outer loop
      vertex  4.896828e+001 -3.080000e+001  2.247619e+001
      vertex  5.038250e+001 -3.130000e+001  2.356198e+001
      vertex  4.896828e+001 -3.130000e+001  2.297619e+001
    endloop
  endfacet
  facet normal -2.810849e-001 -6.785983e-001 -6.785983e-001
    outer loop
      vertex  4.896828e+001 -3.080000e+001  2.247619e+001
      vertex  4.896828e+001 -3.130000e+001  2.297619e+001
      vertex  4.720052e+001 -3.080000e+001  2.320842e+001
    endloop
  endfacet
  facet normal -2.810850e-001 -6.785989e-001 -6.785977e-001
    outer loop
      vertex  4.720052e+001 -3.080000e+001  2.320842e+001
      vertex  4.896828e+001 -3.130000e+001  2.297619e+001
      vertex  4.755407e+001 -3.130000e+001  2.356198e+001
    endloop
  endfacet
  facet normal -6.785977e-001 -6.785989e-001 -2.810851e-001
    outer loop
      vertex  4.720052e+001 -3.080000e+001  2.320842e+001
      vertex  4.755407e+001 -3.130000e+001  2.356198e+001
      vertex  4.646828e+001 -3.080000e+001  2.497619e+001
    endloop
  endfacet
  facet normal -6.785981e-001 -6.785981e-001 -2.810857e-001
    outer loop
      vertex  4.646828e+001 -3.080000e+001  2.497619e+001
      vertex  4.755407e+001 -3.130000e+001  2.356198e+001
      vertex  4.696828e+001 -3.130000e+001  2.497619e+001
    endloop
  endfacet
  facet normal -6.785982e-001 -6.785982e-001  2.810853e-001
    outer loop
      vertex  4.646828e+001 -3.080000e+001  2.497619e+001
      vertex  4.696828e+001 -3.130000e+001  2.497619e+001
      vertex  4.720052e+001 -3.080000e+001  2.674396e+001
    endloop
  endfacet
  facet normal -6.785974e-001 -6.785989e-001  2.810854e-001
    outer loop
      vertex  4.720052e+001 -3.080000e+001  2.674396e+001
      vertex  4.696828e+001 -3.130000e+001  2.497619e+001
      vertex  4.755407e+001 -3.130000e+001  2.639040e+001
    endloop
  endfacet
  facet normal -2.810847e-001 -6.785988e-001  6.785978e-001
    outer loop
      vertex  4.720052e+001 -3.080000e+001  2.674396e+001
      vertex  4.755407e+001 -3.130000e+001  2.639040e+001
      vertex  4.896828e+001 -3.080000e+001  2.747619e+001
    endloop
  endfacet
  facet normal -2.810852e-001 -6.785982e-001  6.785982e-001
    outer loop
      vertex  4.896828e+001 -3.080000e+001  2.747619e+001
      vertex  4.755407e+001 -3.130000e+001  2.639040e+001
      vertex  4.896828e+001 -3.130000e+001  2.697619e+001
    endloop
  endfacet
  facet normal  2.810844e-001 -6.785984e-001  6.785984e-001
    outer loop
      vertex  4.896828e+001 -3.080000e+001  2.747619e+001
      vertex  4.896828e+001 -3.130000e+001  2.697619e+001
      vertex  5.073605e+001 -3.080000e+001  2.674396e+001
    endloop
  endfacet
  facet normal  2.810844e-001 -6.785986e-001  6.785980e-001
    outer loop
      vertex  5.073605e+001 -3.080000e+001  2.674396e+001
      vertex  4.896828e+001 -3.130000e+001  2.697619e+001
      vertex  5.038250e+001 -3.130000e+001  2.639040e+001
    endloop
  endfacet
  facet normal  6.785984e-001 -6.785986e-001  2.810839e-001
    outer loop
      vertex  5.073605e+001 -3.080000e+001  2.674396e+001
      vertex  5.038250e+001 -3.130000e+001  2.639040e+001
      vertex  5.146828e+001 -3.080000e+001  2.497619e+001
    endloop
  endfacet
  facet normal  6.785985e-001 -6.785985e-001  2.810840e-001
    outer loop
      vertex  5.146828e+001 -3.080000e+001  2.497619e+001
      vertex  5.038250e+001 -3.130000e+001  2.639040e+001
      vertex  5.096828e+001 -3.130000e+001  2.497619e+001
    endloop
  endfacet
  facet normal  0.000000e+000  1.000000e+000  0.000000e+000
    outer loop
      vertex  5.038250e+001 -2.530000e+001  2.639040e+001
      vertex  4.755407e+001 -2.530000e+001  2.639040e+001
      vertex  4.896828e+001 -2.530000e+001  2.697619e+001
    endloop
  endfacet
  facet normal  0.000000e+000  1.000000e+000  0.000000e+000
    outer loop
      vertex  4.755407e+001 -2.530000e+001  2.639040e+001
      vertex  5.038250e+001 -2.530000e+001  2.639040e+001
      vertex  4.696828e+001 -2.530000e+001  2.497619e+001
    endloop
  endfacet
  facet normal  0.000000e+000  9.999999e-001  0.000000e+000
    outer loop
      vertex  4.696828e+001 -2.530000e+001  2.497619e+001
      vertex  5.038250e+001 -2.530000e+001  2.639040e+001
      vertex  5.096828e+001 -2.530000e+001  2.497619e+001
    endloop
  endfacet
  facet normal  0.000000e+000  9.999999e-001  0.000000e+000
    outer loop
      vertex  4.696828e+001 -2.530000e+001  2.497619e+001
      vertex  5.096828e+001 -2.530000e+001  2.497619e+001
      vertex  4.755407e+001 -2.530000e+001  2.356198e+001
    endloop
  endfacet
  facet normal  0.000000e+000  1.000000e+000  0.000000e+000
    outer loop
      vertex  4.755407e+001 -2.530000e+001  2.356198e+001
      vertex  5.096828e+001 -2.530000e+001  2.497619e+001
      vertex  5.038250e+001 -2.530000e+001  2.356198e+001
    endloop
  endfacet
  facet normal  0.000000e+000  1.000000e+000  0.000000e+000
    outer loop
      vertex  4.755407e+001 -2.530000e+001  2.356198e+001
      vertex  5.038250e+001 -2.530000e+001  2.356198e+001
      vertex  4.896828e+001 -2.530000e+001  2.297619e+001
    endloop
  endfacet
  facet normal  2.810843e-001  6.785987e-001 -6.785982e-001
    outer loop
      vertex  4.896828e+001 -2.580000e+001  2.247619e+001
      vertex  5.038250e+001 -2.530000e+001  2.356198e+001
      vertex  5.073605e+001 -2.580000e+001  2.320842e+001
    endloop
  endfacet
  facet normal  6.785983e-001  6.785986e-001 -2.810840e-001
    outer loop
      vertex  5.073605e+001 -2.580000e+001  2.320842e+001
      vertex  5.038250e+001 -2.530000e+001  2.356198e+001
      vertex  5.096828e+001 -2.530000e+001  2.497619e+001
    endloop
  endfacet
  facet normal  6.785985e-001  6.785985e-001 -2.810839e-001
    outer loop
      vertex  5.073605e+001 -2.580000e+001  2.320842e+001
      vertex  5.096828e+001 -2.530000e+001  2.497619e+001
      vertex  5.146828e+001 -2.580000e+001  2.497619e+001
    endloop
  endfacet
  facet normal  2.810845e-001  6.785983e-001 -6.785983e-001
    outer loop
      vertex  5.038250e+001 -2.530000e+001  2.356198e+001
      vertex  4.896828e+001 -2.580000e+001  2.247619e+001
      vertex  4.896828e+001 -2.530000e+001  2.297619e+001
    endloop
  endfacet
  facet normal -2.810849e-001  6.785983e-001 -6.785983e-001
    outer loop
      vertex  4.896828e+001 -2.530000e+001  2.297619e+001
      vertex  4.896828e+001 -2.580000e+001  2.247619e+001
      vertex  4.720052e+001 -2.580000e+001  2.320842e+001
    endloop
  endfacet
  facet normal -2.810850e-001  6.785989e-001 -6.785977e-001
    outer loop
      vertex  4.896828e+001 -2.530000e+001  2.297619e+001
      vertex  4.720052e+001 -2.580000e+001  2.320842e+001
      vertex  4.755407e+001 -2.530000e+001  2.356198e+001
    endloop
  endfacet
  facet normal -6.785977e-001  6.785989e-001 -2.810851e-001
    outer loop
      vertex  4.755407e+001 -2.530000e+001  2.356198e+001
      vertex  4.720052e+001 -2.580000e+001  2.320842e+001
      vertex  4.646828e+001 -2.580000e+001  2.497619e+001
    endloop
  endfacet
  facet normal -6.785981e-001  6.785981e-001 -2.810857e-001
    outer loop
      vertex  4.755407e+001 -2.530000e+001  2.356198e+001
      vertex  4.646828e+001 -2.580000e+001  2.497619e+001
      vertex  4.696828e+001 -2.530000e+001  2.497619e+001
    endloop
  endfacet
  facet normal -2.810847e-001  6.785988e-001  6.785978e-001
    outer loop
      vertex  4.896828e+001 -2.580000e+001  2.747619e+001
      vertex  4.755407e+001 -2.530000e+001  2.639040e+001
      vertex  4.720052e+001 -2.580000e+001  2.674396e+001
    endloop
  endfacet
  facet normal -6.785974e-001  6.785989e-001  2.810854e-001
    outer loop
      vertex  4.720052e+001 -2.580000e+001  2.674396e+001
      vertex  4.755407e+001 -2.530000e+001  2.639040e+001
      vertex  4.696828e+001 -2.530000e+001  2.497619e+001
    endloop
  endfacet
  facet normal -6.785982e-001  6.785982e-001  2.810853e-001
    outer loop
      vertex  4.720052e+001 -2.580000e+001  2.674396e+001
      vertex  4.696828e+001 -2.530000e+001  2.497619e+001
      vertex  4.646828e+001 -2.580000e+001  2.497619e+001
    endloop
  endfacet
  facet normal -2.810852e-001  6.785982e-001  6.785982e-001
    outer loop
      vertex  4.755407e+001 -2.530000e+001  2.639040e+001
      vertex  4.896828e+001 -2.580000e+001  2.747619e+001
      vertex  4.896828e+001 -2.530000e+001  2.697619e+001
    endloop
  endfacet
  facet normal  2.810844e-001  6.785984e-001  6.785984e-001
    outer loop
      vertex  4.896828e+001 -2.530000e+001  2.697619e+001
      vertex  4.896828e+001 -2.580000e+001  2.747619e+001
      vertex  5.073605e+001 -2.580000e+001  2.674396e+001
    endloop
  endfacet
  facet normal  2.810844e-001  6.785986e-001  6.785980e-001
    outer loop
      vertex  4.896828e+001 -2.530000e+001  2.697619e+001
      vertex  5.073605e+001 -2.580000e+001  2.674396e+001
      vertex  5.038250e+001 -2.530000e+001  2.639040e+001
    endloop
  endfacet
  facet normal  6.785984e-001  6.785986e-001  2.810839e-001
    outer loop
      vertex  5.038250e+001 -2.530000e+001  2.639040e+001
      vertex  5.073605e+001 -2.580000e+001  2.674396e+001
      vertex  5.146828e+001 -2.580000e+001  2.497619e+001
    endloop
  endfacet
  facet normal  6.785985e-001  6.785985e-001  2.810840e-001
    outer loop
      vertex  5.038250e+001 -2.530000e+001  2.639040e+001
      vertex  5.146828e+001 -2.580000e+001  2.497619e+001
      vertex  5.096828e+001 -2.530000e+001  2.497619e+001
    endloop
  endfacet
  facet normal  6.295984e-001  3.799237e-001  6.776901e-001
    outer loop
      vertex  4.775734e+001 -2.830000e+001  2.769041e+001
      vertex  4.797559e+001 -2.791294e+001  2.727065e+001
      vertex  4.757695e+001 -2.773431e+001  2.754087e+001
    endloop
  endfacet
  facet normal  2.946153e-001 -9.238787e-001  2.442335e-001
    outer loop
      vertex  4.714145e+001 -2.910000e+001  2.717984e+001
      vertex  4.737275e+001 -2.910000e+001  2.690083e+001
      vertex  4.757695e+001 -2.886568e+001  2.754087e+001
    endloop
  endfacet
  facet normal -2.253101e-001 -8.894972e-001  3.975301e-001
    outer loop
      vertex  4.757695e+001 -2.886568e+001  2.754087e+001
      vertex  4.737275e+001 -2.910000e+001  2.690083e+001
      vertex  4.746985e+001 -2.909039e+001  2.697736e+001
    endloop
  endfacet
  facet normal  3.512160e-001 -8.907521e-001  2.884578e-001
    outer loop
      vertex  4.757695e+001 -2.886568e+001  2.754087e+001
      vertex  4.746985e+001 -2.909039e+001  2.697736e+001
      vertex  4.785149e+001 -2.886365e+001  2.721288e+001
    endloop
  endfacet
  facet normal  7.096192e-001 -3.826833e-001  5.916030e-001
    outer loop
      vertex  4.757695e+001 -2.886568e+001  2.754087e+001
      vertex  4.785149e+001 -2.886365e+001  2.721288e+001
      vertex  4.775734e+001 -2.830000e+001  2.769041e+001
    endloop
  endfacet
  facet normal  6.378430e-001 -4.330419e-001  6.368917e-001
    outer loop
      vertex  4.775734e+001 -2.830000e+001  2.769041e+001
      vertex  4.785149e+001 -2.886365e+001  2.721288e+001
      vertex  4.806502e+001 -2.841026e+001  2.730731e+001
    endloop
  endfacet
  facet normal  7.915294e-001  1.852503e-001  5.823776e-001
    outer loop
      vertex  4.775734e+001 -2.830000e+001  2.769041e+001
      vertex  4.806502e+001 -2.841026e+001  2.730731e+001
      vertex  4.797559e+001 -2.791294e+001  2.727065e+001
    endloop
  endfacet
  facet normal  1.619211e-001  9.776316e-001  1.342312e-001
    outer loop
      vertex  4.737275e+001 -2.750000e+001  2.690083e+001
      vertex  4.714145e+001 -2.750000e+001  2.717984e+001
      vertex  4.763990e+001 -2.757078e+001  2.709407e+001
    endloop
  endfacet
  facet normal  1.917200e-001  9.126278e-001  3.610458e-001
    outer loop
      vertex  4.763990e+001 -2.757078e+001  2.709407e+001
      vertex  4.714145e+001 -2.750000e+001  2.717984e+001
      vertex  4.757695e+001 -2.773431e+001  2.754087e+001
    endloop
  endfacet
  facet normal  5.709177e-001  7.417524e-001  3.519322e-001
    outer loop
      vertex  4.763990e+001 -2.757078e+001  2.709407e+001
      vertex  4.757695e+001 -2.773431e+001  2.754087e+001
      vertex  4.797559e+001 -2.791294e+001  2.727065e+001
    endloop
  endfacet
  facet normal -7.826539e-001 -3.799218e-001 -4.930642e-001
    outer loop
      vertex  4.652557e+001 -2.830000e+001  2.666927e+001
      vertex  4.689759e+001 -2.868706e+001  2.637698e+001
      vertex  4.670596e+001 -2.886568e+001  2.681881e+001
    endloop
  endfacet
  facet normal -2.946127e-001  9.238801e-001 -2.442313e-001
    outer loop
      vertex  4.714145e+001 -2.750000e+001  2.717984e+001
      vertex  4.737275e+001 -2.750000e+001  2.690083e+001
      vertex  4.670596e+001 -2.773431e+001  2.681881e+001
    endloop
  endfacet
  facet normal -3.488757e-001  8.895004e-001  2.950843e-001
    outer loop
      vertex  4.670596e+001 -2.773431e+001  2.681881e+001
      vertex  4.737275e+001 -2.750000e+001  2.690083e+001
      vertex  4.727954e+001 -2.750961e+001  2.681960e+001
    endloop
  endfacet
  facet normal -3.485585e-001  8.907526e-001 -2.916622e-001
    outer loop
      vertex  4.670596e+001 -2.773431e+001  2.681881e+001
      vertex  4.727954e+001 -2.750961e+001  2.681960e+001
      vertex  4.697737e+001 -2.773635e+001  2.648823e+001
    endloop
  endfacet
  facet normal -7.128878e-001  3.826816e-001 -5.876612e-001
    outer loop
      vertex  4.670596e+001 -2.773431e+001  2.681881e+001
      vertex  4.697737e+001 -2.773635e+001  2.648823e+001
      vertex  4.652557e+001 -2.830000e+001  2.666927e+001
    endloop
  endfacet
  facet normal -7.440877e-001  4.330412e-001 -5.087327e-001
    outer loop
      vertex  4.652557e+001 -2.830000e+001  2.666927e+001
      vertex  4.697737e+001 -2.773635e+001  2.648823e+001
      vertex  4.684500e+001 -2.818974e+001  2.629591e+001
    endloop
  endfacet
  facet normal -7.190088e-001 -1.852459e-001 -6.698583e-001
    outer loop
      vertex  4.652557e+001 -2.830000e+001  2.666927e+001
      vertex  4.684500e+001 -2.818974e+001  2.629591e+001
      vertex  4.689759e+001 -2.868706e+001  2.637698e+001
    endloop
  endfacet
  facet normal -1.619233e-001 -9.776310e-001 -1.342330e-001
    outer loop
      vertex  4.737275e+001 -2.910000e+001  2.690083e+001
      vertex  4.714145e+001 -2.910000e+001  2.717984e+001
      vertex  4.713334e+001 -2.902922e+001  2.667413e+001
    endloop
  endfacet
  facet normal -3.903302e-001 -9.126263e-001 -1.214720e-001
    outer loop
      vertex  4.713334e+001 -2.902922e+001  2.667413e+001
      vertex  4.714145e+001 -2.910000e+001  2.717984e+001
      vertex  4.670596e+001 -2.886568e+001  2.681881e+001
    endloop
  endfacet
  facet normal -4.516622e-001 -7.417532e-001 -4.957859e-001
    outer loop
      vertex  4.713334e+001 -2.902922e+001  2.667413e+001
      vertex  4.670596e+001 -2.886568e+001  2.681881e+001
      vertex  4.689759e+001 -2.868706e+001  2.637698e+001
    endloop
  endfacet
  facet normal  1.600352e-001 -9.214877e-001 -3.539056e-001
    outer loop
      vertex  3.925518e+001 -2.910000e+001  2.824198e+001
      vertex  3.957965e+001 -2.886568e+001  2.777859e+001
      vertex  4.136906e+001 -2.886568e+001  2.858776e+001
    endloop
  endfacet
  facet normal  1.707900e-001 -8.764604e-001 -4.501643e-001
    outer loop
      vertex  3.925518e+001 -2.910000e+001  2.824198e+001
      vertex  4.136906e+001 -2.886568e+001  2.858776e+001
      vertex  4.195229e+001 -2.910000e+001  2.926525e+001
    endloop
  endfacet
  facet normal  1.707889e-001  8.764620e-001 -4.501615e-001
    outer loop
      vertex  3.925518e+001 -2.750000e+001  2.824198e+001
      vertex  4.195229e+001 -2.750000e+001  2.926525e+001
      vertex  4.136906e+001 -2.773431e+001  2.858776e+001
    endloop
  endfacet
  facet normal -2.838002e-001  8.764622e-001 -3.889361e-001
    outer loop
      vertex  4.714145e+001 -2.750000e+001  2.717984e+001
      vertex  4.519438e+001 -2.773431e+001  2.807256e+001
      vertex  4.481117e+001 -2.750000e+001  2.888021e+001
    endloop
  endfacet
  facet normal -2.838020e-001 -8.764606e-001 -3.889385e-001
    outer loop
      vertex  4.714145e+001 -2.910000e+001  2.717984e+001
      vertex  4.481117e+001 -2.910000e+001  2.888021e+001
      vertex  4.519438e+001 -2.886568e+001  2.807256e+001
    endloop
  endfacet
  facet normal -2.479636e-001 -9.214880e-001 -2.989548e-001
    outer loop
      vertex  4.714145e+001 -2.910000e+001  2.717984e+001
      vertex  4.519438e+001 -2.886568e+001  2.807256e+001
      vertex  4.670596e+001 -2.886568e+001  2.681881e+001
    endloop
  endfacet
  facet normal -6.929740e-002  8.546701e-001 -5.145258e-001
    outer loop
      vertex  4.481117e+001 -2.750000e+001  2.888021e+001
      vertex  4.333024e+001 -2.773431e+001  2.869044e+001
      vertex  4.195229e+001 -2.750000e+001  2.926525e+001
    endloop
  endfacet
  facet normal -6.929781e-002 -8.546683e-001 -5.145289e-001
    outer loop
      vertex  4.333024e+001 -2.886568e+001  2.869044e+001
      vertex  4.481117e+001 -2.910000e+001  2.888021e+001
      vertex  4.195229e+001 -2.910000e+001  2.926525e+001
    endloop
  endfacet
  facet normal  1.782663e-002 -9.400806e-001 -3.404861e-001
    outer loop
      vertex  4.333024e+001 -2.886568e+001  2.869044e+001
      vertex  4.195229e+001 -2.910000e+001  2.926525e+001
      vertex  4.136906e+001 -2.886568e+001  2.858776e+001
    endloop
  endfacet
  facet normal -1.072720e-001 -9.400807e-001 -3.236372e-001
    outer loop
      vertex  4.519438e+001 -2.886568e+001  2.807256e+001
      vertex  4.481117e+001 -2.910000e+001  2.888021e+001
      vertex  4.333024e+001 -2.886568e+001  2.869044e+001
    endloop
  endfacet
  facet normal -5.913014e-001 -3.770160e-001 -7.128966e-001
    outer loop
      vertex  4.670596e+001 -2.886568e+001  2.681881e+001
      vertex  4.519438e+001 -2.886568e+001  2.807256e+001
      vertex  4.652557e+001 -2.830000e+001  2.666927e+001
    endloop
  endfacet
  facet normal -5.913005e-001 -3.770176e-001 -7.128964e-001
    outer loop
      vertex  4.652557e+001 -2.830000e+001  2.666927e+001
      vertex  4.519438e+001 -2.886568e+001  2.807256e+001
      vertex  4.508076e+001 -2.830000e+001  2.786764e+001
    endloop
  endfacet
  facet normal -5.913010e-001  3.770159e-001 -7.128969e-001
    outer loop
      vertex  4.652557e+001 -2.830000e+001  2.666927e+001
      vertex  4.508076e+001 -2.830000e+001  2.786764e+001
      vertex  4.670596e+001 -2.773431e+001  2.681881e+001
    endloop
  endfacet
  facet normal -5.913010e-001  3.770176e-001 -7.128960e-001
    outer loop
      vertex  4.670596e+001 -2.773431e+001  2.681881e+001
      vertex  4.508076e+001 -2.830000e+001  2.786764e+001
      vertex  4.519438e+001 -2.773431e+001  2.807256e+001
    endloop
  endfacet
  facet normal -2.479618e-001  9.214891e-001 -2.989527e-001
    outer loop
      vertex  4.670596e+001 -2.773431e+001  2.681881e+001
      vertex  4.519438e+001 -2.773431e+001  2.807256e+001
      vertex  4.714145e+001 -2.750000e+001  2.717984e+001
    endloop
  endfacet
  facet normal  3.816239e-001 -3.770172e-001 -8.439321e-001
    outer loop
      vertex  4.136906e+001 -2.886568e+001  2.858776e+001
      vertex  3.957965e+001 -2.886568e+001  2.777859e+001
      vertex  4.142442e+001 -2.830000e+001  2.836008e+001
    endloop
  endfacet
  facet normal  3.816239e-001 -3.770171e-001 -8.439322e-001
    outer loop
      vertex  4.142442e+001 -2.830000e+001  2.836008e+001
      vertex  3.957965e+001 -2.886568e+001  2.777859e+001
      vertex  3.971405e+001 -2.830000e+001  2.758666e+001
    endloop
  endfacet
  facet normal  3.816238e-001  3.770171e-001 -8.439320e-001
    outer loop
      vertex  4.142442e+001 -2.830000e+001  2.836008e+001
      vertex  3.971405e+001 -2.830000e+001  2.758666e+001
      vertex  4.136906e+001 -2.773431e+001  2.858776e+001
    endloop
  endfacet
  facet normal  3.816239e-001  3.770171e-001 -8.439322e-001
    outer loop
      vertex  4.136906e+001 -2.773431e+001  2.858776e+001
      vertex  3.971405e+001 -2.830000e+001  2.758666e+001
      vertex  3.957965e+001 -2.773431e+001  2.777859e+001
    endloop
  endfacet
  facet normal  1.600341e-001  9.214889e-001 -3.539031e-001
    outer loop
      vertex  4.136906e+001 -2.773431e+001  2.858776e+001
      vertex  3.957965e+001 -2.773431e+001  2.777859e+001
      vertex  3.925518e+001 -2.750000e+001  2.824198e+001
    endloop
  endfacet
  facet normal  4.842650e-002 -3.770170e-001 -9.249395e-001
    outer loop
      vertex  4.333024e+001 -2.886568e+001  2.869044e+001
      vertex  4.136906e+001 -2.886568e+001  2.858776e+001
      vertex  4.329897e+001 -2.830000e+001  2.845823e+001
    endloop
  endfacet
  facet normal  4.842643e-002 -3.770168e-001 -9.249396e-001
    outer loop
      vertex  4.329897e+001 -2.830000e+001  2.845823e+001
      vertex  4.136906e+001 -2.886568e+001  2.858776e+001
      vertex  4.142442e+001 -2.830000e+001  2.836008e+001
    endloop
  endfacet
  facet normal  4.842643e-002  3.770170e-001 -9.249395e-001
    outer loop
      vertex  4.329897e+001 -2.830000e+001  2.845823e+001
      vertex  4.142442e+001 -2.830000e+001  2.836008e+001
      vertex  4.333024e+001 -2.773431e+001  2.869044e+001
    endloop
  endfacet
  facet normal  4.842651e-002  3.770168e-001 -9.249396e-001
    outer loop
      vertex  4.333024e+001 -2.773431e+001  2.869044e+001
      vertex  4.142442e+001 -2.830000e+001  2.836008e+001
      vertex  4.136906e+001 -2.773431e+001  2.858776e+001
    endloop
  endfacet
  facet normal  1.782650e-002  9.400814e-001 -3.404836e-001
    outer loop
      vertex  4.333024e+001 -2.773431e+001  2.869044e+001
      vertex  4.136906e+001 -2.773431e+001  2.858776e+001
      vertex  4.195229e+001 -2.750000e+001  2.926525e+001
    endloop
  endfacet
  facet normal -2.914075e-001 -3.770165e-001 -8.791701e-001
    outer loop
      vertex  4.519438e+001 -2.886568e+001  2.807256e+001
      vertex  4.333024e+001 -2.886568e+001  2.869044e+001
      vertex  4.508076e+001 -2.830000e+001  2.786764e+001
    endloop
  endfacet
  facet normal -2.914080e-001 -3.770156e-001 -8.791704e-001
    outer loop
      vertex  4.508076e+001 -2.830000e+001  2.786764e+001
      vertex  4.333024e+001 -2.886568e+001  2.869044e+001
      vertex  4.329897e+001 -2.830000e+001  2.845823e+001
    endloop
  endfacet
  facet normal -2.914079e-001  3.770165e-001 -8.791701e-001
    outer loop
      vertex  4.508076e+001 -2.830000e+001  2.786764e+001
      vertex  4.329897e+001 -2.830000e+001  2.845823e+001
      vertex  4.519438e+001 -2.773431e+001  2.807256e+001
    endloop
  endfacet
  facet normal -2.914076e-001  3.770156e-001 -8.791705e-001
    outer loop
      vertex  4.519438e+001 -2.773431e+001  2.807256e+001
      vertex  4.329897e+001 -2.830000e+001  2.845823e+001
      vertex  4.333024e+001 -2.773431e+001  2.869044e+001
    endloop
  endfacet
  facet normal -1.072712e-001  9.400816e-001 -3.236349e-001
    outer loop
      vertex  4.519438e+001 -2.773431e+001  2.807256e+001
      vertex  4.333024e+001 -2.773431e+001  2.869044e+001
      vertex  4.481117e+001 -2.750000e+001  2.888021e+001
    endloop
  endfacet
  facet normal -1.600343e-001  9.214888e-001  3.539029e-001
    outer loop
      vertex  3.925518e+001 -2.750000e+001  2.824198e+001
      vertex  3.893072e+001 -2.773431e+001  2.870536e+001
      vertex  4.110179e+001 -2.773431e+001  2.968711e+001
    endloop
  endfacet
  facet normal -1.131603e-001  9.477513e-001  2.982652e-001
    outer loop
      vertex  3.925518e+001 -2.750000e+001  2.824198e+001
      vertex  4.110179e+001 -2.773431e+001  2.968711e+001
      vertex  4.195229e+001 -2.750000e+001  2.926525e+001
    endloop
  endfacet
  facet normal -1.131611e-001 -9.477506e-001  2.982674e-001
    outer loop
      vertex  3.925518e+001 -2.910000e+001  2.824198e+001
      vertex  4.195229e+001 -2.910000e+001  2.926525e+001
      vertex  4.110179e+001 -2.886568e+001  2.968711e+001
    endloop
  endfacet
  facet normal  1.880406e-001 -9.477502e-001  2.577016e-001
    outer loop
      vertex  4.714145e+001 -2.910000e+001  2.717984e+001
      vertex  4.574298e+001 -2.886568e+001  2.906203e+001
      vertex  4.481117e+001 -2.910000e+001  2.888021e+001
    endloop
  endfacet
  facet normal  1.880393e-001  9.477510e-001  2.576998e-001
    outer loop
      vertex  4.714145e+001 -2.750000e+001  2.717984e+001
      vertex  4.481117e+001 -2.750000e+001  2.888021e+001
      vertex  4.574298e+001 -2.773431e+001  2.906203e+001
    endloop
  endfacet
  facet normal  2.479623e-001  9.214888e-001  2.989535e-001
    outer loop
      vertex  4.714145e+001 -2.750000e+001  2.717984e+001
      vertex  4.574298e+001 -2.773431e+001  2.906203e+001
      vertex  4.757695e+001 -2.773431e+001  2.754087e+001
    endloop
  endfacet
  facet normal  4.001558e-002 -9.540039e-001  2.971114e-001
    outer loop
      vertex  4.481117e+001 -2.910000e+001  2.888021e+001
      vertex  4.348125e+001 -2.886568e+001  2.981169e+001
      vertex  4.195229e+001 -2.910000e+001  2.926525e+001
    endloop
  endfacet
  facet normal  4.001528e-002  9.540046e-001  2.971092e-001
    outer loop
      vertex  4.348125e+001 -2.773431e+001  2.981169e+001
      vertex  4.481117e+001 -2.750000e+001  2.888021e+001
      vertex  4.195229e+001 -2.750000e+001  2.926525e+001
    endloop
  endfacet
  facet normal -2.349750e-002  8.933239e-001  4.487988e-001
    outer loop
      vertex  4.348125e+001 -2.773431e+001  2.981169e+001
      vertex  4.195229e+001 -2.750000e+001  2.926525e+001
      vertex  4.110179e+001 -2.773431e+001  2.968711e+001
    endloop
  endfacet
  facet normal  1.413971e-001  8.933234e-001  4.265913e-001
    outer loop
      vertex  4.574298e+001 -2.773431e+001  2.906203e+001
      vertex  4.481117e+001 -2.750000e+001  2.888021e+001
      vertex  4.348125e+001 -2.773431e+001  2.981169e+001
    endloop
  endfacet
  facet normal  5.913006e-001  3.770180e-001  7.128962e-001
    outer loop
      vertex  4.757695e+001 -2.773431e+001  2.754087e+001
      vertex  4.574298e+001 -2.773431e+001  2.906203e+001
      vertex  4.775734e+001 -2.830000e+001  2.769041e+001
    endloop
  endfacet
  facet normal  5.913008e-001  3.770143e-001  7.128980e-001
    outer loop
      vertex  4.775734e+001 -2.830000e+001  2.769041e+001
      vertex  4.574298e+001 -2.773431e+001  2.906203e+001
      vertex  4.585659e+001 -2.830000e+001  2.926695e+001
    endloop
  endfacet
  facet normal  5.912998e-001 -3.770179e-001  7.128969e-001
    outer loop
      vertex  4.775734e+001 -2.830000e+001  2.769041e+001
      vertex  4.585659e+001 -2.830000e+001  2.926695e+001
      vertex  4.757695e+001 -2.886568e+001  2.754087e+001
    endloop
  endfacet
  facet normal  5.913016e-001 -3.770142e-001  7.128974e-001
    outer loop
      vertex  4.757695e+001 -2.886568e+001  2.754087e+001
      vertex  4.585659e+001 -2.830000e+001  2.926695e+001
      vertex  4.574298e+001 -2.886568e+001  2.906203e+001
    endloop
  endfacet
  facet normal  2.479640e-001 -9.214876e-001  2.989555e-001
    outer loop
      vertex  4.757695e+001 -2.886568e+001  2.754087e+001
      vertex  4.574298e+001 -2.886568e+001  2.906203e+001
      vertex  4.714145e+001 -2.910000e+001  2.717984e+001
    endloop
  endfacet
  facet normal -3.816248e-001  3.770149e-001  8.439326e-001
    outer loop
      vertex  4.110179e+001 -2.773431e+001  2.968711e+001
      vertex  3.893072e+001 -2.773431e+001  2.870536e+001
      vertex  4.104644e+001 -2.830000e+001  2.991479e+001
    endloop
  endfacet
  facet normal -3.816240e-001  3.770171e-001  8.439320e-001
    outer loop
      vertex  4.104644e+001 -2.830000e+001  2.991479e+001
      vertex  3.893072e+001 -2.773431e+001  2.870536e+001
      vertex  3.879632e+001 -2.830000e+001  2.889730e+001
    endloop
  endfacet
  facet normal -3.816243e-001 -3.770150e-001  8.439329e-001
    outer loop
      vertex  4.104644e+001 -2.830000e+001  2.991479e+001
      vertex  3.879632e+001 -2.830000e+001  2.889730e+001
      vertex  4.110179e+001 -2.886568e+001  2.968711e+001
    endloop
  endfacet
  facet normal -3.816245e-001 -3.770171e-001  8.439318e-001
    outer loop
      vertex  4.110179e+001 -2.886568e+001  2.968711e+001
      vertex  3.879632e+001 -2.830000e+001  2.889730e+001
      vertex  3.893072e+001 -2.886568e+001  2.870536e+001
    endloop
  endfacet
  facet normal -1.600354e-001 -9.214877e-001  3.539054e-001
    outer loop
      vertex  4.110179e+001 -2.886568e+001  2.968711e+001
      vertex  3.893072e+001 -2.886568e+001  2.870536e+001
      vertex  3.925518e+001 -2.910000e+001  2.824198e+001
    endloop
  endfacet
  facet normal -4.842653e-002  3.770168e-001  9.249396e-001
    outer loop
      vertex  4.348125e+001 -2.773431e+001  2.981169e+001
      vertex  4.110179e+001 -2.773431e+001  2.968711e+001
      vertex  4.351253e+001 -2.830000e+001  3.004391e+001
    endloop
  endfacet
  facet normal -4.842659e-002  3.770165e-001  9.249397e-001
    outer loop
      vertex  4.351253e+001 -2.830000e+001  3.004391e+001
      vertex  4.110179e+001 -2.773431e+001  2.968711e+001
      vertex  4.104644e+001 -2.830000e+001  2.991479e+001
    endloop
  endfacet
  facet normal -4.842659e-002 -3.770167e-001  9.249396e-001
    outer loop
      vertex  4.351253e+001 -2.830000e+001  3.004391e+001
      vertex  4.104644e+001 -2.830000e+001  2.991479e+001
      vertex  4.348125e+001 -2.886568e+001  2.981169e+001
    endloop
  endfacet
  facet normal -4.842654e-002 -3.770165e-001  9.249397e-001
    outer loop
      vertex  4.348125e+001 -2.886568e+001  2.981169e+001
      vertex  4.104644e+001 -2.830000e+001  2.991479e+001
      vertex  4.110179e+001 -2.886568e+001  2.968711e+001
    endloop
  endfacet
  facet normal -2.349765e-002 -8.933223e-001  4.488017e-001
    outer loop
      vertex  4.348125e+001 -2.886568e+001  2.981169e+001
      vertex  4.110179e+001 -2.886568e+001  2.968711e+001
      vertex  4.195229e+001 -2.910000e+001  2.926525e+001
    endloop
  endfacet
  facet normal  2.914082e-001  3.770149e-001  8.791707e-001
    outer loop
      vertex  4.574298e+001 -2.773431e+001  2.906203e+001
      vertex  4.348125e+001 -2.773431e+001  2.981169e+001
      vertex  4.585659e+001 -2.830000e+001  2.926695e+001
    endloop
  endfacet
  facet normal  2.914085e-001  3.770173e-001  8.791695e-001
    outer loop
      vertex  4.585659e+001 -2.830000e+001  2.926695e+001
      vertex  4.348125e+001 -2.773431e+001  2.981169e+001
      vertex  4.351253e+001 -2.830000e+001  3.004391e+001
    endloop
  endfacet
  facet normal  2.914088e-001 -3.770149e-001  8.791705e-001
    outer loop
      vertex  4.585659e+001 -2.830000e+001  2.926695e+001
      vertex  4.351253e+001 -2.830000e+001  3.004391e+001
      vertex  4.574298e+001 -2.886568e+001  2.906203e+001
    endloop
  endfacet
  facet normal  2.914079e-001 -3.770173e-001  8.791698e-001
    outer loop
      vertex  4.574298e+001 -2.886568e+001  2.906203e+001
      vertex  4.351253e+001 -2.830000e+001  3.004391e+001
      vertex  4.348125e+001 -2.886568e+001  2.981169e+001
    endloop
  endfacet
  facet normal  1.413981e-001 -8.933219e-001  4.265941e-001
    outer loop
      vertex  4.574298e+001 -2.886568e+001  2.906203e+001
      vertex  4.348125e+001 -2.886568e+001  2.981169e+001
      vertex  4.481117e+001 -2.910000e+001  2.888021e+001
    endloop
  endfacet
  facet normal -8.191512e-001  -0.000000e+000 -5.735778e-001
    outer loop
      vertex -9.817836e+000 -2.830000e+001 -5.142701e+000
      vertex -9.683438e+000 -2.773431e+001 -5.334640e+000
      vertex -9.683438e+000 -2.886568e+001 -5.334640e+000
    endloop
  endfacet
  facet normal -8.191518e-001  0.000000e+000 -5.735768e-001
    outer loop
      vertex -8.900113e+000 -2.830000e+001 -6.453344e+000
      vertex -9.034511e+000 -2.886568e+001 -6.261405e+000
      vertex -9.034511e+000 -2.773431e+001 -6.261405e+000
    endloop
  endfacet
  facet normal -8.191519e-001  -0.000000e+000 -5.735766e-001
    outer loop
      vertex -9.034511e+000 -2.773431e+001 -6.261405e+000
      vertex -9.034511e+000 -2.886568e+001 -6.261405e+000
      vertex -9.358974e+000 -2.910000e+001 -5.798023e+000
    endloop
  endfacet
  facet normal -8.191520e-001  0.000000e+000 -5.735766e-001
    outer loop
      vertex -9.034511e+000 -2.773431e+001 -6.261405e+000
      vertex -9.358974e+000 -2.910000e+001 -5.798023e+000
      vertex -9.358974e+000 -2.750000e+001 -5.798023e+000
    endloop
  endfacet
  facet normal -8.191522e-001  -0.000000e+000 -5.735762e-001
    outer loop
      vertex -9.358974e+000 -2.750000e+001 -5.798023e+000
      vertex -9.358974e+000 -2.910000e+001 -5.798023e+000
      vertex -9.683438e+000 -2.886568e+001 -5.334640e+000
    endloop
  endfacet
  facet normal -8.191523e-001  0.000000e+000 -5.735762e-001
    outer loop
      vertex -9.358974e+000 -2.750000e+001 -5.798023e+000
      vertex -9.683438e+000 -2.886568e+001 -5.334640e+000
      vertex -9.683438e+000 -2.773431e+001 -5.334640e+000
    endloop
  endfacet
  facet normal  2.194978e-001  9.238798e-001 -3.134753e-001
    outer loop
      vertex -9.358974e+000 -2.750000e+001 -5.798023e+000
      vertex  3.925518e+001 -2.750000e+001  2.824198e+001
      vertex -9.034511e+000 -2.773431e+001 -6.261405e+000
    endloop
  endfacet
  facet normal  2.194978e-001  9.238798e-001 -3.134753e-001
    outer loop
      vertex -9.034511e+000 -2.773431e+001 -6.261405e+000
      vertex  3.925518e+001 -2.750000e+001  2.824198e+001
      vertex  3.957965e+001 -2.773431e+001  2.777859e+001
    endloop
  endfacet
  facet normal  5.299149e-001  3.826864e-001 -7.567968e-001
    outer loop
      vertex -9.034511e+000 -2.773431e+001 -6.261405e+000
      vertex  3.957965e+001 -2.773431e+001  2.777859e+001
      vertex -8.900113e+000 -2.830000e+001 -6.453344e+000
    endloop
  endfacet
  facet normal  5.299149e-001  3.826864e-001 -7.567968e-001
    outer loop
      vertex -8.900113e+000 -2.830000e+001 -6.453344e+000
      vertex  3.957965e+001 -2.773431e+001  2.777859e+001
      vertex  3.971405e+001 -2.830000e+001  2.758666e+001
    endloop
  endfacet
  facet normal  5.299149e-001 -3.826864e-001 -7.567968e-001
    outer loop
      vertex -8.900113e+000 -2.830000e+001 -6.453344e+000
      vertex  3.971405e+001 -2.830000e+001  2.758666e+001
      vertex -9.034511e+000 -2.886568e+001 -6.261405e+000
    endloop
  endfacet
  facet normal  5.299149e-001 -3.826864e-001 -7.567968e-001
    outer loop
      vertex -9.034511e+000 -2.886568e+001 -6.261405e+000
      vertex  3.971405e+001 -2.830000e+001  2.758666e+001
      vertex  3.957965e+001 -2.886568e+001  2.777859e+001
    endloop
  endfacet
  facet normal  2.194993e-001 -9.238787e-001 -3.134775e-001
    outer loop
      vertex -9.034511e+000 -2.886568e+001 -6.261405e+000
      vertex  3.957965e+001 -2.886568e+001  2.777859e+001
      vertex -9.358974e+000 -2.910000e+001 -5.798023e+000
    endloop
  endfacet
  facet normal  2.194993e-001 -9.238787e-001 -3.134775e-001
    outer loop
      vertex -9.358974e+000 -2.910000e+001 -5.798023e+000
      vertex  3.957965e+001 -2.886568e+001  2.777859e+001
      vertex  3.925518e+001 -2.910000e+001  2.824198e+001
    endloop
  endfacet
  facet normal -2.194993e-001 -9.238787e-001  3.134775e-001
    outer loop
      vertex -9.358974e+000 -2.910000e+001 -5.798023e+000
      vertex  3.925518e+001 -2.910000e+001  2.824198e+001
      vertex -9.683438e+000 -2.886568e+001 -5.334640e+000
    endloop
  endfacet
  facet normal -2.194993e-001 -9.238787e-001  3.134775e-001
    outer loop
      vertex -9.683438e+000 -2.886568e+001 -5.334640e+000
      vertex  3.925518e+001 -2.910000e+001  2.824198e+001
      vertex  3.893072e+001 -2.886568e+001  2.870536e+001
    endloop
  endfacet
  facet normal -5.299149e-001 -3.826864e-001  7.567968e-001
    outer loop
      vertex -9.683438e+000 -2.886568e+001 -5.334640e+000
      vertex  3.893072e+001 -2.886568e+001  2.870536e+001
      vertex -9.817836e+000 -2.830000e+001 -5.142701e+000
    endloop
  endfacet
  facet normal -5.299149e-001 -3.826864e-001  7.567968e-001
    outer loop
      vertex -9.817836e+000 -2.830000e+001 -5.142701e+000
      vertex  3.893072e+001 -2.886568e+001  2.870536e+001
      vertex  3.879632e+001 -2.830000e+001  2.889730e+001
    endloop
  endfacet
  facet normal -5.299159e-001  3.826820e-001  7.567982e-001
    outer loop
      vertex -9.817836e+000 -2.830000e+001 -5.142701e+000
      vertex  3.879632e+001 -2.830000e+001  2.889730e+001
      vertex -9.683438e+000 -2.773431e+001 -5.334640e+000
    endloop
  endfacet
  facet normal -5.299159e-001  3.826820e-001  7.567982e-001
    outer loop
      vertex -9.683438e+000 -2.773431e+001 -5.334640e+000
      vertex  3.879632e+001 -2.830000e+001  2.889730e+001
      vertex  3.893072e+001 -2.773431e+001  2.870536e+001
    endloop
  endfacet
  facet normal -2.194978e-001  9.238798e-001  3.134753e-001
    outer loop
      vertex -9.683438e+000 -2.773431e+001 -5.334640e+000
      vertex  3.893072e+001 -2.773431e+001  2.870536e+001
      vertex -9.358974e+000 -2.750000e+001 -5.798023e+000
    endloop
  endfacet
  facet normal -2.194978e-001  9.238798e-001  3.134753e-001
    outer loop
      vertex -9.358974e+000 -2.750000e+001 -5.798023e+000
      vertex  3.893072e+001 -2.773431e+001  2.870536e+001
      vertex  3.925518e+001 -2.750000e+001  2.824198e+001
    endloop
  endfacet
endsolid CATIA STL
