solid CATIA STL
  facet normal  0.000000e+000 -9.238795e-001 -3.826835e-001
    outer loop
      vertex -2.000000e+000 -1.951220e+000 -4.778951e-016
      vertex -1.130000e+001 -1.951220e+000 -4.778951e-016
      vertex -2.000000e+000 -1.379721e+000 -1.379721e+000
    endloop
  endfacet
  facet normal  -0.000000e+000 -9.238795e-001 -3.826835e-001
    outer loop
      vertex -2.000000e+000 -1.379721e+000 -1.379721e+000
      vertex -1.130000e+001 -1.951220e+000 -4.778951e-016
      vertex -1.130000e+001 -1.379721e+000 -1.379721e+000
    endloop
  endfacet
  facet normal  0.000000e+000 -3.826835e-001 -9.238795e-001
    outer loop
      vertex -2.000000e+000 -1.379721e+000 -1.379721e+000
      vertex -1.130000e+001 -1.379721e+000 -1.379721e+000
      vertex -2.000000e+000  3.584214e-016 -1.951220e+000
    endloop
  endfacet
  facet normal  -0.000000e+000 -3.826835e-001 -9.238795e-001
    outer loop
      vertex -2.000000e+000  3.584214e-016 -1.951220e+000
      vertex -1.130000e+001 -1.379721e+000 -1.379721e+000
      vertex -1.130000e+001  3.584214e-016 -1.951220e+000
    endloop
  endfacet
  facet normal  0.000000e+000  3.826835e-001 -9.238795e-001
    outer loop
      vertex -2.000000e+000  3.584214e-016 -1.951220e+000
      vertex -1.130000e+001  3.584214e-016 -1.951220e+000
      vertex -2.000000e+000  1.379721e+000 -1.379721e+000
    endloop
  endfacet
  facet normal  0.000000e+000  3.826835e-001 -9.238795e-001
    outer loop
      vertex -2.000000e+000  1.379721e+000 -1.379721e+000
      vertex -1.130000e+001  3.584214e-016 -1.951220e+000
      vertex -1.130000e+001  1.379721e+000 -1.379721e+000
    endloop
  endfacet
  facet normal  0.000000e+000  9.238795e-001 -3.826835e-001
    outer loop
      vertex -2.000000e+000  1.379721e+000 -1.379721e+000
      vertex -1.130000e+001  1.379721e+000 -1.379721e+000
      vertex -2.000000e+000  1.951220e+000  2.389476e-016
    endloop
  endfacet
  facet normal  0.000000e+000  9.238795e-001 -3.826835e-001
    outer loop
      vertex -2.000000e+000  1.951220e+000  2.389476e-016
      vertex -1.130000e+001  1.379721e+000 -1.379721e+000
      vertex -1.130000e+001  1.951220e+000  2.389476e-016
    endloop
  endfacet
  facet normal  -0.000000e+000  9.238795e-001  3.826835e-001
    outer loop
      vertex -2.000000e+000  1.951220e+000  2.389476e-016
      vertex -1.130000e+001  1.951220e+000  2.389476e-016
      vertex -2.000000e+000  1.379721e+000  1.379721e+000
    endloop
  endfacet
  facet normal  0.000000e+000  9.238795e-001  3.826835e-001
    outer loop
      vertex -2.000000e+000  1.379721e+000  1.379721e+000
      vertex -1.130000e+001  1.951220e+000  2.389476e-016
      vertex -1.130000e+001  1.379721e+000  1.379721e+000
    endloop
  endfacet
  facet normal  -0.000000e+000  3.826835e-001  9.238795e-001
    outer loop
      vertex -2.000000e+000  1.379721e+000  1.379721e+000
      vertex -1.130000e+001  1.379721e+000  1.379721e+000
      vertex -2.000000e+000 -1.194738e-016  1.951220e+000
    endloop
  endfacet
  facet normal  0.000000e+000  3.826835e-001  9.238795e-001
    outer loop
      vertex -2.000000e+000 -1.194738e-016  1.951220e+000
      vertex -1.130000e+001  1.379721e+000  1.379721e+000
      vertex -1.130000e+001 -1.194738e-016  1.951220e+000
    endloop
  endfacet
  facet normal  0.000000e+000 -3.826835e-001  9.238795e-001
    outer loop
      vertex -2.000000e+000 -1.194738e-016  1.951220e+000
      vertex -1.130000e+001 -1.194738e-016  1.951220e+000
      vertex -2.000000e+000 -1.379721e+000  1.379721e+000
    endloop
  endfacet
  facet normal  0.000000e+000 -3.826835e-001  9.238795e-001
    outer loop
      vertex -2.000000e+000 -1.379721e+000  1.379721e+000
      vertex -1.130000e+001 -1.194738e-016  1.951220e+000
      vertex -1.130000e+001 -1.379721e+000  1.379721e+000
    endloop
  endfacet
  facet normal  0.000000e+000 -9.238795e-001  3.826835e-001
    outer loop
      vertex -2.000000e+000 -1.379721e+000  1.379721e+000
      vertex -1.130000e+001 -1.379721e+000  1.379721e+000
      vertex -2.000000e+000 -1.951220e+000 -4.778951e-016
    endloop
  endfacet
  facet normal  0.000000e+000 -9.238795e-001  3.826835e-001
    outer loop
      vertex -2.000000e+000 -1.951220e+000 -4.778951e-016
      vertex -1.130000e+001 -1.379721e+000  1.379721e+000
      vertex -1.130000e+001 -1.951220e+000 -4.778951e-016
    endloop
  endfacet
  facet normal  -0.000000e+000  9.238795e-001  3.826835e-001
    outer loop
      vertex -2.000000e-001  2.000000e+000  2.449213e-016
      vertex -2.000000e+000  2.000000e+000  2.449213e-016
      vertex -2.000000e-001  1.414214e+000  1.414214e+000
    endloop
  endfacet
  facet normal  0.000000e+000  9.238795e-001  3.826835e-001
    outer loop
      vertex -2.000000e-001  1.414214e+000  1.414214e+000
      vertex -2.000000e+000  2.000000e+000  2.449213e-016
      vertex -2.000000e+000  1.414214e+000  1.414214e+000
    endloop
  endfacet
  facet normal  -0.000000e+000  3.826835e-001  9.238795e-001
    outer loop
      vertex -2.000000e-001  1.414214e+000  1.414214e+000
      vertex -2.000000e+000  1.414214e+000  1.414214e+000
      vertex -2.000000e-001 -1.224606e-016  2.000000e+000
    endloop
  endfacet
  facet normal  0.000000e+000  3.826835e-001  9.238795e-001
    outer loop
      vertex -2.000000e-001 -1.224606e-016  2.000000e+000
      vertex -2.000000e+000  1.414214e+000  1.414214e+000
      vertex -2.000000e+000 -1.224606e-016  2.000000e+000
    endloop
  endfacet
  facet normal  0.000000e+000 -3.826835e-001  9.238795e-001
    outer loop
      vertex -2.000000e-001 -1.224606e-016  2.000000e+000
      vertex -2.000000e+000 -1.224606e-016  2.000000e+000
      vertex -2.000000e-001 -1.414214e+000  1.414214e+000
    endloop
  endfacet
  facet normal  0.000000e+000 -3.826835e-001  9.238795e-001
    outer loop
      vertex -2.000000e-001 -1.414214e+000  1.414214e+000
      vertex -2.000000e+000 -1.224606e-016  2.000000e+000
      vertex -2.000000e+000 -1.414214e+000  1.414214e+000
    endloop
  endfacet
  facet normal  0.000000e+000 -9.238795e-001  3.826835e-001
    outer loop
      vertex -2.000000e-001 -1.414214e+000  1.414214e+000
      vertex -2.000000e+000 -1.414214e+000  1.414214e+000
      vertex -2.000000e-001 -2.000000e+000  0.000000e+000
    endloop
  endfacet
  facet normal  0.000000e+000 -9.238795e-001  3.826835e-001
    outer loop
      vertex -2.000000e-001 -2.000000e+000  0.000000e+000
      vertex -2.000000e+000 -1.414214e+000  1.414214e+000
      vertex -2.000000e+000 -2.000000e+000  0.000000e+000
    endloop
  endfacet
  facet normal  0.000000e+000 -9.238795e-001 -3.826835e-001
    outer loop
      vertex -2.000000e-001 -2.000000e+000  0.000000e+000
      vertex -2.000000e+000 -2.000000e+000  0.000000e+000
      vertex -2.000000e-001 -1.414214e+000 -1.414214e+000
    endloop
  endfacet
  facet normal  -0.000000e+000 -9.238795e-001 -3.826835e-001
    outer loop
      vertex -2.000000e-001 -1.414214e+000 -1.414214e+000
      vertex -2.000000e+000 -2.000000e+000  0.000000e+000
      vertex -2.000000e+000 -1.414214e+000 -1.414214e+000
    endloop
  endfacet
  facet normal  0.000000e+000 -3.826835e-001 -9.238795e-001
    outer loop
      vertex -2.000000e-001 -1.414214e+000 -1.414214e+000
      vertex -2.000000e+000 -1.414214e+000 -1.414214e+000
      vertex -2.000000e-001  3.673819e-016 -2.000000e+000
    endloop
  endfacet
  facet normal  -0.000000e+000 -3.826835e-001 -9.238795e-001
    outer loop
      vertex -2.000000e-001  3.673819e-016 -2.000000e+000
      vertex -2.000000e+000 -1.414214e+000 -1.414214e+000
      vertex -2.000000e+000  3.673819e-016 -2.000000e+000
    endloop
  endfacet
  facet normal  0.000000e+000  3.826835e-001 -9.238795e-001
    outer loop
      vertex -2.000000e-001  3.673819e-016 -2.000000e+000
      vertex -2.000000e+000  3.673819e-016 -2.000000e+000
      vertex -2.000000e-001  1.414214e+000 -1.414214e+000
    endloop
  endfacet
  facet normal  0.000000e+000  3.826835e-001 -9.238795e-001
    outer loop
      vertex -2.000000e-001  1.414214e+000 -1.414214e+000
      vertex -2.000000e+000  3.673819e-016 -2.000000e+000
      vertex -2.000000e+000  1.414214e+000 -1.414214e+000
    endloop
  endfacet
  facet normal  0.000000e+000  9.238795e-001 -3.826835e-001
    outer loop
      vertex -2.000000e-001  1.414214e+000 -1.414214e+000
      vertex -2.000000e+000  1.414214e+000 -1.414214e+000
      vertex -2.000000e-001  2.000000e+000  2.449213e-016
    endloop
  endfacet
  facet normal  0.000000e+000  9.238795e-001 -3.826835e-001
    outer loop
      vertex -2.000000e-001  2.000000e+000  2.449213e-016
      vertex -2.000000e+000  1.414214e+000 -1.414214e+000
      vertex -2.000000e+000  2.000000e+000  2.449213e-016
    endloop
  endfacet
  facet normal -1.000000e+000  0.000000e+000  -0.000000e+000
    outer loop
      vertex  0.000000e+000 -9.085100e-001 -2.796106e+000
      vertex  0.000000e+000 -8.114332e-016 -2.200000e+000
      vertex  0.000000e+000  9.085100e-001 -2.796106e+000
    endloop
  endfacet
  facet normal -9.999999e-001  0.000000e+000  0.000000e+000
    outer loop
      vertex  0.000000e+000  9.085100e-001 -2.796106e+000
      vertex  0.000000e+000 -8.114332e-016 -2.200000e+000
      vertex  0.000000e+000  1.555635e+000 -1.555635e+000
    endloop
  endfacet
  facet normal -1.000000e+000  0.000000e+000  -0.000000e+000
    outer loop
      vertex  0.000000e+000  9.085100e-001 -2.796106e+000
      vertex  0.000000e+000  1.555635e+000 -1.555635e+000
      vertex  0.000000e+000  2.378510e+000 -1.728089e+000
    endloop
  endfacet
  facet normal -9.999999e-001  0.000000e+000  0.000000e+000
    outer loop
      vertex  0.000000e+000  2.378510e+000 -1.728089e+000
      vertex  0.000000e+000  1.555635e+000 -1.555635e+000
      vertex  0.000000e+000  2.200000e+000 -2.775558e-017
    endloop
  endfacet
  facet normal -9.999999e-001  0.000000e+000  0.000000e+000
    outer loop
      vertex  0.000000e+000  2.378510e+000 -1.728089e+000
      vertex  0.000000e+000  2.200000e+000 -2.775558e-017
      vertex  0.000000e+000  2.940000e+000  0.000000e+000
    endloop
  endfacet
  facet normal -1.000000e+000  -0.000000e+000  0.000000e+000
    outer loop
      vertex  0.000000e+000  2.940000e+000  0.000000e+000
      vertex  0.000000e+000  2.200000e+000 -2.775558e-017
      vertex  0.000000e+000  1.555635e+000  1.555635e+000
    endloop
  endfacet
  facet normal -9.999999e-001  0.000000e+000  0.000000e+000
    outer loop
      vertex  0.000000e+000  2.940000e+000  0.000000e+000
      vertex  0.000000e+000  1.555635e+000  1.555635e+000
      vertex  0.000000e+000  2.378510e+000  1.728089e+000
    endloop
  endfacet
  facet normal -1.000000e+000  -0.000000e+000  0.000000e+000
    outer loop
      vertex  0.000000e+000  2.378510e+000  1.728089e+000
      vertex  0.000000e+000  1.555635e+000  1.555635e+000
      vertex  0.000000e+000  2.300142e-013  2.200000e+000
    endloop
  endfacet
  facet normal -1.000000e+000  0.000000e+000  0.000000e+000
    outer loop
      vertex  0.000000e+000  2.378510e+000  1.728089e+000
      vertex  0.000000e+000  2.300142e-013  2.200000e+000
      vertex  0.000000e+000  9.085100e-001  2.796106e+000
    endloop
  endfacet
  facet normal -1.000000e+000  0.000000e+000  0.000000e+000
    outer loop
      vertex  0.000000e+000  9.085100e-001  2.796106e+000
      vertex  0.000000e+000  2.300142e-013  2.200000e+000
      vertex  0.000000e+000 -2.378510e+000  1.728089e+000
    endloop
  endfacet
  facet normal -1.000000e+000  0.000000e+000  0.000000e+000
    outer loop
      vertex  0.000000e+000  9.085100e-001  2.796106e+000
      vertex  0.000000e+000 -2.378510e+000  1.728089e+000
      vertex  0.000000e+000 -9.085100e-001  2.796106e+000
    endloop
  endfacet
  facet normal -1.000000e+000  0.000000e+000  0.000000e+000
    outer loop
      vertex  0.000000e+000  2.300142e-013  2.200000e+000
      vertex  0.000000e+000 -1.555635e+000  1.555635e+000
      vertex  0.000000e+000 -2.378510e+000  1.728089e+000
    endloop
  endfacet
  facet normal -9.999999e-001  0.000000e+000  0.000000e+000
    outer loop
      vertex  0.000000e+000 -2.378510e+000  1.728089e+000
      vertex  0.000000e+000 -1.555635e+000  1.555635e+000
      vertex  0.000000e+000 -2.200000e+000  1.729628e-016
    endloop
  endfacet
  facet normal -9.999999e-001  0.000000e+000  0.000000e+000
    outer loop
      vertex  0.000000e+000 -2.378510e+000  1.728089e+000
      vertex  0.000000e+000 -2.200000e+000  1.729628e-016
      vertex  0.000000e+000 -2.940000e+000  1.665657e-015
    endloop
  endfacet
  facet normal -1.000000e+000  0.000000e+000  0.000000e+000
    outer loop
      vertex  0.000000e+000 -2.940000e+000  1.665657e-015
      vertex  0.000000e+000 -2.200000e+000  1.729628e-016
      vertex  0.000000e+000 -1.555635e+000 -1.555635e+000
    endloop
  endfacet
  facet normal -9.999999e-001  -0.000000e+000  0.000000e+000
    outer loop
      vertex  0.000000e+000 -2.940000e+000  1.665657e-015
      vertex  0.000000e+000 -1.555635e+000 -1.555635e+000
      vertex  0.000000e+000 -2.378510e+000 -1.728089e+000
    endloop
  endfacet
  facet normal -1.000000e+000  0.000000e+000  0.000000e+000
    outer loop
      vertex  0.000000e+000 -2.378510e+000 -1.728089e+000
      vertex  0.000000e+000 -1.555635e+000 -1.555635e+000
      vertex  0.000000e+000 -8.114332e-016 -2.200000e+000
    endloop
  endfacet
  facet normal -1.000000e+000  -0.000000e+000  0.000000e+000
    outer loop
      vertex  0.000000e+000 -2.378510e+000 -1.728089e+000
      vertex  0.000000e+000 -8.114332e-016 -2.200000e+000
      vertex  0.000000e+000 -9.085100e-001 -2.796106e+000
    endloop
  endfacet
  facet normal -3.574072e-001  8.628560e-001 -3.574067e-001
    outer loop
      vertex -2.000000e-001  2.000000e+000  2.449213e-016
      vertex -5.857864e-002  2.058579e+000  5.884182e-015
      vertex -2.000000e-001  1.414214e+000 -1.414214e+000
    endloop
  endfacet
  facet normal -3.574072e-001  8.628561e-001 -3.574067e-001
    outer loop
      vertex -2.000000e-001  1.414214e+000 -1.414214e+000
      vertex -5.857864e-002  2.058579e+000  5.884182e-015
      vertex -5.857864e-002  1.455635e+000 -1.455635e+000
    endloop
  endfacet
  facet normal -9.124869e-001  3.779646e-001 -1.565581e-001
    outer loop
      vertex -5.857864e-002  2.058579e+000  5.884182e-015
      vertex  0.000000e+000  2.200000e+000 -2.775558e-017
      vertex -5.857864e-002  1.455635e+000 -1.455635e+000
    endloop
  endfacet
  facet normal -9.124870e-001  3.779644e-001 -1.565580e-001
    outer loop
      vertex -5.857864e-002  1.455635e+000 -1.455635e+000
      vertex  0.000000e+000  2.200000e+000 -2.775558e-017
      vertex  0.000000e+000  1.555635e+000 -1.555635e+000
    endloop
  endfacet
  facet normal -3.574072e-001 -8.628560e-001 -3.574067e-001
    outer loop
      vertex -2.000000e-001 -1.414214e+000 -1.414214e+000
      vertex -5.857864e-002 -1.455635e+000 -1.455635e+000
      vertex -2.000000e-001 -2.000000e+000  0.000000e+000
    endloop
  endfacet
  facet normal -3.574072e-001 -8.628560e-001 -3.574067e-001
    outer loop
      vertex -2.000000e-001 -2.000000e+000  0.000000e+000
      vertex -5.857864e-002 -1.455635e+000 -1.455635e+000
      vertex -5.857864e-002 -2.058579e+000 -7.549517e-015
    endloop
  endfacet
  facet normal -9.124870e-001 -3.779644e-001 -1.565580e-001
    outer loop
      vertex -5.857864e-002 -1.455635e+000 -1.455635e+000
      vertex  0.000000e+000 -1.555635e+000 -1.555635e+000
      vertex -5.857864e-002 -2.058579e+000 -7.549517e-015
    endloop
  endfacet
  facet normal -9.124870e-001 -3.779646e-001 -1.565580e-001
    outer loop
      vertex -5.857864e-002 -2.058579e+000 -7.549517e-015
      vertex  0.000000e+000 -1.555635e+000 -1.555635e+000
      vertex  0.000000e+000 -2.200000e+000  1.729628e-016
    endloop
  endfacet
  facet normal -3.574072e-001 -3.574067e-001 -8.628560e-001
    outer loop
      vertex -2.000000e-001  3.673819e-016 -2.000000e+000
      vertex -5.857864e-002 -8.881784e-016 -2.058579e+000
      vertex -2.000000e-001 -1.414214e+000 -1.414214e+000
    endloop
  endfacet
  facet normal -3.574072e-001 -3.574067e-001 -8.628561e-001
    outer loop
      vertex -2.000000e-001 -1.414214e+000 -1.414214e+000
      vertex -5.857864e-002 -8.881784e-016 -2.058579e+000
      vertex -5.857864e-002 -1.455635e+000 -1.455635e+000
    endloop
  endfacet
  facet normal -9.124869e-001 -1.565581e-001 -3.779646e-001
    outer loop
      vertex -5.857864e-002 -8.881784e-016 -2.058579e+000
      vertex  0.000000e+000 -8.114332e-016 -2.200000e+000
      vertex -5.857864e-002 -1.455635e+000 -1.455635e+000
    endloop
  endfacet
  facet normal -9.124870e-001 -1.565580e-001 -3.779644e-001
    outer loop
      vertex -5.857864e-002 -1.455635e+000 -1.455635e+000
      vertex  0.000000e+000 -8.114332e-016 -2.200000e+000
      vertex  0.000000e+000 -1.555635e+000 -1.555635e+000
    endloop
  endfacet
  facet normal -3.574072e-001  3.574067e-001 -8.628560e-001
    outer loop
      vertex -2.000000e-001  1.414214e+000 -1.414214e+000
      vertex -5.857864e-002  1.455635e+000 -1.455635e+000
      vertex -2.000000e-001  3.673819e-016 -2.000000e+000
    endloop
  endfacet
  facet normal -3.574072e-001  3.574067e-001 -8.628560e-001
    outer loop
      vertex -2.000000e-001  3.673819e-016 -2.000000e+000
      vertex -5.857864e-002  1.455635e+000 -1.455635e+000
      vertex -5.857864e-002 -8.881784e-016 -2.058579e+000
    endloop
  endfacet
  facet normal -9.124870e-001  1.565580e-001 -3.779644e-001
    outer loop
      vertex -5.857864e-002  1.455635e+000 -1.455635e+000
      vertex  0.000000e+000  1.555635e+000 -1.555635e+000
      vertex -5.857864e-002 -8.881784e-016 -2.058579e+000
    endloop
  endfacet
  facet normal -9.124870e-001  1.565580e-001 -3.779646e-001
    outer loop
      vertex -5.857864e-002 -8.881784e-016 -2.058579e+000
      vertex  0.000000e+000  1.555635e+000 -1.555635e+000
      vertex  0.000000e+000 -8.114332e-016 -2.200000e+000
    endloop
  endfacet
  facet normal -3.574072e-001 -8.628560e-001  3.574067e-001
    outer loop
      vertex -2.000000e-001 -2.000000e+000  0.000000e+000
      vertex -5.857864e-002 -2.058579e+000 -7.549517e-015
      vertex -2.000000e-001 -1.414214e+000  1.414214e+000
    endloop
  endfacet
  facet normal -3.574072e-001 -8.628561e-001  3.574067e-001
    outer loop
      vertex -2.000000e-001 -1.414214e+000  1.414214e+000
      vertex -5.857864e-002 -2.058579e+000 -7.549517e-015
      vertex -5.857864e-002 -1.455635e+000  1.455635e+000
    endloop
  endfacet
  facet normal -9.124869e-001 -3.779646e-001  1.565581e-001
    outer loop
      vertex -5.857864e-002 -2.058579e+000 -7.549517e-015
      vertex  0.000000e+000 -2.200000e+000  1.729628e-016
      vertex -5.857864e-002 -1.455635e+000  1.455635e+000
    endloop
  endfacet
  facet normal -9.124870e-001 -3.779644e-001  1.565580e-001
    outer loop
      vertex -5.857864e-002 -1.455635e+000  1.455635e+000
      vertex  0.000000e+000 -2.200000e+000  1.729628e-016
      vertex  0.000000e+000 -1.555635e+000  1.555635e+000
    endloop
  endfacet
  facet normal -3.574072e-001  8.628560e-001  3.574067e-001
    outer loop
      vertex -2.000000e-001  1.414214e+000  1.414214e+000
      vertex -5.857864e-002  1.455635e+000  1.455635e+000
      vertex -2.000000e-001  2.000000e+000  2.449213e-016
    endloop
  endfacet
  facet normal -3.574072e-001  8.628560e-001  3.574067e-001
    outer loop
      vertex -2.000000e-001  2.000000e+000  2.449213e-016
      vertex -5.857864e-002  1.455635e+000  1.455635e+000
      vertex -5.857864e-002  2.058579e+000  5.884182e-015
    endloop
  endfacet
  facet normal -9.124870e-001  3.779644e-001  1.565580e-001
    outer loop
      vertex -5.857864e-002  1.455635e+000  1.455635e+000
      vertex  0.000000e+000  1.555635e+000  1.555635e+000
      vertex -5.857864e-002  2.058579e+000  5.884182e-015
    endloop
  endfacet
  facet normal -9.124870e-001  3.779646e-001  1.565580e-001
    outer loop
      vertex -5.857864e-002  2.058579e+000  5.884182e-015
      vertex  0.000000e+000  1.555635e+000  1.555635e+000
      vertex  0.000000e+000  2.200000e+000 -2.775558e-017
    endloop
  endfacet
  facet normal -3.574072e-001  3.574067e-001  8.628560e-001
    outer loop
      vertex -2.000000e-001 -1.224606e-016  2.000000e+000
      vertex -5.857864e-002  2.491340e-013  2.058579e+000
      vertex -2.000000e-001  1.414214e+000  1.414214e+000
    endloop
  endfacet
  facet normal -3.574072e-001  3.574067e-001  8.628561e-001
    outer loop
      vertex -2.000000e-001  1.414214e+000  1.414214e+000
      vertex -5.857864e-002  2.491340e-013  2.058579e+000
      vertex -5.857864e-002  1.455635e+000  1.455635e+000
    endloop
  endfacet
  facet normal -9.124869e-001  1.565581e-001  3.779646e-001
    outer loop
      vertex -5.857864e-002  2.491340e-013  2.058579e+000
      vertex  0.000000e+000  2.300142e-013  2.200000e+000
      vertex -5.857864e-002  1.455635e+000  1.455635e+000
    endloop
  endfacet
  facet normal -9.124870e-001  1.565580e-001  3.779644e-001
    outer loop
      vertex -5.857864e-002  1.455635e+000  1.455635e+000
      vertex  0.000000e+000  2.300142e-013  2.200000e+000
      vertex  0.000000e+000  1.555635e+000  1.555635e+000
    endloop
  endfacet
  facet normal -3.574072e-001 -3.574067e-001  8.628560e-001
    outer loop
      vertex -2.000000e-001 -1.414214e+000  1.414214e+000
      vertex -5.857864e-002 -1.455635e+000  1.455635e+000
      vertex -2.000000e-001 -1.224606e-016  2.000000e+000
    endloop
  endfacet
  facet normal -3.574072e-001 -3.574067e-001  8.628560e-001
    outer loop
      vertex -2.000000e-001 -1.224606e-016  2.000000e+000
      vertex -5.857864e-002 -1.455635e+000  1.455635e+000
      vertex -5.857864e-002  2.491340e-013  2.058579e+000
    endloop
  endfacet
  facet normal -9.124870e-001 -1.565580e-001  3.779644e-001
    outer loop
      vertex -5.857864e-002 -1.455635e+000  1.455635e+000
      vertex  0.000000e+000 -1.555635e+000  1.555635e+000
      vertex -5.857864e-002  2.491340e-013  2.058579e+000
    endloop
  endfacet
  facet normal -9.124870e-001 -1.565580e-001  3.779646e-001
    outer loop
      vertex -5.857864e-002  2.491340e-013  2.058579e+000
      vertex  0.000000e+000 -1.555635e+000  1.555635e+000
      vertex  0.000000e+000  2.300142e-013  2.200000e+000
    endloop
  endfacet
  facet normal -9.999999e-001  0.000000e+000  0.000000e+000
    outer loop
      vertex -1.200000e+001  8.847458e-001  8.847458e-001
      vertex -1.200000e+001 -8.847458e-001  8.847458e-001
      vertex -1.200000e+001 -8.727211e-014  1.251220e+000
    endloop
  endfacet
  facet normal -1.000000e+000  -0.000000e+000  0.000000e+000
    outer loop
      vertex -1.200000e+001 -8.847458e-001  8.847458e-001
      vertex -1.200000e+001  8.847458e-001  8.847458e-001
      vertex -1.200000e+001 -1.251220e+000 -6.774273e-016
    endloop
  endfacet
  facet normal -1.000000e+000  0.000000e+000  0.000000e+000
    outer loop
      vertex -1.200000e+001 -1.251220e+000 -6.774273e-016
      vertex -1.200000e+001  8.847458e-001  8.847458e-001
      vertex -1.200000e+001  1.251220e+000  3.207963e-015
    endloop
  endfacet
  facet normal -1.000000e+000  0.000000e+000  0.000000e+000
    outer loop
      vertex -1.200000e+001 -1.251220e+000 -6.774273e-016
      vertex -1.200000e+001  1.251220e+000  3.207963e-015
      vertex -1.200000e+001 -8.847458e-001 -8.847458e-001
    endloop
  endfacet
  facet normal -1.000000e+000  0.000000e+000  0.000000e+000
    outer loop
      vertex -1.200000e+001 -8.847458e-001 -8.847458e-001
      vertex -1.200000e+001  1.251220e+000  3.207963e-015
      vertex -1.200000e+001  8.847458e-001 -8.847458e-001
    endloop
  endfacet
  facet normal -9.999999e-001  -0.000000e+000  0.000000e+000
    outer loop
      vertex -1.200000e+001 -8.847458e-001 -8.847458e-001
      vertex -1.200000e+001  8.847458e-001 -8.847458e-001
      vertex -1.200000e+001  1.538091e-014 -1.251220e+000
    endloop
  endfacet
  facet normal -6.785985e-001  2.810846e-001 -6.785982e-001
    outer loop
      vertex -1.130000e+001  3.584214e-016 -1.951220e+000
      vertex -1.200000e+001  8.847458e-001 -8.847458e-001
      vertex -1.130000e+001  1.379721e+000 -1.379721e+000
    endloop
  endfacet
  facet normal -6.785985e-001  6.785982e-001 -2.810846e-001
    outer loop
      vertex -1.130000e+001  1.379721e+000 -1.379721e+000
      vertex -1.200000e+001  8.847458e-001 -8.847458e-001
      vertex -1.200000e+001  1.251220e+000  3.207963e-015
    endloop
  endfacet
  facet normal -6.785985e-001  6.785982e-001 -2.810846e-001
    outer loop
      vertex -1.130000e+001  1.379721e+000 -1.379721e+000
      vertex -1.200000e+001  1.251220e+000  3.207963e-015
      vertex -1.130000e+001  1.951220e+000  2.389476e-016
    endloop
  endfacet
  facet normal -6.785985e-001  2.810846e-001 -6.785982e-001
    outer loop
      vertex -1.200000e+001  8.847458e-001 -8.847458e-001
      vertex -1.130000e+001  3.584214e-016 -1.951220e+000
      vertex -1.200000e+001  1.538091e-014 -1.251220e+000
    endloop
  endfacet
  facet normal -6.785985e-001 -2.810846e-001 -6.785982e-001
    outer loop
      vertex -1.200000e+001  1.538091e-014 -1.251220e+000
      vertex -1.130000e+001  3.584214e-016 -1.951220e+000
      vertex -1.130000e+001 -1.379721e+000 -1.379721e+000
    endloop
  endfacet
  facet normal -6.785985e-001 -2.810846e-001 -6.785982e-001
    outer loop
      vertex -1.200000e+001  1.538091e-014 -1.251220e+000
      vertex -1.130000e+001 -1.379721e+000 -1.379721e+000
      vertex -1.200000e+001 -8.847458e-001 -8.847458e-001
    endloop
  endfacet
  facet normal -6.785985e-001 -6.785982e-001 -2.810846e-001
    outer loop
      vertex -1.200000e+001 -8.847458e-001 -8.847458e-001
      vertex -1.130000e+001 -1.379721e+000 -1.379721e+000
      vertex -1.130000e+001 -1.951220e+000 -4.778951e-016
    endloop
  endfacet
  facet normal -6.785985e-001 -6.785982e-001 -2.810846e-001
    outer loop
      vertex -1.200000e+001 -8.847458e-001 -8.847458e-001
      vertex -1.130000e+001 -1.951220e+000 -4.778951e-016
      vertex -1.200000e+001 -1.251220e+000 -6.774273e-016
    endloop
  endfacet
  facet normal -6.785985e-001 -2.810846e-001  6.785982e-001
    outer loop
      vertex -1.130000e+001 -1.194738e-016  1.951220e+000
      vertex -1.200000e+001 -8.847458e-001  8.847458e-001
      vertex -1.130000e+001 -1.379721e+000  1.379721e+000
    endloop
  endfacet
  facet normal -6.785985e-001 -6.785982e-001  2.810846e-001
    outer loop
      vertex -1.130000e+001 -1.379721e+000  1.379721e+000
      vertex -1.200000e+001 -8.847458e-001  8.847458e-001
      vertex -1.200000e+001 -1.251220e+000 -6.774273e-016
    endloop
  endfacet
  facet normal -6.785985e-001 -6.785982e-001  2.810846e-001
    outer loop
      vertex -1.130000e+001 -1.379721e+000  1.379721e+000
      vertex -1.200000e+001 -1.251220e+000 -6.774273e-016
      vertex -1.130000e+001 -1.951220e+000 -4.778951e-016
    endloop
  endfacet
  facet normal -6.785985e-001 -2.810846e-001  6.785982e-001
    outer loop
      vertex -1.200000e+001 -8.847458e-001  8.847458e-001
      vertex -1.130000e+001 -1.194738e-016  1.951220e+000
      vertex -1.200000e+001 -8.727211e-014  1.251220e+000
    endloop
  endfacet
  facet normal -6.785985e-001  2.810846e-001  6.785982e-001
    outer loop
      vertex -1.200000e+001 -8.727211e-014  1.251220e+000
      vertex -1.130000e+001 -1.194738e-016  1.951220e+000
      vertex -1.130000e+001  1.379721e+000  1.379721e+000
    endloop
  endfacet
  facet normal -6.785985e-001  2.810846e-001  6.785982e-001
    outer loop
      vertex -1.200000e+001 -8.727211e-014  1.251220e+000
      vertex -1.130000e+001  1.379721e+000  1.379721e+000
      vertex -1.200000e+001  8.847458e-001  8.847458e-001
    endloop
  endfacet
  facet normal -6.785985e-001  6.785982e-001  2.810846e-001
    outer loop
      vertex -1.200000e+001  8.847458e-001  8.847458e-001
      vertex -1.130000e+001  1.379721e+000  1.379721e+000
      vertex -1.130000e+001  1.951220e+000  2.389476e-016
    endloop
  endfacet
  facet normal -6.785985e-001  6.785982e-001  2.810846e-001
    outer loop
      vertex -1.200000e+001  8.847458e-001  8.847458e-001
      vertex -1.130000e+001  1.951220e+000  2.389476e-016
      vertex -1.200000e+001  1.251220e+000  3.207963e-015
    endloop
  endfacet
  facet normal -1.000000e+000  0.000000e+000  0.000000e+000
    outer loop
      vertex -2.000000e+000 -1.194738e-016  1.951220e+000
      vertex -2.000000e+000 -1.224606e-016  2.000000e+000
      vertex -2.000000e+000  1.379721e+000  1.379721e+000
    endloop
  endfacet
  facet normal -1.000000e+000  0.000000e+000  0.000000e+000
    outer loop
      vertex -2.000000e+000  1.379721e+000  1.379721e+000
      vertex -2.000000e+000 -1.224606e-016  2.000000e+000
      vertex -2.000000e+000  1.414214e+000  1.414214e+000
    endloop
  endfacet
  facet normal -1.000000e+000  0.000000e+000  -0.000000e+000
    outer loop
      vertex -2.000000e+000  1.379721e+000  1.379721e+000
      vertex -2.000000e+000  1.414214e+000  1.414214e+000
      vertex -2.000000e+000  1.951220e+000  2.389476e-016
    endloop
  endfacet
  facet normal -1.000000e+000  0.000000e+000  0.000000e+000
    outer loop
      vertex -2.000000e+000  1.951220e+000  2.389476e-016
      vertex -2.000000e+000  1.414214e+000  1.414214e+000
      vertex -2.000000e+000  2.000000e+000  2.449213e-016
    endloop
  endfacet
  facet normal -1.000000e+000  0.000000e+000  0.000000e+000
    outer loop
      vertex -2.000000e+000  1.951220e+000  2.389476e-016
      vertex -2.000000e+000  2.000000e+000  2.449213e-016
      vertex -2.000000e+000  1.379721e+000 -1.379721e+000
    endloop
  endfacet
  facet normal -1.000000e+000  0.000000e+000  0.000000e+000
    outer loop
      vertex -2.000000e+000  1.379721e+000 -1.379721e+000
      vertex -2.000000e+000  2.000000e+000  2.449213e-016
      vertex -2.000000e+000  1.414214e+000 -1.414214e+000
    endloop
  endfacet
  facet normal -1.000000e+000  -0.000000e+000  0.000000e+000
    outer loop
      vertex -2.000000e+000  1.379721e+000 -1.379721e+000
      vertex -2.000000e+000  1.414214e+000 -1.414214e+000
      vertex -2.000000e+000  3.584214e-016 -1.951220e+000
    endloop
  endfacet
  facet normal -1.000000e+000  0.000000e+000  0.000000e+000
    outer loop
      vertex -2.000000e+000  3.584214e-016 -1.951220e+000
      vertex -2.000000e+000  1.414214e+000 -1.414214e+000
      vertex -2.000000e+000  3.673819e-016 -2.000000e+000
    endloop
  endfacet
  facet normal -1.000000e+000  0.000000e+000  0.000000e+000
    outer loop
      vertex -2.000000e+000  3.584214e-016 -1.951220e+000
      vertex -2.000000e+000  3.673819e-016 -2.000000e+000
      vertex -2.000000e+000 -1.379721e+000 -1.379721e+000
    endloop
  endfacet
  facet normal -1.000000e+000  0.000000e+000  -0.000000e+000
    outer loop
      vertex -2.000000e+000 -1.379721e+000 -1.379721e+000
      vertex -2.000000e+000  3.673819e-016 -2.000000e+000
      vertex -2.000000e+000 -1.414214e+000 -1.414214e+000
    endloop
  endfacet
  facet normal -1.000000e+000  0.000000e+000  0.000000e+000
    outer loop
      vertex -2.000000e+000 -1.379721e+000 -1.379721e+000
      vertex -2.000000e+000 -1.414214e+000 -1.414214e+000
      vertex -2.000000e+000 -1.951220e+000 -4.778951e-016
    endloop
  endfacet
  facet normal -1.000000e+000  -0.000000e+000  -0.000000e+000
    outer loop
      vertex -2.000000e+000 -1.951220e+000 -4.778951e-016
      vertex -2.000000e+000 -1.414214e+000 -1.414214e+000
      vertex -2.000000e+000 -2.000000e+000  0.000000e+000
    endloop
  endfacet
  facet normal -1.000000e+000  0.000000e+000  0.000000e+000
    outer loop
      vertex -2.000000e+000 -1.951220e+000 -4.778951e-016
      vertex -2.000000e+000 -2.000000e+000  0.000000e+000
      vertex -2.000000e+000 -1.379721e+000  1.379721e+000
    endloop
  endfacet
  facet normal -1.000000e+000  -0.000000e+000  0.000000e+000
    outer loop
      vertex -2.000000e+000 -1.379721e+000  1.379721e+000
      vertex -2.000000e+000 -2.000000e+000  0.000000e+000
      vertex -2.000000e+000 -1.414214e+000  1.414214e+000
    endloop
  endfacet
  facet normal -1.000000e+000  0.000000e+000  0.000000e+000
    outer loop
      vertex -2.000000e+000 -1.379721e+000  1.379721e+000
      vertex -2.000000e+000 -1.414214e+000  1.414214e+000
      vertex -2.000000e+000 -1.194738e-016  1.951220e+000
    endloop
  endfacet
  facet normal -1.000000e+000  -0.000000e+000  0.000000e+000
    outer loop
      vertex -2.000000e+000 -1.194738e-016  1.951220e+000
      vertex -2.000000e+000 -1.414214e+000  1.414214e+000
      vertex -2.000000e+000 -1.224606e-016  2.000000e+000
    endloop
  endfacet
  facet normal  1.000000e+000  0.000000e+000  0.000000e+000
    outer loop
      vertex  2.925000e+000  1.670472e+000  3.057779e+000
      vertex  2.925000e+000 -4.458769e-001  3.455674e+000
      vertex  2.925000e+000  3.148758e+000  1.491916e+000
    endloop
  endfacet
  facet normal  1.000000e+000  0.000000e+000  0.000000e+000
    outer loop
      vertex  2.925000e+000  3.148758e+000  1.491916e+000
      vertex  2.925000e+000 -4.458769e-001  3.455674e+000
      vertex  2.925000e+000 -2.391916e+000  2.533619e+000
    endloop
  endfacet
  facet normal  1.000000e+000  0.000000e+000  0.000000e+000
    outer loop
      vertex  2.925000e+000  3.148758e+000  1.491916e+000
      vertex  2.925000e+000 -2.391916e+000  2.533619e+000
      vertex  2.925000e+000 -3.424325e+000  6.438079e-001
    endloop
  endfacet
  facet normal  1.000000e+000  -0.000000e+000  0.000000e+000
    outer loop
      vertex  2.925000e+000  3.148758e+000  1.491916e+000
      vertex  2.925000e+000 -3.424325e+000  6.438079e-001
      vertex  2.925000e+000  3.424325e+000 -6.438079e-001
    endloop
  endfacet
  facet normal  1.000000e+000  0.000000e+000  0.000000e+000
    outer loop
      vertex  2.925000e+000  3.424325e+000 -6.438079e-001
      vertex  2.925000e+000 -3.424325e+000  6.438079e-001
      vertex  2.925000e+000 -3.148758e+000 -1.491916e+000
    endloop
  endfacet
  facet normal  1.000000e+000  -0.000000e+000  0.000000e+000
    outer loop
      vertex  2.925000e+000  3.424325e+000 -6.438079e-001
      vertex  2.925000e+000 -3.148758e+000 -1.491916e+000
      vertex  2.925000e+000  2.391916e+000 -2.533619e+000
    endloop
  endfacet
  facet normal  1.000000e+000  0.000000e+000  0.000000e+000
    outer loop
      vertex  2.925000e+000  2.391916e+000 -2.533619e+000
      vertex  2.925000e+000 -3.148758e+000 -1.491916e+000
      vertex  2.925000e+000 -1.670472e+000 -3.057779e+000
    endloop
  endfacet
  facet normal  1.000000e+000  -0.000000e+000  0.000000e+000
    outer loop
      vertex  2.925000e+000  2.391916e+000 -2.533619e+000
      vertex  2.925000e+000 -1.670472e+000 -3.057779e+000
      vertex  2.925000e+000  4.458769e-001 -3.455674e+000
    endloop
  endfacet
  facet normal  0.000000e+000  5.000000e-001 -8.660254e-001
    outer loop
      vertex  4.000000e-001  3.500000e+000 -2.020726e+000
      vertex  2.603340e+000  3.500000e+000 -2.020726e+000
      vertex  4.000000e-001  3.552714e-015 -4.041452e+000
    endloop
  endfacet
  facet normal  9.430178e-008  4.999999e-001 -8.660254e-001
    outer loop
      vertex  4.000000e-001  3.552714e-015 -4.041452e+000
      vertex  2.603340e+000  3.500000e+000 -2.020726e+000
      vertex  2.827576e+000  2.656179e+000 -2.507906e+000
    endloop
  endfacet
  facet normal  0.000000e+000  5.000000e-001 -8.660254e-001
    outer loop
      vertex  4.000000e-001  3.552714e-015 -4.041452e+000
      vertex  2.827576e+000  2.656179e+000 -2.507906e+000
      vertex  2.603340e+000  4.440892e-015 -4.041452e+000
    endloop
  endfacet
  facet normal  2.015527e-016 -5.000000e-001 -8.660254e-001
    outer loop
      vertex  4.000000e-001  3.552714e-015 -4.041452e+000
      vertex  2.603340e+000  4.440892e-015 -4.041452e+000
      vertex  4.000000e-001 -3.500000e+000 -2.020726e+000
    endloop
  endfacet
  facet normal  4.626493e-008 -5.000000e-001 -8.660254e-001
    outer loop
      vertex  4.000000e-001 -3.500000e+000 -2.020726e+000
      vertex  2.603340e+000  4.440892e-015 -4.041452e+000
      vertex  2.915385e+000 -1.678457e+000 -3.072394e+000
    endloop
  endfacet
  facet normal  0.000000e+000 -4.999999e-001 -8.660254e-001
    outer loop
      vertex  4.000000e-001 -3.500000e+000 -2.020726e+000
      vertex  2.915385e+000 -1.678457e+000 -3.072394e+000
      vertex  2.603340e+000 -3.500000e+000 -2.020726e+000
    endloop
  endfacet
  facet normal  0.000000e+000 -1.000000e+000  0.000000e+000
    outer loop
      vertex  4.000000e-001 -3.500000e+000 -2.020726e+000
      vertex  2.603340e+000 -3.500000e+000 -2.020726e+000
      vertex  4.000000e-001 -3.500000e+000  2.020726e+000
    endloop
  endfacet
  facet normal  0.000000e+000 -1.000000e+000  0.000000e+000
    outer loop
      vertex  4.000000e-001 -3.500000e+000  2.020726e+000
      vertex  2.603340e+000 -3.500000e+000 -2.020726e+000
      vertex  2.827576e+000 -3.500000e+000 -1.046365e+000
    endloop
  endfacet
  facet normal  0.000000e+000 -1.000000e+000  0.000000e+000
    outer loop
      vertex  4.000000e-001 -3.500000e+000  2.020726e+000
      vertex  2.827576e+000 -3.500000e+000 -1.046365e+000
      vertex  2.603340e+000 -3.500000e+000  2.020726e+000
    endloop
  endfacet
  facet normal  0.000000e+000 -5.000000e-001  8.660254e-001
    outer loop
      vertex  4.000000e-001 -3.500000e+000  2.020726e+000
      vertex  2.603340e+000 -3.500000e+000  2.020726e+000
      vertex  4.000000e-001 -1.776357e-015  4.041452e+000
    endloop
  endfacet
  facet normal  9.430178e-008 -4.999999e-001  8.660254e-001
    outer loop
      vertex  4.000000e-001 -1.776357e-015  4.041452e+000
      vertex  2.603340e+000 -3.500000e+000  2.020726e+000
      vertex  2.827576e+000 -2.656179e+000  2.507906e+000
    endloop
  endfacet
  facet normal  0.000000e+000 -5.000000e-001  8.660254e-001
    outer loop
      vertex  4.000000e-001 -1.776357e-015  4.041452e+000
      vertex  2.827576e+000 -2.656179e+000  2.507906e+000
      vertex  2.603340e+000 -1.776357e-015  4.041452e+000
    endloop
  endfacet
  facet normal  0.000000e+000  5.000000e-001  8.660254e-001
    outer loop
      vertex  4.000000e-001 -1.776357e-015  4.041452e+000
      vertex  2.603340e+000 -1.776357e-015  4.041452e+000
      vertex  4.000000e-001  3.500000e+000  2.020726e+000
    endloop
  endfacet
  facet normal  4.626493e-008  5.000000e-001  8.660254e-001
    outer loop
      vertex  4.000000e-001  3.500000e+000  2.020726e+000
      vertex  2.603340e+000 -1.776357e-015  4.041452e+000
      vertex  2.915385e+000  1.678457e+000  3.072394e+000
    endloop
  endfacet
  facet normal  0.000000e+000  4.999999e-001  8.660254e-001
    outer loop
      vertex  4.000000e-001  3.500000e+000  2.020726e+000
      vertex  2.915385e+000  1.678457e+000  3.072394e+000
      vertex  2.603340e+000  3.500000e+000  2.020726e+000
    endloop
  endfacet
  facet normal  0.000000e+000  1.000000e+000  0.000000e+000
    outer loop
      vertex  4.000000e-001  3.500000e+000  2.020726e+000
      vertex  2.603340e+000  3.500000e+000  2.020726e+000
      vertex  4.000000e-001  3.500000e+000 -2.020726e+000
    endloop
  endfacet
  facet normal  0.000000e+000  9.999999e-001  0.000000e+000
    outer loop
      vertex  4.000000e-001  3.500000e+000 -2.020726e+000
      vertex  2.603340e+000  3.500000e+000  2.020726e+000
      vertex  2.827576e+000  3.500000e+000 -1.046365e+000
    endloop
  endfacet
  facet normal  0.000000e+000  1.000000e+000  0.000000e+000
    outer loop
      vertex  4.000000e-001  3.500000e+000 -2.020726e+000
      vertex  2.827576e+000  3.500000e+000 -1.046365e+000
      vertex  2.603340e+000  3.500000e+000 -2.020726e+000
    endloop
  endfacet
  facet normal  8.548205e-001  3.773347e-001  3.562308e-001
    outer loop
      vertex  2.925000e+000  1.670472e+000  3.057779e+000
      vertex  2.925000e+000  3.148758e+000  1.491916e+000
      vertex  2.915385e+000  1.678457e+000  3.072394e+000
    endloop
  endfacet
  facet normal  9.083965e-001  3.620935e-001 -2.090548e-001
    outer loop
      vertex  2.603340e+000  3.500000e+000 -2.020726e+000
      vertex  2.827576e+000  3.500000e+000 -1.046365e+000
      vertex  2.827576e+000  2.656179e+000 -2.507906e+000
    endloop
  endfacet
  facet normal  8.872234e-001  3.350734e-001  3.171126e-001
    outer loop
      vertex  2.603340e+000  3.500000e+000  2.020726e+000
      vertex  2.915385e+000  1.678457e+000  3.072394e+000
      vertex  2.925000e+000  3.148758e+000  1.491916e+000
    endloop
  endfacet
  facet normal  7.911134e-001  6.066406e-001  7.827330e-002
    outer loop
      vertex  2.603340e+000  3.500000e+000  2.020726e+000
      vertex  2.925000e+000  3.148758e+000  1.491916e+000
      vertex  2.925000e+000  3.424325e+000 -6.438079e-001
    endloop
  endfacet
  facet normal  5.119539e-001  8.581971e-001  3.742903e-002
    outer loop
      vertex  2.603340e+000  3.500000e+000  2.020726e+000
      vertex  2.925000e+000  3.424325e+000 -6.438079e-001
      vertex  2.827576e+000  3.500000e+000 -1.046365e+000
    endloop
  endfacet
  facet normal  8.548193e-001 -9.588337e-002 -5.099904e-001
    outer loop
      vertex  2.925000e+000 -1.670472e+000 -3.057779e+000
      vertex  2.915385e+000 -1.678457e+000 -3.072394e+000
      vertex  2.925000e+000  4.458769e-001 -3.455674e+000
    endloop
  endfacet
  facet normal  8.985748e-001 -8.185115e-002 -4.311189e-001
    outer loop
      vertex  2.925000e+000  4.458769e-001 -3.455674e+000
      vertex  2.915385e+000 -1.678457e+000 -3.072394e+000
      vertex  2.603340e+000  4.440892e-015 -4.041452e+000
    endloop
  endfacet
  facet normal  7.216110e-001  2.994539e-001 -6.241835e-001
    outer loop
      vertex  2.925000e+000  4.458769e-001 -3.455674e+000
      vertex  2.603340e+000  4.440892e-015 -4.041452e+000
      vertex  2.827576e+000  2.656179e+000 -2.507906e+000
    endloop
  endfacet
  facet normal  9.393397e-001  2.970365e-001 -1.714941e-001
    outer loop
      vertex  2.827576e+000  3.500000e+000 -1.046365e+000
      vertex  2.925000e+000  3.424325e+000 -6.438079e-001
      vertex  2.827576e+000  2.656179e+000 -2.507906e+000
    endloop
  endfacet
  facet normal  9.140725e-001  3.559044e-001 -1.944315e-001
    outer loop
      vertex  2.827576e+000  2.656179e+000 -2.507906e+000
      vertex  2.925000e+000  3.424325e+000 -6.438079e-001
      vertex  2.925000e+000  2.391916e+000 -2.533619e+000
    endloop
  endfacet
  facet normal  6.782201e-001  3.146518e-001 -6.640872e-001
    outer loop
      vertex  2.827576e+000  2.656179e+000 -2.507906e+000
      vertex  2.925000e+000  2.391916e+000 -2.533619e+000
      vertex  2.925000e+000  4.458769e-001 -3.455674e+000
    endloop
  endfacet
  facet normal  8.872234e-001 -3.350734e-001 -3.171126e-001
    outer loop
      vertex  2.603340e+000 -3.500000e+000 -2.020726e+000
      vertex  2.915385e+000 -1.678457e+000 -3.072394e+000
      vertex  2.925000e+000 -3.148758e+000 -1.491916e+000
    endloop
  endfacet
  facet normal  8.521637e-001 -4.851355e-001 -1.961136e-001
    outer loop
      vertex  2.603340e+000 -3.500000e+000 -2.020726e+000
      vertex  2.925000e+000 -3.148758e+000 -1.491916e+000
      vertex  2.827576e+000 -3.500000e+000 -1.046365e+000
    endloop
  endfacet
  facet normal  3.238732e-001 -9.458041e-001  2.367842e-002
    outer loop
      vertex  2.603340e+000 -3.500000e+000  2.020726e+000
      vertex  2.827576e+000 -3.500000e+000 -1.046365e+000
      vertex  2.925000e+000 -3.424325e+000  6.438079e-001
    endloop
  endfacet
  facet normal  9.144620e-001 -3.550777e-001  1.941112e-001
    outer loop
      vertex  2.603340e+000 -3.500000e+000  2.020726e+000
      vertex  2.925000e+000 -3.424325e+000  6.438079e-001
      vertex  2.827576e+000 -2.656179e+000  2.507906e+000
    endloop
  endfacet
  facet normal  6.782201e-001 -3.146518e-001  6.640872e-001
    outer loop
      vertex  2.827576e+000 -2.656179e+000  2.507906e+000
      vertex  2.925000e+000 -2.391916e+000  2.533619e+000
      vertex  2.925000e+000 -4.458769e-001  3.455674e+000
    endloop
  endfacet
  facet normal  8.548205e-001 -3.773347e-001 -3.562308e-001
    outer loop
      vertex  2.925000e+000 -1.670472e+000 -3.057779e+000
      vertex  2.925000e+000 -3.148758e+000 -1.491916e+000
      vertex  2.915385e+000 -1.678457e+000 -3.072394e+000
    endloop
  endfacet
  facet normal  9.483788e-001 -3.145325e-001 -4.058333e-002
    outer loop
      vertex  2.925000e+000 -3.424325e+000  6.438079e-001
      vertex  2.827576e+000 -3.500000e+000 -1.046365e+000
      vertex  2.925000e+000 -3.148758e+000 -1.491916e+000
    endloop
  endfacet
  facet normal  9.140725e-001 -3.559044e-001  1.944315e-001
    outer loop
      vertex  2.827576e+000 -2.656179e+000  2.507906e+000
      vertex  2.925000e+000 -3.424325e+000  6.438079e-001
      vertex  2.925000e+000 -2.391916e+000  2.533619e+000
    endloop
  endfacet
  facet normal  8.548193e-001  9.588337e-002  5.099904e-001
    outer loop
      vertex  2.925000e+000  1.670472e+000  3.057779e+000
      vertex  2.915385e+000  1.678457e+000  3.072394e+000
      vertex  2.925000e+000 -4.458769e-001  3.455674e+000
    endloop
  endfacet
  facet normal  8.985748e-001  8.185115e-002  4.311189e-001
    outer loop
      vertex  2.925000e+000 -4.458769e-001  3.455674e+000
      vertex  2.915385e+000  1.678457e+000  3.072394e+000
      vertex  2.603340e+000 -1.776357e-015  4.041452e+000
    endloop
  endfacet
  facet normal  7.216110e-001 -2.994539e-001  6.241835e-001
    outer loop
      vertex  2.925000e+000 -4.458769e-001  3.455674e+000
      vertex  2.603340e+000 -1.776357e-015  4.041452e+000
      vertex  2.827576e+000 -2.656179e+000  2.507906e+000
    endloop
  endfacet
  facet normal -1.000000e+000  0.000000e+000  0.000000e+000
    outer loop
      vertex  4.000000e-001  9.085100e-001  2.796106e+000
      vertex  4.000000e-001 -9.085100e-001  2.796106e+000
      vertex  4.000000e-001 -1.776357e-015  4.041452e+000
    endloop
  endfacet
  facet normal -1.000000e+000  0.000000e+000  0.000000e+000
    outer loop
      vertex  4.000000e-001 -2.378510e+000 -1.728089e+000
      vertex  4.000000e-001 -3.500000e+000 -2.020726e+000
      vertex  4.000000e-001 -2.940000e+000  1.665657e-015
    endloop
  endfacet
  facet normal -1.000000e+000  0.000000e+000  0.000000e+000
    outer loop
      vertex  4.000000e-001 -3.500000e+000  2.020726e+000
      vertex  4.000000e-001 -1.776357e-015  4.041452e+000
      vertex  4.000000e-001 -9.085100e-001  2.796106e+000
    endloop
  endfacet
  facet normal -1.000000e+000  0.000000e+000  0.000000e+000
    outer loop
      vertex  4.000000e-001 -3.500000e+000  2.020726e+000
      vertex  4.000000e-001 -9.085100e-001  2.796106e+000
      vertex  4.000000e-001 -2.378510e+000  1.728089e+000
    endloop
  endfacet
  facet normal -1.000000e+000  -0.000000e+000  0.000000e+000
    outer loop
      vertex  4.000000e-001 -3.500000e+000  2.020726e+000
      vertex  4.000000e-001 -2.378510e+000  1.728089e+000
      vertex  4.000000e-001 -2.940000e+000  1.665657e-015
    endloop
  endfacet
  facet normal -9.999999e-001  -0.000000e+000  0.000000e+000
    outer loop
      vertex  4.000000e-001 -3.500000e+000  2.020726e+000
      vertex  4.000000e-001 -2.940000e+000  1.665657e-015
      vertex  4.000000e-001 -3.500000e+000 -2.020726e+000
    endloop
  endfacet
  facet normal -9.999999e-001  0.000000e+000  0.000000e+000
    outer loop
      vertex  4.000000e-001  3.500000e+000  2.020726e+000
      vertex  4.000000e-001  3.500000e+000 -2.020726e+000
      vertex  4.000000e-001  2.940000e+000  0.000000e+000
    endloop
  endfacet
  facet normal -1.000000e+000  0.000000e+000  0.000000e+000
    outer loop
      vertex  4.000000e-001  3.500000e+000  2.020726e+000
      vertex  4.000000e-001  2.940000e+000  0.000000e+000
      vertex  4.000000e-001  2.378510e+000  1.728089e+000
    endloop
  endfacet
  facet normal -1.000000e+000  0.000000e+000  0.000000e+000
    outer loop
      vertex  4.000000e-001  3.500000e+000  2.020726e+000
      vertex  4.000000e-001  2.378510e+000  1.728089e+000
      vertex  4.000000e-001  9.085100e-001  2.796106e+000
    endloop
  endfacet
  facet normal -1.000000e+000  0.000000e+000  0.000000e+000
    outer loop
      vertex  4.000000e-001  3.500000e+000  2.020726e+000
      vertex  4.000000e-001  9.085100e-001  2.796106e+000
      vertex  4.000000e-001 -1.776357e-015  4.041452e+000
    endloop
  endfacet
  facet normal -1.000000e+000  0.000000e+000  0.000000e+000
    outer loop
      vertex  4.000000e-001  9.085100e-001 -2.796106e+000
      vertex  4.000000e-001  3.552714e-015 -4.041452e+000
      vertex  4.000000e-001 -9.085100e-001 -2.796106e+000
    endloop
  endfacet
  facet normal -1.000000e+000  -0.000000e+000  -0.000000e+000
    outer loop
      vertex  4.000000e-001 -9.085100e-001 -2.796106e+000
      vertex  4.000000e-001  3.552714e-015 -4.041452e+000
      vertex  4.000000e-001 -3.500000e+000 -2.020726e+000
    endloop
  endfacet
  facet normal -1.000000e+000  0.000000e+000  0.000000e+000
    outer loop
      vertex  4.000000e-001 -9.085100e-001 -2.796106e+000
      vertex  4.000000e-001 -3.500000e+000 -2.020726e+000
      vertex  4.000000e-001 -2.378510e+000 -1.728089e+000
    endloop
  endfacet
  facet normal -1.000000e+000  0.000000e+000  0.000000e+000
    outer loop
      vertex  4.000000e-001  2.940000e+000  0.000000e+000
      vertex  4.000000e-001  3.500000e+000 -2.020726e+000
      vertex  4.000000e-001  2.378510e+000 -1.728089e+000
    endloop
  endfacet
  facet normal -9.999999e-001  0.000000e+000  -0.000000e+000
    outer loop
      vertex  4.000000e-001  2.378510e+000 -1.728089e+000
      vertex  4.000000e-001  3.500000e+000 -2.020726e+000
      vertex  4.000000e-001  3.552714e-015 -4.041452e+000
    endloop
  endfacet
  facet normal -1.000000e+000  0.000000e+000  0.000000e+000
    outer loop
      vertex  4.000000e-001  2.378510e+000 -1.728089e+000
      vertex  4.000000e-001  3.552714e-015 -4.041452e+000
      vertex  4.000000e-001  9.085100e-001 -2.796106e+000
    endloop
  endfacet
  facet normal  0.000000e+000  9.510565e-001 -3.090170e-001
    outer loop
      vertex  0.000000e+000  2.940000e+000  0.000000e+000
      vertex  4.000000e-001  2.940000e+000  0.000000e+000
      vertex  0.000000e+000  2.378510e+000 -1.728089e+000
    endloop
  endfacet
  facet normal  0.000000e+000  9.510565e-001 -3.090170e-001
    outer loop
      vertex  0.000000e+000  2.378510e+000 -1.728089e+000
      vertex  4.000000e-001  2.940000e+000  0.000000e+000
      vertex  4.000000e-001  2.378510e+000 -1.728089e+000
    endloop
  endfacet
  facet normal  0.000000e+000  5.877852e-001 -8.090170e-001
    outer loop
      vertex  0.000000e+000  2.378510e+000 -1.728089e+000
      vertex  4.000000e-001  2.378510e+000 -1.728089e+000
      vertex  0.000000e+000  9.085100e-001 -2.796106e+000
    endloop
  endfacet
  facet normal  0.000000e+000  5.877852e-001 -8.090170e-001
    outer loop
      vertex  0.000000e+000  9.085100e-001 -2.796106e+000
      vertex  4.000000e-001  2.378510e+000 -1.728089e+000
      vertex  4.000000e-001  9.085100e-001 -2.796106e+000
    endloop
  endfacet
  facet normal  -0.000000e+000  0.000000e+000 -1.000000e+000
    outer loop
      vertex  0.000000e+000  9.085100e-001 -2.796106e+000
      vertex  4.000000e-001  9.085100e-001 -2.796106e+000
      vertex  0.000000e+000 -9.085100e-001 -2.796106e+000
    endloop
  endfacet
  facet normal  0.000000e+000  0.000000e+000 -1.000000e+000
    outer loop
      vertex  0.000000e+000 -9.085100e-001 -2.796106e+000
      vertex  4.000000e-001  9.085100e-001 -2.796106e+000
      vertex  4.000000e-001 -9.085100e-001 -2.796106e+000
    endloop
  endfacet
  facet normal  -0.000000e+000 -5.877852e-001 -8.090170e-001
    outer loop
      vertex  0.000000e+000 -9.085100e-001 -2.796106e+000
      vertex  4.000000e-001 -9.085100e-001 -2.796106e+000
      vertex  0.000000e+000 -2.378510e+000 -1.728089e+000
    endloop
  endfacet
  facet normal  0.000000e+000 -5.877852e-001 -8.090170e-001
    outer loop
      vertex  0.000000e+000 -2.378510e+000 -1.728089e+000
      vertex  4.000000e-001 -9.085100e-001 -2.796106e+000
      vertex  4.000000e-001 -2.378510e+000 -1.728089e+000
    endloop
  endfacet
  facet normal  -0.000000e+000 -9.510565e-001 -3.090170e-001
    outer loop
      vertex  0.000000e+000 -2.378510e+000 -1.728089e+000
      vertex  4.000000e-001 -2.378510e+000 -1.728089e+000
      vertex  0.000000e+000 -2.940000e+000  1.665657e-015
    endloop
  endfacet
  facet normal  0.000000e+000 -9.510565e-001 -3.090170e-001
    outer loop
      vertex  0.000000e+000 -2.940000e+000  1.665657e-015
      vertex  4.000000e-001 -2.378510e+000 -1.728089e+000
      vertex  4.000000e-001 -2.940000e+000  1.665657e-015
    endloop
  endfacet
  facet normal  0.000000e+000 -9.510565e-001  3.090170e-001
    outer loop
      vertex  0.000000e+000 -2.940000e+000  1.665657e-015
      vertex  4.000000e-001 -2.940000e+000  1.665657e-015
      vertex  0.000000e+000 -2.378510e+000  1.728089e+000
    endloop
  endfacet
  facet normal  0.000000e+000 -9.510565e-001  3.090170e-001
    outer loop
      vertex  0.000000e+000 -2.378510e+000  1.728089e+000
      vertex  4.000000e-001 -2.940000e+000  1.665657e-015
      vertex  4.000000e-001 -2.378510e+000  1.728089e+000
    endloop
  endfacet
  facet normal  0.000000e+000 -5.877852e-001  8.090170e-001
    outer loop
      vertex  0.000000e+000 -2.378510e+000  1.728089e+000
      vertex  4.000000e-001 -2.378510e+000  1.728089e+000
      vertex  0.000000e+000 -9.085100e-001  2.796106e+000
    endloop
  endfacet
  facet normal  0.000000e+000 -5.877852e-001  8.090170e-001
    outer loop
      vertex  0.000000e+000 -9.085100e-001  2.796106e+000
      vertex  4.000000e-001 -2.378510e+000  1.728089e+000
      vertex  4.000000e-001 -9.085100e-001  2.796106e+000
    endloop
  endfacet
  facet normal  0.000000e+000  0.000000e+000  1.000000e+000
    outer loop
      vertex  0.000000e+000 -9.085100e-001  2.796106e+000
      vertex  4.000000e-001 -9.085100e-001  2.796106e+000
      vertex  0.000000e+000  9.085100e-001  2.796106e+000
    endloop
  endfacet
  facet normal  -0.000000e+000  0.000000e+000  1.000000e+000
    outer loop
      vertex  0.000000e+000  9.085100e-001  2.796106e+000
      vertex  4.000000e-001 -9.085100e-001  2.796106e+000
      vertex  4.000000e-001  9.085100e-001  2.796106e+000
    endloop
  endfacet
  facet normal  0.000000e+000  5.877852e-001  8.090170e-001
    outer loop
      vertex  0.000000e+000  9.085100e-001  2.796106e+000
      vertex  4.000000e-001  9.085100e-001  2.796106e+000
      vertex  0.000000e+000  2.378510e+000  1.728089e+000
    endloop
  endfacet
  facet normal  -0.000000e+000  5.877852e-001  8.090170e-001
    outer loop
      vertex  0.000000e+000  2.378510e+000  1.728089e+000
      vertex  4.000000e-001  9.085100e-001  2.796106e+000
      vertex  4.000000e-001  2.378510e+000  1.728089e+000
    endloop
  endfacet
  facet normal  0.000000e+000  9.510565e-001  3.090170e-001
    outer loop
      vertex  0.000000e+000  2.378510e+000  1.728089e+000
      vertex  4.000000e-001  2.378510e+000  1.728089e+000
      vertex  0.000000e+000  2.940000e+000  0.000000e+000
    endloop
  endfacet
  facet normal  -0.000000e+000  9.510565e-001  3.090170e-001
    outer loop
      vertex  0.000000e+000  2.940000e+000  0.000000e+000
      vertex  4.000000e-001  2.378510e+000  1.728089e+000
      vertex  4.000000e-001  2.940000e+000  0.000000e+000
    endloop
  endfacet
endsolid CATIA STL
