solid CATIA STL
  facet normal  -0.000000e+000  0.000000e+000  1.000000e+000
    outer loop
      vertex -2.876393e+001  3.804226e+000  9.800000e+001
      vertex -3.123607e+001  3.804226e+000  9.800000e+001
      vertex -2.676393e+001  2.351141e+000  9.800000e+001
    endloop
  endfacet
  facet normal  0.000000e+000  0.000000e+000  1.000000e+000
    outer loop
      vertex -2.676393e+001  2.351141e+000  9.800000e+001
      vertex -3.123607e+001  3.804226e+000  9.800000e+001
      vertex -3.323607e+001  2.351141e+000  9.800000e+001
    endloop
  endfacet
  facet normal  -0.000000e+000  0.000000e+000  1.000000e+000
    outer loop
      vertex -2.676393e+001  2.351141e+000  9.800000e+001
      vertex -3.323607e+001  2.351141e+000  9.800000e+001
      vertex -2.600000e+001 -9.796851e-016  9.800000e+001
    endloop
  endfacet
  facet normal  0.000000e+000  0.000000e+000  1.000000e+000
    outer loop
      vertex -2.600000e+001 -9.796851e-016  9.800000e+001
      vertex -3.323607e+001  2.351141e+000  9.800000e+001
      vertex -3.400000e+001  4.898425e-016  9.800000e+001
    endloop
  endfacet
  facet normal  0.000000e+000  0.000000e+000  1.000000e+000
    outer loop
      vertex -2.600000e+001 -9.796851e-016  9.800000e+001
      vertex -3.400000e+001  4.898425e-016  9.800000e+001
      vertex -2.676393e+001 -2.351141e+000  9.800000e+001
    endloop
  endfacet
  facet normal  0.000000e+000  0.000000e+000  1.000000e+000
    outer loop
      vertex -2.676393e+001 -2.351141e+000  9.800000e+001
      vertex -3.400000e+001  4.898425e-016  9.800000e+001
      vertex -3.323607e+001 -2.351141e+000  9.800000e+001
    endloop
  endfacet
  facet normal  -0.000000e+000  0.000000e+000  1.000000e+000
    outer loop
      vertex -2.676393e+001 -2.351141e+000  9.800000e+001
      vertex -3.323607e+001 -2.351141e+000  9.800000e+001
      vertex -2.876393e+001 -3.804226e+000  9.800000e+001
    endloop
  endfacet
  facet normal  0.000000e+000  0.000000e+000  1.000000e+000
    outer loop
      vertex -2.876393e+001 -3.804226e+000  9.800000e+001
      vertex -3.323607e+001 -2.351141e+000  9.800000e+001
      vertex -3.123607e+001 -3.804226e+000  9.800000e+001
    endloop
  endfacet
  facet normal  -0.000000e+000  0.000000e+000  1.000000e+000
    outer loop
      vertex  3.123607e+001  3.804226e+000  9.800000e+001
      vertex  2.876393e+001  3.804226e+000  9.800000e+001
      vertex  3.323607e+001  2.351141e+000  9.800000e+001
    endloop
  endfacet
  facet normal  0.000000e+000  0.000000e+000  1.000000e+000
    outer loop
      vertex  3.323607e+001  2.351141e+000  9.800000e+001
      vertex  2.876393e+001  3.804226e+000  9.800000e+001
      vertex  2.676393e+001  2.351141e+000  9.800000e+001
    endloop
  endfacet
  facet normal  -0.000000e+000  0.000000e+000  1.000000e+000
    outer loop
      vertex  3.323607e+001  2.351141e+000  9.800000e+001
      vertex  2.676393e+001  2.351141e+000  9.800000e+001
      vertex  3.400000e+001  0.000000e+000  9.800000e+001
    endloop
  endfacet
  facet normal  0.000000e+000  0.000000e+000  1.000000e+000
    outer loop
      vertex  3.400000e+001  0.000000e+000  9.800000e+001
      vertex  2.676393e+001  2.351141e+000  9.800000e+001
      vertex  2.600000e+001  4.898425e-016  9.800000e+001
    endloop
  endfacet
  facet normal  0.000000e+000  0.000000e+000  1.000000e+000
    outer loop
      vertex  3.400000e+001  0.000000e+000  9.800000e+001
      vertex  2.600000e+001  4.898425e-016  9.800000e+001
      vertex  3.323607e+001 -2.351141e+000  9.800000e+001
    endloop
  endfacet
  facet normal  0.000000e+000  0.000000e+000  1.000000e+000
    outer loop
      vertex  3.323607e+001 -2.351141e+000  9.800000e+001
      vertex  2.600000e+001  4.898425e-016  9.800000e+001
      vertex  2.676393e+001 -2.351141e+000  9.800000e+001
    endloop
  endfacet
  facet normal  -0.000000e+000  0.000000e+000  1.000000e+000
    outer loop
      vertex  3.323607e+001 -2.351141e+000  9.800000e+001
      vertex  2.676393e+001 -2.351141e+000  9.800000e+001
      vertex  3.123607e+001 -3.804226e+000  9.800000e+001
    endloop
  endfacet
  facet normal  0.000000e+000  0.000000e+000  1.000000e+000
    outer loop
      vertex  3.123607e+001 -3.804226e+000  9.800000e+001
      vertex  2.676393e+001 -2.351141e+000  9.800000e+001
      vertex  2.876393e+001 -3.804226e+000  9.800000e+001
    endloop
  endfacet
  facet normal  -0.000000e+000  0.000000e+000  1.000000e+000
    outer loop
      vertex -5.600000e+001  3.900000e+001  9.800000e+001
      vertex -5.700000e+001  3.873205e+001  9.800000e+001
      vertex -3.000000e+001  1.000000e+001  9.800000e+001
    endloop
  endfacet
  facet normal  0.000000e+000  -0.000000e+000  1.000000e+000
    outer loop
      vertex  3.000000e+001 -1.000000e+001  9.800000e+001
      vertex  5.600000e+001 -3.900000e+001  9.800000e+001
      vertex  5.700000e+001 -3.873205e+001  9.800000e+001
    endloop
  endfacet
  facet normal  0.000000e+000  -0.000000e+000  1.000000e+000
    outer loop
      vertex  3.000000e+001 -1.000000e+001  9.800000e+001
      vertex  5.700000e+001 -3.873205e+001  9.800000e+001
      vertex  5.773205e+001 -3.800000e+001  9.800000e+001
    endloop
  endfacet
  facet normal  0.000000e+000  -0.000000e+000  1.000000e+000
    outer loop
      vertex  3.000000e+001 -1.000000e+001  9.800000e+001
      vertex  5.773205e+001 -3.800000e+001  9.800000e+001
      vertex  5.800000e+001 -3.700000e+001  9.800000e+001
    endloop
  endfacet
  facet normal  0.000000e+000  0.000000e+000  1.000000e+000
    outer loop
      vertex -5.800000e+001 -3.700000e+001  9.800000e+001
      vertex -3.000000e+001 -1.000000e+001  9.800000e+001
      vertex -3.382684e+001 -9.238795e+000  9.800000e+001
    endloop
  endfacet
  facet normal  0.000000e+000  0.000000e+000  1.000000e+000
    outer loop
      vertex -5.800000e+001 -3.700000e+001  9.800000e+001
      vertex -3.382684e+001 -9.238795e+000  9.800000e+001
      vertex -3.707107e+001 -7.071068e+000  9.800000e+001
    endloop
  endfacet
  facet normal  0.000000e+000  0.000000e+000  1.000000e+000
    outer loop
      vertex -5.800000e+001 -3.700000e+001  9.800000e+001
      vertex -3.707107e+001 -7.071068e+000  9.800000e+001
      vertex -3.923880e+001 -3.826834e+000  9.800000e+001
    endloop
  endfacet
  facet normal  0.000000e+000  0.000000e+000  9.999999e-001
    outer loop
      vertex -5.800000e+001 -3.700000e+001  9.800000e+001
      vertex -3.923880e+001 -3.826834e+000  9.800000e+001
      vertex -4.000000e+001  3.673819e-015  9.800000e+001
    endloop
  endfacet
  facet normal  0.000000e+000  -0.000000e+000  1.000000e+000
    outer loop
      vertex -5.800000e+001 -3.700000e+001  9.800000e+001
      vertex -4.000000e+001  3.673819e-015  9.800000e+001
      vertex -3.923880e+001  3.826834e+000  9.800000e+001
    endloop
  endfacet
  facet normal  0.000000e+000  0.000000e+000  1.000000e+000
    outer loop
      vertex -5.800000e+001  3.700000e+001  9.800000e+001
      vertex -5.800000e+001 -3.700000e+001  9.800000e+001
      vertex -3.923880e+001  3.826834e+000  9.800000e+001
    endloop
  endfacet
  facet normal  0.000000e+000  -0.000000e+000  1.000000e+000
    outer loop
      vertex -5.800000e+001  3.700000e+001  9.800000e+001
      vertex -3.923880e+001  3.826834e+000  9.800000e+001
      vertex -3.707107e+001  7.071068e+000  9.800000e+001
    endloop
  endfacet
  facet normal  0.000000e+000  -0.000000e+000  1.000000e+000
    outer loop
      vertex -5.800000e+001  3.700000e+001  9.800000e+001
      vertex -3.707107e+001  7.071068e+000  9.800000e+001
      vertex -3.382684e+001  9.238795e+000  9.800000e+001
    endloop
  endfacet
  facet normal  0.000000e+000  -0.000000e+000  1.000000e+000
    outer loop
      vertex -5.800000e+001  3.700000e+001  9.800000e+001
      vertex -3.382684e+001  9.238795e+000  9.800000e+001
      vertex -3.000000e+001  1.000000e+001  9.800000e+001
    endloop
  endfacet
  facet normal  0.000000e+000  0.000000e+000  1.000000e+000
    outer loop
      vertex -5.800000e+001  3.700000e+001  9.800000e+001
      vertex -3.000000e+001  1.000000e+001  9.800000e+001
      vertex -5.700000e+001  3.873205e+001  9.800000e+001
    endloop
  endfacet
  facet normal  0.000000e+000  0.000000e+000  1.000000e+000
    outer loop
      vertex -5.800000e+001  3.700000e+001  9.800000e+001
      vertex -5.700000e+001  3.873205e+001  9.800000e+001
      vertex -5.773205e+001  3.800000e+001  9.800000e+001
    endloop
  endfacet
  facet normal  0.000000e+000  0.000000e+000  1.000000e+000
    outer loop
      vertex  5.800000e+001 -3.700000e+001  9.800000e+001
      vertex  3.923880e+001  3.826834e+000  9.800000e+001
      vertex  4.000000e+001 -2.449213e-015  9.800000e+001
    endloop
  endfacet
  facet normal  0.000000e+000  0.000000e+000  9.999999e-001
    outer loop
      vertex  5.800000e+001 -3.700000e+001  9.800000e+001
      vertex  4.000000e+001 -2.449213e-015  9.800000e+001
      vertex  3.923880e+001 -3.826834e+000  9.800000e+001
    endloop
  endfacet
  facet normal  0.000000e+000  0.000000e+000  1.000000e+000
    outer loop
      vertex  5.800000e+001 -3.700000e+001  9.800000e+001
      vertex  3.923880e+001 -3.826834e+000  9.800000e+001
      vertex  3.707107e+001 -7.071068e+000  9.800000e+001
    endloop
  endfacet
  facet normal  0.000000e+000  0.000000e+000  1.000000e+000
    outer loop
      vertex  5.800000e+001 -3.700000e+001  9.800000e+001
      vertex  3.707107e+001 -7.071068e+000  9.800000e+001
      vertex  3.382684e+001 -9.238795e+000  9.800000e+001
    endloop
  endfacet
  facet normal  0.000000e+000  0.000000e+000  1.000000e+000
    outer loop
      vertex  5.800000e+001 -3.700000e+001  9.800000e+001
      vertex  3.382684e+001 -9.238795e+000  9.800000e+001
      vertex  3.000000e+001 -1.000000e+001  9.800000e+001
    endloop
  endfacet
  facet normal  -0.000000e+000  0.000000e+000  1.000000e+000
    outer loop
      vertex  5.800000e+001  3.700000e+001  9.800000e+001
      vertex  3.000000e+001  1.000000e+001  9.800000e+001
      vertex  3.382684e+001  9.238795e+000  9.800000e+001
    endloop
  endfacet
  facet normal  -0.000000e+000  0.000000e+000  1.000000e+000
    outer loop
      vertex  5.800000e+001  3.700000e+001  9.800000e+001
      vertex  3.382684e+001  9.238795e+000  9.800000e+001
      vertex  3.707107e+001  7.071068e+000  9.800000e+001
    endloop
  endfacet
  facet normal  -0.000000e+000  0.000000e+000  1.000000e+000
    outer loop
      vertex  5.800000e+001  3.700000e+001  9.800000e+001
      vertex  3.707107e+001  7.071068e+000  9.800000e+001
      vertex  3.923880e+001  3.826834e+000  9.800000e+001
    endloop
  endfacet
  facet normal  -0.000000e+000  0.000000e+000  1.000000e+000
    outer loop
      vertex  5.800000e+001  3.700000e+001  9.800000e+001
      vertex  3.923880e+001  3.826834e+000  9.800000e+001
      vertex  5.800000e+001 -3.700000e+001  9.800000e+001
    endloop
  endfacet
  facet normal  0.000000e+000  0.000000e+000  1.000000e+000
    outer loop
      vertex  3.000000e+001  1.000000e+001  9.800000e+001
      vertex  5.800000e+001  3.700000e+001  9.800000e+001
      vertex  5.773205e+001  3.800000e+001  9.800000e+001
    endloop
  endfacet
  facet normal  0.000000e+000  0.000000e+000  1.000000e+000
    outer loop
      vertex  3.000000e+001  1.000000e+001  9.800000e+001
      vertex  5.773205e+001  3.800000e+001  9.800000e+001
      vertex  5.700000e+001  3.873205e+001  9.800000e+001
    endloop
  endfacet
  facet normal  0.000000e+000  0.000000e+000  1.000000e+000
    outer loop
      vertex  3.000000e+001  1.000000e+001  9.800000e+001
      vertex  5.700000e+001  3.873205e+001  9.800000e+001
      vertex  5.600000e+001  3.900000e+001  9.800000e+001
    endloop
  endfacet
  facet normal  0.000000e+000  0.000000e+000  1.000000e+000
    outer loop
      vertex  3.000000e+001  1.000000e+001  9.800000e+001
      vertex  5.600000e+001  3.900000e+001  9.800000e+001
      vertex -5.600000e+001  3.900000e+001  9.800000e+001
    endloop
  endfacet
  facet normal  0.000000e+000  0.000000e+000  1.000000e+000
    outer loop
      vertex  3.000000e+001  1.000000e+001  9.800000e+001
      vertex -5.600000e+001  3.900000e+001  9.800000e+001
      vertex -3.000000e+001  1.000000e+001  9.800000e+001
    endloop
  endfacet
  facet normal  -0.000000e+000  0.000000e+000  1.000000e+000
    outer loop
      vertex  3.000000e+001  1.000000e+001  9.800000e+001
      vertex -3.000000e+001  1.000000e+001  9.800000e+001
      vertex -2.617317e+001  9.238795e+000  9.800000e+001
    endloop
  endfacet
  facet normal  0.000000e+000  0.000000e+000  1.000000e+000
    outer loop
      vertex  3.000000e+001  1.000000e+001  9.800000e+001
      vertex -2.617317e+001  9.238795e+000  9.800000e+001
      vertex  2.617317e+001  9.238795e+000  9.800000e+001
    endloop
  endfacet
  facet normal  0.000000e+000  0.000000e+000  1.000000e+000
    outer loop
      vertex  5.600000e+001 -3.900000e+001  9.800000e+001
      vertex  3.000000e+001 -1.000000e+001  9.800000e+001
      vertex -5.600000e+001 -3.900000e+001  9.800000e+001
    endloop
  endfacet
  facet normal  0.000000e+000  0.000000e+000  1.000000e+000
    outer loop
      vertex -5.600000e+001 -3.900000e+001  9.800000e+001
      vertex  3.000000e+001 -1.000000e+001  9.800000e+001
      vertex -3.000000e+001 -1.000000e+001  9.800000e+001
    endloop
  endfacet
  facet normal  0.000000e+000  0.000000e+000  1.000000e+000
    outer loop
      vertex -5.600000e+001 -3.900000e+001  9.800000e+001
      vertex -3.000000e+001 -1.000000e+001  9.800000e+001
      vertex -5.700000e+001 -3.873205e+001  9.800000e+001
    endloop
  endfacet
  facet normal  0.000000e+000  -0.000000e+000  1.000000e+000
    outer loop
      vertex -5.700000e+001 -3.873205e+001  9.800000e+001
      vertex -3.000000e+001 -1.000000e+001  9.800000e+001
      vertex -5.800000e+001 -3.700000e+001  9.800000e+001
    endloop
  endfacet
  facet normal  0.000000e+000  0.000000e+000  1.000000e+000
    outer loop
      vertex -5.700000e+001 -3.873205e+001  9.800000e+001
      vertex -5.800000e+001 -3.700000e+001  9.800000e+001
      vertex -5.773205e+001 -3.800000e+001  9.800000e+001
    endloop
  endfacet
  facet normal  -0.000000e+000  0.000000e+000  9.999999e-001
    outer loop
      vertex  2.617317e+001  9.238795e+000  9.800000e+001
      vertex -2.617317e+001  9.238795e+000  9.800000e+001
      vertex  2.292893e+001  7.071068e+000  9.800000e+001
    endloop
  endfacet
  facet normal  0.000000e+000  0.000000e+000  1.000000e+000
    outer loop
      vertex  2.292893e+001  7.071068e+000  9.800000e+001
      vertex -2.617317e+001  9.238795e+000  9.800000e+001
      vertex -2.292893e+001  7.071068e+000  9.800000e+001
    endloop
  endfacet
  facet normal  -0.000000e+000  0.000000e+000  1.000000e+000
    outer loop
      vertex  2.292893e+001  7.071068e+000  9.800000e+001
      vertex -2.292893e+001  7.071068e+000  9.800000e+001
      vertex  2.076120e+001  3.826834e+000  9.800000e+001
    endloop
  endfacet
  facet normal  0.000000e+000  0.000000e+000  1.000000e+000
    outer loop
      vertex  2.076120e+001  3.826834e+000  9.800000e+001
      vertex -2.292893e+001  7.071068e+000  9.800000e+001
      vertex -2.076120e+001  3.826834e+000  9.800000e+001
    endloop
  endfacet
  facet normal  -0.000000e+000  0.000000e+000  1.000000e+000
    outer loop
      vertex  2.076120e+001  3.826834e+000  9.800000e+001
      vertex -2.076120e+001  3.826834e+000  9.800000e+001
      vertex  2.000000e+001  1.224606e-015  9.800000e+001
    endloop
  endfacet
  facet normal  0.000000e+000  0.000000e+000  1.000000e+000
    outer loop
      vertex  2.000000e+001  1.224606e-015  9.800000e+001
      vertex -2.076120e+001  3.826834e+000  9.800000e+001
      vertex -2.000000e+001 -2.449213e-015  9.800000e+001
    endloop
  endfacet
  facet normal  -0.000000e+000  0.000000e+000  1.000000e+000
    outer loop
      vertex  2.000000e+001  1.224606e-015  9.800000e+001
      vertex -2.000000e+001 -2.449213e-015  9.800000e+001
      vertex  2.076120e+001 -3.826834e+000  9.800000e+001
    endloop
  endfacet
  facet normal  0.000000e+000  0.000000e+000  1.000000e+000
    outer loop
      vertex  2.076120e+001 -3.826834e+000  9.800000e+001
      vertex -2.000000e+001 -2.449213e-015  9.800000e+001
      vertex -2.076120e+001 -3.826834e+000  9.800000e+001
    endloop
  endfacet
  facet normal  -0.000000e+000  0.000000e+000  1.000000e+000
    outer loop
      vertex  2.076120e+001 -3.826834e+000  9.800000e+001
      vertex -2.076120e+001 -3.826834e+000  9.800000e+001
      vertex  2.292893e+001 -7.071068e+000  9.800000e+001
    endloop
  endfacet
  facet normal  0.000000e+000  0.000000e+000  1.000000e+000
    outer loop
      vertex  2.292893e+001 -7.071068e+000  9.800000e+001
      vertex -2.076120e+001 -3.826834e+000  9.800000e+001
      vertex -2.292893e+001 -7.071068e+000  9.800000e+001
    endloop
  endfacet
  facet normal  -0.000000e+000  0.000000e+000  1.000000e+000
    outer loop
      vertex  2.292893e+001 -7.071068e+000  9.800000e+001
      vertex -2.292893e+001 -7.071068e+000  9.800000e+001
      vertex  2.617317e+001 -9.238795e+000  9.800000e+001
    endloop
  endfacet
  facet normal  0.000000e+000  0.000000e+000  9.999999e-001
    outer loop
      vertex  2.617317e+001 -9.238795e+000  9.800000e+001
      vertex -2.292893e+001 -7.071068e+000  9.800000e+001
      vertex -2.617317e+001 -9.238795e+000  9.800000e+001
    endloop
  endfacet
  facet normal  -0.000000e+000  0.000000e+000  1.000000e+000
    outer loop
      vertex  2.617317e+001 -9.238795e+000  9.800000e+001
      vertex -2.617317e+001 -9.238795e+000  9.800000e+001
      vertex  3.000000e+001 -1.000000e+001  9.800000e+001
    endloop
  endfacet
  facet normal  0.000000e+000  0.000000e+000  1.000000e+000
    outer loop
      vertex  3.000000e+001 -1.000000e+001  9.800000e+001
      vertex -2.617317e+001 -9.238795e+000  9.800000e+001
      vertex -3.000000e+001 -1.000000e+001  9.800000e+001
    endloop
  endfacet
  facet normal -5.877853e-001  8.090170e-001  0.000000e+000
    outer loop
      vertex -2.876393e+001 -3.804226e+000  9.800000e+001
      vertex -2.676393e+001 -2.351141e+000  1.000000e+002
      vertex -2.676393e+001 -2.351141e+000  9.800000e+001
    endloop
  endfacet
  facet normal -9.510566e-001  3.090167e-001  0.000000e+000
    outer loop
      vertex -2.676393e+001 -2.351141e+000  9.800000e+001
      vertex -2.676393e+001 -2.351141e+000  1.000000e+002
      vertex -2.600000e+001 -9.796851e-016  1.000000e+002
    endloop
  endfacet
  facet normal -9.510566e-001  3.090167e-001  0.000000e+000
    outer loop
      vertex -2.676393e+001 -2.351141e+000  9.800000e+001
      vertex -2.600000e+001 -9.796851e-016  1.000000e+002
      vertex -2.600000e+001 -9.796851e-016  9.800000e+001
    endloop
  endfacet
  facet normal -5.877853e-001  8.090170e-001  0.000000e+000
    outer loop
      vertex -2.676393e+001 -2.351141e+000  1.000000e+002
      vertex -2.876393e+001 -3.804226e+000  9.800000e+001
      vertex -2.876393e+001 -3.804226e+000  1.000000e+002
    endloop
  endfacet
  facet normal  0.000000e+000  1.000000e+000  0.000000e+000
    outer loop
      vertex -2.876393e+001 -3.804226e+000  1.000000e+002
      vertex -2.876393e+001 -3.804226e+000  9.800000e+001
      vertex -3.123607e+001 -3.804226e+000  9.800000e+001
    endloop
  endfacet
  facet normal  0.000000e+000  1.000000e+000  0.000000e+000
    outer loop
      vertex -2.876393e+001 -3.804226e+000  1.000000e+002
      vertex -3.123607e+001 -3.804226e+000  9.800000e+001
      vertex -3.123607e+001 -3.804226e+000  1.000000e+002
    endloop
  endfacet
  facet normal  5.877853e-001  8.090170e-001  0.000000e+000
    outer loop
      vertex -3.123607e+001 -3.804226e+000  1.000000e+002
      vertex -3.123607e+001 -3.804226e+000  9.800000e+001
      vertex -3.323607e+001 -2.351141e+000  9.800000e+001
    endloop
  endfacet
  facet normal  5.877853e-001  8.090170e-001  -0.000000e+000
    outer loop
      vertex -3.123607e+001 -3.804226e+000  1.000000e+002
      vertex -3.323607e+001 -2.351141e+000  9.800000e+001
      vertex -3.323607e+001 -2.351141e+000  1.000000e+002
    endloop
  endfacet
  facet normal  9.510566e-001  3.090167e-001  0.000000e+000
    outer loop
      vertex -3.323607e+001 -2.351141e+000  1.000000e+002
      vertex -3.323607e+001 -2.351141e+000  9.800000e+001
      vertex -3.400000e+001  4.898425e-016  9.800000e+001
    endloop
  endfacet
  facet normal  9.510566e-001  3.090167e-001  -0.000000e+000
    outer loop
      vertex -3.323607e+001 -2.351141e+000  1.000000e+002
      vertex -3.400000e+001  4.898425e-016  9.800000e+001
      vertex -3.400000e+001  4.898425e-016  1.000000e+002
    endloop
  endfacet
  facet normal  5.877853e-001 -8.090170e-001  0.000000e+000
    outer loop
      vertex -3.123607e+001  3.804226e+000  9.800000e+001
      vertex -3.323607e+001  2.351141e+000  1.000000e+002
      vertex -3.323607e+001  2.351141e+000  9.800000e+001
    endloop
  endfacet
  facet normal  9.510566e-001 -3.090167e-001  0.000000e+000
    outer loop
      vertex -3.323607e+001  2.351141e+000  9.800000e+001
      vertex -3.323607e+001  2.351141e+000  1.000000e+002
      vertex -3.400000e+001  4.898425e-016  1.000000e+002
    endloop
  endfacet
  facet normal  9.510566e-001 -3.090167e-001  0.000000e+000
    outer loop
      vertex -3.323607e+001  2.351141e+000  9.800000e+001
      vertex -3.400000e+001  4.898425e-016  1.000000e+002
      vertex -3.400000e+001  4.898425e-016  9.800000e+001
    endloop
  endfacet
  facet normal  5.877853e-001 -8.090170e-001  0.000000e+000
    outer loop
      vertex -3.323607e+001  2.351141e+000  1.000000e+002
      vertex -3.123607e+001  3.804226e+000  9.800000e+001
      vertex -3.123607e+001  3.804226e+000  1.000000e+002
    endloop
  endfacet
  facet normal  0.000000e+000 -1.000000e+000  0.000000e+000
    outer loop
      vertex -3.123607e+001  3.804226e+000  1.000000e+002
      vertex -3.123607e+001  3.804226e+000  9.800000e+001
      vertex -2.876393e+001  3.804226e+000  9.800000e+001
    endloop
  endfacet
  facet normal  0.000000e+000 -1.000000e+000  0.000000e+000
    outer loop
      vertex -3.123607e+001  3.804226e+000  1.000000e+002
      vertex -2.876393e+001  3.804226e+000  9.800000e+001
      vertex -2.876393e+001  3.804226e+000  1.000000e+002
    endloop
  endfacet
  facet normal -5.877853e-001 -8.090170e-001  -0.000000e+000
    outer loop
      vertex -2.876393e+001  3.804226e+000  1.000000e+002
      vertex -2.876393e+001  3.804226e+000  9.800000e+001
      vertex -2.676393e+001  2.351141e+000  9.800000e+001
    endloop
  endfacet
  facet normal -5.877853e-001 -8.090170e-001  0.000000e+000
    outer loop
      vertex -2.876393e+001  3.804226e+000  1.000000e+002
      vertex -2.676393e+001  2.351141e+000  9.800000e+001
      vertex -2.676393e+001  2.351141e+000  1.000000e+002
    endloop
  endfacet
  facet normal -9.510566e-001 -3.090167e-001  -0.000000e+000
    outer loop
      vertex -2.676393e+001  2.351141e+000  1.000000e+002
      vertex -2.676393e+001  2.351141e+000  9.800000e+001
      vertex -2.600000e+001 -9.796851e-016  9.800000e+001
    endloop
  endfacet
  facet normal -9.510566e-001 -3.090167e-001  0.000000e+000
    outer loop
      vertex -2.676393e+001  2.351141e+000  1.000000e+002
      vertex -2.600000e+001 -9.796851e-016  9.800000e+001
      vertex -2.600000e+001 -9.796851e-016  1.000000e+002
    endloop
  endfacet
  facet normal -9.807853e-001  1.950901e-001  2.389086e-016
    outer loop
      vertex -4.000000e+001  3.673819e-015  9.800000e+001
      vertex -4.000000e+001  1.224606e-015  1.000000e+002
      vertex -3.923880e+001  3.826834e+000  9.800000e+001
    endloop
  endfacet
  facet normal -9.807853e-001  1.950901e-001  0.000000e+000
    outer loop
      vertex -3.923880e+001  3.826834e+000  9.800000e+001
      vertex -4.000000e+001  1.224606e-015  1.000000e+002
      vertex -3.923880e+001  3.826834e+000  1.000000e+002
    endloop
  endfacet
  facet normal -8.314695e-001  5.555704e-001  0.000000e+000
    outer loop
      vertex -3.923880e+001  3.826834e+000  9.800000e+001
      vertex -3.923880e+001  3.826834e+000  1.000000e+002
      vertex -3.707107e+001  7.071068e+000  9.800000e+001
    endloop
  endfacet
  facet normal -8.314695e-001  5.555704e-001  0.000000e+000
    outer loop
      vertex -3.707107e+001  7.071068e+000  9.800000e+001
      vertex -3.923880e+001  3.826834e+000  1.000000e+002
      vertex -3.707107e+001  7.071068e+000  1.000000e+002
    endloop
  endfacet
  facet normal -5.555704e-001  8.314695e-001  0.000000e+000
    outer loop
      vertex -3.707107e+001  7.071068e+000  9.800000e+001
      vertex -3.707107e+001  7.071068e+000  1.000000e+002
      vertex -3.382684e+001  9.238795e+000  9.800000e+001
    endloop
  endfacet
  facet normal -5.555704e-001  8.314695e-001  0.000000e+000
    outer loop
      vertex -3.382684e+001  9.238795e+000  9.800000e+001
      vertex -3.707107e+001  7.071068e+000  1.000000e+002
      vertex -3.382684e+001  9.238795e+000  1.000000e+002
    endloop
  endfacet
  facet normal -1.950903e-001  9.807853e-001  0.000000e+000
    outer loop
      vertex -3.382684e+001  9.238795e+000  9.800000e+001
      vertex -3.382684e+001  9.238795e+000  1.000000e+002
      vertex -3.000000e+001  1.000000e+001  9.800000e+001
    endloop
  endfacet
  facet normal -1.950903e-001  9.807853e-001  0.000000e+000
    outer loop
      vertex -3.000000e+001  1.000000e+001  9.800000e+001
      vertex -3.382684e+001  9.238795e+000  1.000000e+002
      vertex -3.000000e+001  1.000000e+001  1.000000e+002
    endloop
  endfacet
  facet normal  1.950904e-001  9.807852e-001  0.000000e+000
    outer loop
      vertex -3.000000e+001  1.000000e+001  9.800000e+001
      vertex -3.000000e+001  1.000000e+001  1.000000e+002
      vertex -2.617317e+001  9.238795e+000  9.800000e+001
    endloop
  endfacet
  facet normal  1.950904e-001  9.807852e-001  -0.000000e+000
    outer loop
      vertex -2.617317e+001  9.238795e+000  9.800000e+001
      vertex -3.000000e+001  1.000000e+001  1.000000e+002
      vertex -2.617317e+001  9.238795e+000  1.000000e+002
    endloop
  endfacet
  facet normal  5.555701e-001  8.314697e-001  0.000000e+000
    outer loop
      vertex -2.617317e+001  9.238795e+000  9.800000e+001
      vertex -2.617317e+001  9.238795e+000  1.000000e+002
      vertex -2.292893e+001  7.071068e+000  9.800000e+001
    endloop
  endfacet
  facet normal  5.555701e-001  8.314697e-001  -0.000000e+000
    outer loop
      vertex -2.292893e+001  7.071068e+000  9.800000e+001
      vertex -2.617317e+001  9.238795e+000  1.000000e+002
      vertex -2.292893e+001  7.071068e+000  1.000000e+002
    endloop
  endfacet
  facet normal  8.314695e-001  5.555704e-001  0.000000e+000
    outer loop
      vertex -2.292893e+001  7.071068e+000  9.800000e+001
      vertex -2.292893e+001  7.071068e+000  1.000000e+002
      vertex -2.076120e+001  3.826834e+000  9.800000e+001
    endloop
  endfacet
  facet normal  8.314695e-001  5.555704e-001  -0.000000e+000
    outer loop
      vertex -2.076120e+001  3.826834e+000  9.800000e+001
      vertex -2.292893e+001  7.071068e+000  1.000000e+002
      vertex -2.076120e+001  3.826834e+000  1.000000e+002
    endloop
  endfacet
  facet normal  9.807853e-001  1.950901e-001  0.000000e+000
    outer loop
      vertex -2.076120e+001  3.826834e+000  9.800000e+001
      vertex -2.076120e+001  3.826834e+000  1.000000e+002
      vertex -2.000000e+001 -2.449213e-015  9.800000e+001
    endloop
  endfacet
  facet normal  9.807853e-001  1.950901e-001  -0.000000e+000
    outer loop
      vertex -2.000000e+001 -2.449213e-015  9.800000e+001
      vertex -2.076120e+001  3.826834e+000  1.000000e+002
      vertex -2.000000e+001 -2.449213e-015  1.000000e+002
    endloop
  endfacet
  facet normal  9.807853e-001 -1.950901e-001  0.000000e+000
    outer loop
      vertex -2.000000e+001 -2.449213e-015  9.800000e+001
      vertex -2.000000e+001 -2.449213e-015  1.000000e+002
      vertex -2.076120e+001 -3.826834e+000  9.800000e+001
    endloop
  endfacet
  facet normal  9.807853e-001 -1.950901e-001  0.000000e+000
    outer loop
      vertex -2.076120e+001 -3.826834e+000  9.800000e+001
      vertex -2.000000e+001 -2.449213e-015  1.000000e+002
      vertex -2.076120e+001 -3.826834e+000  1.000000e+002
    endloop
  endfacet
  facet normal  8.314695e-001 -5.555704e-001  0.000000e+000
    outer loop
      vertex -2.076120e+001 -3.826834e+000  9.800000e+001
      vertex -2.076120e+001 -3.826834e+000  1.000000e+002
      vertex -2.292893e+001 -7.071068e+000  9.800000e+001
    endloop
  endfacet
  facet normal  8.314695e-001 -5.555704e-001  0.000000e+000
    outer loop
      vertex -2.292893e+001 -7.071068e+000  9.800000e+001
      vertex -2.076120e+001 -3.826834e+000  1.000000e+002
      vertex -2.292893e+001 -7.071068e+000  1.000000e+002
    endloop
  endfacet
  facet normal  5.555701e-001 -8.314697e-001  0.000000e+000
    outer loop
      vertex -2.292893e+001 -7.071068e+000  9.800000e+001
      vertex -2.292893e+001 -7.071068e+000  1.000000e+002
      vertex -2.617317e+001 -9.238795e+000  9.800000e+001
    endloop
  endfacet
  facet normal  5.555701e-001 -8.314697e-001  0.000000e+000
    outer loop
      vertex -2.617317e+001 -9.238795e+000  9.800000e+001
      vertex -2.292893e+001 -7.071068e+000  1.000000e+002
      vertex -2.617317e+001 -9.238795e+000  1.000000e+002
    endloop
  endfacet
  facet normal  1.950904e-001 -9.807852e-001  0.000000e+000
    outer loop
      vertex -2.617317e+001 -9.238795e+000  9.800000e+001
      vertex -2.617317e+001 -9.238795e+000  1.000000e+002
      vertex -3.000000e+001 -1.000000e+001  9.800000e+001
    endloop
  endfacet
  facet normal  1.950904e-001 -9.807852e-001  0.000000e+000
    outer loop
      vertex -3.000000e+001 -1.000000e+001  9.800000e+001
      vertex -2.617317e+001 -9.238795e+000  1.000000e+002
      vertex -3.000000e+001 -1.000000e+001  1.000000e+002
    endloop
  endfacet
  facet normal -1.950903e-001 -9.807853e-001  -0.000000e+000
    outer loop
      vertex -3.000000e+001 -1.000000e+001  9.800000e+001
      vertex -3.000000e+001 -1.000000e+001  1.000000e+002
      vertex -3.382684e+001 -9.238795e+000  9.800000e+001
    endloop
  endfacet
  facet normal -1.950903e-001 -9.807853e-001  0.000000e+000
    outer loop
      vertex -3.382684e+001 -9.238795e+000  9.800000e+001
      vertex -3.000000e+001 -1.000000e+001  1.000000e+002
      vertex -3.382684e+001 -9.238795e+000  1.000000e+002
    endloop
  endfacet
  facet normal -5.555704e-001 -8.314695e-001  -0.000000e+000
    outer loop
      vertex -3.382684e+001 -9.238795e+000  9.800000e+001
      vertex -3.382684e+001 -9.238795e+000  1.000000e+002
      vertex -3.707107e+001 -7.071068e+000  9.800000e+001
    endloop
  endfacet
  facet normal -5.555704e-001 -8.314695e-001  0.000000e+000
    outer loop
      vertex -3.707107e+001 -7.071068e+000  9.800000e+001
      vertex -3.382684e+001 -9.238795e+000  1.000000e+002
      vertex -3.707107e+001 -7.071068e+000  1.000000e+002
    endloop
  endfacet
  facet normal -8.314695e-001 -5.555704e-001  -0.000000e+000
    outer loop
      vertex -3.707107e+001 -7.071068e+000  9.800000e+001
      vertex -3.707107e+001 -7.071068e+000  1.000000e+002
      vertex -3.923880e+001 -3.826834e+000  9.800000e+001
    endloop
  endfacet
  facet normal -8.314695e-001 -5.555704e-001  0.000000e+000
    outer loop
      vertex -3.923880e+001 -3.826834e+000  9.800000e+001
      vertex -3.707107e+001 -7.071068e+000  1.000000e+002
      vertex -3.923880e+001 -3.826834e+000  1.000000e+002
    endloop
  endfacet
  facet normal -9.807853e-001 -1.950901e-001  -0.000000e+000
    outer loop
      vertex -3.923880e+001 -3.826834e+000  9.800000e+001
      vertex -3.923880e+001 -3.826834e+000  1.000000e+002
      vertex -4.000000e+001  3.673819e-015  9.800000e+001
    endloop
  endfacet
  facet normal -9.807853e-001 -1.950901e-001 -2.389086e-016
    outer loop
      vertex -4.000000e+001  3.673819e-015  9.800000e+001
      vertex -3.923880e+001 -3.826834e+000  1.000000e+002
      vertex -4.000000e+001  1.224606e-015  1.000000e+002
    endloop
  endfacet
  facet normal  5.877853e-001 -8.090170e-001  0.000000e+000
    outer loop
      vertex  2.876393e+001  3.804226e+000  9.800000e+001
      vertex  2.676393e+001  2.351141e+000  1.000000e+002
      vertex  2.676393e+001  2.351141e+000  9.800000e+001
    endloop
  endfacet
  facet normal  9.510566e-001 -3.090167e-001  0.000000e+000
    outer loop
      vertex  2.676393e+001  2.351141e+000  9.800000e+001
      vertex  2.676393e+001  2.351141e+000  1.000000e+002
      vertex  2.600000e+001  4.898425e-016  1.000000e+002
    endloop
  endfacet
  facet normal  9.510566e-001 -3.090167e-001  0.000000e+000
    outer loop
      vertex  2.676393e+001  2.351141e+000  9.800000e+001
      vertex  2.600000e+001  4.898425e-016  1.000000e+002
      vertex  2.600000e+001  4.898425e-016  9.800000e+001
    endloop
  endfacet
  facet normal  5.877853e-001 -8.090170e-001  0.000000e+000
    outer loop
      vertex  2.676393e+001  2.351141e+000  1.000000e+002
      vertex  2.876393e+001  3.804226e+000  9.800000e+001
      vertex  2.876393e+001  3.804226e+000  1.000000e+002
    endloop
  endfacet
  facet normal  0.000000e+000 -1.000000e+000  0.000000e+000
    outer loop
      vertex  2.876393e+001  3.804226e+000  1.000000e+002
      vertex  2.876393e+001  3.804226e+000  9.800000e+001
      vertex  3.123607e+001  3.804226e+000  9.800000e+001
    endloop
  endfacet
  facet normal  0.000000e+000 -1.000000e+000  0.000000e+000
    outer loop
      vertex  2.876393e+001  3.804226e+000  1.000000e+002
      vertex  3.123607e+001  3.804226e+000  9.800000e+001
      vertex  3.123607e+001  3.804226e+000  1.000000e+002
    endloop
  endfacet
  facet normal -5.877853e-001 -8.090170e-001  -0.000000e+000
    outer loop
      vertex  3.123607e+001  3.804226e+000  1.000000e+002
      vertex  3.123607e+001  3.804226e+000  9.800000e+001
      vertex  3.323607e+001  2.351141e+000  9.800000e+001
    endloop
  endfacet
  facet normal -5.877853e-001 -8.090170e-001  0.000000e+000
    outer loop
      vertex  3.123607e+001  3.804226e+000  1.000000e+002
      vertex  3.323607e+001  2.351141e+000  9.800000e+001
      vertex  3.323607e+001  2.351141e+000  1.000000e+002
    endloop
  endfacet
  facet normal -9.510566e-001 -3.090167e-001  -0.000000e+000
    outer loop
      vertex  3.323607e+001  2.351141e+000  1.000000e+002
      vertex  3.323607e+001  2.351141e+000  9.800000e+001
      vertex  3.400000e+001  0.000000e+000  9.800000e+001
    endloop
  endfacet
  facet normal -9.510566e-001 -3.090167e-001  0.000000e+000
    outer loop
      vertex  3.323607e+001  2.351141e+000  1.000000e+002
      vertex  3.400000e+001  0.000000e+000  9.800000e+001
      vertex  3.400000e+001  0.000000e+000  1.000000e+002
    endloop
  endfacet
  facet normal -5.877853e-001  8.090170e-001  0.000000e+000
    outer loop
      vertex  3.123607e+001 -3.804226e+000  9.800000e+001
      vertex  3.323607e+001 -2.351141e+000  1.000000e+002
      vertex  3.323607e+001 -2.351141e+000  9.800000e+001
    endloop
  endfacet
  facet normal -9.510566e-001  3.090167e-001  0.000000e+000
    outer loop
      vertex  3.323607e+001 -2.351141e+000  9.800000e+001
      vertex  3.323607e+001 -2.351141e+000  1.000000e+002
      vertex  3.400000e+001  0.000000e+000  1.000000e+002
    endloop
  endfacet
  facet normal -9.510566e-001  3.090167e-001  0.000000e+000
    outer loop
      vertex  3.323607e+001 -2.351141e+000  9.800000e+001
      vertex  3.400000e+001  0.000000e+000  1.000000e+002
      vertex  3.400000e+001  0.000000e+000  9.800000e+001
    endloop
  endfacet
  facet normal -5.877853e-001  8.090170e-001  0.000000e+000
    outer loop
      vertex  3.323607e+001 -2.351141e+000  1.000000e+002
      vertex  3.123607e+001 -3.804226e+000  9.800000e+001
      vertex  3.123607e+001 -3.804226e+000  1.000000e+002
    endloop
  endfacet
  facet normal  0.000000e+000  1.000000e+000  0.000000e+000
    outer loop
      vertex  3.123607e+001 -3.804226e+000  1.000000e+002
      vertex  3.123607e+001 -3.804226e+000  9.800000e+001
      vertex  2.876393e+001 -3.804226e+000  9.800000e+001
    endloop
  endfacet
  facet normal  0.000000e+000  1.000000e+000  0.000000e+000
    outer loop
      vertex  3.123607e+001 -3.804226e+000  1.000000e+002
      vertex  2.876393e+001 -3.804226e+000  9.800000e+001
      vertex  2.876393e+001 -3.804226e+000  1.000000e+002
    endloop
  endfacet
  facet normal  5.877853e-001  8.090170e-001  0.000000e+000
    outer loop
      vertex  2.876393e+001 -3.804226e+000  1.000000e+002
      vertex  2.876393e+001 -3.804226e+000  9.800000e+001
      vertex  2.676393e+001 -2.351141e+000  9.800000e+001
    endloop
  endfacet
  facet normal  5.877853e-001  8.090170e-001  -0.000000e+000
    outer loop
      vertex  2.876393e+001 -3.804226e+000  1.000000e+002
      vertex  2.676393e+001 -2.351141e+000  9.800000e+001
      vertex  2.676393e+001 -2.351141e+000  1.000000e+002
    endloop
  endfacet
  facet normal  9.510566e-001  3.090167e-001  0.000000e+000
    outer loop
      vertex  2.676393e+001 -2.351141e+000  1.000000e+002
      vertex  2.676393e+001 -2.351141e+000  9.800000e+001
      vertex  2.600000e+001  4.898425e-016  9.800000e+001
    endloop
  endfacet
  facet normal  9.510566e-001  3.090167e-001  -0.000000e+000
    outer loop
      vertex  2.676393e+001 -2.351141e+000  1.000000e+002
      vertex  2.600000e+001  4.898425e-016  9.800000e+001
      vertex  2.600000e+001  4.898425e-016  1.000000e+002
    endloop
  endfacet
  facet normal  9.807853e-001 -1.950901e-001  2.389086e-016
    outer loop
      vertex  4.000000e+001 -2.449213e-015  9.800000e+001
      vertex  4.000000e+001  0.000000e+000  1.000000e+002
      vertex  3.923880e+001 -3.826834e+000  9.800000e+001
    endloop
  endfacet
  facet normal  9.807853e-001 -1.950901e-001  0.000000e+000
    outer loop
      vertex  3.923880e+001 -3.826834e+000  9.800000e+001
      vertex  4.000000e+001  0.000000e+000  1.000000e+002
      vertex  3.923880e+001 -3.826834e+000  1.000000e+002
    endloop
  endfacet
  facet normal  8.314695e-001 -5.555704e-001  0.000000e+000
    outer loop
      vertex  3.923880e+001 -3.826834e+000  9.800000e+001
      vertex  3.923880e+001 -3.826834e+000  1.000000e+002
      vertex  3.707107e+001 -7.071068e+000  9.800000e+001
    endloop
  endfacet
  facet normal  8.314695e-001 -5.555704e-001  0.000000e+000
    outer loop
      vertex  3.707107e+001 -7.071068e+000  9.800000e+001
      vertex  3.923880e+001 -3.826834e+000  1.000000e+002
      vertex  3.707107e+001 -7.071068e+000  1.000000e+002
    endloop
  endfacet
  facet normal  5.555704e-001 -8.314695e-001  0.000000e+000
    outer loop
      vertex  3.707107e+001 -7.071068e+000  9.800000e+001
      vertex  3.707107e+001 -7.071068e+000  1.000000e+002
      vertex  3.382684e+001 -9.238795e+000  9.800000e+001
    endloop
  endfacet
  facet normal  5.555704e-001 -8.314695e-001  0.000000e+000
    outer loop
      vertex  3.382684e+001 -9.238795e+000  9.800000e+001
      vertex  3.707107e+001 -7.071068e+000  1.000000e+002
      vertex  3.382684e+001 -9.238795e+000  1.000000e+002
    endloop
  endfacet
  facet normal  1.950903e-001 -9.807853e-001  0.000000e+000
    outer loop
      vertex  3.382684e+001 -9.238795e+000  9.800000e+001
      vertex  3.382684e+001 -9.238795e+000  1.000000e+002
      vertex  3.000000e+001 -1.000000e+001  9.800000e+001
    endloop
  endfacet
  facet normal  1.950903e-001 -9.807853e-001  0.000000e+000
    outer loop
      vertex  3.000000e+001 -1.000000e+001  9.800000e+001
      vertex  3.382684e+001 -9.238795e+000  1.000000e+002
      vertex  3.000000e+001 -1.000000e+001  1.000000e+002
    endloop
  endfacet
  facet normal -1.950904e-001 -9.807852e-001  -0.000000e+000
    outer loop
      vertex  3.000000e+001 -1.000000e+001  9.800000e+001
      vertex  3.000000e+001 -1.000000e+001  1.000000e+002
      vertex  2.617317e+001 -9.238795e+000  9.800000e+001
    endloop
  endfacet
  facet normal -1.950904e-001 -9.807852e-001  0.000000e+000
    outer loop
      vertex  2.617317e+001 -9.238795e+000  9.800000e+001
      vertex  3.000000e+001 -1.000000e+001  1.000000e+002
      vertex  2.617317e+001 -9.238795e+000  1.000000e+002
    endloop
  endfacet
  facet normal -5.555701e-001 -8.314697e-001  -0.000000e+000
    outer loop
      vertex  2.617317e+001 -9.238795e+000  9.800000e+001
      vertex  2.617317e+001 -9.238795e+000  1.000000e+002
      vertex  2.292893e+001 -7.071068e+000  9.800000e+001
    endloop
  endfacet
  facet normal -5.555701e-001 -8.314697e-001  0.000000e+000
    outer loop
      vertex  2.292893e+001 -7.071068e+000  9.800000e+001
      vertex  2.617317e+001 -9.238795e+000  1.000000e+002
      vertex  2.292893e+001 -7.071068e+000  1.000000e+002
    endloop
  endfacet
  facet normal -8.314695e-001 -5.555704e-001  -0.000000e+000
    outer loop
      vertex  2.292893e+001 -7.071068e+000  9.800000e+001
      vertex  2.292893e+001 -7.071068e+000  1.000000e+002
      vertex  2.076120e+001 -3.826834e+000  9.800000e+001
    endloop
  endfacet
  facet normal -8.314695e-001 -5.555704e-001  0.000000e+000
    outer loop
      vertex  2.076120e+001 -3.826834e+000  9.800000e+001
      vertex  2.292893e+001 -7.071068e+000  1.000000e+002
      vertex  2.076120e+001 -3.826834e+000  1.000000e+002
    endloop
  endfacet
  facet normal -9.807853e-001 -1.950901e-001  -0.000000e+000
    outer loop
      vertex  2.076120e+001 -3.826834e+000  9.800000e+001
      vertex  2.076120e+001 -3.826834e+000  1.000000e+002
      vertex  2.000000e+001  1.224606e-015  9.800000e+001
    endloop
  endfacet
  facet normal -9.807853e-001 -1.950901e-001  0.000000e+000
    outer loop
      vertex  2.000000e+001  1.224606e-015  9.800000e+001
      vertex  2.076120e+001 -3.826834e+000  1.000000e+002
      vertex  2.000000e+001  1.224606e-015  1.000000e+002
    endloop
  endfacet
  facet normal -9.807853e-001  1.950901e-001  0.000000e+000
    outer loop
      vertex  2.000000e+001  1.224606e-015  9.800000e+001
      vertex  2.000000e+001  1.224606e-015  1.000000e+002
      vertex  2.076120e+001  3.826834e+000  9.800000e+001
    endloop
  endfacet
  facet normal -9.807853e-001  1.950901e-001  0.000000e+000
    outer loop
      vertex  2.076120e+001  3.826834e+000  9.800000e+001
      vertex  2.000000e+001  1.224606e-015  1.000000e+002
      vertex  2.076120e+001  3.826834e+000  1.000000e+002
    endloop
  endfacet
  facet normal -8.314695e-001  5.555704e-001  0.000000e+000
    outer loop
      vertex  2.076120e+001  3.826834e+000  9.800000e+001
      vertex  2.076120e+001  3.826834e+000  1.000000e+002
      vertex  2.292893e+001  7.071068e+000  9.800000e+001
    endloop
  endfacet
  facet normal -8.314695e-001  5.555704e-001  0.000000e+000
    outer loop
      vertex  2.292893e+001  7.071068e+000  9.800000e+001
      vertex  2.076120e+001  3.826834e+000  1.000000e+002
      vertex  2.292893e+001  7.071068e+000  1.000000e+002
    endloop
  endfacet
  facet normal -5.555701e-001  8.314697e-001  0.000000e+000
    outer loop
      vertex  2.292893e+001  7.071068e+000  9.800000e+001
      vertex  2.292893e+001  7.071068e+000  1.000000e+002
      vertex  2.617317e+001  9.238795e+000  9.800000e+001
    endloop
  endfacet
  facet normal -5.555701e-001  8.314697e-001  0.000000e+000
    outer loop
      vertex  2.617317e+001  9.238795e+000  9.800000e+001
      vertex  2.292893e+001  7.071068e+000  1.000000e+002
      vertex  2.617317e+001  9.238795e+000  1.000000e+002
    endloop
  endfacet
  facet normal -1.950904e-001  9.807852e-001  0.000000e+000
    outer loop
      vertex  2.617317e+001  9.238795e+000  9.800000e+001
      vertex  2.617317e+001  9.238795e+000  1.000000e+002
      vertex  3.000000e+001  1.000000e+001  9.800000e+001
    endloop
  endfacet
  facet normal -1.950904e-001  9.807852e-001  0.000000e+000
    outer loop
      vertex  3.000000e+001  1.000000e+001  9.800000e+001
      vertex  2.617317e+001  9.238795e+000  1.000000e+002
      vertex  3.000000e+001  1.000000e+001  1.000000e+002
    endloop
  endfacet
  facet normal  1.950903e-001  9.807853e-001  0.000000e+000
    outer loop
      vertex  3.000000e+001  1.000000e+001  9.800000e+001
      vertex  3.000000e+001  1.000000e+001  1.000000e+002
      vertex  3.382684e+001  9.238795e+000  9.800000e+001
    endloop
  endfacet
  facet normal  1.950903e-001  9.807853e-001  -0.000000e+000
    outer loop
      vertex  3.382684e+001  9.238795e+000  9.800000e+001
      vertex  3.000000e+001  1.000000e+001  1.000000e+002
      vertex  3.382684e+001  9.238795e+000  1.000000e+002
    endloop
  endfacet
  facet normal  5.555704e-001  8.314695e-001  0.000000e+000
    outer loop
      vertex  3.382684e+001  9.238795e+000  9.800000e+001
      vertex  3.382684e+001  9.238795e+000  1.000000e+002
      vertex  3.707107e+001  7.071068e+000  9.800000e+001
    endloop
  endfacet
  facet normal  5.555704e-001  8.314695e-001  -0.000000e+000
    outer loop
      vertex  3.707107e+001  7.071068e+000  9.800000e+001
      vertex  3.382684e+001  9.238795e+000  1.000000e+002
      vertex  3.707107e+001  7.071068e+000  1.000000e+002
    endloop
  endfacet
  facet normal  8.314695e-001  5.555704e-001  0.000000e+000
    outer loop
      vertex  3.707107e+001  7.071068e+000  9.800000e+001
      vertex  3.707107e+001  7.071068e+000  1.000000e+002
      vertex  3.923880e+001  3.826834e+000  9.800000e+001
    endloop
  endfacet
  facet normal  8.314695e-001  5.555704e-001  -0.000000e+000
    outer loop
      vertex  3.923880e+001  3.826834e+000  9.800000e+001
      vertex  3.707107e+001  7.071068e+000  1.000000e+002
      vertex  3.923880e+001  3.826834e+000  1.000000e+002
    endloop
  endfacet
  facet normal  9.807853e-001  1.950901e-001  0.000000e+000
    outer loop
      vertex  3.923880e+001  3.826834e+000  9.800000e+001
      vertex  3.923880e+001  3.826834e+000  1.000000e+002
      vertex  4.000000e+001 -2.449213e-015  9.800000e+001
    endloop
  endfacet
  facet normal  9.807853e-001  1.950901e-001 -2.389086e-016
    outer loop
      vertex  4.000000e+001 -2.449213e-015  9.800000e+001
      vertex  3.923880e+001  3.826834e+000  1.000000e+002
      vertex  4.000000e+001  0.000000e+000  1.000000e+002
    endloop
  endfacet
  facet normal  0.000000e+000  0.000000e+000  9.999999e-001
    outer loop
      vertex -3.000000e+001 -1.000000e+001  1.000000e+002
      vertex -3.707107e+001 -7.071068e+000  1.000000e+002
      vertex -3.382684e+001 -9.238795e+000  1.000000e+002
    endloop
  endfacet
  facet normal  0.000000e+000  -0.000000e+000  1.000000e+000
    outer loop
      vertex -3.000000e+001 -1.000000e+001  1.000000e+002
      vertex -2.617317e+001 -9.238795e+000  1.000000e+002
      vertex -2.292893e+001 -7.071068e+000  1.000000e+002
    endloop
  endfacet
  facet normal  0.000000e+000  0.000000e+000  1.000000e+000
    outer loop
      vertex -2.292893e+001 -7.071068e+000  1.000000e+002
      vertex -2.076120e+001 -3.826834e+000  1.000000e+002
      vertex -3.000000e+001 -1.000000e+001  1.000000e+002
    endloop
  endfacet
  facet normal  0.000000e+000  0.000000e+000  1.000000e+000
    outer loop
      vertex -3.000000e+001 -1.000000e+001  1.000000e+002
      vertex -2.076120e+001 -3.826834e+000  1.000000e+002
      vertex -2.876393e+001 -3.804226e+000  1.000000e+002
    endloop
  endfacet
  facet normal  0.000000e+000  0.000000e+000  1.000000e+000
    outer loop
      vertex -3.000000e+001 -1.000000e+001  1.000000e+002
      vertex -2.876393e+001 -3.804226e+000  1.000000e+002
      vertex -3.707107e+001 -7.071068e+000  1.000000e+002
    endloop
  endfacet
  facet normal  0.000000e+000  0.000000e+000  1.000000e+000
    outer loop
      vertex -3.707107e+001 -7.071068e+000  1.000000e+002
      vertex -2.876393e+001 -3.804226e+000  1.000000e+002
      vertex -3.123607e+001 -3.804226e+000  1.000000e+002
    endloop
  endfacet
  facet normal  0.000000e+000  0.000000e+000  1.000000e+000
    outer loop
      vertex -3.707107e+001 -7.071068e+000  1.000000e+002
      vertex -3.123607e+001 -3.804226e+000  1.000000e+002
      vertex -3.923880e+001 -3.826834e+000  1.000000e+002
    endloop
  endfacet
  facet normal  0.000000e+000  0.000000e+000  1.000000e+000
    outer loop
      vertex -3.923880e+001 -3.826834e+000  1.000000e+002
      vertex -3.123607e+001 -3.804226e+000  1.000000e+002
      vertex -3.323607e+001 -2.351141e+000  1.000000e+002
    endloop
  endfacet
  facet normal  0.000000e+000  0.000000e+000  1.000000e+000
    outer loop
      vertex -2.076120e+001  3.826834e+000  1.000000e+002
      vertex -2.292893e+001  7.071068e+000  1.000000e+002
      vertex -2.876393e+001  3.804226e+000  1.000000e+002
    endloop
  endfacet
  facet normal  0.000000e+000  0.000000e+000  1.000000e+000
    outer loop
      vertex -2.876393e+001  3.804226e+000  1.000000e+002
      vertex -2.292893e+001  7.071068e+000  1.000000e+002
      vertex -2.617317e+001  9.238795e+000  1.000000e+002
    endloop
  endfacet
  facet normal  0.000000e+000  0.000000e+000  1.000000e+000
    outer loop
      vertex -2.876393e+001  3.804226e+000  1.000000e+002
      vertex -2.617317e+001  9.238795e+000  1.000000e+002
      vertex -3.123607e+001  3.804226e+000  1.000000e+002
    endloop
  endfacet
  facet normal  0.000000e+000  0.000000e+000  9.999999e-001
    outer loop
      vertex -3.123607e+001  3.804226e+000  1.000000e+002
      vertex -2.617317e+001  9.238795e+000  1.000000e+002
      vertex -3.000000e+001  1.000000e+001  1.000000e+002
    endloop
  endfacet
  facet normal  0.000000e+000  0.000000e+000  1.000000e+000
    outer loop
      vertex -3.123607e+001  3.804226e+000  1.000000e+002
      vertex -3.000000e+001  1.000000e+001  1.000000e+002
      vertex -3.923880e+001  3.826834e+000  1.000000e+002
    endloop
  endfacet
  facet normal  0.000000e+000  0.000000e+000  1.000000e+000
    outer loop
      vertex -3.923880e+001  3.826834e+000  1.000000e+002
      vertex -3.000000e+001  1.000000e+001  1.000000e+002
      vertex -3.382684e+001  9.238795e+000  1.000000e+002
    endloop
  endfacet
  facet normal  0.000000e+000  0.000000e+000  1.000000e+000
    outer loop
      vertex -3.923880e+001  3.826834e+000  1.000000e+002
      vertex -3.382684e+001  9.238795e+000  1.000000e+002
      vertex -3.707107e+001  7.071068e+000  1.000000e+002
    endloop
  endfacet
  facet normal  0.000000e+000  0.000000e+000  1.000000e+000
    outer loop
      vertex -3.123607e+001  3.804226e+000  1.000000e+002
      vertex -3.923880e+001  3.826834e+000  1.000000e+002
      vertex -3.323607e+001  2.351141e+000  1.000000e+002
    endloop
  endfacet
  facet normal  0.000000e+000  0.000000e+000  1.000000e+000
    outer loop
      vertex -3.323607e+001  2.351141e+000  1.000000e+002
      vertex -3.923880e+001  3.826834e+000  1.000000e+002
      vertex -4.000000e+001  1.224606e-015  1.000000e+002
    endloop
  endfacet
  facet normal  -0.000000e+000  0.000000e+000  9.999999e-001
    outer loop
      vertex -3.323607e+001  2.351141e+000  1.000000e+002
      vertex -4.000000e+001  1.224606e-015  1.000000e+002
      vertex -3.400000e+001  4.898425e-016  1.000000e+002
    endloop
  endfacet
  facet normal  0.000000e+000  0.000000e+000  1.000000e+000
    outer loop
      vertex -3.923880e+001 -3.826834e+000  1.000000e+002
      vertex -3.323607e+001 -2.351141e+000  1.000000e+002
      vertex -4.000000e+001  1.224606e-015  1.000000e+002
    endloop
  endfacet
  facet normal  0.000000e+000  0.000000e+000  9.999999e-001
    outer loop
      vertex -4.000000e+001  1.224606e-015  1.000000e+002
      vertex -3.323607e+001 -2.351141e+000  1.000000e+002
      vertex -3.400000e+001  4.898425e-016  1.000000e+002
    endloop
  endfacet
  facet normal  -0.000000e+000  0.000000e+000  9.999999e-001
    outer loop
      vertex -2.076120e+001  3.826834e+000  1.000000e+002
      vertex -2.876393e+001  3.804226e+000  1.000000e+002
      vertex -2.000000e+001 -2.449213e-015  1.000000e+002
    endloop
  endfacet
  facet normal  0.000000e+000  0.000000e+000  1.000000e+000
    outer loop
      vertex -2.000000e+001 -2.449213e-015  1.000000e+002
      vertex -2.876393e+001  3.804226e+000  1.000000e+002
      vertex -2.676393e+001  2.351141e+000  1.000000e+002
    endloop
  endfacet
  facet normal  0.000000e+000  0.000000e+000  9.999999e-001
    outer loop
      vertex -2.000000e+001 -2.449213e-015  1.000000e+002
      vertex -2.676393e+001  2.351141e+000  1.000000e+002
      vertex -2.600000e+001 -9.796851e-016  1.000000e+002
    endloop
  endfacet
  facet normal  0.000000e+000  0.000000e+000  9.999999e-001
    outer loop
      vertex -2.000000e+001 -2.449213e-015  1.000000e+002
      vertex -2.600000e+001 -9.796851e-016  1.000000e+002
      vertex -2.076120e+001 -3.826834e+000  1.000000e+002
    endloop
  endfacet
  facet normal  0.000000e+000  0.000000e+000  1.000000e+000
    outer loop
      vertex -2.076120e+001 -3.826834e+000  1.000000e+002
      vertex -2.600000e+001 -9.796851e-016  1.000000e+002
      vertex -2.676393e+001 -2.351141e+000  1.000000e+002
    endloop
  endfacet
  facet normal  0.000000e+000  0.000000e+000  1.000000e+000
    outer loop
      vertex -2.076120e+001 -3.826834e+000  1.000000e+002
      vertex -2.676393e+001 -2.351141e+000  1.000000e+002
      vertex -2.876393e+001 -3.804226e+000  1.000000e+002
    endloop
  endfacet
  facet normal  0.000000e+000  0.000000e+000  1.000000e+000
    outer loop
      vertex  3.000000e+001 -1.000000e+001  1.000000e+002
      vertex  2.292893e+001 -7.071068e+000  1.000000e+002
      vertex  2.617317e+001 -9.238795e+000  1.000000e+002
    endloop
  endfacet
  facet normal  0.000000e+000  -0.000000e+000  9.999999e-001
    outer loop
      vertex  3.000000e+001 -1.000000e+001  1.000000e+002
      vertex  3.382684e+001 -9.238795e+000  1.000000e+002
      vertex  3.707107e+001 -7.071068e+000  1.000000e+002
    endloop
  endfacet
  facet normal  0.000000e+000  -0.000000e+000  1.000000e+000
    outer loop
      vertex  2.076120e+001 -3.826834e+000  1.000000e+002
      vertex  2.292893e+001 -7.071068e+000  1.000000e+002
      vertex  2.876393e+001 -3.804226e+000  1.000000e+002
    endloop
  endfacet
  facet normal  0.000000e+000  0.000000e+000  1.000000e+000
    outer loop
      vertex  2.076120e+001 -3.826834e+000  1.000000e+002
      vertex  2.876393e+001 -3.804226e+000  1.000000e+002
      vertex  2.676393e+001 -2.351141e+000  1.000000e+002
    endloop
  endfacet
  facet normal  0.000000e+000  0.000000e+000  1.000000e+000
    outer loop
      vertex  2.076120e+001 -3.826834e+000  1.000000e+002
      vertex  2.676393e+001 -2.351141e+000  1.000000e+002
      vertex  2.600000e+001  4.898425e-016  1.000000e+002
    endloop
  endfacet
  facet normal  0.000000e+000  0.000000e+000  9.999999e-001
    outer loop
      vertex  2.076120e+001 -3.826834e+000  1.000000e+002
      vertex  2.600000e+001  4.898425e-016  1.000000e+002
      vertex  2.000000e+001  1.224606e-015  1.000000e+002
    endloop
  endfacet
  facet normal  0.000000e+000  0.000000e+000  1.000000e+000
    outer loop
      vertex  3.707107e+001 -7.071068e+000  1.000000e+002
      vertex  3.923880e+001 -3.826834e+000  1.000000e+002
      vertex  3.000000e+001 -1.000000e+001  1.000000e+002
    endloop
  endfacet
  facet normal  0.000000e+000  0.000000e+000  1.000000e+000
    outer loop
      vertex  3.000000e+001 -1.000000e+001  1.000000e+002
      vertex  3.923880e+001 -3.826834e+000  1.000000e+002
      vertex  3.123607e+001 -3.804226e+000  1.000000e+002
    endloop
  endfacet
  facet normal  0.000000e+000  0.000000e+000  1.000000e+000
    outer loop
      vertex  3.000000e+001 -1.000000e+001  1.000000e+002
      vertex  3.123607e+001 -3.804226e+000  1.000000e+002
      vertex  2.292893e+001 -7.071068e+000  1.000000e+002
    endloop
  endfacet
  facet normal  0.000000e+000  0.000000e+000  1.000000e+000
    outer loop
      vertex  2.292893e+001 -7.071068e+000  1.000000e+002
      vertex  3.123607e+001 -3.804226e+000  1.000000e+002
      vertex  2.876393e+001 -3.804226e+000  1.000000e+002
    endloop
  endfacet
  facet normal  0.000000e+000  0.000000e+000  1.000000e+000
    outer loop
      vertex  3.923880e+001  3.826834e+000  1.000000e+002
      vertex  3.707107e+001  7.071068e+000  1.000000e+002
      vertex  3.123607e+001  3.804226e+000  1.000000e+002
    endloop
  endfacet
  facet normal  0.000000e+000  0.000000e+000  9.999999e-001
    outer loop
      vertex  3.123607e+001  3.804226e+000  1.000000e+002
      vertex  3.707107e+001  7.071068e+000  1.000000e+002
      vertex  3.382684e+001  9.238795e+000  1.000000e+002
    endloop
  endfacet
  facet normal  0.000000e+000  0.000000e+000  1.000000e+000
    outer loop
      vertex  3.123607e+001  3.804226e+000  1.000000e+002
      vertex  3.382684e+001  9.238795e+000  1.000000e+002
      vertex  2.876393e+001  3.804226e+000  1.000000e+002
    endloop
  endfacet
  facet normal  0.000000e+000  0.000000e+000  1.000000e+000
    outer loop
      vertex  2.876393e+001  3.804226e+000  1.000000e+002
      vertex  3.382684e+001  9.238795e+000  1.000000e+002
      vertex  3.000000e+001  1.000000e+001  1.000000e+002
    endloop
  endfacet
  facet normal  0.000000e+000  0.000000e+000  1.000000e+000
    outer loop
      vertex  2.876393e+001  3.804226e+000  1.000000e+002
      vertex  3.000000e+001  1.000000e+001  1.000000e+002
      vertex  2.076120e+001  3.826834e+000  1.000000e+002
    endloop
  endfacet
  facet normal  0.000000e+000  0.000000e+000  1.000000e+000
    outer loop
      vertex  2.076120e+001  3.826834e+000  1.000000e+002
      vertex  3.000000e+001  1.000000e+001  1.000000e+002
      vertex  2.617317e+001  9.238795e+000  1.000000e+002
    endloop
  endfacet
  facet normal  0.000000e+000  0.000000e+000  1.000000e+000
    outer loop
      vertex  2.076120e+001  3.826834e+000  1.000000e+002
      vertex  2.617317e+001  9.238795e+000  1.000000e+002
      vertex  2.292893e+001  7.071068e+000  1.000000e+002
    endloop
  endfacet
  facet normal  0.000000e+000  0.000000e+000  1.000000e+000
    outer loop
      vertex  2.876393e+001  3.804226e+000  1.000000e+002
      vertex  2.076120e+001  3.826834e+000  1.000000e+002
      vertex  2.676393e+001  2.351141e+000  1.000000e+002
    endloop
  endfacet
  facet normal  0.000000e+000  0.000000e+000  1.000000e+000
    outer loop
      vertex  2.676393e+001  2.351141e+000  1.000000e+002
      vertex  2.076120e+001  3.826834e+000  1.000000e+002
      vertex  2.000000e+001  1.224606e-015  1.000000e+002
    endloop
  endfacet
  facet normal  -0.000000e+000  0.000000e+000  9.999999e-001
    outer loop
      vertex  2.676393e+001  2.351141e+000  1.000000e+002
      vertex  2.000000e+001  1.224606e-015  1.000000e+002
      vertex  2.600000e+001  4.898425e-016  1.000000e+002
    endloop
  endfacet
  facet normal  -0.000000e+000  0.000000e+000  9.999999e-001
    outer loop
      vertex  3.923880e+001  3.826834e+000  1.000000e+002
      vertex  3.123607e+001  3.804226e+000  1.000000e+002
      vertex  4.000000e+001  0.000000e+000  1.000000e+002
    endloop
  endfacet
  facet normal  0.000000e+000  0.000000e+000  1.000000e+000
    outer loop
      vertex  4.000000e+001  0.000000e+000  1.000000e+002
      vertex  3.123607e+001  3.804226e+000  1.000000e+002
      vertex  3.323607e+001  2.351141e+000  1.000000e+002
    endloop
  endfacet
  facet normal  0.000000e+000  0.000000e+000  9.999999e-001
    outer loop
      vertex  4.000000e+001  0.000000e+000  1.000000e+002
      vertex  3.323607e+001  2.351141e+000  1.000000e+002
      vertex  3.400000e+001  0.000000e+000  1.000000e+002
    endloop
  endfacet
  facet normal  -0.000000e+000  0.000000e+000  9.999999e-001
    outer loop
      vertex  4.000000e+001  0.000000e+000  1.000000e+002
      vertex  3.400000e+001  0.000000e+000  1.000000e+002
      vertex  3.923880e+001 -3.826834e+000  1.000000e+002
    endloop
  endfacet
  facet normal  0.000000e+000  0.000000e+000  1.000000e+000
    outer loop
      vertex  3.923880e+001 -3.826834e+000  1.000000e+002
      vertex  3.400000e+001  0.000000e+000  1.000000e+002
      vertex  3.323607e+001 -2.351141e+000  1.000000e+002
    endloop
  endfacet
  facet normal  0.000000e+000  0.000000e+000  1.000000e+000
    outer loop
      vertex  3.923880e+001 -3.826834e+000  1.000000e+002
      vertex  3.323607e+001 -2.351141e+000  1.000000e+002
      vertex  3.123607e+001 -3.804226e+000  1.000000e+002
    endloop
  endfacet
  facet normal  2.588198e-001  9.659256e-001  0.000000e+000
    outer loop
      vertex  5.600000e+001  4.100000e+001  0.000000e+000
      vertex  5.600000e+001  4.100000e+001  9.600000e+001
      vertex  5.800000e+001  4.046410e+001  0.000000e+000
    endloop
  endfacet
  facet normal  2.588198e-001  9.659256e-001  -0.000000e+000
    outer loop
      vertex  5.800000e+001  4.046410e+001  0.000000e+000
      vertex  5.600000e+001  4.100000e+001  9.600000e+001
      vertex  5.800000e+001  4.046410e+001  9.600000e+001
    endloop
  endfacet
  facet normal  7.071068e-001  7.071068e-001  0.000000e+000
    outer loop
      vertex  5.800000e+001  4.046410e+001  0.000000e+000
      vertex  5.800000e+001  4.046410e+001  9.600000e+001
      vertex  5.946410e+001  3.900000e+001  0.000000e+000
    endloop
  endfacet
  facet normal  7.071068e-001  7.071068e-001  -0.000000e+000
    outer loop
      vertex  5.946410e+001  3.900000e+001  0.000000e+000
      vertex  5.800000e+001  4.046410e+001  9.600000e+001
      vertex  5.946410e+001  3.900000e+001  9.600000e+001
    endloop
  endfacet
  facet normal  9.659256e-001  2.588198e-001  0.000000e+000
    outer loop
      vertex  5.946410e+001  3.900000e+001  0.000000e+000
      vertex  5.946410e+001  3.900000e+001  9.600000e+001
      vertex  6.000000e+001  3.700000e+001  0.000000e+000
    endloop
  endfacet
  facet normal  9.659256e-001  2.588198e-001  -0.000000e+000
    outer loop
      vertex  6.000000e+001  3.700000e+001  0.000000e+000
      vertex  5.946410e+001  3.900000e+001  9.600000e+001
      vertex  6.000000e+001  3.700000e+001  9.600000e+001
    endloop
  endfacet
  facet normal  0.000000e+000  1.000000e+000  0.000000e+000
    outer loop
      vertex -5.600000e+001  4.100000e+001  9.600000e+001
      vertex  5.600000e+001  4.100000e+001  9.600000e+001
      vertex -5.600000e+001  4.100000e+001  0.000000e+000
    endloop
  endfacet
  facet normal  0.000000e+000  1.000000e+000  0.000000e+000
    outer loop
      vertex -5.600000e+001  4.100000e+001  0.000000e+000
      vertex  5.600000e+001  4.100000e+001  9.600000e+001
      vertex  5.600000e+001  4.100000e+001  0.000000e+000
    endloop
  endfacet
  facet normal  1.000000e+000  0.000000e+000  0.000000e+000
    outer loop
      vertex  6.000000e+001  3.700000e+001  0.000000e+000
      vertex  6.000000e+001  3.700000e+001  9.600000e+001
      vertex  6.000000e+001 -3.700000e+001  0.000000e+000
    endloop
  endfacet
  facet normal  1.000000e+000  0.000000e+000  0.000000e+000
    outer loop
      vertex  6.000000e+001 -3.700000e+001  0.000000e+000
      vertex  6.000000e+001  3.700000e+001  9.600000e+001
      vertex  6.000000e+001 -3.700000e+001  9.600000e+001
    endloop
  endfacet
  facet normal -9.659256e-001  2.588198e-001  0.000000e+000
    outer loop
      vertex -6.000000e+001  3.700000e+001  0.000000e+000
      vertex -6.000000e+001  3.700000e+001  9.600000e+001
      vertex -5.946410e+001  3.900000e+001  0.000000e+000
    endloop
  endfacet
  facet normal -9.659256e-001  2.588198e-001  0.000000e+000
    outer loop
      vertex -5.946410e+001  3.900000e+001  0.000000e+000
      vertex -6.000000e+001  3.700000e+001  9.600000e+001
      vertex -5.946410e+001  3.900000e+001  9.600000e+001
    endloop
  endfacet
  facet normal -7.071068e-001  7.071068e-001  0.000000e+000
    outer loop
      vertex -5.946410e+001  3.900000e+001  0.000000e+000
      vertex -5.946410e+001  3.900000e+001  9.600000e+001
      vertex -5.800000e+001  4.046410e+001  0.000000e+000
    endloop
  endfacet
  facet normal -7.071068e-001  7.071068e-001  0.000000e+000
    outer loop
      vertex -5.800000e+001  4.046410e+001  0.000000e+000
      vertex -5.946410e+001  3.900000e+001  9.600000e+001
      vertex -5.800000e+001  4.046410e+001  9.600000e+001
    endloop
  endfacet
  facet normal -2.588198e-001  9.659256e-001  0.000000e+000
    outer loop
      vertex -5.800000e+001  4.046410e+001  0.000000e+000
      vertex -5.800000e+001  4.046410e+001  9.600000e+001
      vertex -5.600000e+001  4.100000e+001  0.000000e+000
    endloop
  endfacet
  facet normal -2.588198e-001  9.659256e-001  0.000000e+000
    outer loop
      vertex -5.600000e+001  4.100000e+001  0.000000e+000
      vertex -5.800000e+001  4.046410e+001  9.600000e+001
      vertex -5.600000e+001  4.100000e+001  9.600000e+001
    endloop
  endfacet
  facet normal -1.000000e+000  0.000000e+000  0.000000e+000
    outer loop
      vertex -6.000000e+001 -3.700000e+001  0.000000e+000
      vertex -6.000000e+001 -3.700000e+001  9.600000e+001
      vertex -6.000000e+001  3.700000e+001  0.000000e+000
    endloop
  endfacet
  facet normal -1.000000e+000  0.000000e+000  0.000000e+000
    outer loop
      vertex -6.000000e+001  3.700000e+001  0.000000e+000
      vertex -6.000000e+001 -3.700000e+001  9.600000e+001
      vertex -6.000000e+001  3.700000e+001  9.600000e+001
    endloop
  endfacet
  facet normal  9.659256e-001 -2.588198e-001  0.000000e+000
    outer loop
      vertex  6.000000e+001 -3.700000e+001  0.000000e+000
      vertex  6.000000e+001 -3.700000e+001  9.600000e+001
      vertex  5.946410e+001 -3.900000e+001  0.000000e+000
    endloop
  endfacet
  facet normal  9.659256e-001 -2.588198e-001  0.000000e+000
    outer loop
      vertex  5.946410e+001 -3.900000e+001  0.000000e+000
      vertex  6.000000e+001 -3.700000e+001  9.600000e+001
      vertex  5.946410e+001 -3.900000e+001  9.600000e+001
    endloop
  endfacet
  facet normal  7.071068e-001 -7.071068e-001  0.000000e+000
    outer loop
      vertex  5.946410e+001 -3.900000e+001  0.000000e+000
      vertex  5.946410e+001 -3.900000e+001  9.600000e+001
      vertex  5.800000e+001 -4.046410e+001  0.000000e+000
    endloop
  endfacet
  facet normal  7.071068e-001 -7.071068e-001  0.000000e+000
    outer loop
      vertex  5.800000e+001 -4.046410e+001  0.000000e+000
      vertex  5.946410e+001 -3.900000e+001  9.600000e+001
      vertex  5.800000e+001 -4.046410e+001  9.600000e+001
    endloop
  endfacet
  facet normal  2.588198e-001 -9.659256e-001  0.000000e+000
    outer loop
      vertex  5.800000e+001 -4.046410e+001  0.000000e+000
      vertex  5.800000e+001 -4.046410e+001  9.600000e+001
      vertex  5.600000e+001 -4.100000e+001  0.000000e+000
    endloop
  endfacet
  facet normal  2.588198e-001 -9.659256e-001  0.000000e+000
    outer loop
      vertex  5.600000e+001 -4.100000e+001  0.000000e+000
      vertex  5.800000e+001 -4.046410e+001  9.600000e+001
      vertex  5.600000e+001 -4.100000e+001  9.600000e+001
    endloop
  endfacet
  facet normal  0.000000e+000 -1.000000e+000  0.000000e+000
    outer loop
      vertex  5.600000e+001 -4.100000e+001  9.600000e+001
      vertex -5.600000e+001 -4.100000e+001  9.600000e+001
      vertex  5.600000e+001 -4.100000e+001  0.000000e+000
    endloop
  endfacet
  facet normal  0.000000e+000 -1.000000e+000  0.000000e+000
    outer loop
      vertex  5.600000e+001 -4.100000e+001  0.000000e+000
      vertex -5.600000e+001 -4.100000e+001  9.600000e+001
      vertex -5.600000e+001 -4.100000e+001  0.000000e+000
    endloop
  endfacet
  facet normal -2.588198e-001 -9.659256e-001  -0.000000e+000
    outer loop
      vertex -5.600000e+001 -4.100000e+001  0.000000e+000
      vertex -5.600000e+001 -4.100000e+001  9.600000e+001
      vertex -5.800000e+001 -4.046410e+001  0.000000e+000
    endloop
  endfacet
  facet normal -2.588198e-001 -9.659256e-001  0.000000e+000
    outer loop
      vertex -5.800000e+001 -4.046410e+001  0.000000e+000
      vertex -5.600000e+001 -4.100000e+001  9.600000e+001
      vertex -5.800000e+001 -4.046410e+001  9.600000e+001
    endloop
  endfacet
  facet normal -7.071068e-001 -7.071068e-001  -0.000000e+000
    outer loop
      vertex -5.800000e+001 -4.046410e+001  0.000000e+000
      vertex -5.800000e+001 -4.046410e+001  9.600000e+001
      vertex -5.946410e+001 -3.900000e+001  0.000000e+000
    endloop
  endfacet
  facet normal -7.071068e-001 -7.071068e-001  0.000000e+000
    outer loop
      vertex -5.946410e+001 -3.900000e+001  0.000000e+000
      vertex -5.800000e+001 -4.046410e+001  9.600000e+001
      vertex -5.946410e+001 -3.900000e+001  9.600000e+001
    endloop
  endfacet
  facet normal -9.659256e-001 -2.588198e-001  -0.000000e+000
    outer loop
      vertex -5.946410e+001 -3.900000e+001  0.000000e+000
      vertex -5.946410e+001 -3.900000e+001  9.600000e+001
      vertex -6.000000e+001 -3.700000e+001  0.000000e+000
    endloop
  endfacet
  facet normal -9.659256e-001 -2.588198e-001  0.000000e+000
    outer loop
      vertex -6.000000e+001 -3.700000e+001  0.000000e+000
      vertex -5.946410e+001 -3.900000e+001  9.600000e+001
      vertex -6.000000e+001 -3.700000e+001  9.600000e+001
    endloop
  endfacet
  facet normal  1.020041e-001  3.806862e-001  9.190611e-001
    outer loop
      vertex  5.600000e+001  3.900000e+001  9.800000e+001
      vertex  5.700000e+001  3.873205e+001  9.800000e+001
      vertex  5.600000e+001  4.041422e+001  9.741422e+001
    endloop
  endfacet
  facet normal  1.020052e-001  3.806867e-001  9.190608e-001
    outer loop
      vertex  5.600000e+001  4.041422e+001  9.741422e+001
      vertex  5.700000e+001  3.873205e+001  9.800000e+001
      vertex  5.770711e+001  3.995679e+001  9.741422e+001
    endloop
  endfacet
  facet normal  2.403004e-001  8.968090e-001  3.714691e-001
    outer loop
      vertex  5.600000e+001  4.041422e+001  9.741422e+001
      vertex  5.770711e+001  3.995679e+001  9.741422e+001
      vertex  5.600000e+001  4.100000e+001  9.600000e+001
    endloop
  endfacet
  facet normal  2.403000e-001  8.968089e-001  3.714696e-001
    outer loop
      vertex  5.600000e+001  4.100000e+001  9.600000e+001
      vertex  5.770711e+001  3.995679e+001  9.741422e+001
      vertex  5.800000e+001  4.046410e+001  9.600000e+001
    endloop
  endfacet
  facet normal  3.806871e-001  1.020044e-001  9.190606e-001
    outer loop
      vertex  5.773205e+001  3.800000e+001  9.800000e+001
      vertex  5.800000e+001  3.700000e+001  9.800000e+001
      vertex  5.895679e+001  3.870711e+001  9.741422e+001
    endloop
  endfacet
  facet normal  3.806861e-001  1.020050e-001  9.190609e-001
    outer loop
      vertex  5.895679e+001  3.870711e+001  9.741422e+001
      vertex  5.800000e+001  3.700000e+001  9.800000e+001
      vertex  5.941422e+001  3.700000e+001  9.741422e+001
    endloop
  endfacet
  facet normal  8.968089e-001  2.403004e-001  3.714696e-001
    outer loop
      vertex  5.895679e+001  3.870711e+001  9.741422e+001
      vertex  5.941422e+001  3.700000e+001  9.741422e+001
      vertex  5.946410e+001  3.900000e+001  9.600000e+001
    endloop
  endfacet
  facet normal  8.968091e-001  2.403000e-001  3.714691e-001
    outer loop
      vertex  5.946410e+001  3.900000e+001  9.600000e+001
      vertex  5.941422e+001  3.700000e+001  9.741422e+001
      vertex  6.000000e+001  3.700000e+001  9.600000e+001
    endloop
  endfacet
  facet normal  2.786820e-001  2.786820e-001  9.190608e-001
    outer loop
      vertex  5.700000e+001  3.873205e+001  9.800000e+001
      vertex  5.773205e+001  3.800000e+001  9.800000e+001
      vertex  5.770711e+001  3.995679e+001  9.741422e+001
    endloop
  endfacet
  facet normal  2.786820e-001  2.786820e-001  9.190608e-001
    outer loop
      vertex  5.770711e+001  3.995679e+001  9.741422e+001
      vertex  5.773205e+001  3.800000e+001  9.800000e+001
      vertex  5.895679e+001  3.870711e+001  9.741422e+001
    endloop
  endfacet
  facet normal  6.565099e-001  6.565099e-001  3.714694e-001
    outer loop
      vertex  5.770711e+001  3.995679e+001  9.741422e+001
      vertex  5.895679e+001  3.870711e+001  9.741422e+001
      vertex  5.800000e+001  4.046410e+001  9.600000e+001
    endloop
  endfacet
  facet normal  6.565099e-001  6.565099e-001  3.714694e-001
    outer loop
      vertex  5.800000e+001  4.046410e+001  9.600000e+001
      vertex  5.895679e+001  3.870711e+001  9.741422e+001
      vertex  5.946410e+001  3.900000e+001  9.600000e+001
    endloop
  endfacet
  facet normal  9.238800e-001  0.000000e+000  3.826822e-001
    outer loop
      vertex  6.000000e+001 -3.700000e+001  9.600000e+001
      vertex  6.000000e+001  3.700000e+001  9.600000e+001
      vertex  5.941422e+001 -3.700000e+001  9.741422e+001
    endloop
  endfacet
  facet normal  9.238800e-001  -0.000000e+000  3.826822e-001
    outer loop
      vertex  5.941422e+001 -3.700000e+001  9.741422e+001
      vertex  6.000000e+001  3.700000e+001  9.600000e+001
      vertex  5.941422e+001  3.700000e+001  9.741422e+001
    endloop
  endfacet
  facet normal  3.826822e-001  0.000000e+000  9.238800e-001
    outer loop
      vertex  5.941422e+001 -3.700000e+001  9.741422e+001
      vertex  5.941422e+001  3.700000e+001  9.741422e+001
      vertex  5.800000e+001 -3.700000e+001  9.800000e+001
    endloop
  endfacet
  facet normal  3.826822e-001  -0.000000e+000  9.238800e-001
    outer loop
      vertex  5.800000e+001 -3.700000e+001  9.800000e+001
      vertex  5.941422e+001  3.700000e+001  9.741422e+001
      vertex  5.800000e+001  3.700000e+001  9.800000e+001
    endloop
  endfacet
  facet normal  3.806862e-001 -1.020041e-001  9.190611e-001
    outer loop
      vertex  5.800000e+001 -3.700000e+001  9.800000e+001
      vertex  5.773205e+001 -3.800000e+001  9.800000e+001
      vertex  5.941422e+001 -3.700000e+001  9.741422e+001
    endloop
  endfacet
  facet normal  3.806867e-001 -1.020052e-001  9.190608e-001
    outer loop
      vertex  5.941422e+001 -3.700000e+001  9.741422e+001
      vertex  5.773205e+001 -3.800000e+001  9.800000e+001
      vertex  5.895679e+001 -3.870711e+001  9.741422e+001
    endloop
  endfacet
  facet normal  8.968090e-001 -2.403004e-001  3.714691e-001
    outer loop
      vertex  5.941422e+001 -3.700000e+001  9.741422e+001
      vertex  5.895679e+001 -3.870711e+001  9.741422e+001
      vertex  6.000000e+001 -3.700000e+001  9.600000e+001
    endloop
  endfacet
  facet normal  8.968089e-001 -2.403000e-001  3.714696e-001
    outer loop
      vertex  6.000000e+001 -3.700000e+001  9.600000e+001
      vertex  5.895679e+001 -3.870711e+001  9.741422e+001
      vertex  5.946410e+001 -3.900000e+001  9.600000e+001
    endloop
  endfacet
  facet normal  1.020044e-001 -3.806871e-001  9.190606e-001
    outer loop
      vertex  5.700000e+001 -3.873205e+001  9.800000e+001
      vertex  5.600000e+001 -3.900000e+001  9.800000e+001
      vertex  5.770711e+001 -3.995679e+001  9.741422e+001
    endloop
  endfacet
  facet normal  1.020050e-001 -3.806861e-001  9.190609e-001
    outer loop
      vertex  5.770711e+001 -3.995679e+001  9.741422e+001
      vertex  5.600000e+001 -3.900000e+001  9.800000e+001
      vertex  5.600000e+001 -4.041422e+001  9.741422e+001
    endloop
  endfacet
  facet normal  2.403004e-001 -8.968089e-001  3.714696e-001
    outer loop
      vertex  5.770711e+001 -3.995679e+001  9.741422e+001
      vertex  5.600000e+001 -4.041422e+001  9.741422e+001
      vertex  5.800000e+001 -4.046410e+001  9.600000e+001
    endloop
  endfacet
  facet normal  2.403000e-001 -8.968091e-001  3.714691e-001
    outer loop
      vertex  5.800000e+001 -4.046410e+001  9.600000e+001
      vertex  5.600000e+001 -4.041422e+001  9.741422e+001
      vertex  5.600000e+001 -4.100000e+001  9.600000e+001
    endloop
  endfacet
  facet normal  2.786820e-001 -2.786820e-001  9.190608e-001
    outer loop
      vertex  5.773205e+001 -3.800000e+001  9.800000e+001
      vertex  5.700000e+001 -3.873205e+001  9.800000e+001
      vertex  5.895679e+001 -3.870711e+001  9.741422e+001
    endloop
  endfacet
  facet normal  2.786820e-001 -2.786820e-001  9.190608e-001
    outer loop
      vertex  5.895679e+001 -3.870711e+001  9.741422e+001
      vertex  5.700000e+001 -3.873205e+001  9.800000e+001
      vertex  5.770711e+001 -3.995679e+001  9.741422e+001
    endloop
  endfacet
  facet normal  6.565099e-001 -6.565099e-001  3.714694e-001
    outer loop
      vertex  5.895679e+001 -3.870711e+001  9.741422e+001
      vertex  5.770711e+001 -3.995679e+001  9.741422e+001
      vertex  5.946410e+001 -3.900000e+001  9.600000e+001
    endloop
  endfacet
  facet normal  6.565099e-001 -6.565099e-001  3.714694e-001
    outer loop
      vertex  5.946410e+001 -3.900000e+001  9.600000e+001
      vertex  5.770711e+001 -3.995679e+001  9.741422e+001
      vertex  5.800000e+001 -4.046410e+001  9.600000e+001
    endloop
  endfacet
  facet normal  0.000000e+000 -9.238801e-001  3.826823e-001
    outer loop
      vertex -5.600000e+001 -4.100000e+001  9.600000e+001
      vertex  5.600000e+001 -4.100000e+001  9.600000e+001
      vertex -5.600000e+001 -4.041422e+001  9.741422e+001
    endloop
  endfacet
  facet normal  0.000000e+000 -9.238801e-001  3.826823e-001
    outer loop
      vertex -5.600000e+001 -4.041422e+001  9.741422e+001
      vertex  5.600000e+001 -4.100000e+001  9.600000e+001
      vertex  5.600000e+001 -4.041422e+001  9.741422e+001
    endloop
  endfacet
  facet normal  0.000000e+000 -3.826823e-001  9.238801e-001
    outer loop
      vertex -5.600000e+001 -4.041422e+001  9.741422e+001
      vertex  5.600000e+001 -4.041422e+001  9.741422e+001
      vertex -5.600000e+001 -3.900000e+001  9.800000e+001
    endloop
  endfacet
  facet normal  0.000000e+000 -3.826823e-001  9.238801e-001
    outer loop
      vertex -5.600000e+001 -3.900000e+001  9.800000e+001
      vertex  5.600000e+001 -4.041422e+001  9.741422e+001
      vertex  5.600000e+001 -3.900000e+001  9.800000e+001
    endloop
  endfacet
  facet normal -1.020041e-001 -3.806862e-001  9.190611e-001
    outer loop
      vertex -5.600000e+001 -3.900000e+001  9.800000e+001
      vertex -5.700000e+001 -3.873205e+001  9.800000e+001
      vertex -5.600000e+001 -4.041422e+001  9.741422e+001
    endloop
  endfacet
  facet normal -1.020052e-001 -3.806867e-001  9.190608e-001
    outer loop
      vertex -5.600000e+001 -4.041422e+001  9.741422e+001
      vertex -5.700000e+001 -3.873205e+001  9.800000e+001
      vertex -5.770711e+001 -3.995679e+001  9.741422e+001
    endloop
  endfacet
  facet normal -2.403004e-001 -8.968090e-001  3.714691e-001
    outer loop
      vertex -5.600000e+001 -4.041422e+001  9.741422e+001
      vertex -5.770711e+001 -3.995679e+001  9.741422e+001
      vertex -5.600000e+001 -4.100000e+001  9.600000e+001
    endloop
  endfacet
  facet normal -2.403000e-001 -8.968089e-001  3.714696e-001
    outer loop
      vertex -5.600000e+001 -4.100000e+001  9.600000e+001
      vertex -5.770711e+001 -3.995679e+001  9.741422e+001
      vertex -5.800000e+001 -4.046410e+001  9.600000e+001
    endloop
  endfacet
  facet normal -3.806871e-001 -1.020044e-001  9.190606e-001
    outer loop
      vertex -5.773205e+001 -3.800000e+001  9.800000e+001
      vertex -5.800000e+001 -3.700000e+001  9.800000e+001
      vertex -5.895679e+001 -3.870711e+001  9.741422e+001
    endloop
  endfacet
  facet normal -3.806861e-001 -1.020050e-001  9.190609e-001
    outer loop
      vertex -5.895679e+001 -3.870711e+001  9.741422e+001
      vertex -5.800000e+001 -3.700000e+001  9.800000e+001
      vertex -5.941422e+001 -3.700000e+001  9.741422e+001
    endloop
  endfacet
  facet normal -8.968089e-001 -2.403004e-001  3.714696e-001
    outer loop
      vertex -5.895679e+001 -3.870711e+001  9.741422e+001
      vertex -5.941422e+001 -3.700000e+001  9.741422e+001
      vertex -5.946410e+001 -3.900000e+001  9.600000e+001
    endloop
  endfacet
  facet normal -8.968091e-001 -2.403000e-001  3.714691e-001
    outer loop
      vertex -5.946410e+001 -3.900000e+001  9.600000e+001
      vertex -5.941422e+001 -3.700000e+001  9.741422e+001
      vertex -6.000000e+001 -3.700000e+001  9.600000e+001
    endloop
  endfacet
  facet normal -2.786820e-001 -2.786820e-001  9.190608e-001
    outer loop
      vertex -5.700000e+001 -3.873205e+001  9.800000e+001
      vertex -5.773205e+001 -3.800000e+001  9.800000e+001
      vertex -5.770711e+001 -3.995679e+001  9.741422e+001
    endloop
  endfacet
  facet normal -2.786820e-001 -2.786820e-001  9.190608e-001
    outer loop
      vertex -5.770711e+001 -3.995679e+001  9.741422e+001
      vertex -5.773205e+001 -3.800000e+001  9.800000e+001
      vertex -5.895679e+001 -3.870711e+001  9.741422e+001
    endloop
  endfacet
  facet normal -6.565099e-001 -6.565099e-001  3.714694e-001
    outer loop
      vertex -5.770711e+001 -3.995679e+001  9.741422e+001
      vertex -5.895679e+001 -3.870711e+001  9.741422e+001
      vertex -5.800000e+001 -4.046410e+001  9.600000e+001
    endloop
  endfacet
  facet normal -6.565099e-001 -6.565099e-001  3.714694e-001
    outer loop
      vertex -5.800000e+001 -4.046410e+001  9.600000e+001
      vertex -5.895679e+001 -3.870711e+001  9.741422e+001
      vertex -5.946410e+001 -3.900000e+001  9.600000e+001
    endloop
  endfacet
  facet normal -9.238800e-001  0.000000e+000  3.826822e-001
    outer loop
      vertex -6.000000e+001  3.700000e+001  9.600000e+001
      vertex -6.000000e+001 -3.700000e+001  9.600000e+001
      vertex -5.941422e+001  3.700000e+001  9.741422e+001
    endloop
  endfacet
  facet normal -9.238800e-001  0.000000e+000  3.826822e-001
    outer loop
      vertex -5.941422e+001  3.700000e+001  9.741422e+001
      vertex -6.000000e+001 -3.700000e+001  9.600000e+001
      vertex -5.941422e+001 -3.700000e+001  9.741422e+001
    endloop
  endfacet
  facet normal -3.826822e-001  0.000000e+000  9.238800e-001
    outer loop
      vertex -5.941422e+001  3.700000e+001  9.741422e+001
      vertex -5.941422e+001 -3.700000e+001  9.741422e+001
      vertex -5.800000e+001  3.700000e+001  9.800000e+001
    endloop
  endfacet
  facet normal -3.826822e-001  0.000000e+000  9.238800e-001
    outer loop
      vertex -5.800000e+001  3.700000e+001  9.800000e+001
      vertex -5.941422e+001 -3.700000e+001  9.741422e+001
      vertex -5.800000e+001 -3.700000e+001  9.800000e+001
    endloop
  endfacet
  facet normal -3.806862e-001  1.020041e-001  9.190611e-001
    outer loop
      vertex -5.800000e+001  3.700000e+001  9.800000e+001
      vertex -5.773205e+001  3.800000e+001  9.800000e+001
      vertex -5.941422e+001  3.700000e+001  9.741422e+001
    endloop
  endfacet
  facet normal -3.806867e-001  1.020052e-001  9.190608e-001
    outer loop
      vertex -5.941422e+001  3.700000e+001  9.741422e+001
      vertex -5.773205e+001  3.800000e+001  9.800000e+001
      vertex -5.895679e+001  3.870711e+001  9.741422e+001
    endloop
  endfacet
  facet normal -8.968090e-001  2.403004e-001  3.714691e-001
    outer loop
      vertex -5.941422e+001  3.700000e+001  9.741422e+001
      vertex -5.895679e+001  3.870711e+001  9.741422e+001
      vertex -6.000000e+001  3.700000e+001  9.600000e+001
    endloop
  endfacet
  facet normal -8.968089e-001  2.403000e-001  3.714696e-001
    outer loop
      vertex -6.000000e+001  3.700000e+001  9.600000e+001
      vertex -5.895679e+001  3.870711e+001  9.741422e+001
      vertex -5.946410e+001  3.900000e+001  9.600000e+001
    endloop
  endfacet
  facet normal -1.020044e-001  3.806871e-001  9.190606e-001
    outer loop
      vertex -5.700000e+001  3.873205e+001  9.800000e+001
      vertex -5.600000e+001  3.900000e+001  9.800000e+001
      vertex -5.770711e+001  3.995679e+001  9.741422e+001
    endloop
  endfacet
  facet normal -1.020050e-001  3.806861e-001  9.190609e-001
    outer loop
      vertex -5.770711e+001  3.995679e+001  9.741422e+001
      vertex -5.600000e+001  3.900000e+001  9.800000e+001
      vertex -5.600000e+001  4.041422e+001  9.741422e+001
    endloop
  endfacet
  facet normal -2.403004e-001  8.968089e-001  3.714696e-001
    outer loop
      vertex -5.770711e+001  3.995679e+001  9.741422e+001
      vertex -5.600000e+001  4.041422e+001  9.741422e+001
      vertex -5.800000e+001  4.046410e+001  9.600000e+001
    endloop
  endfacet
  facet normal -2.403000e-001  8.968091e-001  3.714691e-001
    outer loop
      vertex -5.800000e+001  4.046410e+001  9.600000e+001
      vertex -5.600000e+001  4.041422e+001  9.741422e+001
      vertex -5.600000e+001  4.100000e+001  9.600000e+001
    endloop
  endfacet
  facet normal -2.786820e-001  2.786820e-001  9.190608e-001
    outer loop
      vertex -5.773205e+001  3.800000e+001  9.800000e+001
      vertex -5.700000e+001  3.873205e+001  9.800000e+001
      vertex -5.895679e+001  3.870711e+001  9.741422e+001
    endloop
  endfacet
  facet normal -2.786820e-001  2.786820e-001  9.190608e-001
    outer loop
      vertex -5.895679e+001  3.870711e+001  9.741422e+001
      vertex -5.700000e+001  3.873205e+001  9.800000e+001
      vertex -5.770711e+001  3.995679e+001  9.741422e+001
    endloop
  endfacet
  facet normal -6.565099e-001  6.565099e-001  3.714694e-001
    outer loop
      vertex -5.895679e+001  3.870711e+001  9.741422e+001
      vertex -5.770711e+001  3.995679e+001  9.741422e+001
      vertex -5.946410e+001  3.900000e+001  9.600000e+001
    endloop
  endfacet
  facet normal -6.565099e-001  6.565099e-001  3.714694e-001
    outer loop
      vertex -5.946410e+001  3.900000e+001  9.600000e+001
      vertex -5.770711e+001  3.995679e+001  9.741422e+001
      vertex -5.800000e+001  4.046410e+001  9.600000e+001
    endloop
  endfacet
  facet normal  0.000000e+000  3.826823e-001  9.238801e-001
    outer loop
      vertex -5.600000e+001  3.900000e+001  9.800000e+001
      vertex  5.600000e+001  3.900000e+001  9.800000e+001
      vertex -5.600000e+001  4.041422e+001  9.741422e+001
    endloop
  endfacet
  facet normal  -0.000000e+000  3.826823e-001  9.238801e-001
    outer loop
      vertex -5.600000e+001  4.041422e+001  9.741422e+001
      vertex  5.600000e+001  3.900000e+001  9.800000e+001
      vertex  5.600000e+001  4.041422e+001  9.741422e+001
    endloop
  endfacet
  facet normal  0.000000e+000  9.238801e-001  3.826823e-001
    outer loop
      vertex -5.600000e+001  4.041422e+001  9.741422e+001
      vertex  5.600000e+001  4.041422e+001  9.741422e+001
      vertex -5.600000e+001  4.100000e+001  9.600000e+001
    endloop
  endfacet
  facet normal  -0.000000e+000  9.238801e-001  3.826823e-001
    outer loop
      vertex -5.600000e+001  4.100000e+001  9.600000e+001
      vertex  5.600000e+001  4.041422e+001  9.741422e+001
      vertex  5.600000e+001  4.100000e+001  9.600000e+001
    endloop
  endfacet
  facet normal  0.000000e+000  0.000000e+000 -1.000000e+000
    outer loop
      vertex  6.000000e+001  3.700000e+001  0.000000e+000
      vertex -5.946410e+001  3.900000e+001  0.000000e+000
      vertex  5.946410e+001  3.900000e+001  0.000000e+000
    endloop
  endfacet
  facet normal  0.000000e+000  0.000000e+000 -1.000000e+000
    outer loop
      vertex  5.946410e+001  3.900000e+001  0.000000e+000
      vertex -5.946410e+001  3.900000e+001  0.000000e+000
      vertex -5.800000e+001  4.046410e+001  0.000000e+000
    endloop
  endfacet
  facet normal  0.000000e+000  0.000000e+000 -1.000000e+000
    outer loop
      vertex  5.946410e+001  3.900000e+001  0.000000e+000
      vertex -5.800000e+001  4.046410e+001  0.000000e+000
      vertex  5.800000e+001  4.046410e+001  0.000000e+000
    endloop
  endfacet
  facet normal  0.000000e+000  0.000000e+000 -1.000000e+000
    outer loop
      vertex  5.800000e+001  4.046410e+001  0.000000e+000
      vertex -5.800000e+001  4.046410e+001  0.000000e+000
      vertex -5.600000e+001  4.100000e+001  0.000000e+000
    endloop
  endfacet
  facet normal  0.000000e+000  0.000000e+000 -1.000000e+000
    outer loop
      vertex  5.800000e+001  4.046410e+001  0.000000e+000
      vertex -5.600000e+001  4.100000e+001  0.000000e+000
      vertex  5.600000e+001  4.100000e+001  0.000000e+000
    endloop
  endfacet
  facet normal  0.000000e+000  0.000000e+000 -1.000000e+000
    outer loop
      vertex -5.946410e+001  3.900000e+001  0.000000e+000
      vertex  6.000000e+001  3.700000e+001  0.000000e+000
      vertex -6.000000e+001  3.700000e+001  0.000000e+000
    endloop
  endfacet
  facet normal  0.000000e+000  0.000000e+000 -1.000000e+000
    outer loop
      vertex -6.000000e+001  3.700000e+001  0.000000e+000
      vertex  6.000000e+001  3.700000e+001  0.000000e+000
      vertex  6.000000e+001 -3.700000e+001  0.000000e+000
    endloop
  endfacet
  facet normal  0.000000e+000  0.000000e+000 -1.000000e+000
    outer loop
      vertex -6.000000e+001  3.700000e+001  0.000000e+000
      vertex  6.000000e+001 -3.700000e+001  0.000000e+000
      vertex -6.000000e+001 -3.700000e+001  0.000000e+000
    endloop
  endfacet
  facet normal  0.000000e+000  0.000000e+000 -1.000000e+000
    outer loop
      vertex -6.000000e+001 -3.700000e+001  0.000000e+000
      vertex  6.000000e+001 -3.700000e+001  0.000000e+000
      vertex  5.946410e+001 -3.900000e+001  0.000000e+000
    endloop
  endfacet
  facet normal  0.000000e+000  0.000000e+000 -1.000000e+000
    outer loop
      vertex -6.000000e+001 -3.700000e+001  0.000000e+000
      vertex  5.946410e+001 -3.900000e+001  0.000000e+000
      vertex -5.946410e+001 -3.900000e+001  0.000000e+000
    endloop
  endfacet
  facet normal  0.000000e+000  0.000000e+000 -1.000000e+000
    outer loop
      vertex -5.946410e+001 -3.900000e+001  0.000000e+000
      vertex  5.946410e+001 -3.900000e+001  0.000000e+000
      vertex  5.800000e+001 -4.046410e+001  0.000000e+000
    endloop
  endfacet
  facet normal  0.000000e+000  0.000000e+000 -1.000000e+000
    outer loop
      vertex -5.946410e+001 -3.900000e+001  0.000000e+000
      vertex  5.800000e+001 -4.046410e+001  0.000000e+000
      vertex -5.800000e+001 -4.046410e+001  0.000000e+000
    endloop
  endfacet
  facet normal  0.000000e+000  0.000000e+000 -1.000000e+000
    outer loop
      vertex -5.800000e+001 -4.046410e+001  0.000000e+000
      vertex  5.800000e+001 -4.046410e+001  0.000000e+000
      vertex  5.600000e+001 -4.100000e+001  0.000000e+000
    endloop
  endfacet
  facet normal  0.000000e+000  0.000000e+000 -1.000000e+000
    outer loop
      vertex -5.800000e+001 -4.046410e+001  0.000000e+000
      vertex  5.600000e+001 -4.100000e+001  0.000000e+000
      vertex -5.600000e+001 -4.100000e+001  0.000000e+000
    endloop
  endfacet
endsolid CATIA STL
