solid CATIA STL
  facet normal  0.000000e+000  0.000000e+000 -1.000000e+000
    outer loop
      vertex -4.000000e+001  2.500000e+000  0.000000e+000
      vertex -4.052520e+001  4.116409e+000  0.000000e+000
      vertex  3.500000e+001  1.515000e+001  0.000000e+000
    endloop
  endfacet
  facet normal  0.000000e+000  0.000000e+000 -1.000000e+000
    outer loop
      vertex -5.150000e+001  1.065814e-014  0.000000e+000
      vertex -4.359980e+001  5.115406e+000  0.000000e+000
      vertex -4.497480e+001  4.116409e+000  0.000000e+000
    endloop
  endfacet
  facet normal  0.000000e+000  0.000000e+000 -1.000000e+000
    outer loop
      vertex -5.150000e+001  1.065814e-014  0.000000e+000
      vertex -4.497480e+001  4.116409e+000  0.000000e+000
      vertex -4.550000e+001  2.500000e+000  0.000000e+000
    endloop
  endfacet
  facet normal  0.000000e+000  -0.000000e+000 -1.000000e+000
    outer loop
      vertex -5.150000e+001  1.065814e-014  0.000000e+000
      vertex -4.550000e+001  2.500000e+000  0.000000e+000
      vertex -4.497480e+001  8.835906e-001  0.000000e+000
    endloop
  endfacet
  facet normal  0.000000e+000  -0.000000e+000 -1.000000e+000
    outer loop
      vertex -5.150000e+001  1.065814e-014  0.000000e+000
      vertex -4.497480e+001  8.835906e-001  0.000000e+000
      vertex -4.359980e+001 -1.154054e-001  0.000000e+000
    endloop
  endfacet
  facet normal  -0.000000e+000  0.000000e+000 -1.000000e+000
    outer loop
      vertex -5.150000e+001  1.065814e-014  0.000000e+000
      vertex -4.359980e+001 -1.154054e-001  0.000000e+000
      vertex -5.150000e+001 -1.000000e+001  0.000000e+000
    endloop
  endfacet
  facet normal  0.000000e+000  0.000000e+000 -1.000000e+000
    outer loop
      vertex -5.150000e+001  1.000000e+001  0.000000e+000
      vertex -3.500000e+001  1.515000e+001  0.000000e+000
      vertex -4.190020e+001  5.115406e+000  0.000000e+000
    endloop
  endfacet
  facet normal  0.000000e+000  0.000000e+000 -1.000000e+000
    outer loop
      vertex -5.150000e+001  1.000000e+001  0.000000e+000
      vertex -4.190020e+001  5.115406e+000  0.000000e+000
      vertex -4.359980e+001  5.115406e+000  0.000000e+000
    endloop
  endfacet
  facet normal  -0.000000e+000  0.000000e+000 -1.000000e+000
    outer loop
      vertex -5.150000e+001  1.000000e+001  0.000000e+000
      vertex -4.359980e+001  5.115406e+000  0.000000e+000
      vertex -5.150000e+001  1.065814e-014  0.000000e+000
    endloop
  endfacet
  facet normal  0.000000e+000  0.000000e+000 -1.000000e+000
    outer loop
      vertex  5.150000e+001 -1.102182e-014  0.000000e+000
      vertex  5.150000e+001 -1.000000e+001  0.000000e+000
      vertex  4.497480e+001 -8.835906e-001  0.000000e+000
    endloop
  endfacet
  facet normal  0.000000e+000  0.000000e+000 -1.000000e+000
    outer loop
      vertex  5.150000e+001 -1.102182e-014  0.000000e+000
      vertex  4.497480e+001 -8.835906e-001  0.000000e+000
      vertex  4.359980e+001  1.154054e-001  0.000000e+000
    endloop
  endfacet
  facet normal  0.000000e+000  0.000000e+000 -1.000000e+000
    outer loop
      vertex  5.150000e+001 -1.102182e-014  0.000000e+000
      vertex  4.359980e+001  1.154054e-001  0.000000e+000
      vertex  5.150000e+001  1.000000e+001  0.000000e+000
    endloop
  endfacet
  facet normal  0.000000e+000  -0.000000e+000 -1.000000e+000
    outer loop
      vertex  3.500000e+001 -1.515000e+001  0.000000e+000
      vertex  4.000000e+001 -2.500000e+000  0.000000e+000
      vertex  4.052520e+001 -4.116409e+000  0.000000e+000
    endloop
  endfacet
  facet normal  0.000000e+000  -0.000000e+000 -1.000000e+000
    outer loop
      vertex  3.500000e+001 -1.515000e+001  0.000000e+000
      vertex  4.052520e+001 -4.116409e+000  0.000000e+000
      vertex  4.190020e+001 -5.115406e+000  0.000000e+000
    endloop
  endfacet
  facet normal  0.000000e+000  -0.000000e+000 -1.000000e+000
    outer loop
      vertex  3.500000e+001 -1.515000e+001  0.000000e+000
      vertex  4.190020e+001 -5.115406e+000  0.000000e+000
      vertex  4.359980e+001 -5.115406e+000  0.000000e+000
    endloop
  endfacet
  facet normal  0.000000e+000  -0.000000e+000 -1.000000e+000
    outer loop
      vertex  3.500000e+001 -1.515000e+001  0.000000e+000
      vertex  4.359980e+001 -5.115406e+000  0.000000e+000
      vertex  5.150000e+001 -1.000000e+001  0.000000e+000
    endloop
  endfacet
  facet normal  0.000000e+000  -0.000000e+000 -9.999999e-001
    outer loop
      vertex -4.190020e+001 -1.154054e-001  0.000000e+000
      vertex -4.052520e+001  8.835906e-001  0.000000e+000
      vertex  4.190020e+001  1.154054e-001  0.000000e+000
    endloop
  endfacet
  facet normal  0.000000e+000  0.000000e+000 -9.999999e-001
    outer loop
      vertex -4.190020e+001 -1.154054e-001  0.000000e+000
      vertex  4.190020e+001  1.154054e-001  0.000000e+000
      vertex  4.052520e+001 -8.835906e-001  0.000000e+000
    endloop
  endfacet
  facet normal  -0.000000e+000  0.000000e+000 -1.000000e+000
    outer loop
      vertex -4.190020e+001 -1.154054e-001  0.000000e+000
      vertex  4.052520e+001 -8.835906e-001  0.000000e+000
      vertex  4.000000e+001 -2.500000e+000  0.000000e+000
    endloop
  endfacet
  facet normal  -0.000000e+000  0.000000e+000 -1.000000e+000
    outer loop
      vertex -4.190020e+001 -1.154054e-001  0.000000e+000
      vertex  4.000000e+001 -2.500000e+000  0.000000e+000
      vertex  3.500000e+001 -1.515000e+001  0.000000e+000
    endloop
  endfacet
  facet normal  0.000000e+000  0.000000e+000 -1.000000e+000
    outer loop
      vertex -4.190020e+001 -1.154054e-001  0.000000e+000
      vertex  3.500000e+001 -1.515000e+001  0.000000e+000
      vertex  2.550000e+001 -1.515000e+001  0.000000e+000
    endloop
  endfacet
  facet normal  0.000000e+000  0.000000e+000 -1.000000e+000
    outer loop
      vertex -4.190020e+001 -1.154054e-001  0.000000e+000
      vertex  2.550000e+001 -1.515000e+001  0.000000e+000
      vertex  2.450000e+001 -1.515000e+001  0.000000e+000
    endloop
  endfacet
  facet normal  0.000000e+000  0.000000e+000 -1.000000e+000
    outer loop
      vertex -4.190020e+001 -1.154054e-001  0.000000e+000
      vertex  2.450000e+001 -1.515000e+001  0.000000e+000
      vertex  1.550000e+001 -1.515000e+001  0.000000e+000
    endloop
  endfacet
  facet normal  0.000000e+000  0.000000e+000 -1.000000e+000
    outer loop
      vertex -4.190020e+001 -1.154054e-001  0.000000e+000
      vertex  1.550000e+001 -1.515000e+001  0.000000e+000
      vertex  1.450000e+001 -1.515000e+001  0.000000e+000
    endloop
  endfacet
  facet normal  0.000000e+000  0.000000e+000 -1.000000e+000
    outer loop
      vertex -4.190020e+001 -1.154054e-001  0.000000e+000
      vertex  1.450000e+001 -1.515000e+001  0.000000e+000
      vertex  5.500000e+000 -1.515000e+001  0.000000e+000
    endloop
  endfacet
  facet normal  0.000000e+000  0.000000e+000 -1.000000e+000
    outer loop
      vertex -4.190020e+001 -1.154054e-001  0.000000e+000
      vertex  5.500000e+000 -1.515000e+001  0.000000e+000
      vertex  4.500000e+000 -1.515000e+001  0.000000e+000
    endloop
  endfacet
  facet normal  0.000000e+000  0.000000e+000 -1.000000e+000
    outer loop
      vertex -4.190020e+001 -1.154054e-001  0.000000e+000
      vertex  4.500000e+000 -1.515000e+001  0.000000e+000
      vertex  0.000000e+000 -1.515000e+001  0.000000e+000
    endloop
  endfacet
  facet normal  0.000000e+000  0.000000e+000 -1.000000e+000
    outer loop
      vertex -4.190020e+001 -1.154054e-001  0.000000e+000
      vertex  0.000000e+000 -1.515000e+001  0.000000e+000
      vertex -4.500000e+000 -1.515000e+001  0.000000e+000
    endloop
  endfacet
  facet normal  0.000000e+000  0.000000e+000 -1.000000e+000
    outer loop
      vertex -4.190020e+001 -1.154054e-001  0.000000e+000
      vertex -4.500000e+000 -1.515000e+001  0.000000e+000
      vertex -5.500000e+000 -1.515000e+001  0.000000e+000
    endloop
  endfacet
  facet normal  0.000000e+000  0.000000e+000 -1.000000e+000
    outer loop
      vertex -4.190020e+001 -1.154054e-001  0.000000e+000
      vertex -5.500000e+000 -1.515000e+001  0.000000e+000
      vertex -1.450000e+001 -1.515000e+001  0.000000e+000
    endloop
  endfacet
  facet normal  0.000000e+000  0.000000e+000 -1.000000e+000
    outer loop
      vertex -4.190020e+001 -1.154054e-001  0.000000e+000
      vertex -1.450000e+001 -1.515000e+001  0.000000e+000
      vertex -1.550000e+001 -1.515000e+001  0.000000e+000
    endloop
  endfacet
  facet normal  0.000000e+000  0.000000e+000 -1.000000e+000
    outer loop
      vertex -4.190020e+001 -1.154054e-001  0.000000e+000
      vertex -1.550000e+001 -1.515000e+001  0.000000e+000
      vertex -2.450000e+001 -1.515000e+001  0.000000e+000
    endloop
  endfacet
  facet normal  0.000000e+000  0.000000e+000 -1.000000e+000
    outer loop
      vertex -4.190020e+001 -1.154054e-001  0.000000e+000
      vertex -2.450000e+001 -1.515000e+001  0.000000e+000
      vertex -2.550000e+001 -1.515000e+001  0.000000e+000
    endloop
  endfacet
  facet normal  0.000000e+000  0.000000e+000 -1.000000e+000
    outer loop
      vertex -4.190020e+001 -1.154054e-001  0.000000e+000
      vertex -2.550000e+001 -1.515000e+001  0.000000e+000
      vertex -3.500000e+001 -1.515000e+001  0.000000e+000
    endloop
  endfacet
  facet normal  0.000000e+000  0.000000e+000 -1.000000e+000
    outer loop
      vertex -4.190020e+001 -1.154054e-001  0.000000e+000
      vertex -3.500000e+001 -1.515000e+001  0.000000e+000
      vertex -5.150000e+001 -1.000000e+001  0.000000e+000
    endloop
  endfacet
  facet normal  0.000000e+000  0.000000e+000 -1.000000e+000
    outer loop
      vertex -4.190020e+001 -1.154054e-001  0.000000e+000
      vertex -5.150000e+001 -1.000000e+001  0.000000e+000
      vertex -4.359980e+001 -1.154054e-001  0.000000e+000
    endloop
  endfacet
  facet normal  0.000000e+000  -0.000000e+000 -1.000000e+000
    outer loop
      vertex -4.190020e+001  5.115406e+000  0.000000e+000
      vertex -3.500000e+001  1.515000e+001  0.000000e+000
      vertex -2.550000e+001  1.515000e+001  0.000000e+000
    endloop
  endfacet
  facet normal  0.000000e+000  -0.000000e+000 -1.000000e+000
    outer loop
      vertex -4.190020e+001  5.115406e+000  0.000000e+000
      vertex -2.550000e+001  1.515000e+001  0.000000e+000
      vertex -2.450000e+001  1.515000e+001  0.000000e+000
    endloop
  endfacet
  facet normal  0.000000e+000  -0.000000e+000 -9.999999e-001
    outer loop
      vertex -4.190020e+001  5.115406e+000  0.000000e+000
      vertex -2.450000e+001  1.515000e+001  0.000000e+000
      vertex -1.550000e+001  1.515000e+001  0.000000e+000
    endloop
  endfacet
  facet normal  0.000000e+000  -0.000000e+000 -1.000000e+000
    outer loop
      vertex -4.190020e+001  5.115406e+000  0.000000e+000
      vertex -1.550000e+001  1.515000e+001  0.000000e+000
      vertex -1.450000e+001  1.515000e+001  0.000000e+000
    endloop
  endfacet
  facet normal  0.000000e+000  -0.000000e+000 -9.999999e-001
    outer loop
      vertex -4.190020e+001  5.115406e+000  0.000000e+000
      vertex -1.450000e+001  1.515000e+001  0.000000e+000
      vertex -5.500000e+000  1.515000e+001  0.000000e+000
    endloop
  endfacet
  facet normal  0.000000e+000  -0.000000e+000 -1.000000e+000
    outer loop
      vertex -4.190020e+001  5.115406e+000  0.000000e+000
      vertex -5.500000e+000  1.515000e+001  0.000000e+000
      vertex -4.500000e+000  1.515000e+001  0.000000e+000
    endloop
  endfacet
  facet normal  0.000000e+000  -0.000000e+000 -9.999999e-001
    outer loop
      vertex -4.190020e+001  5.115406e+000  0.000000e+000
      vertex -4.500000e+000  1.515000e+001  0.000000e+000
      vertex  0.000000e+000  1.515000e+001  0.000000e+000
    endloop
  endfacet
  facet normal  0.000000e+000  -0.000000e+000 -9.999999e-001
    outer loop
      vertex -4.190020e+001  5.115406e+000  0.000000e+000
      vertex  0.000000e+000  1.515000e+001  0.000000e+000
      vertex  4.500000e+000  1.515000e+001  0.000000e+000
    endloop
  endfacet
  facet normal  0.000000e+000  -0.000000e+000 -1.000000e+000
    outer loop
      vertex -4.190020e+001  5.115406e+000  0.000000e+000
      vertex  4.500000e+000  1.515000e+001  0.000000e+000
      vertex  5.500000e+000  1.515000e+001  0.000000e+000
    endloop
  endfacet
  facet normal  0.000000e+000  -0.000000e+000 -9.999999e-001
    outer loop
      vertex -4.190020e+001  5.115406e+000  0.000000e+000
      vertex  5.500000e+000  1.515000e+001  0.000000e+000
      vertex  1.450000e+001  1.515000e+001  0.000000e+000
    endloop
  endfacet
  facet normal  0.000000e+000  -0.000000e+000 -1.000000e+000
    outer loop
      vertex -4.190020e+001  5.115406e+000  0.000000e+000
      vertex  1.450000e+001  1.515000e+001  0.000000e+000
      vertex  1.550000e+001  1.515000e+001  0.000000e+000
    endloop
  endfacet
  facet normal  0.000000e+000  -0.000000e+000 -9.999999e-001
    outer loop
      vertex -4.190020e+001  5.115406e+000  0.000000e+000
      vertex  1.550000e+001  1.515000e+001  0.000000e+000
      vertex  2.450000e+001  1.515000e+001  0.000000e+000
    endloop
  endfacet
  facet normal  0.000000e+000  -0.000000e+000 -1.000000e+000
    outer loop
      vertex -4.190020e+001  5.115406e+000  0.000000e+000
      vertex  2.450000e+001  1.515000e+001  0.000000e+000
      vertex  2.550000e+001  1.515000e+001  0.000000e+000
    endloop
  endfacet
  facet normal  0.000000e+000  -0.000000e+000 -1.000000e+000
    outer loop
      vertex -4.190020e+001  5.115406e+000  0.000000e+000
      vertex  2.550000e+001  1.515000e+001  0.000000e+000
      vertex  3.500000e+001  1.515000e+001  0.000000e+000
    endloop
  endfacet
  facet normal  0.000000e+000  0.000000e+000 -1.000000e+000
    outer loop
      vertex -4.190020e+001  5.115406e+000  0.000000e+000
      vertex  3.500000e+001  1.515000e+001  0.000000e+000
      vertex -4.052520e+001  4.116409e+000  0.000000e+000
    endloop
  endfacet
  facet normal  0.000000e+000  0.000000e+000 -1.000000e+000
    outer loop
      vertex  5.150000e+001 -1.000000e+001  0.000000e+000
      vertex  4.359980e+001 -5.115406e+000  0.000000e+000
      vertex  4.497480e+001 -4.116409e+000  0.000000e+000
    endloop
  endfacet
  facet normal  0.000000e+000  0.000000e+000 -1.000000e+000
    outer loop
      vertex  5.150000e+001 -1.000000e+001  0.000000e+000
      vertex  4.497480e+001 -4.116409e+000  0.000000e+000
      vertex  4.550000e+001 -2.500000e+000  0.000000e+000
    endloop
  endfacet
  facet normal  0.000000e+000  0.000000e+000 -1.000000e+000
    outer loop
      vertex  5.150000e+001 -1.000000e+001  0.000000e+000
      vertex  4.550000e+001 -2.500000e+000  0.000000e+000
      vertex  4.497480e+001 -8.835906e-001  0.000000e+000
    endloop
  endfacet
  facet normal  0.000000e+000  0.000000e+000 -1.000000e+000
    outer loop
      vertex  4.359980e+001  1.154054e-001  0.000000e+000
      vertex  4.190020e+001  1.154054e-001  0.000000e+000
      vertex  5.150000e+001  1.000000e+001  0.000000e+000
    endloop
  endfacet
  facet normal  -0.000000e+000  0.000000e+000 -1.000000e+000
    outer loop
      vertex  5.150000e+001  1.000000e+001  0.000000e+000
      vertex  4.190020e+001  1.154054e-001  0.000000e+000
      vertex  3.500000e+001  1.515000e+001  0.000000e+000
    endloop
  endfacet
  facet normal  0.000000e+000  0.000000e+000 -1.000000e+000
    outer loop
      vertex  4.190020e+001  1.154054e-001  0.000000e+000
      vertex -4.052520e+001  8.835906e-001  0.000000e+000
      vertex  3.500000e+001  1.515000e+001  0.000000e+000
    endloop
  endfacet
  facet normal  0.000000e+000  0.000000e+000 -9.999999e-001
    outer loop
      vertex  3.500000e+001  1.515000e+001  0.000000e+000
      vertex -4.052520e+001  8.835906e-001  0.000000e+000
      vertex -4.000000e+001  2.500000e+000  0.000000e+000
    endloop
  endfacet
  facet normal  0.000000e+000  0.000000e+000 -9.999999e-001
    outer loop
      vertex -2.550000e+001 -2.150000e+001  0.000000e+000
      vertex -2.550000e+001 -1.515000e+001  0.000000e+000
      vertex -2.450000e+001 -2.150000e+001  0.000000e+000
    endloop
  endfacet
  facet normal  0.000000e+000  0.000000e+000 -9.999999e-001
    outer loop
      vertex -2.450000e+001 -2.150000e+001  0.000000e+000
      vertex -2.550000e+001 -1.515000e+001  0.000000e+000
      vertex -2.450000e+001 -1.515000e+001  0.000000e+000
    endloop
  endfacet
  facet normal  0.000000e+000  0.000000e+000 -9.999999e-001
    outer loop
      vertex -1.550000e+001  1.515000e+001  0.000000e+000
      vertex -1.550000e+001  2.150000e+001  0.000000e+000
      vertex -1.450000e+001  1.515000e+001  0.000000e+000
    endloop
  endfacet
  facet normal -1.598721e-014 -2.517671e-015 -9.999999e-001
    outer loop
      vertex -1.450000e+001  1.515000e+001  0.000000e+000
      vertex -1.550000e+001  2.150000e+001  0.000000e+000
      vertex -1.450000e+001  2.150000e+001 -1.598721e-014
    endloop
  endfacet
  facet normal  0.000000e+000  0.000000e+000 -9.999999e-001
    outer loop
      vertex  2.450000e+001  1.515000e+001  0.000000e+000
      vertex  2.450000e+001  2.150000e+001  0.000000e+000
      vertex  2.550000e+001  1.515000e+001  0.000000e+000
    endloop
  endfacet
  facet normal -1.598721e-014 -2.517671e-015 -9.999999e-001
    outer loop
      vertex  2.550000e+001  1.515000e+001  0.000000e+000
      vertex  2.450000e+001  2.150000e+001  0.000000e+000
      vertex  2.550000e+001  2.150000e+001 -1.598721e-014
    endloop
  endfacet
  facet normal  0.000000e+000  0.000000e+000 -9.999999e-001
    outer loop
      vertex  1.450000e+001 -2.150000e+001  0.000000e+000
      vertex  1.450000e+001 -1.515000e+001  0.000000e+000
      vertex  1.550000e+001 -2.150000e+001  0.000000e+000
    endloop
  endfacet
  facet normal  0.000000e+000  0.000000e+000 -9.999999e-001
    outer loop
      vertex  1.550000e+001 -2.150000e+001  0.000000e+000
      vertex  1.450000e+001 -1.515000e+001  0.000000e+000
      vertex  1.550000e+001 -1.515000e+001  0.000000e+000
    endloop
  endfacet
  facet normal  0.000000e+000  0.000000e+000 -9.999999e-001
    outer loop
      vertex -2.550000e+001  1.515000e+001  0.000000e+000
      vertex -2.550000e+001  2.150000e+001  0.000000e+000
      vertex -2.450000e+001  1.515000e+001  0.000000e+000
    endloop
  endfacet
  facet normal -1.598721e-014 -2.517671e-015 -9.999999e-001
    outer loop
      vertex -2.450000e+001  1.515000e+001  0.000000e+000
      vertex -2.550000e+001  2.150000e+001  0.000000e+000
      vertex -2.450000e+001  2.150000e+001 -1.598721e-014
    endloop
  endfacet
  facet normal  0.000000e+000  0.000000e+000 -9.999999e-001
    outer loop
      vertex -5.500000e+000  1.515000e+001  0.000000e+000
      vertex -5.500000e+000  2.150000e+001  0.000000e+000
      vertex -4.500000e+000  1.515000e+001  0.000000e+000
    endloop
  endfacet
  facet normal -1.598721e-014 -2.517671e-015 -9.999999e-001
    outer loop
      vertex -4.500000e+000  1.515000e+001  0.000000e+000
      vertex -5.500000e+000  2.150000e+001  0.000000e+000
      vertex -4.500000e+000  2.150000e+001 -1.598721e-014
    endloop
  endfacet
  facet normal  0.000000e+000  0.000000e+000 -9.999999e-001
    outer loop
      vertex  4.500000e+000  1.515000e+001  0.000000e+000
      vertex  4.500000e+000  2.150000e+001  0.000000e+000
      vertex  5.500000e+000  1.515000e+001  0.000000e+000
    endloop
  endfacet
  facet normal -1.598721e-014 -2.517671e-015 -9.999999e-001
    outer loop
      vertex  5.500000e+000  1.515000e+001  0.000000e+000
      vertex  4.500000e+000  2.150000e+001  0.000000e+000
      vertex  5.500000e+000  2.150000e+001 -1.598721e-014
    endloop
  endfacet
  facet normal  0.000000e+000  0.000000e+000 -9.999999e-001
    outer loop
      vertex  1.450000e+001  1.515000e+001  0.000000e+000
      vertex  1.450000e+001  2.150000e+001  0.000000e+000
      vertex  1.550000e+001  1.515000e+001  0.000000e+000
    endloop
  endfacet
  facet normal -1.598721e-014 -2.517671e-015 -9.999999e-001
    outer loop
      vertex  1.550000e+001  1.515000e+001  0.000000e+000
      vertex  1.450000e+001  2.150000e+001  0.000000e+000
      vertex  1.550000e+001  2.150000e+001 -1.598721e-014
    endloop
  endfacet
  facet normal  0.000000e+000  0.000000e+000 -9.999999e-001
    outer loop
      vertex -5.500000e+000 -2.150000e+001  0.000000e+000
      vertex -5.500000e+000 -1.515000e+001  0.000000e+000
      vertex -4.500000e+000 -2.150000e+001  0.000000e+000
    endloop
  endfacet
  facet normal  0.000000e+000  0.000000e+000 -9.999999e-001
    outer loop
      vertex -4.500000e+000 -2.150000e+001  0.000000e+000
      vertex -5.500000e+000 -1.515000e+001  0.000000e+000
      vertex -4.500000e+000 -1.515000e+001  0.000000e+000
    endloop
  endfacet
  facet normal  0.000000e+000  0.000000e+000 -9.999999e-001
    outer loop
      vertex  2.450000e+001 -2.150000e+001  0.000000e+000
      vertex  2.450000e+001 -1.515000e+001  0.000000e+000
      vertex  2.550000e+001 -2.150000e+001  0.000000e+000
    endloop
  endfacet
  facet normal  0.000000e+000  0.000000e+000 -9.999999e-001
    outer loop
      vertex  2.550000e+001 -2.150000e+001  0.000000e+000
      vertex  2.450000e+001 -1.515000e+001  0.000000e+000
      vertex  2.550000e+001 -1.515000e+001  0.000000e+000
    endloop
  endfacet
  facet normal  0.000000e+000  0.000000e+000 -9.999999e-001
    outer loop
      vertex  4.500000e+000 -2.150000e+001  0.000000e+000
      vertex  4.500000e+000 -1.515000e+001  0.000000e+000
      vertex  5.500000e+000 -2.150000e+001  0.000000e+000
    endloop
  endfacet
  facet normal  0.000000e+000  0.000000e+000 -9.999999e-001
    outer loop
      vertex  5.500000e+000 -2.150000e+001  0.000000e+000
      vertex  4.500000e+000 -1.515000e+001  0.000000e+000
      vertex  5.500000e+000 -1.515000e+001  0.000000e+000
    endloop
  endfacet
  facet normal  0.000000e+000  0.000000e+000 -9.999999e-001
    outer loop
      vertex -1.550000e+001 -2.150000e+001  0.000000e+000
      vertex -1.550000e+001 -1.515000e+001  0.000000e+000
      vertex -1.450000e+001 -2.150000e+001  0.000000e+000
    endloop
  endfacet
  facet normal  0.000000e+000  0.000000e+000 -9.999999e-001
    outer loop
      vertex -1.450000e+001 -2.150000e+001  0.000000e+000
      vertex -1.550000e+001 -1.515000e+001  0.000000e+000
      vertex -1.450000e+001 -1.515000e+001  0.000000e+000
    endloop
  endfacet
  facet normal  0.000000e+000  1.000000e+000  0.000000e+000
    outer loop
      vertex -3.500000e+001  1.515000e+001  0.000000e+000
      vertex -2.550000e+001  1.515000e+001  4.000000e+000
      vertex -2.550000e+001  1.515000e+001  0.000000e+000
    endloop
  endfacet
  facet normal  0.000000e+000  1.000000e+000  0.000000e+000
    outer loop
      vertex -2.450000e+001  1.515000e+001  0.000000e+000
      vertex -1.550000e+001  1.515000e+001  4.000000e+000
      vertex -1.550000e+001  1.515000e+001  0.000000e+000
    endloop
  endfacet
  facet normal  0.000000e+000  1.000000e+000  0.000000e+000
    outer loop
      vertex -1.450000e+001  1.515000e+001  0.000000e+000
      vertex -5.500000e+000  1.515000e+001  4.000000e+000
      vertex -5.500000e+000  1.515000e+001  0.000000e+000
    endloop
  endfacet
  facet normal  0.000000e+000  1.000000e+000  0.000000e+000
    outer loop
      vertex  0.000000e+000  1.515000e+001  0.000000e+000
      vertex  4.500000e+000  1.515000e+001  4.000000e+000
      vertex  4.500000e+000  1.515000e+001  0.000000e+000
    endloop
  endfacet
  facet normal  0.000000e+000  1.000000e+000  0.000000e+000
    outer loop
      vertex  5.500000e+000  1.515000e+001  0.000000e+000
      vertex  1.450000e+001  1.515000e+001  4.000000e+000
      vertex  1.450000e+001  1.515000e+001  0.000000e+000
    endloop
  endfacet
  facet normal  0.000000e+000  1.000000e+000  0.000000e+000
    outer loop
      vertex  2.450000e+001  1.515000e+001  0.000000e+000
      vertex  1.550000e+001  1.515000e+001  0.000000e+000
      vertex  2.450000e+001  1.515000e+001  4.000000e+000
    endloop
  endfacet
  facet normal  0.000000e+000  1.000000e+000  0.000000e+000
    outer loop
      vertex  2.550000e+001  1.515000e+001  0.000000e+000
      vertex  3.500000e+001  1.515000e+001  5.000000e+000
      vertex  3.500000e+001  1.515000e+001  0.000000e+000
    endloop
  endfacet
  facet normal  0.000000e+000  1.000000e+000  -0.000000e+000
    outer loop
      vertex  3.500000e+001  1.515000e+001  3.850000e+001
      vertex  3.500000e+001  1.515000e+001  5.000000e+000
      vertex  2.550000e+001  1.515000e+001  0.000000e+000
    endloop
  endfacet
  facet normal  0.000000e+000  1.000000e+000  0.000000e+000
    outer loop
      vertex  3.500000e+001  1.515000e+001  3.850000e+001
      vertex  2.550000e+001  1.515000e+001  0.000000e+000
      vertex  2.550000e+001  1.515000e+001  4.000000e+000
    endloop
  endfacet
  facet normal  0.000000e+000  1.000000e+000  -0.000000e+000
    outer loop
      vertex  3.500000e+001  1.515000e+001  3.850000e+001
      vertex  2.550000e+001  1.515000e+001  4.000000e+000
      vertex  2.450000e+001  1.515000e+001  4.000000e+000
    endloop
  endfacet
  facet normal  0.000000e+000  1.000000e+000  -0.000000e+000
    outer loop
      vertex  3.500000e+001  1.515000e+001  3.850000e+001
      vertex  2.450000e+001  1.515000e+001  4.000000e+000
      vertex  1.550000e+001  1.515000e+001  0.000000e+000
    endloop
  endfacet
  facet normal  0.000000e+000  1.000000e+000  0.000000e+000
    outer loop
      vertex  3.500000e+001  1.515000e+001  3.850000e+001
      vertex  1.550000e+001  1.515000e+001  0.000000e+000
      vertex  1.550000e+001  1.515000e+001  4.000000e+000
    endloop
  endfacet
  facet normal  0.000000e+000  1.000000e+000  -0.000000e+000
    outer loop
      vertex  3.500000e+001  1.515000e+001  3.850000e+001
      vertex  1.550000e+001  1.515000e+001  4.000000e+000
      vertex  1.450000e+001  1.515000e+001  4.000000e+000
    endloop
  endfacet
  facet normal  0.000000e+000  1.000000e+000  -0.000000e+000
    outer loop
      vertex  3.500000e+001  1.515000e+001  3.850000e+001
      vertex  1.450000e+001  1.515000e+001  4.000000e+000
      vertex  5.500000e+000  1.515000e+001  0.000000e+000
    endloop
  endfacet
  facet normal  0.000000e+000  1.000000e+000  0.000000e+000
    outer loop
      vertex  3.500000e+001  1.515000e+001  3.850000e+001
      vertex  5.500000e+000  1.515000e+001  0.000000e+000
      vertex  5.500000e+000  1.515000e+001  4.000000e+000
    endloop
  endfacet
  facet normal  0.000000e+000  1.000000e+000  -0.000000e+000
    outer loop
      vertex  3.500000e+001  1.515000e+001  3.850000e+001
      vertex  5.500000e+000  1.515000e+001  4.000000e+000
      vertex  4.500000e+000  1.515000e+001  4.000000e+000
    endloop
  endfacet
  facet normal  0.000000e+000  1.000000e+000  -0.000000e+000
    outer loop
      vertex  3.500000e+001  1.515000e+001  3.850000e+001
      vertex  4.500000e+000  1.515000e+001  4.000000e+000
      vertex  0.000000e+000  1.515000e+001  0.000000e+000
    endloop
  endfacet
  facet normal  0.000000e+000  1.000000e+000  -0.000000e+000
    outer loop
      vertex  3.500000e+001  1.515000e+001  3.850000e+001
      vertex  0.000000e+000  1.515000e+001  0.000000e+000
      vertex -4.500000e+000  1.515000e+001  0.000000e+000
    endloop
  endfacet
  facet normal  0.000000e+000  1.000000e+000  0.000000e+000
    outer loop
      vertex  3.500000e+001  1.515000e+001  3.850000e+001
      vertex -4.500000e+000  1.515000e+001  0.000000e+000
      vertex -4.500000e+000  1.515000e+001  4.000000e+000
    endloop
  endfacet
  facet normal  0.000000e+000  1.000000e+000  -0.000000e+000
    outer loop
      vertex  3.500000e+001  1.515000e+001  3.850000e+001
      vertex -4.500000e+000  1.515000e+001  4.000000e+000
      vertex -5.500000e+000  1.515000e+001  4.000000e+000
    endloop
  endfacet
  facet normal  0.000000e+000  1.000000e+000  -0.000000e+000
    outer loop
      vertex  3.500000e+001  1.515000e+001  3.850000e+001
      vertex -5.500000e+000  1.515000e+001  4.000000e+000
      vertex -1.450000e+001  1.515000e+001  0.000000e+000
    endloop
  endfacet
  facet normal  0.000000e+000  1.000000e+000  0.000000e+000
    outer loop
      vertex  3.500000e+001  1.515000e+001  3.850000e+001
      vertex -1.450000e+001  1.515000e+001  0.000000e+000
      vertex -1.450000e+001  1.515000e+001  4.000000e+000
    endloop
  endfacet
  facet normal  0.000000e+000  1.000000e+000  -0.000000e+000
    outer loop
      vertex  3.500000e+001  1.515000e+001  3.850000e+001
      vertex -1.450000e+001  1.515000e+001  4.000000e+000
      vertex -1.550000e+001  1.515000e+001  4.000000e+000
    endloop
  endfacet
  facet normal  0.000000e+000  1.000000e+000  -0.000000e+000
    outer loop
      vertex  3.500000e+001  1.515000e+001  3.850000e+001
      vertex -1.550000e+001  1.515000e+001  4.000000e+000
      vertex -2.450000e+001  1.515000e+001  0.000000e+000
    endloop
  endfacet
  facet normal  0.000000e+000  1.000000e+000  0.000000e+000
    outer loop
      vertex  3.500000e+001  1.515000e+001  3.850000e+001
      vertex -2.450000e+001  1.515000e+001  0.000000e+000
      vertex -2.450000e+001  1.515000e+001  4.000000e+000
    endloop
  endfacet
  facet normal  0.000000e+000  1.000000e+000  -0.000000e+000
    outer loop
      vertex  3.500000e+001  1.515000e+001  3.850000e+001
      vertex -2.450000e+001  1.515000e+001  4.000000e+000
      vertex -2.550000e+001  1.515000e+001  4.000000e+000
    endloop
  endfacet
  facet normal  0.000000e+000  1.000000e+000  -0.000000e+000
    outer loop
      vertex  3.500000e+001  1.515000e+001  3.850000e+001
      vertex -2.550000e+001  1.515000e+001  4.000000e+000
      vertex -3.500000e+001  1.515000e+001  0.000000e+000
    endloop
  endfacet
  facet normal  0.000000e+000  1.000000e+000  0.000000e+000
    outer loop
      vertex  3.500000e+001  1.515000e+001  3.850000e+001
      vertex -3.500000e+001  1.515000e+001  0.000000e+000
      vertex -3.500000e+001  1.515000e+001  5.000000e+000
    endloop
  endfacet
  facet normal  0.000000e+000  9.999999e-001  0.000000e+000
    outer loop
      vertex  3.500000e+001  1.515000e+001  3.850000e+001
      vertex -3.500000e+001  1.515000e+001  5.000000e+000
      vertex -3.500000e+001  1.515000e+001  3.850000e+001
    endloop
  endfacet
  facet normal  0.000000e+000 -1.000000e+000  -0.000000e+000
    outer loop
      vertex -2.550000e+001 -1.515000e+001  0.000000e+000
      vertex -2.550000e+001 -1.515000e+001  4.000000e+000
      vertex -3.500000e+001 -1.515000e+001  0.000000e+000
    endloop
  endfacet
  facet normal  0.000000e+000 -1.000000e+000  -0.000000e+000
    outer loop
      vertex -1.550000e+001 -1.515000e+001  0.000000e+000
      vertex -1.550000e+001 -1.515000e+001  4.000000e+000
      vertex -2.450000e+001 -1.515000e+001  0.000000e+000
    endloop
  endfacet
  facet normal  0.000000e+000 -1.000000e+000  -0.000000e+000
    outer loop
      vertex -5.500000e+000 -1.515000e+001  0.000000e+000
      vertex -5.500000e+000 -1.515000e+001  4.000000e+000
      vertex -1.450000e+001 -1.515000e+001  0.000000e+000
    endloop
  endfacet
  facet normal  0.000000e+000 -1.000000e+000  -0.000000e+000
    outer loop
      vertex  4.500000e+000 -1.515000e+001  0.000000e+000
      vertex  4.500000e+000 -1.515000e+001  4.000000e+000
      vertex  0.000000e+000 -1.515000e+001  0.000000e+000
    endloop
  endfacet
  facet normal  0.000000e+000 -1.000000e+000  0.000000e+000
    outer loop
      vertex  1.450000e+001 -1.515000e+001  4.000000e+000
      vertex  5.500000e+000 -1.515000e+001  0.000000e+000
      vertex  1.450000e+001 -1.515000e+001  0.000000e+000
    endloop
  endfacet
  facet normal  0.000000e+000 -1.000000e+000  -0.000000e+000
    outer loop
      vertex  2.450000e+001 -1.515000e+001  0.000000e+000
      vertex  2.450000e+001 -1.515000e+001  4.000000e+000
      vertex  1.550000e+001 -1.515000e+001  0.000000e+000
    endloop
  endfacet
  facet normal  0.000000e+000 -1.000000e+000  -0.000000e+000
    outer loop
      vertex  3.500000e+001 -1.515000e+001  0.000000e+000
      vertex  3.500000e+001 -1.515000e+001  5.000000e+000
      vertex  2.550000e+001 -1.515000e+001  0.000000e+000
    endloop
  endfacet
  facet normal  0.000000e+000 -9.999999e-001  0.000000e+000
    outer loop
      vertex  3.500000e+001 -1.515000e+001  3.850000e+001
      vertex -3.500000e+001 -1.515000e+001  3.850000e+001
      vertex -3.500000e+001 -1.515000e+001  5.000000e+000
    endloop
  endfacet
  facet normal  0.000000e+000 -1.000000e+000  0.000000e+000
    outer loop
      vertex  3.500000e+001 -1.515000e+001  3.850000e+001
      vertex -3.500000e+001 -1.515000e+001  5.000000e+000
      vertex -3.500000e+001 -1.515000e+001  0.000000e+000
    endloop
  endfacet
  facet normal  0.000000e+000 -1.000000e+000  0.000000e+000
    outer loop
      vertex  3.500000e+001 -1.515000e+001  3.850000e+001
      vertex -3.500000e+001 -1.515000e+001  0.000000e+000
      vertex -2.550000e+001 -1.515000e+001  4.000000e+000
    endloop
  endfacet
  facet normal  0.000000e+000 -1.000000e+000  0.000000e+000
    outer loop
      vertex  3.500000e+001 -1.515000e+001  3.850000e+001
      vertex -2.550000e+001 -1.515000e+001  4.000000e+000
      vertex -2.450000e+001 -1.515000e+001  4.000000e+000
    endloop
  endfacet
  facet normal  0.000000e+000 -1.000000e+000  0.000000e+000
    outer loop
      vertex  3.500000e+001 -1.515000e+001  3.850000e+001
      vertex -2.450000e+001 -1.515000e+001  4.000000e+000
      vertex -2.450000e+001 -1.515000e+001  0.000000e+000
    endloop
  endfacet
  facet normal  0.000000e+000 -1.000000e+000  0.000000e+000
    outer loop
      vertex  3.500000e+001 -1.515000e+001  3.850000e+001
      vertex -2.450000e+001 -1.515000e+001  0.000000e+000
      vertex -1.550000e+001 -1.515000e+001  4.000000e+000
    endloop
  endfacet
  facet normal  0.000000e+000 -1.000000e+000  0.000000e+000
    outer loop
      vertex  3.500000e+001 -1.515000e+001  3.850000e+001
      vertex -1.550000e+001 -1.515000e+001  4.000000e+000
      vertex -1.450000e+001 -1.515000e+001  4.000000e+000
    endloop
  endfacet
  facet normal  0.000000e+000 -1.000000e+000  0.000000e+000
    outer loop
      vertex  3.500000e+001 -1.515000e+001  3.850000e+001
      vertex -1.450000e+001 -1.515000e+001  4.000000e+000
      vertex -1.450000e+001 -1.515000e+001  0.000000e+000
    endloop
  endfacet
  facet normal  0.000000e+000 -1.000000e+000  0.000000e+000
    outer loop
      vertex  3.500000e+001 -1.515000e+001  3.850000e+001
      vertex -1.450000e+001 -1.515000e+001  0.000000e+000
      vertex -5.500000e+000 -1.515000e+001  4.000000e+000
    endloop
  endfacet
  facet normal  0.000000e+000 -1.000000e+000  0.000000e+000
    outer loop
      vertex  3.500000e+001 -1.515000e+001  3.850000e+001
      vertex -5.500000e+000 -1.515000e+001  4.000000e+000
      vertex -4.500000e+000 -1.515000e+001  4.000000e+000
    endloop
  endfacet
  facet normal  0.000000e+000 -1.000000e+000  0.000000e+000
    outer loop
      vertex  3.500000e+001 -1.515000e+001  3.850000e+001
      vertex -4.500000e+000 -1.515000e+001  4.000000e+000
      vertex -4.500000e+000 -1.515000e+001  0.000000e+000
    endloop
  endfacet
  facet normal  0.000000e+000 -1.000000e+000  0.000000e+000
    outer loop
      vertex  3.500000e+001 -1.515000e+001  3.850000e+001
      vertex -4.500000e+000 -1.515000e+001  0.000000e+000
      vertex  0.000000e+000 -1.515000e+001  0.000000e+000
    endloop
  endfacet
  facet normal  0.000000e+000 -1.000000e+000  0.000000e+000
    outer loop
      vertex  3.500000e+001 -1.515000e+001  3.850000e+001
      vertex  0.000000e+000 -1.515000e+001  0.000000e+000
      vertex  4.500000e+000 -1.515000e+001  4.000000e+000
    endloop
  endfacet
  facet normal  0.000000e+000 -1.000000e+000  0.000000e+000
    outer loop
      vertex  3.500000e+001 -1.515000e+001  3.850000e+001
      vertex  4.500000e+000 -1.515000e+001  4.000000e+000
      vertex  5.500000e+000 -1.515000e+001  4.000000e+000
    endloop
  endfacet
  facet normal  0.000000e+000 -1.000000e+000  0.000000e+000
    outer loop
      vertex  3.500000e+001 -1.515000e+001  3.850000e+001
      vertex  5.500000e+000 -1.515000e+001  4.000000e+000
      vertex  5.500000e+000 -1.515000e+001  0.000000e+000
    endloop
  endfacet
  facet normal  0.000000e+000 -1.000000e+000  0.000000e+000
    outer loop
      vertex  3.500000e+001 -1.515000e+001  3.850000e+001
      vertex  5.500000e+000 -1.515000e+001  0.000000e+000
      vertex  1.450000e+001 -1.515000e+001  4.000000e+000
    endloop
  endfacet
  facet normal  0.000000e+000 -1.000000e+000  0.000000e+000
    outer loop
      vertex  3.500000e+001 -1.515000e+001  3.850000e+001
      vertex  1.450000e+001 -1.515000e+001  4.000000e+000
      vertex  1.550000e+001 -1.515000e+001  4.000000e+000
    endloop
  endfacet
  facet normal  0.000000e+000 -1.000000e+000  0.000000e+000
    outer loop
      vertex  3.500000e+001 -1.515000e+001  3.850000e+001
      vertex  1.550000e+001 -1.515000e+001  4.000000e+000
      vertex  1.550000e+001 -1.515000e+001  0.000000e+000
    endloop
  endfacet
  facet normal  0.000000e+000 -1.000000e+000  0.000000e+000
    outer loop
      vertex  3.500000e+001 -1.515000e+001  3.850000e+001
      vertex  1.550000e+001 -1.515000e+001  0.000000e+000
      vertex  2.450000e+001 -1.515000e+001  4.000000e+000
    endloop
  endfacet
  facet normal  0.000000e+000 -1.000000e+000  0.000000e+000
    outer loop
      vertex  3.500000e+001 -1.515000e+001  3.850000e+001
      vertex  2.450000e+001 -1.515000e+001  4.000000e+000
      vertex  2.550000e+001 -1.515000e+001  4.000000e+000
    endloop
  endfacet
  facet normal  0.000000e+000 -1.000000e+000  0.000000e+000
    outer loop
      vertex  3.500000e+001 -1.515000e+001  3.850000e+001
      vertex  2.550000e+001 -1.515000e+001  4.000000e+000
      vertex  2.550000e+001 -1.515000e+001  0.000000e+000
    endloop
  endfacet
  facet normal  0.000000e+000 -1.000000e+000  0.000000e+000
    outer loop
      vertex  3.500000e+001 -1.515000e+001  3.850000e+001
      vertex  2.550000e+001 -1.515000e+001  0.000000e+000
      vertex  3.500000e+001 -1.515000e+001  5.000000e+000
    endloop
  endfacet
  facet normal  9.999999e-001  -0.000000e+000  0.000000e+000
    outer loop
      vertex -2.450000e+001  2.150000e+001  4.000000e+000
      vertex -2.450000e+001  1.515000e+001  4.000000e+000
      vertex -2.450000e+001  2.150000e+001 -1.598721e-014
    endloop
  endfacet
  facet normal  9.999999e-001  0.000000e+000  0.000000e+000
    outer loop
      vertex -2.450000e+001  2.150000e+001 -1.598721e-014
      vertex -2.450000e+001  1.515000e+001  4.000000e+000
      vertex -2.450000e+001  1.515000e+001  0.000000e+000
    endloop
  endfacet
  facet normal -9.999999e-001  0.000000e+000  0.000000e+000
    outer loop
      vertex -2.550000e+001  2.150000e+001  0.000000e+000
      vertex -2.550000e+001  1.515000e+001  0.000000e+000
      vertex -2.550000e+001  2.150000e+001  4.000000e+000
    endloop
  endfacet
  facet normal -9.999999e-001  -0.000000e+000  0.000000e+000
    outer loop
      vertex -2.550000e+001  2.150000e+001  4.000000e+000
      vertex -2.550000e+001  1.515000e+001  0.000000e+000
      vertex -2.550000e+001  1.515000e+001  4.000000e+000
    endloop
  endfacet
  facet normal  0.000000e+000  0.000000e+000  9.999999e-001
    outer loop
      vertex -2.550000e+001  2.150000e+001  4.000000e+000
      vertex -2.550000e+001  1.515000e+001  4.000000e+000
      vertex -2.450000e+001  2.150000e+001  4.000000e+000
    endloop
  endfacet
  facet normal  0.000000e+000  0.000000e+000  9.999999e-001
    outer loop
      vertex -2.450000e+001  2.150000e+001  4.000000e+000
      vertex -2.550000e+001  1.515000e+001  4.000000e+000
      vertex -2.450000e+001  1.515000e+001  4.000000e+000
    endloop
  endfacet
  facet normal  9.999999e-001  -0.000000e+000  0.000000e+000
    outer loop
      vertex -1.450000e+001  2.150000e+001  4.000000e+000
      vertex -1.450000e+001  1.515000e+001  4.000000e+000
      vertex -1.450000e+001  2.150000e+001 -1.598721e-014
    endloop
  endfacet
  facet normal  9.999999e-001  0.000000e+000  0.000000e+000
    outer loop
      vertex -1.450000e+001  2.150000e+001 -1.598721e-014
      vertex -1.450000e+001  1.515000e+001  4.000000e+000
      vertex -1.450000e+001  1.515000e+001  0.000000e+000
    endloop
  endfacet
  facet normal -9.999999e-001  0.000000e+000  0.000000e+000
    outer loop
      vertex -1.550000e+001  2.150000e+001  0.000000e+000
      vertex -1.550000e+001  1.515000e+001  0.000000e+000
      vertex -1.550000e+001  2.150000e+001  4.000000e+000
    endloop
  endfacet
  facet normal -9.999999e-001  -0.000000e+000  0.000000e+000
    outer loop
      vertex -1.550000e+001  2.150000e+001  4.000000e+000
      vertex -1.550000e+001  1.515000e+001  0.000000e+000
      vertex -1.550000e+001  1.515000e+001  4.000000e+000
    endloop
  endfacet
  facet normal  0.000000e+000  0.000000e+000  9.999999e-001
    outer loop
      vertex -1.550000e+001  2.150000e+001  4.000000e+000
      vertex -1.550000e+001  1.515000e+001  4.000000e+000
      vertex -1.450000e+001  2.150000e+001  4.000000e+000
    endloop
  endfacet
  facet normal  0.000000e+000  0.000000e+000  9.999999e-001
    outer loop
      vertex -1.450000e+001  2.150000e+001  4.000000e+000
      vertex -1.550000e+001  1.515000e+001  4.000000e+000
      vertex -1.450000e+001  1.515000e+001  4.000000e+000
    endloop
  endfacet
  facet normal  9.999999e-001  -0.000000e+000  0.000000e+000
    outer loop
      vertex -4.500000e+000  2.150000e+001  4.000000e+000
      vertex -4.500000e+000  1.515000e+001  4.000000e+000
      vertex -4.500000e+000  2.150000e+001 -1.598721e-014
    endloop
  endfacet
  facet normal  9.999999e-001  0.000000e+000  0.000000e+000
    outer loop
      vertex -4.500000e+000  2.150000e+001 -1.598721e-014
      vertex -4.500000e+000  1.515000e+001  4.000000e+000
      vertex -4.500000e+000  1.515000e+001  0.000000e+000
    endloop
  endfacet
  facet normal -9.999999e-001  0.000000e+000  0.000000e+000
    outer loop
      vertex -5.500000e+000  2.150000e+001  0.000000e+000
      vertex -5.500000e+000  1.515000e+001  0.000000e+000
      vertex -5.500000e+000  2.150000e+001  4.000000e+000
    endloop
  endfacet
  facet normal -9.999999e-001  -0.000000e+000  0.000000e+000
    outer loop
      vertex -5.500000e+000  2.150000e+001  4.000000e+000
      vertex -5.500000e+000  1.515000e+001  0.000000e+000
      vertex -5.500000e+000  1.515000e+001  4.000000e+000
    endloop
  endfacet
  facet normal  0.000000e+000  0.000000e+000  9.999999e-001
    outer loop
      vertex -5.500000e+000  2.150000e+001  4.000000e+000
      vertex -5.500000e+000  1.515000e+001  4.000000e+000
      vertex -4.500000e+000  2.150000e+001  4.000000e+000
    endloop
  endfacet
  facet normal  0.000000e+000  0.000000e+000  9.999999e-001
    outer loop
      vertex -4.500000e+000  2.150000e+001  4.000000e+000
      vertex -5.500000e+000  1.515000e+001  4.000000e+000
      vertex -4.500000e+000  1.515000e+001  4.000000e+000
    endloop
  endfacet
  facet normal  9.999999e-001  -0.000000e+000  0.000000e+000
    outer loop
      vertex  5.500000e+000  2.150000e+001  4.000000e+000
      vertex  5.500000e+000  1.515000e+001  4.000000e+000
      vertex  5.500000e+000  2.150000e+001 -1.598721e-014
    endloop
  endfacet
  facet normal  9.999999e-001  0.000000e+000  0.000000e+000
    outer loop
      vertex  5.500000e+000  2.150000e+001 -1.598721e-014
      vertex  5.500000e+000  1.515000e+001  4.000000e+000
      vertex  5.500000e+000  1.515000e+001  0.000000e+000
    endloop
  endfacet
  facet normal -9.999999e-001  0.000000e+000  0.000000e+000
    outer loop
      vertex  4.500000e+000  2.150000e+001  0.000000e+000
      vertex  4.500000e+000  1.515000e+001  0.000000e+000
      vertex  4.500000e+000  2.150000e+001  4.000000e+000
    endloop
  endfacet
  facet normal -9.999999e-001  -0.000000e+000  0.000000e+000
    outer loop
      vertex  4.500000e+000  2.150000e+001  4.000000e+000
      vertex  4.500000e+000  1.515000e+001  0.000000e+000
      vertex  4.500000e+000  1.515000e+001  4.000000e+000
    endloop
  endfacet
  facet normal  0.000000e+000  0.000000e+000  9.999999e-001
    outer loop
      vertex  4.500000e+000  2.150000e+001  4.000000e+000
      vertex  4.500000e+000  1.515000e+001  4.000000e+000
      vertex  5.500000e+000  2.150000e+001  4.000000e+000
    endloop
  endfacet
  facet normal  0.000000e+000  0.000000e+000  9.999999e-001
    outer loop
      vertex  5.500000e+000  2.150000e+001  4.000000e+000
      vertex  4.500000e+000  1.515000e+001  4.000000e+000
      vertex  5.500000e+000  1.515000e+001  4.000000e+000
    endloop
  endfacet
  facet normal  9.999999e-001  -0.000000e+000  0.000000e+000
    outer loop
      vertex  1.550000e+001  2.150000e+001  4.000000e+000
      vertex  1.550000e+001  1.515000e+001  4.000000e+000
      vertex  1.550000e+001  2.150000e+001 -1.598721e-014
    endloop
  endfacet
  facet normal  9.999999e-001  0.000000e+000  0.000000e+000
    outer loop
      vertex  1.550000e+001  2.150000e+001 -1.598721e-014
      vertex  1.550000e+001  1.515000e+001  4.000000e+000
      vertex  1.550000e+001  1.515000e+001  0.000000e+000
    endloop
  endfacet
  facet normal -9.999999e-001  0.000000e+000  0.000000e+000
    outer loop
      vertex  1.450000e+001  2.150000e+001  0.000000e+000
      vertex  1.450000e+001  1.515000e+001  0.000000e+000
      vertex  1.450000e+001  2.150000e+001  4.000000e+000
    endloop
  endfacet
  facet normal -9.999999e-001  -0.000000e+000  0.000000e+000
    outer loop
      vertex  1.450000e+001  2.150000e+001  4.000000e+000
      vertex  1.450000e+001  1.515000e+001  0.000000e+000
      vertex  1.450000e+001  1.515000e+001  4.000000e+000
    endloop
  endfacet
  facet normal  0.000000e+000  0.000000e+000  9.999999e-001
    outer loop
      vertex  1.450000e+001  2.150000e+001  4.000000e+000
      vertex  1.450000e+001  1.515000e+001  4.000000e+000
      vertex  1.550000e+001  2.150000e+001  4.000000e+000
    endloop
  endfacet
  facet normal  0.000000e+000  0.000000e+000  9.999999e-001
    outer loop
      vertex  1.550000e+001  2.150000e+001  4.000000e+000
      vertex  1.450000e+001  1.515000e+001  4.000000e+000
      vertex  1.550000e+001  1.515000e+001  4.000000e+000
    endloop
  endfacet
  facet normal  9.999999e-001  -0.000000e+000  0.000000e+000
    outer loop
      vertex  2.550000e+001  2.150000e+001  4.000000e+000
      vertex  2.550000e+001  1.515000e+001  4.000000e+000
      vertex  2.550000e+001  2.150000e+001 -1.598721e-014
    endloop
  endfacet
  facet normal  9.999999e-001  0.000000e+000  0.000000e+000
    outer loop
      vertex  2.550000e+001  2.150000e+001 -1.598721e-014
      vertex  2.550000e+001  1.515000e+001  4.000000e+000
      vertex  2.550000e+001  1.515000e+001  0.000000e+000
    endloop
  endfacet
  facet normal -9.999999e-001  0.000000e+000  0.000000e+000
    outer loop
      vertex  2.450000e+001  2.150000e+001  0.000000e+000
      vertex  2.450000e+001  1.515000e+001  0.000000e+000
      vertex  2.450000e+001  2.150000e+001  4.000000e+000
    endloop
  endfacet
  facet normal -9.999999e-001  -0.000000e+000  0.000000e+000
    outer loop
      vertex  2.450000e+001  2.150000e+001  4.000000e+000
      vertex  2.450000e+001  1.515000e+001  0.000000e+000
      vertex  2.450000e+001  1.515000e+001  4.000000e+000
    endloop
  endfacet
  facet normal  0.000000e+000  0.000000e+000  9.999999e-001
    outer loop
      vertex  2.450000e+001  2.150000e+001  4.000000e+000
      vertex  2.450000e+001  1.515000e+001  4.000000e+000
      vertex  2.550000e+001  2.150000e+001  4.000000e+000
    endloop
  endfacet
  facet normal  0.000000e+000  0.000000e+000  9.999999e-001
    outer loop
      vertex  2.550000e+001  2.150000e+001  4.000000e+000
      vertex  2.450000e+001  1.515000e+001  4.000000e+000
      vertex  2.550000e+001  1.515000e+001  4.000000e+000
    endloop
  endfacet
  facet normal  9.999999e-001  -0.000000e+000  0.000000e+000
    outer loop
      vertex -2.450000e+001 -1.515000e+001  4.000000e+000
      vertex -2.450000e+001 -2.150000e+001  4.000000e+000
      vertex -2.450000e+001 -1.515000e+001  0.000000e+000
    endloop
  endfacet
  facet normal  9.999999e-001  0.000000e+000  0.000000e+000
    outer loop
      vertex -2.450000e+001 -1.515000e+001  0.000000e+000
      vertex -2.450000e+001 -2.150000e+001  4.000000e+000
      vertex -2.450000e+001 -2.150000e+001  0.000000e+000
    endloop
  endfacet
  facet normal -9.999999e-001  0.000000e+000  0.000000e+000
    outer loop
      vertex -2.550000e+001 -1.515000e+001  0.000000e+000
      vertex -2.550000e+001 -2.150000e+001  0.000000e+000
      vertex -2.550000e+001 -1.515000e+001  4.000000e+000
    endloop
  endfacet
  facet normal -9.999999e-001  -0.000000e+000  0.000000e+000
    outer loop
      vertex -2.550000e+001 -1.515000e+001  4.000000e+000
      vertex -2.550000e+001 -2.150000e+001  0.000000e+000
      vertex -2.550000e+001 -2.150000e+001  4.000000e+000
    endloop
  endfacet
  facet normal  0.000000e+000  0.000000e+000  9.999999e-001
    outer loop
      vertex -2.550000e+001 -1.515000e+001  4.000000e+000
      vertex -2.550000e+001 -2.150000e+001  4.000000e+000
      vertex -2.450000e+001 -1.515000e+001  4.000000e+000
    endloop
  endfacet
  facet normal  0.000000e+000  0.000000e+000  9.999999e-001
    outer loop
      vertex -2.450000e+001 -1.515000e+001  4.000000e+000
      vertex -2.550000e+001 -2.150000e+001  4.000000e+000
      vertex -2.450000e+001 -2.150000e+001  4.000000e+000
    endloop
  endfacet
  facet normal  9.999999e-001  -0.000000e+000  0.000000e+000
    outer loop
      vertex -1.450000e+001 -1.515000e+001  4.000000e+000
      vertex -1.450000e+001 -2.150000e+001  4.000000e+000
      vertex -1.450000e+001 -1.515000e+001  0.000000e+000
    endloop
  endfacet
  facet normal  9.999999e-001  0.000000e+000  0.000000e+000
    outer loop
      vertex -1.450000e+001 -1.515000e+001  0.000000e+000
      vertex -1.450000e+001 -2.150000e+001  4.000000e+000
      vertex -1.450000e+001 -2.150000e+001  0.000000e+000
    endloop
  endfacet
  facet normal -9.999999e-001  0.000000e+000  0.000000e+000
    outer loop
      vertex -1.550000e+001 -1.515000e+001  0.000000e+000
      vertex -1.550000e+001 -2.150000e+001  0.000000e+000
      vertex -1.550000e+001 -1.515000e+001  4.000000e+000
    endloop
  endfacet
  facet normal -9.999999e-001  -0.000000e+000  0.000000e+000
    outer loop
      vertex -1.550000e+001 -1.515000e+001  4.000000e+000
      vertex -1.550000e+001 -2.150000e+001  0.000000e+000
      vertex -1.550000e+001 -2.150000e+001  4.000000e+000
    endloop
  endfacet
  facet normal  0.000000e+000  0.000000e+000  9.999999e-001
    outer loop
      vertex -1.550000e+001 -1.515000e+001  4.000000e+000
      vertex -1.550000e+001 -2.150000e+001  4.000000e+000
      vertex -1.450000e+001 -1.515000e+001  4.000000e+000
    endloop
  endfacet
  facet normal  0.000000e+000  0.000000e+000  9.999999e-001
    outer loop
      vertex -1.450000e+001 -1.515000e+001  4.000000e+000
      vertex -1.550000e+001 -2.150000e+001  4.000000e+000
      vertex -1.450000e+001 -2.150000e+001  4.000000e+000
    endloop
  endfacet
  facet normal  9.999999e-001  -0.000000e+000  0.000000e+000
    outer loop
      vertex -4.500000e+000 -1.515000e+001  4.000000e+000
      vertex -4.500000e+000 -2.150000e+001  4.000000e+000
      vertex -4.500000e+000 -1.515000e+001  0.000000e+000
    endloop
  endfacet
  facet normal  9.999999e-001  0.000000e+000  0.000000e+000
    outer loop
      vertex -4.500000e+000 -1.515000e+001  0.000000e+000
      vertex -4.500000e+000 -2.150000e+001  4.000000e+000
      vertex -4.500000e+000 -2.150000e+001  0.000000e+000
    endloop
  endfacet
  facet normal -9.999999e-001  0.000000e+000  0.000000e+000
    outer loop
      vertex -5.500000e+000 -1.515000e+001  0.000000e+000
      vertex -5.500000e+000 -2.150000e+001  0.000000e+000
      vertex -5.500000e+000 -1.515000e+001  4.000000e+000
    endloop
  endfacet
  facet normal -9.999999e-001  -0.000000e+000  0.000000e+000
    outer loop
      vertex -5.500000e+000 -1.515000e+001  4.000000e+000
      vertex -5.500000e+000 -2.150000e+001  0.000000e+000
      vertex -5.500000e+000 -2.150000e+001  4.000000e+000
    endloop
  endfacet
  facet normal  0.000000e+000  0.000000e+000  9.999999e-001
    outer loop
      vertex -5.500000e+000 -1.515000e+001  4.000000e+000
      vertex -5.500000e+000 -2.150000e+001  4.000000e+000
      vertex -4.500000e+000 -1.515000e+001  4.000000e+000
    endloop
  endfacet
  facet normal  0.000000e+000  0.000000e+000  9.999999e-001
    outer loop
      vertex -4.500000e+000 -1.515000e+001  4.000000e+000
      vertex -5.500000e+000 -2.150000e+001  4.000000e+000
      vertex -4.500000e+000 -2.150000e+001  4.000000e+000
    endloop
  endfacet
  facet normal  9.999999e-001  -0.000000e+000  0.000000e+000
    outer loop
      vertex  5.500000e+000 -1.515000e+001  4.000000e+000
      vertex  5.500000e+000 -2.150000e+001  4.000000e+000
      vertex  5.500000e+000 -1.515000e+001  0.000000e+000
    endloop
  endfacet
  facet normal  9.999999e-001  0.000000e+000  0.000000e+000
    outer loop
      vertex  5.500000e+000 -1.515000e+001  0.000000e+000
      vertex  5.500000e+000 -2.150000e+001  4.000000e+000
      vertex  5.500000e+000 -2.150000e+001  0.000000e+000
    endloop
  endfacet
  facet normal -9.999999e-001  0.000000e+000  0.000000e+000
    outer loop
      vertex  4.500000e+000 -1.515000e+001  0.000000e+000
      vertex  4.500000e+000 -2.150000e+001  0.000000e+000
      vertex  4.500000e+000 -1.515000e+001  4.000000e+000
    endloop
  endfacet
  facet normal -9.999999e-001  -0.000000e+000  0.000000e+000
    outer loop
      vertex  4.500000e+000 -1.515000e+001  4.000000e+000
      vertex  4.500000e+000 -2.150000e+001  0.000000e+000
      vertex  4.500000e+000 -2.150000e+001  4.000000e+000
    endloop
  endfacet
  facet normal  0.000000e+000  0.000000e+000  9.999999e-001
    outer loop
      vertex  4.500000e+000 -1.515000e+001  4.000000e+000
      vertex  4.500000e+000 -2.150000e+001  4.000000e+000
      vertex  5.500000e+000 -1.515000e+001  4.000000e+000
    endloop
  endfacet
  facet normal  0.000000e+000  0.000000e+000  9.999999e-001
    outer loop
      vertex  5.500000e+000 -1.515000e+001  4.000000e+000
      vertex  4.500000e+000 -2.150000e+001  4.000000e+000
      vertex  5.500000e+000 -2.150000e+001  4.000000e+000
    endloop
  endfacet
  facet normal  9.999999e-001  -0.000000e+000  0.000000e+000
    outer loop
      vertex  1.550000e+001 -1.515000e+001  4.000000e+000
      vertex  1.550000e+001 -2.150000e+001  4.000000e+000
      vertex  1.550000e+001 -1.515000e+001  0.000000e+000
    endloop
  endfacet
  facet normal  9.999999e-001  0.000000e+000  0.000000e+000
    outer loop
      vertex  1.550000e+001 -1.515000e+001  0.000000e+000
      vertex  1.550000e+001 -2.150000e+001  4.000000e+000
      vertex  1.550000e+001 -2.150000e+001  0.000000e+000
    endloop
  endfacet
  facet normal -9.999999e-001  0.000000e+000  0.000000e+000
    outer loop
      vertex  1.450000e+001 -1.515000e+001  0.000000e+000
      vertex  1.450000e+001 -2.150000e+001  0.000000e+000
      vertex  1.450000e+001 -1.515000e+001  4.000000e+000
    endloop
  endfacet
  facet normal -9.999999e-001  -0.000000e+000  0.000000e+000
    outer loop
      vertex  1.450000e+001 -1.515000e+001  4.000000e+000
      vertex  1.450000e+001 -2.150000e+001  0.000000e+000
      vertex  1.450000e+001 -2.150000e+001  4.000000e+000
    endloop
  endfacet
  facet normal  0.000000e+000  0.000000e+000  9.999999e-001
    outer loop
      vertex  1.450000e+001 -1.515000e+001  4.000000e+000
      vertex  1.450000e+001 -2.150000e+001  4.000000e+000
      vertex  1.550000e+001 -1.515000e+001  4.000000e+000
    endloop
  endfacet
  facet normal  0.000000e+000  0.000000e+000  9.999999e-001
    outer loop
      vertex  1.550000e+001 -1.515000e+001  4.000000e+000
      vertex  1.450000e+001 -2.150000e+001  4.000000e+000
      vertex  1.550000e+001 -2.150000e+001  4.000000e+000
    endloop
  endfacet
  facet normal  0.000000e+000  1.000000e+000  -0.000000e+000
    outer loop
      vertex -2.450000e+001  2.150000e+001  4.000000e+000
      vertex -2.450000e+001  2.150000e+001 -1.598721e-014
      vertex -2.550000e+001  2.150000e+001  4.000000e+000
    endloop
  endfacet
  facet normal  0.000000e+000  1.000000e+000  0.000000e+000
    outer loop
      vertex -2.550000e+001  2.150000e+001  4.000000e+000
      vertex -2.450000e+001  2.150000e+001 -1.598721e-014
      vertex -2.550000e+001  2.150000e+001  0.000000e+000
    endloop
  endfacet
  facet normal  0.000000e+000  1.000000e+000  -0.000000e+000
    outer loop
      vertex -1.450000e+001  2.150000e+001  4.000000e+000
      vertex -1.450000e+001  2.150000e+001 -1.598721e-014
      vertex -1.550000e+001  2.150000e+001  4.000000e+000
    endloop
  endfacet
  facet normal  0.000000e+000  1.000000e+000  0.000000e+000
    outer loop
      vertex -1.550000e+001  2.150000e+001  4.000000e+000
      vertex -1.450000e+001  2.150000e+001 -1.598721e-014
      vertex -1.550000e+001  2.150000e+001  0.000000e+000
    endloop
  endfacet
  facet normal  0.000000e+000  1.000000e+000  -0.000000e+000
    outer loop
      vertex -4.500000e+000  2.150000e+001  4.000000e+000
      vertex -4.500000e+000  2.150000e+001 -1.598721e-014
      vertex -5.500000e+000  2.150000e+001  4.000000e+000
    endloop
  endfacet
  facet normal  0.000000e+000  1.000000e+000  0.000000e+000
    outer loop
      vertex -5.500000e+000  2.150000e+001  4.000000e+000
      vertex -4.500000e+000  2.150000e+001 -1.598721e-014
      vertex -5.500000e+000  2.150000e+001  0.000000e+000
    endloop
  endfacet
  facet normal  0.000000e+000  1.000000e+000  -0.000000e+000
    outer loop
      vertex  5.500000e+000  2.150000e+001  4.000000e+000
      vertex  5.500000e+000  2.150000e+001 -1.598721e-014
      vertex  4.500000e+000  2.150000e+001  4.000000e+000
    endloop
  endfacet
  facet normal  0.000000e+000  1.000000e+000  0.000000e+000
    outer loop
      vertex  4.500000e+000  2.150000e+001  4.000000e+000
      vertex  5.500000e+000  2.150000e+001 -1.598721e-014
      vertex  4.500000e+000  2.150000e+001  0.000000e+000
    endloop
  endfacet
  facet normal  0.000000e+000  1.000000e+000  -0.000000e+000
    outer loop
      vertex  1.550000e+001  2.150000e+001  4.000000e+000
      vertex  1.550000e+001  2.150000e+001 -1.598721e-014
      vertex  1.450000e+001  2.150000e+001  4.000000e+000
    endloop
  endfacet
  facet normal  0.000000e+000  1.000000e+000  0.000000e+000
    outer loop
      vertex  1.450000e+001  2.150000e+001  4.000000e+000
      vertex  1.550000e+001  2.150000e+001 -1.598721e-014
      vertex  1.450000e+001  2.150000e+001  0.000000e+000
    endloop
  endfacet
  facet normal  0.000000e+000  1.000000e+000  -0.000000e+000
    outer loop
      vertex  2.550000e+001  2.150000e+001  4.000000e+000
      vertex  2.550000e+001  2.150000e+001 -1.598721e-014
      vertex  2.450000e+001  2.150000e+001  4.000000e+000
    endloop
  endfacet
  facet normal  0.000000e+000  1.000000e+000  0.000000e+000
    outer loop
      vertex  2.450000e+001  2.150000e+001  4.000000e+000
      vertex  2.550000e+001  2.150000e+001 -1.598721e-014
      vertex  2.450000e+001  2.150000e+001  0.000000e+000
    endloop
  endfacet
  facet normal  0.000000e+000 -1.000000e+000  0.000000e+000
    outer loop
      vertex -2.550000e+001 -2.150000e+001  0.000000e+000
      vertex -2.450000e+001 -2.150000e+001  0.000000e+000
      vertex -2.550000e+001 -2.150000e+001  4.000000e+000
    endloop
  endfacet
  facet normal  0.000000e+000 -1.000000e+000  0.000000e+000
    outer loop
      vertex -2.550000e+001 -2.150000e+001  4.000000e+000
      vertex -2.450000e+001 -2.150000e+001  0.000000e+000
      vertex -2.450000e+001 -2.150000e+001  4.000000e+000
    endloop
  endfacet
  facet normal  0.000000e+000 -1.000000e+000  0.000000e+000
    outer loop
      vertex -1.550000e+001 -2.150000e+001  0.000000e+000
      vertex -1.450000e+001 -2.150000e+001  0.000000e+000
      vertex -1.550000e+001 -2.150000e+001  4.000000e+000
    endloop
  endfacet
  facet normal  0.000000e+000 -1.000000e+000  0.000000e+000
    outer loop
      vertex -1.550000e+001 -2.150000e+001  4.000000e+000
      vertex -1.450000e+001 -2.150000e+001  0.000000e+000
      vertex -1.450000e+001 -2.150000e+001  4.000000e+000
    endloop
  endfacet
  facet normal  0.000000e+000 -1.000000e+000  0.000000e+000
    outer loop
      vertex -5.500000e+000 -2.150000e+001  0.000000e+000
      vertex -4.500000e+000 -2.150000e+001  0.000000e+000
      vertex -5.500000e+000 -2.150000e+001  4.000000e+000
    endloop
  endfacet
  facet normal  0.000000e+000 -1.000000e+000  0.000000e+000
    outer loop
      vertex -5.500000e+000 -2.150000e+001  4.000000e+000
      vertex -4.500000e+000 -2.150000e+001  0.000000e+000
      vertex -4.500000e+000 -2.150000e+001  4.000000e+000
    endloop
  endfacet
  facet normal  0.000000e+000 -1.000000e+000  0.000000e+000
    outer loop
      vertex  4.500000e+000 -2.150000e+001  0.000000e+000
      vertex  5.500000e+000 -2.150000e+001  0.000000e+000
      vertex  4.500000e+000 -2.150000e+001  4.000000e+000
    endloop
  endfacet
  facet normal  0.000000e+000 -1.000000e+000  0.000000e+000
    outer loop
      vertex  4.500000e+000 -2.150000e+001  4.000000e+000
      vertex  5.500000e+000 -2.150000e+001  0.000000e+000
      vertex  5.500000e+000 -2.150000e+001  4.000000e+000
    endloop
  endfacet
  facet normal  0.000000e+000 -1.000000e+000  0.000000e+000
    outer loop
      vertex  1.450000e+001 -2.150000e+001  0.000000e+000
      vertex  1.550000e+001 -2.150000e+001  0.000000e+000
      vertex  1.450000e+001 -2.150000e+001  4.000000e+000
    endloop
  endfacet
  facet normal  0.000000e+000 -1.000000e+000  0.000000e+000
    outer loop
      vertex  1.450000e+001 -2.150000e+001  4.000000e+000
      vertex  1.550000e+001 -2.150000e+001  0.000000e+000
      vertex  1.550000e+001 -2.150000e+001  4.000000e+000
    endloop
  endfacet
  facet normal  9.999999e-001  -0.000000e+000  0.000000e+000
    outer loop
      vertex  2.550000e+001 -1.515000e+001  4.000000e+000
      vertex  2.550000e+001 -2.150000e+001  4.000000e+000
      vertex  2.550000e+001 -1.515000e+001  0.000000e+000
    endloop
  endfacet
  facet normal  9.999999e-001  0.000000e+000  0.000000e+000
    outer loop
      vertex  2.550000e+001 -1.515000e+001  0.000000e+000
      vertex  2.550000e+001 -2.150000e+001  4.000000e+000
      vertex  2.550000e+001 -2.150000e+001  0.000000e+000
    endloop
  endfacet
  facet normal -9.999999e-001  0.000000e+000  0.000000e+000
    outer loop
      vertex  2.450000e+001 -1.515000e+001  0.000000e+000
      vertex  2.450000e+001 -2.150000e+001  0.000000e+000
      vertex  2.450000e+001 -1.515000e+001  4.000000e+000
    endloop
  endfacet
  facet normal -9.999999e-001  -0.000000e+000  0.000000e+000
    outer loop
      vertex  2.450000e+001 -1.515000e+001  4.000000e+000
      vertex  2.450000e+001 -2.150000e+001  0.000000e+000
      vertex  2.450000e+001 -2.150000e+001  4.000000e+000
    endloop
  endfacet
  facet normal  0.000000e+000  0.000000e+000  9.999999e-001
    outer loop
      vertex  2.450000e+001 -1.515000e+001  4.000000e+000
      vertex  2.450000e+001 -2.150000e+001  4.000000e+000
      vertex  2.550000e+001 -1.515000e+001  4.000000e+000
    endloop
  endfacet
  facet normal  0.000000e+000  0.000000e+000  9.999999e-001
    outer loop
      vertex  2.550000e+001 -1.515000e+001  4.000000e+000
      vertex  2.450000e+001 -2.150000e+001  4.000000e+000
      vertex  2.550000e+001 -2.150000e+001  4.000000e+000
    endloop
  endfacet
  facet normal  0.000000e+000 -1.000000e+000  0.000000e+000
    outer loop
      vertex  2.450000e+001 -2.150000e+001  0.000000e+000
      vertex  2.550000e+001 -2.150000e+001  0.000000e+000
      vertex  2.450000e+001 -2.150000e+001  4.000000e+000
    endloop
  endfacet
  facet normal  0.000000e+000 -1.000000e+000  0.000000e+000
    outer loop
      vertex  2.450000e+001 -2.150000e+001  4.000000e+000
      vertex  2.550000e+001 -2.150000e+001  0.000000e+000
      vertex  2.550000e+001 -2.150000e+001  4.000000e+000
    endloop
  endfacet
  facet normal  1.000000e+000  0.000000e+000  0.000000e+000
    outer loop
      vertex  3.500000e+001  1.515000e+001  5.000000e+000
      vertex  3.500000e+001  1.515000e+001  3.850000e+001
      vertex  3.500000e+001 -1.515000e+001  5.000000e+000
    endloop
  endfacet
  facet normal  1.000000e+000  0.000000e+000  0.000000e+000
    outer loop
      vertex  3.500000e+001 -1.515000e+001  5.000000e+000
      vertex  3.500000e+001  1.515000e+001  3.850000e+001
      vertex  3.500000e+001 -1.515000e+001  3.850000e+001
    endloop
  endfacet
  facet normal -1.000000e+000  0.000000e+000  0.000000e+000
    outer loop
      vertex -3.500000e+001 -1.515000e+001  5.000000e+000
      vertex -3.500000e+001 -1.515000e+001  3.850000e+001
      vertex -3.500000e+001  1.515000e+001  5.000000e+000
    endloop
  endfacet
  facet normal -1.000000e+000  0.000000e+000  0.000000e+000
    outer loop
      vertex -3.500000e+001  1.515000e+001  5.000000e+000
      vertex -3.500000e+001 -1.515000e+001  3.850000e+001
      vertex -3.500000e+001  1.515000e+001  3.850000e+001
    endloop
  endfacet
  facet normal  0.000000e+000  0.000000e+000  1.000000e+000
    outer loop
      vertex  3.500000e+001  1.515000e+001  5.000000e+000
      vertex  3.500000e+001 -1.515000e+001  5.000000e+000
      vertex  4.052520e+001 -8.835906e-001  5.000000e+000
    endloop
  endfacet
  facet normal  0.000000e+000  -0.000000e+000  1.000000e+000
    outer loop
      vertex  3.500000e+001  1.515000e+001  5.000000e+000
      vertex  4.052520e+001 -8.835906e-001  5.000000e+000
      vertex  4.190020e+001  1.154054e-001  5.000000e+000
    endloop
  endfacet
  facet normal  0.000000e+000  -0.000000e+000  1.000000e+000
    outer loop
      vertex  3.500000e+001  1.515000e+001  5.000000e+000
      vertex  4.190020e+001  1.154054e-001  5.000000e+000
      vertex  4.359980e+001  1.154054e-001  5.000000e+000
    endloop
  endfacet
  facet normal  0.000000e+000  -0.000000e+000  1.000000e+000
    outer loop
      vertex  3.500000e+001  1.515000e+001  5.000000e+000
      vertex  4.359980e+001  1.154054e-001  5.000000e+000
      vertex  5.150000e+001  1.000000e+001  5.000000e+000
    endloop
  endfacet
  facet normal  0.000000e+000  0.000000e+000  1.000000e+000
    outer loop
      vertex  5.150000e+001 -1.102182e-014  5.000000e+000
      vertex  5.150000e+001  1.000000e+001  5.000000e+000
      vertex  4.359980e+001  1.154054e-001  5.000000e+000
    endloop
  endfacet
  facet normal  0.000000e+000  0.000000e+000  1.000000e+000
    outer loop
      vertex  5.150000e+001 -1.102182e-014  5.000000e+000
      vertex  4.359980e+001  1.154054e-001  5.000000e+000
      vertex  4.497480e+001 -8.835906e-001  5.000000e+000
    endloop
  endfacet
  facet normal  -0.000000e+000  0.000000e+000  1.000000e+000
    outer loop
      vertex  5.150000e+001 -1.102182e-014  5.000000e+000
      vertex  4.497480e+001 -8.835906e-001  5.000000e+000
      vertex  5.150000e+001 -1.000000e+001  5.000000e+000
    endloop
  endfacet
  facet normal  0.000000e+000  0.000000e+000  1.000000e+000
    outer loop
      vertex  3.500000e+001 -1.515000e+001  5.000000e+000
      vertex  5.150000e+001 -1.000000e+001  5.000000e+000
      vertex  4.359980e+001 -5.115406e+000  5.000000e+000
    endloop
  endfacet
  facet normal  0.000000e+000  0.000000e+000  1.000000e+000
    outer loop
      vertex  3.500000e+001 -1.515000e+001  5.000000e+000
      vertex  4.359980e+001 -5.115406e+000  5.000000e+000
      vertex  4.190020e+001 -5.115406e+000  5.000000e+000
    endloop
  endfacet
  facet normal  0.000000e+000  0.000000e+000  1.000000e+000
    outer loop
      vertex  3.500000e+001 -1.515000e+001  5.000000e+000
      vertex  4.190020e+001 -5.115406e+000  5.000000e+000
      vertex  4.052520e+001 -4.116409e+000  5.000000e+000
    endloop
  endfacet
  facet normal  0.000000e+000  0.000000e+000  1.000000e+000
    outer loop
      vertex  3.500000e+001 -1.515000e+001  5.000000e+000
      vertex  4.052520e+001 -4.116409e+000  5.000000e+000
      vertex  4.000000e+001 -2.500000e+000  5.000000e+000
    endloop
  endfacet
  facet normal  0.000000e+000  -0.000000e+000  1.000000e+000
    outer loop
      vertex  3.500000e+001 -1.515000e+001  5.000000e+000
      vertex  4.000000e+001 -2.500000e+000  5.000000e+000
      vertex  4.052520e+001 -8.835906e-001  5.000000e+000
    endloop
  endfacet
  facet normal  0.000000e+000  0.000000e+000  1.000000e+000
    outer loop
      vertex  5.150000e+001 -1.000000e+001  5.000000e+000
      vertex  4.497480e+001 -8.835906e-001  5.000000e+000
      vertex  4.550000e+001 -2.500000e+000  5.000000e+000
    endloop
  endfacet
  facet normal  0.000000e+000  0.000000e+000  1.000000e+000
    outer loop
      vertex  5.150000e+001 -1.000000e+001  5.000000e+000
      vertex  4.550000e+001 -2.500000e+000  5.000000e+000
      vertex  4.497480e+001 -4.116409e+000  5.000000e+000
    endloop
  endfacet
  facet normal  0.000000e+000  0.000000e+000  1.000000e+000
    outer loop
      vertex  5.150000e+001 -1.000000e+001  5.000000e+000
      vertex  4.497480e+001 -4.116409e+000  5.000000e+000
      vertex  4.359980e+001 -5.115406e+000  5.000000e+000
    endloop
  endfacet
  facet normal  0.000000e+000  0.000000e+000  1.000000e+000
    outer loop
      vertex -5.150000e+001  1.000000e+001  5.000000e+000
      vertex -5.150000e+001  1.065814e-014  5.000000e+000
      vertex -4.359980e+001  5.115406e+000  5.000000e+000
    endloop
  endfacet
  facet normal  0.000000e+000  -0.000000e+000  1.000000e+000
    outer loop
      vertex -5.150000e+001  1.000000e+001  5.000000e+000
      vertex -4.359980e+001  5.115406e+000  5.000000e+000
      vertex -4.190020e+001  5.115406e+000  5.000000e+000
    endloop
  endfacet
  facet normal  0.000000e+000  0.000000e+000  1.000000e+000
    outer loop
      vertex -3.500000e+001 -1.515000e+001  5.000000e+000
      vertex -4.000000e+001  2.500000e+000  5.000000e+000
      vertex -4.052520e+001  8.835906e-001  5.000000e+000
    endloop
  endfacet
  facet normal  0.000000e+000  0.000000e+000  1.000000e+000
    outer loop
      vertex -3.500000e+001 -1.515000e+001  5.000000e+000
      vertex -4.052520e+001  8.835906e-001  5.000000e+000
      vertex -4.190020e+001 -1.154054e-001  5.000000e+000
    endloop
  endfacet
  facet normal  0.000000e+000  0.000000e+000  1.000000e+000
    outer loop
      vertex -3.500000e+001 -1.515000e+001  5.000000e+000
      vertex -4.190020e+001 -1.154054e-001  5.000000e+000
      vertex -4.359980e+001 -1.154054e-001  5.000000e+000
    endloop
  endfacet
  facet normal  0.000000e+000  0.000000e+000  1.000000e+000
    outer loop
      vertex -3.500000e+001 -1.515000e+001  5.000000e+000
      vertex -4.359980e+001 -1.154054e-001  5.000000e+000
      vertex -5.150000e+001 -1.000000e+001  5.000000e+000
    endloop
  endfacet
  facet normal  0.000000e+000  0.000000e+000  1.000000e+000
    outer loop
      vertex -5.150000e+001  1.065814e-014  5.000000e+000
      vertex -5.150000e+001 -1.000000e+001  5.000000e+000
      vertex -4.359980e+001 -1.154054e-001  5.000000e+000
    endloop
  endfacet
  facet normal  0.000000e+000  0.000000e+000  1.000000e+000
    outer loop
      vertex -5.150000e+001  1.065814e-014  5.000000e+000
      vertex -4.359980e+001 -1.154054e-001  5.000000e+000
      vertex -4.497480e+001  8.835906e-001  5.000000e+000
    endloop
  endfacet
  facet normal  0.000000e+000  0.000000e+000  1.000000e+000
    outer loop
      vertex -5.150000e+001  1.065814e-014  5.000000e+000
      vertex -4.497480e+001  8.835906e-001  5.000000e+000
      vertex -4.550000e+001  2.500000e+000  5.000000e+000
    endloop
  endfacet
  facet normal  0.000000e+000  -0.000000e+000  1.000000e+000
    outer loop
      vertex -5.150000e+001  1.065814e-014  5.000000e+000
      vertex -4.550000e+001  2.500000e+000  5.000000e+000
      vertex -4.497480e+001  4.116409e+000  5.000000e+000
    endloop
  endfacet
  facet normal  0.000000e+000  -0.000000e+000  1.000000e+000
    outer loop
      vertex -5.150000e+001  1.065814e-014  5.000000e+000
      vertex -4.497480e+001  4.116409e+000  5.000000e+000
      vertex -4.359980e+001  5.115406e+000  5.000000e+000
    endloop
  endfacet
  facet normal  -0.000000e+000  0.000000e+000  1.000000e+000
    outer loop
      vertex -3.500000e+001  1.515000e+001  5.000000e+000
      vertex -5.150000e+001  1.000000e+001  5.000000e+000
      vertex -4.190020e+001  5.115406e+000  5.000000e+000
    endloop
  endfacet
  facet normal  -0.000000e+000  0.000000e+000  1.000000e+000
    outer loop
      vertex -3.500000e+001  1.515000e+001  5.000000e+000
      vertex -4.190020e+001  5.115406e+000  5.000000e+000
      vertex -4.052520e+001  4.116409e+000  5.000000e+000
    endloop
  endfacet
  facet normal  -0.000000e+000  0.000000e+000  1.000000e+000
    outer loop
      vertex -3.500000e+001  1.515000e+001  5.000000e+000
      vertex -4.052520e+001  4.116409e+000  5.000000e+000
      vertex -4.000000e+001  2.500000e+000  5.000000e+000
    endloop
  endfacet
  facet normal  -0.000000e+000  0.000000e+000  1.000000e+000
    outer loop
      vertex -3.500000e+001  1.515000e+001  5.000000e+000
      vertex -4.000000e+001  2.500000e+000  5.000000e+000
      vertex -3.500000e+001 -1.515000e+001  5.000000e+000
    endloop
  endfacet
  facet normal  2.979455e-001  9.545829e-001  0.000000e+000
    outer loop
      vertex  3.500000e+001  1.515000e+001  5.000000e+000
      vertex  5.150000e+001  1.000000e+001  5.000000e+000
      vertex  3.500000e+001  1.515000e+001  0.000000e+000
    endloop
  endfacet
  facet normal  2.979455e-001  9.545829e-001  0.000000e+000
    outer loop
      vertex  3.500000e+001  1.515000e+001  0.000000e+000
      vertex  5.150000e+001  1.000000e+001  5.000000e+000
      vertex  5.150000e+001  1.000000e+001  0.000000e+000
    endloop
  endfacet
  facet normal  2.979455e-001 -9.545829e-001  0.000000e+000
    outer loop
      vertex  3.500000e+001 -1.515000e+001  5.000000e+000
      vertex  3.500000e+001 -1.515000e+001  0.000000e+000
      vertex  5.150000e+001 -1.000000e+001  5.000000e+000
    endloop
  endfacet
  facet normal  2.979455e-001 -9.545829e-001  0.000000e+000
    outer loop
      vertex  5.150000e+001 -1.000000e+001  5.000000e+000
      vertex  3.500000e+001 -1.515000e+001  0.000000e+000
      vertex  5.150000e+001 -1.000000e+001  0.000000e+000
    endloop
  endfacet
  facet normal -2.979455e-001 -9.545829e-001  0.000000e+000
    outer loop
      vertex -3.500000e+001 -1.515000e+001  5.000000e+000
      vertex -5.150000e+001 -1.000000e+001  5.000000e+000
      vertex -3.500000e+001 -1.515000e+001  0.000000e+000
    endloop
  endfacet
  facet normal -2.979455e-001 -9.545829e-001  0.000000e+000
    outer loop
      vertex -3.500000e+001 -1.515000e+001  0.000000e+000
      vertex -5.150000e+001 -1.000000e+001  5.000000e+000
      vertex -5.150000e+001 -1.000000e+001  0.000000e+000
    endloop
  endfacet
  facet normal -2.979455e-001  9.545829e-001  0.000000e+000
    outer loop
      vertex -3.500000e+001  1.515000e+001  5.000000e+000
      vertex -3.500000e+001  1.515000e+001  0.000000e+000
      vertex -5.150000e+001  1.000000e+001  5.000000e+000
    endloop
  endfacet
  facet normal -2.979455e-001  9.545829e-001  0.000000e+000
    outer loop
      vertex -5.150000e+001  1.000000e+001  5.000000e+000
      vertex -3.500000e+001  1.515000e+001  0.000000e+000
      vertex -5.150000e+001  1.000000e+001  0.000000e+000
    endloop
  endfacet
  facet normal  0.000000e+000  0.000000e+000  1.000000e+000
    outer loop
      vertex -3.500000e+001 -1.515000e+001  3.850000e+001
      vertex  3.500000e+001 -1.515000e+001  3.850000e+001
      vertex -3.500000e+001  1.515000e+001  3.850000e+001
    endloop
  endfacet
  facet normal  -0.000000e+000  0.000000e+000  1.000000e+000
    outer loop
      vertex -3.500000e+001  1.515000e+001  3.850000e+001
      vertex  3.500000e+001 -1.515000e+001  3.850000e+001
      vertex  3.500000e+001  1.515000e+001  3.850000e+001
    endloop
  endfacet
  facet normal  5.877854e-001 -8.090169e-001  0.000000e+000
    outer loop
      vertex -4.359980e+001  5.115406e+000  0.000000e+000
      vertex -4.497480e+001  4.116409e+000  5.000000e+000
      vertex -4.497480e+001  4.116409e+000  0.000000e+000
    endloop
  endfacet
  facet normal  9.510565e-001 -3.090173e-001  0.000000e+000
    outer loop
      vertex -4.497480e+001  4.116409e+000  0.000000e+000
      vertex -4.497480e+001  4.116409e+000  5.000000e+000
      vertex -4.550000e+001  2.500000e+000  5.000000e+000
    endloop
  endfacet
  facet normal  9.510565e-001 -3.090173e-001  0.000000e+000
    outer loop
      vertex -4.497480e+001  4.116409e+000  0.000000e+000
      vertex -4.550000e+001  2.500000e+000  5.000000e+000
      vertex -4.550000e+001  2.500000e+000  0.000000e+000
    endloop
  endfacet
  facet normal  5.877854e-001 -8.090169e-001  0.000000e+000
    outer loop
      vertex -4.497480e+001  4.116409e+000  5.000000e+000
      vertex -4.359980e+001  5.115406e+000  0.000000e+000
      vertex -4.359980e+001  5.115406e+000  5.000000e+000
    endloop
  endfacet
  facet normal  0.000000e+000 -1.000000e+000  0.000000e+000
    outer loop
      vertex -4.359980e+001  5.115406e+000  5.000000e+000
      vertex -4.359980e+001  5.115406e+000  0.000000e+000
      vertex -4.190020e+001  5.115406e+000  0.000000e+000
    endloop
  endfacet
  facet normal  0.000000e+000 -1.000000e+000  0.000000e+000
    outer loop
      vertex -4.359980e+001  5.115406e+000  5.000000e+000
      vertex -4.190020e+001  5.115406e+000  0.000000e+000
      vertex -4.190020e+001  5.115406e+000  5.000000e+000
    endloop
  endfacet
  facet normal -5.877854e-001 -8.090169e-001  -0.000000e+000
    outer loop
      vertex -4.190020e+001  5.115406e+000  5.000000e+000
      vertex -4.190020e+001  5.115406e+000  0.000000e+000
      vertex -4.052520e+001  4.116409e+000  0.000000e+000
    endloop
  endfacet
  facet normal -5.877854e-001 -8.090169e-001  0.000000e+000
    outer loop
      vertex -4.190020e+001  5.115406e+000  5.000000e+000
      vertex -4.052520e+001  4.116409e+000  0.000000e+000
      vertex -4.052520e+001  4.116409e+000  5.000000e+000
    endloop
  endfacet
  facet normal -9.510565e-001 -3.090173e-001  -0.000000e+000
    outer loop
      vertex -4.052520e+001  4.116409e+000  5.000000e+000
      vertex -4.052520e+001  4.116409e+000  0.000000e+000
      vertex -4.000000e+001  2.500000e+000  0.000000e+000
    endloop
  endfacet
  facet normal -9.510565e-001 -3.090173e-001  0.000000e+000
    outer loop
      vertex -4.052520e+001  4.116409e+000  5.000000e+000
      vertex -4.000000e+001  2.500000e+000  0.000000e+000
      vertex -4.000000e+001  2.500000e+000  5.000000e+000
    endloop
  endfacet
  facet normal -5.877853e-001  8.090171e-001  0.000000e+000
    outer loop
      vertex -4.190020e+001 -1.154054e-001  0.000000e+000
      vertex -4.052520e+001  8.835906e-001  5.000000e+000
      vertex -4.052520e+001  8.835906e-001  0.000000e+000
    endloop
  endfacet
  facet normal -9.510565e-001  3.090172e-001  0.000000e+000
    outer loop
      vertex -4.052520e+001  8.835906e-001  0.000000e+000
      vertex -4.052520e+001  8.835906e-001  5.000000e+000
      vertex -4.000000e+001  2.500000e+000  5.000000e+000
    endloop
  endfacet
  facet normal -9.510565e-001  3.090172e-001  0.000000e+000
    outer loop
      vertex -4.052520e+001  8.835906e-001  0.000000e+000
      vertex -4.000000e+001  2.500000e+000  5.000000e+000
      vertex -4.000000e+001  2.500000e+000  0.000000e+000
    endloop
  endfacet
  facet normal -5.877853e-001  8.090171e-001  0.000000e+000
    outer loop
      vertex -4.052520e+001  8.835906e-001  5.000000e+000
      vertex -4.190020e+001 -1.154054e-001  0.000000e+000
      vertex -4.190020e+001 -1.154054e-001  5.000000e+000
    endloop
  endfacet
  facet normal  0.000000e+000  1.000000e+000  0.000000e+000
    outer loop
      vertex -4.190020e+001 -1.154054e-001  5.000000e+000
      vertex -4.190020e+001 -1.154054e-001  0.000000e+000
      vertex -4.359980e+001 -1.154054e-001  0.000000e+000
    endloop
  endfacet
  facet normal  0.000000e+000  1.000000e+000  0.000000e+000
    outer loop
      vertex -4.190020e+001 -1.154054e-001  5.000000e+000
      vertex -4.359980e+001 -1.154054e-001  0.000000e+000
      vertex -4.359980e+001 -1.154054e-001  5.000000e+000
    endloop
  endfacet
  facet normal  5.877853e-001  8.090171e-001  0.000000e+000
    outer loop
      vertex -4.359980e+001 -1.154054e-001  5.000000e+000
      vertex -4.359980e+001 -1.154054e-001  0.000000e+000
      vertex -4.497480e+001  8.835906e-001  0.000000e+000
    endloop
  endfacet
  facet normal  5.877853e-001  8.090171e-001  -0.000000e+000
    outer loop
      vertex -4.359980e+001 -1.154054e-001  5.000000e+000
      vertex -4.497480e+001  8.835906e-001  0.000000e+000
      vertex -4.497480e+001  8.835906e-001  5.000000e+000
    endloop
  endfacet
  facet normal  9.510565e-001  3.090172e-001  0.000000e+000
    outer loop
      vertex -4.497480e+001  8.835906e-001  5.000000e+000
      vertex -4.497480e+001  8.835906e-001  0.000000e+000
      vertex -4.550000e+001  2.500000e+000  0.000000e+000
    endloop
  endfacet
  facet normal  9.510565e-001  3.090172e-001  -0.000000e+000
    outer loop
      vertex -4.497480e+001  8.835906e-001  5.000000e+000
      vertex -4.550000e+001  2.500000e+000  0.000000e+000
      vertex -4.550000e+001  2.500000e+000  5.000000e+000
    endloop
  endfacet
  facet normal  5.877853e-001 -8.090171e-001  0.000000e+000
    outer loop
      vertex  4.190020e+001  1.154054e-001  0.000000e+000
      vertex  4.052520e+001 -8.835906e-001  5.000000e+000
      vertex  4.052520e+001 -8.835906e-001  0.000000e+000
    endloop
  endfacet
  facet normal  9.510565e-001 -3.090172e-001  0.000000e+000
    outer loop
      vertex  4.052520e+001 -8.835906e-001  0.000000e+000
      vertex  4.052520e+001 -8.835906e-001  5.000000e+000
      vertex  4.000000e+001 -2.500000e+000  5.000000e+000
    endloop
  endfacet
  facet normal  9.510565e-001 -3.090172e-001  0.000000e+000
    outer loop
      vertex  4.052520e+001 -8.835906e-001  0.000000e+000
      vertex  4.000000e+001 -2.500000e+000  5.000000e+000
      vertex  4.000000e+001 -2.500000e+000  0.000000e+000
    endloop
  endfacet
  facet normal  5.877853e-001 -8.090171e-001  0.000000e+000
    outer loop
      vertex  4.052520e+001 -8.835906e-001  5.000000e+000
      vertex  4.190020e+001  1.154054e-001  0.000000e+000
      vertex  4.190020e+001  1.154054e-001  5.000000e+000
    endloop
  endfacet
  facet normal  0.000000e+000 -1.000000e+000  0.000000e+000
    outer loop
      vertex  4.190020e+001  1.154054e-001  5.000000e+000
      vertex  4.190020e+001  1.154054e-001  0.000000e+000
      vertex  4.359980e+001  1.154054e-001  0.000000e+000
    endloop
  endfacet
  facet normal  0.000000e+000 -1.000000e+000  0.000000e+000
    outer loop
      vertex  4.190020e+001  1.154054e-001  5.000000e+000
      vertex  4.359980e+001  1.154054e-001  0.000000e+000
      vertex  4.359980e+001  1.154054e-001  5.000000e+000
    endloop
  endfacet
  facet normal -5.877853e-001 -8.090171e-001  -0.000000e+000
    outer loop
      vertex  4.359980e+001  1.154054e-001  5.000000e+000
      vertex  4.359980e+001  1.154054e-001  0.000000e+000
      vertex  4.497480e+001 -8.835906e-001  0.000000e+000
    endloop
  endfacet
  facet normal -5.877853e-001 -8.090171e-001  0.000000e+000
    outer loop
      vertex  4.359980e+001  1.154054e-001  5.000000e+000
      vertex  4.497480e+001 -8.835906e-001  0.000000e+000
      vertex  4.497480e+001 -8.835906e-001  5.000000e+000
    endloop
  endfacet
  facet normal -9.510565e-001 -3.090172e-001  -0.000000e+000
    outer loop
      vertex  4.497480e+001 -8.835906e-001  5.000000e+000
      vertex  4.497480e+001 -8.835906e-001  0.000000e+000
      vertex  4.550000e+001 -2.500000e+000  0.000000e+000
    endloop
  endfacet
  facet normal -9.510565e-001 -3.090172e-001  0.000000e+000
    outer loop
      vertex  4.497480e+001 -8.835906e-001  5.000000e+000
      vertex  4.550000e+001 -2.500000e+000  0.000000e+000
      vertex  4.550000e+001 -2.500000e+000  5.000000e+000
    endloop
  endfacet
  facet normal -5.877854e-001  8.090169e-001  0.000000e+000
    outer loop
      vertex  4.359980e+001 -5.115406e+000  0.000000e+000
      vertex  4.497480e+001 -4.116409e+000  5.000000e+000
      vertex  4.497480e+001 -4.116409e+000  0.000000e+000
    endloop
  endfacet
  facet normal -9.510565e-001  3.090173e-001  0.000000e+000
    outer loop
      vertex  4.497480e+001 -4.116409e+000  0.000000e+000
      vertex  4.497480e+001 -4.116409e+000  5.000000e+000
      vertex  4.550000e+001 -2.500000e+000  5.000000e+000
    endloop
  endfacet
  facet normal -9.510565e-001  3.090173e-001  0.000000e+000
    outer loop
      vertex  4.497480e+001 -4.116409e+000  0.000000e+000
      vertex  4.550000e+001 -2.500000e+000  5.000000e+000
      vertex  4.550000e+001 -2.500000e+000  0.000000e+000
    endloop
  endfacet
  facet normal -5.877854e-001  8.090169e-001  0.000000e+000
    outer loop
      vertex  4.497480e+001 -4.116409e+000  5.000000e+000
      vertex  4.359980e+001 -5.115406e+000  0.000000e+000
      vertex  4.359980e+001 -5.115406e+000  5.000000e+000
    endloop
  endfacet
  facet normal  0.000000e+000  1.000000e+000  0.000000e+000
    outer loop
      vertex  4.359980e+001 -5.115406e+000  5.000000e+000
      vertex  4.359980e+001 -5.115406e+000  0.000000e+000
      vertex  4.190020e+001 -5.115406e+000  0.000000e+000
    endloop
  endfacet
  facet normal  0.000000e+000  1.000000e+000  0.000000e+000
    outer loop
      vertex  4.359980e+001 -5.115406e+000  5.000000e+000
      vertex  4.190020e+001 -5.115406e+000  0.000000e+000
      vertex  4.190020e+001 -5.115406e+000  5.000000e+000
    endloop
  endfacet
  facet normal  5.877854e-001  8.090169e-001  0.000000e+000
    outer loop
      vertex  4.190020e+001 -5.115406e+000  5.000000e+000
      vertex  4.190020e+001 -5.115406e+000  0.000000e+000
      vertex  4.052520e+001 -4.116409e+000  0.000000e+000
    endloop
  endfacet
  facet normal  5.877854e-001  8.090169e-001  -0.000000e+000
    outer loop
      vertex  4.190020e+001 -5.115406e+000  5.000000e+000
      vertex  4.052520e+001 -4.116409e+000  0.000000e+000
      vertex  4.052520e+001 -4.116409e+000  5.000000e+000
    endloop
  endfacet
  facet normal  9.510565e-001  3.090173e-001  0.000000e+000
    outer loop
      vertex  4.052520e+001 -4.116409e+000  5.000000e+000
      vertex  4.052520e+001 -4.116409e+000  0.000000e+000
      vertex  4.000000e+001 -2.500000e+000  0.000000e+000
    endloop
  endfacet
  facet normal  9.510565e-001  3.090173e-001  -0.000000e+000
    outer loop
      vertex  4.052520e+001 -4.116409e+000  5.000000e+000
      vertex  4.000000e+001 -2.500000e+000  0.000000e+000
      vertex  4.000000e+001 -2.500000e+000  5.000000e+000
    endloop
  endfacet
  facet normal  1.000000e+000  0.000000e+000  0.000000e+000
    outer loop
      vertex  5.150000e+001 -1.102182e-014  5.000000e+000
      vertex  5.150000e+001 -1.102182e-014  0.000000e+000
      vertex  5.150000e+001  1.000000e+001  5.000000e+000
    endloop
  endfacet
  facet normal  1.000000e+000  0.000000e+000  0.000000e+000
    outer loop
      vertex  5.150000e+001  1.000000e+001  5.000000e+000
      vertex  5.150000e+001 -1.102182e-014  0.000000e+000
      vertex  5.150000e+001  1.000000e+001  0.000000e+000
    endloop
  endfacet
  facet normal  1.000000e+000  0.000000e+000  0.000000e+000
    outer loop
      vertex  5.150000e+001 -1.000000e+001  5.000000e+000
      vertex  5.150000e+001 -1.000000e+001  0.000000e+000
      vertex  5.150000e+001 -1.102182e-014  5.000000e+000
    endloop
  endfacet
  facet normal  1.000000e+000  0.000000e+000  0.000000e+000
    outer loop
      vertex  5.150000e+001 -1.102182e-014  5.000000e+000
      vertex  5.150000e+001 -1.000000e+001  0.000000e+000
      vertex  5.150000e+001 -1.102182e-014  0.000000e+000
    endloop
  endfacet
  facet normal -1.000000e+000  0.000000e+000  0.000000e+000
    outer loop
      vertex -5.150000e+001  1.065814e-014  5.000000e+000
      vertex -5.150000e+001  1.065814e-014  0.000000e+000
      vertex -5.150000e+001 -1.000000e+001  5.000000e+000
    endloop
  endfacet
  facet normal -1.000000e+000  0.000000e+000  0.000000e+000
    outer loop
      vertex -5.150000e+001 -1.000000e+001  5.000000e+000
      vertex -5.150000e+001  1.065814e-014  0.000000e+000
      vertex -5.150000e+001 -1.000000e+001  0.000000e+000
    endloop
  endfacet
  facet normal -1.000000e+000  0.000000e+000  0.000000e+000
    outer loop
      vertex -5.150000e+001  1.000000e+001  5.000000e+000
      vertex -5.150000e+001  1.000000e+001  0.000000e+000
      vertex -5.150000e+001  1.065814e-014  5.000000e+000
    endloop
  endfacet
  facet normal -1.000000e+000  0.000000e+000  0.000000e+000
    outer loop
      vertex -5.150000e+001  1.065814e-014  5.000000e+000
      vertex -5.150000e+001  1.000000e+001  0.000000e+000
      vertex -5.150000e+001  1.065814e-014  0.000000e+000
    endloop
  endfacet
endsolid CATIA STL
