solid CATIA STL
  facet normal  0.000000e+000 -1.000000e+000  0.000000e+000
    outer loop
      vertex  0.000000e+000 -4.350000e+001 -6.920000e+001
      vertex  2.000000e+000 -4.350000e+001 -6.920000e+001
      vertex  2.000000e+000 -4.350000e+001 -5.950000e+001
    endloop
  endfacet
  facet normal  -0.000000e+000 -1.000000e+000  0.000000e+000
    outer loop
      vertex  0.000000e+000 -4.350000e+001 -6.920000e+001
      vertex  2.000000e+000 -4.350000e+001 -5.950000e+001
      vertex  2.000000e+000 -4.350000e+001  5.950000e+001
    endloop
  endfacet
  facet normal  -0.000000e+000 -1.000000e+000  0.000000e+000
    outer loop
      vertex  0.000000e+000 -4.350000e+001 -6.920000e+001
      vertex  2.000000e+000 -4.350000e+001  5.950000e+001
      vertex  2.000000e+000 -4.350000e+001  6.920000e+001
    endloop
  endfacet
  facet normal  -0.000000e+000 -1.000000e+000  0.000000e+000
    outer loop
      vertex  0.000000e+000 -4.350000e+001 -6.920000e+001
      vertex  2.000000e+000 -4.350000e+001  6.920000e+001
      vertex  0.000000e+000 -4.350000e+001  6.920000e+001
    endloop
  endfacet
  facet normal  0.000000e+000 -1.000000e+000  0.000000e+000
    outer loop
      vertex  2.000000e+000 -4.350000e+001  5.950000e+001
      vertex  2.000000e+000 -4.350000e+001 -5.950000e+001
      vertex  2.585786e+000 -4.350000e+001 -5.808578e+001
    endloop
  endfacet
  facet normal  0.000000e+000 -1.000000e+000  0.000000e+000
    outer loop
      vertex  2.000000e+000 -4.350000e+001  5.950000e+001
      vertex  2.585786e+000 -4.350000e+001 -5.808578e+001
      vertex  4.000000e+000 -4.350000e+001 -5.750000e+001
    endloop
  endfacet
  facet normal  0.000000e+000 -1.000000e+000  0.000000e+000
    outer loop
      vertex  2.000000e+000 -4.350000e+001  5.950000e+001
      vertex  4.000000e+000 -4.350000e+001 -5.750000e+001
      vertex  4.865130e+000 -4.350000e+001 -4.223698e+001
    endloop
  endfacet
  facet normal  0.000000e+000 -1.000000e+000  0.000000e+000
    outer loop
      vertex  2.000000e+000 -4.350000e+001  5.950000e+001
      vertex  4.865130e+000 -4.350000e+001 -4.223698e+001
      vertex  5.548196e+000 -4.350000e+001 -3.968775e+001
    endloop
  endfacet
  facet normal  0.000000e+000 -1.000000e+000  0.000000e+000
    outer loop
      vertex  2.000000e+000 -4.350000e+001  5.950000e+001
      vertex  5.548196e+000 -4.350000e+001 -3.968775e+001
      vertex  7.414368e+000 -4.350000e+001 -3.782158e+001
    endloop
  endfacet
  facet normal  0.000000e+000 -1.000000e+000  0.000000e+000
    outer loop
      vertex  2.000000e+000 -4.350000e+001  5.950000e+001
      vertex  7.414368e+000 -4.350000e+001 -3.782158e+001
      vertex  7.717253e+000 -4.350000e+001 -1.725812e+000
    endloop
  endfacet
  facet normal  0.000000e+000 -1.000000e+000  0.000000e+000
    outer loop
      vertex  2.000000e+000 -4.350000e+001  5.950000e+001
      vertex  7.717253e+000 -4.350000e+001 -1.725812e+000
      vertex  7.717253e+000 -4.350000e+001  4.268189e+000
    endloop
  endfacet
  facet normal  0.000000e+000 -1.000000e+000  0.000000e+000
    outer loop
      vertex  2.000000e+000 -4.350000e+001  5.950000e+001
      vertex  7.717253e+000 -4.350000e+001  4.268189e+000
      vertex  8.319588e+000 -4.350000e+001  1.439598e+001
    endloop
  endfacet
  facet normal  0.000000e+000 -1.000000e+000  0.000000e+000
    outer loop
      vertex  2.000000e+000 -4.350000e+001  5.950000e+001
      vertex  8.319588e+000 -4.350000e+001  1.439598e+001
      vertex  8.319588e+000 -4.350000e+001  3.175791e+001
    endloop
  endfacet
  facet normal  0.000000e+000 -1.000000e+000  0.000000e+000
    outer loop
      vertex  2.000000e+000 -4.350000e+001  5.950000e+001
      vertex  8.319588e+000 -4.350000e+001  3.175791e+001
      vertex  2.585786e+000 -4.350000e+001  5.808578e+001
    endloop
  endfacet
  facet normal  0.000000e+000 -1.000000e+000  0.000000e+000
    outer loop
      vertex  3.000000e+001 -4.350000e+001  5.550000e+001
      vertex  9.767683e+000 -4.350000e+001  3.175791e+001
      vertex  9.767683e+000 -4.350000e+001  1.439598e+001
    endloop
  endfacet
  facet normal  0.000000e+000 -1.000000e+000  0.000000e+000
    outer loop
      vertex  3.000000e+001 -4.350000e+001  5.550000e+001
      vertex  9.767683e+000 -4.350000e+001  1.439598e+001
      vertex  9.767683e+000 -4.350000e+001  4.268189e+000
    endloop
  endfacet
  facet normal  0.000000e+000 -1.000000e+000  0.000000e+000
    outer loop
      vertex  3.000000e+001 -4.350000e+001  5.550000e+001
      vertex  9.767683e+000 -4.350000e+001  4.268189e+000
      vertex  9.767683e+000 -4.350000e+001 -1.725812e+000
    endloop
  endfacet
  facet normal  0.000000e+000 -1.000000e+000  0.000000e+000
    outer loop
      vertex  3.000000e+001 -4.350000e+001  5.550000e+001
      vertex  9.767683e+000 -4.350000e+001 -1.725812e+000
      vertex  9.963606e+000 -4.350000e+001 -3.713851e+001
    endloop
  endfacet
  facet normal  0.000000e+000 -1.000000e+000  0.000000e+000
    outer loop
      vertex  3.000000e+001 -4.350000e+001  5.550000e+001
      vertex  9.963606e+000 -4.350000e+001 -3.713851e+001
      vertex  1.251284e+001 -4.350000e+001 -3.782158e+001
    endloop
  endfacet
  facet normal  0.000000e+000 -1.000000e+000  0.000000e+000
    outer loop
      vertex  3.000000e+001 -4.350000e+001  5.550000e+001
      vertex  1.251284e+001 -4.350000e+001 -3.782158e+001
      vertex  1.437902e+001 -4.350000e+001 -3.968775e+001
    endloop
  endfacet
  facet normal  0.000000e+000 -1.000000e+000  0.000000e+000
    outer loop
      vertex  3.000000e+001 -4.350000e+001  5.550000e+001
      vertex  1.437902e+001 -4.350000e+001 -3.968775e+001
      vertex  1.506208e+001 -4.350000e+001 -4.223698e+001
    endloop
  endfacet
  facet normal  0.000000e+000 -1.000000e+000  0.000000e+000
    outer loop
      vertex  4.000000e+000 -4.350000e+001 -5.750000e+001
      vertex  2.800000e+001 -4.350000e+001 -5.750000e+001
      vertex  2.941421e+001 -4.350000e+001 -5.691422e+001
    endloop
  endfacet
  facet normal  -0.000000e+000 -1.000000e+000  0.000000e+000
    outer loop
      vertex  4.000000e+000 -4.350000e+001 -5.750000e+001
      vertex  2.941421e+001 -4.350000e+001 -5.691422e+001
      vertex  9.963606e+000 -4.350000e+001 -4.733546e+001
    endloop
  endfacet
  facet normal  -0.000000e+000 -1.000000e+000  0.000000e+000
    outer loop
      vertex  4.000000e+000 -4.350000e+001 -5.750000e+001
      vertex  9.963606e+000 -4.350000e+001 -4.733546e+001
      vertex  7.414368e+000 -4.350000e+001 -4.665239e+001
    endloop
  endfacet
  facet normal  -0.000000e+000 -1.000000e+000  0.000000e+000
    outer loop
      vertex  4.000000e+000 -4.350000e+001 -5.750000e+001
      vertex  7.414368e+000 -4.350000e+001 -4.665239e+001
      vertex  5.548196e+000 -4.350000e+001 -4.478622e+001
    endloop
  endfacet
  facet normal  -0.000000e+000 -1.000000e+000  0.000000e+000
    outer loop
      vertex  4.000000e+000 -4.350000e+001 -5.750000e+001
      vertex  5.548196e+000 -4.350000e+001 -4.478622e+001
      vertex  4.865130e+000 -4.350000e+001 -4.223698e+001
    endloop
  endfacet
  facet normal  0.000000e+000 -1.000000e+000  -0.000000e+000
    outer loop
      vertex  3.000000e+001 -4.350000e+001 -5.550000e+001
      vertex  3.000000e+001 -4.350000e+001  5.550000e+001
      vertex  1.506208e+001 -4.350000e+001 -4.223698e+001
    endloop
  endfacet
  facet normal  0.000000e+000 -1.000000e+000  -0.000000e+000
    outer loop
      vertex  3.000000e+001 -4.350000e+001 -5.550000e+001
      vertex  1.506208e+001 -4.350000e+001 -4.223698e+001
      vertex  1.437902e+001 -4.350000e+001 -4.478622e+001
    endloop
  endfacet
  facet normal  0.000000e+000 -1.000000e+000  -0.000000e+000
    outer loop
      vertex  3.000000e+001 -4.350000e+001 -5.550000e+001
      vertex  1.437902e+001 -4.350000e+001 -4.478622e+001
      vertex  1.251284e+001 -4.350000e+001 -4.665239e+001
    endloop
  endfacet
  facet normal  0.000000e+000 -1.000000e+000  -0.000000e+000
    outer loop
      vertex  3.000000e+001 -4.350000e+001 -5.550000e+001
      vertex  1.251284e+001 -4.350000e+001 -4.665239e+001
      vertex  9.963606e+000 -4.350000e+001 -4.733546e+001
    endloop
  endfacet
  facet normal  0.000000e+000 -1.000000e+000  0.000000e+000
    outer loop
      vertex  3.000000e+001 -4.350000e+001 -5.550000e+001
      vertex  9.963606e+000 -4.350000e+001 -4.733546e+001
      vertex  2.941421e+001 -4.350000e+001 -5.691422e+001
    endloop
  endfacet
  facet normal  0.000000e+000 -1.000000e+000  0.000000e+000
    outer loop
      vertex  7.717253e+000 -4.350000e+001 -1.725812e+000
      vertex  7.414368e+000 -4.350000e+001 -3.782158e+001
      vertex  9.767683e+000 -4.350000e+001 -1.725812e+000
    endloop
  endfacet
  facet normal  0.000000e+000 -1.000000e+000  -0.000000e+000
    outer loop
      vertex  9.767683e+000 -4.350000e+001 -1.725812e+000
      vertex  7.414368e+000 -4.350000e+001 -3.782158e+001
      vertex  9.963606e+000 -4.350000e+001 -3.713851e+001
    endloop
  endfacet
  facet normal  0.000000e+000 -1.000000e+000  0.000000e+000
    outer loop
      vertex  8.319588e+000 -4.350000e+001  1.439598e+001
      vertex  7.717253e+000 -4.350000e+001  4.268189e+000
      vertex  9.767683e+000 -4.350000e+001  1.439598e+001
    endloop
  endfacet
  facet normal  0.000000e+000 -1.000000e+000  -0.000000e+000
    outer loop
      vertex  9.767683e+000 -4.350000e+001  1.439598e+001
      vertex  7.717253e+000 -4.350000e+001  4.268189e+000
      vertex  9.767683e+000 -4.350000e+001  4.268189e+000
    endloop
  endfacet
  facet normal  0.000000e+000 -1.000000e+000  -0.000000e+000
    outer loop
      vertex  3.000000e+001 -4.350000e+001  5.550000e+001
      vertex  2.941421e+001 -4.350000e+001  5.691422e+001
      vertex  9.767683e+000 -4.350000e+001  3.175791e+001
    endloop
  endfacet
  facet normal  0.000000e+000 -1.000000e+000  0.000000e+000
    outer loop
      vertex  9.767683e+000 -4.350000e+001  3.175791e+001
      vertex  2.941421e+001 -4.350000e+001  5.691422e+001
      vertex  2.800000e+001 -4.350000e+001  5.750000e+001
    endloop
  endfacet
  facet normal  0.000000e+000 -1.000000e+000  0.000000e+000
    outer loop
      vertex  9.767683e+000 -4.350000e+001  3.175791e+001
      vertex  2.800000e+001 -4.350000e+001  5.750000e+001
      vertex  8.319588e+000 -4.350000e+001  3.175791e+001
    endloop
  endfacet
  facet normal  0.000000e+000 -9.999999e-001  0.000000e+000
    outer loop
      vertex  8.319588e+000 -4.350000e+001  3.175791e+001
      vertex  2.800000e+001 -4.350000e+001  5.750000e+001
      vertex  4.000000e+000 -4.350000e+001  5.750000e+001
    endloop
  endfacet
  facet normal  -0.000000e+000 -1.000000e+000  -0.000000e+000
    outer loop
      vertex  8.319588e+000 -4.350000e+001  3.175791e+001
      vertex  4.000000e+000 -4.350000e+001  5.750000e+001
      vertex  2.585786e+000 -4.350000e+001  5.808578e+001
    endloop
  endfacet
  facet normal  0.000000e+000  0.000000e+000  1.000000e+000
    outer loop
      vertex  7.717253e+000 -4.550000e+001  4.268189e+000
      vertex  9.767683e+000 -4.550000e+001  4.268189e+000
      vertex  7.717253e+000 -4.350000e+001  4.268189e+000
    endloop
  endfacet
  facet normal  -0.000000e+000  0.000000e+000  1.000000e+000
    outer loop
      vertex  7.717253e+000 -4.350000e+001  4.268189e+000
      vertex  9.767683e+000 -4.550000e+001  4.268189e+000
      vertex  9.767683e+000 -4.350000e+001  4.268189e+000
    endloop
  endfacet
  facet normal  1.000000e+000  0.000000e+000  0.000000e+000
    outer loop
      vertex  9.767683e+000 -4.550000e+001 -1.725812e+000
      vertex  9.767683e+000 -4.350000e+001 -1.725812e+000
      vertex  9.767683e+000 -4.550000e+001  4.268189e+000
    endloop
  endfacet
  facet normal  1.000000e+000  -0.000000e+000  0.000000e+000
    outer loop
      vertex  9.767683e+000 -4.550000e+001  4.268189e+000
      vertex  9.767683e+000 -4.350000e+001 -1.725812e+000
      vertex  9.767683e+000 -4.350000e+001  4.268189e+000
    endloop
  endfacet
  facet normal -1.162773e-007  0.000000e+000 -1.000000e+000
    outer loop
      vertex  9.767683e+000 -4.550000e+001 -1.725812e+000
      vertex  7.717253e+000 -4.550000e+001 -1.725811e+000
      vertex  9.767683e+000 -4.350000e+001 -1.725812e+000
    endloop
  endfacet
  facet normal  -0.000000e+000 -1.192093e-007 -1.000000e+000
    outer loop
      vertex  9.767683e+000 -4.350000e+001 -1.725812e+000
      vertex  7.717253e+000 -4.550000e+001 -1.725811e+000
      vertex  7.717253e+000 -4.350000e+001 -1.725812e+000
    endloop
  endfacet
  facet normal -1.000000e+000  -0.000000e+000  0.000000e+000
    outer loop
      vertex  7.717253e+000 -4.550000e+001  4.268189e+000
      vertex  7.717253e+000 -4.350000e+001  4.268189e+000
      vertex  7.717253e+000 -4.550000e+001 -1.725811e+000
    endloop
  endfacet
  facet normal -1.000000e+000  0.000000e+000  0.000000e+000
    outer loop
      vertex  7.717253e+000 -4.550000e+001 -1.725811e+000
      vertex  7.717253e+000 -4.350000e+001  4.268189e+000
      vertex  7.717253e+000 -4.350000e+001 -1.725812e+000
    endloop
  endfacet
  facet normal  0.000000e+000  0.000000e+000  9.999999e-001
    outer loop
      vertex  8.319588e+000 -4.350000e+001  3.175791e+001
      vertex  8.319588e+000 -4.550000e+001  3.175791e+001
      vertex  9.767683e+000 -4.350000e+001  3.175791e+001
    endloop
  endfacet
  facet normal  0.000000e+000  0.000000e+000  9.999999e-001
    outer loop
      vertex  9.767683e+000 -4.350000e+001  3.175791e+001
      vertex  8.319588e+000 -4.550000e+001  3.175791e+001
      vertex  9.767683e+000 -4.550000e+001  3.175791e+001
    endloop
  endfacet
  facet normal  1.000000e+000  0.000000e+000  0.000000e+000
    outer loop
      vertex  9.767683e+000 -4.550000e+001  1.439598e+001
      vertex  9.767683e+000 -4.350000e+001  1.439598e+001
      vertex  9.767683e+000 -4.550000e+001  3.175791e+001
    endloop
  endfacet
  facet normal  1.000000e+000  -0.000000e+000  0.000000e+000
    outer loop
      vertex  9.767683e+000 -4.550000e+001  3.175791e+001
      vertex  9.767683e+000 -4.350000e+001  1.439598e+001
      vertex  9.767683e+000 -4.350000e+001  3.175791e+001
    endloop
  endfacet
  facet normal  0.000000e+000  0.000000e+000 -9.999999e-001
    outer loop
      vertex  9.767683e+000 -4.350000e+001  1.439598e+001
      vertex  9.767683e+000 -4.550000e+001  1.439598e+001
      vertex  8.319588e+000 -4.350000e+001  1.439598e+001
    endloop
  endfacet
  facet normal  0.000000e+000  0.000000e+000 -9.999999e-001
    outer loop
      vertex  8.319588e+000 -4.350000e+001  1.439598e+001
      vertex  9.767683e+000 -4.550000e+001  1.439598e+001
      vertex  8.319588e+000 -4.550000e+001  1.439598e+001
    endloop
  endfacet
  facet normal -1.000000e+000  -0.000000e+000  0.000000e+000
    outer loop
      vertex  8.319588e+000 -4.550000e+001  3.175791e+001
      vertex  8.319588e+000 -4.350000e+001  3.175791e+001
      vertex  8.319588e+000 -4.550000e+001  1.439598e+001
    endloop
  endfacet
  facet normal -1.000000e+000  0.000000e+000  0.000000e+000
    outer loop
      vertex  8.319588e+000 -4.550000e+001  1.439598e+001
      vertex  8.319588e+000 -4.350000e+001  3.175791e+001
      vertex  8.319588e+000 -4.350000e+001  1.439598e+001
    endloop
  endfacet
  facet normal  9.659259e-001  0.000000e+000 -2.588189e-001
    outer loop
      vertex  1.506208e+001 -4.350000e+001 -4.223698e+001
      vertex  1.506208e+001 -4.550000e+001 -4.223698e+001
      vertex  1.437902e+001 -4.350000e+001 -4.478622e+001
    endloop
  endfacet
  facet normal  9.659259e-001  0.000000e+000 -2.588189e-001
    outer loop
      vertex  1.437902e+001 -4.350000e+001 -4.478622e+001
      vertex  1.506208e+001 -4.550000e+001 -4.223698e+001
      vertex  1.437902e+001 -4.550000e+001 -4.478622e+001
    endloop
  endfacet
  facet normal  7.071070e-001  0.000000e+000 -7.071066e-001
    outer loop
      vertex  1.437902e+001 -4.350000e+001 -4.478622e+001
      vertex  1.437902e+001 -4.550000e+001 -4.478622e+001
      vertex  1.251284e+001 -4.350000e+001 -4.665239e+001
    endloop
  endfacet
  facet normal  7.071070e-001  0.000000e+000 -7.071066e-001
    outer loop
      vertex  1.251284e+001 -4.350000e+001 -4.665239e+001
      vertex  1.437902e+001 -4.550000e+001 -4.478622e+001
      vertex  1.251284e+001 -4.550000e+001 -4.665239e+001
    endloop
  endfacet
  facet normal  2.588194e-001  0.000000e+000 -9.659257e-001
    outer loop
      vertex  1.251284e+001 -4.350000e+001 -4.665239e+001
      vertex  1.251284e+001 -4.550000e+001 -4.665239e+001
      vertex  9.963606e+000 -4.350000e+001 -4.733546e+001
    endloop
  endfacet
  facet normal  2.588194e-001  0.000000e+000 -9.659257e-001
    outer loop
      vertex  9.963606e+000 -4.350000e+001 -4.733546e+001
      vertex  1.251284e+001 -4.550000e+001 -4.665239e+001
      vertex  9.963606e+000 -4.550000e+001 -4.733546e+001
    endloop
  endfacet
  facet normal -2.588194e-001  0.000000e+000 -9.659257e-001
    outer loop
      vertex  9.963606e+000 -4.350000e+001 -4.733546e+001
      vertex  9.963606e+000 -4.550000e+001 -4.733546e+001
      vertex  7.414368e+000 -4.350000e+001 -4.665239e+001
    endloop
  endfacet
  facet normal -2.588194e-001  -0.000000e+000 -9.659257e-001
    outer loop
      vertex  7.414368e+000 -4.350000e+001 -4.665239e+001
      vertex  9.963606e+000 -4.550000e+001 -4.733546e+001
      vertex  7.414368e+000 -4.550000e+001 -4.665239e+001
    endloop
  endfacet
  facet normal -7.071070e-001  0.000000e+000 -7.071066e-001
    outer loop
      vertex  7.414368e+000 -4.350000e+001 -4.665239e+001
      vertex  7.414368e+000 -4.550000e+001 -4.665239e+001
      vertex  5.548196e+000 -4.350000e+001 -4.478622e+001
    endloop
  endfacet
  facet normal -7.071070e-001  -0.000000e+000 -7.071066e-001
    outer loop
      vertex  5.548196e+000 -4.350000e+001 -4.478622e+001
      vertex  7.414368e+000 -4.550000e+001 -4.665239e+001
      vertex  5.548196e+000 -4.550000e+001 -4.478622e+001
    endloop
  endfacet
  facet normal -9.659258e-001  0.000000e+000 -2.588193e-001
    outer loop
      vertex  5.548196e+000 -4.350000e+001 -4.478622e+001
      vertex  5.548196e+000 -4.550000e+001 -4.478622e+001
      vertex  4.865130e+000 -4.350000e+001 -4.223698e+001
    endloop
  endfacet
  facet normal -9.659258e-001  -0.000000e+000 -2.588193e-001
    outer loop
      vertex  4.865130e+000 -4.350000e+001 -4.223698e+001
      vertex  5.548196e+000 -4.550000e+001 -4.478622e+001
      vertex  4.865130e+000 -4.550000e+001 -4.223698e+001
    endloop
  endfacet
  facet normal -9.659258e-001  0.000000e+000  2.588193e-001
    outer loop
      vertex  4.865130e+000 -4.350000e+001 -4.223698e+001
      vertex  4.865130e+000 -4.550000e+001 -4.223698e+001
      vertex  5.548196e+000 -4.350000e+001 -3.968775e+001
    endloop
  endfacet
  facet normal -9.659258e-001  0.000000e+000  2.588193e-001
    outer loop
      vertex  5.548196e+000 -4.350000e+001 -3.968775e+001
      vertex  4.865130e+000 -4.550000e+001 -4.223698e+001
      vertex  5.548196e+000 -4.550000e+001 -3.968775e+001
    endloop
  endfacet
  facet normal -7.071070e-001  0.000000e+000  7.071066e-001
    outer loop
      vertex  5.548196e+000 -4.350000e+001 -3.968775e+001
      vertex  5.548196e+000 -4.550000e+001 -3.968775e+001
      vertex  7.414368e+000 -4.350000e+001 -3.782158e+001
    endloop
  endfacet
  facet normal -7.071070e-001  0.000000e+000  7.071066e-001
    outer loop
      vertex  7.414368e+000 -4.350000e+001 -3.782158e+001
      vertex  5.548196e+000 -4.550000e+001 -3.968775e+001
      vertex  7.414368e+000 -4.550000e+001 -3.782158e+001
    endloop
  endfacet
  facet normal -2.588194e-001  0.000000e+000  9.659257e-001
    outer loop
      vertex  7.414368e+000 -4.350000e+001 -3.782158e+001
      vertex  7.414368e+000 -4.550000e+001 -3.782158e+001
      vertex  9.963606e+000 -4.350000e+001 -3.713851e+001
    endloop
  endfacet
  facet normal -2.588194e-001  0.000000e+000  9.659257e-001
    outer loop
      vertex  9.963606e+000 -4.350000e+001 -3.713851e+001
      vertex  7.414368e+000 -4.550000e+001 -3.782158e+001
      vertex  9.963606e+000 -4.550000e+001 -3.713851e+001
    endloop
  endfacet
  facet normal  2.588194e-001  -0.000000e+000  9.659257e-001
    outer loop
      vertex  9.963606e+000 -4.350000e+001 -3.713851e+001
      vertex  9.963606e+000 -4.550000e+001 -3.713851e+001
      vertex  1.251284e+001 -4.350000e+001 -3.782158e+001
    endloop
  endfacet
  facet normal  2.588194e-001  0.000000e+000  9.659257e-001
    outer loop
      vertex  1.251284e+001 -4.350000e+001 -3.782158e+001
      vertex  9.963606e+000 -4.550000e+001 -3.713851e+001
      vertex  1.251284e+001 -4.550000e+001 -3.782158e+001
    endloop
  endfacet
  facet normal  7.071070e-001  -0.000000e+000  7.071066e-001
    outer loop
      vertex  1.251284e+001 -4.350000e+001 -3.782158e+001
      vertex  1.251284e+001 -4.550000e+001 -3.782158e+001
      vertex  1.437902e+001 -4.350000e+001 -3.968775e+001
    endloop
  endfacet
  facet normal  7.071070e-001  0.000000e+000  7.071066e-001
    outer loop
      vertex  1.437902e+001 -4.350000e+001 -3.968775e+001
      vertex  1.251284e+001 -4.550000e+001 -3.782158e+001
      vertex  1.437902e+001 -4.550000e+001 -3.968775e+001
    endloop
  endfacet
  facet normal  9.659259e-001  -0.000000e+000  2.588189e-001
    outer loop
      vertex  1.437902e+001 -4.350000e+001 -3.968775e+001
      vertex  1.437902e+001 -4.550000e+001 -3.968775e+001
      vertex  1.506208e+001 -4.350000e+001 -4.223698e+001
    endloop
  endfacet
  facet normal  9.659259e-001  0.000000e+000  2.588189e-001
    outer loop
      vertex  1.506208e+001 -4.350000e+001 -4.223698e+001
      vertex  1.437902e+001 -4.550000e+001 -3.968775e+001
      vertex  1.506208e+001 -4.550000e+001 -4.223698e+001
    endloop
  endfacet
  facet normal  0.000000e+000 -1.000000e+000  0.000000e+000
    outer loop
      vertex  7.717253e+000 -4.550000e+001 -1.725811e+000
      vertex  9.767683e+000 -4.550000e+001 -1.725812e+000
      vertex  7.717253e+000 -4.550000e+001  4.268189e+000
    endloop
  endfacet
  facet normal  0.000000e+000 -1.000000e+000  0.000000e+000
    outer loop
      vertex  7.717253e+000 -4.550000e+001  4.268189e+000
      vertex  9.767683e+000 -4.550000e+001 -1.725812e+000
      vertex  9.767683e+000 -4.550000e+001  4.268189e+000
    endloop
  endfacet
  facet normal  0.000000e+000 -1.000000e+000  0.000000e+000
    outer loop
      vertex  8.319588e+000 -4.550000e+001  1.439598e+001
      vertex  9.767683e+000 -4.550000e+001  1.439598e+001
      vertex  8.319588e+000 -4.550000e+001  3.175791e+001
    endloop
  endfacet
  facet normal  0.000000e+000 -1.000000e+000  0.000000e+000
    outer loop
      vertex  8.319588e+000 -4.550000e+001  3.175791e+001
      vertex  9.767683e+000 -4.550000e+001  1.439598e+001
      vertex  9.767683e+000 -4.550000e+001  3.175791e+001
    endloop
  endfacet
  facet normal  0.000000e+000 -1.000000e+000  0.000000e+000
    outer loop
      vertex  7.414368e+000 -4.550000e+001 -3.782158e+001
      vertex  1.251284e+001 -4.550000e+001 -3.782158e+001
      vertex  9.963606e+000 -4.550000e+001 -3.713851e+001
    endloop
  endfacet
  facet normal  0.000000e+000 -1.000000e+000  0.000000e+000
    outer loop
      vertex  1.251284e+001 -4.550000e+001 -3.782158e+001
      vertex  7.414368e+000 -4.550000e+001 -3.782158e+001
      vertex  1.437902e+001 -4.550000e+001 -3.968775e+001
    endloop
  endfacet
  facet normal  0.000000e+000 -1.000000e+000  0.000000e+000
    outer loop
      vertex  1.437902e+001 -4.550000e+001 -3.968775e+001
      vertex  7.414368e+000 -4.550000e+001 -3.782158e+001
      vertex  5.548196e+000 -4.550000e+001 -3.968775e+001
    endloop
  endfacet
  facet normal  0.000000e+000 -9.999999e-001  0.000000e+000
    outer loop
      vertex  1.437902e+001 -4.550000e+001 -3.968775e+001
      vertex  5.548196e+000 -4.550000e+001 -3.968775e+001
      vertex  1.506208e+001 -4.550000e+001 -4.223698e+001
    endloop
  endfacet
  facet normal  0.000000e+000 -1.000000e+000  0.000000e+000
    outer loop
      vertex  1.506208e+001 -4.550000e+001 -4.223698e+001
      vertex  5.548196e+000 -4.550000e+001 -3.968775e+001
      vertex  4.865130e+000 -4.550000e+001 -4.223698e+001
    endloop
  endfacet
  facet normal  0.000000e+000 -1.000000e+000  0.000000e+000
    outer loop
      vertex  1.506208e+001 -4.550000e+001 -4.223698e+001
      vertex  4.865130e+000 -4.550000e+001 -4.223698e+001
      vertex  1.437902e+001 -4.550000e+001 -4.478622e+001
    endloop
  endfacet
  facet normal  0.000000e+000 -9.999999e-001  0.000000e+000
    outer loop
      vertex  1.437902e+001 -4.550000e+001 -4.478622e+001
      vertex  4.865130e+000 -4.550000e+001 -4.223698e+001
      vertex  5.548196e+000 -4.550000e+001 -4.478622e+001
    endloop
  endfacet
  facet normal  0.000000e+000 -1.000000e+000  0.000000e+000
    outer loop
      vertex  1.437902e+001 -4.550000e+001 -4.478622e+001
      vertex  5.548196e+000 -4.550000e+001 -4.478622e+001
      vertex  1.251284e+001 -4.550000e+001 -4.665239e+001
    endloop
  endfacet
  facet normal  0.000000e+000 -1.000000e+000  0.000000e+000
    outer loop
      vertex  1.251284e+001 -4.550000e+001 -4.665239e+001
      vertex  5.548196e+000 -4.550000e+001 -4.478622e+001
      vertex  7.414368e+000 -4.550000e+001 -4.665239e+001
    endloop
  endfacet
  facet normal  0.000000e+000 -1.000000e+000  0.000000e+000
    outer loop
      vertex  1.251284e+001 -4.550000e+001 -4.665239e+001
      vertex  7.414368e+000 -4.550000e+001 -4.665239e+001
      vertex  9.963606e+000 -4.550000e+001 -4.733546e+001
    endloop
  endfacet
  facet normal  0.000000e+000  1.000000e+000  -0.000000e+000
    outer loop
      vertex  1.392619e+001  4.350000e+001  3.622994e+001
      vertex  1.227849e+001  4.350000e+001  3.503282e+001
      vertex  2.585786e+000  4.350000e+001  5.808578e+001
    endloop
  endfacet
  facet normal  -0.000000e+000  1.000000e+000  0.000000e+000
    outer loop
      vertex  0.000000e+000  4.350000e+001 -6.920000e+001
      vertex  0.000000e+000  4.350000e+001  6.920000e+001
      vertex  2.000000e+000  4.350000e+001  6.920000e+001
    endloop
  endfacet
  facet normal  0.000000e+000  1.000000e+000  0.000000e+000
    outer loop
      vertex  0.000000e+000  4.350000e+001 -6.920000e+001
      vertex  2.000000e+000  4.350000e+001  6.920000e+001
      vertex  2.000000e+000  4.350000e+001  5.950000e+001
    endloop
  endfacet
  facet normal  0.000000e+000  1.000000e+000  0.000000e+000
    outer loop
      vertex  0.000000e+000  4.350000e+001 -6.920000e+001
      vertex  2.000000e+000  4.350000e+001  5.950000e+001
      vertex  2.000000e+000  4.350000e+001 -5.950000e+001
    endloop
  endfacet
  facet normal  0.000000e+000  1.000000e+000  0.000000e+000
    outer loop
      vertex  0.000000e+000  4.350000e+001 -6.920000e+001
      vertex  2.000000e+000  4.350000e+001 -5.950000e+001
      vertex  2.000000e+000  4.350000e+001 -6.920000e+001
    endloop
  endfacet
  facet normal  0.000000e+000  1.000000e+000  0.000000e+000
    outer loop
      vertex  9.854631e+000  4.350000e+001  2.707391e+000
      vertex  2.000000e+000  4.350000e+001  5.950000e+001
      vertex  1.227849e+001  4.350000e+001  3.115885e+001
    endloop
  endfacet
  facet normal  0.000000e+000  1.000000e+000  0.000000e+000
    outer loop
      vertex  9.854631e+000  4.350000e+001  2.707391e+000
      vertex  1.227849e+001  4.350000e+001  3.115885e+001
      vertex  1.392619e+001  4.350000e+001  2.996173e+001
    endloop
  endfacet
  facet normal  -0.000000e+000  1.000000e+000  0.000000e+000
    outer loop
      vertex  9.854631e+000  4.350000e+001  2.707391e+000
      vertex  1.392619e+001  4.350000e+001  2.996173e+001
      vertex  1.596285e+001  4.350000e+001  2.996173e+001
    endloop
  endfacet
  facet normal  -0.000000e+000  1.000000e+000  0.000000e+000
    outer loop
      vertex  9.854631e+000  4.350000e+001  2.707391e+000
      vertex  1.596285e+001  4.350000e+001  2.996173e+001
      vertex  1.761055e+001  4.350000e+001  3.115885e+001
    endloop
  endfacet
  facet normal  -0.000000e+000  1.000000e+000  0.000000e+000
    outer loop
      vertex  9.854631e+000  4.350000e+001  2.707391e+000
      vertex  1.761055e+001  4.350000e+001  3.115885e+001
      vertex  3.000000e+001  4.350000e+001  5.550000e+001
    endloop
  endfacet
  facet normal  0.000000e+000  1.000000e+000  0.000000e+000
    outer loop
      vertex  9.854631e+000  4.350000e+001  2.707391e+000
      vertex  3.000000e+001  4.350000e+001  5.550000e+001
      vertex  2.003928e+001  4.350000e+001  2.707391e+000
    endloop
  endfacet
  facet normal  0.000000e+000  1.000000e+000  -0.000000e+000
    outer loop
      vertex  3.000000e+001  4.350000e+001  5.550000e+001
      vertex  3.000000e+001  4.350000e+001 -5.550000e+001
      vertex  2.941421e+001  4.350000e+001 -5.691422e+001
    endloop
  endfacet
  facet normal  0.000000e+000  1.000000e+000  -0.000000e+000
    outer loop
      vertex  3.000000e+001  4.350000e+001  5.550000e+001
      vertex  2.941421e+001  4.350000e+001 -5.691422e+001
      vertex  2.003928e+001  4.350000e+001 -4.592942e+001
    endloop
  endfacet
  facet normal  0.000000e+000  1.000000e+000  0.000000e+000
    outer loop
      vertex  3.000000e+001  4.350000e+001  5.550000e+001
      vertex  2.003928e+001  4.350000e+001 -4.592942e+001
      vertex  2.003928e+001  4.350000e+001  2.707391e+000
    endloop
  endfacet
  facet normal  0.000000e+000  1.000000e+000  0.000000e+000
    outer loop
      vertex  2.000000e+000  4.350000e+001  5.950000e+001
      vertex  9.854631e+000  4.350000e+001  2.707391e+000
      vertex  9.854631e+000  4.350000e+001 -4.592942e+001
    endloop
  endfacet
  facet normal  0.000000e+000  1.000000e+000  0.000000e+000
    outer loop
      vertex  2.000000e+000  4.350000e+001  5.950000e+001
      vertex  9.854631e+000  4.350000e+001 -4.592942e+001
      vertex  4.000000e+000  4.350000e+001 -5.750000e+001
    endloop
  endfacet
  facet normal  0.000000e+000  1.000000e+000  0.000000e+000
    outer loop
      vertex  2.000000e+000  4.350000e+001  5.950000e+001
      vertex  4.000000e+000  4.350000e+001 -5.750000e+001
      vertex  2.585786e+000  4.350000e+001 -5.808578e+001
    endloop
  endfacet
  facet normal  0.000000e+000  1.000000e+000  0.000000e+000
    outer loop
      vertex  2.000000e+000  4.350000e+001  5.950000e+001
      vertex  2.585786e+000  4.350000e+001 -5.808578e+001
      vertex  2.000000e+000  4.350000e+001 -5.950000e+001
    endloop
  endfacet
  facet normal  0.000000e+000  1.000000e+000  0.000000e+000
    outer loop
      vertex  3.000000e+001  4.350000e+001  5.550000e+001
      vertex  1.761055e+001  4.350000e+001  3.115885e+001
      vertex  1.823991e+001  4.350000e+001  3.309583e+001
    endloop
  endfacet
  facet normal  0.000000e+000  1.000000e+000  -0.000000e+000
    outer loop
      vertex  3.000000e+001  4.350000e+001  5.550000e+001
      vertex  1.823991e+001  4.350000e+001  3.309583e+001
      vertex  1.761055e+001  4.350000e+001  3.503282e+001
    endloop
  endfacet
  facet normal  0.000000e+000  1.000000e+000  -0.000000e+000
    outer loop
      vertex  3.000000e+001  4.350000e+001  5.550000e+001
      vertex  1.761055e+001  4.350000e+001  3.503282e+001
      vertex  1.596285e+001  4.350000e+001  3.622994e+001
    endloop
  endfacet
  facet normal  0.000000e+000  1.000000e+000  0.000000e+000
    outer loop
      vertex  9.854631e+000  4.350000e+001 -4.592942e+001
      vertex  2.003928e+001  4.350000e+001 -4.592942e+001
      vertex  4.000000e+000  4.350000e+001 -5.750000e+001
    endloop
  endfacet
  facet normal  0.000000e+000  1.000000e+000  0.000000e+000
    outer loop
      vertex  4.000000e+000  4.350000e+001 -5.750000e+001
      vertex  2.003928e+001  4.350000e+001 -4.592942e+001
      vertex  2.941421e+001  4.350000e+001 -5.691422e+001
    endloop
  endfacet
  facet normal  0.000000e+000  1.000000e+000  0.000000e+000
    outer loop
      vertex  4.000000e+000  4.350000e+001 -5.750000e+001
      vertex  2.941421e+001  4.350000e+001 -5.691422e+001
      vertex  2.800000e+001  4.350000e+001 -5.750000e+001
    endloop
  endfacet
  facet normal  0.000000e+000  1.000000e+000  0.000000e+000
    outer loop
      vertex  2.585786e+000  4.350000e+001  5.808578e+001
      vertex  4.000000e+000  4.350000e+001  5.750000e+001
      vertex  1.392619e+001  4.350000e+001  3.622994e+001
    endloop
  endfacet
  facet normal  0.000000e+000  1.000000e+000  -0.000000e+000
    outer loop
      vertex  1.392619e+001  4.350000e+001  3.622994e+001
      vertex  4.000000e+000  4.350000e+001  5.750000e+001
      vertex  2.800000e+001  4.350000e+001  5.750000e+001
    endloop
  endfacet
  facet normal  0.000000e+000  9.999999e-001  0.000000e+000
    outer loop
      vertex  1.392619e+001  4.350000e+001  3.622994e+001
      vertex  2.800000e+001  4.350000e+001  5.750000e+001
      vertex  1.596285e+001  4.350000e+001  3.622994e+001
    endloop
  endfacet
  facet normal  0.000000e+000  1.000000e+000  0.000000e+000
    outer loop
      vertex  1.596285e+001  4.350000e+001  3.622994e+001
      vertex  2.800000e+001  4.350000e+001  5.750000e+001
      vertex  2.941421e+001  4.350000e+001  5.691422e+001
    endloop
  endfacet
  facet normal  0.000000e+000  1.000000e+000  0.000000e+000
    outer loop
      vertex  1.596285e+001  4.350000e+001  3.622994e+001
      vertex  2.941421e+001  4.350000e+001  5.691422e+001
      vertex  3.000000e+001  4.350000e+001  5.550000e+001
    endloop
  endfacet
  facet normal  0.000000e+000  1.000000e+000  -0.000000e+000
    outer loop
      vertex  1.227849e+001  4.350000e+001  3.503282e+001
      vertex  1.164913e+001  4.350000e+001  3.309583e+001
      vertex  2.585786e+000  4.350000e+001  5.808578e+001
    endloop
  endfacet
  facet normal  0.000000e+000  1.000000e+000  0.000000e+000
    outer loop
      vertex  2.585786e+000  4.350000e+001  5.808578e+001
      vertex  1.164913e+001  4.350000e+001  3.309583e+001
      vertex  1.227849e+001  4.350000e+001  3.115885e+001
    endloop
  endfacet
  facet normal  0.000000e+000  1.000000e+000  0.000000e+000
    outer loop
      vertex  2.585786e+000  4.350000e+001  5.808578e+001
      vertex  1.227849e+001  4.350000e+001  3.115885e+001
      vertex  2.000000e+000  4.350000e+001  5.950000e+001
    endloop
  endfacet
  facet normal -9.510565e-001  -0.000000e+000 -3.090170e-001
    outer loop
      vertex  1.164913e+001  4.350000e+001  3.309583e+001
      vertex  1.164913e+001  5.150000e+001  3.309583e+001
      vertex  1.227849e+001  4.350000e+001  3.115885e+001
    endloop
  endfacet
  facet normal -9.510565e-001  0.000000e+000 -3.090170e-001
    outer loop
      vertex  1.227849e+001  4.350000e+001  3.115885e+001
      vertex  1.164913e+001  5.150000e+001  3.309583e+001
      vertex  1.227849e+001  5.150000e+001  3.115885e+001
    endloop
  endfacet
  facet normal -5.877854e-001  -0.000000e+000 -8.090169e-001
    outer loop
      vertex  1.227849e+001  4.350000e+001  3.115885e+001
      vertex  1.227849e+001  5.150000e+001  3.115885e+001
      vertex  1.392619e+001  4.350000e+001  2.996173e+001
    endloop
  endfacet
  facet normal -5.877854e-001  0.000000e+000 -8.090169e-001
    outer loop
      vertex  1.392619e+001  4.350000e+001  2.996173e+001
      vertex  1.227849e+001  5.150000e+001  3.115885e+001
      vertex  1.392619e+001  5.150000e+001  2.996173e+001
    endloop
  endfacet
  facet normal  0.000000e+000  0.000000e+000 -1.000000e+000
    outer loop
      vertex  1.392619e+001  4.350000e+001  2.996173e+001
      vertex  1.392619e+001  5.150000e+001  2.996173e+001
      vertex  1.596285e+001  4.350000e+001  2.996173e+001
    endloop
  endfacet
  facet normal  0.000000e+000  0.000000e+000 -1.000000e+000
    outer loop
      vertex  1.596285e+001  4.350000e+001  2.996173e+001
      vertex  1.392619e+001  5.150000e+001  2.996173e+001
      vertex  1.596285e+001  5.150000e+001  2.996173e+001
    endloop
  endfacet
  facet normal  5.877854e-001  0.000000e+000 -8.090169e-001
    outer loop
      vertex  1.596285e+001  4.350000e+001  2.996173e+001
      vertex  1.596285e+001  5.150000e+001  2.996173e+001
      vertex  1.761055e+001  4.350000e+001  3.115885e+001
    endloop
  endfacet
  facet normal  5.877854e-001  0.000000e+000 -8.090169e-001
    outer loop
      vertex  1.761055e+001  4.350000e+001  3.115885e+001
      vertex  1.596285e+001  5.150000e+001  2.996173e+001
      vertex  1.761055e+001  5.150000e+001  3.115885e+001
    endloop
  endfacet
  facet normal  9.510565e-001  0.000000e+000 -3.090170e-001
    outer loop
      vertex  1.761055e+001  4.350000e+001  3.115885e+001
      vertex  1.761055e+001  5.150000e+001  3.115885e+001
      vertex  1.823991e+001  4.350000e+001  3.309583e+001
    endloop
  endfacet
  facet normal  9.510565e-001  0.000000e+000 -3.090170e-001
    outer loop
      vertex  1.823991e+001  4.350000e+001  3.309583e+001
      vertex  1.761055e+001  5.150000e+001  3.115885e+001
      vertex  1.823991e+001  5.150000e+001  3.309583e+001
    endloop
  endfacet
  facet normal  9.510566e-001  0.000000e+000  3.090167e-001
    outer loop
      vertex  1.823991e+001  4.350000e+001  3.309583e+001
      vertex  1.823991e+001  5.150000e+001  3.309583e+001
      vertex  1.761055e+001  4.350000e+001  3.503282e+001
    endloop
  endfacet
  facet normal  9.510566e-001  -0.000000e+000  3.090167e-001
    outer loop
      vertex  1.761055e+001  4.350000e+001  3.503282e+001
      vertex  1.823991e+001  5.150000e+001  3.309583e+001
      vertex  1.761055e+001  5.150000e+001  3.503282e+001
    endloop
  endfacet
  facet normal  5.877847e-001  0.000000e+000  8.090173e-001
    outer loop
      vertex  1.761055e+001  4.350000e+001  3.503282e+001
      vertex  1.761055e+001  5.150000e+001  3.503282e+001
      vertex  1.596285e+001  4.350000e+001  3.622994e+001
    endloop
  endfacet
  facet normal  5.877847e-001  -0.000000e+000  8.090173e-001
    outer loop
      vertex  1.596285e+001  4.350000e+001  3.622994e+001
      vertex  1.761055e+001  5.150000e+001  3.503282e+001
      vertex  1.596285e+001  5.150000e+001  3.622994e+001
    endloop
  endfacet
  facet normal  0.000000e+000  0.000000e+000  1.000000e+000
    outer loop
      vertex  1.596285e+001  4.350000e+001  3.622994e+001
      vertex  1.596285e+001  5.150000e+001  3.622994e+001
      vertex  1.392619e+001  4.350000e+001  3.622994e+001
    endloop
  endfacet
  facet normal  0.000000e+000  0.000000e+000  1.000000e+000
    outer loop
      vertex  1.392619e+001  4.350000e+001  3.622994e+001
      vertex  1.596285e+001  5.150000e+001  3.622994e+001
      vertex  1.392619e+001  5.150000e+001  3.622994e+001
    endloop
  endfacet
  facet normal -5.877847e-001  0.000000e+000  8.090173e-001
    outer loop
      vertex  1.392619e+001  4.350000e+001  3.622994e+001
      vertex  1.392619e+001  5.150000e+001  3.622994e+001
      vertex  1.227849e+001  4.350000e+001  3.503282e+001
    endloop
  endfacet
  facet normal -5.877847e-001  0.000000e+000  8.090173e-001
    outer loop
      vertex  1.227849e+001  4.350000e+001  3.503282e+001
      vertex  1.392619e+001  5.150000e+001  3.622994e+001
      vertex  1.227849e+001  5.150000e+001  3.503282e+001
    endloop
  endfacet
  facet normal -9.510566e-001  0.000000e+000  3.090167e-001
    outer loop
      vertex  1.227849e+001  4.350000e+001  3.503282e+001
      vertex  1.227849e+001  5.150000e+001  3.503282e+001
      vertex  1.164913e+001  4.350000e+001  3.309583e+001
    endloop
  endfacet
  facet normal -9.510566e-001  0.000000e+000  3.090167e-001
    outer loop
      vertex  1.164913e+001  4.350000e+001  3.309583e+001
      vertex  1.227849e+001  5.150000e+001  3.503282e+001
      vertex  1.164913e+001  5.150000e+001  3.309583e+001
    endloop
  endfacet
  facet normal  0.000000e+000  1.000000e+000  0.000000e+000
    outer loop
      vertex  1.392619e+001  5.150000e+001  3.622994e+001
      vertex  1.596285e+001  5.150000e+001  3.622994e+001
      vertex  1.227849e+001  5.150000e+001  3.503282e+001
    endloop
  endfacet
  facet normal  0.000000e+000  1.000000e+000  0.000000e+000
    outer loop
      vertex  1.227849e+001  5.150000e+001  3.503282e+001
      vertex  1.596285e+001  5.150000e+001  3.622994e+001
      vertex  1.761055e+001  5.150000e+001  3.503282e+001
    endloop
  endfacet
  facet normal  0.000000e+000  9.999999e-001  0.000000e+000
    outer loop
      vertex  1.227849e+001  5.150000e+001  3.503282e+001
      vertex  1.761055e+001  5.150000e+001  3.503282e+001
      vertex  1.164913e+001  5.150000e+001  3.309583e+001
    endloop
  endfacet
  facet normal  0.000000e+000  1.000000e+000  0.000000e+000
    outer loop
      vertex  1.164913e+001  5.150000e+001  3.309583e+001
      vertex  1.761055e+001  5.150000e+001  3.503282e+001
      vertex  1.823991e+001  5.150000e+001  3.309583e+001
    endloop
  endfacet
  facet normal  0.000000e+000  1.000000e+000  0.000000e+000
    outer loop
      vertex  1.164913e+001  5.150000e+001  3.309583e+001
      vertex  1.823991e+001  5.150000e+001  3.309583e+001
      vertex  1.227849e+001  5.150000e+001  3.115885e+001
    endloop
  endfacet
  facet normal  0.000000e+000  1.000000e+000  0.000000e+000
    outer loop
      vertex  1.227849e+001  5.150000e+001  3.115885e+001
      vertex  1.823991e+001  5.150000e+001  3.309583e+001
      vertex  1.761055e+001  5.150000e+001  3.115885e+001
    endloop
  endfacet
  facet normal  0.000000e+000  1.000000e+000  0.000000e+000
    outer loop
      vertex  1.227849e+001  5.150000e+001  3.115885e+001
      vertex  1.761055e+001  5.150000e+001  3.115885e+001
      vertex  1.392619e+001  5.150000e+001  2.996173e+001
    endloop
  endfacet
  facet normal  0.000000e+000  1.000000e+000  0.000000e+000
    outer loop
      vertex  1.392619e+001  5.150000e+001  2.996173e+001
      vertex  1.761055e+001  5.150000e+001  3.115885e+001
      vertex  1.596285e+001  5.150000e+001  2.996173e+001
    endloop
  endfacet
  facet normal  1.000000e+000  -0.000000e+000  0.000000e+000
    outer loop
      vertex  2.003928e+001  4.450000e+001  2.707391e+000
      vertex  2.003928e+001  4.350000e+001  2.707391e+000
      vertex  2.003928e+001  4.450000e+001 -4.592942e+001
    endloop
  endfacet
  facet normal  1.000000e+000  0.000000e+000  0.000000e+000
    outer loop
      vertex  2.003928e+001  4.450000e+001 -4.592942e+001
      vertex  2.003928e+001  4.350000e+001  2.707391e+000
      vertex  2.003928e+001  4.350000e+001 -4.592942e+001
    endloop
  endfacet
  facet normal  0.000000e+000  0.000000e+000  9.999999e-001
    outer loop
      vertex  9.854631e+000  4.450000e+001  2.707391e+000
      vertex  9.854631e+000  4.350000e+001  2.707391e+000
      vertex  2.003928e+001  4.450000e+001  2.707391e+000
    endloop
  endfacet
  facet normal  0.000000e+000  0.000000e+000  9.999999e-001
    outer loop
      vertex  2.003928e+001  4.450000e+001  2.707391e+000
      vertex  9.854631e+000  4.350000e+001  2.707391e+000
      vertex  2.003928e+001  4.350000e+001  2.707391e+000
    endloop
  endfacet
  facet normal -1.000000e+000  0.000000e+000  0.000000e+000
    outer loop
      vertex  9.854631e+000  4.450000e+001 -4.592942e+001
      vertex  9.854631e+000  4.350000e+001 -4.592942e+001
      vertex  9.854631e+000  4.450000e+001  2.707391e+000
    endloop
  endfacet
  facet normal -1.000000e+000  -0.000000e+000  0.000000e+000
    outer loop
      vertex  9.854631e+000  4.450000e+001  2.707391e+000
      vertex  9.854631e+000  4.350000e+001 -4.592942e+001
      vertex  9.854631e+000  4.350000e+001  2.707391e+000
    endloop
  endfacet
  facet normal  0.000000e+000  0.000000e+000 -9.999999e-001
    outer loop
      vertex  2.003928e+001  4.450000e+001 -4.592942e+001
      vertex  2.003928e+001  4.350000e+001 -4.592942e+001
      vertex  9.854631e+000  4.450000e+001 -4.592942e+001
    endloop
  endfacet
  facet normal  0.000000e+000  0.000000e+000 -9.999999e-001
    outer loop
      vertex  9.854631e+000  4.450000e+001 -4.592942e+001
      vertex  2.003928e+001  4.350000e+001 -4.592942e+001
      vertex  9.854631e+000  4.350000e+001 -4.592942e+001
    endloop
  endfacet
  facet normal  0.000000e+000  1.000000e+000  0.000000e+000
    outer loop
      vertex  2.003928e+001  4.450000e+001 -4.592942e+001
      vertex  9.854631e+000  4.450000e+001 -4.592942e+001
      vertex  2.003928e+001  4.450000e+001  2.707391e+000
    endloop
  endfacet
  facet normal  0.000000e+000  1.000000e+000  0.000000e+000
    outer loop
      vertex  2.003928e+001  4.450000e+001  2.707391e+000
      vertex  9.854631e+000  4.450000e+001 -4.592942e+001
      vertex  9.854631e+000  4.450000e+001  2.707391e+000
    endloop
  endfacet
  facet normal  7.214294e-002  0.000000e+000 -9.973943e-001
    outer loop
      vertex  2.022546e+000  5.684681e-002 -5.920054e+001
      vertex  0.000000e+000 -9.270510e-001 -5.934683e+001
      vertex  0.000000e+000  9.270510e-001 -5.934683e+001
    endloop
  endfacet
  facet normal -3.004855e-002 -2.332389e-001 -9.719551e-001
    outer loop
      vertex  2.022546e+000  5.684681e-002 -5.920054e+001
      vertex  0.000000e+000  9.270510e-001 -5.934683e+001
      vertex  2.000000e+000  1.307670e+000 -5.950000e+001
    endloop
  endfacet
  facet normal  4.984128e-002 -5.870545e-001 -8.080117e-001
    outer loop
      vertex  2.000000e+000  1.307670e+000 -5.950000e+001
      vertex  0.000000e+000  9.270510e-001 -5.934683e+001
      vertex  0.000000e+000  2.427051e+000 -6.043665e+001
    endloop
  endfacet
  facet normal -2.495799e-002 -6.673838e-001 -7.442955e-001
    outer loop
      vertex  2.000000e+000  1.307670e+000 -5.950000e+001
      vertex  0.000000e+000  2.427051e+000 -6.043665e+001
      vertex  2.000000e+000  2.541949e+000 -6.060674e+001
    endloop
  endfacet
  facet normal  2.834552e-002 -9.506743e-001 -3.088928e-001
    outer loop
      vertex  2.000000e+000  2.541949e+000 -6.060674e+001
      vertex  0.000000e+000  2.427051e+000 -6.043665e+001
      vertex  0.000000e+000  3.000000e+000 -6.220000e+001
    endloop
  endfacet
  facet normal  0.000000e+000 -9.610714e-001 -2.763003e-001
    outer loop
      vertex  2.000000e+000  2.541949e+000 -6.060674e+001
      vertex  0.000000e+000  3.000000e+000 -6.220000e+001
      vertex  2.000000e+000  3.000000e+000 -6.220000e+001
    endloop
  endfacet
  facet normal -3.387843e-002  2.147727e-001 -9.760763e-001
    outer loop
      vertex  2.022546e+000  5.684681e-002 -5.920054e+001
      vertex  2.000000e+000 -1.307670e+000 -5.950000e+001
      vertex  0.000000e+000 -9.270510e-001 -5.934683e+001
    endloop
  endfacet
  facet normal  6.985906e-002  6.659608e-001 -7.427085e-001
    outer loop
      vertex  0.000000e+000 -9.270510e-001 -5.934683e+001
      vertex  2.000000e+000 -1.307670e+000 -5.950000e+001
      vertex  2.000000e+000 -2.541949e+000 -6.060674e+001
    endloop
  endfacet
  facet normal -3.501362e-002  5.874246e-001 -8.085210e-001
    outer loop
      vertex  0.000000e+000 -9.270510e-001 -5.934683e+001
      vertex  2.000000e+000 -2.541949e+000 -6.060674e+001
      vertex  0.000000e+000 -2.427051e+000 -6.043665e+001
    endloop
  endfacet
  facet normal  3.169872e-002  9.605884e-001 -2.761614e-001
    outer loop
      vertex  0.000000e+000 -2.427051e+000 -6.043665e+001
      vertex  2.000000e+000 -2.541949e+000 -6.060674e+001
      vertex  2.000000e+000 -3.000000e+000 -6.220000e+001
    endloop
  endfacet
  facet normal  0.000000e+000  9.510566e-001 -3.090171e-001
    outer loop
      vertex  0.000000e+000 -2.427051e+000 -6.043665e+001
      vertex  2.000000e+000 -3.000000e+000 -6.220000e+001
      vertex  0.000000e+000 -3.000000e+000 -6.220000e+001
    endloop
  endfacet
  facet normal  0.000000e+000  0.000000e+000 -1.000000e+000
    outer loop
      vertex  2.800000e+001  4.350000e+001 -5.750000e+001
      vertex  2.800000e+001 -4.350000e+001 -5.750000e+001
      vertex  4.000000e+000  4.350000e+001 -5.750000e+001
    endloop
  endfacet
  facet normal  0.000000e+000  0.000000e+000 -1.000000e+000
    outer loop
      vertex  4.000000e+000  4.350000e+001 -5.750000e+001
      vertex  2.800000e+001 -4.350000e+001 -5.750000e+001
      vertex  4.000000e+000 -4.350000e+001 -5.750000e+001
    endloop
  endfacet
  facet normal  1.000000e+000  -0.000000e+000  0.000000e+000
    outer loop
      vertex  2.000000e+000  4.350000e+001 -5.950000e+001
      vertex  2.000000e+000  1.307670e+000 -5.950000e+001
      vertex  2.000000e+000  2.541949e+000 -6.060674e+001
    endloop
  endfacet
  facet normal  1.000000e+000  -0.000000e+000  0.000000e+000
    outer loop
      vertex  2.000000e+000  4.350000e+001 -5.950000e+001
      vertex  2.000000e+000  2.541949e+000 -6.060674e+001
      vertex  2.000000e+000  3.000000e+000 -6.220000e+001
    endloop
  endfacet
  facet normal  1.000000e+000  -0.000000e+000  0.000000e+000
    outer loop
      vertex  2.000000e+000  4.350000e+001 -5.950000e+001
      vertex  2.000000e+000  3.000000e+000 -6.220000e+001
      vertex  2.000000e+000  3.000000e+000 -6.920000e+001
    endloop
  endfacet
  facet normal  1.000000e+000  0.000000e+000  0.000000e+000
    outer loop
      vertex  2.000000e+000  4.350000e+001 -5.950000e+001
      vertex  2.000000e+000  3.000000e+000 -6.920000e+001
      vertex  2.000000e+000  4.350000e+001 -6.920000e+001
    endloop
  endfacet
  facet normal  1.000000e+000  0.000000e+000  0.000000e+000
    outer loop
      vertex  2.000000e+000 -4.350000e+001 -5.950000e+001
      vertex  2.000000e+000 -4.350000e+001 -6.920000e+001
      vertex  2.000000e+000 -3.000000e+000 -6.920000e+001
    endloop
  endfacet
  facet normal  1.000000e+000  0.000000e+000  -0.000000e+000
    outer loop
      vertex  2.000000e+000 -4.350000e+001 -5.950000e+001
      vertex  2.000000e+000 -3.000000e+000 -6.920000e+001
      vertex  2.000000e+000 -3.000000e+000 -6.220000e+001
    endloop
  endfacet
  facet normal  1.000000e+000  0.000000e+000  -0.000000e+000
    outer loop
      vertex  2.000000e+000 -4.350000e+001 -5.950000e+001
      vertex  2.000000e+000 -3.000000e+000 -6.220000e+001
      vertex  2.000000e+000 -2.541949e+000 -6.060674e+001
    endloop
  endfacet
  facet normal  1.000000e+000  0.000000e+000  -0.000000e+000
    outer loop
      vertex  2.000000e+000 -4.350000e+001 -5.950000e+001
      vertex  2.000000e+000 -2.541949e+000 -6.060674e+001
      vertex  2.000000e+000 -1.307670e+000 -5.950000e+001
    endloop
  endfacet
  facet normal  8.925415e-001  0.000000e+000 -4.509652e-001
    outer loop
      vertex  2.585786e+000 -4.350000e+001 -5.808578e+001
      vertex  2.022546e+000  5.684681e-002 -5.920054e+001
      vertex  2.585786e+000  4.350000e+001 -5.808578e+001
    endloop
  endfacet
  facet normal  9.931864e-001 -9.897112e-003 -1.161159e-001
    outer loop
      vertex  2.585786e+000  4.350000e+001 -5.808578e+001
      vertex  2.022546e+000  5.684681e-002 -5.920054e+001
      vertex  2.000000e+000  1.307670e+000 -5.950000e+001
    endloop
  endfacet
  facet normal  9.238797e-001  0.000000e+000 -3.826830e-001
    outer loop
      vertex  2.585786e+000  4.350000e+001 -5.808578e+001
      vertex  2.000000e+000  1.307670e+000 -5.950000e+001
      vertex  2.000000e+000  4.350000e+001 -5.950000e+001
    endloop
  endfacet
  facet normal  9.238776e-001  2.152784e-003 -3.826821e-001
    outer loop
      vertex  2.585786e+000 -4.350000e+001 -5.808578e+001
      vertex  2.000000e+000 -4.350000e+001 -5.950000e+001
      vertex  2.022546e+000  5.684681e-002 -5.920054e+001
    endloop
  endfacet
  facet normal  9.971777e-001  0.000000e+000 -7.507700e-002
    outer loop
      vertex  2.022546e+000  5.684681e-002 -5.920054e+001
      vertex  2.000000e+000 -4.350000e+001 -5.950000e+001
      vertex  2.000000e+000 -1.307670e+000 -5.950000e+001
    endloop
  endfacet
  facet normal  3.826826e-001  0.000000e+000 -9.238799e-001
    outer loop
      vertex  4.000000e+000 -4.350000e+001 -5.750000e+001
      vertex  2.585786e+000 -4.350000e+001 -5.808578e+001
      vertex  4.000000e+000  4.350000e+001 -5.750000e+001
    endloop
  endfacet
  facet normal  3.826826e-001  0.000000e+000 -9.238799e-001
    outer loop
      vertex  4.000000e+000  4.350000e+001 -5.750000e+001
      vertex  2.585786e+000 -4.350000e+001 -5.808578e+001
      vertex  2.585786e+000  4.350000e+001 -5.808578e+001
    endloop
  endfacet
  facet normal  1.000000e+000  0.000000e+000  0.000000e+000
    outer loop
      vertex  3.000000e+001 -4.350000e+001 -5.550000e+001
      vertex  3.000000e+001  4.350000e+001 -5.550000e+001
      vertex  3.000000e+001 -4.350000e+001  5.550000e+001
    endloop
  endfacet
  facet normal  1.000000e+000  -0.000000e+000  0.000000e+000
    outer loop
      vertex  3.000000e+001 -4.350000e+001  5.550000e+001
      vertex  3.000000e+001  4.350000e+001 -5.550000e+001
      vertex  3.000000e+001  4.350000e+001  5.550000e+001
    endloop
  endfacet
  facet normal  9.238796e-001  0.000000e+000 -3.826833e-001
    outer loop
      vertex  3.000000e+001  4.350000e+001 -5.550000e+001
      vertex  3.000000e+001 -4.350000e+001 -5.550000e+001
      vertex  2.941421e+001  4.350000e+001 -5.691422e+001
    endloop
  endfacet
  facet normal  9.238796e-001  0.000000e+000 -3.826833e-001
    outer loop
      vertex  2.941421e+001  4.350000e+001 -5.691422e+001
      vertex  3.000000e+001 -4.350000e+001 -5.550000e+001
      vertex  2.941421e+001 -4.350000e+001 -5.691422e+001
    endloop
  endfacet
  facet normal  3.826827e-001  0.000000e+000 -9.238798e-001
    outer loop
      vertex  2.941421e+001  4.350000e+001 -5.691422e+001
      vertex  2.941421e+001 -4.350000e+001 -5.691422e+001
      vertex  2.800000e+001  4.350000e+001 -5.750000e+001
    endloop
  endfacet
  facet normal  3.826827e-001  0.000000e+000 -9.238798e-001
    outer loop
      vertex  2.800000e+001  4.350000e+001 -5.750000e+001
      vertex  2.941421e+001 -4.350000e+001 -5.691422e+001
      vertex  2.800000e+001 -4.350000e+001 -5.750000e+001
    endloop
  endfacet
  facet normal  9.238796e-001  0.000000e+000  3.826833e-001
    outer loop
      vertex  3.000000e+001 -4.350000e+001  5.550000e+001
      vertex  3.000000e+001  4.350000e+001  5.550000e+001
      vertex  2.941421e+001 -4.350000e+001  5.691422e+001
    endloop
  endfacet
  facet normal  9.238796e-001  -0.000000e+000  3.826833e-001
    outer loop
      vertex  2.941421e+001 -4.350000e+001  5.691422e+001
      vertex  3.000000e+001  4.350000e+001  5.550000e+001
      vertex  2.941421e+001  4.350000e+001  5.691422e+001
    endloop
  endfacet
  facet normal  3.826827e-001  0.000000e+000  9.238798e-001
    outer loop
      vertex  2.941421e+001 -4.350000e+001  5.691422e+001
      vertex  2.941421e+001  4.350000e+001  5.691422e+001
      vertex  2.800000e+001 -4.350000e+001  5.750000e+001
    endloop
  endfacet
  facet normal  3.826827e-001  -0.000000e+000  9.238798e-001
    outer loop
      vertex  2.800000e+001 -4.350000e+001  5.750000e+001
      vertex  2.941421e+001  4.350000e+001  5.691422e+001
      vertex  2.800000e+001  4.350000e+001  5.750000e+001
    endloop
  endfacet
  facet normal  -0.000000e+000  0.000000e+000  1.000000e+000
    outer loop
      vertex  2.000000e+000 -3.000000e+000  6.920000e+001
      vertex  0.000000e+000 -3.000000e+000  6.920000e+001
      vertex  2.000000e+000 -4.350000e+001  6.920000e+001
    endloop
  endfacet
  facet normal  0.000000e+000  0.000000e+000  1.000000e+000
    outer loop
      vertex  2.000000e+000 -4.350000e+001  6.920000e+001
      vertex  0.000000e+000 -3.000000e+000  6.920000e+001
      vertex  0.000000e+000 -4.350000e+001  6.920000e+001
    endloop
  endfacet
  facet normal  -0.000000e+000  0.000000e+000  1.000000e+000
    outer loop
      vertex  2.000000e+000  4.350000e+001  6.920000e+001
      vertex  0.000000e+000  4.350000e+001  6.920000e+001
      vertex  2.000000e+000  3.000000e+000  6.920000e+001
    endloop
  endfacet
  facet normal  0.000000e+000  0.000000e+000  1.000000e+000
    outer loop
      vertex  2.000000e+000  3.000000e+000  6.920000e+001
      vertex  0.000000e+000  4.350000e+001  6.920000e+001
      vertex  0.000000e+000  3.000000e+000  6.920000e+001
    endloop
  endfacet
  facet normal  0.000000e+000  0.000000e+000 -1.000000e+000
    outer loop
      vertex  2.000000e+000 -3.000000e+000 -6.920000e+001
      vertex  2.000000e+000 -4.350000e+001 -6.920000e+001
      vertex  0.000000e+000 -3.000000e+000 -6.920000e+001
    endloop
  endfacet
  facet normal  0.000000e+000  0.000000e+000 -1.000000e+000
    outer loop
      vertex  0.000000e+000 -3.000000e+000 -6.920000e+001
      vertex  2.000000e+000 -4.350000e+001 -6.920000e+001
      vertex  0.000000e+000 -4.350000e+001 -6.920000e+001
    endloop
  endfacet
  facet normal  0.000000e+000  0.000000e+000 -1.000000e+000
    outer loop
      vertex  2.000000e+000  4.350000e+001 -6.920000e+001
      vertex  2.000000e+000  3.000000e+000 -6.920000e+001
      vertex  0.000000e+000  4.350000e+001 -6.920000e+001
    endloop
  endfacet
  facet normal  0.000000e+000  0.000000e+000 -1.000000e+000
    outer loop
      vertex  0.000000e+000  4.350000e+001 -6.920000e+001
      vertex  2.000000e+000  3.000000e+000 -6.920000e+001
      vertex  0.000000e+000  3.000000e+000 -6.920000e+001
    endloop
  endfacet
  facet normal -1.000000e+000  -0.000000e+000  -0.000000e+000
    outer loop
      vertex  0.000000e+000 -4.350000e+001  6.920000e+001
      vertex  0.000000e+000 -3.000000e+000  6.920000e+001
      vertex  0.000000e+000 -3.000000e+000  6.220000e+001
    endloop
  endfacet
  facet normal -1.000000e+000  0.000000e+000  0.000000e+000
    outer loop
      vertex  0.000000e+000  9.270510e-001  5.934683e+001
      vertex  0.000000e+000  2.427051e+000  6.043665e+001
      vertex  0.000000e+000  9.270510e-001 -5.934683e+001
    endloop
  endfacet
  facet normal -9.999999e-001  -0.000000e+000  0.000000e+000
    outer loop
      vertex  0.000000e+000  9.270510e-001  5.934683e+001
      vertex  0.000000e+000 -9.270510e-001 -5.934683e+001
      vertex  0.000000e+000 -2.427051e+000 -6.043665e+001
    endloop
  endfacet
  facet normal -9.999999e-001  0.000000e+000  0.000000e+000
    outer loop
      vertex  0.000000e+000  9.270510e-001  5.934683e+001
      vertex  0.000000e+000  9.270510e-001 -5.934683e+001
      vertex  0.000000e+000 -9.270510e-001 -5.934683e+001
    endloop
  endfacet
  facet normal -1.000000e+000  0.000000e+000  0.000000e+000
    outer loop
      vertex  0.000000e+000  4.350000e+001  6.920000e+001
      vertex  0.000000e+000  4.350000e+001 -6.920000e+001
      vertex  0.000000e+000  3.000000e+000 -6.920000e+001
    endloop
  endfacet
  facet normal -1.000000e+000  0.000000e+000  0.000000e+000
    outer loop
      vertex  0.000000e+000  4.350000e+001  6.920000e+001
      vertex  0.000000e+000  3.000000e+000 -6.920000e+001
      vertex  0.000000e+000  3.000000e+000 -6.220000e+001
    endloop
  endfacet
  facet normal -1.000000e+000  0.000000e+000  0.000000e+000
    outer loop
      vertex  0.000000e+000  4.350000e+001  6.920000e+001
      vertex  0.000000e+000  3.000000e+000 -6.220000e+001
      vertex  0.000000e+000  2.427051e+000 -6.043665e+001
    endloop
  endfacet
  facet normal -9.999999e-001  0.000000e+000  0.000000e+000
    outer loop
      vertex  0.000000e+000  4.350000e+001  6.920000e+001
      vertex  0.000000e+000  2.427051e+000 -6.043665e+001
      vertex  0.000000e+000  9.270510e-001 -5.934683e+001
    endloop
  endfacet
  facet normal -1.000000e+000  0.000000e+000  0.000000e+000
    outer loop
      vertex  0.000000e+000  4.350000e+001  6.920000e+001
      vertex  0.000000e+000  9.270510e-001 -5.934683e+001
      vertex  0.000000e+000  2.427051e+000  6.043665e+001
    endloop
  endfacet
  facet normal -1.000000e+000  0.000000e+000  0.000000e+000
    outer loop
      vertex  0.000000e+000  4.350000e+001  6.920000e+001
      vertex  0.000000e+000  2.427051e+000  6.043665e+001
      vertex  0.000000e+000  3.000000e+000  6.220000e+001
    endloop
  endfacet
  facet normal -1.000000e+000  0.000000e+000  0.000000e+000
    outer loop
      vertex  0.000000e+000  4.350000e+001  6.920000e+001
      vertex  0.000000e+000  3.000000e+000  6.220000e+001
      vertex  0.000000e+000  3.000000e+000  6.920000e+001
    endloop
  endfacet
  facet normal -1.000000e+000  0.000000e+000  0.000000e+000
    outer loop
      vertex  0.000000e+000 -3.000000e+000 -6.220000e+001
      vertex  0.000000e+000 -3.000000e+000 -6.920000e+001
      vertex  0.000000e+000 -4.350000e+001 -6.920000e+001
    endloop
  endfacet
  facet normal -1.000000e+000  0.000000e+000  0.000000e+000
    outer loop
      vertex  0.000000e+000 -3.000000e+000 -6.220000e+001
      vertex  0.000000e+000 -4.350000e+001 -6.920000e+001
      vertex  0.000000e+000 -4.350000e+001  6.920000e+001
    endloop
  endfacet
  facet normal -1.000000e+000  0.000000e+000  0.000000e+000
    outer loop
      vertex  0.000000e+000 -3.000000e+000 -6.220000e+001
      vertex  0.000000e+000 -4.350000e+001  6.920000e+001
      vertex  0.000000e+000 -3.000000e+000  6.220000e+001
    endloop
  endfacet
  facet normal -1.000000e+000  0.000000e+000  0.000000e+000
    outer loop
      vertex  0.000000e+000 -3.000000e+000 -6.220000e+001
      vertex  0.000000e+000 -3.000000e+000  6.220000e+001
      vertex  0.000000e+000 -2.427051e+000  6.043665e+001
    endloop
  endfacet
  facet normal -1.000000e+000  0.000000e+000  -0.000000e+000
    outer loop
      vertex  0.000000e+000 -3.000000e+000 -6.220000e+001
      vertex  0.000000e+000 -2.427051e+000  6.043665e+001
      vertex  0.000000e+000 -9.270510e-001  5.934683e+001
    endloop
  endfacet
  facet normal -1.000000e+000  0.000000e+000  -0.000000e+000
    outer loop
      vertex  0.000000e+000 -3.000000e+000 -6.220000e+001
      vertex  0.000000e+000 -9.270510e-001  5.934683e+001
      vertex  0.000000e+000  9.270510e-001  5.934683e+001
    endloop
  endfacet
  facet normal -1.000000e+000  0.000000e+000  0.000000e+000
    outer loop
      vertex  0.000000e+000 -3.000000e+000 -6.220000e+001
      vertex  0.000000e+000  9.270510e-001  5.934683e+001
      vertex  0.000000e+000 -2.427051e+000 -6.043665e+001
    endloop
  endfacet
  facet normal  0.000000e+000  1.000000e+000  0.000000e+000
    outer loop
      vertex  2.000000e+000 -3.000000e+000 -6.920000e+001
      vertex  0.000000e+000 -3.000000e+000 -6.920000e+001
      vertex  2.000000e+000 -3.000000e+000 -6.220000e+001
    endloop
  endfacet
  facet normal  0.000000e+000  1.000000e+000  0.000000e+000
    outer loop
      vertex  2.000000e+000 -3.000000e+000 -6.220000e+001
      vertex  0.000000e+000 -3.000000e+000 -6.920000e+001
      vertex  0.000000e+000 -3.000000e+000 -6.220000e+001
    endloop
  endfacet
  facet normal  0.000000e+000 -1.000000e+000  0.000000e+000
    outer loop
      vertex  2.000000e+000  3.000000e+000 -6.220000e+001
      vertex  0.000000e+000  3.000000e+000 -6.220000e+001
      vertex  2.000000e+000  3.000000e+000 -6.920000e+001
    endloop
  endfacet
  facet normal  0.000000e+000 -1.000000e+000  0.000000e+000
    outer loop
      vertex  2.000000e+000  3.000000e+000 -6.920000e+001
      vertex  0.000000e+000  3.000000e+000 -6.220000e+001
      vertex  0.000000e+000  3.000000e+000 -6.920000e+001
    endloop
  endfacet
  facet normal  7.214294e-002  0.000000e+000  9.973943e-001
    outer loop
      vertex  0.000000e+000 -9.270510e-001  5.934683e+001
      vertex  2.022546e+000  5.684681e-002  5.920054e+001
      vertex  0.000000e+000  9.270510e-001  5.934683e+001
    endloop
  endfacet
  facet normal -3.004855e-002 -2.332389e-001  9.719551e-001
    outer loop
      vertex  2.022546e+000  5.684681e-002  5.920054e+001
      vertex  2.000000e+000  1.307670e+000  5.950000e+001
      vertex  0.000000e+000  9.270510e-001  5.934683e+001
    endloop
  endfacet
  facet normal  6.985906e-002 -6.659608e-001  7.427085e-001
    outer loop
      vertex  0.000000e+000  9.270510e-001  5.934683e+001
      vertex  2.000000e+000  1.307670e+000  5.950000e+001
      vertex  2.000000e+000  2.541949e+000  6.060674e+001
    endloop
  endfacet
  facet normal -3.501362e-002 -5.874246e-001  8.085210e-001
    outer loop
      vertex  0.000000e+000  9.270510e-001  5.934683e+001
      vertex  2.000000e+000  2.541949e+000  6.060674e+001
      vertex  0.000000e+000  2.427051e+000  6.043665e+001
    endloop
  endfacet
  facet normal  3.169872e-002 -9.605884e-001  2.761614e-001
    outer loop
      vertex  0.000000e+000  2.427051e+000  6.043665e+001
      vertex  2.000000e+000  2.541949e+000  6.060674e+001
      vertex  2.000000e+000  3.000000e+000  6.220000e+001
    endloop
  endfacet
  facet normal  0.000000e+000 -9.510566e-001  3.090171e-001
    outer loop
      vertex  0.000000e+000  2.427051e+000  6.043665e+001
      vertex  2.000000e+000  3.000000e+000  6.220000e+001
      vertex  0.000000e+000  3.000000e+000  6.220000e+001
    endloop
  endfacet
  facet normal -3.387843e-002  2.147728e-001  9.760763e-001
    outer loop
      vertex  2.022546e+000  5.684681e-002  5.920054e+001
      vertex  0.000000e+000 -9.270510e-001  5.934683e+001
      vertex  2.000000e+000 -1.307670e+000  5.950000e+001
    endloop
  endfacet
  facet normal  4.984128e-002  5.870545e-001  8.080117e-001
    outer loop
      vertex  2.000000e+000 -1.307670e+000  5.950000e+001
      vertex  0.000000e+000 -9.270510e-001  5.934683e+001
      vertex  0.000000e+000 -2.427051e+000  6.043665e+001
    endloop
  endfacet
  facet normal -2.495799e-002  6.673838e-001  7.442955e-001
    outer loop
      vertex  2.000000e+000 -1.307670e+000  5.950000e+001
      vertex  0.000000e+000 -2.427051e+000  6.043665e+001
      vertex  2.000000e+000 -2.541949e+000  6.060674e+001
    endloop
  endfacet
  facet normal  2.834552e-002  9.506743e-001  3.088928e-001
    outer loop
      vertex  2.000000e+000 -2.541949e+000  6.060674e+001
      vertex  0.000000e+000 -2.427051e+000  6.043665e+001
      vertex  0.000000e+000 -3.000000e+000  6.220000e+001
    endloop
  endfacet
  facet normal  -0.000000e+000  9.610714e-001  2.763003e-001
    outer loop
      vertex  2.000000e+000 -2.541949e+000  6.060674e+001
      vertex  0.000000e+000 -3.000000e+000  6.220000e+001
      vertex  2.000000e+000 -3.000000e+000  6.220000e+001
    endloop
  endfacet
  facet normal  -0.000000e+000  0.000000e+000  1.000000e+000
    outer loop
      vertex  2.800000e+001  4.350000e+001  5.750000e+001
      vertex  4.000000e+000  4.350000e+001  5.750000e+001
      vertex  2.800000e+001 -4.350000e+001  5.750000e+001
    endloop
  endfacet
  facet normal  0.000000e+000  0.000000e+000  1.000000e+000
    outer loop
      vertex  2.800000e+001 -4.350000e+001  5.750000e+001
      vertex  4.000000e+000  4.350000e+001  5.750000e+001
      vertex  4.000000e+000 -4.350000e+001  5.750000e+001
    endloop
  endfacet
  facet normal  1.000000e+000  0.000000e+000  0.000000e+000
    outer loop
      vertex  2.000000e+000 -4.350000e+001  5.950000e+001
      vertex  2.000000e+000 -1.307670e+000  5.950000e+001
      vertex  2.000000e+000 -2.541949e+000  6.060674e+001
    endloop
  endfacet
  facet normal  1.000000e+000  0.000000e+000  0.000000e+000
    outer loop
      vertex  2.000000e+000 -4.350000e+001  5.950000e+001
      vertex  2.000000e+000 -2.541949e+000  6.060674e+001
      vertex  2.000000e+000 -3.000000e+000  6.220000e+001
    endloop
  endfacet
  facet normal  1.000000e+000  0.000000e+000  -0.000000e+000
    outer loop
      vertex  2.000000e+000 -4.350000e+001  5.950000e+001
      vertex  2.000000e+000 -3.000000e+000  6.220000e+001
      vertex  2.000000e+000 -3.000000e+000  6.920000e+001
    endloop
  endfacet
  facet normal  1.000000e+000  0.000000e+000  0.000000e+000
    outer loop
      vertex  2.000000e+000 -4.350000e+001  5.950000e+001
      vertex  2.000000e+000 -3.000000e+000  6.920000e+001
      vertex  2.000000e+000 -4.350000e+001  6.920000e+001
    endloop
  endfacet
  facet normal  1.000000e+000  0.000000e+000  0.000000e+000
    outer loop
      vertex  2.000000e+000  4.350000e+001  5.950000e+001
      vertex  2.000000e+000  4.350000e+001  6.920000e+001
      vertex  2.000000e+000  3.000000e+000  6.920000e+001
    endloop
  endfacet
  facet normal  1.000000e+000  0.000000e+000  0.000000e+000
    outer loop
      vertex  2.000000e+000  4.350000e+001  5.950000e+001
      vertex  2.000000e+000  3.000000e+000  6.920000e+001
      vertex  2.000000e+000  3.000000e+000  6.220000e+001
    endloop
  endfacet
  facet normal  1.000000e+000  0.000000e+000  0.000000e+000
    outer loop
      vertex  2.000000e+000  4.350000e+001  5.950000e+001
      vertex  2.000000e+000  3.000000e+000  6.220000e+001
      vertex  2.000000e+000  2.541949e+000  6.060674e+001
    endloop
  endfacet
  facet normal  1.000000e+000  0.000000e+000  0.000000e+000
    outer loop
      vertex  2.000000e+000  4.350000e+001  5.950000e+001
      vertex  2.000000e+000  2.541949e+000  6.060674e+001
      vertex  2.000000e+000  1.307670e+000  5.950000e+001
    endloop
  endfacet
  facet normal  8.925415e-001  0.000000e+000  4.509652e-001
    outer loop
      vertex  2.585786e+000  4.350000e+001  5.808578e+001
      vertex  2.022546e+000  5.684681e-002  5.920054e+001
      vertex  2.585786e+000 -4.350000e+001  5.808578e+001
    endloop
  endfacet
  facet normal  9.928065e-001  9.784110e-003  1.193299e-001
    outer loop
      vertex  2.585786e+000 -4.350000e+001  5.808578e+001
      vertex  2.022546e+000  5.684681e-002  5.920054e+001
      vertex  2.000000e+000 -1.307670e+000  5.950000e+001
    endloop
  endfacet
  facet normal  9.238797e-001  0.000000e+000  3.826830e-001
    outer loop
      vertex  2.585786e+000 -4.350000e+001  5.808578e+001
      vertex  2.000000e+000 -1.307670e+000  5.950000e+001
      vertex  2.000000e+000 -4.350000e+001  5.950000e+001
    endloop
  endfacet
  facet normal  3.826826e-001  0.000000e+000  9.238799e-001
    outer loop
      vertex  4.000000e+000  4.350000e+001  5.750000e+001
      vertex  2.585786e+000  4.350000e+001  5.808578e+001
      vertex  4.000000e+000 -4.350000e+001  5.750000e+001
    endloop
  endfacet
  facet normal  3.826826e-001  0.000000e+000  9.238799e-001
    outer loop
      vertex  4.000000e+000 -4.350000e+001  5.750000e+001
      vertex  2.585786e+000  4.350000e+001  5.808578e+001
      vertex  2.585786e+000 -4.350000e+001  5.808578e+001
    endloop
  endfacet
  facet normal  9.238775e-001 -2.158419e-003  3.826821e-001
    outer loop
      vertex  2.585786e+000  4.350000e+001  5.808578e+001
      vertex  2.000000e+000  4.350000e+001  5.950000e+001
      vertex  2.022546e+000  5.684681e-002  5.920054e+001
    endloop
  endfacet
  facet normal  9.971777e-001  0.000000e+000  7.507700e-002
    outer loop
      vertex  2.022546e+000  5.684681e-002  5.920054e+001
      vertex  2.000000e+000  4.350000e+001  5.950000e+001
      vertex  2.000000e+000  1.307670e+000  5.950000e+001
    endloop
  endfacet
  facet normal  0.000000e+000  1.000000e+000  0.000000e+000
    outer loop
      vertex  2.000000e+000 -3.000000e+000  6.220000e+001
      vertex  0.000000e+000 -3.000000e+000  6.220000e+001
      vertex  2.000000e+000 -3.000000e+000  6.920000e+001
    endloop
  endfacet
  facet normal  0.000000e+000  1.000000e+000  0.000000e+000
    outer loop
      vertex  2.000000e+000 -3.000000e+000  6.920000e+001
      vertex  0.000000e+000 -3.000000e+000  6.220000e+001
      vertex  0.000000e+000 -3.000000e+000  6.920000e+001
    endloop
  endfacet
  facet normal  0.000000e+000 -1.000000e+000  0.000000e+000
    outer loop
      vertex  2.000000e+000  3.000000e+000  6.920000e+001
      vertex  0.000000e+000  3.000000e+000  6.920000e+001
      vertex  2.000000e+000  3.000000e+000  6.220000e+001
    endloop
  endfacet
  facet normal  0.000000e+000 -1.000000e+000  0.000000e+000
    outer loop
      vertex  2.000000e+000  3.000000e+000  6.220000e+001
      vertex  0.000000e+000  3.000000e+000  6.920000e+001
      vertex  0.000000e+000  3.000000e+000  6.220000e+001
    endloop
  endfacet
endsolid CATIA STL
