solid CATIA STL
  facet normal  1.000000e+000  0.000000e+000  0.000000e+000
    outer loop
      vertex  1.800000e+000 -2.114095e-015  4.825000e+000
      vertex  1.800000e+000 -9.888544e-001  3.043381e+000
      vertex  1.800000e+000  2.412500e+000  4.178573e+000
    endloop
  endfacet
  facet normal  1.000000e+000  0.000000e+000  0.000000e+000
    outer loop
      vertex  1.800000e+000  2.412500e+000  4.178573e+000
      vertex  1.800000e+000 -9.888544e-001  3.043381e+000
      vertex  1.800000e+000  9.888544e-001  3.043381e+000
    endloop
  endfacet
  facet normal  1.000000e+000  -0.000000e+000  0.000000e+000
    outer loop
      vertex  1.800000e+000  2.412500e+000  4.178573e+000
      vertex  1.800000e+000  9.888544e-001  3.043381e+000
      vertex  1.800000e+000  4.178573e+000  2.412500e+000
    endloop
  endfacet
  facet normal  1.000000e+000  0.000000e+000  0.000000e+000
    outer loop
      vertex  1.800000e+000  4.178573e+000  2.412500e+000
      vertex  1.800000e+000  9.888544e-001  3.043381e+000
      vertex  1.800000e+000  2.588854e+000  1.880913e+000
    endloop
  endfacet
  facet normal  1.000000e+000  -0.000000e+000  0.000000e+000
    outer loop
      vertex  1.800000e+000  4.178573e+000  2.412500e+000
      vertex  1.800000e+000  2.588854e+000  1.880913e+000
      vertex  1.800000e+000  4.825000e+000  3.024578e-016
    endloop
  endfacet
  facet normal  1.000000e+000  0.000000e+000  0.000000e+000
    outer loop
      vertex  1.800000e+000  4.825000e+000  3.024578e-016
      vertex  1.800000e+000  2.588854e+000  1.880913e+000
      vertex  1.800000e+000  3.200000e+000  0.000000e+000
    endloop
  endfacet
  facet normal  1.000000e+000  -0.000000e+000  0.000000e+000
    outer loop
      vertex  1.800000e+000  4.825000e+000  3.024578e-016
      vertex  1.800000e+000  3.200000e+000  0.000000e+000
      vertex  1.800000e+000  4.178573e+000 -2.412500e+000
    endloop
  endfacet
  facet normal  1.000000e+000  0.000000e+000  0.000000e+000
    outer loop
      vertex  1.800000e+000  4.178573e+000 -2.412500e+000
      vertex  1.800000e+000  3.200000e+000  0.000000e+000
      vertex  1.800000e+000  2.588854e+000 -1.880913e+000
    endloop
  endfacet
  facet normal  1.000000e+000  0.000000e+000  0.000000e+000
    outer loop
      vertex  1.800000e+000  4.178573e+000 -2.412500e+000
      vertex  1.800000e+000  2.588854e+000 -1.880913e+000
      vertex  1.800000e+000  2.412500e+000 -4.178573e+000
    endloop
  endfacet
  facet normal  1.000000e+000  0.000000e+000  -0.000000e+000
    outer loop
      vertex  1.800000e+000  2.412500e+000 -4.178573e+000
      vertex  1.800000e+000  2.588854e+000 -1.880913e+000
      vertex  1.800000e+000  9.888544e-001 -3.043381e+000
    endloop
  endfacet
  facet normal  1.000000e+000  0.000000e+000  0.000000e+000
    outer loop
      vertex  1.800000e+000  2.412500e+000 -4.178573e+000
      vertex  1.800000e+000  9.888544e-001 -3.043381e+000
      vertex  1.800000e+000  1.869571e-018 -4.825000e+000
    endloop
  endfacet
  facet normal  1.000000e+000  0.000000e+000  -0.000000e+000
    outer loop
      vertex  1.800000e+000  1.869571e-018 -4.825000e+000
      vertex  1.800000e+000  9.888544e-001 -3.043381e+000
      vertex  1.800000e+000 -9.888544e-001 -3.043381e+000
    endloop
  endfacet
  facet normal  1.000000e+000  0.000000e+000  0.000000e+000
    outer loop
      vertex  1.800000e+000  1.869571e-018 -4.825000e+000
      vertex  1.800000e+000 -9.888544e-001 -3.043381e+000
      vertex  1.800000e+000 -2.412500e+000 -4.178573e+000
    endloop
  endfacet
  facet normal  1.000000e+000  0.000000e+000  0.000000e+000
    outer loop
      vertex  1.800000e+000 -2.412500e+000 -4.178573e+000
      vertex  1.800000e+000 -9.888544e-001 -3.043381e+000
      vertex  1.800000e+000 -4.178573e+000 -2.412500e+000
    endloop
  endfacet
  facet normal  1.000000e+000  -0.000000e+000  0.000000e+000
    outer loop
      vertex  1.800000e+000 -4.178573e+000 -2.412500e+000
      vertex  1.800000e+000 -9.888544e-001 -3.043381e+000
      vertex  1.800000e+000 -2.588854e+000 -1.880913e+000
    endloop
  endfacet
  facet normal  1.000000e+000  0.000000e+000  0.000000e+000
    outer loop
      vertex  1.800000e+000 -4.178573e+000 -2.412500e+000
      vertex  1.800000e+000 -2.588854e+000 -1.880913e+000
      vertex  1.800000e+000 -4.825000e+000  1.928691e-015
    endloop
  endfacet
  facet normal  1.000000e+000  0.000000e+000  0.000000e+000
    outer loop
      vertex  1.800000e+000 -4.825000e+000  1.928691e-015
      vertex  1.800000e+000 -2.588854e+000 -1.880913e+000
      vertex  1.800000e+000 -3.200000e+000  3.918740e-016
    endloop
  endfacet
  facet normal  1.000000e+000  0.000000e+000  0.000000e+000
    outer loop
      vertex  1.800000e+000 -4.825000e+000  1.928691e-015
      vertex  1.800000e+000 -3.200000e+000  3.918740e-016
      vertex  1.800000e+000 -4.178573e+000  2.412500e+000
    endloop
  endfacet
  facet normal  1.000000e+000  0.000000e+000  0.000000e+000
    outer loop
      vertex  1.800000e+000 -4.178573e+000  2.412500e+000
      vertex  1.800000e+000 -3.200000e+000  3.918740e-016
      vertex  1.800000e+000 -2.588854e+000  1.880913e+000
    endloop
  endfacet
  facet normal  1.000000e+000  0.000000e+000  -0.000000e+000
    outer loop
      vertex  1.800000e+000 -4.178573e+000  2.412500e+000
      vertex  1.800000e+000 -2.588854e+000  1.880913e+000
      vertex  1.800000e+000 -2.412500e+000  4.178573e+000
    endloop
  endfacet
  facet normal  1.000000e+000  0.000000e+000  0.000000e+000
    outer loop
      vertex  1.800000e+000 -2.412500e+000  4.178573e+000
      vertex  1.800000e+000 -2.588854e+000  1.880913e+000
      vertex  1.800000e+000 -9.888544e-001  3.043381e+000
    endloop
  endfacet
  facet normal  1.000000e+000  0.000000e+000  -0.000000e+000
    outer loop
      vertex  1.800000e+000 -2.412500e+000  4.178573e+000
      vertex  1.800000e+000 -9.888544e-001  3.043381e+000
      vertex  1.800000e+000 -2.114095e-015  4.825000e+000
    endloop
  endfacet
  facet normal -1.258116e-015  9.659259e-001 -2.588190e-001
    outer loop
      vertex  0.000000e+000  5.500000e+000  0.000000e+000
      vertex  1.282054e+000  5.500000e+000 -6.232048e-015
      vertex  0.000000e+000  4.763140e+000 -2.750000e+000
    endloop
  endfacet
  facet normal  0.000000e+000  9.659259e-001 -2.588190e-001
    outer loop
      vertex  0.000000e+000  4.763140e+000 -2.750000e+000
      vertex  1.282054e+000  5.500000e+000 -6.232048e-015
      vertex  1.282054e+000  4.763140e+000 -2.750000e+000
    endloop
  endfacet
  facet normal  0.000000e+000  7.071068e-001 -7.071068e-001
    outer loop
      vertex  0.000000e+000  4.763140e+000 -2.750000e+000
      vertex  1.282054e+000  4.763140e+000 -2.750000e+000
      vertex  0.000000e+000  2.750000e+000 -4.763140e+000
    endloop
  endfacet
  facet normal  0.000000e+000  7.071068e-001 -7.071068e-001
    outer loop
      vertex  0.000000e+000  2.750000e+000 -4.763140e+000
      vertex  1.282054e+000  4.763140e+000 -2.750000e+000
      vertex  1.282054e+000  2.750000e+000 -4.763140e+000
    endloop
  endfacet
  facet normal  0.000000e+000  2.588190e-001 -9.659259e-001
    outer loop
      vertex  0.000000e+000  2.750000e+000 -4.763140e+000
      vertex  1.282054e+000  2.750000e+000 -4.763140e+000
      vertex  0.000000e+000 -1.010300e-015 -5.500000e+000
    endloop
  endfacet
  facet normal  9.861721e-016  2.588190e-001 -9.659259e-001
    outer loop
      vertex  0.000000e+000 -1.010300e-015 -5.500000e+000
      vertex  1.282054e+000  2.750000e+000 -4.763140e+000
      vertex  1.282054e+000 -5.895282e-015 -5.500000e+000
    endloop
  endfacet
  facet normal -9.861721e-016 -2.588190e-001 -9.659259e-001
    outer loop
      vertex  0.000000e+000 -1.010300e-015 -5.500000e+000
      vertex  1.282054e+000 -5.895282e-015 -5.500000e+000
      vertex  0.000000e+000 -2.750000e+000 -4.763140e+000
    endloop
  endfacet
  facet normal  0.000000e+000 -2.588190e-001 -9.659259e-001
    outer loop
      vertex  0.000000e+000 -2.750000e+000 -4.763140e+000
      vertex  1.282054e+000 -5.895282e-015 -5.500000e+000
      vertex  1.282054e+000 -2.750000e+000 -4.763140e+000
    endloop
  endfacet
  facet normal  -0.000000e+000 -7.071068e-001 -7.071068e-001
    outer loop
      vertex  0.000000e+000 -2.750000e+000 -4.763140e+000
      vertex  1.282054e+000 -2.750000e+000 -4.763140e+000
      vertex  0.000000e+000 -4.763140e+000 -2.750000e+000
    endloop
  endfacet
  facet normal  0.000000e+000 -7.071068e-001 -7.071068e-001
    outer loop
      vertex  0.000000e+000 -4.763140e+000 -2.750000e+000
      vertex  1.282054e+000 -2.750000e+000 -4.763140e+000
      vertex  1.282054e+000 -4.763140e+000 -2.750000e+000
    endloop
  endfacet
  facet normal  -0.000000e+000 -9.659259e-001 -2.588190e-001
    outer loop
      vertex  0.000000e+000 -4.763140e+000 -2.750000e+000
      vertex  1.282054e+000 -4.763140e+000 -2.750000e+000
      vertex  0.000000e+000 -5.500000e+000  3.116024e-015
    endloop
  endfacet
  facet normal  0.000000e+000 -9.659259e-001 -2.588190e-001
    outer loop
      vertex  0.000000e+000 -5.500000e+000  3.116024e-015
      vertex  1.282054e+000 -4.763140e+000 -2.750000e+000
      vertex  1.282054e+000 -5.500000e+000  3.116024e-015
    endloop
  endfacet
  facet normal  0.000000e+000 -9.659259e-001  2.588190e-001
    outer loop
      vertex  0.000000e+000 -5.500000e+000  3.116024e-015
      vertex  1.282054e+000 -5.500000e+000  3.116024e-015
      vertex  0.000000e+000 -4.763140e+000  2.750000e+000
    endloop
  endfacet
  facet normal  0.000000e+000 -9.659259e-001  2.588190e-001
    outer loop
      vertex  0.000000e+000 -4.763140e+000  2.750000e+000
      vertex  1.282054e+000 -5.500000e+000  3.116024e-015
      vertex  1.282054e+000 -4.763140e+000  2.750000e+000
    endloop
  endfacet
  facet normal  0.000000e+000 -7.071068e-001  7.071068e-001
    outer loop
      vertex  0.000000e+000 -4.763140e+000  2.750000e+000
      vertex  1.282054e+000 -4.763140e+000  2.750000e+000
      vertex  0.000000e+000 -2.750000e+000  4.763140e+000
    endloop
  endfacet
  facet normal  0.000000e+000 -7.071068e-001  7.071068e-001
    outer loop
      vertex  0.000000e+000 -2.750000e+000  4.763140e+000
      vertex  1.282054e+000 -4.763140e+000  2.750000e+000
      vertex  1.282054e+000 -2.750000e+000  4.763140e+000
    endloop
  endfacet
  facet normal  0.000000e+000 -2.588190e-001  9.659259e-001
    outer loop
      vertex  0.000000e+000 -2.750000e+000  4.763140e+000
      vertex  1.282054e+000 -2.750000e+000  4.763140e+000
      vertex  0.000000e+000  1.558012e-015  5.500000e+000
    endloop
  endfacet
  facet normal  0.000000e+000 -2.588190e-001  9.659259e-001
    outer loop
      vertex  0.000000e+000  1.558012e-015  5.500000e+000
      vertex  1.282054e+000 -2.750000e+000  4.763140e+000
      vertex  1.282054e+000  1.558012e-015  5.500000e+000
    endloop
  endfacet
  facet normal  0.000000e+000  2.588190e-001  9.659259e-001
    outer loop
      vertex  0.000000e+000  1.558012e-015  5.500000e+000
      vertex  1.282054e+000  1.558012e-015  5.500000e+000
      vertex  0.000000e+000  2.750000e+000  4.763140e+000
    endloop
  endfacet
  facet normal  -0.000000e+000  2.588190e-001  9.659259e-001
    outer loop
      vertex  0.000000e+000  2.750000e+000  4.763140e+000
      vertex  1.282054e+000  1.558012e-015  5.500000e+000
      vertex  1.282054e+000  2.750000e+000  4.763140e+000
    endloop
  endfacet
  facet normal  0.000000e+000  7.071068e-001  7.071068e-001
    outer loop
      vertex  0.000000e+000  2.750000e+000  4.763140e+000
      vertex  1.282054e+000  2.750000e+000  4.763140e+000
      vertex  0.000000e+000  4.763140e+000  2.750000e+000
    endloop
  endfacet
  facet normal  -0.000000e+000  7.071068e-001  7.071068e-001
    outer loop
      vertex  0.000000e+000  4.763140e+000  2.750000e+000
      vertex  1.282054e+000  2.750000e+000  4.763140e+000
      vertex  1.282054e+000  4.763140e+000  2.750000e+000
    endloop
  endfacet
  facet normal  0.000000e+000  9.659259e-001  2.588190e-001
    outer loop
      vertex  0.000000e+000  4.763140e+000  2.750000e+000
      vertex  1.282054e+000  4.763140e+000  2.750000e+000
      vertex  0.000000e+000  5.500000e+000  0.000000e+000
    endloop
  endfacet
  facet normal  1.258116e-015  9.659259e-001  2.588190e-001
    outer loop
      vertex  0.000000e+000  5.500000e+000  0.000000e+000
      vertex  1.282054e+000  4.763140e+000  2.750000e+000
      vertex  1.282054e+000  5.500000e+000 -6.232048e-015
    endloop
  endfacet
  facet normal  7.830050e-001 -1.609895e-001 -6.008208e-001
    outer loop
      vertex  1.282054e+000 -5.895282e-015 -5.500000e+000
      vertex  1.800000e+000 -2.412500e+000 -4.178573e+000
      vertex  1.282054e+000 -2.750000e+000 -4.763140e+000
    endloop
  endfacet
  facet normal  7.830049e-001 -4.398313e-001 -4.398313e-001
    outer loop
      vertex  1.282054e+000 -2.750000e+000 -4.763140e+000
      vertex  1.800000e+000 -2.412500e+000 -4.178573e+000
      vertex  1.800000e+000 -4.178573e+000 -2.412500e+000
    endloop
  endfacet
  facet normal  7.830050e-001 -4.398313e-001 -4.398313e-001
    outer loop
      vertex  1.282054e+000 -2.750000e+000 -4.763140e+000
      vertex  1.800000e+000 -4.178573e+000 -2.412500e+000
      vertex  1.282054e+000 -4.763140e+000 -2.750000e+000
    endloop
  endfacet
  facet normal  7.830049e-001 -6.008208e-001 -1.609894e-001
    outer loop
      vertex  1.282054e+000 -4.763140e+000 -2.750000e+000
      vertex  1.800000e+000 -4.178573e+000 -2.412500e+000
      vertex  1.800000e+000 -4.825000e+000  1.928691e-015
    endloop
  endfacet
  facet normal  7.830050e-001 -6.008206e-001 -1.609894e-001
    outer loop
      vertex  1.282054e+000 -4.763140e+000 -2.750000e+000
      vertex  1.800000e+000 -4.825000e+000  1.928691e-015
      vertex  1.282054e+000 -5.500000e+000  3.116024e-015
    endloop
  endfacet
  facet normal  7.830051e-001 -1.609894e-001 -6.008207e-001
    outer loop
      vertex  1.800000e+000 -2.412500e+000 -4.178573e+000
      vertex  1.282054e+000 -5.895282e-015 -5.500000e+000
      vertex  1.800000e+000  1.869571e-018 -4.825000e+000
    endloop
  endfacet
  facet normal  7.830050e-001  1.609894e-001 -6.008206e-001
    outer loop
      vertex  1.800000e+000  1.869571e-018 -4.825000e+000
      vertex  1.282054e+000 -5.895282e-015 -5.500000e+000
      vertex  1.282054e+000  2.750000e+000 -4.763140e+000
    endloop
  endfacet
  facet normal  7.830049e-001  1.609894e-001 -6.008208e-001
    outer loop
      vertex  1.800000e+000  1.869571e-018 -4.825000e+000
      vertex  1.282054e+000  2.750000e+000 -4.763140e+000
      vertex  1.800000e+000  2.412500e+000 -4.178573e+000
    endloop
  endfacet
  facet normal  7.830050e-001  4.398313e-001 -4.398313e-001
    outer loop
      vertex  1.800000e+000  2.412500e+000 -4.178573e+000
      vertex  1.282054e+000  2.750000e+000 -4.763140e+000
      vertex  1.282054e+000  4.763140e+000 -2.750000e+000
    endloop
  endfacet
  facet normal  7.830049e-001  4.398313e-001 -4.398313e-001
    outer loop
      vertex  1.800000e+000  2.412500e+000 -4.178573e+000
      vertex  1.282054e+000  4.763140e+000 -2.750000e+000
      vertex  1.800000e+000  4.178573e+000 -2.412500e+000
    endloop
  endfacet
  facet normal  7.830050e-001  6.008208e-001 -1.609895e-001
    outer loop
      vertex  1.800000e+000  4.178573e+000 -2.412500e+000
      vertex  1.282054e+000  4.763140e+000 -2.750000e+000
      vertex  1.282054e+000  5.500000e+000 -6.232048e-015
    endloop
  endfacet
  facet normal  7.830051e-001  6.008207e-001 -1.609894e-001
    outer loop
      vertex  1.800000e+000  4.178573e+000 -2.412500e+000
      vertex  1.282054e+000  5.500000e+000 -6.232048e-015
      vertex  1.800000e+000  4.825000e+000  3.024578e-016
    endloop
  endfacet
  facet normal  7.830050e-001  1.609895e-001  6.008208e-001
    outer loop
      vertex  1.282054e+000  1.558012e-015  5.500000e+000
      vertex  1.800000e+000  2.412500e+000  4.178573e+000
      vertex  1.282054e+000  2.750000e+000  4.763140e+000
    endloop
  endfacet
  facet normal  7.830049e-001  4.398313e-001  4.398313e-001
    outer loop
      vertex  1.282054e+000  2.750000e+000  4.763140e+000
      vertex  1.800000e+000  2.412500e+000  4.178573e+000
      vertex  1.800000e+000  4.178573e+000  2.412500e+000
    endloop
  endfacet
  facet normal  7.830050e-001  4.398313e-001  4.398313e-001
    outer loop
      vertex  1.282054e+000  2.750000e+000  4.763140e+000
      vertex  1.800000e+000  4.178573e+000  2.412500e+000
      vertex  1.282054e+000  4.763140e+000  2.750000e+000
    endloop
  endfacet
  facet normal  7.830049e-001  6.008208e-001  1.609894e-001
    outer loop
      vertex  1.282054e+000  4.763140e+000  2.750000e+000
      vertex  1.800000e+000  4.178573e+000  2.412500e+000
      vertex  1.800000e+000  4.825000e+000  3.024578e-016
    endloop
  endfacet
  facet normal  7.830050e-001  6.008206e-001  1.609894e-001
    outer loop
      vertex  1.282054e+000  4.763140e+000  2.750000e+000
      vertex  1.800000e+000  4.825000e+000  3.024578e-016
      vertex  1.282054e+000  5.500000e+000 -6.232048e-015
    endloop
  endfacet
  facet normal  7.830051e-001  1.609894e-001  6.008207e-001
    outer loop
      vertex  1.800000e+000  2.412500e+000  4.178573e+000
      vertex  1.282054e+000  1.558012e-015  5.500000e+000
      vertex  1.800000e+000 -2.114095e-015  4.825000e+000
    endloop
  endfacet
  facet normal  7.830050e-001 -1.609894e-001  6.008206e-001
    outer loop
      vertex  1.800000e+000 -2.114095e-015  4.825000e+000
      vertex  1.282054e+000  1.558012e-015  5.500000e+000
      vertex  1.282054e+000 -2.750000e+000  4.763140e+000
    endloop
  endfacet
  facet normal  7.830049e-001 -1.609894e-001  6.008208e-001
    outer loop
      vertex  1.800000e+000 -2.114095e-015  4.825000e+000
      vertex  1.282054e+000 -2.750000e+000  4.763140e+000
      vertex  1.800000e+000 -2.412500e+000  4.178573e+000
    endloop
  endfacet
  facet normal  7.830050e-001 -4.398313e-001  4.398313e-001
    outer loop
      vertex  1.800000e+000 -2.412500e+000  4.178573e+000
      vertex  1.282054e+000 -2.750000e+000  4.763140e+000
      vertex  1.282054e+000 -4.763140e+000  2.750000e+000
    endloop
  endfacet
  facet normal  7.830049e-001 -4.398313e-001  4.398313e-001
    outer loop
      vertex  1.800000e+000 -2.412500e+000  4.178573e+000
      vertex  1.282054e+000 -4.763140e+000  2.750000e+000
      vertex  1.800000e+000 -4.178573e+000  2.412500e+000
    endloop
  endfacet
  facet normal  7.830050e-001 -6.008208e-001  1.609895e-001
    outer loop
      vertex  1.800000e+000 -4.178573e+000  2.412500e+000
      vertex  1.282054e+000 -4.763140e+000  2.750000e+000
      vertex  1.282054e+000 -5.500000e+000  3.116024e-015
    endloop
  endfacet
  facet normal  7.830051e-001 -6.008207e-001  1.609894e-001
    outer loop
      vertex  1.800000e+000 -4.178573e+000  2.412500e+000
      vertex  1.282054e+000 -5.500000e+000  3.116024e-015
      vertex  1.800000e+000 -4.825000e+000  1.928691e-015
    endloop
  endfacet
  facet normal -1.000000e+000  0.000000e+000  0.000000e+000
    outer loop
      vertex  0.000000e+000  4.763140e+000 -2.750000e+000
      vertex  0.000000e+000  2.750000e+000 -4.763140e+000
      vertex  0.000000e+000  9.888544e-001 -3.043381e+000
    endloop
  endfacet
  facet normal -9.999999e-001  0.000000e+000  -0.000000e+000
    outer loop
      vertex  0.000000e+000  9.888544e-001 -3.043381e+000
      vertex  0.000000e+000  2.750000e+000 -4.763140e+000
      vertex  0.000000e+000 -1.010300e-015 -5.500000e+000
    endloop
  endfacet
  facet normal -1.000000e+000  0.000000e+000  0.000000e+000
    outer loop
      vertex  0.000000e+000  9.888544e-001 -3.043381e+000
      vertex  0.000000e+000 -1.010300e-015 -5.500000e+000
      vertex  0.000000e+000 -9.888544e-001 -3.043381e+000
    endloop
  endfacet
  facet normal -9.999999e-001  0.000000e+000  -0.000000e+000
    outer loop
      vertex  0.000000e+000 -9.888544e-001 -3.043381e+000
      vertex  0.000000e+000 -1.010300e-015 -5.500000e+000
      vertex  0.000000e+000 -2.750000e+000 -4.763140e+000
    endloop
  endfacet
  facet normal -1.000000e+000  0.000000e+000  0.000000e+000
    outer loop
      vertex  0.000000e+000 -9.888544e-001 -3.043381e+000
      vertex  0.000000e+000 -2.750000e+000 -4.763140e+000
      vertex  0.000000e+000 -4.763140e+000 -2.750000e+000
    endloop
  endfacet
  facet normal -1.000000e+000  0.000000e+000  0.000000e+000
    outer loop
      vertex  0.000000e+000  4.763140e+000  2.750000e+000
      vertex  0.000000e+000  9.888544e-001  3.043381e+000
      vertex  0.000000e+000  2.750000e+000  4.763140e+000
    endloop
  endfacet
  facet normal -1.000000e+000  0.000000e+000  0.000000e+000
    outer loop
      vertex  0.000000e+000  2.750000e+000  4.763140e+000
      vertex  0.000000e+000  9.888544e-001  3.043381e+000
      vertex  0.000000e+000 -9.888544e-001  3.043381e+000
    endloop
  endfacet
  facet normal -1.000000e+000  0.000000e+000  0.000000e+000
    outer loop
      vertex  0.000000e+000  2.750000e+000  4.763140e+000
      vertex  0.000000e+000 -9.888544e-001  3.043381e+000
      vertex  0.000000e+000  1.558012e-015  5.500000e+000
    endloop
  endfacet
  facet normal -1.000000e+000  0.000000e+000  0.000000e+000
    outer loop
      vertex  0.000000e+000 -3.200000e+000  3.918740e-016
      vertex  0.000000e+000 -5.500000e+000  3.116024e-015
      vertex  0.000000e+000 -2.588854e+000  1.880913e+000
    endloop
  endfacet
  facet normal -9.999999e-001  -0.000000e+000  0.000000e+000
    outer loop
      vertex  0.000000e+000 -2.588854e+000  1.880913e+000
      vertex  0.000000e+000 -5.500000e+000  3.116024e-015
      vertex  0.000000e+000 -4.763140e+000  2.750000e+000
    endloop
  endfacet
  facet normal -9.999999e-001  0.000000e+000  0.000000e+000
    outer loop
      vertex  0.000000e+000 -2.588854e+000  1.880913e+000
      vertex  0.000000e+000 -4.763140e+000  2.750000e+000
      vertex  0.000000e+000 -9.888544e-001  3.043381e+000
    endloop
  endfacet
  facet normal -1.000000e+000  -0.000000e+000  0.000000e+000
    outer loop
      vertex  0.000000e+000 -9.888544e-001  3.043381e+000
      vertex  0.000000e+000 -4.763140e+000  2.750000e+000
      vertex  0.000000e+000 -2.750000e+000  4.763140e+000
    endloop
  endfacet
  facet normal -9.999999e-001  0.000000e+000  0.000000e+000
    outer loop
      vertex  0.000000e+000 -9.888544e-001  3.043381e+000
      vertex  0.000000e+000 -2.750000e+000  4.763140e+000
      vertex  0.000000e+000  1.558012e-015  5.500000e+000
    endloop
  endfacet
  facet normal -9.999999e-001  0.000000e+000  0.000000e+000
    outer loop
      vertex  0.000000e+000 -9.888544e-001 -3.043381e+000
      vertex  0.000000e+000 -4.763140e+000 -2.750000e+000
      vertex  0.000000e+000 -2.588854e+000 -1.880913e+000
    endloop
  endfacet
  facet normal -9.999999e-001  -0.000000e+000  0.000000e+000
    outer loop
      vertex  0.000000e+000 -2.588854e+000 -1.880913e+000
      vertex  0.000000e+000 -4.763140e+000 -2.750000e+000
      vertex  0.000000e+000 -5.500000e+000  3.116024e-015
    endloop
  endfacet
  facet normal -1.000000e+000  0.000000e+000  0.000000e+000
    outer loop
      vertex  0.000000e+000 -2.588854e+000 -1.880913e+000
      vertex  0.000000e+000 -5.500000e+000  3.116024e-015
      vertex  0.000000e+000 -3.200000e+000  3.918740e-016
    endloop
  endfacet
  facet normal -1.000000e+000  0.000000e+000  0.000000e+000
    outer loop
      vertex  0.000000e+000  3.200000e+000  0.000000e+000
      vertex  0.000000e+000  2.588854e+000  1.880913e+000
      vertex  0.000000e+000  5.500000e+000  0.000000e+000
    endloop
  endfacet
  facet normal -1.000000e+000  0.000000e+000  0.000000e+000
    outer loop
      vertex  0.000000e+000  5.500000e+000  0.000000e+000
      vertex  0.000000e+000  2.588854e+000  1.880913e+000
      vertex  0.000000e+000  9.888544e-001  3.043381e+000
    endloop
  endfacet
  facet normal -1.000000e+000  0.000000e+000  0.000000e+000
    outer loop
      vertex  0.000000e+000  5.500000e+000  0.000000e+000
      vertex  0.000000e+000  9.888544e-001  3.043381e+000
      vertex  0.000000e+000  4.763140e+000  2.750000e+000
    endloop
  endfacet
  facet normal -9.999999e-001  0.000000e+000  -0.000000e+000
    outer loop
      vertex  0.000000e+000  9.888544e-001 -3.043381e+000
      vertex  0.000000e+000  2.588854e+000 -1.880913e+000
      vertex  0.000000e+000  4.763140e+000 -2.750000e+000
    endloop
  endfacet
  facet normal -1.000000e+000  0.000000e+000  0.000000e+000
    outer loop
      vertex  0.000000e+000  4.763140e+000 -2.750000e+000
      vertex  0.000000e+000  2.588854e+000 -1.880913e+000
      vertex  0.000000e+000  3.200000e+000  0.000000e+000
    endloop
  endfacet
  facet normal -9.999999e-001  0.000000e+000  0.000000e+000
    outer loop
      vertex  0.000000e+000  4.763140e+000 -2.750000e+000
      vertex  0.000000e+000  3.200000e+000  0.000000e+000
      vertex  0.000000e+000  5.500000e+000  0.000000e+000
    endloop
  endfacet
  facet normal  0.000000e+000  5.877853e-001 -8.090171e-001
    outer loop
      vertex  0.000000e+000 -9.888544e-001  3.043381e+000
      vertex  1.800000e+000 -2.588854e+000  1.880913e+000
      vertex  0.000000e+000 -2.588854e+000  1.880913e+000
    endloop
  endfacet
  facet normal  0.000000e+000  9.510565e-001 -3.090170e-001
    outer loop
      vertex  0.000000e+000 -2.588854e+000  1.880913e+000
      vertex  1.800000e+000 -2.588854e+000  1.880913e+000
      vertex  1.800000e+000 -3.200000e+000  3.918740e-016
    endloop
  endfacet
  facet normal  0.000000e+000  9.510565e-001 -3.090170e-001
    outer loop
      vertex  0.000000e+000 -2.588854e+000  1.880913e+000
      vertex  1.800000e+000 -3.200000e+000  3.918740e-016
      vertex  0.000000e+000 -3.200000e+000  3.918740e-016
    endloop
  endfacet
  facet normal  0.000000e+000  5.877853e-001 -8.090171e-001
    outer loop
      vertex  1.800000e+000 -2.588854e+000  1.880913e+000
      vertex  0.000000e+000 -9.888544e-001  3.043381e+000
      vertex  1.800000e+000 -9.888544e-001  3.043381e+000
    endloop
  endfacet
  facet normal  0.000000e+000  0.000000e+000 -9.999999e-001
    outer loop
      vertex  1.800000e+000 -9.888544e-001  3.043381e+000
      vertex  0.000000e+000 -9.888544e-001  3.043381e+000
      vertex  0.000000e+000  9.888544e-001  3.043381e+000
    endloop
  endfacet
  facet normal  0.000000e+000  0.000000e+000 -9.999999e-001
    outer loop
      vertex  1.800000e+000 -9.888544e-001  3.043381e+000
      vertex  0.000000e+000  9.888544e-001  3.043381e+000
      vertex  1.800000e+000  9.888544e-001  3.043381e+000
    endloop
  endfacet
  facet normal  -0.000000e+000 -5.877853e-001 -8.090171e-001
    outer loop
      vertex  1.800000e+000  9.888544e-001  3.043381e+000
      vertex  0.000000e+000  9.888544e-001  3.043381e+000
      vertex  0.000000e+000  2.588854e+000  1.880913e+000
    endloop
  endfacet
  facet normal  0.000000e+000 -5.877853e-001 -8.090171e-001
    outer loop
      vertex  1.800000e+000  9.888544e-001  3.043381e+000
      vertex  0.000000e+000  2.588854e+000  1.880913e+000
      vertex  1.800000e+000  2.588854e+000  1.880913e+000
    endloop
  endfacet
  facet normal  -0.000000e+000 -9.510565e-001 -3.090170e-001
    outer loop
      vertex  1.800000e+000  2.588854e+000  1.880913e+000
      vertex  0.000000e+000  2.588854e+000  1.880913e+000
      vertex  0.000000e+000  3.200000e+000  0.000000e+000
    endloop
  endfacet
  facet normal  0.000000e+000 -9.510565e-001 -3.090170e-001
    outer loop
      vertex  1.800000e+000  2.588854e+000  1.880913e+000
      vertex  0.000000e+000  3.200000e+000  0.000000e+000
      vertex  1.800000e+000  3.200000e+000  0.000000e+000
    endloop
  endfacet
  facet normal  0.000000e+000 -5.877853e-001  8.090171e-001
    outer loop
      vertex  0.000000e+000  9.888544e-001 -3.043381e+000
      vertex  1.800000e+000  2.588854e+000 -1.880913e+000
      vertex  0.000000e+000  2.588854e+000 -1.880913e+000
    endloop
  endfacet
  facet normal  0.000000e+000 -9.510565e-001  3.090170e-001
    outer loop
      vertex  0.000000e+000  2.588854e+000 -1.880913e+000
      vertex  1.800000e+000  2.588854e+000 -1.880913e+000
      vertex  1.800000e+000  3.200000e+000  0.000000e+000
    endloop
  endfacet
  facet normal  0.000000e+000 -9.510565e-001  3.090170e-001
    outer loop
      vertex  0.000000e+000  2.588854e+000 -1.880913e+000
      vertex  1.800000e+000  3.200000e+000  0.000000e+000
      vertex  0.000000e+000  3.200000e+000  0.000000e+000
    endloop
  endfacet
  facet normal  0.000000e+000 -5.877853e-001  8.090171e-001
    outer loop
      vertex  1.800000e+000  2.588854e+000 -1.880913e+000
      vertex  0.000000e+000  9.888544e-001 -3.043381e+000
      vertex  1.800000e+000  9.888544e-001 -3.043381e+000
    endloop
  endfacet
  facet normal  0.000000e+000  0.000000e+000  9.999999e-001
    outer loop
      vertex  1.800000e+000  9.888544e-001 -3.043381e+000
      vertex  0.000000e+000  9.888544e-001 -3.043381e+000
      vertex  0.000000e+000 -9.888544e-001 -3.043381e+000
    endloop
  endfacet
  facet normal  0.000000e+000  0.000000e+000  9.999999e-001
    outer loop
      vertex  1.800000e+000  9.888544e-001 -3.043381e+000
      vertex  0.000000e+000 -9.888544e-001 -3.043381e+000
      vertex  1.800000e+000 -9.888544e-001 -3.043381e+000
    endloop
  endfacet
  facet normal  0.000000e+000  5.877853e-001  8.090171e-001
    outer loop
      vertex  1.800000e+000 -9.888544e-001 -3.043381e+000
      vertex  0.000000e+000 -9.888544e-001 -3.043381e+000
      vertex  0.000000e+000 -2.588854e+000 -1.880913e+000
    endloop
  endfacet
  facet normal  -0.000000e+000  5.877853e-001  8.090171e-001
    outer loop
      vertex  1.800000e+000 -9.888544e-001 -3.043381e+000
      vertex  0.000000e+000 -2.588854e+000 -1.880913e+000
      vertex  1.800000e+000 -2.588854e+000 -1.880913e+000
    endloop
  endfacet
  facet normal  0.000000e+000  9.510565e-001  3.090170e-001
    outer loop
      vertex  1.800000e+000 -2.588854e+000 -1.880913e+000
      vertex  0.000000e+000 -2.588854e+000 -1.880913e+000
      vertex  0.000000e+000 -3.200000e+000  3.918740e-016
    endloop
  endfacet
  facet normal  -0.000000e+000  9.510565e-001  3.090170e-001
    outer loop
      vertex  1.800000e+000 -2.588854e+000 -1.880913e+000
      vertex  0.000000e+000 -3.200000e+000  3.918740e-016
      vertex  1.800000e+000 -3.200000e+000  3.918740e-016
    endloop
  endfacet
endsolid CATIA STL
