solid CATIA STL
  facet normal  1.000000e+000  0.000000e+000  0.000000e+000
    outer loop
      vertex  2.000000e+000  6.540738e+000  6.540738e+000
      vertex  2.000000e+000  3.539822e+000  8.545886e+000
      vertex  2.000000e+000  3.214592e-016  5.250000e+000
    endloop
  endfacet
  facet normal  1.000000e+000  0.000000e+000  -0.000000e+000
    outer loop
      vertex  2.000000e+000  3.214592e-016  5.250000e+000
      vertex  2.000000e+000  3.539822e+000  8.545886e+000
      vertex  2.000000e+000 -1.320999e-015  9.250000e+000
    endloop
  endfacet
  facet normal  1.000000e+000  0.000000e+000  0.000000e+000
    outer loop
      vertex  2.000000e+000  3.214592e-016  5.250000e+000
      vertex  2.000000e+000 -1.320999e-015  9.250000e+000
      vertex  2.000000e+000 -6.540738e+000  6.540738e+000
    endloop
  endfacet
  facet normal  1.000000e+000  0.000000e+000  0.000000e+000
    outer loop
      vertex  2.000000e+000 -6.540738e+000  6.540738e+000
      vertex  2.000000e+000 -1.320999e-015  9.250000e+000
      vertex  2.000000e+000 -3.539822e+000  8.545886e+000
    endloop
  endfacet
  facet normal  1.000000e+000  0.000000e+000  0.000000e+000
    outer loop
      vertex  2.000000e+000  3.214592e-016  5.250000e+000
      vertex  2.000000e+000 -6.540738e+000  6.540738e+000
      vertex  2.000000e+000 -2.625000e+000  4.546633e+000
    endloop
  endfacet
  facet normal  1.000000e+000  0.000000e+000  0.000000e+000
    outer loop
      vertex  2.000000e+000 -2.625000e+000  4.546633e+000
      vertex  2.000000e+000 -6.540738e+000  6.540738e+000
      vertex  2.000000e+000 -8.545886e+000  3.539822e+000
    endloop
  endfacet
  facet normal  1.000000e+000  -0.000000e+000  0.000000e+000
    outer loop
      vertex  2.000000e+000 -2.625000e+000  4.546633e+000
      vertex  2.000000e+000 -8.545886e+000  3.539822e+000
      vertex  2.000000e+000 -4.546633e+000  2.625000e+000
    endloop
  endfacet
  facet normal  1.000000e+000  0.000000e+000  0.000000e+000
    outer loop
      vertex  2.000000e+000 -4.546633e+000  2.625000e+000
      vertex  2.000000e+000 -8.545886e+000  3.539822e+000
      vertex  2.000000e+000 -5.250000e+000  6.429183e-016
    endloop
  endfacet
  facet normal  1.000000e+000  0.000000e+000  0.000000e+000
    outer loop
      vertex  2.000000e+000 -5.250000e+000  6.429183e-016
      vertex  2.000000e+000 -8.545886e+000  3.539822e+000
      vertex  2.000000e+000 -9.250000e+000 -4.196310e-015
    endloop
  endfacet
  facet normal  1.000000e+000  -0.000000e+000  0.000000e+000
    outer loop
      vertex  2.000000e+000 -5.250000e+000  6.429183e-016
      vertex  2.000000e+000 -9.250000e+000 -4.196310e-015
      vertex  2.000000e+000 -4.546633e+000 -2.625000e+000
    endloop
  endfacet
  facet normal  1.000000e+000  0.000000e+000  0.000000e+000
    outer loop
      vertex  2.000000e+000 -4.546633e+000 -2.625000e+000
      vertex  2.000000e+000 -9.250000e+000 -4.196310e-015
      vertex  2.000000e+000 -8.545886e+000 -3.539822e+000
    endloop
  endfacet
  facet normal  1.000000e+000  -0.000000e+000  0.000000e+000
    outer loop
      vertex  2.000000e+000 -4.546633e+000 -2.625000e+000
      vertex  2.000000e+000 -8.545886e+000 -3.539822e+000
      vertex  2.000000e+000 -2.625000e+000 -4.546633e+000
    endloop
  endfacet
  facet normal  1.000000e+000  0.000000e+000  0.000000e+000
    outer loop
      vertex  2.000000e+000 -2.625000e+000 -4.546633e+000
      vertex  2.000000e+000 -8.545886e+000 -3.539822e+000
      vertex  2.000000e+000 -6.540738e+000 -6.540738e+000
    endloop
  endfacet
  facet normal  1.000000e+000  0.000000e+000  0.000000e+000
    outer loop
      vertex  2.000000e+000 -2.625000e+000 -4.546633e+000
      vertex  2.000000e+000 -6.540738e+000 -6.540738e+000
      vertex  2.000000e+000 -9.643775e-016 -5.250000e+000
    endloop
  endfacet
  facet normal  1.000000e+000  0.000000e+000  0.000000e+000
    outer loop
      vertex  2.000000e+000  3.539822e+000 -8.545886e+000
      vertex  2.000000e+000  6.540738e+000 -6.540738e+000
      vertex  2.000000e+000  3.270157e-016 -9.250000e+000
    endloop
  endfacet
  facet normal  1.000000e+000  0.000000e+000  -0.000000e+000
    outer loop
      vertex  2.000000e+000  3.270157e-016 -9.250000e+000
      vertex  2.000000e+000  6.540738e+000 -6.540738e+000
      vertex  2.000000e+000 -9.643775e-016 -5.250000e+000
    endloop
  endfacet
  facet normal  1.000000e+000  0.000000e+000  0.000000e+000
    outer loop
      vertex  2.000000e+000  3.270157e-016 -9.250000e+000
      vertex  2.000000e+000 -9.643775e-016 -5.250000e+000
      vertex  2.000000e+000 -3.539822e+000 -8.545886e+000
    endloop
  endfacet
  facet normal  1.000000e+000  0.000000e+000  -0.000000e+000
    outer loop
      vertex  2.000000e+000 -3.539822e+000 -8.545886e+000
      vertex  2.000000e+000 -9.643775e-016 -5.250000e+000
      vertex  2.000000e+000 -6.540738e+000 -6.540738e+000
    endloop
  endfacet
  facet normal  1.000000e+000  -0.000000e+000  0.000000e+000
    outer loop
      vertex  2.000000e+000  6.540738e+000  6.540738e+000
      vertex  2.000000e+000  3.214592e-016  5.250000e+000
      vertex  2.000000e+000  8.545886e+000  3.539822e+000
    endloop
  endfacet
  facet normal  1.000000e+000  0.000000e+000  0.000000e+000
    outer loop
      vertex  2.000000e+000  8.545886e+000  3.539822e+000
      vertex  2.000000e+000  3.214592e-016  5.250000e+000
      vertex  2.000000e+000  2.625000e+000  4.546633e+000
    endloop
  endfacet
  facet normal  1.000000e+000  0.000000e+000  0.000000e+000
    outer loop
      vertex  2.000000e+000  8.545886e+000  3.539822e+000
      vertex  2.000000e+000  2.625000e+000  4.546633e+000
      vertex  2.000000e+000  4.546633e+000  2.625000e+000
    endloop
  endfacet
  facet normal  1.000000e+000  -0.000000e+000  0.000000e+000
    outer loop
      vertex  2.000000e+000  8.545886e+000  3.539822e+000
      vertex  2.000000e+000  4.546633e+000  2.625000e+000
      vertex  2.000000e+000  9.250000e+000  6.616262e-015
    endloop
  endfacet
  facet normal  1.000000e+000  0.000000e+000  0.000000e+000
    outer loop
      vertex  2.000000e+000  9.250000e+000  6.616262e-015
      vertex  2.000000e+000  4.546633e+000  2.625000e+000
      vertex  2.000000e+000  5.250000e+000  0.000000e+000
    endloop
  endfacet
  facet normal  1.000000e+000  -0.000000e+000  0.000000e+000
    outer loop
      vertex  2.000000e+000  9.250000e+000  6.616262e-015
      vertex  2.000000e+000  5.250000e+000  0.000000e+000
      vertex  2.000000e+000  8.545886e+000 -3.539822e+000
    endloop
  endfacet
  facet normal  1.000000e+000  0.000000e+000  0.000000e+000
    outer loop
      vertex  2.000000e+000  8.545886e+000 -3.539822e+000
      vertex  2.000000e+000  5.250000e+000  0.000000e+000
      vertex  2.000000e+000  4.546633e+000 -2.625000e+000
    endloop
  endfacet
  facet normal  1.000000e+000  0.000000e+000  0.000000e+000
    outer loop
      vertex  2.000000e+000  8.545886e+000 -3.539822e+000
      vertex  2.000000e+000  4.546633e+000 -2.625000e+000
      vertex  2.000000e+000  6.540738e+000 -6.540738e+000
    endloop
  endfacet
  facet normal  1.000000e+000  0.000000e+000  0.000000e+000
    outer loop
      vertex  2.000000e+000  6.540738e+000 -6.540738e+000
      vertex  2.000000e+000  4.546633e+000 -2.625000e+000
      vertex  2.000000e+000  2.625000e+000 -4.546633e+000
    endloop
  endfacet
  facet normal  1.000000e+000  0.000000e+000  0.000000e+000
    outer loop
      vertex  2.000000e+000  6.540738e+000 -6.540738e+000
      vertex  2.000000e+000  2.625000e+000 -4.546633e+000
      vertex  2.000000e+000 -9.643775e-016 -5.250000e+000
    endloop
  endfacet
  facet normal -3.354272e-016  9.807853e-001 -1.950903e-001
    outer loop
      vertex  0.000000e+000  1.000000e+001  0.000000e+000
      vertex  1.424505e+000  1.000000e+001 -2.449213e-015
      vertex  0.000000e+000  9.238795e+000 -3.826834e+000
    endloop
  endfacet
  facet normal  0.000000e+000  9.807853e-001 -1.950903e-001
    outer loop
      vertex  0.000000e+000  9.238795e+000 -3.826834e+000
      vertex  1.424505e+000  1.000000e+001 -2.449213e-015
      vertex  1.424505e+000  9.238795e+000 -3.826834e+000
    endloop
  endfacet
  facet normal  0.000000e+000  8.314697e-001 -5.555702e-001
    outer loop
      vertex  0.000000e+000  9.238795e+000 -3.826834e+000
      vertex  1.424505e+000  9.238795e+000 -3.826834e+000
      vertex  0.000000e+000  7.071068e+000 -7.071068e+000
    endloop
  endfacet
  facet normal  0.000000e+000  8.314697e-001 -5.555702e-001
    outer loop
      vertex  0.000000e+000  7.071068e+000 -7.071068e+000
      vertex  1.424505e+000  9.238795e+000 -3.826834e+000
      vertex  1.424505e+000  7.071068e+000 -7.071068e+000
    endloop
  endfacet
  facet normal  0.000000e+000  5.555702e-001 -8.314697e-001
    outer loop
      vertex  0.000000e+000  7.071068e+000 -7.071068e+000
      vertex  1.424505e+000  7.071068e+000 -7.071068e+000
      vertex  0.000000e+000  3.826834e+000 -9.238795e+000
    endloop
  endfacet
  facet normal  0.000000e+000  5.555702e-001 -8.314697e-001
    outer loop
      vertex  0.000000e+000  3.826834e+000 -9.238795e+000
      vertex  1.424505e+000  7.071068e+000 -7.071068e+000
      vertex  1.424505e+000  3.826834e+000 -9.238795e+000
    endloop
  endfacet
  facet normal  0.000000e+000  1.950903e-001 -9.807853e-001
    outer loop
      vertex  0.000000e+000  3.826834e+000 -9.238795e+000
      vertex  1.424505e+000  3.826834e+000 -9.238795e+000
      vertex  0.000000e+000 -1.836910e-015 -1.000000e+001
    endloop
  endfacet
  facet normal  0.000000e+000  1.950903e-001 -9.807853e-001
    outer loop
      vertex  0.000000e+000 -1.836910e-015 -1.000000e+001
      vertex  1.424505e+000  3.826834e+000 -9.238795e+000
      vertex  1.424505e+000 -1.836910e-015 -1.000000e+001
    endloop
  endfacet
  facet normal  -0.000000e+000 -1.950903e-001 -9.807853e-001
    outer loop
      vertex  0.000000e+000 -1.836910e-015 -1.000000e+001
      vertex  1.424505e+000 -1.836910e-015 -1.000000e+001
      vertex  0.000000e+000 -3.826834e+000 -9.238795e+000
    endloop
  endfacet
  facet normal  0.000000e+000 -1.950903e-001 -9.807853e-001
    outer loop
      vertex  0.000000e+000 -3.826834e+000 -9.238795e+000
      vertex  1.424505e+000 -1.836910e-015 -1.000000e+001
      vertex  1.424505e+000 -3.826834e+000 -9.238795e+000
    endloop
  endfacet
  facet normal  -0.000000e+000 -5.555702e-001 -8.314697e-001
    outer loop
      vertex  0.000000e+000 -3.826834e+000 -9.238795e+000
      vertex  1.424505e+000 -3.826834e+000 -9.238795e+000
      vertex  0.000000e+000 -7.071068e+000 -7.071068e+000
    endloop
  endfacet
  facet normal  0.000000e+000 -5.555702e-001 -8.314697e-001
    outer loop
      vertex  0.000000e+000 -7.071068e+000 -7.071068e+000
      vertex  1.424505e+000 -3.826834e+000 -9.238795e+000
      vertex  1.424505e+000 -7.071068e+000 -7.071068e+000
    endloop
  endfacet
  facet normal  -0.000000e+000 -8.314697e-001 -5.555702e-001
    outer loop
      vertex  0.000000e+000 -7.071068e+000 -7.071068e+000
      vertex  1.424505e+000 -7.071068e+000 -7.071068e+000
      vertex  0.000000e+000 -9.238795e+000 -3.826834e+000
    endloop
  endfacet
  facet normal  0.000000e+000 -8.314697e-001 -5.555702e-001
    outer loop
      vertex  0.000000e+000 -9.238795e+000 -3.826834e+000
      vertex  1.424505e+000 -7.071068e+000 -7.071068e+000
      vertex  1.424505e+000 -9.238795e+000 -3.826834e+000
    endloop
  endfacet
  facet normal  -0.000000e+000 -9.807853e-001 -1.950903e-001
    outer loop
      vertex  0.000000e+000 -9.238795e+000 -3.826834e+000
      vertex  1.424505e+000 -9.238795e+000 -3.826834e+000
      vertex  0.000000e+000 -1.000000e+001  1.224606e-015
    endloop
  endfacet
  facet normal  0.000000e+000 -9.807853e-001 -1.950903e-001
    outer loop
      vertex  0.000000e+000 -1.000000e+001  1.224606e-015
      vertex  1.424505e+000 -9.238795e+000 -3.826834e+000
      vertex  1.424505e+000 -1.000000e+001  1.224606e-015
    endloop
  endfacet
  facet normal  0.000000e+000 -9.807853e-001  1.950903e-001
    outer loop
      vertex  0.000000e+000 -1.000000e+001  1.224606e-015
      vertex  1.424505e+000 -1.000000e+001  1.224606e-015
      vertex  0.000000e+000 -9.238795e+000  3.826834e+000
    endloop
  endfacet
  facet normal  0.000000e+000 -9.807853e-001  1.950903e-001
    outer loop
      vertex  0.000000e+000 -9.238795e+000  3.826834e+000
      vertex  1.424505e+000 -1.000000e+001  1.224606e-015
      vertex  1.424505e+000 -9.238795e+000  3.826834e+000
    endloop
  endfacet
  facet normal  0.000000e+000 -8.314697e-001  5.555702e-001
    outer loop
      vertex  0.000000e+000 -9.238795e+000  3.826834e+000
      vertex  1.424505e+000 -9.238795e+000  3.826834e+000
      vertex  0.000000e+000 -7.071068e+000  7.071068e+000
    endloop
  endfacet
  facet normal  0.000000e+000 -8.314697e-001  5.555702e-001
    outer loop
      vertex  0.000000e+000 -7.071068e+000  7.071068e+000
      vertex  1.424505e+000 -9.238795e+000  3.826834e+000
      vertex  1.424505e+000 -7.071068e+000  7.071068e+000
    endloop
  endfacet
  facet normal  0.000000e+000 -5.555702e-001  8.314697e-001
    outer loop
      vertex  0.000000e+000 -7.071068e+000  7.071068e+000
      vertex  1.424505e+000 -7.071068e+000  7.071068e+000
      vertex  0.000000e+000 -3.826834e+000  9.238795e+000
    endloop
  endfacet
  facet normal  0.000000e+000 -5.555702e-001  8.314697e-001
    outer loop
      vertex  0.000000e+000 -3.826834e+000  9.238795e+000
      vertex  1.424505e+000 -7.071068e+000  7.071068e+000
      vertex  1.424505e+000 -3.826834e+000  9.238795e+000
    endloop
  endfacet
  facet normal  0.000000e+000 -1.950903e-001  9.807853e-001
    outer loop
      vertex  0.000000e+000 -3.826834e+000  9.238795e+000
      vertex  1.424505e+000 -3.826834e+000  9.238795e+000
      vertex  0.000000e+000  6.123032e-016  1.000000e+001
    endloop
  endfacet
  facet normal  0.000000e+000 -1.950903e-001  9.807853e-001
    outer loop
      vertex  0.000000e+000  6.123032e-016  1.000000e+001
      vertex  1.424505e+000 -3.826834e+000  9.238795e+000
      vertex  1.424505e+000  6.123032e-016  1.000000e+001
    endloop
  endfacet
  facet normal  0.000000e+000  1.950903e-001  9.807853e-001
    outer loop
      vertex  0.000000e+000  6.123032e-016  1.000000e+001
      vertex  1.424505e+000  6.123032e-016  1.000000e+001
      vertex  0.000000e+000  3.826834e+000  9.238795e+000
    endloop
  endfacet
  facet normal  -0.000000e+000  1.950903e-001  9.807853e-001
    outer loop
      vertex  0.000000e+000  3.826834e+000  9.238795e+000
      vertex  1.424505e+000  6.123032e-016  1.000000e+001
      vertex  1.424505e+000  3.826834e+000  9.238795e+000
    endloop
  endfacet
  facet normal  0.000000e+000  5.555702e-001  8.314697e-001
    outer loop
      vertex  0.000000e+000  3.826834e+000  9.238795e+000
      vertex  1.424505e+000  3.826834e+000  9.238795e+000
      vertex  0.000000e+000  7.071068e+000  7.071068e+000
    endloop
  endfacet
  facet normal  -0.000000e+000  5.555702e-001  8.314697e-001
    outer loop
      vertex  0.000000e+000  7.071068e+000  7.071068e+000
      vertex  1.424505e+000  3.826834e+000  9.238795e+000
      vertex  1.424505e+000  7.071068e+000  7.071068e+000
    endloop
  endfacet
  facet normal  0.000000e+000  8.314697e-001  5.555702e-001
    outer loop
      vertex  0.000000e+000  7.071068e+000  7.071068e+000
      vertex  1.424505e+000  7.071068e+000  7.071068e+000
      vertex  0.000000e+000  9.238795e+000  3.826834e+000
    endloop
  endfacet
  facet normal  -0.000000e+000  8.314697e-001  5.555702e-001
    outer loop
      vertex  0.000000e+000  9.238795e+000  3.826834e+000
      vertex  1.424505e+000  7.071068e+000  7.071068e+000
      vertex  1.424505e+000  9.238795e+000  3.826834e+000
    endloop
  endfacet
  facet normal  0.000000e+000  9.807853e-001  1.950903e-001
    outer loop
      vertex  0.000000e+000  9.238795e+000  3.826834e+000
      vertex  1.424505e+000  9.238795e+000  3.826834e+000
      vertex  0.000000e+000  1.000000e+001  0.000000e+000
    endloop
  endfacet
  facet normal  3.354272e-016  9.807853e-001  1.950903e-001
    outer loop
      vertex  0.000000e+000  1.000000e+001  0.000000e+000
      vertex  1.424505e+000  9.238795e+000  3.826834e+000
      vertex  1.424505e+000  1.000000e+001 -2.449213e-015
    endloop
  endfacet
  facet normal  7.876000e-001 -1.202121e-001 -6.043471e-001
    outer loop
      vertex  1.424505e+000 -1.836910e-015 -1.000000e+001
      vertex  2.000000e+000 -3.539822e+000 -8.545886e+000
      vertex  1.424505e+000 -3.826834e+000 -9.238795e+000
    endloop
  endfacet
  facet normal  7.875999e-001 -3.423351e-001 -5.123406e-001
    outer loop
      vertex  1.424505e+000 -3.826834e+000 -9.238795e+000
      vertex  2.000000e+000 -3.539822e+000 -8.545886e+000
      vertex  2.000000e+000 -6.540738e+000 -6.540738e+000
    endloop
  endfacet
  facet normal  7.876003e-001 -3.423350e-001 -5.123405e-001
    outer loop
      vertex  1.424505e+000 -3.826834e+000 -9.238795e+000
      vertex  2.000000e+000 -6.540738e+000 -6.540738e+000
      vertex  1.424505e+000 -7.071068e+000 -7.071068e+000
    endloop
  endfacet
  facet normal  7.876002e-001 -5.123404e-001 -3.423350e-001
    outer loop
      vertex  1.424505e+000 -7.071068e+000 -7.071068e+000
      vertex  2.000000e+000 -6.540738e+000 -6.540738e+000
      vertex  2.000000e+000 -8.545886e+000 -3.539822e+000
    endloop
  endfacet
  facet normal  7.876000e-001 -5.123407e-001 -3.423351e-001
    outer loop
      vertex  1.424505e+000 -7.071068e+000 -7.071068e+000
      vertex  2.000000e+000 -8.545886e+000 -3.539822e+000
      vertex  1.424505e+000 -9.238795e+000 -3.826834e+000
    endloop
  endfacet
  facet normal  7.876000e-001 -6.043471e-001 -1.202120e-001
    outer loop
      vertex  1.424505e+000 -9.238795e+000 -3.826834e+000
      vertex  2.000000e+000 -8.545886e+000 -3.539822e+000
      vertex  2.000000e+000 -9.250000e+000 -4.196310e-015
    endloop
  endfacet
  facet normal  7.876002e-001 -6.043469e-001 -1.202121e-001
    outer loop
      vertex  1.424505e+000 -9.238795e+000 -3.826834e+000
      vertex  2.000000e+000 -9.250000e+000 -4.196310e-015
      vertex  1.424505e+000 -1.000000e+001  1.224606e-015
    endloop
  endfacet
  facet normal  7.876002e-001 -1.202120e-001 -6.043468e-001
    outer loop
      vertex  2.000000e+000 -3.539822e+000 -8.545886e+000
      vertex  1.424505e+000 -1.836910e-015 -1.000000e+001
      vertex  2.000000e+000  3.270157e-016 -9.250000e+000
    endloop
  endfacet
  facet normal  7.876002e-001  1.202121e-001 -6.043469e-001
    outer loop
      vertex  2.000000e+000  3.270157e-016 -9.250000e+000
      vertex  1.424505e+000 -1.836910e-015 -1.000000e+001
      vertex  1.424505e+000  3.826834e+000 -9.238795e+000
    endloop
  endfacet
  facet normal  7.876000e-001  1.202120e-001 -6.043471e-001
    outer loop
      vertex  2.000000e+000  3.270157e-016 -9.250000e+000
      vertex  1.424505e+000  3.826834e+000 -9.238795e+000
      vertex  2.000000e+000  3.539822e+000 -8.545886e+000
    endloop
  endfacet
  facet normal  7.876000e-001  3.423351e-001 -5.123407e-001
    outer loop
      vertex  2.000000e+000  3.539822e+000 -8.545886e+000
      vertex  1.424505e+000  3.826834e+000 -9.238795e+000
      vertex  1.424505e+000  7.071068e+000 -7.071068e+000
    endloop
  endfacet
  facet normal  7.876002e-001  3.423350e-001 -5.123404e-001
    outer loop
      vertex  2.000000e+000  3.539822e+000 -8.545886e+000
      vertex  1.424505e+000  7.071068e+000 -7.071068e+000
      vertex  2.000000e+000  6.540738e+000 -6.540738e+000
    endloop
  endfacet
  facet normal  7.876003e-001  5.123405e-001 -3.423350e-001
    outer loop
      vertex  2.000000e+000  6.540738e+000 -6.540738e+000
      vertex  1.424505e+000  7.071068e+000 -7.071068e+000
      vertex  1.424505e+000  9.238795e+000 -3.826834e+000
    endloop
  endfacet
  facet normal  7.875999e-001  5.123406e-001 -3.423351e-001
    outer loop
      vertex  2.000000e+000  6.540738e+000 -6.540738e+000
      vertex  1.424505e+000  9.238795e+000 -3.826834e+000
      vertex  2.000000e+000  8.545886e+000 -3.539822e+000
    endloop
  endfacet
  facet normal  7.876000e-001  6.043471e-001 -1.202121e-001
    outer loop
      vertex  2.000000e+000  8.545886e+000 -3.539822e+000
      vertex  1.424505e+000  9.238795e+000 -3.826834e+000
      vertex  1.424505e+000  1.000000e+001 -2.449213e-015
    endloop
  endfacet
  facet normal  7.876002e-001  6.043468e-001 -1.202120e-001
    outer loop
      vertex  2.000000e+000  8.545886e+000 -3.539822e+000
      vertex  1.424505e+000  1.000000e+001 -2.449213e-015
      vertex  2.000000e+000  9.250000e+000  6.616262e-015
    endloop
  endfacet
  facet normal  7.876000e-001  1.202121e-001  6.043471e-001
    outer loop
      vertex  1.424505e+000  6.123032e-016  1.000000e+001
      vertex  2.000000e+000  3.539822e+000  8.545886e+000
      vertex  1.424505e+000  3.826834e+000  9.238795e+000
    endloop
  endfacet
  facet normal  7.875999e-001  3.423351e-001  5.123406e-001
    outer loop
      vertex  1.424505e+000  3.826834e+000  9.238795e+000
      vertex  2.000000e+000  3.539822e+000  8.545886e+000
      vertex  2.000000e+000  6.540738e+000  6.540738e+000
    endloop
  endfacet
  facet normal  7.876003e-001  3.423350e-001  5.123405e-001
    outer loop
      vertex  1.424505e+000  3.826834e+000  9.238795e+000
      vertex  2.000000e+000  6.540738e+000  6.540738e+000
      vertex  1.424505e+000  7.071068e+000  7.071068e+000
    endloop
  endfacet
  facet normal  7.876002e-001  5.123404e-001  3.423350e-001
    outer loop
      vertex  1.424505e+000  7.071068e+000  7.071068e+000
      vertex  2.000000e+000  6.540738e+000  6.540738e+000
      vertex  2.000000e+000  8.545886e+000  3.539822e+000
    endloop
  endfacet
  facet normal  7.876000e-001  5.123407e-001  3.423351e-001
    outer loop
      vertex  1.424505e+000  7.071068e+000  7.071068e+000
      vertex  2.000000e+000  8.545886e+000  3.539822e+000
      vertex  1.424505e+000  9.238795e+000  3.826834e+000
    endloop
  endfacet
  facet normal  7.876000e-001  6.043471e-001  1.202120e-001
    outer loop
      vertex  1.424505e+000  9.238795e+000  3.826834e+000
      vertex  2.000000e+000  8.545886e+000  3.539822e+000
      vertex  2.000000e+000  9.250000e+000  6.616262e-015
    endloop
  endfacet
  facet normal  7.876002e-001  6.043469e-001  1.202121e-001
    outer loop
      vertex  1.424505e+000  9.238795e+000  3.826834e+000
      vertex  2.000000e+000  9.250000e+000  6.616262e-015
      vertex  1.424505e+000  1.000000e+001 -2.449213e-015
    endloop
  endfacet
  facet normal  7.876002e-001  1.202120e-001  6.043468e-001
    outer loop
      vertex  2.000000e+000  3.539822e+000  8.545886e+000
      vertex  1.424505e+000  6.123032e-016  1.000000e+001
      vertex  2.000000e+000 -1.320999e-015  9.250000e+000
    endloop
  endfacet
  facet normal  7.876002e-001 -1.202121e-001  6.043469e-001
    outer loop
      vertex  2.000000e+000 -1.320999e-015  9.250000e+000
      vertex  1.424505e+000  6.123032e-016  1.000000e+001
      vertex  1.424505e+000 -3.826834e+000  9.238795e+000
    endloop
  endfacet
  facet normal  7.876000e-001 -1.202120e-001  6.043471e-001
    outer loop
      vertex  2.000000e+000 -1.320999e-015  9.250000e+000
      vertex  1.424505e+000 -3.826834e+000  9.238795e+000
      vertex  2.000000e+000 -3.539822e+000  8.545886e+000
    endloop
  endfacet
  facet normal  7.876000e-001 -3.423351e-001  5.123407e-001
    outer loop
      vertex  2.000000e+000 -3.539822e+000  8.545886e+000
      vertex  1.424505e+000 -3.826834e+000  9.238795e+000
      vertex  1.424505e+000 -7.071068e+000  7.071068e+000
    endloop
  endfacet
  facet normal  7.876002e-001 -3.423350e-001  5.123404e-001
    outer loop
      vertex  2.000000e+000 -3.539822e+000  8.545886e+000
      vertex  1.424505e+000 -7.071068e+000  7.071068e+000
      vertex  2.000000e+000 -6.540738e+000  6.540738e+000
    endloop
  endfacet
  facet normal  7.876003e-001 -5.123405e-001  3.423350e-001
    outer loop
      vertex  2.000000e+000 -6.540738e+000  6.540738e+000
      vertex  1.424505e+000 -7.071068e+000  7.071068e+000
      vertex  1.424505e+000 -9.238795e+000  3.826834e+000
    endloop
  endfacet
  facet normal  7.875999e-001 -5.123406e-001  3.423351e-001
    outer loop
      vertex  2.000000e+000 -6.540738e+000  6.540738e+000
      vertex  1.424505e+000 -9.238795e+000  3.826834e+000
      vertex  2.000000e+000 -8.545886e+000  3.539822e+000
    endloop
  endfacet
  facet normal  7.876000e-001 -6.043471e-001  1.202121e-001
    outer loop
      vertex  2.000000e+000 -8.545886e+000  3.539822e+000
      vertex  1.424505e+000 -9.238795e+000  3.826834e+000
      vertex  1.424505e+000 -1.000000e+001  1.224606e-015
    endloop
  endfacet
  facet normal  7.876002e-001 -6.043468e-001  1.202120e-001
    outer loop
      vertex  2.000000e+000 -8.545886e+000  3.539822e+000
      vertex  1.424505e+000 -1.000000e+001  1.224606e-015
      vertex  2.000000e+000 -9.250000e+000 -4.196310e-015
    endloop
  endfacet
  facet normal -1.000000e+000  0.000000e+000  0.000000e+000
    outer loop
      vertex  0.000000e+000  7.071068e+000  7.071068e+000
      vertex  0.000000e+000  3.214592e-016  5.250000e+000
      vertex  0.000000e+000  3.826834e+000  9.238795e+000
    endloop
  endfacet
  facet normal -1.000000e+000  -0.000000e+000  0.000000e+000
    outer loop
      vertex  0.000000e+000  3.826834e+000  9.238795e+000
      vertex  0.000000e+000  3.214592e-016  5.250000e+000
      vertex  0.000000e+000  6.123032e-016  1.000000e+001
    endloop
  endfacet
  facet normal -1.000000e+000  0.000000e+000  0.000000e+000
    outer loop
      vertex  0.000000e+000  3.214592e-016  5.250000e+000
      vertex  0.000000e+000 -7.071068e+000  7.071068e+000
      vertex  0.000000e+000  6.123032e-016  1.000000e+001
    endloop
  endfacet
  facet normal -1.000000e+000  0.000000e+000  0.000000e+000
    outer loop
      vertex  0.000000e+000  6.123032e-016  1.000000e+001
      vertex  0.000000e+000 -7.071068e+000  7.071068e+000
      vertex  0.000000e+000 -3.826834e+000  9.238795e+000
    endloop
  endfacet
  facet normal -1.000000e+000  0.000000e+000  0.000000e+000
    outer loop
      vertex  0.000000e+000 -5.250000e+000  6.429183e-016
      vertex  0.000000e+000 -1.000000e+001  1.224606e-015
      vertex  0.000000e+000 -4.546633e+000  2.625000e+000
    endloop
  endfacet
  facet normal -1.000000e+000  -0.000000e+000  0.000000e+000
    outer loop
      vertex  0.000000e+000 -4.546633e+000  2.625000e+000
      vertex  0.000000e+000 -1.000000e+001  1.224606e-015
      vertex  0.000000e+000 -9.238795e+000  3.826834e+000
    endloop
  endfacet
  facet normal -1.000000e+000  0.000000e+000  0.000000e+000
    outer loop
      vertex  0.000000e+000 -4.546633e+000  2.625000e+000
      vertex  0.000000e+000 -9.238795e+000  3.826834e+000
      vertex  0.000000e+000 -2.625000e+000  4.546633e+000
    endloop
  endfacet
  facet normal -1.000000e+000  -0.000000e+000  0.000000e+000
    outer loop
      vertex  0.000000e+000 -2.625000e+000  4.546633e+000
      vertex  0.000000e+000 -9.238795e+000  3.826834e+000
      vertex  0.000000e+000 -7.071068e+000  7.071068e+000
    endloop
  endfacet
  facet normal -1.000000e+000  0.000000e+000  0.000000e+000
    outer loop
      vertex  0.000000e+000 -2.625000e+000  4.546633e+000
      vertex  0.000000e+000 -7.071068e+000  7.071068e+000
      vertex  0.000000e+000  3.214592e-016  5.250000e+000
    endloop
  endfacet
  facet normal -1.000000e+000  0.000000e+000  0.000000e+000
    outer loop
      vertex  0.000000e+000 -2.625000e+000 -4.546633e+000
      vertex  0.000000e+000 -9.238795e+000 -3.826834e+000
      vertex  0.000000e+000 -4.546633e+000 -2.625000e+000
    endloop
  endfacet
  facet normal -1.000000e+000  -0.000000e+000  0.000000e+000
    outer loop
      vertex  0.000000e+000 -4.546633e+000 -2.625000e+000
      vertex  0.000000e+000 -9.238795e+000 -3.826834e+000
      vertex  0.000000e+000 -1.000000e+001  1.224606e-015
    endloop
  endfacet
  facet normal -1.000000e+000  0.000000e+000  0.000000e+000
    outer loop
      vertex  0.000000e+000 -4.546633e+000 -2.625000e+000
      vertex  0.000000e+000 -1.000000e+001  1.224606e-015
      vertex  0.000000e+000 -5.250000e+000  6.429183e-016
    endloop
  endfacet
  facet normal -1.000000e+000  0.000000e+000  0.000000e+000
    outer loop
      vertex  0.000000e+000 -2.625000e+000 -4.546633e+000
      vertex  0.000000e+000 -9.643775e-016 -5.250000e+000
      vertex  0.000000e+000 -9.238795e+000 -3.826834e+000
    endloop
  endfacet
  facet normal -1.000000e+000  0.000000e+000  0.000000e+000
    outer loop
      vertex  0.000000e+000 -9.238795e+000 -3.826834e+000
      vertex  0.000000e+000 -9.643775e-016 -5.250000e+000
      vertex  0.000000e+000 -7.071068e+000 -7.071068e+000
    endloop
  endfacet
  facet normal -1.000000e+000  0.000000e+000  0.000000e+000
    outer loop
      vertex  0.000000e+000 -9.643775e-016 -5.250000e+000
      vertex  0.000000e+000 -1.836910e-015 -1.000000e+001
      vertex  0.000000e+000 -7.071068e+000 -7.071068e+000
    endloop
  endfacet
  facet normal -1.000000e+000  0.000000e+000  0.000000e+000
    outer loop
      vertex  0.000000e+000 -7.071068e+000 -7.071068e+000
      vertex  0.000000e+000 -1.836910e-015 -1.000000e+001
      vertex  0.000000e+000 -3.826834e+000 -9.238795e+000
    endloop
  endfacet
  facet normal -1.000000e+000  0.000000e+000  0.000000e+000
    outer loop
      vertex  0.000000e+000  5.250000e+000  0.000000e+000
      vertex  0.000000e+000  4.546633e+000  2.625000e+000
      vertex  0.000000e+000  1.000000e+001  0.000000e+000
    endloop
  endfacet
  facet normal -1.000000e+000  0.000000e+000  0.000000e+000
    outer loop
      vertex  0.000000e+000  1.000000e+001  0.000000e+000
      vertex  0.000000e+000  4.546633e+000  2.625000e+000
      vertex  0.000000e+000  2.625000e+000  4.546633e+000
    endloop
  endfacet
  facet normal -1.000000e+000  0.000000e+000  0.000000e+000
    outer loop
      vertex  0.000000e+000  1.000000e+001  0.000000e+000
      vertex  0.000000e+000  2.625000e+000  4.546633e+000
      vertex  0.000000e+000  9.238795e+000  3.826834e+000
    endloop
  endfacet
  facet normal -1.000000e+000  0.000000e+000  0.000000e+000
    outer loop
      vertex  0.000000e+000  9.238795e+000  3.826834e+000
      vertex  0.000000e+000  2.625000e+000  4.546633e+000
      vertex  0.000000e+000  3.214592e-016  5.250000e+000
    endloop
  endfacet
  facet normal -1.000000e+000  0.000000e+000  0.000000e+000
    outer loop
      vertex  0.000000e+000  9.238795e+000  3.826834e+000
      vertex  0.000000e+000  3.214592e-016  5.250000e+000
      vertex  0.000000e+000  7.071068e+000  7.071068e+000
    endloop
  endfacet
  facet normal -1.000000e+000  0.000000e+000  -0.000000e+000
    outer loop
      vertex  0.000000e+000  2.625000e+000 -4.546633e+000
      vertex  0.000000e+000  4.546633e+000 -2.625000e+000
      vertex  0.000000e+000  9.238795e+000 -3.826834e+000
    endloop
  endfacet
  facet normal -1.000000e+000  0.000000e+000  0.000000e+000
    outer loop
      vertex  0.000000e+000  9.238795e+000 -3.826834e+000
      vertex  0.000000e+000  4.546633e+000 -2.625000e+000
      vertex  0.000000e+000  5.250000e+000  0.000000e+000
    endloop
  endfacet
  facet normal -1.000000e+000  0.000000e+000  0.000000e+000
    outer loop
      vertex  0.000000e+000  9.238795e+000 -3.826834e+000
      vertex  0.000000e+000  5.250000e+000  0.000000e+000
      vertex  0.000000e+000  1.000000e+001  0.000000e+000
    endloop
  endfacet
  facet normal -1.000000e+000  0.000000e+000  0.000000e+000
    outer loop
      vertex  0.000000e+000  9.238795e+000 -3.826834e+000
      vertex  0.000000e+000  7.071068e+000 -7.071068e+000
      vertex  0.000000e+000  2.625000e+000 -4.546633e+000
    endloop
  endfacet
  facet normal -1.000000e+000  0.000000e+000  -0.000000e+000
    outer loop
      vertex  0.000000e+000  2.625000e+000 -4.546633e+000
      vertex  0.000000e+000  7.071068e+000 -7.071068e+000
      vertex  0.000000e+000 -9.643775e-016 -5.250000e+000
    endloop
  endfacet
  facet normal -1.000000e+000  0.000000e+000  0.000000e+000
    outer loop
      vertex  0.000000e+000  7.071068e+000 -7.071068e+000
      vertex  0.000000e+000  3.826834e+000 -9.238795e+000
      vertex  0.000000e+000 -9.643775e-016 -5.250000e+000
    endloop
  endfacet
  facet normal -1.000000e+000  0.000000e+000  -0.000000e+000
    outer loop
      vertex  0.000000e+000 -9.643775e-016 -5.250000e+000
      vertex  0.000000e+000  3.826834e+000 -9.238795e+000
      vertex  0.000000e+000 -1.836910e-015 -1.000000e+001
    endloop
  endfacet
  facet normal  0.000000e+000  2.588191e-001 -9.659258e-001
    outer loop
      vertex  0.000000e+000  3.214592e-016  5.250000e+000
      vertex  2.000000e+000 -2.625000e+000  4.546633e+000
      vertex  0.000000e+000 -2.625000e+000  4.546633e+000
    endloop
  endfacet
  facet normal  0.000000e+000  7.071068e-001 -7.071068e-001
    outer loop
      vertex  0.000000e+000 -2.625000e+000  4.546633e+000
      vertex  2.000000e+000 -2.625000e+000  4.546633e+000
      vertex  2.000000e+000 -4.546633e+000  2.625000e+000
    endloop
  endfacet
  facet normal  0.000000e+000  7.071068e-001 -7.071068e-001
    outer loop
      vertex  0.000000e+000 -2.625000e+000  4.546633e+000
      vertex  2.000000e+000 -4.546633e+000  2.625000e+000
      vertex  0.000000e+000 -4.546633e+000  2.625000e+000
    endloop
  endfacet
  facet normal  0.000000e+000  9.659258e-001 -2.588191e-001
    outer loop
      vertex  0.000000e+000 -4.546633e+000  2.625000e+000
      vertex  2.000000e+000 -4.546633e+000  2.625000e+000
      vertex  2.000000e+000 -5.250000e+000  6.429183e-016
    endloop
  endfacet
  facet normal  0.000000e+000  9.659258e-001 -2.588191e-001
    outer loop
      vertex  0.000000e+000 -4.546633e+000  2.625000e+000
      vertex  2.000000e+000 -5.250000e+000  6.429183e-016
      vertex  0.000000e+000 -5.250000e+000  6.429183e-016
    endloop
  endfacet
  facet normal  0.000000e+000  2.588191e-001 -9.659258e-001
    outer loop
      vertex  2.000000e+000 -2.625000e+000  4.546633e+000
      vertex  0.000000e+000  3.214592e-016  5.250000e+000
      vertex  2.000000e+000  3.214592e-016  5.250000e+000
    endloop
  endfacet
  facet normal  -0.000000e+000 -2.588191e-001 -9.659258e-001
    outer loop
      vertex  2.000000e+000  3.214592e-016  5.250000e+000
      vertex  0.000000e+000  3.214592e-016  5.250000e+000
      vertex  0.000000e+000  2.625000e+000  4.546633e+000
    endloop
  endfacet
  facet normal  0.000000e+000 -2.588191e-001 -9.659258e-001
    outer loop
      vertex  2.000000e+000  3.214592e-016  5.250000e+000
      vertex  0.000000e+000  2.625000e+000  4.546633e+000
      vertex  2.000000e+000  2.625000e+000  4.546633e+000
    endloop
  endfacet
  facet normal  -0.000000e+000 -7.071068e-001 -7.071068e-001
    outer loop
      vertex  2.000000e+000  2.625000e+000  4.546633e+000
      vertex  0.000000e+000  2.625000e+000  4.546633e+000
      vertex  0.000000e+000  4.546633e+000  2.625000e+000
    endloop
  endfacet
  facet normal  0.000000e+000 -7.071068e-001 -7.071068e-001
    outer loop
      vertex  2.000000e+000  2.625000e+000  4.546633e+000
      vertex  0.000000e+000  4.546633e+000  2.625000e+000
      vertex  2.000000e+000  4.546633e+000  2.625000e+000
    endloop
  endfacet
  facet normal  -0.000000e+000 -9.659258e-001 -2.588191e-001
    outer loop
      vertex  2.000000e+000  4.546633e+000  2.625000e+000
      vertex  0.000000e+000  4.546633e+000  2.625000e+000
      vertex  0.000000e+000  5.250000e+000  0.000000e+000
    endloop
  endfacet
  facet normal  0.000000e+000 -9.659258e-001 -2.588191e-001
    outer loop
      vertex  2.000000e+000  4.546633e+000  2.625000e+000
      vertex  0.000000e+000  5.250000e+000  0.000000e+000
      vertex  2.000000e+000  5.250000e+000  0.000000e+000
    endloop
  endfacet
  facet normal  0.000000e+000 -2.588191e-001  9.659258e-001
    outer loop
      vertex  0.000000e+000 -9.643775e-016 -5.250000e+000
      vertex  2.000000e+000  2.625000e+000 -4.546633e+000
      vertex  0.000000e+000  2.625000e+000 -4.546633e+000
    endloop
  endfacet
  facet normal  0.000000e+000 -7.071068e-001  7.071068e-001
    outer loop
      vertex  0.000000e+000  2.625000e+000 -4.546633e+000
      vertex  2.000000e+000  2.625000e+000 -4.546633e+000
      vertex  2.000000e+000  4.546633e+000 -2.625000e+000
    endloop
  endfacet
  facet normal  0.000000e+000 -7.071068e-001  7.071068e-001
    outer loop
      vertex  0.000000e+000  2.625000e+000 -4.546633e+000
      vertex  2.000000e+000  4.546633e+000 -2.625000e+000
      vertex  0.000000e+000  4.546633e+000 -2.625000e+000
    endloop
  endfacet
  facet normal  0.000000e+000 -9.659258e-001  2.588191e-001
    outer loop
      vertex  0.000000e+000  4.546633e+000 -2.625000e+000
      vertex  2.000000e+000  4.546633e+000 -2.625000e+000
      vertex  2.000000e+000  5.250000e+000  0.000000e+000
    endloop
  endfacet
  facet normal  0.000000e+000 -9.659258e-001  2.588191e-001
    outer loop
      vertex  0.000000e+000  4.546633e+000 -2.625000e+000
      vertex  2.000000e+000  5.250000e+000  0.000000e+000
      vertex  0.000000e+000  5.250000e+000  0.000000e+000
    endloop
  endfacet
  facet normal  0.000000e+000 -2.588191e-001  9.659258e-001
    outer loop
      vertex  2.000000e+000  2.625000e+000 -4.546633e+000
      vertex  0.000000e+000 -9.643775e-016 -5.250000e+000
      vertex  2.000000e+000 -9.643775e-016 -5.250000e+000
    endloop
  endfacet
  facet normal  0.000000e+000  2.588191e-001  9.659258e-001
    outer loop
      vertex  2.000000e+000 -9.643775e-016 -5.250000e+000
      vertex  0.000000e+000 -9.643775e-016 -5.250000e+000
      vertex  0.000000e+000 -2.625000e+000 -4.546633e+000
    endloop
  endfacet
  facet normal  -0.000000e+000  2.588191e-001  9.659258e-001
    outer loop
      vertex  2.000000e+000 -9.643775e-016 -5.250000e+000
      vertex  0.000000e+000 -2.625000e+000 -4.546633e+000
      vertex  2.000000e+000 -2.625000e+000 -4.546633e+000
    endloop
  endfacet
  facet normal  0.000000e+000  7.071068e-001  7.071068e-001
    outer loop
      vertex  2.000000e+000 -2.625000e+000 -4.546633e+000
      vertex  0.000000e+000 -2.625000e+000 -4.546633e+000
      vertex  0.000000e+000 -4.546633e+000 -2.625000e+000
    endloop
  endfacet
  facet normal  -0.000000e+000  7.071068e-001  7.071068e-001
    outer loop
      vertex  2.000000e+000 -2.625000e+000 -4.546633e+000
      vertex  0.000000e+000 -4.546633e+000 -2.625000e+000
      vertex  2.000000e+000 -4.546633e+000 -2.625000e+000
    endloop
  endfacet
  facet normal  0.000000e+000  9.659258e-001  2.588191e-001
    outer loop
      vertex  2.000000e+000 -4.546633e+000 -2.625000e+000
      vertex  0.000000e+000 -4.546633e+000 -2.625000e+000
      vertex  0.000000e+000 -5.250000e+000  6.429183e-016
    endloop
  endfacet
  facet normal  -0.000000e+000  9.659258e-001  2.588191e-001
    outer loop
      vertex  2.000000e+000 -4.546633e+000 -2.625000e+000
      vertex  0.000000e+000 -5.250000e+000  6.429183e-016
      vertex  2.000000e+000 -5.250000e+000  6.429183e-016
    endloop
  endfacet
endsolid CATIA STL
