solid CATIA STL
  facet normal  0.000000e+000 -3.826835e-001  9.238796e-001
    outer loop
      vertex  0.000000e+000 -1.404433e-015 -1.621000e+000
      vertex  5.000000e+000  1.146220e+000 -1.146220e+000
      vertex  0.000000e+000  1.146220e+000 -1.146220e+000
    endloop
  endfacet
  facet normal  0.000000e+000 -9.238796e-001  3.826835e-001
    outer loop
      vertex  0.000000e+000  1.146220e+000 -1.146220e+000
      vertex  5.000000e+000  1.146220e+000 -1.146220e+000
      vertex  5.000000e+000  1.621000e+000  0.000000e+000
    endloop
  endfacet
  facet normal  0.000000e+000 -9.238796e-001  3.826835e-001
    outer loop
      vertex  0.000000e+000  1.146220e+000 -1.146220e+000
      vertex  5.000000e+000  1.621000e+000  0.000000e+000
      vertex  0.000000e+000  1.621000e+000  0.000000e+000
    endloop
  endfacet
  facet normal  0.000000e+000 -3.826835e-001  9.238796e-001
    outer loop
      vertex  5.000000e+000  1.146220e+000 -1.146220e+000
      vertex  0.000000e+000 -1.404433e-015 -1.621000e+000
      vertex  5.000000e+000 -1.404433e-015 -1.621000e+000
    endloop
  endfacet
  facet normal  0.000000e+000  3.826835e-001  9.238796e-001
    outer loop
      vertex  5.000000e+000 -1.404433e-015 -1.621000e+000
      vertex  0.000000e+000 -1.404433e-015 -1.621000e+000
      vertex  0.000000e+000 -1.146220e+000 -1.146220e+000
    endloop
  endfacet
  facet normal  -0.000000e+000  3.826835e-001  9.238796e-001
    outer loop
      vertex  5.000000e+000 -1.404433e-015 -1.621000e+000
      vertex  0.000000e+000 -1.146220e+000 -1.146220e+000
      vertex  5.000000e+000 -1.146220e+000 -1.146220e+000
    endloop
  endfacet
  facet normal  0.000000e+000  9.238796e-001  3.826835e-001
    outer loop
      vertex  5.000000e+000 -1.146220e+000 -1.146220e+000
      vertex  0.000000e+000 -1.146220e+000 -1.146220e+000
      vertex  0.000000e+000 -1.621000e+000  1.985087e-016
    endloop
  endfacet
  facet normal  -0.000000e+000  9.238796e-001  3.826835e-001
    outer loop
      vertex  5.000000e+000 -1.146220e+000 -1.146220e+000
      vertex  0.000000e+000 -1.621000e+000  1.985087e-016
      vertex  5.000000e+000 -1.621000e+000  1.985087e-016
    endloop
  endfacet
  facet normal  0.000000e+000  3.826835e-001 -9.238796e-001
    outer loop
      vertex  0.000000e+000 -2.050136e-015  1.621000e+000
      vertex  5.000000e+000 -1.146220e+000  1.146220e+000
      vertex  0.000000e+000 -1.146220e+000  1.146220e+000
    endloop
  endfacet
  facet normal  0.000000e+000  9.238796e-001 -3.826835e-001
    outer loop
      vertex  0.000000e+000 -1.146220e+000  1.146220e+000
      vertex  5.000000e+000 -1.146220e+000  1.146220e+000
      vertex  5.000000e+000 -1.621000e+000  1.985087e-016
    endloop
  endfacet
  facet normal  0.000000e+000  9.238796e-001 -3.826835e-001
    outer loop
      vertex  0.000000e+000 -1.146220e+000  1.146220e+000
      vertex  5.000000e+000 -1.621000e+000  1.985087e-016
      vertex  0.000000e+000 -1.621000e+000  1.985087e-016
    endloop
  endfacet
  facet normal  0.000000e+000  3.826835e-001 -9.238796e-001
    outer loop
      vertex  5.000000e+000 -1.146220e+000  1.146220e+000
      vertex  0.000000e+000 -2.050136e-015  1.621000e+000
      vertex  5.000000e+000 -2.050136e-015  1.621000e+000
    endloop
  endfacet
  facet normal  -0.000000e+000 -3.826835e-001 -9.238796e-001
    outer loop
      vertex  5.000000e+000 -2.050136e-015  1.621000e+000
      vertex  0.000000e+000 -2.050136e-015  1.621000e+000
      vertex  0.000000e+000  1.146220e+000  1.146220e+000
    endloop
  endfacet
  facet normal  0.000000e+000 -3.826835e-001 -9.238796e-001
    outer loop
      vertex  5.000000e+000 -2.050136e-015  1.621000e+000
      vertex  0.000000e+000  1.146220e+000  1.146220e+000
      vertex  5.000000e+000  1.146220e+000  1.146220e+000
    endloop
  endfacet
  facet normal  -0.000000e+000 -9.238796e-001 -3.826835e-001
    outer loop
      vertex  5.000000e+000  1.146220e+000  1.146220e+000
      vertex  0.000000e+000  1.146220e+000  1.146220e+000
      vertex  0.000000e+000  1.621000e+000  0.000000e+000
    endloop
  endfacet
  facet normal  0.000000e+000 -9.238796e-001 -3.826835e-001
    outer loop
      vertex  5.000000e+000  1.146220e+000  1.146220e+000
      vertex  0.000000e+000  1.621000e+000  0.000000e+000
      vertex  5.000000e+000  1.621000e+000  0.000000e+000
    endloop
  endfacet
  facet normal -8.625515e-001  3.865360e-001  3.264886e-001
    outer loop
      vertex  0.000000e+000  3.074390e+000  1.775000e+000
      vertex  2.775558e-017  2.264174e+000  2.734230e+000
      vertex  2.837399e-001  3.500000e+000  2.020726e+000
    endloop
  endfacet
  facet normal -8.625515e-001  4.760154e-001  1.715058e-001
    outer loop
      vertex  4.655455e-011  3.500000e+000  5.937171e-001
      vertex  0.000000e+000  3.074390e+000  1.775000e+000
      vertex  2.837399e-001  3.500000e+000  2.020726e+000
    endloop
  endfacet
  facet normal -8.625515e-001  8.947935e-002 -4.979942e-001
    outer loop
      vertex  0.000000e+000  2.500930e-015 -3.550000e+000
      vertex  5.551115e-017  1.235826e+000 -3.327947e+000
      vertex  2.837399e-001  9.534608e-015 -4.041452e+000
    endloop
  endfacet
  facet normal -8.625515e-001 -8.947935e-002 -4.979942e-001
    outer loop
      vertex -1.387779e-017 -1.235826e+000 -3.327947e+000
      vertex  0.000000e+000  2.500930e-015 -3.550000e+000
      vertex  2.837399e-001  9.534608e-015 -4.041452e+000
    endloop
  endfacet
  facet normal -8.625515e-001  4.760154e-001 -1.715058e-001
    outer loop
      vertex  0.000000e+000  3.074390e+000 -1.775000e+000
      vertex  6.938894e-017  3.500000e+000 -5.937171e-001
      vertex  2.837399e-001  3.500000e+000 -2.020726e+000
    endloop
  endfacet
  facet normal -8.625515e-001  3.865360e-001 -3.264886e-001
    outer loop
      vertex  4.163336e-017  2.264174e+000 -2.734230e+000
      vertex  0.000000e+000  3.074390e+000 -1.775000e+000
      vertex  2.837399e-001  3.500000e+000 -2.020726e+000
    endloop
  endfacet
  facet normal -8.625515e-001 -3.865360e-001 -3.264886e-001
    outer loop
      vertex  0.000000e+000 -3.074390e+000 -1.775000e+000
      vertex  1.387779e-017 -2.264174e+000 -2.734230e+000
      vertex  2.837399e-001 -3.500000e+000 -2.020726e+000
    endloop
  endfacet
  facet normal -8.625515e-001 -4.760154e-001 -1.715058e-001
    outer loop
      vertex  4.655454e-011 -3.500000e+000 -5.937171e-001
      vertex  0.000000e+000 -3.074390e+000 -1.775000e+000
      vertex  2.837399e-001 -3.500000e+000 -2.020726e+000
    endloop
  endfacet
  facet normal -8.625515e-001 -8.947935e-002  4.979942e-001
    outer loop
      vertex  0.000000e+000  8.888210e-015  3.550000e+000
      vertex  4.655451e-011 -1.235826e+000  3.327947e+000
      vertex  2.837399e-001 -3.365185e-015  4.041452e+000
    endloop
  endfacet
  facet normal -8.625515e-001  8.947935e-002  4.979942e-001
    outer loop
      vertex  1.387779e-017  1.235826e+000  3.327947e+000
      vertex  0.000000e+000  8.888210e-015  3.550000e+000
      vertex  2.837399e-001 -3.365185e-015  4.041452e+000
    endloop
  endfacet
  facet normal -8.625515e-001 -4.760154e-001  1.715058e-001
    outer loop
      vertex  0.000000e+000 -3.074390e+000  1.775000e+000
      vertex  2.775558e-017 -3.500000e+000  5.937171e-001
      vertex  2.837399e-001 -3.500000e+000  2.020726e+000
    endloop
  endfacet
  facet normal -8.625515e-001 -3.865360e-001  3.264886e-001
    outer loop
      vertex  0.000000e+000 -2.264174e+000  2.734230e+000
      vertex  0.000000e+000 -3.074390e+000  1.775000e+000
      vertex  2.837399e-001 -3.500000e+000  2.020726e+000
    endloop
  endfacet
  facet normal  8.625515e-001  3.865361e-001  3.264886e-001
    outer loop
      vertex  1.666260e+000  3.500000e+000  2.020726e+000
      vertex  1.950000e+000  2.264174e+000  2.734230e+000
      vertex  1.950000e+000  3.074390e+000  1.775000e+000
    endloop
  endfacet
  facet normal  8.625515e-001  4.760155e-001  1.715058e-001
    outer loop
      vertex  1.666260e+000  3.500000e+000  2.020726e+000
      vertex  1.950000e+000  3.074390e+000  1.775000e+000
      vertex  1.950000e+000  3.500000e+000  5.937171e-001
    endloop
  endfacet
  facet normal  8.625515e-001  8.947936e-002 -4.979943e-001
    outer loop
      vertex  1.666260e+000  9.534608e-015 -4.041452e+000
      vertex  1.950000e+000  1.235826e+000 -3.327947e+000
      vertex  1.950000e+000  2.500930e-015 -3.550000e+000
    endloop
  endfacet
  facet normal  8.625515e-001 -8.947936e-002 -4.979943e-001
    outer loop
      vertex  1.666260e+000  9.534608e-015 -4.041452e+000
      vertex  1.950000e+000  2.500930e-015 -3.550000e+000
      vertex  1.950000e+000 -1.235826e+000 -3.327947e+000
    endloop
  endfacet
  facet normal  8.625515e-001  4.760155e-001 -1.715058e-001
    outer loop
      vertex  1.666260e+000  3.500000e+000 -2.020726e+000
      vertex  1.950000e+000  3.500000e+000 -5.937171e-001
      vertex  1.950000e+000  3.074390e+000 -1.775000e+000
    endloop
  endfacet
  facet normal  8.625515e-001  3.865361e-001 -3.264886e-001
    outer loop
      vertex  1.666260e+000  3.500000e+000 -2.020726e+000
      vertex  1.950000e+000  3.074390e+000 -1.775000e+000
      vertex  1.950000e+000  2.264174e+000 -2.734230e+000
    endloop
  endfacet
  facet normal  8.625515e-001 -3.865361e-001 -3.264886e-001
    outer loop
      vertex  1.666260e+000 -3.500000e+000 -2.020726e+000
      vertex  1.950000e+000 -2.264174e+000 -2.734230e+000
      vertex  1.950000e+000 -3.074390e+000 -1.775000e+000
    endloop
  endfacet
  facet normal  8.625515e-001 -4.760155e-001 -1.715058e-001
    outer loop
      vertex  1.666260e+000 -3.500000e+000 -2.020726e+000
      vertex  1.950000e+000 -3.074390e+000 -1.775000e+000
      vertex  1.950000e+000 -3.500000e+000 -5.937171e-001
    endloop
  endfacet
  facet normal  8.625515e-001 -8.947936e-002  4.979943e-001
    outer loop
      vertex  1.666260e+000 -3.365185e-015  4.041452e+000
      vertex  1.950000e+000 -1.235826e+000  3.327947e+000
      vertex  1.950000e+000  4.946918e-015  3.550000e+000
    endloop
  endfacet
  facet normal  8.625515e-001  8.947936e-002  4.979943e-001
    outer loop
      vertex  1.666260e+000 -3.365185e-015  4.041452e+000
      vertex  1.950000e+000  4.946918e-015  3.550000e+000
      vertex  1.950000e+000  1.235826e+000  3.327947e+000
    endloop
  endfacet
  facet normal  8.625515e-001 -4.760155e-001  1.715058e-001
    outer loop
      vertex  1.666260e+000 -3.500000e+000  2.020726e+000
      vertex  1.950000e+000 -3.500000e+000  5.937171e-001
      vertex  1.950000e+000 -3.074390e+000  1.775000e+000
    endloop
  endfacet
  facet normal  8.625515e-001 -3.865361e-001  3.264886e-001
    outer loop
      vertex  1.666260e+000 -3.500000e+000  2.020726e+000
      vertex  1.950000e+000 -3.074390e+000  1.775000e+000
      vertex  1.950000e+000 -2.264174e+000  2.734230e+000
    endloop
  endfacet
  facet normal -1.000000e+000 -2.721349e-017  6.569917e-017
    outer loop
      vertex  0.000000e+000 -2.050136e-015  1.621000e+000
      vertex  0.000000e+000 -1.146220e+000  1.146220e+000
      vertex  2.775558e-017 -3.500000e+000  5.937171e-001
    endloop
  endfacet
  facet normal -1.000000e+000 -1.156085e-018 -2.307960e-017
    outer loop
      vertex  0.000000e+000 -2.050136e-015  1.621000e+000
      vertex  2.775558e-017 -3.500000e+000  5.937171e-001
      vertex  0.000000e+000 -3.074390e+000  1.775000e+000
    endloop
  endfacet
  facet normal -1.000000e+000  0.000000e+000  0.000000e+000
    outer loop
      vertex  0.000000e+000 -2.050136e-015  1.621000e+000
      vertex  0.000000e+000 -3.074390e+000  1.775000e+000
      vertex  0.000000e+000 -2.264174e+000  2.734230e+000
    endloop
  endfacet
  facet normal -1.000000e+000  2.082141e-011  4.234820e-011
    outer loop
      vertex  0.000000e+000 -2.050136e-015  1.621000e+000
      vertex  0.000000e+000 -2.264174e+000  2.734230e+000
      vertex  4.655451e-011 -1.235826e+000  3.327947e+000
    endloop
  endfacet
  facet normal -1.000000e+000 -3.767077e-011  0.000000e+000
    outer loop
      vertex  0.000000e+000 -2.050136e-015  1.621000e+000
      vertex  4.655451e-011 -1.235826e+000  3.327947e+000
      vertex  0.000000e+000  8.888210e-015  3.550000e+000
    endloop
  endfacet
  facet normal -1.000000e+000  1.122957e-017 -6.367697e-032
    outer loop
      vertex  0.000000e+000 -2.050136e-015  1.621000e+000
      vertex  0.000000e+000  8.888210e-015  3.550000e+000
      vertex  1.387779e-017  1.235826e+000  3.327947e+000
    endloop
  endfacet
  facet normal -1.000000e+000  1.282735e-017 -1.156792e-018
    outer loop
      vertex  0.000000e+000 -2.050136e-015  1.621000e+000
      vertex  1.387779e-017  1.235826e+000  3.327947e+000
      vertex  2.775558e-017  2.264174e+000  2.734230e+000
    endloop
  endfacet
  facet normal -1.000000e+000 -1.390568e-018  2.776071e-017
    outer loop
      vertex  0.000000e+000 -2.050136e-015  1.621000e+000
      vertex  2.775558e-017  2.264174e+000  2.734230e+000
      vertex  0.000000e+000  3.074390e+000  1.775000e+000
    endloop
  endfacet
  facet normal -1.000000e+000  1.939107e-012 -3.871152e-011
    outer loop
      vertex  0.000000e+000 -2.050136e-015  1.621000e+000
      vertex  0.000000e+000  3.074390e+000  1.775000e+000
      vertex  4.655455e-011  3.500000e+000  5.937171e-001
    endloop
  endfacet
  facet normal -1.000000e+000  4.564531e-011  1.101975e-010
    outer loop
      vertex  0.000000e+000 -2.050136e-015  1.621000e+000
      vertex  4.655455e-011  3.500000e+000  5.937171e-001
      vertex  0.000000e+000  1.146220e+000  1.146220e+000
    endloop
  endfacet
  facet normal -1.000000e+000  2.849850e-017  9.610968e-017
    outer loop
      vertex  0.000000e+000  2.500930e-015 -3.550000e+000
      vertex -1.387779e-017 -1.235826e+000 -3.327947e+000
      vertex  1.387779e-017 -2.264174e+000 -2.734230e+000
    endloop
  endfacet
  facet normal -1.000000e+000 -1.630342e-017 -2.823835e-017
    outer loop
      vertex  0.000000e+000  2.500930e-015 -3.550000e+000
      vertex  1.387779e-017 -2.264174e+000 -2.734230e+000
      vertex  0.000000e+000 -3.074390e+000 -1.775000e+000
    endloop
  endfacet
  facet normal -1.000000e+000  0.000000e+000  0.000000e+000
    outer loop
      vertex  0.000000e+000  2.500930e-015 -3.550000e+000
      vertex  0.000000e+000 -3.074390e+000 -1.775000e+000
      vertex  0.000000e+000 -1.404433e-015 -1.621000e+000
    endloop
  endfacet
  facet normal -1.000000e+000  0.000000e+000  0.000000e+000
    outer loop
      vertex  0.000000e+000  2.500930e-015 -3.550000e+000
      vertex  0.000000e+000 -1.404433e-015 -1.621000e+000
      vertex  0.000000e+000  3.074390e+000 -1.775000e+000
    endloop
  endfacet
  facet normal -1.000000e+000  4.891026e-017 -8.471506e-017
    outer loop
      vertex  0.000000e+000  2.500930e-015 -3.550000e+000
      vertex  0.000000e+000  3.074390e+000 -1.775000e+000
      vertex  4.163336e-017  2.264174e+000 -2.734230e+000
    endloop
  endfacet
  facet normal -1.000000e+000  7.131121e-017 -1.468890e-016
    outer loop
      vertex  0.000000e+000  2.500930e-015 -3.550000e+000
      vertex  4.163336e-017  2.264174e+000 -2.734230e+000
      vertex  5.551115e-017  1.235826e+000 -3.327947e+000
    endloop
  endfacet
  facet normal -1.000000e+000 -2.190878e-011 -9.074914e-012
    outer loop
      vertex  0.000000e+000 -1.146220e+000 -1.146220e+000
      vertex  4.655454e-011 -3.500000e+000 -5.937171e-001
      vertex  0.000000e+000 -1.621000e+000  1.985087e-016
    endloop
  endfacet
  facet normal -1.000000e+000 -1.238812e-011 -3.920597e-011
    outer loop
      vertex  0.000000e+000 -1.621000e+000  1.985087e-016
      vertex  4.655454e-011 -3.500000e+000 -5.937171e-001
      vertex  2.775558e-017 -3.500000e+000  5.937171e-001
    endloop
  endfacet
  facet normal -1.000000e+000 -1.306190e-017  5.410417e-018
    outer loop
      vertex  0.000000e+000 -1.621000e+000  1.985087e-016
      vertex  2.775558e-017 -3.500000e+000  5.937171e-001
      vertex  0.000000e+000 -1.146220e+000  1.146220e+000
    endloop
  endfacet
  facet normal -1.000000e+000 -1.939106e-012  3.871151e-011
    outer loop
      vertex  0.000000e+000 -3.074390e+000 -1.775000e+000
      vertex  4.655454e-011 -3.500000e+000 -5.937171e-001
      vertex  0.000000e+000 -1.404433e-015 -1.621000e+000
    endloop
  endfacet
  facet normal -1.000000e+000 -4.564529e-011 -1.101975e-010
    outer loop
      vertex  0.000000e+000 -1.404433e-015 -1.621000e+000
      vertex  4.655454e-011 -3.500000e+000 -5.937171e-001
      vertex  0.000000e+000 -1.146220e+000 -1.146220e+000
    endloop
  endfacet
  facet normal -1.000000e+000  3.265476e-017 -1.352605e-017
    outer loop
      vertex  0.000000e+000  1.146220e+000 -1.146220e+000
      vertex  0.000000e+000  1.621000e+000  0.000000e+000
      vertex  6.938894e-017  3.500000e+000 -5.937171e-001
    endloop
  endfacet
  facet normal -1.000000e+000  4.248976e-017  1.759983e-017
    outer loop
      vertex  6.938894e-017  3.500000e+000 -5.937171e-001
      vertex  0.000000e+000  1.621000e+000  0.000000e+000
      vertex  0.000000e+000  1.146220e+000  1.146220e+000
    endloop
  endfacet
  facet normal -9.999999e-001  2.898145e-011  3.920595e-011
    outer loop
      vertex  6.938894e-017  3.500000e+000 -5.937171e-001
      vertex  0.000000e+000  1.146220e+000  1.146220e+000
      vertex  4.655455e-011  3.500000e+000  5.937171e-001
    endloop
  endfacet
  facet normal -1.000000e+000  6.803374e-017 -1.642480e-016
    outer loop
      vertex  0.000000e+000  1.146220e+000 -1.146220e+000
      vertex  6.938894e-017  3.500000e+000 -5.937171e-001
      vertex  0.000000e+000 -1.404433e-015 -1.621000e+000
    endloop
  endfacet
  facet normal -1.000000e+000  2.890213e-018  5.769900e-017
    outer loop
      vertex  0.000000e+000 -1.404433e-015 -1.621000e+000
      vertex  6.938894e-017  3.500000e+000 -5.937171e-001
      vertex  0.000000e+000  3.074390e+000 -1.775000e+000
    endloop
  endfacet
  facet normal  0.000000e+000  5.000001e-001  8.660253e-001
    outer loop
      vertex  2.837399e-001 -3.365185e-015  4.041452e+000
      vertex  1.666260e+000 -3.365185e-015  4.041452e+000
      vertex  1.387779e-017  1.235826e+000  3.327947e+000
    endloop
  endfacet
  facet normal  -0.000000e+000  5.000001e-001  8.660254e-001
    outer loop
      vertex  1.387779e-017  1.235826e+000  3.327947e+000
      vertex  1.666260e+000 -3.365185e-015  4.041452e+000
      vertex  1.950000e+000  1.235826e+000  3.327947e+000
    endloop
  endfacet
  facet normal  0.000000e+000  5.000000e-001  8.660253e-001
    outer loop
      vertex  1.387779e-017  1.235826e+000  3.327947e+000
      vertex  1.950000e+000  1.235826e+000  3.327947e+000
      vertex  2.775558e-017  2.264174e+000  2.734230e+000
    endloop
  endfacet
  facet normal -3.056648e-008  4.999999e-001  8.660253e-001
    outer loop
      vertex  2.775558e-017  2.264174e+000  2.734230e+000
      vertex  1.950000e+000  1.235826e+000  3.327947e+000
      vertex  1.950000e+000  1.750000e+000  3.031089e+000
    endloop
  endfacet
  facet normal  0.000000e+000  5.000001e-001  8.660253e-001
    outer loop
      vertex  2.775558e-017  2.264174e+000  2.734230e+000
      vertex  1.950000e+000  1.750000e+000  3.031089e+000
      vertex  1.950000e+000  2.264174e+000  2.734230e+000
    endloop
  endfacet
  facet normal  -0.000000e+000  4.999999e-001  8.660254e-001
    outer loop
      vertex  1.666260e+000  3.500000e+000  2.020726e+000
      vertex  2.837399e-001  3.500000e+000  2.020726e+000
      vertex  1.950000e+000  2.264174e+000  2.734230e+000
    endloop
  endfacet
  facet normal  0.000000e+000  4.999999e-001  8.660255e-001
    outer loop
      vertex  1.950000e+000  2.264174e+000  2.734230e+000
      vertex  2.837399e-001  3.500000e+000  2.020726e+000
      vertex  2.775558e-017  2.264174e+000  2.734230e+000
    endloop
  endfacet
  facet normal  0.000000e+000 -4.999999e-001  8.660254e-001
    outer loop
      vertex  2.837399e-001 -3.500000e+000  2.020726e+000
      vertex  1.666260e+000 -3.500000e+000  2.020726e+000
      vertex  0.000000e+000 -2.264174e+000  2.734230e+000
    endloop
  endfacet
  facet normal  0.000000e+000 -4.999999e-001  8.660255e-001
    outer loop
      vertex  0.000000e+000 -2.264174e+000  2.734230e+000
      vertex  1.666260e+000 -3.500000e+000  2.020726e+000
      vertex  1.950000e+000 -2.264174e+000  2.734230e+000
    endloop
  endfacet
  facet normal  0.000000e+000 -5.000000e-001  8.660253e-001
    outer loop
      vertex  0.000000e+000 -2.264174e+000  2.734230e+000
      vertex  1.950000e+000 -2.264174e+000  2.734230e+000
      vertex  4.655451e-011 -1.235826e+000  3.327947e+000
    endloop
  endfacet
  facet normal -3.056649e-008 -5.000001e-001  8.660253e-001
    outer loop
      vertex  4.655451e-011 -1.235826e+000  3.327947e+000
      vertex  1.950000e+000 -2.264174e+000  2.734230e+000
      vertex  1.950000e+000 -1.750000e+000  3.031089e+000
    endloop
  endfacet
  facet normal  0.000000e+000 -4.999999e-001  8.660253e-001
    outer loop
      vertex  4.655451e-011 -1.235826e+000  3.327947e+000
      vertex  1.950000e+000 -1.750000e+000  3.031089e+000
      vertex  1.950000e+000 -1.235826e+000  3.327947e+000
    endloop
  endfacet
  facet normal  0.000000e+000 -5.000001e-001  8.660253e-001
    outer loop
      vertex  1.666260e+000 -3.365185e-015  4.041452e+000
      vertex  2.837399e-001 -3.365185e-015  4.041452e+000
      vertex  1.950000e+000 -1.235826e+000  3.327947e+000
    endloop
  endfacet
  facet normal  0.000000e+000 -5.000001e-001  8.660254e-001
    outer loop
      vertex  1.950000e+000 -1.235826e+000  3.327947e+000
      vertex  2.837399e-001 -3.365185e-015  4.041452e+000
      vertex  4.655451e-011 -1.235826e+000  3.327947e+000
    endloop
  endfacet
  facet normal  0.000000e+000 -9.999999e-001  0.000000e+000
    outer loop
      vertex  2.837399e-001 -3.500000e+000 -2.020726e+000
      vertex  1.666260e+000 -3.500000e+000 -2.020726e+000
      vertex  4.655454e-011 -3.500000e+000 -5.937171e-001
    endloop
  endfacet
  facet normal  0.000000e+000 -1.000000e+000  0.000000e+000
    outer loop
      vertex  4.655454e-011 -3.500000e+000 -5.937171e-001
      vertex  1.666260e+000 -3.500000e+000 -2.020726e+000
      vertex  1.950000e+000 -3.500000e+000 -5.937171e-001
    endloop
  endfacet
  facet normal  0.000000e+000 -1.000000e+000  0.000000e+000
    outer loop
      vertex  4.655454e-011 -3.500000e+000 -5.937171e-001
      vertex  1.950000e+000 -3.500000e+000 -5.937171e-001
      vertex  2.775558e-017 -3.500000e+000  5.937171e-001
    endloop
  endfacet
  facet normal  0.000000e+000 -1.000000e+000  0.000000e+000
    outer loop
      vertex  2.775558e-017 -3.500000e+000  5.937171e-001
      vertex  1.950000e+000 -3.500000e+000 -5.937171e-001
      vertex  1.950000e+000 -3.500000e+000  4.440892e-016
    endloop
  endfacet
  facet normal  0.000000e+000 -1.000000e+000  0.000000e+000
    outer loop
      vertex  2.775558e-017 -3.500000e+000  5.937171e-001
      vertex  1.950000e+000 -3.500000e+000  4.440892e-016
      vertex  1.950000e+000 -3.500000e+000  5.937171e-001
    endloop
  endfacet
  facet normal  0.000000e+000 -9.999999e-001  0.000000e+000
    outer loop
      vertex  1.666260e+000 -3.500000e+000  2.020726e+000
      vertex  2.837399e-001 -3.500000e+000  2.020726e+000
      vertex  1.950000e+000 -3.500000e+000  5.937171e-001
    endloop
  endfacet
  facet normal  0.000000e+000 -1.000000e+000  0.000000e+000
    outer loop
      vertex  1.950000e+000 -3.500000e+000  5.937171e-001
      vertex  2.837399e-001 -3.500000e+000  2.020726e+000
      vertex  2.775558e-017 -3.500000e+000  5.937171e-001
    endloop
  endfacet
  facet normal  -0.000000e+000 -5.000001e-001 -8.660253e-001
    outer loop
      vertex  2.837399e-001  9.534608e-015 -4.041452e+000
      vertex  1.666260e+000  9.534608e-015 -4.041452e+000
      vertex -1.387779e-017 -1.235826e+000 -3.327947e+000
    endloop
  endfacet
  facet normal  0.000000e+000 -5.000001e-001 -8.660254e-001
    outer loop
      vertex -1.387779e-017 -1.235826e+000 -3.327947e+000
      vertex  1.666260e+000  9.534608e-015 -4.041452e+000
      vertex  1.950000e+000 -1.235826e+000 -3.327947e+000
    endloop
  endfacet
  facet normal  -0.000000e+000 -5.000000e-001 -8.660253e-001
    outer loop
      vertex -1.387779e-017 -1.235826e+000 -3.327947e+000
      vertex  1.950000e+000 -1.235826e+000 -3.327947e+000
      vertex  1.387779e-017 -2.264174e+000 -2.734230e+000
    endloop
  endfacet
  facet normal -3.056648e-008 -4.999999e-001 -8.660253e-001
    outer loop
      vertex  1.387779e-017 -2.264174e+000 -2.734230e+000
      vertex  1.950000e+000 -1.235826e+000 -3.327947e+000
      vertex  1.950000e+000 -1.750000e+000 -3.031089e+000
    endloop
  endfacet
  facet normal  0.000000e+000 -5.000001e-001 -8.660253e-001
    outer loop
      vertex  1.387779e-017 -2.264174e+000 -2.734230e+000
      vertex  1.950000e+000 -1.750000e+000 -3.031089e+000
      vertex  1.950000e+000 -2.264174e+000 -2.734230e+000
    endloop
  endfacet
  facet normal  0.000000e+000 -4.999999e-001 -8.660254e-001
    outer loop
      vertex  1.666260e+000 -3.500000e+000 -2.020726e+000
      vertex  2.837399e-001 -3.500000e+000 -2.020726e+000
      vertex  1.950000e+000 -2.264174e+000 -2.734230e+000
    endloop
  endfacet
  facet normal  -0.000000e+000 -4.999999e-001 -8.660255e-001
    outer loop
      vertex  1.950000e+000 -2.264174e+000 -2.734230e+000
      vertex  2.837399e-001 -3.500000e+000 -2.020726e+000
      vertex  1.387779e-017 -2.264174e+000 -2.734230e+000
    endloop
  endfacet
  facet normal  0.000000e+000  4.999999e-001 -8.660254e-001
    outer loop
      vertex  2.837399e-001  3.500000e+000 -2.020726e+000
      vertex  1.666260e+000  3.500000e+000 -2.020726e+000
      vertex  4.163336e-017  2.264174e+000 -2.734230e+000
    endloop
  endfacet
  facet normal  0.000000e+000  4.999999e-001 -8.660255e-001
    outer loop
      vertex  4.163336e-017  2.264174e+000 -2.734230e+000
      vertex  1.666260e+000  3.500000e+000 -2.020726e+000
      vertex  1.950000e+000  2.264174e+000 -2.734230e+000
    endloop
  endfacet
  facet normal  0.000000e+000  5.000000e-001 -8.660253e-001
    outer loop
      vertex  4.163336e-017  2.264174e+000 -2.734230e+000
      vertex  1.950000e+000  2.264174e+000 -2.734230e+000
      vertex  5.551115e-017  1.235826e+000 -3.327947e+000
    endloop
  endfacet
  facet normal -3.056649e-008  5.000001e-001 -8.660253e-001
    outer loop
      vertex  5.551115e-017  1.235826e+000 -3.327947e+000
      vertex  1.950000e+000  2.264174e+000 -2.734230e+000
      vertex  1.950000e+000  1.750000e+000 -3.031089e+000
    endloop
  endfacet
  facet normal  0.000000e+000  4.999999e-001 -8.660253e-001
    outer loop
      vertex  5.551115e-017  1.235826e+000 -3.327947e+000
      vertex  1.950000e+000  1.750000e+000 -3.031089e+000
      vertex  1.950000e+000  1.235826e+000 -3.327947e+000
    endloop
  endfacet
  facet normal  0.000000e+000  5.000001e-001 -8.660253e-001
    outer loop
      vertex  1.666260e+000  9.534608e-015 -4.041452e+000
      vertex  2.837399e-001  9.534608e-015 -4.041452e+000
      vertex  1.950000e+000  1.235826e+000 -3.327947e+000
    endloop
  endfacet
  facet normal  0.000000e+000  5.000001e-001 -8.660254e-001
    outer loop
      vertex  1.950000e+000  1.235826e+000 -3.327947e+000
      vertex  2.837399e-001  9.534608e-015 -4.041452e+000
      vertex  5.551115e-017  1.235826e+000 -3.327947e+000
    endloop
  endfacet
  facet normal  0.000000e+000  9.999999e-001  0.000000e+000
    outer loop
      vertex  2.837399e-001  3.500000e+000  2.020726e+000
      vertex  1.666260e+000  3.500000e+000  2.020726e+000
      vertex  4.655455e-011  3.500000e+000  5.937171e-001
    endloop
  endfacet
  facet normal  0.000000e+000  1.000000e+000  0.000000e+000
    outer loop
      vertex  4.655455e-011  3.500000e+000  5.937171e-001
      vertex  1.666260e+000  3.500000e+000  2.020726e+000
      vertex  1.950000e+000  3.500000e+000  5.937171e-001
    endloop
  endfacet
  facet normal  0.000000e+000  1.000000e+000  0.000000e+000
    outer loop
      vertex  4.655455e-011  3.500000e+000  5.937171e-001
      vertex  1.950000e+000  3.500000e+000  5.937171e-001
      vertex  6.938894e-017  3.500000e+000 -5.937171e-001
    endloop
  endfacet
  facet normal  0.000000e+000  1.000000e+000  0.000000e+000
    outer loop
      vertex  6.938894e-017  3.500000e+000 -5.937171e-001
      vertex  1.950000e+000  3.500000e+000  5.937171e-001
      vertex  1.950000e+000  3.500000e+000 -1.079269e-015
    endloop
  endfacet
  facet normal  0.000000e+000  1.000000e+000  0.000000e+000
    outer loop
      vertex  6.938894e-017  3.500000e+000 -5.937171e-001
      vertex  1.950000e+000  3.500000e+000 -1.079269e-015
      vertex  1.950000e+000  3.500000e+000 -5.937171e-001
    endloop
  endfacet
  facet normal  0.000000e+000  9.999999e-001  0.000000e+000
    outer loop
      vertex  1.666260e+000  3.500000e+000 -2.020726e+000
      vertex  2.837399e-001  3.500000e+000 -2.020726e+000
      vertex  1.950000e+000  3.500000e+000 -5.937171e-001
    endloop
  endfacet
  facet normal  0.000000e+000  1.000000e+000  0.000000e+000
    outer loop
      vertex  1.950000e+000  3.500000e+000 -5.937171e-001
      vertex  2.837399e-001  3.500000e+000 -2.020726e+000
      vertex  6.938894e-017  3.500000e+000 -5.937171e-001
    endloop
  endfacet
  facet normal  1.000000e+000  -0.000000e+000  0.000000e+000
    outer loop
      vertex  1.950000e+000 -1.750000e+000  3.031089e+000
      vertex  1.950000e+000 -2.264174e+000  2.734230e+000
      vertex  1.950000e+000 -3.031089e+000  1.750000e+000
    endloop
  endfacet
  facet normal  1.000000e+000  0.000000e+000  -0.000000e+000
    outer loop
      vertex  1.950000e+000 -3.031089e+000  1.750000e+000
      vertex  1.950000e+000 -2.264174e+000  2.734230e+000
      vertex  1.950000e+000 -3.074390e+000  1.775000e+000
    endloop
  endfacet
  facet normal  1.000000e+000  0.000000e+000  0.000000e+000
    outer loop
      vertex  1.950000e+000 -3.031089e+000  1.750000e+000
      vertex  1.950000e+000 -3.074390e+000  1.775000e+000
      vertex  1.950000e+000 -3.500000e+000  4.440892e-016
    endloop
  endfacet
  facet normal  1.000000e+000  0.000000e+000  0.000000e+000
    outer loop
      vertex  1.950000e+000 -3.500000e+000  4.440892e-016
      vertex  1.950000e+000 -3.074390e+000  1.775000e+000
      vertex  1.950000e+000 -3.500000e+000  5.937171e-001
    endloop
  endfacet
  facet normal  1.000000e+000  0.000000e+000  0.000000e+000
    outer loop
      vertex  1.950000e+000  2.264174e+000  2.734230e+000
      vertex  1.950000e+000  1.750000e+000  3.031089e+000
      vertex  1.950000e+000  3.074390e+000  1.775000e+000
    endloop
  endfacet
  facet normal  1.000000e+000  0.000000e+000  0.000000e+000
    outer loop
      vertex  1.950000e+000  3.074390e+000  1.775000e+000
      vertex  1.950000e+000  1.750000e+000  3.031089e+000
      vertex  1.950000e+000  3.031089e+000  1.750000e+000
    endloop
  endfacet
  facet normal  1.000000e+000  -0.000000e+000  0.000000e+000
    outer loop
      vertex  1.950000e+000  3.074390e+000  1.775000e+000
      vertex  1.950000e+000  3.031089e+000  1.750000e+000
      vertex  1.950000e+000  3.500000e+000  5.937171e-001
    endloop
  endfacet
  facet normal  1.000000e+000  0.000000e+000  0.000000e+000
    outer loop
      vertex  1.950000e+000  3.500000e+000  5.937171e-001
      vertex  1.950000e+000  3.031089e+000  1.750000e+000
      vertex  1.950000e+000  3.500000e+000 -1.079269e-015
    endloop
  endfacet
  facet normal  1.000000e+000  0.000000e+000  0.000000e+000
    outer loop
      vertex  1.950000e+000  3.500000e+000 -5.937171e-001
      vertex  1.950000e+000  3.500000e+000 -1.079269e-015
      vertex  1.950000e+000  3.074390e+000 -1.775000e+000
    endloop
  endfacet
  facet normal  1.000000e+000  0.000000e+000  -0.000000e+000
    outer loop
      vertex  1.950000e+000  3.074390e+000 -1.775000e+000
      vertex  1.950000e+000  3.500000e+000 -1.079269e-015
      vertex  1.950000e+000  3.031089e+000 -1.750000e+000
    endloop
  endfacet
  facet normal  1.000000e+000  0.000000e+000  0.000000e+000
    outer loop
      vertex  1.950000e+000  3.074390e+000 -1.775000e+000
      vertex  1.950000e+000  3.031089e+000 -1.750000e+000
      vertex  1.950000e+000  2.264174e+000 -2.734230e+000
    endloop
  endfacet
  facet normal  1.000000e+000  0.000000e+000  -0.000000e+000
    outer loop
      vertex  1.950000e+000  2.264174e+000 -2.734230e+000
      vertex  1.950000e+000  3.031089e+000 -1.750000e+000
      vertex  1.950000e+000  1.750000e+000 -3.031089e+000
    endloop
  endfacet
  facet normal  1.000000e+000  0.000000e+000  0.000000e+000
    outer loop
      vertex  1.950000e+000  1.235826e+000 -3.327947e+000
      vertex  1.950000e+000  1.750000e+000 -3.031089e+000
      vertex  1.950000e+000  2.500930e-015 -3.550000e+000
    endloop
  endfacet
  facet normal  1.000000e+000  0.000000e+000  -0.000000e+000
    outer loop
      vertex  1.950000e+000  2.500930e-015 -3.550000e+000
      vertex  1.950000e+000  1.750000e+000 -3.031089e+000
      vertex  1.950000e+000 -1.087008e-015 -3.500000e+000
    endloop
  endfacet
  facet normal  1.000000e+000  0.000000e+000  0.000000e+000
    outer loop
      vertex  1.950000e+000  2.500930e-015 -3.550000e+000
      vertex  1.950000e+000 -1.087008e-015 -3.500000e+000
      vertex  1.950000e+000 -1.235826e+000 -3.327947e+000
    endloop
  endfacet
  facet normal  1.000000e+000  -0.000000e+000  -0.000000e+000
    outer loop
      vertex  1.950000e+000 -1.235826e+000 -3.327947e+000
      vertex  1.950000e+000 -1.087008e-015 -3.500000e+000
      vertex  1.950000e+000 -1.750000e+000 -3.031089e+000
    endloop
  endfacet
  facet normal  1.000000e+000  -0.000000e+000  0.000000e+000
    outer loop
      vertex  1.950000e+000 -3.500000e+000  4.440892e-016
      vertex  1.950000e+000 -3.500000e+000 -5.937171e-001
      vertex  1.950000e+000 -3.031089e+000 -1.750000e+000
    endloop
  endfacet
  facet normal  1.000000e+000  0.000000e+000  0.000000e+000
    outer loop
      vertex  1.950000e+000 -3.031089e+000 -1.750000e+000
      vertex  1.950000e+000 -3.500000e+000 -5.937171e-001
      vertex  1.950000e+000 -3.074390e+000 -1.775000e+000
    endloop
  endfacet
  facet normal  1.000000e+000  -0.000000e+000  0.000000e+000
    outer loop
      vertex  1.950000e+000 -3.031089e+000 -1.750000e+000
      vertex  1.950000e+000 -3.074390e+000 -1.775000e+000
      vertex  1.950000e+000 -1.750000e+000 -3.031089e+000
    endloop
  endfacet
  facet normal  1.000000e+000  0.000000e+000  0.000000e+000
    outer loop
      vertex  1.950000e+000 -1.750000e+000 -3.031089e+000
      vertex  1.950000e+000 -3.074390e+000 -1.775000e+000
      vertex  1.950000e+000 -2.264174e+000 -2.734230e+000
    endloop
  endfacet
  facet normal  1.000000e+000  0.000000e+000  0.000000e+000
    outer loop
      vertex  1.950000e+000  1.750000e+000  3.031089e+000
      vertex  1.950000e+000  1.235826e+000  3.327947e+000
      vertex  1.950000e+000  1.324529e-015  3.500000e+000
    endloop
  endfacet
  facet normal  1.000000e+000  -0.000000e+000  0.000000e+000
    outer loop
      vertex  1.950000e+000  1.324529e-015  3.500000e+000
      vertex  1.950000e+000  1.235826e+000  3.327947e+000
      vertex  1.950000e+000  4.946918e-015  3.550000e+000
    endloop
  endfacet
  facet normal  1.000000e+000  0.000000e+000  0.000000e+000
    outer loop
      vertex  1.950000e+000  1.324529e-015  3.500000e+000
      vertex  1.950000e+000  4.946918e-015  3.550000e+000
      vertex  1.950000e+000 -1.750000e+000  3.031089e+000
    endloop
  endfacet
  facet normal  1.000000e+000  0.000000e+000  0.000000e+000
    outer loop
      vertex  1.950000e+000 -1.750000e+000  3.031089e+000
      vertex  1.950000e+000  4.946918e-015  3.550000e+000
      vertex  1.950000e+000 -1.235826e+000  3.327947e+000
    endloop
  endfacet
  facet normal  1.000000e+000  0.000000e+000  -0.000000e+000
    outer loop
      vertex  5.000000e+000 -2.718297e+000 -1.974958e+000
      vertex  5.000000e+000 -1.038297e+000 -3.195550e+000
      vertex  5.000000e+000 -1.404433e-015 -1.621000e+000
    endloop
  endfacet
  facet normal  1.000000e+000  0.000000e+000  0.000000e+000
    outer loop
      vertex  5.000000e+000 -2.718297e+000 -1.974958e+000
      vertex  5.000000e+000 -1.404433e-015 -1.621000e+000
      vertex  5.000000e+000 -1.146220e+000 -1.146220e+000
    endloop
  endfacet
  facet normal  1.000000e+000  0.000000e+000  0.000000e+000
    outer loop
      vertex  5.000000e+000 -2.718297e+000 -1.974958e+000
      vertex  5.000000e+000 -1.146220e+000 -1.146220e+000
      vertex  5.000000e+000 -1.621000e+000  1.985087e-016
    endloop
  endfacet
  facet normal  9.999999e-001  0.000000e+000  0.000000e+000
    outer loop
      vertex  5.000000e+000 -2.718297e+000 -1.974958e+000
      vertex  5.000000e+000 -1.621000e+000  1.985087e-016
      vertex  5.000000e+000 -3.360000e+000 -1.732601e-014
    endloop
  endfacet
  facet normal  1.000000e+000  0.000000e+000  0.000000e+000
    outer loop
      vertex  5.000000e+000 -1.038297e+000 -3.195550e+000
      vertex  5.000000e+000  1.038297e+000 -3.195550e+000
      vertex  5.000000e+000 -1.404433e-015 -1.621000e+000
    endloop
  endfacet
  facet normal  1.000000e+000  0.000000e+000  0.000000e+000
    outer loop
      vertex  5.000000e+000 -1.404433e-015 -1.621000e+000
      vertex  5.000000e+000  1.038297e+000 -3.195550e+000
      vertex  5.000000e+000  2.718297e+000 -1.974958e+000
    endloop
  endfacet
  facet normal  1.000000e+000  0.000000e+000  0.000000e+000
    outer loop
      vertex  5.000000e+000 -1.404433e-015 -1.621000e+000
      vertex  5.000000e+000  2.718297e+000 -1.974958e+000
      vertex  5.000000e+000  1.146220e+000 -1.146220e+000
    endloop
  endfacet
  facet normal  1.000000e+000  0.000000e+000  0.000000e+000
    outer loop
      vertex  5.000000e+000  2.718297e+000  1.974958e+000
      vertex  5.000000e+000  1.038297e+000  3.195550e+000
      vertex  5.000000e+000 -2.050136e-015  1.621000e+000
    endloop
  endfacet
  facet normal  1.000000e+000  0.000000e+000  -0.000000e+000
    outer loop
      vertex  5.000000e+000 -2.050136e-015  1.621000e+000
      vertex  5.000000e+000  1.038297e+000  3.195550e+000
      vertex  5.000000e+000 -1.038297e+000  3.195550e+000
    endloop
  endfacet
  facet normal  1.000000e+000  0.000000e+000  0.000000e+000
    outer loop
      vertex  5.000000e+000 -2.050136e-015  1.621000e+000
      vertex  5.000000e+000 -1.038297e+000  3.195550e+000
      vertex  5.000000e+000 -2.718297e+000  1.974958e+000
    endloop
  endfacet
  facet normal  9.999999e-001  0.000000e+000  0.000000e+000
    outer loop
      vertex  5.000000e+000 -3.360000e+000 -1.732601e-014
      vertex  5.000000e+000 -1.621000e+000  1.985087e-016
      vertex  5.000000e+000 -2.718297e+000  1.974958e+000
    endloop
  endfacet
  facet normal  1.000000e+000  0.000000e+000  0.000000e+000
    outer loop
      vertex  5.000000e+000 -2.718297e+000  1.974958e+000
      vertex  5.000000e+000 -1.621000e+000  1.985087e-016
      vertex  5.000000e+000 -1.146220e+000  1.146220e+000
    endloop
  endfacet
  facet normal  1.000000e+000  0.000000e+000  -0.000000e+000
    outer loop
      vertex  5.000000e+000 -2.718297e+000  1.974958e+000
      vertex  5.000000e+000 -1.146220e+000  1.146220e+000
      vertex  5.000000e+000 -2.050136e-015  1.621000e+000
    endloop
  endfacet
  facet normal  1.000000e+000  0.000000e+000  0.000000e+000
    outer loop
      vertex  5.000000e+000  1.146220e+000 -1.146220e+000
      vertex  5.000000e+000  2.718297e+000 -1.974958e+000
      vertex  5.000000e+000  1.621000e+000  0.000000e+000
    endloop
  endfacet
  facet normal  9.999999e-001  0.000000e+000  0.000000e+000
    outer loop
      vertex  5.000000e+000  1.621000e+000  0.000000e+000
      vertex  5.000000e+000  2.718297e+000 -1.974958e+000
      vertex  5.000000e+000  3.360000e+000 -3.107219e-015
    endloop
  endfacet
  facet normal  1.000000e+000  0.000000e+000  0.000000e+000
    outer loop
      vertex  5.000000e+000  1.621000e+000  0.000000e+000
      vertex  5.000000e+000  3.360000e+000 -3.107219e-015
      vertex  5.000000e+000  1.146220e+000  1.146220e+000
    endloop
  endfacet
  facet normal  1.000000e+000  -0.000000e+000  0.000000e+000
    outer loop
      vertex  5.000000e+000  1.146220e+000  1.146220e+000
      vertex  5.000000e+000  3.360000e+000 -3.107219e-015
      vertex  5.000000e+000  2.718297e+000  1.974958e+000
    endloop
  endfacet
  facet normal  1.000000e+000  0.000000e+000  0.000000e+000
    outer loop
      vertex  5.000000e+000  1.146220e+000  1.146220e+000
      vertex  5.000000e+000  2.718297e+000  1.974958e+000
      vertex  5.000000e+000 -2.050136e-015  1.621000e+000
    endloop
  endfacet
  facet normal  5.876496e-002  0.000000e+000 -9.982718e-001
    outer loop
      vertex  4.860000e+000  1.081560e+000 -3.328698e+000
      vertex  4.860000e+000 -1.081560e+000 -3.328698e+000
      vertex  1.950000e+000 -1.087008e-015 -3.500000e+000
    endloop
  endfacet
  facet normal -2.616588e-002  7.068647e-001 -7.068647e-001
    outer loop
      vertex  1.950000e+000  1.750000e+000 -3.031089e+000
      vertex  1.950000e+000  3.031089e+000 -1.750000e+000
      vertex  4.860000e+000  2.831559e+000 -2.057248e+000
    endloop
  endfacet
  facet normal  5.220661e-002  5.869837e-001 -8.079137e-001
    outer loop
      vertex  1.950000e+000  1.750000e+000 -3.031089e+000
      vertex  4.860000e+000  2.831559e+000 -2.057248e+000
      vertex  4.860000e+000  1.081560e+000 -3.328698e+000
    endloop
  endfacet
  facet normal -3.930402e-002  2.586191e-001 -9.651794e-001
    outer loop
      vertex  1.950000e+000  1.750000e+000 -3.031089e+000
      vertex  4.860000e+000  1.081560e+000 -3.328698e+000
      vertex  1.950000e+000 -1.087008e-015 -3.500000e+000
    endloop
  endfacet
  facet normal -3.930402e-002 -2.586191e-001 -9.651794e-001
    outer loop
      vertex  1.950000e+000 -1.750000e+000 -3.031089e+000
      vertex  1.950000e+000 -1.087008e-015 -3.500000e+000
      vertex  4.860000e+000 -1.081560e+000 -3.328698e+000
    endloop
  endfacet
  facet normal  5.220661e-002 -5.869837e-001 -8.079137e-001
    outer loop
      vertex  1.950000e+000 -1.750000e+000 -3.031089e+000
      vertex  4.860000e+000 -1.081560e+000 -3.328698e+000
      vertex  4.860000e+000 -2.831559e+000 -2.057248e+000
    endloop
  endfacet
  facet normal -2.616588e-002 -7.068647e-001 -7.068647e-001
    outer loop
      vertex  1.950000e+000 -1.750000e+000 -3.031089e+000
      vertex  4.860000e+000 -2.831559e+000 -2.057248e+000
      vertex  1.950000e+000 -3.031089e+000 -1.750000e+000
    endloop
  endfacet
  facet normal  3.256649e-002  9.505520e-001 -3.088531e-001
    outer loop
      vertex  4.860000e+000  2.831559e+000 -2.057248e+000
      vertex  1.950000e+000  3.031089e+000 -1.750000e+000
      vertex  4.860000e+000  3.500000e+000 -8.572244e-016
    endloop
  endfacet
  facet normal  1.974893e-017  9.659258e-001 -2.588191e-001
    outer loop
      vertex  4.860000e+000  3.500000e+000 -8.572244e-016
      vertex  1.950000e+000  3.031089e+000 -1.750000e+000
      vertex  1.950000e+000  3.500000e+000 -1.079269e-015
    endloop
  endfacet
  facet normal -1.643523e-018 -9.510565e-001 -3.090170e-001
    outer loop
      vertex  4.860000e+000 -3.500000e+000  4.286122e-016
      vertex  1.950000e+000 -3.500000e+000  4.440892e-016
      vertex  4.860000e+000 -2.831559e+000 -2.057248e+000
    endloop
  endfacet
  facet normal  3.887399e-002 -9.651958e-001 -2.586235e-001
    outer loop
      vertex  4.860000e+000 -2.831559e+000 -2.057248e+000
      vertex  1.950000e+000 -3.500000e+000  4.440892e-016
      vertex  1.950000e+000 -3.031089e+000 -1.750000e+000
    endloop
  endfacet
  facet normal  5.876496e-002  0.000000e+000  9.982718e-001
    outer loop
      vertex  4.860000e+000 -1.081560e+000  3.328698e+000
      vertex  4.860000e+000  1.081560e+000  3.328698e+000
      vertex  1.950000e+000  1.324529e-015  3.500000e+000
    endloop
  endfacet
  facet normal -2.616588e-002 -7.068647e-001  7.068647e-001
    outer loop
      vertex  1.950000e+000 -1.750000e+000  3.031089e+000
      vertex  1.950000e+000 -3.031089e+000  1.750000e+000
      vertex  4.860000e+000 -2.831559e+000  2.057248e+000
    endloop
  endfacet
  facet normal  5.220661e-002 -5.869837e-001  8.079137e-001
    outer loop
      vertex  1.950000e+000 -1.750000e+000  3.031089e+000
      vertex  4.860000e+000 -2.831559e+000  2.057248e+000
      vertex  4.860000e+000 -1.081560e+000  3.328698e+000
    endloop
  endfacet
  facet normal -3.930402e-002 -2.586191e-001  9.651794e-001
    outer loop
      vertex  1.950000e+000 -1.750000e+000  3.031089e+000
      vertex  4.860000e+000 -1.081560e+000  3.328698e+000
      vertex  1.950000e+000  1.324529e-015  3.500000e+000
    endloop
  endfacet
  facet normal -3.930402e-002  2.586191e-001  9.651794e-001
    outer loop
      vertex  1.950000e+000  1.750000e+000  3.031089e+000
      vertex  1.950000e+000  1.324529e-015  3.500000e+000
      vertex  4.860000e+000  1.081560e+000  3.328698e+000
    endloop
  endfacet
  facet normal  5.220661e-002  5.869837e-001  8.079137e-001
    outer loop
      vertex  1.950000e+000  1.750000e+000  3.031089e+000
      vertex  4.860000e+000  1.081560e+000  3.328698e+000
      vertex  4.860000e+000  2.831559e+000  2.057248e+000
    endloop
  endfacet
  facet normal -2.616588e-002  7.068647e-001  7.068647e-001
    outer loop
      vertex  1.950000e+000  1.750000e+000  3.031089e+000
      vertex  4.860000e+000  2.831559e+000  2.057248e+000
      vertex  1.950000e+000  3.031089e+000  1.750000e+000
    endloop
  endfacet
  facet normal  3.256649e-002 -9.505520e-001  3.088531e-001
    outer loop
      vertex  4.860000e+000 -2.831559e+000  2.057248e+000
      vertex  1.950000e+000 -3.031089e+000  1.750000e+000
      vertex  4.860000e+000 -3.500000e+000  4.286122e-016
    endloop
  endfacet
  facet normal  1.376543e-018 -9.659258e-001  2.588191e-001
    outer loop
      vertex  4.860000e+000 -3.500000e+000  4.286122e-016
      vertex  1.950000e+000 -3.031089e+000  1.750000e+000
      vertex  1.950000e+000 -3.500000e+000  4.440892e-016
    endloop
  endfacet
  facet normal -2.357923e-017  9.510565e-001  3.090170e-001
    outer loop
      vertex  4.860000e+000  3.500000e+000 -8.572244e-016
      vertex  1.950000e+000  3.500000e+000 -1.079269e-015
      vertex  4.860000e+000  2.831559e+000  2.057248e+000
    endloop
  endfacet
  facet normal  3.887399e-002  9.651958e-001  2.586235e-001
    outer loop
      vertex  4.860000e+000  2.831559e+000  2.057248e+000
      vertex  1.950000e+000  3.500000e+000 -1.079269e-015
      vertex  1.950000e+000  3.031089e+000  1.750000e+000
    endloop
  endfacet
  facet normal  9.168190e-001 -3.797596e-001  1.233914e-001
    outer loop
      vertex  5.000000e+000 -3.360000e+000 -1.732601e-014
      vertex  5.000000e+000 -2.718297e+000  1.974958e+000
      vertex  4.958995e+000 -3.458995e+000  6.661338e-016
    endloop
  endfacet
  facet normal  9.168190e-001 -3.797596e-001  1.233914e-001
    outer loop
      vertex  4.958995e+000 -3.458995e+000  6.661338e-016
      vertex  5.000000e+000 -2.718297e+000  1.974958e+000
      vertex  4.958995e+000 -2.798386e+000  2.033146e+000
    endloop
  endfacet
  facet normal  3.665268e-001 -8.848701e-001  2.875117e-001
    outer loop
      vertex  4.958995e+000 -3.458995e+000  6.661338e-016
      vertex  4.958995e+000 -2.798386e+000  2.033146e+000
      vertex  4.860000e+000 -3.500000e+000  4.286122e-016
    endloop
  endfacet
  facet normal  3.665264e-001 -8.848703e-001  2.875118e-001
    outer loop
      vertex  4.860000e+000 -3.500000e+000  4.286122e-016
      vertex  4.958995e+000 -2.798386e+000  2.033146e+000
      vertex  4.860000e+000 -2.831559e+000  2.057248e+000
    endloop
  endfacet
  facet normal  9.168190e-001  3.797597e-001  1.233914e-001
    outer loop
      vertex  5.000000e+000  2.718297e+000  1.974958e+000
      vertex  5.000000e+000  3.360000e+000 -3.107219e-015
      vertex  4.958995e+000  2.798386e+000  2.033146e+000
    endloop
  endfacet
  facet normal  9.168190e-001  3.797596e-001  1.233914e-001
    outer loop
      vertex  4.958995e+000  2.798386e+000  2.033146e+000
      vertex  5.000000e+000  3.360000e+000 -3.107219e-015
      vertex  4.958995e+000  3.458995e+000 -2.886580e-015
    endloop
  endfacet
  facet normal  3.665264e-001  8.848703e-001  2.875118e-001
    outer loop
      vertex  4.958995e+000  2.798386e+000  2.033146e+000
      vertex  4.958995e+000  3.458995e+000 -2.886580e-015
      vertex  4.860000e+000  2.831559e+000  2.057248e+000
    endloop
  endfacet
  facet normal  3.665268e-001  8.848701e-001  2.875117e-001
    outer loop
      vertex  4.860000e+000  2.831559e+000  2.057248e+000
      vertex  4.958995e+000  3.458995e+000 -2.886580e-015
      vertex  4.860000e+000  3.500000e+000 -8.572244e-016
    endloop
  endfacet
  facet normal  9.168191e-001  2.347043e-001  3.230428e-001
    outer loop
      vertex  5.000000e+000  1.038297e+000  3.195550e+000
      vertex  5.000000e+000  2.718297e+000  1.974958e+000
      vertex  4.958995e+000  1.068888e+000  3.289700e+000
    endloop
  endfacet
  facet normal  9.168190e-001  2.347045e-001  3.230429e-001
    outer loop
      vertex  4.958995e+000  1.068888e+000  3.289700e+000
      vertex  5.000000e+000  2.718297e+000  1.974958e+000
      vertex  4.958995e+000  2.798386e+000  2.033146e+000
    endloop
  endfacet
  facet normal  3.665266e-001  5.468799e-001  7.527155e-001
    outer loop
      vertex  4.958995e+000  1.068888e+000  3.289700e+000
      vertex  4.958995e+000  2.798386e+000  2.033146e+000
      vertex  4.860000e+000  1.081560e+000  3.328698e+000
    endloop
  endfacet
  facet normal  3.665265e-001  5.468800e-001  7.527156e-001
    outer loop
      vertex  4.860000e+000  1.081560e+000  3.328698e+000
      vertex  4.958995e+000  2.798386e+000  2.033146e+000
      vertex  4.860000e+000  2.831559e+000  2.057248e+000
    endloop
  endfacet
  facet normal  9.168191e-001  0.000000e+000  3.993028e-001
    outer loop
      vertex  5.000000e+000 -1.038297e+000  3.195550e+000
      vertex  5.000000e+000  1.038297e+000  3.195550e+000
      vertex  4.958995e+000 -1.068888e+000  3.289700e+000
    endloop
  endfacet
  facet normal  9.168192e-001  -0.000000e+000  3.993028e-001
    outer loop
      vertex  4.958995e+000 -1.068888e+000  3.289700e+000
      vertex  5.000000e+000  1.038297e+000  3.195550e+000
      vertex  4.958995e+000  1.068888e+000  3.289700e+000
    endloop
  endfacet
  facet normal  3.665262e-001  0.000000e+000  9.304077e-001
    outer loop
      vertex  4.958995e+000 -1.068888e+000  3.289700e+000
      vertex  4.958995e+000  1.068888e+000  3.289700e+000
      vertex  4.860000e+000 -1.081560e+000  3.328698e+000
    endloop
  endfacet
  facet normal  3.665262e-001  -0.000000e+000  9.304077e-001
    outer loop
      vertex  4.860000e+000 -1.081560e+000  3.328698e+000
      vertex  4.958995e+000  1.068888e+000  3.289700e+000
      vertex  4.860000e+000  1.081560e+000  3.328698e+000
    endloop
  endfacet
  facet normal  9.168190e-001 -2.347044e-001  3.230429e-001
    outer loop
      vertex  5.000000e+000 -2.718297e+000  1.974958e+000
      vertex  5.000000e+000 -1.038297e+000  3.195550e+000
      vertex  4.958995e+000 -2.798386e+000  2.033146e+000
    endloop
  endfacet
  facet normal  9.168192e-001 -2.347044e-001  3.230428e-001
    outer loop
      vertex  4.958995e+000 -2.798386e+000  2.033146e+000
      vertex  5.000000e+000 -1.038297e+000  3.195550e+000
      vertex  4.958995e+000 -1.068888e+000  3.289700e+000
    endloop
  endfacet
  facet normal  3.665265e-001 -5.468799e-001  7.527155e-001
    outer loop
      vertex  4.958995e+000 -2.798386e+000  2.033146e+000
      vertex  4.958995e+000 -1.068888e+000  3.289700e+000
      vertex  4.860000e+000 -2.831559e+000  2.057248e+000
    endloop
  endfacet
  facet normal  3.665266e-001 -5.468799e-001  7.527155e-001
    outer loop
      vertex  4.860000e+000 -2.831559e+000  2.057248e+000
      vertex  4.958995e+000 -1.068888e+000  3.289700e+000
      vertex  4.860000e+000 -1.081560e+000  3.328698e+000
    endloop
  endfacet
  facet normal  9.168190e-001  3.797596e-001 -1.233914e-001
    outer loop
      vertex  5.000000e+000  3.360000e+000 -3.107219e-015
      vertex  5.000000e+000  2.718297e+000 -1.974958e+000
      vertex  4.958995e+000  3.458995e+000 -2.886580e-015
    endloop
  endfacet
  facet normal  9.168190e-001  3.797596e-001 -1.233914e-001
    outer loop
      vertex  4.958995e+000  3.458995e+000 -2.886580e-015
      vertex  5.000000e+000  2.718297e+000 -1.974958e+000
      vertex  4.958995e+000  2.798386e+000 -2.033146e+000
    endloop
  endfacet
  facet normal  3.665268e-001  8.848701e-001 -2.875117e-001
    outer loop
      vertex  4.958995e+000  3.458995e+000 -2.886580e-015
      vertex  4.958995e+000  2.798386e+000 -2.033146e+000
      vertex  4.860000e+000  3.500000e+000 -8.572244e-016
    endloop
  endfacet
  facet normal  3.665264e-001  8.848703e-001 -2.875118e-001
    outer loop
      vertex  4.860000e+000  3.500000e+000 -8.572244e-016
      vertex  4.958995e+000  2.798386e+000 -2.033146e+000
      vertex  4.860000e+000  2.831559e+000 -2.057248e+000
    endloop
  endfacet
  facet normal  9.168190e-001 -3.797597e-001 -1.233914e-001
    outer loop
      vertex  5.000000e+000 -2.718297e+000 -1.974958e+000
      vertex  5.000000e+000 -3.360000e+000 -1.732601e-014
      vertex  4.958995e+000 -2.798386e+000 -2.033146e+000
    endloop
  endfacet
  facet normal  9.168190e-001 -3.797596e-001 -1.233914e-001
    outer loop
      vertex  4.958995e+000 -2.798386e+000 -2.033146e+000
      vertex  5.000000e+000 -3.360000e+000 -1.732601e-014
      vertex  4.958995e+000 -3.458995e+000  6.661338e-016
    endloop
  endfacet
  facet normal  3.665264e-001 -8.848703e-001 -2.875118e-001
    outer loop
      vertex  4.958995e+000 -2.798386e+000 -2.033146e+000
      vertex  4.958995e+000 -3.458995e+000  6.661338e-016
      vertex  4.860000e+000 -2.831559e+000 -2.057248e+000
    endloop
  endfacet
  facet normal  3.665268e-001 -8.848701e-001 -2.875117e-001
    outer loop
      vertex  4.860000e+000 -2.831559e+000 -2.057248e+000
      vertex  4.958995e+000 -3.458995e+000  6.661338e-016
      vertex  4.860000e+000 -3.500000e+000  4.286122e-016
    endloop
  endfacet
  facet normal  9.168191e-001 -2.347043e-001 -3.230428e-001
    outer loop
      vertex  5.000000e+000 -1.038297e+000 -3.195550e+000
      vertex  5.000000e+000 -2.718297e+000 -1.974958e+000
      vertex  4.958995e+000 -1.068888e+000 -3.289700e+000
    endloop
  endfacet
  facet normal  9.168190e-001 -2.347045e-001 -3.230429e-001
    outer loop
      vertex  4.958995e+000 -1.068888e+000 -3.289700e+000
      vertex  5.000000e+000 -2.718297e+000 -1.974958e+000
      vertex  4.958995e+000 -2.798386e+000 -2.033146e+000
    endloop
  endfacet
  facet normal  3.665266e-001 -5.468799e-001 -7.527155e-001
    outer loop
      vertex  4.958995e+000 -1.068888e+000 -3.289700e+000
      vertex  4.958995e+000 -2.798386e+000 -2.033146e+000
      vertex  4.860000e+000 -1.081560e+000 -3.328698e+000
    endloop
  endfacet
  facet normal  3.665265e-001 -5.468800e-001 -7.527156e-001
    outer loop
      vertex  4.860000e+000 -1.081560e+000 -3.328698e+000
      vertex  4.958995e+000 -2.798386e+000 -2.033146e+000
      vertex  4.860000e+000 -2.831559e+000 -2.057248e+000
    endloop
  endfacet
  facet normal  9.168191e-001  0.000000e+000 -3.993028e-001
    outer loop
      vertex  5.000000e+000  1.038297e+000 -3.195550e+000
      vertex  5.000000e+000 -1.038297e+000 -3.195550e+000
      vertex  4.958995e+000  1.068888e+000 -3.289700e+000
    endloop
  endfacet
  facet normal  9.168192e-001  0.000000e+000 -3.993028e-001
    outer loop
      vertex  4.958995e+000  1.068888e+000 -3.289700e+000
      vertex  5.000000e+000 -1.038297e+000 -3.195550e+000
      vertex  4.958995e+000 -1.068888e+000 -3.289700e+000
    endloop
  endfacet
  facet normal  3.665262e-001  0.000000e+000 -9.304077e-001
    outer loop
      vertex  4.958995e+000  1.068888e+000 -3.289700e+000
      vertex  4.958995e+000 -1.068888e+000 -3.289700e+000
      vertex  4.860000e+000  1.081560e+000 -3.328698e+000
    endloop
  endfacet
  facet normal  3.665262e-001  0.000000e+000 -9.304077e-001
    outer loop
      vertex  4.860000e+000  1.081560e+000 -3.328698e+000
      vertex  4.958995e+000 -1.068888e+000 -3.289700e+000
      vertex  4.860000e+000 -1.081560e+000 -3.328698e+000
    endloop
  endfacet
  facet normal  9.168190e-001  2.347044e-001 -3.230429e-001
    outer loop
      vertex  5.000000e+000  2.718297e+000 -1.974958e+000
      vertex  5.000000e+000  1.038297e+000 -3.195550e+000
      vertex  4.958995e+000  2.798386e+000 -2.033146e+000
    endloop
  endfacet
  facet normal  9.168192e-001  2.347044e-001 -3.230428e-001
    outer loop
      vertex  4.958995e+000  2.798386e+000 -2.033146e+000
      vertex  5.000000e+000  1.038297e+000 -3.195550e+000
      vertex  4.958995e+000  1.068888e+000 -3.289700e+000
    endloop
  endfacet
  facet normal  3.665265e-001  5.468799e-001 -7.527155e-001
    outer loop
      vertex  4.958995e+000  2.798386e+000 -2.033146e+000
      vertex  4.958995e+000  1.068888e+000 -3.289700e+000
      vertex  4.860000e+000  2.831559e+000 -2.057248e+000
    endloop
  endfacet
  facet normal  3.665266e-001  5.468799e-001 -7.527155e-001
    outer loop
      vertex  4.860000e+000  2.831559e+000 -2.057248e+000
      vertex  4.958995e+000  1.068888e+000 -3.289700e+000
      vertex  4.860000e+000  1.081560e+000 -3.328698e+000
    endloop
  endfacet
endsolid CATIA STL
