solid CATIA STL
  facet normal  0.000000e+000  1.000000e+000  0.000000e+000
    outer loop
      vertex  7.150000e+001  4.500000e+001 -3.000000e+001
      vertex  7.216844e+001  4.500000e+001 -3.205725e+001
      vertex -2.991844e+001  4.500000e+001 -2.332870e+001
    endloop
  endfacet
  facet normal  0.000000e+000  1.000000e+000  0.000000e+000
    outer loop
      vertex  7.150000e+001  4.500000e+001 -3.000000e+001
      vertex -2.991844e+001  4.500000e+001 -2.332870e+001
      vertex  7.216844e+001  4.500000e+001 -2.794275e+001
    endloop
  endfacet
  facet normal  -0.000000e+000  1.000000e+000  0.000000e+000
    outer loop
      vertex  7.485769e+001  4.500000e+001 -3.799873e+001
      vertex -3.772507e+001  4.500000e+001 -3.599571e+001
      vertex -3.208156e+001  4.500000e+001 -2.332870e+001
    endloop
  endfacet
  facet normal  -0.000000e+000  1.000000e+000  0.000000e+000
    outer loop
      vertex  7.485769e+001  4.500000e+001 -3.799873e+001
      vertex -3.208156e+001  4.500000e+001 -2.332870e+001
      vertex -2.991844e+001  4.500000e+001 -2.332870e+001
    endloop
  endfacet
  facet normal  0.000000e+000  1.000000e+000  0.000000e+000
    outer loop
      vertex  7.485769e+001  4.500000e+001 -3.799873e+001
      vertex -2.991844e+001  4.500000e+001 -2.332870e+001
      vertex  7.216844e+001  4.500000e+001 -3.205725e+001
    endloop
  endfacet
  facet normal  0.000000e+000  1.000000e+000  0.000000e+000
    outer loop
      vertex  7.485769e+001  4.500000e+001 -3.799873e+001
      vertex  7.216844e+001  4.500000e+001 -3.205725e+001
      vertex  7.391844e+001  4.500000e+001 -3.332870e+001
    endloop
  endfacet
  facet normal  -0.000000e+000  9.999999e-001  0.000000e+000
    outer loop
      vertex  7.485769e+001  4.500000e+001 -3.799873e+001
      vertex  7.391844e+001  4.500000e+001 -3.332870e+001
      vertex  7.608156e+001  4.500000e+001 -3.332870e+001
    endloop
  endfacet
  facet normal  0.000000e+000  1.000000e+000  0.000000e+000
    outer loop
      vertex  7.485769e+001  4.500000e+001 -3.799873e+001
      vertex  7.608156e+001  4.500000e+001 -3.332870e+001
      vertex  7.794762e+001  4.500000e+001 -3.743718e+001
    endloop
  endfacet
  facet normal  0.000000e+000  1.000000e+000  -0.000000e+000
    outer loop
      vertex  2.506702e+001  4.500000e+001 -6.112667e-001
      vertex -2.750000e+001  4.500000e+001 -2.000000e+001
      vertex -2.816844e+001  4.500000e+001 -1.794275e+001
    endloop
  endfacet
  facet normal  0.000000e+000  1.000000e+000  -0.000000e+000
    outer loop
      vertex  2.506702e+001  4.500000e+001 -6.112667e-001
      vertex -2.816844e+001  4.500000e+001 -1.794275e+001
      vertex -2.991844e+001  4.500000e+001 -1.667130e+001
    endloop
  endfacet
  facet normal  0.000000e+000  1.000000e+000  0.000000e+000
    outer loop
      vertex  2.506702e+001  4.500000e+001 -6.112667e-001
      vertex -2.991844e+001  4.500000e+001 -1.667130e+001
      vertex  2.200000e+001  4.500000e+001  0.000000e+000
    endloop
  endfacet
  facet normal  0.000000e+000  9.999999e-001  -0.000000e+000
    outer loop
      vertex -3.208156e+001  4.500000e+001 -2.332870e+001
      vertex -3.772507e+001  4.500000e+001 -3.599571e+001
      vertex -4.070985e+001  4.500000e+001 -3.536049e+001
    endloop
  endfacet
  facet normal  0.000000e+000  1.000000e+000  -0.000000e+000
    outer loop
      vertex -3.208156e+001  4.500000e+001 -2.332870e+001
      vertex -4.070985e+001  4.500000e+001 -3.536049e+001
      vertex -4.323962e+001  4.500000e+001 -3.365383e+001
    endloop
  endfacet
  facet normal  0.000000e+000  9.999999e-001  -0.000000e+000
    outer loop
      vertex -3.208156e+001  4.500000e+001 -2.332870e+001
      vertex -4.323962e+001  4.500000e+001 -3.365383e+001
      vertex -4.865685e+001  4.500000e+001 -2.823660e+001
    endloop
  endfacet
  facet normal  0.000000e+000  1.000000e+000  -0.000000e+000
    outer loop
      vertex -3.208156e+001  4.500000e+001 -2.332870e+001
      vertex -4.865685e+001  4.500000e+001 -2.823660e+001
      vertex -5.039104e+001  4.500000e+001 -2.564121e+001
    endloop
  endfacet
  facet normal  0.000000e+000  9.999999e-001  -0.000000e+000
    outer loop
      vertex -3.208156e+001  4.500000e+001 -2.332870e+001
      vertex -5.039104e+001  4.500000e+001 -2.564121e+001
      vertex -5.100000e+001  4.500000e+001 -2.257974e+001
    endloop
  endfacet
  facet normal  -0.000000e+000  1.000000e+000  0.000000e+000
    outer loop
      vertex -3.208156e+001  4.500000e+001 -2.332870e+001
      vertex -5.100000e+001  4.500000e+001 -2.257974e+001
      vertex -3.383156e+001  4.500000e+001 -2.205725e+001
    endloop
  endfacet
  facet normal  0.000000e+000  1.000000e+000  -0.000000e+000
    outer loop
      vertex  7.391844e+001  4.500000e+001 -2.667130e+001
      vertex  7.216844e+001  4.500000e+001 -2.794275e+001
      vertex -2.991844e+001  4.500000e+001 -2.332870e+001
    endloop
  endfacet
  facet normal  -0.000000e+000  1.000000e+000  0.000000e+000
    outer loop
      vertex  7.391844e+001  4.500000e+001 -2.667130e+001
      vertex -2.991844e+001  4.500000e+001 -2.332870e+001
      vertex -2.816844e+001  4.500000e+001 -2.205725e+001
    endloop
  endfacet
  facet normal  -0.000000e+000  1.000000e+000  0.000000e+000
    outer loop
      vertex  7.391844e+001  4.500000e+001 -2.667130e+001
      vertex -2.816844e+001  4.500000e+001 -2.205725e+001
      vertex -2.750000e+001  4.500000e+001 -2.000000e+001
    endloop
  endfacet
  facet normal  -0.000000e+000  1.000000e+000  0.000000e+000
    outer loop
      vertex  7.391844e+001  4.500000e+001 -2.667130e+001
      vertex -2.750000e+001  4.500000e+001 -2.000000e+001
      vertex  2.506702e+001  4.500000e+001 -6.112667e-001
    endloop
  endfacet
  facet normal  0.000000e+000  1.000000e+000  0.000000e+000
    outer loop
      vertex  7.391844e+001  4.500000e+001 -2.667130e+001
      vertex  2.506702e+001  4.500000e+001 -6.112667e-001
      vertex  7.806702e+001  4.500000e+001 -2.261127e+001
    endloop
  endfacet
  facet normal  0.000000e+000  1.000000e+000  0.000000e+000
    outer loop
      vertex  7.391844e+001  4.500000e+001 -2.667130e+001
      vertex  7.806702e+001  4.500000e+001 -2.261127e+001
      vertex  7.608156e+001  4.500000e+001 -2.667130e+001
    endloop
  endfacet
  facet normal  0.000000e+000  1.000000e+000  0.000000e+000
    outer loop
      vertex -5.100000e+001  4.500000e+001 -2.257974e+001
      vertex -5.100000e+001  4.500000e+001 -2.842171e-014
      vertex -3.208156e+001  4.500000e+001 -1.667130e+001
    endloop
  endfacet
  facet normal  0.000000e+000  1.000000e+000  0.000000e+000
    outer loop
      vertex -5.100000e+001  4.500000e+001 -2.257974e+001
      vertex -3.208156e+001  4.500000e+001 -1.667130e+001
      vertex -3.383156e+001  4.500000e+001 -1.794275e+001
    endloop
  endfacet
  facet normal  0.000000e+000  1.000000e+000  0.000000e+000
    outer loop
      vertex -5.100000e+001  4.500000e+001 -2.257974e+001
      vertex -3.383156e+001  4.500000e+001 -1.794275e+001
      vertex -3.450000e+001  4.500000e+001 -2.000000e+001
    endloop
  endfacet
  facet normal  0.000000e+000  1.000000e+000  0.000000e+000
    outer loop
      vertex -5.100000e+001  4.500000e+001 -2.257974e+001
      vertex -3.450000e+001  4.500000e+001 -2.000000e+001
      vertex -3.383156e+001  4.500000e+001 -2.205725e+001
    endloop
  endfacet
  facet normal  0.000000e+000  1.000000e+000  -0.000000e+000
    outer loop
      vertex  2.200000e+001  4.500000e+001  0.000000e+000
      vertex -2.991844e+001  4.500000e+001 -1.667130e+001
      vertex -5.100000e+001  4.500000e+001 -2.842171e-014
    endloop
  endfacet
  facet normal  0.000000e+000  1.000000e+000  0.000000e+000
    outer loop
      vertex -5.100000e+001  4.500000e+001 -2.842171e-014
      vertex -2.991844e+001  4.500000e+001 -1.667130e+001
      vertex -3.208156e+001  4.500000e+001 -1.667130e+001
    endloop
  endfacet
  facet normal  0.000000e+000  1.000000e+000  0.000000e+000
    outer loop
      vertex  7.806702e+001  4.500000e+001 -2.261127e+001
      vertex  8.067484e+001  4.500000e+001 -2.436119e+001
      vertex  7.608156e+001  4.500000e+001 -2.667130e+001
    endloop
  endfacet
  facet normal  -0.000000e+000  1.000000e+000  0.000000e+000
    outer loop
      vertex  7.608156e+001  4.500000e+001 -2.667130e+001
      vertex  8.067484e+001  4.500000e+001 -2.436119e+001
      vertex  8.240813e+001  4.500000e+001 -2.698012e+001
    endloop
  endfacet
  facet normal  0.000000e+000  1.000000e+000  0.000000e+000
    outer loop
      vertex  7.608156e+001  4.500000e+001 -2.667130e+001
      vertex  8.240813e+001  4.500000e+001 -2.698012e+001
      vertex  7.783156e+001  4.500000e+001 -2.794275e+001
    endloop
  endfacet
  facet normal  -0.000000e+000  1.000000e+000  0.000000e+000
    outer loop
      vertex  7.783156e+001  4.500000e+001 -2.794275e+001
      vertex  8.240813e+001  4.500000e+001 -2.698012e+001
      vertex  8.299974e+001  4.500000e+001 -3.006443e+001
    endloop
  endfacet
  facet normal  0.000000e+000  1.000000e+000  0.000000e+000
    outer loop
      vertex  7.783156e+001  4.500000e+001 -2.794275e+001
      vertex  8.299974e+001  4.500000e+001 -3.006443e+001
      vertex  7.850000e+001  4.500000e+001 -3.000000e+001
    endloop
  endfacet
  facet normal  0.000000e+000  1.000000e+000  0.000000e+000
    outer loop
      vertex  7.850000e+001  4.500000e+001 -3.000000e+001
      vertex  8.299974e+001  4.500000e+001 -3.006443e+001
      vertex  7.783156e+001  4.500000e+001 -3.205725e+001
    endloop
  endfacet
  facet normal  -0.000000e+000  1.000000e+000  0.000000e+000
    outer loop
      vertex  7.783156e+001  4.500000e+001 -3.205725e+001
      vertex  8.299974e+001  4.500000e+001 -3.006443e+001
      vertex  8.235852e+001  4.500000e+001 -3.313881e+001
    endloop
  endfacet
  facet normal  0.000000e+000  9.999999e-001  0.000000e+000
    outer loop
      vertex  7.783156e+001  4.500000e+001 -3.205725e+001
      vertex  8.235852e+001  4.500000e+001 -3.313881e+001
      vertex  7.608156e+001  4.500000e+001 -3.332870e+001
    endloop
  endfacet
  facet normal  -0.000000e+000  1.000000e+000  0.000000e+000
    outer loop
      vertex  7.608156e+001  4.500000e+001 -3.332870e+001
      vertex  8.235852e+001  4.500000e+001 -3.313881e+001
      vertex  8.058329e+001  4.500000e+001 -3.572948e+001
    endloop
  endfacet
  facet normal  0.000000e+000  1.000000e+000  0.000000e+000
    outer loop
      vertex  7.608156e+001  4.500000e+001 -3.332870e+001
      vertex  8.058329e+001  4.500000e+001 -3.572948e+001
      vertex  7.794762e+001  4.500000e+001 -3.743718e+001
    endloop
  endfacet
  facet normal  0.000000e+000 -1.000000e+000  0.000000e+000
    outer loop
      vertex -2.991844e+001  4.300000e+001 -2.332870e+001
      vertex  7.216844e+001  4.300000e+001 -3.205725e+001
      vertex  7.150000e+001  4.300000e+001 -3.000000e+001
    endloop
  endfacet
  facet normal  0.000000e+000 -1.000000e+000  0.000000e+000
    outer loop
      vertex  7.216844e+001  4.300000e+001 -2.794275e+001
      vertex -2.991844e+001  4.300000e+001 -2.332870e+001
      vertex  7.150000e+001  4.300000e+001 -3.000000e+001
    endloop
  endfacet
  facet normal  -0.000000e+000 -1.000000e+000  0.000000e+000
    outer loop
      vertex  7.485769e+001  4.300000e+001 -3.799873e+001
      vertex  7.794762e+001  4.300000e+001 -3.743718e+001
      vertex  7.608156e+001  4.300000e+001 -3.332870e+001
    endloop
  endfacet
  facet normal  -0.000000e+000 -9.999999e-001  0.000000e+000
    outer loop
      vertex  7.485769e+001  4.300000e+001 -3.799873e+001
      vertex  7.608156e+001  4.300000e+001 -3.332870e+001
      vertex  7.391844e+001  4.300000e+001 -3.332870e+001
    endloop
  endfacet
  facet normal  -0.000000e+000 -1.000000e+000  -0.000000e+000
    outer loop
      vertex  7.485769e+001  4.300000e+001 -3.799873e+001
      vertex  7.391844e+001  4.300000e+001 -3.332870e+001
      vertex  7.216844e+001  4.300000e+001 -3.205725e+001
    endloop
  endfacet
  facet normal  -0.000000e+000 -1.000000e+000  -0.000000e+000
    outer loop
      vertex  7.485769e+001  4.300000e+001 -3.799873e+001
      vertex  7.216844e+001  4.300000e+001 -3.205725e+001
      vertex -2.991844e+001  4.300000e+001 -2.332870e+001
    endloop
  endfacet
  facet normal  -0.000000e+000 -1.000000e+000  -0.000000e+000
    outer loop
      vertex  7.485769e+001  4.300000e+001 -3.799873e+001
      vertex -2.991844e+001  4.300000e+001 -2.332870e+001
      vertex -3.208156e+001  4.300000e+001 -2.332870e+001
    endloop
  endfacet
  facet normal  0.000000e+000 -1.000000e+000  -0.000000e+000
    outer loop
      vertex  7.485769e+001  4.300000e+001 -3.799873e+001
      vertex -3.208156e+001  4.300000e+001 -2.332870e+001
      vertex -3.772507e+001  4.300000e+001 -3.599571e+001
    endloop
  endfacet
  facet normal  0.000000e+000 -1.000000e+000  -0.000000e+000
    outer loop
      vertex  2.506702e+001  4.300000e+001 -6.112667e-001
      vertex  2.200000e+001  4.300000e+001  0.000000e+000
      vertex -2.991844e+001  4.300000e+001 -1.667130e+001
    endloop
  endfacet
  facet normal  0.000000e+000 -1.000000e+000  0.000000e+000
    outer loop
      vertex  2.506702e+001  4.300000e+001 -6.112667e-001
      vertex -2.991844e+001  4.300000e+001 -1.667130e+001
      vertex -2.816844e+001  4.300000e+001 -1.794275e+001
    endloop
  endfacet
  facet normal  0.000000e+000 -1.000000e+000  0.000000e+000
    outer loop
      vertex  2.506702e+001  4.300000e+001 -6.112667e-001
      vertex -2.816844e+001  4.300000e+001 -1.794275e+001
      vertex -2.750000e+001  4.300000e+001 -2.000000e+001
    endloop
  endfacet
  facet normal  0.000000e+000 -1.000000e+000  -0.000000e+000
    outer loop
      vertex -3.208156e+001  4.300000e+001 -2.332870e+001
      vertex -3.383156e+001  4.300000e+001 -2.205725e+001
      vertex -5.100000e+001  4.300000e+001 -2.257974e+001
    endloop
  endfacet
  facet normal  0.000000e+000 -9.999999e-001  0.000000e+000
    outer loop
      vertex -3.208156e+001  4.300000e+001 -2.332870e+001
      vertex -5.100000e+001  4.300000e+001 -2.257974e+001
      vertex -5.039104e+001  4.300000e+001 -2.564121e+001
    endloop
  endfacet
  facet normal  0.000000e+000 -1.000000e+000  0.000000e+000
    outer loop
      vertex -3.208156e+001  4.300000e+001 -2.332870e+001
      vertex -5.039104e+001  4.300000e+001 -2.564121e+001
      vertex -4.865685e+001  4.300000e+001 -2.823660e+001
    endloop
  endfacet
  facet normal  0.000000e+000 -9.999999e-001  0.000000e+000
    outer loop
      vertex -3.208156e+001  4.300000e+001 -2.332870e+001
      vertex -4.865685e+001  4.300000e+001 -2.823660e+001
      vertex -4.323962e+001  4.300000e+001 -3.365383e+001
    endloop
  endfacet
  facet normal  0.000000e+000 -1.000000e+000  0.000000e+000
    outer loop
      vertex -3.208156e+001  4.300000e+001 -2.332870e+001
      vertex -4.323962e+001  4.300000e+001 -3.365383e+001
      vertex -4.070985e+001  4.300000e+001 -3.536049e+001
    endloop
  endfacet
  facet normal  0.000000e+000 -9.999999e-001  0.000000e+000
    outer loop
      vertex -3.208156e+001  4.300000e+001 -2.332870e+001
      vertex -4.070985e+001  4.300000e+001 -3.536049e+001
      vertex -3.772507e+001  4.300000e+001 -3.599571e+001
    endloop
  endfacet
  facet normal  0.000000e+000 -1.000000e+000  0.000000e+000
    outer loop
      vertex  7.391844e+001  4.300000e+001 -2.667130e+001
      vertex  7.608156e+001  4.300000e+001 -2.667130e+001
      vertex  7.806702e+001  4.300000e+001 -2.261127e+001
    endloop
  endfacet
  facet normal  -0.000000e+000 -1.000000e+000  0.000000e+000
    outer loop
      vertex  7.391844e+001  4.300000e+001 -2.667130e+001
      vertex  7.806702e+001  4.300000e+001 -2.261127e+001
      vertex  2.506702e+001  4.300000e+001 -6.112667e-001
    endloop
  endfacet
  facet normal  0.000000e+000 -1.000000e+000  -0.000000e+000
    outer loop
      vertex  7.391844e+001  4.300000e+001 -2.667130e+001
      vertex  2.506702e+001  4.300000e+001 -6.112667e-001
      vertex -2.750000e+001  4.300000e+001 -2.000000e+001
    endloop
  endfacet
  facet normal  0.000000e+000 -1.000000e+000  -0.000000e+000
    outer loop
      vertex  7.391844e+001  4.300000e+001 -2.667130e+001
      vertex -2.750000e+001  4.300000e+001 -2.000000e+001
      vertex -2.816844e+001  4.300000e+001 -2.205725e+001
    endloop
  endfacet
  facet normal  0.000000e+000 -1.000000e+000  -0.000000e+000
    outer loop
      vertex  7.391844e+001  4.300000e+001 -2.667130e+001
      vertex -2.816844e+001  4.300000e+001 -2.205725e+001
      vertex -2.991844e+001  4.300000e+001 -2.332870e+001
    endloop
  endfacet
  facet normal  0.000000e+000 -1.000000e+000  0.000000e+000
    outer loop
      vertex  7.391844e+001  4.300000e+001 -2.667130e+001
      vertex -2.991844e+001  4.300000e+001 -2.332870e+001
      vertex  7.216844e+001  4.300000e+001 -2.794275e+001
    endloop
  endfacet
  facet normal  -0.000000e+000 -1.000000e+000  0.000000e+000
    outer loop
      vertex -5.100000e+001  4.300000e+001 -2.257974e+001
      vertex -3.383156e+001  4.300000e+001 -2.205725e+001
      vertex -3.450000e+001  4.300000e+001 -2.000000e+001
    endloop
  endfacet
  facet normal  -0.000000e+000 -1.000000e+000  0.000000e+000
    outer loop
      vertex -5.100000e+001  4.300000e+001 -2.257974e+001
      vertex -3.450000e+001  4.300000e+001 -2.000000e+001
      vertex -3.383156e+001  4.300000e+001 -1.794275e+001
    endloop
  endfacet
  facet normal  -0.000000e+000 -1.000000e+000  0.000000e+000
    outer loop
      vertex -5.100000e+001  4.300000e+001 -2.257974e+001
      vertex -3.383156e+001  4.300000e+001 -1.794275e+001
      vertex -3.208156e+001  4.300000e+001 -1.667130e+001
    endloop
  endfacet
  facet normal  -0.000000e+000 -1.000000e+000  0.000000e+000
    outer loop
      vertex -5.100000e+001  4.300000e+001 -2.257974e+001
      vertex -3.208156e+001  4.300000e+001 -1.667130e+001
      vertex -5.100000e+001  4.300000e+001 -2.842171e-014
    endloop
  endfacet
  facet normal  0.000000e+000 -1.000000e+000  0.000000e+000
    outer loop
      vertex  2.200000e+001  4.300000e+001  0.000000e+000
      vertex -5.100000e+001  4.300000e+001 -2.842171e-014
      vertex -2.991844e+001  4.300000e+001 -1.667130e+001
    endloop
  endfacet
  facet normal  0.000000e+000 -1.000000e+000  0.000000e+000
    outer loop
      vertex -2.991844e+001  4.300000e+001 -1.667130e+001
      vertex -5.100000e+001  4.300000e+001 -2.842171e-014
      vertex -3.208156e+001  4.300000e+001 -1.667130e+001
    endloop
  endfacet
  facet normal  0.000000e+000 -1.000000e+000  0.000000e+000
    outer loop
      vertex  7.850000e+001  4.300000e+001 -3.000000e+001
      vertex  8.299974e+001  4.300000e+001 -3.006443e+001
      vertex  7.783156e+001  4.300000e+001 -2.794275e+001
    endloop
  endfacet
  facet normal  0.000000e+000 -1.000000e+000  0.000000e+000
    outer loop
      vertex  7.783156e+001  4.300000e+001 -2.794275e+001
      vertex  8.299974e+001  4.300000e+001 -3.006443e+001
      vertex  8.240813e+001  4.300000e+001 -2.698012e+001
    endloop
  endfacet
  facet normal  -0.000000e+000 -1.000000e+000  0.000000e+000
    outer loop
      vertex  7.783156e+001  4.300000e+001 -2.794275e+001
      vertex  8.240813e+001  4.300000e+001 -2.698012e+001
      vertex  7.608156e+001  4.300000e+001 -2.667130e+001
    endloop
  endfacet
  facet normal  0.000000e+000 -1.000000e+000  0.000000e+000
    outer loop
      vertex  7.608156e+001  4.300000e+001 -2.667130e+001
      vertex  8.240813e+001  4.300000e+001 -2.698012e+001
      vertex  8.067484e+001  4.300000e+001 -2.436119e+001
    endloop
  endfacet
  facet normal  -0.000000e+000 -1.000000e+000  0.000000e+000
    outer loop
      vertex  7.608156e+001  4.300000e+001 -2.667130e+001
      vertex  8.067484e+001  4.300000e+001 -2.436119e+001
      vertex  7.806702e+001  4.300000e+001 -2.261127e+001
    endloop
  endfacet
  facet normal  -0.000000e+000 -1.000000e+000  0.000000e+000
    outer loop
      vertex  7.794762e+001  4.300000e+001 -3.743718e+001
      vertex  8.058329e+001  4.300000e+001 -3.572948e+001
      vertex  7.608156e+001  4.300000e+001 -3.332870e+001
    endloop
  endfacet
  facet normal  0.000000e+000 -1.000000e+000  0.000000e+000
    outer loop
      vertex  7.608156e+001  4.300000e+001 -3.332870e+001
      vertex  8.058329e+001  4.300000e+001 -3.572948e+001
      vertex  8.235852e+001  4.300000e+001 -3.313881e+001
    endloop
  endfacet
  facet normal  -0.000000e+000 -9.999999e-001  0.000000e+000
    outer loop
      vertex  7.608156e+001  4.300000e+001 -3.332870e+001
      vertex  8.235852e+001  4.300000e+001 -3.313881e+001
      vertex  7.783156e+001  4.300000e+001 -3.205725e+001
    endloop
  endfacet
  facet normal  0.000000e+000 -1.000000e+000  0.000000e+000
    outer loop
      vertex  7.783156e+001  4.300000e+001 -3.205725e+001
      vertex  8.235852e+001  4.300000e+001 -3.313881e+001
      vertex  8.299974e+001  4.300000e+001 -3.006443e+001
    endloop
  endfacet
  facet normal  -0.000000e+000 -1.000000e+000  0.000000e+000
    outer loop
      vertex  7.783156e+001  4.300000e+001 -3.205725e+001
      vertex  8.299974e+001  4.300000e+001 -3.006443e+001
      vertex  7.850000e+001  4.300000e+001 -3.000000e+001
    endloop
  endfacet
  facet normal -5.877849e-001  -0.000000e+000 -8.090173e-001
    outer loop
      vertex -2.991844e+001  4.300000e+001 -1.667130e+001
      vertex -2.816844e+001  4.500000e+001 -1.794275e+001
      vertex -2.816844e+001  4.300000e+001 -1.794275e+001
    endloop
  endfacet
  facet normal -9.510565e-001  0.000000e+000 -3.090166e-001
    outer loop
      vertex -2.816844e+001  4.300000e+001 -1.794275e+001
      vertex -2.816844e+001  4.500000e+001 -1.794275e+001
      vertex -2.750000e+001  4.500000e+001 -2.000000e+001
    endloop
  endfacet
  facet normal -9.510565e-001  -0.000000e+000 -3.090166e-001
    outer loop
      vertex -2.816844e+001  4.300000e+001 -1.794275e+001
      vertex -2.750000e+001  4.500000e+001 -2.000000e+001
      vertex -2.750000e+001  4.300000e+001 -2.000000e+001
    endloop
  endfacet
  facet normal -5.877849e-001  0.000000e+000 -8.090173e-001
    outer loop
      vertex -2.816844e+001  4.500000e+001 -1.794275e+001
      vertex -2.991844e+001  4.300000e+001 -1.667130e+001
      vertex -2.991844e+001  4.500000e+001 -1.667130e+001
    endloop
  endfacet
  facet normal  0.000000e+000  -0.000000e+000 -1.000000e+000
    outer loop
      vertex -2.991844e+001  4.500000e+001 -1.667130e+001
      vertex -2.991844e+001  4.300000e+001 -1.667130e+001
      vertex -3.208156e+001  4.300000e+001 -1.667130e+001
    endloop
  endfacet
  facet normal  0.000000e+000  0.000000e+000 -1.000000e+000
    outer loop
      vertex -2.991844e+001  4.500000e+001 -1.667130e+001
      vertex -3.208156e+001  4.300000e+001 -1.667130e+001
      vertex -3.208156e+001  4.500000e+001 -1.667130e+001
    endloop
  endfacet
  facet normal  5.877849e-001  0.000000e+000 -8.090173e-001
    outer loop
      vertex -3.208156e+001  4.500000e+001 -1.667130e+001
      vertex -3.208156e+001  4.300000e+001 -1.667130e+001
      vertex -3.383156e+001  4.300000e+001 -1.794275e+001
    endloop
  endfacet
  facet normal  5.877849e-001  0.000000e+000 -8.090173e-001
    outer loop
      vertex -3.208156e+001  4.500000e+001 -1.667130e+001
      vertex -3.383156e+001  4.300000e+001 -1.794275e+001
      vertex -3.383156e+001  4.500000e+001 -1.794275e+001
    endloop
  endfacet
  facet normal  9.510564e-001  0.000000e+000 -3.090174e-001
    outer loop
      vertex -3.383156e+001  4.500000e+001 -1.794275e+001
      vertex -3.383156e+001  4.300000e+001 -1.794275e+001
      vertex -3.450000e+001  4.300000e+001 -2.000000e+001
    endloop
  endfacet
  facet normal  9.510564e-001  0.000000e+000 -3.090174e-001
    outer loop
      vertex -3.383156e+001  4.500000e+001 -1.794275e+001
      vertex -3.450000e+001  4.300000e+001 -2.000000e+001
      vertex -3.450000e+001  4.500000e+001 -2.000000e+001
    endloop
  endfacet
  facet normal  5.877849e-001  0.000000e+000  8.090173e-001
    outer loop
      vertex -3.208156e+001  4.300000e+001 -2.332870e+001
      vertex -3.383156e+001  4.500000e+001 -2.205725e+001
      vertex -3.383156e+001  4.300000e+001 -2.205725e+001
    endloop
  endfacet
  facet normal  9.510564e-001  -0.000000e+000  3.090174e-001
    outer loop
      vertex -3.383156e+001  4.300000e+001 -2.205725e+001
      vertex -3.383156e+001  4.500000e+001 -2.205725e+001
      vertex -3.450000e+001  4.500000e+001 -2.000000e+001
    endloop
  endfacet
  facet normal  9.510564e-001  0.000000e+000  3.090174e-001
    outer loop
      vertex -3.383156e+001  4.300000e+001 -2.205725e+001
      vertex -3.450000e+001  4.500000e+001 -2.000000e+001
      vertex -3.450000e+001  4.300000e+001 -2.000000e+001
    endloop
  endfacet
  facet normal  5.877849e-001  -0.000000e+000  8.090173e-001
    outer loop
      vertex -3.383156e+001  4.500000e+001 -2.205725e+001
      vertex -3.208156e+001  4.300000e+001 -2.332870e+001
      vertex -3.208156e+001  4.500000e+001 -2.332870e+001
    endloop
  endfacet
  facet normal  0.000000e+000  0.000000e+000  1.000000e+000
    outer loop
      vertex -3.208156e+001  4.500000e+001 -2.332870e+001
      vertex -3.208156e+001  4.300000e+001 -2.332870e+001
      vertex -2.991844e+001  4.300000e+001 -2.332870e+001
    endloop
  endfacet
  facet normal  0.000000e+000  -0.000000e+000  1.000000e+000
    outer loop
      vertex -3.208156e+001  4.500000e+001 -2.332870e+001
      vertex -2.991844e+001  4.300000e+001 -2.332870e+001
      vertex -2.991844e+001  4.500000e+001 -2.332870e+001
    endloop
  endfacet
  facet normal -5.877849e-001  0.000000e+000  8.090173e-001
    outer loop
      vertex -2.991844e+001  4.500000e+001 -2.332870e+001
      vertex -2.991844e+001  4.300000e+001 -2.332870e+001
      vertex -2.816844e+001  4.300000e+001 -2.205725e+001
    endloop
  endfacet
  facet normal -5.877849e-001  0.000000e+000  8.090173e-001
    outer loop
      vertex -2.991844e+001  4.500000e+001 -2.332870e+001
      vertex -2.816844e+001  4.300000e+001 -2.205725e+001
      vertex -2.816844e+001  4.500000e+001 -2.205725e+001
    endloop
  endfacet
  facet normal -9.510565e-001  0.000000e+000  3.090166e-001
    outer loop
      vertex -2.816844e+001  4.500000e+001 -2.205725e+001
      vertex -2.816844e+001  4.300000e+001 -2.205725e+001
      vertex -2.750000e+001  4.300000e+001 -2.000000e+001
    endloop
  endfacet
  facet normal -9.510565e-001  0.000000e+000  3.090166e-001
    outer loop
      vertex -2.816844e+001  4.500000e+001 -2.205725e+001
      vertex -2.750000e+001  4.300000e+001 -2.000000e+001
      vertex -2.750000e+001  4.500000e+001 -2.000000e+001
    endloop
  endfacet
  facet normal  5.877854e-001  0.000000e+000  8.090169e-001
    outer loop
      vertex  7.391844e+001  4.300000e+001 -3.332870e+001
      vertex  7.216844e+001  4.500000e+001 -3.205725e+001
      vertex  7.216844e+001  4.300000e+001 -3.205725e+001
    endloop
  endfacet
  facet normal  9.510563e-001  -0.000000e+000  3.090177e-001
    outer loop
      vertex  7.216844e+001  4.300000e+001 -3.205725e+001
      vertex  7.216844e+001  4.500000e+001 -3.205725e+001
      vertex  7.150000e+001  4.500000e+001 -3.000000e+001
    endloop
  endfacet
  facet normal  9.510563e-001  0.000000e+000  3.090177e-001
    outer loop
      vertex  7.216844e+001  4.300000e+001 -3.205725e+001
      vertex  7.150000e+001  4.500000e+001 -3.000000e+001
      vertex  7.150000e+001  4.300000e+001 -3.000000e+001
    endloop
  endfacet
  facet normal  5.877854e-001  -0.000000e+000  8.090169e-001
    outer loop
      vertex  7.216844e+001  4.500000e+001 -3.205725e+001
      vertex  7.391844e+001  4.300000e+001 -3.332870e+001
      vertex  7.391844e+001  4.500000e+001 -3.332870e+001
    endloop
  endfacet
  facet normal  0.000000e+000  0.000000e+000  1.000000e+000
    outer loop
      vertex  7.391844e+001  4.500000e+001 -3.332870e+001
      vertex  7.391844e+001  4.300000e+001 -3.332870e+001
      vertex  7.608156e+001  4.300000e+001 -3.332870e+001
    endloop
  endfacet
  facet normal  0.000000e+000  -0.000000e+000  1.000000e+000
    outer loop
      vertex  7.391844e+001  4.500000e+001 -3.332870e+001
      vertex  7.608156e+001  4.300000e+001 -3.332870e+001
      vertex  7.608156e+001  4.500000e+001 -3.332870e+001
    endloop
  endfacet
  facet normal -5.877854e-001  0.000000e+000  8.090169e-001
    outer loop
      vertex  7.608156e+001  4.500000e+001 -3.332870e+001
      vertex  7.608156e+001  4.300000e+001 -3.332870e+001
      vertex  7.783156e+001  4.300000e+001 -3.205725e+001
    endloop
  endfacet
  facet normal -5.877854e-001  0.000000e+000  8.090169e-001
    outer loop
      vertex  7.608156e+001  4.500000e+001 -3.332870e+001
      vertex  7.783156e+001  4.300000e+001 -3.205725e+001
      vertex  7.783156e+001  4.500000e+001 -3.205725e+001
    endloop
  endfacet
  facet normal -9.510563e-001  0.000000e+000  3.090177e-001
    outer loop
      vertex  7.783156e+001  4.500000e+001 -3.205725e+001
      vertex  7.783156e+001  4.300000e+001 -3.205725e+001
      vertex  7.850000e+001  4.300000e+001 -3.000000e+001
    endloop
  endfacet
  facet normal -9.510563e-001  0.000000e+000  3.090177e-001
    outer loop
      vertex  7.783156e+001  4.500000e+001 -3.205725e+001
      vertex  7.850000e+001  4.300000e+001 -3.000000e+001
      vertex  7.850000e+001  4.500000e+001 -3.000000e+001
    endloop
  endfacet
  facet normal -5.877849e-001  -0.000000e+000 -8.090173e-001
    outer loop
      vertex  7.608156e+001  4.300000e+001 -2.667130e+001
      vertex  7.783156e+001  4.500000e+001 -2.794275e+001
      vertex  7.783156e+001  4.300000e+001 -2.794275e+001
    endloop
  endfacet
  facet normal -9.510564e-001  0.000000e+000 -3.090174e-001
    outer loop
      vertex  7.783156e+001  4.300000e+001 -2.794275e+001
      vertex  7.783156e+001  4.500000e+001 -2.794275e+001
      vertex  7.850000e+001  4.500000e+001 -3.000000e+001
    endloop
  endfacet
  facet normal -9.510564e-001  -0.000000e+000 -3.090174e-001
    outer loop
      vertex  7.783156e+001  4.300000e+001 -2.794275e+001
      vertex  7.850000e+001  4.500000e+001 -3.000000e+001
      vertex  7.850000e+001  4.300000e+001 -3.000000e+001
    endloop
  endfacet
  facet normal -5.877849e-001  0.000000e+000 -8.090173e-001
    outer loop
      vertex  7.783156e+001  4.500000e+001 -2.794275e+001
      vertex  7.608156e+001  4.300000e+001 -2.667130e+001
      vertex  7.608156e+001  4.500000e+001 -2.667130e+001
    endloop
  endfacet
  facet normal  0.000000e+000  -0.000000e+000 -1.000000e+000
    outer loop
      vertex  7.608156e+001  4.500000e+001 -2.667130e+001
      vertex  7.608156e+001  4.300000e+001 -2.667130e+001
      vertex  7.391844e+001  4.300000e+001 -2.667130e+001
    endloop
  endfacet
  facet normal  0.000000e+000  0.000000e+000 -1.000000e+000
    outer loop
      vertex  7.608156e+001  4.500000e+001 -2.667130e+001
      vertex  7.391844e+001  4.300000e+001 -2.667130e+001
      vertex  7.391844e+001  4.500000e+001 -2.667130e+001
    endloop
  endfacet
  facet normal  5.877849e-001  0.000000e+000 -8.090173e-001
    outer loop
      vertex  7.391844e+001  4.500000e+001 -2.667130e+001
      vertex  7.391844e+001  4.300000e+001 -2.667130e+001
      vertex  7.216844e+001  4.300000e+001 -2.794275e+001
    endloop
  endfacet
  facet normal  5.877849e-001  0.000000e+000 -8.090173e-001
    outer loop
      vertex  7.391844e+001  4.500000e+001 -2.667130e+001
      vertex  7.216844e+001  4.300000e+001 -2.794275e+001
      vertex  7.216844e+001  4.500000e+001 -2.794275e+001
    endloop
  endfacet
  facet normal  9.510564e-001  0.000000e+000 -3.090174e-001
    outer loop
      vertex  7.216844e+001  4.500000e+001 -2.794275e+001
      vertex  7.216844e+001  4.300000e+001 -2.794275e+001
      vertex  7.150000e+001  4.300000e+001 -3.000000e+001
    endloop
  endfacet
  facet normal  9.510564e-001  0.000000e+000 -3.090174e-001
    outer loop
      vertex  7.216844e+001  4.500000e+001 -2.794275e+001
      vertex  7.150000e+001  4.300000e+001 -3.000000e+001
      vertex  7.150000e+001  4.500000e+001 -3.000000e+001
    endloop
  endfacet
  facet normal -3.893385e-016  0.000000e+000  1.000000e+000
    outer loop
      vertex  2.200000e+001  4.500000e+001  0.000000e+000
      vertex -5.100000e+001  4.500000e+001 -2.842171e-014
      vertex  2.200000e+001  4.300000e+001  0.000000e+000
    endloop
  endfacet
  facet normal -3.893385e-016  0.000000e+000  1.000000e+000
    outer loop
      vertex  2.200000e+001  4.300000e+001  0.000000e+000
      vertex -5.100000e+001  4.500000e+001 -2.842171e-014
      vertex -5.100000e+001  4.300000e+001 -2.842171e-014
    endloop
  endfacet
  facet normal -1.000000e+000  0.000000e+000  0.000000e+000
    outer loop
      vertex -5.100000e+001  4.500000e+001 -2.842171e-014
      vertex -5.100000e+001  4.500000e+001 -2.257974e+001
      vertex -5.100000e+001  4.300000e+001 -2.842171e-014
    endloop
  endfacet
  facet normal -1.000000e+000  0.000000e+000  0.000000e+000
    outer loop
      vertex -5.100000e+001  4.300000e+001 -2.842171e-014
      vertex -5.100000e+001  4.500000e+001 -2.257974e+001
      vertex -5.100000e+001  4.300000e+001 -2.257974e+001
    endloop
  endfacet
  facet normal -9.807854e-001  -0.000000e+000 -1.950901e-001
    outer loop
      vertex -5.100000e+001  4.300000e+001 -2.257974e+001
      vertex -5.100000e+001  4.500000e+001 -2.257974e+001
      vertex -5.039104e+001  4.300000e+001 -2.564121e+001
    endloop
  endfacet
  facet normal -9.807854e-001  0.000000e+000 -1.950901e-001
    outer loop
      vertex -5.039104e+001  4.300000e+001 -2.564121e+001
      vertex -5.100000e+001  4.500000e+001 -2.257974e+001
      vertex -5.039104e+001  4.500000e+001 -2.564121e+001
    endloop
  endfacet
  facet normal -8.314692e-001  -0.000000e+000 -5.555708e-001
    outer loop
      vertex -5.039104e+001  4.300000e+001 -2.564121e+001
      vertex -5.039104e+001  4.500000e+001 -2.564121e+001
      vertex -4.865685e+001  4.300000e+001 -2.823660e+001
    endloop
  endfacet
  facet normal -8.314692e-001  0.000000e+000 -5.555708e-001
    outer loop
      vertex -4.865685e+001  4.300000e+001 -2.823660e+001
      vertex -5.039104e+001  4.500000e+001 -2.564121e+001
      vertex -4.865685e+001  4.500000e+001 -2.823660e+001
    endloop
  endfacet
  facet normal -7.071068e-001  0.000000e+000 -7.071068e-001
    outer loop
      vertex -4.865685e+001  4.500000e+001 -2.823660e+001
      vertex -4.323962e+001  4.500000e+001 -3.365383e+001
      vertex -4.865685e+001  4.300000e+001 -2.823660e+001
    endloop
  endfacet
  facet normal -7.071068e-001  0.000000e+000 -7.071068e-001
    outer loop
      vertex -4.865685e+001  4.300000e+001 -2.823660e+001
      vertex -4.323962e+001  4.500000e+001 -3.365383e+001
      vertex -4.323962e+001  4.300000e+001 -3.365383e+001
    endloop
  endfacet
  facet normal -5.592624e-001  -0.000000e+000 -8.289907e-001
    outer loop
      vertex -4.323962e+001  4.300000e+001 -3.365383e+001
      vertex -4.323962e+001  4.500000e+001 -3.365383e+001
      vertex -4.070985e+001  4.300000e+001 -3.536049e+001
    endloop
  endfacet
  facet normal -5.592624e-001  0.000000e+000 -8.289907e-001
    outer loop
      vertex -4.070985e+001  4.300000e+001 -3.536049e+001
      vertex -4.323962e+001  4.500000e+001 -3.365383e+001
      vertex -4.070985e+001  4.500000e+001 -3.536049e+001
    endloop
  endfacet
  facet normal -2.081593e-001  -0.000000e+000 -9.780949e-001
    outer loop
      vertex -4.070985e+001  4.300000e+001 -3.536049e+001
      vertex -4.070985e+001  4.500000e+001 -3.536049e+001
      vertex -3.772507e+001  4.300000e+001 -3.599571e+001
    endloop
  endfacet
  facet normal -2.081593e-001  0.000000e+000 -9.780949e-001
    outer loop
      vertex -3.772507e+001  4.300000e+001 -3.599571e+001
      vertex -4.070985e+001  4.500000e+001 -3.536049e+001
      vertex -3.772507e+001  4.500000e+001 -3.599571e+001
    endloop
  endfacet
  facet normal -1.778873e-002  0.000000e+000 -9.998417e-001
    outer loop
      vertex -3.772507e+001  4.500000e+001 -3.599571e+001
      vertex  7.485769e+001  4.500000e+001 -3.799873e+001
      vertex -3.772507e+001  4.300000e+001 -3.599571e+001
    endloop
  endfacet
  facet normal -1.778873e-002  0.000000e+000 -9.998417e-001
    outer loop
      vertex -3.772507e+001  4.300000e+001 -3.599571e+001
      vertex  7.485769e+001  4.500000e+001 -3.799873e+001
      vertex  7.485769e+001  4.300000e+001 -3.799873e+001
    endloop
  endfacet
  facet normal  1.788092e-001  0.000000e+000 -9.838838e-001
    outer loop
      vertex  7.485769e+001  4.300000e+001 -3.799873e+001
      vertex  7.485769e+001  4.500000e+001 -3.799873e+001
      vertex  7.794762e+001  4.300000e+001 -3.743718e+001
    endloop
  endfacet
  facet normal  1.788092e-001  0.000000e+000 -9.838838e-001
    outer loop
      vertex  7.794762e+001  4.300000e+001 -3.743718e+001
      vertex  7.485769e+001  4.500000e+001 -3.799873e+001
      vertex  7.794762e+001  4.500000e+001 -3.743718e+001
    endloop
  endfacet
  facet normal  5.437591e-001  0.000000e+000 -8.392413e-001
    outer loop
      vertex  7.794762e+001  4.300000e+001 -3.743718e+001
      vertex  7.794762e+001  4.500000e+001 -3.743718e+001
      vertex  8.058329e+001  4.300000e+001 -3.572948e+001
    endloop
  endfacet
  facet normal  5.437591e-001  0.000000e+000 -8.392413e-001
    outer loop
      vertex  8.058329e+001  4.300000e+001 -3.572948e+001
      vertex  7.794762e+001  4.500000e+001 -3.743718e+001
      vertex  8.058329e+001  4.500000e+001 -3.572948e+001
    endloop
  endfacet
  facet normal  8.249107e-001  0.000000e+000 -5.652630e-001
    outer loop
      vertex  8.058329e+001  4.300000e+001 -3.572948e+001
      vertex  8.058329e+001  4.500000e+001 -3.572948e+001
      vertex  8.235852e+001  4.300000e+001 -3.313881e+001
    endloop
  endfacet
  facet normal  8.249107e-001  0.000000e+000 -5.652630e-001
    outer loop
      vertex  8.235852e+001  4.300000e+001 -3.313881e+001
      vertex  8.058329e+001  4.500000e+001 -3.572948e+001
      vertex  8.235852e+001  4.500000e+001 -3.313881e+001
    endloop
  endfacet
  facet normal  9.789345e-001  0.000000e+000 -2.041750e-001
    outer loop
      vertex  8.235852e+001  4.300000e+001 -3.313881e+001
      vertex  8.235852e+001  4.500000e+001 -3.313881e+001
      vertex  8.299974e+001  4.300000e+001 -3.006443e+001
    endloop
  endfacet
  facet normal  9.789345e-001  0.000000e+000 -2.041750e-001
    outer loop
      vertex  8.299974e+001  4.300000e+001 -3.006443e+001
      vertex  8.235852e+001  4.500000e+001 -3.313881e+001
      vertex  8.299974e+001  4.500000e+001 -3.006443e+001
    endloop
  endfacet
  facet normal  9.820963e-001  0.000000e+000  1.883796e-001
    outer loop
      vertex  8.299974e+001  4.300000e+001 -3.006443e+001
      vertex  8.299974e+001  4.500000e+001 -3.006443e+001
      vertex  8.240813e+001  4.300000e+001 -2.698012e+001
    endloop
  endfacet
  facet normal  9.820963e-001  -0.000000e+000  1.883796e-001
    outer loop
      vertex  8.240813e+001  4.300000e+001 -2.698012e+001
      vertex  8.299974e+001  4.500000e+001 -3.006443e+001
      vertex  8.240813e+001  4.500000e+001 -2.698012e+001
    endloop
  endfacet
  facet normal  8.339067e-001  0.000000e+000  5.519055e-001
    outer loop
      vertex  8.240813e+001  4.300000e+001 -2.698012e+001
      vertex  8.240813e+001  4.500000e+001 -2.698012e+001
      vertex  8.067484e+001  4.300000e+001 -2.436119e+001
    endloop
  endfacet
  facet normal  8.339067e-001  -0.000000e+000  5.519055e-001
    outer loop
      vertex  8.067484e+001  4.300000e+001 -2.436119e+001
      vertex  8.240813e+001  4.500000e+001 -2.698012e+001
      vertex  8.067484e+001  4.500000e+001 -2.436119e+001
    endloop
  endfacet
  facet normal  5.572067e-001  0.000000e+000  8.303738e-001
    outer loop
      vertex  8.067484e+001  4.300000e+001 -2.436119e+001
      vertex  8.067484e+001  4.500000e+001 -2.436119e+001
      vertex  7.806702e+001  4.300000e+001 -2.261127e+001
    endloop
  endfacet
  facet normal  5.572067e-001  -0.000000e+000  8.303738e-001
    outer loop
      vertex  7.806702e+001  4.300000e+001 -2.261127e+001
      vertex  8.067484e+001  4.500000e+001 -2.436119e+001
      vertex  7.806702e+001  4.500000e+001 -2.261127e+001
    endloop
  endfacet
  facet normal  3.833777e-001  0.000000e+000  9.235917e-001
    outer loop
      vertex  7.806702e+001  4.500000e+001 -2.261127e+001
      vertex  2.506702e+001  4.500000e+001 -6.112667e-001
      vertex  7.806702e+001  4.300000e+001 -2.261127e+001
    endloop
  endfacet
  facet normal  3.833777e-001  0.000000e+000  9.235917e-001
    outer loop
      vertex  7.806702e+001  4.300000e+001 -2.261127e+001
      vertex  2.506702e+001  4.500000e+001 -6.112667e-001
      vertex  2.506702e+001  4.300000e+001 -6.112667e-001
    endloop
  endfacet
  facet normal  1.954588e-001  -0.000000e+000  9.807119e-001
    outer loop
      vertex  2.200000e+001  4.500000e+001  0.000000e+000
      vertex  2.200000e+001  4.300000e+001  0.000000e+000
      vertex  2.506702e+001  4.500000e+001 -6.112667e-001
    endloop
  endfacet
  facet normal  1.954588e-001  0.000000e+000  9.807119e-001
    outer loop
      vertex  2.506702e+001  4.500000e+001 -6.112667e-001
      vertex  2.200000e+001  4.300000e+001  0.000000e+000
      vertex  2.506702e+001  4.300000e+001 -6.112667e-001
    endloop
  endfacet
endsolid CATIA STL
