solid CATIA STL
  facet normal  0.000000e+000  1.000000e+000  -0.000000e+000
    outer loop
      vertex  8.026624e+001  2.000000e+000  3.898731e+001
      vertex -1.500000e+000  2.000000e+000  2.000000e+001
      vertex -2.168441e+000  2.000000e+000  2.205725e+001
    endloop
  endfacet
  facet normal  0.000000e+000  1.000000e+000  0.000000e+000
    outer loop
      vertex  9.150000e+001  2.000000e+000  1.000000e+001
      vertex  9.216844e+001  2.000000e+000  7.942751e+000
      vertex -3.918441e+000  2.000000e+000  1.667130e+001
    endloop
  endfacet
  facet normal  0.000000e+000  1.000000e+000  0.000000e+000
    outer loop
      vertex  9.150000e+001  2.000000e+000  1.000000e+001
      vertex -3.918441e+000  2.000000e+000  1.667130e+001
      vertex  9.216844e+001  2.000000e+000  1.205725e+001
    endloop
  endfacet
  facet normal  0.000000e+000  1.000000e+000  -0.000000e+000
    outer loop
      vertex  1.021114e+002  2.000000e+000  6.335478e+000
      vertex  1.001339e+002  2.000000e+000  3.864612e+000
      vertex  9.735306e+001  2.000000e+000  2.353881e+000
    endloop
  endfacet
  facet normal  -0.000000e+000  1.000000e+000  0.000000e+000
    outer loop
      vertex  9.391844e+001  2.000000e+000  1.332870e+001
      vertex -3.918441e+000  2.000000e+000  1.667130e+001
      vertex -2.168441e+000  2.000000e+000  1.794275e+001
    endloop
  endfacet
  facet normal  0.000000e+000  1.000000e+000  0.000000e+000
    outer loop
      vertex -3.918441e+000  2.000000e+000  1.667130e+001
      vertex  9.391844e+001  2.000000e+000  1.332870e+001
      vertex  9.216844e+001  2.000000e+000  1.205725e+001
    endloop
  endfacet
  facet normal  0.000000e+000  1.000000e+000  0.000000e+000
    outer loop
      vertex -8.000000e+000  2.000000e+000  6.000000e+001
      vertex -6.081560e+000  2.000000e+000  2.332870e+001
      vertex -1.050001e+001  2.000000e+000  5.933014e+001
    endloop
  endfacet
  facet normal  0.000000e+000  1.000000e+000  -0.000000e+000
    outer loop
      vertex -6.081560e+000  2.000000e+000  1.667130e+001
      vertex -1.093162e+001  2.000000e+000  1.463196e+001
      vertex -1.246502e+001  2.000000e+000  1.712363e+001
    endloop
  endfacet
  facet normal  0.000000e+000  1.000000e+000  0.000000e+000
    outer loop
      vertex  9.420397e+001  2.000000e+000  2.039702e+000
      vertex -3.918441e+000  2.000000e+000  1.667130e+001
      vertex  9.216844e+001  2.000000e+000  7.942751e+000
    endloop
  endfacet
  facet normal  0.000000e+000  1.000000e+000  0.000000e+000
    outer loop
      vertex  9.420397e+001  2.000000e+000  2.039702e+000
      vertex  9.216844e+001  2.000000e+000  7.942751e+000
      vertex  9.391844e+001  2.000000e+000  6.671302e+000
    endloop
  endfacet
  facet normal  -0.000000e+000  1.000000e+000  0.000000e+000
    outer loop
      vertex  9.420397e+001  2.000000e+000  2.039702e+000
      vertex  9.391844e+001  2.000000e+000  6.671302e+000
      vertex  9.608156e+001  2.000000e+000  6.671302e+000
    endloop
  endfacet
  facet normal  0.000000e+000  1.000000e+000  0.000000e+000
    outer loop
      vertex  9.420397e+001  2.000000e+000  2.039702e+000
      vertex  9.608156e+001  2.000000e+000  6.671302e+000
      vertex  1.021114e+002  2.000000e+000  6.335478e+000
    endloop
  endfacet
  facet normal  0.000000e+000  1.000000e+000  0.000000e+000
    outer loop
      vertex  9.420397e+001  2.000000e+000  2.039702e+000
      vertex  1.021114e+002  2.000000e+000  6.335478e+000
      vertex  9.735306e+001  2.000000e+000  2.353881e+000
    endloop
  endfacet
  facet normal  0.000000e+000  1.000000e+000  -0.000000e+000
    outer loop
      vertex -3.918441e+000  2.000000e+000  2.332870e+001
      vertex -6.081560e+000  2.000000e+000  2.332870e+001
      vertex -8.000000e+000  2.000000e+000  6.000000e+001
    endloop
  endfacet
  facet normal  -0.000000e+000  1.000000e+000  0.000000e+000
    outer loop
      vertex -3.918441e+000  2.000000e+000  2.332870e+001
      vertex -8.000000e+000  2.000000e+000  6.000000e+001
      vertex  4.500000e+001  2.000000e+000  6.000000e+001
    endloop
  endfacet
  facet normal  0.000000e+000  9.999999e-001  0.000000e+000
    outer loop
      vertex -3.918441e+000  2.000000e+000  2.332870e+001
      vertex  4.500000e+001  2.000000e+000  6.000000e+001
      vertex  5.061016e+001  2.000000e+000  4.656039e+001
    endloop
  endfacet
  facet normal  0.000000e+000  1.000000e+000  0.000000e+000
    outer loop
      vertex -3.918441e+000  2.000000e+000  2.332870e+001
      vertex  5.061016e+001  2.000000e+000  4.656039e+001
      vertex  5.236618e+001  2.000000e+000  4.354053e+001
    endloop
  endfacet
  facet normal  0.000000e+000  1.000000e+000  0.000000e+000
    outer loop
      vertex -3.918441e+000  2.000000e+000  2.332870e+001
      vertex  5.236618e+001  2.000000e+000  4.354053e+001
      vertex  5.505377e+001  2.000000e+000  4.130892e+001
    endloop
  endfacet
  facet normal  0.000000e+000  1.000000e+000  0.000000e+000
    outer loop
      vertex -3.918441e+000  2.000000e+000  2.332870e+001
      vertex  5.505377e+001  2.000000e+000  4.130892e+001
      vertex  5.834496e+001  2.000000e+000  4.013791e+001
    endloop
  endfacet
  facet normal  0.000000e+000  1.000000e+000  0.000000e+000
    outer loop
      vertex -3.918441e+000  2.000000e+000  2.332870e+001
      vertex  5.834496e+001  2.000000e+000  4.013791e+001
      vertex  8.026624e+001  2.000000e+000  3.898731e+001
    endloop
  endfacet
  facet normal  0.000000e+000  1.000000e+000  0.000000e+000
    outer loop
      vertex -3.918441e+000  2.000000e+000  2.332870e+001
      vertex  8.026624e+001  2.000000e+000  3.898731e+001
      vertex -2.168441e+000  2.000000e+000  2.205725e+001
    endloop
  endfacet
  facet normal  -0.000000e+000  1.000000e+000  0.000000e+000
    outer loop
      vertex  8.026624e+001  2.000000e+000  3.898731e+001
      vertex  5.834496e+001  2.000000e+000  4.013791e+001
      vertex  6.183812e+001  2.000000e+000  4.017039e+001
    endloop
  endfacet
  facet normal  -0.000000e+000  1.000000e+000  0.000000e+000
    outer loop
      vertex  8.026624e+001  2.000000e+000  3.898731e+001
      vertex  6.183812e+001  2.000000e+000  4.017039e+001
      vertex  6.510696e+001  2.000000e+000  4.140239e+001
    endloop
  endfacet
  facet normal  -0.000000e+000  9.999999e-001  0.000000e+000
    outer loop
      vertex  8.026624e+001  2.000000e+000  3.898731e+001
      vertex  6.510696e+001  2.000000e+000  4.140239e+001
      vertex  7.704076e+001  2.000000e+000  4.158749e+001
    endloop
  endfacet
  facet normal  0.000000e+000  1.000000e+000  0.000000e+000
    outer loop
      vertex -2.168441e+000  2.000000e+000  1.794275e+001
      vertex -1.500000e+000  2.000000e+000  2.000000e+001
      vertex  9.391844e+001  2.000000e+000  1.332870e+001
    endloop
  endfacet
  facet normal  0.000000e+000  1.000000e+000  0.000000e+000
    outer loop
      vertex  9.391844e+001  2.000000e+000  1.332870e+001
      vertex -1.500000e+000  2.000000e+000  2.000000e+001
      vertex  8.026624e+001  2.000000e+000  3.898731e+001
    endloop
  endfacet
  facet normal  0.000000e+000  1.000000e+000  0.000000e+000
    outer loop
      vertex  9.391844e+001  2.000000e+000  1.332870e+001
      vertex  8.026624e+001  2.000000e+000  3.898731e+001
      vertex  9.608156e+001  2.000000e+000  1.332870e+001
    endloop
  endfacet
  facet normal  0.000000e+000  1.000000e+000  -0.000000e+000
    outer loop
      vertex  9.608156e+001  2.000000e+000  1.332870e+001
      vertex  8.026624e+001  2.000000e+000  3.898731e+001
      vertex  1.010206e+002  2.000000e+000  1.526804e+001
    endloop
  endfacet
  facet normal  0.000000e+000  1.000000e+000  0.000000e+000
    outer loop
      vertex  9.608156e+001  2.000000e+000  1.332870e+001
      vertex  1.010206e+002  2.000000e+000  1.526804e+001
      vertex  9.783156e+001  2.000000e+000  1.205725e+001
    endloop
  endfacet
  facet normal  0.000000e+000  1.000000e+000  0.000000e+000
    outer loop
      vertex  9.783156e+001  2.000000e+000  1.205725e+001
      vertex  1.010206e+002  2.000000e+000  1.526804e+001
      vertex  1.025923e+002  2.000000e+000  1.252120e+001
    endloop
  endfacet
  facet normal  0.000000e+000  1.000000e+000  0.000000e+000
    outer loop
      vertex  9.783156e+001  2.000000e+000  1.205725e+001
      vertex  1.025923e+002  2.000000e+000  1.252120e+001
      vertex  9.850000e+001  2.000000e+000  1.000000e+001
    endloop
  endfacet
  facet normal  -0.000000e+000  1.000000e+000  0.000000e+000
    outer loop
      vertex  9.850000e+001  2.000000e+000  1.000000e+001
      vertex  1.025923e+002  2.000000e+000  1.252120e+001
      vertex  1.029759e+002  2.000000e+000  9.379809e+000
    endloop
  endfacet
  facet normal  0.000000e+000  1.000000e+000  0.000000e+000
    outer loop
      vertex  9.850000e+001  2.000000e+000  1.000000e+001
      vertex  1.029759e+002  2.000000e+000  9.379809e+000
      vertex  9.783156e+001  2.000000e+000  7.942751e+000
    endloop
  endfacet
  facet normal  -0.000000e+000  1.000000e+000  0.000000e+000
    outer loop
      vertex  9.783156e+001  2.000000e+000  7.942751e+000
      vertex  1.029759e+002  2.000000e+000  9.379809e+000
      vertex  1.021114e+002  2.000000e+000  6.335478e+000
    endloop
  endfacet
  facet normal  0.000000e+000  1.000000e+000  0.000000e+000
    outer loop
      vertex  9.783156e+001  2.000000e+000  7.942751e+000
      vertex  1.021114e+002  2.000000e+000  6.335478e+000
      vertex  9.608156e+001  2.000000e+000  6.671302e+000
    endloop
  endfacet
  facet normal  0.000000e+000  1.000000e+000  0.000000e+000
    outer loop
      vertex -8.604895e+000  2.000000e+000  1.285824e+001
      vertex -1.093162e+001  2.000000e+000  1.463196e+001
      vertex -5.796030e+000  2.000000e+000  1.203970e+001
    endloop
  endfacet
  facet normal  0.000000e+000  9.999999e-001  0.000000e+000
    outer loop
      vertex -5.796030e+000  2.000000e+000  1.203970e+001
      vertex -1.093162e+001  2.000000e+000  1.463196e+001
      vertex -6.081560e+000  2.000000e+000  1.667130e+001
    endloop
  endfacet
  facet normal  0.000000e+000  1.000000e+000  0.000000e+000
    outer loop
      vertex -5.796030e+000  2.000000e+000  1.203970e+001
      vertex -6.081560e+000  2.000000e+000  1.667130e+001
      vertex  9.420397e+001  2.000000e+000  2.039702e+000
    endloop
  endfacet
  facet normal  0.000000e+000  1.000000e+000  0.000000e+000
    outer loop
      vertex  9.420397e+001  2.000000e+000  2.039702e+000
      vertex -6.081560e+000  2.000000e+000  1.667130e+001
      vertex -3.918441e+000  2.000000e+000  1.667130e+001
    endloop
  endfacet
  facet normal  0.000000e+000  1.000000e+000  0.000000e+000
    outer loop
      vertex  5.061016e+001  2.000000e+000  4.656039e+001
      vertex  4.500000e+001  2.000000e+000  6.000000e+001
      vertex  5.000000e+001  2.000000e+000  5.000000e+001
    endloop
  endfacet
  facet normal  0.000000e+000  1.000000e+000  0.000000e+000
    outer loop
      vertex  5.000000e+001  2.000000e+000  5.000000e+001
      vertex  4.500000e+001  2.000000e+000  6.000000e+001
      vertex  4.750001e+001  2.000000e+000  5.933014e+001
    endloop
  endfacet
  facet normal  0.000000e+000  9.999999e-001  0.000000e+000
    outer loop
      vertex  5.000000e+001  2.000000e+000  5.000000e+001
      vertex  4.750001e+001  2.000000e+000  5.933014e+001
      vertex  5.000000e+001  2.000000e+000  5.500000e+001
    endloop
  endfacet
  facet normal  0.000000e+000  1.000000e+000  0.000000e+000
    outer loop
      vertex  5.000000e+001  2.000000e+000  5.500000e+001
      vertex  4.750001e+001  2.000000e+000  5.933014e+001
      vertex  4.933014e+001  2.000000e+000  5.750001e+001
    endloop
  endfacet
  facet normal  0.000000e+000  9.999999e-001  0.000000e+000
    outer loop
      vertex -1.233014e+001  2.000000e+000  5.750001e+001
      vertex -1.050001e+001  2.000000e+000  5.933014e+001
      vertex -1.300000e+001  2.000000e+000  5.500000e+001
    endloop
  endfacet
  facet normal  -0.000000e+000  1.000000e+000  0.000000e+000
    outer loop
      vertex -1.300000e+001  2.000000e+000  5.500000e+001
      vertex -1.050001e+001  2.000000e+000  5.933014e+001
      vertex -6.081560e+000  2.000000e+000  2.332870e+001
    endloop
  endfacet
  facet normal  0.000000e+000  9.999999e-001  0.000000e+000
    outer loop
      vertex -1.300000e+001  2.000000e+000  5.500000e+001
      vertex -6.081560e+000  2.000000e+000  2.332870e+001
      vertex -1.300000e+001  2.000000e+000  2.000000e+001
    endloop
  endfacet
  facet normal  0.000000e+000  1.000000e+000  0.000000e+000
    outer loop
      vertex -1.300000e+001  2.000000e+000  2.000000e+001
      vertex -6.081560e+000  2.000000e+000  2.332870e+001
      vertex -7.831560e+000  2.000000e+000  2.205725e+001
    endloop
  endfacet
  facet normal  0.000000e+000  1.000000e+000  0.000000e+000
    outer loop
      vertex -1.300000e+001  2.000000e+000  2.000000e+001
      vertex -7.831560e+000  2.000000e+000  2.205725e+001
      vertex -8.500000e+000  2.000000e+000  2.000000e+001
    endloop
  endfacet
  facet normal  0.000000e+000  1.000000e+000  0.000000e+000
    outer loop
      vertex  7.704076e+001  2.000000e+000  4.158749e+001
      vertex  6.510696e+001  2.000000e+000  4.140239e+001
      vertex  7.312328e+001  2.000000e+000  4.293581e+001
    endloop
  endfacet
  facet normal  0.000000e+000  1.000000e+000  0.000000e+000
    outer loop
      vertex  7.312328e+001  2.000000e+000  4.293581e+001
      vertex  6.510696e+001  2.000000e+000  4.140239e+001
      vertex  6.898075e+001  2.000000e+000  4.287156e+001
    endloop
  endfacet
  facet normal  0.000000e+000  1.000000e+000  0.000000e+000
    outer loop
      vertex -1.300000e+001  2.000000e+000  2.000000e+001
      vertex -8.500000e+000  2.000000e+000  2.000000e+001
      vertex -1.246502e+001  2.000000e+000  1.712363e+001
    endloop
  endfacet
  facet normal  0.000000e+000  1.000000e+000  0.000000e+000
    outer loop
      vertex -1.246502e+001  2.000000e+000  1.712363e+001
      vertex -8.500000e+000  2.000000e+000  2.000000e+001
      vertex -7.831560e+000  2.000000e+000  1.794275e+001
    endloop
  endfacet
  facet normal  0.000000e+000  9.999999e-001  0.000000e+000
    outer loop
      vertex -1.246502e+001  2.000000e+000  1.712363e+001
      vertex -7.831560e+000  2.000000e+000  1.794275e+001
      vertex -6.081560e+000  2.000000e+000  1.667130e+001
    endloop
  endfacet
  facet normal  0.000000e+000 -1.000000e+000  0.000000e+000
    outer loop
      vertex -2.168441e+000  0.000000e+000  2.205725e+001
      vertex -1.500000e+000  0.000000e+000  2.000000e+001
      vertex  8.026624e+001  0.000000e+000  3.898731e+001
    endloop
  endfacet
  facet normal  0.000000e+000 -1.000000e+000  0.000000e+000
    outer loop
      vertex -3.918441e+000  0.000000e+000  1.667130e+001
      vertex  9.216844e+001  0.000000e+000  7.942751e+000
      vertex  9.150000e+001  0.000000e+000  1.000000e+001
    endloop
  endfacet
  facet normal  0.000000e+000 -1.000000e+000  0.000000e+000
    outer loop
      vertex  9.216844e+001  0.000000e+000  1.205725e+001
      vertex -3.918441e+000  0.000000e+000  1.667130e+001
      vertex  9.150000e+001  0.000000e+000  1.000000e+001
    endloop
  endfacet
  facet normal  -0.000000e+000 -1.000000e+000  0.000000e+000
    outer loop
      vertex  9.735306e+001  0.000000e+000  2.353881e+000
      vertex  1.001339e+002  0.000000e+000  3.864612e+000
      vertex  1.021114e+002  0.000000e+000  6.335478e+000
    endloop
  endfacet
  facet normal  0.000000e+000 -1.000000e+000  0.000000e+000
    outer loop
      vertex -2.168441e+000  0.000000e+000  1.794275e+001
      vertex -3.918441e+000  0.000000e+000  1.667130e+001
      vertex  9.391844e+001  0.000000e+000  1.332870e+001
    endloop
  endfacet
  facet normal  -0.000000e+000 -1.000000e+000  0.000000e+000
    outer loop
      vertex  9.216844e+001  0.000000e+000  1.205725e+001
      vertex  9.391844e+001  0.000000e+000  1.332870e+001
      vertex -3.918441e+000  0.000000e+000  1.667130e+001
    endloop
  endfacet
  facet normal  0.000000e+000 -1.000000e+000  0.000000e+000
    outer loop
      vertex -1.050001e+001  0.000000e+000  5.933014e+001
      vertex -6.081560e+000  0.000000e+000  2.332870e+001
      vertex -8.000000e+000  0.000000e+000  6.000000e+001
    endloop
  endfacet
  facet normal  0.000000e+000 -1.000000e+000  0.000000e+000
    outer loop
      vertex -1.246502e+001  0.000000e+000  1.712363e+001
      vertex -1.093162e+001  0.000000e+000  1.463196e+001
      vertex -6.081560e+000  0.000000e+000  1.667130e+001
    endloop
  endfacet
  facet normal  -0.000000e+000 -1.000000e+000  0.000000e+000
    outer loop
      vertex  9.420397e+001  0.000000e+000  2.039702e+000
      vertex  9.735306e+001  0.000000e+000  2.353881e+000
      vertex  1.021114e+002  0.000000e+000  6.335478e+000
    endloop
  endfacet
  facet normal  -0.000000e+000 -1.000000e+000  0.000000e+000
    outer loop
      vertex  9.420397e+001  0.000000e+000  2.039702e+000
      vertex  1.021114e+002  0.000000e+000  6.335478e+000
      vertex  9.608156e+001  0.000000e+000  6.671302e+000
    endloop
  endfacet
  facet normal  -0.000000e+000 -1.000000e+000  0.000000e+000
    outer loop
      vertex  9.420397e+001  0.000000e+000  2.039702e+000
      vertex  9.608156e+001  0.000000e+000  6.671302e+000
      vertex  9.391844e+001  0.000000e+000  6.671302e+000
    endloop
  endfacet
  facet normal  -0.000000e+000 -1.000000e+000  -0.000000e+000
    outer loop
      vertex  9.420397e+001  0.000000e+000  2.039702e+000
      vertex  9.391844e+001  0.000000e+000  6.671302e+000
      vertex  9.216844e+001  0.000000e+000  7.942751e+000
    endloop
  endfacet
  facet normal  -0.000000e+000 -1.000000e+000  -0.000000e+000
    outer loop
      vertex  9.420397e+001  0.000000e+000  2.039702e+000
      vertex  9.216844e+001  0.000000e+000  7.942751e+000
      vertex -3.918441e+000  0.000000e+000  1.667130e+001
    endloop
  endfacet
  facet normal  0.000000e+000 -1.000000e+000  0.000000e+000
    outer loop
      vertex -3.918441e+000  0.000000e+000  2.332870e+001
      vertex -2.168441e+000  0.000000e+000  2.205725e+001
      vertex  8.026624e+001  0.000000e+000  3.898731e+001
    endloop
  endfacet
  facet normal  -0.000000e+000 -1.000000e+000  0.000000e+000
    outer loop
      vertex -3.918441e+000  0.000000e+000  2.332870e+001
      vertex  8.026624e+001  0.000000e+000  3.898731e+001
      vertex  5.834496e+001  0.000000e+000  4.013791e+001
    endloop
  endfacet
  facet normal  -0.000000e+000 -1.000000e+000  0.000000e+000
    outer loop
      vertex -3.918441e+000  0.000000e+000  2.332870e+001
      vertex  5.834496e+001  0.000000e+000  4.013791e+001
      vertex  5.505377e+001  0.000000e+000  4.130892e+001
    endloop
  endfacet
  facet normal  -0.000000e+000 -1.000000e+000  0.000000e+000
    outer loop
      vertex -3.918441e+000  0.000000e+000  2.332870e+001
      vertex  5.505377e+001  0.000000e+000  4.130892e+001
      vertex  5.236618e+001  0.000000e+000  4.354053e+001
    endloop
  endfacet
  facet normal  -0.000000e+000 -1.000000e+000  0.000000e+000
    outer loop
      vertex -3.918441e+000  0.000000e+000  2.332870e+001
      vertex  5.236618e+001  0.000000e+000  4.354053e+001
      vertex  5.061016e+001  0.000000e+000  4.656039e+001
    endloop
  endfacet
  facet normal  -0.000000e+000 -9.999999e-001  0.000000e+000
    outer loop
      vertex -3.918441e+000  0.000000e+000  2.332870e+001
      vertex  5.061016e+001  0.000000e+000  4.656039e+001
      vertex  4.500000e+001  0.000000e+000  6.000000e+001
    endloop
  endfacet
  facet normal  -0.000000e+000 -1.000000e+000  0.000000e+000
    outer loop
      vertex -3.918441e+000  0.000000e+000  2.332870e+001
      vertex  4.500000e+001  0.000000e+000  6.000000e+001
      vertex -8.000000e+000  0.000000e+000  6.000000e+001
    endloop
  endfacet
  facet normal  0.000000e+000 -1.000000e+000  0.000000e+000
    outer loop
      vertex -3.918441e+000  0.000000e+000  2.332870e+001
      vertex -8.000000e+000  0.000000e+000  6.000000e+001
      vertex -6.081560e+000  0.000000e+000  2.332870e+001
    endloop
  endfacet
  facet normal  0.000000e+000 -9.999999e-001  -0.000000e+000
    outer loop
      vertex  8.026624e+001  0.000000e+000  3.898731e+001
      vertex  7.704076e+001  0.000000e+000  4.158749e+001
      vertex  6.510696e+001  0.000000e+000  4.140239e+001
    endloop
  endfacet
  facet normal  0.000000e+000 -1.000000e+000  -0.000000e+000
    outer loop
      vertex  8.026624e+001  0.000000e+000  3.898731e+001
      vertex  6.510696e+001  0.000000e+000  4.140239e+001
      vertex  6.183812e+001  0.000000e+000  4.017039e+001
    endloop
  endfacet
  facet normal  0.000000e+000 -1.000000e+000  -0.000000e+000
    outer loop
      vertex  8.026624e+001  0.000000e+000  3.898731e+001
      vertex  6.183812e+001  0.000000e+000  4.017039e+001
      vertex  5.834496e+001  0.000000e+000  4.013791e+001
    endloop
  endfacet
  facet normal  0.000000e+000 -1.000000e+000  0.000000e+000
    outer loop
      vertex  9.608156e+001  0.000000e+000  6.671302e+000
      vertex  1.021114e+002  0.000000e+000  6.335478e+000
      vertex  9.783156e+001  0.000000e+000  7.942751e+000
    endloop
  endfacet
  facet normal  0.000000e+000 -1.000000e+000  0.000000e+000
    outer loop
      vertex  9.783156e+001  0.000000e+000  7.942751e+000
      vertex  1.021114e+002  0.000000e+000  6.335478e+000
      vertex  1.029759e+002  0.000000e+000  9.379809e+000
    endloop
  endfacet
  facet normal  -0.000000e+000 -1.000000e+000  0.000000e+000
    outer loop
      vertex  9.783156e+001  0.000000e+000  7.942751e+000
      vertex  1.029759e+002  0.000000e+000  9.379809e+000
      vertex  9.850000e+001  0.000000e+000  1.000000e+001
    endloop
  endfacet
  facet normal  0.000000e+000 -1.000000e+000  0.000000e+000
    outer loop
      vertex  9.850000e+001  0.000000e+000  1.000000e+001
      vertex  1.029759e+002  0.000000e+000  9.379809e+000
      vertex  1.025923e+002  0.000000e+000  1.252120e+001
    endloop
  endfacet
  facet normal  0.000000e+000 -1.000000e+000  0.000000e+000
    outer loop
      vertex  9.850000e+001  0.000000e+000  1.000000e+001
      vertex  1.025923e+002  0.000000e+000  1.252120e+001
      vertex  9.783156e+001  0.000000e+000  1.205725e+001
    endloop
  endfacet
  facet normal  0.000000e+000 -1.000000e+000  0.000000e+000
    outer loop
      vertex  9.783156e+001  0.000000e+000  1.205725e+001
      vertex  1.025923e+002  0.000000e+000  1.252120e+001
      vertex  1.010206e+002  0.000000e+000  1.526804e+001
    endloop
  endfacet
  facet normal  0.000000e+000 -1.000000e+000  0.000000e+000
    outer loop
      vertex  9.783156e+001  0.000000e+000  1.205725e+001
      vertex  1.010206e+002  0.000000e+000  1.526804e+001
      vertex  9.608156e+001  0.000000e+000  1.332870e+001
    endloop
  endfacet
  facet normal  0.000000e+000 -1.000000e+000  0.000000e+000
    outer loop
      vertex  9.608156e+001  0.000000e+000  1.332870e+001
      vertex  1.010206e+002  0.000000e+000  1.526804e+001
      vertex  8.026624e+001  0.000000e+000  3.898731e+001
    endloop
  endfacet
  facet normal  0.000000e+000 -1.000000e+000  0.000000e+000
    outer loop
      vertex  9.608156e+001  0.000000e+000  1.332870e+001
      vertex  8.026624e+001  0.000000e+000  3.898731e+001
      vertex  9.391844e+001  0.000000e+000  1.332870e+001
    endloop
  endfacet
  facet normal  0.000000e+000 -1.000000e+000  0.000000e+000
    outer loop
      vertex  9.391844e+001  0.000000e+000  1.332870e+001
      vertex  8.026624e+001  0.000000e+000  3.898731e+001
      vertex -1.500000e+000  0.000000e+000  2.000000e+001
    endloop
  endfacet
  facet normal  0.000000e+000 -1.000000e+000  -0.000000e+000
    outer loop
      vertex  9.391844e+001  0.000000e+000  1.332870e+001
      vertex -1.500000e+000  0.000000e+000  2.000000e+001
      vertex -2.168441e+000  0.000000e+000  1.794275e+001
    endloop
  endfacet
  facet normal  0.000000e+000 -1.000000e+000  0.000000e+000
    outer loop
      vertex -8.604895e+000  0.000000e+000  1.285824e+001
      vertex -5.796030e+000  0.000000e+000  1.203970e+001
      vertex -1.093162e+001  0.000000e+000  1.463196e+001
    endloop
  endfacet
  facet normal  0.000000e+000 -9.999999e-001  0.000000e+000
    outer loop
      vertex -1.093162e+001  0.000000e+000  1.463196e+001
      vertex -5.796030e+000  0.000000e+000  1.203970e+001
      vertex -6.081560e+000  0.000000e+000  1.667130e+001
    endloop
  endfacet
  facet normal  0.000000e+000 -1.000000e+000  0.000000e+000
    outer loop
      vertex -5.796030e+000  0.000000e+000  1.203970e+001
      vertex  9.420397e+001  0.000000e+000  2.039702e+000
      vertex -6.081560e+000  0.000000e+000  1.667130e+001
    endloop
  endfacet
  facet normal  0.000000e+000 -1.000000e+000  0.000000e+000
    outer loop
      vertex -6.081560e+000  0.000000e+000  1.667130e+001
      vertex  9.420397e+001  0.000000e+000  2.039702e+000
      vertex -3.918441e+000  0.000000e+000  1.667130e+001
    endloop
  endfacet
  facet normal  -0.000000e+000 -1.000000e+000  -0.000000e+000
    outer loop
      vertex  5.061016e+001  0.000000e+000  4.656039e+001
      vertex  5.000000e+001  0.000000e+000  5.000000e+001
      vertex  4.500000e+001  0.000000e+000  6.000000e+001
    endloop
  endfacet
  facet normal  0.000000e+000 -1.000000e+000  0.000000e+000
    outer loop
      vertex  4.500000e+001  0.000000e+000  6.000000e+001
      vertex  5.000000e+001  0.000000e+000  5.000000e+001
      vertex  4.750001e+001  0.000000e+000  5.933014e+001
    endloop
  endfacet
  facet normal  -0.000000e+000 -9.999999e-001  -0.000000e+000
    outer loop
      vertex  5.000000e+001  0.000000e+000  5.000000e+001
      vertex  5.000000e+001  0.000000e+000  5.500000e+001
      vertex  4.750001e+001  0.000000e+000  5.933014e+001
    endloop
  endfacet
  facet normal  0.000000e+000 -1.000000e+000  0.000000e+000
    outer loop
      vertex  4.750001e+001  0.000000e+000  5.933014e+001
      vertex  5.000000e+001  0.000000e+000  5.500000e+001
      vertex  4.933014e+001  0.000000e+000  5.750001e+001
    endloop
  endfacet
  facet normal  0.000000e+000 -1.000000e+000  0.000000e+000
    outer loop
      vertex -8.500000e+000  0.000000e+000  2.000000e+001
      vertex -7.831560e+000  0.000000e+000  2.205725e+001
      vertex -1.300000e+001  0.000000e+000  2.000000e+001
    endloop
  endfacet
  facet normal  0.000000e+000 -1.000000e+000  0.000000e+000
    outer loop
      vertex -1.300000e+001  0.000000e+000  2.000000e+001
      vertex -7.831560e+000  0.000000e+000  2.205725e+001
      vertex -6.081560e+000  0.000000e+000  2.332870e+001
    endloop
  endfacet
  facet normal  -0.000000e+000 -9.999999e-001  0.000000e+000
    outer loop
      vertex -1.300000e+001  0.000000e+000  2.000000e+001
      vertex -6.081560e+000  0.000000e+000  2.332870e+001
      vertex -1.300000e+001  0.000000e+000  5.500000e+001
    endloop
  endfacet
  facet normal  0.000000e+000 -1.000000e+000  0.000000e+000
    outer loop
      vertex -1.300000e+001  0.000000e+000  5.500000e+001
      vertex -6.081560e+000  0.000000e+000  2.332870e+001
      vertex -1.050001e+001  0.000000e+000  5.933014e+001
    endloop
  endfacet
  facet normal  0.000000e+000 -9.999999e-001  0.000000e+000
    outer loop
      vertex -1.300000e+001  0.000000e+000  5.500000e+001
      vertex -1.050001e+001  0.000000e+000  5.933014e+001
      vertex -1.233014e+001  0.000000e+000  5.750001e+001
    endloop
  endfacet
  facet normal  0.000000e+000 -1.000000e+000  -0.000000e+000
    outer loop
      vertex  7.704076e+001  0.000000e+000  4.158749e+001
      vertex  7.312328e+001  0.000000e+000  4.293581e+001
      vertex  6.510696e+001  0.000000e+000  4.140239e+001
    endloop
  endfacet
  facet normal  0.000000e+000 -1.000000e+000  0.000000e+000
    outer loop
      vertex  6.510696e+001  0.000000e+000  4.140239e+001
      vertex  7.312328e+001  0.000000e+000  4.293581e+001
      vertex  6.898075e+001  0.000000e+000  4.287156e+001
    endloop
  endfacet
  facet normal  0.000000e+000 -9.999999e-001  -0.000000e+000
    outer loop
      vertex -6.081560e+000  0.000000e+000  1.667130e+001
      vertex -7.831560e+000  0.000000e+000  1.794275e+001
      vertex -1.246502e+001  0.000000e+000  1.712363e+001
    endloop
  endfacet
  facet normal  0.000000e+000 -1.000000e+000  0.000000e+000
    outer loop
      vertex -1.246502e+001  0.000000e+000  1.712363e+001
      vertex -7.831560e+000  0.000000e+000  1.794275e+001
      vertex -8.500000e+000  0.000000e+000  2.000000e+001
    endloop
  endfacet
  facet normal  -0.000000e+000 -1.000000e+000  0.000000e+000
    outer loop
      vertex -1.246502e+001  0.000000e+000  1.712363e+001
      vertex -8.500000e+000  0.000000e+000  2.000000e+001
      vertex -1.300000e+001  0.000000e+000  2.000000e+001
    endloop
  endfacet
  facet normal -5.877854e-001  -0.000000e+000 -8.090169e-001
    outer loop
      vertex  9.608156e+001  0.000000e+000  1.332870e+001
      vertex  9.783156e+001  2.000000e+000  1.205725e+001
      vertex  9.783156e+001  0.000000e+000  1.205725e+001
    endloop
  endfacet
  facet normal -9.510564e-001  0.000000e+000 -3.090176e-001
    outer loop
      vertex  9.783156e+001  0.000000e+000  1.205725e+001
      vertex  9.783156e+001  2.000000e+000  1.205725e+001
      vertex  9.850000e+001  2.000000e+000  1.000000e+001
    endloop
  endfacet
  facet normal -9.510564e-001  -0.000000e+000 -3.090176e-001
    outer loop
      vertex  9.783156e+001  0.000000e+000  1.205725e+001
      vertex  9.850000e+001  2.000000e+000  1.000000e+001
      vertex  9.850000e+001  0.000000e+000  1.000000e+001
    endloop
  endfacet
  facet normal -5.877854e-001  0.000000e+000 -8.090169e-001
    outer loop
      vertex  9.783156e+001  2.000000e+000  1.205725e+001
      vertex  9.608156e+001  0.000000e+000  1.332870e+001
      vertex  9.608156e+001  2.000000e+000  1.332870e+001
    endloop
  endfacet
  facet normal  0.000000e+000  -0.000000e+000 -1.000000e+000
    outer loop
      vertex  9.608156e+001  2.000000e+000  1.332870e+001
      vertex  9.608156e+001  0.000000e+000  1.332870e+001
      vertex  9.391844e+001  0.000000e+000  1.332870e+001
    endloop
  endfacet
  facet normal  0.000000e+000  0.000000e+000 -1.000000e+000
    outer loop
      vertex  9.608156e+001  2.000000e+000  1.332870e+001
      vertex  9.391844e+001  0.000000e+000  1.332870e+001
      vertex  9.391844e+001  2.000000e+000  1.332870e+001
    endloop
  endfacet
  facet normal  5.877854e-001  0.000000e+000 -8.090169e-001
    outer loop
      vertex  9.391844e+001  2.000000e+000  1.332870e+001
      vertex  9.391844e+001  0.000000e+000  1.332870e+001
      vertex  9.216844e+001  0.000000e+000  1.205725e+001
    endloop
  endfacet
  facet normal  5.877854e-001  0.000000e+000 -8.090169e-001
    outer loop
      vertex  9.391844e+001  2.000000e+000  1.332870e+001
      vertex  9.216844e+001  0.000000e+000  1.205725e+001
      vertex  9.216844e+001  2.000000e+000  1.205725e+001
    endloop
  endfacet
  facet normal  9.510564e-001  0.000000e+000 -3.090176e-001
    outer loop
      vertex  9.216844e+001  2.000000e+000  1.205725e+001
      vertex  9.216844e+001  0.000000e+000  1.205725e+001
      vertex  9.150000e+001  0.000000e+000  1.000000e+001
    endloop
  endfacet
  facet normal  9.510564e-001  0.000000e+000 -3.090176e-001
    outer loop
      vertex  9.216844e+001  2.000000e+000  1.205725e+001
      vertex  9.150000e+001  0.000000e+000  1.000000e+001
      vertex  9.150000e+001  2.000000e+000  1.000000e+001
    endloop
  endfacet
  facet normal  5.877851e-001  0.000000e+000  8.090170e-001
    outer loop
      vertex  9.391844e+001  0.000000e+000  6.671302e+000
      vertex  9.216844e+001  2.000000e+000  7.942751e+000
      vertex  9.216844e+001  0.000000e+000  7.942751e+000
    endloop
  endfacet
  facet normal  9.510564e-001  -0.000000e+000  3.090175e-001
    outer loop
      vertex  9.216844e+001  0.000000e+000  7.942751e+000
      vertex  9.216844e+001  2.000000e+000  7.942751e+000
      vertex  9.150000e+001  2.000000e+000  1.000000e+001
    endloop
  endfacet
  facet normal  9.510564e-001  0.000000e+000  3.090175e-001
    outer loop
      vertex  9.216844e+001  0.000000e+000  7.942751e+000
      vertex  9.150000e+001  2.000000e+000  1.000000e+001
      vertex  9.150000e+001  0.000000e+000  1.000000e+001
    endloop
  endfacet
  facet normal  5.877851e-001  -0.000000e+000  8.090170e-001
    outer loop
      vertex  9.216844e+001  2.000000e+000  7.942751e+000
      vertex  9.391844e+001  0.000000e+000  6.671302e+000
      vertex  9.391844e+001  2.000000e+000  6.671302e+000
    endloop
  endfacet
  facet normal  0.000000e+000  0.000000e+000  1.000000e+000
    outer loop
      vertex  9.391844e+001  2.000000e+000  6.671302e+000
      vertex  9.391844e+001  0.000000e+000  6.671302e+000
      vertex  9.608156e+001  0.000000e+000  6.671302e+000
    endloop
  endfacet
  facet normal  0.000000e+000  -0.000000e+000  1.000000e+000
    outer loop
      vertex  9.391844e+001  2.000000e+000  6.671302e+000
      vertex  9.608156e+001  0.000000e+000  6.671302e+000
      vertex  9.608156e+001  2.000000e+000  6.671302e+000
    endloop
  endfacet
  facet normal -5.877851e-001  0.000000e+000  8.090170e-001
    outer loop
      vertex  9.608156e+001  2.000000e+000  6.671302e+000
      vertex  9.608156e+001  0.000000e+000  6.671302e+000
      vertex  9.783156e+001  0.000000e+000  7.942751e+000
    endloop
  endfacet
  facet normal -5.877851e-001  0.000000e+000  8.090170e-001
    outer loop
      vertex  9.608156e+001  2.000000e+000  6.671302e+000
      vertex  9.783156e+001  0.000000e+000  7.942751e+000
      vertex  9.783156e+001  2.000000e+000  7.942751e+000
    endloop
  endfacet
  facet normal -9.510564e-001  0.000000e+000  3.090175e-001
    outer loop
      vertex  9.783156e+001  2.000000e+000  7.942751e+000
      vertex  9.783156e+001  0.000000e+000  7.942751e+000
      vertex  9.850000e+001  0.000000e+000  1.000000e+001
    endloop
  endfacet
  facet normal -9.510564e-001  0.000000e+000  3.090175e-001
    outer loop
      vertex  9.783156e+001  2.000000e+000  7.942751e+000
      vertex  9.850000e+001  0.000000e+000  1.000000e+001
      vertex  9.850000e+001  2.000000e+000  1.000000e+001
    endloop
  endfacet
  facet normal  5.877849e-001  0.000000e+000  8.090173e-001
    outer loop
      vertex -6.081560e+000  0.000000e+000  1.667130e+001
      vertex -7.831560e+000  2.000000e+000  1.794275e+001
      vertex -7.831560e+000  0.000000e+000  1.794275e+001
    endloop
  endfacet
  facet normal  9.510565e-001  -0.000000e+000  3.090168e-001
    outer loop
      vertex -7.831560e+000  0.000000e+000  1.794275e+001
      vertex -7.831560e+000  2.000000e+000  1.794275e+001
      vertex -8.500000e+000  2.000000e+000  2.000000e+001
    endloop
  endfacet
  facet normal  9.510565e-001  0.000000e+000  3.090168e-001
    outer loop
      vertex -7.831560e+000  0.000000e+000  1.794275e+001
      vertex -8.500000e+000  2.000000e+000  2.000000e+001
      vertex -8.500000e+000  0.000000e+000  2.000000e+001
    endloop
  endfacet
  facet normal  5.877849e-001  -0.000000e+000  8.090173e-001
    outer loop
      vertex -7.831560e+000  2.000000e+000  1.794275e+001
      vertex -6.081560e+000  0.000000e+000  1.667130e+001
      vertex -6.081560e+000  2.000000e+000  1.667130e+001
    endloop
  endfacet
  facet normal  0.000000e+000  0.000000e+000  1.000000e+000
    outer loop
      vertex -6.081560e+000  2.000000e+000  1.667130e+001
      vertex -6.081560e+000  0.000000e+000  1.667130e+001
      vertex -3.918441e+000  0.000000e+000  1.667130e+001
    endloop
  endfacet
  facet normal  0.000000e+000  -0.000000e+000  1.000000e+000
    outer loop
      vertex -6.081560e+000  2.000000e+000  1.667130e+001
      vertex -3.918441e+000  0.000000e+000  1.667130e+001
      vertex -3.918441e+000  2.000000e+000  1.667130e+001
    endloop
  endfacet
  facet normal -5.877849e-001  0.000000e+000  8.090173e-001
    outer loop
      vertex -3.918441e+000  2.000000e+000  1.667130e+001
      vertex -3.918441e+000  0.000000e+000  1.667130e+001
      vertex -2.168441e+000  0.000000e+000  1.794275e+001
    endloop
  endfacet
  facet normal -5.877849e-001  0.000000e+000  8.090173e-001
    outer loop
      vertex -3.918441e+000  2.000000e+000  1.667130e+001
      vertex -2.168441e+000  0.000000e+000  1.794275e+001
      vertex -2.168441e+000  2.000000e+000  1.794275e+001
    endloop
  endfacet
  facet normal -9.510565e-001  0.000000e+000  3.090169e-001
    outer loop
      vertex -2.168441e+000  2.000000e+000  1.794275e+001
      vertex -2.168441e+000  0.000000e+000  1.794275e+001
      vertex -1.500000e+000  0.000000e+000  2.000000e+001
    endloop
  endfacet
  facet normal -9.510565e-001  0.000000e+000  3.090169e-001
    outer loop
      vertex -2.168441e+000  2.000000e+000  1.794275e+001
      vertex -1.500000e+000  0.000000e+000  2.000000e+001
      vertex -1.500000e+000  2.000000e+000  2.000000e+001
    endloop
  endfacet
  facet normal -5.877849e-001  -0.000000e+000 -8.090173e-001
    outer loop
      vertex -3.918441e+000  0.000000e+000  2.332870e+001
      vertex -2.168441e+000  2.000000e+000  2.205725e+001
      vertex -2.168441e+000  0.000000e+000  2.205725e+001
    endloop
  endfacet
  facet normal -9.510565e-001  0.000000e+000 -3.090169e-001
    outer loop
      vertex -2.168441e+000  0.000000e+000  2.205725e+001
      vertex -2.168441e+000  2.000000e+000  2.205725e+001
      vertex -1.500000e+000  2.000000e+000  2.000000e+001
    endloop
  endfacet
  facet normal -9.510565e-001  -0.000000e+000 -3.090169e-001
    outer loop
      vertex -2.168441e+000  0.000000e+000  2.205725e+001
      vertex -1.500000e+000  2.000000e+000  2.000000e+001
      vertex -1.500000e+000  0.000000e+000  2.000000e+001
    endloop
  endfacet
  facet normal -5.877849e-001  0.000000e+000 -8.090173e-001
    outer loop
      vertex -2.168441e+000  2.000000e+000  2.205725e+001
      vertex -3.918441e+000  0.000000e+000  2.332870e+001
      vertex -3.918441e+000  2.000000e+000  2.332870e+001
    endloop
  endfacet
  facet normal  0.000000e+000  -0.000000e+000 -1.000000e+000
    outer loop
      vertex -3.918441e+000  2.000000e+000  2.332870e+001
      vertex -3.918441e+000  0.000000e+000  2.332870e+001
      vertex -6.081560e+000  0.000000e+000  2.332870e+001
    endloop
  endfacet
  facet normal  0.000000e+000  0.000000e+000 -1.000000e+000
    outer loop
      vertex -3.918441e+000  2.000000e+000  2.332870e+001
      vertex -6.081560e+000  0.000000e+000  2.332870e+001
      vertex -6.081560e+000  2.000000e+000  2.332870e+001
    endloop
  endfacet
  facet normal  5.877849e-001  0.000000e+000 -8.090173e-001
    outer loop
      vertex -6.081560e+000  2.000000e+000  2.332870e+001
      vertex -6.081560e+000  0.000000e+000  2.332870e+001
      vertex -7.831560e+000  0.000000e+000  2.205725e+001
    endloop
  endfacet
  facet normal  5.877849e-001  0.000000e+000 -8.090173e-001
    outer loop
      vertex -6.081560e+000  2.000000e+000  2.332870e+001
      vertex -7.831560e+000  0.000000e+000  2.205725e+001
      vertex -7.831560e+000  2.000000e+000  2.205725e+001
    endloop
  endfacet
  facet normal  9.510565e-001  0.000000e+000 -3.090168e-001
    outer loop
      vertex -7.831560e+000  2.000000e+000  2.205725e+001
      vertex -7.831560e+000  0.000000e+000  2.205725e+001
      vertex -8.500000e+000  0.000000e+000  2.000000e+001
    endloop
  endfacet
  facet normal  9.510565e-001  0.000000e+000 -3.090168e-001
    outer loop
      vertex -7.831560e+000  2.000000e+000  2.205725e+001
      vertex -8.500000e+000  0.000000e+000  2.000000e+001
      vertex -8.500000e+000  2.000000e+000  2.000000e+001
    endloop
  endfacet
  facet normal -1.000000e+000  0.000000e+000  0.000000e+000
    outer loop
      vertex -1.300000e+001  2.000000e+000  5.500000e+001
      vertex -1.300000e+001  2.000000e+000  2.000000e+001
      vertex -1.300000e+001  0.000000e+000  5.500000e+001
    endloop
  endfacet
  facet normal -1.000000e+000  0.000000e+000  0.000000e+000
    outer loop
      vertex -1.300000e+001  0.000000e+000  5.500000e+001
      vertex -1.300000e+001  2.000000e+000  2.000000e+001
      vertex -1.300000e+001  0.000000e+000  2.000000e+001
    endloop
  endfacet
  facet normal -9.831397e-001  -0.000000e+000 -1.828562e-001
    outer loop
      vertex -1.300000e+001  0.000000e+000  2.000000e+001
      vertex -1.300000e+001  2.000000e+000  2.000000e+001
      vertex -1.246502e+001  0.000000e+000  1.712363e+001
    endloop
  endfacet
  facet normal -9.831397e-001  0.000000e+000 -1.828562e-001
    outer loop
      vertex -1.246502e+001  0.000000e+000  1.712363e+001
      vertex -1.300000e+001  2.000000e+000  2.000000e+001
      vertex -1.246502e+001  2.000000e+000  1.712363e+001
    endloop
  endfacet
  facet normal -8.516489e-001  -0.000000e+000 -5.241127e-001
    outer loop
      vertex -1.246502e+001  0.000000e+000  1.712363e+001
      vertex -1.246502e+001  2.000000e+000  1.712363e+001
      vertex -1.093162e+001  0.000000e+000  1.463196e+001
    endloop
  endfacet
  facet normal -8.516489e-001  0.000000e+000 -5.241127e-001
    outer loop
      vertex -1.093162e+001  0.000000e+000  1.463196e+001
      vertex -1.246502e+001  2.000000e+000  1.712363e+001
      vertex -1.093162e+001  2.000000e+000  1.463196e+001
    endloop
  endfacet
  facet normal -6.062536e-001  -0.000000e+000 -7.952713e-001
    outer loop
      vertex -1.093162e+001  0.000000e+000  1.463196e+001
      vertex -1.093162e+001  2.000000e+000  1.463196e+001
      vertex -8.604895e+000  0.000000e+000  1.285824e+001
    endloop
  endfacet
  facet normal -6.062536e-001  0.000000e+000 -7.952713e-001
    outer loop
      vertex -8.604895e+000  0.000000e+000  1.285824e+001
      vertex -1.093162e+001  2.000000e+000  1.463196e+001
      vertex -8.604895e+000  2.000000e+000  1.285824e+001
    endloop
  endfacet
  facet normal -2.797749e-001  -0.000000e+000 -9.600657e-001
    outer loop
      vertex -8.604895e+000  0.000000e+000  1.285824e+001
      vertex -8.604895e+000  2.000000e+000  1.285824e+001
      vertex -5.796030e+000  0.000000e+000  1.203970e+001
    endloop
  endfacet
  facet normal -2.797749e-001  0.000000e+000 -9.600657e-001
    outer loop
      vertex -5.796030e+000  0.000000e+000  1.203970e+001
      vertex -8.604895e+000  2.000000e+000  1.285824e+001
      vertex -5.796030e+000  2.000000e+000  1.203970e+001
    endloop
  endfacet
  facet normal -9.950371e-002  0.000000e+000 -9.950371e-001
    outer loop
      vertex -5.796030e+000  2.000000e+000  1.203970e+001
      vertex  9.420397e+001  2.000000e+000  2.039702e+000
      vertex -5.796030e+000  0.000000e+000  1.203970e+001
    endloop
  endfacet
  facet normal -9.950371e-002  0.000000e+000 -9.950371e-001
    outer loop
      vertex -5.796030e+000  0.000000e+000  1.203970e+001
      vertex  9.420397e+001  2.000000e+000  2.039702e+000
      vertex  9.420397e+001  0.000000e+000  2.039702e+000
    endloop
  endfacet
  facet normal  9.927544e-002  0.000000e+000 -9.950600e-001
    outer loop
      vertex  9.420397e+001  0.000000e+000  2.039702e+000
      vertex  9.420397e+001  2.000000e+000  2.039702e+000
      vertex  9.735306e+001  0.000000e+000  2.353881e+000
    endloop
  endfacet
  facet normal  9.927544e-002  0.000000e+000 -9.950600e-001
    outer loop
      vertex  9.735306e+001  0.000000e+000  2.353881e+000
      vertex  9.420397e+001  2.000000e+000  2.039702e+000
      vertex  9.735306e+001  2.000000e+000  2.353881e+000
    endloop
  endfacet
  facet normal  4.773663e-001  0.000000e+000 -8.787044e-001
    outer loop
      vertex  9.735306e+001  0.000000e+000  2.353881e+000
      vertex  9.735306e+001  2.000000e+000  2.353881e+000
      vertex  1.001339e+002  0.000000e+000  3.864612e+000
    endloop
  endfacet
  facet normal  4.773663e-001  0.000000e+000 -8.787044e-001
    outer loop
      vertex  1.001339e+002  0.000000e+000  3.864612e+000
      vertex  9.735306e+001  2.000000e+000  2.353881e+000
      vertex  1.001339e+002  2.000000e+000  3.864612e+000
    endloop
  endfacet
  facet normal  7.807536e-001  0.000000e+000 -6.248389e-001
    outer loop
      vertex  1.001339e+002  0.000000e+000  3.864612e+000
      vertex  1.001339e+002  2.000000e+000  3.864612e+000
      vertex  1.021114e+002  0.000000e+000  6.335478e+000
    endloop
  endfacet
  facet normal  7.807536e-001  0.000000e+000 -6.248389e-001
    outer loop
      vertex  1.021114e+002  0.000000e+000  6.335478e+000
      vertex  1.001339e+002  2.000000e+000  3.864612e+000
      vertex  1.021114e+002  2.000000e+000  6.335478e+000
    endloop
  endfacet
  facet normal  9.619600e-001  0.000000e+000 -2.731905e-001
    outer loop
      vertex  1.021114e+002  0.000000e+000  6.335478e+000
      vertex  1.021114e+002  2.000000e+000  6.335478e+000
      vertex  1.029759e+002  0.000000e+000  9.379809e+000
    endloop
  endfacet
  facet normal  9.619600e-001  0.000000e+000 -2.731905e-001
    outer loop
      vertex  1.029759e+002  0.000000e+000  9.379809e+000
      vertex  1.021114e+002  2.000000e+000  6.335478e+000
      vertex  1.029759e+002  2.000000e+000  9.379809e+000
    endloop
  endfacet
  facet normal  9.926273e-001  0.000000e+000  1.212060e-001
    outer loop
      vertex  1.029759e+002  0.000000e+000  9.379809e+000
      vertex  1.029759e+002  2.000000e+000  9.379809e+000
      vertex  1.025923e+002  0.000000e+000  1.252120e+001
    endloop
  endfacet
  facet normal  9.926273e-001  -0.000000e+000  1.212060e-001
    outer loop
      vertex  1.025923e+002  0.000000e+000  1.252120e+001
      vertex  1.029759e+002  2.000000e+000  9.379809e+000
      vertex  1.025923e+002  2.000000e+000  1.252120e+001
    endloop
  endfacet
  facet normal  8.679570e-001  0.000000e+000  4.966393e-001
    outer loop
      vertex  1.025923e+002  0.000000e+000  1.252120e+001
      vertex  1.025923e+002  2.000000e+000  1.252120e+001
      vertex  1.010206e+002  0.000000e+000  1.526804e+001
    endloop
  endfacet
  facet normal  8.679570e-001  -0.000000e+000  4.966393e-001
    outer loop
      vertex  1.010206e+002  0.000000e+000  1.526804e+001
      vertex  1.025923e+002  2.000000e+000  1.252120e+001
      vertex  1.010206e+002  2.000000e+000  1.526804e+001
    endloop
  endfacet
  facet normal  7.525766e-001  0.000000e+000  6.585047e-001
    outer loop
      vertex  1.010206e+002  2.000000e+000  1.526804e+001
      vertex  8.026624e+001  2.000000e+000  3.898731e+001
      vertex  1.010206e+002  0.000000e+000  1.526804e+001
    endloop
  endfacet
  facet normal  7.525766e-001  0.000000e+000  6.585047e-001
    outer loop
      vertex  1.010206e+002  0.000000e+000  1.526804e+001
      vertex  8.026624e+001  2.000000e+000  3.898731e+001
      vertex  8.026624e+001  0.000000e+000  3.898731e+001
    endloop
  endfacet
  facet normal  6.276040e-001  0.000000e+000  7.785327e-001
    outer loop
      vertex  8.026624e+001  0.000000e+000  3.898731e+001
      vertex  8.026624e+001  2.000000e+000  3.898731e+001
      vertex  7.704076e+001  0.000000e+000  4.158749e+001
    endloop
  endfacet
  facet normal  6.276040e-001  -0.000000e+000  7.785327e-001
    outer loop
      vertex  7.704076e+001  0.000000e+000  4.158749e+001
      vertex  8.026624e+001  2.000000e+000  3.898731e+001
      vertex  7.704076e+001  2.000000e+000  4.158749e+001
    endloop
  endfacet
  facet normal  3.254440e-001  0.000000e+000  9.455613e-001
    outer loop
      vertex  7.704076e+001  0.000000e+000  4.158749e+001
      vertex  7.704076e+001  2.000000e+000  4.158749e+001
      vertex  7.312328e+001  0.000000e+000  4.293581e+001
    endloop
  endfacet
  facet normal  3.254440e-001  -0.000000e+000  9.455613e-001
    outer loop
      vertex  7.312328e+001  0.000000e+000  4.293581e+001
      vertex  7.704076e+001  2.000000e+000  4.158749e+001
      vertex  7.312328e+001  2.000000e+000  4.293581e+001
    endloop
  endfacet
  facet normal -1.550915e-002  0.000000e+000  9.998797e-001
    outer loop
      vertex  7.312328e+001  0.000000e+000  4.293581e+001
      vertex  7.312328e+001  2.000000e+000  4.293581e+001
      vertex  6.898075e+001  0.000000e+000  4.287156e+001
    endloop
  endfacet
  facet normal -1.550915e-002  0.000000e+000  9.998797e-001
    outer loop
      vertex  6.898075e+001  0.000000e+000  4.287156e+001
      vertex  7.312328e+001  2.000000e+000  4.293581e+001
      vertex  6.898075e+001  2.000000e+000  4.287156e+001
    endloop
  endfacet
  facet normal -3.546125e-001  0.000000e+000  9.350134e-001
    outer loop
      vertex  6.898075e+001  0.000000e+000  4.287156e+001
      vertex  6.898075e+001  2.000000e+000  4.287156e+001
      vertex  6.510696e+001  0.000000e+000  4.140239e+001
    endloop
  endfacet
  facet normal -3.546125e-001  0.000000e+000  9.350134e-001
    outer loop
      vertex  6.510696e+001  0.000000e+000  4.140239e+001
      vertex  6.898075e+001  2.000000e+000  4.287156e+001
      vertex  6.510696e+001  2.000000e+000  4.140239e+001
    endloop
  endfacet
  facet normal  6.388227e-001  0.000000e+000  7.693540e-001
    outer loop
      vertex  5.505377e+001  0.000000e+000  4.130892e+001
      vertex  5.236618e+001  2.000000e+000  4.354053e+001
      vertex  5.236618e+001  0.000000e+000  4.354053e+001
    endloop
  endfacet
  facet normal  8.644717e-001  -0.000000e+000  5.026815e-001
    outer loop
      vertex  5.236618e+001  0.000000e+000  4.354053e+001
      vertex  5.236618e+001  2.000000e+000  4.354053e+001
      vertex  5.061016e+001  2.000000e+000  4.656039e+001
    endloop
  endfacet
  facet normal  8.644717e-001  0.000000e+000  5.026815e-001
    outer loop
      vertex  5.236618e+001  0.000000e+000  4.354053e+001
      vertex  5.061016e+001  2.000000e+000  4.656039e+001
      vertex  5.061016e+001  0.000000e+000  4.656039e+001
    endloop
  endfacet
  facet normal  9.846279e-001  -0.000000e+000  1.746656e-001
    outer loop
      vertex  5.061016e+001  0.000000e+000  4.656039e+001
      vertex  5.061016e+001  2.000000e+000  4.656039e+001
      vertex  5.000000e+001  2.000000e+000  5.000000e+001
    endloop
  endfacet
  facet normal  9.846279e-001  0.000000e+000  1.746656e-001
    outer loop
      vertex  5.061016e+001  0.000000e+000  4.656039e+001
      vertex  5.000000e+001  2.000000e+000  5.000000e+001
      vertex  5.000000e+001  0.000000e+000  5.000000e+001
    endloop
  endfacet
  facet normal  6.388227e-001  -0.000000e+000  7.693540e-001
    outer loop
      vertex  5.236618e+001  2.000000e+000  4.354053e+001
      vertex  5.505377e+001  0.000000e+000  4.130892e+001
      vertex  5.505377e+001  2.000000e+000  4.130892e+001
    endloop
  endfacet
  facet normal  3.352159e-001  0.000000e+000  9.421414e-001
    outer loop
      vertex  5.505377e+001  2.000000e+000  4.130892e+001
      vertex  5.505377e+001  0.000000e+000  4.130892e+001
      vertex  5.834496e+001  0.000000e+000  4.013791e+001
    endloop
  endfacet
  facet normal  3.352159e-001  -0.000000e+000  9.421414e-001
    outer loop
      vertex  5.505377e+001  2.000000e+000  4.130892e+001
      vertex  5.834496e+001  0.000000e+000  4.013791e+001
      vertex  5.834496e+001  2.000000e+000  4.013791e+001
    endloop
  endfacet
  facet normal -9.297302e-003  0.000000e+000  9.999568e-001
    outer loop
      vertex  5.834496e+001  2.000000e+000  4.013791e+001
      vertex  5.834496e+001  0.000000e+000  4.013791e+001
      vertex  6.183812e+001  0.000000e+000  4.017039e+001
    endloop
  endfacet
  facet normal -9.297302e-003  0.000000e+000  9.999568e-001
    outer loop
      vertex  5.834496e+001  2.000000e+000  4.013791e+001
      vertex  6.183812e+001  0.000000e+000  4.017039e+001
      vertex  6.183812e+001  2.000000e+000  4.017039e+001
    endloop
  endfacet
  facet normal -3.526753e-001  0.000000e+000  9.357457e-001
    outer loop
      vertex  6.183812e+001  2.000000e+000  4.017039e+001
      vertex  6.183812e+001  0.000000e+000  4.017039e+001
      vertex  6.510696e+001  0.000000e+000  4.140239e+001
    endloop
  endfacet
  facet normal -3.526753e-001  0.000000e+000  9.357457e-001
    outer loop
      vertex  6.183812e+001  2.000000e+000  4.017039e+001
      vertex  6.510696e+001  0.000000e+000  4.140239e+001
      vertex  6.510696e+001  2.000000e+000  4.140239e+001
    endloop
  endfacet
  facet normal  1.000000e+000  0.000000e+000  0.000000e+000
    outer loop
      vertex  5.000000e+001  2.000000e+000  5.000000e+001
      vertex  5.000000e+001  2.000000e+000  5.500000e+001
      vertex  5.000000e+001  0.000000e+000  5.000000e+001
    endloop
  endfacet
  facet normal  1.000000e+000  0.000000e+000  0.000000e+000
    outer loop
      vertex  5.000000e+001  0.000000e+000  5.000000e+001
      vertex  5.000000e+001  2.000000e+000  5.500000e+001
      vertex  5.000000e+001  0.000000e+000  5.500000e+001
    endloop
  endfacet
  facet normal  9.659272e-001  0.000000e+000  2.588136e-001
    outer loop
      vertex  5.000000e+001  0.000000e+000  5.500000e+001
      vertex  5.000000e+001  2.000000e+000  5.500000e+001
      vertex  4.933014e+001  0.000000e+000  5.750001e+001
    endloop
  endfacet
  facet normal  9.659272e-001  -0.000000e+000  2.588136e-001
    outer loop
      vertex  4.933014e+001  0.000000e+000  5.750001e+001
      vertex  5.000000e+001  2.000000e+000  5.500000e+001
      vertex  4.933014e+001  2.000000e+000  5.750001e+001
    endloop
  endfacet
  facet normal  7.071068e-001  0.000000e+000  7.071068e-001
    outer loop
      vertex  4.933014e+001  0.000000e+000  5.750001e+001
      vertex  4.933014e+001  2.000000e+000  5.750001e+001
      vertex  4.750001e+001  0.000000e+000  5.933014e+001
    endloop
  endfacet
  facet normal  7.071068e-001  -0.000000e+000  7.071068e-001
    outer loop
      vertex  4.750001e+001  0.000000e+000  5.933014e+001
      vertex  4.933014e+001  2.000000e+000  5.750001e+001
      vertex  4.750001e+001  2.000000e+000  5.933014e+001
    endloop
  endfacet
  facet normal  2.588136e-001  0.000000e+000  9.659272e-001
    outer loop
      vertex  4.750001e+001  0.000000e+000  5.933014e+001
      vertex  4.750001e+001  2.000000e+000  5.933014e+001
      vertex  4.500000e+001  0.000000e+000  6.000000e+001
    endloop
  endfacet
  facet normal  2.588136e-001  -0.000000e+000  9.659272e-001
    outer loop
      vertex  4.500000e+001  0.000000e+000  6.000000e+001
      vertex  4.750001e+001  2.000000e+000  5.933014e+001
      vertex  4.500000e+001  2.000000e+000  6.000000e+001
    endloop
  endfacet
  facet normal  -0.000000e+000  0.000000e+000  1.000000e+000
    outer loop
      vertex  4.500000e+001  2.000000e+000  6.000000e+001
      vertex -8.000000e+000  2.000000e+000  6.000000e+001
      vertex  4.500000e+001  0.000000e+000  6.000000e+001
    endloop
  endfacet
  facet normal  0.000000e+000  0.000000e+000  1.000000e+000
    outer loop
      vertex  4.500000e+001  0.000000e+000  6.000000e+001
      vertex -8.000000e+000  2.000000e+000  6.000000e+001
      vertex -8.000000e+000  0.000000e+000  6.000000e+001
    endloop
  endfacet
  facet normal -2.588138e-001  0.000000e+000  9.659273e-001
    outer loop
      vertex -8.000000e+000  0.000000e+000  6.000000e+001
      vertex -8.000000e+000  2.000000e+000  6.000000e+001
      vertex -1.050001e+001  0.000000e+000  5.933014e+001
    endloop
  endfacet
  facet normal -2.588138e-001  0.000000e+000  9.659273e-001
    outer loop
      vertex -1.050001e+001  0.000000e+000  5.933014e+001
      vertex -8.000000e+000  2.000000e+000  6.000000e+001
      vertex -1.050001e+001  2.000000e+000  5.933014e+001
    endloop
  endfacet
  facet normal -7.071061e-001  0.000000e+000  7.071075e-001
    outer loop
      vertex -1.050001e+001  0.000000e+000  5.933014e+001
      vertex -1.050001e+001  2.000000e+000  5.933014e+001
      vertex -1.233014e+001  0.000000e+000  5.750001e+001
    endloop
  endfacet
  facet normal -7.071061e-001  0.000000e+000  7.071075e-001
    outer loop
      vertex -1.233014e+001  0.000000e+000  5.750001e+001
      vertex -1.050001e+001  2.000000e+000  5.933014e+001
      vertex -1.233014e+001  2.000000e+000  5.750001e+001
    endloop
  endfacet
  facet normal -9.659274e-001  0.000000e+000  2.588128e-001
    outer loop
      vertex -1.233014e+001  0.000000e+000  5.750001e+001
      vertex -1.233014e+001  2.000000e+000  5.750001e+001
      vertex -1.300000e+001  0.000000e+000  5.500000e+001
    endloop
  endfacet
  facet normal -9.659274e-001  0.000000e+000  2.588128e-001
    outer loop
      vertex -1.300000e+001  0.000000e+000  5.500000e+001
      vertex -1.233014e+001  2.000000e+000  5.750001e+001
      vertex -1.300000e+001  2.000000e+000  5.500000e+001
    endloop
  endfacet
endsolid CATIA STL
