solid CATIA STL
  facet normal -7.071068e-001  0.000000e+000  7.071066e-001
    outer loop
      vertex -3.658542e+001 -4.100000e+001 -2.134278e+001
      vertex -3.658542e+001 -1.300000e+001 -2.134278e+001
      vertex -4.323962e+001 -4.100000e+001 -2.799698e+001
    endloop
  endfacet
  facet normal -7.071068e-001 -4.816783e-008  7.071068e-001
    outer loop
      vertex -4.323962e+001 -4.100000e+001 -2.799698e+001
      vertex -3.658542e+001 -1.300000e+001 -2.134278e+001
      vertex -4.827208e+001 -1.300000e+001 -3.302944e+001
    endloop
  endfacet
  facet normal -7.071066e-001  0.000000e+000  7.071069e-001
    outer loop
      vertex -4.323962e+001 -4.100000e+001 -2.799698e+001
      vertex -4.827208e+001 -1.300000e+001 -3.302944e+001
      vertex -4.827208e+001 -1.800000e+001 -3.302944e+001
    endloop
  endfacet
  facet normal  7.071068e-001  0.000000e+000 -7.071068e-001
    outer loop
      vertex -4.685786e+001 -1.800000e+001 -3.444365e+001
      vertex -4.685786e+001 -1.300000e+001 -3.444365e+001
      vertex -4.182541e+001 -4.100000e+001 -2.941119e+001
    endloop
  endfacet
  facet normal  7.071067e-001 -2.074183e-008 -7.071068e-001
    outer loop
      vertex -4.182541e+001 -4.100000e+001 -2.941119e+001
      vertex -4.685786e+001 -1.300000e+001 -3.444365e+001
      vertex -3.517121e+001 -1.300000e+001 -2.275699e+001
    endloop
  endfacet
  facet normal  7.071066e-001  0.000000e+000 -7.071069e-001
    outer loop
      vertex -4.182541e+001 -4.100000e+001 -2.941119e+001
      vertex -3.517121e+001 -1.300000e+001 -2.275699e+001
      vertex -3.517121e+001 -4.100000e+001 -2.275699e+001
    endloop
  endfacet
  facet normal -7.071059e-001  -0.000000e+000 -7.071078e-001
    outer loop
      vertex -4.827208e+001 -1.800000e+001 -3.302944e+001
      vertex -4.827208e+001 -1.300000e+001 -3.302944e+001
      vertex -4.685786e+001 -1.800000e+001 -3.444365e+001
    endloop
  endfacet
  facet normal -7.071059e-001  0.000000e+000 -7.071078e-001
    outer loop
      vertex -4.685786e+001 -1.800000e+001 -3.444365e+001
      vertex -4.827208e+001 -1.300000e+001 -3.302944e+001
      vertex -4.685786e+001 -1.300000e+001 -3.444365e+001
    endloop
  endfacet
  facet normal  -0.000000e+000  1.000000e+000  0.000000e+000
    outer loop
      vertex -4.685786e+001 -1.300000e+001 -3.444365e+001
      vertex -4.827208e+001 -1.300000e+001 -3.302944e+001
      vertex -3.517121e+001 -1.300000e+001 -2.275699e+001
    endloop
  endfacet
  facet normal  0.000000e+000  1.000000e+000  0.000000e+000
    outer loop
      vertex -3.517121e+001 -1.300000e+001 -2.275699e+001
      vertex -4.827208e+001 -1.300000e+001 -3.302944e+001
      vertex -3.658542e+001 -1.300000e+001 -2.134278e+001
    endloop
  endfacet
  facet normal  7.071064e-001  -0.000000e+000  7.071073e-001
    outer loop
      vertex -3.658542e+001 -1.300000e+001 -2.134278e+001
      vertex -3.658542e+001 -4.100000e+001 -2.134278e+001
      vertex -3.517121e+001 -1.300000e+001 -2.275699e+001
    endloop
  endfacet
  facet normal  7.071064e-001  0.000000e+000  7.071073e-001
    outer loop
      vertex -3.517121e+001 -1.300000e+001 -2.275699e+001
      vertex -3.658542e+001 -4.100000e+001 -2.134278e+001
      vertex -3.517121e+001 -4.100000e+001 -2.275699e+001
    endloop
  endfacet
  facet normal  0.000000e+000 -9.999999e-001  -0.000000e+000
    outer loop
      vertex -3.517121e+001 -4.100000e+001 -2.275699e+001
      vertex -3.658542e+001 -4.100000e+001 -2.134278e+001
      vertex -4.182541e+001 -4.100000e+001 -2.941119e+001
    endloop
  endfacet
  facet normal  0.000000e+000 -1.000000e+000  0.000000e+000
    outer loop
      vertex -4.182541e+001 -4.100000e+001 -2.941119e+001
      vertex -3.658542e+001 -4.100000e+001 -2.134278e+001
      vertex -4.323962e+001 -4.100000e+001 -2.799698e+001
    endloop
  endfacet
  facet normal -6.755068e-001 -2.956052e-001 -6.755059e-001
    outer loop
      vertex -4.323962e+001 -4.100000e+001 -2.799698e+001
      vertex -4.827208e+001 -1.800000e+001 -3.302944e+001
      vertex -4.182541e+001 -4.100000e+001 -2.941119e+001
    endloop
  endfacet
  facet normal -6.755054e-001 -2.956050e-001 -6.755072e-001
    outer loop
      vertex -4.182541e+001 -4.100000e+001 -2.941119e+001
      vertex -4.827208e+001 -1.800000e+001 -3.302944e+001
      vertex -4.685786e+001 -1.800000e+001 -3.444365e+001
    endloop
  endfacet
endsolid CATIA STL
