solid CATIA STL
  facet normal  0.000000e+000  0.000000e+000 -1.000000e+000
    outer loop
      vertex  2.200000e+001  4.100000e+001 -2.000000e+000
      vertex -5.100000e+001  4.300000e+001 -2.000000e+000
      vertex  2.200000e+001  4.300000e+001 -2.000000e+000
    endloop
  endfacet
  facet normal  0.000000e+000  0.000000e+000 -1.000000e+000
    outer loop
      vertex  2.200000e+001  4.000000e+001 -2.000000e+000
      vertex  2.200000e+001  3.350000e+001 -2.000000e+000
      vertex  2.154340e+001  3.579622e+001 -2.000000e+000
    endloop
  endfacet
  facet normal  0.000000e+000  0.000000e+000 -1.000000e+000
    outer loop
      vertex  2.200000e+001  4.000000e+001 -2.000000e+000
      vertex  2.154340e+001  3.579622e+001 -2.000000e+000
      vertex  2.024252e+001  3.774252e+001 -2.000000e+000
    endloop
  endfacet
  facet normal  0.000000e+000  0.000000e+000 -1.000000e+000
    outer loop
      vertex  2.200000e+001  4.000000e+001 -2.000000e+000
      vertex  2.024252e+001  3.774252e+001 -2.000000e+000
      vertex  1.829622e+001  3.904340e+001 -2.000000e+000
    endloop
  endfacet
  facet normal  0.000000e+000  0.000000e+000 -1.000000e+000
    outer loop
      vertex  2.200000e+001  4.000000e+001 -2.000000e+000
      vertex  1.829622e+001  3.904340e+001 -2.000000e+000
      vertex  1.600000e+001  3.950000e+001 -2.000000e+000
    endloop
  endfacet
  facet normal  0.000000e+000  0.000000e+000 -1.000000e+000
    outer loop
      vertex  2.200000e+001  4.000000e+001 -2.000000e+000
      vertex  1.600000e+001  3.950000e+001 -2.000000e+000
      vertex -1.000000e+001  3.950000e+001 -2.000000e+000
    endloop
  endfacet
  facet normal  0.000000e+000  0.000000e+000 -1.000000e+000
    outer loop
      vertex  2.200000e+001  4.000000e+001 -2.000000e+000
      vertex -1.000000e+001  3.950000e+001 -2.000000e+000
      vertex -5.100000e+001  4.000000e+001 -2.000000e+000
    endloop
  endfacet
  facet normal  0.000000e+000  0.000000e+000 -9.999999e-001
    outer loop
      vertex  2.200000e+001  4.000000e+001 -2.000000e+000
      vertex -5.100000e+001  4.000000e+001 -2.000000e+000
      vertex -5.100000e+001  4.300000e+001 -2.000000e+000
    endloop
  endfacet
  facet normal  0.000000e+000  0.000000e+000 -1.000000e+000
    outer loop
      vertex  2.200000e+001  4.000000e+001 -2.000000e+000
      vertex -5.100000e+001  4.300000e+001 -2.000000e+000
      vertex  2.200000e+001  4.100000e+001 -2.000000e+000
    endloop
  endfacet
  facet normal  -0.000000e+000  0.000000e+000 -1.000000e+000
    outer loop
      vertex  2.000000e+001 -3.350000e+001 -2.000000e+000
      vertex  1.969560e+001 -3.503082e+001 -2.000000e+000
      vertex  1.882835e+001 -3.632835e+001 -2.000000e+000
    endloop
  endfacet
  facet normal  -0.000000e+000  0.000000e+000 -1.000000e+000
    outer loop
      vertex  2.000000e+001 -3.350000e+001 -2.000000e+000
      vertex  1.882835e+001 -3.632835e+001 -2.000000e+000
      vertex  1.753081e+001 -3.719560e+001 -2.000000e+000
    endloop
  endfacet
  facet normal  -0.000000e+000  0.000000e+000 -1.000000e+000
    outer loop
      vertex  2.000000e+001 -3.350000e+001 -2.000000e+000
      vertex  1.753081e+001 -3.719560e+001 -2.000000e+000
      vertex  1.600000e+001 -3.750000e+001 -2.000000e+000
    endloop
  endfacet
  facet normal  0.000000e+000  0.000000e+000 -1.000000e+000
    outer loop
      vertex  2.000000e+001 -3.350000e+001 -2.000000e+000
      vertex  1.600000e+001 -3.750000e+001 -2.000000e+000
      vertex -1.000000e+001 -3.750000e+001 -2.000000e+000
    endloop
  endfacet
  facet normal  0.000000e+000  0.000000e+000 -9.999999e-001
    outer loop
      vertex -5.100000e+001 -4.000000e+001 -2.000000e+000
      vertex -5.100000e+001 -1.300000e+001 -2.000000e+000
      vertex  2.000000e+001  3.350000e+001 -2.000000e+000
    endloop
  endfacet
  facet normal  0.000000e+000  -0.000000e+000 -9.999999e-001
    outer loop
      vertex -5.100000e+001 -4.000000e+001 -2.000000e+000
      vertex  2.000000e+001  3.350000e+001 -2.000000e+000
      vertex  2.000000e+001 -3.350000e+001 -2.000000e+000
    endloop
  endfacet
  facet normal  0.000000e+000  0.000000e+000 -1.000000e+000
    outer loop
      vertex -5.100000e+001 -4.000000e+001 -2.000000e+000
      vertex  2.000000e+001 -3.350000e+001 -2.000000e+000
      vertex -1.000000e+001 -3.750000e+001 -2.000000e+000
    endloop
  endfacet
  facet normal  0.000000e+000  -0.000000e+000 -9.999999e-001
    outer loop
      vertex -5.100000e+001 -4.000000e+001 -2.000000e+000
      vertex -1.000000e+001 -3.750000e+001 -2.000000e+000
      vertex -1.000000e+001 -3.950000e+001 -2.000000e+000
    endloop
  endfacet
  facet normal  0.000000e+000  -0.000000e+000 -1.000000e+000
    outer loop
      vertex -5.100000e+001 -4.000000e+001 -2.000000e+000
      vertex -1.000000e+001 -3.950000e+001 -2.000000e+000
      vertex  1.600000e+001 -3.950000e+001 -2.000000e+000
    endloop
  endfacet
  facet normal  0.000000e+000  -0.000000e+000 -1.000000e+000
    outer loop
      vertex -5.100000e+001 -4.000000e+001 -2.000000e+000
      vertex  1.600000e+001 -3.950000e+001 -2.000000e+000
      vertex  2.200000e+001 -4.000000e+001 -2.000000e+000
    endloop
  endfacet
  facet normal  -0.000000e+000  -0.000000e+000 -1.000000e+000
    outer loop
      vertex -5.100000e+001 -4.000000e+001 -2.000000e+000
      vertex  2.200000e+001 -4.000000e+001 -2.000000e+000
      vertex  2.200000e+001 -4.100000e+001 -2.000000e+000
    endloop
  endfacet
  facet normal  -0.000000e+000  -0.000000e+000 -1.000000e+000
    outer loop
      vertex -5.100000e+001 -4.000000e+001 -2.000000e+000
      vertex  2.200000e+001 -4.100000e+001 -2.000000e+000
      vertex  2.200000e+001 -4.300000e+001 -2.000000e+000
    endloop
  endfacet
  facet normal  0.000000e+000  0.000000e+000 -9.999999e-001
    outer loop
      vertex -5.100000e+001 -4.000000e+001 -2.000000e+000
      vertex  2.200000e+001 -4.300000e+001 -2.000000e+000
      vertex -5.100000e+001 -4.300000e+001 -2.000000e+000
    endloop
  endfacet
  facet normal  0.000000e+000  0.000000e+000 -1.000000e+000
    outer loop
      vertex  2.000000e+001  3.350000e+001 -2.000000e+000
      vertex -5.100000e+001 -1.300000e+001 -2.000000e+000
      vertex -5.100000e+001 -1.100000e+001 -2.000000e+000
    endloop
  endfacet
  facet normal  0.000000e+000  0.000000e+000 -1.000000e+000
    outer loop
      vertex  2.000000e+001  3.350000e+001 -2.000000e+000
      vertex -5.100000e+001 -1.100000e+001 -2.000000e+000
      vertex -5.100000e+001  1.100000e+001 -2.000000e+000
    endloop
  endfacet
  facet normal  0.000000e+000  0.000000e+000 -1.000000e+000
    outer loop
      vertex  2.000000e+001  3.350000e+001 -2.000000e+000
      vertex -5.100000e+001  1.100000e+001 -2.000000e+000
      vertex -5.100000e+001  1.300000e+001 -2.000000e+000
    endloop
  endfacet
  facet normal  -0.000000e+000  -0.000000e+000 -1.000000e+000
    outer loop
      vertex -1.000000e+001  3.750000e+001 -2.000000e+000
      vertex  1.600000e+001  3.750000e+001 -2.000000e+000
      vertex  1.753081e+001  3.719560e+001 -2.000000e+000
    endloop
  endfacet
  facet normal  -0.000000e+000  -0.000000e+000 -1.000000e+000
    outer loop
      vertex -1.000000e+001  3.750000e+001 -2.000000e+000
      vertex  1.753081e+001  3.719560e+001 -2.000000e+000
      vertex  1.882835e+001  3.632835e+001 -2.000000e+000
    endloop
  endfacet
  facet normal  -0.000000e+000  -0.000000e+000 -1.000000e+000
    outer loop
      vertex -1.000000e+001  3.750000e+001 -2.000000e+000
      vertex  1.882835e+001  3.632835e+001 -2.000000e+000
      vertex  1.969560e+001  3.503082e+001 -2.000000e+000
    endloop
  endfacet
  facet normal  -0.000000e+000  -0.000000e+000 -1.000000e+000
    outer loop
      vertex -1.000000e+001  3.750000e+001 -2.000000e+000
      vertex  1.969560e+001  3.503082e+001 -2.000000e+000
      vertex  2.000000e+001  3.350000e+001 -2.000000e+000
    endloop
  endfacet
  facet normal  -0.000000e+000  0.000000e+000 -9.999999e-001
    outer loop
      vertex -1.000000e+001  3.750000e+001 -2.000000e+000
      vertex  2.000000e+001  3.350000e+001 -2.000000e+000
      vertex -5.100000e+001  1.300000e+001 -2.000000e+000
    endloop
  endfacet
  facet normal  0.000000e+000  0.000000e+000 -1.000000e+000
    outer loop
      vertex -1.000000e+001  3.750000e+001 -2.000000e+000
      vertex -5.100000e+001  1.300000e+001 -2.000000e+000
      vertex -5.100000e+001  4.000000e+001 -2.000000e+000
    endloop
  endfacet
  facet normal  0.000000e+000  0.000000e+000 -9.999999e-001
    outer loop
      vertex -1.000000e+001  3.750000e+001 -2.000000e+000
      vertex -5.100000e+001  4.000000e+001 -2.000000e+000
      vertex -1.000000e+001  3.950000e+001 -2.000000e+000
    endloop
  endfacet
  facet normal  0.000000e+000  0.000000e+000 -1.000000e+000
    outer loop
      vertex  2.200000e+001 -4.000000e+001 -2.000000e+000
      vertex  1.600000e+001 -3.950000e+001 -2.000000e+000
      vertex  1.829622e+001 -3.904340e+001 -2.000000e+000
    endloop
  endfacet
  facet normal  0.000000e+000  0.000000e+000 -1.000000e+000
    outer loop
      vertex  2.200000e+001 -4.000000e+001 -2.000000e+000
      vertex  1.829622e+001 -3.904340e+001 -2.000000e+000
      vertex  2.024252e+001 -3.774252e+001 -2.000000e+000
    endloop
  endfacet
  facet normal  0.000000e+000  0.000000e+000 -1.000000e+000
    outer loop
      vertex  2.200000e+001 -4.000000e+001 -2.000000e+000
      vertex  2.024252e+001 -3.774252e+001 -2.000000e+000
      vertex  2.154340e+001 -3.579622e+001 -2.000000e+000
    endloop
  endfacet
  facet normal  0.000000e+000  0.000000e+000 -1.000000e+000
    outer loop
      vertex  2.200000e+001 -4.000000e+001 -2.000000e+000
      vertex  2.154340e+001 -3.579622e+001 -2.000000e+000
      vertex  2.200000e+001 -3.350000e+001 -2.000000e+000
    endloop
  endfacet
  facet normal  -0.000000e+000  7.059905e-027  1.000000e+000
    outer loop
      vertex  2.200000e+001  4.300000e+001  0.000000e+000
      vertex -5.100000e+001  4.300000e+001  0.000000e+000
      vertex  2.200000e+001  4.100000e+001  1.411981e-026
    endloop
  endfacet
  facet normal -1.972931e-028 -1.412924e-028  1.000000e+000
    outer loop
      vertex  2.200000e+001  4.000000e+001  1.397852e-026
      vertex  2.200000e+001  4.100000e+001  1.411981e-026
      vertex -5.100000e+001  4.300000e+001  0.000000e+000
    endloop
  endfacet
  facet normal -1.914865e-028  0.000000e+000  9.999999e-001
    outer loop
      vertex  2.200000e+001  4.000000e+001  1.397852e-026
      vertex -5.100000e+001  4.300000e+001  0.000000e+000
      vertex -5.100000e+001  4.000000e+001  0.000000e+000
    endloop
  endfacet
  facet normal -1.914865e-028 -1.369996e-026  1.000000e+000
    outer loop
      vertex  2.200000e+001  4.000000e+001  1.397852e-026
      vertex -5.100000e+001  4.000000e+001  0.000000e+000
      vertex -1.000000e+001  3.950000e+001  1.000966e-027
    endloop
  endfacet
  facet normal  3.849869e-029 -2.841902e-026  1.000000e+000
    outer loop
      vertex  2.200000e+001  4.000000e+001  1.397852e-026
      vertex -1.000000e+001  3.950000e+001  1.000966e-027
      vertex  1.600000e+001  3.950000e+001  0.000000e+000
    endloop
  endfacet
  facet normal -1.641735e-027 -8.256210e-027  1.000000e+000
    outer loop
      vertex  2.200000e+001  4.000000e+001  1.397852e-026
      vertex  1.600000e+001  3.950000e+001  0.000000e+000
      vertex  1.829622e+001  3.904340e+001  0.000000e+000
    endloop
  endfacet
  facet normal -2.722212e-027 -4.072804e-027  1.000000e+000
    outer loop
      vertex  2.200000e+001  4.000000e+001  1.397852e-026
      vertex  1.829622e+001  3.904340e+001  0.000000e+000
      vertex  2.024252e+001  3.774252e+001  0.000000e+000
    endloop
  endfacet
  facet normal -4.279551e-027 -2.860393e-027  1.000000e+000
    outer loop
      vertex  2.200000e+001  4.000000e+001  1.397852e-026
      vertex  2.024252e+001  3.774252e+001  0.000000e+000
      vertex  2.154340e+001  3.579622e+001  0.000000e+000
    endloop
  endfacet
  facet normal -2.858937e-026 -2.199329e-028  1.000000e+000
    outer loop
      vertex  2.200000e+001  4.000000e+001  1.397852e-026
      vertex  2.154340e+001  3.579622e+001  0.000000e+000
      vertex  2.200000e+001  3.350000e+001  1.254895e-026
    endloop
  endfacet
  facet normal  1.004660e-029 -1.004660e-029  1.000000e+000
    outer loop
      vertex  2.000000e+001 -3.350000e+001  0.000000e+000
      vertex -1.000000e+001 -3.750000e+001  2.612116e-028
      vertex  1.600000e+001 -3.750000e+001  0.000000e+000
    endloop
  endfacet
  facet normal  0.000000e+000  0.000000e+000  1.000000e+000
    outer loop
      vertex  2.000000e+001 -3.350000e+001  0.000000e+000
      vertex  1.600000e+001 -3.750000e+001  0.000000e+000
      vertex  1.753081e+001 -3.719560e+001  0.000000e+000
    endloop
  endfacet
  facet normal  0.000000e+000  0.000000e+000  1.000000e+000
    outer loop
      vertex  2.000000e+001 -3.350000e+001  0.000000e+000
      vertex  1.753081e+001 -3.719560e+001  0.000000e+000
      vertex  1.882835e+001 -3.632835e+001  0.000000e+000
    endloop
  endfacet
  facet normal  0.000000e+000  0.000000e+000  1.000000e+000
    outer loop
      vertex  2.000000e+001 -3.350000e+001  0.000000e+000
      vertex  1.882835e+001 -3.632835e+001  0.000000e+000
      vertex  1.969560e+001 -3.503082e+001  0.000000e+000
    endloop
  endfacet
  facet normal  2.846518e-029  -0.000000e+000  9.999999e-001
    outer loop
      vertex -5.100000e+001 -4.000000e+001  0.000000e+000
      vertex -5.100000e+001 -4.300000e+001  0.000000e+000
      vertex  2.200000e+001 -4.300000e+001 -2.077958e-027
    endloop
  endfacet
  facet normal  1.948159e-029 -2.186008e-028  1.000000e+000
    outer loop
      vertex -5.100000e+001 -4.000000e+001  0.000000e+000
      vertex  2.200000e+001 -4.300000e+001 -2.077958e-027
      vertex  2.200000e+001 -4.100000e+001 -1.640757e-027
    endloop
  endfacet
  facet normal  2.028885e-029 -1.596704e-028  1.000000e+000
    outer loop
      vertex -5.100000e+001 -4.000000e+001  0.000000e+000
      vertex  2.200000e+001 -4.100000e+001 -1.640757e-027
      vertex  2.200000e+001 -4.000000e+001 -1.481086e-027
    endloop
  endfacet
  facet normal  2.028885e-029 -2.718706e-027  1.000000e+000
    outer loop
      vertex -5.100000e+001 -4.000000e+001  0.000000e+000
      vertex  2.200000e+001 -4.000000e+001 -1.481086e-027
      vertex  1.600000e+001 -3.950000e+001  0.000000e+000
    endloop
  endfacet
  facet normal  0.000000e+000  0.000000e+000  1.000000e+000
    outer loop
      vertex -5.100000e+001 -4.000000e+001  0.000000e+000
      vertex  1.600000e+001 -3.950000e+001  0.000000e+000
      vertex -1.000000e+001 -3.950000e+001  0.000000e+000
    endloop
  endfacet
  facet normal  1.592753e-030 -1.306058e-028  9.999999e-001
    outer loop
      vertex -5.100000e+001 -4.000000e+001  0.000000e+000
      vertex -1.000000e+001 -3.950000e+001  0.000000e+000
      vertex -1.000000e+001 -3.750000e+001  2.612116e-028
    endloop
  endfacet
  facet normal -1.907725e-029  2.083823e-028  1.000000e+000
    outer loop
      vertex -5.100000e+001 -4.000000e+001  0.000000e+000
      vertex -1.000000e+001 -3.750000e+001  2.612116e-028
      vertex  2.000000e+001 -3.350000e+001  0.000000e+000
    endloop
  endfacet
  facet normal  0.000000e+000  -0.000000e+000  9.999999e-001
    outer loop
      vertex -5.100000e+001 -4.000000e+001  0.000000e+000
      vertex  2.000000e+001 -3.350000e+001  0.000000e+000
      vertex  2.000000e+001  3.350000e+001  0.000000e+000
    endloop
  endfacet
  facet normal  0.000000e+000  0.000000e+000  9.999999e-001
    outer loop
      vertex -5.100000e+001 -4.000000e+001  0.000000e+000
      vertex  2.000000e+001  3.350000e+001  0.000000e+000
      vertex -5.100000e+001 -1.300000e+001  0.000000e+000
    endloop
  endfacet
  facet normal  -0.000000e+000  0.000000e+000  1.000000e+000
    outer loop
      vertex  2.000000e+001  3.350000e+001  0.000000e+000
      vertex -5.100000e+001  1.300000e+001  0.000000e+000
      vertex -5.100000e+001  1.100000e+001  0.000000e+000
    endloop
  endfacet
  facet normal  -0.000000e+000  0.000000e+000  1.000000e+000
    outer loop
      vertex  2.000000e+001  3.350000e+001  0.000000e+000
      vertex -5.100000e+001  1.100000e+001  0.000000e+000
      vertex -5.100000e+001 -1.100000e+001  0.000000e+000
    endloop
  endfacet
  facet normal  -0.000000e+000  0.000000e+000  1.000000e+000
    outer loop
      vertex  2.000000e+001  3.350000e+001  0.000000e+000
      vertex -5.100000e+001 -1.100000e+001  0.000000e+000
      vertex -5.100000e+001 -1.300000e+001  0.000000e+000
    endloop
  endfacet
  facet normal -3.051725e-029 -5.004829e-028  9.999999e-001
    outer loop
      vertex -1.000000e+001  3.750000e+001  0.000000e+000
      vertex -1.000000e+001  3.950000e+001  1.000966e-027
      vertex -5.100000e+001  4.000000e+001  0.000000e+000
    endloop
  endfacet
  facet normal  0.000000e+000  0.000000e+000  1.000000e+000
    outer loop
      vertex -1.000000e+001  3.750000e+001  0.000000e+000
      vertex -5.100000e+001  4.000000e+001  0.000000e+000
      vertex -5.100000e+001  1.300000e+001  0.000000e+000
    endloop
  endfacet
  facet normal  0.000000e+000  0.000000e+000  9.999999e-001
    outer loop
      vertex -1.000000e+001  3.750000e+001  0.000000e+000
      vertex -5.100000e+001  1.300000e+001  0.000000e+000
      vertex  2.000000e+001  3.350000e+001  0.000000e+000
    endloop
  endfacet
  facet normal  0.000000e+000  0.000000e+000  1.000000e+000
    outer loop
      vertex -1.000000e+001  3.750000e+001  0.000000e+000
      vertex  2.000000e+001  3.350000e+001  0.000000e+000
      vertex  1.969560e+001  3.503082e+001  0.000000e+000
    endloop
  endfacet
  facet normal  0.000000e+000  0.000000e+000  1.000000e+000
    outer loop
      vertex -1.000000e+001  3.750000e+001  0.000000e+000
      vertex  1.969560e+001  3.503082e+001  0.000000e+000
      vertex  1.882835e+001  3.632835e+001  0.000000e+000
    endloop
  endfacet
  facet normal  0.000000e+000  0.000000e+000  1.000000e+000
    outer loop
      vertex -1.000000e+001  3.750000e+001  0.000000e+000
      vertex  1.882835e+001  3.632835e+001  0.000000e+000
      vertex  1.753081e+001  3.719560e+001  0.000000e+000
    endloop
  endfacet
  facet normal  1.114176e-028  1.007688e-026  1.000000e+000
    outer loop
      vertex -1.000000e+001  3.750000e+001  0.000000e+000
      vertex  1.753081e+001  3.719560e+001  0.000000e+000
      vertex  1.600000e+001  3.750000e+001 -2.896857e-027
    endloop
  endfacet
  facet normal  1.145889e-027 -2.278594e-028  1.000000e+000
    outer loop
      vertex  2.200000e+001 -4.000000e+001 -1.481086e-027
      vertex  2.200000e+001 -3.350000e+001  0.000000e+000
      vertex  2.154340e+001 -3.579622e+001  0.000000e+000
    endloop
  endfacet
  facet normal  4.534375e-028 -3.030714e-028  1.000000e+000
    outer loop
      vertex  2.200000e+001 -4.000000e+001 -1.481086e-027
      vertex  2.154340e+001 -3.579622e+001  0.000000e+000
      vertex  2.024252e+001 -3.774252e+001  0.000000e+000
    endloop
  endfacet
  facet normal  2.884305e-028 -4.315319e-028  1.000000e+000
    outer loop
      vertex  2.200000e+001 -4.000000e+001 -1.481086e-027
      vertex  2.024252e+001 -3.774252e+001  0.000000e+000
      vertex  1.829622e+001 -3.904340e+001  0.000000e+000
    endloop
  endfacet
  facet normal  1.739492e-028 -8.747823e-028  1.000000e+000
    outer loop
      vertex  2.200000e+001 -4.000000e+001 -1.481086e-027
      vertex  1.829622e+001 -3.904340e+001  0.000000e+000
      vertex  1.600000e+001 -3.950000e+001  0.000000e+000
    endloop
  endfacet
  facet normal  0.000000e+000  1.000000e+000  0.000000e+000
    outer loop
      vertex -1.000000e+001 -3.950000e+001 -2.000000e+000
      vertex -1.000000e+001 -3.950000e+001  0.000000e+000
      vertex  1.600000e+001 -3.950000e+001 -2.000000e+000
    endloop
  endfacet
  facet normal  0.000000e+000  1.000000e+000  -0.000000e+000
    outer loop
      vertex  1.600000e+001 -3.950000e+001 -2.000000e+000
      vertex -1.000000e+001 -3.950000e+001  0.000000e+000
      vertex  1.600000e+001 -3.950000e+001  0.000000e+000
    endloop
  endfacet
  facet normal  1.000000e+000  0.000000e+000  0.000000e+000
    outer loop
      vertex -1.000000e+001 -3.750000e+001 -2.000000e+000
      vertex -1.000000e+001 -3.750000e+001  2.612116e-028
      vertex -1.000000e+001 -3.950000e+001 -2.000000e+000
    endloop
  endfacet
  facet normal  1.000000e+000  0.000000e+000  0.000000e+000
    outer loop
      vertex -1.000000e+001 -3.950000e+001 -2.000000e+000
      vertex -1.000000e+001 -3.750000e+001  2.612116e-028
      vertex -1.000000e+001 -3.950000e+001  0.000000e+000
    endloop
  endfacet
  facet normal  0.000000e+000 -1.000000e+000  -0.000000e+000
    outer loop
      vertex  1.600000e+001 -3.750000e+001 -2.000000e+000
      vertex  1.600000e+001 -3.750000e+001  0.000000e+000
      vertex -1.000000e+001 -3.750000e+001 -2.000000e+000
    endloop
  endfacet
  facet normal  0.000000e+000 -1.000000e+000  0.000000e+000
    outer loop
      vertex -1.000000e+001 -3.750000e+001 -2.000000e+000
      vertex  1.600000e+001 -3.750000e+001  0.000000e+000
      vertex -1.000000e+001 -3.750000e+001  2.612116e-028
    endloop
  endfacet
  facet normal  1.950310e-001 -9.807971e-001  0.000000e+000
    outer loop
      vertex  1.600000e+001 -3.750000e+001  0.000000e+000
      vertex  1.600000e+001 -3.750000e+001 -2.000000e+000
      vertex  1.753081e+001 -3.719560e+001  0.000000e+000
    endloop
  endfacet
  facet normal  1.950310e-001 -9.807971e-001  0.000000e+000
    outer loop
      vertex  1.753081e+001 -3.719560e+001  0.000000e+000
      vertex  1.600000e+001 -3.750000e+001 -2.000000e+000
      vertex  1.753081e+001 -3.719560e+001 -2.000000e+000
    endloop
  endfacet
  facet normal  5.556892e-001 -8.313902e-001  0.000000e+000
    outer loop
      vertex  1.753081e+001 -3.719560e+001  0.000000e+000
      vertex  1.753081e+001 -3.719560e+001 -2.000000e+000
      vertex  1.882835e+001 -3.632835e+001  0.000000e+000
    endloop
  endfacet
  facet normal  5.556892e-001 -8.313902e-001  0.000000e+000
    outer loop
      vertex  1.882835e+001 -3.632835e+001  0.000000e+000
      vertex  1.753081e+001 -3.719560e+001 -2.000000e+000
      vertex  1.882835e+001 -3.632835e+001 -2.000000e+000
    endloop
  endfacet
  facet normal  8.313897e-001 -5.556897e-001  0.000000e+000
    outer loop
      vertex  1.882835e+001 -3.632835e+001  0.000000e+000
      vertex  1.882835e+001 -3.632835e+001 -2.000000e+000
      vertex  1.969560e+001 -3.503082e+001  0.000000e+000
    endloop
  endfacet
  facet normal  8.313897e-001 -5.556897e-001  0.000000e+000
    outer loop
      vertex  1.969560e+001 -3.503082e+001  0.000000e+000
      vertex  1.882835e+001 -3.632835e+001 -2.000000e+000
      vertex  1.969560e+001 -3.503082e+001 -2.000000e+000
    endloop
  endfacet
  facet normal  9.807972e-001 -1.950307e-001  0.000000e+000
    outer loop
      vertex  1.969560e+001 -3.503082e+001  0.000000e+000
      vertex  1.969560e+001 -3.503082e+001 -2.000000e+000
      vertex  2.000000e+001 -3.350000e+001  0.000000e+000
    endloop
  endfacet
  facet normal  9.807972e-001 -1.950307e-001  0.000000e+000
    outer loop
      vertex  2.000000e+001 -3.350000e+001  0.000000e+000
      vertex  1.969560e+001 -3.503082e+001 -2.000000e+000
      vertex  2.000000e+001 -3.350000e+001 -2.000000e+000
    endloop
  endfacet
  facet normal  1.000000e+000  0.000000e+000  0.000000e+000
    outer loop
      vertex  2.000000e+001  3.350000e+001 -2.000000e+000
      vertex  2.000000e+001  3.350000e+001  0.000000e+000
      vertex  2.000000e+001 -3.350000e+001 -2.000000e+000
    endloop
  endfacet
  facet normal  1.000000e+000  0.000000e+000  0.000000e+000
    outer loop
      vertex  2.000000e+001 -3.350000e+001 -2.000000e+000
      vertex  2.000000e+001  3.350000e+001  0.000000e+000
      vertex  2.000000e+001 -3.350000e+001  0.000000e+000
    endloop
  endfacet
  facet normal  9.807972e-001  1.950307e-001  -0.000000e+000
    outer loop
      vertex  2.000000e+001  3.350000e+001  0.000000e+000
      vertex  2.000000e+001  3.350000e+001 -2.000000e+000
      vertex  1.969560e+001  3.503082e+001  0.000000e+000
    endloop
  endfacet
  facet normal  9.807972e-001  1.950307e-001  0.000000e+000
    outer loop
      vertex  1.969560e+001  3.503082e+001  0.000000e+000
      vertex  2.000000e+001  3.350000e+001 -2.000000e+000
      vertex  1.969560e+001  3.503082e+001 -2.000000e+000
    endloop
  endfacet
  facet normal  8.313897e-001  5.556897e-001  -0.000000e+000
    outer loop
      vertex  1.969560e+001  3.503082e+001  0.000000e+000
      vertex  1.969560e+001  3.503082e+001 -2.000000e+000
      vertex  1.882835e+001  3.632835e+001  0.000000e+000
    endloop
  endfacet
  facet normal  8.313897e-001  5.556897e-001  0.000000e+000
    outer loop
      vertex  1.882835e+001  3.632835e+001  0.000000e+000
      vertex  1.969560e+001  3.503082e+001 -2.000000e+000
      vertex  1.882835e+001  3.632835e+001 -2.000000e+000
    endloop
  endfacet
  facet normal  5.556892e-001  8.313902e-001  -0.000000e+000
    outer loop
      vertex  1.882835e+001  3.632835e+001  0.000000e+000
      vertex  1.882835e+001  3.632835e+001 -2.000000e+000
      vertex  1.753081e+001  3.719560e+001  0.000000e+000
    endloop
  endfacet
  facet normal  5.556892e-001  8.313902e-001  0.000000e+000
    outer loop
      vertex  1.753081e+001  3.719560e+001  0.000000e+000
      vertex  1.882835e+001  3.632835e+001 -2.000000e+000
      vertex  1.753081e+001  3.719560e+001 -2.000000e+000
    endloop
  endfacet
  facet normal  1.950310e-001  9.807971e-001  -0.000000e+000
    outer loop
      vertex  1.753081e+001  3.719560e+001  0.000000e+000
      vertex  1.753081e+001  3.719560e+001 -2.000000e+000
      vertex  1.600000e+001  3.750000e+001 -2.896857e-027
    endloop
  endfacet
  facet normal  1.950310e-001  9.807971e-001  0.000000e+000
    outer loop
      vertex  1.600000e+001  3.750000e+001 -2.896857e-027
      vertex  1.753081e+001  3.719560e+001 -2.000000e+000
      vertex  1.600000e+001  3.750000e+001 -2.000000e+000
    endloop
  endfacet
  facet normal  0.000000e+000  1.000000e+000  0.000000e+000
    outer loop
      vertex -1.000000e+001  3.750000e+001 -2.000000e+000
      vertex -1.000000e+001  3.750000e+001  0.000000e+000
      vertex  1.600000e+001  3.750000e+001 -2.000000e+000
    endloop
  endfacet
  facet normal  0.000000e+000  1.000000e+000  -0.000000e+000
    outer loop
      vertex  1.600000e+001  3.750000e+001 -2.000000e+000
      vertex -1.000000e+001  3.750000e+001  0.000000e+000
      vertex  1.600000e+001  3.750000e+001 -2.896857e-027
    endloop
  endfacet
  facet normal  1.000000e+000  0.000000e+000  0.000000e+000
    outer loop
      vertex -1.000000e+001  3.950000e+001 -2.000000e+000
      vertex -1.000000e+001  3.950000e+001  1.000966e-027
      vertex -1.000000e+001  3.750000e+001 -2.000000e+000
    endloop
  endfacet
  facet normal  1.000000e+000  0.000000e+000  0.000000e+000
    outer loop
      vertex -1.000000e+001  3.750000e+001 -2.000000e+000
      vertex -1.000000e+001  3.950000e+001  1.000966e-027
      vertex -1.000000e+001  3.750000e+001  0.000000e+000
    endloop
  endfacet
  facet normal  0.000000e+000 -1.000000e+000  -0.000000e+000
    outer loop
      vertex  1.600000e+001  3.950000e+001 -2.000000e+000
      vertex  1.600000e+001  3.950000e+001  0.000000e+000
      vertex -1.000000e+001  3.950000e+001 -2.000000e+000
    endloop
  endfacet
  facet normal  0.000000e+000 -1.000000e+000  0.000000e+000
    outer loop
      vertex -1.000000e+001  3.950000e+001 -2.000000e+000
      vertex  1.600000e+001  3.950000e+001  0.000000e+000
      vertex -1.000000e+001  3.950000e+001  1.000966e-027
    endloop
  endfacet
  facet normal -1.950301e-001 -9.807974e-001  0.000000e+000
    outer loop
      vertex  1.600000e+001  3.950000e+001  0.000000e+000
      vertex  1.600000e+001  3.950000e+001 -2.000000e+000
      vertex  1.829622e+001  3.904340e+001  0.000000e+000
    endloop
  endfacet
  facet normal -1.950301e-001 -9.807974e-001  -0.000000e+000
    outer loop
      vertex  1.829622e+001  3.904340e+001  0.000000e+000
      vertex  1.600000e+001  3.950000e+001 -2.000000e+000
      vertex  1.829622e+001  3.904340e+001 -2.000000e+000
    endloop
  endfacet
  facet normal -5.556903e-001 -8.313894e-001  0.000000e+000
    outer loop
      vertex  1.829622e+001  3.904340e+001  0.000000e+000
      vertex  1.829622e+001  3.904340e+001 -2.000000e+000
      vertex  2.024252e+001  3.774252e+001  0.000000e+000
    endloop
  endfacet
  facet normal -5.556903e-001 -8.313894e-001  -0.000000e+000
    outer loop
      vertex  2.024252e+001  3.774252e+001  0.000000e+000
      vertex  1.829622e+001  3.904340e+001 -2.000000e+000
      vertex  2.024252e+001  3.774252e+001 -2.000000e+000
    endloop
  endfacet
  facet normal -8.313898e-001 -5.556895e-001  0.000000e+000
    outer loop
      vertex  2.024252e+001  3.774252e+001  0.000000e+000
      vertex  2.024252e+001  3.774252e+001 -2.000000e+000
      vertex  2.154340e+001  3.579622e+001  0.000000e+000
    endloop
  endfacet
  facet normal -8.313898e-001 -5.556895e-001  -0.000000e+000
    outer loop
      vertex  2.154340e+001  3.579622e+001  0.000000e+000
      vertex  2.024252e+001  3.774252e+001 -2.000000e+000
      vertex  2.154340e+001  3.579622e+001 -2.000000e+000
    endloop
  endfacet
  facet normal -9.807971e-001 -1.950311e-001  0.000000e+000
    outer loop
      vertex  2.154340e+001  3.579622e+001  0.000000e+000
      vertex  2.154340e+001  3.579622e+001 -2.000000e+000
      vertex  2.200000e+001  3.350000e+001  1.254895e-026
    endloop
  endfacet
  facet normal -9.807971e-001 -1.950311e-001  -0.000000e+000
    outer loop
      vertex  2.200000e+001  3.350000e+001  1.254895e-026
      vertex  2.154340e+001  3.579622e+001 -2.000000e+000
      vertex  2.200000e+001  3.350000e+001 -2.000000e+000
    endloop
  endfacet
  facet normal  1.000000e+000  0.000000e+000  0.000000e+000
    outer loop
      vertex  2.200000e+001  4.000000e+001 -2.000000e+000
      vertex  2.200000e+001  4.000000e+001  1.397852e-026
      vertex  2.200000e+001  3.350000e+001 -2.000000e+000
    endloop
  endfacet
  facet normal  1.000000e+000  0.000000e+000  0.000000e+000
    outer loop
      vertex  2.200000e+001  3.350000e+001 -2.000000e+000
      vertex  2.200000e+001  4.000000e+001  1.397852e-026
      vertex  2.200000e+001  3.350000e+001  1.254895e-026
    endloop
  endfacet
  facet normal  1.000000e+000  0.000000e+000  0.000000e+000
    outer loop
      vertex  2.200000e+001  4.100000e+001 -2.000000e+000
      vertex  2.200000e+001  4.100000e+001  1.411981e-026
      vertex  2.200000e+001  4.000000e+001 -2.000000e+000
    endloop
  endfacet
  facet normal  1.000000e+000  0.000000e+000  0.000000e+000
    outer loop
      vertex  2.200000e+001  4.000000e+001 -2.000000e+000
      vertex  2.200000e+001  4.100000e+001  1.411981e-026
      vertex  2.200000e+001  4.000000e+001  1.397852e-026
    endloop
  endfacet
  facet normal  1.000000e+000  0.000000e+000  0.000000e+000
    outer loop
      vertex  2.200000e+001  4.300000e+001 -2.000000e+000
      vertex  2.200000e+001  4.300000e+001  0.000000e+000
      vertex  2.200000e+001  4.100000e+001 -2.000000e+000
    endloop
  endfacet
  facet normal  1.000000e+000  0.000000e+000  0.000000e+000
    outer loop
      vertex  2.200000e+001  4.100000e+001 -2.000000e+000
      vertex  2.200000e+001  4.300000e+001  0.000000e+000
      vertex  2.200000e+001  4.100000e+001  1.411981e-026
    endloop
  endfacet
  facet normal  0.000000e+000  1.000000e+000  0.000000e+000
    outer loop
      vertex -5.100000e+001  4.300000e+001 -2.000000e+000
      vertex -5.100000e+001  4.300000e+001  0.000000e+000
      vertex  2.200000e+001  4.300000e+001 -2.000000e+000
    endloop
  endfacet
  facet normal  0.000000e+000  1.000000e+000  -0.000000e+000
    outer loop
      vertex  2.200000e+001  4.300000e+001 -2.000000e+000
      vertex -5.100000e+001  4.300000e+001  0.000000e+000
      vertex  2.200000e+001  4.300000e+001  0.000000e+000
    endloop
  endfacet
  facet normal -1.000000e+000  0.000000e+000  0.000000e+000
    outer loop
      vertex -5.100000e+001  4.000000e+001 -2.000000e+000
      vertex -5.100000e+001  4.000000e+001  0.000000e+000
      vertex -5.100000e+001  4.300000e+001 -2.000000e+000
    endloop
  endfacet
  facet normal -1.000000e+000  0.000000e+000  0.000000e+000
    outer loop
      vertex -5.100000e+001  4.300000e+001 -2.000000e+000
      vertex -5.100000e+001  4.000000e+001  0.000000e+000
      vertex -5.100000e+001  4.300000e+001  0.000000e+000
    endloop
  endfacet
  facet normal -1.000000e+000  0.000000e+000  0.000000e+000
    outer loop
      vertex -5.100000e+001  1.300000e+001 -2.000000e+000
      vertex -5.100000e+001  1.300000e+001  0.000000e+000
      vertex -5.100000e+001  4.000000e+001 -2.000000e+000
    endloop
  endfacet
  facet normal -1.000000e+000  0.000000e+000  0.000000e+000
    outer loop
      vertex -5.100000e+001  4.000000e+001 -2.000000e+000
      vertex -5.100000e+001  1.300000e+001  0.000000e+000
      vertex -5.100000e+001  4.000000e+001  0.000000e+000
    endloop
  endfacet
  facet normal -1.000000e+000  0.000000e+000  0.000000e+000
    outer loop
      vertex -5.100000e+001  1.100000e+001 -2.000000e+000
      vertex -5.100000e+001  1.100000e+001  0.000000e+000
      vertex -5.100000e+001  1.300000e+001 -2.000000e+000
    endloop
  endfacet
  facet normal -1.000000e+000  0.000000e+000  0.000000e+000
    outer loop
      vertex -5.100000e+001  1.300000e+001 -2.000000e+000
      vertex -5.100000e+001  1.100000e+001  0.000000e+000
      vertex -5.100000e+001  1.300000e+001  0.000000e+000
    endloop
  endfacet
  facet normal -1.000000e+000  0.000000e+000  0.000000e+000
    outer loop
      vertex -5.100000e+001 -1.100000e+001 -2.000000e+000
      vertex -5.100000e+001 -1.100000e+001  0.000000e+000
      vertex -5.100000e+001  1.100000e+001 -2.000000e+000
    endloop
  endfacet
  facet normal -1.000000e+000  0.000000e+000  0.000000e+000
    outer loop
      vertex -5.100000e+001  1.100000e+001 -2.000000e+000
      vertex -5.100000e+001 -1.100000e+001  0.000000e+000
      vertex -5.100000e+001  1.100000e+001  0.000000e+000
    endloop
  endfacet
  facet normal -1.000000e+000  0.000000e+000  0.000000e+000
    outer loop
      vertex -5.100000e+001 -1.300000e+001 -2.000000e+000
      vertex -5.100000e+001 -1.300000e+001  0.000000e+000
      vertex -5.100000e+001 -1.100000e+001 -2.000000e+000
    endloop
  endfacet
  facet normal -1.000000e+000  0.000000e+000  0.000000e+000
    outer loop
      vertex -5.100000e+001 -1.100000e+001 -2.000000e+000
      vertex -5.100000e+001 -1.300000e+001  0.000000e+000
      vertex -5.100000e+001 -1.100000e+001  0.000000e+000
    endloop
  endfacet
  facet normal -1.000000e+000  0.000000e+000  0.000000e+000
    outer loop
      vertex -5.100000e+001 -4.000000e+001 -2.000000e+000
      vertex -5.100000e+001 -4.000000e+001  0.000000e+000
      vertex -5.100000e+001 -1.300000e+001 -2.000000e+000
    endloop
  endfacet
  facet normal -1.000000e+000  0.000000e+000  0.000000e+000
    outer loop
      vertex -5.100000e+001 -1.300000e+001 -2.000000e+000
      vertex -5.100000e+001 -4.000000e+001  0.000000e+000
      vertex -5.100000e+001 -1.300000e+001  0.000000e+000
    endloop
  endfacet
  facet normal -1.000000e+000  0.000000e+000  0.000000e+000
    outer loop
      vertex -5.100000e+001 -4.300000e+001 -2.000000e+000
      vertex -5.100000e+001 -4.300000e+001  0.000000e+000
      vertex -5.100000e+001 -4.000000e+001 -2.000000e+000
    endloop
  endfacet
  facet normal -1.000000e+000  0.000000e+000  0.000000e+000
    outer loop
      vertex -5.100000e+001 -4.000000e+001 -2.000000e+000
      vertex -5.100000e+001 -4.300000e+001  0.000000e+000
      vertex -5.100000e+001 -4.000000e+001  0.000000e+000
    endloop
  endfacet
  facet normal  0.000000e+000 -1.000000e+000  -0.000000e+000
    outer loop
      vertex  2.200000e+001 -4.300000e+001 -2.000000e+000
      vertex  2.200000e+001 -4.300000e+001 -2.077958e-027
      vertex -5.100000e+001 -4.300000e+001 -2.000000e+000
    endloop
  endfacet
  facet normal  0.000000e+000 -1.000000e+000  0.000000e+000
    outer loop
      vertex -5.100000e+001 -4.300000e+001 -2.000000e+000
      vertex  2.200000e+001 -4.300000e+001 -2.077958e-027
      vertex -5.100000e+001 -4.300000e+001  0.000000e+000
    endloop
  endfacet
  facet normal  1.000000e+000  0.000000e+000  0.000000e+000
    outer loop
      vertex  2.200000e+001 -4.100000e+001 -2.000000e+000
      vertex  2.200000e+001 -4.100000e+001 -1.640757e-027
      vertex  2.200000e+001 -4.300000e+001 -2.000000e+000
    endloop
  endfacet
  facet normal  1.000000e+000  0.000000e+000  0.000000e+000
    outer loop
      vertex  2.200000e+001 -4.300000e+001 -2.000000e+000
      vertex  2.200000e+001 -4.100000e+001 -1.640757e-027
      vertex  2.200000e+001 -4.300000e+001 -2.077958e-027
    endloop
  endfacet
  facet normal  1.000000e+000  0.000000e+000  0.000000e+000
    outer loop
      vertex  2.200000e+001 -4.000000e+001 -2.000000e+000
      vertex  2.200000e+001 -4.000000e+001 -1.481086e-027
      vertex  2.200000e+001 -4.100000e+001 -2.000000e+000
    endloop
  endfacet
  facet normal  1.000000e+000  0.000000e+000  0.000000e+000
    outer loop
      vertex  2.200000e+001 -4.100000e+001 -2.000000e+000
      vertex  2.200000e+001 -4.000000e+001 -1.481086e-027
      vertex  2.200000e+001 -4.100000e+001 -1.640757e-027
    endloop
  endfacet
  facet normal  1.000000e+000  0.000000e+000  0.000000e+000
    outer loop
      vertex  2.200000e+001 -3.350000e+001 -2.000000e+000
      vertex  2.200000e+001 -3.350000e+001  0.000000e+000
      vertex  2.200000e+001 -4.000000e+001 -2.000000e+000
    endloop
  endfacet
  facet normal  1.000000e+000  0.000000e+000  0.000000e+000
    outer loop
      vertex  2.200000e+001 -4.000000e+001 -2.000000e+000
      vertex  2.200000e+001 -3.350000e+001  0.000000e+000
      vertex  2.200000e+001 -4.000000e+001 -1.481086e-027
    endloop
  endfacet
  facet normal -9.807971e-001  1.950311e-001  0.000000e+000
    outer loop
      vertex  2.200000e+001 -3.350000e+001  0.000000e+000
      vertex  2.200000e+001 -3.350000e+001 -2.000000e+000
      vertex  2.154340e+001 -3.579622e+001  0.000000e+000
    endloop
  endfacet
  facet normal -9.807971e-001  1.950311e-001  0.000000e+000
    outer loop
      vertex  2.154340e+001 -3.579622e+001  0.000000e+000
      vertex  2.200000e+001 -3.350000e+001 -2.000000e+000
      vertex  2.154340e+001 -3.579622e+001 -2.000000e+000
    endloop
  endfacet
  facet normal -8.313898e-001  5.556895e-001  0.000000e+000
    outer loop
      vertex  2.154340e+001 -3.579622e+001  0.000000e+000
      vertex  2.154340e+001 -3.579622e+001 -2.000000e+000
      vertex  2.024252e+001 -3.774252e+001  0.000000e+000
    endloop
  endfacet
  facet normal -8.313898e-001  5.556895e-001  0.000000e+000
    outer loop
      vertex  2.024252e+001 -3.774252e+001  0.000000e+000
      vertex  2.154340e+001 -3.579622e+001 -2.000000e+000
      vertex  2.024252e+001 -3.774252e+001 -2.000000e+000
    endloop
  endfacet
  facet normal -5.556903e-001  8.313894e-001  0.000000e+000
    outer loop
      vertex  2.024252e+001 -3.774252e+001  0.000000e+000
      vertex  2.024252e+001 -3.774252e+001 -2.000000e+000
      vertex  1.829622e+001 -3.904340e+001  0.000000e+000
    endloop
  endfacet
  facet normal -5.556903e-001  8.313894e-001  0.000000e+000
    outer loop
      vertex  1.829622e+001 -3.904340e+001  0.000000e+000
      vertex  2.024252e+001 -3.774252e+001 -2.000000e+000
      vertex  1.829622e+001 -3.904340e+001 -2.000000e+000
    endloop
  endfacet
  facet normal -1.950301e-001  9.807974e-001  0.000000e+000
    outer loop
      vertex  1.829622e+001 -3.904340e+001  0.000000e+000
      vertex  1.829622e+001 -3.904340e+001 -2.000000e+000
      vertex  1.600000e+001 -3.950000e+001  0.000000e+000
    endloop
  endfacet
  facet normal -1.950301e-001  9.807974e-001  0.000000e+000
    outer loop
      vertex  1.600000e+001 -3.950000e+001  0.000000e+000
      vertex  1.829622e+001 -3.904340e+001 -2.000000e+000
      vertex  1.600000e+001 -3.950000e+001 -2.000000e+000
    endloop
  endfacet
endsolid CATIA STL
