solid CATIA STL
  facet normal  0.000000e+000  1.000000e+000  -0.000000e+000
    outer loop
      vertex  2.740931e+001 -7.000000e+000  8.719169e+000
      vertex  2.564767e+001 -7.000000e+000  8.581544e+000
      vertex  8.393106e+000 -7.000000e+000  1.397178e+001
    endloop
  endfacet
  facet normal  0.000000e+000  1.000000e+000  -0.000000e+000
    outer loop
      vertex  2.404391e+001 -7.000000e+000  7.839743e+000
      vertex  1.642318e+001 -7.000000e+000  2.503651e+000
      vertex  8.393106e+000 -7.000000e+000  1.397178e+001
    endloop
  endfacet
  facet normal  0.000000e+000  1.000000e+000  0.000000e+000
    outer loop
      vertex  2.404391e+001 -7.000000e+000  7.839743e+000
      vertex  8.393106e+000 -7.000000e+000  1.397178e+001
      vertex  2.564767e+001 -7.000000e+000  8.581544e+000
    endloop
  endfacet
  facet normal  0.000000e+000  1.000000e+000  0.000000e+000
    outer loop
      vertex  9.933012e+001 -7.000000e+000  7.500000e+000
      vertex  1.017422e+002 -7.000000e+000  5.693856e+000
      vertex  9.750000e+001 -7.000000e+000  5.669873e+000
    endloop
  endfacet
  facet normal  0.000000e+000  1.000000e+000  0.000000e+000
    outer loop
      vertex -4.000000e+000 -7.000000e+000  2.489898e+001
      vertex  5.750000e+001 -7.000000e+000  4.566987e+001
      vertex  6.000000e+001 -7.000000e+000  4.500000e+001
    endloop
  endfacet
  facet normal  0.000000e+000  1.000000e+000  -0.000000e+000
    outer loop
      vertex  1.314657e+001 -7.000000e+000  2.093452e-001
      vertex  1.168731e+001 -7.000000e+000 -3.217827e-001
      vertex  1.015798e+001 -7.000000e+000 -5.212201e-002
    endloop
  endfacet
  facet normal  0.000000e+000  1.000000e+000  -0.000000e+000
    outer loop
      vertex  8.393106e+000 -7.000000e+000  1.397178e+001
      vertex  6.754802e+000 -7.000000e+000  1.282463e+001
      vertex -8.604895e+000 -7.000000e+000  1.285824e+001
    endloop
  endfacet
  facet normal  0.000000e+000  1.000000e+000  -0.000000e+000
    outer loop
      vertex  8.393106e+000 -7.000000e+000  1.397178e+001
      vertex -8.604895e+000 -7.000000e+000  1.285824e+001
      vertex -1.093162e+001 -7.000000e+000  1.463196e+001
    endloop
  endfacet
  facet normal  -0.000000e+000  9.999999e-001  0.000000e+000
    outer loop
      vertex  8.393106e+000 -7.000000e+000  1.397178e+001
      vertex -1.093162e+001 -7.000000e+000  1.463196e+001
      vertex -3.679387e+000 -7.000000e+000  1.517755e+001
    endloop
  endfacet
  facet normal  -0.000000e+000  1.000000e+000  0.000000e+000
    outer loop
      vertex  8.393106e+000 -7.000000e+000  1.397178e+001
      vertex -3.679387e+000 -7.000000e+000  1.517755e+001
      vertex -1.406669e+000 -7.000000e+000  1.652322e+001
    endloop
  endfacet
  facet normal  0.000000e+000  1.000000e+000  0.000000e+000
    outer loop
      vertex  6.387775e+001 -7.000000e+000  5.203388e-001
      vertex  6.235835e+001 -7.000000e+000  3.077793e+000
      vertex  7.300000e+001 -7.000000e+000 -4.500000e+000
    endloop
  endfacet
  facet normal  0.000000e+000  1.000000e+000  0.000000e+000
    outer loop
      vertex  6.387775e+001 -7.000000e+000  5.203388e-001
      vertex  7.300000e+001 -7.000000e+000 -4.500000e+000
      vertex  7.123223e+001 -7.000000e+000 -5.232233e+000
    endloop
  endfacet
  facet normal  0.000000e+000  1.000000e+000  0.000000e+000
    outer loop
      vertex  6.387775e+001 -7.000000e+000  5.203388e-001
      vertex  7.123223e+001 -7.000000e+000 -5.232233e+000
      vertex  7.050000e+001 -7.000000e+000 -7.000000e+000
    endloop
  endfacet
  facet normal  0.000000e+000  1.000000e+000  0.000000e+000
    outer loop
      vertex  6.387775e+001 -7.000000e+000  5.203388e-001
      vertex  7.050000e+001 -7.000000e+000 -7.000000e+000
      vertex  6.736185e+001 -7.000000e+000 -9.052121e+000
    endloop
  endfacet
  facet normal  0.000000e+000  1.000000e+000  -0.000000e+000
    outer loop
      vertex  7.631766e+001 -7.000000e+000 -1.199932e+001
      vertex  7.380151e+001 -7.000000e+000 -1.294622e+001
      vertex  7.300000e+001 -7.000000e+000 -9.500000e+000
    endloop
  endfacet
  facet normal  -0.000000e+000  1.000000e+000  0.000000e+000
    outer loop
      vertex  7.631766e+001 -7.000000e+000 -1.199932e+001
      vertex  7.300000e+001 -7.000000e+000 -9.500000e+000
      vertex  7.476777e+001 -7.000000e+000 -8.767767e+000
    endloop
  endfacet
  facet normal  -0.000000e+000  1.000000e+000  0.000000e+000
    outer loop
      vertex  7.631766e+001 -7.000000e+000 -1.199932e+001
      vertex  7.476777e+001 -7.000000e+000 -8.767767e+000
      vertex  7.550000e+001 -7.000000e+000 -7.000000e+000
    endloop
  endfacet
  facet normal  0.000000e+000  1.000000e+000  0.000000e+000
    outer loop
      vertex  6.776823e+001 -7.000000e+000  5.629720e+001
      vertex  1.012146e+002 -7.000000e+000  1.503776e+001
      vertex  9.500000e+001 -7.000000e+000  1.500000e+001
    endloop
  endfacet
  facet normal  0.000000e+000  1.000000e+000  0.000000e+000
    outer loop
      vertex  6.776823e+001 -7.000000e+000  5.629720e+001
      vertex  9.500000e+001 -7.000000e+000  1.500000e+001
      vertex  9.250000e+001 -7.000000e+000  1.433013e+001
    endloop
  endfacet
  facet normal  0.000000e+000  1.000000e+000  0.000000e+000
    outer loop
      vertex  6.776823e+001 -7.000000e+000  5.629720e+001
      vertex  9.250000e+001 -7.000000e+000  1.433013e+001
      vertex  7.300000e+001 -7.000000e+000 -4.500000e+000
    endloop
  endfacet
  facet normal  0.000000e+000  1.000000e+000  0.000000e+000
    outer loop
      vertex  6.776823e+001 -7.000000e+000  5.629720e+001
      vertex  7.300000e+001 -7.000000e+000 -4.500000e+000
      vertex  6.500000e+001 -7.000000e+000  5.000000e+001
    endloop
  endfacet
  facet normal  0.000000e+000  1.000000e+000  -0.000000e+000
    outer loop
      vertex  6.776823e+001 -7.000000e+000  5.629720e+001
      vertex  6.500000e+001 -7.000000e+000  5.000000e+001
      vertex  6.433012e+001 -7.000000e+000  5.250000e+001
    endloop
  endfacet
  facet normal  0.000000e+000  1.000000e+000  -0.000000e+000
    outer loop
      vertex  6.776823e+001 -7.000000e+000  5.629720e+001
      vertex  6.433012e+001 -7.000000e+000  5.250000e+001
      vertex  6.250000e+001 -7.000000e+000  5.433013e+001
    endloop
  endfacet
  facet normal  0.000000e+000  1.000000e+000  -0.000000e+000
    outer loop
      vertex  6.776823e+001 -7.000000e+000  5.629720e+001
      vertex  6.250000e+001 -7.000000e+000  5.433013e+001
      vertex  6.000000e+001 -7.000000e+000  5.500000e+001
    endloop
  endfacet
  facet normal  0.000000e+000  1.000000e+000  0.000000e+000
    outer loop
      vertex  6.776823e+001 -7.000000e+000  5.629720e+001
      vertex  6.000000e+001 -7.000000e+000  5.500000e+001
      vertex  6.185551e+001 -7.000000e+000  5.982635e+001
    endloop
  endfacet
  facet normal  0.000000e+000  1.000000e+000  0.000000e+000
    outer loop
      vertex  6.776823e+001 -7.000000e+000  5.629720e+001
      vertex  6.185551e+001 -7.000000e+000  5.982635e+001
      vertex  6.512521e+001 -7.000000e+000  5.858675e+001
    endloop
  endfacet
  facet normal  0.000000e+000  1.000000e+000  0.000000e+000
    outer loop
      vertex -1.300000e+001 -7.000000e+000  2.000000e+001
      vertex -1.300000e+001 -7.000000e+000  4.800000e+001
      vertex -8.356443e+000 -7.000000e+000  2.370598e+001
    endloop
  endfacet
  facet normal  0.000000e+000  1.000000e+000  0.000000e+000
    outer loop
      vertex -1.300000e+001 -7.000000e+000  2.000000e+001
      vertex -8.356443e+000 -7.000000e+000  2.370598e+001
      vertex -9.776295e+000 -7.000000e+000  2.147885e+001
    endloop
  endfacet
  facet normal  0.000000e+000  1.000000e+000  0.000000e+000
    outer loop
      vertex -1.300000e+001 -7.000000e+000  2.000000e+001
      vertex -9.776295e+000 -7.000000e+000  2.147885e+001
      vertex -9.863356e+000 -7.000000e+000  1.883906e+001
    endloop
  endfacet
  facet normal  0.000000e+000  9.999999e-001  0.000000e+000
    outer loop
      vertex -1.300000e+001 -7.000000e+000  2.000000e+001
      vertex -9.863356e+000 -7.000000e+000  1.883906e+001
      vertex -8.593330e+000 -7.000000e+000  1.652322e+001
    endloop
  endfacet
  facet normal  0.000000e+000  1.000000e+000  0.000000e+000
    outer loop
      vertex -1.300000e+001 -7.000000e+000  2.000000e+001
      vertex -8.593330e+000 -7.000000e+000  1.652322e+001
      vertex -1.246502e+001 -7.000000e+000  1.712363e+001
    endloop
  endfacet
  facet normal  0.000000e+000  1.000000e+000  -0.000000e+000
    outer loop
      vertex  1.478487e+001 -7.000000e+000  1.356498e+000
      vertex  1.314657e+001 -7.000000e+000  2.093452e-001
      vertex  1.015798e+001 -7.000000e+000 -5.212201e-002
    endloop
  endfacet
  facet normal  0.000000e+000  1.000000e+000  -0.000000e+000
    outer loop
      vertex  1.478487e+001 -7.000000e+000  1.356498e+000
      vertex  1.015798e+001 -7.000000e+000 -5.212201e-002
      vertex  8.968383e+000 -7.000000e+000  9.460720e-001
    endloop
  endfacet
  facet normal  0.000000e+000  1.000000e+000  -0.000000e+000
    outer loop
      vertex  1.478487e+001 -7.000000e+000  1.356498e+000
      vertex  8.968383e+000 -7.000000e+000  9.460720e-001
      vertex  3.043057e+000 -7.000000e+000  9.408314e+000
    endloop
  endfacet
  facet normal  -0.000000e+000  9.999999e-001  -0.000000e+000
    outer loop
      vertex  1.478487e+001 -7.000000e+000  1.356498e+000
      vertex  3.043057e+000 -7.000000e+000  9.408314e+000
      vertex  1.474100e+000 -7.000000e+000  1.085497e+001
    endloop
  endfacet
  facet normal  -0.000000e+000  1.000000e+000  0.000000e+000
    outer loop
      vertex  9.500000e+001 -7.000000e+000  5.000000e+000
      vertex  9.750000e+001 -7.000000e+000  5.669873e+000
      vertex  1.017422e+002 -7.000000e+000  5.693856e+000
    endloop
  endfacet
  facet normal  0.000000e+000  1.000000e+000  0.000000e+000
    outer loop
      vertex  9.500000e+001 -7.000000e+000  5.000000e+000
      vertex  1.017422e+002 -7.000000e+000  5.693856e+000
      vertex  9.942354e+001 -7.000000e+000  3.334244e+000
    endloop
  endfacet
  facet normal  0.000000e+000  9.999999e-001  0.000000e+000
    outer loop
      vertex  9.500000e+001 -7.000000e+000  5.000000e+000
      vertex  9.942354e+001 -7.000000e+000  3.334244e+000
      vertex  7.631766e+001 -7.000000e+000 -1.199932e+001
    endloop
  endfacet
  facet normal  0.000000e+000  9.999999e-001  -0.000000e+000
    outer loop
      vertex  9.500000e+001 -7.000000e+000  5.000000e+000
      vertex  7.631766e+001 -7.000000e+000 -1.199932e+001
      vertex  7.550000e+001 -7.000000e+000 -7.000000e+000
    endloop
  endfacet
  facet normal  0.000000e+000  1.000000e+000  -0.000000e+000
    outer loop
      vertex  9.500000e+001 -7.000000e+000  5.000000e+000
      vertex  7.550000e+001 -7.000000e+000 -7.000000e+000
      vertex  7.476777e+001 -7.000000e+000 -5.232233e+000
    endloop
  endfacet
  facet normal  0.000000e+000  1.000000e+000  -0.000000e+000
    outer loop
      vertex  9.500000e+001 -7.000000e+000  5.000000e+000
      vertex  7.476777e+001 -7.000000e+000 -5.232233e+000
      vertex  7.300000e+001 -7.000000e+000 -4.500000e+000
    endloop
  endfacet
  facet normal  0.000000e+000  1.000000e+000  0.000000e+000
    outer loop
      vertex  7.300000e+001 -7.000000e+000 -4.500000e+000
      vertex  9.250000e+001 -7.000000e+000  1.433013e+001
      vertex  9.066988e+001 -7.000000e+000  1.250000e+001
    endloop
  endfacet
  facet normal  0.000000e+000  1.000000e+000  0.000000e+000
    outer loop
      vertex  7.300000e+001 -7.000000e+000 -4.500000e+000
      vertex  9.066988e+001 -7.000000e+000  1.250000e+001
      vertex  9.000000e+001 -7.000000e+000  1.000000e+001
    endloop
  endfacet
  facet normal  0.000000e+000  1.000000e+000  0.000000e+000
    outer loop
      vertex  7.300000e+001 -7.000000e+000 -4.500000e+000
      vertex  9.000000e+001 -7.000000e+000  1.000000e+001
      vertex  9.066988e+001 -7.000000e+000  7.500000e+000
    endloop
  endfacet
  facet normal  0.000000e+000  9.999999e-001  0.000000e+000
    outer loop
      vertex  7.300000e+001 -7.000000e+000 -4.500000e+000
      vertex  9.066988e+001 -7.000000e+000  7.500000e+000
      vertex  9.250000e+001 -7.000000e+000  5.669873e+000
    endloop
  endfacet
  facet normal  0.000000e+000  9.999999e-001  0.000000e+000
    outer loop
      vertex  7.300000e+001 -7.000000e+000 -4.500000e+000
      vertex  9.250000e+001 -7.000000e+000  5.669873e+000
      vertex  9.500000e+001 -7.000000e+000  5.000000e+000
    endloop
  endfacet
  facet normal  0.000000e+000  1.000000e+000  0.000000e+000
    outer loop
      vertex  5.566987e+001 -7.000000e+000  4.750000e+001
      vertex  5.750000e+001 -7.000000e+000  4.566987e+001
      vertex -4.000000e+000 -7.000000e+000  2.489898e+001
    endloop
  endfacet
  facet normal  0.000000e+000  1.000000e+000  0.000000e+000
    outer loop
      vertex  5.566987e+001 -7.000000e+000  4.750000e+001
      vertex -4.000000e+000 -7.000000e+000  2.489898e+001
      vertex -4.000000e+000 -7.000000e+000  4.800000e+001
    endloop
  endfacet
  facet normal  -0.000000e+000  1.000000e+000  0.000000e+000
    outer loop
      vertex  5.566987e+001 -7.000000e+000  4.750000e+001
      vertex -4.000000e+000 -7.000000e+000  4.800000e+001
      vertex  5.000000e+001 -7.000000e+000  4.800000e+001
    endloop
  endfacet
  facet normal  -0.000000e+000  1.000000e+000  0.000000e+000
    outer loop
      vertex  5.566987e+001 -7.000000e+000  4.750000e+001
      vertex  5.000000e+001 -7.000000e+000  4.800000e+001
      vertex  5.000000e+001 -7.000000e+000  5.000000e+001
    endloop
  endfacet
  facet normal  -0.000000e+000  1.000000e+000  0.000000e+000
    outer loop
      vertex  5.566987e+001 -7.000000e+000  4.750000e+001
      vertex  5.000000e+001 -7.000000e+000  5.000000e+001
      vertex  5.500000e+001 -7.000000e+000  5.000000e+001
    endloop
  endfacet
  facet normal  -0.000000e+000  1.000000e+000  -0.000000e+000
    outer loop
      vertex  5.715624e+001 -7.000000e+000  5.744475e+000
      vertex  2.740931e+001 -7.000000e+000  8.719169e+000
      vertex  8.393106e+000 -7.000000e+000  1.397178e+001
    endloop
  endfacet
  facet normal  -0.000000e+000  1.000000e+000  -0.000000e+000
    outer loop
      vertex  5.715624e+001 -7.000000e+000  5.744475e+000
      vertex  8.393106e+000 -7.000000e+000  1.397178e+001
      vertex -1.406669e+000 -7.000000e+000  1.652322e+001
    endloop
  endfacet
  facet normal  -0.000000e+000  1.000000e+000  0.000000e+000
    outer loop
      vertex  5.715624e+001 -7.000000e+000  5.744475e+000
      vertex -1.406669e+000 -7.000000e+000  1.652322e+001
      vertex -1.366447e-001 -7.000000e+000  1.883906e+001
    endloop
  endfacet
  facet normal  -0.000000e+000  1.000000e+000  -0.000000e+000
    outer loop
      vertex  5.715624e+001 -7.000000e+000  5.744475e+000
      vertex -1.366447e-001 -7.000000e+000  1.883906e+001
      vertex -2.237051e-001 -7.000000e+000  2.147885e+001
    endloop
  endfacet
  facet normal  -0.000000e+000  1.000000e+000  -0.000000e+000
    outer loop
      vertex  5.715624e+001 -7.000000e+000  5.744475e+000
      vertex -2.237051e-001 -7.000000e+000  2.147885e+001
      vertex -1.643557e+000 -7.000000e+000  2.370598e+001
    endloop
  endfacet
  facet normal  0.000000e+000  1.000000e+000  0.000000e+000
    outer loop
      vertex  6.754802e+000 -7.000000e+000  1.282463e+001
      vertex  1.478487e+001 -7.000000e+000  1.356498e+000
      vertex  1.474100e+000 -7.000000e+000  1.085497e+001
    endloop
  endfacet
  facet normal  0.000000e+000  9.999999e-001  -0.000000e+000
    outer loop
      vertex  6.754802e+000 -7.000000e+000  1.282463e+001
      vertex  1.474100e+000 -7.000000e+000  1.085497e+001
      vertex -5.551846e-001 -7.000000e+000  1.151562e+001
    endloop
  endfacet
  facet normal  0.000000e+000  1.000000e+000  -0.000000e+000
    outer loop
      vertex  6.754802e+000 -7.000000e+000  1.282463e+001
      vertex -5.551846e-001 -7.000000e+000  1.151562e+001
      vertex -5.796030e+000 -7.000000e+000  1.203970e+001
    endloop
  endfacet
  facet normal  0.000000e+000  1.000000e+000  -0.000000e+000
    outer loop
      vertex  6.754802e+000 -7.000000e+000  1.282463e+001
      vertex -5.796030e+000 -7.000000e+000  1.203970e+001
      vertex -8.604895e+000 -7.000000e+000  1.285824e+001
    endloop
  endfacet
  facet normal  0.000000e+000  1.000000e+000  0.000000e+000
    outer loop
      vertex -1.643557e+000 -7.000000e+000  2.370598e+001
      vertex -4.000000e+000 -7.000000e+000  2.489898e+001
      vertex  5.715624e+001 -7.000000e+000  5.744475e+000
    endloop
  endfacet
  facet normal  0.000000e+000  1.000000e+000  -0.000000e+000
    outer loop
      vertex  5.715624e+001 -7.000000e+000  5.744475e+000
      vertex -4.000000e+000 -7.000000e+000  2.489898e+001
      vertex  6.000000e+001 -7.000000e+000  4.500000e+001
    endloop
  endfacet
  facet normal  0.000000e+000  9.999999e-001  0.000000e+000
    outer loop
      vertex  5.715624e+001 -7.000000e+000  5.744475e+000
      vertex  6.000000e+001 -7.000000e+000  4.500000e+001
      vertex  6.000959e+001 -7.000000e+000  4.903309e+000
    endloop
  endfacet
  facet normal  0.000000e+000  1.000000e+000  -0.000000e+000
    outer loop
      vertex  6.000959e+001 -7.000000e+000  4.903309e+000
      vertex  6.000000e+001 -7.000000e+000  4.500000e+001
      vertex  6.250000e+001 -7.000000e+000  4.566987e+001
    endloop
  endfacet
  facet normal  -0.000000e+000  1.000000e+000  0.000000e+000
    outer loop
      vertex  6.000959e+001 -7.000000e+000  4.903309e+000
      vertex  6.250000e+001 -7.000000e+000  4.566987e+001
      vertex  6.433012e+001 -7.000000e+000  4.750000e+001
    endloop
  endfacet
  facet normal  0.000000e+000  1.000000e+000  0.000000e+000
    outer loop
      vertex  5.835892e+001 -7.000000e+000  5.986443e+001
      vertex  6.185551e+001 -7.000000e+000  5.982635e+001
      vertex  5.506300e+001 -7.000000e+000  5.869632e+001
    endloop
  endfacet
  facet normal  -0.000000e+000  1.000000e+000  0.000000e+000
    outer loop
      vertex  5.506300e+001 -7.000000e+000  5.869632e+001
      vertex  6.185551e+001 -7.000000e+000  5.982635e+001
      vertex  6.000000e+001 -7.000000e+000  5.500000e+001
    endloop
  endfacet
  facet normal  0.000000e+000  1.000000e+000  0.000000e+000
    outer loop
      vertex  5.506300e+001 -7.000000e+000  5.869632e+001
      vertex  6.000000e+001 -7.000000e+000  5.500000e+001
      vertex  5.237075e+001 -7.000000e+000  5.646487e+001
    endloop
  endfacet
  facet normal  -0.000000e+000  1.000000e+000  0.000000e+000
    outer loop
      vertex  7.380151e+001 -7.000000e+000 -1.294622e+001
      vertex  7.112445e+001 -7.000000e+000 -1.269933e+001
      vertex  7.300000e+001 -7.000000e+000 -9.500000e+000
    endloop
  endfacet
  facet normal  0.000000e+000  1.000000e+000  0.000000e+000
    outer loop
      vertex  7.300000e+001 -7.000000e+000 -9.500000e+000
      vertex  7.112445e+001 -7.000000e+000 -1.269933e+001
      vertex  6.882394e+001 -7.000000e+000 -1.130820e+001
    endloop
  endfacet
  facet normal  0.000000e+000  9.999999e-001  0.000000e+000
    outer loop
      vertex  7.300000e+001 -7.000000e+000 -9.500000e+000
      vertex  6.882394e+001 -7.000000e+000 -1.130820e+001
      vertex  7.123223e+001 -7.000000e+000 -8.767767e+000
    endloop
  endfacet
  facet normal  0.000000e+000  1.000000e+000  0.000000e+000
    outer loop
      vertex  7.123223e+001 -7.000000e+000 -8.767767e+000
      vertex  6.882394e+001 -7.000000e+000 -1.130820e+001
      vertex  6.736185e+001 -7.000000e+000 -9.052121e+000
    endloop
  endfacet
  facet normal  0.000000e+000  1.000000e+000  0.000000e+000
    outer loop
      vertex  7.123223e+001 -7.000000e+000 -8.767767e+000
      vertex  6.736185e+001 -7.000000e+000 -9.052121e+000
      vertex  7.050000e+001 -7.000000e+000 -7.000000e+000
    endloop
  endfacet
  facet normal  0.000000e+000  1.000000e+000  0.000000e+000
    outer loop
      vertex  6.433012e+001 -7.000000e+000  4.750000e+001
      vertex  6.500000e+001 -7.000000e+000  5.000000e+001
      vertex  6.000959e+001 -7.000000e+000  4.903309e+000
    endloop
  endfacet
  facet normal  -0.000000e+000  1.000000e+000  0.000000e+000
    outer loop
      vertex  6.000959e+001 -7.000000e+000  4.903309e+000
      vertex  6.500000e+001 -7.000000e+000  5.000000e+001
      vertex  7.300000e+001 -7.000000e+000 -4.500000e+000
    endloop
  endfacet
  facet normal  0.000000e+000  1.000000e+000  0.000000e+000
    outer loop
      vertex  6.000959e+001 -7.000000e+000  4.903309e+000
      vertex  7.300000e+001 -7.000000e+000 -4.500000e+000
      vertex  6.235835e+001 -7.000000e+000  3.077793e+000
    endloop
  endfacet
  facet normal  -0.000000e+000  1.000000e+000  0.000000e+000
    outer loop
      vertex  1.017422e+002 -7.000000e+000  5.693856e+000
      vertex  9.933012e+001 -7.000000e+000  7.500000e+000
      vertex  1.029079e+002 -7.000000e+000  8.789813e+000
    endloop
  endfacet
  facet normal  0.000000e+000  1.000000e+000  0.000000e+000
    outer loop
      vertex  1.029079e+002 -7.000000e+000  8.789813e+000
      vertex  9.933012e+001 -7.000000e+000  7.500000e+000
      vertex  1.000000e+002 -7.000000e+000  1.000000e+001
    endloop
  endfacet
  facet normal  -0.000000e+000  1.000000e+000  0.000000e+000
    outer loop
      vertex  1.029079e+002 -7.000000e+000  8.789813e+000
      vertex  1.000000e+002 -7.000000e+000  1.000000e+001
      vertex  1.027214e+002 -7.000000e+000  1.209271e+001
    endloop
  endfacet
  facet normal  0.000000e+000  1.000000e+000  0.000000e+000
    outer loop
      vertex  1.027214e+002 -7.000000e+000  1.209271e+001
      vertex  1.000000e+002 -7.000000e+000  1.000000e+001
      vertex  9.933012e+001 -7.000000e+000  1.250000e+001
    endloop
  endfacet
  facet normal  -0.000000e+000  1.000000e+000  0.000000e+000
    outer loop
      vertex  1.027214e+002 -7.000000e+000  1.209271e+001
      vertex  9.933012e+001 -7.000000e+000  1.250000e+001
      vertex  1.012146e+002 -7.000000e+000  1.503776e+001
    endloop
  endfacet
  facet normal  0.000000e+000  1.000000e+000  0.000000e+000
    outer loop
      vertex  1.012146e+002 -7.000000e+000  1.503776e+001
      vertex  9.933012e+001 -7.000000e+000  1.250000e+001
      vertex  9.750000e+001 -7.000000e+000  1.433013e+001
    endloop
  endfacet
  facet normal  0.000000e+000  1.000000e+000  -0.000000e+000
    outer loop
      vertex  1.012146e+002 -7.000000e+000  1.503776e+001
      vertex  9.750000e+001 -7.000000e+000  1.433013e+001
      vertex  9.500000e+001 -7.000000e+000  1.500000e+001
    endloop
  endfacet
  facet normal  0.000000e+000  1.000000e+000  0.000000e+000
    outer loop
      vertex -6.000000e+000 -7.000000e+000  2.489898e+001
      vertex -8.356443e+000 -7.000000e+000  2.370598e+001
      vertex -6.000000e+000 -7.000000e+000  4.800000e+001
    endloop
  endfacet
  facet normal  0.000000e+000  1.000000e+000  0.000000e+000
    outer loop
      vertex -6.000000e+000 -7.000000e+000  4.800000e+001
      vertex -8.356443e+000 -7.000000e+000  2.370598e+001
      vertex -1.300000e+001 -7.000000e+000  4.800000e+001
    endloop
  endfacet
  facet normal  0.000000e+000  1.000000e+000  0.000000e+000
    outer loop
      vertex -1.246502e+001 -7.000000e+000  1.712363e+001
      vertex -8.593330e+000 -7.000000e+000  1.652322e+001
      vertex -1.093162e+001 -7.000000e+000  1.463196e+001
    endloop
  endfacet
  facet normal  0.000000e+000  9.999999e-001  0.000000e+000
    outer loop
      vertex -1.093162e+001 -7.000000e+000  1.463196e+001
      vertex -8.593330e+000 -7.000000e+000  1.652322e+001
      vertex -6.320613e+000 -7.000000e+000  1.517755e+001
    endloop
  endfacet
  facet normal  -0.000000e+000  1.000000e+000  0.000000e+000
    outer loop
      vertex -1.093162e+001 -7.000000e+000  1.463196e+001
      vertex -6.320613e+000 -7.000000e+000  1.517755e+001
      vertex -3.679387e+000 -7.000000e+000  1.517755e+001
    endloop
  endfacet
  facet normal  0.000000e+000  1.000000e+000  0.000000e+000
    outer loop
      vertex  5.237075e+001 -7.000000e+000  5.646487e+001
      vertex  6.000000e+001 -7.000000e+000  5.500000e+001
      vertex  5.061138e+001 -7.000000e+000  5.344293e+001
    endloop
  endfacet
  facet normal  0.000000e+000  1.000000e+000  0.000000e+000
    outer loop
      vertex  5.061138e+001 -7.000000e+000  5.344293e+001
      vertex  6.000000e+001 -7.000000e+000  5.500000e+001
      vertex  5.750000e+001 -7.000000e+000  5.433013e+001
    endloop
  endfacet
  facet normal  0.000000e+000  1.000000e+000  0.000000e+000
    outer loop
      vertex  5.061138e+001 -7.000000e+000  5.344293e+001
      vertex  5.750000e+001 -7.000000e+000  5.433013e+001
      vertex  5.000000e+001 -7.000000e+000  5.000000e+001
    endloop
  endfacet
  facet normal  0.000000e+000  1.000000e+000  0.000000e+000
    outer loop
      vertex  5.000000e+001 -7.000000e+000  5.000000e+001
      vertex  5.750000e+001 -7.000000e+000  5.433013e+001
      vertex  5.566987e+001 -7.000000e+000  5.250000e+001
    endloop
  endfacet
  facet normal  0.000000e+000  1.000000e+000  0.000000e+000
    outer loop
      vertex  5.000000e+001 -7.000000e+000  5.000000e+001
      vertex  5.566987e+001 -7.000000e+000  5.250000e+001
      vertex  5.500000e+001 -7.000000e+000  5.000000e+001
    endloop
  endfacet
  facet normal  0.000000e+000 -1.000000e+000  0.000000e+000
    outer loop
      vertex  8.393106e+000 -9.000000e+000  1.397178e+001
      vertex  2.564767e+001 -9.000000e+000  8.581544e+000
      vertex  2.740931e+001 -9.000000e+000  8.719169e+000
    endloop
  endfacet
  facet normal  0.000000e+000 -1.000000e+000  0.000000e+000
    outer loop
      vertex  8.393106e+000 -9.000000e+000  1.397178e+001
      vertex  1.642318e+001 -9.000000e+000  2.503651e+000
      vertex  2.404391e+001 -9.000000e+000  7.839743e+000
    endloop
  endfacet
  facet normal  0.000000e+000 -1.000000e+000  0.000000e+000
    outer loop
      vertex  2.564767e+001 -9.000000e+000  8.581544e+000
      vertex  8.393106e+000 -9.000000e+000  1.397178e+001
      vertex  2.404391e+001 -9.000000e+000  7.839743e+000
    endloop
  endfacet
  facet normal  -0.000000e+000 -1.000000e+000  0.000000e+000
    outer loop
      vertex  9.750000e+001 -9.000000e+000  5.669873e+000
      vertex  1.017422e+002 -9.000000e+000  5.693856e+000
      vertex  9.933012e+001 -9.000000e+000  7.500000e+000
    endloop
  endfacet
  facet normal  0.000000e+000 -1.000000e+000  -0.000000e+000
    outer loop
      vertex  6.000000e+001 -9.000000e+000  4.500000e+001
      vertex  5.750000e+001 -9.000000e+000  4.566987e+001
      vertex -4.000000e+000 -9.000000e+000  2.489898e+001
    endloop
  endfacet
  facet normal  0.000000e+000 -1.000000e+000  0.000000e+000
    outer loop
      vertex  1.015798e+001 -9.000000e+000 -5.212201e-002
      vertex  1.168731e+001 -9.000000e+000 -3.217827e-001
      vertex  1.314657e+001 -9.000000e+000  2.093452e-001
    endloop
  endfacet
  facet normal  0.000000e+000 -1.000000e+000  -0.000000e+000
    outer loop
      vertex  8.393106e+000 -9.000000e+000  1.397178e+001
      vertex -1.406669e+000 -9.000000e+000  1.652322e+001
      vertex -3.679387e+000 -9.000000e+000  1.517755e+001
    endloop
  endfacet
  facet normal  0.000000e+000 -1.000000e+000  -0.000000e+000
    outer loop
      vertex  8.393106e+000 -9.000000e+000  1.397178e+001
      vertex -3.679387e+000 -9.000000e+000  1.517755e+001
      vertex -1.093162e+001 -9.000000e+000  1.463196e+001
    endloop
  endfacet
  facet normal  0.000000e+000 -1.000000e+000  0.000000e+000
    outer loop
      vertex  8.393106e+000 -9.000000e+000  1.397178e+001
      vertex -1.093162e+001 -9.000000e+000  1.463196e+001
      vertex -8.604895e+000 -9.000000e+000  1.285824e+001
    endloop
  endfacet
  facet normal  0.000000e+000 -1.000000e+000  0.000000e+000
    outer loop
      vertex  8.393106e+000 -9.000000e+000  1.397178e+001
      vertex -8.604895e+000 -9.000000e+000  1.285824e+001
      vertex  6.754802e+000 -9.000000e+000  1.282463e+001
    endloop
  endfacet
  facet normal  0.000000e+000 -1.000000e+000  0.000000e+000
    outer loop
      vertex  6.387775e+001 -9.000000e+000  5.203388e-001
      vertex  6.736185e+001 -9.000000e+000 -9.052121e+000
      vertex  7.050000e+001 -9.000000e+000 -7.000000e+000
    endloop
  endfacet
  facet normal  0.000000e+000 -1.000000e+000  0.000000e+000
    outer loop
      vertex  6.387775e+001 -9.000000e+000  5.203388e-001
      vertex  7.050000e+001 -9.000000e+000 -7.000000e+000
      vertex  7.123223e+001 -9.000000e+000 -5.232233e+000
    endloop
  endfacet
  facet normal  0.000000e+000 -1.000000e+000  0.000000e+000
    outer loop
      vertex  6.387775e+001 -9.000000e+000  5.203388e-001
      vertex  7.123223e+001 -9.000000e+000 -5.232233e+000
      vertex  7.300000e+001 -9.000000e+000 -4.500000e+000
    endloop
  endfacet
  facet normal  0.000000e+000 -1.000000e+000  0.000000e+000
    outer loop
      vertex  6.387775e+001 -9.000000e+000  5.203388e-001
      vertex  7.300000e+001 -9.000000e+000 -4.500000e+000
      vertex  6.235835e+001 -9.000000e+000  3.077793e+000
    endloop
  endfacet
  facet normal  0.000000e+000 -1.000000e+000  -0.000000e+000
    outer loop
      vertex  7.631766e+001 -9.000000e+000 -1.199932e+001
      vertex  7.550000e+001 -9.000000e+000 -7.000000e+000
      vertex  7.476777e+001 -9.000000e+000 -8.767767e+000
    endloop
  endfacet
  facet normal  0.000000e+000 -1.000000e+000  -0.000000e+000
    outer loop
      vertex  7.631766e+001 -9.000000e+000 -1.199932e+001
      vertex  7.476777e+001 -9.000000e+000 -8.767767e+000
      vertex  7.300000e+001 -9.000000e+000 -9.500000e+000
    endloop
  endfacet
  facet normal  0.000000e+000 -1.000000e+000  0.000000e+000
    outer loop
      vertex  7.631766e+001 -9.000000e+000 -1.199932e+001
      vertex  7.300000e+001 -9.000000e+000 -9.500000e+000
      vertex  7.380151e+001 -9.000000e+000 -1.294622e+001
    endloop
  endfacet
  facet normal  -0.000000e+000 -1.000000e+000  -0.000000e+000
    outer loop
      vertex  6.776823e+001 -9.000000e+000  5.629720e+001
      vertex  6.512521e+001 -9.000000e+000  5.858675e+001
      vertex  6.185551e+001 -9.000000e+000  5.982635e+001
    endloop
  endfacet
  facet normal  0.000000e+000 -1.000000e+000  -0.000000e+000
    outer loop
      vertex  6.776823e+001 -9.000000e+000  5.629720e+001
      vertex  6.185551e+001 -9.000000e+000  5.982635e+001
      vertex  6.000000e+001 -9.000000e+000  5.500000e+001
    endloop
  endfacet
  facet normal  0.000000e+000 -1.000000e+000  0.000000e+000
    outer loop
      vertex  6.776823e+001 -9.000000e+000  5.629720e+001
      vertex  6.000000e+001 -9.000000e+000  5.500000e+001
      vertex  6.250000e+001 -9.000000e+000  5.433013e+001
    endloop
  endfacet
  facet normal  0.000000e+000 -1.000000e+000  0.000000e+000
    outer loop
      vertex  6.776823e+001 -9.000000e+000  5.629720e+001
      vertex  6.250000e+001 -9.000000e+000  5.433013e+001
      vertex  6.433012e+001 -9.000000e+000  5.250000e+001
    endloop
  endfacet
  facet normal  0.000000e+000 -1.000000e+000  0.000000e+000
    outer loop
      vertex  6.776823e+001 -9.000000e+000  5.629720e+001
      vertex  6.433012e+001 -9.000000e+000  5.250000e+001
      vertex  6.500000e+001 -9.000000e+000  5.000000e+001
    endloop
  endfacet
  facet normal  0.000000e+000 -1.000000e+000  0.000000e+000
    outer loop
      vertex  6.776823e+001 -9.000000e+000  5.629720e+001
      vertex  6.500000e+001 -9.000000e+000  5.000000e+001
      vertex  7.300000e+001 -9.000000e+000 -4.500000e+000
    endloop
  endfacet
  facet normal  0.000000e+000 -1.000000e+000  0.000000e+000
    outer loop
      vertex  6.776823e+001 -9.000000e+000  5.629720e+001
      vertex  7.300000e+001 -9.000000e+000 -4.500000e+000
      vertex  9.250000e+001 -9.000000e+000  1.433013e+001
    endloop
  endfacet
  facet normal  0.000000e+000 -1.000000e+000  0.000000e+000
    outer loop
      vertex  6.776823e+001 -9.000000e+000  5.629720e+001
      vertex  9.250000e+001 -9.000000e+000  1.433013e+001
      vertex  9.500000e+001 -9.000000e+000  1.500000e+001
    endloop
  endfacet
  facet normal  0.000000e+000 -1.000000e+000  0.000000e+000
    outer loop
      vertex  6.776823e+001 -9.000000e+000  5.629720e+001
      vertex  9.500000e+001 -9.000000e+000  1.500000e+001
      vertex  1.012146e+002 -9.000000e+000  1.503776e+001
    endloop
  endfacet
  facet normal  0.000000e+000 -1.000000e+000  0.000000e+000
    outer loop
      vertex -1.300000e+001 -9.000000e+000  2.000000e+001
      vertex -1.246502e+001 -9.000000e+000  1.712363e+001
      vertex -8.593330e+000 -9.000000e+000  1.652322e+001
    endloop
  endfacet
  facet normal  0.000000e+000 -9.999999e-001  0.000000e+000
    outer loop
      vertex -1.300000e+001 -9.000000e+000  2.000000e+001
      vertex -8.593330e+000 -9.000000e+000  1.652322e+001
      vertex -9.863356e+000 -9.000000e+000  1.883906e+001
    endloop
  endfacet
  facet normal  0.000000e+000 -1.000000e+000  0.000000e+000
    outer loop
      vertex -1.300000e+001 -9.000000e+000  2.000000e+001
      vertex -9.863356e+000 -9.000000e+000  1.883906e+001
      vertex -9.776295e+000 -9.000000e+000  2.147885e+001
    endloop
  endfacet
  facet normal  -0.000000e+000 -1.000000e+000  0.000000e+000
    outer loop
      vertex -1.300000e+001 -9.000000e+000  2.000000e+001
      vertex -9.776295e+000 -9.000000e+000  2.147885e+001
      vertex -8.356443e+000 -9.000000e+000  2.370598e+001
    endloop
  endfacet
  facet normal  -0.000000e+000 -1.000000e+000  0.000000e+000
    outer loop
      vertex -1.300000e+001 -9.000000e+000  2.000000e+001
      vertex -8.356443e+000 -9.000000e+000  2.370598e+001
      vertex -1.300000e+001 -9.000000e+000  4.800000e+001
    endloop
  endfacet
  facet normal  0.000000e+000 -1.000000e+000  0.000000e+000
    outer loop
      vertex  1.478487e+001 -9.000000e+000  1.356498e+000
      vertex  1.474100e+000 -9.000000e+000  1.085497e+001
      vertex  3.043057e+000 -9.000000e+000  9.408314e+000
    endloop
  endfacet
  facet normal  0.000000e+000 -1.000000e+000  0.000000e+000
    outer loop
      vertex  1.478487e+001 -9.000000e+000  1.356498e+000
      vertex  3.043057e+000 -9.000000e+000  9.408314e+000
      vertex  8.968383e+000 -9.000000e+000  9.460720e-001
    endloop
  endfacet
  facet normal  0.000000e+000 -1.000000e+000  0.000000e+000
    outer loop
      vertex  1.478487e+001 -9.000000e+000  1.356498e+000
      vertex  8.968383e+000 -9.000000e+000  9.460720e-001
      vertex  1.015798e+001 -9.000000e+000 -5.212201e-002
    endloop
  endfacet
  facet normal  0.000000e+000 -1.000000e+000  0.000000e+000
    outer loop
      vertex  1.478487e+001 -9.000000e+000  1.356498e+000
      vertex  1.015798e+001 -9.000000e+000 -5.212201e-002
      vertex  1.314657e+001 -9.000000e+000  2.093452e-001
    endloop
  endfacet
  facet normal  0.000000e+000 -1.000000e+000  0.000000e+000
    outer loop
      vertex  9.500000e+001 -9.000000e+000  5.000000e+000
      vertex  7.300000e+001 -9.000000e+000 -4.500000e+000
      vertex  7.476777e+001 -9.000000e+000 -5.232233e+000
    endloop
  endfacet
  facet normal  0.000000e+000 -1.000000e+000  0.000000e+000
    outer loop
      vertex  9.500000e+001 -9.000000e+000  5.000000e+000
      vertex  7.476777e+001 -9.000000e+000 -5.232233e+000
      vertex  7.550000e+001 -9.000000e+000 -7.000000e+000
    endloop
  endfacet
  facet normal  0.000000e+000 -9.999999e-001  0.000000e+000
    outer loop
      vertex  9.500000e+001 -9.000000e+000  5.000000e+000
      vertex  7.550000e+001 -9.000000e+000 -7.000000e+000
      vertex  7.631766e+001 -9.000000e+000 -1.199932e+001
    endloop
  endfacet
  facet normal  0.000000e+000 -1.000000e+000  0.000000e+000
    outer loop
      vertex  9.500000e+001 -9.000000e+000  5.000000e+000
      vertex  7.631766e+001 -9.000000e+000 -1.199932e+001
      vertex  9.942354e+001 -9.000000e+000  3.334244e+000
    endloop
  endfacet
  facet normal  0.000000e+000 -1.000000e+000  0.000000e+000
    outer loop
      vertex  9.500000e+001 -9.000000e+000  5.000000e+000
      vertex  9.942354e+001 -9.000000e+000  3.334244e+000
      vertex  1.017422e+002 -9.000000e+000  5.693856e+000
    endloop
  endfacet
  facet normal  0.000000e+000 -1.000000e+000  0.000000e+000
    outer loop
      vertex  9.500000e+001 -9.000000e+000  5.000000e+000
      vertex  1.017422e+002 -9.000000e+000  5.693856e+000
      vertex  9.750000e+001 -9.000000e+000  5.669873e+000
    endloop
  endfacet
  facet normal  -0.000000e+000 -1.000000e+000  0.000000e+000
    outer loop
      vertex  7.300000e+001 -9.000000e+000 -4.500000e+000
      vertex  9.500000e+001 -9.000000e+000  5.000000e+000
      vertex  9.250000e+001 -9.000000e+000  5.669873e+000
    endloop
  endfacet
  facet normal  -0.000000e+000 -1.000000e+000  0.000000e+000
    outer loop
      vertex  7.300000e+001 -9.000000e+000 -4.500000e+000
      vertex  9.250000e+001 -9.000000e+000  5.669873e+000
      vertex  9.066988e+001 -9.000000e+000  7.500000e+000
    endloop
  endfacet
  facet normal  -0.000000e+000 -1.000000e+000  0.000000e+000
    outer loop
      vertex  7.300000e+001 -9.000000e+000 -4.500000e+000
      vertex  9.066988e+001 -9.000000e+000  7.500000e+000
      vertex  9.000000e+001 -9.000000e+000  1.000000e+001
    endloop
  endfacet
  facet normal  -0.000000e+000 -1.000000e+000  0.000000e+000
    outer loop
      vertex  7.300000e+001 -9.000000e+000 -4.500000e+000
      vertex  9.000000e+001 -9.000000e+000  1.000000e+001
      vertex  9.066988e+001 -9.000000e+000  1.250000e+001
    endloop
  endfacet
  facet normal  -0.000000e+000 -1.000000e+000  0.000000e+000
    outer loop
      vertex  7.300000e+001 -9.000000e+000 -4.500000e+000
      vertex  9.066988e+001 -9.000000e+000  1.250000e+001
      vertex  9.250000e+001 -9.000000e+000  1.433013e+001
    endloop
  endfacet
  facet normal  -0.000000e+000 -1.000000e+000  -0.000000e+000
    outer loop
      vertex  5.566987e+001 -9.000000e+000  4.750000e+001
      vertex  5.500000e+001 -9.000000e+000  5.000000e+001
      vertex  5.000000e+001 -9.000000e+000  5.000000e+001
    endloop
  endfacet
  facet normal  0.000000e+000 -1.000000e+000  0.000000e+000
    outer loop
      vertex  5.566987e+001 -9.000000e+000  4.750000e+001
      vertex  5.000000e+001 -9.000000e+000  5.000000e+001
      vertex  5.000000e+001 -9.000000e+000  4.800000e+001
    endloop
  endfacet
  facet normal  -0.000000e+000 -1.000000e+000  -0.000000e+000
    outer loop
      vertex  5.566987e+001 -9.000000e+000  4.750000e+001
      vertex  5.000000e+001 -9.000000e+000  4.800000e+001
      vertex -4.000000e+000 -9.000000e+000  4.800000e+001
    endloop
  endfacet
  facet normal  0.000000e+000 -1.000000e+000  0.000000e+000
    outer loop
      vertex  5.566987e+001 -9.000000e+000  4.750000e+001
      vertex -4.000000e+000 -9.000000e+000  4.800000e+001
      vertex -4.000000e+000 -9.000000e+000  2.489898e+001
    endloop
  endfacet
  facet normal  0.000000e+000 -1.000000e+000  0.000000e+000
    outer loop
      vertex  5.566987e+001 -9.000000e+000  4.750000e+001
      vertex -4.000000e+000 -9.000000e+000  2.489898e+001
      vertex  5.750000e+001 -9.000000e+000  4.566987e+001
    endloop
  endfacet
  facet normal  0.000000e+000 -9.999999e-001  0.000000e+000
    outer loop
      vertex  5.715624e+001 -9.000000e+000  5.744475e+000
      vertex -1.643557e+000 -9.000000e+000  2.370598e+001
      vertex -2.237051e-001 -9.000000e+000  2.147885e+001
    endloop
  endfacet
  facet normal  0.000000e+000 -1.000000e+000  0.000000e+000
    outer loop
      vertex  5.715624e+001 -9.000000e+000  5.744475e+000
      vertex -2.237051e-001 -9.000000e+000  2.147885e+001
      vertex -1.366447e-001 -9.000000e+000  1.883906e+001
    endloop
  endfacet
  facet normal  0.000000e+000 -1.000000e+000  -0.000000e+000
    outer loop
      vertex  5.715624e+001 -9.000000e+000  5.744475e+000
      vertex -1.366447e-001 -9.000000e+000  1.883906e+001
      vertex -1.406669e+000 -9.000000e+000  1.652322e+001
    endloop
  endfacet
  facet normal  0.000000e+000 -1.000000e+000  0.000000e+000
    outer loop
      vertex  5.715624e+001 -9.000000e+000  5.744475e+000
      vertex -1.406669e+000 -9.000000e+000  1.652322e+001
      vertex  8.393106e+000 -9.000000e+000  1.397178e+001
    endloop
  endfacet
  facet normal  0.000000e+000 -1.000000e+000  0.000000e+000
    outer loop
      vertex  5.715624e+001 -9.000000e+000  5.744475e+000
      vertex  8.393106e+000 -9.000000e+000  1.397178e+001
      vertex  2.740931e+001 -9.000000e+000  8.719169e+000
    endloop
  endfacet
  facet normal  0.000000e+000 -1.000000e+000  0.000000e+000
    outer loop
      vertex  6.754802e+000 -9.000000e+000  1.282463e+001
      vertex -8.604895e+000 -9.000000e+000  1.285824e+001
      vertex -5.796030e+000 -9.000000e+000  1.203970e+001
    endloop
  endfacet
  facet normal  0.000000e+000 -1.000000e+000  0.000000e+000
    outer loop
      vertex  6.754802e+000 -9.000000e+000  1.282463e+001
      vertex -5.796030e+000 -9.000000e+000  1.203970e+001
      vertex -5.551846e-001 -9.000000e+000  1.151562e+001
    endloop
  endfacet
  facet normal  0.000000e+000 -9.999999e-001  0.000000e+000
    outer loop
      vertex  6.754802e+000 -9.000000e+000  1.282463e+001
      vertex -5.551846e-001 -9.000000e+000  1.151562e+001
      vertex  1.474100e+000 -9.000000e+000  1.085497e+001
    endloop
  endfacet
  facet normal  0.000000e+000 -1.000000e+000  0.000000e+000
    outer loop
      vertex  6.754802e+000 -9.000000e+000  1.282463e+001
      vertex  1.474100e+000 -9.000000e+000  1.085497e+001
      vertex  1.478487e+001 -9.000000e+000  1.356498e+000
    endloop
  endfacet
  facet normal  0.000000e+000 -1.000000e+000  -0.000000e+000
    outer loop
      vertex  6.433012e+001 -9.000000e+000  4.750000e+001
      vertex  6.250000e+001 -9.000000e+000  4.566987e+001
      vertex  6.000959e+001 -9.000000e+000  4.903309e+000
    endloop
  endfacet
  facet normal  0.000000e+000 -1.000000e+000  0.000000e+000
    outer loop
      vertex  6.000959e+001 -9.000000e+000  4.903309e+000
      vertex  6.250000e+001 -9.000000e+000  4.566987e+001
      vertex  6.000000e+001 -9.000000e+000  4.500000e+001
    endloop
  endfacet
  facet normal  0.000000e+000 -9.999999e-001  -0.000000e+000
    outer loop
      vertex  6.000959e+001 -9.000000e+000  4.903309e+000
      vertex  6.000000e+001 -9.000000e+000  4.500000e+001
      vertex  5.715624e+001 -9.000000e+000  5.744475e+000
    endloop
  endfacet
  facet normal  0.000000e+000 -1.000000e+000  0.000000e+000
    outer loop
      vertex  5.715624e+001 -9.000000e+000  5.744475e+000
      vertex  6.000000e+001 -9.000000e+000  4.500000e+001
      vertex -4.000000e+000 -9.000000e+000  2.489898e+001
    endloop
  endfacet
  facet normal  0.000000e+000 -1.000000e+000  0.000000e+000
    outer loop
      vertex  5.715624e+001 -9.000000e+000  5.744475e+000
      vertex -4.000000e+000 -9.000000e+000  2.489898e+001
      vertex -1.643557e+000 -9.000000e+000  2.370598e+001
    endloop
  endfacet
  facet normal  0.000000e+000 -1.000000e+000  0.000000e+000
    outer loop
      vertex  5.237075e+001 -9.000000e+000  5.646487e+001
      vertex  6.000000e+001 -9.000000e+000  5.500000e+001
      vertex  5.506300e+001 -9.000000e+000  5.869632e+001
    endloop
  endfacet
  facet normal  0.000000e+000 -1.000000e+000  0.000000e+000
    outer loop
      vertex  5.506300e+001 -9.000000e+000  5.869632e+001
      vertex  6.000000e+001 -9.000000e+000  5.500000e+001
      vertex  6.185551e+001 -9.000000e+000  5.982635e+001
    endloop
  endfacet
  facet normal  -0.000000e+000 -1.000000e+000  0.000000e+000
    outer loop
      vertex  5.506300e+001 -9.000000e+000  5.869632e+001
      vertex  6.185551e+001 -9.000000e+000  5.982635e+001
      vertex  5.835892e+001 -9.000000e+000  5.986443e+001
    endloop
  endfacet
  facet normal  0.000000e+000 -1.000000e+000  0.000000e+000
    outer loop
      vertex  7.050000e+001 -9.000000e+000 -7.000000e+000
      vertex  6.736185e+001 -9.000000e+000 -9.052121e+000
      vertex  7.123223e+001 -9.000000e+000 -8.767767e+000
    endloop
  endfacet
  facet normal  0.000000e+000 -1.000000e+000  0.000000e+000
    outer loop
      vertex  7.123223e+001 -9.000000e+000 -8.767767e+000
      vertex  6.736185e+001 -9.000000e+000 -9.052121e+000
      vertex  6.882394e+001 -9.000000e+000 -1.130820e+001
    endloop
  endfacet
  facet normal  0.000000e+000 -9.999999e-001  0.000000e+000
    outer loop
      vertex  7.123223e+001 -9.000000e+000 -8.767767e+000
      vertex  6.882394e+001 -9.000000e+000 -1.130820e+001
      vertex  7.300000e+001 -9.000000e+000 -9.500000e+000
    endloop
  endfacet
  facet normal  0.000000e+000 -1.000000e+000  0.000000e+000
    outer loop
      vertex  7.300000e+001 -9.000000e+000 -9.500000e+000
      vertex  6.882394e+001 -9.000000e+000 -1.130820e+001
      vertex  7.112445e+001 -9.000000e+000 -1.269933e+001
    endloop
  endfacet
  facet normal  0.000000e+000 -1.000000e+000  0.000000e+000
    outer loop
      vertex  7.300000e+001 -9.000000e+000 -9.500000e+000
      vertex  7.112445e+001 -9.000000e+000 -1.269933e+001
      vertex  7.380151e+001 -9.000000e+000 -1.294622e+001
    endloop
  endfacet
  facet normal  0.000000e+000 -1.000000e+000  0.000000e+000
    outer loop
      vertex  6.235835e+001 -9.000000e+000  3.077793e+000
      vertex  7.300000e+001 -9.000000e+000 -4.500000e+000
      vertex  6.000959e+001 -9.000000e+000  4.903309e+000
    endloop
  endfacet
  facet normal  0.000000e+000 -1.000000e+000  0.000000e+000
    outer loop
      vertex  6.000959e+001 -9.000000e+000  4.903309e+000
      vertex  7.300000e+001 -9.000000e+000 -4.500000e+000
      vertex  6.500000e+001 -9.000000e+000  5.000000e+001
    endloop
  endfacet
  facet normal  0.000000e+000 -1.000000e+000  0.000000e+000
    outer loop
      vertex  6.000959e+001 -9.000000e+000  4.903309e+000
      vertex  6.500000e+001 -9.000000e+000  5.000000e+001
      vertex  6.433012e+001 -9.000000e+000  4.750000e+001
    endloop
  endfacet
  facet normal  0.000000e+000 -1.000000e+000  0.000000e+000
    outer loop
      vertex  9.500000e+001 -9.000000e+000  1.500000e+001
      vertex  9.750000e+001 -9.000000e+000  1.433013e+001
      vertex  1.012146e+002 -9.000000e+000  1.503776e+001
    endloop
  endfacet
  facet normal  0.000000e+000 -1.000000e+000  0.000000e+000
    outer loop
      vertex  1.012146e+002 -9.000000e+000  1.503776e+001
      vertex  9.750000e+001 -9.000000e+000  1.433013e+001
      vertex  9.933012e+001 -9.000000e+000  1.250000e+001
    endloop
  endfacet
  facet normal  0.000000e+000 -1.000000e+000  0.000000e+000
    outer loop
      vertex  1.012146e+002 -9.000000e+000  1.503776e+001
      vertex  9.933012e+001 -9.000000e+000  1.250000e+001
      vertex  1.027214e+002 -9.000000e+000  1.209271e+001
    endloop
  endfacet
  facet normal  -0.000000e+000 -1.000000e+000  0.000000e+000
    outer loop
      vertex  1.027214e+002 -9.000000e+000  1.209271e+001
      vertex  9.933012e+001 -9.000000e+000  1.250000e+001
      vertex  1.000000e+002 -9.000000e+000  1.000000e+001
    endloop
  endfacet
  facet normal  0.000000e+000 -1.000000e+000  0.000000e+000
    outer loop
      vertex  1.027214e+002 -9.000000e+000  1.209271e+001
      vertex  1.000000e+002 -9.000000e+000  1.000000e+001
      vertex  1.029079e+002 -9.000000e+000  8.789813e+000
    endloop
  endfacet
  facet normal  -0.000000e+000 -1.000000e+000  0.000000e+000
    outer loop
      vertex  1.029079e+002 -9.000000e+000  8.789813e+000
      vertex  1.000000e+002 -9.000000e+000  1.000000e+001
      vertex  9.933012e+001 -9.000000e+000  7.500000e+000
    endloop
  endfacet
  facet normal  0.000000e+000 -1.000000e+000  0.000000e+000
    outer loop
      vertex  1.029079e+002 -9.000000e+000  8.789813e+000
      vertex  9.933012e+001 -9.000000e+000  7.500000e+000
      vertex  1.017422e+002 -9.000000e+000  5.693856e+000
    endloop
  endfacet
  facet normal  0.000000e+000 -1.000000e+000  -0.000000e+000
    outer loop
      vertex -6.000000e+000 -9.000000e+000  2.489898e+001
      vertex -6.000000e+000 -9.000000e+000  4.800000e+001
      vertex -8.356443e+000 -9.000000e+000  2.370598e+001
    endloop
  endfacet
  facet normal  0.000000e+000 -1.000000e+000  0.000000e+000
    outer loop
      vertex -8.356443e+000 -9.000000e+000  2.370598e+001
      vertex -6.000000e+000 -9.000000e+000  4.800000e+001
      vertex -1.300000e+001 -9.000000e+000  4.800000e+001
    endloop
  endfacet
  facet normal  0.000000e+000 -1.000000e+000  -0.000000e+000
    outer loop
      vertex -3.679387e+000 -9.000000e+000  1.517755e+001
      vertex -6.320613e+000 -9.000000e+000  1.517755e+001
      vertex -1.093162e+001 -9.000000e+000  1.463196e+001
    endloop
  endfacet
  facet normal  0.000000e+000 -9.999999e-001  0.000000e+000
    outer loop
      vertex -1.093162e+001 -9.000000e+000  1.463196e+001
      vertex -6.320613e+000 -9.000000e+000  1.517755e+001
      vertex -8.593330e+000 -9.000000e+000  1.652322e+001
    endloop
  endfacet
  facet normal  -0.000000e+000 -1.000000e+000  0.000000e+000
    outer loop
      vertex -1.093162e+001 -9.000000e+000  1.463196e+001
      vertex -8.593330e+000 -9.000000e+000  1.652322e+001
      vertex -1.246502e+001 -9.000000e+000  1.712363e+001
    endloop
  endfacet
  facet normal  0.000000e+000 -1.000000e+000  0.000000e+000
    outer loop
      vertex  5.500000e+001 -9.000000e+000  5.000000e+001
      vertex  5.566987e+001 -9.000000e+000  5.250000e+001
      vertex  5.000000e+001 -9.000000e+000  5.000000e+001
    endloop
  endfacet
  facet normal  0.000000e+000 -1.000000e+000  0.000000e+000
    outer loop
      vertex  5.000000e+001 -9.000000e+000  5.000000e+001
      vertex  5.566987e+001 -9.000000e+000  5.250000e+001
      vertex  5.750000e+001 -9.000000e+000  5.433013e+001
    endloop
  endfacet
  facet normal  0.000000e+000 -1.000000e+000  0.000000e+000
    outer loop
      vertex  5.000000e+001 -9.000000e+000  5.000000e+001
      vertex  5.750000e+001 -9.000000e+000  5.433013e+001
      vertex  5.061138e+001 -9.000000e+000  5.344293e+001
    endloop
  endfacet
  facet normal  0.000000e+000 -1.000000e+000  0.000000e+000
    outer loop
      vertex  5.061138e+001 -9.000000e+000  5.344293e+001
      vertex  5.750000e+001 -9.000000e+000  5.433013e+001
      vertex  6.000000e+001 -9.000000e+000  5.500000e+001
    endloop
  endfacet
  facet normal  -0.000000e+000 -1.000000e+000  0.000000e+000
    outer loop
      vertex  5.061138e+001 -9.000000e+000  5.344293e+001
      vertex  6.000000e+001 -9.000000e+000  5.500000e+001
      vertex  5.237075e+001 -9.000000e+000  5.646487e+001
    endloop
  endfacet
  facet normal  2.588188e-001  0.000000e+000  9.659259e-001
    outer loop
      vertex  6.000000e+001 -9.000000e+000  4.500000e+001
      vertex  5.750000e+001 -7.000000e+000  4.566987e+001
      vertex  5.750000e+001 -9.000000e+000  4.566987e+001
    endloop
  endfacet
  facet normal  7.071068e-001  -0.000000e+000  7.071068e-001
    outer loop
      vertex  5.750000e+001 -9.000000e+000  4.566987e+001
      vertex  5.750000e+001 -7.000000e+000  4.566987e+001
      vertex  5.566987e+001 -7.000000e+000  4.750000e+001
    endloop
  endfacet
  facet normal  7.071068e-001  0.000000e+000  7.071068e-001
    outer loop
      vertex  5.750000e+001 -9.000000e+000  4.566987e+001
      vertex  5.566987e+001 -7.000000e+000  4.750000e+001
      vertex  5.566987e+001 -9.000000e+000  4.750000e+001
    endloop
  endfacet
  facet normal  9.659259e-001  -0.000000e+000  2.588188e-001
    outer loop
      vertex  5.566987e+001 -9.000000e+000  4.750000e+001
      vertex  5.566987e+001 -7.000000e+000  4.750000e+001
      vertex  5.500000e+001 -7.000000e+000  5.000000e+001
    endloop
  endfacet
  facet normal  9.659259e-001  0.000000e+000  2.588188e-001
    outer loop
      vertex  5.566987e+001 -9.000000e+000  4.750000e+001
      vertex  5.500000e+001 -7.000000e+000  5.000000e+001
      vertex  5.500000e+001 -9.000000e+000  5.000000e+001
    endloop
  endfacet
  facet normal  2.588188e-001  -0.000000e+000  9.659259e-001
    outer loop
      vertex  5.750000e+001 -7.000000e+000  4.566987e+001
      vertex  6.000000e+001 -9.000000e+000  4.500000e+001
      vertex  6.000000e+001 -7.000000e+000  4.500000e+001
    endloop
  endfacet
  facet normal -2.588188e-001  0.000000e+000  9.659259e-001
    outer loop
      vertex  6.000000e+001 -7.000000e+000  4.500000e+001
      vertex  6.000000e+001 -9.000000e+000  4.500000e+001
      vertex  6.250000e+001 -9.000000e+000  4.566987e+001
    endloop
  endfacet
  facet normal -2.588188e-001  0.000000e+000  9.659259e-001
    outer loop
      vertex  6.000000e+001 -7.000000e+000  4.500000e+001
      vertex  6.250000e+001 -9.000000e+000  4.566987e+001
      vertex  6.250000e+001 -7.000000e+000  4.566987e+001
    endloop
  endfacet
  facet normal -7.071075e-001  0.000000e+000  7.071061e-001
    outer loop
      vertex  6.250000e+001 -7.000000e+000  4.566987e+001
      vertex  6.250000e+001 -9.000000e+000  4.566987e+001
      vertex  6.433012e+001 -9.000000e+000  4.750000e+001
    endloop
  endfacet
  facet normal -7.071075e-001  0.000000e+000  7.071061e-001
    outer loop
      vertex  6.250000e+001 -7.000000e+000  4.566987e+001
      vertex  6.433012e+001 -9.000000e+000  4.750000e+001
      vertex  6.433012e+001 -7.000000e+000  4.750000e+001
    endloop
  endfacet
  facet normal -9.659255e-001  0.000000e+000  2.588202e-001
    outer loop
      vertex  6.433012e+001 -7.000000e+000  4.750000e+001
      vertex  6.433012e+001 -9.000000e+000  4.750000e+001
      vertex  6.500000e+001 -9.000000e+000  5.000000e+001
    endloop
  endfacet
  facet normal -9.659255e-001  0.000000e+000  2.588202e-001
    outer loop
      vertex  6.433012e+001 -7.000000e+000  4.750000e+001
      vertex  6.500000e+001 -9.000000e+000  5.000000e+001
      vertex  6.500000e+001 -7.000000e+000  5.000000e+001
    endloop
  endfacet
  facet normal -2.588188e-001  -0.000000e+000 -9.659259e-001
    outer loop
      vertex  6.000000e+001 -9.000000e+000  5.500000e+001
      vertex  6.250000e+001 -7.000000e+000  5.433013e+001
      vertex  6.250000e+001 -9.000000e+000  5.433013e+001
    endloop
  endfacet
  facet normal -7.071075e-001  0.000000e+000 -7.071061e-001
    outer loop
      vertex  6.250000e+001 -9.000000e+000  5.433013e+001
      vertex  6.250000e+001 -7.000000e+000  5.433013e+001
      vertex  6.433012e+001 -7.000000e+000  5.250000e+001
    endloop
  endfacet
  facet normal -7.071075e-001  -0.000000e+000 -7.071061e-001
    outer loop
      vertex  6.250000e+001 -9.000000e+000  5.433013e+001
      vertex  6.433012e+001 -7.000000e+000  5.250000e+001
      vertex  6.433012e+001 -9.000000e+000  5.250000e+001
    endloop
  endfacet
  facet normal -9.659255e-001  0.000000e+000 -2.588202e-001
    outer loop
      vertex  6.433012e+001 -9.000000e+000  5.250000e+001
      vertex  6.433012e+001 -7.000000e+000  5.250000e+001
      vertex  6.500000e+001 -7.000000e+000  5.000000e+001
    endloop
  endfacet
  facet normal -9.659255e-001  -0.000000e+000 -2.588202e-001
    outer loop
      vertex  6.433012e+001 -9.000000e+000  5.250000e+001
      vertex  6.500000e+001 -7.000000e+000  5.000000e+001
      vertex  6.500000e+001 -9.000000e+000  5.000000e+001
    endloop
  endfacet
  facet normal -2.588188e-001  0.000000e+000 -9.659259e-001
    outer loop
      vertex  6.250000e+001 -7.000000e+000  5.433013e+001
      vertex  6.000000e+001 -9.000000e+000  5.500000e+001
      vertex  6.000000e+001 -7.000000e+000  5.500000e+001
    endloop
  endfacet
  facet normal  2.588188e-001  0.000000e+000 -9.659259e-001
    outer loop
      vertex  6.000000e+001 -7.000000e+000  5.500000e+001
      vertex  6.000000e+001 -9.000000e+000  5.500000e+001
      vertex  5.750000e+001 -9.000000e+000  5.433013e+001
    endloop
  endfacet
  facet normal  2.588188e-001  0.000000e+000 -9.659259e-001
    outer loop
      vertex  6.000000e+001 -7.000000e+000  5.500000e+001
      vertex  5.750000e+001 -9.000000e+000  5.433013e+001
      vertex  5.750000e+001 -7.000000e+000  5.433013e+001
    endloop
  endfacet
  facet normal  7.071068e-001  0.000000e+000 -7.071068e-001
    outer loop
      vertex  5.750000e+001 -7.000000e+000  5.433013e+001
      vertex  5.750000e+001 -9.000000e+000  5.433013e+001
      vertex  5.566987e+001 -9.000000e+000  5.250000e+001
    endloop
  endfacet
  facet normal  7.071068e-001  0.000000e+000 -7.071068e-001
    outer loop
      vertex  5.750000e+001 -7.000000e+000  5.433013e+001
      vertex  5.566987e+001 -9.000000e+000  5.250000e+001
      vertex  5.566987e+001 -7.000000e+000  5.250000e+001
    endloop
  endfacet
  facet normal  9.659259e-001  0.000000e+000 -2.588188e-001
    outer loop
      vertex  5.566987e+001 -7.000000e+000  5.250000e+001
      vertex  5.566987e+001 -9.000000e+000  5.250000e+001
      vertex  5.500000e+001 -9.000000e+000  5.000000e+001
    endloop
  endfacet
  facet normal  9.659259e-001  0.000000e+000 -2.588188e-001
    outer loop
      vertex  5.566987e+001 -7.000000e+000  5.250000e+001
      vertex  5.500000e+001 -9.000000e+000  5.000000e+001
      vertex  5.500000e+001 -7.000000e+000  5.000000e+001
    endloop
  endfacet
  facet normal -3.826831e-001  -0.000000e+000 -9.238797e-001
    outer loop
      vertex  7.300000e+001 -9.000000e+000 -4.500000e+000
      vertex  7.476777e+001 -7.000000e+000 -5.232233e+000
      vertex  7.476777e+001 -9.000000e+000 -5.232233e+000
    endloop
  endfacet
  facet normal -9.238799e-001  0.000000e+000 -3.826826e-001
    outer loop
      vertex  7.476777e+001 -9.000000e+000 -5.232233e+000
      vertex  7.476777e+001 -7.000000e+000 -5.232233e+000
      vertex  7.550000e+001 -7.000000e+000 -7.000000e+000
    endloop
  endfacet
  facet normal -9.238799e-001  -0.000000e+000 -3.826826e-001
    outer loop
      vertex  7.476777e+001 -9.000000e+000 -5.232233e+000
      vertex  7.550000e+001 -7.000000e+000 -7.000000e+000
      vertex  7.550000e+001 -9.000000e+000 -7.000000e+000
    endloop
  endfacet
  facet normal -3.826831e-001  0.000000e+000 -9.238797e-001
    outer loop
      vertex  7.476777e+001 -7.000000e+000 -5.232233e+000
      vertex  7.300000e+001 -9.000000e+000 -4.500000e+000
      vertex  7.300000e+001 -7.000000e+000 -4.500000e+000
    endloop
  endfacet
  facet normal  3.826831e-001  0.000000e+000 -9.238797e-001
    outer loop
      vertex  7.300000e+001 -7.000000e+000 -4.500000e+000
      vertex  7.300000e+001 -9.000000e+000 -4.500000e+000
      vertex  7.123223e+001 -9.000000e+000 -5.232233e+000
    endloop
  endfacet
  facet normal  3.826831e-001  0.000000e+000 -9.238797e-001
    outer loop
      vertex  7.300000e+001 -7.000000e+000 -4.500000e+000
      vertex  7.123223e+001 -9.000000e+000 -5.232233e+000
      vertex  7.123223e+001 -7.000000e+000 -5.232233e+000
    endloop
  endfacet
  facet normal  9.238799e-001  0.000000e+000 -3.826826e-001
    outer loop
      vertex  7.123223e+001 -7.000000e+000 -5.232233e+000
      vertex  7.123223e+001 -9.000000e+000 -5.232233e+000
      vertex  7.050000e+001 -9.000000e+000 -7.000000e+000
    endloop
  endfacet
  facet normal  9.238799e-001  0.000000e+000 -3.826826e-001
    outer loop
      vertex  7.123223e+001 -7.000000e+000 -5.232233e+000
      vertex  7.050000e+001 -9.000000e+000 -7.000000e+000
      vertex  7.050000e+001 -7.000000e+000 -7.000000e+000
    endloop
  endfacet
  facet normal  3.826831e-001  0.000000e+000  9.238797e-001
    outer loop
      vertex  7.300000e+001 -9.000000e+000 -9.500000e+000
      vertex  7.123223e+001 -7.000000e+000 -8.767767e+000
      vertex  7.123223e+001 -9.000000e+000 -8.767767e+000
    endloop
  endfacet
  facet normal  9.238799e-001  -0.000000e+000  3.826826e-001
    outer loop
      vertex  7.123223e+001 -9.000000e+000 -8.767767e+000
      vertex  7.123223e+001 -7.000000e+000 -8.767767e+000
      vertex  7.050000e+001 -7.000000e+000 -7.000000e+000
    endloop
  endfacet
  facet normal  9.238799e-001  0.000000e+000  3.826826e-001
    outer loop
      vertex  7.123223e+001 -9.000000e+000 -8.767767e+000
      vertex  7.050000e+001 -7.000000e+000 -7.000000e+000
      vertex  7.050000e+001 -9.000000e+000 -7.000000e+000
    endloop
  endfacet
  facet normal  3.826831e-001  -0.000000e+000  9.238797e-001
    outer loop
      vertex  7.123223e+001 -7.000000e+000 -8.767767e+000
      vertex  7.300000e+001 -9.000000e+000 -9.500000e+000
      vertex  7.300000e+001 -7.000000e+000 -9.500000e+000
    endloop
  endfacet
  facet normal -3.826831e-001  0.000000e+000  9.238797e-001
    outer loop
      vertex  7.300000e+001 -7.000000e+000 -9.500000e+000
      vertex  7.300000e+001 -9.000000e+000 -9.500000e+000
      vertex  7.476777e+001 -9.000000e+000 -8.767767e+000
    endloop
  endfacet
  facet normal -3.826831e-001  0.000000e+000  9.238797e-001
    outer loop
      vertex  7.300000e+001 -7.000000e+000 -9.500000e+000
      vertex  7.476777e+001 -9.000000e+000 -8.767767e+000
      vertex  7.476777e+001 -7.000000e+000 -8.767767e+000
    endloop
  endfacet
  facet normal -9.238799e-001  0.000000e+000  3.826826e-001
    outer loop
      vertex  7.476777e+001 -7.000000e+000 -8.767767e+000
      vertex  7.476777e+001 -9.000000e+000 -8.767767e+000
      vertex  7.550000e+001 -9.000000e+000 -7.000000e+000
    endloop
  endfacet
  facet normal -9.238799e-001  0.000000e+000  3.826826e-001
    outer loop
      vertex  7.476777e+001 -7.000000e+000 -8.767767e+000
      vertex  7.550000e+001 -9.000000e+000 -7.000000e+000
      vertex  7.550000e+001 -7.000000e+000 -7.000000e+000
    endloop
  endfacet
  facet normal  2.588190e-001  0.000000e+000  9.659259e-001
    outer loop
      vertex  9.500000e+001 -9.000000e+000  5.000000e+000
      vertex  9.250000e+001 -7.000000e+000  5.669873e+000
      vertex  9.250000e+001 -9.000000e+000  5.669873e+000
    endloop
  endfacet
  facet normal  7.071074e-001  -0.000000e+000  7.071061e-001
    outer loop
      vertex  9.250000e+001 -9.000000e+000  5.669873e+000
      vertex  9.250000e+001 -7.000000e+000  5.669873e+000
      vertex  9.066988e+001 -7.000000e+000  7.500000e+000
    endloop
  endfacet
  facet normal  7.071074e-001  0.000000e+000  7.071061e-001
    outer loop
      vertex  9.250000e+001 -9.000000e+000  5.669873e+000
      vertex  9.066988e+001 -7.000000e+000  7.500000e+000
      vertex  9.066988e+001 -9.000000e+000  7.500000e+000
    endloop
  endfacet
  facet normal  9.659255e-001  -0.000000e+000  2.588202e-001
    outer loop
      vertex  9.066988e+001 -9.000000e+000  7.500000e+000
      vertex  9.066988e+001 -7.000000e+000  7.500000e+000
      vertex  9.000000e+001 -7.000000e+000  1.000000e+001
    endloop
  endfacet
  facet normal  9.659255e-001  0.000000e+000  2.588202e-001
    outer loop
      vertex  9.066988e+001 -9.000000e+000  7.500000e+000
      vertex  9.000000e+001 -7.000000e+000  1.000000e+001
      vertex  9.000000e+001 -9.000000e+000  1.000000e+001
    endloop
  endfacet
  facet normal  2.588190e-001  -0.000000e+000  9.659259e-001
    outer loop
      vertex  9.250000e+001 -7.000000e+000  5.669873e+000
      vertex  9.500000e+001 -9.000000e+000  5.000000e+000
      vertex  9.500000e+001 -7.000000e+000  5.000000e+000
    endloop
  endfacet
  facet normal -2.588190e-001  0.000000e+000  9.659259e-001
    outer loop
      vertex  9.500000e+001 -7.000000e+000  5.000000e+000
      vertex  9.500000e+001 -9.000000e+000  5.000000e+000
      vertex  9.750000e+001 -9.000000e+000  5.669873e+000
    endloop
  endfacet
  facet normal -2.588190e-001  0.000000e+000  9.659259e-001
    outer loop
      vertex  9.500000e+001 -7.000000e+000  5.000000e+000
      vertex  9.750000e+001 -9.000000e+000  5.669873e+000
      vertex  9.750000e+001 -7.000000e+000  5.669873e+000
    endloop
  endfacet
  facet normal -7.071074e-001  0.000000e+000  7.071061e-001
    outer loop
      vertex  9.750000e+001 -7.000000e+000  5.669873e+000
      vertex  9.750000e+001 -9.000000e+000  5.669873e+000
      vertex  9.933012e+001 -9.000000e+000  7.500000e+000
    endloop
  endfacet
  facet normal -7.071074e-001  0.000000e+000  7.071061e-001
    outer loop
      vertex  9.750000e+001 -7.000000e+000  5.669873e+000
      vertex  9.933012e+001 -9.000000e+000  7.500000e+000
      vertex  9.933012e+001 -7.000000e+000  7.500000e+000
    endloop
  endfacet
  facet normal -9.659255e-001  0.000000e+000  2.588202e-001
    outer loop
      vertex  9.933012e+001 -7.000000e+000  7.500000e+000
      vertex  9.933012e+001 -9.000000e+000  7.500000e+000
      vertex  1.000000e+002 -9.000000e+000  1.000000e+001
    endloop
  endfacet
  facet normal -9.659255e-001  0.000000e+000  2.588202e-001
    outer loop
      vertex  9.933012e+001 -7.000000e+000  7.500000e+000
      vertex  1.000000e+002 -9.000000e+000  1.000000e+001
      vertex  1.000000e+002 -7.000000e+000  1.000000e+001
    endloop
  endfacet
  facet normal -2.588191e-001  -0.000000e+000 -9.659258e-001
    outer loop
      vertex  9.500000e+001 -9.000000e+000  1.500000e+001
      vertex  9.750000e+001 -7.000000e+000  1.433013e+001
      vertex  9.750000e+001 -9.000000e+000  1.433013e+001
    endloop
  endfacet
  facet normal -7.071073e-001  0.000000e+000 -7.071062e-001
    outer loop
      vertex  9.750000e+001 -9.000000e+000  1.433013e+001
      vertex  9.750000e+001 -7.000000e+000  1.433013e+001
      vertex  9.933012e+001 -7.000000e+000  1.250000e+001
    endloop
  endfacet
  facet normal -7.071073e-001  -0.000000e+000 -7.071062e-001
    outer loop
      vertex  9.750000e+001 -9.000000e+000  1.433013e+001
      vertex  9.933012e+001 -7.000000e+000  1.250000e+001
      vertex  9.933012e+001 -9.000000e+000  1.250000e+001
    endloop
  endfacet
  facet normal -9.659255e-001  0.000000e+000 -2.588202e-001
    outer loop
      vertex  9.933012e+001 -9.000000e+000  1.250000e+001
      vertex  9.933012e+001 -7.000000e+000  1.250000e+001
      vertex  1.000000e+002 -7.000000e+000  1.000000e+001
    endloop
  endfacet
  facet normal -9.659255e-001  -0.000000e+000 -2.588202e-001
    outer loop
      vertex  9.933012e+001 -9.000000e+000  1.250000e+001
      vertex  1.000000e+002 -7.000000e+000  1.000000e+001
      vertex  1.000000e+002 -9.000000e+000  1.000000e+001
    endloop
  endfacet
  facet normal -2.588191e-001  0.000000e+000 -9.659258e-001
    outer loop
      vertex  9.750000e+001 -7.000000e+000  1.433013e+001
      vertex  9.500000e+001 -9.000000e+000  1.500000e+001
      vertex  9.500000e+001 -7.000000e+000  1.500000e+001
    endloop
  endfacet
  facet normal  2.588191e-001  0.000000e+000 -9.659258e-001
    outer loop
      vertex  9.500000e+001 -7.000000e+000  1.500000e+001
      vertex  9.500000e+001 -9.000000e+000  1.500000e+001
      vertex  9.250000e+001 -9.000000e+000  1.433013e+001
    endloop
  endfacet
  facet normal  2.588191e-001  0.000000e+000 -9.659258e-001
    outer loop
      vertex  9.500000e+001 -7.000000e+000  1.500000e+001
      vertex  9.250000e+001 -9.000000e+000  1.433013e+001
      vertex  9.250000e+001 -7.000000e+000  1.433013e+001
    endloop
  endfacet
  facet normal  7.071073e-001  0.000000e+000 -7.071062e-001
    outer loop
      vertex  9.250000e+001 -7.000000e+000  1.433013e+001
      vertex  9.250000e+001 -9.000000e+000  1.433013e+001
      vertex  9.066988e+001 -9.000000e+000  1.250000e+001
    endloop
  endfacet
  facet normal  7.071073e-001  0.000000e+000 -7.071062e-001
    outer loop
      vertex  9.250000e+001 -7.000000e+000  1.433013e+001
      vertex  9.066988e+001 -9.000000e+000  1.250000e+001
      vertex  9.066988e+001 -7.000000e+000  1.250000e+001
    endloop
  endfacet
  facet normal  9.659255e-001  0.000000e+000 -2.588202e-001
    outer loop
      vertex  9.066988e+001 -7.000000e+000  1.250000e+001
      vertex  9.066988e+001 -9.000000e+000  1.250000e+001
      vertex  9.000000e+001 -9.000000e+000  1.000000e+001
    endloop
  endfacet
  facet normal  9.659255e-001  0.000000e+000 -2.588202e-001
    outer loop
      vertex  9.066988e+001 -7.000000e+000  1.250000e+001
      vertex  9.000000e+001 -9.000000e+000  1.000000e+001
      vertex  9.000000e+001 -7.000000e+000  1.000000e+001
    endloop
  endfacet
  facet normal  5.735765e-001  0.000000e+000 -8.191521e-001
    outer loop
      vertex  8.393106e+000 -9.000000e+000  1.397178e+001
      vertex  6.754802e+000 -9.000000e+000  1.282463e+001
      vertex  8.393106e+000 -7.000000e+000  1.397178e+001
    endloop
  endfacet
  facet normal  5.735765e-001  0.000000e+000 -8.191521e-001
    outer loop
      vertex  8.393106e+000 -7.000000e+000  1.397178e+001
      vertex  6.754802e+000 -9.000000e+000  1.282463e+001
      vertex  6.754802e+000 -7.000000e+000  1.282463e+001
    endloop
  endfacet
  facet normal -8.191521e-001  0.000000e+000 -5.735764e-001
    outer loop
      vertex  1.642318e+001 -7.000000e+000  2.503651e+000
      vertex  1.642318e+001 -9.000000e+000  2.503651e+000
      vertex  8.393106e+000 -7.000000e+000  1.397178e+001
    endloop
  endfacet
  facet normal -8.191521e-001  -0.000000e+000 -5.735764e-001
    outer loop
      vertex  8.393106e+000 -7.000000e+000  1.397178e+001
      vertex  1.642318e+001 -9.000000e+000  2.503651e+000
      vertex  8.393106e+000 -9.000000e+000  1.397178e+001
    endloop
  endfacet
  facet normal  5.735765e-001  0.000000e+000 -8.191521e-001
    outer loop
      vertex  2.404391e+001 -7.000000e+000  7.839743e+000
      vertex  2.404391e+001 -9.000000e+000  7.839743e+000
      vertex  1.642318e+001 -7.000000e+000  2.503651e+000
    endloop
  endfacet
  facet normal  5.735765e-001  0.000000e+000 -8.191521e-001
    outer loop
      vertex  1.642318e+001 -7.000000e+000  2.503651e+000
      vertex  2.404391e+001 -9.000000e+000  7.839743e+000
      vertex  1.642318e+001 -9.000000e+000  2.503651e+000
    endloop
  endfacet
  facet normal  7.788574e-002  0.000000e+000 -9.969623e-001
    outer loop
      vertex  2.740931e+001 -9.000000e+000  8.719169e+000
      vertex  2.564767e+001 -9.000000e+000  8.581544e+000
      vertex  2.740931e+001 -7.000000e+000  8.719169e+000
    endloop
  endfacet
  facet normal  7.788574e-002  0.000000e+000 -9.969623e-001
    outer loop
      vertex  2.740931e+001 -7.000000e+000  8.719169e+000
      vertex  2.564767e+001 -9.000000e+000  8.581544e+000
      vertex  2.564767e+001 -7.000000e+000  8.581544e+000
    endloop
  endfacet
  facet normal  4.198059e-001  0.000000e+000 -9.076139e-001
    outer loop
      vertex  2.564767e+001 -9.000000e+000  8.581544e+000
      vertex  2.404391e+001 -9.000000e+000  7.839743e+000
      vertex  2.564767e+001 -7.000000e+000  8.581544e+000
    endloop
  endfacet
  facet normal  4.198059e-001  0.000000e+000 -9.076139e-001
    outer loop
      vertex  2.564767e+001 -7.000000e+000  8.581544e+000
      vertex  2.404391e+001 -9.000000e+000  7.839743e+000
      vertex  2.404391e+001 -7.000000e+000  7.839743e+000
    endloop
  endfacet
  facet normal -9.950371e-002  0.000000e+000 -9.950372e-001
    outer loop
      vertex  5.715624e+001 -7.000000e+000  5.744475e+000
      vertex  5.715624e+001 -9.000000e+000  5.744475e+000
      vertex  2.740931e+001 -7.000000e+000  8.719169e+000
    endloop
  endfacet
  facet normal -9.950371e-002  -0.000000e+000 -9.950372e-001
    outer loop
      vertex  2.740931e+001 -7.000000e+000  8.719169e+000
      vertex  5.715624e+001 -9.000000e+000  5.744475e+000
      vertex  2.740931e+001 -9.000000e+000  8.719169e+000
    endloop
  endfacet
  facet normal -8.597195e-001  -0.000000e+000 -5.107666e-001
    outer loop
      vertex  6.235835e+001 -9.000000e+000  3.077793e+000
      vertex  6.387775e+001 -7.000000e+000  5.203388e-001
      vertex  6.387775e+001 -9.000000e+000  5.203388e-001
    endloop
  endfacet
  facet normal -8.597195e-001  0.000000e+000 -5.107666e-001
    outer loop
      vertex  6.387775e+001 -7.000000e+000  5.203388e-001
      vertex  6.235835e+001 -9.000000e+000  3.077793e+000
      vertex  6.235835e+001 -7.000000e+000  3.077793e+000
    endloop
  endfacet
  facet normal -6.136696e-001  -0.000000e+000 -7.895630e-001
    outer loop
      vertex  6.235835e+001 -7.000000e+000  3.077793e+000
      vertex  6.235835e+001 -9.000000e+000  3.077793e+000
      vertex  6.000959e+001 -9.000000e+000  4.903309e+000
    endloop
  endfacet
  facet normal -6.136696e-001  0.000000e+000 -7.895630e-001
    outer loop
      vertex  6.235835e+001 -7.000000e+000  3.077793e+000
      vertex  6.000959e+001 -9.000000e+000  4.903309e+000
      vertex  6.000959e+001 -7.000000e+000  4.903309e+000
    endloop
  endfacet
  facet normal -2.827682e-001  -0.000000e+000 -9.591883e-001
    outer loop
      vertex  6.000959e+001 -7.000000e+000  4.903309e+000
      vertex  6.000959e+001 -9.000000e+000  4.903309e+000
      vertex  5.715624e+001 -9.000000e+000  5.744475e+000
    endloop
  endfacet
  facet normal -2.827682e-001  0.000000e+000 -9.591883e-001
    outer loop
      vertex  6.000959e+001 -7.000000e+000  4.903309e+000
      vertex  5.715624e+001 -9.000000e+000  5.744475e+000
      vertex  5.715624e+001 -7.000000e+000  5.744475e+000
    endloop
  endfacet
  facet normal -9.396926e-001  0.000000e+000 -3.420203e-001
    outer loop
      vertex  6.736185e+001 -7.000000e+000 -9.052121e+000
      vertex  6.736185e+001 -9.000000e+000 -9.052121e+000
      vertex  6.387775e+001 -7.000000e+000  5.203388e-001
    endloop
  endfacet
  facet normal -9.396926e-001  -0.000000e+000 -3.420203e-001
    outer loop
      vertex  6.387775e+001 -7.000000e+000  5.203388e-001
      vertex  6.736185e+001 -9.000000e+000 -9.052121e+000
      vertex  6.387775e+001 -9.000000e+000  5.203388e-001
    endloop
  endfacet
  facet normal -8.391824e-001  -0.000000e+000 -5.438502e-001
    outer loop
      vertex  6.736185e+001 -9.000000e+000 -9.052121e+000
      vertex  6.736185e+001 -7.000000e+000 -9.052121e+000
      vertex  6.882394e+001 -9.000000e+000 -1.130820e+001
    endloop
  endfacet
  facet normal -8.391824e-001  0.000000e+000 -5.438502e-001
    outer loop
      vertex  6.882394e+001 -9.000000e+000 -1.130820e+001
      vertex  6.736185e+001 -7.000000e+000 -9.052121e+000
      vertex  6.882394e+001 -7.000000e+000 -1.130820e+001
    endloop
  endfacet
  facet normal -5.174540e-001  -0.000000e+000 -8.557110e-001
    outer loop
      vertex  6.882394e+001 -9.000000e+000 -1.130820e+001
      vertex  6.882394e+001 -7.000000e+000 -1.130820e+001
      vertex  7.112445e+001 -9.000000e+000 -1.269933e+001
    endloop
  endfacet
  facet normal -5.174540e-001  0.000000e+000 -8.557110e-001
    outer loop
      vertex  7.112445e+001 -9.000000e+000 -1.269933e+001
      vertex  6.882394e+001 -7.000000e+000 -1.130820e+001
      vertex  7.112445e+001 -7.000000e+000 -1.269933e+001
    endloop
  endfacet
  facet normal -9.183732e-002  -0.000000e+000 -9.957740e-001
    outer loop
      vertex  7.112445e+001 -9.000000e+000 -1.269933e+001
      vertex  7.112445e+001 -7.000000e+000 -1.269933e+001
      vertex  7.380151e+001 -9.000000e+000 -1.294622e+001
    endloop
  endfacet
  facet normal -9.183732e-002  0.000000e+000 -9.957740e-001
    outer loop
      vertex  7.380151e+001 -9.000000e+000 -1.294622e+001
      vertex  7.112445e+001 -7.000000e+000 -1.269933e+001
      vertex  7.380151e+001 -7.000000e+000 -1.294622e+001
    endloop
  endfacet
  facet normal  3.522167e-001  0.000000e+000 -9.359185e-001
    outer loop
      vertex  7.380151e+001 -9.000000e+000 -1.294622e+001
      vertex  7.380151e+001 -7.000000e+000 -1.294622e+001
      vertex  7.631766e+001 -9.000000e+000 -1.199932e+001
    endloop
  endfacet
  facet normal  3.522167e-001  0.000000e+000 -9.359185e-001
    outer loop
      vertex  7.631766e+001 -9.000000e+000 -1.199932e+001
      vertex  7.380151e+001 -7.000000e+000 -1.294622e+001
      vertex  7.631766e+001 -7.000000e+000 -1.199932e+001
    endloop
  endfacet
  facet normal  5.529424e-001  0.000000e+000 -8.332195e-001
    outer loop
      vertex  9.942354e+001 -7.000000e+000  3.334244e+000
      vertex  9.942354e+001 -9.000000e+000  3.334244e+000
      vertex  7.631766e+001 -7.000000e+000 -1.199932e+001
    endloop
  endfacet
  facet normal  5.529424e-001  0.000000e+000 -8.332195e-001
    outer loop
      vertex  7.631766e+001 -7.000000e+000 -1.199932e+001
      vertex  9.942354e+001 -9.000000e+000  3.334244e+000
      vertex  7.631766e+001 -9.000000e+000 -1.199932e+001
    endloop
  endfacet
  facet normal  7.132709e-001  0.000000e+000 -7.008885e-001
    outer loop
      vertex  9.942354e+001 -9.000000e+000  3.334244e+000
      vertex  9.942354e+001 -7.000000e+000  3.334244e+000
      vertex  1.017422e+002 -9.000000e+000  5.693856e+000
    endloop
  endfacet
  facet normal  7.132709e-001  0.000000e+000 -7.008885e-001
    outer loop
      vertex  1.017422e+002 -9.000000e+000  5.693856e+000
      vertex  9.942354e+001 -7.000000e+000  3.334244e+000
      vertex  1.017422e+002 -7.000000e+000  5.693856e+000
    endloop
  endfacet
  facet normal  9.358548e-001  0.000000e+000 -3.523859e-001
    outer loop
      vertex  1.017422e+002 -9.000000e+000  5.693856e+000
      vertex  1.017422e+002 -7.000000e+000  5.693856e+000
      vertex  1.029079e+002 -9.000000e+000  8.789813e+000
    endloop
  endfacet
  facet normal  9.358548e-001  0.000000e+000 -3.523859e-001
    outer loop
      vertex  1.029079e+002 -9.000000e+000  8.789813e+000
      vertex  1.017422e+002 -7.000000e+000  5.693856e+000
      vertex  1.029079e+002 -7.000000e+000  8.789813e+000
    endloop
  endfacet
  facet normal  9.984095e-001  0.000000e+000  5.637593e-002
    outer loop
      vertex  1.029079e+002 -9.000000e+000  8.789813e+000
      vertex  1.029079e+002 -7.000000e+000  8.789813e+000
      vertex  1.027214e+002 -9.000000e+000  1.209271e+001
    endloop
  endfacet
  facet normal  9.984095e-001  -0.000000e+000  5.637593e-002
    outer loop
      vertex  1.027214e+002 -9.000000e+000  1.209271e+001
      vertex  1.029079e+002 -7.000000e+000  8.789813e+000
      vertex  1.027214e+002 -7.000000e+000  1.209271e+001
    endloop
  endfacet
  facet normal  8.902371e-001  0.000000e+000  4.554976e-001
    outer loop
      vertex  1.027214e+002 -9.000000e+000  1.209271e+001
      vertex  1.027214e+002 -7.000000e+000  1.209271e+001
      vertex  1.012146e+002 -9.000000e+000  1.503776e+001
    endloop
  endfacet
  facet normal  8.902371e-001  -0.000000e+000  4.554976e-001
    outer loop
      vertex  1.012146e+002 -9.000000e+000  1.503776e+001
      vertex  1.027214e+002 -7.000000e+000  1.209271e+001
      vertex  1.012146e+002 -7.000000e+000  1.503776e+001
    endloop
  endfacet
  facet normal  7.768225e-001  -0.000000e+000  6.297196e-001
    outer loop
      vertex  6.776823e+001 -7.000000e+000  5.629720e+001
      vertex  6.776823e+001 -9.000000e+000  5.629720e+001
      vertex  1.012146e+002 -7.000000e+000  1.503776e+001
    endloop
  endfacet
  facet normal  7.768225e-001  0.000000e+000  6.297196e-001
    outer loop
      vertex  1.012146e+002 -7.000000e+000  1.503776e+001
      vertex  6.776823e+001 -9.000000e+000  5.629720e+001
      vertex  1.012146e+002 -9.000000e+000  1.503776e+001
    endloop
  endfacet
  facet normal  6.547574e-001  0.000000e+000  7.558392e-001
    outer loop
      vertex  6.776823e+001 -9.000000e+000  5.629720e+001
      vertex  6.776823e+001 -7.000000e+000  5.629720e+001
      vertex  6.512521e+001 -9.000000e+000  5.858675e+001
    endloop
  endfacet
  facet normal  6.547574e-001  -0.000000e+000  7.558392e-001
    outer loop
      vertex  6.512521e+001 -9.000000e+000  5.858675e+001
      vertex  6.776823e+001 -7.000000e+000  5.629720e+001
      vertex  6.512521e+001 -7.000000e+000  5.858675e+001
    endloop
  endfacet
  facet normal  3.544964e-001  0.000000e+000  9.350573e-001
    outer loop
      vertex  6.512521e+001 -9.000000e+000  5.858675e+001
      vertex  6.512521e+001 -7.000000e+000  5.858675e+001
      vertex  6.185551e+001 -9.000000e+000  5.982635e+001
    endloop
  endfacet
  facet normal  3.544964e-001  -0.000000e+000  9.350573e-001
    outer loop
      vertex  6.185551e+001 -9.000000e+000  5.982635e+001
      vertex  6.512521e+001 -7.000000e+000  5.858675e+001
      vertex  6.185551e+001 -7.000000e+000  5.982635e+001
    endloop
  endfacet
  facet normal  1.088949e-002  0.000000e+000  9.999406e-001
    outer loop
      vertex  6.185551e+001 -9.000000e+000  5.982635e+001
      vertex  6.185551e+001 -7.000000e+000  5.982635e+001
      vertex  5.835892e+001 -9.000000e+000  5.986443e+001
    endloop
  endfacet
  facet normal  1.088949e-002  -0.000000e+000  9.999406e-001
    outer loop
      vertex  5.835892e+001 -9.000000e+000  5.986443e+001
      vertex  6.185551e+001 -7.000000e+000  5.982635e+001
      vertex  5.835892e+001 -7.000000e+000  5.986443e+001
    endloop
  endfacet
  facet normal -3.340496e-001  0.000000e+000  9.425555e-001
    outer loop
      vertex  5.835892e+001 -9.000000e+000  5.986443e+001
      vertex  5.835892e+001 -7.000000e+000  5.986443e+001
      vertex  5.506300e+001 -9.000000e+000  5.869632e+001
    endloop
  endfacet
  facet normal -3.340496e-001  0.000000e+000  9.425555e-001
    outer loop
      vertex  5.506300e+001 -9.000000e+000  5.869632e+001
      vertex  5.835892e+001 -7.000000e+000  5.986443e+001
      vertex  5.506300e+001 -7.000000e+000  5.869632e+001
    endloop
  endfacet
  facet normal -6.381413e-001  0.000000e+000  7.699192e-001
    outer loop
      vertex  5.506300e+001 -9.000000e+000  5.869632e+001
      vertex  5.506300e+001 -7.000000e+000  5.869632e+001
      vertex  5.237075e+001 -9.000000e+000  5.646487e+001
    endloop
  endfacet
  facet normal -6.381413e-001  0.000000e+000  7.699192e-001
    outer loop
      vertex  5.237075e+001 -9.000000e+000  5.646487e+001
      vertex  5.506300e+001 -7.000000e+000  5.869632e+001
      vertex  5.237075e+001 -7.000000e+000  5.646487e+001
    endloop
  endfacet
  facet normal -8.642046e-001  0.000000e+000  5.031404e-001
    outer loop
      vertex  5.237075e+001 -9.000000e+000  5.646487e+001
      vertex  5.237075e+001 -7.000000e+000  5.646487e+001
      vertex  5.061138e+001 -9.000000e+000  5.344293e+001
    endloop
  endfacet
  facet normal -8.642046e-001  0.000000e+000  5.031404e-001
    outer loop
      vertex  5.061138e+001 -9.000000e+000  5.344293e+001
      vertex  5.237075e+001 -7.000000e+000  5.646487e+001
      vertex  5.061138e+001 -7.000000e+000  5.344293e+001
    endloop
  endfacet
  facet normal -9.845970e-001  0.000000e+000  1.748395e-001
    outer loop
      vertex  5.061138e+001 -9.000000e+000  5.344293e+001
      vertex  5.061138e+001 -7.000000e+000  5.344293e+001
      vertex  5.000000e+001 -9.000000e+000  5.000000e+001
    endloop
  endfacet
  facet normal -9.845970e-001  0.000000e+000  1.748395e-001
    outer loop
      vertex  5.000000e+001 -9.000000e+000  5.000000e+001
      vertex  5.061138e+001 -7.000000e+000  5.344293e+001
      vertex  5.000000e+001 -7.000000e+000  5.000000e+001
    endloop
  endfacet
  facet normal -1.000000e+000  0.000000e+000  0.000000e+000
    outer loop
      vertex  5.000000e+001 -9.000000e+000  4.800000e+001
      vertex  5.000000e+001 -9.000000e+000  5.000000e+001
      vertex  5.000000e+001 -7.000000e+000  4.800000e+001
    endloop
  endfacet
  facet normal -1.000000e+000  0.000000e+000  0.000000e+000
    outer loop
      vertex  5.000000e+001 -7.000000e+000  4.800000e+001
      vertex  5.000000e+001 -9.000000e+000  5.000000e+001
      vertex  5.000000e+001 -7.000000e+000  5.000000e+001
    endloop
  endfacet
  facet normal  0.000000e+000  0.000000e+000  1.000000e+000
    outer loop
      vertex -4.000000e+000 -7.000000e+000  4.800000e+001
      vertex -4.000000e+000 -9.000000e+000  4.800000e+001
      vertex  5.000000e+001 -7.000000e+000  4.800000e+001
    endloop
  endfacet
  facet normal  0.000000e+000  0.000000e+000  1.000000e+000
    outer loop
      vertex  5.000000e+001 -7.000000e+000  4.800000e+001
      vertex -4.000000e+000 -9.000000e+000  4.800000e+001
      vertex  5.000000e+001 -9.000000e+000  4.800000e+001
    endloop
  endfacet
  facet normal -1.000000e+000  0.000000e+000  0.000000e+000
    outer loop
      vertex -4.000000e+000 -7.000000e+000  2.489898e+001
      vertex -4.000000e+000 -9.000000e+000  2.489898e+001
      vertex -4.000000e+000 -7.000000e+000  4.800000e+001
    endloop
  endfacet
  facet normal -1.000000e+000  -0.000000e+000  0.000000e+000
    outer loop
      vertex -4.000000e+000 -7.000000e+000  4.800000e+001
      vertex -4.000000e+000 -9.000000e+000  2.489898e+001
      vertex -4.000000e+000 -9.000000e+000  4.800000e+001
    endloop
  endfacet
  facet normal  5.094869e-001  0.000000e+000  8.604785e-001
    outer loop
      vertex -6.320613e+000 -9.000000e+000  1.517755e+001
      vertex -8.593330e+000 -7.000000e+000  1.652322e+001
      vertex -8.593330e+000 -9.000000e+000  1.652322e+001
    endloop
  endfacet
  facet normal  8.768047e-001  -0.000000e+000  4.808468e-001
    outer loop
      vertex -8.593330e+000 -9.000000e+000  1.652322e+001
      vertex -8.593330e+000 -7.000000e+000  1.652322e+001
      vertex -9.863356e+000 -7.000000e+000  1.883906e+001
    endloop
  endfacet
  facet normal  8.768047e-001  0.000000e+000  4.808468e-001
    outer loop
      vertex -8.593330e+000 -9.000000e+000  1.652322e+001
      vertex -9.863356e+000 -7.000000e+000  1.883906e+001
      vertex -9.863356e+000 -9.000000e+000  1.883906e+001
    endloop
  endfacet
  facet normal  9.994566e-001  0.000000e+000 -3.296233e-002
    outer loop
      vertex -9.863356e+000 -9.000000e+000  1.883906e+001
      vertex -9.863356e+000 -7.000000e+000  1.883906e+001
      vertex -9.776295e+000 -7.000000e+000  2.147885e+001
    endloop
  endfacet
  facet normal  9.994566e-001  0.000000e+000 -3.296233e-002
    outer loop
      vertex -9.863356e+000 -9.000000e+000  1.883906e+001
      vertex -9.776295e+000 -7.000000e+000  2.147885e+001
      vertex -9.776295e+000 -9.000000e+000  2.147885e+001
    endloop
  endfacet
  facet normal  8.432173e-001  0.000000e+000 -5.375729e-001
    outer loop
      vertex -9.776295e+000 -9.000000e+000  2.147885e+001
      vertex -9.776295e+000 -7.000000e+000  2.147885e+001
      vertex -8.356443e+000 -7.000000e+000  2.370598e+001
    endloop
  endfacet
  facet normal  8.432173e-001  0.000000e+000 -5.375729e-001
    outer loop
      vertex -9.776295e+000 -9.000000e+000  2.147885e+001
      vertex -8.356443e+000 -7.000000e+000  2.370598e+001
      vertex -8.356443e+000 -9.000000e+000  2.370598e+001
    endloop
  endfacet
  facet normal  4.516839e-001  0.000000e+000 -8.921781e-001
    outer loop
      vertex -8.356443e+000 -9.000000e+000  2.370598e+001
      vertex -8.356443e+000 -7.000000e+000  2.370598e+001
      vertex -6.000000e+000 -7.000000e+000  2.489898e+001
    endloop
  endfacet
  facet normal  4.516839e-001  0.000000e+000 -8.921781e-001
    outer loop
      vertex -8.356443e+000 -9.000000e+000  2.370598e+001
      vertex -6.000000e+000 -7.000000e+000  2.489898e+001
      vertex -6.000000e+000 -9.000000e+000  2.489898e+001
    endloop
  endfacet
  facet normal  5.094869e-001  -0.000000e+000  8.604785e-001
    outer loop
      vertex -8.593330e+000 -7.000000e+000  1.652322e+001
      vertex -6.320613e+000 -9.000000e+000  1.517755e+001
      vertex -6.320613e+000 -7.000000e+000  1.517755e+001
    endloop
  endfacet
  facet normal  0.000000e+000  0.000000e+000  1.000000e+000
    outer loop
      vertex -6.320613e+000 -7.000000e+000  1.517755e+001
      vertex -6.320613e+000 -9.000000e+000  1.517755e+001
      vertex -3.679387e+000 -9.000000e+000  1.517755e+001
    endloop
  endfacet
  facet normal  0.000000e+000  -0.000000e+000  1.000000e+000
    outer loop
      vertex -6.320613e+000 -7.000000e+000  1.517755e+001
      vertex -3.679387e+000 -9.000000e+000  1.517755e+001
      vertex -3.679387e+000 -7.000000e+000  1.517755e+001
    endloop
  endfacet
  facet normal -5.094868e-001  0.000000e+000  8.604785e-001
    outer loop
      vertex -3.679387e+000 -7.000000e+000  1.517755e+001
      vertex -3.679387e+000 -9.000000e+000  1.517755e+001
      vertex -1.406669e+000 -9.000000e+000  1.652322e+001
    endloop
  endfacet
  facet normal -5.094868e-001  0.000000e+000  8.604785e-001
    outer loop
      vertex -3.679387e+000 -7.000000e+000  1.517755e+001
      vertex -1.406669e+000 -9.000000e+000  1.652322e+001
      vertex -1.406669e+000 -7.000000e+000  1.652322e+001
    endloop
  endfacet
  facet normal -8.768048e-001  0.000000e+000  4.808465e-001
    outer loop
      vertex -1.406669e+000 -7.000000e+000  1.652322e+001
      vertex -1.406669e+000 -9.000000e+000  1.652322e+001
      vertex -1.366447e-001 -9.000000e+000  1.883906e+001
    endloop
  endfacet
  facet normal -8.768048e-001  0.000000e+000  4.808465e-001
    outer loop
      vertex -1.406669e+000 -7.000000e+000  1.652322e+001
      vertex -1.366447e-001 -9.000000e+000  1.883906e+001
      vertex -1.366447e-001 -7.000000e+000  1.883906e+001
    endloop
  endfacet
  facet normal -9.994566e-001  -0.000000e+000 -3.296211e-002
    outer loop
      vertex -1.366447e-001 -7.000000e+000  1.883906e+001
      vertex -1.366447e-001 -9.000000e+000  1.883906e+001
      vertex -2.237051e-001 -9.000000e+000  2.147885e+001
    endloop
  endfacet
  facet normal -9.994566e-001  0.000000e+000 -3.296211e-002
    outer loop
      vertex -1.366447e-001 -7.000000e+000  1.883906e+001
      vertex -2.237051e-001 -9.000000e+000  2.147885e+001
      vertex -2.237051e-001 -7.000000e+000  2.147885e+001
    endloop
  endfacet
  facet normal -8.432172e-001  -0.000000e+000 -5.375730e-001
    outer loop
      vertex -2.237051e-001 -7.000000e+000  2.147885e+001
      vertex -2.237051e-001 -9.000000e+000  2.147885e+001
      vertex -1.643557e+000 -9.000000e+000  2.370598e+001
    endloop
  endfacet
  facet normal -8.432172e-001  0.000000e+000 -5.375730e-001
    outer loop
      vertex -2.237051e-001 -7.000000e+000  2.147885e+001
      vertex -1.643557e+000 -9.000000e+000  2.370598e+001
      vertex -1.643557e+000 -7.000000e+000  2.370598e+001
    endloop
  endfacet
  facet normal -4.516839e-001  -0.000000e+000 -8.921781e-001
    outer loop
      vertex -1.643557e+000 -7.000000e+000  2.370598e+001
      vertex -1.643557e+000 -9.000000e+000  2.370598e+001
      vertex -4.000000e+000 -9.000000e+000  2.489898e+001
    endloop
  endfacet
  facet normal -4.516839e-001  0.000000e+000 -8.921781e-001
    outer loop
      vertex -1.643557e+000 -7.000000e+000  2.370598e+001
      vertex -4.000000e+000 -9.000000e+000  2.489898e+001
      vertex -4.000000e+000 -7.000000e+000  2.489898e+001
    endloop
  endfacet
  facet normal  1.000000e+000  -0.000000e+000  0.000000e+000
    outer loop
      vertex -6.000000e+000 -7.000000e+000  4.800000e+001
      vertex -6.000000e+000 -9.000000e+000  4.800000e+001
      vertex -6.000000e+000 -7.000000e+000  2.489898e+001
    endloop
  endfacet
  facet normal  1.000000e+000  0.000000e+000  0.000000e+000
    outer loop
      vertex -6.000000e+000 -7.000000e+000  2.489898e+001
      vertex -6.000000e+000 -9.000000e+000  4.800000e+001
      vertex -6.000000e+000 -9.000000e+000  2.489898e+001
    endloop
  endfacet
  facet normal  0.000000e+000  0.000000e+000  1.000000e+000
    outer loop
      vertex -1.300000e+001 -7.000000e+000  4.800000e+001
      vertex -1.300000e+001 -9.000000e+000  4.800000e+001
      vertex -6.000000e+000 -7.000000e+000  4.800000e+001
    endloop
  endfacet
  facet normal  0.000000e+000  0.000000e+000  1.000000e+000
    outer loop
      vertex -6.000000e+000 -7.000000e+000  4.800000e+001
      vertex -1.300000e+001 -9.000000e+000  4.800000e+001
      vertex -6.000000e+000 -9.000000e+000  4.800000e+001
    endloop
  endfacet
  facet normal -1.000000e+000  0.000000e+000  0.000000e+000
    outer loop
      vertex -1.300000e+001 -7.000000e+000  2.000000e+001
      vertex -1.300000e+001 -9.000000e+000  2.000000e+001
      vertex -1.300000e+001 -7.000000e+000  4.800000e+001
    endloop
  endfacet
  facet normal -1.000000e+000  -0.000000e+000  0.000000e+000
    outer loop
      vertex -1.300000e+001 -7.000000e+000  4.800000e+001
      vertex -1.300000e+001 -9.000000e+000  2.000000e+001
      vertex -1.300000e+001 -9.000000e+000  4.800000e+001
    endloop
  endfacet
  facet normal -9.831397e-001  -0.000000e+000 -1.828562e-001
    outer loop
      vertex -1.300000e+001 -9.000000e+000  2.000000e+001
      vertex -1.300000e+001 -7.000000e+000  2.000000e+001
      vertex -1.246502e+001 -9.000000e+000  1.712363e+001
    endloop
  endfacet
  facet normal -9.831397e-001  0.000000e+000 -1.828562e-001
    outer loop
      vertex -1.246502e+001 -9.000000e+000  1.712363e+001
      vertex -1.300000e+001 -7.000000e+000  2.000000e+001
      vertex -1.246502e+001 -7.000000e+000  1.712363e+001
    endloop
  endfacet
  facet normal -8.516489e-001  -0.000000e+000 -5.241127e-001
    outer loop
      vertex -1.246502e+001 -9.000000e+000  1.712363e+001
      vertex -1.246502e+001 -7.000000e+000  1.712363e+001
      vertex -1.093162e+001 -9.000000e+000  1.463196e+001
    endloop
  endfacet
  facet normal -8.516489e-001  0.000000e+000 -5.241127e-001
    outer loop
      vertex -1.093162e+001 -9.000000e+000  1.463196e+001
      vertex -1.246502e+001 -7.000000e+000  1.712363e+001
      vertex -1.093162e+001 -7.000000e+000  1.463196e+001
    endloop
  endfacet
  facet normal -6.062536e-001  -0.000000e+000 -7.952713e-001
    outer loop
      vertex -1.093162e+001 -9.000000e+000  1.463196e+001
      vertex -1.093162e+001 -7.000000e+000  1.463196e+001
      vertex -8.604895e+000 -9.000000e+000  1.285824e+001
    endloop
  endfacet
  facet normal -6.062536e-001  0.000000e+000 -7.952713e-001
    outer loop
      vertex -8.604895e+000 -9.000000e+000  1.285824e+001
      vertex -1.093162e+001 -7.000000e+000  1.463196e+001
      vertex -8.604895e+000 -7.000000e+000  1.285824e+001
    endloop
  endfacet
  facet normal -2.797749e-001  -0.000000e+000 -9.600657e-001
    outer loop
      vertex -8.604895e+000 -9.000000e+000  1.285824e+001
      vertex -8.604895e+000 -7.000000e+000  1.285824e+001
      vertex -5.796030e+000 -9.000000e+000  1.203970e+001
    endloop
  endfacet
  facet normal -2.797749e-001  0.000000e+000 -9.600657e-001
    outer loop
      vertex -5.796030e+000 -9.000000e+000  1.203970e+001
      vertex -8.604895e+000 -7.000000e+000  1.285824e+001
      vertex -5.796030e+000 -7.000000e+000  1.203970e+001
    endloop
  endfacet
  facet normal -9.950365e-002  0.000000e+000 -9.950373e-001
    outer loop
      vertex -5.551846e-001 -7.000000e+000  1.151562e+001
      vertex -5.551846e-001 -9.000000e+000  1.151562e+001
      vertex -5.796030e+000 -7.000000e+000  1.203970e+001
    endloop
  endfacet
  facet normal -9.950365e-002  -0.000000e+000 -9.950373e-001
    outer loop
      vertex -5.796030e+000 -7.000000e+000  1.203970e+001
      vertex -5.551846e-001 -9.000000e+000  1.151562e+001
      vertex -5.796030e+000 -9.000000e+000  1.203970e+001
    endloop
  endfacet
  facet normal -6.778730e-001  0.000000e+000 -7.351791e-001
    outer loop
      vertex  3.043057e+000 -9.000000e+000  9.408314e+000
      vertex  1.474100e+000 -9.000000e+000  1.085497e+001
      vertex  3.043057e+000 -7.000000e+000  9.408314e+000
    endloop
  endfacet
  facet normal -6.778730e-001  0.000000e+000 -7.351791e-001
    outer loop
      vertex  3.043057e+000 -7.000000e+000  9.408314e+000
      vertex  1.474100e+000 -9.000000e+000  1.085497e+001
      vertex  1.474100e+000 -7.000000e+000  1.085497e+001
    endloop
  endfacet
  facet normal -3.095641e-001  0.000000e+000 -9.508786e-001
    outer loop
      vertex  1.474100e+000 -9.000000e+000  1.085497e+001
      vertex -5.551846e-001 -9.000000e+000  1.151562e+001
      vertex  1.474100e+000 -7.000000e+000  1.085497e+001
    endloop
  endfacet
  facet normal -3.095641e-001  0.000000e+000 -9.508786e-001
    outer loop
      vertex  1.474100e+000 -7.000000e+000  1.085497e+001
      vertex -5.551846e-001 -9.000000e+000  1.151562e+001
      vertex -5.551846e-001 -7.000000e+000  1.151562e+001
    endloop
  endfacet
  facet normal -8.191521e-001  0.000000e+000 -5.735765e-001
    outer loop
      vertex  8.968383e+000 -7.000000e+000  9.460720e-001
      vertex  8.968383e+000 -9.000000e+000  9.460720e-001
      vertex  3.043057e+000 -7.000000e+000  9.408314e+000
    endloop
  endfacet
  facet normal -8.191521e-001  -0.000000e+000 -5.735765e-001
    outer loop
      vertex  3.043057e+000 -7.000000e+000  9.408314e+000
      vertex  8.968383e+000 -9.000000e+000  9.460720e-001
      vertex  3.043057e+000 -9.000000e+000  9.408314e+000
    endloop
  endfacet
  facet normal -6.427878e-001  -0.000000e+000 -7.660444e-001
    outer loop
      vertex  8.968383e+000 -9.000000e+000  9.460720e-001
      vertex  8.968383e+000 -7.000000e+000  9.460720e-001
      vertex  1.015798e+001 -9.000000e+000 -5.212201e-002
    endloop
  endfacet
  facet normal -6.427878e-001  0.000000e+000 -7.660444e-001
    outer loop
      vertex  1.015798e+001 -9.000000e+000 -5.212201e-002
      vertex  8.968383e+000 -7.000000e+000  9.460720e-001
      vertex  1.015798e+001 -7.000000e+000 -5.212201e-002
    endloop
  endfacet
  facet normal -1.736481e-001  -0.000000e+000 -9.848077e-001
    outer loop
      vertex  1.015798e+001 -9.000000e+000 -5.212201e-002
      vertex  1.015798e+001 -7.000000e+000 -5.212201e-002
      vertex  1.168731e+001 -9.000000e+000 -3.217827e-001
    endloop
  endfacet
  facet normal -1.736481e-001  0.000000e+000 -9.848077e-001
    outer loop
      vertex  1.168731e+001 -9.000000e+000 -3.217827e-001
      vertex  1.015798e+001 -7.000000e+000 -5.212201e-002
      vertex  1.168731e+001 -7.000000e+000 -3.217827e-001
    endloop
  endfacet
  facet normal  3.420202e-001  0.000000e+000 -9.396926e-001
    outer loop
      vertex  1.168731e+001 -9.000000e+000 -3.217827e-001
      vertex  1.168731e+001 -7.000000e+000 -3.217827e-001
      vertex  1.314657e+001 -9.000000e+000  2.093452e-001
    endloop
  endfacet
  facet normal  3.420202e-001  0.000000e+000 -9.396926e-001
    outer loop
      vertex  1.314657e+001 -9.000000e+000  2.093452e-001
      vertex  1.168731e+001 -7.000000e+000 -3.217827e-001
      vertex  1.314657e+001 -7.000000e+000  2.093452e-001
    endloop
  endfacet
  facet normal  5.735765e-001  0.000000e+000 -8.191520e-001
    outer loop
      vertex  1.478487e+001 -7.000000e+000  1.356498e+000
      vertex  1.478487e+001 -9.000000e+000  1.356498e+000
      vertex  1.314657e+001 -7.000000e+000  2.093452e-001
    endloop
  endfacet
  facet normal  5.735765e-001  0.000000e+000 -8.191520e-001
    outer loop
      vertex  1.314657e+001 -7.000000e+000  2.093452e-001
      vertex  1.478487e+001 -9.000000e+000  1.356498e+000
      vertex  1.314657e+001 -9.000000e+000  2.093452e-001
    endloop
  endfacet
  facet normal  8.191521e-001  -0.000000e+000  5.735764e-001
    outer loop
      vertex  6.754802e+000 -7.000000e+000  1.282463e+001
      vertex  6.754802e+000 -9.000000e+000  1.282463e+001
      vertex  1.478487e+001 -7.000000e+000  1.356498e+000
    endloop
  endfacet
  facet normal  8.191521e-001  0.000000e+000  5.735764e-001
    outer loop
      vertex  1.478487e+001 -7.000000e+000  1.356498e+000
      vertex  6.754802e+000 -9.000000e+000  1.282463e+001
      vertex  1.478487e+001 -9.000000e+000  1.356498e+000
    endloop
  endfacet
endsolid CATIA STL
