solid CATIA STL
  facet normal -1.509230e-001 -2.710557e-007  9.885455e-001
    outer loop
      vertex  8.471905e+001  1.100000e+001  7.017919e-001
      vertex -2.660991e+001  1.100000e+001 -1.629499e+001
      vertex  6.569812e+001  7.000000e+000 -2.202167e+000
    endloop
  endfacet
  facet normal -1.509230e-001  4.099529e-008  9.885455e-001
    outer loop
      vertex  8.471905e+001  1.100000e+001  7.017919e-001
      vertex  6.569812e+001  7.000000e+000 -2.202167e+000
      vertex  6.870052e+001  6.306782e+000 -1.743786e+000
    endloop
  endfacet
  facet normal -1.509230e-001 -1.415045e-007  9.885455e-001
    outer loop
      vertex  8.471905e+001  1.100000e+001  7.017919e-001
      vertex  6.870052e+001  6.306782e+000 -1.743786e+000
      vertex  7.110825e+001  4.364429e+000 -1.376192e+000
    endloop
  endfacet
  facet normal -1.509231e-001  1.462996e-007  9.885455e-001
    outer loop
      vertex  8.471905e+001  1.100000e+001  7.017919e-001
      vertex  7.110825e+001  4.364429e+000 -1.376192e+000
      vertex  7.244444e+001  1.557647e+000 -1.172193e+000
    endloop
  endfacet
  facet normal -1.509230e-001  0.000000e+000  9.885455e-001
    outer loop
      vertex  8.471905e+001  1.100000e+001  7.017919e-001
      vertex  7.244444e+001  1.557647e+000 -1.172193e+000
      vertex  7.244444e+001 -1.557647e+000 -1.172193e+000
    endloop
  endfacet
  facet normal -1.509230e-001  0.000000e+000  9.885455e-001
    outer loop
      vertex  8.471905e+001  1.100000e+001  7.017919e-001
      vertex  7.244444e+001 -1.557647e+000 -1.172193e+000
      vertex  8.471905e+001 -1.100000e+001  7.017919e-001
    endloop
  endfacet
  facet normal -1.509230e-001  0.000000e+000  9.885455e-001
    outer loop
      vertex -2.660991e+001  1.100000e+001 -1.629499e+001
      vertex -2.660991e+001 -1.100000e+001 -1.629499e+001
      vertex  4.115798e+001 -1.557647e+000 -5.948753e+000
    endloop
  endfacet
  facet normal -1.509230e-001  0.000000e+000  9.885455e-001
    outer loop
      vertex -2.660991e+001  1.100000e+001 -1.629499e+001
      vertex  4.115798e+001 -1.557647e+000 -5.948753e+000
      vertex  4.115798e+001  1.557647e+000 -5.948753e+000
    endloop
  endfacet
  facet normal -1.509230e-001 -7.206700e-008  9.885455e-001
    outer loop
      vertex -2.660991e+001  1.100000e+001 -1.629499e+001
      vertex  4.115798e+001  1.557647e+000 -5.948753e+000
      vertex  4.249417e+001  4.364429e+000 -5.744755e+000
    endloop
  endfacet
  facet normal -1.509230e-001  1.092335e-007  9.885455e-001
    outer loop
      vertex -2.660991e+001  1.100000e+001 -1.629499e+001
      vertex  4.249417e+001  4.364429e+000 -5.744755e+000
      vertex  4.490191e+001  6.306782e+000 -5.377162e+000
    endloop
  endfacet
  facet normal -1.509230e-001 -1.961368e-007  9.885454e-001
    outer loop
      vertex -2.660991e+001  1.100000e+001 -1.629499e+001
      vertex  4.490191e+001  6.306782e+000 -5.377162e+000
      vertex  4.790430e+001  7.000000e+000 -4.918780e+000
    endloop
  endfacet
  facet normal -1.509230e-001 -2.734738e-007  9.885455e-001
    outer loop
      vertex -2.660991e+001  1.100000e+001 -1.629499e+001
      vertex  4.790430e+001  7.000000e+000 -4.918780e+000
      vertex  6.569812e+001  7.000000e+000 -2.202167e+000
    endloop
  endfacet
  facet normal -1.509230e-001  4.174052e-007  9.885455e-001
    outer loop
      vertex -2.660991e+001 -1.100000e+001 -1.629499e+001
      vertex  6.569812e+001 -7.000000e+000 -2.202167e+000
      vertex  4.790430e+001 -7.000000e+000 -4.918780e+000
    endloop
  endfacet
  facet normal -1.509230e-001  2.183668e-007  9.885454e-001
    outer loop
      vertex -2.660991e+001 -1.100000e+001 -1.629499e+001
      vertex  4.790430e+001 -7.000000e+000 -4.918780e+000
      vertex  4.490191e+001 -6.306782e+000 -5.377162e+000
    endloop
  endfacet
  facet normal -1.509230e-001 -1.167897e-007  9.885455e-001
    outer loop
      vertex -2.660991e+001 -1.100000e+001 -1.629499e+001
      vertex  4.490191e+001 -6.306782e+000 -5.377162e+000
      vertex  4.249417e+001 -4.364429e+000 -5.744755e+000
    endloop
  endfacet
  facet normal -1.509230e-001  7.206700e-008  9.885455e-001
    outer loop
      vertex -2.660991e+001 -1.100000e+001 -1.629499e+001
      vertex  4.249417e+001 -4.364429e+000 -5.744755e+000
      vertex  4.115798e+001 -1.557647e+000 -5.948753e+000
    endloop
  endfacet
  facet normal -1.509231e-001 -1.496449e-007  9.885455e-001
    outer loop
      vertex  8.471905e+001 -1.100000e+001  7.017919e-001
      vertex  7.244444e+001 -1.557647e+000 -1.172193e+000
      vertex  7.110825e+001 -4.364429e+000 -1.376192e+000
    endloop
  endfacet
  facet normal -1.509230e-001  1.481943e-007  9.885455e-001
    outer loop
      vertex  8.471905e+001 -1.100000e+001  7.017919e-001
      vertex  7.110825e+001 -4.364429e+000 -1.376192e+000
      vertex  6.870052e+001 -6.306782e+000 -1.743786e+000
    endloop
  endfacet
  facet normal -1.509230e-001 -2.695240e-008  9.885455e-001
    outer loop
      vertex  8.471905e+001 -1.100000e+001  7.017919e-001
      vertex  6.870052e+001 -6.306782e+000 -1.743786e+000
      vertex  6.569812e+001 -7.000000e+000 -2.202167e+000
    endloop
  endfacet
  facet normal -1.509230e-001  3.237526e-008  9.885455e-001
    outer loop
      vertex  8.471905e+001 -1.100000e+001  7.017919e-001
      vertex  6.569812e+001 -7.000000e+000 -2.202167e+000
      vertex -2.660991e+001 -1.100000e+001 -1.629499e+001
    endloop
  endfacet
  facet normal  1.509230e-001  0.000000e+000 -9.885455e-001
    outer loop
      vertex  8.502090e+001  1.100000e+001 -1.275299e+000
      vertex  8.502090e+001 -1.100000e+001 -1.275299e+000
      vertex  7.274629e+001 -1.557647e+000 -3.149285e+000
    endloop
  endfacet
  facet normal  1.509230e-001  0.000000e+000 -9.885455e-001
    outer loop
      vertex  8.502090e+001  1.100000e+001 -1.275299e+000
      vertex  7.274629e+001 -1.557647e+000 -3.149285e+000
      vertex  7.274629e+001  1.557647e+000 -3.149285e+000
    endloop
  endfacet
  facet normal  1.509228e-001  1.847062e-007 -9.885455e-001
    outer loop
      vertex  8.502090e+001  1.100000e+001 -1.275299e+000
      vertex  7.274629e+001  1.557647e+000 -3.149285e+000
      vertex  7.141010e+001  4.364429e+000 -3.353283e+000
    endloop
  endfacet
  facet normal  1.509230e-001 -2.488618e-007 -9.885455e-001
    outer loop
      vertex  8.502090e+001  1.100000e+001 -1.275299e+000
      vertex  7.141010e+001  4.364429e+000 -3.353283e+000
      vertex  6.900237e+001  6.306782e+000 -3.720876e+000
    endloop
  endfacet
  facet normal  1.509230e-001 -2.798051e-007 -9.885455e-001
    outer loop
      vertex  8.502090e+001  1.100000e+001 -1.275299e+000
      vertex  6.900237e+001  6.306782e+000 -3.720876e+000
      vertex  6.599997e+001  7.000000e+000 -4.179258e+000
    endloop
  endfacet
  facet normal  1.509230e-001  1.703531e-007 -9.885455e-001
    outer loop
      vertex  8.502090e+001  1.100000e+001 -1.275299e+000
      vertex  6.599997e+001  7.000000e+000 -4.179258e+000
      vertex -2.630806e+001  1.100000e+001 -1.827209e+001
    endloop
  endfacet
  facet normal  1.509229e-001 -7.049038e-007 -9.885455e-001
    outer loop
      vertex -2.630806e+001  1.100000e+001 -1.827209e+001
      vertex  6.599997e+001  7.000000e+000 -4.179258e+000
      vertex  4.820615e+001  7.000000e+000 -6.895871e+000
    endloop
  endfacet
  facet normal  1.509230e-001  2.183668e-007 -9.885454e-001
    outer loop
      vertex -2.630806e+001  1.100000e+001 -1.827209e+001
      vertex  4.820615e+001  7.000000e+000 -6.895871e+000
      vertex  4.520375e+001  6.306782e+000 -7.354252e+000
    endloop
  endfacet
  facet normal  1.509230e-001 -1.167897e-007 -9.885455e-001
    outer loop
      vertex -2.630806e+001  1.100000e+001 -1.827209e+001
      vertex  4.520375e+001  6.306782e+000 -7.354252e+000
      vertex  4.279601e+001  4.364429e+000 -7.721846e+000
    endloop
  endfacet
  facet normal  1.509230e-001  2.326671e-007 -9.885455e-001
    outer loop
      vertex -2.630806e+001  1.100000e+001 -1.827209e+001
      vertex  4.279601e+001  4.364429e+000 -7.721846e+000
      vertex  4.145982e+001  1.557647e+000 -7.925845e+000
    endloop
  endfacet
  facet normal  1.509230e-001  0.000000e+000 -9.885455e-001
    outer loop
      vertex -2.630806e+001  1.100000e+001 -1.827209e+001
      vertex  4.145982e+001  1.557647e+000 -7.925845e+000
      vertex  4.145982e+001 -1.557647e+000 -7.925845e+000
    endloop
  endfacet
  facet normal  1.509230e-001  0.000000e+000 -9.885455e-001
    outer loop
      vertex -2.630806e+001  1.100000e+001 -1.827209e+001
      vertex  4.145982e+001 -1.557647e+000 -7.925845e+000
      vertex -2.630806e+001 -1.100000e+001 -1.827209e+001
    endloop
  endfacet
  facet normal  1.509230e-001 -2.295618e-007 -9.885455e-001
    outer loop
      vertex -2.630806e+001 -1.100000e+001 -1.827209e+001
      vertex  4.145982e+001 -1.557647e+000 -7.925845e+000
      vertex  4.279601e+001 -4.364429e+000 -7.721846e+000
    endloop
  endfacet
  facet normal  1.509230e-001  1.092335e-007 -9.885455e-001
    outer loop
      vertex -2.630806e+001 -1.100000e+001 -1.827209e+001
      vertex  4.279601e+001 -4.364429e+000 -7.721846e+000
      vertex  4.520375e+001 -6.306782e+000 -7.354252e+000
    endloop
  endfacet
  facet normal  1.509230e-001 -1.961368e-007 -9.885454e-001
    outer loop
      vertex -2.630806e+001 -1.100000e+001 -1.827209e+001
      vertex  4.520375e+001 -6.306782e+000 -7.354252e+000
      vertex  4.820615e+001 -7.000000e+000 -6.895871e+000
    endloop
  endfacet
  facet normal  1.509229e-001  8.227477e-007 -9.885455e-001
    outer loop
      vertex -2.630806e+001 -1.100000e+001 -1.827209e+001
      vertex  4.820615e+001 -7.000000e+000 -6.895871e+000
      vertex  6.599997e+001 -7.000000e+000 -4.179258e+000
    endloop
  endfacet
  facet normal  1.509230e-001 -2.680629e-007 -9.885455e-001
    outer loop
      vertex  8.502090e+001 -1.100000e+001 -1.275299e+000
      vertex -2.630806e+001 -1.100000e+001 -1.827209e+001
      vertex  6.599997e+001 -7.000000e+000 -4.179258e+000
    endloop
  endfacet
  facet normal  1.509231e-001  2.517193e-007 -9.885455e-001
    outer loop
      vertex  8.502090e+001 -1.100000e+001 -1.275299e+000
      vertex  6.599997e+001 -7.000000e+000 -4.179258e+000
      vertex  6.900237e+001 -6.306782e+000 -3.720876e+000
    endloop
  endfacet
  facet normal  1.509230e-001  2.622413e-007 -9.885455e-001
    outer loop
      vertex  8.502090e+001 -1.100000e+001 -1.275299e+000
      vertex  6.900237e+001 -6.306782e+000 -3.720876e+000
      vertex  7.141010e+001 -4.364429e+000 -3.353283e+000
    endloop
  endfacet
  facet normal  1.509228e-001 -1.880515e-007 -9.885455e-001
    outer loop
      vertex  8.502090e+001 -1.100000e+001 -1.275299e+000
      vertex  7.141010e+001 -4.364429e+000 -3.353283e+000
      vertex  7.274629e+001 -1.557647e+000 -3.149285e+000
    endloop
  endfacet
  facet normal  8.906491e-001  4.338830e-001  1.359768e-001
    outer loop
      vertex  4.145982e+001 -1.557647e+000 -7.925845e+000
      vertex  4.249417e+001 -4.364429e+000 -5.744755e+000
      vertex  4.279601e+001 -4.364429e+000 -7.721846e+000
    endloop
  endfacet
  facet normal  6.163477e-001  7.818317e-001  9.409878e-002
    outer loop
      vertex  4.279601e+001 -4.364429e+000 -7.721846e+000
      vertex  4.249417e+001 -4.364429e+000 -5.744755e+000
      vertex  4.490191e+001 -6.306782e+000 -5.377162e+000
    endloop
  endfacet
  facet normal  6.163477e-001  7.818317e-001  9.409878e-002
    outer loop
      vertex  4.279601e+001 -4.364429e+000 -7.721846e+000
      vertex  4.490191e+001 -6.306782e+000 -5.377162e+000
      vertex  4.520375e+001 -6.306782e+000 -7.354252e+000
    endloop
  endfacet
  facet normal  2.199721e-001  9.749279e-001  3.358348e-002
    outer loop
      vertex  4.520375e+001 -6.306782e+000 -7.354252e+000
      vertex  4.490191e+001 -6.306782e+000 -5.377162e+000
      vertex  4.790430e+001 -7.000000e+000 -4.918780e+000
    endloop
  endfacet
  facet normal  2.199721e-001  9.749279e-001  3.358348e-002
    outer loop
      vertex  4.520375e+001 -6.306782e+000 -7.354252e+000
      vertex  4.790430e+001 -7.000000e+000 -4.918780e+000
      vertex  4.820615e+001 -7.000000e+000 -6.895871e+000
    endloop
  endfacet
  facet normal  8.906491e-001  4.338830e-001  1.359768e-001
    outer loop
      vertex  4.249417e+001 -4.364429e+000 -5.744755e+000
      vertex  4.145982e+001 -1.557647e+000 -7.925845e+000
      vertex  4.115798e+001 -1.557647e+000 -5.948753e+000
    endloop
  endfacet
  facet normal  9.885455e-001  0.000000e+000  1.509228e-001
    outer loop
      vertex  4.115798e+001 -1.557647e+000 -5.948753e+000
      vertex  4.145982e+001 -1.557647e+000 -7.925845e+000
      vertex  4.145982e+001  1.557647e+000 -7.925845e+000
    endloop
  endfacet
  facet normal  9.885455e-001  0.000000e+000  1.509228e-001
    outer loop
      vertex  4.115798e+001 -1.557647e+000 -5.948753e+000
      vertex  4.145982e+001  1.557647e+000 -7.925845e+000
      vertex  4.115798e+001  1.557647e+000 -5.948753e+000
    endloop
  endfacet
  facet normal  8.906491e-001 -4.338830e-001  1.359768e-001
    outer loop
      vertex  4.115798e+001  1.557647e+000 -5.948753e+000
      vertex  4.145982e+001  1.557647e+000 -7.925845e+000
      vertex  4.279601e+001  4.364429e+000 -7.721846e+000
    endloop
  endfacet
  facet normal  8.906491e-001 -4.338830e-001  1.359768e-001
    outer loop
      vertex  4.115798e+001  1.557647e+000 -5.948753e+000
      vertex  4.279601e+001  4.364429e+000 -7.721846e+000
      vertex  4.249417e+001  4.364429e+000 -5.744755e+000
    endloop
  endfacet
  facet normal  6.163477e-001 -7.818317e-001  9.409878e-002
    outer loop
      vertex  4.249417e+001  4.364429e+000 -5.744755e+000
      vertex  4.279601e+001  4.364429e+000 -7.721846e+000
      vertex  4.520375e+001  6.306782e+000 -7.354252e+000
    endloop
  endfacet
  facet normal  6.163477e-001 -7.818317e-001  9.409878e-002
    outer loop
      vertex  4.249417e+001  4.364429e+000 -5.744755e+000
      vertex  4.520375e+001  6.306782e+000 -7.354252e+000
      vertex  4.490191e+001  6.306782e+000 -5.377162e+000
    endloop
  endfacet
  facet normal  2.199721e-001 -9.749279e-001  3.358348e-002
    outer loop
      vertex  4.490191e+001  6.306782e+000 -5.377162e+000
      vertex  4.520375e+001  6.306782e+000 -7.354252e+000
      vertex  4.820615e+001  7.000000e+000 -6.895871e+000
    endloop
  endfacet
  facet normal  2.199721e-001 -9.749279e-001  3.358348e-002
    outer loop
      vertex  4.490191e+001  6.306782e+000 -5.377162e+000
      vertex  4.820615e+001  7.000000e+000 -6.895871e+000
      vertex  4.790430e+001  7.000000e+000 -4.918780e+000
    endloop
  endfacet
  facet normal  0.000000e+000  9.999999e-001  0.000000e+000
    outer loop
      vertex  4.790430e+001 -7.000000e+000 -4.918780e+000
      vertex  6.569812e+001 -7.000000e+000 -2.202167e+000
      vertex  4.820615e+001 -7.000000e+000 -6.895871e+000
    endloop
  endfacet
  facet normal  0.000000e+000  1.000000e+000  0.000000e+000
    outer loop
      vertex  4.820615e+001 -7.000000e+000 -6.895871e+000
      vertex  6.569812e+001 -7.000000e+000 -2.202167e+000
      vertex  6.599997e+001 -7.000000e+000 -4.179258e+000
    endloop
  endfacet
  facet normal -8.906485e-001 -4.338850e-001 -1.359750e-001
    outer loop
      vertex  7.274629e+001  1.557647e+000 -3.149285e+000
      vertex  7.110825e+001  4.364429e+000 -1.376192e+000
      vertex  7.141010e+001  4.364429e+000 -3.353283e+000
    endloop
  endfacet
  facet normal -6.163480e-001 -7.818318e-001 -9.409761e-002
    outer loop
      vertex  7.141010e+001  4.364429e+000 -3.353283e+000
      vertex  7.110825e+001  4.364429e+000 -1.376192e+000
      vertex  6.870052e+001  6.306782e+000 -1.743786e+000
    endloop
  endfacet
  facet normal -6.163487e-001 -7.818308e-001 -9.410011e-002
    outer loop
      vertex  7.141010e+001  4.364429e+000 -3.353283e+000
      vertex  6.870052e+001  6.306782e+000 -1.743786e+000
      vertex  6.900237e+001  6.306782e+000 -3.720876e+000
    endloop
  endfacet
  facet normal -2.199721e-001 -9.749280e-001 -3.358390e-002
    outer loop
      vertex  6.900237e+001  6.306782e+000 -3.720876e+000
      vertex  6.870052e+001  6.306782e+000 -1.743786e+000
      vertex  6.569812e+001  7.000000e+000 -2.202167e+000
    endloop
  endfacet
  facet normal -2.199720e-001 -9.749279e-001 -3.358389e-002
    outer loop
      vertex  6.900237e+001  6.306782e+000 -3.720876e+000
      vertex  6.569812e+001  7.000000e+000 -2.202167e+000
      vertex  6.599997e+001  7.000000e+000 -4.179258e+000
    endloop
  endfacet
  facet normal -8.906488e-001 -4.338830e-001 -1.359784e-001
    outer loop
      vertex  7.110825e+001  4.364429e+000 -1.376192e+000
      vertex  7.274629e+001  1.557647e+000 -3.149285e+000
      vertex  7.244444e+001  1.557647e+000 -1.172193e+000
    endloop
  endfacet
  facet normal -9.885453e-001  0.000000e+000 -1.509246e-001
    outer loop
      vertex  7.244444e+001  1.557647e+000 -1.172193e+000
      vertex  7.274629e+001  1.557647e+000 -3.149285e+000
      vertex  7.274629e+001 -1.557647e+000 -3.149285e+000
    endloop
  endfacet
  facet normal -9.885453e-001  0.000000e+000 -1.509246e-001
    outer loop
      vertex  7.244444e+001  1.557647e+000 -1.172193e+000
      vertex  7.274629e+001 -1.557647e+000 -3.149285e+000
      vertex  7.244444e+001 -1.557647e+000 -1.172193e+000
    endloop
  endfacet
  facet normal -8.906479e-001  4.338849e-001 -1.359783e-001
    outer loop
      vertex  7.244444e+001 -1.557647e+000 -1.172193e+000
      vertex  7.274629e+001 -1.557647e+000 -3.149285e+000
      vertex  7.141010e+001 -4.364429e+000 -3.353283e+000
    endloop
  endfacet
  facet normal -8.906494e-001  4.338830e-001 -1.359751e-001
    outer loop
      vertex  7.244444e+001 -1.557647e+000 -1.172193e+000
      vertex  7.141010e+001 -4.364429e+000 -3.353283e+000
      vertex  7.110825e+001 -4.364429e+000 -1.376192e+000
    endloop
  endfacet
  facet normal -6.163490e-001  7.818308e-001 -9.409778e-002
    outer loop
      vertex  7.110825e+001 -4.364429e+000 -1.376192e+000
      vertex  7.141010e+001 -4.364429e+000 -3.353283e+000
      vertex  6.900237e+001 -6.306782e+000 -3.720876e+000
    endloop
  endfacet
  facet normal -6.163476e-001  7.818317e-001 -9.409992e-002
    outer loop
      vertex  7.110825e+001 -4.364429e+000 -1.376192e+000
      vertex  6.900237e+001 -6.306782e+000 -3.720876e+000
      vertex  6.870052e+001 -6.306782e+000 -1.743786e+000
    endloop
  endfacet
  facet normal -2.199721e-001  9.749280e-001 -3.358390e-002
    outer loop
      vertex  6.870052e+001 -6.306782e+000 -1.743786e+000
      vertex  6.900237e+001 -6.306782e+000 -3.720876e+000
      vertex  6.599997e+001 -7.000000e+000 -4.179258e+000
    endloop
  endfacet
  facet normal -2.199720e-001  9.749279e-001 -3.358389e-002
    outer loop
      vertex  6.870052e+001 -6.306782e+000 -1.743786e+000
      vertex  6.599997e+001 -7.000000e+000 -4.179258e+000
      vertex  6.569812e+001 -7.000000e+000 -2.202167e+000
    endloop
  endfacet
  facet normal  0.000000e+000 -1.000000e+000  0.000000e+000
    outer loop
      vertex  6.569812e+001  7.000000e+000 -2.202167e+000
      vertex  4.790430e+001  7.000000e+000 -4.918780e+000
      vertex  6.599997e+001  7.000000e+000 -4.179258e+000
    endloop
  endfacet
  facet normal  0.000000e+000 -1.000000e+000  0.000000e+000
    outer loop
      vertex  6.599997e+001  7.000000e+000 -4.179258e+000
      vertex  4.790430e+001  7.000000e+000 -4.918780e+000
      vertex  4.820615e+001  7.000000e+000 -6.895871e+000
    endloop
  endfacet
  facet normal  0.000000e+000 -1.000000e+000  0.000000e+000
    outer loop
      vertex  8.471905e+001 -1.100000e+001  7.017919e-001
      vertex -2.660991e+001 -1.100000e+001 -1.629499e+001
      vertex  8.502090e+001 -1.100000e+001 -1.275299e+000
    endloop
  endfacet
  facet normal  0.000000e+000 -9.999999e-001  0.000000e+000
    outer loop
      vertex  8.502090e+001 -1.100000e+001 -1.275299e+000
      vertex -2.660991e+001 -1.100000e+001 -1.629499e+001
      vertex -2.630806e+001 -1.100000e+001 -1.827209e+001
    endloop
  endfacet
  facet normal -9.885454e-001  -0.000000e+000 -1.509237e-001
    outer loop
      vertex -2.660991e+001 -1.100000e+001 -1.629499e+001
      vertex -2.660991e+001  1.100000e+001 -1.629499e+001
      vertex -2.630806e+001 -1.100000e+001 -1.827209e+001
    endloop
  endfacet
  facet normal -9.885454e-001  0.000000e+000 -1.509237e-001
    outer loop
      vertex -2.630806e+001 -1.100000e+001 -1.827209e+001
      vertex -2.660991e+001  1.100000e+001 -1.629499e+001
      vertex -2.630806e+001  1.100000e+001 -1.827209e+001
    endloop
  endfacet
  facet normal  0.000000e+000  1.000000e+000  0.000000e+000
    outer loop
      vertex -2.660991e+001  1.100000e+001 -1.629499e+001
      vertex  8.471905e+001  1.100000e+001  7.017919e-001
      vertex -2.630806e+001  1.100000e+001 -1.827209e+001
    endloop
  endfacet
  facet normal  0.000000e+000  1.000000e+000  0.000000e+000
    outer loop
      vertex -2.630806e+001  1.100000e+001 -1.827209e+001
      vertex  8.471905e+001  1.100000e+001  7.017919e-001
      vertex  8.502090e+001  1.100000e+001 -1.275299e+000
    endloop
  endfacet
  facet normal  9.885452e-001  -0.000000e+000  1.509246e-001
    outer loop
      vertex  8.471905e+001  1.100000e+001  7.017919e-001
      vertex  8.471905e+001 -1.100000e+001  7.017919e-001
      vertex  8.502090e+001  1.100000e+001 -1.275299e+000
    endloop
  endfacet
  facet normal  9.885452e-001  0.000000e+000  1.509246e-001
    outer loop
      vertex  8.502090e+001  1.100000e+001 -1.275299e+000
      vertex  8.471905e+001 -1.100000e+001  7.017919e-001
      vertex  8.502090e+001 -1.100000e+001 -1.275299e+000
    endloop
  endfacet
endsolid CATIA STL
