solid CATIA STL
  facet normal  7.525769e-001  2.734534e-008  6.585044e-001
    outer loop
      vertex  9.403173e+001  9.000000e+000  1.566237e+001
      vertex  8.961908e+001  2.100000e+000  2.070540e+001
      vertex  9.059691e+001  1.484924e+000  1.958788e+001
    endloop
  endfacet
  facet normal  7.525774e-001 -4.538646e-007  6.585039e-001
    outer loop
      vertex  9.403173e+001  9.000000e+000  1.566237e+001
      vertex  9.059691e+001  1.484924e+000  1.958788e+001
      vertex  9.100194e+001  4.933156e-015  1.912499e+001
    endloop
  endfacet
  facet normal  7.525771e-001 -1.788229e-007  6.585043e-001
    outer loop
      vertex  7.750259e+001  9.000000e+000  3.455281e+001
      vertex  8.079511e+001  1.285837e-016  3.078993e+001
      vertex  8.120014e+001  1.484924e+000  3.032704e+001
    endloop
  endfacet
  facet normal  7.525769e-001 -2.449994e-007  6.585044e-001
    outer loop
      vertex  7.750259e+001  9.000000e+000  3.455281e+001
      vertex  8.120014e+001  1.484924e+000  3.032704e+001
      vertex  8.217797e+001  2.100000e+000  2.920952e+001
    endloop
  endfacet
  facet normal  7.525764e-001 -1.088260e-006  6.585050e-001
    outer loop
      vertex  7.750259e+001  9.000000e+000  3.455281e+001
      vertex  8.217797e+001  2.100000e+000  2.920952e+001
      vertex  8.961908e+001  2.100000e+000  2.070540e+001
    endloop
  endfacet
  facet normal  7.525766e-001  2.487456e-007  6.585046e-001
    outer loop
      vertex  7.750259e+001  9.000000e+000  3.455281e+001
      vertex  8.961908e+001  2.100000e+000  2.070540e+001
      vertex  9.403173e+001  9.000000e+000  1.566237e+001
    endloop
  endfacet
  facet normal  7.525768e-001  0.000000e+000  6.585046e-001
    outer loop
      vertex  9.403173e+001 -9.000000e+000  1.566237e+001
      vertex  9.403173e+001  9.000000e+000  1.566237e+001
      vertex  9.100194e+001  4.933156e-015  1.912499e+001
    endloop
  endfacet
  facet normal  7.525774e-001  4.538646e-007  6.585039e-001
    outer loop
      vertex  9.403173e+001 -9.000000e+000  1.566237e+001
      vertex  9.100194e+001  4.933156e-015  1.912499e+001
      vertex  9.059691e+001 -1.484924e+000  1.958788e+001
    endloop
  endfacet
  facet normal  7.525769e-001 -2.734534e-008  6.585044e-001
    outer loop
      vertex  9.403173e+001 -9.000000e+000  1.566237e+001
      vertex  9.059691e+001 -1.484924e+000  1.958788e+001
      vertex  8.961908e+001 -2.100000e+000  2.070540e+001
    endloop
  endfacet
  facet normal  7.525764e-001 -7.356640e-007  6.585050e-001
    outer loop
      vertex  9.403173e+001 -9.000000e+000  1.566237e+001
      vertex  8.961908e+001 -2.100000e+000  2.070540e+001
      vertex  8.217797e+001 -2.100000e+000  2.920952e+001
    endloop
  endfacet
  facet normal  7.525766e-001  5.723502e-007  6.585046e-001
    outer loop
      vertex  9.403173e+001 -9.000000e+000  1.566237e+001
      vertex  8.217797e+001 -2.100000e+000  2.920952e+001
      vertex  7.750259e+001 -9.000000e+000  3.455281e+001
    endloop
  endfacet
  facet normal  7.525769e-001  2.449994e-007  6.585044e-001
    outer loop
      vertex  7.750259e+001 -9.000000e+000  3.455281e+001
      vertex  8.217797e+001 -2.100000e+000  2.920952e+001
      vertex  8.120014e+001 -1.484924e+000  3.032704e+001
    endloop
  endfacet
  facet normal  7.525771e-001  1.788229e-007  6.585043e-001
    outer loop
      vertex  7.750259e+001 -9.000000e+000  3.455281e+001
      vertex  8.120014e+001 -1.484924e+000  3.032704e+001
      vertex  8.079511e+001  1.285837e-016  3.078993e+001
    endloop
  endfacet
  facet normal  7.525772e-001  0.000000e+000  6.585040e-001
    outer loop
      vertex  7.750259e+001 -9.000000e+000  3.455281e+001
      vertex  8.079511e+001  1.285837e-016  3.078993e+001
      vertex  7.750259e+001  9.000000e+000  3.455281e+001
    endloop
  endfacet
  facet normal -7.525768e-001  1.024648e-007 -6.585044e-001
    outer loop
      vertex  8.909175e+001  1.484924e+000  1.827087e+001
      vertex  8.811392e+001  2.100000e+000  1.938839e+001
      vertex  9.252657e+001  9.000000e+000  1.434536e+001
    endloop
  endfacet
  facet normal -7.525766e-001 -1.338493e-008 -6.585045e-001
    outer loop
      vertex  8.949678e+001  4.933156e-015  1.780798e+001
      vertex  8.909175e+001  1.484924e+000  1.827087e+001
      vertex  9.252657e+001  9.000000e+000  1.434536e+001
    endloop
  endfacet
  facet normal -7.525766e-001 -9.101433e-008 -6.585046e-001
    outer loop
      vertex  7.599744e+001  9.000000e+000  3.323581e+001
      vertex  9.252657e+001  9.000000e+000  1.434536e+001
      vertex  8.811392e+001  2.100000e+000  1.938839e+001
    endloop
  endfacet
  facet normal -7.525768e-001 -3.810866e-007 -6.585045e-001
    outer loop
      vertex  7.599744e+001  9.000000e+000  3.323581e+001
      vertex  8.811392e+001  2.100000e+000  1.938839e+001
      vertex  8.067282e+001  2.100000e+000  2.789251e+001
    endloop
  endfacet
  facet normal -7.525768e-001 -3.384529e-007 -6.585045e-001
    outer loop
      vertex  7.599744e+001  9.000000e+000  3.323581e+001
      vertex  8.067282e+001  2.100000e+000  2.789251e+001
      vertex  7.969499e+001  1.484924e+000  2.901003e+001
    endloop
  endfacet
  facet normal -7.525765e-001 -9.366909e-008 -6.585047e-001
    outer loop
      vertex  7.599744e+001  9.000000e+000  3.323581e+001
      vertex  7.969499e+001  1.484924e+000  2.901003e+001
      vertex  7.928996e+001  1.285837e-016  2.947292e+001
    endloop
  endfacet
  facet normal -7.525766e-001  2.340368e-007 -6.585046e-001
    outer loop
      vertex  9.252657e+001 -9.000000e+000  1.434536e+001
      vertex  7.599744e+001 -9.000000e+000  3.323581e+001
      vertex  8.067282e+001 -2.100000e+000  2.789251e+001
    endloop
  endfacet
  facet normal -7.525768e-001 -4.777197e-008 -6.585045e-001
    outer loop
      vertex  9.252657e+001 -9.000000e+000  1.434536e+001
      vertex  8.067282e+001 -2.100000e+000  2.789251e+001
      vertex  8.811392e+001 -2.100000e+000  1.938839e+001
    endloop
  endfacet
  facet normal -7.525768e-001 -1.024648e-007 -6.585044e-001
    outer loop
      vertex  9.252657e+001 -9.000000e+000  1.434536e+001
      vertex  8.811392e+001 -2.100000e+000  1.938839e+001
      vertex  8.909175e+001 -1.484924e+000  1.827087e+001
    endloop
  endfacet
  facet normal -7.525766e-001  1.338493e-008 -6.585045e-001
    outer loop
      vertex  9.252657e+001 -9.000000e+000  1.434536e+001
      vertex  8.909175e+001 -1.484924e+000  1.827087e+001
      vertex  8.949678e+001  4.933156e-015  1.780798e+001
    endloop
  endfacet
  facet normal -7.525768e-001  0.000000e+000 -6.585046e-001
    outer loop
      vertex  9.252657e+001 -9.000000e+000  1.434536e+001
      vertex  8.949678e+001  4.933156e-015  1.780798e+001
      vertex  9.252657e+001  9.000000e+000  1.434536e+001
    endloop
  endfacet
  facet normal -7.525765e-001  -0.000000e+000 -6.585050e-001
    outer loop
      vertex  7.599744e+001 -9.000000e+000  3.323581e+001
      vertex  7.599744e+001  9.000000e+000  3.323581e+001
      vertex  7.928996e+001  1.285837e-016  2.947292e+001
    endloop
  endfacet
  facet normal -7.525765e-001  9.366909e-008 -6.585047e-001
    outer loop
      vertex  7.599744e+001 -9.000000e+000  3.323581e+001
      vertex  7.928996e+001  1.285837e-016  2.947292e+001
      vertex  7.969499e+001 -1.484924e+000  2.901003e+001
    endloop
  endfacet
  facet normal -7.525768e-001  3.384530e-007 -6.585045e-001
    outer loop
      vertex  7.599744e+001 -9.000000e+000  3.323581e+001
      vertex  7.969499e+001 -1.484924e+000  2.901003e+001
      vertex  8.067282e+001 -2.100000e+000  2.789251e+001
    endloop
  endfacet
  facet normal -6.083786e-001 -3.826827e-001  6.952909e-001
    outer loop
      vertex  8.949678e+001  4.933156e-015  1.780798e+001
      vertex  9.059691e+001  1.484924e+000  1.958788e+001
      vertex  8.909175e+001  1.484924e+000  1.827087e+001
    endloop
  endfacet
  facet normal -2.519986e-001 -9.238795e-001  2.879988e-001
    outer loop
      vertex  8.909175e+001  1.484924e+000  1.827087e+001
      vertex  9.059691e+001  1.484924e+000  1.958788e+001
      vertex  8.961908e+001  2.100000e+000  2.070540e+001
    endloop
  endfacet
  facet normal -2.519986e-001 -9.238795e-001  2.879988e-001
    outer loop
      vertex  8.909175e+001  1.484924e+000  1.827087e+001
      vertex  8.961908e+001  2.100000e+000  2.070540e+001
      vertex  8.811392e+001  2.100000e+000  1.938839e+001
    endloop
  endfacet
  facet normal -6.083779e-001 -3.826835e-001  6.952911e-001
    outer loop
      vertex  9.059691e+001  1.484924e+000  1.958788e+001
      vertex  8.949678e+001  4.933156e-015  1.780798e+001
      vertex  9.100194e+001  4.933156e-015  1.912499e+001
    endloop
  endfacet
  facet normal -6.083781e-001  3.826827e-001  6.952913e-001
    outer loop
      vertex  9.100194e+001  4.933156e-015  1.912499e+001
      vertex  8.949678e+001  4.933156e-015  1.780798e+001
      vertex  8.909175e+001 -1.484924e+000  1.827087e+001
    endloop
  endfacet
  facet normal -6.083785e-001  3.826835e-001  6.952906e-001
    outer loop
      vertex  9.100194e+001  4.933156e-015  1.912499e+001
      vertex  8.909175e+001 -1.484924e+000  1.827087e+001
      vertex  9.059691e+001 -1.484924e+000  1.958788e+001
    endloop
  endfacet
  facet normal -2.519986e-001  9.238795e-001  2.879988e-001
    outer loop
      vertex  9.059691e+001 -1.484924e+000  1.958788e+001
      vertex  8.909175e+001 -1.484924e+000  1.827087e+001
      vertex  8.811392e+001 -2.100000e+000  1.938839e+001
    endloop
  endfacet
  facet normal -2.519986e-001  9.238795e-001  2.879988e-001
    outer loop
      vertex  9.059691e+001 -1.484924e+000  1.958788e+001
      vertex  8.811392e+001 -2.100000e+000  1.938839e+001
      vertex  8.961908e+001 -2.100000e+000  2.070540e+001
    endloop
  endfacet
  facet normal  0.000000e+000 -1.000000e+000  0.000000e+000
    outer loop
      vertex  8.961908e+001  2.100000e+000  2.070540e+001
      vertex  8.217797e+001  2.100000e+000  2.920952e+001
      vertex  8.811392e+001  2.100000e+000  1.938839e+001
    endloop
  endfacet
  facet normal  0.000000e+000 -1.000000e+000  0.000000e+000
    outer loop
      vertex  8.811392e+001  2.100000e+000  1.938839e+001
      vertex  8.217797e+001  2.100000e+000  2.920952e+001
      vertex  8.067282e+001  2.100000e+000  2.789251e+001
    endloop
  endfacet
  facet normal  6.083798e-001  3.826827e-001 -6.952898e-001
    outer loop
      vertex  7.928996e+001  1.285837e-016  2.947292e+001
      vertex  8.120014e+001 -1.484924e+000  3.032704e+001
      vertex  7.969499e+001 -1.484924e+000  2.901003e+001
    endloop
  endfacet
  facet normal  2.519991e-001  9.238795e-001 -2.879984e-001
    outer loop
      vertex  7.969499e+001 -1.484924e+000  2.901003e+001
      vertex  8.120014e+001 -1.484924e+000  3.032704e+001
      vertex  8.217797e+001 -2.100000e+000  2.920952e+001
    endloop
  endfacet
  facet normal  2.519991e-001  9.238795e-001 -2.879984e-001
    outer loop
      vertex  7.969499e+001 -1.484924e+000  2.901003e+001
      vertex  8.217797e+001 -2.100000e+000  2.920952e+001
      vertex  8.067282e+001 -2.100000e+000  2.789251e+001
    endloop
  endfacet
  facet normal  6.083798e-001  3.826827e-001 -6.952898e-001
    outer loop
      vertex  8.120014e+001 -1.484924e+000  3.032704e+001
      vertex  7.928996e+001  1.285837e-016  2.947292e+001
      vertex  8.079511e+001  1.285837e-016  3.078993e+001
    endloop
  endfacet
  facet normal  6.083798e-001 -3.826827e-001 -6.952898e-001
    outer loop
      vertex  8.079511e+001  1.285837e-016  3.078993e+001
      vertex  7.928996e+001  1.285837e-016  2.947292e+001
      vertex  7.969499e+001  1.484924e+000  2.901003e+001
    endloop
  endfacet
  facet normal  6.083798e-001 -3.826827e-001 -6.952898e-001
    outer loop
      vertex  8.079511e+001  1.285837e-016  3.078993e+001
      vertex  7.969499e+001  1.484924e+000  2.901003e+001
      vertex  8.120014e+001  1.484924e+000  3.032704e+001
    endloop
  endfacet
  facet normal  2.519991e-001 -9.238795e-001 -2.879984e-001
    outer loop
      vertex  8.120014e+001  1.484924e+000  3.032704e+001
      vertex  7.969499e+001  1.484924e+000  2.901003e+001
      vertex  8.067282e+001  2.100000e+000  2.789251e+001
    endloop
  endfacet
  facet normal  2.519991e-001 -9.238795e-001 -2.879984e-001
    outer loop
      vertex  8.120014e+001  1.484924e+000  3.032704e+001
      vertex  8.067282e+001  2.100000e+000  2.789251e+001
      vertex  8.217797e+001  2.100000e+000  2.920952e+001
    endloop
  endfacet
  facet normal  0.000000e+000  1.000000e+000  0.000000e+000
    outer loop
      vertex  8.217797e+001 -2.100000e+000  2.920952e+001
      vertex  8.961908e+001 -2.100000e+000  2.070540e+001
      vertex  8.067282e+001 -2.100000e+000  2.789251e+001
    endloop
  endfacet
  facet normal  0.000000e+000  1.000000e+000  0.000000e+000
    outer loop
      vertex  8.067282e+001 -2.100000e+000  2.789251e+001
      vertex  8.961908e+001 -2.100000e+000  2.070540e+001
      vertex  8.811392e+001 -2.100000e+000  1.938839e+001
    endloop
  endfacet
  facet normal -6.585035e-001  0.000000e+000  7.525776e-001
    outer loop
      vertex  7.750259e+001 -9.000000e+000  3.455281e+001
      vertex  7.750259e+001  9.000000e+000  3.455281e+001
      vertex  7.599744e+001 -9.000000e+000  3.323581e+001
    endloop
  endfacet
  facet normal -6.585035e-001  0.000000e+000  7.525776e-001
    outer loop
      vertex  7.599744e+001 -9.000000e+000  3.323581e+001
      vertex  7.750259e+001  9.000000e+000  3.455281e+001
      vertex  7.599744e+001  9.000000e+000  3.323581e+001
    endloop
  endfacet
  facet normal  0.000000e+000  1.000000e+000  0.000000e+000
    outer loop
      vertex  7.750259e+001  9.000000e+000  3.455281e+001
      vertex  9.403173e+001  9.000000e+000  1.566237e+001
      vertex  7.599744e+001  9.000000e+000  3.323581e+001
    endloop
  endfacet
  facet normal  0.000000e+000  1.000000e+000  0.000000e+000
    outer loop
      vertex  7.599744e+001  9.000000e+000  3.323581e+001
      vertex  9.403173e+001  9.000000e+000  1.566237e+001
      vertex  9.252657e+001  9.000000e+000  1.434536e+001
    endloop
  endfacet
  facet normal  6.585035e-001  0.000000e+000 -7.525776e-001
    outer loop
      vertex  9.403173e+001  9.000000e+000  1.566237e+001
      vertex  9.403173e+001 -9.000000e+000  1.566237e+001
      vertex  9.252657e+001  9.000000e+000  1.434536e+001
    endloop
  endfacet
  facet normal  6.585035e-001  0.000000e+000 -7.525776e-001
    outer loop
      vertex  9.252657e+001  9.000000e+000  1.434536e+001
      vertex  9.403173e+001 -9.000000e+000  1.566237e+001
      vertex  9.252657e+001 -9.000000e+000  1.434536e+001
    endloop
  endfacet
  facet normal  0.000000e+000 -1.000000e+000  0.000000e+000
    outer loop
      vertex  9.403173e+001 -9.000000e+000  1.566237e+001
      vertex  7.750259e+001 -9.000000e+000  3.455281e+001
      vertex  9.252657e+001 -9.000000e+000  1.434536e+001
    endloop
  endfacet
  facet normal  0.000000e+000 -1.000000e+000  0.000000e+000
    outer loop
      vertex  9.252657e+001 -9.000000e+000  1.434536e+001
      vertex  7.750259e+001 -9.000000e+000  3.455281e+001
      vertex  7.599744e+001 -9.000000e+000  3.323581e+001
    endloop
  endfacet
endsolid CATIA STL
