solid CATIA STL
  facet normal  0.000000e+000  1.000000e+000  0.000000e+000
    outer loop
      vertex -5.845256e+001  1.500000e+001 -6.771780e+001
      vertex -6.354744e+001  1.500000e+001 -6.771780e+001
      vertex -6.100000e+001  1.500000e+001 -6.590000e+001
    endloop
  endfacet
  facet normal  0.000000e+000  1.000000e+000  0.000000e+000
    outer loop
      vertex -6.100000e+001  1.500000e+001 -6.590000e+001
      vertex -6.354744e+001  1.500000e+001 -6.771780e+001
      vertex -6.843593e+001  1.500000e+001 -6.628241e+001
    endloop
  endfacet
  facet normal  0.000000e+000  1.000000e+000  0.000000e+000
    outer loop
      vertex -6.100000e+001  1.500000e+001 -6.590000e+001
      vertex -6.843593e+001  1.500000e+001 -6.628241e+001
      vertex -6.591337e+001  1.500000e+001 -6.512180e+001
    endloop
  endfacet
  facet normal  0.000000e+000  1.000000e+000  0.000000e+000
    outer loop
      vertex -6.354744e+001  1.500000e+001 -3.228220e+001
      vertex -5.845256e+001  1.500000e+001 -3.228220e+001
      vertex -6.100000e+001  1.500000e+001 -3.410000e+001
    endloop
  endfacet
  facet normal  0.000000e+000  1.000000e+000  0.000000e+000
    outer loop
      vertex -6.100000e+001  1.500000e+001 -3.410000e+001
      vertex -5.845256e+001  1.500000e+001 -3.228220e+001
      vertex -5.356407e+001  1.500000e+001 -3.371759e+001
    endloop
  endfacet
  facet normal  0.000000e+000  1.000000e+000  0.000000e+000
    outer loop
      vertex -6.100000e+001  1.500000e+001 -3.410000e+001
      vertex -5.356407e+001  1.500000e+001 -3.371759e+001
      vertex -5.608663e+001  1.500000e+001 -3.487820e+001
    endloop
  endfacet
  facet normal  0.000000e+000  1.000000e+000  0.000000e+000
    outer loop
      vertex -5.845256e+001  1.500000e+001 -6.771780e+001
      vertex -6.100000e+001  1.500000e+001 -6.590000e+001
      vertex -5.356407e+001  1.500000e+001 -6.628241e+001
    endloop
  endfacet
  facet normal  0.000000e+000  1.000000e+000  0.000000e+000
    outer loop
      vertex -5.356407e+001  1.500000e+001 -6.628241e+001
      vertex -6.100000e+001  1.500000e+001 -6.590000e+001
      vertex -5.608663e+001  1.500000e+001 -6.512180e+001
    endloop
  endfacet
  facet normal  -0.000000e+000  1.000000e+000  0.000000e+000
    outer loop
      vertex -5.356407e+001  1.500000e+001 -6.628241e+001
      vertex -5.608663e+001  1.500000e+001 -6.512180e+001
      vertex -4.927799e+001  1.500000e+001 -6.352792e+001
    endloop
  endfacet
  facet normal  0.000000e+000  1.000000e+000  0.000000e+000
    outer loop
      vertex -4.927799e+001  1.500000e+001 -6.352792e+001
      vertex -5.608663e+001  1.500000e+001 -6.512180e+001
      vertex -5.165421e+001  1.500000e+001 -6.286337e+001
    endloop
  endfacet
  facet normal  -0.000000e+000  1.000000e+000  0.000000e+000
    outer loop
      vertex -4.927799e+001  1.500000e+001 -6.352792e+001
      vertex -5.165421e+001  1.500000e+001 -6.286337e+001
      vertex -4.594156e+001  1.500000e+001 -5.967747e+001
    endloop
  endfacet
  facet normal  0.000000e+000  1.000000e+000  0.000000e+000
    outer loop
      vertex -4.594156e+001  1.500000e+001 -5.967747e+001
      vertex -5.165421e+001  1.500000e+001 -6.286337e+001
      vertex -4.813663e+001  1.500000e+001 -5.934579e+001
    endloop
  endfacet
  facet normal  -0.000000e+000  1.000000e+000  0.000000e+000
    outer loop
      vertex -4.594156e+001  1.500000e+001 -5.967747e+001
      vertex -4.813663e+001  1.500000e+001 -5.934579e+001
      vertex -4.382508e+001  1.500000e+001 -5.504301e+001
    endloop
  endfacet
  facet normal  0.000000e+000  1.000000e+000  0.000000e+000
    outer loop
      vertex -4.382508e+001  1.500000e+001 -5.504301e+001
      vertex -4.813663e+001  1.500000e+001 -5.934579e+001
      vertex -4.587820e+001  1.500000e+001 -5.491337e+001
    endloop
  endfacet
  facet normal  -0.000000e+000  1.000000e+000  0.000000e+000
    outer loop
      vertex -4.382508e+001  1.500000e+001 -5.504301e+001
      vertex -4.587820e+001  1.500000e+001 -5.491337e+001
      vertex -4.310000e+001  1.500000e+001 -5.000000e+001
    endloop
  endfacet
  facet normal  0.000000e+000  1.000000e+000  0.000000e+000
    outer loop
      vertex -4.310000e+001  1.500000e+001 -5.000000e+001
      vertex -4.587820e+001  1.500000e+001 -5.491337e+001
      vertex -4.510000e+001  1.500000e+001 -5.000000e+001
    endloop
  endfacet
  facet normal  0.000000e+000  9.999999e-001  0.000000e+000
    outer loop
      vertex -4.310000e+001  1.500000e+001 -5.000000e+001
      vertex -4.510000e+001  1.500000e+001 -5.000000e+001
      vertex -4.382508e+001  1.500000e+001 -4.495699e+001
    endloop
  endfacet
  facet normal  0.000000e+000  1.000000e+000  0.000000e+000
    outer loop
      vertex -4.382508e+001  1.500000e+001 -4.495699e+001
      vertex -4.510000e+001  1.500000e+001 -5.000000e+001
      vertex -4.587820e+001  1.500000e+001 -4.508663e+001
    endloop
  endfacet
  facet normal  0.000000e+000  1.000000e+000  -0.000000e+000
    outer loop
      vertex -4.382508e+001  1.500000e+001 -4.495699e+001
      vertex -4.587820e+001  1.500000e+001 -4.508663e+001
      vertex -4.594156e+001  1.500000e+001 -4.032253e+001
    endloop
  endfacet
  facet normal  0.000000e+000  1.000000e+000  0.000000e+000
    outer loop
      vertex -4.594156e+001  1.500000e+001 -4.032253e+001
      vertex -4.587820e+001  1.500000e+001 -4.508663e+001
      vertex -4.813663e+001  1.500000e+001 -4.065421e+001
    endloop
  endfacet
  facet normal  0.000000e+000  1.000000e+000  -0.000000e+000
    outer loop
      vertex -4.594156e+001  1.500000e+001 -4.032253e+001
      vertex -4.813663e+001  1.500000e+001 -4.065421e+001
      vertex -4.927799e+001  1.500000e+001 -3.647208e+001
    endloop
  endfacet
  facet normal  0.000000e+000  1.000000e+000  0.000000e+000
    outer loop
      vertex -4.927799e+001  1.500000e+001 -3.647208e+001
      vertex -4.813663e+001  1.500000e+001 -4.065421e+001
      vertex -5.165421e+001  1.500000e+001 -3.713663e+001
    endloop
  endfacet
  facet normal  0.000000e+000  1.000000e+000  -0.000000e+000
    outer loop
      vertex -4.927799e+001  1.500000e+001 -3.647208e+001
      vertex -5.165421e+001  1.500000e+001 -3.713663e+001
      vertex -5.356407e+001  1.500000e+001 -3.371759e+001
    endloop
  endfacet
  facet normal  0.000000e+000  1.000000e+000  0.000000e+000
    outer loop
      vertex -5.356407e+001  1.500000e+001 -3.371759e+001
      vertex -5.165421e+001  1.500000e+001 -3.713663e+001
      vertex -5.608663e+001  1.500000e+001 -3.487820e+001
    endloop
  endfacet
  facet normal  0.000000e+000  1.000000e+000  0.000000e+000
    outer loop
      vertex -6.354744e+001  1.500000e+001 -3.228220e+001
      vertex -6.100000e+001  1.500000e+001 -3.410000e+001
      vertex -6.843593e+001  1.500000e+001 -3.371759e+001
    endloop
  endfacet
  facet normal  0.000000e+000  1.000000e+000  0.000000e+000
    outer loop
      vertex -6.843593e+001  1.500000e+001 -3.371759e+001
      vertex -6.100000e+001  1.500000e+001 -3.410000e+001
      vertex -6.591337e+001  1.500000e+001 -3.487820e+001
    endloop
  endfacet
  facet normal  0.000000e+000  9.999999e-001  0.000000e+000
    outer loop
      vertex -6.843593e+001  1.500000e+001 -3.371759e+001
      vertex -6.591337e+001  1.500000e+001 -3.487820e+001
      vertex -7.272201e+001  1.500000e+001 -3.647208e+001
    endloop
  endfacet
  facet normal  -0.000000e+000  1.000000e+000  0.000000e+000
    outer loop
      vertex -7.272201e+001  1.500000e+001 -3.647208e+001
      vertex -6.591337e+001  1.500000e+001 -3.487820e+001
      vertex -7.034579e+001  1.500000e+001 -3.713663e+001
    endloop
  endfacet
  facet normal  0.000000e+000  1.000000e+000  0.000000e+000
    outer loop
      vertex -7.272201e+001  1.500000e+001 -3.647208e+001
      vertex -7.034579e+001  1.500000e+001 -3.713663e+001
      vertex -7.605844e+001  1.500000e+001 -4.032253e+001
    endloop
  endfacet
  facet normal  -0.000000e+000  1.000000e+000  0.000000e+000
    outer loop
      vertex -7.605844e+001  1.500000e+001 -4.032253e+001
      vertex -7.034579e+001  1.500000e+001 -3.713663e+001
      vertex -7.386337e+001  1.500000e+001 -4.065421e+001
    endloop
  endfacet
  facet normal  0.000000e+000  1.000000e+000  0.000000e+000
    outer loop
      vertex -7.605844e+001  1.500000e+001 -4.032253e+001
      vertex -7.386337e+001  1.500000e+001 -4.065421e+001
      vertex -7.817493e+001  1.500000e+001 -4.495699e+001
    endloop
  endfacet
  facet normal  -0.000000e+000  1.000000e+000  0.000000e+000
    outer loop
      vertex -7.817493e+001  1.500000e+001 -4.495699e+001
      vertex -7.386337e+001  1.500000e+001 -4.065421e+001
      vertex -7.612180e+001  1.500000e+001 -4.508663e+001
    endloop
  endfacet
  facet normal  0.000000e+000  1.000000e+000  0.000000e+000
    outer loop
      vertex -7.817493e+001  1.500000e+001 -4.495699e+001
      vertex -7.612180e+001  1.500000e+001 -4.508663e+001
      vertex -7.890000e+001  1.500000e+001 -5.000000e+001
    endloop
  endfacet
  facet normal  0.000000e+000  1.000000e+000  0.000000e+000
    outer loop
      vertex -7.890000e+001  1.500000e+001 -5.000000e+001
      vertex -7.612180e+001  1.500000e+001 -4.508663e+001
      vertex -7.690000e+001  1.500000e+001 -5.000000e+001
    endloop
  endfacet
  facet normal  0.000000e+000  9.999999e-001  0.000000e+000
    outer loop
      vertex -7.890000e+001  1.500000e+001 -5.000000e+001
      vertex -7.690000e+001  1.500000e+001 -5.000000e+001
      vertex -7.817493e+001  1.500000e+001 -5.504301e+001
    endloop
  endfacet
  facet normal  0.000000e+000  9.999999e-001  0.000000e+000
    outer loop
      vertex -7.817493e+001  1.500000e+001 -5.504301e+001
      vertex -7.690000e+001  1.500000e+001 -5.000000e+001
      vertex -7.612180e+001  1.500000e+001 -5.491337e+001
    endloop
  endfacet
  facet normal  0.000000e+000  1.000000e+000  0.000000e+000
    outer loop
      vertex -7.817493e+001  1.500000e+001 -5.504301e+001
      vertex -7.612180e+001  1.500000e+001 -5.491337e+001
      vertex -7.605844e+001  1.500000e+001 -5.967747e+001
    endloop
  endfacet
  facet normal  0.000000e+000  1.000000e+000  -0.000000e+000
    outer loop
      vertex -7.605844e+001  1.500000e+001 -5.967747e+001
      vertex -7.612180e+001  1.500000e+001 -5.491337e+001
      vertex -7.386337e+001  1.500000e+001 -5.934579e+001
    endloop
  endfacet
  facet normal  0.000000e+000  1.000000e+000  0.000000e+000
    outer loop
      vertex -7.605844e+001  1.500000e+001 -5.967747e+001
      vertex -7.386337e+001  1.500000e+001 -5.934579e+001
      vertex -7.272201e+001  1.500000e+001 -6.352792e+001
    endloop
  endfacet
  facet normal  0.000000e+000  1.000000e+000  -0.000000e+000
    outer loop
      vertex -7.272201e+001  1.500000e+001 -6.352792e+001
      vertex -7.386337e+001  1.500000e+001 -5.934579e+001
      vertex -7.034579e+001  1.500000e+001 -6.286337e+001
    endloop
  endfacet
  facet normal  0.000000e+000  1.000000e+000  0.000000e+000
    outer loop
      vertex -7.272201e+001  1.500000e+001 -6.352792e+001
      vertex -7.034579e+001  1.500000e+001 -6.286337e+001
      vertex -6.843593e+001  1.500000e+001 -6.628241e+001
    endloop
  endfacet
  facet normal  0.000000e+000  1.000000e+000  -0.000000e+000
    outer loop
      vertex -6.843593e+001  1.500000e+001 -6.628241e+001
      vertex -7.034579e+001  1.500000e+001 -6.286337e+001
      vertex -6.591337e+001  1.500000e+001 -6.512180e+001
    endloop
  endfacet
  facet normal  0.000000e+000 -1.000000e+000  0.000000e+000
    outer loop
      vertex -6.591337e+001 -1.100000e+001 -6.512180e+001
      vertex -6.843593e+001 -1.100000e+001 -6.628241e+001
      vertex -6.100000e+001 -1.100000e+001 -6.590000e+001
    endloop
  endfacet
  facet normal  0.000000e+000 -1.000000e+000  0.000000e+000
    outer loop
      vertex -6.100000e+001 -1.100000e+001 -6.590000e+001
      vertex -6.843593e+001 -1.100000e+001 -6.628241e+001
      vertex -6.354744e+001 -1.100000e+001 -6.771780e+001
    endloop
  endfacet
  facet normal  0.000000e+000 -1.000000e+000  0.000000e+000
    outer loop
      vertex -6.100000e+001 -1.100000e+001 -6.590000e+001
      vertex -6.354744e+001 -1.100000e+001 -6.771780e+001
      vertex -5.845256e+001 -1.100000e+001 -6.771780e+001
    endloop
  endfacet
  facet normal  0.000000e+000 -1.000000e+000  0.000000e+000
    outer loop
      vertex -5.608663e+001 -1.100000e+001 -3.487820e+001
      vertex -5.356407e+001 -1.100000e+001 -3.371759e+001
      vertex -6.100000e+001 -1.100000e+001 -3.410000e+001
    endloop
  endfacet
  facet normal  0.000000e+000 -1.000000e+000  0.000000e+000
    outer loop
      vertex -6.100000e+001 -1.100000e+001 -3.410000e+001
      vertex -5.356407e+001 -1.100000e+001 -3.371759e+001
      vertex -5.845256e+001 -1.100000e+001 -3.228220e+001
    endloop
  endfacet
  facet normal  -0.000000e+000 -1.000000e+000  0.000000e+000
    outer loop
      vertex -6.100000e+001 -1.100000e+001 -3.410000e+001
      vertex -5.845256e+001 -1.100000e+001 -3.228220e+001
      vertex -6.354744e+001 -1.100000e+001 -3.228220e+001
    endloop
  endfacet
  facet normal  0.000000e+000 -1.000000e+000  0.000000e+000
    outer loop
      vertex -4.382508e+001 -1.100000e+001 -5.504301e+001
      vertex -4.813663e+001 -1.100000e+001 -5.934579e+001
      vertex -4.594156e+001 -1.100000e+001 -5.967747e+001
    endloop
  endfacet
  facet normal  -0.000000e+000 -1.000000e+000  0.000000e+000
    outer loop
      vertex -4.594156e+001 -1.100000e+001 -5.967747e+001
      vertex -4.813663e+001 -1.100000e+001 -5.934579e+001
      vertex -5.165421e+001 -1.100000e+001 -6.286337e+001
    endloop
  endfacet
  facet normal  0.000000e+000 -1.000000e+000  0.000000e+000
    outer loop
      vertex -4.594156e+001 -1.100000e+001 -5.967747e+001
      vertex -5.165421e+001 -1.100000e+001 -6.286337e+001
      vertex -4.927799e+001 -1.100000e+001 -6.352792e+001
    endloop
  endfacet
  facet normal  -0.000000e+000 -1.000000e+000  0.000000e+000
    outer loop
      vertex -4.927799e+001 -1.100000e+001 -6.352792e+001
      vertex -5.165421e+001 -1.100000e+001 -6.286337e+001
      vertex -5.608663e+001 -1.100000e+001 -6.512180e+001
    endloop
  endfacet
  facet normal  0.000000e+000 -1.000000e+000  0.000000e+000
    outer loop
      vertex -4.927799e+001 -1.100000e+001 -6.352792e+001
      vertex -5.608663e+001 -1.100000e+001 -6.512180e+001
      vertex -5.356407e+001 -1.100000e+001 -6.628241e+001
    endloop
  endfacet
  facet normal  0.000000e+000 -1.000000e+000  0.000000e+000
    outer loop
      vertex -5.356407e+001 -1.100000e+001 -6.628241e+001
      vertex -5.608663e+001 -1.100000e+001 -6.512180e+001
      vertex -6.100000e+001 -1.100000e+001 -6.590000e+001
    endloop
  endfacet
  facet normal  0.000000e+000 -1.000000e+000  0.000000e+000
    outer loop
      vertex -5.356407e+001 -1.100000e+001 -6.628241e+001
      vertex -6.100000e+001 -1.100000e+001 -6.590000e+001
      vertex -5.845256e+001 -1.100000e+001 -6.771780e+001
    endloop
  endfacet
  facet normal  -0.000000e+000 -1.000000e+000  0.000000e+000
    outer loop
      vertex -4.813663e+001 -1.100000e+001 -5.934579e+001
      vertex -4.382508e+001 -1.100000e+001 -5.504301e+001
      vertex -4.587820e+001 -1.100000e+001 -5.491337e+001
    endloop
  endfacet
  facet normal  0.000000e+000 -1.000000e+000  0.000000e+000
    outer loop
      vertex -4.587820e+001 -1.100000e+001 -5.491337e+001
      vertex -4.382508e+001 -1.100000e+001 -5.504301e+001
      vertex -4.310000e+001 -1.100000e+001 -5.000000e+001
    endloop
  endfacet
  facet normal  -0.000000e+000 -1.000000e+000  0.000000e+000
    outer loop
      vertex -4.587820e+001 -1.100000e+001 -5.491337e+001
      vertex -4.310000e+001 -1.100000e+001 -5.000000e+001
      vertex -4.510000e+001 -1.100000e+001 -5.000000e+001
    endloop
  endfacet
  facet normal  0.000000e+000 -9.999999e-001  0.000000e+000
    outer loop
      vertex -4.510000e+001 -1.100000e+001 -5.000000e+001
      vertex -4.310000e+001 -1.100000e+001 -5.000000e+001
      vertex -4.382508e+001 -1.100000e+001 -4.495699e+001
    endloop
  endfacet
  facet normal  0.000000e+000 -1.000000e+000  0.000000e+000
    outer loop
      vertex -4.510000e+001 -1.100000e+001 -5.000000e+001
      vertex -4.382508e+001 -1.100000e+001 -4.495699e+001
      vertex -4.587820e+001 -1.100000e+001 -4.508663e+001
    endloop
  endfacet
  facet normal  0.000000e+000 -1.000000e+000  0.000000e+000
    outer loop
      vertex -4.587820e+001 -1.100000e+001 -4.508663e+001
      vertex -4.382508e+001 -1.100000e+001 -4.495699e+001
      vertex -4.594156e+001 -1.100000e+001 -4.032253e+001
    endloop
  endfacet
  facet normal  0.000000e+000 -1.000000e+000  -0.000000e+000
    outer loop
      vertex -4.587820e+001 -1.100000e+001 -4.508663e+001
      vertex -4.594156e+001 -1.100000e+001 -4.032253e+001
      vertex -4.813663e+001 -1.100000e+001 -4.065421e+001
    endloop
  endfacet
  facet normal  0.000000e+000 -1.000000e+000  0.000000e+000
    outer loop
      vertex -4.813663e+001 -1.100000e+001 -4.065421e+001
      vertex -4.594156e+001 -1.100000e+001 -4.032253e+001
      vertex -4.927799e+001 -1.100000e+001 -3.647208e+001
    endloop
  endfacet
  facet normal  0.000000e+000 -1.000000e+000  -0.000000e+000
    outer loop
      vertex -4.813663e+001 -1.100000e+001 -4.065421e+001
      vertex -4.927799e+001 -1.100000e+001 -3.647208e+001
      vertex -5.165421e+001 -1.100000e+001 -3.713663e+001
    endloop
  endfacet
  facet normal  0.000000e+000 -1.000000e+000  0.000000e+000
    outer loop
      vertex -5.165421e+001 -1.100000e+001 -3.713663e+001
      vertex -4.927799e+001 -1.100000e+001 -3.647208e+001
      vertex -5.356407e+001 -1.100000e+001 -3.371759e+001
    endloop
  endfacet
  facet normal  0.000000e+000 -1.000000e+000  -0.000000e+000
    outer loop
      vertex -5.165421e+001 -1.100000e+001 -3.713663e+001
      vertex -5.356407e+001 -1.100000e+001 -3.371759e+001
      vertex -5.608663e+001 -1.100000e+001 -3.487820e+001
    endloop
  endfacet
  facet normal  -0.000000e+000 -1.000000e+000  0.000000e+000
    outer loop
      vertex -7.817493e+001 -1.100000e+001 -4.495699e+001
      vertex -7.386337e+001 -1.100000e+001 -4.065421e+001
      vertex -7.605844e+001 -1.100000e+001 -4.032253e+001
    endloop
  endfacet
  facet normal  0.000000e+000 -1.000000e+000  0.000000e+000
    outer loop
      vertex -7.605844e+001 -1.100000e+001 -4.032253e+001
      vertex -7.386337e+001 -1.100000e+001 -4.065421e+001
      vertex -7.034579e+001 -1.100000e+001 -3.713663e+001
    endloop
  endfacet
  facet normal  -0.000000e+000 -1.000000e+000  0.000000e+000
    outer loop
      vertex -7.605844e+001 -1.100000e+001 -4.032253e+001
      vertex -7.034579e+001 -1.100000e+001 -3.713663e+001
      vertex -7.272201e+001 -1.100000e+001 -3.647208e+001
    endloop
  endfacet
  facet normal  0.000000e+000 -1.000000e+000  0.000000e+000
    outer loop
      vertex -7.272201e+001 -1.100000e+001 -3.647208e+001
      vertex -7.034579e+001 -1.100000e+001 -3.713663e+001
      vertex -6.591337e+001 -1.100000e+001 -3.487820e+001
    endloop
  endfacet
  facet normal  -0.000000e+000 -9.999999e-001  0.000000e+000
    outer loop
      vertex -7.272201e+001 -1.100000e+001 -3.647208e+001
      vertex -6.591337e+001 -1.100000e+001 -3.487820e+001
      vertex -6.843593e+001 -1.100000e+001 -3.371759e+001
    endloop
  endfacet
  facet normal  0.000000e+000 -1.000000e+000  0.000000e+000
    outer loop
      vertex -6.843593e+001 -1.100000e+001 -3.371759e+001
      vertex -6.591337e+001 -1.100000e+001 -3.487820e+001
      vertex -6.100000e+001 -1.100000e+001 -3.410000e+001
    endloop
  endfacet
  facet normal  0.000000e+000 -1.000000e+000  0.000000e+000
    outer loop
      vertex -6.843593e+001 -1.100000e+001 -3.371759e+001
      vertex -6.100000e+001 -1.100000e+001 -3.410000e+001
      vertex -6.354744e+001 -1.100000e+001 -3.228220e+001
    endloop
  endfacet
  facet normal  0.000000e+000 -1.000000e+000  0.000000e+000
    outer loop
      vertex -7.386337e+001 -1.100000e+001 -4.065421e+001
      vertex -7.817493e+001 -1.100000e+001 -4.495699e+001
      vertex -7.612180e+001 -1.100000e+001 -4.508663e+001
    endloop
  endfacet
  facet normal  -0.000000e+000 -1.000000e+000  0.000000e+000
    outer loop
      vertex -7.612180e+001 -1.100000e+001 -4.508663e+001
      vertex -7.817493e+001 -1.100000e+001 -4.495699e+001
      vertex -7.890000e+001 -1.100000e+001 -5.000000e+001
    endloop
  endfacet
  facet normal  0.000000e+000 -1.000000e+000  0.000000e+000
    outer loop
      vertex -7.612180e+001 -1.100000e+001 -4.508663e+001
      vertex -7.890000e+001 -1.100000e+001 -5.000000e+001
      vertex -7.690000e+001 -1.100000e+001 -5.000000e+001
    endloop
  endfacet
  facet normal  -0.000000e+000 -9.999999e-001  0.000000e+000
    outer loop
      vertex -7.690000e+001 -1.100000e+001 -5.000000e+001
      vertex -7.890000e+001 -1.100000e+001 -5.000000e+001
      vertex -7.817493e+001 -1.100000e+001 -5.504301e+001
    endloop
  endfacet
  facet normal  0.000000e+000 -9.999999e-001  0.000000e+000
    outer loop
      vertex -7.690000e+001 -1.100000e+001 -5.000000e+001
      vertex -7.817493e+001 -1.100000e+001 -5.504301e+001
      vertex -7.612180e+001 -1.100000e+001 -5.491337e+001
    endloop
  endfacet
  facet normal  0.000000e+000 -1.000000e+000  -0.000000e+000
    outer loop
      vertex -7.612180e+001 -1.100000e+001 -5.491337e+001
      vertex -7.817493e+001 -1.100000e+001 -5.504301e+001
      vertex -7.605844e+001 -1.100000e+001 -5.967747e+001
    endloop
  endfacet
  facet normal  0.000000e+000 -1.000000e+000  0.000000e+000
    outer loop
      vertex -7.612180e+001 -1.100000e+001 -5.491337e+001
      vertex -7.605844e+001 -1.100000e+001 -5.967747e+001
      vertex -7.386337e+001 -1.100000e+001 -5.934579e+001
    endloop
  endfacet
  facet normal  0.000000e+000 -1.000000e+000  -0.000000e+000
    outer loop
      vertex -7.386337e+001 -1.100000e+001 -5.934579e+001
      vertex -7.605844e+001 -1.100000e+001 -5.967747e+001
      vertex -7.272201e+001 -1.100000e+001 -6.352792e+001
    endloop
  endfacet
  facet normal  0.000000e+000 -1.000000e+000  0.000000e+000
    outer loop
      vertex -7.386337e+001 -1.100000e+001 -5.934579e+001
      vertex -7.272201e+001 -1.100000e+001 -6.352792e+001
      vertex -7.034579e+001 -1.100000e+001 -6.286337e+001
    endloop
  endfacet
  facet normal  0.000000e+000 -1.000000e+000  -0.000000e+000
    outer loop
      vertex -7.034579e+001 -1.100000e+001 -6.286337e+001
      vertex -7.272201e+001 -1.100000e+001 -6.352792e+001
      vertex -6.843593e+001 -1.100000e+001 -6.628241e+001
    endloop
  endfacet
  facet normal  0.000000e+000 -1.000000e+000  0.000000e+000
    outer loop
      vertex -7.034579e+001 -1.100000e+001 -6.286337e+001
      vertex -6.843593e+001 -1.100000e+001 -6.628241e+001
      vertex -6.591337e+001 -1.100000e+001 -6.512180e+001
    endloop
  endfacet
  facet normal  1.564354e-001  0.000000e+000  9.876882e-001
    outer loop
      vertex -6.100000e+001 -1.100000e+001 -6.590000e+001
      vertex -6.591337e+001  1.500000e+001 -6.512180e+001
      vertex -6.591337e+001 -1.100000e+001 -6.512180e+001
    endloop
  endfacet
  facet normal  4.539900e-001  -0.000000e+000  8.910068e-001
    outer loop
      vertex -6.591337e+001 -1.100000e+001 -6.512180e+001
      vertex -6.591337e+001  1.500000e+001 -6.512180e+001
      vertex -7.034579e+001  1.500000e+001 -6.286337e+001
    endloop
  endfacet
  facet normal  4.539900e-001  0.000000e+000  8.910068e-001
    outer loop
      vertex -6.591337e+001 -1.100000e+001 -6.512180e+001
      vertex -7.034579e+001  1.500000e+001 -6.286337e+001
      vertex -7.034579e+001 -1.100000e+001 -6.286337e+001
    endloop
  endfacet
  facet normal  7.071064e-001  -0.000000e+000  7.071072e-001
    outer loop
      vertex -7.034579e+001 -1.100000e+001 -6.286337e+001
      vertex -7.034579e+001  1.500000e+001 -6.286337e+001
      vertex -7.386337e+001  1.500000e+001 -5.934579e+001
    endloop
  endfacet
  facet normal  7.071064e-001  0.000000e+000  7.071072e-001
    outer loop
      vertex -7.034579e+001 -1.100000e+001 -6.286337e+001
      vertex -7.386337e+001  1.500000e+001 -5.934579e+001
      vertex -7.386337e+001 -1.100000e+001 -5.934579e+001
    endloop
  endfacet
  facet normal  8.910070e-001  -0.000000e+000  4.539897e-001
    outer loop
      vertex -7.386337e+001 -1.100000e+001 -5.934579e+001
      vertex -7.386337e+001  1.500000e+001 -5.934579e+001
      vertex -7.612180e+001  1.500000e+001 -5.491337e+001
    endloop
  endfacet
  facet normal  8.910070e-001  0.000000e+000  4.539897e-001
    outer loop
      vertex -7.386337e+001 -1.100000e+001 -5.934579e+001
      vertex -7.612180e+001  1.500000e+001 -5.491337e+001
      vertex -7.612180e+001 -1.100000e+001 -5.491337e+001
    endloop
  endfacet
  facet normal  9.876882e-001  -0.000000e+000  1.564353e-001
    outer loop
      vertex -7.612180e+001 -1.100000e+001 -5.491337e+001
      vertex -7.612180e+001  1.500000e+001 -5.491337e+001
      vertex -7.690000e+001  1.500000e+001 -5.000000e+001
    endloop
  endfacet
  facet normal  9.876882e-001  0.000000e+000  1.564353e-001
    outer loop
      vertex -7.612180e+001 -1.100000e+001 -5.491337e+001
      vertex -7.690000e+001  1.500000e+001 -5.000000e+001
      vertex -7.690000e+001 -1.100000e+001 -5.000000e+001
    endloop
  endfacet
  facet normal  1.564354e-001  -0.000000e+000  9.876882e-001
    outer loop
      vertex -6.591337e+001  1.500000e+001 -6.512180e+001
      vertex -6.100000e+001 -1.100000e+001 -6.590000e+001
      vertex -6.100000e+001  1.500000e+001 -6.590000e+001
    endloop
  endfacet
  facet normal -1.564353e-001  0.000000e+000  9.876882e-001
    outer loop
      vertex -6.100000e+001  1.500000e+001 -6.590000e+001
      vertex -6.100000e+001 -1.100000e+001 -6.590000e+001
      vertex -5.608663e+001 -1.100000e+001 -6.512180e+001
    endloop
  endfacet
  facet normal -1.564353e-001  0.000000e+000  9.876882e-001
    outer loop
      vertex -6.100000e+001  1.500000e+001 -6.590000e+001
      vertex -5.608663e+001 -1.100000e+001 -6.512180e+001
      vertex -5.608663e+001  1.500000e+001 -6.512180e+001
    endloop
  endfacet
  facet normal -4.539903e-001  0.000000e+000  8.910067e-001
    outer loop
      vertex -5.608663e+001  1.500000e+001 -6.512180e+001
      vertex -5.608663e+001 -1.100000e+001 -6.512180e+001
      vertex -5.165421e+001 -1.100000e+001 -6.286337e+001
    endloop
  endfacet
  facet normal -4.539903e-001  0.000000e+000  8.910067e-001
    outer loop
      vertex -5.608663e+001  1.500000e+001 -6.512180e+001
      vertex -5.165421e+001 -1.100000e+001 -6.286337e+001
      vertex -5.165421e+001  1.500000e+001 -6.286337e+001
    endloop
  endfacet
  facet normal -7.071068e-001  0.000000e+000  7.071068e-001
    outer loop
      vertex -5.165421e+001  1.500000e+001 -6.286337e+001
      vertex -5.165421e+001 -1.100000e+001 -6.286337e+001
      vertex -4.813663e+001 -1.100000e+001 -5.934579e+001
    endloop
  endfacet
  facet normal -7.071068e-001  0.000000e+000  7.071068e-001
    outer loop
      vertex -5.165421e+001  1.500000e+001 -6.286337e+001
      vertex -4.813663e+001 -1.100000e+001 -5.934579e+001
      vertex -4.813663e+001  1.500000e+001 -5.934579e+001
    endloop
  endfacet
  facet normal -8.910064e-001  0.000000e+000  4.539909e-001
    outer loop
      vertex -4.813663e+001  1.500000e+001 -5.934579e+001
      vertex -4.813663e+001 -1.100000e+001 -5.934579e+001
      vertex -4.587820e+001 -1.100000e+001 -5.491337e+001
    endloop
  endfacet
  facet normal -8.910064e-001  0.000000e+000  4.539909e-001
    outer loop
      vertex -4.813663e+001  1.500000e+001 -5.934579e+001
      vertex -4.587820e+001 -1.100000e+001 -5.491337e+001
      vertex -4.587820e+001  1.500000e+001 -5.491337e+001
    endloop
  endfacet
  facet normal -9.876884e-001  0.000000e+000  1.564346e-001
    outer loop
      vertex -4.587820e+001  1.500000e+001 -5.491337e+001
      vertex -4.587820e+001 -1.100000e+001 -5.491337e+001
      vertex -4.510000e+001 -1.100000e+001 -5.000000e+001
    endloop
  endfacet
  facet normal -9.876884e-001  0.000000e+000  1.564346e-001
    outer loop
      vertex -4.587820e+001  1.500000e+001 -5.491337e+001
      vertex -4.510000e+001 -1.100000e+001 -5.000000e+001
      vertex -4.510000e+001  1.500000e+001 -5.000000e+001
    endloop
  endfacet
  facet normal -1.564346e-001  -0.000000e+000 -9.876884e-001
    outer loop
      vertex -6.100000e+001 -1.100000e+001 -3.410000e+001
      vertex -5.608663e+001  1.500000e+001 -3.487820e+001
      vertex -5.608663e+001 -1.100000e+001 -3.487820e+001
    endloop
  endfacet
  facet normal -4.539909e-001  0.000000e+000 -8.910064e-001
    outer loop
      vertex -5.608663e+001 -1.100000e+001 -3.487820e+001
      vertex -5.608663e+001  1.500000e+001 -3.487820e+001
      vertex -5.165421e+001  1.500000e+001 -3.713663e+001
    endloop
  endfacet
  facet normal -4.539909e-001  -0.000000e+000 -8.910064e-001
    outer loop
      vertex -5.608663e+001 -1.100000e+001 -3.487820e+001
      vertex -5.165421e+001  1.500000e+001 -3.713663e+001
      vertex -5.165421e+001 -1.100000e+001 -3.713663e+001
    endloop
  endfacet
  facet normal -7.071068e-001  0.000000e+000 -7.071068e-001
    outer loop
      vertex -5.165421e+001 -1.100000e+001 -3.713663e+001
      vertex -5.165421e+001  1.500000e+001 -3.713663e+001
      vertex -4.813663e+001  1.500000e+001 -4.065421e+001
    endloop
  endfacet
  facet normal -7.071068e-001  -0.000000e+000 -7.071068e-001
    outer loop
      vertex -5.165421e+001 -1.100000e+001 -3.713663e+001
      vertex -4.813663e+001  1.500000e+001 -4.065421e+001
      vertex -4.813663e+001 -1.100000e+001 -4.065421e+001
    endloop
  endfacet
  facet normal -8.910064e-001  0.000000e+000 -4.539909e-001
    outer loop
      vertex -4.813663e+001 -1.100000e+001 -4.065421e+001
      vertex -4.813663e+001  1.500000e+001 -4.065421e+001
      vertex -4.587820e+001  1.500000e+001 -4.508663e+001
    endloop
  endfacet
  facet normal -8.910064e-001  -0.000000e+000 -4.539909e-001
    outer loop
      vertex -4.813663e+001 -1.100000e+001 -4.065421e+001
      vertex -4.587820e+001  1.500000e+001 -4.508663e+001
      vertex -4.587820e+001 -1.100000e+001 -4.508663e+001
    endloop
  endfacet
  facet normal -9.876884e-001  0.000000e+000 -1.564346e-001
    outer loop
      vertex -4.587820e+001 -1.100000e+001 -4.508663e+001
      vertex -4.587820e+001  1.500000e+001 -4.508663e+001
      vertex -4.510000e+001  1.500000e+001 -5.000000e+001
    endloop
  endfacet
  facet normal -9.876884e-001  -0.000000e+000 -1.564346e-001
    outer loop
      vertex -4.587820e+001 -1.100000e+001 -4.508663e+001
      vertex -4.510000e+001  1.500000e+001 -5.000000e+001
      vertex -4.510000e+001 -1.100000e+001 -5.000000e+001
    endloop
  endfacet
  facet normal -1.564346e-001  0.000000e+000 -9.876884e-001
    outer loop
      vertex -5.608663e+001  1.500000e+001 -3.487820e+001
      vertex -6.100000e+001 -1.100000e+001 -3.410000e+001
      vertex -6.100000e+001  1.500000e+001 -3.410000e+001
    endloop
  endfacet
  facet normal  1.564347e-001  0.000000e+000 -9.876884e-001
    outer loop
      vertex -6.100000e+001  1.500000e+001 -3.410000e+001
      vertex -6.100000e+001 -1.100000e+001 -3.410000e+001
      vertex -6.591337e+001 -1.100000e+001 -3.487820e+001
    endloop
  endfacet
  facet normal  1.564347e-001  0.000000e+000 -9.876884e-001
    outer loop
      vertex -6.100000e+001  1.500000e+001 -3.410000e+001
      vertex -6.591337e+001 -1.100000e+001 -3.487820e+001
      vertex -6.591337e+001  1.500000e+001 -3.487820e+001
    endloop
  endfacet
  facet normal  4.539905e-001  0.000000e+000 -8.910065e-001
    outer loop
      vertex -6.591337e+001  1.500000e+001 -3.487820e+001
      vertex -6.591337e+001 -1.100000e+001 -3.487820e+001
      vertex -7.034579e+001 -1.100000e+001 -3.713663e+001
    endloop
  endfacet
  facet normal  4.539905e-001  0.000000e+000 -8.910065e-001
    outer loop
      vertex -6.591337e+001  1.500000e+001 -3.487820e+001
      vertex -7.034579e+001 -1.100000e+001 -3.713663e+001
      vertex -7.034579e+001  1.500000e+001 -3.713663e+001
    endloop
  endfacet
  facet normal  7.071064e-001  0.000000e+000 -7.071072e-001
    outer loop
      vertex -7.034579e+001  1.500000e+001 -3.713663e+001
      vertex -7.034579e+001 -1.100000e+001 -3.713663e+001
      vertex -7.386337e+001 -1.100000e+001 -4.065421e+001
    endloop
  endfacet
  facet normal  7.071064e-001  0.000000e+000 -7.071072e-001
    outer loop
      vertex -7.034579e+001  1.500000e+001 -3.713663e+001
      vertex -7.386337e+001 -1.100000e+001 -4.065421e+001
      vertex -7.386337e+001  1.500000e+001 -4.065421e+001
    endloop
  endfacet
  facet normal  8.910070e-001  0.000000e+000 -4.539897e-001
    outer loop
      vertex -7.386337e+001  1.500000e+001 -4.065421e+001
      vertex -7.386337e+001 -1.100000e+001 -4.065421e+001
      vertex -7.612180e+001 -1.100000e+001 -4.508663e+001
    endloop
  endfacet
  facet normal  8.910070e-001  0.000000e+000 -4.539897e-001
    outer loop
      vertex -7.386337e+001  1.500000e+001 -4.065421e+001
      vertex -7.612180e+001 -1.100000e+001 -4.508663e+001
      vertex -7.612180e+001  1.500000e+001 -4.508663e+001
    endloop
  endfacet
  facet normal  9.876882e-001  0.000000e+000 -1.564353e-001
    outer loop
      vertex -7.612180e+001  1.500000e+001 -4.508663e+001
      vertex -7.612180e+001 -1.100000e+001 -4.508663e+001
      vertex -7.690000e+001 -1.100000e+001 -5.000000e+001
    endloop
  endfacet
  facet normal  9.876882e-001  0.000000e+000 -1.564353e-001
    outer loop
      vertex -7.612180e+001  1.500000e+001 -4.508663e+001
      vertex -7.690000e+001 -1.100000e+001 -5.000000e+001
      vertex -7.690000e+001  1.500000e+001 -5.000000e+001
    endloop
  endfacet
  facet normal -9.898215e-001  -0.000000e+000 -1.423146e-001
    outer loop
      vertex -7.890000e+001 -1.100000e+001 -5.000000e+001
      vertex -7.890000e+001  1.500000e+001 -5.000000e+001
      vertex -7.817493e+001 -1.100000e+001 -5.504301e+001
    endloop
  endfacet
  facet normal -9.898215e-001  0.000000e+000 -1.423146e-001
    outer loop
      vertex -7.817493e+001 -1.100000e+001 -5.504301e+001
      vertex -7.890000e+001  1.500000e+001 -5.000000e+001
      vertex -7.817493e+001  1.500000e+001 -5.504301e+001
    endloop
  endfacet
  facet normal -9.096320e-001  -0.000000e+000 -4.154151e-001
    outer loop
      vertex -7.817493e+001 -1.100000e+001 -5.504301e+001
      vertex -7.817493e+001  1.500000e+001 -5.504301e+001
      vertex -7.605844e+001 -1.100000e+001 -5.967747e+001
    endloop
  endfacet
  facet normal -9.096320e-001  0.000000e+000 -4.154151e-001
    outer loop
      vertex -7.605844e+001 -1.100000e+001 -5.967747e+001
      vertex -7.817493e+001  1.500000e+001 -5.504301e+001
      vertex -7.605844e+001  1.500000e+001 -5.967747e+001
    endloop
  endfacet
  facet normal -7.557492e-001  -0.000000e+000 -6.548612e-001
    outer loop
      vertex -7.605844e+001 -1.100000e+001 -5.967747e+001
      vertex -7.605844e+001  1.500000e+001 -5.967747e+001
      vertex -7.272201e+001 -1.100000e+001 -6.352792e+001
    endloop
  endfacet
  facet normal -7.557492e-001  0.000000e+000 -6.548612e-001
    outer loop
      vertex -7.272201e+001 -1.100000e+001 -6.352792e+001
      vertex -7.605844e+001  1.500000e+001 -5.967747e+001
      vertex -7.272201e+001  1.500000e+001 -6.352792e+001
    endloop
  endfacet
  facet normal -5.406405e-001  -0.000000e+000 -8.412537e-001
    outer loop
      vertex -7.272201e+001 -1.100000e+001 -6.352792e+001
      vertex -7.272201e+001  1.500000e+001 -6.352792e+001
      vertex -6.843593e+001 -1.100000e+001 -6.628241e+001
    endloop
  endfacet
  facet normal -5.406405e-001  0.000000e+000 -8.412537e-001
    outer loop
      vertex -6.843593e+001 -1.100000e+001 -6.628241e+001
      vertex -7.272201e+001  1.500000e+001 -6.352792e+001
      vertex -6.843593e+001  1.500000e+001 -6.628241e+001
    endloop
  endfacet
  facet normal -2.817332e-001  -0.000000e+000 -9.594928e-001
    outer loop
      vertex -6.843593e+001 -1.100000e+001 -6.628241e+001
      vertex -6.843593e+001  1.500000e+001 -6.628241e+001
      vertex -6.354744e+001 -1.100000e+001 -6.771780e+001
    endloop
  endfacet
  facet normal -2.817332e-001  0.000000e+000 -9.594928e-001
    outer loop
      vertex -6.354744e+001 -1.100000e+001 -6.771780e+001
      vertex -6.843593e+001  1.500000e+001 -6.628241e+001
      vertex -6.354744e+001  1.500000e+001 -6.771780e+001
    endloop
  endfacet
  facet normal  0.000000e+000  0.000000e+000 -1.000000e+000
    outer loop
      vertex -6.354744e+001 -1.100000e+001 -6.771780e+001
      vertex -6.354744e+001  1.500000e+001 -6.771780e+001
      vertex -5.845256e+001 -1.100000e+001 -6.771780e+001
    endloop
  endfacet
  facet normal  0.000000e+000  0.000000e+000 -1.000000e+000
    outer loop
      vertex -5.845256e+001 -1.100000e+001 -6.771780e+001
      vertex -6.354744e+001  1.500000e+001 -6.771780e+001
      vertex -5.845256e+001  1.500000e+001 -6.771780e+001
    endloop
  endfacet
  facet normal  2.817332e-001  0.000000e+000 -9.594928e-001
    outer loop
      vertex -5.845256e+001 -1.100000e+001 -6.771780e+001
      vertex -5.845256e+001  1.500000e+001 -6.771780e+001
      vertex -5.356407e+001 -1.100000e+001 -6.628241e+001
    endloop
  endfacet
  facet normal  2.817332e-001  0.000000e+000 -9.594928e-001
    outer loop
      vertex -5.356407e+001 -1.100000e+001 -6.628241e+001
      vertex -5.845256e+001  1.500000e+001 -6.771780e+001
      vertex -5.356407e+001  1.500000e+001 -6.628241e+001
    endloop
  endfacet
  facet normal  5.406405e-001  0.000000e+000 -8.412537e-001
    outer loop
      vertex -5.356407e+001 -1.100000e+001 -6.628241e+001
      vertex -5.356407e+001  1.500000e+001 -6.628241e+001
      vertex -4.927799e+001 -1.100000e+001 -6.352792e+001
    endloop
  endfacet
  facet normal  5.406405e-001  0.000000e+000 -8.412537e-001
    outer loop
      vertex -4.927799e+001 -1.100000e+001 -6.352792e+001
      vertex -5.356407e+001  1.500000e+001 -6.628241e+001
      vertex -4.927799e+001  1.500000e+001 -6.352792e+001
    endloop
  endfacet
  facet normal  7.557496e-001  0.000000e+000 -6.548607e-001
    outer loop
      vertex -4.927799e+001 -1.100000e+001 -6.352792e+001
      vertex -4.927799e+001  1.500000e+001 -6.352792e+001
      vertex -4.594156e+001 -1.100000e+001 -5.967747e+001
    endloop
  endfacet
  facet normal  7.557496e-001  0.000000e+000 -6.548607e-001
    outer loop
      vertex -4.594156e+001 -1.100000e+001 -5.967747e+001
      vertex -4.927799e+001  1.500000e+001 -6.352792e+001
      vertex -4.594156e+001  1.500000e+001 -5.967747e+001
    endloop
  endfacet
  facet normal  9.096320e-001  0.000000e+000 -4.154151e-001
    outer loop
      vertex -4.594156e+001 -1.100000e+001 -5.967747e+001
      vertex -4.594156e+001  1.500000e+001 -5.967747e+001
      vertex -4.382508e+001 -1.100000e+001 -5.504301e+001
    endloop
  endfacet
  facet normal  9.096320e-001  0.000000e+000 -4.154151e-001
    outer loop
      vertex -4.382508e+001 -1.100000e+001 -5.504301e+001
      vertex -4.594156e+001  1.500000e+001 -5.967747e+001
      vertex -4.382508e+001  1.500000e+001 -5.504301e+001
    endloop
  endfacet
  facet normal  9.898214e-001  0.000000e+000 -1.423153e-001
    outer loop
      vertex -4.382508e+001 -1.100000e+001 -5.504301e+001
      vertex -4.382508e+001  1.500000e+001 -5.504301e+001
      vertex -4.310000e+001 -1.100000e+001 -5.000000e+001
    endloop
  endfacet
  facet normal  9.898214e-001  0.000000e+000 -1.423153e-001
    outer loop
      vertex -4.310000e+001 -1.100000e+001 -5.000000e+001
      vertex -4.382508e+001  1.500000e+001 -5.504301e+001
      vertex -4.310000e+001  1.500000e+001 -5.000000e+001
    endloop
  endfacet
  facet normal  9.898214e-001  0.000000e+000  1.423153e-001
    outer loop
      vertex -4.310000e+001 -1.100000e+001 -5.000000e+001
      vertex -4.310000e+001  1.500000e+001 -5.000000e+001
      vertex -4.382508e+001 -1.100000e+001 -4.495699e+001
    endloop
  endfacet
  facet normal  9.898214e-001  -0.000000e+000  1.423153e-001
    outer loop
      vertex -4.382508e+001 -1.100000e+001 -4.495699e+001
      vertex -4.310000e+001  1.500000e+001 -5.000000e+001
      vertex -4.382508e+001  1.500000e+001 -4.495699e+001
    endloop
  endfacet
  facet normal  9.096320e-001  0.000000e+000  4.154151e-001
    outer loop
      vertex -4.382508e+001 -1.100000e+001 -4.495699e+001
      vertex -4.382508e+001  1.500000e+001 -4.495699e+001
      vertex -4.594156e+001 -1.100000e+001 -4.032253e+001
    endloop
  endfacet
  facet normal  9.096320e-001  -0.000000e+000  4.154151e-001
    outer loop
      vertex -4.594156e+001 -1.100000e+001 -4.032253e+001
      vertex -4.382508e+001  1.500000e+001 -4.495699e+001
      vertex -4.594156e+001  1.500000e+001 -4.032253e+001
    endloop
  endfacet
  facet normal  7.557496e-001  0.000000e+000  6.548607e-001
    outer loop
      vertex -4.594156e+001 -1.100000e+001 -4.032253e+001
      vertex -4.594156e+001  1.500000e+001 -4.032253e+001
      vertex -4.927799e+001 -1.100000e+001 -3.647208e+001
    endloop
  endfacet
  facet normal  7.557496e-001  -0.000000e+000  6.548607e-001
    outer loop
      vertex -4.927799e+001 -1.100000e+001 -3.647208e+001
      vertex -4.594156e+001  1.500000e+001 -4.032253e+001
      vertex -4.927799e+001  1.500000e+001 -3.647208e+001
    endloop
  endfacet
  facet normal  5.406410e-001  0.000000e+000  8.412533e-001
    outer loop
      vertex -4.927799e+001 -1.100000e+001 -3.647208e+001
      vertex -4.927799e+001  1.500000e+001 -3.647208e+001
      vertex -5.356407e+001 -1.100000e+001 -3.371759e+001
    endloop
  endfacet
  facet normal  5.406410e-001  -0.000000e+000  8.412533e-001
    outer loop
      vertex -5.356407e+001 -1.100000e+001 -3.371759e+001
      vertex -4.927799e+001  1.500000e+001 -3.647208e+001
      vertex -5.356407e+001  1.500000e+001 -3.371759e+001
    endloop
  endfacet
  facet normal  2.817325e-001  0.000000e+000  9.594930e-001
    outer loop
      vertex -5.356407e+001 -1.100000e+001 -3.371759e+001
      vertex -5.356407e+001  1.500000e+001 -3.371759e+001
      vertex -5.845256e+001 -1.100000e+001 -3.228220e+001
    endloop
  endfacet
  facet normal  2.817325e-001  -0.000000e+000  9.594930e-001
    outer loop
      vertex -5.845256e+001 -1.100000e+001 -3.228220e+001
      vertex -5.356407e+001  1.500000e+001 -3.371759e+001
      vertex -5.845256e+001  1.500000e+001 -3.228220e+001
    endloop
  endfacet
  facet normal  0.000000e+000  0.000000e+000  1.000000e+000
    outer loop
      vertex -5.845256e+001 -1.100000e+001 -3.228220e+001
      vertex -5.845256e+001  1.500000e+001 -3.228220e+001
      vertex -6.354744e+001 -1.100000e+001 -3.228220e+001
    endloop
  endfacet
  facet normal  0.000000e+000  0.000000e+000  1.000000e+000
    outer loop
      vertex -6.354744e+001 -1.100000e+001 -3.228220e+001
      vertex -5.845256e+001  1.500000e+001 -3.228220e+001
      vertex -6.354744e+001  1.500000e+001 -3.228220e+001
    endloop
  endfacet
  facet normal -2.817325e-001  0.000000e+000  9.594930e-001
    outer loop
      vertex -6.354744e+001 -1.100000e+001 -3.228220e+001
      vertex -6.354744e+001  1.500000e+001 -3.228220e+001
      vertex -6.843593e+001 -1.100000e+001 -3.371759e+001
    endloop
  endfacet
  facet normal -2.817325e-001  0.000000e+000  9.594930e-001
    outer loop
      vertex -6.843593e+001 -1.100000e+001 -3.371759e+001
      vertex -6.354744e+001  1.500000e+001 -3.228220e+001
      vertex -6.843593e+001  1.500000e+001 -3.371759e+001
    endloop
  endfacet
  facet normal -5.406410e-001  0.000000e+000  8.412533e-001
    outer loop
      vertex -6.843593e+001 -1.100000e+001 -3.371759e+001
      vertex -6.843593e+001  1.500000e+001 -3.371759e+001
      vertex -7.272201e+001 -1.100000e+001 -3.647208e+001
    endloop
  endfacet
  facet normal -5.406410e-001  0.000000e+000  8.412533e-001
    outer loop
      vertex -7.272201e+001 -1.100000e+001 -3.647208e+001
      vertex -6.843593e+001  1.500000e+001 -3.371759e+001
      vertex -7.272201e+001  1.500000e+001 -3.647208e+001
    endloop
  endfacet
  facet normal -7.557492e-001  0.000000e+000  6.548612e-001
    outer loop
      vertex -7.272201e+001 -1.100000e+001 -3.647208e+001
      vertex -7.272201e+001  1.500000e+001 -3.647208e+001
      vertex -7.605844e+001 -1.100000e+001 -4.032253e+001
    endloop
  endfacet
  facet normal -7.557492e-001  0.000000e+000  6.548612e-001
    outer loop
      vertex -7.605844e+001 -1.100000e+001 -4.032253e+001
      vertex -7.272201e+001  1.500000e+001 -3.647208e+001
      vertex -7.605844e+001  1.500000e+001 -4.032253e+001
    endloop
  endfacet
  facet normal -9.096320e-001  0.000000e+000  4.154151e-001
    outer loop
      vertex -7.605844e+001 -1.100000e+001 -4.032253e+001
      vertex -7.605844e+001  1.500000e+001 -4.032253e+001
      vertex -7.817493e+001 -1.100000e+001 -4.495699e+001
    endloop
  endfacet
  facet normal -9.096320e-001  0.000000e+000  4.154151e-001
    outer loop
      vertex -7.817493e+001 -1.100000e+001 -4.495699e+001
      vertex -7.605844e+001  1.500000e+001 -4.032253e+001
      vertex -7.817493e+001  1.500000e+001 -4.495699e+001
    endloop
  endfacet
  facet normal -9.898215e-001  0.000000e+000  1.423146e-001
    outer loop
      vertex -7.817493e+001 -1.100000e+001 -4.495699e+001
      vertex -7.817493e+001  1.500000e+001 -4.495699e+001
      vertex -7.890000e+001 -1.100000e+001 -5.000000e+001
    endloop
  endfacet
  facet normal -9.898215e-001  0.000000e+000  1.423146e-001
    outer loop
      vertex -7.890000e+001 -1.100000e+001 -5.000000e+001
      vertex -7.817493e+001  1.500000e+001 -4.495699e+001
      vertex -7.890000e+001  1.500000e+001 -5.000000e+001
    endloop
  endfacet
endsolid CATIA STL
