solid CATIA STL
  facet normal  1.000000e+000  -0.000000e+000  0.000000e+000
    outer loop
      vertex  1.000000e+000 -1.590990e+000 -1.590990e+000
      vertex  1.000000e+000 -3.572355e+000 -2.062500e+000
      vertex  1.000000e+000 -2.411706e-015 -2.250000e+000
    endloop
  endfacet
  facet normal  1.000000e+000  0.000000e+000  0.000000e+000
    outer loop
      vertex  1.000000e+000  3.572355e+000  2.062500e+000
      vertex  1.000000e+000  1.377682e-016  2.250000e+000
      vertex  1.000000e+000  1.590990e+000  1.590990e+000
    endloop
  endfacet
  facet normal  1.000000e+000  0.000000e+000  0.000000e+000
    outer loop
      vertex  1.000000e+000  3.572355e+000  2.062500e+000
      vertex  1.000000e+000  2.062500e+000  3.572355e+000
      vertex  1.000000e+000  1.377682e-016  2.250000e+000
    endloop
  endfacet
  facet normal  1.000000e+000  0.000000e+000  0.000000e+000
    outer loop
      vertex  1.000000e+000  1.377682e-016  2.250000e+000
      vertex  1.000000e+000  2.062500e+000  3.572355e+000
      vertex  1.000000e+000  6.753730e-014  4.125000e+000
    endloop
  endfacet
  facet normal  1.000000e+000  0.000000e+000  0.000000e+000
    outer loop
      vertex  1.000000e+000  1.377682e-016  2.250000e+000
      vertex  1.000000e+000  6.753730e-014  4.125000e+000
      vertex  1.000000e+000 -3.572355e+000  2.062500e+000
    endloop
  endfacet
  facet normal  1.000000e+000  0.000000e+000  0.000000e+000
    outer loop
      vertex  1.000000e+000 -3.572355e+000  2.062500e+000
      vertex  1.000000e+000  6.753730e-014  4.125000e+000
      vertex  1.000000e+000 -2.062500e+000  3.572355e+000
    endloop
  endfacet
  facet normal  1.000000e+000  0.000000e+000  0.000000e+000
    outer loop
      vertex  1.000000e+000 -3.572355e+000 -2.062500e+000
      vertex  1.000000e+000 -1.590990e+000 -1.590990e+000
      vertex  1.000000e+000 -4.125000e+000  1.771972e-013
    endloop
  endfacet
  facet normal  1.000000e+000  0.000000e+000  0.000000e+000
    outer loop
      vertex  1.000000e+000 -4.125000e+000  1.771972e-013
      vertex  1.000000e+000 -1.590990e+000 -1.590990e+000
      vertex  1.000000e+000 -2.250000e+000  2.755364e-016
    endloop
  endfacet
  facet normal  1.000000e+000  0.000000e+000  0.000000e+000
    outer loop
      vertex  1.000000e+000 -4.125000e+000  1.771972e-013
      vertex  1.000000e+000 -2.250000e+000  2.755364e-016
      vertex  1.000000e+000 -3.572355e+000  2.062500e+000
    endloop
  endfacet
  facet normal  1.000000e+000  0.000000e+000  0.000000e+000
    outer loop
      vertex  1.000000e+000 -3.572355e+000  2.062500e+000
      vertex  1.000000e+000 -2.250000e+000  2.755364e-016
      vertex  1.000000e+000 -1.590990e+000  1.590990e+000
    endloop
  endfacet
  facet normal  1.000000e+000  0.000000e+000  -0.000000e+000
    outer loop
      vertex  1.000000e+000 -3.572355e+000  2.062500e+000
      vertex  1.000000e+000 -1.590990e+000  1.590990e+000
      vertex  1.000000e+000  1.377682e-016  2.250000e+000
    endloop
  endfacet
  facet normal  1.000000e+000  0.000000e+000  -0.000000e+000
    outer loop
      vertex  1.000000e+000 -3.572355e+000 -2.062500e+000
      vertex  1.000000e+000 -2.062500e+000 -3.572355e+000
      vertex  1.000000e+000 -2.411706e-015 -2.250000e+000
    endloop
  endfacet
  facet normal  1.000000e+000  0.000000e+000  0.000000e+000
    outer loop
      vertex  1.000000e+000 -2.411706e-015 -2.250000e+000
      vertex  1.000000e+000 -2.062500e+000 -3.572355e+000
      vertex  1.000000e+000  6.496747e-014 -4.125000e+000
    endloop
  endfacet
  facet normal  1.000000e+000  0.000000e+000  -0.000000e+000
    outer loop
      vertex  1.000000e+000 -2.411706e-015 -2.250000e+000
      vertex  1.000000e+000  6.496747e-014 -4.125000e+000
      vertex  1.000000e+000  3.572355e+000 -2.062500e+000
    endloop
  endfacet
  facet normal  1.000000e+000  0.000000e+000  0.000000e+000
    outer loop
      vertex  1.000000e+000  3.572355e+000 -2.062500e+000
      vertex  1.000000e+000  6.496747e-014 -4.125000e+000
      vertex  1.000000e+000  2.062500e+000 -3.572355e+000
    endloop
  endfacet
  facet normal  1.000000e+000  -0.000000e+000  0.000000e+000
    outer loop
      vertex  1.000000e+000  3.572355e+000  2.062500e+000
      vertex  1.000000e+000  1.590990e+000  1.590990e+000
      vertex  1.000000e+000  4.125000e+000 -1.087963e-016
    endloop
  endfacet
  facet normal  1.000000e+000  0.000000e+000  0.000000e+000
    outer loop
      vertex  1.000000e+000  4.125000e+000 -1.087963e-016
      vertex  1.000000e+000  1.590990e+000  1.590990e+000
      vertex  1.000000e+000  2.250000e+000  0.000000e+000
    endloop
  endfacet
  facet normal  1.000000e+000  0.000000e+000  0.000000e+000
    outer loop
      vertex  1.000000e+000  4.125000e+000 -1.087963e-016
      vertex  1.000000e+000  2.250000e+000  0.000000e+000
      vertex  1.000000e+000  3.572355e+000 -2.062500e+000
    endloop
  endfacet
  facet normal  1.000000e+000  0.000000e+000  0.000000e+000
    outer loop
      vertex  1.000000e+000  3.572355e+000 -2.062500e+000
      vertex  1.000000e+000  2.250000e+000  0.000000e+000
      vertex  1.000000e+000  1.590990e+000 -1.590990e+000
    endloop
  endfacet
  facet normal  1.000000e+000  0.000000e+000  0.000000e+000
    outer loop
      vertex  1.000000e+000  3.572355e+000 -2.062500e+000
      vertex  1.000000e+000  1.590990e+000 -1.590990e+000
      vertex  1.000000e+000 -2.411706e-015 -2.250000e+000
    endloop
  endfacet
  facet normal -4.004989e-016  9.659259e-001 -2.588190e-001
    outer loop
      vertex  0.000000e+000  4.500000e+000  0.000000e+000
      vertex  7.122524e-001  4.500000e+000 -1.102146e-015
      vertex  0.000000e+000  3.897114e+000 -2.250000e+000
    endloop
  endfacet
  facet normal  0.000000e+000  9.659259e-001 -2.588190e-001
    outer loop
      vertex  0.000000e+000  3.897114e+000 -2.250000e+000
      vertex  7.122524e-001  4.500000e+000 -1.102146e-015
      vertex  7.122524e-001  3.897114e+000 -2.250000e+000
    endloop
  endfacet
  facet normal  0.000000e+000  7.071068e-001 -7.071068e-001
    outer loop
      vertex  0.000000e+000  3.897114e+000 -2.250000e+000
      vertex  7.122524e-001  3.897114e+000 -2.250000e+000
      vertex  0.000000e+000  2.250000e+000 -3.897114e+000
    endloop
  endfacet
  facet normal  0.000000e+000  7.071068e-001 -7.071068e-001
    outer loop
      vertex  0.000000e+000  2.250000e+000 -3.897114e+000
      vertex  7.122524e-001  3.897114e+000 -2.250000e+000
      vertex  7.122524e-001  2.250000e+000 -3.897114e+000
    endloop
  endfacet
  facet normal  0.000000e+000  2.588190e-001 -9.659259e-001
    outer loop
      vertex  0.000000e+000  2.250000e+000 -3.897114e+000
      vertex  7.122524e-001  2.250000e+000 -3.897114e+000
      vertex  0.000000e+000 -4.823412e-015 -4.500000e+000
    endloop
  endfacet
  facet normal -1.452363e-015  2.588190e-001 -9.659258e-001
    outer loop
      vertex  0.000000e+000 -4.823412e-015 -4.500000e+000
      vertex  7.122524e-001  2.250000e+000 -3.897114e+000
      vertex  7.122524e-001 -8.266093e-016 -4.500000e+000
    endloop
  endfacet
  facet normal  1.452363e-015 -2.588190e-001 -9.659258e-001
    outer loop
      vertex  0.000000e+000 -4.823412e-015 -4.500000e+000
      vertex  7.122524e-001 -8.266093e-016 -4.500000e+000
      vertex  0.000000e+000 -2.250000e+000 -3.897114e+000
    endloop
  endfacet
  facet normal  0.000000e+000 -2.588190e-001 -9.659259e-001
    outer loop
      vertex  0.000000e+000 -2.250000e+000 -3.897114e+000
      vertex  7.122524e-001 -8.266093e-016 -4.500000e+000
      vertex  7.122524e-001 -2.250000e+000 -3.897114e+000
    endloop
  endfacet
  facet normal  -0.000000e+000 -7.071068e-001 -7.071068e-001
    outer loop
      vertex  0.000000e+000 -2.250000e+000 -3.897114e+000
      vertex  7.122524e-001 -2.250000e+000 -3.897114e+000
      vertex  0.000000e+000 -3.897114e+000 -2.250000e+000
    endloop
  endfacet
  facet normal  0.000000e+000 -7.071068e-001 -7.071068e-001
    outer loop
      vertex  0.000000e+000 -3.897114e+000 -2.250000e+000
      vertex  7.122524e-001 -2.250000e+000 -3.897114e+000
      vertex  7.122524e-001 -3.897114e+000 -2.250000e+000
    endloop
  endfacet
  facet normal  -0.000000e+000 -9.659259e-001 -2.588190e-001
    outer loop
      vertex  0.000000e+000 -3.897114e+000 -2.250000e+000
      vertex  7.122524e-001 -3.897114e+000 -2.250000e+000
      vertex  0.000000e+000 -4.500000e+000  5.510729e-016
    endloop
  endfacet
  facet normal  0.000000e+000 -9.659259e-001 -2.588190e-001
    outer loop
      vertex  0.000000e+000 -4.500000e+000  5.510729e-016
      vertex  7.122524e-001 -3.897114e+000 -2.250000e+000
      vertex  7.122524e-001 -4.500000e+000  5.510729e-016
    endloop
  endfacet
  facet normal  0.000000e+000 -9.659259e-001  2.588190e-001
    outer loop
      vertex  0.000000e+000 -4.500000e+000  5.510729e-016
      vertex  7.122524e-001 -4.500000e+000  5.510729e-016
      vertex  0.000000e+000 -3.897114e+000  2.250000e+000
    endloop
  endfacet
  facet normal  0.000000e+000 -9.659259e-001  2.588190e-001
    outer loop
      vertex  0.000000e+000 -3.897114e+000  2.250000e+000
      vertex  7.122524e-001 -4.500000e+000  5.510729e-016
      vertex  7.122524e-001 -3.897114e+000  2.250000e+000
    endloop
  endfacet
  facet normal  0.000000e+000 -7.071068e-001  7.071068e-001
    outer loop
      vertex  0.000000e+000 -3.897114e+000  2.250000e+000
      vertex  7.122524e-001 -3.897114e+000  2.250000e+000
      vertex  0.000000e+000 -2.250000e+000  3.897114e+000
    endloop
  endfacet
  facet normal  0.000000e+000 -7.071068e-001  7.071068e-001
    outer loop
      vertex  0.000000e+000 -2.250000e+000  3.897114e+000
      vertex  7.122524e-001 -3.897114e+000  2.250000e+000
      vertex  7.122524e-001 -2.250000e+000  3.897114e+000
    endloop
  endfacet
  facet normal  0.000000e+000 -2.588190e-001  9.659259e-001
    outer loop
      vertex  0.000000e+000 -2.250000e+000  3.897114e+000
      vertex  7.122524e-001 -2.250000e+000  3.897114e+000
      vertex  0.000000e+000  2.755364e-016  4.500000e+000
    endloop
  endfacet
  facet normal  0.000000e+000 -2.588190e-001  9.659259e-001
    outer loop
      vertex  0.000000e+000  2.755364e-016  4.500000e+000
      vertex  7.122524e-001 -2.250000e+000  3.897114e+000
      vertex  7.122524e-001  2.755364e-016  4.500000e+000
    endloop
  endfacet
  facet normal  0.000000e+000  2.588190e-001  9.659259e-001
    outer loop
      vertex  0.000000e+000  2.755364e-016  4.500000e+000
      vertex  7.122524e-001  2.755364e-016  4.500000e+000
      vertex  0.000000e+000  2.250000e+000  3.897114e+000
    endloop
  endfacet
  facet normal  -0.000000e+000  2.588190e-001  9.659259e-001
    outer loop
      vertex  0.000000e+000  2.250000e+000  3.897114e+000
      vertex  7.122524e-001  2.755364e-016  4.500000e+000
      vertex  7.122524e-001  2.250000e+000  3.897114e+000
    endloop
  endfacet
  facet normal  0.000000e+000  7.071068e-001  7.071068e-001
    outer loop
      vertex  0.000000e+000  2.250000e+000  3.897114e+000
      vertex  7.122524e-001  2.250000e+000  3.897114e+000
      vertex  0.000000e+000  3.897114e+000  2.250000e+000
    endloop
  endfacet
  facet normal  -0.000000e+000  7.071068e-001  7.071068e-001
    outer loop
      vertex  0.000000e+000  3.897114e+000  2.250000e+000
      vertex  7.122524e-001  2.250000e+000  3.897114e+000
      vertex  7.122524e-001  3.897114e+000  2.250000e+000
    endloop
  endfacet
  facet normal  0.000000e+000  9.659259e-001  2.588190e-001
    outer loop
      vertex  0.000000e+000  3.897114e+000  2.250000e+000
      vertex  7.122524e-001  3.897114e+000  2.250000e+000
      vertex  0.000000e+000  4.500000e+000  0.000000e+000
    endloop
  endfacet
  facet normal  4.004989e-016  9.659259e-001  2.588190e-001
    outer loop
      vertex  0.000000e+000  4.500000e+000  0.000000e+000
      vertex  7.122524e-001  3.897114e+000  2.250000e+000
      vertex  7.122524e-001  4.500000e+000 -1.102146e-015
    endloop
  endfacet
  facet normal  7.830049e-001 -1.609895e-001 -6.008209e-001
    outer loop
      vertex  7.122524e-001 -8.266093e-016 -4.500000e+000
      vertex  1.000000e+000 -2.062500e+000 -3.572355e+000
      vertex  7.122524e-001 -2.250000e+000 -3.897114e+000
    endloop
  endfacet
  facet normal  7.830049e-001 -4.398313e-001 -4.398313e-001
    outer loop
      vertex  7.122524e-001 -2.250000e+000 -3.897114e+000
      vertex  1.000000e+000 -2.062500e+000 -3.572355e+000
      vertex  1.000000e+000 -3.572355e+000 -2.062500e+000
    endloop
  endfacet
  facet normal  7.830049e-001 -4.398314e-001 -4.398314e-001
    outer loop
      vertex  7.122524e-001 -2.250000e+000 -3.897114e+000
      vertex  1.000000e+000 -3.572355e+000 -2.062500e+000
      vertex  7.122524e-001 -3.897114e+000 -2.250000e+000
    endloop
  endfacet
  facet normal  7.830049e-001 -6.008208e-001 -1.609895e-001
    outer loop
      vertex  7.122524e-001 -3.897114e+000 -2.250000e+000
      vertex  1.000000e+000 -3.572355e+000 -2.062500e+000
      vertex  1.000000e+000 -4.125000e+000  1.771972e-013
    endloop
  endfacet
  facet normal  7.830049e-001 -6.008208e-001 -1.609895e-001
    outer loop
      vertex  7.122524e-001 -3.897114e+000 -2.250000e+000
      vertex  1.000000e+000 -4.125000e+000  1.771972e-013
      vertex  7.122524e-001 -4.500000e+000  5.510729e-016
    endloop
  endfacet
  facet normal  7.830049e-001 -1.609894e-001 -6.008208e-001
    outer loop
      vertex  1.000000e+000 -2.062500e+000 -3.572355e+000
      vertex  7.122524e-001 -8.266093e-016 -4.500000e+000
      vertex  1.000000e+000  6.496747e-014 -4.125000e+000
    endloop
  endfacet
  facet normal  7.830049e-001  1.609895e-001 -6.008208e-001
    outer loop
      vertex  1.000000e+000  6.496747e-014 -4.125000e+000
      vertex  7.122524e-001 -8.266093e-016 -4.500000e+000
      vertex  7.122524e-001  2.250000e+000 -3.897114e+000
    endloop
  endfacet
  facet normal  7.830049e-001  1.609895e-001 -6.008208e-001
    outer loop
      vertex  1.000000e+000  6.496747e-014 -4.125000e+000
      vertex  7.122524e-001  2.250000e+000 -3.897114e+000
      vertex  1.000000e+000  2.062500e+000 -3.572355e+000
    endloop
  endfacet
  facet normal  7.830049e-001  4.398314e-001 -4.398314e-001
    outer loop
      vertex  1.000000e+000  2.062500e+000 -3.572355e+000
      vertex  7.122524e-001  2.250000e+000 -3.897114e+000
      vertex  7.122524e-001  3.897114e+000 -2.250000e+000
    endloop
  endfacet
  facet normal  7.830049e-001  4.398313e-001 -4.398313e-001
    outer loop
      vertex  1.000000e+000  2.062500e+000 -3.572355e+000
      vertex  7.122524e-001  3.897114e+000 -2.250000e+000
      vertex  1.000000e+000  3.572355e+000 -2.062500e+000
    endloop
  endfacet
  facet normal  7.830049e-001  6.008209e-001 -1.609895e-001
    outer loop
      vertex  1.000000e+000  3.572355e+000 -2.062500e+000
      vertex  7.122524e-001  3.897114e+000 -2.250000e+000
      vertex  7.122524e-001  4.500000e+000 -1.102146e-015
    endloop
  endfacet
  facet normal  7.830049e-001  6.008208e-001 -1.609894e-001
    outer loop
      vertex  1.000000e+000  3.572355e+000 -2.062500e+000
      vertex  7.122524e-001  4.500000e+000 -1.102146e-015
      vertex  1.000000e+000  4.125000e+000 -1.087963e-016
    endloop
  endfacet
  facet normal  7.830049e-001  1.609895e-001  6.008209e-001
    outer loop
      vertex  7.122524e-001  2.755364e-016  4.500000e+000
      vertex  1.000000e+000  2.062500e+000  3.572355e+000
      vertex  7.122524e-001  2.250000e+000  3.897114e+000
    endloop
  endfacet
  facet normal  7.830049e-001  4.398313e-001  4.398313e-001
    outer loop
      vertex  7.122524e-001  2.250000e+000  3.897114e+000
      vertex  1.000000e+000  2.062500e+000  3.572355e+000
      vertex  1.000000e+000  3.572355e+000  2.062500e+000
    endloop
  endfacet
  facet normal  7.830049e-001  4.398314e-001  4.398314e-001
    outer loop
      vertex  7.122524e-001  2.250000e+000  3.897114e+000
      vertex  1.000000e+000  3.572355e+000  2.062500e+000
      vertex  7.122524e-001  3.897114e+000  2.250000e+000
    endloop
  endfacet
  facet normal  7.830049e-001  6.008208e-001  1.609895e-001
    outer loop
      vertex  7.122524e-001  3.897114e+000  2.250000e+000
      vertex  1.000000e+000  3.572355e+000  2.062500e+000
      vertex  1.000000e+000  4.125000e+000 -1.087963e-016
    endloop
  endfacet
  facet normal  7.830049e-001  6.008208e-001  1.609895e-001
    outer loop
      vertex  7.122524e-001  3.897114e+000  2.250000e+000
      vertex  1.000000e+000  4.125000e+000 -1.087963e-016
      vertex  7.122524e-001  4.500000e+000 -1.102146e-015
    endloop
  endfacet
  facet normal  7.830049e-001  1.609894e-001  6.008208e-001
    outer loop
      vertex  1.000000e+000  2.062500e+000  3.572355e+000
      vertex  7.122524e-001  2.755364e-016  4.500000e+000
      vertex  1.000000e+000  6.753730e-014  4.125000e+000
    endloop
  endfacet
  facet normal  7.830049e-001 -1.609895e-001  6.008208e-001
    outer loop
      vertex  1.000000e+000  6.753730e-014  4.125000e+000
      vertex  7.122524e-001  2.755364e-016  4.500000e+000
      vertex  7.122524e-001 -2.250000e+000  3.897114e+000
    endloop
  endfacet
  facet normal  7.830049e-001 -1.609895e-001  6.008208e-001
    outer loop
      vertex  1.000000e+000  6.753730e-014  4.125000e+000
      vertex  7.122524e-001 -2.250000e+000  3.897114e+000
      vertex  1.000000e+000 -2.062500e+000  3.572355e+000
    endloop
  endfacet
  facet normal  7.830049e-001 -4.398314e-001  4.398314e-001
    outer loop
      vertex  1.000000e+000 -2.062500e+000  3.572355e+000
      vertex  7.122524e-001 -2.250000e+000  3.897114e+000
      vertex  7.122524e-001 -3.897114e+000  2.250000e+000
    endloop
  endfacet
  facet normal  7.830049e-001 -4.398313e-001  4.398313e-001
    outer loop
      vertex  1.000000e+000 -2.062500e+000  3.572355e+000
      vertex  7.122524e-001 -3.897114e+000  2.250000e+000
      vertex  1.000000e+000 -3.572355e+000  2.062500e+000
    endloop
  endfacet
  facet normal  7.830049e-001 -6.008209e-001  1.609895e-001
    outer loop
      vertex  1.000000e+000 -3.572355e+000  2.062500e+000
      vertex  7.122524e-001 -3.897114e+000  2.250000e+000
      vertex  7.122524e-001 -4.500000e+000  5.510729e-016
    endloop
  endfacet
  facet normal  7.830049e-001 -6.008208e-001  1.609894e-001
    outer loop
      vertex  1.000000e+000 -3.572355e+000  2.062500e+000
      vertex  7.122524e-001 -4.500000e+000  5.510729e-016
      vertex  1.000000e+000 -4.125000e+000  1.771972e-013
    endloop
  endfacet
  facet normal -1.000000e+000  0.000000e+000  0.000000e+000
    outer loop
      vertex  0.000000e+000 -2.411706e-015 -2.250000e+000
      vertex  0.000000e+000 -3.897114e+000 -2.250000e+000
      vertex  0.000000e+000 -1.590990e+000 -1.590990e+000
    endloop
  endfacet
  facet normal -1.000000e+000  0.000000e+000  0.000000e+000
    outer loop
      vertex  0.000000e+000  1.590990e+000  1.590990e+000
      vertex  0.000000e+000  1.377682e-016  2.250000e+000
      vertex  0.000000e+000  3.897114e+000  2.250000e+000
    endloop
  endfacet
  facet normal -1.000000e+000  0.000000e+000  0.000000e+000
    outer loop
      vertex  0.000000e+000  3.897114e+000  2.250000e+000
      vertex  0.000000e+000  1.377682e-016  2.250000e+000
      vertex  0.000000e+000  2.250000e+000  3.897114e+000
    endloop
  endfacet
  facet normal -1.000000e+000  -0.000000e+000  0.000000e+000
    outer loop
      vertex  0.000000e+000  2.250000e+000  3.897114e+000
      vertex  0.000000e+000  1.377682e-016  2.250000e+000
      vertex  0.000000e+000  2.755364e-016  4.500000e+000
    endloop
  endfacet
  facet normal -1.000000e+000  0.000000e+000  0.000000e+000
    outer loop
      vertex  0.000000e+000  1.377682e-016  2.250000e+000
      vertex  0.000000e+000 -3.897114e+000  2.250000e+000
      vertex  0.000000e+000  2.755364e-016  4.500000e+000
    endloop
  endfacet
  facet normal -1.000000e+000  0.000000e+000  0.000000e+000
    outer loop
      vertex  0.000000e+000  2.755364e-016  4.500000e+000
      vertex  0.000000e+000 -3.897114e+000  2.250000e+000
      vertex  0.000000e+000 -2.250000e+000  3.897114e+000
    endloop
  endfacet
  facet normal -1.000000e+000  0.000000e+000  0.000000e+000
    outer loop
      vertex  0.000000e+000  1.377682e-016  2.250000e+000
      vertex  0.000000e+000 -1.590990e+000  1.590990e+000
      vertex  0.000000e+000 -3.897114e+000  2.250000e+000
    endloop
  endfacet
  facet normal -1.000000e+000  0.000000e+000  0.000000e+000
    outer loop
      vertex  0.000000e+000 -3.897114e+000  2.250000e+000
      vertex  0.000000e+000 -1.590990e+000  1.590990e+000
      vertex  0.000000e+000 -2.250000e+000  2.755364e-016
    endloop
  endfacet
  facet normal -1.000000e+000  0.000000e+000  0.000000e+000
    outer loop
      vertex  0.000000e+000 -3.897114e+000  2.250000e+000
      vertex  0.000000e+000 -2.250000e+000  2.755364e-016
      vertex  0.000000e+000 -4.500000e+000  5.510729e-016
    endloop
  endfacet
  facet normal -1.000000e+000  0.000000e+000  0.000000e+000
    outer loop
      vertex  0.000000e+000 -4.500000e+000  5.510729e-016
      vertex  0.000000e+000 -2.250000e+000  2.755364e-016
      vertex  0.000000e+000 -1.590990e+000 -1.590990e+000
    endloop
  endfacet
  facet normal -1.000000e+000  -0.000000e+000  0.000000e+000
    outer loop
      vertex  0.000000e+000 -4.500000e+000  5.510729e-016
      vertex  0.000000e+000 -1.590990e+000 -1.590990e+000
      vertex  0.000000e+000 -3.897114e+000 -2.250000e+000
    endloop
  endfacet
  facet normal -1.000000e+000  -0.000000e+000  0.000000e+000
    outer loop
      vertex  0.000000e+000 -3.897114e+000 -2.250000e+000
      vertex  0.000000e+000 -2.411706e-015 -2.250000e+000
      vertex  0.000000e+000 -2.250000e+000 -3.897114e+000
    endloop
  endfacet
  facet normal -1.000000e+000  0.000000e+000  0.000000e+000
    outer loop
      vertex  0.000000e+000 -2.250000e+000 -3.897114e+000
      vertex  0.000000e+000 -2.411706e-015 -2.250000e+000
      vertex  0.000000e+000 -4.823412e-015 -4.500000e+000
    endloop
  endfacet
  facet normal -1.000000e+000  -0.000000e+000  0.000000e+000
    outer loop
      vertex  0.000000e+000 -2.411706e-015 -2.250000e+000
      vertex  0.000000e+000  3.897114e+000 -2.250000e+000
      vertex  0.000000e+000 -4.823412e-015 -4.500000e+000
    endloop
  endfacet
  facet normal -1.000000e+000  0.000000e+000  0.000000e+000
    outer loop
      vertex  0.000000e+000 -4.823412e-015 -4.500000e+000
      vertex  0.000000e+000  3.897114e+000 -2.250000e+000
      vertex  0.000000e+000  2.250000e+000 -3.897114e+000
    endloop
  endfacet
  facet normal -1.000000e+000  0.000000e+000  -0.000000e+000
    outer loop
      vertex  0.000000e+000 -2.411706e-015 -2.250000e+000
      vertex  0.000000e+000  1.590990e+000 -1.590990e+000
      vertex  0.000000e+000  3.897114e+000 -2.250000e+000
    endloop
  endfacet
  facet normal -1.000000e+000  0.000000e+000  0.000000e+000
    outer loop
      vertex  0.000000e+000  3.897114e+000 -2.250000e+000
      vertex  0.000000e+000  1.590990e+000 -1.590990e+000
      vertex  0.000000e+000  2.250000e+000  0.000000e+000
    endloop
  endfacet
  facet normal -1.000000e+000  0.000000e+000  0.000000e+000
    outer loop
      vertex  0.000000e+000  3.897114e+000 -2.250000e+000
      vertex  0.000000e+000  2.250000e+000  0.000000e+000
      vertex  0.000000e+000  4.500000e+000  0.000000e+000
    endloop
  endfacet
  facet normal -1.000000e+000  0.000000e+000  0.000000e+000
    outer loop
      vertex  0.000000e+000  4.500000e+000  0.000000e+000
      vertex  0.000000e+000  2.250000e+000  0.000000e+000
      vertex  0.000000e+000  1.590990e+000  1.590990e+000
    endloop
  endfacet
  facet normal -1.000000e+000  0.000000e+000  0.000000e+000
    outer loop
      vertex  0.000000e+000  4.500000e+000  0.000000e+000
      vertex  0.000000e+000  1.590990e+000  1.590990e+000
      vertex  0.000000e+000  3.897114e+000  2.250000e+000
    endloop
  endfacet
  facet normal  0.000000e+000  3.826834e-001 -9.238795e-001
    outer loop
      vertex  0.000000e+000  1.377682e-016  2.250000e+000
      vertex  1.000000e+000 -1.590990e+000  1.590990e+000
      vertex  0.000000e+000 -1.590990e+000  1.590990e+000
    endloop
  endfacet
  facet normal  0.000000e+000  9.238795e-001 -3.826834e-001
    outer loop
      vertex  0.000000e+000 -1.590990e+000  1.590990e+000
      vertex  1.000000e+000 -1.590990e+000  1.590990e+000
      vertex  1.000000e+000 -2.250000e+000  2.755364e-016
    endloop
  endfacet
  facet normal  0.000000e+000  9.238795e-001 -3.826834e-001
    outer loop
      vertex  0.000000e+000 -1.590990e+000  1.590990e+000
      vertex  1.000000e+000 -2.250000e+000  2.755364e-016
      vertex  0.000000e+000 -2.250000e+000  2.755364e-016
    endloop
  endfacet
  facet normal  0.000000e+000  3.826834e-001 -9.238795e-001
    outer loop
      vertex  1.000000e+000 -1.590990e+000  1.590990e+000
      vertex  0.000000e+000  1.377682e-016  2.250000e+000
      vertex  1.000000e+000  1.377682e-016  2.250000e+000
    endloop
  endfacet
  facet normal  -0.000000e+000 -3.826834e-001 -9.238795e-001
    outer loop
      vertex  1.000000e+000  1.377682e-016  2.250000e+000
      vertex  0.000000e+000  1.377682e-016  2.250000e+000
      vertex  0.000000e+000  1.590990e+000  1.590990e+000
    endloop
  endfacet
  facet normal  0.000000e+000 -3.826834e-001 -9.238795e-001
    outer loop
      vertex  1.000000e+000  1.377682e-016  2.250000e+000
      vertex  0.000000e+000  1.590990e+000  1.590990e+000
      vertex  1.000000e+000  1.590990e+000  1.590990e+000
    endloop
  endfacet
  facet normal  -0.000000e+000 -9.238795e-001 -3.826834e-001
    outer loop
      vertex  1.000000e+000  1.590990e+000  1.590990e+000
      vertex  0.000000e+000  1.590990e+000  1.590990e+000
      vertex  0.000000e+000  2.250000e+000  0.000000e+000
    endloop
  endfacet
  facet normal  0.000000e+000 -9.238795e-001 -3.826834e-001
    outer loop
      vertex  1.000000e+000  1.590990e+000  1.590990e+000
      vertex  0.000000e+000  2.250000e+000  0.000000e+000
      vertex  1.000000e+000  2.250000e+000  0.000000e+000
    endloop
  endfacet
  facet normal  0.000000e+000 -3.826834e-001  9.238795e-001
    outer loop
      vertex  0.000000e+000 -2.411706e-015 -2.250000e+000
      vertex  1.000000e+000  1.590990e+000 -1.590990e+000
      vertex  0.000000e+000  1.590990e+000 -1.590990e+000
    endloop
  endfacet
  facet normal  0.000000e+000 -9.238795e-001  3.826834e-001
    outer loop
      vertex  0.000000e+000  1.590990e+000 -1.590990e+000
      vertex  1.000000e+000  1.590990e+000 -1.590990e+000
      vertex  1.000000e+000  2.250000e+000  0.000000e+000
    endloop
  endfacet
  facet normal  0.000000e+000 -9.238795e-001  3.826834e-001
    outer loop
      vertex  0.000000e+000  1.590990e+000 -1.590990e+000
      vertex  1.000000e+000  2.250000e+000  0.000000e+000
      vertex  0.000000e+000  2.250000e+000  0.000000e+000
    endloop
  endfacet
  facet normal  0.000000e+000 -3.826834e-001  9.238795e-001
    outer loop
      vertex  1.000000e+000  1.590990e+000 -1.590990e+000
      vertex  0.000000e+000 -2.411706e-015 -2.250000e+000
      vertex  1.000000e+000 -2.411706e-015 -2.250000e+000
    endloop
  endfacet
  facet normal  0.000000e+000  3.826834e-001  9.238795e-001
    outer loop
      vertex  1.000000e+000 -2.411706e-015 -2.250000e+000
      vertex  0.000000e+000 -2.411706e-015 -2.250000e+000
      vertex  0.000000e+000 -1.590990e+000 -1.590990e+000
    endloop
  endfacet
  facet normal  -0.000000e+000  3.826834e-001  9.238795e-001
    outer loop
      vertex  1.000000e+000 -2.411706e-015 -2.250000e+000
      vertex  0.000000e+000 -1.590990e+000 -1.590990e+000
      vertex  1.000000e+000 -1.590990e+000 -1.590990e+000
    endloop
  endfacet
  facet normal  0.000000e+000  9.238795e-001  3.826834e-001
    outer loop
      vertex  1.000000e+000 -1.590990e+000 -1.590990e+000
      vertex  0.000000e+000 -1.590990e+000 -1.590990e+000
      vertex  0.000000e+000 -2.250000e+000  2.755364e-016
    endloop
  endfacet
  facet normal  -0.000000e+000  9.238795e-001  3.826834e-001
    outer loop
      vertex  1.000000e+000 -1.590990e+000 -1.590990e+000
      vertex  0.000000e+000 -2.250000e+000  2.755364e-016
      vertex  1.000000e+000 -2.250000e+000  2.755364e-016
    endloop
  endfacet
endsolid CATIA STL
