solid CATIA STL
  facet normal  1.000000e+000  0.000000e+000  0.000000e+000
    outer loop
      vertex  1.900000e+000  2.755364e-016  4.500000e+000
      vertex  1.900000e+000  4.543682e+000  5.697597e+000
      vertex  1.900000e+000  1.621621e+000  7.104787e+000
    endloop
  endfacet
  facet normal  1.000000e+000  0.000000e+000  0.000000e+000
    outer loop
      vertex  1.900000e+000 -1.621621e+000 -7.104787e+000
      vertex  1.900000e+000  1.621621e+000 -7.104787e+000
      vertex  1.900000e+000 -4.823412e-015 -4.500000e+000
    endloop
  endfacet
  facet normal  1.000000e+000  0.000000e+000  0.000000e+000
    outer loop
      vertex  1.900000e+000 -4.823412e-015 -4.500000e+000
      vertex  1.900000e+000  1.621621e+000 -7.104787e+000
      vertex  1.900000e+000  4.543682e+000 -5.697597e+000
    endloop
  endfacet
  facet normal  9.999999e-001  0.000000e+000  0.000000e+000
    outer loop
      vertex  1.900000e+000 -4.823412e-015 -4.500000e+000
      vertex  1.900000e+000  4.543682e+000 -5.697597e+000
      vertex  1.900000e+000  2.250000e+000 -3.897114e+000
    endloop
  endfacet
  facet normal  1.000000e+000  -0.000000e+000  0.000000e+000
    outer loop
      vertex  1.900000e+000  2.250000e+000 -3.897114e+000
      vertex  1.900000e+000  4.543682e+000 -5.697597e+000
      vertex  1.900000e+000  6.565811e+000 -3.161928e+000
    endloop
  endfacet
  facet normal  9.999999e-001  0.000000e+000  0.000000e+000
    outer loop
      vertex  1.900000e+000  2.250000e+000 -3.897114e+000
      vertex  1.900000e+000  6.565811e+000 -3.161928e+000
      vertex  1.900000e+000  3.897114e+000 -2.250000e+000
    endloop
  endfacet
  facet normal  1.000000e+000  -0.000000e+000  0.000000e+000
    outer loop
      vertex  1.900000e+000  1.621621e+000  7.104787e+000
      vertex  1.900000e+000 -1.621621e+000  7.104787e+000
      vertex  1.900000e+000  2.755364e-016  4.500000e+000
    endloop
  endfacet
  facet normal  1.000000e+000  0.000000e+000  0.000000e+000
    outer loop
      vertex  1.900000e+000  2.755364e-016  4.500000e+000
      vertex  1.900000e+000 -1.621621e+000  7.104787e+000
      vertex  1.900000e+000 -4.543682e+000  5.697597e+000
    endloop
  endfacet
  facet normal  9.999999e-001  0.000000e+000  0.000000e+000
    outer loop
      vertex  1.900000e+000  2.755364e-016  4.500000e+000
      vertex  1.900000e+000 -4.543682e+000  5.697597e+000
      vertex  1.900000e+000 -2.250000e+000  3.897114e+000
    endloop
  endfacet
  facet normal  1.000000e+000  0.000000e+000  0.000000e+000
    outer loop
      vertex  1.900000e+000 -2.250000e+000  3.897114e+000
      vertex  1.900000e+000 -4.543682e+000  5.697597e+000
      vertex  1.900000e+000 -6.565811e+000  3.161928e+000
    endloop
  endfacet
  facet normal  9.999999e-001  -0.000000e+000  0.000000e+000
    outer loop
      vertex  1.900000e+000 -2.250000e+000  3.897114e+000
      vertex  1.900000e+000 -6.565811e+000  3.161928e+000
      vertex  1.900000e+000 -3.897114e+000  2.250000e+000
    endloop
  endfacet
  facet normal  1.000000e+000  0.000000e+000  0.000000e+000
    outer loop
      vertex  1.900000e+000 -3.897114e+000  2.250000e+000
      vertex  1.900000e+000 -6.565811e+000  3.161928e+000
      vertex  1.900000e+000 -7.287500e+000  1.152758e-016
    endloop
  endfacet
  facet normal  1.000000e+000  0.000000e+000  0.000000e+000
    outer loop
      vertex  1.900000e+000 -3.897114e+000  2.250000e+000
      vertex  1.900000e+000 -7.287500e+000  1.152758e-016
      vertex  1.900000e+000 -4.500000e+000  5.510729e-016
    endloop
  endfacet
  facet normal  1.000000e+000  -0.000000e+000  0.000000e+000
    outer loop
      vertex  1.900000e+000 -4.500000e+000  5.510729e-016
      vertex  1.900000e+000 -7.287500e+000  1.152758e-016
      vertex  1.900000e+000 -3.897114e+000 -2.250000e+000
    endloop
  endfacet
  facet normal  1.000000e+000  0.000000e+000  0.000000e+000
    outer loop
      vertex  1.900000e+000 -3.897114e+000 -2.250000e+000
      vertex  1.900000e+000 -7.287500e+000  1.152758e-016
      vertex  1.900000e+000 -6.565811e+000 -3.161928e+000
    endloop
  endfacet
  facet normal  9.999999e-001  -0.000000e+000  0.000000e+000
    outer loop
      vertex  1.900000e+000 -3.897114e+000 -2.250000e+000
      vertex  1.900000e+000 -6.565811e+000 -3.161928e+000
      vertex  1.900000e+000 -2.250000e+000 -3.897114e+000
    endloop
  endfacet
  facet normal  1.000000e+000  0.000000e+000  0.000000e+000
    outer loop
      vertex  1.900000e+000 -2.250000e+000 -3.897114e+000
      vertex  1.900000e+000 -6.565811e+000 -3.161928e+000
      vertex  1.900000e+000 -4.823412e-015 -4.500000e+000
    endloop
  endfacet
  facet normal  9.999999e-001  0.000000e+000  0.000000e+000
    outer loop
      vertex  1.900000e+000 -4.823412e-015 -4.500000e+000
      vertex  1.900000e+000 -6.565811e+000 -3.161928e+000
      vertex  1.900000e+000 -4.543682e+000 -5.697597e+000
    endloop
  endfacet
  facet normal  1.000000e+000  -0.000000e+000  0.000000e+000
    outer loop
      vertex  1.900000e+000 -4.823412e-015 -4.500000e+000
      vertex  1.900000e+000 -4.543682e+000 -5.697597e+000
      vertex  1.900000e+000 -1.621621e+000 -7.104787e+000
    endloop
  endfacet
  facet normal  9.999999e-001  -0.000000e+000  0.000000e+000
    outer loop
      vertex  1.900000e+000  4.543682e+000  5.697597e+000
      vertex  1.900000e+000  2.755364e-016  4.500000e+000
      vertex  1.900000e+000  6.565811e+000  3.161928e+000
    endloop
  endfacet
  facet normal  1.000000e+000  0.000000e+000  0.000000e+000
    outer loop
      vertex  1.900000e+000  6.565811e+000  3.161928e+000
      vertex  1.900000e+000  2.755364e-016  4.500000e+000
      vertex  1.900000e+000  2.250000e+000  3.897114e+000
    endloop
  endfacet
  facet normal  9.999999e-001  0.000000e+000  0.000000e+000
    outer loop
      vertex  1.900000e+000  6.565811e+000  3.161928e+000
      vertex  1.900000e+000  2.250000e+000  3.897114e+000
      vertex  1.900000e+000  7.287500e+000 -1.784864e-015
    endloop
  endfacet
  facet normal  1.000000e+000  0.000000e+000  0.000000e+000
    outer loop
      vertex  1.900000e+000  7.287500e+000 -1.784864e-015
      vertex  1.900000e+000  2.250000e+000  3.897114e+000
      vertex  1.900000e+000  3.897114e+000  2.250000e+000
    endloop
  endfacet
  facet normal  1.000000e+000  0.000000e+000  0.000000e+000
    outer loop
      vertex  1.900000e+000  7.287500e+000 -1.784864e-015
      vertex  1.900000e+000  3.897114e+000  2.250000e+000
      vertex  1.900000e+000  4.500000e+000  0.000000e+000
    endloop
  endfacet
  facet normal  1.000000e+000  0.000000e+000  0.000000e+000
    outer loop
      vertex  1.900000e+000  3.897114e+000 -2.250000e+000
      vertex  1.900000e+000  6.565811e+000 -3.161928e+000
      vertex  1.900000e+000  4.500000e+000  0.000000e+000
    endloop
  endfacet
  facet normal  1.000000e+000  0.000000e+000  0.000000e+000
    outer loop
      vertex  1.900000e+000  4.500000e+000  0.000000e+000
      vertex  1.900000e+000  6.565811e+000 -3.161928e+000
      vertex  1.900000e+000  7.287500e+000 -1.784864e-015
    endloop
  endfacet
  facet normal -2.824652e-016  9.807853e-001 -1.950904e-001
    outer loop
      vertex  0.000000e+000  8.000000e+000  0.000000e+000
      vertex  1.353279e+000  8.000000e+000 -1.959370e-015
      vertex  0.000000e+000  7.391036e+000 -3.061467e+000
    endloop
  endfacet
  facet normal  0.000000e+000  9.807853e-001 -1.950904e-001
    outer loop
      vertex  0.000000e+000  7.391036e+000 -3.061467e+000
      vertex  1.353279e+000  8.000000e+000 -1.959370e-015
      vertex  1.353279e+000  7.391036e+000 -3.061467e+000
    endloop
  endfacet
  facet normal  0.000000e+000  8.314696e-001 -5.555702e-001
    outer loop
      vertex  0.000000e+000  7.391036e+000 -3.061467e+000
      vertex  1.353279e+000  7.391036e+000 -3.061467e+000
      vertex  0.000000e+000  5.656854e+000 -5.656854e+000
    endloop
  endfacet
  facet normal  0.000000e+000  8.314696e-001 -5.555702e-001
    outer loop
      vertex  0.000000e+000  5.656854e+000 -5.656854e+000
      vertex  1.353279e+000  7.391036e+000 -3.061467e+000
      vertex  1.353279e+000  5.656854e+000 -5.656854e+000
    endloop
  endfacet
  facet normal  0.000000e+000  5.555702e-001 -8.314696e-001
    outer loop
      vertex  0.000000e+000  5.656854e+000 -5.656854e+000
      vertex  1.353279e+000  5.656854e+000 -5.656854e+000
      vertex  0.000000e+000  3.061467e+000 -7.391036e+000
    endloop
  endfacet
  facet normal  0.000000e+000  5.555702e-001 -8.314696e-001
    outer loop
      vertex  0.000000e+000  3.061467e+000 -7.391036e+000
      vertex  1.353279e+000  5.656854e+000 -5.656854e+000
      vertex  1.353279e+000  3.061467e+000 -7.391036e+000
    endloop
  endfacet
  facet normal  0.000000e+000  1.950904e-001 -9.807853e-001
    outer loop
      vertex  0.000000e+000  3.061467e+000 -7.391036e+000
      vertex  1.353279e+000  3.061467e+000 -7.391036e+000
      vertex  0.000000e+000 -1.469528e-015 -8.000000e+000
    endloop
  endfacet
  facet normal  0.000000e+000  1.950904e-001 -9.807853e-001
    outer loop
      vertex  0.000000e+000 -1.469528e-015 -8.000000e+000
      vertex  1.353279e+000  3.061467e+000 -7.391036e+000
      vertex  1.353279e+000 -1.469528e-015 -8.000000e+000
    endloop
  endfacet
  facet normal  -0.000000e+000 -1.950904e-001 -9.807853e-001
    outer loop
      vertex  0.000000e+000 -1.469528e-015 -8.000000e+000
      vertex  1.353279e+000 -1.469528e-015 -8.000000e+000
      vertex  0.000000e+000 -3.061467e+000 -7.391036e+000
    endloop
  endfacet
  facet normal  0.000000e+000 -1.950904e-001 -9.807853e-001
    outer loop
      vertex  0.000000e+000 -3.061467e+000 -7.391036e+000
      vertex  1.353279e+000 -1.469528e-015 -8.000000e+000
      vertex  1.353279e+000 -3.061467e+000 -7.391036e+000
    endloop
  endfacet
  facet normal  -0.000000e+000 -5.555702e-001 -8.314696e-001
    outer loop
      vertex  0.000000e+000 -3.061467e+000 -7.391036e+000
      vertex  1.353279e+000 -3.061467e+000 -7.391036e+000
      vertex  0.000000e+000 -5.656854e+000 -5.656854e+000
    endloop
  endfacet
  facet normal  0.000000e+000 -5.555702e-001 -8.314696e-001
    outer loop
      vertex  0.000000e+000 -5.656854e+000 -5.656854e+000
      vertex  1.353279e+000 -3.061467e+000 -7.391036e+000
      vertex  1.353279e+000 -5.656854e+000 -5.656854e+000
    endloop
  endfacet
  facet normal  -0.000000e+000 -8.314696e-001 -5.555702e-001
    outer loop
      vertex  0.000000e+000 -5.656854e+000 -5.656854e+000
      vertex  1.353279e+000 -5.656854e+000 -5.656854e+000
      vertex  0.000000e+000 -7.391036e+000 -3.061467e+000
    endloop
  endfacet
  facet normal  0.000000e+000 -8.314696e-001 -5.555702e-001
    outer loop
      vertex  0.000000e+000 -7.391036e+000 -3.061467e+000
      vertex  1.353279e+000 -5.656854e+000 -5.656854e+000
      vertex  1.353279e+000 -7.391036e+000 -3.061467e+000
    endloop
  endfacet
  facet normal  -0.000000e+000 -9.807853e-001 -1.950904e-001
    outer loop
      vertex  0.000000e+000 -7.391036e+000 -3.061467e+000
      vertex  1.353279e+000 -7.391036e+000 -3.061467e+000
      vertex  0.000000e+000 -8.000000e+000  9.796851e-016
    endloop
  endfacet
  facet normal  0.000000e+000 -9.807853e-001 -1.950904e-001
    outer loop
      vertex  0.000000e+000 -8.000000e+000  9.796851e-016
      vertex  1.353279e+000 -7.391036e+000 -3.061467e+000
      vertex  1.353279e+000 -8.000000e+000  9.796851e-016
    endloop
  endfacet
  facet normal  0.000000e+000 -9.807853e-001  1.950904e-001
    outer loop
      vertex  0.000000e+000 -8.000000e+000  9.796851e-016
      vertex  1.353279e+000 -8.000000e+000  9.796851e-016
      vertex  0.000000e+000 -7.391036e+000  3.061467e+000
    endloop
  endfacet
  facet normal  0.000000e+000 -9.807853e-001  1.950904e-001
    outer loop
      vertex  0.000000e+000 -7.391036e+000  3.061467e+000
      vertex  1.353279e+000 -8.000000e+000  9.796851e-016
      vertex  1.353279e+000 -7.391036e+000  3.061467e+000
    endloop
  endfacet
  facet normal  0.000000e+000 -8.314696e-001  5.555702e-001
    outer loop
      vertex  0.000000e+000 -7.391036e+000  3.061467e+000
      vertex  1.353279e+000 -7.391036e+000  3.061467e+000
      vertex  0.000000e+000 -5.656854e+000  5.656854e+000
    endloop
  endfacet
  facet normal  0.000000e+000 -8.314696e-001  5.555702e-001
    outer loop
      vertex  0.000000e+000 -5.656854e+000  5.656854e+000
      vertex  1.353279e+000 -7.391036e+000  3.061467e+000
      vertex  1.353279e+000 -5.656854e+000  5.656854e+000
    endloop
  endfacet
  facet normal  0.000000e+000 -5.555702e-001  8.314696e-001
    outer loop
      vertex  0.000000e+000 -5.656854e+000  5.656854e+000
      vertex  1.353279e+000 -5.656854e+000  5.656854e+000
      vertex  0.000000e+000 -3.061467e+000  7.391036e+000
    endloop
  endfacet
  facet normal  0.000000e+000 -5.555702e-001  8.314696e-001
    outer loop
      vertex  0.000000e+000 -3.061467e+000  7.391036e+000
      vertex  1.353279e+000 -5.656854e+000  5.656854e+000
      vertex  1.353279e+000 -3.061467e+000  7.391036e+000
    endloop
  endfacet
  facet normal  0.000000e+000 -1.950904e-001  9.807853e-001
    outer loop
      vertex  0.000000e+000 -3.061467e+000  7.391036e+000
      vertex  1.353279e+000 -3.061467e+000  7.391036e+000
      vertex  0.000000e+000  4.898425e-016  8.000000e+000
    endloop
  endfacet
  facet normal  0.000000e+000 -1.950904e-001  9.807853e-001
    outer loop
      vertex  0.000000e+000  4.898425e-016  8.000000e+000
      vertex  1.353279e+000 -3.061467e+000  7.391036e+000
      vertex  1.353279e+000  4.898425e-016  8.000000e+000
    endloop
  endfacet
  facet normal  0.000000e+000  1.950904e-001  9.807853e-001
    outer loop
      vertex  0.000000e+000  4.898425e-016  8.000000e+000
      vertex  1.353279e+000  4.898425e-016  8.000000e+000
      vertex  0.000000e+000  3.061467e+000  7.391036e+000
    endloop
  endfacet
  facet normal  -0.000000e+000  1.950904e-001  9.807853e-001
    outer loop
      vertex  0.000000e+000  3.061467e+000  7.391036e+000
      vertex  1.353279e+000  4.898425e-016  8.000000e+000
      vertex  1.353279e+000  3.061467e+000  7.391036e+000
    endloop
  endfacet
  facet normal  0.000000e+000  5.555702e-001  8.314696e-001
    outer loop
      vertex  0.000000e+000  3.061467e+000  7.391036e+000
      vertex  1.353279e+000  3.061467e+000  7.391036e+000
      vertex  0.000000e+000  5.656854e+000  5.656854e+000
    endloop
  endfacet
  facet normal  -0.000000e+000  5.555702e-001  8.314696e-001
    outer loop
      vertex  0.000000e+000  5.656854e+000  5.656854e+000
      vertex  1.353279e+000  3.061467e+000  7.391036e+000
      vertex  1.353279e+000  5.656854e+000  5.656854e+000
    endloop
  endfacet
  facet normal  0.000000e+000  8.314696e-001  5.555702e-001
    outer loop
      vertex  0.000000e+000  5.656854e+000  5.656854e+000
      vertex  1.353279e+000  5.656854e+000  5.656854e+000
      vertex  0.000000e+000  7.391036e+000  3.061467e+000
    endloop
  endfacet
  facet normal  -0.000000e+000  8.314696e-001  5.555702e-001
    outer loop
      vertex  0.000000e+000  7.391036e+000  3.061467e+000
      vertex  1.353279e+000  5.656854e+000  5.656854e+000
      vertex  1.353279e+000  7.391036e+000  3.061467e+000
    endloop
  endfacet
  facet normal  0.000000e+000  9.807853e-001  1.950904e-001
    outer loop
      vertex  0.000000e+000  7.391036e+000  3.061467e+000
      vertex  1.353279e+000  7.391036e+000  3.061467e+000
      vertex  0.000000e+000  8.000000e+000  0.000000e+000
    endloop
  endfacet
  facet normal  2.824652e-016  9.807853e-001  1.950904e-001
    outer loop
      vertex  0.000000e+000  8.000000e+000  0.000000e+000
      vertex  1.353279e+000  7.391036e+000  3.061467e+000
      vertex  1.353279e+000  8.000000e+000 -1.959370e-015
    endloop
  endfacet
  facet normal  7.876002e-001  6.043468e-001 -1.202121e-001
    outer loop
      vertex  1.353279e+000  7.391036e+000 -3.061467e+000
      vertex  1.353279e+000  8.000000e+000 -1.959370e-015
      vertex  1.900000e+000  7.287500e+000 -1.784864e-015
    endloop
  endfacet
  facet normal  8.196285e-001  5.585317e-001 -1.274812e-001
    outer loop
      vertex  1.900000e+000  6.565811e+000 -3.161928e+000
      vertex  1.353279e+000  7.391036e+000 -3.061467e+000
      vertex  1.900000e+000  7.287500e+000 -1.784864e-015
    endloop
  endfacet
  facet normal  8.196285e-001 -5.585317e-001 -1.274812e-001
    outer loop
      vertex  1.353279e+000 -7.391036e+000 -3.061467e+000
      vertex  1.900000e+000 -6.565811e+000 -3.161928e+000
      vertex  1.900000e+000 -7.287500e+000  1.152758e-016
    endloop
  endfacet
  facet normal  7.876002e-001 -6.043468e-001 -1.202121e-001
    outer loop
      vertex  1.353279e+000 -8.000000e+000  9.796851e-016
      vertex  1.353279e+000 -7.391036e+000 -3.061467e+000
      vertex  1.900000e+000 -7.287500e+000  1.152758e-016
    endloop
  endfacet
  facet normal  7.554349e-001 -5.447986e-001 -3.640227e-001
    outer loop
      vertex  1.353279e+000 -7.391036e+000 -3.061467e+000
      vertex  1.353279e+000 -5.656854e+000 -5.656854e+000
      vertex  1.900000e+000 -6.565811e+000 -3.161928e+000
    endloop
  endfacet
  facet normal  7.303550e-001 -3.794921e-001 -5.679501e-001
    outer loop
      vertex  1.353279e+000 -5.656854e+000 -5.656854e+000
      vertex  1.353279e+000 -3.061467e+000 -7.391036e+000
      vertex  1.900000e+000 -4.543682e+000 -5.697597e+000
    endloop
  endfacet
  facet normal  8.395638e-001 -4.247386e-001 -3.387177e-001
    outer loop
      vertex  1.900000e+000 -6.565811e+000 -3.161928e+000
      vertex  1.353279e+000 -5.656854e+000 -5.656854e+000
      vertex  1.900000e+000 -4.543682e+000 -5.697597e+000
    endloop
  endfacet
  facet normal  7.165655e-001 -1.360794e-001 -6.841171e-001
    outer loop
      vertex  1.353279e+000 -3.061467e+000 -7.391036e+000
      vertex  1.353279e+000 -1.469528e-015 -8.000000e+000
      vertex  1.900000e+000 -1.621621e+000 -7.104787e+000
    endloop
  endfacet
  facet normal  8.501218e-001 -2.284771e-001 -4.744376e-001
    outer loop
      vertex  1.900000e+000 -4.543682e+000 -5.697597e+000
      vertex  1.353279e+000 -3.061467e+000 -7.391036e+000
      vertex  1.900000e+000 -1.621621e+000 -7.104787e+000
    endloop
  endfacet
  facet normal  7.165655e-001  1.360794e-001 -6.841171e-001
    outer loop
      vertex  1.353279e+000 -1.469528e-015 -8.000000e+000
      vertex  1.353279e+000  3.061467e+000 -7.391036e+000
      vertex  1.900000e+000  1.621621e+000 -7.104787e+000
    endloop
  endfacet
  facet normal  8.534319e-001  0.000000e+000 -5.212044e-001
    outer loop
      vertex  1.900000e+000 -1.621621e+000 -7.104787e+000
      vertex  1.353279e+000 -1.469528e-015 -8.000000e+000
      vertex  1.900000e+000  1.621621e+000 -7.104787e+000
    endloop
  endfacet
  facet normal  7.303550e-001  3.794921e-001 -5.679501e-001
    outer loop
      vertex  1.353279e+000  3.061467e+000 -7.391036e+000
      vertex  1.353279e+000  5.656854e+000 -5.656854e+000
      vertex  1.900000e+000  4.543682e+000 -5.697597e+000
    endloop
  endfacet
  facet normal  8.501218e-001  2.284771e-001 -4.744376e-001
    outer loop
      vertex  1.900000e+000  1.621621e+000 -7.104787e+000
      vertex  1.353279e+000  3.061467e+000 -7.391036e+000
      vertex  1.900000e+000  4.543682e+000 -5.697597e+000
    endloop
  endfacet
  facet normal  7.554349e-001  5.447986e-001 -3.640227e-001
    outer loop
      vertex  1.353279e+000  5.656854e+000 -5.656854e+000
      vertex  1.353279e+000  7.391036e+000 -3.061467e+000
      vertex  1.900000e+000  6.565811e+000 -3.161928e+000
    endloop
  endfacet
  facet normal  8.395638e-001  4.247386e-001 -3.387177e-001
    outer loop
      vertex  1.900000e+000  4.543682e+000 -5.697597e+000
      vertex  1.353279e+000  5.656854e+000 -5.656854e+000
      vertex  1.900000e+000  6.565811e+000 -3.161928e+000
    endloop
  endfacet
  facet normal  7.876002e-001 -6.043468e-001  1.202121e-001
    outer loop
      vertex  1.353279e+000 -7.391036e+000  3.061467e+000
      vertex  1.353279e+000 -8.000000e+000  9.796851e-016
      vertex  1.900000e+000 -7.287500e+000  1.152758e-016
    endloop
  endfacet
  facet normal  8.196285e-001 -5.585317e-001  1.274812e-001
    outer loop
      vertex  1.900000e+000 -6.565811e+000  3.161928e+000
      vertex  1.353279e+000 -7.391036e+000  3.061467e+000
      vertex  1.900000e+000 -7.287500e+000  1.152758e-016
    endloop
  endfacet
  facet normal  8.196285e-001  5.585317e-001  1.274812e-001
    outer loop
      vertex  1.353279e+000  7.391036e+000  3.061467e+000
      vertex  1.900000e+000  6.565811e+000  3.161928e+000
      vertex  1.900000e+000  7.287500e+000 -1.784864e-015
    endloop
  endfacet
  facet normal  7.876002e-001  6.043468e-001  1.202121e-001
    outer loop
      vertex  1.353279e+000  8.000000e+000 -1.959370e-015
      vertex  1.353279e+000  7.391036e+000  3.061467e+000
      vertex  1.900000e+000  7.287500e+000 -1.784864e-015
    endloop
  endfacet
  facet normal  7.554349e-001  5.447986e-001  3.640227e-001
    outer loop
      vertex  1.353279e+000  7.391036e+000  3.061467e+000
      vertex  1.353279e+000  5.656854e+000  5.656854e+000
      vertex  1.900000e+000  6.565811e+000  3.161928e+000
    endloop
  endfacet
  facet normal  7.303550e-001  3.794921e-001  5.679501e-001
    outer loop
      vertex  1.353279e+000  5.656854e+000  5.656854e+000
      vertex  1.353279e+000  3.061467e+000  7.391036e+000
      vertex  1.900000e+000  4.543682e+000  5.697597e+000
    endloop
  endfacet
  facet normal  8.395638e-001  4.247386e-001  3.387177e-001
    outer loop
      vertex  1.900000e+000  6.565811e+000  3.161928e+000
      vertex  1.353279e+000  5.656854e+000  5.656854e+000
      vertex  1.900000e+000  4.543682e+000  5.697597e+000
    endloop
  endfacet
  facet normal  7.165655e-001  1.360794e-001  6.841171e-001
    outer loop
      vertex  1.353279e+000  3.061467e+000  7.391036e+000
      vertex  1.353279e+000  4.898425e-016  8.000000e+000
      vertex  1.900000e+000  1.621621e+000  7.104787e+000
    endloop
  endfacet
  facet normal  8.501218e-001  2.284771e-001  4.744376e-001
    outer loop
      vertex  1.900000e+000  4.543682e+000  5.697597e+000
      vertex  1.353279e+000  3.061467e+000  7.391036e+000
      vertex  1.900000e+000  1.621621e+000  7.104787e+000
    endloop
  endfacet
  facet normal  7.165655e-001 -1.360794e-001  6.841171e-001
    outer loop
      vertex  1.353279e+000  4.898425e-016  8.000000e+000
      vertex  1.353279e+000 -3.061467e+000  7.391036e+000
      vertex  1.900000e+000 -1.621621e+000  7.104787e+000
    endloop
  endfacet
  facet normal  8.534319e-001  0.000000e+000  5.212044e-001
    outer loop
      vertex  1.900000e+000  1.621621e+000  7.104787e+000
      vertex  1.353279e+000  4.898425e-016  8.000000e+000
      vertex  1.900000e+000 -1.621621e+000  7.104787e+000
    endloop
  endfacet
  facet normal  7.303550e-001 -3.794921e-001  5.679501e-001
    outer loop
      vertex  1.353279e+000 -3.061467e+000  7.391036e+000
      vertex  1.353279e+000 -5.656854e+000  5.656854e+000
      vertex  1.900000e+000 -4.543682e+000  5.697597e+000
    endloop
  endfacet
  facet normal  8.501218e-001 -2.284771e-001  4.744376e-001
    outer loop
      vertex  1.900000e+000 -1.621621e+000  7.104787e+000
      vertex  1.353279e+000 -3.061467e+000  7.391036e+000
      vertex  1.900000e+000 -4.543682e+000  5.697597e+000
    endloop
  endfacet
  facet normal  7.554349e-001 -5.447986e-001  3.640227e-001
    outer loop
      vertex  1.353279e+000 -5.656854e+000  5.656854e+000
      vertex  1.353279e+000 -7.391036e+000  3.061467e+000
      vertex  1.900000e+000 -6.565811e+000  3.161928e+000
    endloop
  endfacet
  facet normal  8.395638e-001 -4.247386e-001  3.387177e-001
    outer loop
      vertex  1.900000e+000 -4.543682e+000  5.697597e+000
      vertex  1.353279e+000 -5.656854e+000  5.656854e+000
      vertex  1.900000e+000 -6.565811e+000  3.161928e+000
    endloop
  endfacet
  facet normal -1.000000e+000  0.000000e+000  0.000000e+000
    outer loop
      vertex  0.000000e+000  5.656854e+000  5.656854e+000
      vertex  0.000000e+000  2.755364e-016  4.500000e+000
      vertex  0.000000e+000  3.061467e+000  7.391036e+000
    endloop
  endfacet
  facet normal -9.999999e-001  -0.000000e+000  0.000000e+000
    outer loop
      vertex  0.000000e+000  3.061467e+000  7.391036e+000
      vertex  0.000000e+000  2.755364e-016  4.500000e+000
      vertex  0.000000e+000  4.898425e-016  8.000000e+000
    endloop
  endfacet
  facet normal -1.000000e+000  0.000000e+000  0.000000e+000
    outer loop
      vertex  0.000000e+000  2.755364e-016  4.500000e+000
      vertex  0.000000e+000 -5.656854e+000  5.656854e+000
      vertex  0.000000e+000  4.898425e-016  8.000000e+000
    endloop
  endfacet
  facet normal -1.000000e+000  0.000000e+000  0.000000e+000
    outer loop
      vertex  0.000000e+000  4.898425e-016  8.000000e+000
      vertex  0.000000e+000 -5.656854e+000  5.656854e+000
      vertex  0.000000e+000 -3.061467e+000  7.391036e+000
    endloop
  endfacet
  facet normal -1.000000e+000  0.000000e+000  0.000000e+000
    outer loop
      vertex  0.000000e+000 -3.897114e+000  2.250000e+000
      vertex  0.000000e+000 -7.391036e+000  3.061467e+000
      vertex  0.000000e+000 -2.250000e+000  3.897114e+000
    endloop
  endfacet
  facet normal -1.000000e+000  -0.000000e+000  0.000000e+000
    outer loop
      vertex  0.000000e+000 -2.250000e+000  3.897114e+000
      vertex  0.000000e+000 -7.391036e+000  3.061467e+000
      vertex  0.000000e+000 -5.656854e+000  5.656854e+000
    endloop
  endfacet
  facet normal -1.000000e+000  0.000000e+000  0.000000e+000
    outer loop
      vertex  0.000000e+000 -2.250000e+000  3.897114e+000
      vertex  0.000000e+000 -5.656854e+000  5.656854e+000
      vertex  0.000000e+000  2.755364e-016  4.500000e+000
    endloop
  endfacet
  facet normal -1.000000e+000  0.000000e+000  0.000000e+000
    outer loop
      vertex  0.000000e+000 -4.823412e-015 -4.500000e+000
      vertex  0.000000e+000 -5.656854e+000 -5.656854e+000
      vertex  0.000000e+000 -2.250000e+000 -3.897114e+000
    endloop
  endfacet
  facet normal -1.000000e+000  -0.000000e+000  0.000000e+000
    outer loop
      vertex  0.000000e+000 -2.250000e+000 -3.897114e+000
      vertex  0.000000e+000 -5.656854e+000 -5.656854e+000
      vertex  0.000000e+000 -7.391036e+000 -3.061467e+000
    endloop
  endfacet
  facet normal -1.000000e+000  0.000000e+000  0.000000e+000
    outer loop
      vertex  0.000000e+000 -2.250000e+000 -3.897114e+000
      vertex  0.000000e+000 -7.391036e+000 -3.061467e+000
      vertex  0.000000e+000 -3.897114e+000 -2.250000e+000
    endloop
  endfacet
  facet normal -1.000000e+000  -0.000000e+000  0.000000e+000
    outer loop
      vertex  0.000000e+000 -3.897114e+000 -2.250000e+000
      vertex  0.000000e+000 -7.391036e+000 -3.061467e+000
      vertex  0.000000e+000 -8.000000e+000  9.796851e-016
    endloop
  endfacet
  facet normal -1.000000e+000  0.000000e+000  0.000000e+000
    outer loop
      vertex  0.000000e+000 -3.897114e+000 -2.250000e+000
      vertex  0.000000e+000 -8.000000e+000  9.796851e-016
      vertex  0.000000e+000 -4.500000e+000  5.510729e-016
    endloop
  endfacet
  facet normal -9.999999e-001  0.000000e+000  0.000000e+000
    outer loop
      vertex  0.000000e+000 -4.500000e+000  5.510729e-016
      vertex  0.000000e+000 -8.000000e+000  9.796851e-016
      vertex  0.000000e+000 -7.391036e+000  3.061467e+000
    endloop
  endfacet
  facet normal -1.000000e+000  0.000000e+000  0.000000e+000
    outer loop
      vertex  0.000000e+000 -4.500000e+000  5.510729e-016
      vertex  0.000000e+000 -7.391036e+000  3.061467e+000
      vertex  0.000000e+000 -3.897114e+000  2.250000e+000
    endloop
  endfacet
  facet normal -1.000000e+000  0.000000e+000  0.000000e+000
    outer loop
      vertex  0.000000e+000  3.061467e+000 -7.391036e+000
      vertex  0.000000e+000 -1.469528e-015 -8.000000e+000
      vertex  0.000000e+000  5.656854e+000 -5.656854e+000
    endloop
  endfacet
  facet normal -1.000000e+000  -0.000000e+000  0.000000e+000
    outer loop
      vertex  0.000000e+000  5.656854e+000 -5.656854e+000
      vertex  0.000000e+000 -1.469528e-015 -8.000000e+000
      vertex  0.000000e+000 -4.823412e-015 -4.500000e+000
    endloop
  endfacet
  facet normal -9.999999e-001  0.000000e+000  0.000000e+000
    outer loop
      vertex  0.000000e+000 -1.469528e-015 -8.000000e+000
      vertex  0.000000e+000 -3.061467e+000 -7.391036e+000
      vertex  0.000000e+000 -4.823412e-015 -4.500000e+000
    endloop
  endfacet
  facet normal -1.000000e+000  0.000000e+000  0.000000e+000
    outer loop
      vertex  0.000000e+000 -4.823412e-015 -4.500000e+000
      vertex  0.000000e+000 -3.061467e+000 -7.391036e+000
      vertex  0.000000e+000 -5.656854e+000 -5.656854e+000
    endloop
  endfacet
  facet normal -1.000000e+000  0.000000e+000  0.000000e+000
    outer loop
      vertex  0.000000e+000  3.897114e+000  2.250000e+000
      vertex  0.000000e+000  2.250000e+000  3.897114e+000
      vertex  0.000000e+000  7.391036e+000  3.061467e+000
    endloop
  endfacet
  facet normal -1.000000e+000  0.000000e+000  0.000000e+000
    outer loop
      vertex  0.000000e+000  7.391036e+000  3.061467e+000
      vertex  0.000000e+000  2.250000e+000  3.897114e+000
      vertex  0.000000e+000  2.755364e-016  4.500000e+000
    endloop
  endfacet
  facet normal -1.000000e+000  0.000000e+000  0.000000e+000
    outer loop
      vertex  0.000000e+000  7.391036e+000  3.061467e+000
      vertex  0.000000e+000  2.755364e-016  4.500000e+000
      vertex  0.000000e+000  5.656854e+000  5.656854e+000
    endloop
  endfacet
  facet normal -1.000000e+000  0.000000e+000  -0.000000e+000
    outer loop
      vertex  0.000000e+000 -4.823412e-015 -4.500000e+000
      vertex  0.000000e+000  2.250000e+000 -3.897114e+000
      vertex  0.000000e+000  5.656854e+000 -5.656854e+000
    endloop
  endfacet
  facet normal -1.000000e+000  0.000000e+000  0.000000e+000
    outer loop
      vertex  0.000000e+000  5.656854e+000 -5.656854e+000
      vertex  0.000000e+000  2.250000e+000 -3.897114e+000
      vertex  0.000000e+000  3.897114e+000 -2.250000e+000
    endloop
  endfacet
  facet normal -1.000000e+000  0.000000e+000  0.000000e+000
    outer loop
      vertex  0.000000e+000  5.656854e+000 -5.656854e+000
      vertex  0.000000e+000  3.897114e+000 -2.250000e+000
      vertex  0.000000e+000  7.391036e+000 -3.061467e+000
    endloop
  endfacet
  facet normal -1.000000e+000  0.000000e+000  0.000000e+000
    outer loop
      vertex  0.000000e+000  7.391036e+000 -3.061467e+000
      vertex  0.000000e+000  3.897114e+000 -2.250000e+000
      vertex  0.000000e+000  4.500000e+000  0.000000e+000
    endloop
  endfacet
  facet normal -9.999999e-001  0.000000e+000  0.000000e+000
    outer loop
      vertex  0.000000e+000  7.391036e+000 -3.061467e+000
      vertex  0.000000e+000  4.500000e+000  0.000000e+000
      vertex  0.000000e+000  8.000000e+000  0.000000e+000
    endloop
  endfacet
  facet normal -1.000000e+000  0.000000e+000  0.000000e+000
    outer loop
      vertex  0.000000e+000  8.000000e+000  0.000000e+000
      vertex  0.000000e+000  4.500000e+000  0.000000e+000
      vertex  0.000000e+000  3.897114e+000  2.250000e+000
    endloop
  endfacet
  facet normal -1.000000e+000  0.000000e+000  0.000000e+000
    outer loop
      vertex  0.000000e+000  8.000000e+000  0.000000e+000
      vertex  0.000000e+000  3.897114e+000  2.250000e+000
      vertex  0.000000e+000  7.391036e+000  3.061467e+000
    endloop
  endfacet
  facet normal  0.000000e+000  2.588190e-001 -9.659258e-001
    outer loop
      vertex  0.000000e+000  2.755364e-016  4.500000e+000
      vertex  1.900000e+000 -2.250000e+000  3.897114e+000
      vertex  0.000000e+000 -2.250000e+000  3.897114e+000
    endloop
  endfacet
  facet normal  0.000000e+000  7.071068e-001 -7.071068e-001
    outer loop
      vertex  0.000000e+000 -2.250000e+000  3.897114e+000
      vertex  1.900000e+000 -2.250000e+000  3.897114e+000
      vertex  1.900000e+000 -3.897114e+000  2.250000e+000
    endloop
  endfacet
  facet normal  0.000000e+000  7.071068e-001 -7.071068e-001
    outer loop
      vertex  0.000000e+000 -2.250000e+000  3.897114e+000
      vertex  1.900000e+000 -3.897114e+000  2.250000e+000
      vertex  0.000000e+000 -3.897114e+000  2.250000e+000
    endloop
  endfacet
  facet normal  0.000000e+000  9.659258e-001 -2.588190e-001
    outer loop
      vertex  0.000000e+000 -3.897114e+000  2.250000e+000
      vertex  1.900000e+000 -3.897114e+000  2.250000e+000
      vertex  1.900000e+000 -4.500000e+000  5.510729e-016
    endloop
  endfacet
  facet normal  0.000000e+000  9.659258e-001 -2.588190e-001
    outer loop
      vertex  0.000000e+000 -3.897114e+000  2.250000e+000
      vertex  1.900000e+000 -4.500000e+000  5.510729e-016
      vertex  0.000000e+000 -4.500000e+000  5.510729e-016
    endloop
  endfacet
  facet normal  0.000000e+000  2.588190e-001 -9.659258e-001
    outer loop
      vertex  1.900000e+000 -2.250000e+000  3.897114e+000
      vertex  0.000000e+000  2.755364e-016  4.500000e+000
      vertex  1.900000e+000  2.755364e-016  4.500000e+000
    endloop
  endfacet
  facet normal  -0.000000e+000 -2.588190e-001 -9.659258e-001
    outer loop
      vertex  1.900000e+000  2.755364e-016  4.500000e+000
      vertex  0.000000e+000  2.755364e-016  4.500000e+000
      vertex  0.000000e+000  2.250000e+000  3.897114e+000
    endloop
  endfacet
  facet normal  0.000000e+000 -2.588190e-001 -9.659258e-001
    outer loop
      vertex  1.900000e+000  2.755364e-016  4.500000e+000
      vertex  0.000000e+000  2.250000e+000  3.897114e+000
      vertex  1.900000e+000  2.250000e+000  3.897114e+000
    endloop
  endfacet
  facet normal  -0.000000e+000 -7.071068e-001 -7.071068e-001
    outer loop
      vertex  1.900000e+000  2.250000e+000  3.897114e+000
      vertex  0.000000e+000  2.250000e+000  3.897114e+000
      vertex  0.000000e+000  3.897114e+000  2.250000e+000
    endloop
  endfacet
  facet normal  0.000000e+000 -7.071068e-001 -7.071068e-001
    outer loop
      vertex  1.900000e+000  2.250000e+000  3.897114e+000
      vertex  0.000000e+000  3.897114e+000  2.250000e+000
      vertex  1.900000e+000  3.897114e+000  2.250000e+000
    endloop
  endfacet
  facet normal  -0.000000e+000 -9.659258e-001 -2.588190e-001
    outer loop
      vertex  1.900000e+000  3.897114e+000  2.250000e+000
      vertex  0.000000e+000  3.897114e+000  2.250000e+000
      vertex  0.000000e+000  4.500000e+000  0.000000e+000
    endloop
  endfacet
  facet normal  0.000000e+000 -9.659258e-001 -2.588190e-001
    outer loop
      vertex  1.900000e+000  3.897114e+000  2.250000e+000
      vertex  0.000000e+000  4.500000e+000  0.000000e+000
      vertex  1.900000e+000  4.500000e+000  0.000000e+000
    endloop
  endfacet
  facet normal  0.000000e+000 -2.588190e-001  9.659258e-001
    outer loop
      vertex  0.000000e+000 -4.823412e-015 -4.500000e+000
      vertex  1.900000e+000  2.250000e+000 -3.897114e+000
      vertex  0.000000e+000  2.250000e+000 -3.897114e+000
    endloop
  endfacet
  facet normal  0.000000e+000 -7.071068e-001  7.071068e-001
    outer loop
      vertex  0.000000e+000  2.250000e+000 -3.897114e+000
      vertex  1.900000e+000  2.250000e+000 -3.897114e+000
      vertex  1.900000e+000  3.897114e+000 -2.250000e+000
    endloop
  endfacet
  facet normal  0.000000e+000 -7.071068e-001  7.071068e-001
    outer loop
      vertex  0.000000e+000  2.250000e+000 -3.897114e+000
      vertex  1.900000e+000  3.897114e+000 -2.250000e+000
      vertex  0.000000e+000  3.897114e+000 -2.250000e+000
    endloop
  endfacet
  facet normal  0.000000e+000 -9.659258e-001  2.588190e-001
    outer loop
      vertex  0.000000e+000  3.897114e+000 -2.250000e+000
      vertex  1.900000e+000  3.897114e+000 -2.250000e+000
      vertex  1.900000e+000  4.500000e+000  0.000000e+000
    endloop
  endfacet
  facet normal  0.000000e+000 -9.659258e-001  2.588190e-001
    outer loop
      vertex  0.000000e+000  3.897114e+000 -2.250000e+000
      vertex  1.900000e+000  4.500000e+000  0.000000e+000
      vertex  0.000000e+000  4.500000e+000  0.000000e+000
    endloop
  endfacet
  facet normal  0.000000e+000 -2.588190e-001  9.659258e-001
    outer loop
      vertex  1.900000e+000  2.250000e+000 -3.897114e+000
      vertex  0.000000e+000 -4.823412e-015 -4.500000e+000
      vertex  1.900000e+000 -4.823412e-015 -4.500000e+000
    endloop
  endfacet
  facet normal  0.000000e+000  2.588190e-001  9.659258e-001
    outer loop
      vertex  1.900000e+000 -4.823412e-015 -4.500000e+000
      vertex  0.000000e+000 -4.823412e-015 -4.500000e+000
      vertex  0.000000e+000 -2.250000e+000 -3.897114e+000
    endloop
  endfacet
  facet normal  -0.000000e+000  2.588190e-001  9.659258e-001
    outer loop
      vertex  1.900000e+000 -4.823412e-015 -4.500000e+000
      vertex  0.000000e+000 -2.250000e+000 -3.897114e+000
      vertex  1.900000e+000 -2.250000e+000 -3.897114e+000
    endloop
  endfacet
  facet normal  0.000000e+000  7.071068e-001  7.071068e-001
    outer loop
      vertex  1.900000e+000 -2.250000e+000 -3.897114e+000
      vertex  0.000000e+000 -2.250000e+000 -3.897114e+000
      vertex  0.000000e+000 -3.897114e+000 -2.250000e+000
    endloop
  endfacet
  facet normal  -0.000000e+000  7.071068e-001  7.071068e-001
    outer loop
      vertex  1.900000e+000 -2.250000e+000 -3.897114e+000
      vertex  0.000000e+000 -3.897114e+000 -2.250000e+000
      vertex  1.900000e+000 -3.897114e+000 -2.250000e+000
    endloop
  endfacet
  facet normal  0.000000e+000  9.659258e-001  2.588190e-001
    outer loop
      vertex  1.900000e+000 -3.897114e+000 -2.250000e+000
      vertex  0.000000e+000 -3.897114e+000 -2.250000e+000
      vertex  0.000000e+000 -4.500000e+000  5.510729e-016
    endloop
  endfacet
  facet normal  -0.000000e+000  9.659258e-001  2.588190e-001
    outer loop
      vertex  1.900000e+000 -3.897114e+000 -2.250000e+000
      vertex  0.000000e+000 -4.500000e+000  5.510729e-016
      vertex  1.900000e+000 -4.500000e+000  5.510729e-016
    endloop
  endfacet
endsolid CATIA STL
