solid CATIA STL
  facet normal  0.000000e+000  1.000000e+000  0.000000e+000
    outer loop
      vertex  5.831763e+000  3.000000e+000 -3.871763e+000
      vertex -1.333647e+001  3.000000e+000 -3.274353e+001
      vertex -1.155033e+001  3.000000e+000 -2.888668e+001
    endloop
  endfacet
  facet normal  0.000000e+000  1.000000e+000  0.000000e+000
    outer loop
      vertex  5.831763e+000  3.000000e+000 -3.871763e+000
      vertex -1.155033e+001  3.000000e+000 -2.888668e+001
      vertex -1.100385e+001  3.000000e+000 -2.467160e+001
    endloop
  endfacet
  facet normal  0.000000e+000  1.000000e+000  0.000000e+000
    outer loop
      vertex  5.831763e+000  3.000000e+000 -3.871763e+000
      vertex -1.100385e+001  3.000000e+000 -2.467160e+001
      vertex -9.579527e-001  3.000000e+000 -2.948275e+000
    endloop
  endfacet
  facet normal  -0.000000e+000  9.999999e-001  0.000000e+000
    outer loop
      vertex  5.831763e+000  3.000000e+000 -3.871763e+000
      vertex -9.579527e-001  3.000000e+000 -2.948275e+000
      vertex  9.579527e-001  3.000000e+000 -2.948275e+000
    endloop
  endfacet
  facet normal  -0.000000e+000  1.000000e+000  0.000000e+000
    outer loop
      vertex  5.831763e+000  3.000000e+000 -3.871763e+000
      vertex  9.579527e-001  3.000000e+000 -2.948275e+000
      vertex  2.507953e+000  3.000000e+000 -1.822134e+000
    endloop
  endfacet
  facet normal  -0.000000e+000  1.000000e+000  0.000000e+000
    outer loop
      vertex  5.831763e+000  3.000000e+000 -3.871763e+000
      vertex  2.507953e+000  3.000000e+000 -1.822134e+000
      vertex  3.100000e+000  3.000000e+000  3.796280e-016
    endloop
  endfacet
  facet normal  0.000000e+000  1.000000e+000  0.000000e+000
    outer loop
      vertex  5.831763e+000  3.000000e+000 -3.871763e+000
      vertex  3.100000e+000  3.000000e+000  3.796280e-016
      vertex  6.941902e+000  3.000000e+000 -8.999991e-001
    endloop
  endfacet
  facet normal  0.000000e+000  1.000000e+000  -0.000000e+000
    outer loop
      vertex -9.579527e-001  3.000000e+000 -2.948275e+000
      vertex -1.100385e+001  3.000000e+000 -2.467160e+001
      vertex -1.174742e+001  3.000000e+000 -2.048678e+001
    endloop
  endfacet
  facet normal  0.000000e+000  1.000000e+000  -0.000000e+000
    outer loop
      vertex -9.579527e-001  3.000000e+000 -2.948275e+000
      vertex -1.174742e+001  3.000000e+000 -2.048678e+001
      vertex -1.371250e+001  3.000000e+000 -1.671795e+001
    endloop
  endfacet
  facet normal  0.000000e+000  1.000000e+000  -0.000000e+000
    outer loop
      vertex -9.579527e-001  3.000000e+000 -2.948275e+000
      vertex -1.371250e+001  3.000000e+000 -1.671795e+001
      vertex -1.671795e+001  3.000000e+000 -1.371250e+001
    endloop
  endfacet
  facet normal  0.000000e+000  1.000000e+000  -0.000000e+000
    outer loop
      vertex -9.579527e-001  3.000000e+000 -2.948275e+000
      vertex -1.671795e+001  3.000000e+000 -1.371250e+001
      vertex -2.048678e+001  3.000000e+000 -1.174742e+001
    endloop
  endfacet
  facet normal  0.000000e+000  1.000000e+000  -0.000000e+000
    outer loop
      vertex -9.579527e-001  3.000000e+000 -2.948275e+000
      vertex -2.048678e+001  3.000000e+000 -1.174742e+001
      vertex -2.467160e+001  3.000000e+000 -1.100385e+001
    endloop
  endfacet
  facet normal  0.000000e+000  1.000000e+000  -0.000000e+000
    outer loop
      vertex -9.579527e-001  3.000000e+000 -2.948275e+000
      vertex -2.467160e+001  3.000000e+000 -1.100385e+001
      vertex -2.888668e+001  3.000000e+000 -1.155033e+001
    endloop
  endfacet
  facet normal  0.000000e+000  1.000000e+000  0.000000e+000
    outer loop
      vertex -2.888668e+001  3.000000e+000 -1.155033e+001
      vertex -3.274353e+001  3.000000e+000 -1.333647e+001
      vertex -2.507953e+000  3.000000e+000  1.822134e+000
    endloop
  endfacet
  facet normal  0.000000e+000  1.000000e+000  0.000000e+000
    outer loop
      vertex -2.888668e+001  3.000000e+000 -1.155033e+001
      vertex -2.507953e+000  3.000000e+000  1.822134e+000
      vertex -3.100000e+000  3.000000e+000  0.000000e+000
    endloop
  endfacet
  facet normal  0.000000e+000  1.000000e+000  0.000000e+000
    outer loop
      vertex -2.888668e+001  3.000000e+000 -1.155033e+001
      vertex -3.100000e+000  3.000000e+000  0.000000e+000
      vertex -2.507953e+000  3.000000e+000 -1.822134e+000
    endloop
  endfacet
  facet normal  0.000000e+000  1.000000e+000  0.000000e+000
    outer loop
      vertex -2.888668e+001  3.000000e+000 -1.155033e+001
      vertex -2.507953e+000  3.000000e+000 -1.822134e+000
      vertex -9.579527e-001  3.000000e+000 -2.948275e+000
    endloop
  endfacet
  facet normal  0.000000e+000  1.000000e+000  0.000000e+000
    outer loop
      vertex -2.507953e+000  3.000000e+000  1.822134e+000
      vertex -3.274353e+001  3.000000e+000 -1.333647e+001
      vertex -9.579527e-001  3.000000e+000  2.948275e+000
    endloop
  endfacet
  facet normal  0.000000e+000  1.000000e+000  0.000000e+000
    outer loop
      vertex -9.579527e-001  3.000000e+000  2.948275e+000
      vertex -3.274353e+001  3.000000e+000 -1.333647e+001
      vertex -3.871763e+000  3.000000e+000  5.831763e+000
    endloop
  endfacet
  facet normal  0.000000e+000  1.000000e+000  0.000000e+000
    outer loop
      vertex -9.579527e-001  3.000000e+000  2.948275e+000
      vertex -3.871763e+000  3.000000e+000  5.831763e+000
      vertex  9.579527e-001  3.000000e+000  2.948275e+000
    endloop
  endfacet
  facet normal  0.000000e+000  1.000000e+000  0.000000e+000
    outer loop
      vertex  9.579527e-001  3.000000e+000  2.948275e+000
      vertex -3.871763e+000  3.000000e+000  5.831763e+000
      vertex -8.999991e-001  3.000000e+000  6.941902e+000
    endloop
  endfacet
  facet normal  0.000000e+000  1.000000e+000  0.000000e+000
    outer loop
      vertex  9.579527e-001  3.000000e+000  2.948275e+000
      vertex -8.999991e-001  3.000000e+000  6.941902e+000
      vertex  4.949748e+000  3.000000e+000  4.949748e+000
    endloop
  endfacet
  facet normal  0.000000e+000  1.000000e+000  0.000000e+000
    outer loop
      vertex  4.949748e+000  3.000000e+000  4.949748e+000
      vertex -8.999991e-001  3.000000e+000  6.941902e+000
      vertex  2.256609e+000  3.000000e+000  6.626290e+000
    endloop
  endfacet
  facet normal  -0.000000e+000  1.000000e+000  0.000000e+000
    outer loop
      vertex  6.941902e+000  3.000000e+000 -8.999991e-001
      vertex  3.100000e+000  3.000000e+000  3.796280e-016
      vertex  6.626290e+000  3.000000e+000  2.256609e+000
    endloop
  endfacet
  facet normal  0.000000e+000  9.999999e-001  0.000000e+000
    outer loop
      vertex  6.626290e+000  3.000000e+000  2.256609e+000
      vertex  3.100000e+000  3.000000e+000  3.796280e-016
      vertex  2.507953e+000  3.000000e+000  1.822134e+000
    endloop
  endfacet
  facet normal  0.000000e+000  1.000000e+000  0.000000e+000
    outer loop
      vertex  6.626290e+000  3.000000e+000  2.256609e+000
      vertex  2.507953e+000  3.000000e+000  1.822134e+000
      vertex  4.949748e+000  3.000000e+000  4.949748e+000
    endloop
  endfacet
  facet normal  0.000000e+000  1.000000e+000  0.000000e+000
    outer loop
      vertex  4.949748e+000  3.000000e+000  4.949748e+000
      vertex  2.507953e+000  3.000000e+000  1.822134e+000
      vertex  9.579527e-001  3.000000e+000  2.948275e+000
    endloop
  endfacet
  facet normal  -0.000000e+000 -1.000000e+000  0.000000e+000
    outer loop
      vertex  5.831763e+000  0.000000e+000 -3.871763e+000
      vertex  6.941902e+000  0.000000e+000 -8.999991e-001
      vertex  3.100000e+000  0.000000e+000  3.796280e-016
    endloop
  endfacet
  facet normal  0.000000e+000 -1.000000e+000  -0.000000e+000
    outer loop
      vertex  5.831763e+000  0.000000e+000 -3.871763e+000
      vertex  3.100000e+000  0.000000e+000  3.796280e-016
      vertex  2.507953e+000  0.000000e+000 -1.822134e+000
    endloop
  endfacet
  facet normal  0.000000e+000 -1.000000e+000  -0.000000e+000
    outer loop
      vertex  5.831763e+000  0.000000e+000 -3.871763e+000
      vertex  2.507953e+000  0.000000e+000 -1.822134e+000
      vertex  9.579527e-001  0.000000e+000 -2.948275e+000
    endloop
  endfacet
  facet normal  -0.000000e+000 -9.999999e-001  -0.000000e+000
    outer loop
      vertex  5.831763e+000  0.000000e+000 -3.871763e+000
      vertex  9.579527e-001  0.000000e+000 -2.948275e+000
      vertex -9.579527e-001  0.000000e+000 -2.948275e+000
    endloop
  endfacet
  facet normal  0.000000e+000 -1.000000e+000  -0.000000e+000
    outer loop
      vertex  5.831763e+000  0.000000e+000 -3.871763e+000
      vertex -9.579527e-001  0.000000e+000 -2.948275e+000
      vertex -1.100385e+001  0.000000e+000 -2.467160e+001
    endloop
  endfacet
  facet normal  0.000000e+000 -1.000000e+000  -0.000000e+000
    outer loop
      vertex  5.831763e+000  0.000000e+000 -3.871763e+000
      vertex -1.100385e+001  0.000000e+000 -2.467160e+001
      vertex -1.155033e+001  0.000000e+000 -2.888668e+001
    endloop
  endfacet
  facet normal  0.000000e+000 -1.000000e+000  -0.000000e+000
    outer loop
      vertex  5.831763e+000  0.000000e+000 -3.871763e+000
      vertex -1.155033e+001  0.000000e+000 -2.888668e+001
      vertex -1.333647e+001  0.000000e+000 -3.274353e+001
    endloop
  endfacet
  facet normal  0.000000e+000 -1.000000e+000  0.000000e+000
    outer loop
      vertex -9.579527e-001  0.000000e+000 -2.948275e+000
      vertex -2.888668e+001  0.000000e+000 -1.155033e+001
      vertex -2.467160e+001  0.000000e+000 -1.100385e+001
    endloop
  endfacet
  facet normal  0.000000e+000 -1.000000e+000  0.000000e+000
    outer loop
      vertex -9.579527e-001  0.000000e+000 -2.948275e+000
      vertex -2.467160e+001  0.000000e+000 -1.100385e+001
      vertex -2.048678e+001  0.000000e+000 -1.174742e+001
    endloop
  endfacet
  facet normal  0.000000e+000 -1.000000e+000  0.000000e+000
    outer loop
      vertex -9.579527e-001  0.000000e+000 -2.948275e+000
      vertex -2.048678e+001  0.000000e+000 -1.174742e+001
      vertex -1.671795e+001  0.000000e+000 -1.371250e+001
    endloop
  endfacet
  facet normal  0.000000e+000 -1.000000e+000  0.000000e+000
    outer loop
      vertex -9.579527e-001  0.000000e+000 -2.948275e+000
      vertex -1.671795e+001  0.000000e+000 -1.371250e+001
      vertex -1.371250e+001  0.000000e+000 -1.671795e+001
    endloop
  endfacet
  facet normal  0.000000e+000 -1.000000e+000  0.000000e+000
    outer loop
      vertex -9.579527e-001  0.000000e+000 -2.948275e+000
      vertex -1.371250e+001  0.000000e+000 -1.671795e+001
      vertex -1.174742e+001  0.000000e+000 -2.048678e+001
    endloop
  endfacet
  facet normal  0.000000e+000 -1.000000e+000  0.000000e+000
    outer loop
      vertex -9.579527e-001  0.000000e+000 -2.948275e+000
      vertex -1.174742e+001  0.000000e+000 -2.048678e+001
      vertex -1.100385e+001  0.000000e+000 -2.467160e+001
    endloop
  endfacet
  facet normal  -0.000000e+000 -1.000000e+000  0.000000e+000
    outer loop
      vertex -2.888668e+001  0.000000e+000 -1.155033e+001
      vertex -9.579527e-001  0.000000e+000 -2.948275e+000
      vertex -2.507953e+000  0.000000e+000 -1.822134e+000
    endloop
  endfacet
  facet normal  -0.000000e+000 -1.000000e+000  0.000000e+000
    outer loop
      vertex -2.888668e+001  0.000000e+000 -1.155033e+001
      vertex -2.507953e+000  0.000000e+000 -1.822134e+000
      vertex -3.100000e+000  0.000000e+000  0.000000e+000
    endloop
  endfacet
  facet normal  -0.000000e+000 -1.000000e+000  0.000000e+000
    outer loop
      vertex -2.888668e+001  0.000000e+000 -1.155033e+001
      vertex -3.100000e+000  0.000000e+000  0.000000e+000
      vertex -2.507953e+000  0.000000e+000  1.822134e+000
    endloop
  endfacet
  facet normal  0.000000e+000 -1.000000e+000  0.000000e+000
    outer loop
      vertex -2.888668e+001  0.000000e+000 -1.155033e+001
      vertex -2.507953e+000  0.000000e+000  1.822134e+000
      vertex -3.274353e+001  0.000000e+000 -1.333647e+001
    endloop
  endfacet
  facet normal  0.000000e+000 -1.000000e+000  0.000000e+000
    outer loop
      vertex -9.579527e-001  0.000000e+000  2.948275e+000
      vertex -3.274353e+001  0.000000e+000 -1.333647e+001
      vertex -2.507953e+000  0.000000e+000  1.822134e+000
    endloop
  endfacet
  facet normal  -0.000000e+000 -1.000000e+000  0.000000e+000
    outer loop
      vertex -3.274353e+001  0.000000e+000 -1.333647e+001
      vertex -9.579527e-001  0.000000e+000  2.948275e+000
      vertex -3.871763e+000  0.000000e+000  5.831763e+000
    endloop
  endfacet
  facet normal  0.000000e+000 -1.000000e+000  0.000000e+000
    outer loop
      vertex -3.871763e+000  0.000000e+000  5.831763e+000
      vertex -9.579527e-001  0.000000e+000  2.948275e+000
      vertex  9.579527e-001  0.000000e+000  2.948275e+000
    endloop
  endfacet
  facet normal  0.000000e+000 -1.000000e+000  0.000000e+000
    outer loop
      vertex -3.871763e+000  0.000000e+000  5.831763e+000
      vertex  9.579527e-001  0.000000e+000  2.948275e+000
      vertex -8.999991e-001  0.000000e+000  6.941902e+000
    endloop
  endfacet
  facet normal  0.000000e+000 -1.000000e+000  0.000000e+000
    outer loop
      vertex -8.999991e-001  0.000000e+000  6.941902e+000
      vertex  9.579527e-001  0.000000e+000  2.948275e+000
      vertex  4.949748e+000  0.000000e+000  4.949748e+000
    endloop
  endfacet
  facet normal  0.000000e+000 -1.000000e+000  0.000000e+000
    outer loop
      vertex -8.999991e-001  0.000000e+000  6.941902e+000
      vertex  4.949748e+000  0.000000e+000  4.949748e+000
      vertex  2.256609e+000  0.000000e+000  6.626290e+000
    endloop
  endfacet
  facet normal  0.000000e+000 -1.000000e+000  -0.000000e+000
    outer loop
      vertex  6.941902e+000  0.000000e+000 -8.999991e-001
      vertex  6.626290e+000  0.000000e+000  2.256609e+000
      vertex  3.100000e+000  0.000000e+000  3.796280e-016
    endloop
  endfacet
  facet normal  0.000000e+000 -9.999999e-001  0.000000e+000
    outer loop
      vertex  3.100000e+000  0.000000e+000  3.796280e-016
      vertex  6.626290e+000  0.000000e+000  2.256609e+000
      vertex  2.507953e+000  0.000000e+000  1.822134e+000
    endloop
  endfacet
  facet normal  0.000000e+000 -1.000000e+000  -0.000000e+000
    outer loop
      vertex  6.626290e+000  0.000000e+000  2.256609e+000
      vertex  4.949748e+000  0.000000e+000  4.949748e+000
      vertex  2.507953e+000  0.000000e+000  1.822134e+000
    endloop
  endfacet
  facet normal  0.000000e+000 -1.000000e+000  0.000000e+000
    outer loop
      vertex  2.507953e+000  0.000000e+000  1.822134e+000
      vertex  4.949748e+000  0.000000e+000  4.949748e+000
      vertex  9.579527e-001  0.000000e+000  2.948275e+000
    endloop
  endfacet
  facet normal -5.877853e-001  -0.000000e+000 -8.090171e-001
    outer loop
      vertex  9.579527e-001  0.000000e+000  2.948275e+000
      vertex  2.507953e+000  3.000000e+000  1.822134e+000
      vertex  2.507953e+000  0.000000e+000  1.822134e+000
    endloop
  endfacet
  facet normal -9.510566e-001  0.000000e+000 -3.090169e-001
    outer loop
      vertex  2.507953e+000  0.000000e+000  1.822134e+000
      vertex  2.507953e+000  3.000000e+000  1.822134e+000
      vertex  3.100000e+000  3.000000e+000  3.796280e-016
    endloop
  endfacet
  facet normal -9.510566e-001  -0.000000e+000 -3.090169e-001
    outer loop
      vertex  2.507953e+000  0.000000e+000  1.822134e+000
      vertex  3.100000e+000  3.000000e+000  3.796280e-016
      vertex  3.100000e+000  0.000000e+000  3.796280e-016
    endloop
  endfacet
  facet normal -5.877853e-001  0.000000e+000 -8.090171e-001
    outer loop
      vertex  2.507953e+000  3.000000e+000  1.822134e+000
      vertex  9.579527e-001  0.000000e+000  2.948275e+000
      vertex  9.579527e-001  3.000000e+000  2.948275e+000
    endloop
  endfacet
  facet normal  0.000000e+000  -0.000000e+000 -1.000000e+000
    outer loop
      vertex  9.579527e-001  3.000000e+000  2.948275e+000
      vertex  9.579527e-001  0.000000e+000  2.948275e+000
      vertex -9.579527e-001  0.000000e+000  2.948275e+000
    endloop
  endfacet
  facet normal  0.000000e+000  0.000000e+000 -1.000000e+000
    outer loop
      vertex  9.579527e-001  3.000000e+000  2.948275e+000
      vertex -9.579527e-001  0.000000e+000  2.948275e+000
      vertex -9.579527e-001  3.000000e+000  2.948275e+000
    endloop
  endfacet
  facet normal  5.877853e-001  0.000000e+000 -8.090171e-001
    outer loop
      vertex -9.579527e-001  3.000000e+000  2.948275e+000
      vertex -9.579527e-001  0.000000e+000  2.948275e+000
      vertex -2.507953e+000  0.000000e+000  1.822134e+000
    endloop
  endfacet
  facet normal  5.877853e-001  0.000000e+000 -8.090171e-001
    outer loop
      vertex -9.579527e-001  3.000000e+000  2.948275e+000
      vertex -2.507953e+000  0.000000e+000  1.822134e+000
      vertex -2.507953e+000  3.000000e+000  1.822134e+000
    endloop
  endfacet
  facet normal  9.510566e-001  0.000000e+000 -3.090169e-001
    outer loop
      vertex -2.507953e+000  3.000000e+000  1.822134e+000
      vertex -2.507953e+000  0.000000e+000  1.822134e+000
      vertex -3.100000e+000  0.000000e+000  0.000000e+000
    endloop
  endfacet
  facet normal  9.510566e-001  0.000000e+000 -3.090169e-001
    outer loop
      vertex -2.507953e+000  3.000000e+000  1.822134e+000
      vertex -3.100000e+000  0.000000e+000  0.000000e+000
      vertex -3.100000e+000  3.000000e+000  0.000000e+000
    endloop
  endfacet
  facet normal  5.877853e-001  0.000000e+000  8.090171e-001
    outer loop
      vertex -9.579527e-001  0.000000e+000 -2.948275e+000
      vertex -2.507953e+000  3.000000e+000 -1.822134e+000
      vertex -2.507953e+000  0.000000e+000 -1.822134e+000
    endloop
  endfacet
  facet normal  9.510566e-001  -0.000000e+000  3.090169e-001
    outer loop
      vertex -2.507953e+000  0.000000e+000 -1.822134e+000
      vertex -2.507953e+000  3.000000e+000 -1.822134e+000
      vertex -3.100000e+000  3.000000e+000  0.000000e+000
    endloop
  endfacet
  facet normal  9.510566e-001  0.000000e+000  3.090169e-001
    outer loop
      vertex -2.507953e+000  0.000000e+000 -1.822134e+000
      vertex -3.100000e+000  3.000000e+000  0.000000e+000
      vertex -3.100000e+000  0.000000e+000  0.000000e+000
    endloop
  endfacet
  facet normal  5.877853e-001  -0.000000e+000  8.090171e-001
    outer loop
      vertex -2.507953e+000  3.000000e+000 -1.822134e+000
      vertex -9.579527e-001  0.000000e+000 -2.948275e+000
      vertex -9.579527e-001  3.000000e+000 -2.948275e+000
    endloop
  endfacet
  facet normal  0.000000e+000  0.000000e+000  1.000000e+000
    outer loop
      vertex -9.579527e-001  3.000000e+000 -2.948275e+000
      vertex -9.579527e-001  0.000000e+000 -2.948275e+000
      vertex  9.579527e-001  0.000000e+000 -2.948275e+000
    endloop
  endfacet
  facet normal  0.000000e+000  -0.000000e+000  1.000000e+000
    outer loop
      vertex -9.579527e-001  3.000000e+000 -2.948275e+000
      vertex  9.579527e-001  0.000000e+000 -2.948275e+000
      vertex  9.579527e-001  3.000000e+000 -2.948275e+000
    endloop
  endfacet
  facet normal -5.877853e-001  0.000000e+000  8.090171e-001
    outer loop
      vertex  9.579527e-001  3.000000e+000 -2.948275e+000
      vertex  9.579527e-001  0.000000e+000 -2.948275e+000
      vertex  2.507953e+000  0.000000e+000 -1.822134e+000
    endloop
  endfacet
  facet normal -5.877853e-001  0.000000e+000  8.090171e-001
    outer loop
      vertex  9.579527e-001  3.000000e+000 -2.948275e+000
      vertex  2.507953e+000  0.000000e+000 -1.822134e+000
      vertex  2.507953e+000  3.000000e+000 -1.822134e+000
    endloop
  endfacet
  facet normal -9.510566e-001  0.000000e+000  3.090169e-001
    outer loop
      vertex  2.507953e+000  3.000000e+000 -1.822134e+000
      vertex  2.507953e+000  0.000000e+000 -1.822134e+000
      vertex  3.100000e+000  0.000000e+000  3.796280e-016
    endloop
  endfacet
  facet normal -9.510566e-001  0.000000e+000  3.090169e-001
    outer loop
      vertex  2.507953e+000  3.000000e+000 -1.822134e+000
      vertex  3.100000e+000  0.000000e+000  3.796280e-016
      vertex  3.100000e+000  3.000000e+000  3.796280e-016
    endloop
  endfacet
  facet normal -5.531089e-001  0.000000e+000  8.331089e-001
    outer loop
      vertex -3.274353e+001  3.000000e+000 -1.333647e+001
      vertex -3.274353e+001  0.000000e+000 -1.333647e+001
      vertex -3.871763e+000  3.000000e+000  5.831763e+000
    endloop
  endfacet
  facet normal -5.531089e-001  0.000000e+000  8.331089e-001
    outer loop
      vertex -3.871763e+000  3.000000e+000  5.831763e+000
      vertex -3.274353e+001  0.000000e+000 -1.333647e+001
      vertex -3.871763e+000  0.000000e+000  5.831763e+000
    endloop
  endfacet
  facet normal -8.867072e-001  -0.000000e+000 -4.623312e-001
    outer loop
      vertex -1.371250e+001  0.000000e+000 -1.671795e+001
      vertex -1.174742e+001  3.000000e+000 -2.048678e+001
      vertex -1.174742e+001  0.000000e+000 -2.048678e+001
    endloop
  endfacet
  facet normal -9.845787e-001  0.000000e+000 -1.749424e-001
    outer loop
      vertex -1.174742e+001  0.000000e+000 -2.048678e+001
      vertex -1.174742e+001  3.000000e+000 -2.048678e+001
      vertex -1.100385e+001  3.000000e+000 -2.467160e+001
    endloop
  endfacet
  facet normal -9.845787e-001  -0.000000e+000 -1.749424e-001
    outer loop
      vertex -1.174742e+001  0.000000e+000 -2.048678e+001
      vertex -1.100385e+001  3.000000e+000 -2.467160e+001
      vertex -1.100385e+001  0.000000e+000 -2.467160e+001
    endloop
  endfacet
  facet normal -9.917002e-001  0.000000e+000  1.285713e-001
    outer loop
      vertex -1.100385e+001  0.000000e+000 -2.467160e+001
      vertex -1.100385e+001  3.000000e+000 -2.467160e+001
      vertex -1.155033e+001  3.000000e+000 -2.888668e+001
    endloop
  endfacet
  facet normal -9.917002e-001  0.000000e+000  1.285713e-001
    outer loop
      vertex -1.100385e+001  0.000000e+000 -2.467160e+001
      vertex -1.155033e+001  3.000000e+000 -2.888668e+001
      vertex -1.155033e+001  0.000000e+000 -2.888668e+001
    endloop
  endfacet
  facet normal -9.074157e-001  0.000000e+000  4.202343e-001
    outer loop
      vertex -1.155033e+001  0.000000e+000 -2.888668e+001
      vertex -1.155033e+001  3.000000e+000 -2.888668e+001
      vertex -1.333647e+001  3.000000e+000 -3.274353e+001
    endloop
  endfacet
  facet normal -9.074157e-001  0.000000e+000  4.202343e-001
    outer loop
      vertex -1.155033e+001  0.000000e+000 -2.888668e+001
      vertex -1.333647e+001  3.000000e+000 -3.274353e+001
      vertex -1.333647e+001  0.000000e+000 -3.274353e+001
    endloop
  endfacet
  facet normal -8.867072e-001  0.000000e+000 -4.623312e-001
    outer loop
      vertex -1.174742e+001  3.000000e+000 -2.048678e+001
      vertex -1.371250e+001  0.000000e+000 -1.671795e+001
      vertex -1.371250e+001  3.000000e+000 -1.671795e+001
    endloop
  endfacet
  facet normal -7.071068e-001  -0.000000e+000 -7.071068e-001
    outer loop
      vertex -1.371250e+001  3.000000e+000 -1.671795e+001
      vertex -1.371250e+001  0.000000e+000 -1.671795e+001
      vertex -1.671795e+001  0.000000e+000 -1.371250e+001
    endloop
  endfacet
  facet normal -7.071068e-001  0.000000e+000 -7.071068e-001
    outer loop
      vertex -1.371250e+001  3.000000e+000 -1.671795e+001
      vertex -1.671795e+001  0.000000e+000 -1.371250e+001
      vertex -1.671795e+001  3.000000e+000 -1.371250e+001
    endloop
  endfacet
  facet normal -4.623312e-001  -0.000000e+000 -8.867072e-001
    outer loop
      vertex -1.671795e+001  3.000000e+000 -1.371250e+001
      vertex -1.671795e+001  0.000000e+000 -1.371250e+001
      vertex -2.048678e+001  0.000000e+000 -1.174742e+001
    endloop
  endfacet
  facet normal -4.623312e-001  0.000000e+000 -8.867072e-001
    outer loop
      vertex -1.671795e+001  3.000000e+000 -1.371250e+001
      vertex -2.048678e+001  0.000000e+000 -1.174742e+001
      vertex -2.048678e+001  3.000000e+000 -1.174742e+001
    endloop
  endfacet
  facet normal -1.749424e-001  -0.000000e+000 -9.845787e-001
    outer loop
      vertex -2.048678e+001  3.000000e+000 -1.174742e+001
      vertex -2.048678e+001  0.000000e+000 -1.174742e+001
      vertex -2.467160e+001  0.000000e+000 -1.100385e+001
    endloop
  endfacet
  facet normal -1.749424e-001  0.000000e+000 -9.845787e-001
    outer loop
      vertex -2.048678e+001  3.000000e+000 -1.174742e+001
      vertex -2.467160e+001  0.000000e+000 -1.100385e+001
      vertex -2.467160e+001  3.000000e+000 -1.100385e+001
    endloop
  endfacet
  facet normal  1.285713e-001  0.000000e+000 -9.917002e-001
    outer loop
      vertex -2.467160e+001  3.000000e+000 -1.100385e+001
      vertex -2.467160e+001  0.000000e+000 -1.100385e+001
      vertex -2.888668e+001  0.000000e+000 -1.155033e+001
    endloop
  endfacet
  facet normal  1.285713e-001  0.000000e+000 -9.917002e-001
    outer loop
      vertex -2.467160e+001  3.000000e+000 -1.100385e+001
      vertex -2.888668e+001  0.000000e+000 -1.155033e+001
      vertex -2.888668e+001  3.000000e+000 -1.155033e+001
    endloop
  endfacet
  facet normal  4.202343e-001  0.000000e+000 -9.074157e-001
    outer loop
      vertex -2.888668e+001  3.000000e+000 -1.155033e+001
      vertex -2.888668e+001  0.000000e+000 -1.155033e+001
      vertex -3.274353e+001  0.000000e+000 -1.333647e+001
    endloop
  endfacet
  facet normal  4.202343e-001  0.000000e+000 -9.074157e-001
    outer loop
      vertex -2.888668e+001  3.000000e+000 -1.155033e+001
      vertex -3.274353e+001  0.000000e+000 -1.333647e+001
      vertex -3.274353e+001  3.000000e+000 -1.333647e+001
    endloop
  endfacet
  facet normal  8.331089e-001  0.000000e+000 -5.531089e-001
    outer loop
      vertex  5.831763e+000  3.000000e+000 -3.871763e+000
      vertex  5.831763e+000  0.000000e+000 -3.871763e+000
      vertex -1.333647e+001  3.000000e+000 -3.274353e+001
    endloop
  endfacet
  facet normal  8.331089e-001  0.000000e+000 -5.531089e-001
    outer loop
      vertex -1.333647e+001  3.000000e+000 -3.274353e+001
      vertex  5.831763e+000  0.000000e+000 -3.871763e+000
      vertex -1.333647e+001  0.000000e+000 -3.274353e+001
    endloop
  endfacet
  facet normal  9.367712e-001  0.000000e+000 -3.499424e-001
    outer loop
      vertex  5.831763e+000  0.000000e+000 -3.871763e+000
      vertex  5.831763e+000  3.000000e+000 -3.871763e+000
      vertex  6.941902e+000  0.000000e+000 -8.999991e-001
    endloop
  endfacet
  facet normal  9.367712e-001  0.000000e+000 -3.499424e-001
    outer loop
      vertex  6.941902e+000  0.000000e+000 -8.999991e-001
      vertex  5.831763e+000  3.000000e+000 -3.871763e+000
      vertex  6.941902e+000  3.000000e+000 -8.999991e-001
    endloop
  endfacet
  facet normal  9.950387e-001  0.000000e+000  9.948843e-002
    outer loop
      vertex  6.941902e+000  0.000000e+000 -8.999991e-001
      vertex  6.941902e+000  3.000000e+000 -8.999991e-001
      vertex  6.626290e+000  0.000000e+000  2.256609e+000
    endloop
  endfacet
  facet normal  9.950387e-001  -0.000000e+000  9.948843e-002
    outer loop
      vertex  6.626290e+000  0.000000e+000  2.256609e+000
      vertex  6.941902e+000  3.000000e+000 -8.999991e-001
      vertex  6.626290e+000  3.000000e+000  2.256609e+000
    endloop
  endfacet
  facet normal  8.489419e-001  0.000000e+000  5.284864e-001
    outer loop
      vertex  6.626290e+000  0.000000e+000  2.256609e+000
      vertex  6.626290e+000  3.000000e+000  2.256609e+000
      vertex  4.949748e+000  0.000000e+000  4.949748e+000
    endloop
  endfacet
  facet normal  8.489419e-001  -0.000000e+000  5.284864e-001
    outer loop
      vertex  4.949748e+000  0.000000e+000  4.949748e+000
      vertex  6.626290e+000  3.000000e+000  2.256609e+000
      vertex  4.949748e+000  3.000000e+000  4.949748e+000
    endloop
  endfacet
  facet normal  5.284864e-001  0.000000e+000  8.489419e-001
    outer loop
      vertex  4.949748e+000  0.000000e+000  4.949748e+000
      vertex  4.949748e+000  3.000000e+000  4.949748e+000
      vertex  2.256609e+000  0.000000e+000  6.626290e+000
    endloop
  endfacet
  facet normal  5.284864e-001  -0.000000e+000  8.489419e-001
    outer loop
      vertex  2.256609e+000  0.000000e+000  6.626290e+000
      vertex  4.949748e+000  3.000000e+000  4.949748e+000
      vertex  2.256609e+000  3.000000e+000  6.626290e+000
    endloop
  endfacet
  facet normal  9.948843e-002  0.000000e+000  9.950387e-001
    outer loop
      vertex  2.256609e+000  0.000000e+000  6.626290e+000
      vertex  2.256609e+000  3.000000e+000  6.626290e+000
      vertex -8.999991e-001  0.000000e+000  6.941902e+000
    endloop
  endfacet
  facet normal  9.948843e-002  -0.000000e+000  9.950387e-001
    outer loop
      vertex -8.999991e-001  0.000000e+000  6.941902e+000
      vertex  2.256609e+000  3.000000e+000  6.626290e+000
      vertex -8.999991e-001  3.000000e+000  6.941902e+000
    endloop
  endfacet
  facet normal -3.499424e-001  0.000000e+000  9.367712e-001
    outer loop
      vertex -8.999991e-001  0.000000e+000  6.941902e+000
      vertex -8.999991e-001  3.000000e+000  6.941902e+000
      vertex -3.871763e+000  0.000000e+000  5.831763e+000
    endloop
  endfacet
  facet normal -3.499424e-001  0.000000e+000  9.367712e-001
    outer loop
      vertex -3.871763e+000  0.000000e+000  5.831763e+000
      vertex -8.999991e-001  3.000000e+000  6.941902e+000
      vertex -3.871763e+000  3.000000e+000  5.831763e+000
    endloop
  endfacet
endsolid CATIA STL
