solid CATIA STL
  facet normal  0.000000e+000  1.000000e+000  0.000000e+000
    outer loop
      vertex -1.631451e+001  8.500000e+000  1.587785e+001
      vertex -1.455031e+001  8.500000e+000  1.830606e+001
      vertex -1.307844e+001  8.500000e+000  1.352671e+001
    endloop
  endfacet
  facet normal  0.000000e+000  1.000000e+000  -0.000000e+000
    outer loop
      vertex -1.307844e+001  8.500000e+000  1.352671e+001
      vertex -1.455031e+001  8.500000e+000  1.830606e+001
      vertex -1.131425e+001  8.500000e+000  1.595492e+001
    endloop
  endfacet
  facet normal  1.521300e-001  9.659259e-001  2.093889e-001
    outer loop
      vertex -1.131425e+001  8.500000e+000  1.595492e+001
      vertex -1.455031e+001  8.500000e+000  1.830606e+001
      vertex -9.844783e+000  7.830127e+000  1.797746e+001
    endloop
  endfacet
  facet normal  1.521300e-001  9.659259e-001  2.093890e-001
    outer loop
      vertex -9.844783e+000  7.830127e+000  1.797746e+001
      vertex -1.455031e+001  8.500000e+000  1.830606e+001
      vertex -1.308085e+001  7.830127e+000  2.032860e+001
    endloop
  endfacet
  facet normal  4.156269e-001  7.071068e-001  5.720614e-001
    outer loop
      vertex -9.844783e+000  7.830127e+000  1.797746e+001
      vertex -1.308085e+001  7.830127e+000  2.032860e+001
      vertex -8.769061e+000  6.000000e+000  1.945806e+001
    endloop
  endfacet
  facet normal  4.156269e-001  7.071068e-001  5.720614e-001
    outer loop
      vertex -8.769061e+000  6.000000e+000  1.945806e+001
      vertex -1.308085e+001  7.830127e+000  2.032860e+001
      vertex -1.200513e+001  6.000000e+000  2.180920e+001
    endloop
  endfacet
  facet normal  5.677569e-001  2.588191e-001  7.814503e-001
    outer loop
      vertex -8.769061e+000  6.000000e+000  1.945806e+001
      vertex -1.200513e+001  6.000000e+000  2.180920e+001
      vertex -8.375319e+000  3.500000e+000  2.000000e+001
    endloop
  endfacet
  facet normal  5.677569e-001  2.588191e-001  7.814503e-001
    outer loop
      vertex -8.375319e+000  3.500000e+000  2.000000e+001
      vertex -1.200513e+001  6.000000e+000  2.180920e+001
      vertex -1.161139e+001  3.500000e+000  2.235114e+001
    endloop
  endfacet
  facet normal  5.877852e-001  -0.000000e+000  8.090169e-001
    outer loop
      vertex -1.161139e+001  3.500000e+000  2.235114e+001
      vertex -1.161139e+001 -3.500000e+000  2.235114e+001
      vertex -8.375319e+000  3.500000e+000  2.000000e+001
    endloop
  endfacet
  facet normal  5.877852e-001  0.000000e+000  8.090169e-001
    outer loop
      vertex -8.375319e+000  3.500000e+000  2.000000e+001
      vertex -1.161139e+001 -3.500000e+000  2.235114e+001
      vertex -8.375319e+000 -3.500000e+000  2.000000e+001
    endloop
  endfacet
  facet normal  5.677569e-001 -2.588191e-001  7.814503e-001
    outer loop
      vertex -8.375319e+000 -3.500000e+000  2.000000e+001
      vertex -1.161139e+001 -3.500000e+000  2.235114e+001
      vertex -8.769061e+000 -6.000000e+000  1.945806e+001
    endloop
  endfacet
  facet normal  5.677569e-001 -2.588191e-001  7.814503e-001
    outer loop
      vertex -8.769061e+000 -6.000000e+000  1.945806e+001
      vertex -1.161139e+001 -3.500000e+000  2.235114e+001
      vertex -1.200513e+001 -6.000000e+000  2.180920e+001
    endloop
  endfacet
  facet normal  4.156269e-001 -7.071068e-001  5.720614e-001
    outer loop
      vertex -8.769061e+000 -6.000000e+000  1.945806e+001
      vertex -1.200513e+001 -6.000000e+000  2.180920e+001
      vertex -9.844783e+000 -7.830127e+000  1.797746e+001
    endloop
  endfacet
  facet normal  4.156269e-001 -7.071068e-001  5.720614e-001
    outer loop
      vertex -9.844783e+000 -7.830127e+000  1.797746e+001
      vertex -1.200513e+001 -6.000000e+000  2.180920e+001
      vertex -1.308085e+001 -7.830127e+000  2.032860e+001
    endloop
  endfacet
  facet normal  1.521300e-001 -9.659259e-001  2.093890e-001
    outer loop
      vertex -9.844783e+000 -7.830127e+000  1.797746e+001
      vertex -1.308085e+001 -7.830127e+000  2.032860e+001
      vertex -1.131425e+001 -8.500000e+000  1.595492e+001
    endloop
  endfacet
  facet normal  1.521301e-001 -9.659258e-001  2.093890e-001
    outer loop
      vertex -1.131425e+001 -8.500000e+000  1.595492e+001
      vertex -1.308085e+001 -7.830127e+000  2.032860e+001
      vertex -1.455031e+001 -8.500000e+000  1.830606e+001
    endloop
  endfacet
  facet normal -8.090170e-001  0.000000e+000  5.877853e-001
    outer loop
      vertex -1.161139e+001 -3.500000e+000  2.235114e+001
      vertex -1.161139e+001  3.500000e+000  2.235114e+001
      vertex -1.200513e+001 -6.000000e+000  2.180920e+001
    endloop
  endfacet
  facet normal -8.090170e-001  0.000000e+000  5.877853e-001
    outer loop
      vertex -1.200513e+001 -6.000000e+000  2.180920e+001
      vertex -1.161139e+001  3.500000e+000  2.235114e+001
      vertex -1.200513e+001  6.000000e+000  2.180920e+001
    endloop
  endfacet
  facet normal -8.090170e-001  0.000000e+000  5.877852e-001
    outer loop
      vertex -1.200513e+001 -6.000000e+000  2.180920e+001
      vertex -1.200513e+001  6.000000e+000  2.180920e+001
      vertex -1.308085e+001 -7.830127e+000  2.032860e+001
    endloop
  endfacet
  facet normal -8.090170e-001  0.000000e+000  5.877852e-001
    outer loop
      vertex -1.308085e+001 -7.830127e+000  2.032860e+001
      vertex -1.200513e+001  6.000000e+000  2.180920e+001
      vertex -1.308085e+001  7.830127e+000  2.032860e+001
    endloop
  endfacet
  facet normal -8.090168e-001  0.000000e+000  5.877856e-001
    outer loop
      vertex -1.308085e+001 -7.830127e+000  2.032860e+001
      vertex -1.308085e+001  7.830127e+000  2.032860e+001
      vertex -1.455031e+001 -8.500000e+000  1.830606e+001
    endloop
  endfacet
  facet normal -8.090168e-001  0.000000e+000  5.877856e-001
    outer loop
      vertex -1.455031e+001 -8.500000e+000  1.830606e+001
      vertex -1.308085e+001  7.830127e+000  2.032860e+001
      vertex -1.455031e+001  8.500000e+000  1.830606e+001
    endloop
  endfacet
  facet normal -8.090172e-001  0.000000e+000  5.877849e-001
    outer loop
      vertex -1.455031e+001 -8.500000e+000  1.830606e+001
      vertex -1.455031e+001  8.500000e+000  1.830606e+001
      vertex -1.631451e+001 -8.500000e+000  1.587785e+001
    endloop
  endfacet
  facet normal -8.090172e-001  0.000000e+000  5.877849e-001
    outer loop
      vertex -1.631451e+001 -8.500000e+000  1.587785e+001
      vertex -1.455031e+001  8.500000e+000  1.830606e+001
      vertex -1.631451e+001  8.500000e+000  1.587785e+001
    endloop
  endfacet
  facet normal  0.000000e+000 -1.000000e+000  0.000000e+000
    outer loop
      vertex -1.631451e+001 -8.500000e+000  1.587785e+001
      vertex -1.307844e+001 -8.500000e+000  1.352671e+001
      vertex -1.455031e+001 -8.500000e+000  1.830606e+001
    endloop
  endfacet
  facet normal  0.000000e+000 -1.000000e+000  0.000000e+000
    outer loop
      vertex -1.455031e+001 -8.500000e+000  1.830606e+001
      vertex -1.307844e+001 -8.500000e+000  1.352671e+001
      vertex -1.131425e+001 -8.500000e+000  1.595492e+001
    endloop
  endfacet
  facet normal  8.090171e-001 -4.097684e-008 -5.877851e-001
    outer loop
      vertex -8.769061e+000 -6.000000e+000  1.945806e+001
      vertex -9.844783e+000 -7.830127e+000  1.797746e+001
      vertex -8.375319e+000 -3.500000e+000  2.000000e+001
    endloop
  endfacet
  facet normal  8.090171e-001  1.281278e-006 -5.877851e-001
    outer loop
      vertex -1.131425e+001  8.500000e+000  1.595492e+001
      vertex -9.844783e+000  7.830127e+000  1.797746e+001
      vertex -1.307844e+001  8.500000e+000  1.352671e+001
    endloop
  endfacet
  facet normal  8.090171e-001 -1.281278e-006 -5.877851e-001
    outer loop
      vertex -1.307844e+001 -8.500000e+000  1.352671e+001
      vertex -9.844783e+000 -7.830127e+000  1.797746e+001
      vertex -1.131425e+001 -8.500000e+000  1.595492e+001
    endloop
  endfacet
  facet normal  8.090170e-001  2.292629e-008 -5.877852e-001
    outer loop
      vertex -9.844783e+000 -7.830127e+000  1.797746e+001
      vertex -1.307844e+001 -8.500000e+000  1.352671e+001
      vertex -8.375319e+000 -3.500000e+000  2.000000e+001
    endloop
  endfacet
  facet normal  8.090170e-001  0.000000e+000 -5.877852e-001
    outer loop
      vertex -8.375319e+000 -3.500000e+000  2.000000e+001
      vertex -1.307844e+001 -8.500000e+000  1.352671e+001
      vertex -1.307844e+001  8.500000e+000  1.352671e+001
    endloop
  endfacet
  facet normal  8.090170e-001  0.000000e+000 -5.877853e-001
    outer loop
      vertex -8.375319e+000 -3.500000e+000  2.000000e+001
      vertex -1.307844e+001  8.500000e+000  1.352671e+001
      vertex -8.375319e+000  3.500000e+000  2.000000e+001
    endloop
  endfacet
  facet normal  8.090170e-001 -2.292629e-008 -5.877852e-001
    outer loop
      vertex -8.375319e+000  3.500000e+000  2.000000e+001
      vertex -1.307844e+001  8.500000e+000  1.352671e+001
      vertex -9.844783e+000  7.830127e+000  1.797746e+001
    endloop
  endfacet
  facet normal  8.090171e-001  4.097684e-008 -5.877851e-001
    outer loop
      vertex -8.375319e+000  3.500000e+000  2.000000e+001
      vertex -9.844783e+000  7.830127e+000  1.797746e+001
      vertex -8.769061e+000  6.000000e+000  1.945806e+001
    endloop
  endfacet
  facet normal  0.000000e+000  0.000000e+000  1.000000e+000
    outer loop
      vertex -8.224337e+000 -8.500000e+000  4.000000e+000
      vertex -5.000000e+000 -8.500000e+000  4.000000e+000
      vertex -7.100000e+000  2.571673e-016  4.000000e+000
    endloop
  endfacet
  facet normal  0.000000e+000  0.000000e+000  1.000000e+000
    outer loop
      vertex -8.224337e+000 -8.500000e+000  4.000000e+000
      vertex -7.100000e+000  2.571673e-016  4.000000e+000
      vertex -8.224337e+000  8.500000e+000  4.000000e+000
    endloop
  endfacet
  facet normal  0.000000e+000  0.000000e+000  1.000000e+000
    outer loop
      vertex -2.900000e+000  0.000000e+000  4.000000e+000
      vertex -6.698730e-001  6.000000e+000  4.000000e+000
      vertex -2.500000e+000  7.830127e+000  4.000000e+000
    endloop
  endfacet
  facet normal  0.000000e+000  0.000000e+000  1.000000e+000
    outer loop
      vertex -5.000000e+000 -8.500000e+000  4.000000e+000
      vertex -2.500000e+000 -7.830127e+000  4.000000e+000
      vertex -2.900000e+000  0.000000e+000  4.000000e+000
    endloop
  endfacet
  facet normal  0.000000e+000  0.000000e+000  1.000000e+000
    outer loop
      vertex -5.000000e+000 -8.500000e+000  4.000000e+000
      vertex -2.900000e+000  0.000000e+000  4.000000e+000
      vertex -3.515076e+000 -1.484924e+000  4.000000e+000
    endloop
  endfacet
  facet normal  0.000000e+000  0.000000e+000  1.000000e+000
    outer loop
      vertex -5.000000e+000 -8.500000e+000  4.000000e+000
      vertex -3.515076e+000 -1.484924e+000  4.000000e+000
      vertex -5.000000e+000 -2.100000e+000  4.000000e+000
    endloop
  endfacet
  facet normal  0.000000e+000  0.000000e+000  1.000000e+000
    outer loop
      vertex -5.000000e+000 -8.500000e+000  4.000000e+000
      vertex -5.000000e+000 -2.100000e+000  4.000000e+000
      vertex -6.484924e+000 -1.484924e+000  4.000000e+000
    endloop
  endfacet
  facet normal  0.000000e+000  0.000000e+000  1.000000e+000
    outer loop
      vertex -5.000000e+000 -8.500000e+000  4.000000e+000
      vertex -6.484924e+000 -1.484924e+000  4.000000e+000
      vertex -7.100000e+000  2.571673e-016  4.000000e+000
    endloop
  endfacet
  facet normal  -0.000000e+000  0.000000e+000  1.000000e+000
    outer loop
      vertex -5.000000e+000  8.500000e+000  4.000000e+000
      vertex -8.224337e+000  8.500000e+000  4.000000e+000
      vertex -7.100000e+000  2.571673e-016  4.000000e+000
    endloop
  endfacet
  facet normal  0.000000e+000  0.000000e+000  1.000000e+000
    outer loop
      vertex -5.000000e+000  8.500000e+000  4.000000e+000
      vertex -7.100000e+000  2.571673e-016  4.000000e+000
      vertex -6.484924e+000  1.484924e+000  4.000000e+000
    endloop
  endfacet
  facet normal  0.000000e+000  0.000000e+000  1.000000e+000
    outer loop
      vertex -5.000000e+000  8.500000e+000  4.000000e+000
      vertex -6.484924e+000  1.484924e+000  4.000000e+000
      vertex -5.000000e+000  2.100000e+000  4.000000e+000
    endloop
  endfacet
  facet normal  -0.000000e+000  0.000000e+000  1.000000e+000
    outer loop
      vertex -5.000000e+000  8.500000e+000  4.000000e+000
      vertex -5.000000e+000  2.100000e+000  4.000000e+000
      vertex -3.515076e+000  1.484924e+000  4.000000e+000
    endloop
  endfacet
  facet normal  -0.000000e+000  -0.000000e+000  1.000000e+000
    outer loop
      vertex -5.000000e+000  8.500000e+000  4.000000e+000
      vertex -3.515076e+000  1.484924e+000  4.000000e+000
      vertex -2.900000e+000  0.000000e+000  4.000000e+000
    endloop
  endfacet
  facet normal  0.000000e+000  -0.000000e+000  1.000000e+000
    outer loop
      vertex -5.000000e+000  8.500000e+000  4.000000e+000
      vertex -2.900000e+000  0.000000e+000  4.000000e+000
      vertex -2.500000e+000  7.830127e+000  4.000000e+000
    endloop
  endfacet
  facet normal  0.000000e+000  0.000000e+000  1.000000e+000
    outer loop
      vertex  0.000000e+000  3.500000e+000  4.000000e+000
      vertex -6.698730e-001  6.000000e+000  4.000000e+000
      vertex  0.000000e+000 -3.500000e+000  4.000000e+000
    endloop
  endfacet
  facet normal  0.000000e+000  0.000000e+000  1.000000e+000
    outer loop
      vertex  0.000000e+000 -3.500000e+000  4.000000e+000
      vertex -6.698730e-001  6.000000e+000  4.000000e+000
      vertex -2.900000e+000  0.000000e+000  4.000000e+000
    endloop
  endfacet
  facet normal  0.000000e+000  0.000000e+000  9.999999e-001
    outer loop
      vertex  0.000000e+000 -3.500000e+000  4.000000e+000
      vertex -2.900000e+000  0.000000e+000  4.000000e+000
      vertex -6.698730e-001 -6.000000e+000  4.000000e+000
    endloop
  endfacet
  facet normal  0.000000e+000  0.000000e+000  1.000000e+000
    outer loop
      vertex -6.698730e-001 -6.000000e+000  4.000000e+000
      vertex -2.900000e+000  0.000000e+000  4.000000e+000
      vertex -2.500000e+000 -7.830127e+000  4.000000e+000
    endloop
  endfacet
  facet normal  0.000000e+000  1.000000e+000  0.000000e+000
    outer loop
      vertex -5.000000e+000  8.500000e+000  0.000000e+000
      vertex -8.224337e+000  8.500000e+000  0.000000e+000
      vertex -5.000000e+000  8.500000e+000  4.000000e+000
    endloop
  endfacet
  facet normal  0.000000e+000  1.000000e+000  0.000000e+000
    outer loop
      vertex -5.000000e+000  8.500000e+000  4.000000e+000
      vertex -8.224337e+000  8.500000e+000  0.000000e+000
      vertex -8.224337e+000  8.500000e+000  4.000000e+000
    endloop
  endfacet
  facet normal  2.588190e-001  9.659259e-001  0.000000e+000
    outer loop
      vertex -5.000000e+000  8.500000e+000  0.000000e+000
      vertex -5.000000e+000  8.500000e+000  4.000000e+000
      vertex -2.500000e+000  7.830127e+000  0.000000e+000
    endloop
  endfacet
  facet normal  2.588190e-001  9.659259e-001  -0.000000e+000
    outer loop
      vertex -2.500000e+000  7.830127e+000  0.000000e+000
      vertex -5.000000e+000  8.500000e+000  4.000000e+000
      vertex -2.500000e+000  7.830127e+000  4.000000e+000
    endloop
  endfacet
  facet normal  7.071068e-001  7.071067e-001  0.000000e+000
    outer loop
      vertex -2.500000e+000  7.830127e+000  0.000000e+000
      vertex -2.500000e+000  7.830127e+000  4.000000e+000
      vertex -6.698730e-001  6.000000e+000  0.000000e+000
    endloop
  endfacet
  facet normal  7.071068e-001  7.071067e-001  -0.000000e+000
    outer loop
      vertex -6.698730e-001  6.000000e+000  0.000000e+000
      vertex -2.500000e+000  7.830127e+000  4.000000e+000
      vertex -6.698730e-001  6.000000e+000  4.000000e+000
    endloop
  endfacet
  facet normal  9.659258e-001  2.588190e-001  0.000000e+000
    outer loop
      vertex -6.698730e-001  6.000000e+000  0.000000e+000
      vertex -6.698730e-001  6.000000e+000  4.000000e+000
      vertex  0.000000e+000  3.500000e+000  0.000000e+000
    endloop
  endfacet
  facet normal  9.659258e-001  2.588190e-001  -0.000000e+000
    outer loop
      vertex  0.000000e+000  3.500000e+000  0.000000e+000
      vertex -6.698730e-001  6.000000e+000  4.000000e+000
      vertex  0.000000e+000  3.500000e+000  4.000000e+000
    endloop
  endfacet
  facet normal  1.000000e+000  0.000000e+000  0.000000e+000
    outer loop
      vertex  0.000000e+000 -3.500000e+000  0.000000e+000
      vertex  0.000000e+000  3.500000e+000  0.000000e+000
      vertex  0.000000e+000 -3.500000e+000  4.000000e+000
    endloop
  endfacet
  facet normal  1.000000e+000  -0.000000e+000  0.000000e+000
    outer loop
      vertex  0.000000e+000 -3.500000e+000  4.000000e+000
      vertex  0.000000e+000  3.500000e+000  0.000000e+000
      vertex  0.000000e+000  3.500000e+000  4.000000e+000
    endloop
  endfacet
  facet normal  9.659258e-001 -2.588190e-001  0.000000e+000
    outer loop
      vertex  0.000000e+000 -3.500000e+000  0.000000e+000
      vertex  0.000000e+000 -3.500000e+000  4.000000e+000
      vertex -6.698730e-001 -6.000000e+000  0.000000e+000
    endloop
  endfacet
  facet normal  9.659258e-001 -2.588190e-001  0.000000e+000
    outer loop
      vertex -6.698730e-001 -6.000000e+000  0.000000e+000
      vertex  0.000000e+000 -3.500000e+000  4.000000e+000
      vertex -6.698730e-001 -6.000000e+000  4.000000e+000
    endloop
  endfacet
  facet normal  7.071068e-001 -7.071067e-001  0.000000e+000
    outer loop
      vertex -6.698730e-001 -6.000000e+000  0.000000e+000
      vertex -6.698730e-001 -6.000000e+000  4.000000e+000
      vertex -2.500000e+000 -7.830127e+000  0.000000e+000
    endloop
  endfacet
  facet normal  7.071068e-001 -7.071067e-001  0.000000e+000
    outer loop
      vertex -2.500000e+000 -7.830127e+000  0.000000e+000
      vertex -6.698730e-001 -6.000000e+000  4.000000e+000
      vertex -2.500000e+000 -7.830127e+000  4.000000e+000
    endloop
  endfacet
  facet normal  2.588190e-001 -9.659259e-001  0.000000e+000
    outer loop
      vertex -2.500000e+000 -7.830127e+000  0.000000e+000
      vertex -2.500000e+000 -7.830127e+000  4.000000e+000
      vertex -5.000000e+000 -8.500000e+000  0.000000e+000
    endloop
  endfacet
  facet normal  2.588190e-001 -9.659259e-001  0.000000e+000
    outer loop
      vertex -5.000000e+000 -8.500000e+000  0.000000e+000
      vertex -2.500000e+000 -7.830127e+000  4.000000e+000
      vertex -5.000000e+000 -8.500000e+000  4.000000e+000
    endloop
  endfacet
  facet normal  0.000000e+000 -1.000000e+000  0.000000e+000
    outer loop
      vertex -8.224337e+000 -8.500000e+000  0.000000e+000
      vertex -5.000000e+000 -8.500000e+000  0.000000e+000
      vertex -8.224337e+000 -8.500000e+000  4.000000e+000
    endloop
  endfacet
  facet normal  0.000000e+000 -1.000000e+000  0.000000e+000
    outer loop
      vertex -8.224337e+000 -8.500000e+000  4.000000e+000
      vertex -5.000000e+000 -8.500000e+000  0.000000e+000
      vertex -5.000000e+000 -8.500000e+000  4.000000e+000
    endloop
  endfacet
  facet normal  0.000000e+000  0.000000e+000 -1.000000e+000
    outer loop
      vertex -8.224337e+000 -8.500000e+000  0.000000e+000
      vertex -8.224337e+000  8.500000e+000  0.000000e+000
      vertex -7.100000e+000  2.571673e-016  0.000000e+000
    endloop
  endfacet
  facet normal  0.000000e+000  -0.000000e+000 -1.000000e+000
    outer loop
      vertex -8.224337e+000 -8.500000e+000  0.000000e+000
      vertex -7.100000e+000  2.571673e-016  0.000000e+000
      vertex -6.484924e+000 -1.484924e+000  0.000000e+000
    endloop
  endfacet
  facet normal  0.000000e+000  -0.000000e+000 -1.000000e+000
    outer loop
      vertex -8.224337e+000 -8.500000e+000  0.000000e+000
      vertex -6.484924e+000 -1.484924e+000  0.000000e+000
      vertex -5.000000e+000 -2.100000e+000  0.000000e+000
    endloop
  endfacet
  facet normal  0.000000e+000  -0.000000e+000 -1.000000e+000
    outer loop
      vertex -8.224337e+000 -8.500000e+000  0.000000e+000
      vertex -5.000000e+000 -2.100000e+000  0.000000e+000
      vertex -5.000000e+000 -8.500000e+000  0.000000e+000
    endloop
  endfacet
  facet normal  -0.000000e+000  0.000000e+000 -1.000000e+000
    outer loop
      vertex -5.000000e+000  8.500000e+000  0.000000e+000
      vertex -5.000000e+000  2.100000e+000  0.000000e+000
      vertex -6.484924e+000  1.484924e+000  0.000000e+000
    endloop
  endfacet
  facet normal  -0.000000e+000  0.000000e+000 -1.000000e+000
    outer loop
      vertex -5.000000e+000  8.500000e+000  0.000000e+000
      vertex -6.484924e+000  1.484924e+000  0.000000e+000
      vertex -7.100000e+000  2.571673e-016  0.000000e+000
    endloop
  endfacet
  facet normal  0.000000e+000  0.000000e+000 -1.000000e+000
    outer loop
      vertex -5.000000e+000  8.500000e+000  0.000000e+000
      vertex -7.100000e+000  2.571673e-016  0.000000e+000
      vertex -8.224337e+000  8.500000e+000  0.000000e+000
    endloop
  endfacet
  facet normal  0.000000e+000  0.000000e+000 -1.000000e+000
    outer loop
      vertex -5.000000e+000  2.100000e+000  0.000000e+000
      vertex -5.000000e+000  8.500000e+000  0.000000e+000
      vertex -2.500000e+000  7.830127e+000  0.000000e+000
    endloop
  endfacet
  facet normal  0.000000e+000  -0.000000e+000 -1.000000e+000
    outer loop
      vertex -5.000000e+000  2.100000e+000  0.000000e+000
      vertex -2.500000e+000  7.830127e+000  0.000000e+000
      vertex -6.698730e-001  6.000000e+000  0.000000e+000
    endloop
  endfacet
  facet normal  0.000000e+000  -0.000000e+000 -1.000000e+000
    outer loop
      vertex -5.000000e+000  2.100000e+000  0.000000e+000
      vertex -6.698730e-001  6.000000e+000  0.000000e+000
      vertex  0.000000e+000  3.500000e+000  0.000000e+000
    endloop
  endfacet
  facet normal  0.000000e+000  0.000000e+000 -1.000000e+000
    outer loop
      vertex -5.000000e+000  2.100000e+000  0.000000e+000
      vertex  0.000000e+000  3.500000e+000  0.000000e+000
      vertex -3.515076e+000  1.484924e+000  0.000000e+000
    endloop
  endfacet
  facet normal  0.000000e+000  0.000000e+000 -1.000000e+000
    outer loop
      vertex  0.000000e+000 -3.500000e+000  0.000000e+000
      vertex -5.000000e+000 -2.100000e+000  0.000000e+000
      vertex -3.515076e+000 -1.484924e+000  0.000000e+000
    endloop
  endfacet
  facet normal  0.000000e+000  0.000000e+000 -1.000000e+000
    outer loop
      vertex  0.000000e+000 -3.500000e+000  0.000000e+000
      vertex -3.515076e+000 -1.484924e+000  0.000000e+000
      vertex -2.900000e+000  0.000000e+000  0.000000e+000
    endloop
  endfacet
  facet normal  0.000000e+000  0.000000e+000 -1.000000e+000
    outer loop
      vertex  0.000000e+000 -3.500000e+000  0.000000e+000
      vertex -2.900000e+000  0.000000e+000  0.000000e+000
      vertex -3.515076e+000  1.484924e+000  0.000000e+000
    endloop
  endfacet
  facet normal  0.000000e+000  0.000000e+000 -1.000000e+000
    outer loop
      vertex  0.000000e+000 -3.500000e+000  0.000000e+000
      vertex -3.515076e+000  1.484924e+000  0.000000e+000
      vertex  0.000000e+000  3.500000e+000  0.000000e+000
    endloop
  endfacet
  facet normal  0.000000e+000  0.000000e+000 -1.000000e+000
    outer loop
      vertex -5.000000e+000 -8.500000e+000  0.000000e+000
      vertex -5.000000e+000 -2.100000e+000  0.000000e+000
      vertex  0.000000e+000 -3.500000e+000  0.000000e+000
    endloop
  endfacet
  facet normal  0.000000e+000  0.000000e+000 -1.000000e+000
    outer loop
      vertex -5.000000e+000 -8.500000e+000  0.000000e+000
      vertex  0.000000e+000 -3.500000e+000  0.000000e+000
      vertex -6.698730e-001 -6.000000e+000  0.000000e+000
    endloop
  endfacet
  facet normal  0.000000e+000  0.000000e+000 -1.000000e+000
    outer loop
      vertex -5.000000e+000 -8.500000e+000  0.000000e+000
      vertex -6.698730e-001 -6.000000e+000  0.000000e+000
      vertex -2.500000e+000 -7.830127e+000  0.000000e+000
    endloop
  endfacet
  facet normal  9.995066e-001  0.000000e+000  3.141052e-002
    outer loop
      vertex -1.403584e+001 -8.500000e+000  8.507861e+000
      vertex -1.411806e+001  8.500000e+000  1.112429e+001
      vertex -1.411806e+001 -8.500000e+000  1.112429e+001
    endloop
  endfacet
  facet normal  9.177547e-001  0.000000e+000 -3.971478e-001
    outer loop
      vertex -1.411806e+001 -8.500000e+000  1.112429e+001
      vertex -1.411806e+001  8.500000e+000  1.112429e+001
      vertex -1.307844e+001  8.500000e+000  1.352671e+001
    endloop
  endfacet
  facet normal  9.177547e-001  0.000000e+000 -3.971478e-001
    outer loop
      vertex -1.411806e+001 -8.500000e+000  1.112429e+001
      vertex -1.307844e+001  8.500000e+000  1.352671e+001
      vertex -1.307844e+001 -8.500000e+000  1.352671e+001
    endloop
  endfacet
  facet normal  9.995066e-001  -0.000000e+000  3.141052e-002
    outer loop
      vertex -1.411806e+001  8.500000e+000  1.112429e+001
      vertex -1.403584e+001 -8.500000e+000  8.507861e+000
      vertex -1.403584e+001  8.500000e+000  8.507861e+000
    endloop
  endfacet
  facet normal  8.910066e-001  0.000000e+000  4.539904e-001
    outer loop
      vertex -1.403584e+001  8.500000e+000  8.507861e+000
      vertex -1.403584e+001 -8.500000e+000  8.507861e+000
      vertex -1.284742e+001 -8.500000e+000  6.175456e+000
    endloop
  endfacet
  facet normal  8.910066e-001  -0.000000e+000  4.539904e-001
    outer loop
      vertex -1.403584e+001  8.500000e+000  8.507861e+000
      vertex -1.284742e+001 -8.500000e+000  6.175456e+000
      vertex -1.284742e+001  8.500000e+000  6.175456e+000
    endloop
  endfacet
  facet normal  6.129069e-001  0.000000e+000  7.901551e-001
    outer loop
      vertex -1.284742e+001  8.500000e+000  6.175456e+000
      vertex -1.284742e+001 -8.500000e+000  6.175456e+000
      vertex -1.077901e+001 -8.500000e+000  4.571038e+000
    endloop
  endfacet
  facet normal  6.129069e-001  -0.000000e+000  7.901551e-001
    outer loop
      vertex -1.284742e+001  8.500000e+000  6.175456e+000
      vertex -1.077901e+001 -8.500000e+000  4.571038e+000
      vertex -1.077901e+001  8.500000e+000  4.571038e+000
    endloop
  endfacet
  facet normal  2.181433e-001  0.000000e+000  9.759168e-001
    outer loop
      vertex -1.077901e+001  8.500000e+000  4.571038e+000
      vertex -1.077901e+001 -8.500000e+000  4.571038e+000
      vertex -8.224337e+000 -8.500000e+000  4.000000e+000
    endloop
  endfacet
  facet normal  2.181433e-001  -0.000000e+000  9.759168e-001
    outer loop
      vertex -1.077901e+001  8.500000e+000  4.571038e+000
      vertex -8.224337e+000 -8.500000e+000  4.000000e+000
      vertex -8.224337e+000  8.500000e+000  4.000000e+000
    endloop
  endfacet
  facet normal  0.000000e+000 -1.000000e+000  0.000000e+000
    outer loop
      vertex -1.816956e+001 -8.500000e+000  8.954716e+000
      vertex -1.403584e+001 -8.500000e+000  8.507861e+000
      vertex -1.411806e+001 -8.500000e+000  1.112429e+001
    endloop
  endfacet
  facet normal  0.000000e+000 -1.000000e+000  0.000000e+000
    outer loop
      vertex -1.631451e+001 -8.500000e+000  1.587785e+001
      vertex -1.788359e+001 -8.500000e+000  1.258819e+001
      vertex -1.307844e+001 -8.500000e+000  1.352671e+001
    endloop
  endfacet
  facet normal  0.000000e+000 -1.000000e+000  0.000000e+000
    outer loop
      vertex -1.307844e+001 -8.500000e+000  1.352671e+001
      vertex -1.788359e+001 -8.500000e+000  1.258819e+001
      vertex -1.816956e+001 -8.500000e+000  8.954716e+000
    endloop
  endfacet
  facet normal  0.000000e+000 -9.999999e-001  0.000000e+000
    outer loop
      vertex -1.307844e+001 -8.500000e+000  1.352671e+001
      vertex -1.816956e+001 -8.500000e+000  8.954716e+000
      vertex -1.411806e+001 -8.500000e+000  1.112429e+001
    endloop
  endfacet
  facet normal  0.000000e+000 -1.000000e+000  -0.000000e+000
    outer loop
      vertex -8.224337e+000 -8.500000e+000  4.000000e+000
      vertex -1.077901e+001 -8.500000e+000  4.571038e+000
      vertex -1.491564e+001 -8.500000e+000  2.568552e+000
    endloop
  endfacet
  facet normal  0.000000e+000 -9.999999e-001  0.000000e+000
    outer loop
      vertex -1.491564e+001 -8.500000e+000  2.568552e+000
      vertex -1.077901e+001 -8.500000e+000  4.571038e+000
      vertex -1.284742e+001 -8.500000e+000  6.175456e+000
    endloop
  endfacet
  facet normal  0.000000e+000 -1.000000e+000  0.000000e+000
    outer loop
      vertex -1.491564e+001 -8.500000e+000  2.568552e+000
      vertex -1.284742e+001 -8.500000e+000  6.175456e+000
      vertex -1.713440e+001 -8.500000e+000  5.460095e+000
    endloop
  endfacet
  facet normal  0.000000e+000 -1.000000e+000  0.000000e+000
    outer loop
      vertex -1.713440e+001 -8.500000e+000  5.460095e+000
      vertex -1.284742e+001 -8.500000e+000  6.175456e+000
      vertex -1.403584e+001 -8.500000e+000  8.507861e+000
    endloop
  endfacet
  facet normal  -0.000000e+000 -1.000000e+000  0.000000e+000
    outer loop
      vertex -1.713440e+001 -8.500000e+000  5.460095e+000
      vertex -1.403584e+001 -8.500000e+000  8.507861e+000
      vertex -1.816956e+001 -8.500000e+000  8.954716e+000
    endloop
  endfacet
  facet normal  0.000000e+000 -9.999999e-001  -0.000000e+000
    outer loop
      vertex -8.224337e+000 -8.500000e+000  0.000000e+000
      vertex -8.224337e+000 -8.500000e+000  4.000000e+000
      vertex -1.180802e+001 -8.500000e+000  6.641957e-001
    endloop
  endfacet
  facet normal  0.000000e+000 -1.000000e+000  0.000000e+000
    outer loop
      vertex -1.180802e+001 -8.500000e+000  6.641957e-001
      vertex -8.224337e+000 -8.500000e+000  4.000000e+000
      vertex -1.491564e+001 -8.500000e+000  2.568552e+000
    endloop
  endfacet
  facet normal -9.025853e-001  0.000000e+000  4.305110e-001
    outer loop
      vertex -1.631451e+001 -8.500000e+000  1.587785e+001
      vertex -1.631451e+001  8.500000e+000  1.587785e+001
      vertex -1.788359e+001 -8.500000e+000  1.258819e+001
    endloop
  endfacet
  facet normal -9.025853e-001  0.000000e+000  4.305110e-001
    outer loop
      vertex -1.788359e+001 -8.500000e+000  1.258819e+001
      vertex -1.631451e+001  8.500000e+000  1.587785e+001
      vertex -1.788359e+001  8.500000e+000  1.258819e+001
    endloop
  endfacet
  facet normal -9.969174e-001  0.000000e+000  7.845923e-002
    outer loop
      vertex -1.788359e+001 -8.500000e+000  1.258819e+001
      vertex -1.788359e+001  8.500000e+000  1.258819e+001
      vertex -1.816956e+001 -8.500000e+000  8.954716e+000
    endloop
  endfacet
  facet normal -9.969174e-001  0.000000e+000  7.845923e-002
    outer loop
      vertex -1.816956e+001 -8.500000e+000  8.954716e+000
      vertex -1.788359e+001  8.500000e+000  1.258819e+001
      vertex -1.816956e+001  8.500000e+000  8.954716e+000
    endloop
  endfacet
  facet normal -9.588197e-001  -0.000000e+000 -2.840155e-001
    outer loop
      vertex -1.816956e+001 -8.500000e+000  8.954716e+000
      vertex -1.816956e+001  8.500000e+000  8.954716e+000
      vertex -1.713440e+001 -8.500000e+000  5.460095e+000
    endloop
  endfacet
  facet normal -9.588197e-001  0.000000e+000 -2.840155e-001
    outer loop
      vertex -1.713440e+001 -8.500000e+000  5.460095e+000
      vertex -1.816956e+001  8.500000e+000  8.954716e+000
      vertex -1.713440e+001  8.500000e+000  5.460095e+000
    endloop
  endfacet
  facet normal -7.933534e-001  -0.000000e+000 -6.087613e-001
    outer loop
      vertex -1.713440e+001 -8.500000e+000  5.460095e+000
      vertex -1.713440e+001  8.500000e+000  5.460095e+000
      vertex -1.491564e+001 -8.500000e+000  2.568552e+000
    endloop
  endfacet
  facet normal -7.933534e-001  0.000000e+000 -6.087613e-001
    outer loop
      vertex -1.491564e+001 -8.500000e+000  2.568552e+000
      vertex -1.713440e+001  8.500000e+000  5.460095e+000
      vertex -1.491564e+001  8.500000e+000  2.568552e+000
    endloop
  endfacet
  facet normal -5.224986e-001  -0.000000e+000 -8.526401e-001
    outer loop
      vertex -1.491564e+001 -8.500000e+000  2.568552e+000
      vertex -1.491564e+001  8.500000e+000  2.568552e+000
      vertex -1.180802e+001 -8.500000e+000  6.641957e-001
    endloop
  endfacet
  facet normal -5.224986e-001  0.000000e+000 -8.526401e-001
    outer loop
      vertex -1.180802e+001 -8.500000e+000  6.641957e-001
      vertex -1.491564e+001  8.500000e+000  2.568552e+000
      vertex -1.180802e+001  8.500000e+000  6.641957e-001
    endloop
  endfacet
  facet normal -1.822355e-001  -0.000000e+000 -9.832549e-001
    outer loop
      vertex -1.180802e+001 -8.500000e+000  6.641957e-001
      vertex -1.180802e+001  8.500000e+000  6.641957e-001
      vertex -8.224337e+000 -8.500000e+000  0.000000e+000
    endloop
  endfacet
  facet normal -1.822355e-001  0.000000e+000 -9.832549e-001
    outer loop
      vertex -8.224337e+000 -8.500000e+000  0.000000e+000
      vertex -1.180802e+001  8.500000e+000  6.641957e-001
      vertex -8.224337e+000  8.500000e+000  0.000000e+000
    endloop
  endfacet
  facet normal  0.000000e+000  1.000000e+000  0.000000e+000
    outer loop
      vertex -1.411806e+001  8.500000e+000  1.112429e+001
      vertex -1.403584e+001  8.500000e+000  8.507861e+000
      vertex -1.816956e+001  8.500000e+000  8.954716e+000
    endloop
  endfacet
  facet normal  0.000000e+000  9.999999e-001  0.000000e+000
    outer loop
      vertex -1.411806e+001  8.500000e+000  1.112429e+001
      vertex -1.816956e+001  8.500000e+000  8.954716e+000
      vertex -1.307844e+001  8.500000e+000  1.352671e+001
    endloop
  endfacet
  facet normal  0.000000e+000  1.000000e+000  0.000000e+000
    outer loop
      vertex -1.307844e+001  8.500000e+000  1.352671e+001
      vertex -1.816956e+001  8.500000e+000  8.954716e+000
      vertex -1.788359e+001  8.500000e+000  1.258819e+001
    endloop
  endfacet
  facet normal  0.000000e+000  1.000000e+000  0.000000e+000
    outer loop
      vertex -1.307844e+001  8.500000e+000  1.352671e+001
      vertex -1.788359e+001  8.500000e+000  1.258819e+001
      vertex -1.631451e+001  8.500000e+000  1.587785e+001
    endloop
  endfacet
  facet normal  0.000000e+000  1.000000e+000  0.000000e+000
    outer loop
      vertex -1.816956e+001  8.500000e+000  8.954716e+000
      vertex -1.403584e+001  8.500000e+000  8.507861e+000
      vertex -1.713440e+001  8.500000e+000  5.460095e+000
    endloop
  endfacet
  facet normal  0.000000e+000  1.000000e+000  0.000000e+000
    outer loop
      vertex -1.713440e+001  8.500000e+000  5.460095e+000
      vertex -1.403584e+001  8.500000e+000  8.507861e+000
      vertex -1.284742e+001  8.500000e+000  6.175456e+000
    endloop
  endfacet
  facet normal  0.000000e+000  1.000000e+000  0.000000e+000
    outer loop
      vertex -1.713440e+001  8.500000e+000  5.460095e+000
      vertex -1.284742e+001  8.500000e+000  6.175456e+000
      vertex -1.491564e+001  8.500000e+000  2.568552e+000
    endloop
  endfacet
  facet normal  0.000000e+000  9.999999e-001  0.000000e+000
    outer loop
      vertex -1.491564e+001  8.500000e+000  2.568552e+000
      vertex -1.284742e+001  8.500000e+000  6.175456e+000
      vertex -1.077901e+001  8.500000e+000  4.571038e+000
    endloop
  endfacet
  facet normal  0.000000e+000  1.000000e+000  0.000000e+000
    outer loop
      vertex -1.491564e+001  8.500000e+000  2.568552e+000
      vertex -1.077901e+001  8.500000e+000  4.571038e+000
      vertex -8.224337e+000  8.500000e+000  4.000000e+000
    endloop
  endfacet
  facet normal  -0.000000e+000  9.999999e-001  0.000000e+000
    outer loop
      vertex -8.224337e+000  8.500000e+000  0.000000e+000
      vertex -1.180802e+001  8.500000e+000  6.641957e-001
      vertex -8.224337e+000  8.500000e+000  4.000000e+000
    endloop
  endfacet
  facet normal  0.000000e+000  1.000000e+000  0.000000e+000
    outer loop
      vertex -8.224337e+000  8.500000e+000  4.000000e+000
      vertex -1.180802e+001  8.500000e+000  6.641957e-001
      vertex -1.491564e+001  8.500000e+000  2.568552e+000
    endloop
  endfacet
  facet normal -3.826834e-001  9.238796e-001  0.000000e+000
    outer loop
      vertex -5.000000e+000 -2.100000e+000  0.000000e+000
      vertex -3.515076e+000 -1.484924e+000  4.000000e+000
      vertex -3.515076e+000 -1.484924e+000  0.000000e+000
    endloop
  endfacet
  facet normal -9.238796e-001  3.826834e-001  0.000000e+000
    outer loop
      vertex -3.515076e+000 -1.484924e+000  0.000000e+000
      vertex -3.515076e+000 -1.484924e+000  4.000000e+000
      vertex -2.900000e+000  0.000000e+000  4.000000e+000
    endloop
  endfacet
  facet normal -9.238796e-001  3.826834e-001  0.000000e+000
    outer loop
      vertex -3.515076e+000 -1.484924e+000  0.000000e+000
      vertex -2.900000e+000  0.000000e+000  4.000000e+000
      vertex -2.900000e+000  0.000000e+000  0.000000e+000
    endloop
  endfacet
  facet normal -3.826834e-001  9.238796e-001  0.000000e+000
    outer loop
      vertex -3.515076e+000 -1.484924e+000  4.000000e+000
      vertex -5.000000e+000 -2.100000e+000  0.000000e+000
      vertex -5.000000e+000 -2.100000e+000  4.000000e+000
    endloop
  endfacet
  facet normal  3.826834e-001  9.238796e-001  0.000000e+000
    outer loop
      vertex -5.000000e+000 -2.100000e+000  4.000000e+000
      vertex -5.000000e+000 -2.100000e+000  0.000000e+000
      vertex -6.484924e+000 -1.484924e+000  0.000000e+000
    endloop
  endfacet
  facet normal  3.826834e-001  9.238796e-001  -0.000000e+000
    outer loop
      vertex -5.000000e+000 -2.100000e+000  4.000000e+000
      vertex -6.484924e+000 -1.484924e+000  0.000000e+000
      vertex -6.484924e+000 -1.484924e+000  4.000000e+000
    endloop
  endfacet
  facet normal  9.238796e-001  3.826834e-001  0.000000e+000
    outer loop
      vertex -6.484924e+000 -1.484924e+000  4.000000e+000
      vertex -6.484924e+000 -1.484924e+000  0.000000e+000
      vertex -7.100000e+000  2.571673e-016  0.000000e+000
    endloop
  endfacet
  facet normal  9.238796e-001  3.826834e-001  -0.000000e+000
    outer loop
      vertex -6.484924e+000 -1.484924e+000  4.000000e+000
      vertex -7.100000e+000  2.571673e-016  0.000000e+000
      vertex -7.100000e+000  2.571673e-016  4.000000e+000
    endloop
  endfacet
  facet normal  3.826834e-001 -9.238796e-001  0.000000e+000
    outer loop
      vertex -5.000000e+000  2.100000e+000  0.000000e+000
      vertex -6.484924e+000  1.484924e+000  4.000000e+000
      vertex -6.484924e+000  1.484924e+000  0.000000e+000
    endloop
  endfacet
  facet normal  9.238796e-001 -3.826834e-001  0.000000e+000
    outer loop
      vertex -6.484924e+000  1.484924e+000  0.000000e+000
      vertex -6.484924e+000  1.484924e+000  4.000000e+000
      vertex -7.100000e+000  2.571673e-016  4.000000e+000
    endloop
  endfacet
  facet normal  9.238796e-001 -3.826834e-001  0.000000e+000
    outer loop
      vertex -6.484924e+000  1.484924e+000  0.000000e+000
      vertex -7.100000e+000  2.571673e-016  4.000000e+000
      vertex -7.100000e+000  2.571673e-016  0.000000e+000
    endloop
  endfacet
  facet normal  3.826834e-001 -9.238796e-001  0.000000e+000
    outer loop
      vertex -6.484924e+000  1.484924e+000  4.000000e+000
      vertex -5.000000e+000  2.100000e+000  0.000000e+000
      vertex -5.000000e+000  2.100000e+000  4.000000e+000
    endloop
  endfacet
  facet normal -3.826834e-001 -9.238796e-001  -0.000000e+000
    outer loop
      vertex -5.000000e+000  2.100000e+000  4.000000e+000
      vertex -5.000000e+000  2.100000e+000  0.000000e+000
      vertex -3.515076e+000  1.484924e+000  0.000000e+000
    endloop
  endfacet
  facet normal -3.826834e-001 -9.238796e-001  0.000000e+000
    outer loop
      vertex -5.000000e+000  2.100000e+000  4.000000e+000
      vertex -3.515076e+000  1.484924e+000  0.000000e+000
      vertex -3.515076e+000  1.484924e+000  4.000000e+000
    endloop
  endfacet
  facet normal -9.238796e-001 -3.826834e-001  -0.000000e+000
    outer loop
      vertex -3.515076e+000  1.484924e+000  4.000000e+000
      vertex -3.515076e+000  1.484924e+000  0.000000e+000
      vertex -2.900000e+000  0.000000e+000  0.000000e+000
    endloop
  endfacet
  facet normal -9.238796e-001 -3.826834e-001  0.000000e+000
    outer loop
      vertex -3.515076e+000  1.484924e+000  4.000000e+000
      vertex -2.900000e+000  0.000000e+000  0.000000e+000
      vertex -2.900000e+000  0.000000e+000  4.000000e+000
    endloop
  endfacet
endsolid CATIA STL
