solid CATIA STL
  facet normal  0.000000e+000  1.000000e+000  0.000000e+000
    outer loop
      vertex  5.881435e+000  3.000000e+000  3.795882e+000
      vertex  1.036438e+000  3.000000e+000  6.922846e+000
      vertex  3.795882e+000  3.000000e+000  5.881435e+000
    endloop
  endfacet
  facet normal  0.000000e+000  9.999999e-001  0.000000e+000
    outer loop
      vertex -3.100000e+000  3.000000e+000  0.000000e+000
      vertex -2.507953e+000  3.000000e+000 -1.822134e+000
      vertex -2.823081e+001  3.000000e+000 -1.553629e+001
    endloop
  endfacet
  facet normal  0.000000e+000  1.000000e+000  0.000000e+000
    outer loop
      vertex  5.351896e+000  3.000000e+000 -4.511896e+000
      vertex -1.735443e+001  3.000000e+000 -3.144557e+001
      vertex -1.553629e+001  3.000000e+000 -2.823081e+001
    endloop
  endfacet
  facet normal  0.000000e+000  1.000000e+000  0.000000e+000
    outer loop
      vertex  5.351896e+000  3.000000e+000 -4.511896e+000
      vertex -1.553629e+001  3.000000e+000 -2.823081e+001
      vertex -1.500902e+001  3.000000e+000 -2.457535e+001
    endloop
  endfacet
  facet normal  0.000000e+000  1.000000e+000  0.000000e+000
    outer loop
      vertex  5.351896e+000  3.000000e+000 -4.511896e+000
      vertex -1.500902e+001  3.000000e+000 -2.457535e+001
      vertex -9.579527e-001  3.000000e+000 -2.948275e+000
    endloop
  endfacet
  facet normal  -0.000000e+000  9.999999e-001  0.000000e+000
    outer loop
      vertex  5.351896e+000  3.000000e+000 -4.511896e+000
      vertex -9.579527e-001  3.000000e+000 -2.948275e+000
      vertex  9.579527e-001  3.000000e+000 -2.948275e+000
    endloop
  endfacet
  facet normal  -0.000000e+000  9.999999e-001  0.000000e+000
    outer loop
      vertex  5.351896e+000  3.000000e+000 -4.511896e+000
      vertex  9.579527e-001  3.000000e+000 -2.948275e+000
      vertex  2.507953e+000  3.000000e+000 -1.822134e+000
    endloop
  endfacet
  facet normal  0.000000e+000  1.000000e+000  0.000000e+000
    outer loop
      vertex  5.351896e+000  3.000000e+000 -4.511896e+000
      vertex  2.507953e+000  3.000000e+000 -1.822134e+000
      vertex  6.735230e+000  3.000000e+000 -1.907006e+000
    endloop
  endfacet
  facet normal  0.000000e+000  1.000000e+000  -0.000000e+000
    outer loop
      vertex -9.579527e-001  3.000000e+000 -2.948275e+000
      vertex -1.500902e+001  3.000000e+000 -2.457535e+001
      vertex -1.584456e+001  3.000000e+000 -2.097782e+001
    endloop
  endfacet
  facet normal  0.000000e+000  1.000000e+000  -0.000000e+000
    outer loop
      vertex -9.579527e-001  3.000000e+000 -2.948275e+000
      vertex -1.584456e+001  3.000000e+000 -2.097782e+001
      vertex -1.792893e+001  3.000000e+000 -1.792893e+001
    endloop
  endfacet
  facet normal  0.000000e+000  1.000000e+000  -0.000000e+000
    outer loop
      vertex -9.579527e-001  3.000000e+000 -2.948275e+000
      vertex -1.792893e+001  3.000000e+000 -1.792893e+001
      vertex -2.097782e+001  3.000000e+000 -1.584456e+001
    endloop
  endfacet
  facet normal  0.000000e+000  1.000000e+000  -0.000000e+000
    outer loop
      vertex -9.579527e-001  3.000000e+000 -2.948275e+000
      vertex -2.097782e+001  3.000000e+000 -1.584456e+001
      vertex -2.457535e+001  3.000000e+000 -1.500902e+001
    endloop
  endfacet
  facet normal  0.000000e+000  1.000000e+000  -0.000000e+000
    outer loop
      vertex -9.579527e-001  3.000000e+000 -2.948275e+000
      vertex -2.457535e+001  3.000000e+000 -1.500902e+001
      vertex -2.823081e+001  3.000000e+000 -1.553629e+001
    endloop
  endfacet
  facet normal  0.000000e+000  1.000000e+000  0.000000e+000
    outer loop
      vertex -9.579527e-001  3.000000e+000 -2.948275e+000
      vertex -2.823081e+001  3.000000e+000 -1.553629e+001
      vertex -2.507953e+000  3.000000e+000 -1.822134e+000
    endloop
  endfacet
  facet normal  0.000000e+000  1.000000e+000  0.000000e+000
    outer loop
      vertex -3.144557e+001  3.000000e+000 -1.735443e+001
      vertex -4.511896e+000  3.000000e+000  5.351896e+000
      vertex -9.579527e-001  3.000000e+000  2.948275e+000
    endloop
  endfacet
  facet normal  0.000000e+000  1.000000e+000  0.000000e+000
    outer loop
      vertex -3.144557e+001  3.000000e+000 -1.735443e+001
      vertex -9.579527e-001  3.000000e+000  2.948275e+000
      vertex -2.507953e+000  3.000000e+000  1.822134e+000
    endloop
  endfacet
  facet normal  0.000000e+000  1.000000e+000  0.000000e+000
    outer loop
      vertex -3.144557e+001  3.000000e+000 -1.735443e+001
      vertex -2.507953e+000  3.000000e+000  1.822134e+000
      vertex -3.100000e+000  3.000000e+000  0.000000e+000
    endloop
  endfacet
  facet normal  0.000000e+000  1.000000e+000  0.000000e+000
    outer loop
      vertex -3.144557e+001  3.000000e+000 -1.735443e+001
      vertex -3.100000e+000  3.000000e+000  0.000000e+000
      vertex -2.823081e+001  3.000000e+000 -1.553629e+001
    endloop
  endfacet
  facet normal  0.000000e+000  1.000000e+000  0.000000e+000
    outer loop
      vertex -4.511896e+000  3.000000e+000  5.351896e+000
      vertex -1.907006e+000  3.000000e+000  6.735230e+000
      vertex -9.579527e-001  3.000000e+000  2.948275e+000
    endloop
  endfacet
  facet normal  0.000000e+000  1.000000e+000  -0.000000e+000
    outer loop
      vertex -9.579527e-001  3.000000e+000  2.948275e+000
      vertex -1.907006e+000  3.000000e+000  6.735230e+000
      vertex  1.036438e+000  3.000000e+000  6.922846e+000
    endloop
  endfacet
  facet normal  0.000000e+000  1.000000e+000  0.000000e+000
    outer loop
      vertex -9.579527e-001  3.000000e+000  2.948275e+000
      vertex  1.036438e+000  3.000000e+000  6.922846e+000
      vertex  9.579527e-001  3.000000e+000  2.948275e+000
    endloop
  endfacet
  facet normal  0.000000e+000  1.000000e+000  0.000000e+000
    outer loop
      vertex  9.579527e-001  3.000000e+000  2.948275e+000
      vertex  1.036438e+000  3.000000e+000  6.922846e+000
      vertex  5.881435e+000  3.000000e+000  3.795882e+000
    endloop
  endfacet
  facet normal  0.000000e+000  1.000000e+000  0.000000e+000
    outer loop
      vertex  9.579527e-001  3.000000e+000  2.948275e+000
      vertex  5.881435e+000  3.000000e+000  3.795882e+000
      vertex  2.507953e+000  3.000000e+000  1.822134e+000
    endloop
  endfacet
  facet normal  -0.000000e+000  1.000000e+000  0.000000e+000
    outer loop
      vertex  2.507953e+000  3.000000e+000  1.822134e+000
      vertex  5.881435e+000  3.000000e+000  3.795882e+000
      vertex  6.922846e+000  3.000000e+000  1.036438e+000
    endloop
  endfacet
  facet normal  0.000000e+000  1.000000e+000  0.000000e+000
    outer loop
      vertex  2.507953e+000  3.000000e+000  1.822134e+000
      vertex  6.922846e+000  3.000000e+000  1.036438e+000
      vertex  3.100000e+000  3.000000e+000  3.796280e-016
    endloop
  endfacet
  facet normal  -0.000000e+000  9.999999e-001  0.000000e+000
    outer loop
      vertex  3.100000e+000  3.000000e+000  3.796280e-016
      vertex  6.922846e+000  3.000000e+000  1.036438e+000
      vertex  6.735230e+000  3.000000e+000 -1.907006e+000
    endloop
  endfacet
  facet normal  0.000000e+000  1.000000e+000  0.000000e+000
    outer loop
      vertex  3.100000e+000  3.000000e+000  3.796280e-016
      vertex  6.735230e+000  3.000000e+000 -1.907006e+000
      vertex  2.507953e+000  3.000000e+000 -1.822134e+000
    endloop
  endfacet
  facet normal  0.000000e+000 -1.000000e+000  0.000000e+000
    outer loop
      vertex  3.795882e+000  0.000000e+000  5.881435e+000
      vertex  1.036438e+000  0.000000e+000  6.922846e+000
      vertex  5.881435e+000  0.000000e+000  3.795882e+000
    endloop
  endfacet
  facet normal  -0.000000e+000 -9.999999e-001  0.000000e+000
    outer loop
      vertex -2.823081e+001  0.000000e+000 -1.553629e+001
      vertex -2.507953e+000  0.000000e+000 -1.822134e+000
      vertex -3.100000e+000  0.000000e+000  0.000000e+000
    endloop
  endfacet
  facet normal  -0.000000e+000 -1.000000e+000  0.000000e+000
    outer loop
      vertex  5.351896e+000  0.000000e+000 -4.511896e+000
      vertex  6.735230e+000  0.000000e+000 -1.907006e+000
      vertex  2.507953e+000  0.000000e+000 -1.822134e+000
    endloop
  endfacet
  facet normal  0.000000e+000 -9.999999e-001  -0.000000e+000
    outer loop
      vertex  5.351896e+000  0.000000e+000 -4.511896e+000
      vertex  2.507953e+000  0.000000e+000 -1.822134e+000
      vertex  9.579527e-001  0.000000e+000 -2.948275e+000
    endloop
  endfacet
  facet normal  -0.000000e+000 -9.999999e-001  -0.000000e+000
    outer loop
      vertex  5.351896e+000  0.000000e+000 -4.511896e+000
      vertex  9.579527e-001  0.000000e+000 -2.948275e+000
      vertex -9.579527e-001  0.000000e+000 -2.948275e+000
    endloop
  endfacet
  facet normal  0.000000e+000 -1.000000e+000  -0.000000e+000
    outer loop
      vertex  5.351896e+000  0.000000e+000 -4.511896e+000
      vertex -9.579527e-001  0.000000e+000 -2.948275e+000
      vertex -1.500902e+001  0.000000e+000 -2.457535e+001
    endloop
  endfacet
  facet normal  0.000000e+000 -1.000000e+000  -0.000000e+000
    outer loop
      vertex  5.351896e+000  0.000000e+000 -4.511896e+000
      vertex -1.500902e+001  0.000000e+000 -2.457535e+001
      vertex -1.553629e+001  0.000000e+000 -2.823081e+001
    endloop
  endfacet
  facet normal  0.000000e+000 -1.000000e+000  -0.000000e+000
    outer loop
      vertex  5.351896e+000  0.000000e+000 -4.511896e+000
      vertex -1.553629e+001  0.000000e+000 -2.823081e+001
      vertex -1.735443e+001  0.000000e+000 -3.144557e+001
    endloop
  endfacet
  facet normal  0.000000e+000 -1.000000e+000  -0.000000e+000
    outer loop
      vertex -9.579527e-001  0.000000e+000 -2.948275e+000
      vertex -2.507953e+000  0.000000e+000 -1.822134e+000
      vertex -2.823081e+001  0.000000e+000 -1.553629e+001
    endloop
  endfacet
  facet normal  0.000000e+000 -1.000000e+000  0.000000e+000
    outer loop
      vertex -9.579527e-001  0.000000e+000 -2.948275e+000
      vertex -2.823081e+001  0.000000e+000 -1.553629e+001
      vertex -2.457535e+001  0.000000e+000 -1.500902e+001
    endloop
  endfacet
  facet normal  0.000000e+000 -1.000000e+000  0.000000e+000
    outer loop
      vertex -9.579527e-001  0.000000e+000 -2.948275e+000
      vertex -2.457535e+001  0.000000e+000 -1.500902e+001
      vertex -2.097782e+001  0.000000e+000 -1.584456e+001
    endloop
  endfacet
  facet normal  0.000000e+000 -1.000000e+000  0.000000e+000
    outer loop
      vertex -9.579527e-001  0.000000e+000 -2.948275e+000
      vertex -2.097782e+001  0.000000e+000 -1.584456e+001
      vertex -1.792893e+001  0.000000e+000 -1.792893e+001
    endloop
  endfacet
  facet normal  0.000000e+000 -1.000000e+000  0.000000e+000
    outer loop
      vertex -9.579527e-001  0.000000e+000 -2.948275e+000
      vertex -1.792893e+001  0.000000e+000 -1.792893e+001
      vertex -1.584456e+001  0.000000e+000 -2.097782e+001
    endloop
  endfacet
  facet normal  0.000000e+000 -1.000000e+000  0.000000e+000
    outer loop
      vertex -9.579527e-001  0.000000e+000 -2.948275e+000
      vertex -1.584456e+001  0.000000e+000 -2.097782e+001
      vertex -1.500902e+001  0.000000e+000 -2.457535e+001
    endloop
  endfacet
  facet normal  -0.000000e+000 -1.000000e+000  0.000000e+000
    outer loop
      vertex -3.144557e+001  0.000000e+000 -1.735443e+001
      vertex -2.823081e+001  0.000000e+000 -1.553629e+001
      vertex -3.100000e+000  0.000000e+000  0.000000e+000
    endloop
  endfacet
  facet normal  -0.000000e+000 -1.000000e+000  0.000000e+000
    outer loop
      vertex -3.144557e+001  0.000000e+000 -1.735443e+001
      vertex -3.100000e+000  0.000000e+000  0.000000e+000
      vertex -2.507953e+000  0.000000e+000  1.822134e+000
    endloop
  endfacet
  facet normal  -0.000000e+000 -1.000000e+000  0.000000e+000
    outer loop
      vertex -3.144557e+001  0.000000e+000 -1.735443e+001
      vertex -2.507953e+000  0.000000e+000  1.822134e+000
      vertex -9.579527e-001  0.000000e+000  2.948275e+000
    endloop
  endfacet
  facet normal  -0.000000e+000 -1.000000e+000  0.000000e+000
    outer loop
      vertex -3.144557e+001  0.000000e+000 -1.735443e+001
      vertex -9.579527e-001  0.000000e+000  2.948275e+000
      vertex -4.511896e+000  0.000000e+000  5.351896e+000
    endloop
  endfacet
  facet normal  0.000000e+000 -1.000000e+000  0.000000e+000
    outer loop
      vertex  2.507953e+000  0.000000e+000 -1.822134e+000
      vertex  6.735230e+000  0.000000e+000 -1.907006e+000
      vertex  3.100000e+000  0.000000e+000  3.796280e-016
    endloop
  endfacet
  facet normal  0.000000e+000 -9.999999e-001  0.000000e+000
    outer loop
      vertex  3.100000e+000  0.000000e+000  3.796280e-016
      vertex  6.735230e+000  0.000000e+000 -1.907006e+000
      vertex  6.922846e+000  0.000000e+000  1.036438e+000
    endloop
  endfacet
  facet normal  -0.000000e+000 -1.000000e+000  0.000000e+000
    outer loop
      vertex  3.100000e+000  0.000000e+000  3.796280e-016
      vertex  6.922846e+000  0.000000e+000  1.036438e+000
      vertex  2.507953e+000  0.000000e+000  1.822134e+000
    endloop
  endfacet
  facet normal  0.000000e+000 -1.000000e+000  0.000000e+000
    outer loop
      vertex  2.507953e+000  0.000000e+000  1.822134e+000
      vertex  6.922846e+000  0.000000e+000  1.036438e+000
      vertex  5.881435e+000  0.000000e+000  3.795882e+000
    endloop
  endfacet
  facet normal  0.000000e+000 -1.000000e+000  0.000000e+000
    outer loop
      vertex  2.507953e+000  0.000000e+000  1.822134e+000
      vertex  5.881435e+000  0.000000e+000  3.795882e+000
      vertex  9.579527e-001  0.000000e+000  2.948275e+000
    endloop
  endfacet
  facet normal  0.000000e+000 -1.000000e+000  0.000000e+000
    outer loop
      vertex  9.579527e-001  0.000000e+000  2.948275e+000
      vertex  5.881435e+000  0.000000e+000  3.795882e+000
      vertex  1.036438e+000  0.000000e+000  6.922846e+000
    endloop
  endfacet
  facet normal  0.000000e+000 -1.000000e+000  0.000000e+000
    outer loop
      vertex  9.579527e-001  0.000000e+000  2.948275e+000
      vertex  1.036438e+000  0.000000e+000  6.922846e+000
      vertex -9.579527e-001  0.000000e+000  2.948275e+000
    endloop
  endfacet
  facet normal  0.000000e+000 -1.000000e+000  0.000000e+000
    outer loop
      vertex -9.579527e-001  0.000000e+000  2.948275e+000
      vertex  1.036438e+000  0.000000e+000  6.922846e+000
      vertex -1.907006e+000  0.000000e+000  6.735230e+000
    endloop
  endfacet
  facet normal  0.000000e+000 -1.000000e+000  -0.000000e+000
    outer loop
      vertex -9.579527e-001  0.000000e+000  2.948275e+000
      vertex -1.907006e+000  0.000000e+000  6.735230e+000
      vertex -4.511896e+000  0.000000e+000  5.351896e+000
    endloop
  endfacet
  facet normal -5.877853e-001  -0.000000e+000 -8.090171e-001
    outer loop
      vertex  9.579527e-001  0.000000e+000  2.948275e+000
      vertex  2.507953e+000  3.000000e+000  1.822134e+000
      vertex  2.507953e+000  0.000000e+000  1.822134e+000
    endloop
  endfacet
  facet normal -9.510566e-001  0.000000e+000 -3.090169e-001
    outer loop
      vertex  2.507953e+000  0.000000e+000  1.822134e+000
      vertex  2.507953e+000  3.000000e+000  1.822134e+000
      vertex  3.100000e+000  3.000000e+000  3.796280e-016
    endloop
  endfacet
  facet normal -9.510566e-001  -0.000000e+000 -3.090169e-001
    outer loop
      vertex  2.507953e+000  0.000000e+000  1.822134e+000
      vertex  3.100000e+000  3.000000e+000  3.796280e-016
      vertex  3.100000e+000  0.000000e+000  3.796280e-016
    endloop
  endfacet
  facet normal -5.877853e-001  0.000000e+000 -8.090171e-001
    outer loop
      vertex  2.507953e+000  3.000000e+000  1.822134e+000
      vertex  9.579527e-001  0.000000e+000  2.948275e+000
      vertex  9.579527e-001  3.000000e+000  2.948275e+000
    endloop
  endfacet
  facet normal  0.000000e+000  -0.000000e+000 -1.000000e+000
    outer loop
      vertex  9.579527e-001  3.000000e+000  2.948275e+000
      vertex  9.579527e-001  0.000000e+000  2.948275e+000
      vertex -9.579527e-001  0.000000e+000  2.948275e+000
    endloop
  endfacet
  facet normal  0.000000e+000  0.000000e+000 -1.000000e+000
    outer loop
      vertex  9.579527e-001  3.000000e+000  2.948275e+000
      vertex -9.579527e-001  0.000000e+000  2.948275e+000
      vertex -9.579527e-001  3.000000e+000  2.948275e+000
    endloop
  endfacet
  facet normal  5.877853e-001  0.000000e+000 -8.090171e-001
    outer loop
      vertex -9.579527e-001  3.000000e+000  2.948275e+000
      vertex -9.579527e-001  0.000000e+000  2.948275e+000
      vertex -2.507953e+000  0.000000e+000  1.822134e+000
    endloop
  endfacet
  facet normal  5.877853e-001  0.000000e+000 -8.090171e-001
    outer loop
      vertex -9.579527e-001  3.000000e+000  2.948275e+000
      vertex -2.507953e+000  0.000000e+000  1.822134e+000
      vertex -2.507953e+000  3.000000e+000  1.822134e+000
    endloop
  endfacet
  facet normal  9.510566e-001  0.000000e+000 -3.090169e-001
    outer loop
      vertex -2.507953e+000  3.000000e+000  1.822134e+000
      vertex -2.507953e+000  0.000000e+000  1.822134e+000
      vertex -3.100000e+000  0.000000e+000  0.000000e+000
    endloop
  endfacet
  facet normal  9.510566e-001  0.000000e+000 -3.090169e-001
    outer loop
      vertex -2.507953e+000  3.000000e+000  1.822134e+000
      vertex -3.100000e+000  0.000000e+000  0.000000e+000
      vertex -3.100000e+000  3.000000e+000  0.000000e+000
    endloop
  endfacet
  facet normal  5.877853e-001  0.000000e+000  8.090171e-001
    outer loop
      vertex -9.579527e-001  0.000000e+000 -2.948275e+000
      vertex -2.507953e+000  3.000000e+000 -1.822134e+000
      vertex -2.507953e+000  0.000000e+000 -1.822134e+000
    endloop
  endfacet
  facet normal  9.510566e-001  -0.000000e+000  3.090169e-001
    outer loop
      vertex -2.507953e+000  0.000000e+000 -1.822134e+000
      vertex -2.507953e+000  3.000000e+000 -1.822134e+000
      vertex -3.100000e+000  3.000000e+000  0.000000e+000
    endloop
  endfacet
  facet normal  9.510566e-001  0.000000e+000  3.090169e-001
    outer loop
      vertex -2.507953e+000  0.000000e+000 -1.822134e+000
      vertex -3.100000e+000  3.000000e+000  0.000000e+000
      vertex -3.100000e+000  0.000000e+000  0.000000e+000
    endloop
  endfacet
  facet normal  5.877853e-001  -0.000000e+000  8.090171e-001
    outer loop
      vertex -2.507953e+000  3.000000e+000 -1.822134e+000
      vertex -9.579527e-001  0.000000e+000 -2.948275e+000
      vertex -9.579527e-001  3.000000e+000 -2.948275e+000
    endloop
  endfacet
  facet normal  0.000000e+000  0.000000e+000  1.000000e+000
    outer loop
      vertex -9.579527e-001  3.000000e+000 -2.948275e+000
      vertex -9.579527e-001  0.000000e+000 -2.948275e+000
      vertex  9.579527e-001  0.000000e+000 -2.948275e+000
    endloop
  endfacet
  facet normal  0.000000e+000  -0.000000e+000  1.000000e+000
    outer loop
      vertex -9.579527e-001  3.000000e+000 -2.948275e+000
      vertex  9.579527e-001  0.000000e+000 -2.948275e+000
      vertex  9.579527e-001  3.000000e+000 -2.948275e+000
    endloop
  endfacet
  facet normal -5.877853e-001  0.000000e+000  8.090171e-001
    outer loop
      vertex  9.579527e-001  3.000000e+000 -2.948275e+000
      vertex  9.579527e-001  0.000000e+000 -2.948275e+000
      vertex  2.507953e+000  0.000000e+000 -1.822134e+000
    endloop
  endfacet
  facet normal -5.877853e-001  0.000000e+000  8.090171e-001
    outer loop
      vertex  9.579527e-001  3.000000e+000 -2.948275e+000
      vertex  2.507953e+000  0.000000e+000 -1.822134e+000
      vertex  2.507953e+000  3.000000e+000 -1.822134e+000
    endloop
  endfacet
  facet normal -9.510566e-001  0.000000e+000  3.090169e-001
    outer loop
      vertex  2.507953e+000  3.000000e+000 -1.822134e+000
      vertex  2.507953e+000  0.000000e+000 -1.822134e+000
      vertex  3.100000e+000  0.000000e+000  3.796280e-016
    endloop
  endfacet
  facet normal -9.510566e-001  0.000000e+000  3.090169e-001
    outer loop
      vertex  2.507953e+000  3.000000e+000 -1.822134e+000
      vertex  3.100000e+000  0.000000e+000  3.796280e-016
      vertex  3.100000e+000  3.000000e+000  3.796280e-016
    endloop
  endfacet
  facet normal -6.445566e-001  0.000000e+000  7.645566e-001
    outer loop
      vertex -4.511896e+000  3.000000e+000  5.351896e+000
      vertex -3.144557e+001  3.000000e+000 -1.735443e+001
      vertex -4.511896e+000  0.000000e+000  5.351896e+000
    endloop
  endfacet
  facet normal -6.445566e-001  0.000000e+000  7.645566e-001
    outer loop
      vertex -4.511896e+000  0.000000e+000  5.351896e+000
      vertex -3.144557e+001  3.000000e+000 -1.735443e+001
      vertex -3.144557e+001  0.000000e+000 -1.735443e+001
    endloop
  endfacet
  facet normal -8.255231e-001  -0.000000e+000 -5.643684e-001
    outer loop
      vertex -1.792893e+001  0.000000e+000 -1.792893e+001
      vertex -1.584456e+001  3.000000e+000 -2.097782e+001
      vertex -1.584456e+001  0.000000e+000 -2.097782e+001
    endloop
  endfacet
  facet normal -9.740734e-001  0.000000e+000 -2.262322e-001
    outer loop
      vertex -1.584456e+001  0.000000e+000 -2.097782e+001
      vertex -1.584456e+001  3.000000e+000 -2.097782e+001
      vertex -1.500902e+001  3.000000e+000 -2.457535e+001
    endloop
  endfacet
  facet normal -9.740734e-001  -0.000000e+000 -2.262322e-001
    outer loop
      vertex -1.584456e+001  0.000000e+000 -2.097782e+001
      vertex -1.500902e+001  3.000000e+000 -2.457535e+001
      vertex -1.500902e+001  0.000000e+000 -2.457535e+001
    endloop
  endfacet
  facet normal -9.897568e-001  0.000000e+000  1.427633e-001
    outer loop
      vertex -1.500902e+001  0.000000e+000 -2.457535e+001
      vertex -1.500902e+001  3.000000e+000 -2.457535e+001
      vertex -1.553629e+001  3.000000e+000 -2.823081e+001
    endloop
  endfacet
  facet normal -9.897568e-001  0.000000e+000  1.427633e-001
    outer loop
      vertex -1.500902e+001  0.000000e+000 -2.457535e+001
      vertex -1.553629e+001  3.000000e+000 -2.823081e+001
      vertex -1.553629e+001  0.000000e+000 -2.823081e+001
    endloop
  endfacet
  facet normal -8.704339e-001  0.000000e+000  4.922853e-001
    outer loop
      vertex -1.553629e+001  0.000000e+000 -2.823081e+001
      vertex -1.553629e+001  3.000000e+000 -2.823081e+001
      vertex -1.735443e+001  3.000000e+000 -3.144557e+001
    endloop
  endfacet
  facet normal -8.704339e-001  0.000000e+000  4.922853e-001
    outer loop
      vertex -1.553629e+001  0.000000e+000 -2.823081e+001
      vertex -1.735443e+001  3.000000e+000 -3.144557e+001
      vertex -1.735443e+001  0.000000e+000 -3.144557e+001
    endloop
  endfacet
  facet normal -8.255231e-001  0.000000e+000 -5.643684e-001
    outer loop
      vertex -1.584456e+001  3.000000e+000 -2.097782e+001
      vertex -1.792893e+001  0.000000e+000 -1.792893e+001
      vertex -1.792893e+001  3.000000e+000 -1.792893e+001
    endloop
  endfacet
  facet normal -5.643684e-001  -0.000000e+000 -8.255231e-001
    outer loop
      vertex -1.792893e+001  3.000000e+000 -1.792893e+001
      vertex -1.792893e+001  0.000000e+000 -1.792893e+001
      vertex -2.097782e+001  0.000000e+000 -1.584456e+001
    endloop
  endfacet
  facet normal -5.643684e-001  0.000000e+000 -8.255231e-001
    outer loop
      vertex -1.792893e+001  3.000000e+000 -1.792893e+001
      vertex -2.097782e+001  0.000000e+000 -1.584456e+001
      vertex -2.097782e+001  3.000000e+000 -1.584456e+001
    endloop
  endfacet
  facet normal -2.262322e-001  -0.000000e+000 -9.740734e-001
    outer loop
      vertex -2.097782e+001  3.000000e+000 -1.584456e+001
      vertex -2.097782e+001  0.000000e+000 -1.584456e+001
      vertex -2.457535e+001  0.000000e+000 -1.500902e+001
    endloop
  endfacet
  facet normal -2.262322e-001  0.000000e+000 -9.740734e-001
    outer loop
      vertex -2.097782e+001  3.000000e+000 -1.584456e+001
      vertex -2.457535e+001  0.000000e+000 -1.500902e+001
      vertex -2.457535e+001  3.000000e+000 -1.500902e+001
    endloop
  endfacet
  facet normal  1.427633e-001  0.000000e+000 -9.897568e-001
    outer loop
      vertex -2.457535e+001  3.000000e+000 -1.500902e+001
      vertex -2.457535e+001  0.000000e+000 -1.500902e+001
      vertex -2.823081e+001  0.000000e+000 -1.553629e+001
    endloop
  endfacet
  facet normal  1.427633e-001  0.000000e+000 -9.897568e-001
    outer loop
      vertex -2.457535e+001  3.000000e+000 -1.500902e+001
      vertex -2.823081e+001  0.000000e+000 -1.553629e+001
      vertex -2.823081e+001  3.000000e+000 -1.553629e+001
    endloop
  endfacet
  facet normal  4.922853e-001  0.000000e+000 -8.704339e-001
    outer loop
      vertex -2.823081e+001  3.000000e+000 -1.553629e+001
      vertex -2.823081e+001  0.000000e+000 -1.553629e+001
      vertex -3.144557e+001  0.000000e+000 -1.735443e+001
    endloop
  endfacet
  facet normal  4.922853e-001  0.000000e+000 -8.704339e-001
    outer loop
      vertex -2.823081e+001  3.000000e+000 -1.553629e+001
      vertex -3.144557e+001  0.000000e+000 -1.735443e+001
      vertex -3.144557e+001  3.000000e+000 -1.735443e+001
    endloop
  endfacet
  facet normal  7.645566e-001  0.000000e+000 -6.445566e-001
    outer loop
      vertex -1.735443e+001  3.000000e+000 -3.144557e+001
      vertex  5.351896e+000  3.000000e+000 -4.511896e+000
      vertex -1.735443e+001  0.000000e+000 -3.144557e+001
    endloop
  endfacet
  facet normal  7.645566e-001  0.000000e+000 -6.445566e-001
    outer loop
      vertex -1.735443e+001  0.000000e+000 -3.144557e+001
      vertex  5.351896e+000  3.000000e+000 -4.511896e+000
      vertex  5.351896e+000  0.000000e+000 -4.511896e+000
    endloop
  endfacet
  facet normal  8.831878e-001  0.000000e+000 -4.690194e-001
    outer loop
      vertex  5.351896e+000  0.000000e+000 -4.511896e+000
      vertex  5.351896e+000  3.000000e+000 -4.511896e+000
      vertex  6.735230e+000  0.000000e+000 -1.907006e+000
    endloop
  endfacet
  facet normal  8.831878e-001  0.000000e+000 -4.690194e-001
    outer loop
      vertex  6.735230e+000  0.000000e+000 -1.907006e+000
      vertex  5.351896e+000  3.000000e+000 -4.511896e+000
      vertex  6.735230e+000  3.000000e+000 -1.907006e+000
    endloop
  endfacet
  facet normal  9.979748e-001  0.000000e+000 -6.361099e-002
    outer loop
      vertex  6.735230e+000  0.000000e+000 -1.907006e+000
      vertex  6.735230e+000  3.000000e+000 -1.907006e+000
      vertex  6.922846e+000  0.000000e+000  1.036438e+000
    endloop
  endfacet
  facet normal  9.979748e-001  0.000000e+000 -6.361099e-002
    outer loop
      vertex  6.922846e+000  0.000000e+000  1.036438e+000
      vertex  6.735230e+000  3.000000e+000 -1.907006e+000
      vertex  6.922846e+000  3.000000e+000  1.036438e+000
    endloop
  endfacet
  facet normal  9.355893e-001  0.000000e+000  3.530901e-001
    outer loop
      vertex  6.922846e+000  0.000000e+000  1.036438e+000
      vertex  6.922846e+000  3.000000e+000  1.036438e+000
      vertex  5.881435e+000  0.000000e+000  3.795882e+000
    endloop
  endfacet
  facet normal  9.355893e-001  -0.000000e+000  3.530901e-001
    outer loop
      vertex  5.881435e+000  0.000000e+000  3.795882e+000
      vertex  6.922846e+000  3.000000e+000  1.036438e+000
      vertex  5.881435e+000  3.000000e+000  3.795882e+000
    endloop
  endfacet
  facet normal  7.071068e-001  0.000000e+000  7.071068e-001
    outer loop
      vertex  5.881435e+000  0.000000e+000  3.795882e+000
      vertex  5.881435e+000  3.000000e+000  3.795882e+000
      vertex  3.795882e+000  0.000000e+000  5.881435e+000
    endloop
  endfacet
  facet normal  7.071068e-001  -0.000000e+000  7.071068e-001
    outer loop
      vertex  3.795882e+000  0.000000e+000  5.881435e+000
      vertex  5.881435e+000  3.000000e+000  3.795882e+000
      vertex  3.795882e+000  3.000000e+000  5.881435e+000
    endloop
  endfacet
  facet normal  3.530901e-001  0.000000e+000  9.355893e-001
    outer loop
      vertex  3.795882e+000  0.000000e+000  5.881435e+000
      vertex  3.795882e+000  3.000000e+000  5.881435e+000
      vertex  1.036438e+000  0.000000e+000  6.922846e+000
    endloop
  endfacet
  facet normal  3.530901e-001  -0.000000e+000  9.355893e-001
    outer loop
      vertex  1.036438e+000  0.000000e+000  6.922846e+000
      vertex  3.795882e+000  3.000000e+000  5.881435e+000
      vertex  1.036438e+000  3.000000e+000  6.922846e+000
    endloop
  endfacet
  facet normal -6.361099e-002  0.000000e+000  9.979748e-001
    outer loop
      vertex  1.036438e+000  0.000000e+000  6.922846e+000
      vertex  1.036438e+000  3.000000e+000  6.922846e+000
      vertex -1.907006e+000  0.000000e+000  6.735230e+000
    endloop
  endfacet
  facet normal -6.361099e-002  0.000000e+000  9.979748e-001
    outer loop
      vertex -1.907006e+000  0.000000e+000  6.735230e+000
      vertex  1.036438e+000  3.000000e+000  6.922846e+000
      vertex -1.907006e+000  3.000000e+000  6.735230e+000
    endloop
  endfacet
  facet normal -4.690194e-001  0.000000e+000  8.831878e-001
    outer loop
      vertex -1.907006e+000  0.000000e+000  6.735230e+000
      vertex -1.907006e+000  3.000000e+000  6.735230e+000
      vertex -4.511896e+000  0.000000e+000  5.351896e+000
    endloop
  endfacet
  facet normal -4.690194e-001  0.000000e+000  8.831878e-001
    outer loop
      vertex -4.511896e+000  0.000000e+000  5.351896e+000
      vertex -1.907006e+000  3.000000e+000  6.735230e+000
      vertex -4.511896e+000  3.000000e+000  5.351896e+000
    endloop
  endfacet
endsolid CATIA STL
