solid CATIA STL
  facet normal  1.000000e+000  0.000000e+000  0.000000e+000
    outer loop
      vertex  1.500000e+000 -3.747689e+000  1.339815e+001
      vertex  1.500000e+000 -6.134649e+000  7.000000e+000
      vertex  1.500000e+000 -1.414214e+000  1.141421e+001
    endloop
  endfacet
  facet normal  1.000000e+000  0.000000e+000  -0.000000e+000
    outer loop
      vertex  1.500000e+000 -3.747689e+000  1.339815e+001
      vertex  1.500000e+000 -1.414214e+000  1.141421e+001
      vertex  1.500000e+000  1.224606e-016  1.200000e+001
    endloop
  endfacet
  facet normal  1.000000e+000  0.000000e+000  -0.000000e+000
    outer loop
      vertex  1.500000e+000 -3.747689e+000  1.339815e+001
      vertex  1.500000e+000  1.224606e-016  1.200000e+001
      vertex  1.500000e+000  2.909457e-015  1.600000e+001
    endloop
  endfacet
  facet normal  1.000000e+000  0.000000e+000  0.000000e+000
    outer loop
      vertex  1.500000e+000 -3.747689e+000  1.339815e+001
      vertex  1.500000e+000  2.909457e-015  1.600000e+001
      vertex  1.500000e+000 -2.281162e+000  1.528577e+001
    endloop
  endfacet
  facet normal  1.000000e+000  0.000000e+000  0.000000e+000
    outer loop
      vertex  1.500000e+000  3.747689e+000  1.339815e+001
      vertex  1.500000e+000  2.281162e+000  1.528577e+001
      vertex  1.500000e+000  2.909457e-015  1.600000e+001
    endloop
  endfacet
  facet normal  1.000000e+000  0.000000e+000  0.000000e+000
    outer loop
      vertex  1.500000e+000  3.747689e+000  1.339815e+001
      vertex  1.500000e+000  2.909457e-015  1.600000e+001
      vertex  1.500000e+000  1.224606e-016  1.200000e+001
    endloop
  endfacet
  facet normal  1.000000e+000  -0.000000e+000  0.000000e+000
    outer loop
      vertex  1.500000e+000  3.747689e+000  1.339815e+001
      vertex  1.500000e+000  1.224606e-016  1.200000e+001
      vertex  1.500000e+000  1.414214e+000  1.141421e+001
    endloop
  endfacet
  facet normal  1.000000e+000  -0.000000e+000  0.000000e+000
    outer loop
      vertex  1.500000e+000  3.747689e+000  1.339815e+001
      vertex  1.500000e+000  1.414214e+000  1.141421e+001
      vertex  1.500000e+000  6.134649e+000  7.000000e+000
    endloop
  endfacet
  facet normal  9.999999e-001  0.000000e+000  0.000000e+000
    outer loop
      vertex  1.500000e+000 -6.134649e+000  7.000000e+000
      vertex  1.500000e+000  6.134649e+000  7.000000e+000
      vertex  1.500000e+000 -3.673819e-016  8.000000e+000
    endloop
  endfacet
  facet normal  1.000000e+000  0.000000e+000  0.000000e+000
    outer loop
      vertex  1.500000e+000 -6.134649e+000  7.000000e+000
      vertex  1.500000e+000 -3.673819e-016  8.000000e+000
      vertex  1.500000e+000 -1.414214e+000  8.585787e+000
    endloop
  endfacet
  facet normal  1.000000e+000  0.000000e+000  0.000000e+000
    outer loop
      vertex  1.500000e+000 -6.134649e+000  7.000000e+000
      vertex  1.500000e+000 -1.414214e+000  8.585787e+000
      vertex  1.500000e+000 -2.000000e+000  1.000000e+001
    endloop
  endfacet
  facet normal  1.000000e+000  0.000000e+000  -0.000000e+000
    outer loop
      vertex  1.500000e+000 -6.134649e+000  7.000000e+000
      vertex  1.500000e+000 -2.000000e+000  1.000000e+001
      vertex  1.500000e+000 -1.414214e+000  1.141421e+001
    endloop
  endfacet
  facet normal  1.000000e+000  0.000000e+000  0.000000e+000
    outer loop
      vertex  1.500000e+000  6.134649e+000  7.000000e+000
      vertex  1.500000e+000  1.414214e+000  1.141421e+001
      vertex  1.500000e+000  2.000000e+000  1.000000e+001
    endloop
  endfacet
  facet normal  1.000000e+000  0.000000e+000  0.000000e+000
    outer loop
      vertex  1.500000e+000  6.134649e+000  7.000000e+000
      vertex  1.500000e+000  2.000000e+000  1.000000e+001
      vertex  1.500000e+000  1.414214e+000  8.585787e+000
    endloop
  endfacet
  facet normal  1.000000e+000  0.000000e+000  0.000000e+000
    outer loop
      vertex  1.500000e+000  6.134649e+000  7.000000e+000
      vertex  1.500000e+000  1.414214e+000  8.585787e+000
      vertex  1.500000e+000 -3.673819e-016  8.000000e+000
    endloop
  endfacet
  facet normal  0.000000e+000  0.000000e+000  1.000000e+000
    outer loop
      vertex  6.500000e+000  8.000000e+000  2.000000e+000
      vertex  6.500000e+000 -8.000000e+000  2.000000e+000
      vertex  1.058579e+001  1.414214e+000  2.000000e+000
    endloop
  endfacet
  facet normal  0.000000e+000  -0.000000e+000  1.000000e+000
    outer loop
      vertex  6.500000e+000  8.000000e+000  2.000000e+000
      vertex  1.058579e+001  1.414214e+000  2.000000e+000
      vertex  1.200000e+001  2.000000e+000  2.000000e+000
    endloop
  endfacet
  facet normal  0.000000e+000  -0.000000e+000  1.000000e+000
    outer loop
      vertex  6.500000e+000  8.000000e+000  2.000000e+000
      vertex  1.200000e+001  2.000000e+000  2.000000e+000
      vertex  1.300000e+001  8.000000e+000  2.000000e+000
    endloop
  endfacet
  facet normal  0.000000e+000  0.000000e+000  1.000000e+000
    outer loop
      vertex  1.200000e+001 -2.000000e+000  2.000000e+000
      vertex  6.500000e+000 -8.000000e+000  2.000000e+000
      vertex  1.300000e+001 -8.000000e+000  2.000000e+000
    endloop
  endfacet
  facet normal  0.000000e+000  -0.000000e+000  9.999999e-001
    outer loop
      vertex  1.200000e+001 -2.000000e+000  2.000000e+000
      vertex  1.300000e+001 -8.000000e+000  2.000000e+000
      vertex  1.550000e+001 -7.330127e+000  2.000000e+000
    endloop
  endfacet
  facet normal  0.000000e+000  -0.000000e+000  1.000000e+000
    outer loop
      vertex  1.200000e+001 -2.000000e+000  2.000000e+000
      vertex  1.550000e+001 -7.330127e+000  2.000000e+000
      vertex  1.733013e+001 -5.500000e+000  2.000000e+000
    endloop
  endfacet
  facet normal  0.000000e+000  -0.000000e+000  9.999999e-001
    outer loop
      vertex  1.200000e+001 -2.000000e+000  2.000000e+000
      vertex  1.733013e+001 -5.500000e+000  2.000000e+000
      vertex  1.800000e+001 -3.000000e+000  2.000000e+000
    endloop
  endfacet
  facet normal  0.000000e+000  0.000000e+000  1.000000e+000
    outer loop
      vertex  6.500000e+000 -8.000000e+000  2.000000e+000
      vertex  1.200000e+001 -2.000000e+000  2.000000e+000
      vertex  1.058579e+001 -1.414214e+000  2.000000e+000
    endloop
  endfacet
  facet normal  0.000000e+000  0.000000e+000  1.000000e+000
    outer loop
      vertex  6.500000e+000 -8.000000e+000  2.000000e+000
      vertex  1.058579e+001 -1.414214e+000  2.000000e+000
      vertex  1.000000e+001  2.449213e-016  2.000000e+000
    endloop
  endfacet
  facet normal  0.000000e+000  -0.000000e+000  1.000000e+000
    outer loop
      vertex  6.500000e+000 -8.000000e+000  2.000000e+000
      vertex  1.000000e+001  2.449213e-016  2.000000e+000
      vertex  1.058579e+001  1.414214e+000  2.000000e+000
    endloop
  endfacet
  facet normal  0.000000e+000  -0.000000e+000  1.000000e+000
    outer loop
      vertex  1.200000e+001  2.000000e+000  2.000000e+000
      vertex  1.341421e+001  1.414214e+000  2.000000e+000
      vertex  1.800000e+001  3.000000e+000  2.000000e+000
    endloop
  endfacet
  facet normal  0.000000e+000  0.000000e+000  9.999999e-001
    outer loop
      vertex  1.200000e+001  2.000000e+000  2.000000e+000
      vertex  1.800000e+001  3.000000e+000  2.000000e+000
      vertex  1.733013e+001  5.500000e+000  2.000000e+000
    endloop
  endfacet
  facet normal  0.000000e+000  0.000000e+000  1.000000e+000
    outer loop
      vertex  1.200000e+001  2.000000e+000  2.000000e+000
      vertex  1.733013e+001  5.500000e+000  2.000000e+000
      vertex  1.550000e+001  7.330127e+000  2.000000e+000
    endloop
  endfacet
  facet normal  0.000000e+000  0.000000e+000  9.999999e-001
    outer loop
      vertex  1.200000e+001  2.000000e+000  2.000000e+000
      vertex  1.550000e+001  7.330127e+000  2.000000e+000
      vertex  1.300000e+001  8.000000e+000  2.000000e+000
    endloop
  endfacet
  facet normal  0.000000e+000  0.000000e+000  1.000000e+000
    outer loop
      vertex  1.800000e+001 -3.000000e+000  2.000000e+000
      vertex  1.800000e+001  3.000000e+000  2.000000e+000
      vertex  1.341421e+001  1.414214e+000  2.000000e+000
    endloop
  endfacet
  facet normal  0.000000e+000  0.000000e+000  1.000000e+000
    outer loop
      vertex  1.800000e+001 -3.000000e+000  2.000000e+000
      vertex  1.341421e+001  1.414214e+000  2.000000e+000
      vertex  1.400000e+001  0.000000e+000  2.000000e+000
    endloop
  endfacet
  facet normal  0.000000e+000  0.000000e+000  1.000000e+000
    outer loop
      vertex  1.800000e+001 -3.000000e+000  2.000000e+000
      vertex  1.400000e+001  0.000000e+000  2.000000e+000
      vertex  1.341421e+001 -1.414214e+000  2.000000e+000
    endloop
  endfacet
  facet normal  0.000000e+000  0.000000e+000  1.000000e+000
    outer loop
      vertex  1.800000e+001 -3.000000e+000  2.000000e+000
      vertex  1.341421e+001 -1.414214e+000  2.000000e+000
      vertex  1.200000e+001 -2.000000e+000  2.000000e+000
    endloop
  endfacet
  facet normal  0.000000e+000  9.369236e-001  3.495342e-001
    outer loop
      vertex  5.777684e+000  7.980433e+000  2.052449e+000
      vertex  6.500000e+000  8.000000e+000  2.000000e+000
      vertex  1.500000e+000  8.000000e+000  2.000000e+000
    endloop
  endfacet
  facet normal  0.000000e+000  9.369236e-001  3.495342e-001
    outer loop
      vertex  5.777684e+000  7.980433e+000  2.052449e+000
      vertex  1.500000e+000  8.000000e+000  2.000000e+000
      vertex -1.500000e+000  8.000000e+000  2.000000e+000
    endloop
  endfacet
  facet normal  0.000000e+000  9.369236e-001  3.495342e-001
    outer loop
      vertex  5.777684e+000  7.980433e+000  2.052449e+000
      vertex -1.500000e+000  8.000000e+000  2.000000e+000
      vertex -6.500000e+000  8.000000e+000  2.000000e+000
    endloop
  endfacet
  facet normal  0.000000e+000  9.369237e-001  3.495342e-001
    outer loop
      vertex  5.777684e+000  7.980433e+000  2.052449e+000
      vertex -6.500000e+000  8.000000e+000  2.000000e+000
      vertex -5.777684e+000  7.980433e+000  2.052449e+000
    endloop
  endfacet
  facet normal  -0.000000e+000  9.369222e-001  3.495380e-001
    outer loop
      vertex  5.777684e+000  7.980433e+000  2.052449e+000
      vertex -5.777684e+000  7.980433e+000  2.052449e+000
      vertex -3.591137e+000  7.651835e+000  2.933243e+000
    endloop
  endfacet
  facet normal  -0.000000e+000  9.369223e-001  3.495381e-001
    outer loop
      vertex  5.777684e+000  7.980433e+000  2.052449e+000
      vertex -3.591137e+000  7.651835e+000  2.933243e+000
      vertex  3.591137e+000  7.651835e+000  2.933243e+000
    endloop
  endfacet
  facet normal  0.000000e+000  9.369223e-001  3.495379e-001
    outer loop
      vertex -2.051032e+000  6.985926e+000  4.718184e+000
      vertex  3.591137e+000  7.651835e+000  2.933243e+000
      vertex -3.591137e+000  7.651835e+000  2.933243e+000
    endloop
  endfacet
  facet normal  -0.000000e+000  9.369223e-001  3.495379e-001
    outer loop
      vertex  3.591137e+000  7.651835e+000  2.933243e+000
      vertex -2.051032e+000  6.985926e+000  4.718184e+000
      vertex  2.051032e+000  6.985926e+000  4.718184e+000
    endloop
  endfacet
  facet normal  0.000000e+000  9.369223e-001  3.495378e-001
    outer loop
      vertex  2.051032e+000  6.985926e+000  4.718184e+000
      vertex -2.051032e+000  6.985926e+000  4.718184e+000
      vertex -1.500000e+000  6.134649e+000  7.000000e+000
    endloop
  endfacet
  facet normal  -0.000000e+000  9.369223e-001  3.495378e-001
    outer loop
      vertex  2.051032e+000  6.985926e+000  4.718184e+000
      vertex -1.500000e+000  6.134649e+000  7.000000e+000
      vertex  1.500000e+000  6.134649e+000  7.000000e+000
    endloop
  endfacet
  facet normal  0.000000e+000  9.369223e-001  3.495378e-001
    outer loop
      vertex  1.500000e+000  6.134649e+000  7.000000e+000
      vertex -1.500000e+000  6.134649e+000  7.000000e+000
      vertex -1.500000e+000  3.747689e+000  1.339815e+001
    endloop
  endfacet
  facet normal  -0.000000e+000  9.369223e-001  3.495378e-001
    outer loop
      vertex  1.500000e+000  6.134649e+000  7.000000e+000
      vertex -1.500000e+000  3.747689e+000  1.339815e+001
      vertex  1.500000e+000  3.747689e+000  1.339815e+001
    endloop
  endfacet
  facet normal  0.000000e+000 -9.369223e-001  3.495381e-001
    outer loop
      vertex  5.777684e+000 -7.980433e+000  2.052449e+000
      vertex  3.591137e+000 -7.651835e+000  2.933243e+000
      vertex -3.591137e+000 -7.651835e+000  2.933243e+000
    endloop
  endfacet
  facet normal  0.000000e+000 -9.369222e-001  3.495381e-001
    outer loop
      vertex  5.777684e+000 -7.980433e+000  2.052449e+000
      vertex -3.591137e+000 -7.651835e+000  2.933243e+000
      vertex -5.777684e+000 -7.980433e+000  2.052449e+000
    endloop
  endfacet
  facet normal  0.000000e+000 -9.369236e-001  3.495342e-001
    outer loop
      vertex  5.777684e+000 -7.980433e+000  2.052449e+000
      vertex -5.777684e+000 -7.980433e+000  2.052449e+000
      vertex -6.500000e+000 -8.000000e+000  2.000000e+000
    endloop
  endfacet
  facet normal  0.000000e+000 -9.369236e-001  3.495342e-001
    outer loop
      vertex  5.777684e+000 -7.980433e+000  2.052449e+000
      vertex -6.500000e+000 -8.000000e+000  2.000000e+000
      vertex -1.500000e+000 -8.000000e+000  2.000000e+000
    endloop
  endfacet
  facet normal  0.000000e+000 -9.369236e-001  3.495342e-001
    outer loop
      vertex  5.777684e+000 -7.980433e+000  2.052449e+000
      vertex -1.500000e+000 -8.000000e+000  2.000000e+000
      vertex  1.500000e+000 -8.000000e+000  2.000000e+000
    endloop
  endfacet
  facet normal  0.000000e+000 -9.369236e-001  3.495342e-001
    outer loop
      vertex  5.777684e+000 -7.980433e+000  2.052449e+000
      vertex  1.500000e+000 -8.000000e+000  2.000000e+000
      vertex  6.500000e+000 -8.000000e+000  2.000000e+000
    endloop
  endfacet
  facet normal  0.000000e+000 -9.369223e-001  3.495379e-001
    outer loop
      vertex -3.591137e+000 -7.651835e+000  2.933243e+000
      vertex  3.591137e+000 -7.651835e+000  2.933243e+000
      vertex -2.051032e+000 -6.985926e+000  4.718184e+000
    endloop
  endfacet
  facet normal  0.000000e+000 -9.369223e-001  3.495379e-001
    outer loop
      vertex -2.051032e+000 -6.985926e+000  4.718184e+000
      vertex  3.591137e+000 -7.651835e+000  2.933243e+000
      vertex  2.051032e+000 -6.985926e+000  4.718184e+000
    endloop
  endfacet
  facet normal  0.000000e+000 -9.369223e-001  3.495378e-001
    outer loop
      vertex -2.051032e+000 -6.985926e+000  4.718184e+000
      vertex  2.051032e+000 -6.985926e+000  4.718184e+000
      vertex -1.500000e+000 -6.134649e+000  7.000000e+000
    endloop
  endfacet
  facet normal  0.000000e+000 -9.369223e-001  3.495378e-001
    outer loop
      vertex -1.500000e+000 -6.134649e+000  7.000000e+000
      vertex  2.051032e+000 -6.985926e+000  4.718184e+000
      vertex  1.500000e+000 -6.134649e+000  7.000000e+000
    endloop
  endfacet
  facet normal  0.000000e+000 -9.369223e-001  3.495378e-001
    outer loop
      vertex -1.500000e+000 -6.134649e+000  7.000000e+000
      vertex  1.500000e+000 -6.134649e+000  7.000000e+000
      vertex -1.500000e+000 -3.747689e+000  1.339815e+001
    endloop
  endfacet
  facet normal  0.000000e+000 -9.369223e-001  3.495378e-001
    outer loop
      vertex -1.500000e+000 -3.747689e+000  1.339815e+001
      vertex  1.500000e+000 -6.134649e+000  7.000000e+000
      vertex  1.500000e+000 -3.747689e+000  1.339815e+001
    endloop
  endfacet
  facet normal  -0.000000e+000 -1.000000e+000  -0.000000e+000
    outer loop
      vertex  1.300000e+001 -8.000000e+000  0.000000e+000
      vertex  1.300000e+001 -8.000000e+000  2.000000e+000
      vertex  6.500000e+000 -8.000000e+000  2.000000e+000
    endloop
  endfacet
  facet normal  -0.000000e+000 -1.000000e+000  -0.000000e+000
    outer loop
      vertex  1.300000e+001 -8.000000e+000  0.000000e+000
      vertex  6.500000e+000 -8.000000e+000  2.000000e+000
      vertex  1.500000e+000 -8.000000e+000  2.000000e+000
    endloop
  endfacet
  facet normal  -0.000000e+000 -1.000000e+000  -0.000000e+000
    outer loop
      vertex  1.300000e+001 -8.000000e+000  0.000000e+000
      vertex  1.500000e+000 -8.000000e+000  2.000000e+000
      vertex -1.500000e+000 -8.000000e+000  2.000000e+000
    endloop
  endfacet
  facet normal  -0.000000e+000 -1.000000e+000  -0.000000e+000
    outer loop
      vertex  1.300000e+001 -8.000000e+000  0.000000e+000
      vertex -1.500000e+000 -8.000000e+000  2.000000e+000
      vertex -6.500000e+000 -8.000000e+000  2.000000e+000
    endloop
  endfacet
  facet normal  -0.000000e+000 -1.000000e+000  -0.000000e+000
    outer loop
      vertex  1.300000e+001 -8.000000e+000  0.000000e+000
      vertex -6.500000e+000 -8.000000e+000  2.000000e+000
      vertex -1.300000e+001 -8.000000e+000  2.000000e+000
    endloop
  endfacet
  facet normal  0.000000e+000 -1.000000e+000  0.000000e+000
    outer loop
      vertex  1.300000e+001 -8.000000e+000  0.000000e+000
      vertex -1.300000e+001 -8.000000e+000  2.000000e+000
      vertex -1.300000e+001 -8.000000e+000  0.000000e+000
    endloop
  endfacet
  facet normal  -0.000000e+000  1.000000e+000  0.000000e+000
    outer loop
      vertex -1.300000e+001  8.000000e+000  0.000000e+000
      vertex -1.300000e+001  8.000000e+000  2.000000e+000
      vertex -6.500000e+000  8.000000e+000  2.000000e+000
    endloop
  endfacet
  facet normal  -0.000000e+000  1.000000e+000  0.000000e+000
    outer loop
      vertex -1.300000e+001  8.000000e+000  0.000000e+000
      vertex -6.500000e+000  8.000000e+000  2.000000e+000
      vertex -1.500000e+000  8.000000e+000  2.000000e+000
    endloop
  endfacet
  facet normal  -0.000000e+000  1.000000e+000  0.000000e+000
    outer loop
      vertex -1.300000e+001  8.000000e+000  0.000000e+000
      vertex -1.500000e+000  8.000000e+000  2.000000e+000
      vertex  1.500000e+000  8.000000e+000  2.000000e+000
    endloop
  endfacet
  facet normal  -0.000000e+000  1.000000e+000  0.000000e+000
    outer loop
      vertex -1.300000e+001  8.000000e+000  0.000000e+000
      vertex  1.500000e+000  8.000000e+000  2.000000e+000
      vertex  6.500000e+000  8.000000e+000  2.000000e+000
    endloop
  endfacet
  facet normal  -0.000000e+000  1.000000e+000  0.000000e+000
    outer loop
      vertex -1.300000e+001  8.000000e+000  0.000000e+000
      vertex  6.500000e+000  8.000000e+000  2.000000e+000
      vertex  1.300000e+001  8.000000e+000  2.000000e+000
    endloop
  endfacet
  facet normal  0.000000e+000  1.000000e+000  0.000000e+000
    outer loop
      vertex -1.300000e+001  8.000000e+000  0.000000e+000
      vertex  1.300000e+001  8.000000e+000  2.000000e+000
      vertex  1.300000e+001  8.000000e+000  0.000000e+000
    endloop
  endfacet
  facet normal  7.571242e-001  0.000000e+000  6.532711e-001
    outer loop
      vertex  3.591137e+000 -7.651835e+000  2.933243e+000
      vertex  2.051032e+000  6.985926e+000  4.718184e+000
      vertex  2.051032e+000 -6.985926e+000  4.718184e+000
    endloop
  endfacet
  facet normal  9.720581e-001  -0.000000e+000  2.347407e-001
    outer loop
      vertex  2.051032e+000 -6.985926e+000  4.718184e+000
      vertex  2.051032e+000  6.985926e+000  4.718184e+000
      vertex  1.500000e+000  6.134649e+000  7.000000e+000
    endloop
  endfacet
  facet normal  9.720580e-001  0.000000e+000  2.347407e-001
    outer loop
      vertex  2.051032e+000 -6.985926e+000  4.718184e+000
      vertex  1.500000e+000  6.134649e+000  7.000000e+000
      vertex  1.500000e+000 -6.134649e+000  7.000000e+000
    endloop
  endfacet
  facet normal  7.571241e-001  -0.000000e+000  6.532710e-001
    outer loop
      vertex  2.051032e+000  6.985926e+000  4.718184e+000
      vertex  3.591137e+000 -7.651835e+000  2.933243e+000
      vertex  3.591137e+000  7.651835e+000  2.933243e+000
    endloop
  endfacet
  facet normal  3.736477e-001  0.000000e+000  9.275707e-001
    outer loop
      vertex  3.591137e+000  7.651835e+000  2.933243e+000
      vertex  3.591137e+000 -7.651835e+000  2.933243e+000
      vertex  5.777684e+000 -7.980433e+000  2.052449e+000
    endloop
  endfacet
  facet normal  3.736476e-001  -0.000000e+000  9.275706e-001
    outer loop
      vertex  3.591137e+000  7.651835e+000  2.933243e+000
      vertex  5.777684e+000 -7.980433e+000  2.052449e+000
      vertex  5.777684e+000  7.980433e+000  2.052449e+000
    endloop
  endfacet
  facet normal  7.242187e-002  0.000000e+000  9.973741e-001
    outer loop
      vertex  5.777684e+000  7.980433e+000  2.052449e+000
      vertex  5.777684e+000 -7.980433e+000  2.052449e+000
      vertex  6.500000e+000 -8.000000e+000  2.000000e+000
    endloop
  endfacet
  facet normal  7.242187e-002  -0.000000e+000  9.973741e-001
    outer loop
      vertex  5.777684e+000  7.980433e+000  2.052449e+000
      vertex  6.500000e+000 -8.000000e+000  2.000000e+000
      vertex  6.500000e+000  8.000000e+000  2.000000e+000
    endloop
  endfacet
  facet normal -1.000000e+000  0.000000e+000  -0.000000e+000
    outer loop
      vertex -1.500000e+000 -3.747689e+000  1.339815e+001
      vertex -1.500000e+000 -2.281162e+000  1.528577e+001
      vertex -1.500000e+000  2.909457e-015  1.600000e+001
    endloop
  endfacet
  facet normal -1.000000e+000  0.000000e+000  0.000000e+000
    outer loop
      vertex -1.500000e+000 -3.747689e+000  1.339815e+001
      vertex -1.500000e+000  2.909457e-015  1.600000e+001
      vertex -1.500000e+000  1.224606e-016  1.200000e+001
    endloop
  endfacet
  facet normal -1.000000e+000  -0.000000e+000  0.000000e+000
    outer loop
      vertex -1.500000e+000 -3.747689e+000  1.339815e+001
      vertex -1.500000e+000  1.224606e-016  1.200000e+001
      vertex -1.500000e+000 -1.414214e+000  1.141421e+001
    endloop
  endfacet
  facet normal -1.000000e+000  -0.000000e+000  0.000000e+000
    outer loop
      vertex -1.500000e+000 -3.747689e+000  1.339815e+001
      vertex -1.500000e+000 -1.414214e+000  1.141421e+001
      vertex -1.500000e+000 -6.134649e+000  7.000000e+000
    endloop
  endfacet
  facet normal -1.000000e+000  0.000000e+000  0.000000e+000
    outer loop
      vertex -1.500000e+000  3.747689e+000  1.339815e+001
      vertex -1.500000e+000  6.134649e+000  7.000000e+000
      vertex -1.500000e+000  1.414214e+000  1.141421e+001
    endloop
  endfacet
  facet normal -1.000000e+000  0.000000e+000  0.000000e+000
    outer loop
      vertex -1.500000e+000  3.747689e+000  1.339815e+001
      vertex -1.500000e+000  1.414214e+000  1.141421e+001
      vertex -1.500000e+000  1.224606e-016  1.200000e+001
    endloop
  endfacet
  facet normal -1.000000e+000  0.000000e+000  0.000000e+000
    outer loop
      vertex -1.500000e+000  3.747689e+000  1.339815e+001
      vertex -1.500000e+000  1.224606e-016  1.200000e+001
      vertex -1.500000e+000  2.909457e-015  1.600000e+001
    endloop
  endfacet
  facet normal -1.000000e+000  0.000000e+000  0.000000e+000
    outer loop
      vertex -1.500000e+000  3.747689e+000  1.339815e+001
      vertex -1.500000e+000  2.909457e-015  1.600000e+001
      vertex -1.500000e+000  2.281162e+000  1.528577e+001
    endloop
  endfacet
  facet normal -1.000000e+000  0.000000e+000  0.000000e+000
    outer loop
      vertex -1.500000e+000 -6.134649e+000  7.000000e+000
      vertex -1.500000e+000 -1.414214e+000  1.141421e+001
      vertex -1.500000e+000 -2.000000e+000  1.000000e+001
    endloop
  endfacet
  facet normal -1.000000e+000  0.000000e+000  -0.000000e+000
    outer loop
      vertex -1.500000e+000 -6.134649e+000  7.000000e+000
      vertex -1.500000e+000 -2.000000e+000  1.000000e+001
      vertex -1.500000e+000 -1.414214e+000  8.585787e+000
    endloop
  endfacet
  facet normal -1.000000e+000  0.000000e+000  -0.000000e+000
    outer loop
      vertex -1.500000e+000 -6.134649e+000  7.000000e+000
      vertex -1.500000e+000 -1.414214e+000  8.585787e+000
      vertex -1.500000e+000 -3.673819e-016  8.000000e+000
    endloop
  endfacet
  facet normal -9.999999e-001  0.000000e+000  -0.000000e+000
    outer loop
      vertex -1.500000e+000 -6.134649e+000  7.000000e+000
      vertex -1.500000e+000 -3.673819e-016  8.000000e+000
      vertex -1.500000e+000  6.134649e+000  7.000000e+000
    endloop
  endfacet
  facet normal -1.000000e+000  0.000000e+000  0.000000e+000
    outer loop
      vertex -1.500000e+000  6.134649e+000  7.000000e+000
      vertex -1.500000e+000 -3.673819e-016  8.000000e+000
      vertex -1.500000e+000  1.414214e+000  8.585787e+000
    endloop
  endfacet
  facet normal -1.000000e+000  0.000000e+000  0.000000e+000
    outer loop
      vertex -1.500000e+000  6.134649e+000  7.000000e+000
      vertex -1.500000e+000  1.414214e+000  8.585787e+000
      vertex -1.500000e+000  2.000000e+000  1.000000e+001
    endloop
  endfacet
  facet normal -1.000000e+000  0.000000e+000  0.000000e+000
    outer loop
      vertex -1.500000e+000  6.134649e+000  7.000000e+000
      vertex -1.500000e+000  2.000000e+000  1.000000e+001
      vertex -1.500000e+000  1.414214e+000  1.141421e+001
    endloop
  endfacet
  facet normal  -0.000000e+000  0.000000e+000  1.000000e+000
    outer loop
      vertex -6.500000e+000  8.000000e+000  2.000000e+000
      vertex -1.300000e+001  8.000000e+000  2.000000e+000
      vertex -1.550000e+001  7.330127e+000  2.000000e+000
    endloop
  endfacet
  facet normal  -0.000000e+000  0.000000e+000  9.999999e-001
    outer loop
      vertex -6.500000e+000  8.000000e+000  2.000000e+000
      vertex -1.550000e+001  7.330127e+000  2.000000e+000
      vertex -1.200000e+001  2.000000e+000  2.000000e+000
    endloop
  endfacet
  facet normal  -0.000000e+000  0.000000e+000  1.000000e+000
    outer loop
      vertex -6.500000e+000  8.000000e+000  2.000000e+000
      vertex -1.200000e+001  2.000000e+000  2.000000e+000
      vertex -1.058579e+001  1.414214e+000  2.000000e+000
    endloop
  endfacet
  facet normal  -0.000000e+000  0.000000e+000  1.000000e+000
    outer loop
      vertex -6.500000e+000  8.000000e+000  2.000000e+000
      vertex -1.058579e+001  1.414214e+000  2.000000e+000
      vertex -6.500000e+000 -8.000000e+000  2.000000e+000
    endloop
  endfacet
  facet normal  0.000000e+000  0.000000e+000  1.000000e+000
    outer loop
      vertex -1.800000e+001  3.000000e+000  2.000000e+000
      vertex -1.800000e+001 -3.000000e+000  2.000000e+000
      vertex -1.341421e+001  1.414214e+000  2.000000e+000
    endloop
  endfacet
  facet normal  0.000000e+000  -0.000000e+000  1.000000e+000
    outer loop
      vertex -1.800000e+001  3.000000e+000  2.000000e+000
      vertex -1.341421e+001  1.414214e+000  2.000000e+000
      vertex -1.200000e+001  2.000000e+000  2.000000e+000
    endloop
  endfacet
  facet normal  0.000000e+000  0.000000e+000  1.000000e+000
    outer loop
      vertex -1.800000e+001  3.000000e+000  2.000000e+000
      vertex -1.200000e+001  2.000000e+000  2.000000e+000
      vertex -1.550000e+001  7.330127e+000  2.000000e+000
    endloop
  endfacet
  facet normal  0.000000e+000  0.000000e+000  1.000000e+000
    outer loop
      vertex -1.800000e+001  3.000000e+000  2.000000e+000
      vertex -1.550000e+001  7.330127e+000  2.000000e+000
      vertex -1.733013e+001  5.500000e+000  2.000000e+000
    endloop
  endfacet
  facet normal  0.000000e+000  0.000000e+000  1.000000e+000
    outer loop
      vertex -1.800000e+001 -3.000000e+000  2.000000e+000
      vertex -1.200000e+001 -2.000000e+000  2.000000e+000
      vertex -1.341421e+001 -1.414214e+000  2.000000e+000
    endloop
  endfacet
  facet normal  0.000000e+000  0.000000e+000  1.000000e+000
    outer loop
      vertex -1.800000e+001 -3.000000e+000  2.000000e+000
      vertex -1.341421e+001 -1.414214e+000  2.000000e+000
      vertex -1.400000e+001  2.449213e-016  2.000000e+000
    endloop
  endfacet
  facet normal  0.000000e+000  -0.000000e+000  1.000000e+000
    outer loop
      vertex -1.800000e+001 -3.000000e+000  2.000000e+000
      vertex -1.400000e+001  2.449213e-016  2.000000e+000
      vertex -1.341421e+001  1.414214e+000  2.000000e+000
    endloop
  endfacet
  facet normal  0.000000e+000  0.000000e+000  1.000000e+000
    outer loop
      vertex -6.500000e+000 -8.000000e+000  2.000000e+000
      vertex -1.058579e+001  1.414214e+000  2.000000e+000
      vertex -1.000000e+001  0.000000e+000  2.000000e+000
    endloop
  endfacet
  facet normal  0.000000e+000  0.000000e+000  1.000000e+000
    outer loop
      vertex -6.500000e+000 -8.000000e+000  2.000000e+000
      vertex -1.000000e+001  0.000000e+000  2.000000e+000
      vertex -1.058579e+001 -1.414214e+000  2.000000e+000
    endloop
  endfacet
  facet normal  0.000000e+000  0.000000e+000  1.000000e+000
    outer loop
      vertex -6.500000e+000 -8.000000e+000  2.000000e+000
      vertex -1.058579e+001 -1.414214e+000  2.000000e+000
      vertex -1.200000e+001 -2.000000e+000  2.000000e+000
    endloop
  endfacet
  facet normal  0.000000e+000  0.000000e+000  1.000000e+000
    outer loop
      vertex -6.500000e+000 -8.000000e+000  2.000000e+000
      vertex -1.200000e+001 -2.000000e+000  2.000000e+000
      vertex -1.300000e+001 -8.000000e+000  2.000000e+000
    endloop
  endfacet
  facet normal  0.000000e+000  -0.000000e+000  1.000000e+000
    outer loop
      vertex -1.300000e+001 -8.000000e+000  2.000000e+000
      vertex -1.200000e+001 -2.000000e+000  2.000000e+000
      vertex -1.800000e+001 -3.000000e+000  2.000000e+000
    endloop
  endfacet
  facet normal  0.000000e+000  0.000000e+000  1.000000e+000
    outer loop
      vertex -1.300000e+001 -8.000000e+000  2.000000e+000
      vertex -1.800000e+001 -3.000000e+000  2.000000e+000
      vertex -1.550000e+001 -7.330127e+000  2.000000e+000
    endloop
  endfacet
  facet normal  0.000000e+000  0.000000e+000  1.000000e+000
    outer loop
      vertex -1.550000e+001 -7.330127e+000  2.000000e+000
      vertex -1.800000e+001 -3.000000e+000  2.000000e+000
      vertex -1.733013e+001 -5.500000e+000  2.000000e+000
    endloop
  endfacet
  facet normal -3.736476e-001  0.000000e+000  9.275706e-001
    outer loop
      vertex -3.591137e+000 -7.651835e+000  2.933243e+000
      vertex -5.777684e+000  7.980433e+000  2.052449e+000
      vertex -5.777684e+000 -7.980433e+000  2.052449e+000
    endloop
  endfacet
  facet normal -7.242187e-002  0.000000e+000  9.973741e-001
    outer loop
      vertex -5.777684e+000 -7.980433e+000  2.052449e+000
      vertex -5.777684e+000  7.980433e+000  2.052449e+000
      vertex -6.500000e+000  8.000000e+000  2.000000e+000
    endloop
  endfacet
  facet normal -7.242187e-002  0.000000e+000  9.973741e-001
    outer loop
      vertex -5.777684e+000 -7.980433e+000  2.052449e+000
      vertex -6.500000e+000  8.000000e+000  2.000000e+000
      vertex -6.500000e+000 -8.000000e+000  2.000000e+000
    endloop
  endfacet
  facet normal -3.736477e-001  0.000000e+000  9.275707e-001
    outer loop
      vertex -5.777684e+000  7.980433e+000  2.052449e+000
      vertex -3.591137e+000 -7.651835e+000  2.933243e+000
      vertex -3.591137e+000  7.651835e+000  2.933243e+000
    endloop
  endfacet
  facet normal -7.571241e-001  0.000000e+000  6.532710e-001
    outer loop
      vertex -3.591137e+000  7.651835e+000  2.933243e+000
      vertex -3.591137e+000 -7.651835e+000  2.933243e+000
      vertex -2.051032e+000 -6.985926e+000  4.718184e+000
    endloop
  endfacet
  facet normal -7.571242e-001  0.000000e+000  6.532711e-001
    outer loop
      vertex -3.591137e+000  7.651835e+000  2.933243e+000
      vertex -2.051032e+000 -6.985926e+000  4.718184e+000
      vertex -2.051032e+000  6.985926e+000  4.718184e+000
    endloop
  endfacet
  facet normal -9.720581e-001  0.000000e+000  2.347407e-001
    outer loop
      vertex -2.051032e+000  6.985926e+000  4.718184e+000
      vertex -2.051032e+000 -6.985926e+000  4.718184e+000
      vertex -1.500000e+000 -6.134649e+000  7.000000e+000
    endloop
  endfacet
  facet normal -9.720580e-001  0.000000e+000  2.347407e-001
    outer loop
      vertex -2.051032e+000  6.985926e+000  4.718184e+000
      vertex -1.500000e+000 -6.134649e+000  7.000000e+000
      vertex -1.500000e+000  6.134649e+000  7.000000e+000
    endloop
  endfacet
  facet normal  0.000000e+000 -3.826837e-001  9.238794e-001
    outer loop
      vertex -1.500000e+000 -3.673819e-016  8.000000e+000
      vertex  1.500000e+000  1.414214e+000  8.585787e+000
      vertex -1.500000e+000  1.414214e+000  8.585787e+000
    endloop
  endfacet
  facet normal  0.000000e+000 -9.238794e-001  3.826835e-001
    outer loop
      vertex -1.500000e+000  1.414214e+000  8.585787e+000
      vertex  1.500000e+000  1.414214e+000  8.585787e+000
      vertex  1.500000e+000  2.000000e+000  1.000000e+001
    endloop
  endfacet
  facet normal  0.000000e+000 -9.238794e-001  3.826835e-001
    outer loop
      vertex -1.500000e+000  1.414214e+000  8.585787e+000
      vertex  1.500000e+000  2.000000e+000  1.000000e+001
      vertex -1.500000e+000  2.000000e+000  1.000000e+001
    endloop
  endfacet
  facet normal  0.000000e+000 -3.826837e-001  9.238794e-001
    outer loop
      vertex  1.500000e+000  1.414214e+000  8.585787e+000
      vertex -1.500000e+000 -3.673819e-016  8.000000e+000
      vertex  1.500000e+000 -3.673819e-016  8.000000e+000
    endloop
  endfacet
  facet normal  0.000000e+000  3.826837e-001  9.238794e-001
    outer loop
      vertex  1.500000e+000 -3.673819e-016  8.000000e+000
      vertex -1.500000e+000 -3.673819e-016  8.000000e+000
      vertex -1.500000e+000 -1.414214e+000  8.585787e+000
    endloop
  endfacet
  facet normal  -0.000000e+000  3.826837e-001  9.238794e-001
    outer loop
      vertex  1.500000e+000 -3.673819e-016  8.000000e+000
      vertex -1.500000e+000 -1.414214e+000  8.585787e+000
      vertex  1.500000e+000 -1.414214e+000  8.585787e+000
    endloop
  endfacet
  facet normal  0.000000e+000  9.238794e-001  3.826835e-001
    outer loop
      vertex  1.500000e+000 -1.414214e+000  8.585787e+000
      vertex -1.500000e+000 -1.414214e+000  8.585787e+000
      vertex -1.500000e+000 -2.000000e+000  1.000000e+001
    endloop
  endfacet
  facet normal  -0.000000e+000  9.238794e-001  3.826835e-001
    outer loop
      vertex  1.500000e+000 -1.414214e+000  8.585787e+000
      vertex -1.500000e+000 -2.000000e+000  1.000000e+001
      vertex  1.500000e+000 -2.000000e+000  1.000000e+001
    endloop
  endfacet
  facet normal  0.000000e+000  3.826837e-001 -9.238794e-001
    outer loop
      vertex -1.500000e+000  1.224606e-016  1.200000e+001
      vertex  1.500000e+000 -1.414214e+000  1.141421e+001
      vertex -1.500000e+000 -1.414214e+000  1.141421e+001
    endloop
  endfacet
  facet normal  0.000000e+000  9.238794e-001 -3.826835e-001
    outer loop
      vertex -1.500000e+000 -1.414214e+000  1.141421e+001
      vertex  1.500000e+000 -1.414214e+000  1.141421e+001
      vertex  1.500000e+000 -2.000000e+000  1.000000e+001
    endloop
  endfacet
  facet normal  0.000000e+000  9.238794e-001 -3.826835e-001
    outer loop
      vertex -1.500000e+000 -1.414214e+000  1.141421e+001
      vertex  1.500000e+000 -2.000000e+000  1.000000e+001
      vertex -1.500000e+000 -2.000000e+000  1.000000e+001
    endloop
  endfacet
  facet normal  0.000000e+000  3.826837e-001 -9.238794e-001
    outer loop
      vertex  1.500000e+000 -1.414214e+000  1.141421e+001
      vertex -1.500000e+000  1.224606e-016  1.200000e+001
      vertex  1.500000e+000  1.224606e-016  1.200000e+001
    endloop
  endfacet
  facet normal  -0.000000e+000 -3.826837e-001 -9.238794e-001
    outer loop
      vertex  1.500000e+000  1.224606e-016  1.200000e+001
      vertex -1.500000e+000  1.224606e-016  1.200000e+001
      vertex -1.500000e+000  1.414214e+000  1.141421e+001
    endloop
  endfacet
  facet normal  0.000000e+000 -3.826837e-001 -9.238794e-001
    outer loop
      vertex  1.500000e+000  1.224606e-016  1.200000e+001
      vertex -1.500000e+000  1.414214e+000  1.141421e+001
      vertex  1.500000e+000  1.414214e+000  1.141421e+001
    endloop
  endfacet
  facet normal  -0.000000e+000 -9.238794e-001 -3.826835e-001
    outer loop
      vertex  1.500000e+000  1.414214e+000  1.141421e+001
      vertex -1.500000e+000  1.414214e+000  1.141421e+001
      vertex -1.500000e+000  2.000000e+000  1.000000e+001
    endloop
  endfacet
  facet normal  0.000000e+000 -9.238794e-001 -3.826835e-001
    outer loop
      vertex  1.500000e+000  1.414214e+000  1.141421e+001
      vertex -1.500000e+000  2.000000e+000  1.000000e+001
      vertex  1.500000e+000  2.000000e+000  1.000000e+001
    endloop
  endfacet
  facet normal  0.000000e+000 -7.896810e-001  6.135177e-001
    outer loop
      vertex -1.500000e+000 -3.747689e+000  1.339815e+001
      vertex  1.500000e+000 -3.747689e+000  1.339815e+001
      vertex -1.500000e+000 -2.281162e+000  1.528577e+001
    endloop
  endfacet
  facet normal  0.000000e+000 -7.896810e-001  6.135177e-001
    outer loop
      vertex -1.500000e+000 -2.281162e+000  1.528577e+001
      vertex  1.500000e+000 -3.747689e+000  1.339815e+001
      vertex  1.500000e+000 -2.281162e+000  1.528577e+001
    endloop
  endfacet
  facet normal  0.000000e+000 -2.987951e-001  9.543173e-001
    outer loop
      vertex -1.500000e+000 -2.281162e+000  1.528577e+001
      vertex  1.500000e+000 -2.281162e+000  1.528577e+001
      vertex -1.500000e+000  2.909457e-015  1.600000e+001
    endloop
  endfacet
  facet normal  0.000000e+000 -2.987951e-001  9.543173e-001
    outer loop
      vertex -1.500000e+000  2.909457e-015  1.600000e+001
      vertex  1.500000e+000 -2.281162e+000  1.528577e+001
      vertex  1.500000e+000  2.909457e-015  1.600000e+001
    endloop
  endfacet
  facet normal  0.000000e+000  2.987951e-001  9.543173e-001
    outer loop
      vertex -1.500000e+000  2.909457e-015  1.600000e+001
      vertex  1.500000e+000  2.909457e-015  1.600000e+001
      vertex -1.500000e+000  2.281162e+000  1.528577e+001
    endloop
  endfacet
  facet normal  -0.000000e+000  2.987951e-001  9.543173e-001
    outer loop
      vertex -1.500000e+000  2.281162e+000  1.528577e+001
      vertex  1.500000e+000  2.909457e-015  1.600000e+001
      vertex  1.500000e+000  2.281162e+000  1.528577e+001
    endloop
  endfacet
  facet normal  0.000000e+000  7.896810e-001  6.135177e-001
    outer loop
      vertex -1.500000e+000  2.281162e+000  1.528577e+001
      vertex  1.500000e+000  2.281162e+000  1.528577e+001
      vertex -1.500000e+000  3.747689e+000  1.339815e+001
    endloop
  endfacet
  facet normal  -0.000000e+000  7.896810e-001  6.135177e-001
    outer loop
      vertex -1.500000e+000  3.747689e+000  1.339815e+001
      vertex  1.500000e+000  2.281162e+000  1.528577e+001
      vertex  1.500000e+000  3.747689e+000  1.339815e+001
    endloop
  endfacet
  facet normal  0.000000e+000  0.000000e+000 -9.999999e-001
    outer loop
      vertex -1.200000e+001  2.000000e+000  0.000000e+000
      vertex -1.550000e+001  7.330127e+000  0.000000e+000
      vertex -1.300000e+001  8.000000e+000  0.000000e+000
    endloop
  endfacet
  facet normal  0.000000e+000  -0.000000e+000 -1.000000e+000
    outer loop
      vertex -1.800000e+001  3.000000e+000  0.000000e+000
      vertex -1.733013e+001  5.500000e+000  0.000000e+000
      vertex -1.550000e+001  7.330127e+000  0.000000e+000
    endloop
  endfacet
  facet normal  0.000000e+000  -0.000000e+000 -1.000000e+000
    outer loop
      vertex -1.800000e+001  3.000000e+000  0.000000e+000
      vertex -1.550000e+001  7.330127e+000  0.000000e+000
      vertex -1.200000e+001  2.000000e+000  0.000000e+000
    endloop
  endfacet
  facet normal  -0.000000e+000  0.000000e+000 -1.000000e+000
    outer loop
      vertex -1.800000e+001  3.000000e+000  0.000000e+000
      vertex -1.200000e+001  2.000000e+000  0.000000e+000
      vertex -1.341421e+001  1.414214e+000  0.000000e+000
    endloop
  endfacet
  facet normal  -0.000000e+000  0.000000e+000 -1.000000e+000
    outer loop
      vertex -1.800000e+001  3.000000e+000  0.000000e+000
      vertex -1.341421e+001  1.414214e+000  0.000000e+000
      vertex -1.800000e+001 -3.000000e+000  0.000000e+000
    endloop
  endfacet
  facet normal  -0.000000e+000  0.000000e+000 -9.999999e-001
    outer loop
      vertex  1.200000e+001 -2.000000e+000  0.000000e+000
      vertex  1.800000e+001 -3.000000e+000  0.000000e+000
      vertex  1.733013e+001 -5.500000e+000  0.000000e+000
    endloop
  endfacet
  facet normal  -0.000000e+000  0.000000e+000 -1.000000e+000
    outer loop
      vertex  1.200000e+001 -2.000000e+000  0.000000e+000
      vertex  1.733013e+001 -5.500000e+000  0.000000e+000
      vertex  1.550000e+001 -7.330127e+000  0.000000e+000
    endloop
  endfacet
  facet normal  -0.000000e+000  0.000000e+000 -9.999999e-001
    outer loop
      vertex  1.200000e+001 -2.000000e+000  0.000000e+000
      vertex  1.550000e+001 -7.330127e+000  0.000000e+000
      vertex  1.300000e+001 -8.000000e+000  0.000000e+000
    endloop
  endfacet
  facet normal  0.000000e+000  0.000000e+000 -1.000000e+000
    outer loop
      vertex -1.800000e+001 -3.000000e+000  0.000000e+000
      vertex -1.341421e+001  1.414214e+000  0.000000e+000
      vertex -1.400000e+001  2.449213e-016  0.000000e+000
    endloop
  endfacet
  facet normal  0.000000e+000  -0.000000e+000 -1.000000e+000
    outer loop
      vertex -1.800000e+001 -3.000000e+000  0.000000e+000
      vertex -1.400000e+001  2.449213e-016  0.000000e+000
      vertex -1.341421e+001 -1.414214e+000  0.000000e+000
    endloop
  endfacet
  facet normal  0.000000e+000  -0.000000e+000 -1.000000e+000
    outer loop
      vertex -1.800000e+001 -3.000000e+000  0.000000e+000
      vertex -1.341421e+001 -1.414214e+000  0.000000e+000
      vertex -1.200000e+001 -2.000000e+000  0.000000e+000
    endloop
  endfacet
  facet normal  0.000000e+000  0.000000e+000 -1.000000e+000
    outer loop
      vertex  1.200000e+001  2.000000e+000  0.000000e+000
      vertex  1.058579e+001  1.414214e+000  0.000000e+000
      vertex -1.058579e+001  1.414214e+000  0.000000e+000
    endloop
  endfacet
  facet normal  0.000000e+000  0.000000e+000 -1.000000e+000
    outer loop
      vertex  1.200000e+001  2.000000e+000  0.000000e+000
      vertex -1.058579e+001  1.414214e+000  0.000000e+000
      vertex -1.200000e+001  2.000000e+000  0.000000e+000
    endloop
  endfacet
  facet normal  0.000000e+000  0.000000e+000 -1.000000e+000
    outer loop
      vertex  1.200000e+001  2.000000e+000  0.000000e+000
      vertex -1.200000e+001  2.000000e+000  0.000000e+000
      vertex -1.300000e+001  8.000000e+000  0.000000e+000
    endloop
  endfacet
  facet normal  0.000000e+000  0.000000e+000 -1.000000e+000
    outer loop
      vertex  1.200000e+001  2.000000e+000  0.000000e+000
      vertex -1.300000e+001  8.000000e+000  0.000000e+000
      vertex  1.300000e+001  8.000000e+000  0.000000e+000
    endloop
  endfacet
  facet normal  0.000000e+000  -0.000000e+000 -9.999999e-001
    outer loop
      vertex  1.200000e+001  2.000000e+000  0.000000e+000
      vertex  1.300000e+001  8.000000e+000  0.000000e+000
      vertex  1.550000e+001  7.330127e+000  0.000000e+000
    endloop
  endfacet
  facet normal  0.000000e+000  -0.000000e+000 -1.000000e+000
    outer loop
      vertex  1.200000e+001  2.000000e+000  0.000000e+000
      vertex  1.550000e+001  7.330127e+000  0.000000e+000
      vertex  1.733013e+001  5.500000e+000  0.000000e+000
    endloop
  endfacet
  facet normal  0.000000e+000  -0.000000e+000 -9.999999e-001
    outer loop
      vertex  1.200000e+001  2.000000e+000  0.000000e+000
      vertex  1.733013e+001  5.500000e+000  0.000000e+000
      vertex  1.800000e+001  3.000000e+000  0.000000e+000
    endloop
  endfacet
  facet normal  0.000000e+000  0.000000e+000 -1.000000e+000
    outer loop
      vertex  1.200000e+001  2.000000e+000  0.000000e+000
      vertex  1.800000e+001  3.000000e+000  0.000000e+000
      vertex  1.341421e+001  1.414214e+000  0.000000e+000
    endloop
  endfacet
  facet normal  0.000000e+000  0.000000e+000 -1.000000e+000
    outer loop
      vertex  1.800000e+001 -3.000000e+000  0.000000e+000
      vertex  1.200000e+001 -2.000000e+000  0.000000e+000
      vertex  1.341421e+001 -1.414214e+000  0.000000e+000
    endloop
  endfacet
  facet normal  0.000000e+000  0.000000e+000 -1.000000e+000
    outer loop
      vertex  1.800000e+001 -3.000000e+000  0.000000e+000
      vertex  1.341421e+001 -1.414214e+000  0.000000e+000
      vertex  1.400000e+001  0.000000e+000  0.000000e+000
    endloop
  endfacet
  facet normal  0.000000e+000  0.000000e+000 -1.000000e+000
    outer loop
      vertex  1.800000e+001 -3.000000e+000  0.000000e+000
      vertex  1.400000e+001  0.000000e+000  0.000000e+000
      vertex  1.341421e+001  1.414214e+000  0.000000e+000
    endloop
  endfacet
  facet normal  0.000000e+000  0.000000e+000 -1.000000e+000
    outer loop
      vertex  1.800000e+001 -3.000000e+000  0.000000e+000
      vertex  1.341421e+001  1.414214e+000  0.000000e+000
      vertex  1.800000e+001  3.000000e+000  0.000000e+000
    endloop
  endfacet
  facet normal  0.000000e+000  0.000000e+000 -1.000000e+000
    outer loop
      vertex -1.733013e+001 -5.500000e+000  0.000000e+000
      vertex -1.800000e+001 -3.000000e+000  0.000000e+000
      vertex -1.550000e+001 -7.330127e+000  0.000000e+000
    endloop
  endfacet
  facet normal  0.000000e+000  0.000000e+000 -1.000000e+000
    outer loop
      vertex -1.550000e+001 -7.330127e+000  0.000000e+000
      vertex -1.800000e+001 -3.000000e+000  0.000000e+000
      vertex -1.200000e+001 -2.000000e+000  0.000000e+000
    endloop
  endfacet
  facet normal  0.000000e+000  0.000000e+000 -9.999999e-001
    outer loop
      vertex -1.550000e+001 -7.330127e+000  0.000000e+000
      vertex -1.200000e+001 -2.000000e+000  0.000000e+000
      vertex -1.300000e+001 -8.000000e+000  0.000000e+000
    endloop
  endfacet
  facet normal  0.000000e+000  0.000000e+000 -1.000000e+000
    outer loop
      vertex -1.300000e+001 -8.000000e+000  0.000000e+000
      vertex -1.200000e+001 -2.000000e+000  0.000000e+000
      vertex  1.200000e+001 -2.000000e+000  0.000000e+000
    endloop
  endfacet
  facet normal  0.000000e+000  -0.000000e+000 -1.000000e+000
    outer loop
      vertex -1.300000e+001 -8.000000e+000  0.000000e+000
      vertex  1.200000e+001 -2.000000e+000  0.000000e+000
      vertex  1.300000e+001 -8.000000e+000  0.000000e+000
    endloop
  endfacet
  facet normal  0.000000e+000  0.000000e+000 -1.000000e+000
    outer loop
      vertex  1.000000e+001  2.449213e-016  0.000000e+000
      vertex -1.058579e+001  1.414214e+000  0.000000e+000
      vertex  1.058579e+001  1.414214e+000  0.000000e+000
    endloop
  endfacet
  facet normal  -0.000000e+000  0.000000e+000 -1.000000e+000
    outer loop
      vertex -1.058579e+001  1.414214e+000  0.000000e+000
      vertex  1.000000e+001  2.449213e-016  0.000000e+000
      vertex -1.000000e+001  0.000000e+000  0.000000e+000
    endloop
  endfacet
  facet normal  0.000000e+000  0.000000e+000 -1.000000e+000
    outer loop
      vertex -1.000000e+001  0.000000e+000  0.000000e+000
      vertex  1.000000e+001  2.449213e-016  0.000000e+000
      vertex  1.058579e+001 -1.414214e+000  0.000000e+000
    endloop
  endfacet
  facet normal  0.000000e+000  0.000000e+000 -1.000000e+000
    outer loop
      vertex -1.000000e+001  0.000000e+000  0.000000e+000
      vertex  1.058579e+001 -1.414214e+000  0.000000e+000
      vertex -1.058579e+001 -1.414214e+000  0.000000e+000
    endloop
  endfacet
  facet normal  0.000000e+000  0.000000e+000 -1.000000e+000
    outer loop
      vertex -1.058579e+001 -1.414214e+000  0.000000e+000
      vertex  1.058579e+001 -1.414214e+000  0.000000e+000
      vertex  1.200000e+001 -2.000000e+000  0.000000e+000
    endloop
  endfacet
  facet normal  0.000000e+000  0.000000e+000 -1.000000e+000
    outer loop
      vertex -1.058579e+001 -1.414214e+000  0.000000e+000
      vertex  1.200000e+001 -2.000000e+000  0.000000e+000
      vertex -1.200000e+001 -2.000000e+000  0.000000e+000
    endloop
  endfacet
  facet normal  3.826835e-001 -9.238795e-001  0.000000e+000
    outer loop
      vertex  1.200000e+001  2.000000e+000  0.000000e+000
      vertex  1.058579e+001  1.414214e+000  2.000000e+000
      vertex  1.058579e+001  1.414214e+000  0.000000e+000
    endloop
  endfacet
  facet normal  9.238794e-001 -3.826837e-001  0.000000e+000
    outer loop
      vertex  1.058579e+001  1.414214e+000  0.000000e+000
      vertex  1.058579e+001  1.414214e+000  2.000000e+000
      vertex  1.000000e+001  2.449213e-016  2.000000e+000
    endloop
  endfacet
  facet normal  9.238794e-001 -3.826837e-001  0.000000e+000
    outer loop
      vertex  1.058579e+001  1.414214e+000  0.000000e+000
      vertex  1.000000e+001  2.449213e-016  2.000000e+000
      vertex  1.000000e+001  2.449213e-016  0.000000e+000
    endloop
  endfacet
  facet normal  3.826835e-001 -9.238795e-001  0.000000e+000
    outer loop
      vertex  1.058579e+001  1.414214e+000  2.000000e+000
      vertex  1.200000e+001  2.000000e+000  0.000000e+000
      vertex  1.200000e+001  2.000000e+000  2.000000e+000
    endloop
  endfacet
  facet normal -3.826835e-001 -9.238795e-001  -0.000000e+000
    outer loop
      vertex  1.200000e+001  2.000000e+000  2.000000e+000
      vertex  1.200000e+001  2.000000e+000  0.000000e+000
      vertex  1.341421e+001  1.414214e+000  0.000000e+000
    endloop
  endfacet
  facet normal -3.826835e-001 -9.238795e-001  0.000000e+000
    outer loop
      vertex  1.200000e+001  2.000000e+000  2.000000e+000
      vertex  1.341421e+001  1.414214e+000  0.000000e+000
      vertex  1.341421e+001  1.414214e+000  2.000000e+000
    endloop
  endfacet
  facet normal -9.238794e-001 -3.826837e-001  -0.000000e+000
    outer loop
      vertex  1.341421e+001  1.414214e+000  2.000000e+000
      vertex  1.341421e+001  1.414214e+000  0.000000e+000
      vertex  1.400000e+001  0.000000e+000  0.000000e+000
    endloop
  endfacet
  facet normal -9.238794e-001 -3.826837e-001  0.000000e+000
    outer loop
      vertex  1.341421e+001  1.414214e+000  2.000000e+000
      vertex  1.400000e+001  0.000000e+000  0.000000e+000
      vertex  1.400000e+001  0.000000e+000  2.000000e+000
    endloop
  endfacet
  facet normal -3.826835e-001  9.238795e-001  0.000000e+000
    outer loop
      vertex  1.200000e+001 -2.000000e+000  0.000000e+000
      vertex  1.341421e+001 -1.414214e+000  2.000000e+000
      vertex  1.341421e+001 -1.414214e+000  0.000000e+000
    endloop
  endfacet
  facet normal -9.238794e-001  3.826837e-001  0.000000e+000
    outer loop
      vertex  1.341421e+001 -1.414214e+000  0.000000e+000
      vertex  1.341421e+001 -1.414214e+000  2.000000e+000
      vertex  1.400000e+001  0.000000e+000  2.000000e+000
    endloop
  endfacet
  facet normal -9.238794e-001  3.826837e-001  0.000000e+000
    outer loop
      vertex  1.341421e+001 -1.414214e+000  0.000000e+000
      vertex  1.400000e+001  0.000000e+000  2.000000e+000
      vertex  1.400000e+001  0.000000e+000  0.000000e+000
    endloop
  endfacet
  facet normal -3.826835e-001  9.238795e-001  0.000000e+000
    outer loop
      vertex  1.341421e+001 -1.414214e+000  2.000000e+000
      vertex  1.200000e+001 -2.000000e+000  0.000000e+000
      vertex  1.200000e+001 -2.000000e+000  2.000000e+000
    endloop
  endfacet
  facet normal  3.826835e-001  9.238795e-001  0.000000e+000
    outer loop
      vertex  1.200000e+001 -2.000000e+000  2.000000e+000
      vertex  1.200000e+001 -2.000000e+000  0.000000e+000
      vertex  1.058579e+001 -1.414214e+000  0.000000e+000
    endloop
  endfacet
  facet normal  3.826835e-001  9.238795e-001  -0.000000e+000
    outer loop
      vertex  1.200000e+001 -2.000000e+000  2.000000e+000
      vertex  1.058579e+001 -1.414214e+000  0.000000e+000
      vertex  1.058579e+001 -1.414214e+000  2.000000e+000
    endloop
  endfacet
  facet normal  9.238794e-001  3.826837e-001  0.000000e+000
    outer loop
      vertex  1.058579e+001 -1.414214e+000  2.000000e+000
      vertex  1.058579e+001 -1.414214e+000  0.000000e+000
      vertex  1.000000e+001  2.449213e-016  0.000000e+000
    endloop
  endfacet
  facet normal  9.238794e-001  3.826837e-001  -0.000000e+000
    outer loop
      vertex  1.058579e+001 -1.414214e+000  2.000000e+000
      vertex  1.000000e+001  2.449213e-016  0.000000e+000
      vertex  1.000000e+001  2.449213e-016  2.000000e+000
    endloop
  endfacet
  facet normal  3.826835e-001 -9.238795e-001  0.000000e+000
    outer loop
      vertex -1.200000e+001  2.000000e+000  0.000000e+000
      vertex -1.341421e+001  1.414214e+000  2.000000e+000
      vertex -1.341421e+001  1.414214e+000  0.000000e+000
    endloop
  endfacet
  facet normal  9.238794e-001 -3.826837e-001  0.000000e+000
    outer loop
      vertex -1.341421e+001  1.414214e+000  0.000000e+000
      vertex -1.341421e+001  1.414214e+000  2.000000e+000
      vertex -1.400000e+001  2.449213e-016  2.000000e+000
    endloop
  endfacet
  facet normal  9.238794e-001 -3.826837e-001  0.000000e+000
    outer loop
      vertex -1.341421e+001  1.414214e+000  0.000000e+000
      vertex -1.400000e+001  2.449213e-016  2.000000e+000
      vertex -1.400000e+001  2.449213e-016  0.000000e+000
    endloop
  endfacet
  facet normal  3.826835e-001 -9.238795e-001  0.000000e+000
    outer loop
      vertex -1.341421e+001  1.414214e+000  2.000000e+000
      vertex -1.200000e+001  2.000000e+000  0.000000e+000
      vertex -1.200000e+001  2.000000e+000  2.000000e+000
    endloop
  endfacet
  facet normal -3.826835e-001 -9.238795e-001  -0.000000e+000
    outer loop
      vertex -1.200000e+001  2.000000e+000  2.000000e+000
      vertex -1.200000e+001  2.000000e+000  0.000000e+000
      vertex -1.058579e+001  1.414214e+000  0.000000e+000
    endloop
  endfacet
  facet normal -3.826835e-001 -9.238795e-001  0.000000e+000
    outer loop
      vertex -1.200000e+001  2.000000e+000  2.000000e+000
      vertex -1.058579e+001  1.414214e+000  0.000000e+000
      vertex -1.058579e+001  1.414214e+000  2.000000e+000
    endloop
  endfacet
  facet normal -9.238794e-001 -3.826837e-001  -0.000000e+000
    outer loop
      vertex -1.058579e+001  1.414214e+000  2.000000e+000
      vertex -1.058579e+001  1.414214e+000  0.000000e+000
      vertex -1.000000e+001  0.000000e+000  0.000000e+000
    endloop
  endfacet
  facet normal -9.238794e-001 -3.826837e-001  0.000000e+000
    outer loop
      vertex -1.058579e+001  1.414214e+000  2.000000e+000
      vertex -1.000000e+001  0.000000e+000  0.000000e+000
      vertex -1.000000e+001  0.000000e+000  2.000000e+000
    endloop
  endfacet
  facet normal -3.826835e-001  9.238795e-001  0.000000e+000
    outer loop
      vertex -1.200000e+001 -2.000000e+000  0.000000e+000
      vertex -1.058579e+001 -1.414214e+000  2.000000e+000
      vertex -1.058579e+001 -1.414214e+000  0.000000e+000
    endloop
  endfacet
  facet normal -9.238794e-001  3.826837e-001  0.000000e+000
    outer loop
      vertex -1.058579e+001 -1.414214e+000  0.000000e+000
      vertex -1.058579e+001 -1.414214e+000  2.000000e+000
      vertex -1.000000e+001  0.000000e+000  2.000000e+000
    endloop
  endfacet
  facet normal -9.238794e-001  3.826837e-001  0.000000e+000
    outer loop
      vertex -1.058579e+001 -1.414214e+000  0.000000e+000
      vertex -1.000000e+001  0.000000e+000  2.000000e+000
      vertex -1.000000e+001  0.000000e+000  0.000000e+000
    endloop
  endfacet
  facet normal -3.826835e-001  9.238795e-001  0.000000e+000
    outer loop
      vertex -1.058579e+001 -1.414214e+000  2.000000e+000
      vertex -1.200000e+001 -2.000000e+000  0.000000e+000
      vertex -1.200000e+001 -2.000000e+000  2.000000e+000
    endloop
  endfacet
  facet normal  3.826835e-001  9.238795e-001  0.000000e+000
    outer loop
      vertex -1.200000e+001 -2.000000e+000  2.000000e+000
      vertex -1.200000e+001 -2.000000e+000  0.000000e+000
      vertex -1.341421e+001 -1.414214e+000  0.000000e+000
    endloop
  endfacet
  facet normal  3.826835e-001  9.238795e-001  -0.000000e+000
    outer loop
      vertex -1.200000e+001 -2.000000e+000  2.000000e+000
      vertex -1.341421e+001 -1.414214e+000  0.000000e+000
      vertex -1.341421e+001 -1.414214e+000  2.000000e+000
    endloop
  endfacet
  facet normal  9.238794e-001  3.826837e-001  0.000000e+000
    outer loop
      vertex -1.341421e+001 -1.414214e+000  2.000000e+000
      vertex -1.341421e+001 -1.414214e+000  0.000000e+000
      vertex -1.400000e+001  2.449213e-016  0.000000e+000
    endloop
  endfacet
  facet normal  9.238794e-001  3.826837e-001  -0.000000e+000
    outer loop
      vertex -1.341421e+001 -1.414214e+000  2.000000e+000
      vertex -1.400000e+001  2.449213e-016  0.000000e+000
      vertex -1.400000e+001  2.449213e-016  2.000000e+000
    endloop
  endfacet
  facet normal  1.000000e+000  -0.000000e+000  0.000000e+000
    outer loop
      vertex  1.800000e+001  3.000000e+000  2.000000e+000
      vertex  1.800000e+001 -3.000000e+000  2.000000e+000
      vertex  1.800000e+001  3.000000e+000  0.000000e+000
    endloop
  endfacet
  facet normal  1.000000e+000  0.000000e+000  0.000000e+000
    outer loop
      vertex  1.800000e+001  3.000000e+000  0.000000e+000
      vertex  1.800000e+001 -3.000000e+000  2.000000e+000
      vertex  1.800000e+001 -3.000000e+000  0.000000e+000
    endloop
  endfacet
  facet normal  9.659259e-001 -2.588188e-001  0.000000e+000
    outer loop
      vertex  1.800000e+001 -3.000000e+000  0.000000e+000
      vertex  1.800000e+001 -3.000000e+000  2.000000e+000
      vertex  1.733013e+001 -5.500000e+000  0.000000e+000
    endloop
  endfacet
  facet normal  9.659259e-001 -2.588188e-001  0.000000e+000
    outer loop
      vertex  1.733013e+001 -5.500000e+000  0.000000e+000
      vertex  1.800000e+001 -3.000000e+000  2.000000e+000
      vertex  1.733013e+001 -5.500000e+000  2.000000e+000
    endloop
  endfacet
  facet normal  7.071067e-001 -7.071069e-001  0.000000e+000
    outer loop
      vertex  1.733013e+001 -5.500000e+000  0.000000e+000
      vertex  1.733013e+001 -5.500000e+000  2.000000e+000
      vertex  1.550000e+001 -7.330127e+000  0.000000e+000
    endloop
  endfacet
  facet normal  7.071067e-001 -7.071069e-001  0.000000e+000
    outer loop
      vertex  1.550000e+001 -7.330127e+000  0.000000e+000
      vertex  1.733013e+001 -5.500000e+000  2.000000e+000
      vertex  1.550000e+001 -7.330127e+000  2.000000e+000
    endloop
  endfacet
  facet normal  2.588190e-001 -9.659259e-001  0.000000e+000
    outer loop
      vertex  1.550000e+001 -7.330127e+000  0.000000e+000
      vertex  1.550000e+001 -7.330127e+000  2.000000e+000
      vertex  1.300000e+001 -8.000000e+000  0.000000e+000
    endloop
  endfacet
  facet normal  2.588190e-001 -9.659259e-001  0.000000e+000
    outer loop
      vertex  1.300000e+001 -8.000000e+000  0.000000e+000
      vertex  1.550000e+001 -7.330127e+000  2.000000e+000
      vertex  1.300000e+001 -8.000000e+000  2.000000e+000
    endloop
  endfacet
  facet normal -2.588190e-001 -9.659259e-001  -0.000000e+000
    outer loop
      vertex -1.300000e+001 -8.000000e+000  0.000000e+000
      vertex -1.300000e+001 -8.000000e+000  2.000000e+000
      vertex -1.550000e+001 -7.330127e+000  0.000000e+000
    endloop
  endfacet
  facet normal -2.588190e-001 -9.659259e-001  0.000000e+000
    outer loop
      vertex -1.550000e+001 -7.330127e+000  0.000000e+000
      vertex -1.300000e+001 -8.000000e+000  2.000000e+000
      vertex -1.550000e+001 -7.330127e+000  2.000000e+000
    endloop
  endfacet
  facet normal -7.071067e-001 -7.071069e-001  -0.000000e+000
    outer loop
      vertex -1.550000e+001 -7.330127e+000  0.000000e+000
      vertex -1.550000e+001 -7.330127e+000  2.000000e+000
      vertex -1.733013e+001 -5.500000e+000  0.000000e+000
    endloop
  endfacet
  facet normal -7.071067e-001 -7.071069e-001  0.000000e+000
    outer loop
      vertex -1.733013e+001 -5.500000e+000  0.000000e+000
      vertex -1.550000e+001 -7.330127e+000  2.000000e+000
      vertex -1.733013e+001 -5.500000e+000  2.000000e+000
    endloop
  endfacet
  facet normal -9.659259e-001 -2.588188e-001  -0.000000e+000
    outer loop
      vertex -1.733013e+001 -5.500000e+000  0.000000e+000
      vertex -1.733013e+001 -5.500000e+000  2.000000e+000
      vertex -1.800000e+001 -3.000000e+000  0.000000e+000
    endloop
  endfacet
  facet normal -9.659259e-001 -2.588188e-001  0.000000e+000
    outer loop
      vertex -1.800000e+001 -3.000000e+000  0.000000e+000
      vertex -1.733013e+001 -5.500000e+000  2.000000e+000
      vertex -1.800000e+001 -3.000000e+000  2.000000e+000
    endloop
  endfacet
  facet normal -1.000000e+000  -0.000000e+000  0.000000e+000
    outer loop
      vertex -1.800000e+001 -3.000000e+000  2.000000e+000
      vertex -1.800000e+001  3.000000e+000  2.000000e+000
      vertex -1.800000e+001 -3.000000e+000  0.000000e+000
    endloop
  endfacet
  facet normal -1.000000e+000  0.000000e+000  0.000000e+000
    outer loop
      vertex -1.800000e+001 -3.000000e+000  0.000000e+000
      vertex -1.800000e+001  3.000000e+000  2.000000e+000
      vertex -1.800000e+001  3.000000e+000  0.000000e+000
    endloop
  endfacet
  facet normal -9.659259e-001  2.588188e-001  0.000000e+000
    outer loop
      vertex -1.800000e+001  3.000000e+000  0.000000e+000
      vertex -1.800000e+001  3.000000e+000  2.000000e+000
      vertex -1.733013e+001  5.500000e+000  0.000000e+000
    endloop
  endfacet
  facet normal -9.659259e-001  2.588188e-001  0.000000e+000
    outer loop
      vertex -1.733013e+001  5.500000e+000  0.000000e+000
      vertex -1.800000e+001  3.000000e+000  2.000000e+000
      vertex -1.733013e+001  5.500000e+000  2.000000e+000
    endloop
  endfacet
  facet normal -7.071067e-001  7.071069e-001  0.000000e+000
    outer loop
      vertex -1.733013e+001  5.500000e+000  0.000000e+000
      vertex -1.733013e+001  5.500000e+000  2.000000e+000
      vertex -1.550000e+001  7.330127e+000  0.000000e+000
    endloop
  endfacet
  facet normal -7.071067e-001  7.071069e-001  0.000000e+000
    outer loop
      vertex -1.550000e+001  7.330127e+000  0.000000e+000
      vertex -1.733013e+001  5.500000e+000  2.000000e+000
      vertex -1.550000e+001  7.330127e+000  2.000000e+000
    endloop
  endfacet
  facet normal -2.588190e-001  9.659259e-001  0.000000e+000
    outer loop
      vertex -1.550000e+001  7.330127e+000  0.000000e+000
      vertex -1.550000e+001  7.330127e+000  2.000000e+000
      vertex -1.300000e+001  8.000000e+000  0.000000e+000
    endloop
  endfacet
  facet normal -2.588190e-001  9.659259e-001  0.000000e+000
    outer loop
      vertex -1.300000e+001  8.000000e+000  0.000000e+000
      vertex -1.550000e+001  7.330127e+000  2.000000e+000
      vertex -1.300000e+001  8.000000e+000  2.000000e+000
    endloop
  endfacet
  facet normal  2.588190e-001  9.659259e-001  0.000000e+000
    outer loop
      vertex  1.300000e+001  8.000000e+000  0.000000e+000
      vertex  1.300000e+001  8.000000e+000  2.000000e+000
      vertex  1.550000e+001  7.330127e+000  0.000000e+000
    endloop
  endfacet
  facet normal  2.588190e-001  9.659259e-001  -0.000000e+000
    outer loop
      vertex  1.550000e+001  7.330127e+000  0.000000e+000
      vertex  1.300000e+001  8.000000e+000  2.000000e+000
      vertex  1.550000e+001  7.330127e+000  2.000000e+000
    endloop
  endfacet
  facet normal  7.071067e-001  7.071069e-001  0.000000e+000
    outer loop
      vertex  1.550000e+001  7.330127e+000  0.000000e+000
      vertex  1.550000e+001  7.330127e+000  2.000000e+000
      vertex  1.733013e+001  5.500000e+000  0.000000e+000
    endloop
  endfacet
  facet normal  7.071067e-001  7.071069e-001  -0.000000e+000
    outer loop
      vertex  1.733013e+001  5.500000e+000  0.000000e+000
      vertex  1.550000e+001  7.330127e+000  2.000000e+000
      vertex  1.733013e+001  5.500000e+000  2.000000e+000
    endloop
  endfacet
  facet normal  9.659259e-001  2.588188e-001  0.000000e+000
    outer loop
      vertex  1.733013e+001  5.500000e+000  0.000000e+000
      vertex  1.733013e+001  5.500000e+000  2.000000e+000
      vertex  1.800000e+001  3.000000e+000  0.000000e+000
    endloop
  endfacet
  facet normal  9.659259e-001  2.588188e-001  -0.000000e+000
    outer loop
      vertex  1.800000e+001  3.000000e+000  0.000000e+000
      vertex  1.733013e+001  5.500000e+000  2.000000e+000
      vertex  1.800000e+001  3.000000e+000  2.000000e+000
    endloop
  endfacet
endsolid CATIA STL
