solid CATIA STL
  facet normal  0.000000e+000  0.000000e+000 -1.000000e+000
    outer loop
      vertex -4.501851e-015  2.080000e+001  0.000000e+000
      vertex  2.065526e+000  1.384679e+001  0.000000e+000
      vertex -2.065526e+000  1.384679e+001  0.000000e+000
    endloop
  endfacet
  facet normal  -0.000000e+000  0.000000e+000 -9.999999e-001
    outer loop
      vertex -4.501851e-015  2.080000e+001  0.000000e+000
      vertex -6.016733e+000  1.264116e+001  0.000000e+000
      vertex -9.444068e+000  1.033487e+001  0.000000e+000
    endloop
  endfacet
  facet normal  -0.000000e+000  0.000000e+000 -1.000000e+000
    outer loop
      vertex -4.501851e-015  2.080000e+001  0.000000e+000
      vertex -2.065526e+000  1.384679e+001  0.000000e+000
      vertex -6.016733e+000  1.264116e+001  0.000000e+000
    endloop
  endfacet
  facet normal  0.000000e+000  0.000000e+000 -9.999999e-001
    outer loop
      vertex  6.016733e+000  1.264116e+001  0.000000e+000
      vertex -4.501851e-015  2.080000e+001  0.000000e+000
      vertex  9.444068e+000  1.033487e+001  0.000000e+000
    endloop
  endfacet
  facet normal  0.000000e+000  0.000000e+000 -1.000000e+000
    outer loop
      vertex  2.065526e+000  1.384679e+001  0.000000e+000
      vertex -4.501851e-015  2.080000e+001  0.000000e+000
      vertex  6.016733e+000  1.264116e+001  0.000000e+000
    endloop
  endfacet
  facet normal  0.000000e+000  -0.000000e+000 -1.000000e+000
    outer loop
      vertex -1.297300e+001  7.463332e+000  0.000000e+000
      vertex -9.871170e+000  2.660000e+001  0.000000e+000
      vertex -3.637307e+000  2.710000e+001  0.000000e+000
    endloop
  endfacet
  facet normal  0.000000e+000  0.000000e+000 -1.000000e+000
    outer loop
      vertex -1.297300e+001  7.463332e+000  0.000000e+000
      vertex -3.637307e+000  2.710000e+001  0.000000e+000
      vertex -4.200000e+000  2.500000e+001  0.000000e+000
    endloop
  endfacet
  facet normal  0.000000e+000  -0.000000e+000 -1.000000e+000
    outer loop
      vertex -1.297300e+001  7.463332e+000  0.000000e+000
      vertex -4.200000e+000  2.500000e+001  0.000000e+000
      vertex -3.637307e+000  2.290000e+001  0.000000e+000
    endloop
  endfacet
  facet normal  0.000000e+000  -0.000000e+000 -1.000000e+000
    outer loop
      vertex -1.297300e+001  7.463332e+000  0.000000e+000
      vertex -3.637307e+000  2.290000e+001  0.000000e+000
      vertex -2.100000e+000  2.136269e+001  0.000000e+000
    endloop
  endfacet
  facet normal  0.000000e+000  -0.000000e+000 -1.000000e+000
    outer loop
      vertex -1.297300e+001  7.463332e+000  0.000000e+000
      vertex -2.100000e+000  2.136269e+001  0.000000e+000
      vertex -4.501851e-015  2.080000e+001  0.000000e+000
    endloop
  endfacet
  facet normal  0.000000e+000  0.000000e+000 -1.000000e+000
    outer loop
      vertex -1.297300e+001  7.463332e+000  0.000000e+000
      vertex -4.501851e-015  2.080000e+001  0.000000e+000
      vertex -9.444068e+000  1.033487e+001  0.000000e+000
    endloop
  endfacet
  facet normal  0.000000e+000  0.000000e+000 -1.000000e+000
    outer loop
      vertex -1.297300e+001  7.463332e+000  0.000000e+000
      vertex -9.444068e+000  1.033487e+001  0.000000e+000
      vertex -1.204911e+001  7.128735e+000  0.000000e+000
    endloop
  endfacet
  facet normal  0.000000e+000  0.000000e+000 -1.000000e+000
    outer loop
      vertex -1.297300e+001  7.463332e+000  0.000000e+000
      vertex -1.204911e+001  7.128735e+000  0.000000e+000
      vertex -1.291051e+001  7.129997e+000  0.000000e+000
    endloop
  endfacet
  facet normal  0.000000e+000  0.000000e+000 -1.000000e+000
    outer loop
      vertex  2.571673e-016  2.920000e+001  0.000000e+000
      vertex -2.100000e+000  2.863731e+001  0.000000e+000
      vertex -8.711695e+000  2.990982e+001  0.000000e+000
    endloop
  endfacet
  facet normal  0.000000e+000  0.000000e+000 -1.000000e+000
    outer loop
      vertex  2.571673e-016  2.920000e+001  0.000000e+000
      vertex -8.711695e+000  2.990982e+001  0.000000e+000
      vertex -6.480741e+000  3.261577e+001  0.000000e+000
    endloop
  endfacet
  facet normal  0.000000e+000  0.000000e+000 -1.000000e+000
    outer loop
      vertex  2.571673e-016  2.920000e+001  0.000000e+000
      vertex -6.480741e+000  3.261577e+001  0.000000e+000
      vertex -3.452700e+000  3.438503e+001  0.000000e+000
    endloop
  endfacet
  facet normal  0.000000e+000  0.000000e+000 -1.000000e+000
    outer loop
      vertex  2.571673e-016  2.920000e+001  0.000000e+000
      vertex -3.452700e+000  3.438503e+001  0.000000e+000
      vertex  6.123032e-016  3.500000e+001  0.000000e+000
    endloop
  endfacet
  facet normal  0.000000e+000  -0.000000e+000 -1.000000e+000
    outer loop
      vertex  2.571673e-016  2.920000e+001  0.000000e+000
      vertex  6.123032e-016  3.500000e+001  0.000000e+000
      vertex  3.452700e+000  3.438503e+001  0.000000e+000
    endloop
  endfacet
  facet normal  0.000000e+000  -0.000000e+000 -1.000000e+000
    outer loop
      vertex  2.571673e-016  2.920000e+001  0.000000e+000
      vertex  3.452700e+000  3.438503e+001  0.000000e+000
      vertex  6.480741e+000  3.261577e+001  0.000000e+000
    endloop
  endfacet
  facet normal  0.000000e+000  -0.000000e+000 -1.000000e+000
    outer loop
      vertex  2.571673e-016  2.920000e+001  0.000000e+000
      vertex  6.480741e+000  3.261577e+001  0.000000e+000
      vertex  8.711695e+000  2.990982e+001  0.000000e+000
    endloop
  endfacet
  facet normal  0.000000e+000  0.000000e+000 -1.000000e+000
    outer loop
      vertex  2.571673e-016  2.920000e+001  0.000000e+000
      vertex  8.711695e+000  2.990982e+001  0.000000e+000
      vertex  2.100000e+000  2.863731e+001  0.000000e+000
    endloop
  endfacet
  facet normal  -0.000000e+000  0.000000e+000 -1.000000e+000
    outer loop
      vertex  1.297300e+001  7.463332e+000  0.000000e+000
      vertex  1.291051e+001  7.129997e+000  0.000000e+000
      vertex  1.204911e+001  7.128735e+000  0.000000e+000
    endloop
  endfacet
  facet normal  0.000000e+000  0.000000e+000 -1.000000e+000
    outer loop
      vertex  1.297300e+001  7.463332e+000  0.000000e+000
      vertex  1.204911e+001  7.128735e+000  0.000000e+000
      vertex  9.444068e+000  1.033487e+001  0.000000e+000
    endloop
  endfacet
  facet normal  0.000000e+000  0.000000e+000 -1.000000e+000
    outer loop
      vertex  1.297300e+001  7.463332e+000  0.000000e+000
      vertex  9.444068e+000  1.033487e+001  0.000000e+000
      vertex -4.501851e-015  2.080000e+001  0.000000e+000
    endloop
  endfacet
  facet normal  0.000000e+000  0.000000e+000 -1.000000e+000
    outer loop
      vertex  1.297300e+001  7.463332e+000  0.000000e+000
      vertex -4.501851e-015  2.080000e+001  0.000000e+000
      vertex  2.100000e+000  2.136269e+001  0.000000e+000
    endloop
  endfacet
  facet normal  0.000000e+000  0.000000e+000 -1.000000e+000
    outer loop
      vertex  1.297300e+001  7.463332e+000  0.000000e+000
      vertex  2.100000e+000  2.136269e+001  0.000000e+000
      vertex  3.637307e+000  2.290000e+001  0.000000e+000
    endloop
  endfacet
  facet normal  0.000000e+000  0.000000e+000 -1.000000e+000
    outer loop
      vertex  1.297300e+001  7.463332e+000  0.000000e+000
      vertex  3.637307e+000  2.290000e+001  0.000000e+000
      vertex  4.200000e+000  2.500000e+001  0.000000e+000
    endloop
  endfacet
  facet normal  0.000000e+000  0.000000e+000 -1.000000e+000
    outer loop
      vertex  1.297300e+001  7.463332e+000  0.000000e+000
      vertex  4.200000e+000  2.500000e+001  0.000000e+000
      vertex  3.637307e+000  2.710000e+001  0.000000e+000
    endloop
  endfacet
  facet normal  0.000000e+000  0.000000e+000 -1.000000e+000
    outer loop
      vertex  1.297300e+001  7.463332e+000  0.000000e+000
      vertex  3.637307e+000  2.710000e+001  0.000000e+000
      vertex  9.871170e+000  2.660000e+001  0.000000e+000
    endloop
  endfacet
  facet normal  0.000000e+000  0.000000e+000 -1.000000e+000
    outer loop
      vertex -3.637307e+000  2.710000e+001  0.000000e+000
      vertex -9.871170e+000  2.660000e+001  0.000000e+000
      vertex -2.100000e+000  2.863731e+001  0.000000e+000
    endloop
  endfacet
  facet normal  -0.000000e+000  0.000000e+000 -1.000000e+000
    outer loop
      vertex -2.100000e+000  2.863731e+001  0.000000e+000
      vertex -9.871170e+000  2.660000e+001  0.000000e+000
      vertex -8.711695e+000  2.990982e+001  0.000000e+000
    endloop
  endfacet
  facet normal  0.000000e+000  0.000000e+000 -1.000000e+000
    outer loop
      vertex -1.264970e+001  6.913214e+000  0.000000e+000
      vertex -1.291051e+001  7.129997e+000  0.000000e+000
      vertex -1.231056e+001  6.912716e+000  0.000000e+000
    endloop
  endfacet
  facet normal  0.000000e+000  0.000000e+000 -1.000000e+000
    outer loop
      vertex -1.231056e+001  6.912716e+000  0.000000e+000
      vertex -1.291051e+001  7.129997e+000  0.000000e+000
      vertex -1.204911e+001  7.128735e+000  0.000000e+000
    endloop
  endfacet
  facet normal  0.000000e+000  0.000000e+000 -1.000000e+000
    outer loop
      vertex  3.637307e+000  2.710000e+001  0.000000e+000
      vertex  2.100000e+000  2.863731e+001  0.000000e+000
      vertex  9.871170e+000  2.660000e+001  0.000000e+000
    endloop
  endfacet
  facet normal  0.000000e+000  0.000000e+000 -1.000000e+000
    outer loop
      vertex  9.871170e+000  2.660000e+001  0.000000e+000
      vertex  2.100000e+000  2.863731e+001  0.000000e+000
      vertex  8.711695e+000  2.990982e+001  0.000000e+000
    endloop
  endfacet
  facet normal  0.000000e+000  0.000000e+000 -1.000000e+000
    outer loop
      vertex  1.204911e+001  7.128735e+000  0.000000e+000
      vertex  1.291051e+001  7.129997e+000  0.000000e+000
      vertex  1.231056e+001  6.912716e+000  0.000000e+000
    endloop
  endfacet
  facet normal  0.000000e+000  0.000000e+000 -1.000000e+000
    outer loop
      vertex  1.231056e+001  6.912716e+000  0.000000e+000
      vertex  1.291051e+001  7.129997e+000  0.000000e+000
      vertex  1.264970e+001  6.913214e+000  0.000000e+000
    endloop
  endfacet
  facet normal  0.000000e+000  0.000000e+000  1.000000e+000
    outer loop
      vertex -2.065526e+000  1.384679e+001  3.000000e+000
      vertex  2.065526e+000  1.384679e+001  3.000000e+000
      vertex -4.501851e-015  2.080000e+001  3.000000e+000
    endloop
  endfacet
  facet normal  0.000000e+000  -0.000000e+000  9.999999e-001
    outer loop
      vertex -9.444068e+000  1.033487e+001  3.000000e+000
      vertex -6.016733e+000  1.264116e+001  3.000000e+000
      vertex -4.501851e-015  2.080000e+001  3.000000e+000
    endloop
  endfacet
  facet normal  0.000000e+000  -0.000000e+000  1.000000e+000
    outer loop
      vertex -6.016733e+000  1.264116e+001  3.000000e+000
      vertex -2.065526e+000  1.384679e+001  3.000000e+000
      vertex -4.501851e-015  2.080000e+001  3.000000e+000
    endloop
  endfacet
  facet normal  0.000000e+000  0.000000e+000  9.999999e-001
    outer loop
      vertex  9.444068e+000  1.033487e+001  3.000000e+000
      vertex -4.501851e-015  2.080000e+001  3.000000e+000
      vertex  6.016733e+000  1.264116e+001  3.000000e+000
    endloop
  endfacet
  facet normal  0.000000e+000  0.000000e+000  1.000000e+000
    outer loop
      vertex  6.016733e+000  1.264116e+001  3.000000e+000
      vertex -4.501851e-015  2.080000e+001  3.000000e+000
      vertex  2.065526e+000  1.384679e+001  3.000000e+000
    endloop
  endfacet
  facet normal  -0.000000e+000  -0.000000e+000  1.000000e+000
    outer loop
      vertex -1.297300e+001  7.463332e+000  3.000000e+000
      vertex -1.291051e+001  7.129997e+000  3.000000e+000
      vertex -1.204911e+001  7.128735e+000  3.000000e+000
    endloop
  endfacet
  facet normal  0.000000e+000  -0.000000e+000  1.000000e+000
    outer loop
      vertex -1.297300e+001  7.463332e+000  3.000000e+000
      vertex -1.204911e+001  7.128735e+000  3.000000e+000
      vertex -9.444068e+000  1.033487e+001  3.000000e+000
    endloop
  endfacet
  facet normal  0.000000e+000  -0.000000e+000  1.000000e+000
    outer loop
      vertex -1.297300e+001  7.463332e+000  3.000000e+000
      vertex -9.444068e+000  1.033487e+001  3.000000e+000
      vertex -4.501851e-015  2.080000e+001  3.000000e+000
    endloop
  endfacet
  facet normal  0.000000e+000  0.000000e+000  1.000000e+000
    outer loop
      vertex -1.297300e+001  7.463332e+000  3.000000e+000
      vertex -4.501851e-015  2.080000e+001  3.000000e+000
      vertex -2.100000e+000  2.136269e+001  3.000000e+000
    endloop
  endfacet
  facet normal  0.000000e+000  0.000000e+000  1.000000e+000
    outer loop
      vertex -1.297300e+001  7.463332e+000  3.000000e+000
      vertex -2.100000e+000  2.136269e+001  3.000000e+000
      vertex -3.637307e+000  2.290000e+001  3.000000e+000
    endloop
  endfacet
  facet normal  0.000000e+000  0.000000e+000  1.000000e+000
    outer loop
      vertex -1.297300e+001  7.463332e+000  3.000000e+000
      vertex -3.637307e+000  2.290000e+001  3.000000e+000
      vertex -4.200000e+000  2.500000e+001  3.000000e+000
    endloop
  endfacet
  facet normal  0.000000e+000  -0.000000e+000  1.000000e+000
    outer loop
      vertex -1.297300e+001  7.463332e+000  3.000000e+000
      vertex -4.200000e+000  2.500000e+001  3.000000e+000
      vertex -3.637307e+000  2.710000e+001  3.000000e+000
    endloop
  endfacet
  facet normal  0.000000e+000  0.000000e+000  1.000000e+000
    outer loop
      vertex -1.297300e+001  7.463332e+000  3.000000e+000
      vertex -3.637307e+000  2.710000e+001  3.000000e+000
      vertex -9.871170e+000  2.660000e+001  3.000000e+000
    endloop
  endfacet
  facet normal  0.000000e+000  -0.000000e+000  1.000000e+000
    outer loop
      vertex  2.571673e-016  2.920000e+001  3.000000e+000
      vertex  2.100000e+000  2.863731e+001  3.000000e+000
      vertex  8.711695e+000  2.990982e+001  3.000000e+000
    endloop
  endfacet
  facet normal  0.000000e+000  0.000000e+000  1.000000e+000
    outer loop
      vertex  2.571673e-016  2.920000e+001  3.000000e+000
      vertex  8.711695e+000  2.990982e+001  3.000000e+000
      vertex  6.480741e+000  3.261577e+001  3.000000e+000
    endloop
  endfacet
  facet normal  0.000000e+000  0.000000e+000  1.000000e+000
    outer loop
      vertex  2.571673e-016  2.920000e+001  3.000000e+000
      vertex  6.480741e+000  3.261577e+001  3.000000e+000
      vertex  3.452700e+000  3.438503e+001  3.000000e+000
    endloop
  endfacet
  facet normal  0.000000e+000  0.000000e+000  1.000000e+000
    outer loop
      vertex  2.571673e-016  2.920000e+001  3.000000e+000
      vertex  3.452700e+000  3.438503e+001  3.000000e+000
      vertex  6.123032e-016  3.500000e+001  3.000000e+000
    endloop
  endfacet
  facet normal  0.000000e+000  0.000000e+000  1.000000e+000
    outer loop
      vertex  2.571673e-016  2.920000e+001  3.000000e+000
      vertex  6.123032e-016  3.500000e+001  3.000000e+000
      vertex -3.452700e+000  3.438503e+001  3.000000e+000
    endloop
  endfacet
  facet normal  0.000000e+000  0.000000e+000  1.000000e+000
    outer loop
      vertex  2.571673e-016  2.920000e+001  3.000000e+000
      vertex -3.452700e+000  3.438503e+001  3.000000e+000
      vertex -6.480741e+000  3.261577e+001  3.000000e+000
    endloop
  endfacet
  facet normal  0.000000e+000  0.000000e+000  1.000000e+000
    outer loop
      vertex  2.571673e-016  2.920000e+001  3.000000e+000
      vertex -6.480741e+000  3.261577e+001  3.000000e+000
      vertex -8.711695e+000  2.990982e+001  3.000000e+000
    endloop
  endfacet
  facet normal  0.000000e+000  0.000000e+000  1.000000e+000
    outer loop
      vertex  2.571673e-016  2.920000e+001  3.000000e+000
      vertex -8.711695e+000  2.990982e+001  3.000000e+000
      vertex -2.100000e+000  2.863731e+001  3.000000e+000
    endloop
  endfacet
  facet normal  0.000000e+000  0.000000e+000  1.000000e+000
    outer loop
      vertex  1.297300e+001  7.463332e+000  3.000000e+000
      vertex  9.871170e+000  2.660000e+001  3.000000e+000
      vertex  3.637307e+000  2.710000e+001  3.000000e+000
    endloop
  endfacet
  facet normal  0.000000e+000  0.000000e+000  1.000000e+000
    outer loop
      vertex  1.297300e+001  7.463332e+000  3.000000e+000
      vertex  3.637307e+000  2.710000e+001  3.000000e+000
      vertex  4.200000e+000  2.500000e+001  3.000000e+000
    endloop
  endfacet
  facet normal  0.000000e+000  0.000000e+000  1.000000e+000
    outer loop
      vertex  1.297300e+001  7.463332e+000  3.000000e+000
      vertex  4.200000e+000  2.500000e+001  3.000000e+000
      vertex  3.637307e+000  2.290000e+001  3.000000e+000
    endloop
  endfacet
  facet normal  0.000000e+000  0.000000e+000  1.000000e+000
    outer loop
      vertex  1.297300e+001  7.463332e+000  3.000000e+000
      vertex  3.637307e+000  2.290000e+001  3.000000e+000
      vertex  2.100000e+000  2.136269e+001  3.000000e+000
    endloop
  endfacet
  facet normal  0.000000e+000  0.000000e+000  1.000000e+000
    outer loop
      vertex  1.297300e+001  7.463332e+000  3.000000e+000
      vertex  2.100000e+000  2.136269e+001  3.000000e+000
      vertex -4.501851e-015  2.080000e+001  3.000000e+000
    endloop
  endfacet
  facet normal  0.000000e+000  0.000000e+000  1.000000e+000
    outer loop
      vertex  1.297300e+001  7.463332e+000  3.000000e+000
      vertex -4.501851e-015  2.080000e+001  3.000000e+000
      vertex  9.444068e+000  1.033487e+001  3.000000e+000
    endloop
  endfacet
  facet normal  0.000000e+000  0.000000e+000  1.000000e+000
    outer loop
      vertex  1.297300e+001  7.463332e+000  3.000000e+000
      vertex  9.444068e+000  1.033487e+001  3.000000e+000
      vertex  1.204911e+001  7.128735e+000  3.000000e+000
    endloop
  endfacet
  facet normal  0.000000e+000  0.000000e+000  1.000000e+000
    outer loop
      vertex  1.297300e+001  7.463332e+000  3.000000e+000
      vertex  1.204911e+001  7.128735e+000  3.000000e+000
      vertex  1.291051e+001  7.129997e+000  3.000000e+000
    endloop
  endfacet
  facet normal  0.000000e+000  0.000000e+000  1.000000e+000
    outer loop
      vertex -3.637307e+000  2.710000e+001  3.000000e+000
      vertex -2.100000e+000  2.863731e+001  3.000000e+000
      vertex -9.871170e+000  2.660000e+001  3.000000e+000
    endloop
  endfacet
  facet normal  0.000000e+000  0.000000e+000  1.000000e+000
    outer loop
      vertex -9.871170e+000  2.660000e+001  3.000000e+000
      vertex -2.100000e+000  2.863731e+001  3.000000e+000
      vertex -8.711695e+000  2.990982e+001  3.000000e+000
    endloop
  endfacet
  facet normal  0.000000e+000  0.000000e+000  1.000000e+000
    outer loop
      vertex -1.264970e+001  6.913214e+000  3.000000e+000
      vertex -1.231056e+001  6.912716e+000  3.000000e+000
      vertex -1.291051e+001  7.129997e+000  3.000000e+000
    endloop
  endfacet
  facet normal  0.000000e+000  0.000000e+000  1.000000e+000
    outer loop
      vertex -1.291051e+001  7.129997e+000  3.000000e+000
      vertex -1.231056e+001  6.912716e+000  3.000000e+000
      vertex -1.204911e+001  7.128735e+000  3.000000e+000
    endloop
  endfacet
  facet normal  0.000000e+000  0.000000e+000  1.000000e+000
    outer loop
      vertex  3.637307e+000  2.710000e+001  3.000000e+000
      vertex  9.871170e+000  2.660000e+001  3.000000e+000
      vertex  2.100000e+000  2.863731e+001  3.000000e+000
    endloop
  endfacet
  facet normal  -0.000000e+000  0.000000e+000  1.000000e+000
    outer loop
      vertex  2.100000e+000  2.863731e+001  3.000000e+000
      vertex  9.871170e+000  2.660000e+001  3.000000e+000
      vertex  8.711695e+000  2.990982e+001  3.000000e+000
    endloop
  endfacet
  facet normal  0.000000e+000  -0.000000e+000  1.000000e+000
    outer loop
      vertex  1.204911e+001  7.128735e+000  3.000000e+000
      vertex  1.231056e+001  6.912716e+000  3.000000e+000
      vertex  1.291051e+001  7.129997e+000  3.000000e+000
    endloop
  endfacet
  facet normal  0.000000e+000  0.000000e+000  1.000000e+000
    outer loop
      vertex  1.291051e+001  7.129997e+000  3.000000e+000
      vertex  1.231056e+001  6.912716e+000  3.000000e+000
      vertex  1.264970e+001  6.913214e+000  3.000000e+000
    endloop
  endfacet
  facet normal  2.918459e-001 -9.564653e-001  0.000000e+000
    outer loop
      vertex -2.065526e+000  1.384679e+001  0.000000e+000
      vertex -6.016733e+000  1.264116e+001  3.000000e+000
      vertex -6.016733e+000  1.264116e+001  0.000000e+000
    endloop
  endfacet
  facet normal  5.582811e-001 -8.296519e-001  0.000000e+000
    outer loop
      vertex -6.016733e+000  1.264116e+001  0.000000e+000
      vertex -6.016733e+000  1.264116e+001  3.000000e+000
      vertex -9.444068e+000  1.033487e+001  3.000000e+000
    endloop
  endfacet
  facet normal  5.582811e-001 -8.296519e-001  0.000000e+000
    outer loop
      vertex -6.016733e+000  1.264116e+001  0.000000e+000
      vertex -9.444068e+000  1.033487e+001  3.000000e+000
      vertex -9.444068e+000  1.033487e+001  0.000000e+000
    endloop
  endfacet
  facet normal  7.761070e-001 -6.306013e-001  0.000000e+000
    outer loop
      vertex -9.444068e+000  1.033487e+001  0.000000e+000
      vertex -9.444068e+000  1.033487e+001  3.000000e+000
      vertex -1.204911e+001  7.128735e+000  3.000000e+000
    endloop
  endfacet
  facet normal  7.761070e-001 -6.306013e-001  0.000000e+000
    outer loop
      vertex -9.444068e+000  1.033487e+001  0.000000e+000
      vertex -1.204911e+001  7.128735e+000  3.000000e+000
      vertex -1.204911e+001  7.128735e+000  0.000000e+000
    endloop
  endfacet
  facet normal  2.918459e-001 -9.564653e-001  0.000000e+000
    outer loop
      vertex -6.016733e+000  1.264116e+001  3.000000e+000
      vertex -2.065526e+000  1.384679e+001  0.000000e+000
      vertex -2.065526e+000  1.384679e+001  3.000000e+000
    endloop
  endfacet
  facet normal  0.000000e+000 -1.000000e+000  0.000000e+000
    outer loop
      vertex -2.065526e+000  1.384679e+001  3.000000e+000
      vertex -2.065526e+000  1.384679e+001  0.000000e+000
      vertex  2.065526e+000  1.384679e+001  0.000000e+000
    endloop
  endfacet
  facet normal  0.000000e+000 -1.000000e+000  0.000000e+000
    outer loop
      vertex -2.065526e+000  1.384679e+001  3.000000e+000
      vertex  2.065526e+000  1.384679e+001  0.000000e+000
      vertex  2.065526e+000  1.384679e+001  3.000000e+000
    endloop
  endfacet
  facet normal -2.918459e-001 -9.564653e-001  -0.000000e+000
    outer loop
      vertex  2.065526e+000  1.384679e+001  3.000000e+000
      vertex  2.065526e+000  1.384679e+001  0.000000e+000
      vertex  6.016733e+000  1.264116e+001  0.000000e+000
    endloop
  endfacet
  facet normal -2.918459e-001 -9.564653e-001  0.000000e+000
    outer loop
      vertex  2.065526e+000  1.384679e+001  3.000000e+000
      vertex  6.016733e+000  1.264116e+001  0.000000e+000
      vertex  6.016733e+000  1.264116e+001  3.000000e+000
    endloop
  endfacet
  facet normal -5.582811e-001 -8.296519e-001  -0.000000e+000
    outer loop
      vertex  6.016733e+000  1.264116e+001  3.000000e+000
      vertex  6.016733e+000  1.264116e+001  0.000000e+000
      vertex  9.444068e+000  1.033487e+001  0.000000e+000
    endloop
  endfacet
  facet normal -5.582811e-001 -8.296519e-001  0.000000e+000
    outer loop
      vertex  6.016733e+000  1.264116e+001  3.000000e+000
      vertex  9.444068e+000  1.033487e+001  0.000000e+000
      vertex  9.444068e+000  1.033487e+001  3.000000e+000
    endloop
  endfacet
  facet normal -7.761070e-001 -6.306013e-001  -0.000000e+000
    outer loop
      vertex  9.444068e+000  1.033487e+001  3.000000e+000
      vertex  9.444068e+000  1.033487e+001  0.000000e+000
      vertex  1.204911e+001  7.128735e+000  0.000000e+000
    endloop
  endfacet
  facet normal -7.761070e-001 -6.306013e-001  0.000000e+000
    outer loop
      vertex  9.444068e+000  1.033487e+001  3.000000e+000
      vertex  1.204911e+001  7.128735e+000  0.000000e+000
      vertex  1.204911e+001  7.128735e+000  3.000000e+000
    endloop
  endfacet
  facet normal  9.871171e-001  1.600000e-001  0.000000e+000
    outer loop
      vertex  9.871170e+000  2.660000e+001  3.000000e+000
      vertex  1.297300e+001  7.463332e+000  3.000000e+000
      vertex  9.871170e+000  2.660000e+001  0.000000e+000
    endloop
  endfacet
  facet normal  9.871171e-001  1.600000e-001  0.000000e+000
    outer loop
      vertex  9.871170e+000  2.660000e+001  0.000000e+000
      vertex  1.297300e+001  7.463332e+000  3.000000e+000
      vertex  1.297300e+001  7.463332e+000  0.000000e+000
    endloop
  endfacet
  facet normal -6.369562e-001 -7.709000e-001  0.000000e+000
    outer loop
      vertex  1.204911e+001  7.128735e+000  3.000000e+000
      vertex  1.204911e+001  7.128735e+000  0.000000e+000
      vertex  1.231056e+001  6.912716e+000  3.000000e+000
    endloop
  endfacet
  facet normal -6.369562e-001 -7.709000e-001  -0.000000e+000
    outer loop
      vertex  1.231056e+001  6.912716e+000  3.000000e+000
      vertex  1.204911e+001  7.128735e+000  0.000000e+000
      vertex  1.231056e+001  6.912716e+000  0.000000e+000
    endloop
  endfacet
  facet normal  1.466472e-003 -9.999989e-001  0.000000e+000
    outer loop
      vertex  1.231056e+001  6.912716e+000  3.000000e+000
      vertex  1.231056e+001  6.912716e+000  0.000000e+000
      vertex  1.264970e+001  6.913214e+000  3.000000e+000
    endloop
  endfacet
  facet normal  1.466472e-003 -9.999989e-001  0.000000e+000
    outer loop
      vertex  1.264970e+001  6.913214e+000  3.000000e+000
      vertex  1.231056e+001  6.912716e+000  0.000000e+000
      vertex  1.264970e+001  6.913214e+000  0.000000e+000
    endloop
  endfacet
  facet normal  6.392128e-001 -7.690299e-001  0.000000e+000
    outer loop
      vertex  1.264970e+001  6.913214e+000  3.000000e+000
      vertex  1.264970e+001  6.913214e+000  0.000000e+000
      vertex  1.291051e+001  7.129997e+000  3.000000e+000
    endloop
  endfacet
  facet normal  6.392128e-001 -7.690299e-001  0.000000e+000
    outer loop
      vertex  1.291051e+001  7.129997e+000  3.000000e+000
      vertex  1.264970e+001  6.913214e+000  0.000000e+000
      vertex  1.291051e+001  7.129997e+000  0.000000e+000
    endloop
  endfacet
  facet normal  9.828784e-001 -1.842551e-001  0.000000e+000
    outer loop
      vertex  1.291051e+001  7.129997e+000  3.000000e+000
      vertex  1.291051e+001  7.129997e+000  0.000000e+000
      vertex  1.297300e+001  7.463332e+000  3.000000e+000
    endloop
  endfacet
  facet normal  9.828784e-001 -1.842551e-001  0.000000e+000
    outer loop
      vertex  1.297300e+001  7.463332e+000  3.000000e+000
      vertex  1.291051e+001  7.129997e+000  0.000000e+000
      vertex  1.297300e+001  7.463332e+000  0.000000e+000
    endloop
  endfacet
  facet normal -9.871171e-001  1.600000e-001  0.000000e+000
    outer loop
      vertex -9.871170e+000  2.660000e+001  3.000000e+000
      vertex -9.871170e+000  2.660000e+001  0.000000e+000
      vertex -1.297300e+001  7.463332e+000  3.000000e+000
    endloop
  endfacet
  facet normal -9.871171e-001  1.600000e-001  0.000000e+000
    outer loop
      vertex -1.297300e+001  7.463332e+000  3.000000e+000
      vertex -9.871170e+000  2.660000e+001  0.000000e+000
      vertex -1.297300e+001  7.463332e+000  0.000000e+000
    endloop
  endfacet
  facet normal  6.369562e-001 -7.709000e-001  0.000000e+000
    outer loop
      vertex -1.204911e+001  7.128735e+000  0.000000e+000
      vertex -1.204911e+001  7.128735e+000  3.000000e+000
      vertex -1.231056e+001  6.912716e+000  0.000000e+000
    endloop
  endfacet
  facet normal  6.369562e-001 -7.709000e-001  0.000000e+000
    outer loop
      vertex -1.231056e+001  6.912716e+000  0.000000e+000
      vertex -1.204911e+001  7.128735e+000  3.000000e+000
      vertex -1.231056e+001  6.912716e+000  3.000000e+000
    endloop
  endfacet
  facet normal -1.466472e-003 -9.999989e-001  -0.000000e+000
    outer loop
      vertex -1.231056e+001  6.912716e+000  0.000000e+000
      vertex -1.231056e+001  6.912716e+000  3.000000e+000
      vertex -1.264970e+001  6.913214e+000  0.000000e+000
    endloop
  endfacet
  facet normal -1.466472e-003 -9.999989e-001  0.000000e+000
    outer loop
      vertex -1.264970e+001  6.913214e+000  0.000000e+000
      vertex -1.231056e+001  6.912716e+000  3.000000e+000
      vertex -1.264970e+001  6.913214e+000  3.000000e+000
    endloop
  endfacet
  facet normal -6.392128e-001 -7.690299e-001  -0.000000e+000
    outer loop
      vertex -1.264970e+001  6.913214e+000  0.000000e+000
      vertex -1.264970e+001  6.913214e+000  3.000000e+000
      vertex -1.291051e+001  7.129997e+000  0.000000e+000
    endloop
  endfacet
  facet normal -6.392128e-001 -7.690299e-001  0.000000e+000
    outer loop
      vertex -1.291051e+001  7.129997e+000  0.000000e+000
      vertex -1.264970e+001  6.913214e+000  3.000000e+000
      vertex -1.291051e+001  7.129997e+000  3.000000e+000
    endloop
  endfacet
  facet normal -9.828784e-001 -1.842551e-001  -0.000000e+000
    outer loop
      vertex -1.291051e+001  7.129997e+000  0.000000e+000
      vertex -1.291051e+001  7.129997e+000  3.000000e+000
      vertex -1.297300e+001  7.463332e+000  0.000000e+000
    endloop
  endfacet
  facet normal -9.828784e-001 -1.842551e-001  0.000000e+000
    outer loop
      vertex -1.297300e+001  7.463332e+000  0.000000e+000
      vertex -1.291051e+001  7.129997e+000  3.000000e+000
      vertex -1.297300e+001  7.463332e+000  3.000000e+000
    endloop
  endfacet
  facet normal -2.588196e-001  9.659257e-001  0.000000e+000
    outer loop
      vertex -4.501851e-015  2.080000e+001  0.000000e+000
      vertex  2.100000e+000  2.136269e+001  3.000000e+000
      vertex  2.100000e+000  2.136269e+001  0.000000e+000
    endloop
  endfacet
  facet normal -7.071065e-001  7.071070e-001  0.000000e+000
    outer loop
      vertex  2.100000e+000  2.136269e+001  0.000000e+000
      vertex  2.100000e+000  2.136269e+001  3.000000e+000
      vertex  3.637307e+000  2.290000e+001  3.000000e+000
    endloop
  endfacet
  facet normal -7.071065e-001  7.071070e-001  0.000000e+000
    outer loop
      vertex  2.100000e+000  2.136269e+001  0.000000e+000
      vertex  3.637307e+000  2.290000e+001  3.000000e+000
      vertex  3.637307e+000  2.290000e+001  0.000000e+000
    endloop
  endfacet
  facet normal -9.659258e-001  2.588189e-001  0.000000e+000
    outer loop
      vertex  3.637307e+000  2.290000e+001  0.000000e+000
      vertex  3.637307e+000  2.290000e+001  3.000000e+000
      vertex  4.200000e+000  2.500000e+001  3.000000e+000
    endloop
  endfacet
  facet normal -9.659258e-001  2.588189e-001  0.000000e+000
    outer loop
      vertex  3.637307e+000  2.290000e+001  0.000000e+000
      vertex  4.200000e+000  2.500000e+001  3.000000e+000
      vertex  4.200000e+000  2.500000e+001  0.000000e+000
    endloop
  endfacet
  facet normal -2.588196e-001  9.659257e-001  0.000000e+000
    outer loop
      vertex  2.100000e+000  2.136269e+001  3.000000e+000
      vertex -4.501851e-015  2.080000e+001  0.000000e+000
      vertex -4.501851e-015  2.080000e+001  3.000000e+000
    endloop
  endfacet
  facet normal  2.588196e-001  9.659257e-001  0.000000e+000
    outer loop
      vertex -4.501851e-015  2.080000e+001  3.000000e+000
      vertex -4.501851e-015  2.080000e+001  0.000000e+000
      vertex -2.100000e+000  2.136269e+001  0.000000e+000
    endloop
  endfacet
  facet normal  2.588196e-001  9.659257e-001  -0.000000e+000
    outer loop
      vertex -4.501851e-015  2.080000e+001  3.000000e+000
      vertex -2.100000e+000  2.136269e+001  0.000000e+000
      vertex -2.100000e+000  2.136269e+001  3.000000e+000
    endloop
  endfacet
  facet normal  7.071065e-001  7.071070e-001  0.000000e+000
    outer loop
      vertex -2.100000e+000  2.136269e+001  3.000000e+000
      vertex -2.100000e+000  2.136269e+001  0.000000e+000
      vertex -3.637307e+000  2.290000e+001  0.000000e+000
    endloop
  endfacet
  facet normal  7.071065e-001  7.071070e-001  -0.000000e+000
    outer loop
      vertex -2.100000e+000  2.136269e+001  3.000000e+000
      vertex -3.637307e+000  2.290000e+001  0.000000e+000
      vertex -3.637307e+000  2.290000e+001  3.000000e+000
    endloop
  endfacet
  facet normal  9.659258e-001  2.588189e-001  0.000000e+000
    outer loop
      vertex -3.637307e+000  2.290000e+001  3.000000e+000
      vertex -3.637307e+000  2.290000e+001  0.000000e+000
      vertex -4.200000e+000  2.500000e+001  0.000000e+000
    endloop
  endfacet
  facet normal  9.659258e-001  2.588189e-001  -0.000000e+000
    outer loop
      vertex -3.637307e+000  2.290000e+001  3.000000e+000
      vertex -4.200000e+000  2.500000e+001  0.000000e+000
      vertex -4.200000e+000  2.500000e+001  3.000000e+000
    endloop
  endfacet
  facet normal  2.588196e-001 -9.659257e-001  0.000000e+000
    outer loop
      vertex  2.571673e-016  2.920000e+001  0.000000e+000
      vertex -2.100000e+000  2.863731e+001  3.000000e+000
      vertex -2.100000e+000  2.863731e+001  0.000000e+000
    endloop
  endfacet
  facet normal  7.071065e-001 -7.071070e-001  0.000000e+000
    outer loop
      vertex -2.100000e+000  2.863731e+001  0.000000e+000
      vertex -2.100000e+000  2.863731e+001  3.000000e+000
      vertex -3.637307e+000  2.710000e+001  3.000000e+000
    endloop
  endfacet
  facet normal  7.071065e-001 -7.071070e-001  0.000000e+000
    outer loop
      vertex -2.100000e+000  2.863731e+001  0.000000e+000
      vertex -3.637307e+000  2.710000e+001  3.000000e+000
      vertex -3.637307e+000  2.710000e+001  0.000000e+000
    endloop
  endfacet
  facet normal  9.659258e-001 -2.588189e-001  0.000000e+000
    outer loop
      vertex -3.637307e+000  2.710000e+001  0.000000e+000
      vertex -3.637307e+000  2.710000e+001  3.000000e+000
      vertex -4.200000e+000  2.500000e+001  3.000000e+000
    endloop
  endfacet
  facet normal  9.659258e-001 -2.588189e-001  0.000000e+000
    outer loop
      vertex -3.637307e+000  2.710000e+001  0.000000e+000
      vertex -4.200000e+000  2.500000e+001  3.000000e+000
      vertex -4.200000e+000  2.500000e+001  0.000000e+000
    endloop
  endfacet
  facet normal  2.588196e-001 -9.659257e-001  0.000000e+000
    outer loop
      vertex -2.100000e+000  2.863731e+001  3.000000e+000
      vertex  2.571673e-016  2.920000e+001  0.000000e+000
      vertex  2.571673e-016  2.920000e+001  3.000000e+000
    endloop
  endfacet
  facet normal -2.588196e-001 -9.659257e-001  -0.000000e+000
    outer loop
      vertex  2.571673e-016  2.920000e+001  3.000000e+000
      vertex  2.571673e-016  2.920000e+001  0.000000e+000
      vertex  2.100000e+000  2.863731e+001  0.000000e+000
    endloop
  endfacet
  facet normal -2.588196e-001 -9.659257e-001  0.000000e+000
    outer loop
      vertex  2.571673e-016  2.920000e+001  3.000000e+000
      vertex  2.100000e+000  2.863731e+001  0.000000e+000
      vertex  2.100000e+000  2.863731e+001  3.000000e+000
    endloop
  endfacet
  facet normal -7.071065e-001 -7.071070e-001  -0.000000e+000
    outer loop
      vertex  2.100000e+000  2.863731e+001  3.000000e+000
      vertex  2.100000e+000  2.863731e+001  0.000000e+000
      vertex  3.637307e+000  2.710000e+001  0.000000e+000
    endloop
  endfacet
  facet normal -7.071065e-001 -7.071070e-001  0.000000e+000
    outer loop
      vertex  2.100000e+000  2.863731e+001  3.000000e+000
      vertex  3.637307e+000  2.710000e+001  0.000000e+000
      vertex  3.637307e+000  2.710000e+001  3.000000e+000
    endloop
  endfacet
  facet normal -9.659258e-001 -2.588189e-001  -0.000000e+000
    outer loop
      vertex  3.637307e+000  2.710000e+001  3.000000e+000
      vertex  3.637307e+000  2.710000e+001  0.000000e+000
      vertex  4.200000e+000  2.500000e+001  0.000000e+000
    endloop
  endfacet
  facet normal -9.659258e-001 -2.588189e-001  0.000000e+000
    outer loop
      vertex  3.637307e+000  2.710000e+001  3.000000e+000
      vertex  4.200000e+000  2.500000e+001  0.000000e+000
      vertex  4.200000e+000  2.500000e+001  3.000000e+000
    endloop
  endfacet
  facet normal -9.437661e-001  3.306138e-001  0.000000e+000
    outer loop
      vertex -9.871170e+000  2.660000e+001  0.000000e+000
      vertex -9.871170e+000  2.660000e+001  3.000000e+000
      vertex -8.711695e+000  2.990982e+001  0.000000e+000
    endloop
  endfacet
  facet normal -9.437661e-001  3.306138e-001  0.000000e+000
    outer loop
      vertex -8.711695e+000  2.990982e+001  0.000000e+000
      vertex -9.871170e+000  2.660000e+001  3.000000e+000
      vertex -8.711695e+000  2.990982e+001  3.000000e+000
    endloop
  endfacet
  facet normal -7.715766e-001  6.361364e-001  0.000000e+000
    outer loop
      vertex -8.711695e+000  2.990982e+001  0.000000e+000
      vertex -8.711695e+000  2.990982e+001  3.000000e+000
      vertex -6.480741e+000  3.261577e+001  0.000000e+000
    endloop
  endfacet
  facet normal -7.715766e-001  6.361364e-001  0.000000e+000
    outer loop
      vertex -6.480741e+000  3.261577e+001  0.000000e+000
      vertex -8.711695e+000  2.990982e+001  3.000000e+000
      vertex -6.480741e+000  3.261577e+001  3.000000e+000
    endloop
  endfacet
  facet normal -5.044885e-001  8.634184e-001  0.000000e+000
    outer loop
      vertex -6.480741e+000  3.261577e+001  0.000000e+000
      vertex -6.480741e+000  3.261577e+001  3.000000e+000
      vertex -3.452700e+000  3.438503e+001  0.000000e+000
    endloop
  endfacet
  facet normal -5.044885e-001  8.634184e-001  0.000000e+000
    outer loop
      vertex -3.452700e+000  3.438503e+001  0.000000e+000
      vertex -6.480741e+000  3.261577e+001  3.000000e+000
      vertex -3.452700e+000  3.438503e+001  3.000000e+000
    endloop
  endfacet
  facet normal -1.753523e-001  9.845057e-001  0.000000e+000
    outer loop
      vertex -3.452700e+000  3.438503e+001  0.000000e+000
      vertex -3.452700e+000  3.438503e+001  3.000000e+000
      vertex  6.123032e-016  3.500000e+001  0.000000e+000
    endloop
  endfacet
  facet normal -1.753523e-001  9.845057e-001  0.000000e+000
    outer loop
      vertex  6.123032e-016  3.500000e+001  0.000000e+000
      vertex -3.452700e+000  3.438503e+001  3.000000e+000
      vertex  6.123032e-016  3.500000e+001  3.000000e+000
    endloop
  endfacet
  facet normal  1.753523e-001  9.845057e-001  0.000000e+000
    outer loop
      vertex  6.123032e-016  3.500000e+001  0.000000e+000
      vertex  6.123032e-016  3.500000e+001  3.000000e+000
      vertex  3.452700e+000  3.438503e+001  0.000000e+000
    endloop
  endfacet
  facet normal  1.753523e-001  9.845057e-001  -0.000000e+000
    outer loop
      vertex  3.452700e+000  3.438503e+001  0.000000e+000
      vertex  6.123032e-016  3.500000e+001  3.000000e+000
      vertex  3.452700e+000  3.438503e+001  3.000000e+000
    endloop
  endfacet
  facet normal  5.044885e-001  8.634184e-001  0.000000e+000
    outer loop
      vertex  3.452700e+000  3.438503e+001  0.000000e+000
      vertex  3.452700e+000  3.438503e+001  3.000000e+000
      vertex  6.480741e+000  3.261577e+001  0.000000e+000
    endloop
  endfacet
  facet normal  5.044885e-001  8.634184e-001  -0.000000e+000
    outer loop
      vertex  6.480741e+000  3.261577e+001  0.000000e+000
      vertex  3.452700e+000  3.438503e+001  3.000000e+000
      vertex  6.480741e+000  3.261577e+001  3.000000e+000
    endloop
  endfacet
  facet normal  7.715766e-001  6.361364e-001  0.000000e+000
    outer loop
      vertex  6.480741e+000  3.261577e+001  0.000000e+000
      vertex  6.480741e+000  3.261577e+001  3.000000e+000
      vertex  8.711695e+000  2.990982e+001  0.000000e+000
    endloop
  endfacet
  facet normal  7.715766e-001  6.361364e-001  -0.000000e+000
    outer loop
      vertex  8.711695e+000  2.990982e+001  0.000000e+000
      vertex  6.480741e+000  3.261577e+001  3.000000e+000
      vertex  8.711695e+000  2.990982e+001  3.000000e+000
    endloop
  endfacet
  facet normal  9.437661e-001  3.306138e-001  0.000000e+000
    outer loop
      vertex  8.711695e+000  2.990982e+001  0.000000e+000
      vertex  8.711695e+000  2.990982e+001  3.000000e+000
      vertex  9.871170e+000  2.660000e+001  0.000000e+000
    endloop
  endfacet
  facet normal  9.437661e-001  3.306138e-001  -0.000000e+000
    outer loop
      vertex  9.871170e+000  2.660000e+001  0.000000e+000
      vertex  8.711695e+000  2.990982e+001  3.000000e+000
      vertex  9.871170e+000  2.660000e+001  3.000000e+000
    endloop
  endfacet
endsolid CATIA STL
