solid CATIA STL
  facet normal  0.000000e+000  0.000000e+000  1.000000e+000
    outer loop
      vertex  4.440892e-016 -2.886751e+000  6.000000e+000
      vertex -4.387913e+000 -2.397128e+000  6.000000e+000
      vertex -2.601480e+000 -4.269930e+000  6.000000e+000
    endloop
  endfacet
  facet normal  0.000000e+000  -0.000000e+000  1.000000e+000
    outer loop
      vertex -8.881784e-016  2.886751e+000  6.000000e+000
      vertex  2.500000e+000  1.443376e+000  6.000000e+000
      vertex  4.387913e+000  2.397128e+000  6.000000e+000
    endloop
  endfacet
  facet normal  0.000000e+000  0.000000e+000  1.000000e+000
    outer loop
      vertex -8.881784e-016  2.886751e+000  6.000000e+000
      vertex  4.387913e+000  2.397128e+000  6.000000e+000
      vertex  2.601480e+000  4.269930e+000  6.000000e+000
    endloop
  endfacet
  facet normal  0.000000e+000  0.000000e+000  1.000000e+000
    outer loop
      vertex -8.881784e-016  2.886751e+000  6.000000e+000
      vertex  2.601480e+000  4.269930e+000  6.000000e+000
      vertex  1.179829e-001  4.998608e+000  6.000000e+000
    endloop
  endfacet
  facet normal  0.000000e+000  0.000000e+000  1.000000e+000
    outer loop
      vertex -8.881784e-016  2.886751e+000  6.000000e+000
      vertex  1.179829e-001  4.998608e+000  6.000000e+000
      vertex -2.397128e+000  4.387913e+000  6.000000e+000
    endloop
  endfacet
  facet normal  0.000000e+000  0.000000e+000  1.000000e+000
    outer loop
      vertex -8.881784e-016  2.886751e+000  6.000000e+000
      vertex -2.397128e+000  4.387913e+000  6.000000e+000
      vertex -4.269930e+000  2.601480e+000  6.000000e+000
    endloop
  endfacet
  facet normal  -0.000000e+000  0.000000e+000  1.000000e+000
    outer loop
      vertex -8.881784e-016  2.886751e+000  6.000000e+000
      vertex -4.269930e+000  2.601480e+000  6.000000e+000
      vertex -2.500000e+000  1.443376e+000  6.000000e+000
    endloop
  endfacet
  facet normal  0.000000e+000  0.000000e+000  9.999999e-001
    outer loop
      vertex -2.500000e+000 -1.443376e+000  6.000000e+000
      vertex -2.500000e+000  1.443376e+000  6.000000e+000
      vertex -4.269930e+000  2.601480e+000  6.000000e+000
    endloop
  endfacet
  facet normal  0.000000e+000  0.000000e+000  1.000000e+000
    outer loop
      vertex -2.500000e+000 -1.443376e+000  6.000000e+000
      vertex -4.269930e+000  2.601480e+000  6.000000e+000
      vertex -4.998608e+000  1.179829e-001  6.000000e+000
    endloop
  endfacet
  facet normal  0.000000e+000  0.000000e+000  1.000000e+000
    outer loop
      vertex -2.500000e+000 -1.443376e+000  6.000000e+000
      vertex -4.998608e+000  1.179829e-001  6.000000e+000
      vertex -4.387913e+000 -2.397128e+000  6.000000e+000
    endloop
  endfacet
  facet normal  -0.000000e+000  0.000000e+000  1.000000e+000
    outer loop
      vertex -2.500000e+000 -1.443376e+000  6.000000e+000
      vertex -4.387913e+000 -2.397128e+000  6.000000e+000
      vertex  4.440892e-016 -2.886751e+000  6.000000e+000
    endloop
  endfacet
  facet normal  0.000000e+000  -0.000000e+000  1.000000e+000
    outer loop
      vertex -2.601480e+000 -4.269930e+000  6.000000e+000
      vertex -1.179829e-001 -4.998608e+000  6.000000e+000
      vertex  4.440892e-016 -2.886751e+000  6.000000e+000
    endloop
  endfacet
  facet normal  0.000000e+000  0.000000e+000  1.000000e+000
    outer loop
      vertex  4.440892e-016 -2.886751e+000  6.000000e+000
      vertex -1.179829e-001 -4.998608e+000  6.000000e+000
      vertex  2.397128e+000 -4.387913e+000  6.000000e+000
    endloop
  endfacet
  facet normal  0.000000e+000  -0.000000e+000  1.000000e+000
    outer loop
      vertex  4.440892e-016 -2.886751e+000  6.000000e+000
      vertex  2.397128e+000 -4.387913e+000  6.000000e+000
      vertex  4.269930e+000 -2.601480e+000  6.000000e+000
    endloop
  endfacet
  facet normal  -0.000000e+000  0.000000e+000  1.000000e+000
    outer loop
      vertex  4.387913e+000  2.397128e+000  6.000000e+000
      vertex  2.500000e+000  1.443376e+000  6.000000e+000
      vertex  4.998608e+000 -1.179829e-001  6.000000e+000
    endloop
  endfacet
  facet normal  0.000000e+000  0.000000e+000  1.000000e+000
    outer loop
      vertex  4.998608e+000 -1.179829e-001  6.000000e+000
      vertex  2.500000e+000  1.443376e+000  6.000000e+000
      vertex  2.500000e+000 -1.443376e+000  6.000000e+000
    endloop
  endfacet
  facet normal  -0.000000e+000  0.000000e+000  1.000000e+000
    outer loop
      vertex  4.998608e+000 -1.179829e-001  6.000000e+000
      vertex  2.500000e+000 -1.443376e+000  6.000000e+000
      vertex  4.269930e+000 -2.601480e+000  6.000000e+000
    endloop
  endfacet
  facet normal  0.000000e+000  0.000000e+000  1.000000e+000
    outer loop
      vertex  4.269930e+000 -2.601480e+000  6.000000e+000
      vertex  2.500000e+000 -1.443376e+000  6.000000e+000
      vertex  4.440892e-016 -2.886751e+000  6.000000e+000
    endloop
  endfacet
  facet normal -5.000000e-001  8.660254e-001  0.000000e+000
    outer loop
      vertex  4.440892e-016 -2.886751e+000  6.000000e+000
      vertex  2.500000e+000 -1.443376e+000  6.000000e+000
      vertex  2.220446e-016 -2.886751e+000  1.800000e+000
    endloop
  endfacet
  facet normal -5.000000e-001  8.660254e-001  0.000000e+000
    outer loop
      vertex  2.220446e-016 -2.886751e+000  1.800000e+000
      vertex  2.500000e+000 -1.443376e+000  6.000000e+000
      vertex  2.500000e+000 -1.443376e+000  1.800000e+000
    endloop
  endfacet
  facet normal  5.000000e-001  8.660254e-001  0.000000e+000
    outer loop
      vertex -2.500000e+000 -1.443376e+000  6.000000e+000
      vertex  4.440892e-016 -2.886751e+000  6.000000e+000
      vertex -2.500000e+000 -1.443376e+000  1.800000e+000
    endloop
  endfacet
  facet normal  5.000000e-001  8.660254e-001  0.000000e+000
    outer loop
      vertex -2.500000e+000 -1.443376e+000  1.800000e+000
      vertex  4.440892e-016 -2.886751e+000  6.000000e+000
      vertex  2.220446e-016 -2.886751e+000  1.800000e+000
    endloop
  endfacet
  facet normal  1.000000e+000  -0.000000e+000  0.000000e+000
    outer loop
      vertex -2.500000e+000  1.443376e+000  6.000000e+000
      vertex -2.500000e+000 -1.443376e+000  6.000000e+000
      vertex -2.500000e+000  1.443376e+000  1.800000e+000
    endloop
  endfacet
  facet normal  1.000000e+000  0.000000e+000  0.000000e+000
    outer loop
      vertex -2.500000e+000  1.443376e+000  1.800000e+000
      vertex -2.500000e+000 -1.443376e+000  6.000000e+000
      vertex -2.500000e+000 -1.443376e+000  1.800000e+000
    endloop
  endfacet
  facet normal  5.000000e-001 -8.660254e-001  0.000000e+000
    outer loop
      vertex -8.881784e-016  2.886751e+000  6.000000e+000
      vertex -2.500000e+000  1.443376e+000  6.000000e+000
      vertex -4.440892e-016  2.886751e+000  1.800000e+000
    endloop
  endfacet
  facet normal  5.000000e-001 -8.660254e-001  0.000000e+000
    outer loop
      vertex -4.440892e-016  2.886751e+000  1.800000e+000
      vertex -2.500000e+000  1.443376e+000  6.000000e+000
      vertex -2.500000e+000  1.443376e+000  1.800000e+000
    endloop
  endfacet
  facet normal -5.000000e-001 -8.660254e-001  0.000000e+000
    outer loop
      vertex  2.500000e+000  1.443376e+000  6.000000e+000
      vertex -8.881784e-016  2.886751e+000  6.000000e+000
      vertex  2.500000e+000  1.443376e+000  1.800000e+000
    endloop
  endfacet
  facet normal -5.000000e-001 -8.660254e-001  0.000000e+000
    outer loop
      vertex  2.500000e+000  1.443376e+000  1.800000e+000
      vertex -8.881784e-016  2.886751e+000  6.000000e+000
      vertex -4.440892e-016  2.886751e+000  1.800000e+000
    endloop
  endfacet
  facet normal -1.000000e+000  -0.000000e+000  0.000000e+000
    outer loop
      vertex  2.500000e+000 -1.443376e+000  6.000000e+000
      vertex  2.500000e+000  1.443376e+000  6.000000e+000
      vertex  2.500000e+000 -1.443376e+000  1.800000e+000
    endloop
  endfacet
  facet normal -1.000000e+000  0.000000e+000  0.000000e+000
    outer loop
      vertex  2.500000e+000 -1.443376e+000  1.800000e+000
      vertex  2.500000e+000  1.443376e+000  6.000000e+000
      vertex  2.500000e+000  1.443376e+000  1.800000e+000
    endloop
  endfacet
  facet normal  -0.000000e+000  0.000000e+000  1.000000e+000
    outer loop
      vertex  2.500000e+000 -1.443376e+000  1.800000e+000
      vertex -2.500000e+000 -1.443376e+000  1.800000e+000
      vertex  2.220446e-016 -2.886751e+000  1.800000e+000
    endloop
  endfacet
  facet normal  0.000000e+000  0.000000e+000  1.000000e+000
    outer loop
      vertex -2.500000e+000 -1.443376e+000  1.800000e+000
      vertex  2.500000e+000 -1.443376e+000  1.800000e+000
      vertex -2.500000e+000  1.443376e+000  1.800000e+000
    endloop
  endfacet
  facet normal  -0.000000e+000  0.000000e+000  1.000000e+000
    outer loop
      vertex -2.500000e+000  1.443376e+000  1.800000e+000
      vertex  2.500000e+000 -1.443376e+000  1.800000e+000
      vertex  2.500000e+000  1.443376e+000  1.800000e+000
    endloop
  endfacet
  facet normal  0.000000e+000  0.000000e+000  1.000000e+000
    outer loop
      vertex -2.500000e+000  1.443376e+000  1.800000e+000
      vertex  2.500000e+000  1.443376e+000  1.800000e+000
      vertex -4.440892e-016  2.886751e+000  1.800000e+000
    endloop
  endfacet
  facet normal -2.535720e-015  2.393900e-015 -1.000000e+000
    outer loop
      vertex  1.438277e+000 -2.632748e+000  0.000000e+000
      vertex  2.711081e+000 -1.284540e+000  0.000000e+000
      vertex  4.269930e+000 -2.601480e+000 -7.105427e-015
    endloop
  endfacet
  facet normal -2.560891e-015  4.673423e-015 -1.000000e+000
    outer loop
      vertex  1.438277e+000 -2.632748e+000  0.000000e+000
      vertex  4.269930e+000 -2.601480e+000 -7.105427e-015
      vertex  2.397128e+000 -4.387913e+000 -1.065814e-014
    endloop
  endfacet
  facet normal -2.548895e-015  4.679976e-015 -1.000000e+000
    outer loop
      vertex  1.438277e+000 -2.632748e+000  0.000000e+000
      vertex  2.397128e+000 -4.387913e+000 -1.065814e-014
      vertex -1.179829e-001 -4.998608e+000 -7.105427e-015
    endloop
  endfacet
  facet normal -6.443416e-016  3.427164e-015 -1.000000e+000
    outer loop
      vertex  1.438277e+000 -2.632748e+000  0.000000e+000
      vertex -1.179829e-001 -4.998608e+000 -7.105427e-015
      vertex -3.839000e-001 -2.975335e+000  0.000000e+000
    endloop
  endfacet
  facet normal  2.560891e-015 -4.673423e-015 -1.000000e+000
    outer loop
      vertex -4.269930e+000  2.601480e+000 -7.105427e-015
      vertex -2.397128e+000  4.387913e+000 -1.065814e-014
      vertex -1.438277e+000  2.632748e+000  0.000000e+000
    endloop
  endfacet
  facet normal  2.548895e-015 -4.679977e-015 -1.000000e+000
    outer loop
      vertex -1.438277e+000  2.632748e+000  0.000000e+000
      vertex -2.397128e+000  4.387913e+000 -1.065814e-014
      vertex  1.179829e-001  4.998608e+000 -7.105427e-015
    endloop
  endfacet
  facet normal  6.443416e-016 -3.427164e-015 -1.000000e+000
    outer loop
      vertex -1.438277e+000  2.632748e+000  0.000000e+000
      vertex  1.179829e-001  4.998608e+000 -7.105427e-015
      vertex  3.839000e-001  2.975335e+000  0.000000e+000
    endloop
  endfacet
  facet normal  3.324940e-015 -4.290085e-016 -1.000000e+000
    outer loop
      vertex -2.948344e+000 -5.543185e-001  0.000000e+000
      vertex -4.998608e+000  1.179829e-001 -7.105427e-015
      vertex -2.711081e+000  1.284540e+000  0.000000e+000
    endloop
  endfacet
  facet normal  3.652706e-015 -1.071733e-015 -1.000000e+000
    outer loop
      vertex -2.711081e+000  1.284540e+000  0.000000e+000
      vertex -4.998608e+000  1.179829e-001 -7.105427e-015
      vertex -4.269930e+000  2.601480e+000 -7.105427e-015
    endloop
  endfacet
  facet normal  2.535720e-015 -2.393899e-015 -1.000000e+000
    outer loop
      vertex -2.711081e+000  1.284540e+000  0.000000e+000
      vertex -4.269930e+000  2.601480e+000 -7.105427e-015
      vertex -1.438277e+000  2.632748e+000  0.000000e+000
    endloop
  endfacet
  facet normal  1.071733e-015  3.652706e-015 -1.000000e+000
    outer loop
      vertex -1.179829e-001 -4.998608e+000 -7.105427e-015
      vertex -2.601480e+000 -4.269930e+000 -7.105427e-015
      vertex -3.839000e-001 -2.975335e+000  0.000000e+000
    endloop
  endfacet
  facet normal  2.058070e-015  1.963157e-015 -1.000000e+000
    outer loop
      vertex -3.839000e-001 -2.975335e+000  0.000000e+000
      vertex -2.601480e+000 -4.269930e+000 -7.105427e-015
      vertex -4.387913e+000 -2.397128e+000 -7.105427e-015
    endloop
  endfacet
  facet normal  2.552531e-015  5.387235e-015 -1.000000e+000
    outer loop
      vertex -3.839000e-001 -2.975335e+000  0.000000e+000
      vertex -4.387913e+000 -2.397128e+000 -7.105427e-015
      vertex -2.059440e+000 -2.181446e+000  0.000000e+000
    endloop
  endfacet
  facet normal  2.984417e-015  7.246474e-016 -1.000000e+000
    outer loop
      vertex -2.059440e+000 -2.181446e+000  0.000000e+000
      vertex -4.387913e+000 -2.397128e+000 -7.105427e-015
      vertex -4.998608e+000  1.179829e-001 -7.105427e-015
    endloop
  endfacet
  facet normal  4.221922e-015  2.306447e-015 -1.000000e+000
    outer loop
      vertex -2.059440e+000 -2.181446e+000  0.000000e+000
      vertex -4.998608e+000  1.179829e-001 -7.105427e-015
      vertex -2.948344e+000 -5.543185e-001  0.000000e+000
    endloop
  endfacet
  facet normal -1.071733e-015 -3.652706e-015 -1.000000e+000
    outer loop
      vertex  1.179829e-001  4.998608e+000 -7.105427e-015
      vertex  2.601480e+000  4.269930e+000 -7.105427e-015
      vertex  3.839000e-001  2.975335e+000  0.000000e+000
    endloop
  endfacet
  facet normal -2.058070e-015 -1.963157e-015 -1.000000e+000
    outer loop
      vertex  3.839000e-001  2.975335e+000  0.000000e+000
      vertex  2.601480e+000  4.269930e+000 -7.105427e-015
      vertex  4.387913e+000  2.397128e+000 -7.105427e-015
    endloop
  endfacet
  facet normal -2.552531e-015 -5.387235e-015 -1.000000e+000
    outer loop
      vertex  3.839000e-001  2.975335e+000  0.000000e+000
      vertex  4.387913e+000  2.397128e+000 -7.105427e-015
      vertex  2.059440e+000  2.181446e+000  0.000000e+000
    endloop
  endfacet
  facet normal -2.984417e-015 -7.246474e-016 -1.000000e+000
    outer loop
      vertex  2.059440e+000  2.181446e+000  0.000000e+000
      vertex  4.387913e+000  2.397128e+000 -7.105427e-015
      vertex  4.998608e+000 -1.179829e-001 -7.105427e-015
    endloop
  endfacet
  facet normal -4.221922e-015 -2.306447e-015 -1.000000e+000
    outer loop
      vertex  2.059440e+000  2.181446e+000  0.000000e+000
      vertex  4.998608e+000 -1.179829e-001 -7.105427e-015
      vertex  2.948344e+000  5.543185e-001  0.000000e+000
    endloop
  endfacet
  facet normal -3.161449e-015  9.275943e-016 -1.000000e+000
    outer loop
      vertex  2.948344e+000  5.543185e-001  0.000000e+000
      vertex  4.998608e+000 -1.179829e-001 -7.105427e-015
      vertex  4.269930e+000 -2.601480e+000 -7.105427e-015
    endloop
  endfacet
  facet normal -4.110104e-015  5.303163e-016 -1.000000e+000
    outer loop
      vertex  2.948344e+000  5.543185e-001  0.000000e+000
      vertex  4.269930e+000 -2.601480e+000 -7.105427e-015
      vertex  2.711081e+000 -1.284540e+000  0.000000e+000
    endloop
  endfacet
  facet normal  0.000000e+000  0.000000e+000 -1.000000e+000
    outer loop
      vertex  2.948344e+000  5.543185e-001 -4.500000e+001
      vertex -2.711081e+000  1.284540e+000 -4.500000e+001
      vertex  2.059440e+000  2.181446e+000 -4.500000e+001
    endloop
  endfacet
  facet normal  -0.000000e+000  0.000000e+000 -9.999999e-001
    outer loop
      vertex  2.059440e+000  2.181446e+000 -4.500000e+001
      vertex -2.711081e+000  1.284540e+000 -4.500000e+001
      vertex -1.438277e+000  2.632748e+000 -4.500000e+001
    endloop
  endfacet
  facet normal  0.000000e+000  0.000000e+000 -1.000000e+000
    outer loop
      vertex  2.059440e+000  2.181446e+000 -4.500000e+001
      vertex -1.438277e+000  2.632748e+000 -4.500000e+001
      vertex  3.839000e-001  2.975335e+000 -4.500000e+001
    endloop
  endfacet
  facet normal  0.000000e+000  0.000000e+000 -1.000000e+000
    outer loop
      vertex -3.839000e-001 -2.975335e+000 -4.500000e+001
      vertex -2.059440e+000 -2.181446e+000 -4.500000e+001
      vertex  1.438277e+000 -2.632748e+000 -4.500000e+001
    endloop
  endfacet
  facet normal  0.000000e+000  0.000000e+000 -9.999999e-001
    outer loop
      vertex  1.438277e+000 -2.632748e+000 -4.500000e+001
      vertex -2.059440e+000 -2.181446e+000 -4.500000e+001
      vertex -2.948344e+000 -5.543185e-001 -4.500000e+001
    endloop
  endfacet
  facet normal  0.000000e+000  0.000000e+000 -1.000000e+000
    outer loop
      vertex  1.438277e+000 -2.632748e+000 -4.500000e+001
      vertex -2.948344e+000 -5.543185e-001 -4.500000e+001
      vertex  2.711081e+000 -1.284540e+000 -4.500000e+001
    endloop
  endfacet
  facet normal  0.000000e+000  0.000000e+000 -9.999999e-001
    outer loop
      vertex  2.711081e+000 -1.284540e+000 -4.500000e+001
      vertex -2.948344e+000 -5.543185e-001 -4.500000e+001
      vertex -2.711081e+000  1.284540e+000 -4.500000e+001
    endloop
  endfacet
  facet normal  0.000000e+000  0.000000e+000 -9.999999e-001
    outer loop
      vertex  2.711081e+000 -1.284540e+000 -4.500000e+001
      vertex -2.711081e+000  1.284540e+000 -4.500000e+001
      vertex  2.948344e+000  5.543185e-001 -4.500000e+001
    endloop
  endfacet
  facet normal -2.359544e-001  9.717641e-001  0.000000e+000
    outer loop
      vertex -2.397128e+000  4.387913e+000 -1.065814e-014
      vertex -2.397128e+000  4.387913e+000  6.000000e+000
      vertex  1.179829e-001  4.998608e+000 -7.105427e-015
    endloop
  endfacet
  facet normal -2.359544e-001  9.717641e-001  0.000000e+000
    outer loop
      vertex  1.179829e-001  4.998608e+000 -7.105427e-015
      vertex -2.397128e+000  4.387913e+000  6.000000e+000
      vertex  1.179829e-001  4.998608e+000  6.000000e+000
    endloop
  endfacet
  facet normal  2.815395e-001  9.595496e-001  0.000000e+000
    outer loop
      vertex  1.179829e-001  4.998608e+000 -7.105427e-015
      vertex  1.179829e-001  4.998608e+000  6.000000e+000
      vertex  2.601480e+000  4.269930e+000 -7.105427e-015
    endloop
  endfacet
  facet normal  2.815395e-001  9.595496e-001  -0.000000e+000
    outer loop
      vertex  2.601480e+000  4.269930e+000 -7.105427e-015
      vertex  1.179829e-001  4.998608e+000  6.000000e+000
      vertex  2.601480e+000  4.269930e+000  6.000000e+000
    endloop
  endfacet
  facet normal  7.235952e-001  6.902246e-001  0.000000e+000
    outer loop
      vertex  2.601480e+000  4.269930e+000 -7.105427e-015
      vertex  2.601480e+000  4.269930e+000  6.000000e+000
      vertex  4.387913e+000  2.397128e+000 -7.105427e-015
    endloop
  endfacet
  facet normal  7.235952e-001  6.902246e-001  -0.000000e+000
    outer loop
      vertex  4.387913e+000  2.397128e+000 -7.105427e-015
      vertex  2.601480e+000  4.269930e+000  6.000000e+000
      vertex  4.387913e+000  2.397128e+000  6.000000e+000
    endloop
  endfacet
  facet normal  9.717641e-001  2.359544e-001  0.000000e+000
    outer loop
      vertex  4.387913e+000  2.397128e+000 -7.105427e-015
      vertex  4.387913e+000  2.397128e+000  6.000000e+000
      vertex  4.998608e+000 -1.179829e-001 -7.105427e-015
    endloop
  endfacet
  facet normal  9.717641e-001  2.359544e-001  -0.000000e+000
    outer loop
      vertex  4.998608e+000 -1.179829e-001 -7.105427e-015
      vertex  4.387913e+000  2.397128e+000  6.000000e+000
      vertex  4.998608e+000 -1.179829e-001  6.000000e+000
    endloop
  endfacet
  facet normal  9.595496e-001 -2.815395e-001  0.000000e+000
    outer loop
      vertex  4.998608e+000 -1.179829e-001 -7.105427e-015
      vertex  4.998608e+000 -1.179829e-001  6.000000e+000
      vertex  4.269930e+000 -2.601480e+000 -7.105427e-015
    endloop
  endfacet
  facet normal  9.595496e-001 -2.815395e-001  0.000000e+000
    outer loop
      vertex  4.269930e+000 -2.601480e+000 -7.105427e-015
      vertex  4.998608e+000 -1.179829e-001  6.000000e+000
      vertex  4.269930e+000 -2.601480e+000  6.000000e+000
    endloop
  endfacet
  facet normal  6.902246e-001 -7.235952e-001  0.000000e+000
    outer loop
      vertex  4.269930e+000 -2.601480e+000 -7.105427e-015
      vertex  4.269930e+000 -2.601480e+000  6.000000e+000
      vertex  2.397128e+000 -4.387913e+000 -1.065814e-014
    endloop
  endfacet
  facet normal  6.902246e-001 -7.235952e-001  0.000000e+000
    outer loop
      vertex  2.397128e+000 -4.387913e+000 -1.065814e-014
      vertex  4.269930e+000 -2.601480e+000  6.000000e+000
      vertex  2.397128e+000 -4.387913e+000  6.000000e+000
    endloop
  endfacet
  facet normal -1.847728e-001  9.827812e-001  0.000000e+000
    outer loop
      vertex -1.438277e+000  2.632748e+000 -4.500000e+001
      vertex -1.438277e+000  2.632748e+000  0.000000e+000
      vertex  3.839000e-001  2.975335e+000 -4.500000e+001
    endloop
  endfacet
  facet normal -1.847728e-001  9.827812e-001  0.000000e+000
    outer loop
      vertex  3.839000e-001  2.975335e+000 -4.500000e+001
      vertex -1.438277e+000  2.632748e+000  0.000000e+000
      vertex  3.839000e-001  2.975335e+000  0.000000e+000
    endloop
  endfacet
  facet normal  4.281799e-001  9.036934e-001  0.000000e+000
    outer loop
      vertex  3.839000e-001  2.975335e+000 -4.500000e+001
      vertex  3.839000e-001  2.975335e+000  0.000000e+000
      vertex  2.059440e+000  2.181446e+000 -4.500000e+001
    endloop
  endfacet
  facet normal  4.281799e-001  9.036934e-001  -0.000000e+000
    outer loop
      vertex  2.059440e+000  2.181446e+000 -4.500000e+001
      vertex  3.839000e-001  2.975335e+000  0.000000e+000
      vertex  2.059440e+000  2.181446e+000  0.000000e+000
    endloop
  endfacet
  facet normal  8.775825e-001  4.794255e-001  0.000000e+000
    outer loop
      vertex  2.059440e+000  2.181446e+000 -4.500000e+001
      vertex  2.059440e+000  2.181446e+000  0.000000e+000
      vertex  2.948344e+000  5.543185e-001 -4.500000e+001
    endloop
  endfacet
  facet normal  8.775825e-001  4.794255e-001  -0.000000e+000
    outer loop
      vertex  2.948344e+000  5.543185e-001 -4.500000e+001
      vertex  2.059440e+000  2.181446e+000  0.000000e+000
      vertex  2.948344e+000  5.543185e-001  0.000000e+000
    endloop
  endfacet
  facet normal  9.917784e-001 -1.279666e-001  0.000000e+000
    outer loop
      vertex  2.948344e+000  5.543185e-001 -4.500000e+001
      vertex  2.948344e+000  5.543185e-001  0.000000e+000
      vertex  2.711081e+000 -1.284540e+000 -4.500000e+001
    endloop
  endfacet
  facet normal  9.917784e-001 -1.279666e-001  0.000000e+000
    outer loop
      vertex  2.711081e+000 -1.284540e+000 -4.500000e+001
      vertex  2.948344e+000  5.543185e-001  0.000000e+000
      vertex  2.711081e+000 -1.284540e+000  0.000000e+000
    endloop
  endfacet
  facet normal  7.271487e-001 -6.864799e-001  0.000000e+000
    outer loop
      vertex  2.711081e+000 -1.284540e+000 -4.500000e+001
      vertex  2.711081e+000 -1.284540e+000  0.000000e+000
      vertex  1.438277e+000 -2.632748e+000 -4.500000e+001
    endloop
  endfacet
  facet normal  7.271487e-001 -6.864799e-001  0.000000e+000
    outer loop
      vertex  1.438277e+000 -2.632748e+000 -4.500000e+001
      vertex  2.711081e+000 -1.284540e+000  0.000000e+000
      vertex  1.438277e+000 -2.632748e+000  0.000000e+000
    endloop
  endfacet
  facet normal  2.359544e-001 -9.717641e-001  0.000000e+000
    outer loop
      vertex  2.397128e+000 -4.387913e+000 -1.065814e-014
      vertex  2.397128e+000 -4.387913e+000  6.000000e+000
      vertex -1.179829e-001 -4.998608e+000 -7.105427e-015
    endloop
  endfacet
  facet normal  2.359544e-001 -9.717641e-001  0.000000e+000
    outer loop
      vertex -1.179829e-001 -4.998608e+000 -7.105427e-015
      vertex  2.397128e+000 -4.387913e+000  6.000000e+000
      vertex -1.179829e-001 -4.998608e+000  6.000000e+000
    endloop
  endfacet
  facet normal -2.815395e-001 -9.595496e-001  -0.000000e+000
    outer loop
      vertex -1.179829e-001 -4.998608e+000 -7.105427e-015
      vertex -1.179829e-001 -4.998608e+000  6.000000e+000
      vertex -2.601480e+000 -4.269930e+000 -7.105427e-015
    endloop
  endfacet
  facet normal -2.815395e-001 -9.595496e-001  0.000000e+000
    outer loop
      vertex -2.601480e+000 -4.269930e+000 -7.105427e-015
      vertex -1.179829e-001 -4.998608e+000  6.000000e+000
      vertex -2.601480e+000 -4.269930e+000  6.000000e+000
    endloop
  endfacet
  facet normal -7.235952e-001 -6.902246e-001  -0.000000e+000
    outer loop
      vertex -2.601480e+000 -4.269930e+000 -7.105427e-015
      vertex -2.601480e+000 -4.269930e+000  6.000000e+000
      vertex -4.387913e+000 -2.397128e+000 -7.105427e-015
    endloop
  endfacet
  facet normal -7.235952e-001 -6.902246e-001  0.000000e+000
    outer loop
      vertex -4.387913e+000 -2.397128e+000 -7.105427e-015
      vertex -2.601480e+000 -4.269930e+000  6.000000e+000
      vertex -4.387913e+000 -2.397128e+000  6.000000e+000
    endloop
  endfacet
  facet normal -9.717641e-001 -2.359544e-001  -0.000000e+000
    outer loop
      vertex -4.387913e+000 -2.397128e+000 -7.105427e-015
      vertex -4.387913e+000 -2.397128e+000  6.000000e+000
      vertex -4.998608e+000  1.179829e-001 -7.105427e-015
    endloop
  endfacet
  facet normal -9.717641e-001 -2.359544e-001  0.000000e+000
    outer loop
      vertex -4.998608e+000  1.179829e-001 -7.105427e-015
      vertex -4.387913e+000 -2.397128e+000  6.000000e+000
      vertex -4.998608e+000  1.179829e-001  6.000000e+000
    endloop
  endfacet
  facet normal -9.595496e-001  2.815395e-001  0.000000e+000
    outer loop
      vertex -4.998608e+000  1.179829e-001 -7.105427e-015
      vertex -4.998608e+000  1.179829e-001  6.000000e+000
      vertex -4.269930e+000  2.601480e+000 -7.105427e-015
    endloop
  endfacet
  facet normal -9.595496e-001  2.815395e-001  0.000000e+000
    outer loop
      vertex -4.269930e+000  2.601480e+000 -7.105427e-015
      vertex -4.998608e+000  1.179829e-001  6.000000e+000
      vertex -4.269930e+000  2.601480e+000  6.000000e+000
    endloop
  endfacet
  facet normal -6.902246e-001  7.235952e-001  0.000000e+000
    outer loop
      vertex -4.269930e+000  2.601480e+000 -7.105427e-015
      vertex -4.269930e+000  2.601480e+000  6.000000e+000
      vertex -2.397128e+000  4.387913e+000 -1.065814e-014
    endloop
  endfacet
  facet normal -6.902246e-001  7.235952e-001  0.000000e+000
    outer loop
      vertex -2.397128e+000  4.387913e+000 -1.065814e-014
      vertex -4.269930e+000  2.601480e+000  6.000000e+000
      vertex -2.397128e+000  4.387913e+000  6.000000e+000
    endloop
  endfacet
  facet normal  1.847728e-001 -9.827812e-001  0.000000e+000
    outer loop
      vertex  1.438277e+000 -2.632748e+000 -4.500000e+001
      vertex  1.438277e+000 -2.632748e+000  0.000000e+000
      vertex -3.839000e-001 -2.975335e+000 -4.500000e+001
    endloop
  endfacet
  facet normal  1.847728e-001 -9.827812e-001  0.000000e+000
    outer loop
      vertex -3.839000e-001 -2.975335e+000 -4.500000e+001
      vertex  1.438277e+000 -2.632748e+000  0.000000e+000
      vertex -3.839000e-001 -2.975335e+000  0.000000e+000
    endloop
  endfacet
  facet normal -4.281799e-001 -9.036934e-001  -0.000000e+000
    outer loop
      vertex -3.839000e-001 -2.975335e+000 -4.500000e+001
      vertex -3.839000e-001 -2.975335e+000  0.000000e+000
      vertex -2.059440e+000 -2.181446e+000 -4.500000e+001
    endloop
  endfacet
  facet normal -4.281799e-001 -9.036934e-001  0.000000e+000
    outer loop
      vertex -2.059440e+000 -2.181446e+000 -4.500000e+001
      vertex -3.839000e-001 -2.975335e+000  0.000000e+000
      vertex -2.059440e+000 -2.181446e+000  0.000000e+000
    endloop
  endfacet
  facet normal -8.775825e-001 -4.794255e-001  -0.000000e+000
    outer loop
      vertex -2.059440e+000 -2.181446e+000 -4.500000e+001
      vertex -2.059440e+000 -2.181446e+000  0.000000e+000
      vertex -2.948344e+000 -5.543185e-001 -4.500000e+001
    endloop
  endfacet
  facet normal -8.775825e-001 -4.794255e-001  0.000000e+000
    outer loop
      vertex -2.948344e+000 -5.543185e-001 -4.500000e+001
      vertex -2.059440e+000 -2.181446e+000  0.000000e+000
      vertex -2.948344e+000 -5.543185e-001  0.000000e+000
    endloop
  endfacet
  facet normal -9.917784e-001  1.279666e-001  0.000000e+000
    outer loop
      vertex -2.948344e+000 -5.543185e-001 -4.500000e+001
      vertex -2.948344e+000 -5.543185e-001  0.000000e+000
      vertex -2.711081e+000  1.284540e+000 -4.500000e+001
    endloop
  endfacet
  facet normal -9.917784e-001  1.279666e-001  0.000000e+000
    outer loop
      vertex -2.711081e+000  1.284540e+000 -4.500000e+001
      vertex -2.948344e+000 -5.543185e-001  0.000000e+000
      vertex -2.711081e+000  1.284540e+000  0.000000e+000
    endloop
  endfacet
  facet normal -7.271487e-001  6.864799e-001  0.000000e+000
    outer loop
      vertex -2.711081e+000  1.284540e+000 -4.500000e+001
      vertex -2.711081e+000  1.284540e+000  0.000000e+000
      vertex -1.438277e+000  2.632748e+000 -4.500000e+001
    endloop
  endfacet
  facet normal -7.271487e-001  6.864799e-001  0.000000e+000
    outer loop
      vertex -1.438277e+000  2.632748e+000 -4.500000e+001
      vertex -2.711081e+000  1.284540e+000  0.000000e+000
      vertex -1.438277e+000  2.632748e+000  0.000000e+000
    endloop
  endfacet
endsolid CATIA STL
