solid CATIA STL
  facet normal  0.000000e+000  1.000000e+000  0.000000e+000
    outer loop
      vertex -3.875271e+000 -5.820000e+002  3.066208e+002
      vertex -1.872101e+001 -5.820000e+002  3.023969e+002
      vertex -1.149385e+001 -5.820000e+002  3.051967e+002
    endloop
  endfacet
  facet normal  0.000000e+000  1.000000e+000  0.000000e+000
    outer loop
      vertex -1.872101e+001 -5.820000e+002  3.023969e+002
      vertex -3.875271e+000 -5.820000e+002  3.066208e+002
      vertex -3.763025e+000 -5.820000e+002  3.006028e+002
    endloop
  endfacet
  facet normal  0.000000e+000  1.000000e+000  -0.000000e+000
    outer loop
      vertex -3.763025e+000 -5.820000e+002  3.006028e+002
      vertex -3.875271e+000 -5.820000e+002  3.066208e+002
      vertex  3.875271e+000 -5.820000e+002  3.066208e+002
    endloop
  endfacet
  facet normal  0.000000e+000  1.000000e+000  0.000000e+000
    outer loop
      vertex -3.763025e+000 -5.820000e+002  3.006028e+002
      vertex  3.875271e+000 -5.820000e+002  3.066208e+002
      vertex  3.763025e+000 -5.820000e+002  3.006028e+002
    endloop
  endfacet
  facet normal  0.000000e+000  1.000000e+000  0.000000e+000
    outer loop
      vertex  3.763025e+000 -5.820000e+002  3.006028e+002
      vertex  3.875271e+000 -5.820000e+002  3.066208e+002
      vertex  1.149385e+001 -5.820000e+002  3.051967e+002
    endloop
  endfacet
  facet normal  0.000000e+000  1.000000e+000  0.000000e+000
    outer loop
      vertex  3.763025e+000 -5.820000e+002  3.006028e+002
      vertex  1.149385e+001 -5.820000e+002  3.051967e+002
      vertex  1.872101e+001 -5.820000e+002  3.023969e+002
    endloop
  endfacet
  facet normal  0.000000e+000  9.999999e-001  -0.000000e+000
    outer loop
      vertex -3.763025e+000 -5.820000e+002  2.289972e+002
      vertex -1.149385e+001 -5.820000e+002  2.244033e+002
      vertex -1.872101e+001 -5.820000e+002  2.272031e+002
    endloop
  endfacet
  facet normal  0.000000e+000  1.000000e+000  0.000000e+000
    outer loop
      vertex -1.149385e+001 -5.820000e+002  2.244033e+002
      vertex -3.763025e+000 -5.820000e+002  2.289972e+002
      vertex -3.875271e+000 -5.820000e+002  2.229792e+002
    endloop
  endfacet
  facet normal  0.000000e+000  9.999999e-001  0.000000e+000
    outer loop
      vertex -3.875271e+000 -5.820000e+002  2.229792e+002
      vertex -3.763025e+000 -5.820000e+002  2.289972e+002
      vertex  3.763025e+000 -5.820000e+002  2.289972e+002
    endloop
  endfacet
  facet normal  0.000000e+000  1.000000e+000  0.000000e+000
    outer loop
      vertex -3.875271e+000 -5.820000e+002  2.229792e+002
      vertex  3.763025e+000 -5.820000e+002  2.289972e+002
      vertex  3.875271e+000 -5.820000e+002  2.229792e+002
    endloop
  endfacet
  facet normal  0.000000e+000  1.000000e+000  -0.000000e+000
    outer loop
      vertex  3.875271e+000 -5.820000e+002  2.229792e+002
      vertex  3.763025e+000 -5.820000e+002  2.289972e+002
      vertex  1.872101e+001 -5.820000e+002  2.272031e+002
    endloop
  endfacet
  facet normal  0.000000e+000  1.000000e+000  0.000000e+000
    outer loop
      vertex  3.875271e+000 -5.820000e+002  2.229792e+002
      vertex  1.872101e+001 -5.820000e+002  2.272031e+002
      vertex  1.149385e+001 -5.820000e+002  2.244033e+002
    endloop
  endfacet
  facet normal  0.000000e+000  1.000000e+000  0.000000e+000
    outer loop
      vertex  2.408870e+001 -5.820000e+002  2.380468e+002
      vertex  3.103837e+001 -5.820000e+002  2.365048e+002
      vertex  1.800000e+001 -5.820000e+002  2.336231e+002
    endloop
  endfacet
  facet normal  -0.000000e+000  9.999999e-001  0.000000e+000
    outer loop
      vertex  1.800000e+001 -5.820000e+002  2.336231e+002
      vertex  3.103837e+001 -5.820000e+002  2.365048e+002
      vertex  2.531066e+001 -5.820000e+002  2.312833e+002
    endloop
  endfacet
  facet normal  0.000000e+000  1.000000e+000  0.000000e+000
    outer loop
      vertex  1.800000e+001 -5.820000e+002  2.336231e+002
      vertex  2.531066e+001 -5.820000e+002  2.312833e+002
      vertex  1.112461e+001 -5.820000e+002  2.305620e+002
    endloop
  endfacet
  facet normal  -0.000000e+000  1.000000e+000  0.000000e+000
    outer loop
      vertex  1.112461e+001 -5.820000e+002  2.305620e+002
      vertex  2.531066e+001 -5.820000e+002  2.312833e+002
      vertex  1.872101e+001 -5.820000e+002  2.272031e+002
    endloop
  endfacet
  facet normal  0.000000e+000  1.000000e+000  0.000000e+000
    outer loop
      vertex  1.112461e+001 -5.820000e+002  2.305620e+002
      vertex  1.872101e+001 -5.820000e+002  2.272031e+002
      vertex  3.763025e+000 -5.820000e+002  2.289972e+002
    endloop
  endfacet
  facet normal  0.000000e+000  1.000000e+000  0.000000e+000
    outer loop
      vertex  1.112461e+001 -5.820000e+002  2.990380e+002
      vertex  2.531066e+001 -5.820000e+002  2.983167e+002
      vertex  1.800000e+001 -5.820000e+002  2.959769e+002
    endloop
  endfacet
  facet normal  -0.000000e+000  1.000000e+000  0.000000e+000
    outer loop
      vertex  1.800000e+001 -5.820000e+002  2.959769e+002
      vertex  2.531066e+001 -5.820000e+002  2.983167e+002
      vertex  3.103837e+001 -5.820000e+002  2.930952e+002
    endloop
  endfacet
  facet normal  0.000000e+000  1.000000e+000  0.000000e+000
    outer loop
      vertex  1.800000e+001 -5.820000e+002  2.959769e+002
      vertex  3.103837e+001 -5.820000e+002  2.930952e+002
      vertex  2.408870e+001 -5.820000e+002  2.915532e+002
    endloop
  endfacet
  facet normal  -0.000000e+000  1.000000e+000  0.000000e+000
    outer loop
      vertex  2.408870e+001 -5.820000e+002  2.915532e+002
      vertex  3.103837e+001 -5.820000e+002  2.930952e+002
      vertex  3.570912e+001 -5.820000e+002  2.869102e+002
    endloop
  endfacet
  facet normal  0.000000e+000  1.000000e+000  0.000000e+000
    outer loop
      vertex  2.408870e+001 -5.820000e+002  2.915532e+002
      vertex  3.570912e+001 -5.820000e+002  2.869102e+002
      vertex  2.912461e+001 -5.820000e+002  2.859603e+002
    endloop
  endfacet
  facet normal  -0.000000e+000  1.000000e+000  0.000000e+000
    outer loop
      vertex  2.912461e+001 -5.820000e+002  2.859603e+002
      vertex  3.570912e+001 -5.820000e+002  2.869102e+002
      vertex  3.916383e+001 -5.820000e+002  2.799721e+002
    endloop
  endfacet
  facet normal  0.000000e+000  1.000000e+000  0.000000e+000
    outer loop
      vertex  2.912461e+001 -5.820000e+002  2.859603e+002
      vertex  3.916383e+001 -5.820000e+002  2.799721e+002
      vertex  3.288764e+001 -5.820000e+002  2.794425e+002
    endloop
  endfacet
  facet normal  -0.000000e+000  1.000000e+000  0.000000e+000
    outer loop
      vertex  3.288764e+001 -5.820000e+002  2.794425e+002
      vertex  3.916383e+001 -5.820000e+002  2.799721e+002
      vertex  4.128487e+001 -5.820000e+002  2.725175e+002
    endloop
  endfacet
  facet normal  0.000000e+000  1.000000e+000  0.000000e+000
    outer loop
      vertex  3.288764e+001 -5.820000e+002  2.794425e+002
      vertex  4.128487e+001 -5.820000e+002  2.725175e+002
      vertex  3.521331e+001 -5.820000e+002  2.722848e+002
    endloop
  endfacet
  facet normal  -0.000000e+000  9.999999e-001  0.000000e+000
    outer loop
      vertex  3.521331e+001 -5.820000e+002  2.722848e+002
      vertex  4.128487e+001 -5.820000e+002  2.725175e+002
      vertex  4.200000e+001 -5.820000e+002  2.648000e+002
    endloop
  endfacet
  facet normal  0.000000e+000  1.000000e+000  0.000000e+000
    outer loop
      vertex  3.521331e+001 -5.820000e+002  2.722848e+002
      vertex  4.200000e+001 -5.820000e+002  2.648000e+002
      vertex  3.600000e+001 -5.820000e+002  2.648000e+002
    endloop
  endfacet
  facet normal  -0.000000e+000  1.000000e+000  0.000000e+000
    outer loop
      vertex  3.600000e+001 -5.820000e+002  2.648000e+002
      vertex  4.200000e+001 -5.820000e+002  2.648000e+002
      vertex  4.128487e+001 -5.820000e+002  2.570825e+002
    endloop
  endfacet
  facet normal  0.000000e+000  1.000000e+000  0.000000e+000
    outer loop
      vertex  3.600000e+001 -5.820000e+002  2.648000e+002
      vertex  4.128487e+001 -5.820000e+002  2.570825e+002
      vertex  3.521331e+001 -5.820000e+002  2.573152e+002
    endloop
  endfacet
  facet normal  0.000000e+000  1.000000e+000  0.000000e+000
    outer loop
      vertex  3.521331e+001 -5.820000e+002  2.573152e+002
      vertex  4.128487e+001 -5.820000e+002  2.570825e+002
      vertex  3.916383e+001 -5.820000e+002  2.496279e+002
    endloop
  endfacet
  facet normal  0.000000e+000  9.999999e-001  0.000000e+000
    outer loop
      vertex  3.521331e+001 -5.820000e+002  2.573152e+002
      vertex  3.916383e+001 -5.820000e+002  2.496279e+002
      vertex  3.288764e+001 -5.820000e+002  2.501575e+002
    endloop
  endfacet
  facet normal  0.000000e+000  9.999999e-001  0.000000e+000
    outer loop
      vertex  3.288764e+001 -5.820000e+002  2.501575e+002
      vertex  3.916383e+001 -5.820000e+002  2.496279e+002
      vertex  3.570912e+001 -5.820000e+002  2.426898e+002
    endloop
  endfacet
  facet normal  0.000000e+000  1.000000e+000  0.000000e+000
    outer loop
      vertex  3.288764e+001 -5.820000e+002  2.501575e+002
      vertex  3.570912e+001 -5.820000e+002  2.426898e+002
      vertex  2.912461e+001 -5.820000e+002  2.436397e+002
    endloop
  endfacet
  facet normal  0.000000e+000  1.000000e+000  0.000000e+000
    outer loop
      vertex  2.912461e+001 -5.820000e+002  2.436397e+002
      vertex  3.570912e+001 -5.820000e+002  2.426898e+002
      vertex  3.103837e+001 -5.820000e+002  2.365048e+002
    endloop
  endfacet
  facet normal  0.000000e+000  1.000000e+000  0.000000e+000
    outer loop
      vertex  2.912461e+001 -5.820000e+002  2.436397e+002
      vertex  3.103837e+001 -5.820000e+002  2.365048e+002
      vertex  2.408870e+001 -5.820000e+002  2.380468e+002
    endloop
  endfacet
  facet normal  0.000000e+000  9.999999e-001  0.000000e+000
    outer loop
      vertex  1.872101e+001 -5.820000e+002  3.023969e+002
      vertex  2.531066e+001 -5.820000e+002  2.983167e+002
      vertex  3.763025e+000 -5.820000e+002  3.006028e+002
    endloop
  endfacet
  facet normal  0.000000e+000  1.000000e+000  0.000000e+000
    outer loop
      vertex  3.763025e+000 -5.820000e+002  3.006028e+002
      vertex  2.531066e+001 -5.820000e+002  2.983167e+002
      vertex  1.112461e+001 -5.820000e+002  2.990380e+002
    endloop
  endfacet
  facet normal  0.000000e+000  1.000000e+000  0.000000e+000
    outer loop
      vertex -2.408870e+001 -5.820000e+002  2.380468e+002
      vertex -1.800000e+001 -5.820000e+002  2.336231e+002
      vertex -3.103837e+001 -5.820000e+002  2.365048e+002
    endloop
  endfacet
  facet normal  0.000000e+000  1.000000e+000  0.000000e+000
    outer loop
      vertex -3.103837e+001 -5.820000e+002  2.365048e+002
      vertex -1.800000e+001 -5.820000e+002  2.336231e+002
      vertex -1.112461e+001 -5.820000e+002  2.305620e+002
    endloop
  endfacet
  facet normal  0.000000e+000  1.000000e+000  0.000000e+000
    outer loop
      vertex -3.103837e+001 -5.820000e+002  2.365048e+002
      vertex -1.112461e+001 -5.820000e+002  2.305620e+002
      vertex -2.531066e+001 -5.820000e+002  2.312833e+002
    endloop
  endfacet
  facet normal  0.000000e+000  1.000000e+000  0.000000e+000
    outer loop
      vertex -2.531066e+001 -5.820000e+002  2.312833e+002
      vertex -1.112461e+001 -5.820000e+002  2.305620e+002
      vertex -3.763025e+000 -5.820000e+002  2.289972e+002
    endloop
  endfacet
  facet normal  0.000000e+000  9.999999e-001  0.000000e+000
    outer loop
      vertex -2.531066e+001 -5.820000e+002  2.312833e+002
      vertex -3.763025e+000 -5.820000e+002  2.289972e+002
      vertex -1.872101e+001 -5.820000e+002  2.272031e+002
    endloop
  endfacet
  facet normal  0.000000e+000  1.000000e+000  -0.000000e+000
    outer loop
      vertex -1.112461e+001 -5.820000e+002  2.990380e+002
      vertex -1.800000e+001 -5.820000e+002  2.959769e+002
      vertex -2.531066e+001 -5.820000e+002  2.983167e+002
    endloop
  endfacet
  facet normal  0.000000e+000  1.000000e+000  0.000000e+000
    outer loop
      vertex -2.531066e+001 -5.820000e+002  2.983167e+002
      vertex -1.800000e+001 -5.820000e+002  2.959769e+002
      vertex -2.408870e+001 -5.820000e+002  2.915532e+002
    endloop
  endfacet
  facet normal  0.000000e+000  9.999999e-001  0.000000e+000
    outer loop
      vertex -2.531066e+001 -5.820000e+002  2.983167e+002
      vertex -2.408870e+001 -5.820000e+002  2.915532e+002
      vertex -3.103837e+001 -5.820000e+002  2.930952e+002
    endloop
  endfacet
  facet normal  0.000000e+000  1.000000e+000  0.000000e+000
    outer loop
      vertex -3.103837e+001 -5.820000e+002  2.930952e+002
      vertex -2.408870e+001 -5.820000e+002  2.915532e+002
      vertex -2.912461e+001 -5.820000e+002  2.859603e+002
    endloop
  endfacet
  facet normal  0.000000e+000  1.000000e+000  0.000000e+000
    outer loop
      vertex -3.103837e+001 -5.820000e+002  2.930952e+002
      vertex -2.912461e+001 -5.820000e+002  2.859603e+002
      vertex -3.570912e+001 -5.820000e+002  2.869102e+002
    endloop
  endfacet
  facet normal  0.000000e+000  1.000000e+000  0.000000e+000
    outer loop
      vertex -3.570912e+001 -5.820000e+002  2.869102e+002
      vertex -2.912461e+001 -5.820000e+002  2.859603e+002
      vertex -3.288764e+001 -5.820000e+002  2.794425e+002
    endloop
  endfacet
  facet normal  0.000000e+000  1.000000e+000  0.000000e+000
    outer loop
      vertex -3.570912e+001 -5.820000e+002  2.869102e+002
      vertex -3.288764e+001 -5.820000e+002  2.794425e+002
      vertex -3.916383e+001 -5.820000e+002  2.799721e+002
    endloop
  endfacet
  facet normal  0.000000e+000  9.999999e-001  0.000000e+000
    outer loop
      vertex -3.916383e+001 -5.820000e+002  2.799721e+002
      vertex -3.288764e+001 -5.820000e+002  2.794425e+002
      vertex -3.521331e+001 -5.820000e+002  2.722848e+002
    endloop
  endfacet
  facet normal  0.000000e+000  1.000000e+000  0.000000e+000
    outer loop
      vertex -3.916383e+001 -5.820000e+002  2.799721e+002
      vertex -3.521331e+001 -5.820000e+002  2.722848e+002
      vertex -4.128487e+001 -5.820000e+002  2.725175e+002
    endloop
  endfacet
  facet normal  0.000000e+000  1.000000e+000  0.000000e+000
    outer loop
      vertex -4.128487e+001 -5.820000e+002  2.725175e+002
      vertex -3.521331e+001 -5.820000e+002  2.722848e+002
      vertex -3.600000e+001 -5.820000e+002  2.648000e+002
    endloop
  endfacet
  facet normal  0.000000e+000  1.000000e+000  0.000000e+000
    outer loop
      vertex -4.128487e+001 -5.820000e+002  2.725175e+002
      vertex -3.600000e+001 -5.820000e+002  2.648000e+002
      vertex -4.200000e+001 -5.820000e+002  2.648000e+002
    endloop
  endfacet
  facet normal  -0.000000e+000  1.000000e+000  0.000000e+000
    outer loop
      vertex -4.200000e+001 -5.820000e+002  2.648000e+002
      vertex -3.600000e+001 -5.820000e+002  2.648000e+002
      vertex -3.521331e+001 -5.820000e+002  2.573152e+002
    endloop
  endfacet
  facet normal  0.000000e+000  1.000000e+000  0.000000e+000
    outer loop
      vertex -4.200000e+001 -5.820000e+002  2.648000e+002
      vertex -3.521331e+001 -5.820000e+002  2.573152e+002
      vertex -4.128487e+001 -5.820000e+002  2.570825e+002
    endloop
  endfacet
  facet normal  -0.000000e+000  1.000000e+000  0.000000e+000
    outer loop
      vertex -4.128487e+001 -5.820000e+002  2.570825e+002
      vertex -3.521331e+001 -5.820000e+002  2.573152e+002
      vertex -3.288764e+001 -5.820000e+002  2.501575e+002
    endloop
  endfacet
  facet normal  0.000000e+000  9.999999e-001  0.000000e+000
    outer loop
      vertex -4.128487e+001 -5.820000e+002  2.570825e+002
      vertex -3.288764e+001 -5.820000e+002  2.501575e+002
      vertex -3.916383e+001 -5.820000e+002  2.496279e+002
    endloop
  endfacet
  facet normal  -0.000000e+000  1.000000e+000  0.000000e+000
    outer loop
      vertex -3.916383e+001 -5.820000e+002  2.496279e+002
      vertex -3.288764e+001 -5.820000e+002  2.501575e+002
      vertex -2.912461e+001 -5.820000e+002  2.436397e+002
    endloop
  endfacet
  facet normal  0.000000e+000  9.999999e-001  0.000000e+000
    outer loop
      vertex -3.916383e+001 -5.820000e+002  2.496279e+002
      vertex -2.912461e+001 -5.820000e+002  2.436397e+002
      vertex -3.570912e+001 -5.820000e+002  2.426898e+002
    endloop
  endfacet
  facet normal  -0.000000e+000  1.000000e+000  0.000000e+000
    outer loop
      vertex -3.570912e+001 -5.820000e+002  2.426898e+002
      vertex -2.912461e+001 -5.820000e+002  2.436397e+002
      vertex -2.408870e+001 -5.820000e+002  2.380468e+002
    endloop
  endfacet
  facet normal  0.000000e+000  9.999999e-001  0.000000e+000
    outer loop
      vertex -3.570912e+001 -5.820000e+002  2.426898e+002
      vertex -2.408870e+001 -5.820000e+002  2.380468e+002
      vertex -3.103837e+001 -5.820000e+002  2.365048e+002
    endloop
  endfacet
  facet normal  0.000000e+000  1.000000e+000  0.000000e+000
    outer loop
      vertex -1.112461e+001 -5.820000e+002  2.990380e+002
      vertex -2.531066e+001 -5.820000e+002  2.983167e+002
      vertex -3.763025e+000 -5.820000e+002  3.006028e+002
    endloop
  endfacet
  facet normal  0.000000e+000  9.999999e-001  0.000000e+000
    outer loop
      vertex -3.763025e+000 -5.820000e+002  3.006028e+002
      vertex -2.531066e+001 -5.820000e+002  2.983167e+002
      vertex -1.872101e+001 -5.820000e+002  3.023969e+002
    endloop
  endfacet
  facet normal  0.000000e+000 -1.000000e+000  0.000000e+000
    outer loop
      vertex -1.149385e+001 -6.270000e+002  3.051967e+002
      vertex -1.872101e+001 -6.270000e+002  3.023969e+002
      vertex -3.875271e+000 -6.270000e+002  3.066208e+002
    endloop
  endfacet
  facet normal  0.000000e+000 -1.000000e+000  -0.000000e+000
    outer loop
      vertex -3.875271e+000 -6.270000e+002  3.066208e+002
      vertex -1.872101e+001 -6.270000e+002  3.023969e+002
      vertex -3.763025e+000 -6.270000e+002  3.006028e+002
    endloop
  endfacet
  facet normal  0.000000e+000 -1.000000e+000  0.000000e+000
    outer loop
      vertex -3.875271e+000 -6.270000e+002  3.066208e+002
      vertex -3.763025e+000 -6.270000e+002  3.006028e+002
      vertex  3.875271e+000 -6.270000e+002  3.066208e+002
    endloop
  endfacet
  facet normal  0.000000e+000 -1.000000e+000  0.000000e+000
    outer loop
      vertex  3.875271e+000 -6.270000e+002  3.066208e+002
      vertex -3.763025e+000 -6.270000e+002  3.006028e+002
      vertex  3.763025e+000 -6.270000e+002  3.006028e+002
    endloop
  endfacet
  facet normal  0.000000e+000 -1.000000e+000  0.000000e+000
    outer loop
      vertex  3.875271e+000 -6.270000e+002  3.066208e+002
      vertex  3.763025e+000 -6.270000e+002  3.006028e+002
      vertex  1.149385e+001 -6.270000e+002  3.051967e+002
    endloop
  endfacet
  facet normal  0.000000e+000 -1.000000e+000  -0.000000e+000
    outer loop
      vertex  1.149385e+001 -6.270000e+002  3.051967e+002
      vertex  3.763025e+000 -6.270000e+002  3.006028e+002
      vertex  1.872101e+001 -6.270000e+002  3.023969e+002
    endloop
  endfacet
  facet normal  0.000000e+000 -9.999999e-001  0.000000e+000
    outer loop
      vertex -1.872101e+001 -6.270000e+002  2.272031e+002
      vertex -1.149385e+001 -6.270000e+002  2.244033e+002
      vertex -3.763025e+000 -6.270000e+002  2.289972e+002
    endloop
  endfacet
  facet normal  0.000000e+000 -1.000000e+000  0.000000e+000
    outer loop
      vertex -3.763025e+000 -6.270000e+002  2.289972e+002
      vertex -1.149385e+001 -6.270000e+002  2.244033e+002
      vertex -3.875271e+000 -6.270000e+002  2.229792e+002
    endloop
  endfacet
  facet normal  0.000000e+000 -9.999999e-001  0.000000e+000
    outer loop
      vertex -3.763025e+000 -6.270000e+002  2.289972e+002
      vertex -3.875271e+000 -6.270000e+002  2.229792e+002
      vertex  3.763025e+000 -6.270000e+002  2.289972e+002
    endloop
  endfacet
  facet normal  0.000000e+000 -1.000000e+000  -0.000000e+000
    outer loop
      vertex  3.763025e+000 -6.270000e+002  2.289972e+002
      vertex -3.875271e+000 -6.270000e+002  2.229792e+002
      vertex  3.875271e+000 -6.270000e+002  2.229792e+002
    endloop
  endfacet
  facet normal  0.000000e+000 -1.000000e+000  0.000000e+000
    outer loop
      vertex  3.763025e+000 -6.270000e+002  2.289972e+002
      vertex  3.875271e+000 -6.270000e+002  2.229792e+002
      vertex  1.872101e+001 -6.270000e+002  2.272031e+002
    endloop
  endfacet
  facet normal  0.000000e+000 -1.000000e+000  0.000000e+000
    outer loop
      vertex  1.872101e+001 -6.270000e+002  2.272031e+002
      vertex  3.875271e+000 -6.270000e+002  2.229792e+002
      vertex  1.149385e+001 -6.270000e+002  2.244033e+002
    endloop
  endfacet
  facet normal  0.000000e+000 -1.000000e+000  0.000000e+000
    outer loop
      vertex  3.763025e+000 -6.270000e+002  2.289972e+002
      vertex  1.872101e+001 -6.270000e+002  2.272031e+002
      vertex  1.112461e+001 -6.270000e+002  2.305620e+002
    endloop
  endfacet
  facet normal  0.000000e+000 -1.000000e+000  0.000000e+000
    outer loop
      vertex  1.112461e+001 -6.270000e+002  2.305620e+002
      vertex  1.872101e+001 -6.270000e+002  2.272031e+002
      vertex  2.531066e+001 -6.270000e+002  2.312833e+002
    endloop
  endfacet
  facet normal  -0.000000e+000 -1.000000e+000  0.000000e+000
    outer loop
      vertex  1.112461e+001 -6.270000e+002  2.305620e+002
      vertex  2.531066e+001 -6.270000e+002  2.312833e+002
      vertex  1.800000e+001 -6.270000e+002  2.336231e+002
    endloop
  endfacet
  facet normal  0.000000e+000 -9.999999e-001  0.000000e+000
    outer loop
      vertex  1.800000e+001 -6.270000e+002  2.336231e+002
      vertex  2.531066e+001 -6.270000e+002  2.312833e+002
      vertex  3.103837e+001 -6.270000e+002  2.365048e+002
    endloop
  endfacet
  facet normal  -0.000000e+000 -1.000000e+000  0.000000e+000
    outer loop
      vertex  1.800000e+001 -6.270000e+002  2.336231e+002
      vertex  3.103837e+001 -6.270000e+002  2.365048e+002
      vertex  2.408870e+001 -6.270000e+002  2.380468e+002
    endloop
  endfacet
  facet normal  0.000000e+000 -1.000000e+000  0.000000e+000
    outer loop
      vertex  2.408870e+001 -6.270000e+002  2.380468e+002
      vertex  3.103837e+001 -6.270000e+002  2.365048e+002
      vertex  2.912461e+001 -6.270000e+002  2.436397e+002
    endloop
  endfacet
  facet normal  0.000000e+000 -1.000000e+000  0.000000e+000
    outer loop
      vertex  2.912461e+001 -6.270000e+002  2.436397e+002
      vertex  3.103837e+001 -6.270000e+002  2.365048e+002
      vertex  3.570912e+001 -6.270000e+002  2.426898e+002
    endloop
  endfacet
  facet normal  0.000000e+000 -1.000000e+000  0.000000e+000
    outer loop
      vertex  2.912461e+001 -6.270000e+002  2.436397e+002
      vertex  3.570912e+001 -6.270000e+002  2.426898e+002
      vertex  3.288764e+001 -6.270000e+002  2.501575e+002
    endloop
  endfacet
  facet normal  0.000000e+000 -9.999999e-001  0.000000e+000
    outer loop
      vertex  3.288764e+001 -6.270000e+002  2.501575e+002
      vertex  3.570912e+001 -6.270000e+002  2.426898e+002
      vertex  3.916383e+001 -6.270000e+002  2.496279e+002
    endloop
  endfacet
  facet normal  0.000000e+000 -9.999999e-001  0.000000e+000
    outer loop
      vertex  3.288764e+001 -6.270000e+002  2.501575e+002
      vertex  3.916383e+001 -6.270000e+002  2.496279e+002
      vertex  3.521331e+001 -6.270000e+002  2.573152e+002
    endloop
  endfacet
  facet normal  0.000000e+000 -1.000000e+000  0.000000e+000
    outer loop
      vertex  3.521331e+001 -6.270000e+002  2.573152e+002
      vertex  3.916383e+001 -6.270000e+002  2.496279e+002
      vertex  4.128487e+001 -6.270000e+002  2.570825e+002
    endloop
  endfacet
  facet normal  0.000000e+000 -1.000000e+000  0.000000e+000
    outer loop
      vertex  3.521331e+001 -6.270000e+002  2.573152e+002
      vertex  4.128487e+001 -6.270000e+002  2.570825e+002
      vertex  3.600000e+001 -6.270000e+002  2.648000e+002
    endloop
  endfacet
  facet normal  0.000000e+000 -1.000000e+000  0.000000e+000
    outer loop
      vertex  3.600000e+001 -6.270000e+002  2.648000e+002
      vertex  4.128487e+001 -6.270000e+002  2.570825e+002
      vertex  4.200000e+001 -6.270000e+002  2.648000e+002
    endloop
  endfacet
  facet normal  0.000000e+000 -1.000000e+000  0.000000e+000
    outer loop
      vertex  3.600000e+001 -6.270000e+002  2.648000e+002
      vertex  4.200000e+001 -6.270000e+002  2.648000e+002
      vertex  3.521331e+001 -6.270000e+002  2.722848e+002
    endloop
  endfacet
  facet normal  0.000000e+000 -9.999999e-001  0.000000e+000
    outer loop
      vertex  3.521331e+001 -6.270000e+002  2.722848e+002
      vertex  4.200000e+001 -6.270000e+002  2.648000e+002
      vertex  4.128487e+001 -6.270000e+002  2.725175e+002
    endloop
  endfacet
  facet normal  -0.000000e+000 -1.000000e+000  0.000000e+000
    outer loop
      vertex  3.521331e+001 -6.270000e+002  2.722848e+002
      vertex  4.128487e+001 -6.270000e+002  2.725175e+002
      vertex  3.288764e+001 -6.270000e+002  2.794425e+002
    endloop
  endfacet
  facet normal  0.000000e+000 -1.000000e+000  0.000000e+000
    outer loop
      vertex  3.288764e+001 -6.270000e+002  2.794425e+002
      vertex  4.128487e+001 -6.270000e+002  2.725175e+002
      vertex  3.916383e+001 -6.270000e+002  2.799721e+002
    endloop
  endfacet
  facet normal  -0.000000e+000 -1.000000e+000  0.000000e+000
    outer loop
      vertex  3.288764e+001 -6.270000e+002  2.794425e+002
      vertex  3.916383e+001 -6.270000e+002  2.799721e+002
      vertex  2.912461e+001 -6.270000e+002  2.859603e+002
    endloop
  endfacet
  facet normal  0.000000e+000 -1.000000e+000  0.000000e+000
    outer loop
      vertex  2.912461e+001 -6.270000e+002  2.859603e+002
      vertex  3.916383e+001 -6.270000e+002  2.799721e+002
      vertex  3.570912e+001 -6.270000e+002  2.869102e+002
    endloop
  endfacet
  facet normal  -0.000000e+000 -1.000000e+000  0.000000e+000
    outer loop
      vertex  2.912461e+001 -6.270000e+002  2.859603e+002
      vertex  3.570912e+001 -6.270000e+002  2.869102e+002
      vertex  2.408870e+001 -6.270000e+002  2.915532e+002
    endloop
  endfacet
  facet normal  0.000000e+000 -1.000000e+000  0.000000e+000
    outer loop
      vertex  2.408870e+001 -6.270000e+002  2.915532e+002
      vertex  3.570912e+001 -6.270000e+002  2.869102e+002
      vertex  3.103837e+001 -6.270000e+002  2.930952e+002
    endloop
  endfacet
  facet normal  -0.000000e+000 -1.000000e+000  0.000000e+000
    outer loop
      vertex  2.408870e+001 -6.270000e+002  2.915532e+002
      vertex  3.103837e+001 -6.270000e+002  2.930952e+002
      vertex  1.800000e+001 -6.270000e+002  2.959769e+002
    endloop
  endfacet
  facet normal  0.000000e+000 -1.000000e+000  0.000000e+000
    outer loop
      vertex  1.800000e+001 -6.270000e+002  2.959769e+002
      vertex  3.103837e+001 -6.270000e+002  2.930952e+002
      vertex  2.531066e+001 -6.270000e+002  2.983167e+002
    endloop
  endfacet
  facet normal  -0.000000e+000 -1.000000e+000  0.000000e+000
    outer loop
      vertex  1.800000e+001 -6.270000e+002  2.959769e+002
      vertex  2.531066e+001 -6.270000e+002  2.983167e+002
      vertex  1.112461e+001 -6.270000e+002  2.990380e+002
    endloop
  endfacet
  facet normal  0.000000e+000 -9.999999e-001  0.000000e+000
    outer loop
      vertex  1.872101e+001 -6.270000e+002  3.023969e+002
      vertex  3.763025e+000 -6.270000e+002  3.006028e+002
      vertex  2.531066e+001 -6.270000e+002  2.983167e+002
    endloop
  endfacet
  facet normal  0.000000e+000 -1.000000e+000  0.000000e+000
    outer loop
      vertex  2.531066e+001 -6.270000e+002  2.983167e+002
      vertex  3.763025e+000 -6.270000e+002  3.006028e+002
      vertex  1.112461e+001 -6.270000e+002  2.990380e+002
    endloop
  endfacet
  facet normal  -0.000000e+000 -9.999999e-001  0.000000e+000
    outer loop
      vertex -1.872101e+001 -6.270000e+002  2.272031e+002
      vertex -3.763025e+000 -6.270000e+002  2.289972e+002
      vertex -2.531066e+001 -6.270000e+002  2.312833e+002
    endloop
  endfacet
  facet normal  0.000000e+000 -1.000000e+000  0.000000e+000
    outer loop
      vertex -2.531066e+001 -6.270000e+002  2.312833e+002
      vertex -3.763025e+000 -6.270000e+002  2.289972e+002
      vertex -1.112461e+001 -6.270000e+002  2.305620e+002
    endloop
  endfacet
  facet normal  0.000000e+000 -1.000000e+000  0.000000e+000
    outer loop
      vertex -2.531066e+001 -6.270000e+002  2.312833e+002
      vertex -1.112461e+001 -6.270000e+002  2.305620e+002
      vertex -3.103837e+001 -6.270000e+002  2.365048e+002
    endloop
  endfacet
  facet normal  0.000000e+000 -1.000000e+000  0.000000e+000
    outer loop
      vertex -3.103837e+001 -6.270000e+002  2.365048e+002
      vertex -1.112461e+001 -6.270000e+002  2.305620e+002
      vertex -1.800000e+001 -6.270000e+002  2.336231e+002
    endloop
  endfacet
  facet normal  0.000000e+000 -1.000000e+000  0.000000e+000
    outer loop
      vertex -3.103837e+001 -6.270000e+002  2.365048e+002
      vertex -1.800000e+001 -6.270000e+002  2.336231e+002
      vertex -2.408870e+001 -6.270000e+002  2.380468e+002
    endloop
  endfacet
  facet normal  -0.000000e+000 -9.999999e-001  0.000000e+000
    outer loop
      vertex -3.103837e+001 -6.270000e+002  2.365048e+002
      vertex -2.408870e+001 -6.270000e+002  2.380468e+002
      vertex -3.570912e+001 -6.270000e+002  2.426898e+002
    endloop
  endfacet
  facet normal  0.000000e+000 -1.000000e+000  0.000000e+000
    outer loop
      vertex -3.570912e+001 -6.270000e+002  2.426898e+002
      vertex -2.408870e+001 -6.270000e+002  2.380468e+002
      vertex -2.912461e+001 -6.270000e+002  2.436397e+002
    endloop
  endfacet
  facet normal  -0.000000e+000 -9.999999e-001  0.000000e+000
    outer loop
      vertex -3.570912e+001 -6.270000e+002  2.426898e+002
      vertex -2.912461e+001 -6.270000e+002  2.436397e+002
      vertex -3.916383e+001 -6.270000e+002  2.496279e+002
    endloop
  endfacet
  facet normal  0.000000e+000 -1.000000e+000  0.000000e+000
    outer loop
      vertex -3.916383e+001 -6.270000e+002  2.496279e+002
      vertex -2.912461e+001 -6.270000e+002  2.436397e+002
      vertex -3.288764e+001 -6.270000e+002  2.501575e+002
    endloop
  endfacet
  facet normal  -0.000000e+000 -9.999999e-001  0.000000e+000
    outer loop
      vertex -3.916383e+001 -6.270000e+002  2.496279e+002
      vertex -3.288764e+001 -6.270000e+002  2.501575e+002
      vertex -4.128487e+001 -6.270000e+002  2.570825e+002
    endloop
  endfacet
  facet normal  0.000000e+000 -1.000000e+000  0.000000e+000
    outer loop
      vertex -4.128487e+001 -6.270000e+002  2.570825e+002
      vertex -3.288764e+001 -6.270000e+002  2.501575e+002
      vertex -3.521331e+001 -6.270000e+002  2.573152e+002
    endloop
  endfacet
  facet normal  -0.000000e+000 -1.000000e+000  0.000000e+000
    outer loop
      vertex -4.128487e+001 -6.270000e+002  2.570825e+002
      vertex -3.521331e+001 -6.270000e+002  2.573152e+002
      vertex -4.200000e+001 -6.270000e+002  2.648000e+002
    endloop
  endfacet
  facet normal  0.000000e+000 -1.000000e+000  0.000000e+000
    outer loop
      vertex -4.200000e+001 -6.270000e+002  2.648000e+002
      vertex -3.521331e+001 -6.270000e+002  2.573152e+002
      vertex -3.600000e+001 -6.270000e+002  2.648000e+002
    endloop
  endfacet
  facet normal  0.000000e+000 -1.000000e+000  0.000000e+000
    outer loop
      vertex -4.200000e+001 -6.270000e+002  2.648000e+002
      vertex -3.600000e+001 -6.270000e+002  2.648000e+002
      vertex -4.128487e+001 -6.270000e+002  2.725175e+002
    endloop
  endfacet
  facet normal  0.000000e+000 -1.000000e+000  0.000000e+000
    outer loop
      vertex -4.128487e+001 -6.270000e+002  2.725175e+002
      vertex -3.600000e+001 -6.270000e+002  2.648000e+002
      vertex -3.521331e+001 -6.270000e+002  2.722848e+002
    endloop
  endfacet
  facet normal  0.000000e+000 -1.000000e+000  0.000000e+000
    outer loop
      vertex -4.128487e+001 -6.270000e+002  2.725175e+002
      vertex -3.521331e+001 -6.270000e+002  2.722848e+002
      vertex -3.916383e+001 -6.270000e+002  2.799721e+002
    endloop
  endfacet
  facet normal  0.000000e+000 -9.999999e-001  0.000000e+000
    outer loop
      vertex -3.916383e+001 -6.270000e+002  2.799721e+002
      vertex -3.521331e+001 -6.270000e+002  2.722848e+002
      vertex -3.288764e+001 -6.270000e+002  2.794425e+002
    endloop
  endfacet
  facet normal  0.000000e+000 -1.000000e+000  0.000000e+000
    outer loop
      vertex -3.916383e+001 -6.270000e+002  2.799721e+002
      vertex -3.288764e+001 -6.270000e+002  2.794425e+002
      vertex -3.570912e+001 -6.270000e+002  2.869102e+002
    endloop
  endfacet
  facet normal  0.000000e+000 -1.000000e+000  0.000000e+000
    outer loop
      vertex -3.570912e+001 -6.270000e+002  2.869102e+002
      vertex -3.288764e+001 -6.270000e+002  2.794425e+002
      vertex -2.912461e+001 -6.270000e+002  2.859603e+002
    endloop
  endfacet
  facet normal  0.000000e+000 -1.000000e+000  0.000000e+000
    outer loop
      vertex -3.570912e+001 -6.270000e+002  2.869102e+002
      vertex -2.912461e+001 -6.270000e+002  2.859603e+002
      vertex -3.103837e+001 -6.270000e+002  2.930952e+002
    endloop
  endfacet
  facet normal  0.000000e+000 -1.000000e+000  0.000000e+000
    outer loop
      vertex -3.103837e+001 -6.270000e+002  2.930952e+002
      vertex -2.912461e+001 -6.270000e+002  2.859603e+002
      vertex -2.408870e+001 -6.270000e+002  2.915532e+002
    endloop
  endfacet
  facet normal  0.000000e+000 -9.999999e-001  0.000000e+000
    outer loop
      vertex -3.103837e+001 -6.270000e+002  2.930952e+002
      vertex -2.408870e+001 -6.270000e+002  2.915532e+002
      vertex -2.531066e+001 -6.270000e+002  2.983167e+002
    endloop
  endfacet
  facet normal  0.000000e+000 -1.000000e+000  0.000000e+000
    outer loop
      vertex -2.531066e+001 -6.270000e+002  2.983167e+002
      vertex -2.408870e+001 -6.270000e+002  2.915532e+002
      vertex -1.800000e+001 -6.270000e+002  2.959769e+002
    endloop
  endfacet
  facet normal  0.000000e+000 -1.000000e+000  0.000000e+000
    outer loop
      vertex -2.531066e+001 -6.270000e+002  2.983167e+002
      vertex -1.800000e+001 -6.270000e+002  2.959769e+002
      vertex -1.112461e+001 -6.270000e+002  2.990380e+002
    endloop
  endfacet
  facet normal  0.000000e+000 -1.000000e+000  0.000000e+000
    outer loop
      vertex -1.112461e+001 -6.270000e+002  2.990380e+002
      vertex -3.763025e+000 -6.270000e+002  3.006028e+002
      vertex -2.531066e+001 -6.270000e+002  2.983167e+002
    endloop
  endfacet
  facet normal  0.000000e+000 -9.999999e-001  0.000000e+000
    outer loop
      vertex -2.531066e+001 -6.270000e+002  2.983167e+002
      vertex -3.763025e+000 -6.270000e+002  3.006028e+002
      vertex -1.872101e+001 -6.270000e+002  3.023969e+002
    endloop
  endfacet
  facet normal -2.079123e-001  0.000000e+000  9.781474e-001
    outer loop
      vertex  3.763025e+000 -5.820000e+002  2.289972e+002
      vertex  1.112461e+001 -6.270000e+002  2.305620e+002
      vertex  1.112461e+001 -5.820000e+002  2.305620e+002
    endloop
  endfacet
  facet normal -4.067374e-001  0.000000e+000  9.135451e-001
    outer loop
      vertex  1.112461e+001 -5.820000e+002  2.305620e+002
      vertex  1.112461e+001 -6.270000e+002  2.305620e+002
      vertex  1.800000e+001 -6.270000e+002  2.336231e+002
    endloop
  endfacet
  facet normal -4.067374e-001  0.000000e+000  9.135451e-001
    outer loop
      vertex  1.112461e+001 -5.820000e+002  2.305620e+002
      vertex  1.800000e+001 -6.270000e+002  2.336231e+002
      vertex  1.800000e+001 -5.820000e+002  2.336231e+002
    endloop
  endfacet
  facet normal -5.877844e-001  0.000000e+000  8.090176e-001
    outer loop
      vertex  1.800000e+001 -5.820000e+002  2.336231e+002
      vertex  1.800000e+001 -6.270000e+002  2.336231e+002
      vertex  2.408870e+001 -6.270000e+002  2.380468e+002
    endloop
  endfacet
  facet normal -5.877844e-001  0.000000e+000  8.090176e-001
    outer loop
      vertex  1.800000e+001 -5.820000e+002  2.336231e+002
      vertex  2.408870e+001 -6.270000e+002  2.380468e+002
      vertex  2.408870e+001 -5.820000e+002  2.380468e+002
    endloop
  endfacet
  facet normal -7.431447e-001  0.000000e+000  6.691308e-001
    outer loop
      vertex  2.408870e+001 -5.820000e+002  2.380468e+002
      vertex  2.408870e+001 -6.270000e+002  2.380468e+002
      vertex  2.912461e+001 -6.270000e+002  2.436397e+002
    endloop
  endfacet
  facet normal -7.431447e-001  0.000000e+000  6.691308e-001
    outer loop
      vertex  2.408870e+001 -5.820000e+002  2.380468e+002
      vertex  2.912461e+001 -6.270000e+002  2.436397e+002
      vertex  2.912461e+001 -5.820000e+002  2.436397e+002
    endloop
  endfacet
  facet normal -8.660256e-001  0.000000e+000  4.999996e-001
    outer loop
      vertex  2.912461e+001 -5.820000e+002  2.436397e+002
      vertex  2.912461e+001 -6.270000e+002  2.436397e+002
      vertex  3.288764e+001 -6.270000e+002  2.501575e+002
    endloop
  endfacet
  facet normal -8.660256e-001  0.000000e+000  4.999996e-001
    outer loop
      vertex  2.912461e+001 -5.820000e+002  2.436397e+002
      vertex  3.288764e+001 -6.270000e+002  2.501575e+002
      vertex  3.288764e+001 -5.820000e+002  2.501575e+002
    endloop
  endfacet
  facet normal -9.510566e-001  0.000000e+000  3.090168e-001
    outer loop
      vertex  3.288764e+001 -5.820000e+002  2.501575e+002
      vertex  3.288764e+001 -6.270000e+002  2.501575e+002
      vertex  3.521331e+001 -6.270000e+002  2.573152e+002
    endloop
  endfacet
  facet normal -9.510566e-001  0.000000e+000  3.090168e-001
    outer loop
      vertex  3.288764e+001 -5.820000e+002  2.501575e+002
      vertex  3.521331e+001 -6.270000e+002  2.573152e+002
      vertex  3.521331e+001 -5.820000e+002  2.573152e+002
    endloop
  endfacet
  facet normal -9.945219e-001  0.000000e+000  1.045287e-001
    outer loop
      vertex  3.521331e+001 -5.820000e+002  2.573152e+002
      vertex  3.521331e+001 -6.270000e+002  2.573152e+002
      vertex  3.600000e+001 -6.270000e+002  2.648000e+002
    endloop
  endfacet
  facet normal -9.945219e-001  0.000000e+000  1.045287e-001
    outer loop
      vertex  3.521331e+001 -5.820000e+002  2.573152e+002
      vertex  3.600000e+001 -6.270000e+002  2.648000e+002
      vertex  3.600000e+001 -5.820000e+002  2.648000e+002
    endloop
  endfacet
  facet normal -2.079123e-001  0.000000e+000  9.781474e-001
    outer loop
      vertex  1.112461e+001 -6.270000e+002  2.305620e+002
      vertex  3.763025e+000 -5.820000e+002  2.289972e+002
      vertex  3.763025e+000 -6.270000e+002  2.289972e+002
    endloop
  endfacet
  facet normal  0.000000e+000  -0.000000e+000  9.999999e-001
    outer loop
      vertex  3.763025e+000 -6.270000e+002  2.289972e+002
      vertex  3.763025e+000 -5.820000e+002  2.289972e+002
      vertex -3.763025e+000 -5.820000e+002  2.289972e+002
    endloop
  endfacet
  facet normal  0.000000e+000  0.000000e+000  9.999999e-001
    outer loop
      vertex  3.763025e+000 -6.270000e+002  2.289972e+002
      vertex -3.763025e+000 -5.820000e+002  2.289972e+002
      vertex -3.763025e+000 -6.270000e+002  2.289972e+002
    endloop
  endfacet
  facet normal  2.079123e-001  -0.000000e+000  9.781474e-001
    outer loop
      vertex -3.763025e+000 -6.270000e+002  2.289972e+002
      vertex -3.763025e+000 -5.820000e+002  2.289972e+002
      vertex -1.112461e+001 -5.820000e+002  2.305620e+002
    endloop
  endfacet
  facet normal  2.079123e-001  0.000000e+000  9.781474e-001
    outer loop
      vertex -3.763025e+000 -6.270000e+002  2.289972e+002
      vertex -1.112461e+001 -5.820000e+002  2.305620e+002
      vertex -1.112461e+001 -6.270000e+002  2.305620e+002
    endloop
  endfacet
  facet normal  4.067374e-001  -0.000000e+000  9.135451e-001
    outer loop
      vertex -1.112461e+001 -6.270000e+002  2.305620e+002
      vertex -1.112461e+001 -5.820000e+002  2.305620e+002
      vertex -1.800000e+001 -5.820000e+002  2.336231e+002
    endloop
  endfacet
  facet normal  4.067374e-001  0.000000e+000  9.135451e-001
    outer loop
      vertex -1.112461e+001 -6.270000e+002  2.305620e+002
      vertex -1.800000e+001 -5.820000e+002  2.336231e+002
      vertex -1.800000e+001 -6.270000e+002  2.336231e+002
    endloop
  endfacet
  facet normal  5.877844e-001  -0.000000e+000  8.090176e-001
    outer loop
      vertex -1.800000e+001 -6.270000e+002  2.336231e+002
      vertex -1.800000e+001 -5.820000e+002  2.336231e+002
      vertex -2.408870e+001 -5.820000e+002  2.380468e+002
    endloop
  endfacet
  facet normal  5.877844e-001  0.000000e+000  8.090176e-001
    outer loop
      vertex -1.800000e+001 -6.270000e+002  2.336231e+002
      vertex -2.408870e+001 -5.820000e+002  2.380468e+002
      vertex -2.408870e+001 -6.270000e+002  2.380468e+002
    endloop
  endfacet
  facet normal  7.431447e-001  -0.000000e+000  6.691308e-001
    outer loop
      vertex -2.408870e+001 -6.270000e+002  2.380468e+002
      vertex -2.408870e+001 -5.820000e+002  2.380468e+002
      vertex -2.912461e+001 -5.820000e+002  2.436397e+002
    endloop
  endfacet
  facet normal  7.431447e-001  0.000000e+000  6.691308e-001
    outer loop
      vertex -2.408870e+001 -6.270000e+002  2.380468e+002
      vertex -2.912461e+001 -5.820000e+002  2.436397e+002
      vertex -2.912461e+001 -6.270000e+002  2.436397e+002
    endloop
  endfacet
  facet normal  8.660256e-001  -0.000000e+000  4.999996e-001
    outer loop
      vertex -2.912461e+001 -6.270000e+002  2.436397e+002
      vertex -2.912461e+001 -5.820000e+002  2.436397e+002
      vertex -3.288764e+001 -5.820000e+002  2.501575e+002
    endloop
  endfacet
  facet normal  8.660256e-001  0.000000e+000  4.999996e-001
    outer loop
      vertex -2.912461e+001 -6.270000e+002  2.436397e+002
      vertex -3.288764e+001 -5.820000e+002  2.501575e+002
      vertex -3.288764e+001 -6.270000e+002  2.501575e+002
    endloop
  endfacet
  facet normal  9.510566e-001  -0.000000e+000  3.090168e-001
    outer loop
      vertex -3.288764e+001 -6.270000e+002  2.501575e+002
      vertex -3.288764e+001 -5.820000e+002  2.501575e+002
      vertex -3.521331e+001 -5.820000e+002  2.573152e+002
    endloop
  endfacet
  facet normal  9.510566e-001  0.000000e+000  3.090168e-001
    outer loop
      vertex -3.288764e+001 -6.270000e+002  2.501575e+002
      vertex -3.521331e+001 -5.820000e+002  2.573152e+002
      vertex -3.521331e+001 -6.270000e+002  2.573152e+002
    endloop
  endfacet
  facet normal  9.945219e-001  -0.000000e+000  1.045287e-001
    outer loop
      vertex -3.521331e+001 -6.270000e+002  2.573152e+002
      vertex -3.521331e+001 -5.820000e+002  2.573152e+002
      vertex -3.600000e+001 -5.820000e+002  2.648000e+002
    endloop
  endfacet
  facet normal  9.945219e-001  0.000000e+000  1.045287e-001
    outer loop
      vertex -3.521331e+001 -6.270000e+002  2.573152e+002
      vertex -3.600000e+001 -5.820000e+002  2.648000e+002
      vertex -3.600000e+001 -6.270000e+002  2.648000e+002
    endloop
  endfacet
  facet normal  2.079123e-001  0.000000e+000 -9.781474e-001
    outer loop
      vertex -3.763025e+000 -5.820000e+002  3.006028e+002
      vertex -1.112461e+001 -6.270000e+002  2.990380e+002
      vertex -1.112461e+001 -5.820000e+002  2.990380e+002
    endloop
  endfacet
  facet normal  4.067340e-001  0.000000e+000 -9.135466e-001
    outer loop
      vertex -1.112461e+001 -5.820000e+002  2.990380e+002
      vertex -1.112461e+001 -6.270000e+002  2.990380e+002
      vertex -1.800000e+001 -6.270000e+002  2.959769e+002
    endloop
  endfacet
  facet normal  4.067340e-001  0.000000e+000 -9.135466e-001
    outer loop
      vertex -1.112461e+001 -5.820000e+002  2.990380e+002
      vertex -1.800000e+001 -6.270000e+002  2.959769e+002
      vertex -1.800000e+001 -5.820000e+002  2.959769e+002
    endloop
  endfacet
  facet normal  5.877858e-001  0.000000e+000 -8.090166e-001
    outer loop
      vertex -1.800000e+001 -5.820000e+002  2.959769e+002
      vertex -1.800000e+001 -6.270000e+002  2.959769e+002
      vertex -2.408870e+001 -6.270000e+002  2.915532e+002
    endloop
  endfacet
  facet normal  5.877858e-001  0.000000e+000 -8.090166e-001
    outer loop
      vertex -1.800000e+001 -5.820000e+002  2.959769e+002
      vertex -2.408870e+001 -6.270000e+002  2.915532e+002
      vertex -2.408870e+001 -5.820000e+002  2.915532e+002
    endloop
  endfacet
  facet normal  7.431456e-001  0.000000e+000 -6.691298e-001
    outer loop
      vertex -2.408870e+001 -5.820000e+002  2.915532e+002
      vertex -2.408870e+001 -6.270000e+002  2.915532e+002
      vertex -2.912461e+001 -6.270000e+002  2.859603e+002
    endloop
  endfacet
  facet normal  7.431456e-001  0.000000e+000 -6.691298e-001
    outer loop
      vertex -2.408870e+001 -5.820000e+002  2.915532e+002
      vertex -2.912461e+001 -6.270000e+002  2.859603e+002
      vertex -2.912461e+001 -5.820000e+002  2.859603e+002
    endloop
  endfacet
  facet normal  8.660256e-001  0.000000e+000 -4.999996e-001
    outer loop
      vertex -2.912461e+001 -5.820000e+002  2.859603e+002
      vertex -2.912461e+001 -6.270000e+002  2.859603e+002
      vertex -3.288764e+001 -6.270000e+002  2.794425e+002
    endloop
  endfacet
  facet normal  8.660256e-001  0.000000e+000 -4.999996e-001
    outer loop
      vertex -2.912461e+001 -5.820000e+002  2.859603e+002
      vertex -3.288764e+001 -6.270000e+002  2.794425e+002
      vertex -3.288764e+001 -5.820000e+002  2.794425e+002
    endloop
  endfacet
  facet normal  9.510564e-001  0.000000e+000 -3.090174e-001
    outer loop
      vertex -3.288764e+001 -5.820000e+002  2.794425e+002
      vertex -3.288764e+001 -6.270000e+002  2.794425e+002
      vertex -3.521331e+001 -6.270000e+002  2.722848e+002
    endloop
  endfacet
  facet normal  9.510564e-001  0.000000e+000 -3.090174e-001
    outer loop
      vertex -3.288764e+001 -5.820000e+002  2.794425e+002
      vertex -3.521331e+001 -6.270000e+002  2.722848e+002
      vertex -3.521331e+001 -5.820000e+002  2.722848e+002
    endloop
  endfacet
  facet normal  9.945219e-001  0.000000e+000 -1.045282e-001
    outer loop
      vertex -3.521331e+001 -5.820000e+002  2.722848e+002
      vertex -3.521331e+001 -6.270000e+002  2.722848e+002
      vertex -3.600000e+001 -6.270000e+002  2.648000e+002
    endloop
  endfacet
  facet normal  9.945219e-001  0.000000e+000 -1.045282e-001
    outer loop
      vertex -3.521331e+001 -5.820000e+002  2.722848e+002
      vertex -3.600000e+001 -6.270000e+002  2.648000e+002
      vertex -3.600000e+001 -5.820000e+002  2.648000e+002
    endloop
  endfacet
  facet normal  2.079123e-001  0.000000e+000 -9.781474e-001
    outer loop
      vertex -1.112461e+001 -6.270000e+002  2.990380e+002
      vertex -3.763025e+000 -5.820000e+002  3.006028e+002
      vertex -3.763025e+000 -6.270000e+002  3.006028e+002
    endloop
  endfacet
  facet normal  0.000000e+000  0.000000e+000 -9.999999e-001
    outer loop
      vertex -3.763025e+000 -6.270000e+002  3.006028e+002
      vertex -3.763025e+000 -5.820000e+002  3.006028e+002
      vertex  3.763025e+000 -5.820000e+002  3.006028e+002
    endloop
  endfacet
  facet normal  0.000000e+000  -0.000000e+000 -9.999999e-001
    outer loop
      vertex -3.763025e+000 -6.270000e+002  3.006028e+002
      vertex  3.763025e+000 -5.820000e+002  3.006028e+002
      vertex  3.763025e+000 -6.270000e+002  3.006028e+002
    endloop
  endfacet
  facet normal -2.079123e-001  0.000000e+000 -9.781474e-001
    outer loop
      vertex  3.763025e+000 -6.270000e+002  3.006028e+002
      vertex  3.763025e+000 -5.820000e+002  3.006028e+002
      vertex  1.112461e+001 -5.820000e+002  2.990380e+002
    endloop
  endfacet
  facet normal -2.079123e-001  -0.000000e+000 -9.781474e-001
    outer loop
      vertex  3.763025e+000 -6.270000e+002  3.006028e+002
      vertex  1.112461e+001 -5.820000e+002  2.990380e+002
      vertex  1.112461e+001 -6.270000e+002  2.990380e+002
    endloop
  endfacet
  facet normal -4.067340e-001  0.000000e+000 -9.135466e-001
    outer loop
      vertex  1.112461e+001 -6.270000e+002  2.990380e+002
      vertex  1.112461e+001 -5.820000e+002  2.990380e+002
      vertex  1.800000e+001 -5.820000e+002  2.959769e+002
    endloop
  endfacet
  facet normal -4.067340e-001  -0.000000e+000 -9.135466e-001
    outer loop
      vertex  1.112461e+001 -6.270000e+002  2.990380e+002
      vertex  1.800000e+001 -5.820000e+002  2.959769e+002
      vertex  1.800000e+001 -6.270000e+002  2.959769e+002
    endloop
  endfacet
  facet normal -5.877858e-001  0.000000e+000 -8.090166e-001
    outer loop
      vertex  1.800000e+001 -6.270000e+002  2.959769e+002
      vertex  1.800000e+001 -5.820000e+002  2.959769e+002
      vertex  2.408870e+001 -5.820000e+002  2.915532e+002
    endloop
  endfacet
  facet normal -5.877858e-001  -0.000000e+000 -8.090166e-001
    outer loop
      vertex  1.800000e+001 -6.270000e+002  2.959769e+002
      vertex  2.408870e+001 -5.820000e+002  2.915532e+002
      vertex  2.408870e+001 -6.270000e+002  2.915532e+002
    endloop
  endfacet
  facet normal -7.431456e-001  0.000000e+000 -6.691298e-001
    outer loop
      vertex  2.408870e+001 -6.270000e+002  2.915532e+002
      vertex  2.408870e+001 -5.820000e+002  2.915532e+002
      vertex  2.912461e+001 -5.820000e+002  2.859603e+002
    endloop
  endfacet
  facet normal -7.431456e-001  -0.000000e+000 -6.691298e-001
    outer loop
      vertex  2.408870e+001 -6.270000e+002  2.915532e+002
      vertex  2.912461e+001 -5.820000e+002  2.859603e+002
      vertex  2.912461e+001 -6.270000e+002  2.859603e+002
    endloop
  endfacet
  facet normal -8.660256e-001  0.000000e+000 -4.999996e-001
    outer loop
      vertex  2.912461e+001 -6.270000e+002  2.859603e+002
      vertex  2.912461e+001 -5.820000e+002  2.859603e+002
      vertex  3.288764e+001 -5.820000e+002  2.794425e+002
    endloop
  endfacet
  facet normal -8.660256e-001  -0.000000e+000 -4.999996e-001
    outer loop
      vertex  2.912461e+001 -6.270000e+002  2.859603e+002
      vertex  3.288764e+001 -5.820000e+002  2.794425e+002
      vertex  3.288764e+001 -6.270000e+002  2.794425e+002
    endloop
  endfacet
  facet normal -9.510564e-001  0.000000e+000 -3.090174e-001
    outer loop
      vertex  3.288764e+001 -6.270000e+002  2.794425e+002
      vertex  3.288764e+001 -5.820000e+002  2.794425e+002
      vertex  3.521331e+001 -5.820000e+002  2.722848e+002
    endloop
  endfacet
  facet normal -9.510564e-001  -0.000000e+000 -3.090174e-001
    outer loop
      vertex  3.288764e+001 -6.270000e+002  2.794425e+002
      vertex  3.521331e+001 -5.820000e+002  2.722848e+002
      vertex  3.521331e+001 -6.270000e+002  2.722848e+002
    endloop
  endfacet
  facet normal -9.945219e-001  0.000000e+000 -1.045282e-001
    outer loop
      vertex  3.521331e+001 -6.270000e+002  2.722848e+002
      vertex  3.521331e+001 -5.820000e+002  2.722848e+002
      vertex  3.600000e+001 -5.820000e+002  2.648000e+002
    endloop
  endfacet
  facet normal -9.945219e-001  -0.000000e+000 -1.045282e-001
    outer loop
      vertex  3.521331e+001 -6.270000e+002  2.722848e+002
      vertex  3.600000e+001 -5.820000e+002  2.648000e+002
      vertex  3.600000e+001 -6.270000e+002  2.648000e+002
    endloop
  endfacet
  facet normal -9.957342e-001  0.000000e+000  9.226813e-002
    outer loop
      vertex -4.200000e+001 -5.820000e+002  2.648000e+002
      vertex -4.200000e+001 -6.270000e+002  2.648000e+002
      vertex -4.128487e+001 -5.820000e+002  2.725175e+002
    endloop
  endfacet
  facet normal -9.957342e-001  0.000000e+000  9.226813e-002
    outer loop
      vertex -4.128487e+001 -5.820000e+002  2.725175e+002
      vertex -4.200000e+001 -6.270000e+002  2.648000e+002
      vertex -4.128487e+001 -6.270000e+002  2.725175e+002
    endloop
  endfacet
  facet normal -9.618255e-001  0.000000e+000  2.736636e-001
    outer loop
      vertex -4.128487e+001 -5.820000e+002  2.725175e+002
      vertex -4.128487e+001 -6.270000e+002  2.725175e+002
      vertex -3.916383e+001 -5.820000e+002  2.799721e+002
    endloop
  endfacet
  facet normal -9.618255e-001  0.000000e+000  2.736636e-001
    outer loop
      vertex -3.916383e+001 -5.820000e+002  2.799721e+002
      vertex -4.128487e+001 -6.270000e+002  2.725175e+002
      vertex -3.916383e+001 -6.270000e+002  2.799721e+002
    endloop
  endfacet
  facet normal -8.951637e-001  0.000000e+000  4.457376e-001
    outer loop
      vertex -3.916383e+001 -5.820000e+002  2.799721e+002
      vertex -3.916383e+001 -6.270000e+002  2.799721e+002
      vertex -3.570912e+001 -5.820000e+002  2.869102e+002
    endloop
  endfacet
  facet normal -8.951637e-001  0.000000e+000  4.457376e-001
    outer loop
      vertex -3.570912e+001 -5.820000e+002  2.869102e+002
      vertex -3.916383e+001 -6.270000e+002  2.799721e+002
      vertex -3.570912e+001 -6.270000e+002  2.869102e+002
    endloop
  endfacet
  facet normal -7.980170e-001  0.000000e+000  6.026350e-001
    outer loop
      vertex -3.570912e+001 -5.820000e+002  2.869102e+002
      vertex -3.570912e+001 -6.270000e+002  2.869102e+002
      vertex -3.103837e+001 -5.820000e+002  2.930952e+002
    endloop
  endfacet
  facet normal -7.980170e-001  0.000000e+000  6.026350e-001
    outer loop
      vertex -3.103837e+001 -5.820000e+002  2.930952e+002
      vertex -3.570912e+001 -6.270000e+002  2.869102e+002
      vertex -3.103837e+001 -6.270000e+002  2.930952e+002
    endloop
  endfacet
  facet normal -6.736950e-001  0.000000e+000  7.390094e-001
    outer loop
      vertex -3.103837e+001 -5.820000e+002  2.930952e+002
      vertex -3.103837e+001 -6.270000e+002  2.930952e+002
      vertex -2.531066e+001 -5.820000e+002  2.983167e+002
    endloop
  endfacet
  facet normal -6.736950e-001  0.000000e+000  7.390094e-001
    outer loop
      vertex -2.531066e+001 -5.820000e+002  2.983167e+002
      vertex -3.103837e+001 -6.270000e+002  2.930952e+002
      vertex -2.531066e+001 -6.270000e+002  2.983167e+002
    endloop
  endfacet
  facet normal -5.264325e-001  0.000000e+000  8.502170e-001
    outer loop
      vertex -2.531066e+001 -5.820000e+002  2.983167e+002
      vertex -2.531066e+001 -6.270000e+002  2.983167e+002
      vertex -1.872101e+001 -5.820000e+002  3.023969e+002
    endloop
  endfacet
  facet normal -5.264325e-001  0.000000e+000  8.502170e-001
    outer loop
      vertex -1.872101e+001 -5.820000e+002  3.023969e+002
      vertex -2.531066e+001 -6.270000e+002  2.983167e+002
      vertex -1.872101e+001 -6.270000e+002  3.023969e+002
    endloop
  endfacet
  facet normal -3.612436e-001  0.000000e+000  9.324715e-001
    outer loop
      vertex -1.872101e+001 -5.820000e+002  3.023969e+002
      vertex -1.872101e+001 -6.270000e+002  3.023969e+002
      vertex -1.149385e+001 -5.820000e+002  3.051967e+002
    endloop
  endfacet
  facet normal -3.612436e-001  0.000000e+000  9.324715e-001
    outer loop
      vertex -1.149385e+001 -5.820000e+002  3.051967e+002
      vertex -1.872101e+001 -6.270000e+002  3.023969e+002
      vertex -1.149385e+001 -6.270000e+002  3.051967e+002
    endloop
  endfacet
  facet normal -1.837502e-001  0.000000e+000  9.829729e-001
    outer loop
      vertex -1.149385e+001 -5.820000e+002  3.051967e+002
      vertex -1.149385e+001 -6.270000e+002  3.051967e+002
      vertex -3.875271e+000 -5.820000e+002  3.066208e+002
    endloop
  endfacet
  facet normal -1.837502e-001  0.000000e+000  9.829729e-001
    outer loop
      vertex -3.875271e+000 -5.820000e+002  3.066208e+002
      vertex -1.149385e+001 -6.270000e+002  3.051967e+002
      vertex -3.875271e+000 -6.270000e+002  3.066208e+002
    endloop
  endfacet
  facet normal  0.000000e+000  0.000000e+000  9.999999e-001
    outer loop
      vertex -3.875271e+000 -5.820000e+002  3.066208e+002
      vertex -3.875271e+000 -6.270000e+002  3.066208e+002
      vertex  3.875271e+000 -5.820000e+002  3.066208e+002
    endloop
  endfacet
  facet normal  0.000000e+000  0.000000e+000  9.999999e-001
    outer loop
      vertex  3.875271e+000 -5.820000e+002  3.066208e+002
      vertex -3.875271e+000 -6.270000e+002  3.066208e+002
      vertex  3.875271e+000 -6.270000e+002  3.066208e+002
    endloop
  endfacet
  facet normal  1.837502e-001  -0.000000e+000  9.829729e-001
    outer loop
      vertex  3.875271e+000 -5.820000e+002  3.066208e+002
      vertex  3.875271e+000 -6.270000e+002  3.066208e+002
      vertex  1.149385e+001 -5.820000e+002  3.051967e+002
    endloop
  endfacet
  facet normal  1.837502e-001  0.000000e+000  9.829729e-001
    outer loop
      vertex  1.149385e+001 -5.820000e+002  3.051967e+002
      vertex  3.875271e+000 -6.270000e+002  3.066208e+002
      vertex  1.149385e+001 -6.270000e+002  3.051967e+002
    endloop
  endfacet
  facet normal  3.612436e-001  -0.000000e+000  9.324715e-001
    outer loop
      vertex  1.149385e+001 -5.820000e+002  3.051967e+002
      vertex  1.149385e+001 -6.270000e+002  3.051967e+002
      vertex  1.872101e+001 -5.820000e+002  3.023969e+002
    endloop
  endfacet
  facet normal  3.612436e-001  0.000000e+000  9.324715e-001
    outer loop
      vertex  1.872101e+001 -5.820000e+002  3.023969e+002
      vertex  1.149385e+001 -6.270000e+002  3.051967e+002
      vertex  1.872101e+001 -6.270000e+002  3.023969e+002
    endloop
  endfacet
  facet normal  5.264325e-001  -0.000000e+000  8.502170e-001
    outer loop
      vertex  1.872101e+001 -5.820000e+002  3.023969e+002
      vertex  1.872101e+001 -6.270000e+002  3.023969e+002
      vertex  2.531066e+001 -5.820000e+002  2.983167e+002
    endloop
  endfacet
  facet normal  5.264325e-001  0.000000e+000  8.502170e-001
    outer loop
      vertex  2.531066e+001 -5.820000e+002  2.983167e+002
      vertex  1.872101e+001 -6.270000e+002  3.023969e+002
      vertex  2.531066e+001 -6.270000e+002  2.983167e+002
    endloop
  endfacet
  facet normal  6.736950e-001  -0.000000e+000  7.390094e-001
    outer loop
      vertex  2.531066e+001 -5.820000e+002  2.983167e+002
      vertex  2.531066e+001 -6.270000e+002  2.983167e+002
      vertex  3.103837e+001 -5.820000e+002  2.930952e+002
    endloop
  endfacet
  facet normal  6.736950e-001  0.000000e+000  7.390094e-001
    outer loop
      vertex  3.103837e+001 -5.820000e+002  2.930952e+002
      vertex  2.531066e+001 -6.270000e+002  2.983167e+002
      vertex  3.103837e+001 -6.270000e+002  2.930952e+002
    endloop
  endfacet
  facet normal  7.980170e-001  -0.000000e+000  6.026350e-001
    outer loop
      vertex  3.103837e+001 -5.820000e+002  2.930952e+002
      vertex  3.103837e+001 -6.270000e+002  2.930952e+002
      vertex  3.570912e+001 -5.820000e+002  2.869102e+002
    endloop
  endfacet
  facet normal  7.980170e-001  0.000000e+000  6.026350e-001
    outer loop
      vertex  3.570912e+001 -5.820000e+002  2.869102e+002
      vertex  3.103837e+001 -6.270000e+002  2.930952e+002
      vertex  3.570912e+001 -6.270000e+002  2.869102e+002
    endloop
  endfacet
  facet normal  8.951637e-001  -0.000000e+000  4.457376e-001
    outer loop
      vertex  3.570912e+001 -5.820000e+002  2.869102e+002
      vertex  3.570912e+001 -6.270000e+002  2.869102e+002
      vertex  3.916383e+001 -5.820000e+002  2.799721e+002
    endloop
  endfacet
  facet normal  8.951637e-001  0.000000e+000  4.457376e-001
    outer loop
      vertex  3.916383e+001 -5.820000e+002  2.799721e+002
      vertex  3.570912e+001 -6.270000e+002  2.869102e+002
      vertex  3.916383e+001 -6.270000e+002  2.799721e+002
    endloop
  endfacet
  facet normal  9.618255e-001  -0.000000e+000  2.736636e-001
    outer loop
      vertex  3.916383e+001 -5.820000e+002  2.799721e+002
      vertex  3.916383e+001 -6.270000e+002  2.799721e+002
      vertex  4.128487e+001 -5.820000e+002  2.725175e+002
    endloop
  endfacet
  facet normal  9.618255e-001  0.000000e+000  2.736636e-001
    outer loop
      vertex  4.128487e+001 -5.820000e+002  2.725175e+002
      vertex  3.916383e+001 -6.270000e+002  2.799721e+002
      vertex  4.128487e+001 -6.270000e+002  2.725175e+002
    endloop
  endfacet
  facet normal  9.957342e-001  -0.000000e+000  9.226813e-002
    outer loop
      vertex  4.128487e+001 -5.820000e+002  2.725175e+002
      vertex  4.128487e+001 -6.270000e+002  2.725175e+002
      vertex  4.200000e+001 -5.820000e+002  2.648000e+002
    endloop
  endfacet
  facet normal  9.957342e-001  0.000000e+000  9.226813e-002
    outer loop
      vertex  4.200000e+001 -5.820000e+002  2.648000e+002
      vertex  4.128487e+001 -6.270000e+002  2.725175e+002
      vertex  4.200000e+001 -6.270000e+002  2.648000e+002
    endloop
  endfacet
  facet normal  9.957342e-001  0.000000e+000 -9.226850e-002
    outer loop
      vertex  4.200000e+001 -5.820000e+002  2.648000e+002
      vertex  4.200000e+001 -6.270000e+002  2.648000e+002
      vertex  4.128487e+001 -5.820000e+002  2.570825e+002
    endloop
  endfacet
  facet normal  9.957342e-001  0.000000e+000 -9.226850e-002
    outer loop
      vertex  4.128487e+001 -5.820000e+002  2.570825e+002
      vertex  4.200000e+001 -6.270000e+002  2.648000e+002
      vertex  4.128487e+001 -6.270000e+002  2.570825e+002
    endloop
  endfacet
  facet normal  9.618256e-001  0.000000e+000 -2.736631e-001
    outer loop
      vertex  4.128487e+001 -5.820000e+002  2.570825e+002
      vertex  4.128487e+001 -6.270000e+002  2.570825e+002
      vertex  3.916383e+001 -5.820000e+002  2.496279e+002
    endloop
  endfacet
  facet normal  9.618256e-001  0.000000e+000 -2.736631e-001
    outer loop
      vertex  3.916383e+001 -5.820000e+002  2.496279e+002
      vertex  4.128487e+001 -6.270000e+002  2.570825e+002
      vertex  3.916383e+001 -6.270000e+002  2.496279e+002
    endloop
  endfacet
  facet normal  8.951632e-001  0.000000e+000 -4.457384e-001
    outer loop
      vertex  3.916383e+001 -5.820000e+002  2.496279e+002
      vertex  3.916383e+001 -6.270000e+002  2.496279e+002
      vertex  3.570912e+001 -5.820000e+002  2.426898e+002
    endloop
  endfacet
  facet normal  8.951632e-001  0.000000e+000 -4.457384e-001
    outer loop
      vertex  3.570912e+001 -5.820000e+002  2.426898e+002
      vertex  3.916383e+001 -6.270000e+002  2.496279e+002
      vertex  3.570912e+001 -6.270000e+002  2.426898e+002
    endloop
  endfacet
  facet normal  7.980177e-001  0.000000e+000 -6.026341e-001
    outer loop
      vertex  3.570912e+001 -5.820000e+002  2.426898e+002
      vertex  3.570912e+001 -6.270000e+002  2.426898e+002
      vertex  3.103837e+001 -5.820000e+002  2.365048e+002
    endloop
  endfacet
  facet normal  7.980177e-001  0.000000e+000 -6.026341e-001
    outer loop
      vertex  3.103837e+001 -5.820000e+002  2.365048e+002
      vertex  3.570912e+001 -6.270000e+002  2.426898e+002
      vertex  3.103837e+001 -6.270000e+002  2.365048e+002
    endloop
  endfacet
  facet normal  6.736950e-001  0.000000e+000 -7.390094e-001
    outer loop
      vertex  3.103837e+001 -5.820000e+002  2.365048e+002
      vertex  3.103837e+001 -6.270000e+002  2.365048e+002
      vertex  2.531066e+001 -5.820000e+002  2.312833e+002
    endloop
  endfacet
  facet normal  6.736950e-001  0.000000e+000 -7.390094e-001
    outer loop
      vertex  2.531066e+001 -5.820000e+002  2.312833e+002
      vertex  3.103837e+001 -6.270000e+002  2.365048e+002
      vertex  2.531066e+001 -6.270000e+002  2.312833e+002
    endloop
  endfacet
  facet normal  5.264325e-001  0.000000e+000 -8.502170e-001
    outer loop
      vertex  2.531066e+001 -5.820000e+002  2.312833e+002
      vertex  2.531066e+001 -6.270000e+002  2.312833e+002
      vertex  1.872101e+001 -5.820000e+002  2.272031e+002
    endloop
  endfacet
  facet normal  5.264325e-001  0.000000e+000 -8.502170e-001
    outer loop
      vertex  1.872101e+001 -5.820000e+002  2.272031e+002
      vertex  2.531066e+001 -6.270000e+002  2.312833e+002
      vertex  1.872101e+001 -6.270000e+002  2.272031e+002
    endloop
  endfacet
  facet normal  3.612418e-001  0.000000e+000 -9.324722e-001
    outer loop
      vertex  1.872101e+001 -5.820000e+002  2.272031e+002
      vertex  1.872101e+001 -6.270000e+002  2.272031e+002
      vertex  1.149385e+001 -5.820000e+002  2.244033e+002
    endloop
  endfacet
  facet normal  3.612418e-001  0.000000e+000 -9.324722e-001
    outer loop
      vertex  1.149385e+001 -5.820000e+002  2.244033e+002
      vertex  1.872101e+001 -6.270000e+002  2.272031e+002
      vertex  1.149385e+001 -6.270000e+002  2.244033e+002
    endloop
  endfacet
  facet normal  1.837483e-001  0.000000e+000 -9.829733e-001
    outer loop
      vertex  1.149385e+001 -5.820000e+002  2.244033e+002
      vertex  1.149385e+001 -6.270000e+002  2.244033e+002
      vertex  3.875271e+000 -5.820000e+002  2.229792e+002
    endloop
  endfacet
  facet normal  1.837483e-001  0.000000e+000 -9.829733e-001
    outer loop
      vertex  3.875271e+000 -5.820000e+002  2.229792e+002
      vertex  1.149385e+001 -6.270000e+002  2.244033e+002
      vertex  3.875271e+000 -6.270000e+002  2.229792e+002
    endloop
  endfacet
  facet normal  0.000000e+000  0.000000e+000 -9.999999e-001
    outer loop
      vertex  3.875271e+000 -5.820000e+002  2.229792e+002
      vertex  3.875271e+000 -6.270000e+002  2.229792e+002
      vertex -3.875271e+000 -5.820000e+002  2.229792e+002
    endloop
  endfacet
  facet normal  0.000000e+000  0.000000e+000 -9.999999e-001
    outer loop
      vertex -3.875271e+000 -5.820000e+002  2.229792e+002
      vertex  3.875271e+000 -6.270000e+002  2.229792e+002
      vertex -3.875271e+000 -6.270000e+002  2.229792e+002
    endloop
  endfacet
  facet normal -1.837483e-001  0.000000e+000 -9.829733e-001
    outer loop
      vertex -3.875271e+000 -5.820000e+002  2.229792e+002
      vertex -3.875271e+000 -6.270000e+002  2.229792e+002
      vertex -1.149385e+001 -5.820000e+002  2.244033e+002
    endloop
  endfacet
  facet normal -1.837483e-001  -0.000000e+000 -9.829733e-001
    outer loop
      vertex -1.149385e+001 -5.820000e+002  2.244033e+002
      vertex -3.875271e+000 -6.270000e+002  2.229792e+002
      vertex -1.149385e+001 -6.270000e+002  2.244033e+002
    endloop
  endfacet
  facet normal -3.612418e-001  0.000000e+000 -9.324722e-001
    outer loop
      vertex -1.149385e+001 -5.820000e+002  2.244033e+002
      vertex -1.149385e+001 -6.270000e+002  2.244033e+002
      vertex -1.872101e+001 -5.820000e+002  2.272031e+002
    endloop
  endfacet
  facet normal -3.612418e-001  -0.000000e+000 -9.324722e-001
    outer loop
      vertex -1.872101e+001 -5.820000e+002  2.272031e+002
      vertex -1.149385e+001 -6.270000e+002  2.244033e+002
      vertex -1.872101e+001 -6.270000e+002  2.272031e+002
    endloop
  endfacet
  facet normal -5.264325e-001  0.000000e+000 -8.502170e-001
    outer loop
      vertex -1.872101e+001 -5.820000e+002  2.272031e+002
      vertex -1.872101e+001 -6.270000e+002  2.272031e+002
      vertex -2.531066e+001 -5.820000e+002  2.312833e+002
    endloop
  endfacet
  facet normal -5.264325e-001  -0.000000e+000 -8.502170e-001
    outer loop
      vertex -2.531066e+001 -5.820000e+002  2.312833e+002
      vertex -1.872101e+001 -6.270000e+002  2.272031e+002
      vertex -2.531066e+001 -6.270000e+002  2.312833e+002
    endloop
  endfacet
  facet normal -6.736950e-001  0.000000e+000 -7.390094e-001
    outer loop
      vertex -2.531066e+001 -5.820000e+002  2.312833e+002
      vertex -2.531066e+001 -6.270000e+002  2.312833e+002
      vertex -3.103837e+001 -5.820000e+002  2.365048e+002
    endloop
  endfacet
  facet normal -6.736950e-001  -0.000000e+000 -7.390094e-001
    outer loop
      vertex -3.103837e+001 -5.820000e+002  2.365048e+002
      vertex -2.531066e+001 -6.270000e+002  2.312833e+002
      vertex -3.103837e+001 -6.270000e+002  2.365048e+002
    endloop
  endfacet
  facet normal -7.980177e-001  0.000000e+000 -6.026341e-001
    outer loop
      vertex -3.103837e+001 -5.820000e+002  2.365048e+002
      vertex -3.103837e+001 -6.270000e+002  2.365048e+002
      vertex -3.570912e+001 -5.820000e+002  2.426898e+002
    endloop
  endfacet
  facet normal -7.980177e-001  -0.000000e+000 -6.026341e-001
    outer loop
      vertex -3.570912e+001 -5.820000e+002  2.426898e+002
      vertex -3.103837e+001 -6.270000e+002  2.365048e+002
      vertex -3.570912e+001 -6.270000e+002  2.426898e+002
    endloop
  endfacet
  facet normal -8.951632e-001  0.000000e+000 -4.457384e-001
    outer loop
      vertex -3.570912e+001 -5.820000e+002  2.426898e+002
      vertex -3.570912e+001 -6.270000e+002  2.426898e+002
      vertex -3.916383e+001 -5.820000e+002  2.496279e+002
    endloop
  endfacet
  facet normal -8.951632e-001  -0.000000e+000 -4.457384e-001
    outer loop
      vertex -3.916383e+001 -5.820000e+002  2.496279e+002
      vertex -3.570912e+001 -6.270000e+002  2.426898e+002
      vertex -3.916383e+001 -6.270000e+002  2.496279e+002
    endloop
  endfacet
  facet normal -9.618256e-001  0.000000e+000 -2.736631e-001
    outer loop
      vertex -3.916383e+001 -5.820000e+002  2.496279e+002
      vertex -3.916383e+001 -6.270000e+002  2.496279e+002
      vertex -4.128487e+001 -5.820000e+002  2.570825e+002
    endloop
  endfacet
  facet normal -9.618256e-001  -0.000000e+000 -2.736631e-001
    outer loop
      vertex -4.128487e+001 -5.820000e+002  2.570825e+002
      vertex -3.916383e+001 -6.270000e+002  2.496279e+002
      vertex -4.128487e+001 -6.270000e+002  2.570825e+002
    endloop
  endfacet
  facet normal -9.957342e-001  0.000000e+000 -9.226850e-002
    outer loop
      vertex -4.128487e+001 -5.820000e+002  2.570825e+002
      vertex -4.128487e+001 -6.270000e+002  2.570825e+002
      vertex -4.200000e+001 -5.820000e+002  2.648000e+002
    endloop
  endfacet
  facet normal -9.957342e-001  -0.000000e+000 -9.226850e-002
    outer loop
      vertex -4.200000e+001 -5.820000e+002  2.648000e+002
      vertex -4.128487e+001 -6.270000e+002  2.570825e+002
      vertex -4.200000e+001 -6.270000e+002  2.648000e+002
    endloop
  endfacet
endsolid CATIA STL
