solid CATIA STL
  facet normal  1.000000e+000  0.000000e+000  0.000000e+000
    outer loop
      vertex  2.000000e+000  3.043551e+000  2.506590e+001
      vertex  2.000000e+000  1.714449e-015  2.800000e+001
      vertex  2.000000e+000 -3.043551e+000  2.506590e+001
    endloop
  endfacet
  facet normal  1.000000e+000  0.000000e+000  0.000000e+000
    outer loop
      vertex  2.000000e+000 -5.143347e-015 -2.800000e+001
      vertex  2.000000e+000 -1.214874e+001 -2.522713e+001
      vertex  2.000000e+000 -6.230586e+000 -2.729798e+001
    endloop
  endfacet
  facet normal  1.000000e+000  0.000000e+000  -0.000000e+000
    outer loop
      vertex  2.000000e+000 -5.143347e-015 -2.800000e+001
      vertex  2.000000e+000  6.230586e+000 -2.729798e+001
      vertex  2.000000e+000  1.214874e+001 -2.522713e+001
    endloop
  endfacet
  facet normal  9.999999e-001  0.000000e+000  0.000000e+000
    outer loop
      vertex  2.000000e+000 -8.953773e+000 -2.360916e+001
      vertex  2.000000e+000 -1.214874e+001 -2.522713e+001
      vertex  2.000000e+000 -3.043551e+000 -2.506590e+001
    endloop
  endfacet
  facet normal  1.000000e+000  0.000000e+000  0.000000e+000
    outer loop
      vertex  2.000000e+000 -3.043551e+000 -2.506590e+001
      vertex  2.000000e+000 -1.214874e+001 -2.522713e+001
      vertex  2.000000e+000 -5.143347e-015 -2.800000e+001
    endloop
  endfacet
  facet normal  1.000000e+000  0.000000e+000  -0.000000e+000
    outer loop
      vertex  2.000000e+000 -3.043551e+000 -2.506590e+001
      vertex  2.000000e+000 -5.143347e-015 -2.800000e+001
      vertex  2.000000e+000  3.043551e+000 -2.506590e+001
    endloop
  endfacet
  facet normal  1.000000e+000  0.000000e+000  0.000000e+000
    outer loop
      vertex  2.000000e+000  3.043551e+000 -2.506590e+001
      vertex  2.000000e+000 -5.143347e-015 -2.800000e+001
      vertex  2.000000e+000  1.214874e+001 -2.522713e+001
    endloop
  endfacet
  facet normal  9.999999e-001  0.000000e+000  0.000000e+000
    outer loop
      vertex  2.000000e+000  3.043551e+000 -2.506590e+001
      vertex  2.000000e+000  1.214874e+001 -2.522713e+001
      vertex  2.000000e+000  8.953773e+000 -2.360916e+001
    endloop
  endfacet
  facet normal  1.000000e+000  -0.000000e+000  0.000000e+000
    outer loop
      vertex  2.000000e+000  1.714449e-015  2.800000e+001
      vertex  2.000000e+000 -6.230586e+000  2.729798e+001
      vertex  2.000000e+000 -3.043551e+000  2.506590e+001
    endloop
  endfacet
  facet normal  1.000000e+000  0.000000e+000  0.000000e+000
    outer loop
      vertex  2.000000e+000 -3.043551e+000  2.506590e+001
      vertex  2.000000e+000 -6.230586e+000  2.729798e+001
      vertex  2.000000e+000 -1.214874e+001  2.522713e+001
    endloop
  endfacet
  facet normal  9.999999e-001  0.000000e+000  0.000000e+000
    outer loop
      vertex  2.000000e+000 -3.043551e+000  2.506590e+001
      vertex  2.000000e+000 -1.214874e+001  2.522713e+001
      vertex  2.000000e+000 -8.953773e+000  2.360916e+001
    endloop
  endfacet
  facet normal  1.000000e+000  0.000000e+000  0.000000e+000
    outer loop
      vertex  2.000000e+000 -8.953773e+000  2.360916e+001
      vertex  2.000000e+000 -1.214874e+001  2.522713e+001
      vertex  2.000000e+000 -1.745771e+001  2.189128e+001
    endloop
  endfacet
  facet normal  1.000000e+000  -0.000000e+000  0.000000e+000
    outer loop
      vertex  2.000000e+000 -8.953773e+000  2.360916e+001
      vertex  2.000000e+000 -1.745771e+001  2.189128e+001
      vertex  2.000000e+000 -1.434363e+001  2.078034e+001
    endloop
  endfacet
  facet normal  1.000000e+000  0.000000e+000  0.000000e+000
    outer loop
      vertex  2.000000e+000  6.230586e+000  2.729798e+001
      vertex  2.000000e+000  1.714449e-015  2.800000e+001
      vertex  2.000000e+000  1.214874e+001  2.522713e+001
    endloop
  endfacet
  facet normal  1.000000e+000  0.000000e+000  0.000000e+000
    outer loop
      vertex  2.000000e+000  1.214874e+001  2.522713e+001
      vertex  2.000000e+000  1.714449e-015  2.800000e+001
      vertex  2.000000e+000  3.043551e+000  2.506590e+001
    endloop
  endfacet
  facet normal  1.000000e+000  -0.000000e+000  0.000000e+000
    outer loop
      vertex  2.000000e+000  1.214874e+001  2.522713e+001
      vertex  2.000000e+000  3.043551e+000  2.506590e+001
      vertex  2.000000e+000  1.745771e+001  2.189128e+001
    endloop
  endfacet
  facet normal  1.000000e+000  0.000000e+000  0.000000e+000
    outer loop
      vertex  2.000000e+000  1.745771e+001  2.189128e+001
      vertex  2.000000e+000  3.043551e+000  2.506590e+001
      vertex  2.000000e+000  8.953773e+000  2.360916e+001
    endloop
  endfacet
  facet normal  1.000000e+000  0.000000e+000  0.000000e+000
    outer loop
      vertex  2.000000e+000  1.745771e+001  2.189128e+001
      vertex  2.000000e+000  8.953773e+000  2.360916e+001
      vertex  2.000000e+000  1.434363e+001  2.078034e+001
    endloop
  endfacet
  facet normal  1.000000e+000  0.000000e+000  0.000000e+000
    outer loop
      vertex  2.000000e+000 -1.434363e+001  2.078034e+001
      vertex  2.000000e+000 -1.745771e+001  2.189128e+001
      vertex  2.000000e+000 -1.889990e+001  1.674385e+001
    endloop
  endfacet
  facet normal  9.999999e-001  0.000000e+000  -0.000000e+000
    outer loop
      vertex  2.000000e+000 -1.889990e+001  1.674385e+001
      vertex  2.000000e+000 -1.745771e+001  2.189128e+001
      vertex  2.000000e+000 -2.189128e+001  1.745771e+001
    endloop
  endfacet
  facet normal  1.000000e+000  0.000000e+000  0.000000e+000
    outer loop
      vertex  2.000000e+000 -1.889990e+001  1.674385e+001
      vertex  2.000000e+000 -2.189128e+001  1.745771e+001
      vertex  2.000000e+000 -2.235777e+001  1.173426e+001
    endloop
  endfacet
  facet normal  1.000000e+000  0.000000e+000  -0.000000e+000
    outer loop
      vertex  2.000000e+000 -2.235777e+001  1.173426e+001
      vertex  2.000000e+000 -2.189128e+001  1.745771e+001
      vertex  2.000000e+000 -2.522713e+001  1.214874e+001
    endloop
  endfacet
  facet normal  1.000000e+000  0.000000e+000  0.000000e+000
    outer loop
      vertex  2.000000e+000 -2.235777e+001  1.173426e+001
      vertex  2.000000e+000 -2.522713e+001  1.214874e+001
      vertex  2.000000e+000 -2.451628e+001  6.042720e+000
    endloop
  endfacet
  facet normal  1.000000e+000  0.000000e+000  0.000000e+000
    outer loop
      vertex  2.000000e+000 -2.451628e+001  6.042720e+000
      vertex  2.000000e+000 -2.522713e+001  1.214874e+001
      vertex  2.000000e+000 -2.729798e+001  6.230586e+000
    endloop
  endfacet
  facet normal  1.000000e+000  0.000000e+000  0.000000e+000
    outer loop
      vertex  2.000000e+000 -2.451628e+001  6.042720e+000
      vertex  2.000000e+000 -2.729798e+001  6.230586e+000
      vertex  2.000000e+000 -2.525000e+001  3.092131e-015
    endloop
  endfacet
  facet normal  1.000000e+000  0.000000e+000  0.000000e+000
    outer loop
      vertex  2.000000e+000 -2.525000e+001  3.092131e-015
      vertex  2.000000e+000 -2.729798e+001  6.230586e+000
      vertex  2.000000e+000 -2.800000e+001  3.428898e-015
    endloop
  endfacet
  facet normal  1.000000e+000  0.000000e+000  0.000000e+000
    outer loop
      vertex  2.000000e+000 -2.525000e+001  3.092131e-015
      vertex  2.000000e+000 -2.800000e+001  3.428898e-015
      vertex  2.000000e+000 -2.451628e+001 -6.042720e+000
    endloop
  endfacet
  facet normal  1.000000e+000  0.000000e+000  0.000000e+000
    outer loop
      vertex  2.000000e+000 -2.451628e+001 -6.042720e+000
      vertex  2.000000e+000 -2.800000e+001  3.428898e-015
      vertex  2.000000e+000 -2.729798e+001 -6.230586e+000
    endloop
  endfacet
  facet normal  1.000000e+000  -0.000000e+000  0.000000e+000
    outer loop
      vertex  2.000000e+000 -2.451628e+001 -6.042720e+000
      vertex  2.000000e+000 -2.729798e+001 -6.230586e+000
      vertex  2.000000e+000 -2.235777e+001 -1.173426e+001
    endloop
  endfacet
  facet normal  1.000000e+000  0.000000e+000  0.000000e+000
    outer loop
      vertex  2.000000e+000 -2.235777e+001 -1.173426e+001
      vertex  2.000000e+000 -2.729798e+001 -6.230586e+000
      vertex  2.000000e+000 -2.522713e+001 -1.214874e+001
    endloop
  endfacet
  facet normal  1.000000e+000  -0.000000e+000  0.000000e+000
    outer loop
      vertex  2.000000e+000 -2.235777e+001 -1.173426e+001
      vertex  2.000000e+000 -2.522713e+001 -1.214874e+001
      vertex  2.000000e+000 -1.889990e+001 -1.674385e+001
    endloop
  endfacet
  facet normal  1.000000e+000  0.000000e+000  0.000000e+000
    outer loop
      vertex  2.000000e+000 -1.889990e+001 -1.674385e+001
      vertex  2.000000e+000 -2.522713e+001 -1.214874e+001
      vertex  2.000000e+000 -2.189128e+001 -1.745771e+001
    endloop
  endfacet
  facet normal  1.000000e+000  -0.000000e+000  0.000000e+000
    outer loop
      vertex  2.000000e+000 -1.889990e+001 -1.674385e+001
      vertex  2.000000e+000 -2.189128e+001 -1.745771e+001
      vertex  2.000000e+000 -1.434363e+001 -2.078034e+001
    endloop
  endfacet
  facet normal  1.000000e+000  0.000000e+000  0.000000e+000
    outer loop
      vertex  2.000000e+000 -1.434363e+001 -2.078034e+001
      vertex  2.000000e+000 -2.189128e+001 -1.745771e+001
      vertex  2.000000e+000 -1.745771e+001 -2.189128e+001
    endloop
  endfacet
  facet normal  1.000000e+000  -0.000000e+000  0.000000e+000
    outer loop
      vertex  2.000000e+000 -1.434363e+001 -2.078034e+001
      vertex  2.000000e+000 -1.745771e+001 -2.189128e+001
      vertex  2.000000e+000 -8.953773e+000 -2.360916e+001
    endloop
  endfacet
  facet normal  1.000000e+000  0.000000e+000  0.000000e+000
    outer loop
      vertex  2.000000e+000 -8.953773e+000 -2.360916e+001
      vertex  2.000000e+000 -1.745771e+001 -2.189128e+001
      vertex  2.000000e+000 -1.214874e+001 -2.522713e+001
    endloop
  endfacet
  facet normal  1.000000e+000  -0.000000e+000  0.000000e+000
    outer loop
      vertex  2.000000e+000  1.745771e+001  2.189128e+001
      vertex  2.000000e+000  1.434363e+001  2.078034e+001
      vertex  2.000000e+000  2.189128e+001  1.745771e+001
    endloop
  endfacet
  facet normal  1.000000e+000  0.000000e+000  0.000000e+000
    outer loop
      vertex  2.000000e+000  2.189128e+001  1.745771e+001
      vertex  2.000000e+000  1.434363e+001  2.078034e+001
      vertex  2.000000e+000  1.889990e+001  1.674385e+001
    endloop
  endfacet
  facet normal  1.000000e+000  -0.000000e+000  0.000000e+000
    outer loop
      vertex  2.000000e+000  2.189128e+001  1.745771e+001
      vertex  2.000000e+000  1.889990e+001  1.674385e+001
      vertex  2.000000e+000  2.522713e+001  1.214874e+001
    endloop
  endfacet
  facet normal  1.000000e+000  0.000000e+000  0.000000e+000
    outer loop
      vertex  2.000000e+000  2.522713e+001  1.214874e+001
      vertex  2.000000e+000  1.889990e+001  1.674385e+001
      vertex  2.000000e+000  2.235777e+001  1.173426e+001
    endloop
  endfacet
  facet normal  1.000000e+000  -0.000000e+000  0.000000e+000
    outer loop
      vertex  2.000000e+000  2.522713e+001  1.214874e+001
      vertex  2.000000e+000  2.235777e+001  1.173426e+001
      vertex  2.000000e+000  2.729798e+001  6.230586e+000
    endloop
  endfacet
  facet normal  1.000000e+000  0.000000e+000  0.000000e+000
    outer loop
      vertex  2.000000e+000  2.729798e+001  6.230586e+000
      vertex  2.000000e+000  2.235777e+001  1.173426e+001
      vertex  2.000000e+000  2.451628e+001  6.042720e+000
    endloop
  endfacet
  facet normal  1.000000e+000  -0.000000e+000  0.000000e+000
    outer loop
      vertex  2.000000e+000  2.729798e+001  6.230586e+000
      vertex  2.000000e+000  2.451628e+001  6.042720e+000
      vertex  2.000000e+000  2.800000e+001  0.000000e+000
    endloop
  endfacet
  facet normal  1.000000e+000  0.000000e+000  0.000000e+000
    outer loop
      vertex  2.000000e+000  2.800000e+001  0.000000e+000
      vertex  2.000000e+000  2.451628e+001  6.042720e+000
      vertex  2.000000e+000  2.525000e+001  0.000000e+000
    endloop
  endfacet
  facet normal  1.000000e+000  -0.000000e+000  0.000000e+000
    outer loop
      vertex  2.000000e+000  2.800000e+001  0.000000e+000
      vertex  2.000000e+000  2.525000e+001  0.000000e+000
      vertex  2.000000e+000  2.729798e+001 -6.230586e+000
    endloop
  endfacet
  facet normal  1.000000e+000  0.000000e+000  0.000000e+000
    outer loop
      vertex  2.000000e+000  2.729798e+001 -6.230586e+000
      vertex  2.000000e+000  2.525000e+001  0.000000e+000
      vertex  2.000000e+000  2.451628e+001 -6.042720e+000
    endloop
  endfacet
  facet normal  1.000000e+000  0.000000e+000  0.000000e+000
    outer loop
      vertex  2.000000e+000  2.729798e+001 -6.230586e+000
      vertex  2.000000e+000  2.451628e+001 -6.042720e+000
      vertex  2.000000e+000  2.522713e+001 -1.214874e+001
    endloop
  endfacet
  facet normal  1.000000e+000  0.000000e+000  0.000000e+000
    outer loop
      vertex  2.000000e+000  2.522713e+001 -1.214874e+001
      vertex  2.000000e+000  2.451628e+001 -6.042720e+000
      vertex  2.000000e+000  2.235777e+001 -1.173426e+001
    endloop
  endfacet
  facet normal  1.000000e+000  0.000000e+000  0.000000e+000
    outer loop
      vertex  2.000000e+000  2.522713e+001 -1.214874e+001
      vertex  2.000000e+000  2.235777e+001 -1.173426e+001
      vertex  2.000000e+000  2.189128e+001 -1.745771e+001
    endloop
  endfacet
  facet normal  1.000000e+000  0.000000e+000  -0.000000e+000
    outer loop
      vertex  2.000000e+000  2.189128e+001 -1.745771e+001
      vertex  2.000000e+000  2.235777e+001 -1.173426e+001
      vertex  2.000000e+000  1.889990e+001 -1.674385e+001
    endloop
  endfacet
  facet normal  9.999999e-001  0.000000e+000  0.000000e+000
    outer loop
      vertex  2.000000e+000  2.189128e+001 -1.745771e+001
      vertex  2.000000e+000  1.889990e+001 -1.674385e+001
      vertex  2.000000e+000  1.745771e+001 -2.189128e+001
    endloop
  endfacet
  facet normal  1.000000e+000  0.000000e+000  -0.000000e+000
    outer loop
      vertex  2.000000e+000  1.745771e+001 -2.189128e+001
      vertex  2.000000e+000  1.889990e+001 -1.674385e+001
      vertex  2.000000e+000  1.434363e+001 -2.078034e+001
    endloop
  endfacet
  facet normal  1.000000e+000  0.000000e+000  0.000000e+000
    outer loop
      vertex  2.000000e+000  1.745771e+001 -2.189128e+001
      vertex  2.000000e+000  1.434363e+001 -2.078034e+001
      vertex  2.000000e+000  1.214874e+001 -2.522713e+001
    endloop
  endfacet
  facet normal  1.000000e+000  0.000000e+000  -0.000000e+000
    outer loop
      vertex  2.000000e+000  1.214874e+001 -2.522713e+001
      vertex  2.000000e+000  1.434363e+001 -2.078034e+001
      vertex  2.000000e+000  8.953773e+000 -2.360916e+001
    endloop
  endfacet
  facet normal -1.000000e+000  0.000000e+000  -0.000000e+000
    outer loop
      vertex  0.000000e+000 -3.043551e+000  2.506590e+001
      vertex  0.000000e+000  1.714449e-015  2.800000e+001
      vertex  0.000000e+000  3.043551e+000  2.506590e+001
    endloop
  endfacet
  facet normal -1.000000e+000  0.000000e+000  0.000000e+000
    outer loop
      vertex  0.000000e+000 -6.230586e+000 -2.729798e+001
      vertex  0.000000e+000 -1.214874e+001 -2.522713e+001
      vertex  0.000000e+000 -5.143347e-015 -2.800000e+001
    endloop
  endfacet
  facet normal -1.000000e+000  -0.000000e+000  0.000000e+000
    outer loop
      vertex  0.000000e+000  1.214874e+001 -2.522713e+001
      vertex  0.000000e+000  6.230586e+000 -2.729798e+001
      vertex  0.000000e+000 -5.143347e-015 -2.800000e+001
    endloop
  endfacet
  facet normal -9.999999e-001  0.000000e+000  0.000000e+000
    outer loop
      vertex  0.000000e+000  8.953773e+000 -2.360916e+001
      vertex  0.000000e+000  1.214874e+001 -2.522713e+001
      vertex  0.000000e+000  3.043551e+000 -2.506590e+001
    endloop
  endfacet
  facet normal -1.000000e+000  0.000000e+000  -0.000000e+000
    outer loop
      vertex  0.000000e+000  3.043551e+000 -2.506590e+001
      vertex  0.000000e+000  1.214874e+001 -2.522713e+001
      vertex  0.000000e+000 -5.143347e-015 -2.800000e+001
    endloop
  endfacet
  facet normal -1.000000e+000  0.000000e+000  0.000000e+000
    outer loop
      vertex  0.000000e+000  3.043551e+000 -2.506590e+001
      vertex  0.000000e+000 -5.143347e-015 -2.800000e+001
      vertex  0.000000e+000 -3.043551e+000 -2.506590e+001
    endloop
  endfacet
  facet normal -1.000000e+000  0.000000e+000  -0.000000e+000
    outer loop
      vertex  0.000000e+000 -3.043551e+000 -2.506590e+001
      vertex  0.000000e+000 -5.143347e-015 -2.800000e+001
      vertex  0.000000e+000 -1.214874e+001 -2.522713e+001
    endloop
  endfacet
  facet normal -9.999999e-001  0.000000e+000  0.000000e+000
    outer loop
      vertex  0.000000e+000 -3.043551e+000 -2.506590e+001
      vertex  0.000000e+000 -1.214874e+001 -2.522713e+001
      vertex  0.000000e+000 -8.953773e+000 -2.360916e+001
    endloop
  endfacet
  facet normal -1.000000e+000  0.000000e+000  0.000000e+000
    outer loop
      vertex  0.000000e+000 -1.434363e+001  2.078034e+001
      vertex  0.000000e+000 -1.745771e+001  2.189128e+001
      vertex  0.000000e+000 -8.953773e+000  2.360916e+001
    endloop
  endfacet
  facet normal -1.000000e+000  -0.000000e+000  0.000000e+000
    outer loop
      vertex  0.000000e+000 -8.953773e+000  2.360916e+001
      vertex  0.000000e+000 -1.745771e+001  2.189128e+001
      vertex  0.000000e+000 -1.214874e+001  2.522713e+001
    endloop
  endfacet
  facet normal -9.999999e-001  0.000000e+000  0.000000e+000
    outer loop
      vertex  0.000000e+000 -8.953773e+000  2.360916e+001
      vertex  0.000000e+000 -1.214874e+001  2.522713e+001
      vertex  0.000000e+000 -3.043551e+000  2.506590e+001
    endloop
  endfacet
  facet normal -1.000000e+000  0.000000e+000  0.000000e+000
    outer loop
      vertex  0.000000e+000 -3.043551e+000  2.506590e+001
      vertex  0.000000e+000 -1.214874e+001  2.522713e+001
      vertex  0.000000e+000 -6.230586e+000  2.729798e+001
    endloop
  endfacet
  facet normal -1.000000e+000  0.000000e+000  0.000000e+000
    outer loop
      vertex  0.000000e+000 -3.043551e+000  2.506590e+001
      vertex  0.000000e+000 -6.230586e+000  2.729798e+001
      vertex  0.000000e+000  1.714449e-015  2.800000e+001
    endloop
  endfacet
  facet normal -1.000000e+000  0.000000e+000  0.000000e+000
    outer loop
      vertex  0.000000e+000  1.434363e+001  2.078034e+001
      vertex  0.000000e+000  8.953773e+000  2.360916e+001
      vertex  0.000000e+000  1.745771e+001  2.189128e+001
    endloop
  endfacet
  facet normal -1.000000e+000  0.000000e+000  0.000000e+000
    outer loop
      vertex  0.000000e+000  1.745771e+001  2.189128e+001
      vertex  0.000000e+000  8.953773e+000  2.360916e+001
      vertex  0.000000e+000  3.043551e+000  2.506590e+001
    endloop
  endfacet
  facet normal -1.000000e+000  0.000000e+000  0.000000e+000
    outer loop
      vertex  0.000000e+000  1.745771e+001  2.189128e+001
      vertex  0.000000e+000  3.043551e+000  2.506590e+001
      vertex  0.000000e+000  1.214874e+001  2.522713e+001
    endloop
  endfacet
  facet normal -1.000000e+000  -0.000000e+000  0.000000e+000
    outer loop
      vertex  0.000000e+000  1.214874e+001  2.522713e+001
      vertex  0.000000e+000  3.043551e+000  2.506590e+001
      vertex  0.000000e+000  1.714449e-015  2.800000e+001
    endloop
  endfacet
  facet normal -1.000000e+000  0.000000e+000  0.000000e+000
    outer loop
      vertex  0.000000e+000  1.214874e+001  2.522713e+001
      vertex  0.000000e+000  1.714449e-015  2.800000e+001
      vertex  0.000000e+000  6.230586e+000  2.729798e+001
    endloop
  endfacet
  facet normal -1.000000e+000  0.000000e+000  0.000000e+000
    outer loop
      vertex  0.000000e+000 -2.525000e+001  3.092131e-015
      vertex  0.000000e+000 -2.729798e+001  6.230586e+000
      vertex  0.000000e+000 -2.451628e+001  6.042720e+000
    endloop
  endfacet
  facet normal -1.000000e+000  0.000000e+000  0.000000e+000
    outer loop
      vertex  0.000000e+000 -2.451628e+001  6.042720e+000
      vertex  0.000000e+000 -2.729798e+001  6.230586e+000
      vertex  0.000000e+000 -2.522713e+001  1.214874e+001
    endloop
  endfacet
  facet normal -1.000000e+000  0.000000e+000  0.000000e+000
    outer loop
      vertex  0.000000e+000 -2.451628e+001  6.042720e+000
      vertex  0.000000e+000 -2.522713e+001  1.214874e+001
      vertex  0.000000e+000 -2.235777e+001  1.173426e+001
    endloop
  endfacet
  facet normal -1.000000e+000  0.000000e+000  0.000000e+000
    outer loop
      vertex  0.000000e+000 -2.235777e+001  1.173426e+001
      vertex  0.000000e+000 -2.522713e+001  1.214874e+001
      vertex  0.000000e+000 -2.189128e+001  1.745771e+001
    endloop
  endfacet
  facet normal -1.000000e+000  0.000000e+000  -0.000000e+000
    outer loop
      vertex  0.000000e+000 -2.235777e+001  1.173426e+001
      vertex  0.000000e+000 -2.189128e+001  1.745771e+001
      vertex  0.000000e+000 -1.889990e+001  1.674385e+001
    endloop
  endfacet
  facet normal -9.999999e-001  0.000000e+000  0.000000e+000
    outer loop
      vertex  0.000000e+000 -1.889990e+001  1.674385e+001
      vertex  0.000000e+000 -2.189128e+001  1.745771e+001
      vertex  0.000000e+000 -1.745771e+001  2.189128e+001
    endloop
  endfacet
  facet normal -1.000000e+000  0.000000e+000  -0.000000e+000
    outer loop
      vertex  0.000000e+000 -1.889990e+001  1.674385e+001
      vertex  0.000000e+000 -1.745771e+001  2.189128e+001
      vertex  0.000000e+000 -1.434363e+001  2.078034e+001
    endloop
  endfacet
  facet normal -1.000000e+000  0.000000e+000  0.000000e+000
    outer loop
      vertex  0.000000e+000 -2.729798e+001  6.230586e+000
      vertex  0.000000e+000 -2.525000e+001  3.092131e-015
      vertex  0.000000e+000 -2.800000e+001  3.428898e-015
    endloop
  endfacet
  facet normal -1.000000e+000  0.000000e+000  0.000000e+000
    outer loop
      vertex  0.000000e+000 -2.800000e+001  3.428898e-015
      vertex  0.000000e+000 -2.525000e+001  3.092131e-015
      vertex  0.000000e+000 -2.451628e+001 -6.042720e+000
    endloop
  endfacet
  facet normal -1.000000e+000  -0.000000e+000  0.000000e+000
    outer loop
      vertex  0.000000e+000 -2.800000e+001  3.428898e-015
      vertex  0.000000e+000 -2.451628e+001 -6.042720e+000
      vertex  0.000000e+000 -2.729798e+001 -6.230586e+000
    endloop
  endfacet
  facet normal -1.000000e+000  0.000000e+000  0.000000e+000
    outer loop
      vertex  0.000000e+000 -2.729798e+001 -6.230586e+000
      vertex  0.000000e+000 -2.451628e+001 -6.042720e+000
      vertex  0.000000e+000 -2.235777e+001 -1.173426e+001
    endloop
  endfacet
  facet normal -1.000000e+000  -0.000000e+000  0.000000e+000
    outer loop
      vertex  0.000000e+000 -2.729798e+001 -6.230586e+000
      vertex  0.000000e+000 -2.235777e+001 -1.173426e+001
      vertex  0.000000e+000 -2.522713e+001 -1.214874e+001
    endloop
  endfacet
  facet normal -1.000000e+000  0.000000e+000  0.000000e+000
    outer loop
      vertex  0.000000e+000 -2.522713e+001 -1.214874e+001
      vertex  0.000000e+000 -2.235777e+001 -1.173426e+001
      vertex  0.000000e+000 -1.889990e+001 -1.674385e+001
    endloop
  endfacet
  facet normal -1.000000e+000  -0.000000e+000  0.000000e+000
    outer loop
      vertex  0.000000e+000 -2.522713e+001 -1.214874e+001
      vertex  0.000000e+000 -1.889990e+001 -1.674385e+001
      vertex  0.000000e+000 -2.189128e+001 -1.745771e+001
    endloop
  endfacet
  facet normal -1.000000e+000  0.000000e+000  0.000000e+000
    outer loop
      vertex  0.000000e+000 -2.189128e+001 -1.745771e+001
      vertex  0.000000e+000 -1.889990e+001 -1.674385e+001
      vertex  0.000000e+000 -1.434363e+001 -2.078034e+001
    endloop
  endfacet
  facet normal -1.000000e+000  -0.000000e+000  0.000000e+000
    outer loop
      vertex  0.000000e+000 -2.189128e+001 -1.745771e+001
      vertex  0.000000e+000 -1.434363e+001 -2.078034e+001
      vertex  0.000000e+000 -1.745771e+001 -2.189128e+001
    endloop
  endfacet
  facet normal -1.000000e+000  0.000000e+000  0.000000e+000
    outer loop
      vertex  0.000000e+000 -1.745771e+001 -2.189128e+001
      vertex  0.000000e+000 -1.434363e+001 -2.078034e+001
      vertex  0.000000e+000 -8.953773e+000 -2.360916e+001
    endloop
  endfacet
  facet normal -1.000000e+000  -0.000000e+000  0.000000e+000
    outer loop
      vertex  0.000000e+000 -1.745771e+001 -2.189128e+001
      vertex  0.000000e+000 -8.953773e+000 -2.360916e+001
      vertex  0.000000e+000 -1.214874e+001 -2.522713e+001
    endloop
  endfacet
  facet normal -1.000000e+000  0.000000e+000  0.000000e+000
    outer loop
      vertex  0.000000e+000  2.800000e+001  0.000000e+000
      vertex  0.000000e+000  2.451628e+001  6.042720e+000
      vertex  0.000000e+000  2.729798e+001  6.230586e+000
    endloop
  endfacet
  facet normal -1.000000e+000  -0.000000e+000  0.000000e+000
    outer loop
      vertex  0.000000e+000  2.729798e+001  6.230586e+000
      vertex  0.000000e+000  2.451628e+001  6.042720e+000
      vertex  0.000000e+000  2.235777e+001  1.173426e+001
    endloop
  endfacet
  facet normal -1.000000e+000  0.000000e+000  0.000000e+000
    outer loop
      vertex  0.000000e+000  2.729798e+001  6.230586e+000
      vertex  0.000000e+000  2.235777e+001  1.173426e+001
      vertex  0.000000e+000  2.522713e+001  1.214874e+001
    endloop
  endfacet
  facet normal -1.000000e+000  -0.000000e+000  0.000000e+000
    outer loop
      vertex  0.000000e+000  2.522713e+001  1.214874e+001
      vertex  0.000000e+000  2.235777e+001  1.173426e+001
      vertex  0.000000e+000  1.889990e+001  1.674385e+001
    endloop
  endfacet
  facet normal -1.000000e+000  0.000000e+000  0.000000e+000
    outer loop
      vertex  0.000000e+000  2.522713e+001  1.214874e+001
      vertex  0.000000e+000  1.889990e+001  1.674385e+001
      vertex  0.000000e+000  2.189128e+001  1.745771e+001
    endloop
  endfacet
  facet normal -1.000000e+000  -0.000000e+000  0.000000e+000
    outer loop
      vertex  0.000000e+000  2.189128e+001  1.745771e+001
      vertex  0.000000e+000  1.889990e+001  1.674385e+001
      vertex  0.000000e+000  1.434363e+001  2.078034e+001
    endloop
  endfacet
  facet normal -1.000000e+000  0.000000e+000  0.000000e+000
    outer loop
      vertex  0.000000e+000  2.189128e+001  1.745771e+001
      vertex  0.000000e+000  1.434363e+001  2.078034e+001
      vertex  0.000000e+000  1.745771e+001  2.189128e+001
    endloop
  endfacet
  facet normal -1.000000e+000  0.000000e+000  0.000000e+000
    outer loop
      vertex  0.000000e+000  2.451628e+001  6.042720e+000
      vertex  0.000000e+000  2.800000e+001  0.000000e+000
      vertex  0.000000e+000  2.525000e+001  0.000000e+000
    endloop
  endfacet
  facet normal -1.000000e+000  0.000000e+000  0.000000e+000
    outer loop
      vertex  0.000000e+000  2.525000e+001  0.000000e+000
      vertex  0.000000e+000  2.800000e+001  0.000000e+000
      vertex  0.000000e+000  2.729798e+001 -6.230586e+000
    endloop
  endfacet
  facet normal -1.000000e+000  0.000000e+000  0.000000e+000
    outer loop
      vertex  0.000000e+000  2.525000e+001  0.000000e+000
      vertex  0.000000e+000  2.729798e+001 -6.230586e+000
      vertex  0.000000e+000  2.451628e+001 -6.042720e+000
    endloop
  endfacet
  facet normal -1.000000e+000  0.000000e+000  0.000000e+000
    outer loop
      vertex  0.000000e+000  2.451628e+001 -6.042720e+000
      vertex  0.000000e+000  2.729798e+001 -6.230586e+000
      vertex  0.000000e+000  2.522713e+001 -1.214874e+001
    endloop
  endfacet
  facet normal -1.000000e+000  0.000000e+000  0.000000e+000
    outer loop
      vertex  0.000000e+000  2.451628e+001 -6.042720e+000
      vertex  0.000000e+000  2.522713e+001 -1.214874e+001
      vertex  0.000000e+000  2.235777e+001 -1.173426e+001
    endloop
  endfacet
  facet normal -1.000000e+000  0.000000e+000  -0.000000e+000
    outer loop
      vertex  0.000000e+000  2.235777e+001 -1.173426e+001
      vertex  0.000000e+000  2.522713e+001 -1.214874e+001
      vertex  0.000000e+000  2.189128e+001 -1.745771e+001
    endloop
  endfacet
  facet normal -1.000000e+000  0.000000e+000  0.000000e+000
    outer loop
      vertex  0.000000e+000  2.235777e+001 -1.173426e+001
      vertex  0.000000e+000  2.189128e+001 -1.745771e+001
      vertex  0.000000e+000  1.889990e+001 -1.674385e+001
    endloop
  endfacet
  facet normal -9.999999e-001  0.000000e+000  -0.000000e+000
    outer loop
      vertex  0.000000e+000  1.889990e+001 -1.674385e+001
      vertex  0.000000e+000  2.189128e+001 -1.745771e+001
      vertex  0.000000e+000  1.745771e+001 -2.189128e+001
    endloop
  endfacet
  facet normal -1.000000e+000  0.000000e+000  0.000000e+000
    outer loop
      vertex  0.000000e+000  1.889990e+001 -1.674385e+001
      vertex  0.000000e+000  1.745771e+001 -2.189128e+001
      vertex  0.000000e+000  1.434363e+001 -2.078034e+001
    endloop
  endfacet
  facet normal -1.000000e+000  0.000000e+000  -0.000000e+000
    outer loop
      vertex  0.000000e+000  1.434363e+001 -2.078034e+001
      vertex  0.000000e+000  1.745771e+001 -2.189128e+001
      vertex  0.000000e+000  1.214874e+001 -2.522713e+001
    endloop
  endfacet
  facet normal -1.000000e+000  0.000000e+000  0.000000e+000
    outer loop
      vertex  0.000000e+000  1.434363e+001 -2.078034e+001
      vertex  0.000000e+000  1.214874e+001 -2.522713e+001
      vertex  0.000000e+000  8.953773e+000 -2.360916e+001
    endloop
  endfacet
  facet normal  0.000000e+000  2.393157e-001 -9.709417e-001
    outer loop
      vertex  0.000000e+000 -3.043551e+000  2.506590e+001
      vertex  2.000000e+000 -8.953773e+000  2.360916e+001
      vertex  0.000000e+000 -8.953773e+000  2.360916e+001
    endloop
  endfacet
  facet normal  0.000000e+000  4.647232e-001 -8.854560e-001
    outer loop
      vertex  0.000000e+000 -8.953773e+000  2.360916e+001
      vertex  2.000000e+000 -8.953773e+000  2.360916e+001
      vertex  2.000000e+000 -1.434363e+001  2.078034e+001
    endloop
  endfacet
  facet normal  0.000000e+000  4.647232e-001 -8.854560e-001
    outer loop
      vertex  0.000000e+000 -8.953773e+000  2.360916e+001
      vertex  2.000000e+000 -1.434363e+001  2.078034e+001
      vertex  0.000000e+000 -1.434363e+001  2.078034e+001
    endloop
  endfacet
  facet normal  0.000000e+000  6.631226e-001 -7.485108e-001
    outer loop
      vertex  0.000000e+000 -1.434363e+001  2.078034e+001
      vertex  2.000000e+000 -1.434363e+001  2.078034e+001
      vertex  2.000000e+000 -1.889990e+001  1.674385e+001
    endloop
  endfacet
  facet normal  0.000000e+000  6.631226e-001 -7.485108e-001
    outer loop
      vertex  0.000000e+000 -1.434363e+001  2.078034e+001
      vertex  2.000000e+000 -1.889990e+001  1.674385e+001
      vertex  0.000000e+000 -1.889990e+001  1.674385e+001
    endloop
  endfacet
  facet normal  0.000000e+000  8.229838e-001 -5.680648e-001
    outer loop
      vertex  0.000000e+000 -1.889990e+001  1.674385e+001
      vertex  2.000000e+000 -1.889990e+001  1.674385e+001
      vertex  2.000000e+000 -2.235777e+001  1.173426e+001
    endloop
  endfacet
  facet normal  0.000000e+000  8.229838e-001 -5.680648e-001
    outer loop
      vertex  0.000000e+000 -1.889990e+001  1.674385e+001
      vertex  2.000000e+000 -2.235777e+001  1.173426e+001
      vertex  0.000000e+000 -2.235777e+001  1.173426e+001
    endloop
  endfacet
  facet normal  0.000000e+000  9.350163e-001 -3.546048e-001
    outer loop
      vertex  0.000000e+000 -2.235777e+001  1.173426e+001
      vertex  2.000000e+000 -2.235777e+001  1.173426e+001
      vertex  2.000000e+000 -2.451628e+001  6.042720e+000
    endloop
  endfacet
  facet normal  0.000000e+000  9.350163e-001 -3.546048e-001
    outer loop
      vertex  0.000000e+000 -2.235777e+001  1.173426e+001
      vertex  2.000000e+000 -2.451628e+001  6.042720e+000
      vertex  0.000000e+000 -2.451628e+001  6.042720e+000
    endloop
  endfacet
  facet normal  0.000000e+000  9.927089e-001 -1.205366e-001
    outer loop
      vertex  0.000000e+000 -2.451628e+001  6.042720e+000
      vertex  2.000000e+000 -2.451628e+001  6.042720e+000
      vertex  2.000000e+000 -2.525000e+001  3.092131e-015
    endloop
  endfacet
  facet normal  0.000000e+000  9.927089e-001 -1.205366e-001
    outer loop
      vertex  0.000000e+000 -2.451628e+001  6.042720e+000
      vertex  2.000000e+000 -2.525000e+001  3.092131e-015
      vertex  0.000000e+000 -2.525000e+001  3.092131e-015
    endloop
  endfacet
  facet normal  0.000000e+000  2.393157e-001 -9.709417e-001
    outer loop
      vertex  2.000000e+000 -8.953773e+000  2.360916e+001
      vertex  0.000000e+000 -3.043551e+000  2.506590e+001
      vertex  2.000000e+000 -3.043551e+000  2.506590e+001
    endloop
  endfacet
  facet normal  0.000000e+000  0.000000e+000 -9.999999e-001
    outer loop
      vertex  2.000000e+000 -3.043551e+000  2.506590e+001
      vertex  0.000000e+000 -3.043551e+000  2.506590e+001
      vertex  0.000000e+000  3.043551e+000  2.506590e+001
    endloop
  endfacet
  facet normal  0.000000e+000  0.000000e+000 -9.999999e-001
    outer loop
      vertex  2.000000e+000 -3.043551e+000  2.506590e+001
      vertex  0.000000e+000  3.043551e+000  2.506590e+001
      vertex  2.000000e+000  3.043551e+000  2.506590e+001
    endloop
  endfacet
  facet normal  -0.000000e+000 -2.393157e-001 -9.709417e-001
    outer loop
      vertex  2.000000e+000  3.043551e+000  2.506590e+001
      vertex  0.000000e+000  3.043551e+000  2.506590e+001
      vertex  0.000000e+000  8.953773e+000  2.360916e+001
    endloop
  endfacet
  facet normal  0.000000e+000 -2.393157e-001 -9.709417e-001
    outer loop
      vertex  2.000000e+000  3.043551e+000  2.506590e+001
      vertex  0.000000e+000  8.953773e+000  2.360916e+001
      vertex  2.000000e+000  8.953773e+000  2.360916e+001
    endloop
  endfacet
  facet normal  -0.000000e+000 -4.647232e-001 -8.854560e-001
    outer loop
      vertex  2.000000e+000  8.953773e+000  2.360916e+001
      vertex  0.000000e+000  8.953773e+000  2.360916e+001
      vertex  0.000000e+000  1.434363e+001  2.078034e+001
    endloop
  endfacet
  facet normal  0.000000e+000 -4.647232e-001 -8.854560e-001
    outer loop
      vertex  2.000000e+000  8.953773e+000  2.360916e+001
      vertex  0.000000e+000  1.434363e+001  2.078034e+001
      vertex  2.000000e+000  1.434363e+001  2.078034e+001
    endloop
  endfacet
  facet normal  -0.000000e+000 -6.631226e-001 -7.485108e-001
    outer loop
      vertex  2.000000e+000  1.434363e+001  2.078034e+001
      vertex  0.000000e+000  1.434363e+001  2.078034e+001
      vertex  0.000000e+000  1.889990e+001  1.674385e+001
    endloop
  endfacet
  facet normal  0.000000e+000 -6.631226e-001 -7.485108e-001
    outer loop
      vertex  2.000000e+000  1.434363e+001  2.078034e+001
      vertex  0.000000e+000  1.889990e+001  1.674385e+001
      vertex  2.000000e+000  1.889990e+001  1.674385e+001
    endloop
  endfacet
  facet normal  -0.000000e+000 -8.229838e-001 -5.680648e-001
    outer loop
      vertex  2.000000e+000  1.889990e+001  1.674385e+001
      vertex  0.000000e+000  1.889990e+001  1.674385e+001
      vertex  0.000000e+000  2.235777e+001  1.173426e+001
    endloop
  endfacet
  facet normal  0.000000e+000 -8.229838e-001 -5.680648e-001
    outer loop
      vertex  2.000000e+000  1.889990e+001  1.674385e+001
      vertex  0.000000e+000  2.235777e+001  1.173426e+001
      vertex  2.000000e+000  2.235777e+001  1.173426e+001
    endloop
  endfacet
  facet normal  -0.000000e+000 -9.350163e-001 -3.546048e-001
    outer loop
      vertex  2.000000e+000  2.235777e+001  1.173426e+001
      vertex  0.000000e+000  2.235777e+001  1.173426e+001
      vertex  0.000000e+000  2.451628e+001  6.042720e+000
    endloop
  endfacet
  facet normal  0.000000e+000 -9.350163e-001 -3.546048e-001
    outer loop
      vertex  2.000000e+000  2.235777e+001  1.173426e+001
      vertex  0.000000e+000  2.451628e+001  6.042720e+000
      vertex  2.000000e+000  2.451628e+001  6.042720e+000
    endloop
  endfacet
  facet normal  -0.000000e+000 -9.927089e-001 -1.205366e-001
    outer loop
      vertex  2.000000e+000  2.451628e+001  6.042720e+000
      vertex  0.000000e+000  2.451628e+001  6.042720e+000
      vertex  0.000000e+000  2.525000e+001  0.000000e+000
    endloop
  endfacet
  facet normal  0.000000e+000 -9.927089e-001 -1.205366e-001
    outer loop
      vertex  2.000000e+000  2.451628e+001  6.042720e+000
      vertex  0.000000e+000  2.525000e+001  0.000000e+000
      vertex  2.000000e+000  2.525000e+001  0.000000e+000
    endloop
  endfacet
  facet normal  0.000000e+000 -2.393157e-001  9.709417e-001
    outer loop
      vertex  0.000000e+000  3.043551e+000 -2.506590e+001
      vertex  2.000000e+000  8.953773e+000 -2.360916e+001
      vertex  0.000000e+000  8.953773e+000 -2.360916e+001
    endloop
  endfacet
  facet normal  0.000000e+000 -4.647232e-001  8.854560e-001
    outer loop
      vertex  0.000000e+000  8.953773e+000 -2.360916e+001
      vertex  2.000000e+000  8.953773e+000 -2.360916e+001
      vertex  2.000000e+000  1.434363e+001 -2.078034e+001
    endloop
  endfacet
  facet normal  0.000000e+000 -4.647232e-001  8.854560e-001
    outer loop
      vertex  0.000000e+000  8.953773e+000 -2.360916e+001
      vertex  2.000000e+000  1.434363e+001 -2.078034e+001
      vertex  0.000000e+000  1.434363e+001 -2.078034e+001
    endloop
  endfacet
  facet normal  0.000000e+000 -6.631226e-001  7.485108e-001
    outer loop
      vertex  0.000000e+000  1.434363e+001 -2.078034e+001
      vertex  2.000000e+000  1.434363e+001 -2.078034e+001
      vertex  2.000000e+000  1.889990e+001 -1.674385e+001
    endloop
  endfacet
  facet normal  0.000000e+000 -6.631226e-001  7.485108e-001
    outer loop
      vertex  0.000000e+000  1.434363e+001 -2.078034e+001
      vertex  2.000000e+000  1.889990e+001 -1.674385e+001
      vertex  0.000000e+000  1.889990e+001 -1.674385e+001
    endloop
  endfacet
  facet normal  0.000000e+000 -8.229838e-001  5.680648e-001
    outer loop
      vertex  0.000000e+000  1.889990e+001 -1.674385e+001
      vertex  2.000000e+000  1.889990e+001 -1.674385e+001
      vertex  2.000000e+000  2.235777e+001 -1.173426e+001
    endloop
  endfacet
  facet normal  0.000000e+000 -8.229838e-001  5.680648e-001
    outer loop
      vertex  0.000000e+000  1.889990e+001 -1.674385e+001
      vertex  2.000000e+000  2.235777e+001 -1.173426e+001
      vertex  0.000000e+000  2.235777e+001 -1.173426e+001
    endloop
  endfacet
  facet normal  0.000000e+000 -9.350163e-001  3.546048e-001
    outer loop
      vertex  0.000000e+000  2.235777e+001 -1.173426e+001
      vertex  2.000000e+000  2.235777e+001 -1.173426e+001
      vertex  2.000000e+000  2.451628e+001 -6.042720e+000
    endloop
  endfacet
  facet normal  0.000000e+000 -9.350163e-001  3.546048e-001
    outer loop
      vertex  0.000000e+000  2.235777e+001 -1.173426e+001
      vertex  2.000000e+000  2.451628e+001 -6.042720e+000
      vertex  0.000000e+000  2.451628e+001 -6.042720e+000
    endloop
  endfacet
  facet normal  0.000000e+000 -9.927089e-001  1.205366e-001
    outer loop
      vertex  0.000000e+000  2.451628e+001 -6.042720e+000
      vertex  2.000000e+000  2.451628e+001 -6.042720e+000
      vertex  2.000000e+000  2.525000e+001  0.000000e+000
    endloop
  endfacet
  facet normal  0.000000e+000 -9.927089e-001  1.205366e-001
    outer loop
      vertex  0.000000e+000  2.451628e+001 -6.042720e+000
      vertex  2.000000e+000  2.525000e+001  0.000000e+000
      vertex  0.000000e+000  2.525000e+001  0.000000e+000
    endloop
  endfacet
  facet normal  0.000000e+000 -2.393157e-001  9.709417e-001
    outer loop
      vertex  2.000000e+000  8.953773e+000 -2.360916e+001
      vertex  0.000000e+000  3.043551e+000 -2.506590e+001
      vertex  2.000000e+000  3.043551e+000 -2.506590e+001
    endloop
  endfacet
  facet normal  0.000000e+000  0.000000e+000  9.999999e-001
    outer loop
      vertex  2.000000e+000  3.043551e+000 -2.506590e+001
      vertex  0.000000e+000  3.043551e+000 -2.506590e+001
      vertex  0.000000e+000 -3.043551e+000 -2.506590e+001
    endloop
  endfacet
  facet normal  0.000000e+000  0.000000e+000  9.999999e-001
    outer loop
      vertex  2.000000e+000  3.043551e+000 -2.506590e+001
      vertex  0.000000e+000 -3.043551e+000 -2.506590e+001
      vertex  2.000000e+000 -3.043551e+000 -2.506590e+001
    endloop
  endfacet
  facet normal  0.000000e+000  2.393157e-001  9.709417e-001
    outer loop
      vertex  2.000000e+000 -3.043551e+000 -2.506590e+001
      vertex  0.000000e+000 -3.043551e+000 -2.506590e+001
      vertex  0.000000e+000 -8.953773e+000 -2.360916e+001
    endloop
  endfacet
  facet normal  -0.000000e+000  2.393157e-001  9.709417e-001
    outer loop
      vertex  2.000000e+000 -3.043551e+000 -2.506590e+001
      vertex  0.000000e+000 -8.953773e+000 -2.360916e+001
      vertex  2.000000e+000 -8.953773e+000 -2.360916e+001
    endloop
  endfacet
  facet normal  0.000000e+000  4.647232e-001  8.854560e-001
    outer loop
      vertex  2.000000e+000 -8.953773e+000 -2.360916e+001
      vertex  0.000000e+000 -8.953773e+000 -2.360916e+001
      vertex  0.000000e+000 -1.434363e+001 -2.078034e+001
    endloop
  endfacet
  facet normal  -0.000000e+000  4.647232e-001  8.854560e-001
    outer loop
      vertex  2.000000e+000 -8.953773e+000 -2.360916e+001
      vertex  0.000000e+000 -1.434363e+001 -2.078034e+001
      vertex  2.000000e+000 -1.434363e+001 -2.078034e+001
    endloop
  endfacet
  facet normal  0.000000e+000  6.631226e-001  7.485108e-001
    outer loop
      vertex  2.000000e+000 -1.434363e+001 -2.078034e+001
      vertex  0.000000e+000 -1.434363e+001 -2.078034e+001
      vertex  0.000000e+000 -1.889990e+001 -1.674385e+001
    endloop
  endfacet
  facet normal  -0.000000e+000  6.631226e-001  7.485108e-001
    outer loop
      vertex  2.000000e+000 -1.434363e+001 -2.078034e+001
      vertex  0.000000e+000 -1.889990e+001 -1.674385e+001
      vertex  2.000000e+000 -1.889990e+001 -1.674385e+001
    endloop
  endfacet
  facet normal  0.000000e+000  8.229838e-001  5.680648e-001
    outer loop
      vertex  2.000000e+000 -1.889990e+001 -1.674385e+001
      vertex  0.000000e+000 -1.889990e+001 -1.674385e+001
      vertex  0.000000e+000 -2.235777e+001 -1.173426e+001
    endloop
  endfacet
  facet normal  -0.000000e+000  8.229838e-001  5.680648e-001
    outer loop
      vertex  2.000000e+000 -1.889990e+001 -1.674385e+001
      vertex  0.000000e+000 -2.235777e+001 -1.173426e+001
      vertex  2.000000e+000 -2.235777e+001 -1.173426e+001
    endloop
  endfacet
  facet normal  0.000000e+000  9.350163e-001  3.546048e-001
    outer loop
      vertex  2.000000e+000 -2.235777e+001 -1.173426e+001
      vertex  0.000000e+000 -2.235777e+001 -1.173426e+001
      vertex  0.000000e+000 -2.451628e+001 -6.042720e+000
    endloop
  endfacet
  facet normal  -0.000000e+000  9.350163e-001  3.546048e-001
    outer loop
      vertex  2.000000e+000 -2.235777e+001 -1.173426e+001
      vertex  0.000000e+000 -2.451628e+001 -6.042720e+000
      vertex  2.000000e+000 -2.451628e+001 -6.042720e+000
    endloop
  endfacet
  facet normal  0.000000e+000  9.927089e-001  1.205366e-001
    outer loop
      vertex  2.000000e+000 -2.451628e+001 -6.042720e+000
      vertex  0.000000e+000 -2.451628e+001 -6.042720e+000
      vertex  0.000000e+000 -2.525000e+001  3.092131e-015
    endloop
  endfacet
  facet normal  -0.000000e+000  9.927089e-001  1.205366e-001
    outer loop
      vertex  2.000000e+000 -2.451628e+001 -6.042720e+000
      vertex  0.000000e+000 -2.525000e+001  3.092131e-015
      vertex  2.000000e+000 -2.525000e+001  3.092131e-015
    endloop
  endfacet
  facet normal  0.000000e+000  9.937122e-001 -1.119645e-001
    outer loop
      vertex  0.000000e+000  2.800000e+001  0.000000e+000
      vertex  2.000000e+000  2.800000e+001  0.000000e+000
      vertex  0.000000e+000  2.729798e+001 -6.230586e+000
    endloop
  endfacet
  facet normal  0.000000e+000  9.937122e-001 -1.119645e-001
    outer loop
      vertex  0.000000e+000  2.729798e+001 -6.230586e+000
      vertex  2.000000e+000  2.800000e+001  0.000000e+000
      vertex  2.000000e+000  2.729798e+001 -6.230586e+000
    endloop
  endfacet
  facet normal  0.000000e+000  9.438834e-001 -3.302789e-001
    outer loop
      vertex  0.000000e+000  2.729798e+001 -6.230586e+000
      vertex  2.000000e+000  2.729798e+001 -6.230586e+000
      vertex  0.000000e+000  2.522713e+001 -1.214874e+001
    endloop
  endfacet
  facet normal  0.000000e+000  9.438834e-001 -3.302789e-001
    outer loop
      vertex  0.000000e+000  2.522713e+001 -1.214874e+001
      vertex  2.000000e+000  2.729798e+001 -6.230586e+000
      vertex  2.000000e+000  2.522713e+001 -1.214874e+001
    endloop
  endfacet
  facet normal  0.000000e+000  8.467241e-001 -5.320322e-001
    outer loop
      vertex  0.000000e+000  2.522713e+001 -1.214874e+001
      vertex  2.000000e+000  2.522713e+001 -1.214874e+001
      vertex  0.000000e+000  2.189128e+001 -1.745771e+001
    endloop
  endfacet
  facet normal  0.000000e+000  8.467241e-001 -5.320322e-001
    outer loop
      vertex  0.000000e+000  2.189128e+001 -1.745771e+001
      vertex  2.000000e+000  2.522713e+001 -1.214874e+001
      vertex  2.000000e+000  2.189128e+001 -1.745771e+001
    endloop
  endfacet
  facet normal  0.000000e+000  7.071068e-001 -7.071068e-001
    outer loop
      vertex  0.000000e+000  2.189128e+001 -1.745771e+001
      vertex  2.000000e+000  2.189128e+001 -1.745771e+001
      vertex  0.000000e+000  1.745771e+001 -2.189128e+001
    endloop
  endfacet
  facet normal  0.000000e+000  7.071068e-001 -7.071068e-001
    outer loop
      vertex  0.000000e+000  1.745771e+001 -2.189128e+001
      vertex  2.000000e+000  2.189128e+001 -1.745771e+001
      vertex  2.000000e+000  1.745771e+001 -2.189128e+001
    endloop
  endfacet
  facet normal  0.000000e+000  5.320322e-001 -8.467241e-001
    outer loop
      vertex  0.000000e+000  1.745771e+001 -2.189128e+001
      vertex  2.000000e+000  1.745771e+001 -2.189128e+001
      vertex  0.000000e+000  1.214874e+001 -2.522713e+001
    endloop
  endfacet
  facet normal  0.000000e+000  5.320322e-001 -8.467241e-001
    outer loop
      vertex  0.000000e+000  1.214874e+001 -2.522713e+001
      vertex  2.000000e+000  1.745771e+001 -2.189128e+001
      vertex  2.000000e+000  1.214874e+001 -2.522713e+001
    endloop
  endfacet
  facet normal  0.000000e+000  3.302789e-001 -9.438834e-001
    outer loop
      vertex  0.000000e+000  1.214874e+001 -2.522713e+001
      vertex  2.000000e+000  1.214874e+001 -2.522713e+001
      vertex  0.000000e+000  6.230586e+000 -2.729798e+001
    endloop
  endfacet
  facet normal  0.000000e+000  3.302789e-001 -9.438834e-001
    outer loop
      vertex  0.000000e+000  6.230586e+000 -2.729798e+001
      vertex  2.000000e+000  1.214874e+001 -2.522713e+001
      vertex  2.000000e+000  6.230586e+000 -2.729798e+001
    endloop
  endfacet
  facet normal  0.000000e+000  1.119645e-001 -9.937122e-001
    outer loop
      vertex  0.000000e+000  6.230586e+000 -2.729798e+001
      vertex  2.000000e+000  6.230586e+000 -2.729798e+001
      vertex  0.000000e+000 -5.143347e-015 -2.800000e+001
    endloop
  endfacet
  facet normal  0.000000e+000  1.119645e-001 -9.937122e-001
    outer loop
      vertex  0.000000e+000 -5.143347e-015 -2.800000e+001
      vertex  2.000000e+000  6.230586e+000 -2.729798e+001
      vertex  2.000000e+000 -5.143347e-015 -2.800000e+001
    endloop
  endfacet
  facet normal  -0.000000e+000 -1.119645e-001 -9.937122e-001
    outer loop
      vertex  0.000000e+000 -5.143347e-015 -2.800000e+001
      vertex  2.000000e+000 -5.143347e-015 -2.800000e+001
      vertex  0.000000e+000 -6.230586e+000 -2.729798e+001
    endloop
  endfacet
  facet normal  0.000000e+000 -1.119645e-001 -9.937122e-001
    outer loop
      vertex  0.000000e+000 -6.230586e+000 -2.729798e+001
      vertex  2.000000e+000 -5.143347e-015 -2.800000e+001
      vertex  2.000000e+000 -6.230586e+000 -2.729798e+001
    endloop
  endfacet
  facet normal  -0.000000e+000 -3.302789e-001 -9.438834e-001
    outer loop
      vertex  0.000000e+000 -6.230586e+000 -2.729798e+001
      vertex  2.000000e+000 -6.230586e+000 -2.729798e+001
      vertex  0.000000e+000 -1.214874e+001 -2.522713e+001
    endloop
  endfacet
  facet normal  0.000000e+000 -3.302789e-001 -9.438834e-001
    outer loop
      vertex  0.000000e+000 -1.214874e+001 -2.522713e+001
      vertex  2.000000e+000 -6.230586e+000 -2.729798e+001
      vertex  2.000000e+000 -1.214874e+001 -2.522713e+001
    endloop
  endfacet
  facet normal  -0.000000e+000 -5.320322e-001 -8.467241e-001
    outer loop
      vertex  0.000000e+000 -1.214874e+001 -2.522713e+001
      vertex  2.000000e+000 -1.214874e+001 -2.522713e+001
      vertex  0.000000e+000 -1.745771e+001 -2.189128e+001
    endloop
  endfacet
  facet normal  0.000000e+000 -5.320322e-001 -8.467241e-001
    outer loop
      vertex  0.000000e+000 -1.745771e+001 -2.189128e+001
      vertex  2.000000e+000 -1.214874e+001 -2.522713e+001
      vertex  2.000000e+000 -1.745771e+001 -2.189128e+001
    endloop
  endfacet
  facet normal  -0.000000e+000 -7.071068e-001 -7.071068e-001
    outer loop
      vertex  0.000000e+000 -1.745771e+001 -2.189128e+001
      vertex  2.000000e+000 -1.745771e+001 -2.189128e+001
      vertex  0.000000e+000 -2.189128e+001 -1.745771e+001
    endloop
  endfacet
  facet normal  0.000000e+000 -7.071068e-001 -7.071068e-001
    outer loop
      vertex  0.000000e+000 -2.189128e+001 -1.745771e+001
      vertex  2.000000e+000 -1.745771e+001 -2.189128e+001
      vertex  2.000000e+000 -2.189128e+001 -1.745771e+001
    endloop
  endfacet
  facet normal  -0.000000e+000 -8.467241e-001 -5.320322e-001
    outer loop
      vertex  0.000000e+000 -2.189128e+001 -1.745771e+001
      vertex  2.000000e+000 -2.189128e+001 -1.745771e+001
      vertex  0.000000e+000 -2.522713e+001 -1.214874e+001
    endloop
  endfacet
  facet normal  0.000000e+000 -8.467241e-001 -5.320322e-001
    outer loop
      vertex  0.000000e+000 -2.522713e+001 -1.214874e+001
      vertex  2.000000e+000 -2.189128e+001 -1.745771e+001
      vertex  2.000000e+000 -2.522713e+001 -1.214874e+001
    endloop
  endfacet
  facet normal  -0.000000e+000 -9.438834e-001 -3.302789e-001
    outer loop
      vertex  0.000000e+000 -2.522713e+001 -1.214874e+001
      vertex  2.000000e+000 -2.522713e+001 -1.214874e+001
      vertex  0.000000e+000 -2.729798e+001 -6.230586e+000
    endloop
  endfacet
  facet normal  0.000000e+000 -9.438834e-001 -3.302789e-001
    outer loop
      vertex  0.000000e+000 -2.729798e+001 -6.230586e+000
      vertex  2.000000e+000 -2.522713e+001 -1.214874e+001
      vertex  2.000000e+000 -2.729798e+001 -6.230586e+000
    endloop
  endfacet
  facet normal  -0.000000e+000 -9.937122e-001 -1.119645e-001
    outer loop
      vertex  0.000000e+000 -2.729798e+001 -6.230586e+000
      vertex  2.000000e+000 -2.729798e+001 -6.230586e+000
      vertex  0.000000e+000 -2.800000e+001  3.428898e-015
    endloop
  endfacet
  facet normal  0.000000e+000 -9.937122e-001 -1.119645e-001
    outer loop
      vertex  0.000000e+000 -2.800000e+001  3.428898e-015
      vertex  2.000000e+000 -2.729798e+001 -6.230586e+000
      vertex  2.000000e+000 -2.800000e+001  3.428898e-015
    endloop
  endfacet
  facet normal  0.000000e+000 -9.937122e-001  1.119645e-001
    outer loop
      vertex  0.000000e+000 -2.800000e+001  3.428898e-015
      vertex  2.000000e+000 -2.800000e+001  3.428898e-015
      vertex  0.000000e+000 -2.729798e+001  6.230586e+000
    endloop
  endfacet
  facet normal  0.000000e+000 -9.937122e-001  1.119645e-001
    outer loop
      vertex  0.000000e+000 -2.729798e+001  6.230586e+000
      vertex  2.000000e+000 -2.800000e+001  3.428898e-015
      vertex  2.000000e+000 -2.729798e+001  6.230586e+000
    endloop
  endfacet
  facet normal  0.000000e+000 -9.438834e-001  3.302789e-001
    outer loop
      vertex  0.000000e+000 -2.729798e+001  6.230586e+000
      vertex  2.000000e+000 -2.729798e+001  6.230586e+000
      vertex  0.000000e+000 -2.522713e+001  1.214874e+001
    endloop
  endfacet
  facet normal  0.000000e+000 -9.438834e-001  3.302789e-001
    outer loop
      vertex  0.000000e+000 -2.522713e+001  1.214874e+001
      vertex  2.000000e+000 -2.729798e+001  6.230586e+000
      vertex  2.000000e+000 -2.522713e+001  1.214874e+001
    endloop
  endfacet
  facet normal  0.000000e+000 -8.467241e-001  5.320322e-001
    outer loop
      vertex  0.000000e+000 -2.522713e+001  1.214874e+001
      vertex  2.000000e+000 -2.522713e+001  1.214874e+001
      vertex  0.000000e+000 -2.189128e+001  1.745771e+001
    endloop
  endfacet
  facet normal  0.000000e+000 -8.467241e-001  5.320322e-001
    outer loop
      vertex  0.000000e+000 -2.189128e+001  1.745771e+001
      vertex  2.000000e+000 -2.522713e+001  1.214874e+001
      vertex  2.000000e+000 -2.189128e+001  1.745771e+001
    endloop
  endfacet
  facet normal  0.000000e+000 -7.071068e-001  7.071068e-001
    outer loop
      vertex  0.000000e+000 -2.189128e+001  1.745771e+001
      vertex  2.000000e+000 -2.189128e+001  1.745771e+001
      vertex  0.000000e+000 -1.745771e+001  2.189128e+001
    endloop
  endfacet
  facet normal  0.000000e+000 -7.071068e-001  7.071068e-001
    outer loop
      vertex  0.000000e+000 -1.745771e+001  2.189128e+001
      vertex  2.000000e+000 -2.189128e+001  1.745771e+001
      vertex  2.000000e+000 -1.745771e+001  2.189128e+001
    endloop
  endfacet
  facet normal  0.000000e+000 -5.320322e-001  8.467241e-001
    outer loop
      vertex  0.000000e+000 -1.745771e+001  2.189128e+001
      vertex  2.000000e+000 -1.745771e+001  2.189128e+001
      vertex  0.000000e+000 -1.214874e+001  2.522713e+001
    endloop
  endfacet
  facet normal  0.000000e+000 -5.320322e-001  8.467241e-001
    outer loop
      vertex  0.000000e+000 -1.214874e+001  2.522713e+001
      vertex  2.000000e+000 -1.745771e+001  2.189128e+001
      vertex  2.000000e+000 -1.214874e+001  2.522713e+001
    endloop
  endfacet
  facet normal  0.000000e+000 -3.302789e-001  9.438834e-001
    outer loop
      vertex  0.000000e+000 -1.214874e+001  2.522713e+001
      vertex  2.000000e+000 -1.214874e+001  2.522713e+001
      vertex  0.000000e+000 -6.230586e+000  2.729798e+001
    endloop
  endfacet
  facet normal  0.000000e+000 -3.302789e-001  9.438834e-001
    outer loop
      vertex  0.000000e+000 -6.230586e+000  2.729798e+001
      vertex  2.000000e+000 -1.214874e+001  2.522713e+001
      vertex  2.000000e+000 -6.230586e+000  2.729798e+001
    endloop
  endfacet
  facet normal  0.000000e+000 -1.119645e-001  9.937122e-001
    outer loop
      vertex  0.000000e+000 -6.230586e+000  2.729798e+001
      vertex  2.000000e+000 -6.230586e+000  2.729798e+001
      vertex  0.000000e+000  1.714449e-015  2.800000e+001
    endloop
  endfacet
  facet normal  0.000000e+000 -1.119645e-001  9.937122e-001
    outer loop
      vertex  0.000000e+000  1.714449e-015  2.800000e+001
      vertex  2.000000e+000 -6.230586e+000  2.729798e+001
      vertex  2.000000e+000  1.714449e-015  2.800000e+001
    endloop
  endfacet
  facet normal  0.000000e+000  1.119645e-001  9.937122e-001
    outer loop
      vertex  0.000000e+000  1.714449e-015  2.800000e+001
      vertex  2.000000e+000  1.714449e-015  2.800000e+001
      vertex  0.000000e+000  6.230586e+000  2.729798e+001
    endloop
  endfacet
  facet normal  -0.000000e+000  1.119645e-001  9.937122e-001
    outer loop
      vertex  0.000000e+000  6.230586e+000  2.729798e+001
      vertex  2.000000e+000  1.714449e-015  2.800000e+001
      vertex  2.000000e+000  6.230586e+000  2.729798e+001
    endloop
  endfacet
  facet normal  0.000000e+000  3.302789e-001  9.438834e-001
    outer loop
      vertex  0.000000e+000  6.230586e+000  2.729798e+001
      vertex  2.000000e+000  6.230586e+000  2.729798e+001
      vertex  0.000000e+000  1.214874e+001  2.522713e+001
    endloop
  endfacet
  facet normal  -0.000000e+000  3.302789e-001  9.438834e-001
    outer loop
      vertex  0.000000e+000  1.214874e+001  2.522713e+001
      vertex  2.000000e+000  6.230586e+000  2.729798e+001
      vertex  2.000000e+000  1.214874e+001  2.522713e+001
    endloop
  endfacet
  facet normal  0.000000e+000  5.320322e-001  8.467241e-001
    outer loop
      vertex  0.000000e+000  1.214874e+001  2.522713e+001
      vertex  2.000000e+000  1.214874e+001  2.522713e+001
      vertex  0.000000e+000  1.745771e+001  2.189128e+001
    endloop
  endfacet
  facet normal  -0.000000e+000  5.320322e-001  8.467241e-001
    outer loop
      vertex  0.000000e+000  1.745771e+001  2.189128e+001
      vertex  2.000000e+000  1.214874e+001  2.522713e+001
      vertex  2.000000e+000  1.745771e+001  2.189128e+001
    endloop
  endfacet
  facet normal  0.000000e+000  7.071068e-001  7.071068e-001
    outer loop
      vertex  0.000000e+000  1.745771e+001  2.189128e+001
      vertex  2.000000e+000  1.745771e+001  2.189128e+001
      vertex  0.000000e+000  2.189128e+001  1.745771e+001
    endloop
  endfacet
  facet normal  -0.000000e+000  7.071068e-001  7.071068e-001
    outer loop
      vertex  0.000000e+000  2.189128e+001  1.745771e+001
      vertex  2.000000e+000  1.745771e+001  2.189128e+001
      vertex  2.000000e+000  2.189128e+001  1.745771e+001
    endloop
  endfacet
  facet normal  0.000000e+000  8.467241e-001  5.320322e-001
    outer loop
      vertex  0.000000e+000  2.189128e+001  1.745771e+001
      vertex  2.000000e+000  2.189128e+001  1.745771e+001
      vertex  0.000000e+000  2.522713e+001  1.214874e+001
    endloop
  endfacet
  facet normal  -0.000000e+000  8.467241e-001  5.320322e-001
    outer loop
      vertex  0.000000e+000  2.522713e+001  1.214874e+001
      vertex  2.000000e+000  2.189128e+001  1.745771e+001
      vertex  2.000000e+000  2.522713e+001  1.214874e+001
    endloop
  endfacet
  facet normal  0.000000e+000  9.438834e-001  3.302789e-001
    outer loop
      vertex  0.000000e+000  2.522713e+001  1.214874e+001
      vertex  2.000000e+000  2.522713e+001  1.214874e+001
      vertex  0.000000e+000  2.729798e+001  6.230586e+000
    endloop
  endfacet
  facet normal  -0.000000e+000  9.438834e-001  3.302789e-001
    outer loop
      vertex  0.000000e+000  2.729798e+001  6.230586e+000
      vertex  2.000000e+000  2.522713e+001  1.214874e+001
      vertex  2.000000e+000  2.729798e+001  6.230586e+000
    endloop
  endfacet
  facet normal  0.000000e+000  9.937122e-001  1.119645e-001
    outer loop
      vertex  0.000000e+000  2.729798e+001  6.230586e+000
      vertex  2.000000e+000  2.729798e+001  6.230586e+000
      vertex  0.000000e+000  2.800000e+001  0.000000e+000
    endloop
  endfacet
  facet normal  -0.000000e+000  9.937122e-001  1.119645e-001
    outer loop
      vertex  0.000000e+000  2.800000e+001  0.000000e+000
      vertex  2.000000e+000  2.729798e+001  6.230586e+000
      vertex  2.000000e+000  2.800000e+001  0.000000e+000
    endloop
  endfacet
endsolid CATIA STL
