solid CATIA STL
  facet normal  1.000000e+000  -0.000000e+000  0.000000e+000
    outer loop
      vertex  1.500000e+000 -6.478207e+000 -1.561229e+001
      vertex  1.500000e+000 -9.874640e+000 -1.611260e+001
      vertex  1.500000e+000 -6.131371e+000 -1.613137e+001
    endloop
  endfacet
  facet normal  1.000000e+000  0.000000e+000  0.000000e+000
    outer loop
      vertex  1.500000e+000 -3.521793e+000 -1.561229e+001
      vertex  1.500000e+000 -3.868629e+000 -1.613137e+001
      vertex  1.500000e+000 -1.253604e-001 -1.611260e+001
    endloop
  endfacet
  facet normal  1.000000e+000  -0.000000e+000  0.000000e+000
    outer loop
      vertex  1.500000e+000  0.000000e+000  0.000000e+000
      vertex  1.500000e+000 -1.000000e+001  0.000000e+000
      vertex  1.500000e+000 -5.612294e+000 -1.352179e+001
    endloop
  endfacet
  facet normal  1.000000e+000  0.000000e+000  0.000000e+000
    outer loop
      vertex  1.500000e+000  0.000000e+000  0.000000e+000
      vertex  1.500000e+000 -5.612294e+000 -1.352179e+001
      vertex  1.500000e+000 -5.000000e+000 -1.340000e+001
    endloop
  endfacet
  facet normal  1.000000e+000  -0.000000e+000  0.000000e+000
    outer loop
      vertex  1.500000e+000  0.000000e+000  0.000000e+000
      vertex  1.500000e+000 -5.000000e+000 -1.340000e+001
      vertex  1.500000e+000 -4.387706e+000 -1.352179e+001
    endloop
  endfacet
  facet normal  1.000000e+000  -0.000000e+000  0.000000e+000
    outer loop
      vertex  1.500000e+000  0.000000e+000  0.000000e+000
      vertex  1.500000e+000 -4.387706e+000 -1.352179e+001
      vertex  1.500000e+000  1.776357e-015 -1.500000e+001
    endloop
  endfacet
  facet normal  1.000000e+000  0.000000e+000  -0.000000e+000
    outer loop
      vertex  1.500000e+000 -1.000000e+001 -1.500000e+001
      vertex  1.500000e+000 -9.874640e+000 -1.611260e+001
      vertex  1.500000e+000 -6.478207e+000 -1.561229e+001
    endloop
  endfacet
  facet normal  1.000000e+000  0.000000e+000  0.000000e+000
    outer loop
      vertex  1.500000e+000 -1.000000e+001 -1.500000e+001
      vertex  1.500000e+000 -6.478207e+000 -1.561229e+001
      vertex  1.500000e+000 -6.600000e+000 -1.500000e+001
    endloop
  endfacet
  facet normal  1.000000e+000  0.000000e+000  -0.000000e+000
    outer loop
      vertex  1.500000e+000 -1.000000e+001 -1.500000e+001
      vertex  1.500000e+000 -6.600000e+000 -1.500000e+001
      vertex  1.500000e+000 -6.478207e+000 -1.438771e+001
    endloop
  endfacet
  facet normal  9.999999e-001  0.000000e+000  -0.000000e+000
    outer loop
      vertex  1.500000e+000 -1.000000e+001 -1.500000e+001
      vertex  1.500000e+000 -6.478207e+000 -1.438771e+001
      vertex  1.500000e+000 -6.131371e+000 -1.386863e+001
    endloop
  endfacet
  facet normal  1.000000e+000  0.000000e+000  -0.000000e+000
    outer loop
      vertex  1.500000e+000 -1.000000e+001 -1.500000e+001
      vertex  1.500000e+000 -6.131371e+000 -1.386863e+001
      vertex  1.500000e+000 -5.612294e+000 -1.352179e+001
    endloop
  endfacet
  facet normal  1.000000e+000  0.000000e+000  0.000000e+000
    outer loop
      vertex  1.500000e+000 -1.000000e+001 -1.500000e+001
      vertex  1.500000e+000 -5.612294e+000 -1.352179e+001
      vertex  1.500000e+000 -1.000000e+001  0.000000e+000
    endloop
  endfacet
  facet normal  1.000000e+000  0.000000e+000  -0.000000e+000
    outer loop
      vertex  1.500000e+000 -5.000000e+000 -2.000000e+001
      vertex  1.500000e+000 -3.887395e+000 -1.987464e+001
      vertex  1.500000e+000 -2.830581e+000 -1.950484e+001
    endloop
  endfacet
  facet normal  1.000000e+000  0.000000e+000  -0.000000e+000
    outer loop
      vertex  1.500000e+000 -5.000000e+000 -2.000000e+001
      vertex  1.500000e+000 -2.830581e+000 -1.950484e+001
      vertex  1.500000e+000 -1.882551e+000 -1.890916e+001
    endloop
  endfacet
  facet normal  1.000000e+000  0.000000e+000  -0.000000e+000
    outer loop
      vertex  1.500000e+000 -5.000000e+000 -2.000000e+001
      vertex  1.500000e+000 -1.882551e+000 -1.890916e+001
      vertex  1.500000e+000 -1.090843e+000 -1.811745e+001
    endloop
  endfacet
  facet normal  1.000000e+000  0.000000e+000  -0.000000e+000
    outer loop
      vertex  1.500000e+000 -5.000000e+000 -2.000000e+001
      vertex  1.500000e+000 -1.090843e+000 -1.811745e+001
      vertex  1.500000e+000 -4.951557e-001 -1.716942e+001
    endloop
  endfacet
  facet normal  9.999999e-001  0.000000e+000  0.000000e+000
    outer loop
      vertex  1.500000e+000 -5.000000e+000 -2.000000e+001
      vertex  1.500000e+000 -4.951557e-001 -1.716942e+001
      vertex  1.500000e+000 -5.000000e+000 -1.660000e+001
    endloop
  endfacet
  facet normal  9.999999e-001  0.000000e+000  0.000000e+000
    outer loop
      vertex  1.500000e+000 -5.000000e+000 -2.000000e+001
      vertex  1.500000e+000 -5.000000e+000 -1.660000e+001
      vertex  1.500000e+000 -9.504845e+000 -1.716942e+001
    endloop
  endfacet
  facet normal  1.000000e+000  0.000000e+000  0.000000e+000
    outer loop
      vertex  1.500000e+000 -5.000000e+000 -2.000000e+001
      vertex  1.500000e+000 -9.504845e+000 -1.716942e+001
      vertex  1.500000e+000 -8.909158e+000 -1.811745e+001
    endloop
  endfacet
  facet normal  9.999999e-001  0.000000e+000  0.000000e+000
    outer loop
      vertex  1.500000e+000 -5.000000e+000 -2.000000e+001
      vertex  1.500000e+000 -8.909158e+000 -1.811745e+001
      vertex  1.500000e+000 -8.117449e+000 -1.890916e+001
    endloop
  endfacet
  facet normal  9.999999e-001  0.000000e+000  0.000000e+000
    outer loop
      vertex  1.500000e+000 -5.000000e+000 -2.000000e+001
      vertex  1.500000e+000 -8.117449e+000 -1.890916e+001
      vertex  1.500000e+000 -7.169419e+000 -1.950484e+001
    endloop
  endfacet
  facet normal  1.000000e+000  0.000000e+000  0.000000e+000
    outer loop
      vertex  1.500000e+000 -5.000000e+000 -2.000000e+001
      vertex  1.500000e+000 -7.169419e+000 -1.950484e+001
      vertex  1.500000e+000 -6.112605e+000 -1.987464e+001
    endloop
  endfacet
  facet normal  1.000000e+000  0.000000e+000  0.000000e+000
    outer loop
      vertex  1.500000e+000 -9.504845e+000 -1.716942e+001
      vertex  1.500000e+000 -5.000000e+000 -1.660000e+001
      vertex  1.500000e+000 -5.612294e+000 -1.647821e+001
    endloop
  endfacet
  facet normal  1.000000e+000  0.000000e+000  0.000000e+000
    outer loop
      vertex  1.500000e+000 -9.504845e+000 -1.716942e+001
      vertex  1.500000e+000 -5.612294e+000 -1.647821e+001
      vertex  1.500000e+000 -6.131371e+000 -1.613137e+001
    endloop
  endfacet
  facet normal  1.000000e+000  0.000000e+000  0.000000e+000
    outer loop
      vertex  1.500000e+000 -9.504845e+000 -1.716942e+001
      vertex  1.500000e+000 -6.131371e+000 -1.613137e+001
      vertex  1.500000e+000 -9.874640e+000 -1.611260e+001
    endloop
  endfacet
  facet normal  1.000000e+000  0.000000e+000  0.000000e+000
    outer loop
      vertex  1.500000e+000  1.776357e-015 -1.500000e+001
      vertex  1.500000e+000 -4.387706e+000 -1.352179e+001
      vertex  1.500000e+000 -3.868629e+000 -1.386863e+001
    endloop
  endfacet
  facet normal  9.999999e-001  0.000000e+000  0.000000e+000
    outer loop
      vertex  1.500000e+000  1.776357e-015 -1.500000e+001
      vertex  1.500000e+000 -3.868629e+000 -1.386863e+001
      vertex  1.500000e+000 -3.521793e+000 -1.438771e+001
    endloop
  endfacet
  facet normal  1.000000e+000  0.000000e+000  0.000000e+000
    outer loop
      vertex  1.500000e+000  1.776357e-015 -1.500000e+001
      vertex  1.500000e+000 -3.521793e+000 -1.438771e+001
      vertex  1.500000e+000 -3.400000e+000 -1.500000e+001
    endloop
  endfacet
  facet normal  1.000000e+000  -0.000000e+000  0.000000e+000
    outer loop
      vertex  1.500000e+000  1.776357e-015 -1.500000e+001
      vertex  1.500000e+000 -3.400000e+000 -1.500000e+001
      vertex  1.500000e+000 -3.521793e+000 -1.561229e+001
    endloop
  endfacet
  facet normal  9.999999e-001  -0.000000e+000  0.000000e+000
    outer loop
      vertex  1.500000e+000  1.776357e-015 -1.500000e+001
      vertex  1.500000e+000 -3.521793e+000 -1.561229e+001
      vertex  1.500000e+000 -1.253604e-001 -1.611260e+001
    endloop
  endfacet
  facet normal  9.999999e-001  -0.000000e+000  0.000000e+000
    outer loop
      vertex  1.500000e+000 -1.253604e-001 -1.611260e+001
      vertex  1.500000e+000 -3.868629e+000 -1.613137e+001
      vertex  1.500000e+000 -4.951557e-001 -1.716942e+001
    endloop
  endfacet
  facet normal  1.000000e+000  0.000000e+000  0.000000e+000
    outer loop
      vertex  1.500000e+000 -4.951557e-001 -1.716942e+001
      vertex  1.500000e+000 -3.868629e+000 -1.613137e+001
      vertex  1.500000e+000 -4.387706e+000 -1.647821e+001
    endloop
  endfacet
  facet normal  1.000000e+000  0.000000e+000  0.000000e+000
    outer loop
      vertex  1.500000e+000 -4.951557e-001 -1.716942e+001
      vertex  1.500000e+000 -4.387706e+000 -1.647821e+001
      vertex  1.500000e+000 -5.000000e+000 -1.660000e+001
    endloop
  endfacet
  facet normal -1.000000e+000  0.000000e+000  0.000000e+000
    outer loop
      vertex  0.000000e+000 -6.131371e+000 -1.613137e+001
      vertex  0.000000e+000 -9.874640e+000 -1.611260e+001
      vertex  0.000000e+000 -6.478207e+000 -1.561229e+001
    endloop
  endfacet
  facet normal -1.000000e+000  0.000000e+000  0.000000e+000
    outer loop
      vertex  0.000000e+000 -1.253604e-001 -1.611260e+001
      vertex  0.000000e+000 -3.868629e+000 -1.613137e+001
      vertex  0.000000e+000 -3.521793e+000 -1.561229e+001
    endloop
  endfacet
  facet normal -1.000000e+000  0.000000e+000  0.000000e+000
    outer loop
      vertex  0.000000e+000  0.000000e+000  0.000000e+000
      vertex  0.000000e+000  1.776357e-015 -1.500000e+001
      vertex  0.000000e+000 -4.387706e+000 -1.352179e+001
    endloop
  endfacet
  facet normal -1.000000e+000  0.000000e+000  0.000000e+000
    outer loop
      vertex  0.000000e+000  0.000000e+000  0.000000e+000
      vertex  0.000000e+000 -4.387706e+000 -1.352179e+001
      vertex  0.000000e+000 -5.000000e+000 -1.340000e+001
    endloop
  endfacet
  facet normal -1.000000e+000  -0.000000e+000  0.000000e+000
    outer loop
      vertex  0.000000e+000  0.000000e+000  0.000000e+000
      vertex  0.000000e+000 -5.000000e+000 -1.340000e+001
      vertex  0.000000e+000 -5.612294e+000 -1.352179e+001
    endloop
  endfacet
  facet normal -1.000000e+000  0.000000e+000  0.000000e+000
    outer loop
      vertex  0.000000e+000  0.000000e+000  0.000000e+000
      vertex  0.000000e+000 -5.612294e+000 -1.352179e+001
      vertex  0.000000e+000 -1.000000e+001  0.000000e+000
    endloop
  endfacet
  facet normal -1.000000e+000  0.000000e+000  0.000000e+000
    outer loop
      vertex  0.000000e+000 -1.000000e+001 -1.500000e+001
      vertex  0.000000e+000 -1.000000e+001  0.000000e+000
      vertex  0.000000e+000 -5.612294e+000 -1.352179e+001
    endloop
  endfacet
  facet normal -1.000000e+000  0.000000e+000  0.000000e+000
    outer loop
      vertex  0.000000e+000 -1.000000e+001 -1.500000e+001
      vertex  0.000000e+000 -5.612294e+000 -1.352179e+001
      vertex  0.000000e+000 -6.131371e+000 -1.386863e+001
    endloop
  endfacet
  facet normal -9.999999e-001  0.000000e+000  0.000000e+000
    outer loop
      vertex  0.000000e+000 -1.000000e+001 -1.500000e+001
      vertex  0.000000e+000 -6.131371e+000 -1.386863e+001
      vertex  0.000000e+000 -6.478207e+000 -1.438771e+001
    endloop
  endfacet
  facet normal -1.000000e+000  0.000000e+000  0.000000e+000
    outer loop
      vertex  0.000000e+000 -1.000000e+001 -1.500000e+001
      vertex  0.000000e+000 -6.478207e+000 -1.438771e+001
      vertex  0.000000e+000 -6.600000e+000 -1.500000e+001
    endloop
  endfacet
  facet normal -1.000000e+000  -0.000000e+000  -0.000000e+000
    outer loop
      vertex  0.000000e+000 -1.000000e+001 -1.500000e+001
      vertex  0.000000e+000 -6.600000e+000 -1.500000e+001
      vertex  0.000000e+000 -6.478207e+000 -1.561229e+001
    endloop
  endfacet
  facet normal -1.000000e+000  -0.000000e+000  0.000000e+000
    outer loop
      vertex  0.000000e+000 -1.000000e+001 -1.500000e+001
      vertex  0.000000e+000 -6.478207e+000 -1.561229e+001
      vertex  0.000000e+000 -9.874640e+000 -1.611260e+001
    endloop
  endfacet
  facet normal -1.000000e+000  0.000000e+000  0.000000e+000
    outer loop
      vertex  0.000000e+000 -5.000000e+000 -2.000000e+001
      vertex  0.000000e+000 -6.112605e+000 -1.987464e+001
      vertex  0.000000e+000 -7.169419e+000 -1.950484e+001
    endloop
  endfacet
  facet normal -9.999999e-001  0.000000e+000  0.000000e+000
    outer loop
      vertex  0.000000e+000 -5.000000e+000 -2.000000e+001
      vertex  0.000000e+000 -7.169419e+000 -1.950484e+001
      vertex  0.000000e+000 -8.117449e+000 -1.890916e+001
    endloop
  endfacet
  facet normal -9.999999e-001  0.000000e+000  0.000000e+000
    outer loop
      vertex  0.000000e+000 -5.000000e+000 -2.000000e+001
      vertex  0.000000e+000 -8.117449e+000 -1.890916e+001
      vertex  0.000000e+000 -8.909158e+000 -1.811745e+001
    endloop
  endfacet
  facet normal -1.000000e+000  0.000000e+000  0.000000e+000
    outer loop
      vertex  0.000000e+000 -5.000000e+000 -2.000000e+001
      vertex  0.000000e+000 -8.909158e+000 -1.811745e+001
      vertex  0.000000e+000 -9.504845e+000 -1.716942e+001
    endloop
  endfacet
  facet normal -9.999999e-001  0.000000e+000  0.000000e+000
    outer loop
      vertex  0.000000e+000 -5.000000e+000 -2.000000e+001
      vertex  0.000000e+000 -9.504845e+000 -1.716942e+001
      vertex  0.000000e+000 -5.000000e+000 -1.660000e+001
    endloop
  endfacet
  facet normal -9.999999e-001  0.000000e+000  0.000000e+000
    outer loop
      vertex  0.000000e+000 -5.000000e+000 -2.000000e+001
      vertex  0.000000e+000 -5.000000e+000 -1.660000e+001
      vertex  0.000000e+000 -4.951557e-001 -1.716942e+001
    endloop
  endfacet
  facet normal -1.000000e+000  0.000000e+000  0.000000e+000
    outer loop
      vertex  0.000000e+000 -5.000000e+000 -2.000000e+001
      vertex  0.000000e+000 -4.951557e-001 -1.716942e+001
      vertex  0.000000e+000 -1.090843e+000 -1.811745e+001
    endloop
  endfacet
  facet normal -1.000000e+000  0.000000e+000  0.000000e+000
    outer loop
      vertex  0.000000e+000 -5.000000e+000 -2.000000e+001
      vertex  0.000000e+000 -1.090843e+000 -1.811745e+001
      vertex  0.000000e+000 -1.882551e+000 -1.890916e+001
    endloop
  endfacet
  facet normal -1.000000e+000  0.000000e+000  0.000000e+000
    outer loop
      vertex  0.000000e+000 -5.000000e+000 -2.000000e+001
      vertex  0.000000e+000 -1.882551e+000 -1.890916e+001
      vertex  0.000000e+000 -2.830581e+000 -1.950484e+001
    endloop
  endfacet
  facet normal -1.000000e+000  0.000000e+000  0.000000e+000
    outer loop
      vertex  0.000000e+000 -5.000000e+000 -2.000000e+001
      vertex  0.000000e+000 -2.830581e+000 -1.950484e+001
      vertex  0.000000e+000 -3.887395e+000 -1.987464e+001
    endloop
  endfacet
  facet normal -1.000000e+000  0.000000e+000  0.000000e+000
    outer loop
      vertex  0.000000e+000 -9.504845e+000 -1.716942e+001
      vertex  0.000000e+000 -9.874640e+000 -1.611260e+001
      vertex  0.000000e+000 -6.131371e+000 -1.613137e+001
    endloop
  endfacet
  facet normal -1.000000e+000  0.000000e+000  -0.000000e+000
    outer loop
      vertex  0.000000e+000 -9.504845e+000 -1.716942e+001
      vertex  0.000000e+000 -6.131371e+000 -1.613137e+001
      vertex  0.000000e+000 -5.612294e+000 -1.647821e+001
    endloop
  endfacet
  facet normal -1.000000e+000  0.000000e+000  -0.000000e+000
    outer loop
      vertex  0.000000e+000 -9.504845e+000 -1.716942e+001
      vertex  0.000000e+000 -5.612294e+000 -1.647821e+001
      vertex  0.000000e+000 -5.000000e+000 -1.660000e+001
    endloop
  endfacet
  facet normal -9.999999e-001  0.000000e+000  0.000000e+000
    outer loop
      vertex  0.000000e+000  1.776357e-015 -1.500000e+001
      vertex  0.000000e+000 -1.253604e-001 -1.611260e+001
      vertex  0.000000e+000 -3.521793e+000 -1.561229e+001
    endloop
  endfacet
  facet normal -1.000000e+000  0.000000e+000  0.000000e+000
    outer loop
      vertex  0.000000e+000  1.776357e-015 -1.500000e+001
      vertex  0.000000e+000 -3.521793e+000 -1.561229e+001
      vertex  0.000000e+000 -3.400000e+000 -1.500000e+001
    endloop
  endfacet
  facet normal -1.000000e+000  0.000000e+000  0.000000e+000
    outer loop
      vertex  0.000000e+000  1.776357e-015 -1.500000e+001
      vertex  0.000000e+000 -3.400000e+000 -1.500000e+001
      vertex  0.000000e+000 -3.521793e+000 -1.438771e+001
    endloop
  endfacet
  facet normal -9.999999e-001  0.000000e+000  0.000000e+000
    outer loop
      vertex  0.000000e+000  1.776357e-015 -1.500000e+001
      vertex  0.000000e+000 -3.521793e+000 -1.438771e+001
      vertex  0.000000e+000 -3.868629e+000 -1.386863e+001
    endloop
  endfacet
  facet normal -1.000000e+000  0.000000e+000  0.000000e+000
    outer loop
      vertex  0.000000e+000  1.776357e-015 -1.500000e+001
      vertex  0.000000e+000 -3.868629e+000 -1.386863e+001
      vertex  0.000000e+000 -4.387706e+000 -1.352179e+001
    endloop
  endfacet
  facet normal -1.000000e+000  0.000000e+000  -0.000000e+000
    outer loop
      vertex  0.000000e+000 -5.000000e+000 -1.660000e+001
      vertex  0.000000e+000 -4.387706e+000 -1.647821e+001
      vertex  0.000000e+000 -4.951557e-001 -1.716942e+001
    endloop
  endfacet
  facet normal -1.000000e+000  0.000000e+000  0.000000e+000
    outer loop
      vertex  0.000000e+000 -4.951557e-001 -1.716942e+001
      vertex  0.000000e+000 -4.387706e+000 -1.647821e+001
      vertex  0.000000e+000 -3.868629e+000 -1.613137e+001
    endloop
  endfacet
  facet normal -9.999999e-001  0.000000e+000  0.000000e+000
    outer loop
      vertex  0.000000e+000 -4.951557e-001 -1.716942e+001
      vertex  0.000000e+000 -3.868629e+000 -1.613137e+001
      vertex  0.000000e+000 -1.253604e-001 -1.611260e+001
    endloop
  endfacet
  facet normal  0.000000e+000  1.950903e-001 -9.807853e-001
    outer loop
      vertex  0.000000e+000 -5.000000e+000 -1.340000e+001
      vertex  1.500000e+000 -5.612294e+000 -1.352179e+001
      vertex  0.000000e+000 -5.612294e+000 -1.352179e+001
    endloop
  endfacet
  facet normal  0.000000e+000  5.555710e-001 -8.314691e-001
    outer loop
      vertex  0.000000e+000 -5.612294e+000 -1.352179e+001
      vertex  1.500000e+000 -5.612294e+000 -1.352179e+001
      vertex  1.500000e+000 -6.131371e+000 -1.386863e+001
    endloop
  endfacet
  facet normal  0.000000e+000  5.555710e-001 -8.314691e-001
    outer loop
      vertex  0.000000e+000 -5.612294e+000 -1.352179e+001
      vertex  1.500000e+000 -6.131371e+000 -1.386863e+001
      vertex  0.000000e+000 -6.131371e+000 -1.386863e+001
    endloop
  endfacet
  facet normal  0.000000e+000  8.314698e-001 -5.555699e-001
    outer loop
      vertex  0.000000e+000 -6.131371e+000 -1.386863e+001
      vertex  1.500000e+000 -6.131371e+000 -1.386863e+001
      vertex  1.500000e+000 -6.478207e+000 -1.438771e+001
    endloop
  endfacet
  facet normal  0.000000e+000  8.314698e-001 -5.555699e-001
    outer loop
      vertex  0.000000e+000 -6.131371e+000 -1.386863e+001
      vertex  1.500000e+000 -6.478207e+000 -1.438771e+001
      vertex  0.000000e+000 -6.478207e+000 -1.438771e+001
    endloop
  endfacet
  facet normal  0.000000e+000  9.807853e-001 -1.950905e-001
    outer loop
      vertex  0.000000e+000 -6.478207e+000 -1.438771e+001
      vertex  1.500000e+000 -6.478207e+000 -1.438771e+001
      vertex  1.500000e+000 -6.600000e+000 -1.500000e+001
    endloop
  endfacet
  facet normal  0.000000e+000  9.807853e-001 -1.950905e-001
    outer loop
      vertex  0.000000e+000 -6.478207e+000 -1.438771e+001
      vertex  1.500000e+000 -6.600000e+000 -1.500000e+001
      vertex  0.000000e+000 -6.600000e+000 -1.500000e+001
    endloop
  endfacet
  facet normal  0.000000e+000  1.950903e-001 -9.807853e-001
    outer loop
      vertex  1.500000e+000 -5.612294e+000 -1.352179e+001
      vertex  0.000000e+000 -5.000000e+000 -1.340000e+001
      vertex  1.500000e+000 -5.000000e+000 -1.340000e+001
    endloop
  endfacet
  facet normal  -0.000000e+000 -1.950903e-001 -9.807853e-001
    outer loop
      vertex  1.500000e+000 -5.000000e+000 -1.340000e+001
      vertex  0.000000e+000 -5.000000e+000 -1.340000e+001
      vertex  0.000000e+000 -4.387706e+000 -1.352179e+001
    endloop
  endfacet
  facet normal  0.000000e+000 -1.950903e-001 -9.807853e-001
    outer loop
      vertex  1.500000e+000 -5.000000e+000 -1.340000e+001
      vertex  0.000000e+000 -4.387706e+000 -1.352179e+001
      vertex  1.500000e+000 -4.387706e+000 -1.352179e+001
    endloop
  endfacet
  facet normal  -0.000000e+000 -5.555711e-001 -8.314690e-001
    outer loop
      vertex  1.500000e+000 -4.387706e+000 -1.352179e+001
      vertex  0.000000e+000 -4.387706e+000 -1.352179e+001
      vertex  0.000000e+000 -3.868629e+000 -1.386863e+001
    endloop
  endfacet
  facet normal  0.000000e+000 -5.555711e-001 -8.314690e-001
    outer loop
      vertex  1.500000e+000 -4.387706e+000 -1.352179e+001
      vertex  0.000000e+000 -3.868629e+000 -1.386863e+001
      vertex  1.500000e+000 -3.868629e+000 -1.386863e+001
    endloop
  endfacet
  facet normal  -0.000000e+000 -8.314695e-001 -5.555704e-001
    outer loop
      vertex  1.500000e+000 -3.868629e+000 -1.386863e+001
      vertex  0.000000e+000 -3.868629e+000 -1.386863e+001
      vertex  0.000000e+000 -3.521793e+000 -1.438771e+001
    endloop
  endfacet
  facet normal  0.000000e+000 -8.314695e-001 -5.555704e-001
    outer loop
      vertex  1.500000e+000 -3.868629e+000 -1.386863e+001
      vertex  0.000000e+000 -3.521793e+000 -1.438771e+001
      vertex  1.500000e+000 -3.521793e+000 -1.438771e+001
    endloop
  endfacet
  facet normal  -0.000000e+000 -9.807854e-001 -1.950901e-001
    outer loop
      vertex  1.500000e+000 -3.521793e+000 -1.438771e+001
      vertex  0.000000e+000 -3.521793e+000 -1.438771e+001
      vertex  0.000000e+000 -3.400000e+000 -1.500000e+001
    endloop
  endfacet
  facet normal  0.000000e+000 -9.807854e-001 -1.950901e-001
    outer loop
      vertex  1.500000e+000 -3.521793e+000 -1.438771e+001
      vertex  0.000000e+000 -3.400000e+000 -1.500000e+001
      vertex  1.500000e+000 -3.400000e+000 -1.500000e+001
    endloop
  endfacet
  facet normal  0.000000e+000 -1.950918e-001  9.807850e-001
    outer loop
      vertex  0.000000e+000 -5.000000e+000 -1.660000e+001
      vertex  1.500000e+000 -4.387706e+000 -1.647821e+001
      vertex  0.000000e+000 -4.387706e+000 -1.647821e+001
    endloop
  endfacet
  facet normal  0.000000e+000 -5.555701e-001  8.314696e-001
    outer loop
      vertex  0.000000e+000 -4.387706e+000 -1.647821e+001
      vertex  1.500000e+000 -4.387706e+000 -1.647821e+001
      vertex  1.500000e+000 -3.868629e+000 -1.613137e+001
    endloop
  endfacet
  facet normal  0.000000e+000 -5.555701e-001  8.314696e-001
    outer loop
      vertex  0.000000e+000 -4.387706e+000 -1.647821e+001
      vertex  1.500000e+000 -3.868629e+000 -1.613137e+001
      vertex  0.000000e+000 -3.868629e+000 -1.613137e+001
    endloop
  endfacet
  facet normal  0.000000e+000 -8.314695e-001  5.555704e-001
    outer loop
      vertex  0.000000e+000 -3.868629e+000 -1.613137e+001
      vertex  1.500000e+000 -3.868629e+000 -1.613137e+001
      vertex  1.500000e+000 -3.521793e+000 -1.561229e+001
    endloop
  endfacet
  facet normal  0.000000e+000 -8.314695e-001  5.555704e-001
    outer loop
      vertex  0.000000e+000 -3.868629e+000 -1.613137e+001
      vertex  1.500000e+000 -3.521793e+000 -1.561229e+001
      vertex  0.000000e+000 -3.521793e+000 -1.561229e+001
    endloop
  endfacet
  facet normal  0.000000e+000 -9.807854e-001  1.950901e-001
    outer loop
      vertex  0.000000e+000 -3.521793e+000 -1.561229e+001
      vertex  1.500000e+000 -3.521793e+000 -1.561229e+001
      vertex  1.500000e+000 -3.400000e+000 -1.500000e+001
    endloop
  endfacet
  facet normal  0.000000e+000 -9.807854e-001  1.950901e-001
    outer loop
      vertex  0.000000e+000 -3.521793e+000 -1.561229e+001
      vertex  1.500000e+000 -3.400000e+000 -1.500000e+001
      vertex  0.000000e+000 -3.400000e+000 -1.500000e+001
    endloop
  endfacet
  facet normal  0.000000e+000 -1.950918e-001  9.807850e-001
    outer loop
      vertex  1.500000e+000 -4.387706e+000 -1.647821e+001
      vertex  0.000000e+000 -5.000000e+000 -1.660000e+001
      vertex  1.500000e+000 -5.000000e+000 -1.660000e+001
    endloop
  endfacet
  facet normal  0.000000e+000  1.950918e-001  9.807850e-001
    outer loop
      vertex  1.500000e+000 -5.000000e+000 -1.660000e+001
      vertex  0.000000e+000 -5.000000e+000 -1.660000e+001
      vertex  0.000000e+000 -5.612294e+000 -1.647821e+001
    endloop
  endfacet
  facet normal  -0.000000e+000  1.950918e-001  9.807850e-001
    outer loop
      vertex  1.500000e+000 -5.000000e+000 -1.660000e+001
      vertex  0.000000e+000 -5.612294e+000 -1.647821e+001
      vertex  1.500000e+000 -5.612294e+000 -1.647821e+001
    endloop
  endfacet
  facet normal  0.000000e+000  5.555699e-001  8.314698e-001
    outer loop
      vertex  1.500000e+000 -5.612294e+000 -1.647821e+001
      vertex  0.000000e+000 -5.612294e+000 -1.647821e+001
      vertex  0.000000e+000 -6.131371e+000 -1.613137e+001
    endloop
  endfacet
  facet normal  -0.000000e+000  5.555699e-001  8.314698e-001
    outer loop
      vertex  1.500000e+000 -5.612294e+000 -1.647821e+001
      vertex  0.000000e+000 -6.131371e+000 -1.613137e+001
      vertex  1.500000e+000 -6.131371e+000 -1.613137e+001
    endloop
  endfacet
  facet normal  0.000000e+000  8.314698e-001  5.555699e-001
    outer loop
      vertex  1.500000e+000 -6.131371e+000 -1.613137e+001
      vertex  0.000000e+000 -6.131371e+000 -1.613137e+001
      vertex  0.000000e+000 -6.478207e+000 -1.561229e+001
    endloop
  endfacet
  facet normal  -0.000000e+000  8.314698e-001  5.555699e-001
    outer loop
      vertex  1.500000e+000 -6.131371e+000 -1.613137e+001
      vertex  0.000000e+000 -6.478207e+000 -1.561229e+001
      vertex  1.500000e+000 -6.478207e+000 -1.561229e+001
    endloop
  endfacet
  facet normal  0.000000e+000  9.807853e-001  1.950905e-001
    outer loop
      vertex  1.500000e+000 -6.478207e+000 -1.561229e+001
      vertex  0.000000e+000 -6.478207e+000 -1.561229e+001
      vertex  0.000000e+000 -6.600000e+000 -1.500000e+001
    endloop
  endfacet
  facet normal  -0.000000e+000  9.807853e-001  1.950905e-001
    outer loop
      vertex  1.500000e+000 -6.478207e+000 -1.561229e+001
      vertex  0.000000e+000 -6.600000e+000 -1.500000e+001
      vertex  1.500000e+000 -6.600000e+000 -1.500000e+001
    endloop
  endfacet
  facet normal  0.000000e+000  1.000000e+000  1.184238e-016
    outer loop
      vertex  1.500000e+000  0.000000e+000  0.000000e+000
      vertex  1.500000e+000  1.776357e-015 -1.500000e+001
      vertex  0.000000e+000  0.000000e+000  0.000000e+000
    endloop
  endfacet
  facet normal  0.000000e+000  1.000000e+000  1.184238e-016
    outer loop
      vertex  0.000000e+000  0.000000e+000  0.000000e+000
      vertex  1.500000e+000  1.776357e-015 -1.500000e+001
      vertex  0.000000e+000  1.776357e-015 -1.500000e+001
    endloop
  endfacet
  facet normal  0.000000e+000  9.937122e-001 -1.119645e-001
    outer loop
      vertex  0.000000e+000  1.776357e-015 -1.500000e+001
      vertex  1.500000e+000  1.776357e-015 -1.500000e+001
      vertex  0.000000e+000 -1.253604e-001 -1.611260e+001
    endloop
  endfacet
  facet normal  0.000000e+000  9.937122e-001 -1.119645e-001
    outer loop
      vertex  0.000000e+000 -1.253604e-001 -1.611260e+001
      vertex  1.500000e+000  1.776357e-015 -1.500000e+001
      vertex  1.500000e+000 -1.253604e-001 -1.611260e+001
    endloop
  endfacet
  facet normal  0.000000e+000  9.438834e-001 -3.302790e-001
    outer loop
      vertex  0.000000e+000 -1.253604e-001 -1.611260e+001
      vertex  1.500000e+000 -1.253604e-001 -1.611260e+001
      vertex  0.000000e+000 -4.951557e-001 -1.716942e+001
    endloop
  endfacet
  facet normal  0.000000e+000  9.438834e-001 -3.302790e-001
    outer loop
      vertex  0.000000e+000 -4.951557e-001 -1.716942e+001
      vertex  1.500000e+000 -1.253604e-001 -1.611260e+001
      vertex  1.500000e+000 -4.951557e-001 -1.716942e+001
    endloop
  endfacet
  facet normal  0.000000e+000  8.467243e-001 -5.320320e-001
    outer loop
      vertex  0.000000e+000 -4.951557e-001 -1.716942e+001
      vertex  1.500000e+000 -4.951557e-001 -1.716942e+001
      vertex  0.000000e+000 -1.090843e+000 -1.811745e+001
    endloop
  endfacet
  facet normal  0.000000e+000  8.467243e-001 -5.320320e-001
    outer loop
      vertex  0.000000e+000 -1.090843e+000 -1.811745e+001
      vertex  1.500000e+000 -4.951557e-001 -1.716942e+001
      vertex  1.500000e+000 -1.090843e+000 -1.811745e+001
    endloop
  endfacet
  facet normal  0.000000e+000  7.071066e-001 -7.071069e-001
    outer loop
      vertex  0.000000e+000 -1.090843e+000 -1.811745e+001
      vertex  1.500000e+000 -1.090843e+000 -1.811745e+001
      vertex  0.000000e+000 -1.882551e+000 -1.890916e+001
    endloop
  endfacet
  facet normal  0.000000e+000  7.071066e-001 -7.071069e-001
    outer loop
      vertex  0.000000e+000 -1.882551e+000 -1.890916e+001
      vertex  1.500000e+000 -1.090843e+000 -1.811745e+001
      vertex  1.500000e+000 -1.882551e+000 -1.890916e+001
    endloop
  endfacet
  facet normal  0.000000e+000  5.320327e-001 -8.467238e-001
    outer loop
      vertex  0.000000e+000 -1.882551e+000 -1.890916e+001
      vertex  1.500000e+000 -1.882551e+000 -1.890916e+001
      vertex  0.000000e+000 -2.830581e+000 -1.950484e+001
    endloop
  endfacet
  facet normal  0.000000e+000  5.320327e-001 -8.467238e-001
    outer loop
      vertex  0.000000e+000 -2.830581e+000 -1.950484e+001
      vertex  1.500000e+000 -1.882551e+000 -1.890916e+001
      vertex  1.500000e+000 -2.830581e+000 -1.950484e+001
    endloop
  endfacet
  facet normal  0.000000e+000  3.302787e-001 -9.438834e-001
    outer loop
      vertex  0.000000e+000 -2.830581e+000 -1.950484e+001
      vertex  1.500000e+000 -2.830581e+000 -1.950484e+001
      vertex  0.000000e+000 -3.887395e+000 -1.987464e+001
    endloop
  endfacet
  facet normal  0.000000e+000  3.302787e-001 -9.438834e-001
    outer loop
      vertex  0.000000e+000 -3.887395e+000 -1.987464e+001
      vertex  1.500000e+000 -2.830581e+000 -1.950484e+001
      vertex  1.500000e+000 -3.887395e+000 -1.987464e+001
    endloop
  endfacet
  facet normal  0.000000e+000  1.119645e-001 -9.937122e-001
    outer loop
      vertex  0.000000e+000 -3.887395e+000 -1.987464e+001
      vertex  1.500000e+000 -3.887395e+000 -1.987464e+001
      vertex  0.000000e+000 -5.000000e+000 -2.000000e+001
    endloop
  endfacet
  facet normal  0.000000e+000  1.119645e-001 -9.937122e-001
    outer loop
      vertex  0.000000e+000 -5.000000e+000 -2.000000e+001
      vertex  1.500000e+000 -3.887395e+000 -1.987464e+001
      vertex  1.500000e+000 -5.000000e+000 -2.000000e+001
    endloop
  endfacet
  facet normal  -0.000000e+000 -1.119645e-001 -9.937122e-001
    outer loop
      vertex  0.000000e+000 -5.000000e+000 -2.000000e+001
      vertex  1.500000e+000 -5.000000e+000 -2.000000e+001
      vertex  0.000000e+000 -6.112605e+000 -1.987464e+001
    endloop
  endfacet
  facet normal  0.000000e+000 -1.119645e-001 -9.937122e-001
    outer loop
      vertex  0.000000e+000 -6.112605e+000 -1.987464e+001
      vertex  1.500000e+000 -5.000000e+000 -2.000000e+001
      vertex  1.500000e+000 -6.112605e+000 -1.987464e+001
    endloop
  endfacet
  facet normal  -0.000000e+000 -3.302787e-001 -9.438834e-001
    outer loop
      vertex  0.000000e+000 -6.112605e+000 -1.987464e+001
      vertex  1.500000e+000 -6.112605e+000 -1.987464e+001
      vertex  0.000000e+000 -7.169419e+000 -1.950484e+001
    endloop
  endfacet
  facet normal  0.000000e+000 -3.302787e-001 -9.438834e-001
    outer loop
      vertex  0.000000e+000 -7.169419e+000 -1.950484e+001
      vertex  1.500000e+000 -6.112605e+000 -1.987464e+001
      vertex  1.500000e+000 -7.169419e+000 -1.950484e+001
    endloop
  endfacet
  facet normal  -0.000000e+000 -5.320328e-001 -8.467238e-001
    outer loop
      vertex  0.000000e+000 -7.169419e+000 -1.950484e+001
      vertex  1.500000e+000 -7.169419e+000 -1.950484e+001
      vertex  0.000000e+000 -8.117449e+000 -1.890916e+001
    endloop
  endfacet
  facet normal  0.000000e+000 -5.320328e-001 -8.467238e-001
    outer loop
      vertex  0.000000e+000 -8.117449e+000 -1.890916e+001
      vertex  1.500000e+000 -7.169419e+000 -1.950484e+001
      vertex  1.500000e+000 -8.117449e+000 -1.890916e+001
    endloop
  endfacet
  facet normal  -0.000000e+000 -7.071064e-001 -7.071072e-001
    outer loop
      vertex  0.000000e+000 -8.117449e+000 -1.890916e+001
      vertex  1.500000e+000 -8.117449e+000 -1.890916e+001
      vertex  0.000000e+000 -8.909158e+000 -1.811745e+001
    endloop
  endfacet
  facet normal  0.000000e+000 -7.071064e-001 -7.071072e-001
    outer loop
      vertex  0.000000e+000 -8.909158e+000 -1.811745e+001
      vertex  1.500000e+000 -8.117449e+000 -1.890916e+001
      vertex  1.500000e+000 -8.909158e+000 -1.811745e+001
    endloop
  endfacet
  facet normal  -0.000000e+000 -8.467243e-001 -5.320320e-001
    outer loop
      vertex  0.000000e+000 -8.909158e+000 -1.811745e+001
      vertex  1.500000e+000 -8.909158e+000 -1.811745e+001
      vertex  0.000000e+000 -9.504845e+000 -1.716942e+001
    endloop
  endfacet
  facet normal  0.000000e+000 -8.467243e-001 -5.320320e-001
    outer loop
      vertex  0.000000e+000 -9.504845e+000 -1.716942e+001
      vertex  1.500000e+000 -8.909158e+000 -1.811745e+001
      vertex  1.500000e+000 -9.504845e+000 -1.716942e+001
    endloop
  endfacet
  facet normal  -0.000000e+000 -9.438834e-001 -3.302787e-001
    outer loop
      vertex  0.000000e+000 -9.504845e+000 -1.716942e+001
      vertex  1.500000e+000 -9.504845e+000 -1.716942e+001
      vertex  0.000000e+000 -9.874640e+000 -1.611260e+001
    endloop
  endfacet
  facet normal  0.000000e+000 -9.438834e-001 -3.302787e-001
    outer loop
      vertex  0.000000e+000 -9.874640e+000 -1.611260e+001
      vertex  1.500000e+000 -9.504845e+000 -1.716942e+001
      vertex  1.500000e+000 -9.874640e+000 -1.611260e+001
    endloop
  endfacet
  facet normal  -0.000000e+000 -9.937122e-001 -1.119646e-001
    outer loop
      vertex  0.000000e+000 -9.874640e+000 -1.611260e+001
      vertex  1.500000e+000 -9.874640e+000 -1.611260e+001
      vertex  0.000000e+000 -1.000000e+001 -1.500000e+001
    endloop
  endfacet
  facet normal  0.000000e+000 -9.937122e-001 -1.119646e-001
    outer loop
      vertex  0.000000e+000 -1.000000e+001 -1.500000e+001
      vertex  1.500000e+000 -9.874640e+000 -1.611260e+001
      vertex  1.500000e+000 -1.000000e+001 -1.500000e+001
    endloop
  endfacet
  facet normal  0.000000e+000 -1.000000e+000  0.000000e+000
    outer loop
      vertex  1.500000e+000 -1.000000e+001  0.000000e+000
      vertex  0.000000e+000 -1.000000e+001  0.000000e+000
      vertex  1.500000e+000 -1.000000e+001 -1.500000e+001
    endloop
  endfacet
  facet normal  0.000000e+000 -1.000000e+000  0.000000e+000
    outer loop
      vertex  1.500000e+000 -1.000000e+001 -1.500000e+001
      vertex  0.000000e+000 -1.000000e+001  0.000000e+000
      vertex  0.000000e+000 -1.000000e+001 -1.500000e+001
    endloop
  endfacet
  facet normal  -0.000000e+000  0.000000e+000  1.000000e+000
    outer loop
      vertex  1.500000e+000  0.000000e+000  0.000000e+000
      vertex  0.000000e+000  0.000000e+000  0.000000e+000
      vertex  1.500000e+000 -1.000000e+001  0.000000e+000
    endloop
  endfacet
  facet normal  0.000000e+000  0.000000e+000  1.000000e+000
    outer loop
      vertex  1.500000e+000 -1.000000e+001  0.000000e+000
      vertex  0.000000e+000  0.000000e+000  0.000000e+000
      vertex  0.000000e+000 -1.000000e+001  0.000000e+000
    endloop
  endfacet
endsolid CATIA STL
