solid CATIA STL
  facet normal  -0.000000e+000  0.000000e+000  1.000000e+000
    outer loop
      vertex  1.446386e+000  6.337031e+000  2.000000e+000
      vertex -1.446386e+000  6.337031e+000  2.000000e+000
      vertex  4.052684e+000  5.081904e+000  2.000000e+000
    endloop
  endfacet
  facet normal  0.000000e+000  0.000000e+000  1.000000e+000
    outer loop
      vertex  4.052684e+000  5.081904e+000  2.000000e+000
      vertex -1.446386e+000  6.337031e+000  2.000000e+000
      vertex -4.052684e+000  5.081904e+000  2.000000e+000
    endloop
  endfacet
  facet normal  -0.000000e+000  0.000000e+000  1.000000e+000
    outer loop
      vertex  4.052684e+000  5.081904e+000  2.000000e+000
      vertex -4.052684e+000  5.081904e+000  2.000000e+000
      vertex  5.856297e+000  2.820244e+000  2.000000e+000
    endloop
  endfacet
  facet normal  0.000000e+000  0.000000e+000  1.000000e+000
    outer loop
      vertex  5.856297e+000  2.820244e+000  2.000000e+000
      vertex -4.052684e+000  5.081904e+000  2.000000e+000
      vertex -5.856297e+000  2.820244e+000  2.000000e+000
    endloop
  endfacet
  facet normal  -0.000000e+000  0.000000e+000  1.000000e+000
    outer loop
      vertex  5.856297e+000  2.820244e+000  2.000000e+000
      vertex -5.856297e+000  2.820244e+000  2.000000e+000
      vertex  6.500000e+000  0.000000e+000  2.000000e+000
    endloop
  endfacet
  facet normal  0.000000e+000  0.000000e+000  1.000000e+000
    outer loop
      vertex  6.500000e+000  0.000000e+000  2.000000e+000
      vertex -5.856297e+000  2.820244e+000  2.000000e+000
      vertex -6.500000e+000 -2.090586e-015  2.000000e+000
    endloop
  endfacet
  facet normal  -0.000000e+000  0.000000e+000  1.000000e+000
    outer loop
      vertex  6.500000e+000  0.000000e+000  2.000000e+000
      vertex -6.500000e+000 -2.090586e-015  2.000000e+000
      vertex  5.856297e+000 -2.820244e+000  2.000000e+000
    endloop
  endfacet
  facet normal  0.000000e+000  0.000000e+000  1.000000e+000
    outer loop
      vertex  5.856297e+000 -2.820244e+000  2.000000e+000
      vertex -6.500000e+000 -2.090586e-015  2.000000e+000
      vertex -5.856297e+000 -2.820244e+000  2.000000e+000
    endloop
  endfacet
  facet normal  -0.000000e+000  0.000000e+000  1.000000e+000
    outer loop
      vertex  5.856297e+000 -2.820244e+000  2.000000e+000
      vertex -5.856297e+000 -2.820244e+000  2.000000e+000
      vertex  4.052684e+000 -5.081904e+000  2.000000e+000
    endloop
  endfacet
  facet normal  0.000000e+000  0.000000e+000  1.000000e+000
    outer loop
      vertex  4.052684e+000 -5.081904e+000  2.000000e+000
      vertex -5.856297e+000 -2.820244e+000  2.000000e+000
      vertex -4.052684e+000 -5.081904e+000  2.000000e+000
    endloop
  endfacet
  facet normal  -0.000000e+000  0.000000e+000  1.000000e+000
    outer loop
      vertex  4.052684e+000 -5.081904e+000  2.000000e+000
      vertex -4.052684e+000 -5.081904e+000  2.000000e+000
      vertex  1.446386e+000 -6.337031e+000  2.000000e+000
    endloop
  endfacet
  facet normal  0.000000e+000  0.000000e+000  1.000000e+000
    outer loop
      vertex  1.446386e+000 -6.337031e+000  2.000000e+000
      vertex -4.052684e+000 -5.081904e+000  2.000000e+000
      vertex -1.446386e+000 -6.337031e+000  2.000000e+000
    endloop
  endfacet
  facet normal  0.000000e+000  0.000000e+000  1.000000e+000
    outer loop
      vertex  1.502016e+000  6.580763e+000  2.000000e+000
      vertex -1.028113e+000  9.544788e+000  2.000000e+000
      vertex -1.502016e+000  6.580763e+000  2.000000e+000
    endloop
  endfacet
  facet normal  -0.000000e+000  0.000000e+000  1.000000e+000
    outer loop
      vertex -1.028113e+000  9.544788e+000  2.000000e+000
      vertex -4.602485e+000  8.424792e+000  2.000000e+000
      vertex -1.502016e+000  6.580763e+000  2.000000e+000
    endloop
  endfacet
  facet normal  0.000000e+000  0.000000e+000  1.000000e+000
    outer loop
      vertex -1.502016e+000  6.580763e+000  2.000000e+000
      vertex -4.602485e+000  8.424792e+000  2.000000e+000
      vertex -7.476171e+000  6.022199e+000  2.000000e+000
    endloop
  endfacet
  facet normal  -0.000000e+000  0.000000e+000  9.999999e-001
    outer loop
      vertex -1.502016e+000  6.580763e+000  2.000000e+000
      vertex -7.476171e+000  6.022199e+000  2.000000e+000
      vertex -4.208556e+000  5.277362e+000  2.000000e+000
    endloop
  endfacet
  facet normal  0.000000e+000  -0.000000e+000  1.000000e+000
    outer loop
      vertex -6.022199e+000 -7.476171e+000  2.000000e+000
      vertex -2.702780e+000 -9.211677e+000  2.000000e+000
      vertex -1.502016e+000 -6.580763e+000  2.000000e+000
    endloop
  endfacet
  facet normal  0.000000e+000  0.000000e+000  1.000000e+000
    outer loop
      vertex -1.502016e+000 -6.580763e+000  2.000000e+000
      vertex -2.702780e+000 -9.211677e+000  2.000000e+000
      vertex  1.028113e+000 -9.544788e+000  2.000000e+000
    endloop
  endfacet
  facet normal  0.000000e+000  -0.000000e+000  1.000000e+000
    outer loop
      vertex -1.502016e+000 -6.580763e+000  2.000000e+000
      vertex  1.028113e+000 -9.544788e+000  2.000000e+000
      vertex  1.502016e+000 -6.580763e+000  2.000000e+000
    endloop
  endfacet
  facet normal  0.000000e+000  0.000000e+000  1.000000e+000
    outer loop
      vertex  1.502016e+000 -6.580763e+000  2.000000e+000
      vertex  1.028113e+000 -9.544788e+000  2.000000e+000
      vertex  4.602485e+000 -8.424792e+000  2.000000e+000
    endloop
  endfacet
  facet normal  0.000000e+000  -0.000000e+000  9.999999e-001
    outer loop
      vertex  1.502016e+000 -6.580763e+000  2.000000e+000
      vertex  4.602485e+000 -8.424792e+000  2.000000e+000
      vertex  7.476171e+000 -6.022199e+000  2.000000e+000
    endloop
  endfacet
  facet normal  0.000000e+000  0.000000e+000  1.000000e+000
    outer loop
      vertex  2.702780e+000  9.211677e+000  2.000000e+000
      vertex -1.028113e+000  9.544788e+000  2.000000e+000
      vertex  6.022199e+000  7.476171e+000  2.000000e+000
    endloop
  endfacet
  facet normal  0.000000e+000  0.000000e+000  1.000000e+000
    outer loop
      vertex  6.022199e+000  7.476171e+000  2.000000e+000
      vertex -1.028113e+000  9.544788e+000  2.000000e+000
      vertex  1.502016e+000  6.580763e+000  2.000000e+000
    endloop
  endfacet
  facet normal  -0.000000e+000  0.000000e+000  1.000000e+000
    outer loop
      vertex  6.022199e+000  7.476171e+000  2.000000e+000
      vertex  1.502016e+000  6.580763e+000  2.000000e+000
      vertex  8.424792e+000  4.602485e+000  2.000000e+000
    endloop
  endfacet
  facet normal  0.000000e+000  0.000000e+000  9.999999e-001
    outer loop
      vertex  8.424792e+000  4.602485e+000  2.000000e+000
      vertex  1.502016e+000  6.580763e+000  2.000000e+000
      vertex  4.208556e+000  5.277362e+000  2.000000e+000
    endloop
  endfacet
  facet normal  0.000000e+000  0.000000e+000  1.000000e+000
    outer loop
      vertex  8.424792e+000  4.602485e+000  2.000000e+000
      vertex  4.208556e+000  5.277362e+000  2.000000e+000
      vertex  9.544788e+000  1.028113e+000  2.000000e+000
    endloop
  endfacet
  facet normal  0.000000e+000  0.000000e+000  1.000000e+000
    outer loop
      vertex  9.544788e+000  1.028113e+000  2.000000e+000
      vertex  4.208556e+000  5.277362e+000  2.000000e+000
      vertex  6.081540e+000  2.928715e+000  2.000000e+000
    endloop
  endfacet
  facet normal  0.000000e+000  0.000000e+000  1.000000e+000
    outer loop
      vertex  9.544788e+000  1.028113e+000  2.000000e+000
      vertex  6.081540e+000  2.928715e+000  2.000000e+000
      vertex  6.750000e+000  0.000000e+000  2.000000e+000
    endloop
  endfacet
  facet normal  0.000000e+000  0.000000e+000  1.000000e+000
    outer loop
      vertex -4.208556e+000  5.277362e+000  2.000000e+000
      vertex -7.476171e+000  6.022199e+000  2.000000e+000
      vertex -6.081540e+000  2.928715e+000  2.000000e+000
    endloop
  endfacet
  facet normal  0.000000e+000  0.000000e+000  1.000000e+000
    outer loop
      vertex -6.081540e+000  2.928715e+000  2.000000e+000
      vertex -7.476171e+000  6.022199e+000  2.000000e+000
      vertex -9.211677e+000  2.702780e+000  2.000000e+000
    endloop
  endfacet
  facet normal  -0.000000e+000  0.000000e+000  1.000000e+000
    outer loop
      vertex -6.081540e+000  2.928715e+000  2.000000e+000
      vertex -9.211677e+000  2.702780e+000  2.000000e+000
      vertex -6.750000e+000  8.266093e-016  2.000000e+000
    endloop
  endfacet
  facet normal  0.000000e+000  0.000000e+000  1.000000e+000
    outer loop
      vertex -6.750000e+000  8.266093e-016  2.000000e+000
      vertex -9.211677e+000  2.702780e+000  2.000000e+000
      vertex -9.544788e+000 -1.028113e+000  2.000000e+000
    endloop
  endfacet
  facet normal  -0.000000e+000  0.000000e+000  1.000000e+000
    outer loop
      vertex -6.750000e+000  8.266093e-016  2.000000e+000
      vertex -9.544788e+000 -1.028113e+000  2.000000e+000
      vertex -6.081540e+000 -2.928715e+000  2.000000e+000
    endloop
  endfacet
  facet normal  0.000000e+000  0.000000e+000  1.000000e+000
    outer loop
      vertex -6.081540e+000 -2.928715e+000  2.000000e+000
      vertex -9.544788e+000 -1.028113e+000  2.000000e+000
      vertex -8.424792e+000 -4.602485e+000  2.000000e+000
    endloop
  endfacet
  facet normal  -0.000000e+000  0.000000e+000  1.000000e+000
    outer loop
      vertex -6.081540e+000 -2.928715e+000  2.000000e+000
      vertex -8.424792e+000 -4.602485e+000  2.000000e+000
      vertex -4.208556e+000 -5.277362e+000  2.000000e+000
    endloop
  endfacet
  facet normal  0.000000e+000  0.000000e+000  1.000000e+000
    outer loop
      vertex -6.022199e+000 -7.476171e+000  2.000000e+000
      vertex -1.502016e+000 -6.580763e+000  2.000000e+000
      vertex -8.424792e+000 -4.602485e+000  2.000000e+000
    endloop
  endfacet
  facet normal  0.000000e+000  0.000000e+000  9.999999e-001
    outer loop
      vertex -8.424792e+000 -4.602485e+000  2.000000e+000
      vertex -1.502016e+000 -6.580763e+000  2.000000e+000
      vertex -4.208556e+000 -5.277362e+000  2.000000e+000
    endloop
  endfacet
  facet normal  -0.000000e+000  0.000000e+000  1.000000e+000
    outer loop
      vertex  9.544788e+000  1.028113e+000  2.000000e+000
      vertex  6.750000e+000  0.000000e+000  2.000000e+000
      vertex  9.211677e+000 -2.702780e+000  2.000000e+000
    endloop
  endfacet
  facet normal  0.000000e+000  0.000000e+000  1.000000e+000
    outer loop
      vertex  9.211677e+000 -2.702780e+000  2.000000e+000
      vertex  6.750000e+000  0.000000e+000  2.000000e+000
      vertex  6.081540e+000 -2.928715e+000  2.000000e+000
    endloop
  endfacet
  facet normal  -0.000000e+000  0.000000e+000  1.000000e+000
    outer loop
      vertex  9.211677e+000 -2.702780e+000  2.000000e+000
      vertex  6.081540e+000 -2.928715e+000  2.000000e+000
      vertex  7.476171e+000 -6.022199e+000  2.000000e+000
    endloop
  endfacet
  facet normal  0.000000e+000  0.000000e+000  1.000000e+000
    outer loop
      vertex  7.476171e+000 -6.022199e+000  2.000000e+000
      vertex  6.081540e+000 -2.928715e+000  2.000000e+000
      vertex  4.208556e+000 -5.277362e+000  2.000000e+000
    endloop
  endfacet
  facet normal  0.000000e+000  0.000000e+000  1.000000e+000
    outer loop
      vertex  7.476171e+000 -6.022199e+000  2.000000e+000
      vertex  4.208556e+000 -5.277362e+000  2.000000e+000
      vertex  1.502016e+000 -6.580763e+000  2.000000e+000
    endloop
  endfacet
  facet normal -9.749280e-001  2.225210e-001  0.000000e+000
    outer loop
      vertex -6.500000e+000 -2.090586e-015  1.000000e+000
      vertex -6.500000e+000 -2.090586e-015  2.000000e+000
      vertex -5.856297e+000  2.820244e+000  1.000000e+000
    endloop
  endfacet
  facet normal -9.749280e-001  2.225210e-001  0.000000e+000
    outer loop
      vertex -5.856297e+000  2.820244e+000  1.000000e+000
      vertex -6.500000e+000 -2.090586e-015  2.000000e+000
      vertex -5.856297e+000  2.820244e+000  2.000000e+000
    endloop
  endfacet
  facet normal -7.818315e-001  6.234898e-001  0.000000e+000
    outer loop
      vertex -5.856297e+000  2.820244e+000  1.000000e+000
      vertex -5.856297e+000  2.820244e+000  2.000000e+000
      vertex -4.052684e+000  5.081904e+000  1.000000e+000
    endloop
  endfacet
  facet normal -7.818315e-001  6.234898e-001  0.000000e+000
    outer loop
      vertex -4.052684e+000  5.081904e+000  1.000000e+000
      vertex -5.856297e+000  2.820244e+000  2.000000e+000
      vertex -4.052684e+000  5.081904e+000  2.000000e+000
    endloop
  endfacet
  facet normal -4.338838e-001  9.009689e-001  0.000000e+000
    outer loop
      vertex -4.052684e+000  5.081904e+000  1.000000e+000
      vertex -4.052684e+000  5.081904e+000  2.000000e+000
      vertex -1.446386e+000  6.337031e+000  1.000000e+000
    endloop
  endfacet
  facet normal -4.338838e-001  9.009689e-001  0.000000e+000
    outer loop
      vertex -1.446386e+000  6.337031e+000  1.000000e+000
      vertex -4.052684e+000  5.081904e+000  2.000000e+000
      vertex -1.446386e+000  6.337031e+000  2.000000e+000
    endloop
  endfacet
  facet normal  0.000000e+000  1.000000e+000  0.000000e+000
    outer loop
      vertex -1.446386e+000  6.337031e+000  1.000000e+000
      vertex -1.446386e+000  6.337031e+000  2.000000e+000
      vertex  1.446386e+000  6.337031e+000  1.000000e+000
    endloop
  endfacet
  facet normal  0.000000e+000  1.000000e+000  -0.000000e+000
    outer loop
      vertex  1.446386e+000  6.337031e+000  1.000000e+000
      vertex -1.446386e+000  6.337031e+000  2.000000e+000
      vertex  1.446386e+000  6.337031e+000  2.000000e+000
    endloop
  endfacet
  facet normal  4.338838e-001  9.009689e-001  0.000000e+000
    outer loop
      vertex  1.446386e+000  6.337031e+000  1.000000e+000
      vertex  1.446386e+000  6.337031e+000  2.000000e+000
      vertex  4.052684e+000  5.081904e+000  1.000000e+000
    endloop
  endfacet
  facet normal  4.338838e-001  9.009689e-001  -0.000000e+000
    outer loop
      vertex  4.052684e+000  5.081904e+000  1.000000e+000
      vertex  1.446386e+000  6.337031e+000  2.000000e+000
      vertex  4.052684e+000  5.081904e+000  2.000000e+000
    endloop
  endfacet
  facet normal  7.818315e-001  6.234898e-001  0.000000e+000
    outer loop
      vertex  4.052684e+000  5.081904e+000  1.000000e+000
      vertex  4.052684e+000  5.081904e+000  2.000000e+000
      vertex  5.856297e+000  2.820244e+000  1.000000e+000
    endloop
  endfacet
  facet normal  7.818315e-001  6.234898e-001  -0.000000e+000
    outer loop
      vertex  5.856297e+000  2.820244e+000  1.000000e+000
      vertex  4.052684e+000  5.081904e+000  2.000000e+000
      vertex  5.856297e+000  2.820244e+000  2.000000e+000
    endloop
  endfacet
  facet normal  9.749280e-001  2.225210e-001  0.000000e+000
    outer loop
      vertex  5.856297e+000  2.820244e+000  1.000000e+000
      vertex  5.856297e+000  2.820244e+000  2.000000e+000
      vertex  6.500000e+000  0.000000e+000  1.000000e+000
    endloop
  endfacet
  facet normal  9.749280e-001  2.225210e-001  -0.000000e+000
    outer loop
      vertex  6.500000e+000  0.000000e+000  1.000000e+000
      vertex  5.856297e+000  2.820244e+000  2.000000e+000
      vertex  6.500000e+000  0.000000e+000  2.000000e+000
    endloop
  endfacet
  facet normal  9.749280e-001 -2.225210e-001  0.000000e+000
    outer loop
      vertex  6.500000e+000  0.000000e+000  1.000000e+000
      vertex  6.500000e+000  0.000000e+000  2.000000e+000
      vertex  5.856297e+000 -2.820244e+000  1.000000e+000
    endloop
  endfacet
  facet normal  9.749280e-001 -2.225210e-001  0.000000e+000
    outer loop
      vertex  5.856297e+000 -2.820244e+000  1.000000e+000
      vertex  6.500000e+000  0.000000e+000  2.000000e+000
      vertex  5.856297e+000 -2.820244e+000  2.000000e+000
    endloop
  endfacet
  facet normal  7.818315e-001 -6.234898e-001  0.000000e+000
    outer loop
      vertex  5.856297e+000 -2.820244e+000  1.000000e+000
      vertex  5.856297e+000 -2.820244e+000  2.000000e+000
      vertex  4.052684e+000 -5.081904e+000  1.000000e+000
    endloop
  endfacet
  facet normal  7.818315e-001 -6.234898e-001  0.000000e+000
    outer loop
      vertex  4.052684e+000 -5.081904e+000  1.000000e+000
      vertex  5.856297e+000 -2.820244e+000  2.000000e+000
      vertex  4.052684e+000 -5.081904e+000  2.000000e+000
    endloop
  endfacet
  facet normal  4.338838e-001 -9.009689e-001  0.000000e+000
    outer loop
      vertex  4.052684e+000 -5.081904e+000  1.000000e+000
      vertex  4.052684e+000 -5.081904e+000  2.000000e+000
      vertex  1.446386e+000 -6.337031e+000  1.000000e+000
    endloop
  endfacet
  facet normal  4.338838e-001 -9.009689e-001  0.000000e+000
    outer loop
      vertex  1.446386e+000 -6.337031e+000  1.000000e+000
      vertex  4.052684e+000 -5.081904e+000  2.000000e+000
      vertex  1.446386e+000 -6.337031e+000  2.000000e+000
    endloop
  endfacet
  facet normal  0.000000e+000 -1.000000e+000  -0.000000e+000
    outer loop
      vertex  1.446386e+000 -6.337031e+000  1.000000e+000
      vertex  1.446386e+000 -6.337031e+000  2.000000e+000
      vertex -1.446386e+000 -6.337031e+000  1.000000e+000
    endloop
  endfacet
  facet normal  0.000000e+000 -1.000000e+000  0.000000e+000
    outer loop
      vertex -1.446386e+000 -6.337031e+000  1.000000e+000
      vertex  1.446386e+000 -6.337031e+000  2.000000e+000
      vertex -1.446386e+000 -6.337031e+000  2.000000e+000
    endloop
  endfacet
  facet normal -4.338838e-001 -9.009689e-001  -0.000000e+000
    outer loop
      vertex -1.446386e+000 -6.337031e+000  1.000000e+000
      vertex -1.446386e+000 -6.337031e+000  2.000000e+000
      vertex -4.052684e+000 -5.081904e+000  1.000000e+000
    endloop
  endfacet
  facet normal -4.338838e-001 -9.009689e-001  0.000000e+000
    outer loop
      vertex -4.052684e+000 -5.081904e+000  1.000000e+000
      vertex -1.446386e+000 -6.337031e+000  2.000000e+000
      vertex -4.052684e+000 -5.081904e+000  2.000000e+000
    endloop
  endfacet
  facet normal -7.818315e-001 -6.234898e-001  -0.000000e+000
    outer loop
      vertex -4.052684e+000 -5.081904e+000  1.000000e+000
      vertex -4.052684e+000 -5.081904e+000  2.000000e+000
      vertex -5.856297e+000 -2.820244e+000  1.000000e+000
    endloop
  endfacet
  facet normal -7.818315e-001 -6.234898e-001  0.000000e+000
    outer loop
      vertex -5.856297e+000 -2.820244e+000  1.000000e+000
      vertex -4.052684e+000 -5.081904e+000  2.000000e+000
      vertex -5.856297e+000 -2.820244e+000  2.000000e+000
    endloop
  endfacet
  facet normal -9.749280e-001 -2.225210e-001  -0.000000e+000
    outer loop
      vertex -5.856297e+000 -2.820244e+000  1.000000e+000
      vertex -5.856297e+000 -2.820244e+000  2.000000e+000
      vertex -6.500000e+000 -2.090586e-015  1.000000e+000
    endloop
  endfacet
  facet normal -9.749280e-001 -2.225210e-001  0.000000e+000
    outer loop
      vertex -6.500000e+000 -2.090586e-015  1.000000e+000
      vertex -5.856297e+000 -2.820244e+000  2.000000e+000
      vertex -6.500000e+000 -2.090586e-015  2.000000e+000
    endloop
  endfacet
  facet normal -4.338838e-001  9.009688e-001  0.000000e+000
    outer loop
      vertex  1.502016e+000 -6.580763e+000  1.000000e+000
      vertex  4.208556e+000 -5.277362e+000  2.000000e+000
      vertex  4.208556e+000 -5.277362e+000  1.000000e+000
    endloop
  endfacet
  facet normal -7.818315e-001  6.234897e-001  0.000000e+000
    outer loop
      vertex  4.208556e+000 -5.277362e+000  1.000000e+000
      vertex  4.208556e+000 -5.277362e+000  2.000000e+000
      vertex  6.081540e+000 -2.928715e+000  2.000000e+000
    endloop
  endfacet
  facet normal -7.818315e-001  6.234897e-001  0.000000e+000
    outer loop
      vertex  4.208556e+000 -5.277362e+000  1.000000e+000
      vertex  6.081540e+000 -2.928715e+000  2.000000e+000
      vertex  6.081540e+000 -2.928715e+000  1.000000e+000
    endloop
  endfacet
  facet normal -9.749279e-001  2.225210e-001  0.000000e+000
    outer loop
      vertex  6.081540e+000 -2.928715e+000  1.000000e+000
      vertex  6.081540e+000 -2.928715e+000  2.000000e+000
      vertex  6.750000e+000  0.000000e+000  2.000000e+000
    endloop
  endfacet
  facet normal -9.749279e-001  2.225210e-001  0.000000e+000
    outer loop
      vertex  6.081540e+000 -2.928715e+000  1.000000e+000
      vertex  6.750000e+000  0.000000e+000  2.000000e+000
      vertex  6.750000e+000  0.000000e+000  1.000000e+000
    endloop
  endfacet
  facet normal -4.338838e-001  9.009688e-001  0.000000e+000
    outer loop
      vertex  4.208556e+000 -5.277362e+000  2.000000e+000
      vertex  1.502016e+000 -6.580763e+000  1.000000e+000
      vertex  1.502016e+000 -6.580763e+000  2.000000e+000
    endloop
  endfacet
  facet normal  0.000000e+000  1.000000e+000  0.000000e+000
    outer loop
      vertex  1.502016e+000 -6.580763e+000  2.000000e+000
      vertex  1.502016e+000 -6.580763e+000  1.000000e+000
      vertex -1.502016e+000 -6.580763e+000  1.000000e+000
    endloop
  endfacet
  facet normal  0.000000e+000  1.000000e+000  0.000000e+000
    outer loop
      vertex  1.502016e+000 -6.580763e+000  2.000000e+000
      vertex -1.502016e+000 -6.580763e+000  1.000000e+000
      vertex -1.502016e+000 -6.580763e+000  2.000000e+000
    endloop
  endfacet
  facet normal  4.338838e-001  9.009688e-001  0.000000e+000
    outer loop
      vertex -1.502016e+000 -6.580763e+000  2.000000e+000
      vertex -1.502016e+000 -6.580763e+000  1.000000e+000
      vertex -4.208556e+000 -5.277362e+000  1.000000e+000
    endloop
  endfacet
  facet normal  4.338838e-001  9.009688e-001  -0.000000e+000
    outer loop
      vertex -1.502016e+000 -6.580763e+000  2.000000e+000
      vertex -4.208556e+000 -5.277362e+000  1.000000e+000
      vertex -4.208556e+000 -5.277362e+000  2.000000e+000
    endloop
  endfacet
  facet normal  7.818315e-001  6.234897e-001  0.000000e+000
    outer loop
      vertex -4.208556e+000 -5.277362e+000  2.000000e+000
      vertex -4.208556e+000 -5.277362e+000  1.000000e+000
      vertex -6.081540e+000 -2.928715e+000  1.000000e+000
    endloop
  endfacet
  facet normal  7.818315e-001  6.234897e-001  -0.000000e+000
    outer loop
      vertex -4.208556e+000 -5.277362e+000  2.000000e+000
      vertex -6.081540e+000 -2.928715e+000  1.000000e+000
      vertex -6.081540e+000 -2.928715e+000  2.000000e+000
    endloop
  endfacet
  facet normal  9.749279e-001  2.225210e-001  0.000000e+000
    outer loop
      vertex -6.081540e+000 -2.928715e+000  2.000000e+000
      vertex -6.081540e+000 -2.928715e+000  1.000000e+000
      vertex -6.750000e+000  8.266093e-016  1.000000e+000
    endloop
  endfacet
  facet normal  9.749279e-001  2.225210e-001  -0.000000e+000
    outer loop
      vertex -6.081540e+000 -2.928715e+000  2.000000e+000
      vertex -6.750000e+000  8.266093e-016  1.000000e+000
      vertex -6.750000e+000  8.266093e-016  2.000000e+000
    endloop
  endfacet
  facet normal  4.338838e-001 -9.009688e-001  0.000000e+000
    outer loop
      vertex -1.502016e+000  6.580763e+000  1.000000e+000
      vertex -4.208556e+000  5.277362e+000  2.000000e+000
      vertex -4.208556e+000  5.277362e+000  1.000000e+000
    endloop
  endfacet
  facet normal  7.818315e-001 -6.234897e-001  0.000000e+000
    outer loop
      vertex -4.208556e+000  5.277362e+000  1.000000e+000
      vertex -4.208556e+000  5.277362e+000  2.000000e+000
      vertex -6.081540e+000  2.928715e+000  2.000000e+000
    endloop
  endfacet
  facet normal  7.818315e-001 -6.234897e-001  0.000000e+000
    outer loop
      vertex -4.208556e+000  5.277362e+000  1.000000e+000
      vertex -6.081540e+000  2.928715e+000  2.000000e+000
      vertex -6.081540e+000  2.928715e+000  1.000000e+000
    endloop
  endfacet
  facet normal  9.749279e-001 -2.225210e-001  0.000000e+000
    outer loop
      vertex -6.081540e+000  2.928715e+000  1.000000e+000
      vertex -6.081540e+000  2.928715e+000  2.000000e+000
      vertex -6.750000e+000  8.266093e-016  2.000000e+000
    endloop
  endfacet
  facet normal  9.749279e-001 -2.225210e-001  0.000000e+000
    outer loop
      vertex -6.081540e+000  2.928715e+000  1.000000e+000
      vertex -6.750000e+000  8.266093e-016  2.000000e+000
      vertex -6.750000e+000  8.266093e-016  1.000000e+000
    endloop
  endfacet
  facet normal  4.338838e-001 -9.009688e-001  0.000000e+000
    outer loop
      vertex -4.208556e+000  5.277362e+000  2.000000e+000
      vertex -1.502016e+000  6.580763e+000  1.000000e+000
      vertex -1.502016e+000  6.580763e+000  2.000000e+000
    endloop
  endfacet
  facet normal  0.000000e+000 -1.000000e+000  0.000000e+000
    outer loop
      vertex -1.502016e+000  6.580763e+000  2.000000e+000
      vertex -1.502016e+000  6.580763e+000  1.000000e+000
      vertex  1.502016e+000  6.580763e+000  1.000000e+000
    endloop
  endfacet
  facet normal  0.000000e+000 -1.000000e+000  0.000000e+000
    outer loop
      vertex -1.502016e+000  6.580763e+000  2.000000e+000
      vertex  1.502016e+000  6.580763e+000  1.000000e+000
      vertex  1.502016e+000  6.580763e+000  2.000000e+000
    endloop
  endfacet
  facet normal -4.338838e-001 -9.009688e-001  -0.000000e+000
    outer loop
      vertex  1.502016e+000  6.580763e+000  2.000000e+000
      vertex  1.502016e+000  6.580763e+000  1.000000e+000
      vertex  4.208556e+000  5.277362e+000  1.000000e+000
    endloop
  endfacet
  facet normal -4.338838e-001 -9.009688e-001  0.000000e+000
    outer loop
      vertex  1.502016e+000  6.580763e+000  2.000000e+000
      vertex  4.208556e+000  5.277362e+000  1.000000e+000
      vertex  4.208556e+000  5.277362e+000  2.000000e+000
    endloop
  endfacet
  facet normal -7.818315e-001 -6.234897e-001  -0.000000e+000
    outer loop
      vertex  4.208556e+000  5.277362e+000  2.000000e+000
      vertex  4.208556e+000  5.277362e+000  1.000000e+000
      vertex  6.081540e+000  2.928715e+000  1.000000e+000
    endloop
  endfacet
  facet normal -7.818315e-001 -6.234897e-001  0.000000e+000
    outer loop
      vertex  4.208556e+000  5.277362e+000  2.000000e+000
      vertex  6.081540e+000  2.928715e+000  1.000000e+000
      vertex  6.081540e+000  2.928715e+000  2.000000e+000
    endloop
  endfacet
  facet normal -9.749279e-001 -2.225210e-001  -0.000000e+000
    outer loop
      vertex  6.081540e+000  2.928715e+000  2.000000e+000
      vertex  6.081540e+000  2.928715e+000  1.000000e+000
      vertex  6.750000e+000  0.000000e+000  1.000000e+000
    endloop
  endfacet
  facet normal -9.749279e-001 -2.225210e-001  0.000000e+000
    outer loop
      vertex  6.081540e+000  2.928715e+000  2.000000e+000
      vertex  6.750000e+000  0.000000e+000  1.000000e+000
      vertex  6.750000e+000  0.000000e+000  2.000000e+000
    endloop
  endfacet
  facet normal  0.000000e+000  0.000000e+000  1.000000e+000
    outer loop
      vertex -1.502016e+000  6.580763e+000  1.000000e+000
      vertex -4.208556e+000  5.277362e+000  1.000000e+000
      vertex -1.446386e+000  6.337031e+000  1.000000e+000
    endloop
  endfacet
  facet normal  0.000000e+000  -0.000000e+000  9.999999e-001
    outer loop
      vertex -1.502016e+000  6.580763e+000  1.000000e+000
      vertex -1.446386e+000  6.337031e+000  1.000000e+000
      vertex  1.502016e+000  6.580763e+000  1.000000e+000
    endloop
  endfacet
  facet normal  0.000000e+000  0.000000e+000  1.000000e+000
    outer loop
      vertex  1.502016e+000  6.580763e+000  1.000000e+000
      vertex -1.446386e+000  6.337031e+000  1.000000e+000
      vertex  1.446386e+000  6.337031e+000  1.000000e+000
    endloop
  endfacet
  facet normal  -0.000000e+000  0.000000e+000  1.000000e+000
    outer loop
      vertex  1.502016e+000  6.580763e+000  1.000000e+000
      vertex  1.446386e+000  6.337031e+000  1.000000e+000
      vertex  4.208556e+000  5.277362e+000  1.000000e+000
    endloop
  endfacet
  facet normal  0.000000e+000  0.000000e+000  1.000000e+000
    outer loop
      vertex  4.208556e+000  5.277362e+000  1.000000e+000
      vertex  1.446386e+000  6.337031e+000  1.000000e+000
      vertex  4.052684e+000  5.081904e+000  1.000000e+000
    endloop
  endfacet
  facet normal  -0.000000e+000  0.000000e+000  1.000000e+000
    outer loop
      vertex  4.208556e+000  5.277362e+000  1.000000e+000
      vertex  4.052684e+000  5.081904e+000  1.000000e+000
      vertex  6.081540e+000  2.928715e+000  1.000000e+000
    endloop
  endfacet
  facet normal  0.000000e+000  0.000000e+000  1.000000e+000
    outer loop
      vertex  6.081540e+000  2.928715e+000  1.000000e+000
      vertex  4.052684e+000  5.081904e+000  1.000000e+000
      vertex  5.856297e+000  2.820244e+000  1.000000e+000
    endloop
  endfacet
  facet normal  -0.000000e+000  0.000000e+000  1.000000e+000
    outer loop
      vertex  6.081540e+000  2.928715e+000  1.000000e+000
      vertex  5.856297e+000  2.820244e+000  1.000000e+000
      vertex  6.750000e+000  0.000000e+000  1.000000e+000
    endloop
  endfacet
  facet normal  0.000000e+000  0.000000e+000  1.000000e+000
    outer loop
      vertex  6.750000e+000  0.000000e+000  1.000000e+000
      vertex  5.856297e+000  2.820244e+000  1.000000e+000
      vertex  6.500000e+000  0.000000e+000  1.000000e+000
    endloop
  endfacet
  facet normal  -0.000000e+000  0.000000e+000  9.999999e-001
    outer loop
      vertex  6.750000e+000  0.000000e+000  1.000000e+000
      vertex  6.500000e+000  0.000000e+000  1.000000e+000
      vertex  6.081540e+000 -2.928715e+000  1.000000e+000
    endloop
  endfacet
  facet normal  0.000000e+000  -0.000000e+000  1.000000e+000
    outer loop
      vertex  6.081540e+000 -2.928715e+000  1.000000e+000
      vertex  6.500000e+000  0.000000e+000  1.000000e+000
      vertex  5.856297e+000 -2.820244e+000  1.000000e+000
    endloop
  endfacet
  facet normal  0.000000e+000  0.000000e+000  1.000000e+000
    outer loop
      vertex  6.081540e+000 -2.928715e+000  1.000000e+000
      vertex  5.856297e+000 -2.820244e+000  1.000000e+000
      vertex  4.208556e+000 -5.277362e+000  1.000000e+000
    endloop
  endfacet
  facet normal  0.000000e+000  -0.000000e+000  1.000000e+000
    outer loop
      vertex  4.208556e+000 -5.277362e+000  1.000000e+000
      vertex  5.856297e+000 -2.820244e+000  1.000000e+000
      vertex  4.052684e+000 -5.081904e+000  1.000000e+000
    endloop
  endfacet
  facet normal  0.000000e+000  0.000000e+000  9.999999e-001
    outer loop
      vertex  4.208556e+000 -5.277362e+000  1.000000e+000
      vertex  4.052684e+000 -5.081904e+000  1.000000e+000
      vertex  1.502016e+000 -6.580763e+000  1.000000e+000
    endloop
  endfacet
  facet normal  0.000000e+000  -0.000000e+000  1.000000e+000
    outer loop
      vertex  1.502016e+000 -6.580763e+000  1.000000e+000
      vertex  4.052684e+000 -5.081904e+000  1.000000e+000
      vertex  1.446386e+000 -6.337031e+000  1.000000e+000
    endloop
  endfacet
  facet normal  0.000000e+000  0.000000e+000  9.999999e-001
    outer loop
      vertex  1.502016e+000 -6.580763e+000  1.000000e+000
      vertex  1.446386e+000 -6.337031e+000  1.000000e+000
      vertex -1.502016e+000 -6.580763e+000  1.000000e+000
    endloop
  endfacet
  facet normal  0.000000e+000  0.000000e+000  1.000000e+000
    outer loop
      vertex -1.502016e+000 -6.580763e+000  1.000000e+000
      vertex  1.446386e+000 -6.337031e+000  1.000000e+000
      vertex -1.446386e+000 -6.337031e+000  1.000000e+000
    endloop
  endfacet
  facet normal  0.000000e+000  0.000000e+000  1.000000e+000
    outer loop
      vertex -1.502016e+000 -6.580763e+000  1.000000e+000
      vertex -1.446386e+000 -6.337031e+000  1.000000e+000
      vertex -4.208556e+000 -5.277362e+000  1.000000e+000
    endloop
  endfacet
  facet normal  -0.000000e+000  0.000000e+000  1.000000e+000
    outer loop
      vertex -4.208556e+000 -5.277362e+000  1.000000e+000
      vertex -1.446386e+000 -6.337031e+000  1.000000e+000
      vertex -4.052684e+000 -5.081904e+000  1.000000e+000
    endloop
  endfacet
  facet normal  0.000000e+000  0.000000e+000  1.000000e+000
    outer loop
      vertex -4.208556e+000 -5.277362e+000  1.000000e+000
      vertex -4.052684e+000 -5.081904e+000  1.000000e+000
      vertex -6.081540e+000 -2.928715e+000  1.000000e+000
    endloop
  endfacet
  facet normal  -0.000000e+000  0.000000e+000  1.000000e+000
    outer loop
      vertex -6.081540e+000 -2.928715e+000  1.000000e+000
      vertex -4.052684e+000 -5.081904e+000  1.000000e+000
      vertex -5.856297e+000 -2.820244e+000  1.000000e+000
    endloop
  endfacet
  facet normal  0.000000e+000  0.000000e+000  1.000000e+000
    outer loop
      vertex -6.081540e+000 -2.928715e+000  1.000000e+000
      vertex -5.856297e+000 -2.820244e+000  1.000000e+000
      vertex -6.750000e+000  8.266093e-016  1.000000e+000
    endloop
  endfacet
  facet normal  0.000000e+000  0.000000e+000  1.000000e+000
    outer loop
      vertex -6.750000e+000  8.266093e-016  1.000000e+000
      vertex -5.856297e+000 -2.820244e+000  1.000000e+000
      vertex -6.500000e+000 -2.090586e-015  1.000000e+000
    endloop
  endfacet
  facet normal  0.000000e+000  -0.000000e+000  9.999999e-001
    outer loop
      vertex -6.750000e+000  8.266093e-016  1.000000e+000
      vertex -6.500000e+000 -2.090586e-015  1.000000e+000
      vertex -6.081540e+000  2.928715e+000  1.000000e+000
    endloop
  endfacet
  facet normal  0.000000e+000  0.000000e+000  1.000000e+000
    outer loop
      vertex -6.081540e+000  2.928715e+000  1.000000e+000
      vertex -6.500000e+000 -2.090586e-015  1.000000e+000
      vertex -5.856297e+000  2.820244e+000  1.000000e+000
    endloop
  endfacet
  facet normal  0.000000e+000  -0.000000e+000  1.000000e+000
    outer loop
      vertex -6.081540e+000  2.928715e+000  1.000000e+000
      vertex -5.856297e+000  2.820244e+000  1.000000e+000
      vertex -4.208556e+000  5.277362e+000  1.000000e+000
    endloop
  endfacet
  facet normal  0.000000e+000  0.000000e+000  1.000000e+000
    outer loop
      vertex -4.208556e+000  5.277362e+000  1.000000e+000
      vertex -5.856297e+000  2.820244e+000  1.000000e+000
      vertex -4.052684e+000  5.081904e+000  1.000000e+000
    endloop
  endfacet
  facet normal  0.000000e+000  -0.000000e+000  1.000000e+000
    outer loop
      vertex -4.208556e+000  5.277362e+000  1.000000e+000
      vertex -4.052684e+000  5.081904e+000  1.000000e+000
      vertex -1.446386e+000  6.337031e+000  1.000000e+000
    endloop
  endfacet
  facet normal  -0.000000e+000  0.000000e+000 -1.000000e+000
    outer loop
      vertex -3.838401e-001  7.490171e+000 -2.500000e+001
      vertex  2.904036e+000  6.914953e+000 -2.500000e+001
      vertex -3.595691e+000  6.581869e+000 -2.500000e+001
    endloop
  endfacet
  facet normal  0.000000e+000  0.000000e+000 -1.000000e+000
    outer loop
      vertex  3.838401e-001 -7.490171e+000 -2.500000e+001
      vertex -2.904036e+000 -6.914953e+000 -2.500000e+001
      vertex  3.595691e+000 -6.581869e+000 -2.500000e+001
    endloop
  endfacet
  facet normal  -0.000000e+000  0.000000e+000 -1.000000e+000
    outer loop
      vertex  3.595691e+000 -6.581869e+000 -2.500000e+001
      vertex -2.904036e+000 -6.914953e+000 -2.500000e+001
      vertex -5.616731e+000 -4.970144e+000 -2.500000e+001
    endloop
  endfacet
  facet normal  0.000000e+000  0.000000e+000 -9.999999e-001
    outer loop
      vertex  3.595691e+000 -6.581869e+000 -2.500000e+001
      vertex -5.616731e+000 -4.970144e+000 -2.500000e+001
      vertex  6.095372e+000 -4.369947e+000 -2.500000e+001
    endloop
  endfacet
  facet normal  -0.000000e+000  0.000000e+000 -1.000000e+000
    outer loop
      vertex  6.095372e+000 -4.369947e+000 -2.500000e+001
      vertex -5.616731e+000 -4.970144e+000 -2.500000e+001
      vertex -7.216965e+000 -2.040936e+000 -2.500000e+001
    endloop
  endfacet
  facet normal  0.000000e+000  0.000000e+000 -1.000000e+000
    outer loop
      vertex  6.095372e+000 -4.369947e+000 -2.500000e+001
      vertex -7.216965e+000 -2.040936e+000 -2.500000e+001
      vertex  7.387790e+000 -1.292503e+000 -2.500000e+001
    endloop
  endfacet
  facet normal  -0.000000e+000  0.000000e+000 -1.000000e+000
    outer loop
      vertex  7.387790e+000 -1.292503e+000 -2.500000e+001
      vertex -7.216965e+000 -2.040936e+000 -2.500000e+001
      vertex -7.387790e+000  1.292503e+000 -2.500000e+001
    endloop
  endfacet
  facet normal  0.000000e+000  0.000000e+000 -1.000000e+000
    outer loop
      vertex  7.387790e+000 -1.292503e+000 -2.500000e+001
      vertex -7.387790e+000  1.292503e+000 -2.500000e+001
      vertex  7.216965e+000  2.040936e+000 -2.500000e+001
    endloop
  endfacet
  facet normal  -0.000000e+000  0.000000e+000 -1.000000e+000
    outer loop
      vertex  7.216965e+000  2.040936e+000 -2.500000e+001
      vertex -7.387790e+000  1.292503e+000 -2.500000e+001
      vertex -6.095372e+000  4.369947e+000 -2.500000e+001
    endloop
  endfacet
  facet normal  0.000000e+000  0.000000e+000 -1.000000e+000
    outer loop
      vertex  7.216965e+000  2.040936e+000 -2.500000e+001
      vertex -6.095372e+000  4.369947e+000 -2.500000e+001
      vertex  5.616731e+000  4.970144e+000 -2.500000e+001
    endloop
  endfacet
  facet normal  -0.000000e+000  0.000000e+000 -9.999999e-001
    outer loop
      vertex  5.616731e+000  4.970144e+000 -2.500000e+001
      vertex -6.095372e+000  4.369947e+000 -2.500000e+001
      vertex -3.595691e+000  6.581869e+000 -2.500000e+001
    endloop
  endfacet
  facet normal  0.000000e+000  0.000000e+000 -1.000000e+000
    outer loop
      vertex  5.616731e+000  4.970144e+000 -2.500000e+001
      vertex -3.595691e+000  6.581869e+000 -2.500000e+001
      vertex  2.904036e+000  6.914953e+000 -2.500000e+001
    endloop
  endfacet
  facet normal  0.000000e+000  0.000000e+000 -1.000000e+000
    outer loop
      vertex -6.095372e+000  4.369947e+000 -1.500000e+001
      vertex -7.387790e+000  1.292503e+000 -1.500000e+001
      vertex -9.211677e+000  2.702780e+000 -1.500000e+001
    endloop
  endfacet
  facet normal  0.000000e+000  0.000000e+000 -9.999999e-001
    outer loop
      vertex -9.211677e+000  2.702780e+000 -1.500000e+001
      vertex -7.387790e+000  1.292503e+000 -1.500000e+001
      vertex -7.216965e+000 -2.040936e+000 -1.500000e+001
    endloop
  endfacet
  facet normal  0.000000e+000  0.000000e+000 -1.000000e+000
    outer loop
      vertex -9.211677e+000  2.702780e+000 -1.500000e+001
      vertex -7.216965e+000 -2.040936e+000 -1.500000e+001
      vertex -9.544788e+000 -1.028113e+000 -1.500000e+001
    endloop
  endfacet
  facet normal  0.000000e+000  0.000000e+000 -1.000000e+000
    outer loop
      vertex -9.544788e+000 -1.028113e+000 -1.500000e+001
      vertex -7.216965e+000 -2.040936e+000 -1.500000e+001
      vertex -5.616731e+000 -4.970144e+000 -1.500000e+001
    endloop
  endfacet
  facet normal  0.000000e+000  0.000000e+000 -1.000000e+000
    outer loop
      vertex -9.544788e+000 -1.028113e+000 -1.500000e+001
      vertex -5.616731e+000 -4.970144e+000 -1.500000e+001
      vertex -8.424792e+000 -4.602485e+000 -1.500000e+001
    endloop
  endfacet
  facet normal  0.000000e+000  0.000000e+000 -1.000000e+000
    outer loop
      vertex -8.424792e+000 -4.602485e+000 -1.500000e+001
      vertex -5.616731e+000 -4.970144e+000 -1.500000e+001
      vertex -2.904036e+000 -6.914953e+000 -1.500000e+001
    endloop
  endfacet
  facet normal  -0.000000e+000  0.000000e+000 -1.000000e+000
    outer loop
      vertex -8.424792e+000 -4.602485e+000 -1.500000e+001
      vertex -2.904036e+000 -6.914953e+000 -1.500000e+001
      vertex -6.022199e+000 -7.476171e+000 -1.500000e+001
    endloop
  endfacet
  facet normal  0.000000e+000  0.000000e+000 -1.000000e+000
    outer loop
      vertex -6.022199e+000 -7.476171e+000 -1.500000e+001
      vertex -2.904036e+000 -6.914953e+000 -1.500000e+001
      vertex  3.838401e-001 -7.490171e+000 -1.500000e+001
    endloop
  endfacet
  facet normal  -0.000000e+000  0.000000e+000 -9.999999e-001
    outer loop
      vertex -6.022199e+000 -7.476171e+000 -1.500000e+001
      vertex  3.838401e-001 -7.490171e+000 -1.500000e+001
      vertex -2.702780e+000 -9.211677e+000 -1.500000e+001
    endloop
  endfacet
  facet normal  0.000000e+000  0.000000e+000 -1.000000e+000
    outer loop
      vertex -2.702780e+000 -9.211677e+000 -1.500000e+001
      vertex  3.838401e-001 -7.490171e+000 -1.500000e+001
      vertex  4.602485e+000 -8.424792e+000 -1.500000e+001
    endloop
  endfacet
  facet normal  0.000000e+000  0.000000e+000 -1.000000e+000
    outer loop
      vertex -2.702780e+000 -9.211677e+000 -1.500000e+001
      vertex  4.602485e+000 -8.424792e+000 -1.500000e+001
      vertex  1.028113e+000 -9.544788e+000 -1.500000e+001
    endloop
  endfacet
  facet normal  -0.000000e+000  0.000000e+000 -1.000000e+000
    outer loop
      vertex -1.028113e+000  9.544788e+000 -1.500000e+001
      vertex  2.702780e+000  9.211677e+000 -1.500000e+001
      vertex -3.838401e-001  7.490171e+000 -1.500000e+001
    endloop
  endfacet
  facet normal  0.000000e+000  0.000000e+000 -9.999999e-001
    outer loop
      vertex -3.838401e-001  7.490171e+000 -1.500000e+001
      vertex  2.702780e+000  9.211677e+000 -1.500000e+001
      vertex  6.022199e+000  7.476171e+000 -1.500000e+001
    endloop
  endfacet
  facet normal  -0.000000e+000  0.000000e+000 -1.000000e+000
    outer loop
      vertex -3.838401e-001  7.490171e+000 -1.500000e+001
      vertex  6.022199e+000  7.476171e+000 -1.500000e+001
      vertex  2.904036e+000  6.914953e+000 -1.500000e+001
    endloop
  endfacet
  facet normal  0.000000e+000  0.000000e+000 -1.000000e+000
    outer loop
      vertex  2.904036e+000  6.914953e+000 -1.500000e+001
      vertex  6.022199e+000  7.476171e+000 -1.500000e+001
      vertex  8.424792e+000  4.602485e+000 -1.500000e+001
    endloop
  endfacet
  facet normal  0.000000e+000  0.000000e+000 -1.000000e+000
    outer loop
      vertex  2.904036e+000  6.914953e+000 -1.500000e+001
      vertex  8.424792e+000  4.602485e+000 -1.500000e+001
      vertex  5.616731e+000  4.970144e+000 -1.500000e+001
    endloop
  endfacet
  facet normal  0.000000e+000  0.000000e+000 -1.000000e+000
    outer loop
      vertex  5.616731e+000  4.970144e+000 -1.500000e+001
      vertex  8.424792e+000  4.602485e+000 -1.500000e+001
      vertex  9.544788e+000  1.028113e+000 -1.500000e+001
    endloop
  endfacet
  facet normal  0.000000e+000  0.000000e+000 -1.000000e+000
    outer loop
      vertex  5.616731e+000  4.970144e+000 -1.500000e+001
      vertex  9.544788e+000  1.028113e+000 -1.500000e+001
      vertex  7.216965e+000  2.040936e+000 -1.500000e+001
    endloop
  endfacet
  facet normal  0.000000e+000  0.000000e+000 -1.000000e+000
    outer loop
      vertex  7.216965e+000  2.040936e+000 -1.500000e+001
      vertex  9.544788e+000  1.028113e+000 -1.500000e+001
      vertex  9.211677e+000 -2.702780e+000 -1.500000e+001
    endloop
  endfacet
  facet normal  0.000000e+000  0.000000e+000 -9.999999e-001
    outer loop
      vertex  7.216965e+000  2.040936e+000 -1.500000e+001
      vertex  9.211677e+000 -2.702780e+000 -1.500000e+001
      vertex  7.387790e+000 -1.292503e+000 -1.500000e+001
    endloop
  endfacet
  facet normal  0.000000e+000  0.000000e+000 -1.000000e+000
    outer loop
      vertex  7.387790e+000 -1.292503e+000 -1.500000e+001
      vertex  9.211677e+000 -2.702780e+000 -1.500000e+001
      vertex  7.476171e+000 -6.022199e+000 -1.500000e+001
    endloop
  endfacet
  facet normal  0.000000e+000  0.000000e+000 -1.000000e+000
    outer loop
      vertex  7.387790e+000 -1.292503e+000 -1.500000e+001
      vertex  7.476171e+000 -6.022199e+000 -1.500000e+001
      vertex  6.095372e+000 -4.369947e+000 -1.500000e+001
    endloop
  endfacet
  facet normal  0.000000e+000  0.000000e+000 -1.000000e+000
    outer loop
      vertex -1.028113e+000  9.544788e+000 -1.500000e+001
      vertex -3.838401e-001  7.490171e+000 -1.500000e+001
      vertex -4.602485e+000  8.424792e+000 -1.500000e+001
    endloop
  endfacet
  facet normal  0.000000e+000  0.000000e+000 -1.000000e+000
    outer loop
      vertex -4.602485e+000  8.424792e+000 -1.500000e+001
      vertex -3.838401e-001  7.490171e+000 -1.500000e+001
      vertex -3.595691e+000  6.581869e+000 -1.500000e+001
    endloop
  endfacet
  facet normal  -0.000000e+000  0.000000e+000 -1.000000e+000
    outer loop
      vertex -4.602485e+000  8.424792e+000 -1.500000e+001
      vertex -3.595691e+000  6.581869e+000 -1.500000e+001
      vertex -7.476171e+000  6.022199e+000 -1.500000e+001
    endloop
  endfacet
  facet normal  0.000000e+000  0.000000e+000 -1.000000e+000
    outer loop
      vertex -7.476171e+000  6.022199e+000 -1.500000e+001
      vertex -3.595691e+000  6.581869e+000 -1.500000e+001
      vertex -6.095372e+000  4.369947e+000 -1.500000e+001
    endloop
  endfacet
  facet normal  -0.000000e+000  0.000000e+000 -9.999999e-001
    outer loop
      vertex -7.476171e+000  6.022199e+000 -1.500000e+001
      vertex -6.095372e+000  4.369947e+000 -1.500000e+001
      vertex -9.211677e+000  2.702780e+000 -1.500000e+001
    endloop
  endfacet
  facet normal  -0.000000e+000  0.000000e+000 -1.000000e+000
    outer loop
      vertex  6.095372e+000 -4.369947e+000 -1.500000e+001
      vertex  7.476171e+000 -6.022199e+000 -1.500000e+001
      vertex  3.595691e+000 -6.581869e+000 -1.500000e+001
    endloop
  endfacet
  facet normal  0.000000e+000  0.000000e+000 -1.000000e+000
    outer loop
      vertex  3.595691e+000 -6.581869e+000 -1.500000e+001
      vertex  7.476171e+000 -6.022199e+000 -1.500000e+001
      vertex  4.602485e+000 -8.424792e+000 -1.500000e+001
    endloop
  endfacet
  facet normal  0.000000e+000  0.000000e+000 -1.000000e+000
    outer loop
      vertex  3.595691e+000 -6.581869e+000 -1.500000e+001
      vertex  4.602485e+000 -8.424792e+000 -1.500000e+001
      vertex  3.838401e-001 -7.490171e+000 -1.500000e+001
    endloop
  endfacet
  facet normal -4.159702e-016 -4.658918e-015 -1.000000e+000
    outer loop
      vertex -2.165217e+000 -1.078480e+001  7.105427e-015
      vertex -2.702780e+000 -9.211677e+000  0.000000e+000
      vertex  1.028113e+000 -9.544788e+000  0.000000e+000
    endloop
  endfacet
  facet normal  3.129259e-015 -3.742833e-015 -1.000000e+000
    outer loop
      vertex  7.476171e+000 -6.022199e+000  0.000000e+000
      vertex  8.257299e+000 -7.267531e+000  7.105427e-015
      vertex  4.602485e+000 -8.424792e+000  0.000000e+000
    endloop
  endfacet
  facet normal -1.555672e-015  4.609834e-015 -1.000000e+000
    outer loop
      vertex -5.273681e+000  9.653408e+000  7.105427e-015
      vertex -1.653979e+000  1.087494e+001  7.105427e-015
      vertex -1.028113e+000  9.544788e+000  0.000000e+000
    endloop
  endfacet
  facet normal -1.547276e-015  4.937999e-015 -1.000000e+000
    outer loop
      vertex -5.273681e+000  9.653408e+000  7.105427e-015
      vertex -1.028113e+000  9.544788e+000  0.000000e+000
      vertex -4.602485e+000  8.424792e+000  0.000000e+000
    endloop
  endfacet
  facet normal -3.218591e-015  4.024955e-015 -1.000000e+000
    outer loop
      vertex -5.273681e+000  9.653408e+000  7.105427e-015
      vertex -4.602485e+000  8.424792e+000  0.000000e+000
      vertex -8.257299e+000  7.267531e+000  7.105427e-015
    endloop
  endfacet
  facet normal  0.000000e+000  0.000000e+000 -1.000000e+000
    outer loop
      vertex  5.273681e+000 -9.653408e+000  7.105427e-015
      vertex  1.653979e+000 -1.087494e+001  7.105427e-015
      vertex -2.165217e+000 -1.078480e+001  7.105427e-015
    endloop
  endfacet
  facet normal  1.432620e-015 -9.419498e-015 -1.000000e+000
    outer loop
      vertex  5.273681e+000 -9.653408e+000  7.105427e-015
      vertex -2.165217e+000 -1.078480e+001  7.105427e-015
      vertex  1.028113e+000 -9.544788e+000  0.000000e+000
    endloop
  endfacet
  facet normal  1.547276e-015 -4.937999e-015 -1.000000e+000
    outer loop
      vertex  5.273681e+000 -9.653408e+000  7.105427e-015
      vertex  1.028113e+000 -9.544788e+000  0.000000e+000
      vertex  4.602485e+000 -8.424792e+000  0.000000e+000
    endloop
  endfacet
  facet normal  3.218591e-015 -4.024955e-015 -1.000000e+000
    outer loop
      vertex  5.273681e+000 -9.653408e+000  7.105427e-015
      vertex  4.602485e+000 -8.424792e+000  0.000000e+000
      vertex  8.257299e+000 -7.267531e+000  7.105427e-015
    endloop
  endfacet
  facet normal  1.274996e-016  5.401801e-015 -1.000000e+000
    outer loop
      vertex -1.653979e+000  1.087494e+001  7.105427e-015
      vertex  2.165217e+000  1.078480e+001  7.105427e-015
      vertex -1.028113e+000  9.544788e+000  0.000000e+000
    endloop
  endfacet
  facet normal  1.116282e-015  2.855440e-015 -1.000000e+000
    outer loop
      vertex -1.028113e+000  9.544788e+000  0.000000e+000
      vertex  2.165217e+000  1.078480e+001  7.105427e-015
      vertex  5.723256e+000  9.393846e+000  7.105427e-015
    endloop
  endfacet
  facet normal  1.404015e-015  1.572514e-014 -1.000000e+000
    outer loop
      vertex -1.028113e+000  9.544788e+000  0.000000e+000
      vertex  5.723256e+000  9.393846e+000  7.105427e-015
      vertex  2.702780e+000  9.211677e+000  0.000000e+000
    endloop
  endfacet
  facet normal  2.201557e-015  2.501388e-015 -1.000000e+000
    outer loop
      vertex  2.702780e+000  9.211677e+000  0.000000e+000
      vertex  5.723256e+000  9.393846e+000  7.105427e-015
      vertex  8.590986e+000  6.869859e+000  7.105427e-015
    endloop
  endfacet
  facet normal  5.042442e-015  9.644437e-015 -1.000000e+000
    outer loop
      vertex  2.702780e+000  9.211677e+000  0.000000e+000
      vertex  8.590986e+000  6.869859e+000  7.105427e-015
      vertex  6.022199e+000  7.476171e+000  0.000000e+000
    endloop
  endfacet
  facet normal  3.175527e-015  1.734798e-015 -9.999999e-001
    outer loop
      vertex  6.022199e+000  7.476171e+000  0.000000e+000
      vertex  8.590986e+000  6.869859e+000  7.105427e-015
      vertex  1.042252e+001  3.517265e+000  7.105427e-015
    endloop
  endfacet
  facet normal  6.516309e-015  5.448071e-015 -9.999999e-001
    outer loop
      vertex  6.022199e+000  7.476171e+000  0.000000e+000
      vertex  1.042252e+001  3.517265e+000  7.105427e-015
      vertex  8.424792e+000  4.602485e+000  0.000000e+000
    endloop
  endfacet
  facet normal  3.877087e-015  5.896695e-016 -1.000000e+000
    outer loop
      vertex  8.424792e+000  4.602485e+000  0.000000e+000
      vertex  1.042252e+001  3.517265e+000  7.105427e-015
      vertex  1.099694e+001 -2.595624e-001  7.105427e-015
    endloop
  endfacet
  facet normal  6.775674e-015  2.123094e-015 -1.000000e+000
    outer loop
      vertex  8.424792e+000  4.602485e+000  0.000000e+000
      vertex  1.099694e+001 -2.595624e-001  7.105427e-015
      vertex  9.544788e+000  1.028113e+000  0.000000e+000
    endloop
  endfacet
  facet normal  4.153595e-015 -8.338985e-016 -1.000000e+000
    outer loop
      vertex  9.544788e+000  1.028113e+000  0.000000e+000
      vertex  1.099694e+001 -2.595624e-001  7.105427e-015
      vertex  1.024497e+001 -4.005083e+000  7.105427e-015
    endloop
  endfacet
  facet normal  6.180971e-015 -5.518664e-016 -1.000000e+000
    outer loop
      vertex  9.544788e+000  1.028113e+000  0.000000e+000
      vertex  1.024497e+001 -4.005083e+000  7.105427e-015
      vertex  9.211677e+000 -2.702780e+000  0.000000e+000
    endloop
  endfacet
  facet normal  3.889708e-015 -2.369828e-015 -1.000000e+000
    outer loop
      vertex  9.211677e+000 -2.702780e+000  0.000000e+000
      vertex  1.024497e+001 -4.005083e+000  7.105427e-015
      vertex  8.257299e+000 -7.267531e+000  7.105427e-015
    endloop
  endfacet
  facet normal  4.961088e-015 -2.593827e-015 -1.000000e+000
    outer loop
      vertex  9.211677e+000 -2.702780e+000  0.000000e+000
      vertex  8.257299e+000 -7.267531e+000  7.105427e-015
      vertex  7.476171e+000 -6.022199e+000  0.000000e+000
    endloop
  endfacet
  facet normal -4.145093e-015  2.167197e-015 -1.000000e+000
    outer loop
      vertex -9.211677e+000  2.702780e+000  0.000000e+000
      vertex -1.024497e+001  4.005083e+000  7.105427e-015
      vertex -7.476171e+000  6.022199e+000  0.000000e+000
    endloop
  endfacet
  facet normal -4.614348e-015  2.811319e-015 -1.000000e+000
    outer loop
      vertex -7.476171e+000  6.022199e+000  0.000000e+000
      vertex -1.024497e+001  4.005083e+000  7.105427e-015
      vertex -8.257299e+000  7.267531e+000  7.105427e-015
    endloop
  endfacet
  facet normal -3.129259e-015  3.742833e-015 -1.000000e+000
    outer loop
      vertex -7.476171e+000  6.022199e+000  0.000000e+000
      vertex -8.257299e+000  7.267531e+000  7.105427e-015
      vertex -4.602485e+000  8.424792e+000  0.000000e+000
    endloop
  endfacet
  facet normal -2.038005e-015 -5.213195e-015 -1.000000e+000
    outer loop
      vertex -2.165217e+000 -1.078480e+001  7.105427e-015
      vertex -5.723256e+000 -9.393846e+000  7.105427e-015
      vertex -2.702780e+000 -9.211677e+000  0.000000e+000
    endloop
  endfacet
  facet normal -2.201557e-015 -2.501388e-015 -1.000000e+000
    outer loop
      vertex -2.702780e+000 -9.211677e+000  0.000000e+000
      vertex -5.723256e+000 -9.393846e+000  7.105427e-015
      vertex -8.590986e+000 -6.869859e+000  7.105427e-015
    endloop
  endfacet
  facet normal -5.042442e-015 -9.644437e-015 -1.000000e+000
    outer loop
      vertex -2.702780e+000 -9.211677e+000  0.000000e+000
      vertex -8.590986e+000 -6.869859e+000  7.105427e-015
      vertex -6.022199e+000 -7.476171e+000  0.000000e+000
    endloop
  endfacet
  facet normal -3.175527e-015 -1.734798e-015 -9.999999e-001
    outer loop
      vertex -6.022199e+000 -7.476171e+000  0.000000e+000
      vertex -8.590986e+000 -6.869859e+000  7.105427e-015
      vertex -1.042252e+001 -3.517265e+000  7.105427e-015
    endloop
  endfacet
  facet normal -6.516309e-015 -5.448071e-015 -9.999999e-001
    outer loop
      vertex -6.022199e+000 -7.476171e+000  0.000000e+000
      vertex -1.042252e+001 -3.517265e+000  7.105427e-015
      vertex -8.424792e+000 -4.602485e+000  0.000000e+000
    endloop
  endfacet
  facet normal -3.877087e-015 -5.896695e-016 -1.000000e+000
    outer loop
      vertex -8.424792e+000 -4.602485e+000  0.000000e+000
      vertex -1.042252e+001 -3.517265e+000  7.105427e-015
      vertex -1.099694e+001  2.595624e-001  7.105427e-015
    endloop
  endfacet
  facet normal -6.775674e-015 -2.123094e-015 -1.000000e+000
    outer loop
      vertex -8.424792e+000 -4.602485e+000  0.000000e+000
      vertex -1.099694e+001  2.595624e-001  7.105427e-015
      vertex -9.544788e+000 -1.028113e+000  0.000000e+000
    endloop
  endfacet
  facet normal -4.153595e-015  8.338985e-016 -1.000000e+000
    outer loop
      vertex -9.544788e+000 -1.028113e+000  0.000000e+000
      vertex -1.099694e+001  2.595624e-001  7.105427e-015
      vertex -1.024497e+001  4.005083e+000  7.105427e-015
    endloop
  endfacet
  facet normal -6.180971e-015  5.518664e-016 -1.000000e+000
    outer loop
      vertex -9.544788e+000 -1.028113e+000  0.000000e+000
      vertex -1.024497e+001  4.005083e+000  7.105427e-015
      vertex -9.211677e+000  2.702780e+000  0.000000e+000
    endloop
  endfacet
  facet normal  2.721249e-001 -9.622619e-001  0.000000e+000
    outer loop
      vertex  3.595691e+000 -6.581869e+000 -2.500000e+001
      vertex  3.595691e+000 -6.581869e+000 -1.500000e+001
      vertex  3.838401e-001 -7.490171e+000 -2.500000e+001
    endloop
  endfacet
  facet normal  2.721249e-001 -9.622619e-001  0.000000e+000
    outer loop
      vertex  3.838401e-001 -7.490171e+000 -2.500000e+001
      vertex  3.595691e+000 -6.581869e+000 -1.500000e+001
      vertex  3.838401e-001 -7.490171e+000 -1.500000e+001
    endloop
  endfacet
  facet normal -1.723338e-001 -9.850385e-001  -0.000000e+000
    outer loop
      vertex  3.838401e-001 -7.490171e+000 -2.500000e+001
      vertex  3.838401e-001 -7.490171e+000 -1.500000e+001
      vertex -2.904036e+000 -6.914953e+000 -2.500000e+001
    endloop
  endfacet
  facet normal -1.723338e-001 -9.850385e-001  0.000000e+000
    outer loop
      vertex -2.904036e+000 -6.914953e+000 -2.500000e+001
      vertex  3.838401e-001 -7.490171e+000 -1.500000e+001
      vertex -2.904036e+000 -6.914953e+000 -1.500000e+001
    endloop
  endfacet
  facet normal -5.826596e-001 -8.127163e-001  -0.000000e+000
    outer loop
      vertex -2.904036e+000 -6.914953e+000 -2.500000e+001
      vertex -2.904036e+000 -6.914953e+000 -1.500000e+001
      vertex -5.616731e+000 -4.970144e+000 -2.500000e+001
    endloop
  endfacet
  facet normal -5.826596e-001 -8.127163e-001  0.000000e+000
    outer loop
      vertex -5.616731e+000 -4.970144e+000 -2.500000e+001
      vertex -2.904036e+000 -6.914953e+000 -1.500000e+001
      vertex -5.616731e+000 -4.970144e+000 -1.500000e+001
    endloop
  endfacet
  facet normal -8.775826e-001 -4.794256e-001  -0.000000e+000
    outer loop
      vertex -5.616731e+000 -4.970144e+000 -2.500000e+001
      vertex -5.616731e+000 -4.970144e+000 -1.500000e+001
      vertex -7.216965e+000 -2.040936e+000 -2.500000e+001
    endloop
  endfacet
  facet normal -8.775826e-001 -4.794256e-001  0.000000e+000
    outer loop
      vertex -7.216965e+000 -2.040936e+000 -2.500000e+001
      vertex -5.616731e+000 -4.970144e+000 -1.500000e+001
      vertex -7.216965e+000 -2.040936e+000 -1.500000e+001
    endloop
  endfacet
  facet normal -9.986895e-001 -5.117871e-002  -0.000000e+000
    outer loop
      vertex -7.216965e+000 -2.040936e+000 -2.500000e+001
      vertex -7.216965e+000 -2.040936e+000 -1.500000e+001
      vertex -7.387790e+000  1.292503e+000 -2.500000e+001
    endloop
  endfacet
  facet normal -9.986895e-001 -5.117871e-002  0.000000e+000
    outer loop
      vertex -7.387790e+000  1.292503e+000 -2.500000e+001
      vertex -7.216965e+000 -2.040936e+000 -1.500000e+001
      vertex -7.387790e+000  1.292503e+000 -1.500000e+001
    endloop
  endfacet
  facet normal -9.219938e-001  3.872048e-001  0.000000e+000
    outer loop
      vertex -7.387790e+000  1.292503e+000 -2.500000e+001
      vertex -7.387790e+000  1.292503e+000 -1.500000e+001
      vertex -6.095372e+000  4.369947e+000 -2.500000e+001
    endloop
  endfacet
  facet normal -9.219938e-001  3.872048e-001  0.000000e+000
    outer loop
      vertex -6.095372e+000  4.369947e+000 -2.500000e+001
      vertex -7.387790e+000  1.292503e+000 -1.500000e+001
      vertex -6.095372e+000  4.369947e+000 -1.500000e+001
    endloop
  endfacet
  facet normal -6.626858e-001  7.488975e-001  0.000000e+000
    outer loop
      vertex -6.095372e+000  4.369947e+000 -2.500000e+001
      vertex -6.095372e+000  4.369947e+000 -1.500000e+001
      vertex -3.595691e+000  6.581869e+000 -2.500000e+001
    endloop
  endfacet
  facet normal -6.626858e-001  7.488975e-001  0.000000e+000
    outer loop
      vertex -3.595691e+000  6.581869e+000 -2.500000e+001
      vertex -6.095372e+000  4.369947e+000 -1.500000e+001
      vertex -3.595691e+000  6.581869e+000 -1.500000e+001
    endloop
  endfacet
  facet normal  2.990057e-001 -9.542513e-001  0.000000e+000
    outer loop
      vertex  4.602485e+000 -8.424792e+000 -1.500000e+001
      vertex  4.602485e+000 -8.424792e+000  0.000000e+000
      vertex  1.028113e+000 -9.544788e+000 -1.500000e+001
    endloop
  endfacet
  facet normal  2.990057e-001 -9.542513e-001  0.000000e+000
    outer loop
      vertex  1.028113e+000 -9.544788e+000 -1.500000e+001
      vertex  4.602485e+000 -8.424792e+000  0.000000e+000
      vertex  1.028113e+000 -9.544788e+000  0.000000e+000
    endloop
  endfacet
  facet normal -8.893096e-002 -9.960377e-001  -0.000000e+000
    outer loop
      vertex  1.028113e+000 -9.544788e+000 -1.500000e+001
      vertex  1.028113e+000 -9.544788e+000  0.000000e+000
      vertex -2.702780e+000 -9.211677e+000 -1.500000e+001
    endloop
  endfacet
  facet normal -8.893096e-002 -9.960377e-001  0.000000e+000
    outer loop
      vertex -2.702780e+000 -9.211677e+000 -1.500000e+001
      vertex  1.028113e+000 -9.544788e+000  0.000000e+000
      vertex -2.702780e+000 -9.211677e+000  0.000000e+000
    endloop
  endfacet
  facet normal -4.633287e-001 -8.861865e-001  -0.000000e+000
    outer loop
      vertex -2.702780e+000 -9.211677e+000 -1.500000e+001
      vertex -2.702780e+000 -9.211677e+000  0.000000e+000
      vertex -6.022199e+000 -7.476171e+000 -1.500000e+001
    endloop
  endfacet
  facet normal -4.633287e-001 -8.861865e-001  0.000000e+000
    outer loop
      vertex -6.022199e+000 -7.476171e+000 -1.500000e+001
      vertex -2.702780e+000 -9.211677e+000  0.000000e+000
      vertex -6.022199e+000 -7.476171e+000  0.000000e+000
    endloop
  endfacet
  facet normal -7.671888e-001 -6.414212e-001  -0.000000e+000
    outer loop
      vertex -6.022199e+000 -7.476171e+000 -1.500000e+001
      vertex -6.022199e+000 -7.476171e+000  0.000000e+000
      vertex -8.424792e+000 -4.602485e+000 -1.500000e+001
    endloop
  endfacet
  facet normal -7.671888e-001 -6.414212e-001  0.000000e+000
    outer loop
      vertex -8.424792e+000 -4.602485e+000 -1.500000e+001
      vertex -6.022199e+000 -7.476171e+000  0.000000e+000
      vertex -8.424792e+000 -4.602485e+000  0.000000e+000
    endloop
  endfacet
  facet normal -9.542513e-001 -2.990057e-001  -0.000000e+000
    outer loop
      vertex -8.424792e+000 -4.602485e+000 -1.500000e+001
      vertex -8.424792e+000 -4.602485e+000  0.000000e+000
      vertex -9.544788e+000 -1.028113e+000 -1.500000e+001
    endloop
  endfacet
  facet normal -9.542513e-001 -2.990057e-001  0.000000e+000
    outer loop
      vertex -9.544788e+000 -1.028113e+000 -1.500000e+001
      vertex -8.424792e+000 -4.602485e+000  0.000000e+000
      vertex -9.544788e+000 -1.028113e+000  0.000000e+000
    endloop
  endfacet
  facet normal -9.960377e-001  8.893096e-002  0.000000e+000
    outer loop
      vertex -9.544788e+000 -1.028113e+000 -1.500000e+001
      vertex -9.544788e+000 -1.028113e+000  0.000000e+000
      vertex -9.211677e+000  2.702780e+000 -1.500000e+001
    endloop
  endfacet
  facet normal -9.960377e-001  8.893096e-002  0.000000e+000
    outer loop
      vertex -9.211677e+000  2.702780e+000 -1.500000e+001
      vertex -9.544788e+000 -1.028113e+000  0.000000e+000
      vertex -9.211677e+000  2.702780e+000  0.000000e+000
    endloop
  endfacet
  facet normal -8.861865e-001  4.633287e-001  0.000000e+000
    outer loop
      vertex -9.211677e+000  2.702780e+000 -1.500000e+001
      vertex -9.211677e+000  2.702780e+000  0.000000e+000
      vertex -7.476171e+000  6.022199e+000 -1.500000e+001
    endloop
  endfacet
  facet normal -8.861865e-001  4.633287e-001  0.000000e+000
    outer loop
      vertex -7.476171e+000  6.022199e+000 -1.500000e+001
      vertex -9.211677e+000  2.702780e+000  0.000000e+000
      vertex -7.476171e+000  6.022199e+000  0.000000e+000
    endloop
  endfacet
  facet normal -6.414212e-001  7.671888e-001  0.000000e+000
    outer loop
      vertex -7.476171e+000  6.022199e+000 -1.500000e+001
      vertex -7.476171e+000  6.022199e+000  0.000000e+000
      vertex -4.602485e+000  8.424792e+000 -1.500000e+001
    endloop
  endfacet
  facet normal -6.414212e-001  7.671888e-001  0.000000e+000
    outer loop
      vertex -4.602485e+000  8.424792e+000 -1.500000e+001
      vertex -7.476171e+000  6.022199e+000  0.000000e+000
      vertex -4.602485e+000  8.424792e+000  0.000000e+000
    endloop
  endfacet
  facet normal -5.141928e-001  6.430153e-001  5.675713e-001
    outer loop
      vertex -4.602485e+000  8.424792e+000  2.000000e+000
      vertex -5.273681e+000  9.653408e+000  7.105427e-015
      vertex -8.257299e+000  7.267531e+000  7.105427e-015
    endloop
  endfacet
  facet normal -5.185071e-001  6.201741e-001  5.886719e-001
    outer loop
      vertex -4.602485e+000  8.424792e+000  2.000000e+000
      vertex -8.257299e+000  7.267531e+000  7.105427e-015
      vertex -7.476171e+000  6.022199e+000  2.000000e+000
    endloop
  endfacet
  facet normal  2.417079e-001 -7.713901e-001  5.886719e-001
    outer loop
      vertex  4.602485e+000 -8.424792e+000  2.000000e+000
      vertex  1.028113e+000 -9.544788e+000  2.000000e+000
      vertex  1.653979e+000 -1.087494e+001  7.105427e-015
    endloop
  endfacet
  facet normal  2.632591e-001 -7.801009e-001  5.675713e-001
    outer loop
      vertex  4.602485e+000 -8.424792e+000  2.000000e+000
      vertex  1.653979e+000 -1.087494e+001  7.105427e-015
      vertex  5.273681e+000 -9.653408e+000  7.105427e-015
    endloop
  endfacet
  facet normal -1.971650e-002 -8.353330e-001  5.493906e-001
    outer loop
      vertex  1.028113e+000 -9.544788e+000  2.000000e+000
      vertex -2.165217e+000 -1.078480e+001  7.105427e-015
      vertex  1.653979e+000 -1.087494e+001  7.105427e-015
    endloop
  endfacet
  facet normal -3.074062e-001 -7.863420e-001  5.358802e-001
    outer loop
      vertex -2.702780e+000 -9.211677e+000  2.000000e+000
      vertex -5.723256e+000 -9.393846e+000  7.105427e-015
      vertex -2.165217e+000 -1.078480e+001  7.105427e-015
    endloop
  endfacet
  facet normal -7.081915e-002 -7.931831e-001  6.048513e-001
    outer loop
      vertex -2.702780e+000 -9.211677e+000  2.000000e+000
      vertex -2.165217e+000 -1.078480e+001  7.105427e-015
      vertex  1.028113e+000 -9.544788e+000  2.000000e+000
    endloop
  endfacet
  facet normal -5.612633e-001 -6.377021e-001  5.275599e-001
    outer loop
      vertex -6.022199e+000 -7.476171e+000  2.000000e+000
      vertex -8.590986e+000 -6.869859e+000  7.105427e-015
      vertex -5.723256e+000 -9.393846e+000  7.105427e-015
    endloop
  endfacet
  facet normal -3.652552e-001 -6.986061e-001  6.152546e-001
    outer loop
      vertex -6.022199e+000 -7.476171e+000  2.000000e+000
      vertex -5.723256e+000 -9.393846e+000  7.105427e-015
      vertex -2.702780e+000 -9.211677e+000  2.000000e+000
    endloop
  endfacet
  facet normal -7.470474e-001 -4.081137e-001  5.247505e-001
    outer loop
      vertex -8.424792e+000 -4.602485e+000  2.000000e+000
      vertex -1.042252e+001 -3.517265e+000  7.105427e-015
      vertex -8.590986e+000 -6.869859e+000  7.105427e-015
    endloop
  endfacet
  facet normal -6.017292e-001 -5.030860e-001  6.203439e-001
    outer loop
      vertex -8.424792e+000 -4.602485e+000  2.000000e+000
      vertex -8.590986e+000 -6.869859e+000  7.105427e-015
      vertex -6.022199e+000 -7.476171e+000  2.000000e+000
    endloop
  endfacet
  facet normal -8.398597e-001 -1.277350e-001  5.275598e-001
    outer loop
      vertex -9.544788e+000 -1.028113e+000  2.000000e+000
      vertex -1.099694e+001  2.595624e-001  7.105427e-015
      vertex -1.042252e+001 -3.517265e+000  7.105427e-015
    endloop
  endfacet
  facet normal -7.484480e-001 -2.345192e-001  6.203437e-001
    outer loop
      vertex -9.544788e+000 -1.028113e+000  2.000000e+000
      vertex -1.042252e+001 -3.517265e+000  7.105427e-015
      vertex -8.424792e+000 -4.602485e+000  2.000000e+000
    endloop
  endfacet
  facet normal -8.277764e-001  1.661889e-001  5.358803e-001
    outer loop
      vertex -9.211677e+000  2.702780e+000  2.000000e+000
      vertex -1.024497e+001  4.005083e+000  7.105427e-015
      vertex -1.099694e+001  2.595624e-001  7.105427e-015
    endloop
  endfacet
  facet normal -7.852049e-001  7.010682e-002  6.152545e-001
    outer loop
      vertex -9.211677e+000  2.702780e+000  2.000000e+000
      vertex -1.099694e+001  2.595624e-001  7.105427e-015
      vertex -9.544788e+000 -1.028113e+000  2.000000e+000
    endloop
  endfacet
  facet normal -7.135613e-001  4.347415e-001  5.493906e-001
    outer loop
      vertex -7.476171e+000  6.022199e+000  2.000000e+000
      vertex -8.257299e+000  7.267531e+000  7.105427e-015
      vertex -1.024497e+001  4.005083e+000  7.105427e-015
    endloop
  endfacet
  facet normal -7.057043e-001  3.689664e-001  6.048514e-001
    outer loop
      vertex -7.476171e+000  6.022199e+000  2.000000e+000
      vertex -1.024497e+001  4.005083e+000  7.105427e-015
      vertex -9.211677e+000  2.702780e+000  2.000000e+000
    endloop
  endfacet
  facet normal -2.721249e-001  9.622619e-001  0.000000e+000
    outer loop
      vertex -3.595691e+000  6.581869e+000 -2.500000e+001
      vertex -3.595691e+000  6.581869e+000 -1.500000e+001
      vertex -3.838401e-001  7.490171e+000 -2.500000e+001
    endloop
  endfacet
  facet normal -2.721249e-001  9.622619e-001  0.000000e+000
    outer loop
      vertex -3.838401e-001  7.490171e+000 -2.500000e+001
      vertex -3.595691e+000  6.581869e+000 -1.500000e+001
      vertex -3.838401e-001  7.490171e+000 -1.500000e+001
    endloop
  endfacet
  facet normal  1.723338e-001  9.850385e-001  0.000000e+000
    outer loop
      vertex -3.838401e-001  7.490171e+000 -2.500000e+001
      vertex -3.838401e-001  7.490171e+000 -1.500000e+001
      vertex  2.904036e+000  6.914953e+000 -2.500000e+001
    endloop
  endfacet
  facet normal  1.723338e-001  9.850385e-001  -0.000000e+000
    outer loop
      vertex  2.904036e+000  6.914953e+000 -2.500000e+001
      vertex -3.838401e-001  7.490171e+000 -1.500000e+001
      vertex  2.904036e+000  6.914953e+000 -1.500000e+001
    endloop
  endfacet
  facet normal  5.826596e-001  8.127163e-001  0.000000e+000
    outer loop
      vertex  2.904036e+000  6.914953e+000 -2.500000e+001
      vertex  2.904036e+000  6.914953e+000 -1.500000e+001
      vertex  5.616731e+000  4.970144e+000 -2.500000e+001
    endloop
  endfacet
  facet normal  5.826596e-001  8.127163e-001  -0.000000e+000
    outer loop
      vertex  5.616731e+000  4.970144e+000 -2.500000e+001
      vertex  2.904036e+000  6.914953e+000 -1.500000e+001
      vertex  5.616731e+000  4.970144e+000 -1.500000e+001
    endloop
  endfacet
  facet normal  8.775826e-001  4.794256e-001  0.000000e+000
    outer loop
      vertex  5.616731e+000  4.970144e+000 -2.500000e+001
      vertex  5.616731e+000  4.970144e+000 -1.500000e+001
      vertex  7.216965e+000  2.040936e+000 -2.500000e+001
    endloop
  endfacet
  facet normal  8.775826e-001  4.794256e-001  -0.000000e+000
    outer loop
      vertex  7.216965e+000  2.040936e+000 -2.500000e+001
      vertex  5.616731e+000  4.970144e+000 -1.500000e+001
      vertex  7.216965e+000  2.040936e+000 -1.500000e+001
    endloop
  endfacet
  facet normal  9.986895e-001  5.117871e-002  0.000000e+000
    outer loop
      vertex  7.216965e+000  2.040936e+000 -2.500000e+001
      vertex  7.216965e+000  2.040936e+000 -1.500000e+001
      vertex  7.387790e+000 -1.292503e+000 -2.500000e+001
    endloop
  endfacet
  facet normal  9.986895e-001  5.117871e-002  -0.000000e+000
    outer loop
      vertex  7.387790e+000 -1.292503e+000 -2.500000e+001
      vertex  7.216965e+000  2.040936e+000 -1.500000e+001
      vertex  7.387790e+000 -1.292503e+000 -1.500000e+001
    endloop
  endfacet
  facet normal  9.219938e-001 -3.872048e-001  0.000000e+000
    outer loop
      vertex  7.387790e+000 -1.292503e+000 -2.500000e+001
      vertex  7.387790e+000 -1.292503e+000 -1.500000e+001
      vertex  6.095372e+000 -4.369947e+000 -2.500000e+001
    endloop
  endfacet
  facet normal  9.219938e-001 -3.872048e-001  0.000000e+000
    outer loop
      vertex  6.095372e+000 -4.369947e+000 -2.500000e+001
      vertex  7.387790e+000 -1.292503e+000 -1.500000e+001
      vertex  6.095372e+000 -4.369947e+000 -1.500000e+001
    endloop
  endfacet
  facet normal  6.626858e-001 -7.488975e-001  0.000000e+000
    outer loop
      vertex  6.095372e+000 -4.369947e+000 -2.500000e+001
      vertex  6.095372e+000 -4.369947e+000 -1.500000e+001
      vertex  3.595691e+000 -6.581869e+000 -2.500000e+001
    endloop
  endfacet
  facet normal  6.626858e-001 -7.488975e-001  0.000000e+000
    outer loop
      vertex  3.595691e+000 -6.581869e+000 -2.500000e+001
      vertex  6.095372e+000 -4.369947e+000 -1.500000e+001
      vertex  3.595691e+000 -6.581869e+000 -1.500000e+001
    endloop
  endfacet
  facet normal -2.990057e-001  9.542513e-001  0.000000e+000
    outer loop
      vertex -4.602485e+000  8.424792e+000 -1.500000e+001
      vertex -4.602485e+000  8.424792e+000  0.000000e+000
      vertex -1.028113e+000  9.544788e+000 -1.500000e+001
    endloop
  endfacet
  facet normal -2.990057e-001  9.542513e-001  0.000000e+000
    outer loop
      vertex -1.028113e+000  9.544788e+000 -1.500000e+001
      vertex -4.602485e+000  8.424792e+000  0.000000e+000
      vertex -1.028113e+000  9.544788e+000  0.000000e+000
    endloop
  endfacet
  facet normal  8.893096e-002  9.960377e-001  0.000000e+000
    outer loop
      vertex -1.028113e+000  9.544788e+000 -1.500000e+001
      vertex -1.028113e+000  9.544788e+000  0.000000e+000
      vertex  2.702780e+000  9.211677e+000 -1.500000e+001
    endloop
  endfacet
  facet normal  8.893096e-002  9.960377e-001  -0.000000e+000
    outer loop
      vertex  2.702780e+000  9.211677e+000 -1.500000e+001
      vertex -1.028113e+000  9.544788e+000  0.000000e+000
      vertex  2.702780e+000  9.211677e+000  0.000000e+000
    endloop
  endfacet
  facet normal  4.633287e-001  8.861865e-001  0.000000e+000
    outer loop
      vertex  2.702780e+000  9.211677e+000 -1.500000e+001
      vertex  2.702780e+000  9.211677e+000  0.000000e+000
      vertex  6.022199e+000  7.476171e+000 -1.500000e+001
    endloop
  endfacet
  facet normal  4.633287e-001  8.861865e-001  -0.000000e+000
    outer loop
      vertex  6.022199e+000  7.476171e+000 -1.500000e+001
      vertex  2.702780e+000  9.211677e+000  0.000000e+000
      vertex  6.022199e+000  7.476171e+000  0.000000e+000
    endloop
  endfacet
  facet normal  7.671888e-001  6.414212e-001  0.000000e+000
    outer loop
      vertex  6.022199e+000  7.476171e+000 -1.500000e+001
      vertex  6.022199e+000  7.476171e+000  0.000000e+000
      vertex  8.424792e+000  4.602485e+000 -1.500000e+001
    endloop
  endfacet
  facet normal  7.671888e-001  6.414212e-001  -0.000000e+000
    outer loop
      vertex  8.424792e+000  4.602485e+000 -1.500000e+001
      vertex  6.022199e+000  7.476171e+000  0.000000e+000
      vertex  8.424792e+000  4.602485e+000  0.000000e+000
    endloop
  endfacet
  facet normal  9.542513e-001  2.990057e-001  0.000000e+000
    outer loop
      vertex  8.424792e+000  4.602485e+000 -1.500000e+001
      vertex  8.424792e+000  4.602485e+000  0.000000e+000
      vertex  9.544788e+000  1.028113e+000 -1.500000e+001
    endloop
  endfacet
  facet normal  9.542513e-001  2.990057e-001  -0.000000e+000
    outer loop
      vertex  9.544788e+000  1.028113e+000 -1.500000e+001
      vertex  8.424792e+000  4.602485e+000  0.000000e+000
      vertex  9.544788e+000  1.028113e+000  0.000000e+000
    endloop
  endfacet
  facet normal  9.960377e-001 -8.893096e-002  0.000000e+000
    outer loop
      vertex  9.544788e+000  1.028113e+000 -1.500000e+001
      vertex  9.544788e+000  1.028113e+000  0.000000e+000
      vertex  9.211677e+000 -2.702780e+000 -1.500000e+001
    endloop
  endfacet
  facet normal  9.960377e-001 -8.893096e-002  0.000000e+000
    outer loop
      vertex  9.211677e+000 -2.702780e+000 -1.500000e+001
      vertex  9.544788e+000  1.028113e+000  0.000000e+000
      vertex  9.211677e+000 -2.702780e+000  0.000000e+000
    endloop
  endfacet
  facet normal  8.861865e-001 -4.633287e-001  0.000000e+000
    outer loop
      vertex  9.211677e+000 -2.702780e+000 -1.500000e+001
      vertex  9.211677e+000 -2.702780e+000  0.000000e+000
      vertex  7.476171e+000 -6.022199e+000 -1.500000e+001
    endloop
  endfacet
  facet normal  8.861865e-001 -4.633287e-001  0.000000e+000
    outer loop
      vertex  7.476171e+000 -6.022199e+000 -1.500000e+001
      vertex  9.211677e+000 -2.702780e+000  0.000000e+000
      vertex  7.476171e+000 -6.022199e+000  0.000000e+000
    endloop
  endfacet
  facet normal  6.414212e-001 -7.671888e-001  0.000000e+000
    outer loop
      vertex  7.476171e+000 -6.022199e+000 -1.500000e+001
      vertex  7.476171e+000 -6.022199e+000  0.000000e+000
      vertex  4.602485e+000 -8.424792e+000 -1.500000e+001
    endloop
  endfacet
  facet normal  6.414212e-001 -7.671888e-001  0.000000e+000
    outer loop
      vertex  4.602485e+000 -8.424792e+000 -1.500000e+001
      vertex  7.476171e+000 -6.022199e+000  0.000000e+000
      vertex  4.602485e+000 -8.424792e+000  0.000000e+000
    endloop
  endfacet
  facet normal  5.141928e-001 -6.430153e-001  5.675713e-001
    outer loop
      vertex  4.602485e+000 -8.424792e+000  2.000000e+000
      vertex  5.273681e+000 -9.653408e+000  7.105427e-015
      vertex  8.257299e+000 -7.267531e+000  7.105427e-015
    endloop
  endfacet
  facet normal  5.185071e-001 -6.201741e-001  5.886719e-001
    outer loop
      vertex  4.602485e+000 -8.424792e+000  2.000000e+000
      vertex  8.257299e+000 -7.267531e+000  7.105427e-015
      vertex  7.476171e+000 -6.022199e+000  2.000000e+000
    endloop
  endfacet
  facet normal -2.417079e-001  7.713901e-001  5.886719e-001
    outer loop
      vertex -4.602485e+000  8.424792e+000  2.000000e+000
      vertex -1.028113e+000  9.544788e+000  2.000000e+000
      vertex -1.653979e+000  1.087494e+001  7.105427e-015
    endloop
  endfacet
  facet normal -2.632591e-001  7.801009e-001  5.675713e-001
    outer loop
      vertex -4.602485e+000  8.424792e+000  2.000000e+000
      vertex -1.653979e+000  1.087494e+001  7.105427e-015
      vertex -5.273681e+000  9.653408e+000  7.105427e-015
    endloop
  endfacet
  facet normal  1.971650e-002  8.353330e-001  5.493906e-001
    outer loop
      vertex -1.028113e+000  9.544788e+000  2.000000e+000
      vertex  2.165217e+000  1.078480e+001  7.105427e-015
      vertex -1.653979e+000  1.087494e+001  7.105427e-015
    endloop
  endfacet
  facet normal  3.074062e-001  7.863420e-001  5.358802e-001
    outer loop
      vertex  2.702780e+000  9.211677e+000  2.000000e+000
      vertex  5.723256e+000  9.393846e+000  7.105427e-015
      vertex  2.165217e+000  1.078480e+001  7.105427e-015
    endloop
  endfacet
  facet normal  7.081915e-002  7.931831e-001  6.048513e-001
    outer loop
      vertex  2.702780e+000  9.211677e+000  2.000000e+000
      vertex  2.165217e+000  1.078480e+001  7.105427e-015
      vertex -1.028113e+000  9.544788e+000  2.000000e+000
    endloop
  endfacet
  facet normal  5.612633e-001  6.377021e-001  5.275599e-001
    outer loop
      vertex  6.022199e+000  7.476171e+000  2.000000e+000
      vertex  8.590986e+000  6.869859e+000  7.105427e-015
      vertex  5.723256e+000  9.393846e+000  7.105427e-015
    endloop
  endfacet
  facet normal  3.652552e-001  6.986061e-001  6.152546e-001
    outer loop
      vertex  6.022199e+000  7.476171e+000  2.000000e+000
      vertex  5.723256e+000  9.393846e+000  7.105427e-015
      vertex  2.702780e+000  9.211677e+000  2.000000e+000
    endloop
  endfacet
  facet normal  7.470474e-001  4.081137e-001  5.247505e-001
    outer loop
      vertex  8.424792e+000  4.602485e+000  2.000000e+000
      vertex  1.042252e+001  3.517265e+000  7.105427e-015
      vertex  8.590986e+000  6.869859e+000  7.105427e-015
    endloop
  endfacet
  facet normal  6.017292e-001  5.030860e-001  6.203439e-001
    outer loop
      vertex  8.424792e+000  4.602485e+000  2.000000e+000
      vertex  8.590986e+000  6.869859e+000  7.105427e-015
      vertex  6.022199e+000  7.476171e+000  2.000000e+000
    endloop
  endfacet
  facet normal  8.398597e-001  1.277350e-001  5.275598e-001
    outer loop
      vertex  9.544788e+000  1.028113e+000  2.000000e+000
      vertex  1.099694e+001 -2.595624e-001  7.105427e-015
      vertex  1.042252e+001  3.517265e+000  7.105427e-015
    endloop
  endfacet
  facet normal  7.484480e-001  2.345192e-001  6.203437e-001
    outer loop
      vertex  9.544788e+000  1.028113e+000  2.000000e+000
      vertex  1.042252e+001  3.517265e+000  7.105427e-015
      vertex  8.424792e+000  4.602485e+000  2.000000e+000
    endloop
  endfacet
  facet normal  8.277764e-001 -1.661889e-001  5.358803e-001
    outer loop
      vertex  9.211677e+000 -2.702780e+000  2.000000e+000
      vertex  1.024497e+001 -4.005083e+000  7.105427e-015
      vertex  1.099694e+001 -2.595624e-001  7.105427e-015
    endloop
  endfacet
  facet normal  7.852049e-001 -7.010682e-002  6.152545e-001
    outer loop
      vertex  9.211677e+000 -2.702780e+000  2.000000e+000
      vertex  1.099694e+001 -2.595624e-001  7.105427e-015
      vertex  9.544788e+000  1.028113e+000  2.000000e+000
    endloop
  endfacet
  facet normal  7.135613e-001 -4.347415e-001  5.493906e-001
    outer loop
      vertex  7.476171e+000 -6.022199e+000  2.000000e+000
      vertex  8.257299e+000 -7.267531e+000  7.105427e-015
      vertex  1.024497e+001 -4.005083e+000  7.105427e-015
    endloop
  endfacet
  facet normal  7.057043e-001 -3.689664e-001  6.048514e-001
    outer loop
      vertex  7.476171e+000 -6.022199e+000  2.000000e+000
      vertex  1.024497e+001 -4.005083e+000  7.105427e-015
      vertex  9.211677e+000 -2.702780e+000  2.000000e+000
    endloop
  endfacet
endsolid CATIA STL
