solid CATIA STL
  facet normal -2.588256e-001  5.954695e-002 -9.640868e-001
    outer loop
      vertex -2.767348e+001 -1.022615e+001  9.872742e+000
      vertex -2.941215e+001 -1.271994e+000  1.089257e+001
      vertex -2.938489e+001 -9.830157e-001  1.090310e+001
    endloop
  endfacet
  facet normal -2.588173e-001  5.954875e-002 -9.640890e-001
    outer loop
      vertex -2.767348e+001 -1.022615e+001  9.872742e+000
      vertex -2.938489e+001 -9.830157e-001  1.090310e+001
      vertex -2.920702e+001 -7.558864e-001  1.086938e+001
    endloop
  endfacet
  facet normal -2.588198e-001  5.954826e-002 -9.640883e-001
    outer loop
      vertex -2.767348e+001 -1.022615e+001  9.872742e+000
      vertex -2.920702e+001 -7.558864e-001  1.086938e+001
      vertex -2.893856e+001 -6.672502e-001  1.080279e+001
    endloop
  endfacet
  facet normal -2.588185e-001  5.954847e-002 -9.640887e-001
    outer loop
      vertex -2.767348e+001 -1.022615e+001  9.872742e+000
      vertex -2.893856e+001 -6.672502e-001  1.080279e+001
      vertex -2.719990e+001 -1.061951e+001  9.721308e+000
    endloop
  endfacet
  facet normal -2.588205e-001  5.954589e-002 -9.640883e-001
    outer loop
      vertex -2.767348e+001 -1.022615e+001  9.872742e+000
      vertex -2.719990e+001 -1.061951e+001  9.721308e+000
      vertex -2.750609e+001 -1.051145e+001  9.810183e+000
    endloop
  endfacet
  facet normal -2.588190e-001  5.954836e-002 -9.640886e-001
    outer loop
      vertex -2.719990e+001 -1.061951e+001  9.721308e+000
      vertex -2.893856e+001 -6.672502e-001  1.080279e+001
      vertex -2.964724e+000 -1.021917e+001  3.239864e+000
    endloop
  endfacet
  facet normal -2.588190e-001  5.954837e-002 -9.640884e-001
    outer loop
      vertex -2.964724e+000 -1.021917e+001  3.239864e+000
      vertex -2.893856e+001 -6.672502e-001  1.080279e+001
      vertex -2.964724e+000 -2.381935e-001  3.856354e+000
    endloop
  endfacet
  facet normal  8.705822e-008 -9.980979e-001 -6.164872e-002
    outer loop
      vertex -2.719990e+001 -1.061951e+001  9.721308e+000
      vertex -2.964724e+000 -1.021917e+001  3.239864e+000
      vertex -2.681167e+001 -1.070883e+001  1.116744e+001
    endloop
  endfacet
  facet normal  8.705825e-008 -9.980979e-001 -6.164872e-002
    outer loop
      vertex -2.681167e+001 -1.070883e+001  1.116744e+001
      vertex -2.964724e+000 -1.021917e+001  3.239864e+000
      vertex -2.576495e+000 -1.030849e+001  4.685997e+000
    endloop
  endfacet
  facet normal -3.251750e-001 -9.452118e-001  2.891448e-002
    outer loop
      vertex -2.719990e+001 -1.061951e+001  9.721308e+000
      vertex -2.681167e+001 -1.070883e+001  1.116744e+001
      vertex -2.750609e+001 -1.051145e+001  9.810183e+000
    endloop
  endfacet
  facet normal -3.251711e-001 -9.452131e-001  2.891231e-002
    outer loop
      vertex -2.750609e+001 -1.051145e+001  9.810183e+000
      vertex -2.681167e+001 -1.070883e+001  1.116744e+001
      vertex -2.711786e+001 -1.060078e+001  1.125632e+001
    endloop
  endfacet
  facet normal -8.281125e-001 -5.274759e-001  1.897338e-001
    outer loop
      vertex -2.750609e+001 -1.051145e+001  9.810183e+000
      vertex -2.711786e+001 -1.060078e+001  1.125632e+001
      vertex -2.767348e+001 -1.022615e+001  9.872742e+000
    endloop
  endfacet
  facet normal -8.281131e-001 -5.274746e-001  1.897344e-001
    outer loop
      vertex -2.767348e+001 -1.022615e+001  9.872742e+000
      vertex -2.711786e+001 -1.060078e+001  1.125632e+001
      vertex -2.728525e+001 -1.031548e+001  1.131887e+001
    endloop
  endfacet
  facet normal -9.471684e-001 -2.113891e-001  2.412191e-001
    outer loop
      vertex -2.941215e+001 -1.271994e+000  1.089257e+001
      vertex -2.767348e+001 -1.022615e+001  9.872742e+000
      vertex -2.902392e+001 -1.361316e+000  1.233870e+001
    endloop
  endfacet
  facet normal -9.471684e-001 -2.113891e-001  2.412191e-001
    outer loop
      vertex -2.902392e+001 -1.361316e+000  1.233870e+001
      vertex -2.767348e+001 -1.022615e+001  9.872742e+000
      vertex -2.728525e+001 -1.031548e+001  1.131887e+001
    endloop
  endfacet
  facet normal -9.613568e-001  8.108576e-002  2.630934e-001
    outer loop
      vertex -2.941215e+001 -1.271994e+000  1.089257e+001
      vertex -2.902392e+001 -1.361316e+000  1.233870e+001
      vertex -2.938489e+001 -9.830157e-001  1.090310e+001
    endloop
  endfacet
  facet normal -9.613569e-001  8.108579e-002  2.630934e-001
    outer loop
      vertex -2.938489e+001 -9.830157e-001  1.090310e+001
      vertex -2.902392e+001 -1.361316e+000  1.233870e+001
      vertex -2.899666e+001 -1.072338e+000  1.234924e+001
    endloop
  endfacet
  facet normal -7.469925e-001  6.204421e-001  2.388595e-001
    outer loop
      vertex -2.938489e+001 -9.830157e-001  1.090310e+001
      vertex -2.899666e+001 -1.072338e+000  1.234924e+001
      vertex -2.920702e+001 -7.558864e-001  1.086938e+001
    endloop
  endfacet
  facet normal -7.469925e-001  6.204421e-001  2.388595e-001
    outer loop
      vertex -2.920702e+001 -7.558864e-001  1.086938e+001
      vertex -2.899666e+001 -1.072338e+000  1.234924e+001
      vertex -2.881880e+001 -8.452089e-001  1.231551e+001
    endloop
  endfacet
  facet normal -2.805552e-001  9.504351e-001  1.340226e-001
    outer loop
      vertex -2.920702e+001 -7.558864e-001  1.086938e+001
      vertex -2.881880e+001 -8.452089e-001  1.231551e+001
      vertex -2.893856e+001 -6.672502e-001  1.080279e+001
    endloop
  endfacet
  facet normal -2.805532e-001  9.504356e-001  1.340225e-001
    outer loop
      vertex -2.893856e+001 -6.672502e-001  1.080279e+001
      vertex -2.881880e+001 -8.452089e-001  1.231551e+001
      vertex -2.855033e+001 -7.565727e-001  1.224892e+001
    endloop
  endfacet
  facet normal  2.588189e-001 -5.954671e-002  9.640886e-001
    outer loop
      vertex -2.728525e+001 -1.031548e+001  1.131887e+001
      vertex -2.711786e+001 -1.060078e+001  1.125632e+001
      vertex -2.681167e+001 -1.070883e+001  1.116744e+001
    endloop
  endfacet
  facet normal  2.588173e-001 -5.954870e-002  9.640889e-001
    outer loop
      vertex -2.728525e+001 -1.031548e+001  1.131887e+001
      vertex -2.681167e+001 -1.070883e+001  1.116744e+001
      vertex -2.855033e+001 -7.565727e-001  1.224892e+001
    endloop
  endfacet
  facet normal  2.588182e-001 -5.954857e-002  9.640887e-001
    outer loop
      vertex -2.728525e+001 -1.031548e+001  1.131887e+001
      vertex -2.855033e+001 -7.565727e-001  1.224892e+001
      vertex -2.881880e+001 -8.452089e-001  1.231551e+001
    endloop
  endfacet
  facet normal  2.588173e-001 -5.954875e-002  9.640890e-001
    outer loop
      vertex -2.728525e+001 -1.031548e+001  1.131887e+001
      vertex -2.881880e+001 -8.452089e-001  1.231551e+001
      vertex -2.899666e+001 -1.072338e+000  1.234924e+001
    endloop
  endfacet
  facet normal  2.588256e-001 -5.954697e-002  9.640869e-001
    outer loop
      vertex -2.728525e+001 -1.031548e+001  1.131887e+001
      vertex -2.899666e+001 -1.072338e+000  1.234924e+001
      vertex -2.902392e+001 -1.361316e+000  1.233870e+001
    endloop
  endfacet
  facet normal  2.588190e-001 -5.954836e-002  9.640886e-001
    outer loop
      vertex -2.681167e+001 -1.070883e+001  1.116744e+001
      vertex -2.576495e+000 -1.030849e+001  4.685997e+000
      vertex -2.855033e+001 -7.565727e-001  1.224892e+001
    endloop
  endfacet
  facet normal  2.588190e-001 -5.954835e-002  9.640884e-001
    outer loop
      vertex -2.855033e+001 -7.565727e-001  1.224892e+001
      vertex -2.576495e+000 -1.030849e+001  4.685997e+000
      vertex -2.576495e+000 -3.275160e-001  5.302487e+000
    endloop
  endfacet
  facet normal  5.828980e-009  9.980979e-001  6.164902e-002
    outer loop
      vertex -2.893856e+001 -6.672502e-001  1.080279e+001
      vertex -2.855033e+001 -7.565727e-001  1.224892e+001
      vertex -2.964724e+000 -2.381935e-001  3.856354e+000
    endloop
  endfacet
  facet normal  2.728485e-009  9.980980e-001  6.164902e-002
    outer loop
      vertex -2.964724e+000 -2.381935e-001  3.856354e+000
      vertex -2.855033e+001 -7.565727e-001  1.224892e+001
      vertex -2.576495e+000 -3.275160e-001  5.302487e+000
    endloop
  endfacet
  facet normal  3.826834e-001 -5.695624e-002  9.221223e-001
    outer loop
      vertex -2.576495e+000 -3.275160e-001  5.302487e+000
      vertex -2.576495e+000 -1.030849e+001  4.685997e+000
      vertex -1.250000e+000 -2.936428e-001  4.754080e+000
    endloop
  endfacet
  facet normal  3.826837e-001 -5.695628e-002  9.221222e-001
    outer loop
      vertex -1.250000e+000 -2.936428e-001  4.754080e+000
      vertex -2.576495e+000 -1.030849e+001  4.685997e+000
      vertex -1.250000e+000 -1.027462e+001  4.137589e+000
    endloop
  endfacet
  facet normal  6.087615e-001 -4.890947e-002  7.918442e-001
    outer loop
      vertex -1.250000e+000 -2.936428e-001  4.754080e+000
      vertex -1.250000e+000 -1.027462e+001  4.137589e+000
      vertex -1.109127e-001 -2.397584e-001  3.881690e+000
    endloop
  endfacet
  facet normal  6.087614e-001 -4.890945e-002  7.918443e-001
    outer loop
      vertex -1.109127e-001 -2.397584e-001  3.881690e+000
      vertex -1.250000e+000 -1.027462e+001  4.137589e+000
      vertex -1.109127e-001 -1.022074e+001  3.265200e+000
    endloop
  endfacet
  facet normal  7.933534e-001 -3.752954e-002  6.076035e-001
    outer loop
      vertex -1.109127e-001 -2.397584e-001  3.881690e+000
      vertex -1.109127e-001 -1.022074e+001  3.265200e+000
      vertex  7.631397e-001 -1.695348e-001  2.744769e+000
    endloop
  endfacet
  facet normal  7.933533e-001 -3.752953e-002  6.076036e-001
    outer loop
      vertex  7.631397e-001 -1.695348e-001  2.744769e+000
      vertex -1.109127e-001 -1.022074e+001  3.265200e+000
      vertex  7.631397e-001 -1.015051e+001  2.128279e+000
    endloop
  endfacet
  facet normal  9.238795e-001 -2.359205e-002  3.819556e-001
    outer loop
      vertex  7.631397e-001 -1.695348e-001  2.744769e+000
      vertex  7.631397e-001 -1.015051e+001  2.128279e+000
      vertex  1.312592e+000 -8.775765e-002  1.420797e+000
    endloop
  endfacet
  facet normal  9.238796e-001 -2.359205e-002  3.819555e-001
    outer loop
      vertex  1.312592e+000 -8.775765e-002  1.420797e+000
      vertex  7.631397e-001 -1.015051e+001  2.128279e+000
      vertex  1.312592e+000 -1.006874e+001  8.043070e-001
    endloop
  endfacet
  facet normal  9.914449e-001 -8.046811e-003  1.302779e-001
    outer loop
      vertex  1.312592e+000 -8.775765e-002  1.420797e+000
      vertex  1.312592e+000 -1.006874e+001  8.043070e-001
      vertex  1.500000e+000  2.775558e-017 -8.881784e-016
    endloop
  endfacet
  facet normal  9.914449e-001 -8.046811e-003  1.302779e-001
    outer loop
      vertex  1.500000e+000  2.775558e-017 -8.881784e-016
      vertex  1.312592e+000 -1.006874e+001  8.043070e-001
      vertex  1.500000e+000 -9.980979e+000 -6.164901e-001
    endloop
  endfacet
  facet normal  1.000000e+000  0.000000e+000  0.000000e+000
    outer loop
      vertex  1.500000e+000 -6.067885e+000 -6.098734e+000
      vertex  1.500000e+000 -9.333229e+000 -7.134039e+000
      vertex  1.500000e+000 -5.482244e+000 -6.684375e+000
    endloop
  endfacet
  facet normal  1.000000e+000  0.000000e+000  0.000000e+000
    outer loop
      vertex  1.500000e+000 -9.333229e+000 -7.134039e+000
      vertex  1.500000e+000 -4.682244e+000 -6.898735e+000
      vertex  1.500000e+000 -5.482244e+000 -6.684375e+000
    endloop
  endfacet
  facet normal  1.000000e+000  0.000000e+000  0.000000e+000
    outer loop
      vertex  1.500000e+000 -3.296604e+000 -6.098734e+000
      vertex  1.500000e+000 -3.882244e+000 -6.684375e+000
      vertex  1.500000e+000  1.592460e-001 -6.547722e+000
    endloop
  endfacet
  facet normal  1.000000e+000  0.000000e+000  -0.000000e+000
    outer loop
      vertex  1.500000e+000 -9.980979e+000 -6.164901e-001
      vertex  1.500000e+000 -9.672734e+000 -5.606979e+000
      vertex  1.500000e+000 -6.067885e+000 -4.498734e+000
    endloop
  endfacet
  facet normal  1.000000e+000  0.000000e+000  -0.000000e+000
    outer loop
      vertex  1.500000e+000 -9.980979e+000 -6.164901e-001
      vertex  1.500000e+000 -6.067885e+000 -4.498734e+000
      vertex  1.500000e+000 -5.482244e+000 -3.913094e+000
    endloop
  endfacet
  facet normal  1.000000e+000  0.000000e+000  -0.000000e+000
    outer loop
      vertex  1.500000e+000 -9.980979e+000 -6.164901e-001
      vertex  1.500000e+000 -5.482244e+000 -3.913094e+000
      vertex  1.500000e+000 -4.682244e+000 -3.698735e+000
    endloop
  endfacet
  facet normal  1.000000e+000  -0.000000e+000  -0.000000e+000
    outer loop
      vertex  1.500000e+000 -9.980979e+000 -6.164901e-001
      vertex  1.500000e+000 -4.682244e+000 -3.698735e+000
      vertex  1.500000e+000 -3.882244e+000 -3.913094e+000
    endloop
  endfacet
  facet normal  1.000000e+000  -0.000000e+000  -0.000000e+000
    outer loop
      vertex  1.500000e+000 -9.980979e+000 -6.164901e-001
      vertex  1.500000e+000 -3.882244e+000 -3.913094e+000
      vertex  1.500000e+000  3.082450e-001 -4.990489e+000
    endloop
  endfacet
  facet normal  1.000000e+000  0.000000e+000  0.000000e+000
    outer loop
      vertex  1.500000e+000 -9.980979e+000 -6.164901e-001
      vertex  1.500000e+000  3.082450e-001 -4.990489e+000
      vertex  1.500000e+000  2.775558e-017 -8.881784e-016
    endloop
  endfacet
  facet normal  1.000000e+000  0.000000e+000  0.000000e+000
    outer loop
      vertex  1.500000e+000  3.082450e-001 -4.990489e+000
      vertex  1.500000e+000 -3.882244e+000 -3.913094e+000
      vertex  1.500000e+000 -3.296604e+000 -4.498734e+000
    endloop
  endfacet
  facet normal  1.000000e+000  0.000000e+000  0.000000e+000
    outer loop
      vertex  1.500000e+000  3.082450e-001 -4.990489e+000
      vertex  1.500000e+000 -3.296604e+000 -4.498734e+000
      vertex  1.500000e+000 -3.082244e+000 -5.298735e+000
    endloop
  endfacet
  facet normal  1.000000e+000  -0.000000e+000  0.000000e+000
    outer loop
      vertex  1.500000e+000  3.082450e-001 -4.990489e+000
      vertex  1.500000e+000 -3.082244e+000 -5.298735e+000
      vertex  1.500000e+000 -3.296604e+000 -6.098734e+000
    endloop
  endfacet
  facet normal  1.000000e+000  -0.000000e+000  0.000000e+000
    outer loop
      vertex  1.500000e+000  3.082450e-001 -4.990489e+000
      vertex  1.500000e+000 -3.296604e+000 -6.098734e+000
      vertex  1.500000e+000  1.592460e-001 -6.547722e+000
    endloop
  endfacet
  facet normal  1.000000e+000  0.000000e+000  -0.000000e+000
    outer loop
      vertex  1.500000e+000 -4.682244e+000 -6.898735e+000
      vertex  1.500000e+000 -4.374000e+000 -1.028922e+001
      vertex  1.500000e+000 -2.846940e+000 -9.949719e+000
    endloop
  endfacet
  facet normal  1.000000e+000  0.000000e+000  -0.000000e+000
    outer loop
      vertex  1.500000e+000 -4.682244e+000 -6.898735e+000
      vertex  1.500000e+000 -2.846940e+000 -9.949719e+000
      vertex  1.500000e+000 -1.499533e+000 -9.154943e+000
    endloop
  endfacet
  facet normal  9.999999e-001  0.000000e+000  -0.000000e+000
    outer loop
      vertex  1.500000e+000 -4.682244e+000 -6.898735e+000
      vertex  1.500000e+000 -1.499533e+000 -9.154943e+000
      vertex  1.500000e+000 -4.636718e-001 -7.982695e+000
    endloop
  endfacet
  facet normal  1.000000e+000  0.000000e+000  -0.000000e+000
    outer loop
      vertex  1.500000e+000 -4.682244e+000 -6.898735e+000
      vertex  1.500000e+000 -4.636718e-001 -7.982695e+000
      vertex  1.500000e+000  1.592460e-001 -6.547722e+000
    endloop
  endfacet
  facet normal  1.000000e+000  0.000000e+000  0.000000e+000
    outer loop
      vertex  1.500000e+000 -4.682244e+000 -6.898735e+000
      vertex  1.500000e+000  1.592460e-001 -6.547722e+000
      vertex  1.500000e+000 -3.882244e+000 -6.684375e+000
    endloop
  endfacet
  facet normal  9.999999e-001  0.000000e+000  0.000000e+000
    outer loop
      vertex  1.500000e+000 -4.374000e+000 -1.028922e+001
      vertex  1.500000e+000 -4.682244e+000 -6.898735e+000
      vertex  1.500000e+000 -5.931232e+000 -1.014023e+001
    endloop
  endfacet
  facet normal  1.000000e+000  0.000000e+000  -0.000000e+000
    outer loop
      vertex  1.500000e+000 -5.931232e+000 -1.014023e+001
      vertex  1.500000e+000 -4.682244e+000 -6.898735e+000
      vertex  1.500000e+000 -9.333229e+000 -7.134039e+000
    endloop
  endfacet
  facet normal  1.000000e+000  0.000000e+000  0.000000e+000
    outer loop
      vertex  1.500000e+000 -5.931232e+000 -1.014023e+001
      vertex  1.500000e+000 -9.333229e+000 -7.134039e+000
      vertex  1.500000e+000 -7.366205e+000 -9.517307e+000
    endloop
  endfacet
  facet normal  1.000000e+000  0.000000e+000  0.000000e+000
    outer loop
      vertex  1.500000e+000 -7.366205e+000 -9.517307e+000
      vertex  1.500000e+000 -9.333229e+000 -7.134039e+000
      vertex  1.500000e+000 -8.538453e+000 -8.481446e+000
    endloop
  endfacet
  facet normal  9.999999e-001  0.000000e+000  0.000000e+000
    outer loop
      vertex  1.500000e+000 -9.333229e+000 -7.134039e+000
      vertex  1.500000e+000 -6.067885e+000 -6.098734e+000
      vertex  1.500000e+000 -9.672734e+000 -5.606979e+000
    endloop
  endfacet
  facet normal  9.999999e-001  -0.000000e+000  0.000000e+000
    outer loop
      vertex  1.500000e+000 -9.672734e+000 -5.606979e+000
      vertex  1.500000e+000 -6.067885e+000 -6.098734e+000
      vertex  1.500000e+000 -6.282244e+000 -5.298735e+000
    endloop
  endfacet
  facet normal  1.000000e+000  0.000000e+000  -0.000000e+000
    outer loop
      vertex  1.500000e+000 -9.672734e+000 -5.606979e+000
      vertex  1.500000e+000 -6.282244e+000 -5.298735e+000
      vertex  1.500000e+000 -6.067885e+000 -4.498734e+000
    endloop
  endfacet
  facet normal  1.803502e-017  9.980979e-001  6.164901e-002
    outer loop
      vertex  0.000000e+000  0.000000e+000  0.000000e+000
      vertex  1.500000e+000  2.775558e-017 -8.881784e-016
      vertex  0.000000e+000  3.082450e-001 -4.990489e+000
    endloop
  endfacet
  facet normal  -0.000000e+000  9.980979e-001  6.164901e-002
    outer loop
      vertex  0.000000e+000  3.082450e-001 -4.990489e+000
      vertex  1.500000e+000  2.775558e-017 -8.881784e-016
      vertex  1.500000e+000  3.082450e-001 -4.990489e+000
    endloop
  endfacet
  facet normal -1.957724e-008  9.980980e-001  6.164900e-002
    outer loop
      vertex -8.265867e-001 -1.501181e-001  2.430414e+000
      vertex -1.777719e+000 -2.050371e-001  3.319552e+000
      vertex -1.250000e+000 -2.936428e-001  4.754080e+000
    endloop
  endfacet
  facet normal  4.335603e-009  9.980979e-001  6.164899e-002
    outer loop
      vertex -1.250000e+000 -2.936428e-001  4.754080e+000
      vertex -1.777719e+000 -2.050371e-001  3.319552e+000
      vertex -2.964724e+000 -2.381935e-001  3.856354e+000
    endloop
  endfacet
  facet normal -1.013863e-008  9.980979e-001  6.164902e-002
    outer loop
      vertex -1.250000e+000 -2.936428e-001  4.754080e+000
      vertex -2.964724e+000 -2.381935e-001  3.856354e+000
      vertex -2.576495e+000 -3.275160e-001  5.302487e+000
    endloop
  endfacet
  facet normal  2.116653e-008  9.980979e-001  6.164900e-002
    outer loop
      vertex -1.109127e-001 -2.397584e-001  3.881690e+000
      vertex -8.265867e-001 -1.501181e-001  2.430414e+000
      vertex -1.250000e+000 -2.936428e-001  4.754080e+000
    endloop
  endfacet
  facet normal  9.351285e-009  9.980978e-001  6.164901e-002
    outer loop
      vertex -8.265867e-001 -1.501181e-001  2.430414e+000
      vertex -1.109127e-001 -2.397584e-001  3.881690e+000
      vertex -2.122795e-001 -7.926569e-002  1.283312e+000
    endloop
  endfacet
  facet normal  9.280002e-009  9.980978e-001  6.164901e-002
    outer loop
      vertex -2.122795e-001 -7.926569e-002  1.283312e+000
      vertex -1.109127e-001 -2.397584e-001  3.881690e+000
      vertex  7.631397e-001 -1.695348e-001  2.744769e+000
    endloop
  endfacet
  facet normal  1.425427e-008  9.980979e-001  6.164901e-002
    outer loop
      vertex -2.122795e-001 -7.926569e-002  1.283312e+000
      vertex  7.631397e-001 -1.695348e-001  2.744769e+000
      vertex  0.000000e+000  0.000000e+000  0.000000e+000
    endloop
  endfacet
  facet normal -6.708390e-009  9.980979e-001  6.164902e-002
    outer loop
      vertex  0.000000e+000  0.000000e+000  0.000000e+000
      vertex  7.631397e-001 -1.695348e-001  2.744769e+000
      vertex  1.312592e+000 -8.775765e-002  1.420797e+000
    endloop
  endfacet
  facet normal  0.000000e+000  9.980979e-001  6.164901e-002
    outer loop
      vertex  0.000000e+000  0.000000e+000  0.000000e+000
      vertex  1.312592e+000 -8.775765e-002  1.420797e+000
      vertex  1.500000e+000  2.775558e-017 -8.881784e-016
    endloop
  endfacet
  facet normal -6.835923e-001  4.499538e-002 -7.284757e-001
    outer loop
      vertex -8.265867e-001 -1.501181e-001  2.430414e+000
      vertex -1.777719e+000 -1.018602e+001  2.703062e+000
      vertex -1.777719e+000 -2.050371e-001  3.319552e+000
    endloop
  endfacet
  facet normal -4.127069e-001  5.615383e-002 -9.091312e-001
    outer loop
      vertex -1.777719e+000 -2.050371e-001  3.319552e+000
      vertex -1.777719e+000 -1.018602e+001  2.703062e+000
      vertex -2.964724e+000 -1.021917e+001  3.239864e+000
    endloop
  endfacet
  facet normal -4.127071e-001  5.615385e-002 -9.091312e-001
    outer loop
      vertex -1.777719e+000 -2.050371e-001  3.319552e+000
      vertex -2.964724e+000 -1.021917e+001  3.239864e+000
      vertex -2.964724e+000 -2.381935e-001  3.856354e+000
    endloop
  endfacet
  facet normal -6.835924e-001  4.499539e-002 -7.284757e-001
    outer loop
      vertex -1.777719e+000 -1.018602e+001  2.703062e+000
      vertex -8.265867e-001 -1.501181e-001  2.430414e+000
      vertex -8.265867e-001 -1.013110e+001  1.813924e+000
    endloop
  endfacet
  facet normal -8.819213e-001  2.906114e-002 -4.705001e-001
    outer loop
      vertex -8.265867e-001 -1.013110e+001  1.813924e+000
      vertex -8.265867e-001 -1.501181e-001  2.430414e+000
      vertex -2.122795e-001 -7.926569e-002  1.283312e+000
    endloop
  endfacet
  facet normal -8.819213e-001  2.906114e-002 -4.705001e-001
    outer loop
      vertex -8.265867e-001 -1.013110e+001  1.813924e+000
      vertex -2.122795e-001 -7.926569e-002  1.283312e+000
      vertex -2.122795e-001 -1.006024e+001  6.668221e-001
    endloop
  endfacet
  facet normal -9.866434e-001  1.004235e-002 -1.625856e-001
    outer loop
      vertex -2.122795e-001 -1.006024e+001  6.668221e-001
      vertex -2.122795e-001 -7.926569e-002  1.283312e+000
      vertex  0.000000e+000  0.000000e+000  0.000000e+000
    endloop
  endfacet
  facet normal -9.866434e-001  1.004235e-002 -1.625856e-001
    outer loop
      vertex -2.122795e-001 -1.006024e+001  6.668221e-001
      vertex  0.000000e+000  0.000000e+000  0.000000e+000
      vertex  0.000000e+000 -9.980979e+000 -6.164901e-001
    endloop
  endfacet
  facet normal -1.000000e+000  0.000000e+000  0.000000e+000
    outer loop
      vertex  0.000000e+000 -5.482244e+000 -6.684375e+000
      vertex  0.000000e+000 -9.333229e+000 -7.134039e+000
      vertex  0.000000e+000 -6.067885e+000 -6.098734e+000
    endloop
  endfacet
  facet normal -1.000000e+000  -0.000000e+000  0.000000e+000
    outer loop
      vertex  0.000000e+000 -5.482244e+000 -6.684375e+000
      vertex  0.000000e+000 -4.682244e+000 -6.898735e+000
      vertex  0.000000e+000 -9.333229e+000 -7.134039e+000
    endloop
  endfacet
  facet normal -1.000000e+000  0.000000e+000  0.000000e+000
    outer loop
      vertex  0.000000e+000  1.592460e-001 -6.547722e+000
      vertex  0.000000e+000 -3.882244e+000 -6.684375e+000
      vertex  0.000000e+000 -3.296604e+000 -6.098734e+000
    endloop
  endfacet
  facet normal -1.000000e+000  0.000000e+000  -0.000000e+000
    outer loop
      vertex  0.000000e+000 -9.980979e+000 -6.164901e-001
      vertex  0.000000e+000  0.000000e+000  0.000000e+000
      vertex  0.000000e+000  3.082450e-001 -4.990489e+000
    endloop
  endfacet
  facet normal -1.000000e+000  0.000000e+000  0.000000e+000
    outer loop
      vertex  0.000000e+000 -9.980979e+000 -6.164901e-001
      vertex  0.000000e+000  3.082450e-001 -4.990489e+000
      vertex  0.000000e+000 -3.882244e+000 -3.913094e+000
    endloop
  endfacet
  facet normal -1.000000e+000  0.000000e+000  0.000000e+000
    outer loop
      vertex  0.000000e+000 -9.980979e+000 -6.164901e-001
      vertex  0.000000e+000 -3.882244e+000 -3.913094e+000
      vertex  0.000000e+000 -4.682244e+000 -3.698735e+000
    endloop
  endfacet
  facet normal -1.000000e+000  -0.000000e+000  0.000000e+000
    outer loop
      vertex  0.000000e+000 -9.980979e+000 -6.164901e-001
      vertex  0.000000e+000 -4.682244e+000 -3.698735e+000
      vertex  0.000000e+000 -5.482244e+000 -3.913094e+000
    endloop
  endfacet
  facet normal -1.000000e+000  -0.000000e+000  0.000000e+000
    outer loop
      vertex  0.000000e+000 -9.980979e+000 -6.164901e-001
      vertex  0.000000e+000 -5.482244e+000 -3.913094e+000
      vertex  0.000000e+000 -6.067885e+000 -4.498734e+000
    endloop
  endfacet
  facet normal -1.000000e+000  -0.000000e+000  0.000000e+000
    outer loop
      vertex  0.000000e+000 -9.980979e+000 -6.164901e-001
      vertex  0.000000e+000 -6.067885e+000 -4.498734e+000
      vertex  0.000000e+000 -9.672734e+000 -5.606979e+000
    endloop
  endfacet
  facet normal -1.000000e+000  0.000000e+000  0.000000e+000
    outer loop
      vertex  0.000000e+000  3.082450e-001 -4.990489e+000
      vertex  0.000000e+000  1.592460e-001 -6.547722e+000
      vertex  0.000000e+000 -3.296604e+000 -6.098734e+000
    endloop
  endfacet
  facet normal -1.000000e+000  0.000000e+000  0.000000e+000
    outer loop
      vertex  0.000000e+000  3.082450e-001 -4.990489e+000
      vertex  0.000000e+000 -3.296604e+000 -6.098734e+000
      vertex  0.000000e+000 -3.082244e+000 -5.298735e+000
    endloop
  endfacet
  facet normal -1.000000e+000  0.000000e+000  0.000000e+000
    outer loop
      vertex  0.000000e+000  3.082450e-001 -4.990489e+000
      vertex  0.000000e+000 -3.082244e+000 -5.298735e+000
      vertex  0.000000e+000 -3.296604e+000 -4.498734e+000
    endloop
  endfacet
  facet normal -1.000000e+000  0.000000e+000  0.000000e+000
    outer loop
      vertex  0.000000e+000  3.082450e-001 -4.990489e+000
      vertex  0.000000e+000 -3.296604e+000 -4.498734e+000
      vertex  0.000000e+000 -3.882244e+000 -3.913094e+000
    endloop
  endfacet
  facet normal -1.000000e+000  0.000000e+000  -0.000000e+000
    outer loop
      vertex  0.000000e+000 -4.682244e+000 -6.898735e+000
      vertex  0.000000e+000 -3.882244e+000 -6.684375e+000
      vertex  0.000000e+000  1.592460e-001 -6.547722e+000
    endloop
  endfacet
  facet normal -1.000000e+000  0.000000e+000  0.000000e+000
    outer loop
      vertex  0.000000e+000 -4.682244e+000 -6.898735e+000
      vertex  0.000000e+000  1.592460e-001 -6.547722e+000
      vertex  0.000000e+000 -4.636718e-001 -7.982695e+000
    endloop
  endfacet
  facet normal -9.999999e-001  -0.000000e+000  0.000000e+000
    outer loop
      vertex  0.000000e+000 -4.682244e+000 -6.898735e+000
      vertex  0.000000e+000 -4.636718e-001 -7.982695e+000
      vertex  0.000000e+000 -1.499533e+000 -9.154943e+000
    endloop
  endfacet
  facet normal -1.000000e+000  -0.000000e+000  0.000000e+000
    outer loop
      vertex  0.000000e+000 -4.682244e+000 -6.898735e+000
      vertex  0.000000e+000 -1.499533e+000 -9.154943e+000
      vertex  0.000000e+000 -2.846940e+000 -9.949719e+000
    endloop
  endfacet
  facet normal -1.000000e+000  -0.000000e+000  0.000000e+000
    outer loop
      vertex  0.000000e+000 -4.682244e+000 -6.898735e+000
      vertex  0.000000e+000 -2.846940e+000 -9.949719e+000
      vertex  0.000000e+000 -4.374000e+000 -1.028922e+001
    endloop
  endfacet
  facet normal -9.999999e-001  0.000000e+000  0.000000e+000
    outer loop
      vertex  0.000000e+000 -4.374000e+000 -1.028922e+001
      vertex  0.000000e+000 -5.931232e+000 -1.014023e+001
      vertex  0.000000e+000 -4.682244e+000 -6.898735e+000
    endloop
  endfacet
  facet normal -1.000000e+000  0.000000e+000  0.000000e+000
    outer loop
      vertex  0.000000e+000 -4.682244e+000 -6.898735e+000
      vertex  0.000000e+000 -5.931232e+000 -1.014023e+001
      vertex  0.000000e+000 -9.333229e+000 -7.134039e+000
    endloop
  endfacet
  facet normal -1.000000e+000  0.000000e+000  0.000000e+000
    outer loop
      vertex  0.000000e+000 -5.931232e+000 -1.014023e+001
      vertex  0.000000e+000 -7.366205e+000 -9.517307e+000
      vertex  0.000000e+000 -9.333229e+000 -7.134039e+000
    endloop
  endfacet
  facet normal -1.000000e+000  0.000000e+000  0.000000e+000
    outer loop
      vertex  0.000000e+000 -9.333229e+000 -7.134039e+000
      vertex  0.000000e+000 -7.366205e+000 -9.517307e+000
      vertex  0.000000e+000 -8.538453e+000 -8.481446e+000
    endloop
  endfacet
  facet normal -1.000000e+000  -0.000000e+000  0.000000e+000
    outer loop
      vertex  0.000000e+000 -6.067885e+000 -4.498734e+000
      vertex  0.000000e+000 -6.282244e+000 -5.298735e+000
      vertex  0.000000e+000 -9.672734e+000 -5.606979e+000
    endloop
  endfacet
  facet normal -9.999999e-001  0.000000e+000  0.000000e+000
    outer loop
      vertex  0.000000e+000 -9.672734e+000 -5.606979e+000
      vertex  0.000000e+000 -6.282244e+000 -5.298735e+000
      vertex  0.000000e+000 -6.067885e+000 -6.098734e+000
    endloop
  endfacet
  facet normal -9.999999e-001  -0.000000e+000  0.000000e+000
    outer loop
      vertex  0.000000e+000 -9.672734e+000 -5.606979e+000
      vertex  0.000000e+000 -6.067885e+000 -6.098734e+000
      vertex  0.000000e+000 -9.333229e+000 -7.134039e+000
    endloop
  endfacet
  facet normal  0.000000e+000 -9.980979e-001 -6.164894e-002
    outer loop
      vertex  0.000000e+000 -9.980979e+000 -6.164901e-001
      vertex  0.000000e+000 -9.672734e+000 -5.606979e+000
      vertex  1.500000e+000 -9.980979e+000 -6.164901e-001
    endloop
  endfacet
  facet normal  0.000000e+000 -9.980979e-001 -6.164894e-002
    outer loop
      vertex  1.500000e+000 -9.980979e+000 -6.164901e-001
      vertex  0.000000e+000 -9.672734e+000 -5.606979e+000
      vertex  1.500000e+000 -9.672734e+000 -5.606979e+000
    endloop
  endfacet
  facet normal -2.910661e-007 -9.980979e-001 -6.164861e-002
    outer loop
      vertex -2.576495e+000 -1.030849e+001  4.685997e+000
      vertex -2.964724e+000 -1.021917e+001  3.239864e+000
      vertex -1.250000e+000 -1.027462e+001  4.137589e+000
    endloop
  endfacet
  facet normal -2.439805e-008 -9.980979e-001 -6.164912e-002
    outer loop
      vertex -1.250000e+000 -1.027462e+001  4.137589e+000
      vertex -2.964724e+000 -1.021917e+001  3.239864e+000
      vertex -1.777719e+000 -1.018602e+001  2.703062e+000
    endloop
  endfacet
  facet normal  1.413185e-007 -9.980980e-001 -6.164918e-002
    outer loop
      vertex -1.250000e+000 -1.027462e+001  4.137589e+000
      vertex -1.777719e+000 -1.018602e+001  2.703062e+000
      vertex -8.265867e-001 -1.013110e+001  1.813924e+000
    endloop
  endfacet
  facet normal -1.295122e-007 -9.980980e-001 -6.164923e-002
    outer loop
      vertex -1.250000e+000 -1.027462e+001  4.137589e+000
      vertex -8.265867e-001 -1.013110e+001  1.813924e+000
      vertex -1.109127e-001 -1.022074e+001  3.265200e+000
    endloop
  endfacet
  facet normal -4.183230e-007 -9.980979e-001 -6.164908e-002
    outer loop
      vertex -1.109127e-001 -1.022074e+001  3.265200e+000
      vertex -8.265867e-001 -1.013110e+001  1.813924e+000
      vertex -2.122795e-001 -1.006024e+001  6.668221e-001
    endloop
  endfacet
  facet normal  1.271442e-007 -9.980979e-001 -6.164910e-002
    outer loop
      vertex -1.109127e-001 -1.022074e+001  3.265200e+000
      vertex -2.122795e-001 -1.006024e+001  6.668221e-001
      vertex  7.631397e-001 -1.015051e+001  2.128279e+000
    endloop
  endfacet
  facet normal -1.116524e-007 -9.980979e-001 -6.164894e-002
    outer loop
      vertex  7.631397e-001 -1.015051e+001  2.128279e+000
      vertex -2.122795e-001 -1.006024e+001  6.668221e-001
      vertex  0.000000e+000 -9.980979e+000 -6.164901e-001
    endloop
  endfacet
  facet normal -4.976753e-007 -9.980978e-001 -6.164883e-002
    outer loop
      vertex  7.631397e-001 -1.015051e+001  2.128279e+000
      vertex  0.000000e+000 -9.980979e+000 -6.164901e-001
      vertex  1.312592e+000 -1.006874e+001  8.043070e-001
    endloop
  endfacet
  facet normal  0.000000e+000 -9.980979e-001 -6.164930e-002
    outer loop
      vertex  1.312592e+000 -1.006874e+001  8.043070e-001
      vertex  0.000000e+000 -9.980979e+000 -6.164901e-001
      vertex  1.500000e+000 -9.980979e+000 -6.164901e-001
    endloop
  endfacet
  facet normal  0.000000e+000  9.954537e-001 -9.524693e-002
    outer loop
      vertex  0.000000e+000  3.082450e-001 -4.990489e+000
      vertex  1.500000e+000  3.082450e-001 -4.990489e+000
      vertex  0.000000e+000  1.592460e-001 -6.547722e+000
    endloop
  endfacet
  facet normal  0.000000e+000  9.954537e-001 -9.524693e-002
    outer loop
      vertex  0.000000e+000  1.592460e-001 -6.547722e+000
      vertex  1.500000e+000  3.082450e-001 -4.990489e+000
      vertex  1.500000e+000  1.592460e-001 -6.547722e+000
    endloop
  endfacet
  facet normal  0.000000e+000  9.172998e-001 -3.981972e-001
    outer loop
      vertex  0.000000e+000  1.592460e-001 -6.547722e+000
      vertex  1.500000e+000  1.592460e-001 -6.547722e+000
      vertex  0.000000e+000 -4.636718e-001 -7.982695e+000
    endloop
  endfacet
  facet normal  0.000000e+000  9.172998e-001 -3.981972e-001
    outer loop
      vertex  0.000000e+000 -4.636718e-001 -7.982695e+000
      vertex  1.500000e+000  1.592460e-001 -6.547722e+000
      vertex  1.500000e+000 -4.636718e-001 -7.982695e+000
    endloop
  endfacet
  facet normal  0.000000e+000  7.493542e-001 -6.621693e-001
    outer loop
      vertex  0.000000e+000 -4.636718e-001 -7.982695e+000
      vertex  1.500000e+000 -4.636718e-001 -7.982695e+000
      vertex  0.000000e+000 -1.499533e+000 -9.154943e+000
    endloop
  endfacet
  facet normal  0.000000e+000  7.493542e-001 -6.621693e-001
    outer loop
      vertex  0.000000e+000 -1.499533e+000 -9.154943e+000
      vertex  1.500000e+000 -4.636718e-001 -7.982695e+000
      vertex  1.500000e+000 -1.499533e+000 -9.154943e+000
    endloop
  endfacet
  facet normal  0.000000e+000  5.080568e-001 -8.613237e-001
    outer loop
      vertex  0.000000e+000 -1.499533e+000 -9.154943e+000
      vertex  1.500000e+000 -1.499533e+000 -9.154943e+000
      vertex  0.000000e+000 -2.846940e+000 -9.949719e+000
    endloop
  endfacet
  facet normal  0.000000e+000  5.080568e-001 -8.613237e-001
    outer loop
      vertex  0.000000e+000 -2.846940e+000 -9.949719e+000
      vertex  1.500000e+000 -1.499533e+000 -9.154943e+000
      vertex  1.500000e+000 -2.846940e+000 -9.949719e+000
    endloop
  endfacet
  facet normal  0.000000e+000  2.170265e-001 -9.761658e-001
    outer loop
      vertex  0.000000e+000 -2.846940e+000 -9.949719e+000
      vertex  1.500000e+000 -2.846940e+000 -9.949719e+000
      vertex  0.000000e+000 -4.374000e+000 -1.028922e+001
    endloop
  endfacet
  facet normal  0.000000e+000  2.170265e-001 -9.761658e-001
    outer loop
      vertex  0.000000e+000 -4.374000e+000 -1.028922e+001
      vertex  1.500000e+000 -2.846940e+000 -9.949719e+000
      vertex  1.500000e+000 -4.374000e+000 -1.028922e+001
    endloop
  endfacet
  facet normal  -0.000000e+000 -9.524646e-002 -9.954537e-001
    outer loop
      vertex  0.000000e+000 -4.374000e+000 -1.028922e+001
      vertex  1.500000e+000 -4.374000e+000 -1.028922e+001
      vertex  0.000000e+000 -5.931232e+000 -1.014023e+001
    endloop
  endfacet
  facet normal  0.000000e+000 -9.524646e-002 -9.954537e-001
    outer loop
      vertex  0.000000e+000 -5.931232e+000 -1.014023e+001
      vertex  1.500000e+000 -4.374000e+000 -1.028922e+001
      vertex  1.500000e+000 -5.931232e+000 -1.014023e+001
    endloop
  endfacet
  facet normal  -0.000000e+000 -3.981974e-001 -9.172998e-001
    outer loop
      vertex  0.000000e+000 -5.931232e+000 -1.014023e+001
      vertex  1.500000e+000 -5.931232e+000 -1.014023e+001
      vertex  0.000000e+000 -7.366205e+000 -9.517307e+000
    endloop
  endfacet
  facet normal  0.000000e+000 -3.981974e-001 -9.172998e-001
    outer loop
      vertex  0.000000e+000 -7.366205e+000 -9.517307e+000
      vertex  1.500000e+000 -5.931232e+000 -1.014023e+001
      vertex  1.500000e+000 -7.366205e+000 -9.517307e+000
    endloop
  endfacet
  facet normal  -0.000000e+000 -6.621694e-001 -7.493541e-001
    outer loop
      vertex  0.000000e+000 -7.366205e+000 -9.517307e+000
      vertex  1.500000e+000 -7.366205e+000 -9.517307e+000
      vertex  0.000000e+000 -8.538453e+000 -8.481446e+000
    endloop
  endfacet
  facet normal  0.000000e+000 -6.621694e-001 -7.493541e-001
    outer loop
      vertex  0.000000e+000 -8.538453e+000 -8.481446e+000
      vertex  1.500000e+000 -7.366205e+000 -9.517307e+000
      vertex  1.500000e+000 -8.538453e+000 -8.481446e+000
    endloop
  endfacet
  facet normal  -0.000000e+000 -8.613236e-001 -5.080567e-001
    outer loop
      vertex  0.000000e+000 -8.538453e+000 -8.481446e+000
      vertex  1.500000e+000 -8.538453e+000 -8.481446e+000
      vertex  0.000000e+000 -9.333229e+000 -7.134039e+000
    endloop
  endfacet
  facet normal  0.000000e+000 -8.613236e-001 -5.080567e-001
    outer loop
      vertex  0.000000e+000 -9.333229e+000 -7.134039e+000
      vertex  1.500000e+000 -8.538453e+000 -8.481446e+000
      vertex  1.500000e+000 -9.333229e+000 -7.134039e+000
    endloop
  endfacet
  facet normal  -0.000000e+000 -9.761655e-001 -2.170271e-001
    outer loop
      vertex  0.000000e+000 -9.333229e+000 -7.134039e+000
      vertex  1.500000e+000 -9.333229e+000 -7.134039e+000
      vertex  0.000000e+000 -9.672734e+000 -5.606979e+000
    endloop
  endfacet
  facet normal  0.000000e+000 -9.761655e-001 -2.170271e-001
    outer loop
      vertex  0.000000e+000 -9.672734e+000 -5.606979e+000
      vertex  1.500000e+000 -9.333229e+000 -7.134039e+000
      vertex  1.500000e+000 -9.672734e+000 -5.606979e+000
    endloop
  endfacet
  facet normal  0.000000e+000 -2.588190e-001  9.659259e-001
    outer loop
      vertex  0.000000e+000 -4.682244e+000 -6.898735e+000
      vertex  1.500000e+000 -3.882244e+000 -6.684375e+000
      vertex  0.000000e+000 -3.882244e+000 -6.684375e+000
    endloop
  endfacet
  facet normal  0.000000e+000 -7.071069e-001  7.071066e-001
    outer loop
      vertex  0.000000e+000 -3.882244e+000 -6.684375e+000
      vertex  1.500000e+000 -3.882244e+000 -6.684375e+000
      vertex  1.500000e+000 -3.296604e+000 -6.098734e+000
    endloop
  endfacet
  facet normal  0.000000e+000 -7.071069e-001  7.071066e-001
    outer loop
      vertex  0.000000e+000 -3.882244e+000 -6.684375e+000
      vertex  1.500000e+000 -3.296604e+000 -6.098734e+000
      vertex  0.000000e+000 -3.296604e+000 -6.098734e+000
    endloop
  endfacet
  facet normal  0.000000e+000 -9.659259e-001  2.588191e-001
    outer loop
      vertex  0.000000e+000 -3.296604e+000 -6.098734e+000
      vertex  1.500000e+000 -3.296604e+000 -6.098734e+000
      vertex  1.500000e+000 -3.082244e+000 -5.298735e+000
    endloop
  endfacet
  facet normal  0.000000e+000 -9.659259e-001  2.588191e-001
    outer loop
      vertex  0.000000e+000 -3.296604e+000 -6.098734e+000
      vertex  1.500000e+000 -3.082244e+000 -5.298735e+000
      vertex  0.000000e+000 -3.082244e+000 -5.298735e+000
    endloop
  endfacet
  facet normal  0.000000e+000 -2.588190e-001  9.659259e-001
    outer loop
      vertex  1.500000e+000 -3.882244e+000 -6.684375e+000
      vertex  0.000000e+000 -4.682244e+000 -6.898735e+000
      vertex  1.500000e+000 -4.682244e+000 -6.898735e+000
    endloop
  endfacet
  facet normal  0.000000e+000  2.588189e-001  9.659259e-001
    outer loop
      vertex  1.500000e+000 -4.682244e+000 -6.898735e+000
      vertex  0.000000e+000 -4.682244e+000 -6.898735e+000
      vertex  0.000000e+000 -5.482244e+000 -6.684375e+000
    endloop
  endfacet
  facet normal  -0.000000e+000  2.588189e-001  9.659259e-001
    outer loop
      vertex  1.500000e+000 -4.682244e+000 -6.898735e+000
      vertex  0.000000e+000 -5.482244e+000 -6.684375e+000
      vertex  1.500000e+000 -5.482244e+000 -6.684375e+000
    endloop
  endfacet
  facet normal  0.000000e+000  7.071071e-001  7.071065e-001
    outer loop
      vertex  1.500000e+000 -5.482244e+000 -6.684375e+000
      vertex  0.000000e+000 -5.482244e+000 -6.684375e+000
      vertex  0.000000e+000 -6.067885e+000 -6.098734e+000
    endloop
  endfacet
  facet normal  -0.000000e+000  7.071071e-001  7.071065e-001
    outer loop
      vertex  1.500000e+000 -5.482244e+000 -6.684375e+000
      vertex  0.000000e+000 -6.067885e+000 -6.098734e+000
      vertex  1.500000e+000 -6.067885e+000 -6.098734e+000
    endloop
  endfacet
  facet normal  0.000000e+000  9.659259e-001  2.588191e-001
    outer loop
      vertex  1.500000e+000 -6.067885e+000 -6.098734e+000
      vertex  0.000000e+000 -6.067885e+000 -6.098734e+000
      vertex  0.000000e+000 -6.282244e+000 -5.298735e+000
    endloop
  endfacet
  facet normal  -0.000000e+000  9.659259e-001  2.588191e-001
    outer loop
      vertex  1.500000e+000 -6.067885e+000 -6.098734e+000
      vertex  0.000000e+000 -6.282244e+000 -5.298735e+000
      vertex  1.500000e+000 -6.282244e+000 -5.298735e+000
    endloop
  endfacet
  facet normal  0.000000e+000  2.588189e-001 -9.659259e-001
    outer loop
      vertex  0.000000e+000 -4.682244e+000 -3.698735e+000
      vertex  1.500000e+000 -5.482244e+000 -3.913094e+000
      vertex  0.000000e+000 -5.482244e+000 -3.913094e+000
    endloop
  endfacet
  facet normal  0.000000e+000  7.071069e-001 -7.071067e-001
    outer loop
      vertex  0.000000e+000 -5.482244e+000 -3.913094e+000
      vertex  1.500000e+000 -5.482244e+000 -3.913094e+000
      vertex  1.500000e+000 -6.067885e+000 -4.498734e+000
    endloop
  endfacet
  facet normal  0.000000e+000  7.071069e-001 -7.071067e-001
    outer loop
      vertex  0.000000e+000 -5.482244e+000 -3.913094e+000
      vertex  1.500000e+000 -6.067885e+000 -4.498734e+000
      vertex  0.000000e+000 -6.067885e+000 -4.498734e+000
    endloop
  endfacet
  facet normal  0.000000e+000  9.659259e-001 -2.588189e-001
    outer loop
      vertex  0.000000e+000 -6.067885e+000 -4.498734e+000
      vertex  1.500000e+000 -6.067885e+000 -4.498734e+000
      vertex  1.500000e+000 -6.282244e+000 -5.298735e+000
    endloop
  endfacet
  facet normal  0.000000e+000  9.659259e-001 -2.588189e-001
    outer loop
      vertex  0.000000e+000 -6.067885e+000 -4.498734e+000
      vertex  1.500000e+000 -6.282244e+000 -5.298735e+000
      vertex  0.000000e+000 -6.282244e+000 -5.298735e+000
    endloop
  endfacet
  facet normal  0.000000e+000  2.588189e-001 -9.659259e-001
    outer loop
      vertex  1.500000e+000 -5.482244e+000 -3.913094e+000
      vertex  0.000000e+000 -4.682244e+000 -3.698735e+000
      vertex  1.500000e+000 -4.682244e+000 -3.698735e+000
    endloop
  endfacet
  facet normal  -0.000000e+000 -2.588190e-001 -9.659259e-001
    outer loop
      vertex  1.500000e+000 -4.682244e+000 -3.698735e+000
      vertex  0.000000e+000 -4.682244e+000 -3.698735e+000
      vertex  0.000000e+000 -3.882244e+000 -3.913094e+000
    endloop
  endfacet
  facet normal  0.000000e+000 -2.588190e-001 -9.659259e-001
    outer loop
      vertex  1.500000e+000 -4.682244e+000 -3.698735e+000
      vertex  0.000000e+000 -3.882244e+000 -3.913094e+000
      vertex  1.500000e+000 -3.882244e+000 -3.913094e+000
    endloop
  endfacet
  facet normal  -0.000000e+000 -7.071068e-001 -7.071068e-001
    outer loop
      vertex  1.500000e+000 -3.882244e+000 -3.913094e+000
      vertex  0.000000e+000 -3.882244e+000 -3.913094e+000
      vertex  0.000000e+000 -3.296604e+000 -4.498734e+000
    endloop
  endfacet
  facet normal  0.000000e+000 -7.071068e-001 -7.071068e-001
    outer loop
      vertex  1.500000e+000 -3.882244e+000 -3.913094e+000
      vertex  0.000000e+000 -3.296604e+000 -4.498734e+000
      vertex  1.500000e+000 -3.296604e+000 -4.498734e+000
    endloop
  endfacet
  facet normal  -0.000000e+000 -9.659259e-001 -2.588189e-001
    outer loop
      vertex  1.500000e+000 -3.296604e+000 -4.498734e+000
      vertex  0.000000e+000 -3.296604e+000 -4.498734e+000
      vertex  0.000000e+000 -3.082244e+000 -5.298735e+000
    endloop
  endfacet
  facet normal  0.000000e+000 -9.659259e-001 -2.588189e-001
    outer loop
      vertex  1.500000e+000 -3.296604e+000 -4.498734e+000
      vertex  0.000000e+000 -3.082244e+000 -5.298735e+000
      vertex  1.500000e+000 -3.082244e+000 -5.298735e+000
    endloop
  endfacet
endsolid CATIA STL
