solid CATIA STL
  facet normal  0.000000e+000  0.000000e+000  1.000000e+000
    outer loop
      vertex -6.850000e+000 -1.275000e+001  0.000000e+000
      vertex  6.850000e+000 -1.275000e+001  0.000000e+000
      vertex  1.413008e+000 -6.190792e+000  0.000000e+000
    endloop
  endfacet
  facet normal  0.000000e+000  0.000000e+000  1.000000e+000
    outer loop
      vertex -6.850000e+000 -1.275000e+001  0.000000e+000
      vertex  1.413008e+000 -6.190792e+000  0.000000e+000
      vertex -1.413008e+000 -6.190792e+000  0.000000e+000
    endloop
  endfacet
  facet normal  0.000000e+000  0.000000e+000  9.999999e-001
    outer loop
      vertex -6.850000e+000 -1.275000e+001  0.000000e+000
      vertex -1.413008e+000 -6.190792e+000  0.000000e+000
      vertex -3.959160e+000 -4.964630e+000  0.000000e+000
    endloop
  endfacet
  facet normal  0.000000e+000  0.000000e+000  1.000000e+000
    outer loop
      vertex -6.850000e+000 -1.275000e+001  0.000000e+000
      vertex -3.959160e+000 -4.964630e+000  0.000000e+000
      vertex -5.721152e+000 -2.755162e+000  0.000000e+000
    endloop
  endfacet
  facet normal  0.000000e+000  0.000000e+000  1.000000e+000
    outer loop
      vertex -6.850000e+000 -1.275000e+001  0.000000e+000
      vertex -5.721152e+000 -2.755162e+000  0.000000e+000
      vertex -6.350000e+000  7.776251e-016  0.000000e+000
    endloop
  endfacet
  facet normal  0.000000e+000  0.000000e+000  1.000000e+000
    outer loop
      vertex -6.850000e+000  1.275000e+001  0.000000e+000
      vertex -6.850000e+000 -1.275000e+001  0.000000e+000
      vertex -6.350000e+000  7.776251e-016  0.000000e+000
    endloop
  endfacet
  facet normal  0.000000e+000  -0.000000e+000  1.000000e+000
    outer loop
      vertex -6.850000e+000  1.275000e+001  0.000000e+000
      vertex -6.350000e+000  7.776251e-016  0.000000e+000
      vertex -5.604551e+000  2.985214e+000  0.000000e+000
    endloop
  endfacet
  facet normal  0.000000e+000  -0.000000e+000  1.000000e+000
    outer loop
      vertex -6.850000e+000  1.275000e+001  0.000000e+000
      vertex -5.604551e+000  2.985214e+000  0.000000e+000
      vertex -3.543227e+000  5.269539e+000  0.000000e+000
    endloop
  endfacet
  facet normal  0.000000e+000  -0.000000e+000  1.000000e+000
    outer loop
      vertex -6.850000e+000  1.275000e+001  0.000000e+000
      vertex -3.543227e+000  5.269539e+000  0.000000e+000
      vertex -6.500000e-001  6.316645e+000  0.000000e+000
    endloop
  endfacet
  facet normal  0.000000e+000  -0.000000e+000  1.000000e+000
    outer loop
      vertex -6.850000e+000  1.275000e+001  0.000000e+000
      vertex -6.500000e-001  6.316645e+000  0.000000e+000
      vertex  6.500000e-001  6.316645e+000  0.000000e+000
    endloop
  endfacet
  facet normal  0.000000e+000  -0.000000e+000  1.000000e+000
    outer loop
      vertex -6.850000e+000  1.275000e+001  0.000000e+000
      vertex  6.500000e-001  6.316645e+000  0.000000e+000
      vertex  6.850000e+000  1.275000e+001  0.000000e+000
    endloop
  endfacet
  facet normal  0.000000e+000  0.000000e+000  1.000000e+000
    outer loop
      vertex  6.850000e+000 -1.275000e+001  0.000000e+000
      vertex  6.350000e+000 -1.555250e-015  0.000000e+000
      vertex  5.721152e+000 -2.755162e+000  0.000000e+000
    endloop
  endfacet
  facet normal  0.000000e+000  0.000000e+000  1.000000e+000
    outer loop
      vertex  6.850000e+000 -1.275000e+001  0.000000e+000
      vertex  5.721152e+000 -2.755162e+000  0.000000e+000
      vertex  3.959160e+000 -4.964630e+000  0.000000e+000
    endloop
  endfacet
  facet normal  0.000000e+000  0.000000e+000  9.999999e-001
    outer loop
      vertex  6.850000e+000 -1.275000e+001  0.000000e+000
      vertex  3.959160e+000 -4.964630e+000  0.000000e+000
      vertex  1.413008e+000 -6.190792e+000  0.000000e+000
    endloop
  endfacet
  facet normal  -0.000000e+000  0.000000e+000  1.000000e+000
    outer loop
      vertex  6.850000e+000  1.275000e+001  0.000000e+000
      vertex  6.500000e-001  6.316645e+000  0.000000e+000
      vertex  3.543227e+000  5.269539e+000  0.000000e+000
    endloop
  endfacet
  facet normal  -0.000000e+000  0.000000e+000  1.000000e+000
    outer loop
      vertex  6.850000e+000  1.275000e+001  0.000000e+000
      vertex  3.543227e+000  5.269539e+000  0.000000e+000
      vertex  5.604551e+000  2.985214e+000  0.000000e+000
    endloop
  endfacet
  facet normal  -0.000000e+000  0.000000e+000  1.000000e+000
    outer loop
      vertex  6.850000e+000  1.275000e+001  0.000000e+000
      vertex  5.604551e+000  2.985214e+000  0.000000e+000
      vertex  6.350000e+000 -1.555250e-015  0.000000e+000
    endloop
  endfacet
  facet normal  -0.000000e+000  0.000000e+000  1.000000e+000
    outer loop
      vertex  6.850000e+000  1.275000e+001  0.000000e+000
      vertex  6.350000e+000 -1.555250e-015  0.000000e+000
      vertex  6.850000e+000 -1.275000e+001  0.000000e+000
    endloop
  endfacet
  facet normal  0.000000e+000  0.000000e+000  1.000000e+000
    outer loop
      vertex -6.500000e-001  6.316645e+000  0.000000e+000
      vertex -6.500000e-001  4.750000e+000  0.000000e+000
      vertex  6.500000e-001  6.316645e+000  0.000000e+000
    endloop
  endfacet
  facet normal  0.000000e+000  0.000000e+000  1.000000e+000
    outer loop
      vertex  6.500000e-001  6.316645e+000  0.000000e+000
      vertex -6.500000e-001  4.750000e+000  0.000000e+000
      vertex  6.500000e-001  4.750000e+000  0.000000e+000
    endloop
  endfacet
  facet normal -9.999999e-001  0.000000e+000  0.000000e+000
    outer loop
      vertex  6.500000e-001  6.316645e+000  0.000000e+000
      vertex  6.500000e-001  4.750000e+000  0.000000e+000
      vertex  6.500000e-001  6.316645e+000  9.000000e+000
    endloop
  endfacet
  facet normal -9.999999e-001  -0.000000e+000  0.000000e+000
    outer loop
      vertex  6.500000e-001  6.316645e+000  9.000000e+000
      vertex  6.500000e-001  4.750000e+000  0.000000e+000
      vertex  6.500000e-001  4.750000e+000  9.000000e+000
    endloop
  endfacet
  facet normal  9.999999e-001  0.000000e+000  0.000000e+000
    outer loop
      vertex -6.500000e-001  4.750000e+000  0.000000e+000
      vertex -6.500000e-001  6.316645e+000  0.000000e+000
      vertex -6.500000e-001  4.750000e+000  9.000000e+000
    endloop
  endfacet
  facet normal  9.999999e-001  -0.000000e+000  0.000000e+000
    outer loop
      vertex -6.500000e-001  4.750000e+000  9.000000e+000
      vertex -6.500000e-001  6.316645e+000  0.000000e+000
      vertex -6.500000e-001  6.316645e+000  9.000000e+000
    endloop
  endfacet
  facet normal  0.000000e+000  0.000000e+000  9.999999e-001
    outer loop
      vertex -6.500000e-001  4.750000e+000  9.000000e+000
      vertex -6.500000e-001  6.316645e+000  9.000000e+000
      vertex -3.543227e+000  5.269539e+000  9.000000e+000
    endloop
  endfacet
  facet normal  0.000000e+000  0.000000e+000  1.000000e+000
    outer loop
      vertex -6.500000e-001  4.750000e+000  9.000000e+000
      vertex -3.543227e+000  5.269539e+000  9.000000e+000
      vertex -5.604551e+000  2.985214e+000  9.000000e+000
    endloop
  endfacet
  facet normal  -0.000000e+000  0.000000e+000  1.000000e+000
    outer loop
      vertex -6.500000e-001  4.750000e+000  9.000000e+000
      vertex -5.604551e+000  2.985214e+000  9.000000e+000
      vertex -9.588511e-001  1.755165e+000  9.000000e+000
    endloop
  endfacet
  facet normal  0.000000e+000  0.000000e+000  1.000000e+000
    outer loop
      vertex -6.500000e-001  4.750000e+000  9.000000e+000
      vertex -9.588511e-001  1.755165e+000  9.000000e+000
      vertex  5.630791e-001  1.919099e+000  9.000000e+000
    endloop
  endfacet
  facet normal  0.000000e+000  -0.000000e+000  1.000000e+000
    outer loop
      vertex -6.500000e-001  4.750000e+000  9.000000e+000
      vertex  5.630791e-001  1.919099e+000  9.000000e+000
      vertex  5.604551e+000  2.985214e+000  9.000000e+000
    endloop
  endfacet
  facet normal  0.000000e+000  0.000000e+000  1.000000e+000
    outer loop
      vertex -6.500000e-001  4.750000e+000  9.000000e+000
      vertex  5.604551e+000  2.985214e+000  9.000000e+000
      vertex  6.500000e-001  4.750000e+000  9.000000e+000
    endloop
  endfacet
  facet normal  0.000000e+000  0.000000e+000  9.999999e-001
    outer loop
      vertex  3.543227e+000  5.269539e+000  9.000000e+000
      vertex  6.500000e-001  6.316645e+000  9.000000e+000
      vertex  5.604551e+000  2.985214e+000  9.000000e+000
    endloop
  endfacet
  facet normal  0.000000e+000  0.000000e+000  1.000000e+000
    outer loop
      vertex  5.604551e+000  2.985214e+000  9.000000e+000
      vertex  6.500000e-001  6.316645e+000  9.000000e+000
      vertex  6.500000e-001  4.750000e+000  9.000000e+000
    endloop
  endfacet
  facet normal  0.000000e+000  0.000000e+000  1.000000e+000
    outer loop
      vertex  3.959160e+000 -4.964630e+000  9.000000e+000
      vertex  5.721152e+000 -2.755162e+000  9.000000e+000
      vertex  1.413008e+000 -6.190792e+000  9.000000e+000
    endloop
  endfacet
  facet normal  0.000000e+000  -0.000000e+000  9.999999e-001
    outer loop
      vertex  1.413008e+000 -6.190792e+000  9.000000e+000
      vertex  5.721152e+000 -2.755162e+000  9.000000e+000
      vertex  9.588511e-001 -1.755165e+000  9.000000e+000
    endloop
  endfacet
  facet normal  0.000000e+000  0.000000e+000  1.000000e+000
    outer loop
      vertex  1.413008e+000 -6.190792e+000  9.000000e+000
      vertex  9.588511e-001 -1.755165e+000  9.000000e+000
      vertex -1.413008e+000 -6.190792e+000  9.000000e+000
    endloop
  endfacet
  facet normal  0.000000e+000  0.000000e+000  1.000000e+000
    outer loop
      vertex -1.413008e+000 -6.190792e+000  9.000000e+000
      vertex  9.588511e-001 -1.755165e+000  9.000000e+000
      vertex -5.630791e-001 -1.919099e+000  9.000000e+000
    endloop
  endfacet
  facet normal  0.000000e+000  0.000000e+000  1.000000e+000
    outer loop
      vertex -1.413008e+000 -6.190792e+000  9.000000e+000
      vertex -5.630791e-001 -1.919099e+000  9.000000e+000
      vertex -3.959160e+000 -4.964630e+000  9.000000e+000
    endloop
  endfacet
  facet normal  0.000000e+000  -0.000000e+000  1.000000e+000
    outer loop
      vertex -3.959160e+000 -4.964630e+000  9.000000e+000
      vertex -5.630791e-001 -1.919099e+000  9.000000e+000
      vertex -5.721152e+000 -2.755162e+000  9.000000e+000
    endloop
  endfacet
  facet normal  0.000000e+000  0.000000e+000  1.000000e+000
    outer loop
      vertex -9.588511e-001  1.755165e+000  9.000000e+000
      vertex -5.604551e+000  2.985214e+000  9.000000e+000
      vertex -1.919099e+000  5.630791e-001  9.000000e+000
    endloop
  endfacet
  facet normal  0.000000e+000  0.000000e+000  1.000000e+000
    outer loop
      vertex -1.919099e+000  5.630791e-001  9.000000e+000
      vertex -5.604551e+000  2.985214e+000  9.000000e+000
      vertex -6.350000e+000  7.776251e-016  9.000000e+000
    endloop
  endfacet
  facet normal  -0.000000e+000  0.000000e+000  1.000000e+000
    outer loop
      vertex -1.919099e+000  5.630791e-001  9.000000e+000
      vertex -6.350000e+000  7.776251e-016  9.000000e+000
      vertex -1.755165e+000 -9.588511e-001  9.000000e+000
    endloop
  endfacet
  facet normal  0.000000e+000  0.000000e+000  9.999999e-001
    outer loop
      vertex -1.755165e+000 -9.588511e-001  9.000000e+000
      vertex -6.350000e+000  7.776251e-016  9.000000e+000
      vertex -5.721152e+000 -2.755162e+000  9.000000e+000
    endloop
  endfacet
  facet normal  0.000000e+000  0.000000e+000  9.999999e-001
    outer loop
      vertex -1.755165e+000 -9.588511e-001  9.000000e+000
      vertex -5.721152e+000 -2.755162e+000  9.000000e+000
      vertex -5.630791e-001 -1.919099e+000  9.000000e+000
    endloop
  endfacet
  facet normal  -0.000000e+000  0.000000e+000  1.000000e+000
    outer loop
      vertex  5.604551e+000  2.985214e+000  9.000000e+000
      vertex  5.630791e-001  1.919099e+000  9.000000e+000
      vertex  6.350000e+000  0.000000e+000  9.000000e+000
    endloop
  endfacet
  facet normal  0.000000e+000  0.000000e+000  9.999999e-001
    outer loop
      vertex  6.350000e+000  0.000000e+000  9.000000e+000
      vertex  5.630791e-001  1.919099e+000  9.000000e+000
      vertex  1.755165e+000  9.588511e-001  9.000000e+000
    endloop
  endfacet
  facet normal  0.000000e+000  0.000000e+000  1.000000e+000
    outer loop
      vertex  6.350000e+000  0.000000e+000  9.000000e+000
      vertex  1.755165e+000  9.588511e-001  9.000000e+000
      vertex  1.919099e+000 -5.630791e-001  9.000000e+000
    endloop
  endfacet
  facet normal  0.000000e+000  0.000000e+000  9.999999e-001
    outer loop
      vertex  1.919099e+000 -5.630791e-001  9.000000e+000
      vertex  9.588511e-001 -1.755165e+000  9.000000e+000
      vertex  6.350000e+000  0.000000e+000  9.000000e+000
    endloop
  endfacet
  facet normal  0.000000e+000  0.000000e+000  9.999999e-001
    outer loop
      vertex  6.350000e+000  0.000000e+000  9.000000e+000
      vertex  9.588511e-001 -1.755165e+000  9.000000e+000
      vertex  5.721152e+000 -2.755162e+000  9.000000e+000
    endloop
  endfacet
  facet normal -9.702078e-001  2.422741e-001  0.000000e+000
    outer loop
      vertex -6.350000e+000  7.776251e-016  0.000000e+000
      vertex -6.350000e+000  7.776251e-016  9.000000e+000
      vertex -5.604551e+000  2.985214e+000  0.000000e+000
    endloop
  endfacet
  facet normal -9.702078e-001  2.422741e-001  0.000000e+000
    outer loop
      vertex -5.604551e+000  2.985214e+000  0.000000e+000
      vertex -6.350000e+000  7.776251e-016  9.000000e+000
      vertex -5.604551e+000  2.985214e+000  9.000000e+000
    endloop
  endfacet
  facet normal -7.424157e-001  6.699394e-001  0.000000e+000
    outer loop
      vertex -5.604551e+000  2.985214e+000  0.000000e+000
      vertex -5.604551e+000  2.985214e+000  9.000000e+000
      vertex -3.543227e+000  5.269539e+000  0.000000e+000
    endloop
  endfacet
  facet normal -7.424157e-001  6.699394e-001  0.000000e+000
    outer loop
      vertex -3.543227e+000  5.269539e+000  0.000000e+000
      vertex -5.604551e+000  2.985214e+000  9.000000e+000
      vertex -3.543227e+000  5.269539e+000  9.000000e+000
    endloop
  endfacet
  facet normal -3.403141e-001  9.403118e-001  0.000000e+000
    outer loop
      vertex -3.543227e+000  5.269539e+000  0.000000e+000
      vertex -3.543227e+000  5.269539e+000  9.000000e+000
      vertex -6.500000e-001  6.316645e+000  0.000000e+000
    endloop
  endfacet
  facet normal -3.403141e-001  9.403118e-001  0.000000e+000
    outer loop
      vertex -6.500000e-001  6.316645e+000  0.000000e+000
      vertex -3.543227e+000  5.269539e+000  9.000000e+000
      vertex -6.500000e-001  6.316645e+000  9.000000e+000
    endloop
  endfacet
  facet normal  3.403141e-001  9.403118e-001  0.000000e+000
    outer loop
      vertex  6.500000e-001  6.316645e+000  0.000000e+000
      vertex  6.500000e-001  6.316645e+000  9.000000e+000
      vertex  3.543227e+000  5.269539e+000  0.000000e+000
    endloop
  endfacet
  facet normal  3.403141e-001  9.403118e-001  -0.000000e+000
    outer loop
      vertex  3.543227e+000  5.269539e+000  0.000000e+000
      vertex  6.500000e-001  6.316645e+000  9.000000e+000
      vertex  3.543227e+000  5.269539e+000  9.000000e+000
    endloop
  endfacet
  facet normal  7.424157e-001  6.699394e-001  0.000000e+000
    outer loop
      vertex  3.543227e+000  5.269539e+000  0.000000e+000
      vertex  3.543227e+000  5.269539e+000  9.000000e+000
      vertex  5.604551e+000  2.985214e+000  0.000000e+000
    endloop
  endfacet
  facet normal  7.424157e-001  6.699394e-001  -0.000000e+000
    outer loop
      vertex  5.604551e+000  2.985214e+000  0.000000e+000
      vertex  3.543227e+000  5.269539e+000  9.000000e+000
      vertex  5.604551e+000  2.985214e+000  9.000000e+000
    endloop
  endfacet
  facet normal  9.702078e-001  2.422741e-001  0.000000e+000
    outer loop
      vertex  5.604551e+000  2.985214e+000  0.000000e+000
      vertex  5.604551e+000  2.985214e+000  9.000000e+000
      vertex  6.350000e+000 -1.555250e-015  0.000000e+000
    endloop
  endfacet
  facet normal  9.702078e-001  2.422741e-001 -4.186631e-017
    outer loop
      vertex  6.350000e+000 -1.555250e-015  0.000000e+000
      vertex  5.604551e+000  2.985214e+000  9.000000e+000
      vertex  6.350000e+000  0.000000e+000  9.000000e+000
    endloop
  endfacet
  facet normal  0.000000e+000  1.000000e+000  0.000000e+000
    outer loop
      vertex -6.500000e-001  4.750000e+000  0.000000e+000
      vertex -6.500000e-001  4.750000e+000  9.000000e+000
      vertex  6.500000e-001  4.750000e+000  0.000000e+000
    endloop
  endfacet
  facet normal  0.000000e+000  1.000000e+000  -0.000000e+000
    outer loop
      vertex  6.500000e-001  4.750000e+000  0.000000e+000
      vertex -6.500000e-001  4.750000e+000  9.000000e+000
      vertex  6.500000e-001  4.750000e+000  9.000000e+000
    endloop
  endfacet
  facet normal -9.926359e-001 -1.069214e-001  5.693708e-002
    outer loop
      vertex -1.755165e+000 -9.588511e-001  9.000000e+000
      vertex -8.775826e-001 -4.794255e-001  2.520000e+001
      vertex -1.919099e+000  5.630791e-001  9.000000e+000
    endloop
  endfacet
  facet normal -9.926359e-001 -1.069214e-001  5.693708e-002
    outer loop
      vertex -1.919099e+000  5.630791e-001  9.000000e+000
      vertex -8.775826e-001 -4.794255e-001  2.520000e+001
      vertex -9.595496e-001  2.815395e-001  2.520000e+001
    endloop
  endfacet
  facet normal -7.775044e-001  6.262947e-001  5.693708e-002
    outer loop
      vertex -1.919099e+000  5.630791e-001  9.000000e+000
      vertex -9.595496e-001  2.815395e-001  2.520000e+001
      vertex -9.588511e-001  1.755165e+000  9.000000e+000
    endloop
  endfacet
  facet normal -7.775044e-001  6.262947e-001  5.693708e-002
    outer loop
      vertex -9.588511e-001  1.755165e+000  9.000000e+000
      vertex -9.595496e-001  2.815395e-001  2.520000e+001
      vertex -4.794255e-001  8.775826e-001  2.520000e+001
    endloop
  endfacet
  facet normal -1.069214e-001  9.926359e-001  5.693708e-002
    outer loop
      vertex -9.588511e-001  1.755165e+000  9.000000e+000
      vertex -4.794255e-001  8.775826e-001  2.520000e+001
      vertex  5.630791e-001  1.919099e+000  9.000000e+000
    endloop
  endfacet
  facet normal -1.069214e-001  9.926359e-001  5.693708e-002
    outer loop
      vertex  5.630791e-001  1.919099e+000  9.000000e+000
      vertex -4.794255e-001  8.775826e-001  2.520000e+001
      vertex  2.815395e-001  9.595496e-001  2.520000e+001
    endloop
  endfacet
  facet normal  6.262947e-001  7.775044e-001  5.693708e-002
    outer loop
      vertex  5.630791e-001  1.919099e+000  9.000000e+000
      vertex  2.815395e-001  9.595496e-001  2.520000e+001
      vertex  1.755165e+000  9.588511e-001  9.000000e+000
    endloop
  endfacet
  facet normal  6.262947e-001  7.775044e-001  5.693708e-002
    outer loop
      vertex  1.755165e+000  9.588511e-001  9.000000e+000
      vertex  2.815395e-001  9.595496e-001  2.520000e+001
      vertex  8.775826e-001  4.794255e-001  2.520000e+001
    endloop
  endfacet
  facet normal  9.926359e-001  1.069214e-001  5.693708e-002
    outer loop
      vertex  1.755165e+000  9.588511e-001  9.000000e+000
      vertex  8.775826e-001  4.794255e-001  2.520000e+001
      vertex  1.919099e+000 -5.630791e-001  9.000000e+000
    endloop
  endfacet
  facet normal  9.926359e-001  1.069214e-001  5.693708e-002
    outer loop
      vertex  1.919099e+000 -5.630791e-001  9.000000e+000
      vertex  8.775826e-001  4.794255e-001  2.520000e+001
      vertex  9.595496e-001 -2.815395e-001  2.520000e+001
    endloop
  endfacet
  facet normal  7.775044e-001 -6.262947e-001  5.693708e-002
    outer loop
      vertex  1.919099e+000 -5.630791e-001  9.000000e+000
      vertex  9.595496e-001 -2.815395e-001  2.520000e+001
      vertex  9.588511e-001 -1.755165e+000  9.000000e+000
    endloop
  endfacet
  facet normal  7.775044e-001 -6.262947e-001  5.693708e-002
    outer loop
      vertex  9.588511e-001 -1.755165e+000  9.000000e+000
      vertex  9.595496e-001 -2.815395e-001  2.520000e+001
      vertex  4.794255e-001 -8.775826e-001  2.520000e+001
    endloop
  endfacet
  facet normal  1.069214e-001 -9.926359e-001  5.693708e-002
    outer loop
      vertex  9.588511e-001 -1.755165e+000  9.000000e+000
      vertex  4.794255e-001 -8.775826e-001  2.520000e+001
      vertex -5.630791e-001 -1.919099e+000  9.000000e+000
    endloop
  endfacet
  facet normal  1.069214e-001 -9.926359e-001  5.693708e-002
    outer loop
      vertex -5.630791e-001 -1.919099e+000  9.000000e+000
      vertex  4.794255e-001 -8.775826e-001  2.520000e+001
      vertex -2.815395e-001 -9.595496e-001  2.520000e+001
    endloop
  endfacet
  facet normal -6.262947e-001 -7.775044e-001  5.693708e-002
    outer loop
      vertex -5.630791e-001 -1.919099e+000  9.000000e+000
      vertex -2.815395e-001 -9.595496e-001  2.520000e+001
      vertex -1.755165e+000 -9.588511e-001  9.000000e+000
    endloop
  endfacet
  facet normal -6.262947e-001 -7.775044e-001  5.693708e-002
    outer loop
      vertex -1.755165e+000 -9.588511e-001  9.000000e+000
      vertex -2.815395e-001 -9.595496e-001  2.520000e+001
      vertex -8.775826e-001 -4.794255e-001  2.520000e+001
    endloop
  endfacet
  facet normal  -0.000000e+000  0.000000e+000  1.000000e+000
    outer loop
      vertex  2.815395e-001  9.595496e-001  2.520000e+001
      vertex -4.794255e-001  8.775826e-001  2.520000e+001
      vertex  8.775826e-001  4.794255e-001  2.520000e+001
    endloop
  endfacet
  facet normal  0.000000e+000  0.000000e+000  1.000000e+000
    outer loop
      vertex  8.775826e-001  4.794255e-001  2.520000e+001
      vertex -4.794255e-001  8.775826e-001  2.520000e+001
      vertex -9.595496e-001  2.815395e-001  2.520000e+001
    endloop
  endfacet
  facet normal  -0.000000e+000  0.000000e+000  9.999999e-001
    outer loop
      vertex  8.775826e-001  4.794255e-001  2.520000e+001
      vertex -9.595496e-001  2.815395e-001  2.520000e+001
      vertex  9.595496e-001 -2.815395e-001  2.520000e+001
    endloop
  endfacet
  facet normal  0.000000e+000  0.000000e+000  9.999999e-001
    outer loop
      vertex  9.595496e-001 -2.815395e-001  2.520000e+001
      vertex -9.595496e-001  2.815395e-001  2.520000e+001
      vertex -8.775826e-001 -4.794255e-001  2.520000e+001
    endloop
  endfacet
  facet normal  -0.000000e+000  0.000000e+000  1.000000e+000
    outer loop
      vertex  9.595496e-001 -2.815395e-001  2.520000e+001
      vertex -8.775826e-001 -4.794255e-001  2.520000e+001
      vertex  4.794255e-001 -8.775826e-001  2.520000e+001
    endloop
  endfacet
  facet normal  0.000000e+000  0.000000e+000  1.000000e+000
    outer loop
      vertex  4.794255e-001 -8.775826e-001  2.520000e+001
      vertex -8.775826e-001 -4.794255e-001  2.520000e+001
      vertex -2.815395e-001 -9.595496e-001  2.520000e+001
    endloop
  endfacet
  facet normal  9.749280e-001 -2.225209e-001  3.845285e-017
    outer loop
      vertex  6.350000e+000 -1.555250e-015  0.000000e+000
      vertex  6.350000e+000  0.000000e+000  9.000000e+000
      vertex  5.721152e+000 -2.755162e+000  0.000000e+000
    endloop
  endfacet
  facet normal  9.749280e-001 -2.225209e-001  0.000000e+000
    outer loop
      vertex  5.721152e+000 -2.755162e+000  0.000000e+000
      vertex  6.350000e+000  0.000000e+000  9.000000e+000
      vertex  5.721152e+000 -2.755162e+000  9.000000e+000
    endloop
  endfacet
  facet normal  7.818315e-001 -6.234897e-001  0.000000e+000
    outer loop
      vertex  5.721152e+000 -2.755162e+000  0.000000e+000
      vertex  5.721152e+000 -2.755162e+000  9.000000e+000
      vertex  3.959160e+000 -4.964630e+000  0.000000e+000
    endloop
  endfacet
  facet normal  7.818315e-001 -6.234897e-001  0.000000e+000
    outer loop
      vertex  3.959160e+000 -4.964630e+000  0.000000e+000
      vertex  5.721152e+000 -2.755162e+000  9.000000e+000
      vertex  3.959160e+000 -4.964630e+000  9.000000e+000
    endloop
  endfacet
  facet normal  4.338836e-001 -9.009690e-001  0.000000e+000
    outer loop
      vertex  3.959160e+000 -4.964630e+000  0.000000e+000
      vertex  3.959160e+000 -4.964630e+000  9.000000e+000
      vertex  1.413008e+000 -6.190792e+000  0.000000e+000
    endloop
  endfacet
  facet normal  4.338836e-001 -9.009690e-001  0.000000e+000
    outer loop
      vertex  1.413008e+000 -6.190792e+000  0.000000e+000
      vertex  3.959160e+000 -4.964630e+000  9.000000e+000
      vertex  1.413008e+000 -6.190792e+000  9.000000e+000
    endloop
  endfacet
  facet normal  0.000000e+000 -1.000000e+000  -0.000000e+000
    outer loop
      vertex  1.413008e+000 -6.190792e+000  0.000000e+000
      vertex  1.413008e+000 -6.190792e+000  9.000000e+000
      vertex -1.413008e+000 -6.190792e+000  0.000000e+000
    endloop
  endfacet
  facet normal  0.000000e+000 -1.000000e+000  0.000000e+000
    outer loop
      vertex -1.413008e+000 -6.190792e+000  0.000000e+000
      vertex  1.413008e+000 -6.190792e+000  9.000000e+000
      vertex -1.413008e+000 -6.190792e+000  9.000000e+000
    endloop
  endfacet
  facet normal -4.338836e-001 -9.009690e-001  -0.000000e+000
    outer loop
      vertex -1.413008e+000 -6.190792e+000  0.000000e+000
      vertex -1.413008e+000 -6.190792e+000  9.000000e+000
      vertex -3.959160e+000 -4.964630e+000  0.000000e+000
    endloop
  endfacet
  facet normal -4.338836e-001 -9.009690e-001  0.000000e+000
    outer loop
      vertex -3.959160e+000 -4.964630e+000  0.000000e+000
      vertex -1.413008e+000 -6.190792e+000  9.000000e+000
      vertex -3.959160e+000 -4.964630e+000  9.000000e+000
    endloop
  endfacet
  facet normal -7.818315e-001 -6.234897e-001  -0.000000e+000
    outer loop
      vertex -3.959160e+000 -4.964630e+000  0.000000e+000
      vertex -3.959160e+000 -4.964630e+000  9.000000e+000
      vertex -5.721152e+000 -2.755162e+000  0.000000e+000
    endloop
  endfacet
  facet normal -7.818315e-001 -6.234897e-001  0.000000e+000
    outer loop
      vertex -5.721152e+000 -2.755162e+000  0.000000e+000
      vertex -3.959160e+000 -4.964630e+000  9.000000e+000
      vertex -5.721152e+000 -2.755162e+000  9.000000e+000
    endloop
  endfacet
  facet normal -9.749280e-001 -2.225209e-001  -0.000000e+000
    outer loop
      vertex -5.721152e+000 -2.755162e+000  0.000000e+000
      vertex -5.721152e+000 -2.755162e+000  9.000000e+000
      vertex -6.350000e+000  7.776251e-016  0.000000e+000
    endloop
  endfacet
  facet normal -9.749280e-001 -2.225209e-001  0.000000e+000
    outer loop
      vertex -6.350000e+000  7.776251e-016  0.000000e+000
      vertex -5.721152e+000 -2.755162e+000  9.000000e+000
      vertex -6.350000e+000  7.776251e-016  9.000000e+000
    endloop
  endfacet
  facet normal  0.000000e+000  0.000000e+000 -1.000000e+000
    outer loop
      vertex -6.850000e+000 -1.275000e+001 -1.220000e+001
      vertex -6.850000e+000  1.275000e+001 -1.220000e+001
      vertex  6.850000e+000 -1.275000e+001 -1.220000e+001
    endloop
  endfacet
  facet normal  0.000000e+000  0.000000e+000 -1.000000e+000
    outer loop
      vertex  6.850000e+000 -1.275000e+001 -1.220000e+001
      vertex -6.850000e+000  1.275000e+001 -1.220000e+001
      vertex  6.850000e+000  1.275000e+001 -1.220000e+001
    endloop
  endfacet
  facet normal  0.000000e+000  9.999999e-001  0.000000e+000
    outer loop
      vertex -6.850000e+000  1.275000e+001 -1.220000e+001
      vertex -6.850000e+000  1.275000e+001  0.000000e+000
      vertex  6.850000e+000  1.275000e+001 -1.220000e+001
    endloop
  endfacet
  facet normal  0.000000e+000  9.999999e-001  -0.000000e+000
    outer loop
      vertex  6.850000e+000  1.275000e+001 -1.220000e+001
      vertex -6.850000e+000  1.275000e+001  0.000000e+000
      vertex  6.850000e+000  1.275000e+001  0.000000e+000
    endloop
  endfacet
  facet normal  1.000000e+000  0.000000e+000  0.000000e+000
    outer loop
      vertex  6.850000e+000 -1.275000e+001 -1.220000e+001
      vertex  6.850000e+000  1.275000e+001 -1.220000e+001
      vertex  6.850000e+000 -1.275000e+001  0.000000e+000
    endloop
  endfacet
  facet normal  1.000000e+000  -0.000000e+000  0.000000e+000
    outer loop
      vertex  6.850000e+000 -1.275000e+001  0.000000e+000
      vertex  6.850000e+000  1.275000e+001 -1.220000e+001
      vertex  6.850000e+000  1.275000e+001  0.000000e+000
    endloop
  endfacet
  facet normal  0.000000e+000 -9.999999e-001  -0.000000e+000
    outer loop
      vertex  6.850000e+000 -1.275000e+001 -1.220000e+001
      vertex  6.850000e+000 -1.275000e+001  0.000000e+000
      vertex -6.850000e+000 -1.275000e+001 -1.220000e+001
    endloop
  endfacet
  facet normal  0.000000e+000 -9.999999e-001  0.000000e+000
    outer loop
      vertex -6.850000e+000 -1.275000e+001 -1.220000e+001
      vertex  6.850000e+000 -1.275000e+001  0.000000e+000
      vertex -6.850000e+000 -1.275000e+001  0.000000e+000
    endloop
  endfacet
  facet normal -1.000000e+000  0.000000e+000  0.000000e+000
    outer loop
      vertex -6.850000e+000  1.275000e+001 -1.220000e+001
      vertex -6.850000e+000 -1.275000e+001 -1.220000e+001
      vertex -6.850000e+000  1.275000e+001  0.000000e+000
    endloop
  endfacet
  facet normal -1.000000e+000  -0.000000e+000  0.000000e+000
    outer loop
      vertex -6.850000e+000  1.275000e+001  0.000000e+000
      vertex -6.850000e+000 -1.275000e+001 -1.220000e+001
      vertex -6.850000e+000 -1.275000e+001  0.000000e+000
    endloop
  endfacet
endsolid CATIA STL
