solid CATIA STL
  facet normal  5.339153e-009  9.849326e-001 -1.729383e-001
    outer loop
      vertex  4.544935e+000  8.912615e+000 -7.064216e+000
      vertex  4.805408e+000  9.168081e+000 -5.609262e+000
      vertex  1.727139e+001  8.524538e+000 -9.274423e+000
    endloop
  endfacet
  facet normal  2.116986e-008  9.849326e-001 -1.729383e-001
    outer loop
      vertex  1.727139e+001  8.524538e+000 -9.274423e+000
      vertex  4.805408e+000  9.168081e+000 -5.609262e+000
      vertex  1.753186e+001  8.780005e+000 -7.819468e+000
    endloop
  endfacet
  facet normal  2.644240e-001  9.407015e-001 -2.125105e-001
    outer loop
      vertex  1.727139e+001  8.524538e+000 -9.274423e+000
      vertex  1.753186e+001  8.780005e+000 -7.819468e+000
      vertex  1.752610e+001  8.445764e+000 -9.306190e+000
    endloop
  endfacet
  facet normal  2.644255e-001  9.407010e-001 -2.125104e-001
    outer loop
      vertex  1.752610e+001  8.445764e+000 -9.306190e+000
      vertex  1.753186e+001  8.780005e+000 -7.819468e+000
      vertex  1.778658e+001  8.701230e+000 -7.851237e+000
    endloop
  endfacet
  facet normal  7.170143e-001  6.533042e-001 -2.430723e-001
    outer loop
      vertex  1.752610e+001  8.445764e+000 -9.306190e+000
      vertex  1.778658e+001  8.701230e+000 -7.851237e+000
      vertex  1.770737e+001  8.247692e+000 -9.303863e+000
    endloop
  endfacet
  facet normal  7.170146e-001  6.533039e-001 -2.430723e-001
    outer loop
      vertex  1.770737e+001  8.247692e+000 -9.303863e+000
      vertex  1.778658e+001  8.701230e+000 -7.851237e+000
      vertex  1.796784e+001  8.503159e+000 -7.848908e+000
    endloop
  endfacet
  facet normal  8.719469e-001  4.312412e-001 -2.318182e-001
    outer loop
      vertex  1.770737e+001  8.247692e+000 -9.303863e+000
      vertex  1.796784e+001  8.503159e+000 -7.848908e+000
      vertex  2.236058e+001 -7.585956e-001 -8.555541e+000
    endloop
  endfacet
  facet normal  8.719466e-001  4.312411e-001 -2.318194e-001
    outer loop
      vertex  2.236058e+001 -7.585956e-001 -8.555541e+000
      vertex  1.796784e+001  8.503159e+000 -7.848908e+000
      vertex  2.262105e+001 -5.031288e-001 -7.100587e+000
    endloop
  endfacet
  facet normal  9.750242e-001  1.087553e-001 -1.936495e-001
    outer loop
      vertex  2.236058e+001 -7.585956e-001 -8.555541e+000
      vertex  2.262105e+001 -5.031288e-001 -7.100587e+000
      vertex  2.240707e+001 -1.087394e+000 -8.506131e+000
    endloop
  endfacet
  facet normal  9.750242e-001  1.087555e-001 -1.936496e-001
    outer loop
      vertex  2.240707e+001 -1.087394e+000 -8.506131e+000
      vertex  2.262105e+001 -5.031288e-001 -7.100587e+000
      vertex  2.266754e+001 -8.319271e-001 -7.051178e+000
    endloop
  endfacet
  facet normal  8.428121e-001 -5.351902e-001 -5.691365e-002
    outer loop
      vertex  2.240707e+001 -1.087394e+000 -8.506131e+000
      vertex  2.266754e+001 -8.319271e-001 -7.051178e+000
      vertex  2.223604e+001 -1.365167e+000 -8.426741e+000
    endloop
  endfacet
  facet normal  8.428121e-001 -5.351903e-001 -5.691361e-002
    outer loop
      vertex  2.223604e+001 -1.365167e+000 -8.426741e+000
      vertex  2.266754e+001 -8.319271e-001 -7.051178e+000
      vertex  2.249652e+001 -1.109700e+000 -6.971787e+000
    endloop
  endfacet
  facet normal  3.306243e-001 -9.378493e-001  1.054814e-001
    outer loop
      vertex  2.223604e+001 -1.365167e+000 -8.426741e+000
      vertex  2.249652e+001 -1.109700e+000 -6.971787e+000
      vertex  2.192461e+001 -1.466683e+000 -8.353162e+000
    endloop
  endfacet
  facet normal  3.306226e-001 -9.378498e-001  1.054823e-001
    outer loop
      vertex  2.192461e+001 -1.466683e+000 -8.353162e+000
      vertex  2.249652e+001 -1.109700e+000 -6.971787e+000
      vertex  2.218508e+001 -1.211216e+000 -6.898208e+000
    endloop
  endfacet
  facet normal -1.736456e-001 -1.703082e-001 -9.699703e-001
    outer loop
      vertex  1.752610e+001  8.445764e+000 -9.306190e+000
      vertex  1.770737e+001  8.247692e+000 -9.303863e+000
      vertex  1.727139e+001  8.524538e+000 -9.274423e+000
    endloop
  endfacet
  facet normal -1.736465e-001 -1.703127e-001 -9.699693e-001
    outer loop
      vertex  2.223604e+001 -1.365167e+000 -8.426741e+000
      vertex  2.236058e+001 -7.585956e-001 -8.555541e+000
      vertex  2.240707e+001 -1.087394e+000 -8.506131e+000
    endloop
  endfacet
  facet normal -1.736497e-001 -1.703119e-001 -9.699690e-001
    outer loop
      vertex  2.236058e+001 -7.585956e-001 -8.555541e+000
      vertex  2.223604e+001 -1.365167e+000 -8.426741e+000
      vertex  1.770737e+001  8.247692e+000 -9.303863e+000
    endloop
  endfacet
  facet normal -1.736482e-001 -1.703112e-001 -9.699692e-001
    outer loop
      vertex  1.770737e+001  8.247692e+000 -9.303863e+000
      vertex  2.223604e+001 -1.365167e+000 -8.426741e+000
      vertex  2.192461e+001 -1.466683e+000 -8.353162e+000
    endloop
  endfacet
  facet normal -1.736472e-001 -1.703109e-001 -9.699696e-001
    outer loop
      vertex  1.770737e+001  8.247692e+000 -9.303863e+000
      vertex  2.192461e+001 -1.466683e+000 -8.353162e+000
      vertex  1.727139e+001  8.524538e+000 -9.274423e+000
    endloop
  endfacet
  facet normal -1.736481e-001 -1.703113e-001 -9.699693e-001
    outer loop
      vertex  1.727139e+001  8.524538e+000 -9.274423e+000
      vertex  2.192461e+001 -1.466683e+000 -8.353162e+000
      vertex  4.544935e+000 -9.367115e-001 -5.334831e+000
    endloop
  endfacet
  facet normal -1.736482e-001 -1.703112e-001 -9.699692e-001
    outer loop
      vertex  1.727139e+001  8.524538e+000 -9.274423e+000
      vertex  4.544935e+000 -9.367115e-001 -5.334831e+000
      vertex  4.544935e+000  8.912615e+000 -7.064216e+000
    endloop
  endfacet
  facet normal -7.543703e-009 -9.849326e-001  1.729385e-001
    outer loop
      vertex  4.544935e+000 -9.367115e-001 -5.334831e+000
      vertex  2.192461e+001 -1.466683e+000 -8.353162e+000
      vertex  4.805408e+000 -6.812447e-001 -3.879877e+000
    endloop
  endfacet
  facet normal  6.604476e-009 -9.849326e-001  1.729386e-001
    outer loop
      vertex  4.805408e+000 -6.812447e-001 -3.879877e+000
      vertex  2.192461e+001 -1.466683e+000 -8.353162e+000
      vertex  2.218508e+001 -1.211216e+000 -6.898208e+000
    endloop
  endfacet
  facet normal  1.736506e-001  1.703151e-001  9.699682e-001
    outer loop
      vertex  1.753186e+001  8.780005e+000 -7.819468e+000
      vertex  1.796784e+001  8.503159e+000 -7.848908e+000
      vertex  1.778658e+001  8.701230e+000 -7.851237e+000
    endloop
  endfacet
  facet normal  1.736485e-001  1.703115e-001  9.699692e-001
    outer loop
      vertex  2.266754e+001 -8.319271e-001 -7.051178e+000
      vertex  2.262105e+001 -5.031288e-001 -7.100587e+000
      vertex  2.249652e+001 -1.109700e+000 -6.971787e+000
    endloop
  endfacet
  facet normal  1.736487e-001  1.703114e-001  9.699692e-001
    outer loop
      vertex  2.249652e+001 -1.109700e+000 -6.971787e+000
      vertex  2.262105e+001 -5.031288e-001 -7.100587e+000
      vertex  1.796784e+001  8.503159e+000 -7.848908e+000
    endloop
  endfacet
  facet normal  1.736474e-001  1.703108e-001  9.699695e-001
    outer loop
      vertex  2.249652e+001 -1.109700e+000 -6.971787e+000
      vertex  1.796784e+001  8.503159e+000 -7.848908e+000
      vertex  2.218508e+001 -1.211216e+000 -6.898208e+000
    endloop
  endfacet
  facet normal  1.736482e-001  1.703112e-001  9.699692e-001
    outer loop
      vertex  2.218508e+001 -1.211216e+000 -6.898208e+000
      vertex  1.796784e+001  8.503159e+000 -7.848908e+000
      vertex  1.753186e+001  8.780005e+000 -7.819468e+000
    endloop
  endfacet
  facet normal  1.736482e-001  1.703112e-001  9.699693e-001
    outer loop
      vertex  2.218508e+001 -1.211216e+000 -6.898208e+000
      vertex  1.753186e+001  8.780005e+000 -7.819468e+000
      vertex  4.805408e+000 -6.812447e-001 -3.879877e+000
    endloop
  endfacet
  facet normal  1.736481e-001  1.703112e-001  9.699693e-001
    outer loop
      vertex  4.805408e+000 -6.812447e-001 -3.879877e+000
      vertex  1.753186e+001  8.780005e+000 -7.819468e+000
      vertex  4.805408e+000  9.168081e+000 -5.609262e+000
    endloop
  endfacet
  facet normal  5.591928e-001  1.433726e-001  8.165463e-001
    outer loop
      vertex  2.823478e+000  9.335253e+000 -4.657176e+000
      vertex  3.746516e+000 -6.217445e-001 -3.541006e+000
      vertex  3.746516e+000  9.227582e+000 -5.270391e+000
    endloop
  endfacet
  facet normal  3.090169e-001  1.644743e-001  9.367266e-001
    outer loop
      vertex  3.746516e+000  9.227582e+000 -5.270391e+000
      vertex  3.746516e+000 -6.217445e-001 -3.541006e+000
      vertex  4.805408e+000 -6.812447e-001 -3.879877e+000
    endloop
  endfacet
  facet normal  3.090172e-001  1.644743e-001  9.367265e-001
    outer loop
      vertex  3.746516e+000  9.227582e+000 -5.270391e+000
      vertex  4.805408e+000 -6.812447e-001 -3.879877e+000
      vertex  4.805408e+000  9.168081e+000 -5.609262e+000
    endloop
  endfacet
  facet normal  5.591928e-001  1.433726e-001  8.165463e-001
    outer loop
      vertex  3.746516e+000 -6.217445e-001 -3.541006e+000
      vertex  2.823478e+000  9.335253e+000 -4.657176e+000
      vertex  2.823478e+000 -5.140734e-001 -2.927790e+000
    endloop
  endfacet
  facet normal  7.660446e-001  1.111627e-001  6.331023e-001
    outer loop
      vertex  2.823478e+000 -5.140734e-001 -2.927790e+000
      vertex  2.823478e+000  9.335253e+000 -4.657176e+000
      vertex  2.107808e+000  9.482753e+000 -3.817124e+000
    endloop
  endfacet
  facet normal  7.660445e-001  1.111627e-001  6.331024e-001
    outer loop
      vertex  2.823478e+000 -5.140734e-001 -2.927790e+000
      vertex  2.107808e+000  9.482753e+000 -3.817124e+000
      vertex  2.107808e+000 -3.665738e-001 -2.087739e+000
    endloop
  endfacet
  facet normal  9.135454e-001  7.034043e-002  4.006082e-001
    outer loop
      vertex  2.107808e+000 -3.665738e-001 -2.087739e+000
      vertex  2.107808e+000  9.482753e+000 -3.817124e+000
      vertex  1.654953e+000  9.658653e+000 -2.815322e+000
    endloop
  endfacet
  facet normal  9.135454e-001  7.034043e-002  4.006082e-001
    outer loop
      vertex  2.107808e+000 -3.665738e-001 -2.087739e+000
      vertex  1.654953e+000  9.658653e+000 -2.815322e+000
      vertex  1.654953e+000 -1.906733e-001 -1.085937e+000
    endloop
  endfacet
  facet normal  9.902681e-001  2.406839e-002  1.370762e-001
    outer loop
      vertex  1.654953e+000 -1.906733e-001 -1.085937e+000
      vertex  1.654953e+000  9.658653e+000 -2.815322e+000
      vertex  1.500000e+000  9.849326e+000 -1.729385e+000
    endloop
  endfacet
  facet normal  9.902681e-001  2.406839e-002  1.370762e-001
    outer loop
      vertex  1.654953e+000 -1.906733e-001 -1.085937e+000
      vertex  1.500000e+000  9.849326e+000 -1.729385e+000
      vertex  1.500000e+000  1.110223e-016  0.000000e+000
    endloop
  endfacet
  facet normal  1.000000e+000  0.000000e+000  -0.000000e+000
    outer loop
      vertex  1.500000e+000  1.729385e+000  9.849326e+000
      vertex  1.500000e+000  5.268408e+000  9.784634e+000
      vertex  1.500000e+000  5.854048e+000  1.037027e+001
    endloop
  endfacet
  facet normal  1.000000e+000  -0.000000e+000  0.000000e+000
    outer loop
      vertex  1.500000e+000  8.254048e+000  8.984633e+000
      vertex  1.500000e+000  8.039689e+000  8.184633e+000
      vertex  1.500000e+000  1.157871e+001  8.119941e+000
    endloop
  endfacet
  facet normal  1.000000e+000  0.000000e+000  0.000000e+000
    outer loop
      vertex  1.500000e+000  9.849326e+000 -1.729385e+000
      vertex  1.500000e+000  1.157871e+001  8.119941e+000
      vertex  1.500000e+000  8.039689e+000  8.184633e+000
    endloop
  endfacet
  facet normal  1.000000e+000  0.000000e+000  0.000000e+000
    outer loop
      vertex  1.500000e+000  9.849326e+000 -1.729385e+000
      vertex  1.500000e+000  8.039689e+000  8.184633e+000
      vertex  1.500000e+000  7.454048e+000  7.598993e+000
    endloop
  endfacet
  facet normal  1.000000e+000  0.000000e+000  0.000000e+000
    outer loop
      vertex  1.500000e+000  9.849326e+000 -1.729385e+000
      vertex  1.500000e+000  7.454048e+000  7.598993e+000
      vertex  1.500000e+000  6.654048e+000  7.384634e+000
    endloop
  endfacet
  facet normal  1.000000e+000  0.000000e+000  0.000000e+000
    outer loop
      vertex  1.500000e+000  9.849326e+000 -1.729385e+000
      vertex  1.500000e+000  6.654048e+000  7.384634e+000
      vertex  1.500000e+000  1.110223e-016  0.000000e+000
    endloop
  endfacet
  facet normal  1.000000e+000  -0.000000e+000  -0.000000e+000
    outer loop
      vertex  1.500000e+000  6.654048e+000  1.058463e+001
      vertex  1.500000e+000  7.454048e+000  1.037027e+001
      vertex  1.500000e+000  1.162284e+001  9.542405e+000
    endloop
  endfacet
  facet normal  9.999999e-001  0.000000e+000  0.000000e+000
    outer loop
      vertex  1.500000e+000  6.654048e+000  1.058463e+001
      vertex  1.500000e+000  1.162284e+001  9.542405e+000
      vertex  1.500000e+000  1.126443e+001  1.091968e+001
    endloop
  endfacet
  facet normal  1.000000e+000  0.000000e+000  0.000000e+000
    outer loop
      vertex  1.500000e+000  6.654048e+000  1.058463e+001
      vertex  1.500000e+000  1.126443e+001  1.091968e+001
      vertex  1.500000e+000  1.053251e+001  1.214019e+001
    endloop
  endfacet
  facet normal  1.000000e+000  0.000000e+000  0.000000e+000
    outer loop
      vertex  1.500000e+000  6.654048e+000  1.058463e+001
      vertex  1.500000e+000  1.053251e+001  1.214019e+001
      vertex  1.500000e+000  9.486380e+000  1.310506e+001
    endloop
  endfacet
  facet normal  1.000000e+000  0.000000e+000  0.000000e+000
    outer loop
      vertex  1.500000e+000  6.654048e+000  1.058463e+001
      vertex  1.500000e+000  9.486380e+000  1.310506e+001
      vertex  1.500000e+000  8.210793e+000  1.373611e+001
    endloop
  endfacet
  facet normal  1.000000e+000  0.000000e+000  0.000000e+000
    outer loop
      vertex  1.500000e+000  6.654048e+000  1.058463e+001
      vertex  1.500000e+000  8.210793e+000  1.373611e+001
      vertex  1.500000e+000  6.809087e+000  1.398223e+001
    endloop
  endfacet
  facet normal  1.000000e+000  0.000000e+000  0.000000e+000
    outer loop
      vertex  1.500000e+000  6.654048e+000  1.058463e+001
      vertex  1.500000e+000  6.809087e+000  1.398223e+001
      vertex  1.500000e+000  5.394821e+000  1.382347e+001
    endloop
  endfacet
  facet normal  1.000000e+000  0.000000e+000  0.000000e+000
    outer loop
      vertex  1.500000e+000  6.654048e+000  1.058463e+001
      vertex  1.500000e+000  5.394821e+000  1.382347e+001
      vertex  1.500000e+000  4.082571e+000  1.327270e+001
    endloop
  endfacet
  facet normal  1.000000e+000  0.000000e+000  0.000000e+000
    outer loop
      vertex  1.500000e+000  6.654048e+000  1.058463e+001
      vertex  1.500000e+000  4.082571e+000  1.327270e+001
      vertex  1.500000e+000  2.978646e+000  1.237453e+001
    endloop
  endfacet
  facet normal  9.999999e-001  0.000000e+000  0.000000e+000
    outer loop
      vertex  1.500000e+000  6.654048e+000  1.058463e+001
      vertex  1.500000e+000  2.978646e+000  1.237453e+001
      vertex  1.500000e+000  2.172481e+000  1.120174e+001
    endloop
  endfacet
  facet normal  1.000000e+000  0.000000e+000  0.000000e+000
    outer loop
      vertex  1.500000e+000  6.654048e+000  1.058463e+001
      vertex  1.500000e+000  2.172481e+000  1.120174e+001
      vertex  1.500000e+000  1.729385e+000  9.849326e+000
    endloop
  endfacet
  facet normal  9.999999e-001  0.000000e+000  0.000000e+000
    outer loop
      vertex  1.500000e+000  6.654048e+000  1.058463e+001
      vertex  1.500000e+000  1.729385e+000  9.849326e+000
      vertex  1.500000e+000  5.854048e+000  1.037027e+001
    endloop
  endfacet
  facet normal  1.000000e+000  0.000000e+000  0.000000e+000
    outer loop
      vertex  1.500000e+000  1.110223e-016  0.000000e+000
      vertex  1.500000e+000  6.654048e+000  7.384634e+000
      vertex  1.500000e+000  5.854048e+000  7.598993e+000
    endloop
  endfacet
  facet normal  1.000000e+000  0.000000e+000  0.000000e+000
    outer loop
      vertex  1.500000e+000  1.110223e-016  0.000000e+000
      vertex  1.500000e+000  5.854048e+000  7.598993e+000
      vertex  1.500000e+000  5.268408e+000  8.184633e+000
    endloop
  endfacet
  facet normal  9.999999e-001  0.000000e+000  0.000000e+000
    outer loop
      vertex  1.500000e+000  1.110223e-016  0.000000e+000
      vertex  1.500000e+000  5.268408e+000  8.184633e+000
      vertex  1.500000e+000  5.054048e+000  8.984633e+000
    endloop
  endfacet
  facet normal  1.000000e+000  0.000000e+000  -0.000000e+000
    outer loop
      vertex  1.500000e+000  1.110223e-016  0.000000e+000
      vertex  1.500000e+000  5.054048e+000  8.984633e+000
      vertex  1.500000e+000  5.268408e+000  9.784634e+000
    endloop
  endfacet
  facet normal  1.000000e+000  0.000000e+000  0.000000e+000
    outer loop
      vertex  1.500000e+000  1.110223e-016  0.000000e+000
      vertex  1.500000e+000  5.268408e+000  9.784634e+000
      vertex  1.500000e+000  1.729385e+000  9.849326e+000
    endloop
  endfacet
  facet normal  1.000000e+000  0.000000e+000  0.000000e+000
    outer loop
      vertex  1.500000e+000  8.254048e+000  8.984633e+000
      vertex  1.500000e+000  1.157871e+001  8.119941e+000
      vertex  1.500000e+000  8.039689e+000  9.784634e+000
    endloop
  endfacet
  facet normal  1.000000e+000  0.000000e+000  0.000000e+000
    outer loop
      vertex  1.500000e+000  8.039689e+000  9.784634e+000
      vertex  1.500000e+000  1.157871e+001  8.119941e+000
      vertex  1.500000e+000  1.162284e+001  9.542405e+000
    endloop
  endfacet
  facet normal  1.000000e+000  0.000000e+000  0.000000e+000
    outer loop
      vertex  1.500000e+000  8.039689e+000  9.784634e+000
      vertex  1.500000e+000  1.162284e+001  9.542405e+000
      vertex  1.500000e+000  7.454048e+000  1.037027e+001
    endloop
  endfacet
  facet normal  8.569968e-017 -9.849327e-001  1.729385e-001
    outer loop
      vertex  0.000000e+000  0.000000e+000  1.110223e-016
      vertex  1.500000e+000  1.110223e-016  0.000000e+000
      vertex  0.000000e+000  1.729385e+000  9.849326e+000
    endloop
  endfacet
  facet normal  0.000000e+000 -9.849327e-001  1.729385e-001
    outer loop
      vertex  0.000000e+000  1.729385e+000  9.849326e+000
      vertex  1.500000e+000  1.110223e-016  0.000000e+000
      vertex  1.500000e+000  1.729385e+000  9.849326e+000
    endloop
  endfacet
  facet normal  1.183791e-008 -9.849326e-001  1.729385e-001
    outer loop
      vertex  4.544935e+000 -9.367115e-001 -5.334831e+000
      vertex  4.805408e+000 -6.812447e-001 -3.879877e+000
      vertex  3.088959e+000 -8.548986e-001 -4.868884e+000
    endloop
  endfacet
  facet normal  2.892869e-008 -9.849327e-001  1.729385e-001
    outer loop
      vertex  3.088959e+000 -8.548986e-001 -4.868884e+000
      vertex  4.805408e+000 -6.812447e-001 -3.879877e+000
      vertex  3.746516e+000 -6.217445e-001 -3.541006e+000
    endloop
  endfacet
  facet normal -5.256463e-008 -9.849326e-001  1.729385e-001
    outer loop
      vertex  3.088959e+000 -8.548986e-001 -4.868884e+000
      vertex  3.746516e+000 -6.217445e-001 -3.541006e+000
      vertex  2.823478e+000 -5.140734e-001 -2.927790e+000
    endloop
  endfacet
  facet normal  5.055353e-008 -9.849326e-001  1.729385e-001
    outer loop
      vertex  3.088959e+000 -8.548986e-001 -4.868884e+000
      vertex  2.823478e+000 -5.140734e-001 -2.927790e+000
      vertex  1.819782e+000 -7.068510e-001 -4.025712e+000
    endloop
  endfacet
  facet normal  7.406332e-008 -9.849326e-001  1.729385e-001
    outer loop
      vertex  1.819782e+000 -7.068510e-001 -4.025712e+000
      vertex  2.823478e+000 -5.140734e-001 -2.927790e+000
      vertex  2.107808e+000 -3.665738e-001 -2.087739e+000
    endloop
  endfacet
  facet normal -2.542688e-008 -9.849325e-001  1.729385e-001
    outer loop
      vertex  1.819782e+000 -7.068510e-001 -4.025712e+000
      vertex  2.107808e+000 -3.665738e-001 -2.087739e+000
      vertex  1.654953e+000 -1.906733e-001 -1.085937e+000
    endloop
  endfacet
  facet normal -4.614581e-008 -9.849327e-001  1.729386e-001
    outer loop
      vertex  1.819782e+000 -7.068510e-001 -4.025712e+000
      vertex  1.654953e+000 -1.906733e-001 -1.085937e+000
      vertex  8.357355e-001 -5.040390e-001 -2.870641e+000
    endloop
  endfacet
  facet normal  1.053234e-008 -9.849327e-001  1.729385e-001
    outer loop
      vertex  8.357355e-001 -5.040390e-001 -2.870641e+000
      vertex  1.654953e+000 -1.906733e-001 -1.085937e+000
      vertex  1.500000e+000  1.110223e-016  0.000000e+000
    endloop
  endfacet
  facet normal  3.856049e-010 -9.849327e-001  1.729385e-001
    outer loop
      vertex  8.357355e-001 -5.040390e-001 -2.870641e+000
      vertex  1.500000e+000  1.110223e-016  0.000000e+000
      vertex  2.130607e-001 -2.621757e-001 -1.493163e+000
    endloop
  endfacet
  facet normal  0.000000e+000 -9.849326e-001  1.729385e-001
    outer loop
      vertex  2.130607e-001 -2.621757e-001 -1.493163e+000
      vertex  1.500000e+000  1.110223e-016  0.000000e+000
      vertex  0.000000e+000  0.000000e+000  1.110223e-016
    endloop
  endfacet
  facet normal -3.090168e-001 -1.644743e-001 -9.367266e-001
    outer loop
      vertex  4.544935e+000  8.912615e+000 -7.064216e+000
      vertex  4.544935e+000 -9.367115e-001 -5.334831e+000
      vertex  3.088959e+000  8.994428e+000 -6.598269e+000
    endloop
  endfacet
  facet normal -3.090171e-001 -1.644743e-001 -9.367266e-001
    outer loop
      vertex  3.088959e+000  8.994428e+000 -6.598269e+000
      vertex  4.544935e+000 -9.367115e-001 -5.334831e+000
      vertex  3.088959e+000 -8.548986e-001 -4.868884e+000
    endloop
  endfacet
  facet normal -5.591929e-001 -1.433725e-001 -8.165461e-001
    outer loop
      vertex  3.088959e+000  8.994428e+000 -6.598269e+000
      vertex  3.088959e+000 -8.548986e-001 -4.868884e+000
      vertex  1.819782e+000  9.142475e+000 -5.755097e+000
    endloop
  endfacet
  facet normal -5.591929e-001 -1.433725e-001 -8.165461e-001
    outer loop
      vertex  1.819782e+000  9.142475e+000 -5.755097e+000
      vertex  3.088959e+000 -8.548986e-001 -4.868884e+000
      vertex  1.819782e+000 -7.068510e-001 -4.025712e+000
    endloop
  endfacet
  facet normal -7.660444e-001 -1.111627e-001 -6.331024e-001
    outer loop
      vertex  1.819782e+000  9.142475e+000 -5.755097e+000
      vertex  1.819782e+000 -7.068510e-001 -4.025712e+000
      vertex  8.357355e-001  9.345287e+000 -4.600027e+000
    endloop
  endfacet
  facet normal -7.660444e-001 -1.111627e-001 -6.331024e-001
    outer loop
      vertex  8.357355e-001  9.345287e+000 -4.600027e+000
      vertex  1.819782e+000 -7.068510e-001 -4.025712e+000
      vertex  8.357355e-001 -5.040390e-001 -2.870641e+000
    endloop
  endfacet
  facet normal -9.135454e-001 -7.034043e-002 -4.006082e-001
    outer loop
      vertex  8.357355e-001  9.345287e+000 -4.600027e+000
      vertex  8.357355e-001 -5.040390e-001 -2.870641e+000
      vertex  2.130607e-001  9.587151e+000 -3.222548e+000
    endloop
  endfacet
  facet normal -9.135455e-001 -7.034044e-002 -4.006082e-001
    outer loop
      vertex  2.130607e-001  9.587151e+000 -3.222548e+000
      vertex  8.357355e-001 -5.040390e-001 -2.870641e+000
      vertex  2.130607e-001 -2.621757e-001 -1.493163e+000
    endloop
  endfacet
  facet normal -9.902680e-001 -2.406839e-002 -1.370761e-001
    outer loop
      vertex  2.130607e-001  9.587151e+000 -3.222548e+000
      vertex  2.130607e-001 -2.621757e-001 -1.493163e+000
      vertex  0.000000e+000  9.849326e+000 -1.729385e+000
    endloop
  endfacet
  facet normal -9.902681e-001 -2.406839e-002 -1.370761e-001
    outer loop
      vertex  0.000000e+000  9.849326e+000 -1.729385e+000
      vertex  2.130607e-001 -2.621757e-001 -1.493163e+000
      vertex  0.000000e+000  0.000000e+000  1.110223e-016
    endloop
  endfacet
  facet normal -1.000000e+000  0.000000e+000  0.000000e+000
    outer loop
      vertex  0.000000e+000  5.854048e+000  1.037027e+001
      vertex  0.000000e+000  5.268408e+000  9.784634e+000
      vertex  0.000000e+000  1.729385e+000  9.849326e+000
    endloop
  endfacet
  facet normal -1.000000e+000  0.000000e+000  0.000000e+000
    outer loop
      vertex  0.000000e+000  1.157871e+001  8.119941e+000
      vertex  0.000000e+000  8.039689e+000  8.184633e+000
      vertex  0.000000e+000  8.254048e+000  8.984633e+000
    endloop
  endfacet
  facet normal -1.000000e+000  0.000000e+000  0.000000e+000
    outer loop
      vertex  0.000000e+000  9.849326e+000 -1.729385e+000
      vertex  0.000000e+000  0.000000e+000  1.110223e-016
      vertex  0.000000e+000  6.654048e+000  7.384634e+000
    endloop
  endfacet
  facet normal -1.000000e+000  0.000000e+000  0.000000e+000
    outer loop
      vertex  0.000000e+000  9.849326e+000 -1.729385e+000
      vertex  0.000000e+000  6.654048e+000  7.384634e+000
      vertex  0.000000e+000  7.454048e+000  7.598993e+000
    endloop
  endfacet
  facet normal -1.000000e+000  0.000000e+000  0.000000e+000
    outer loop
      vertex  0.000000e+000  9.849326e+000 -1.729385e+000
      vertex  0.000000e+000  7.454048e+000  7.598993e+000
      vertex  0.000000e+000  8.039689e+000  8.184633e+000
    endloop
  endfacet
  facet normal -1.000000e+000  0.000000e+000  0.000000e+000
    outer loop
      vertex  0.000000e+000  9.849326e+000 -1.729385e+000
      vertex  0.000000e+000  8.039689e+000  8.184633e+000
      vertex  0.000000e+000  1.157871e+001  8.119941e+000
    endloop
  endfacet
  facet normal -9.999999e-001  -0.000000e+000  0.000000e+000
    outer loop
      vertex  0.000000e+000  6.654048e+000  1.058463e+001
      vertex  0.000000e+000  5.854048e+000  1.037027e+001
      vertex  0.000000e+000  1.729385e+000  9.849326e+000
    endloop
  endfacet
  facet normal -1.000000e+000  0.000000e+000  0.000000e+000
    outer loop
      vertex  0.000000e+000  6.654048e+000  1.058463e+001
      vertex  0.000000e+000  1.729385e+000  9.849326e+000
      vertex  0.000000e+000  2.172481e+000  1.120174e+001
    endloop
  endfacet
  facet normal -9.999999e-001  0.000000e+000  0.000000e+000
    outer loop
      vertex  0.000000e+000  6.654048e+000  1.058463e+001
      vertex  0.000000e+000  2.172481e+000  1.120174e+001
      vertex  0.000000e+000  2.978646e+000  1.237453e+001
    endloop
  endfacet
  facet normal -1.000000e+000  0.000000e+000  0.000000e+000
    outer loop
      vertex  0.000000e+000  6.654048e+000  1.058463e+001
      vertex  0.000000e+000  2.978646e+000  1.237453e+001
      vertex  0.000000e+000  4.082571e+000  1.327270e+001
    endloop
  endfacet
  facet normal -1.000000e+000  0.000000e+000  0.000000e+000
    outer loop
      vertex  0.000000e+000  6.654048e+000  1.058463e+001
      vertex  0.000000e+000  4.082571e+000  1.327270e+001
      vertex  0.000000e+000  5.394821e+000  1.382347e+001
    endloop
  endfacet
  facet normal -1.000000e+000  0.000000e+000  0.000000e+000
    outer loop
      vertex  0.000000e+000  6.654048e+000  1.058463e+001
      vertex  0.000000e+000  5.394821e+000  1.382347e+001
      vertex  0.000000e+000  6.809087e+000  1.398223e+001
    endloop
  endfacet
  facet normal -1.000000e+000  0.000000e+000  -0.000000e+000
    outer loop
      vertex  0.000000e+000  6.654048e+000  1.058463e+001
      vertex  0.000000e+000  6.809087e+000  1.398223e+001
      vertex  0.000000e+000  8.210793e+000  1.373611e+001
    endloop
  endfacet
  facet normal -1.000000e+000  0.000000e+000  -0.000000e+000
    outer loop
      vertex  0.000000e+000  6.654048e+000  1.058463e+001
      vertex  0.000000e+000  8.210793e+000  1.373611e+001
      vertex  0.000000e+000  9.486380e+000  1.310506e+001
    endloop
  endfacet
  facet normal -1.000000e+000  0.000000e+000  -0.000000e+000
    outer loop
      vertex  0.000000e+000  6.654048e+000  1.058463e+001
      vertex  0.000000e+000  9.486380e+000  1.310506e+001
      vertex  0.000000e+000  1.053251e+001  1.214019e+001
    endloop
  endfacet
  facet normal -1.000000e+000  0.000000e+000  -0.000000e+000
    outer loop
      vertex  0.000000e+000  6.654048e+000  1.058463e+001
      vertex  0.000000e+000  1.053251e+001  1.214019e+001
      vertex  0.000000e+000  1.126443e+001  1.091968e+001
    endloop
  endfacet
  facet normal -9.999999e-001  0.000000e+000  -0.000000e+000
    outer loop
      vertex  0.000000e+000  6.654048e+000  1.058463e+001
      vertex  0.000000e+000  1.126443e+001  1.091968e+001
      vertex  0.000000e+000  1.162284e+001  9.542405e+000
    endloop
  endfacet
  facet normal -1.000000e+000  0.000000e+000  0.000000e+000
    outer loop
      vertex  0.000000e+000  6.654048e+000  1.058463e+001
      vertex  0.000000e+000  1.162284e+001  9.542405e+000
      vertex  0.000000e+000  7.454048e+000  1.037027e+001
    endloop
  endfacet
  facet normal -1.000000e+000  0.000000e+000  -0.000000e+000
    outer loop
      vertex  0.000000e+000  0.000000e+000  1.110223e-016
      vertex  0.000000e+000  1.729385e+000  9.849326e+000
      vertex  0.000000e+000  5.268408e+000  9.784634e+000
    endloop
  endfacet
  facet normal -1.000000e+000  0.000000e+000  0.000000e+000
    outer loop
      vertex  0.000000e+000  0.000000e+000  1.110223e-016
      vertex  0.000000e+000  5.268408e+000  9.784634e+000
      vertex  0.000000e+000  5.054048e+000  8.984633e+000
    endloop
  endfacet
  facet normal -9.999999e-001  0.000000e+000  -0.000000e+000
    outer loop
      vertex  0.000000e+000  0.000000e+000  1.110223e-016
      vertex  0.000000e+000  5.054048e+000  8.984633e+000
      vertex  0.000000e+000  5.268408e+000  8.184633e+000
    endloop
  endfacet
  facet normal -1.000000e+000  0.000000e+000  -0.000000e+000
    outer loop
      vertex  0.000000e+000  0.000000e+000  1.110223e-016
      vertex  0.000000e+000  5.268408e+000  8.184633e+000
      vertex  0.000000e+000  5.854048e+000  7.598993e+000
    endloop
  endfacet
  facet normal -1.000000e+000  0.000000e+000  -0.000000e+000
    outer loop
      vertex  0.000000e+000  0.000000e+000  1.110223e-016
      vertex  0.000000e+000  5.854048e+000  7.598993e+000
      vertex  0.000000e+000  6.654048e+000  7.384634e+000
    endloop
  endfacet
  facet normal -1.000000e+000  0.000000e+000  0.000000e+000
    outer loop
      vertex  0.000000e+000  7.454048e+000  1.037027e+001
      vertex  0.000000e+000  1.162284e+001  9.542405e+000
      vertex  0.000000e+000  8.039689e+000  9.784634e+000
    endloop
  endfacet
  facet normal -1.000000e+000  0.000000e+000  0.000000e+000
    outer loop
      vertex  0.000000e+000  8.039689e+000  9.784634e+000
      vertex  0.000000e+000  1.162284e+001  9.542405e+000
      vertex  0.000000e+000  1.157871e+001  8.119941e+000
    endloop
  endfacet
  facet normal -1.000000e+000  0.000000e+000  0.000000e+000
    outer loop
      vertex  0.000000e+000  8.039689e+000  9.784634e+000
      vertex  0.000000e+000  1.157871e+001  8.119941e+000
      vertex  0.000000e+000  8.254048e+000  8.984633e+000
    endloop
  endfacet
  facet normal  0.000000e+000  9.849327e-001 -1.729385e-001
    outer loop
      vertex  0.000000e+000  9.849326e+000 -1.729385e+000
      vertex  0.000000e+000  1.157871e+001  8.119941e+000
      vertex  1.500000e+000  9.849326e+000 -1.729385e+000
    endloop
  endfacet
  facet normal  0.000000e+000  9.849327e-001 -1.729385e-001
    outer loop
      vertex  1.500000e+000  9.849326e+000 -1.729385e+000
      vertex  0.000000e+000  1.157871e+001  8.119941e+000
      vertex  1.500000e+000  1.157871e+001  8.119941e+000
    endloop
  endfacet
  facet normal -1.896445e-007  9.849326e-001 -1.729385e-001
    outer loop
      vertex  2.823478e+000  9.335253e+000 -4.657176e+000
      vertex  3.746516e+000  9.227582e+000 -5.270391e+000
      vertex  3.088959e+000  8.994428e+000 -6.598269e+000
    endloop
  endfacet
  facet normal  2.443993e-007  9.849327e-001 -1.729387e-001
    outer loop
      vertex  3.088959e+000  8.994428e+000 -6.598269e+000
      vertex  3.746516e+000  9.227582e+000 -5.270391e+000
      vertex  4.805408e+000  9.168081e+000 -5.609262e+000
    endloop
  endfacet
  facet normal  2.158163e-008  9.849326e-001 -1.729383e-001
    outer loop
      vertex  3.088959e+000  8.994428e+000 -6.598269e+000
      vertex  4.805408e+000  9.168081e+000 -5.609262e+000
      vertex  4.544935e+000  8.912615e+000 -7.064216e+000
    endloop
  endfacet
  facet normal -5.232121e-007  9.849325e-001 -1.729387e-001
    outer loop
      vertex  1.654953e+000  9.658653e+000 -2.815322e+000
      vertex  2.107808e+000  9.482753e+000 -3.817124e+000
      vertex  1.819782e+000  9.142475e+000 -5.755097e+000
    endloop
  endfacet
  facet normal  1.939121e-007  9.849325e-001 -1.729388e-001
    outer loop
      vertex  1.819782e+000  9.142475e+000 -5.755097e+000
      vertex  2.107808e+000  9.482753e+000 -3.817124e+000
      vertex  2.823478e+000  9.335253e+000 -4.657176e+000
    endloop
  endfacet
  facet normal -1.146879e-007  9.849326e-001 -1.729385e-001
    outer loop
      vertex  1.819782e+000  9.142475e+000 -5.755097e+000
      vertex  2.823478e+000  9.335253e+000 -4.657176e+000
      vertex  3.088959e+000  8.994428e+000 -6.598269e+000
    endloop
  endfacet
  facet normal  6.806788e-008  9.849327e-001 -1.729386e-001
    outer loop
      vertex  1.819782e+000  9.142475e+000 -5.755097e+000
      vertex  8.357355e-001  9.345287e+000 -4.600027e+000
      vertex  1.654953e+000  9.658653e+000 -2.815322e+000
    endloop
  endfacet
  facet normal -6.967177e-007  9.849327e-001 -1.729383e-001
    outer loop
      vertex  1.654953e+000  9.658653e+000 -2.815322e+000
      vertex  8.357355e-001  9.345287e+000 -4.600027e+000
      vertex  1.500000e+000  9.849326e+000 -1.729385e+000
    endloop
  endfacet
  facet normal  8.850147e-008  9.849327e-001 -1.729385e-001
    outer loop
      vertex  8.357355e-001  9.345287e+000 -4.600027e+000
      vertex  2.130607e-001  9.587151e+000 -3.222548e+000
      vertex  1.500000e+000  9.849326e+000 -1.729385e+000
    endloop
  endfacet
  facet normal  0.000000e+000  9.849327e-001 -1.729384e-001
    outer loop
      vertex  1.500000e+000  9.849326e+000 -1.729385e+000
      vertex  2.130607e-001  9.587151e+000 -3.222548e+000
      vertex  0.000000e+000  9.849326e+000 -1.729385e+000
    endloop
  endfacet
  facet normal  0.000000e+000 -9.502957e-001  3.113486e-001
    outer loop
      vertex  0.000000e+000  1.729385e+000  9.849326e+000
      vertex  1.500000e+000  1.729385e+000  9.849326e+000
      vertex  0.000000e+000  2.172481e+000  1.120174e+001
    endloop
  endfacet
  facet normal  0.000000e+000 -9.502957e-001  3.113486e-001
    outer loop
      vertex  0.000000e+000  2.172481e+000  1.120174e+001
      vertex  1.500000e+000  1.729385e+000  9.849326e+000
      vertex  1.500000e+000  2.172481e+000  1.120174e+001
    endloop
  endfacet
  facet normal  0.000000e+000 -8.240850e-001  5.664662e-001
    outer loop
      vertex  0.000000e+000  2.172481e+000  1.120174e+001
      vertex  1.500000e+000  2.172481e+000  1.120174e+001
      vertex  0.000000e+000  2.978646e+000  1.237453e+001
    endloop
  endfacet
  facet normal  0.000000e+000 -8.240850e-001  5.664662e-001
    outer loop
      vertex  0.000000e+000  2.978646e+000  1.237453e+001
      vertex  1.500000e+000  2.172481e+000  1.120174e+001
      vertex  1.500000e+000  2.978646e+000  1.237453e+001
    endloop
  endfacet
  facet normal  0.000000e+000 -6.311118e-001  7.756918e-001
    outer loop
      vertex  0.000000e+000  2.978646e+000  1.237453e+001
      vertex  1.500000e+000  2.978646e+000  1.237453e+001
      vertex  0.000000e+000  4.082571e+000  1.327270e+001
    endloop
  endfacet
  facet normal  0.000000e+000 -6.311118e-001  7.756918e-001
    outer loop
      vertex  0.000000e+000  4.082571e+000  1.327270e+001
      vertex  1.500000e+000  2.978646e+000  1.237453e+001
      vertex  1.500000e+000  4.082571e+000  1.327270e+001
    endloop
  endfacet
  facet normal  0.000000e+000 -3.870094e-001  9.220758e-001
    outer loop
      vertex  0.000000e+000  4.082571e+000  1.327270e+001
      vertex  1.500000e+000  4.082571e+000  1.327270e+001
      vertex  0.000000e+000  5.394821e+000  1.382347e+001
    endloop
  endfacet
  facet normal  0.000000e+000 -3.870094e-001  9.220758e-001
    outer loop
      vertex  0.000000e+000  5.394821e+000  1.382347e+001
      vertex  1.500000e+000  4.082571e+000  1.327270e+001
      vertex  1.500000e+000  5.394821e+000  1.382347e+001
    endloop
  endfacet
  facet normal  0.000000e+000 -1.115542e-001  9.937583e-001
    outer loop
      vertex  0.000000e+000  5.394821e+000  1.382347e+001
      vertex  1.500000e+000  5.394821e+000  1.382347e+001
      vertex  0.000000e+000  6.809087e+000  1.398223e+001
    endloop
  endfacet
  facet normal  0.000000e+000 -1.115542e-001  9.937583e-001
    outer loop
      vertex  0.000000e+000  6.809087e+000  1.398223e+001
      vertex  1.500000e+000  5.394821e+000  1.382347e+001
      vertex  1.500000e+000  6.809087e+000  1.398223e+001
    endloop
  endfacet
  facet normal  0.000000e+000  1.729381e-001  9.849327e-001
    outer loop
      vertex  0.000000e+000  6.809087e+000  1.398223e+001
      vertex  1.500000e+000  6.809087e+000  1.398223e+001
      vertex  0.000000e+000  8.210793e+000  1.373611e+001
    endloop
  endfacet
  facet normal  -0.000000e+000  1.729381e-001  9.849327e-001
    outer loop
      vertex  0.000000e+000  8.210793e+000  1.373611e+001
      vertex  1.500000e+000  6.809087e+000  1.398223e+001
      vertex  1.500000e+000  8.210793e+000  1.373611e+001
    endloop
  endfacet
  facet normal  0.000000e+000  4.434210e-001  8.963134e-001
    outer loop
      vertex  0.000000e+000  8.210793e+000  1.373611e+001
      vertex  1.500000e+000  8.210793e+000  1.373611e+001
      vertex  0.000000e+000  9.486380e+000  1.310506e+001
    endloop
  endfacet
  facet normal  -0.000000e+000  4.434210e-001  8.963134e-001
    outer loop
      vertex  0.000000e+000  9.486380e+000  1.310506e+001
      vertex  1.500000e+000  8.210793e+000  1.373611e+001
      vertex  1.500000e+000  9.486380e+000  1.310506e+001
    endloop
  endfacet
  facet normal  0.000000e+000  6.779802e-001  7.350801e-001
    outer loop
      vertex  0.000000e+000  9.486380e+000  1.310506e+001
      vertex  1.500000e+000  9.486380e+000  1.310506e+001
      vertex  0.000000e+000  1.053251e+001  1.214019e+001
    endloop
  endfacet
  facet normal  -0.000000e+000  6.779802e-001  7.350801e-001
    outer loop
      vertex  0.000000e+000  1.053251e+001  1.214019e+001
      vertex  1.500000e+000  9.486380e+000  1.310506e+001
      vertex  1.500000e+000  1.053251e+001  1.214019e+001
    endloop
  endfacet
  facet normal  0.000000e+000  8.576131e-001  5.142953e-001
    outer loop
      vertex  0.000000e+000  1.053251e+001  1.214019e+001
      vertex  1.500000e+000  1.053251e+001  1.214019e+001
      vertex  0.000000e+000  1.126443e+001  1.091968e+001
    endloop
  endfacet
  facet normal  -0.000000e+000  8.576131e-001  5.142953e-001
    outer loop
      vertex  0.000000e+000  1.126443e+001  1.091968e+001
      vertex  1.500000e+000  1.053251e+001  1.214019e+001
      vertex  1.500000e+000  1.126443e+001  1.091968e+001
    endloop
  endfacet
  facet normal  0.000000e+000  9.677674e-001  2.518457e-001
    outer loop
      vertex  0.000000e+000  1.126443e+001  1.091968e+001
      vertex  1.500000e+000  1.126443e+001  1.091968e+001
      vertex  0.000000e+000  1.162284e+001  9.542405e+000
    endloop
  endfacet
  facet normal  -0.000000e+000  9.677674e-001  2.518457e-001
    outer loop
      vertex  0.000000e+000  1.162284e+001  9.542405e+000
      vertex  1.500000e+000  1.126443e+001  1.091968e+001
      vertex  1.500000e+000  1.162284e+001  9.542405e+000
    endloop
  endfacet
  facet normal  0.000000e+000  9.995191e-001 -3.100759e-002
    outer loop
      vertex  0.000000e+000  1.162284e+001  9.542405e+000
      vertex  1.500000e+000  1.162284e+001  9.542405e+000
      vertex  0.000000e+000  1.157871e+001  8.119941e+000
    endloop
  endfacet
  facet normal  0.000000e+000  9.995191e-001 -3.100759e-002
    outer loop
      vertex  0.000000e+000  1.157871e+001  8.119941e+000
      vertex  1.500000e+000  1.162284e+001  9.542405e+000
      vertex  1.500000e+000  1.157871e+001  8.119941e+000
    endloop
  endfacet
  facet normal  0.000000e+000 -2.588191e-001  9.659259e-001
    outer loop
      vertex  0.000000e+000  6.654048e+000  7.384634e+000
      vertex  1.500000e+000  7.454048e+000  7.598993e+000
      vertex  0.000000e+000  7.454048e+000  7.598993e+000
    endloop
  endfacet
  facet normal  0.000000e+000 -7.071065e-001  7.071071e-001
    outer loop
      vertex  0.000000e+000  7.454048e+000  7.598993e+000
      vertex  1.500000e+000  7.454048e+000  7.598993e+000
      vertex  1.500000e+000  8.039689e+000  8.184633e+000
    endloop
  endfacet
  facet normal  0.000000e+000 -7.071065e-001  7.071071e-001
    outer loop
      vertex  0.000000e+000  7.454048e+000  7.598993e+000
      vertex  1.500000e+000  8.039689e+000  8.184633e+000
      vertex  0.000000e+000  8.039689e+000  8.184633e+000
    endloop
  endfacet
  facet normal  0.000000e+000 -9.659259e-001  2.588189e-001
    outer loop
      vertex  0.000000e+000  8.039689e+000  8.184633e+000
      vertex  1.500000e+000  8.039689e+000  8.184633e+000
      vertex  1.500000e+000  8.254048e+000  8.984633e+000
    endloop
  endfacet
  facet normal  0.000000e+000 -9.659259e-001  2.588189e-001
    outer loop
      vertex  0.000000e+000  8.039689e+000  8.184633e+000
      vertex  1.500000e+000  8.254048e+000  8.984633e+000
      vertex  0.000000e+000  8.254048e+000  8.984633e+000
    endloop
  endfacet
  facet normal  0.000000e+000 -2.588191e-001  9.659259e-001
    outer loop
      vertex  1.500000e+000  7.454048e+000  7.598993e+000
      vertex  0.000000e+000  6.654048e+000  7.384634e+000
      vertex  1.500000e+000  6.654048e+000  7.384634e+000
    endloop
  endfacet
  facet normal  0.000000e+000  2.588189e-001  9.659259e-001
    outer loop
      vertex  1.500000e+000  6.654048e+000  7.384634e+000
      vertex  0.000000e+000  6.654048e+000  7.384634e+000
      vertex  0.000000e+000  5.854048e+000  7.598993e+000
    endloop
  endfacet
  facet normal  -0.000000e+000  2.588189e-001  9.659259e-001
    outer loop
      vertex  1.500000e+000  6.654048e+000  7.384634e+000
      vertex  0.000000e+000  5.854048e+000  7.598993e+000
      vertex  1.500000e+000  5.854048e+000  7.598993e+000
    endloop
  endfacet
  facet normal  0.000000e+000  7.071068e-001  7.071068e-001
    outer loop
      vertex  1.500000e+000  5.854048e+000  7.598993e+000
      vertex  0.000000e+000  5.854048e+000  7.598993e+000
      vertex  0.000000e+000  5.268408e+000  8.184633e+000
    endloop
  endfacet
  facet normal  -0.000000e+000  7.071068e-001  7.071068e-001
    outer loop
      vertex  1.500000e+000  5.854048e+000  7.598993e+000
      vertex  0.000000e+000  5.268408e+000  8.184633e+000
      vertex  1.500000e+000  5.268408e+000  8.184633e+000
    endloop
  endfacet
  facet normal  0.000000e+000  9.659257e-001  2.588194e-001
    outer loop
      vertex  1.500000e+000  5.268408e+000  8.184633e+000
      vertex  0.000000e+000  5.268408e+000  8.184633e+000
      vertex  0.000000e+000  5.054048e+000  8.984633e+000
    endloop
  endfacet
  facet normal  -0.000000e+000  9.659257e-001  2.588194e-001
    outer loop
      vertex  1.500000e+000  5.268408e+000  8.184633e+000
      vertex  0.000000e+000  5.054048e+000  8.984633e+000
      vertex  1.500000e+000  5.054048e+000  8.984633e+000
    endloop
  endfacet
  facet normal  0.000000e+000  2.588189e-001 -9.659259e-001
    outer loop
      vertex  0.000000e+000  6.654048e+000  1.058463e+001
      vertex  1.500000e+000  5.854048e+000  1.037027e+001
      vertex  0.000000e+000  5.854048e+000  1.037027e+001
    endloop
  endfacet
  facet normal  0.000000e+000  7.071071e-001 -7.071065e-001
    outer loop
      vertex  0.000000e+000  5.854048e+000  1.037027e+001
      vertex  1.500000e+000  5.854048e+000  1.037027e+001
      vertex  1.500000e+000  5.268408e+000  9.784634e+000
    endloop
  endfacet
  facet normal  0.000000e+000  7.071071e-001 -7.071065e-001
    outer loop
      vertex  0.000000e+000  5.854048e+000  1.037027e+001
      vertex  1.500000e+000  5.268408e+000  9.784634e+000
      vertex  0.000000e+000  5.268408e+000  9.784634e+000
    endloop
  endfacet
  facet normal  0.000000e+000  9.659257e-001 -2.588194e-001
    outer loop
      vertex  0.000000e+000  5.268408e+000  9.784634e+000
      vertex  1.500000e+000  5.268408e+000  9.784634e+000
      vertex  1.500000e+000  5.054048e+000  8.984633e+000
    endloop
  endfacet
  facet normal  0.000000e+000  9.659257e-001 -2.588194e-001
    outer loop
      vertex  0.000000e+000  5.268408e+000  9.784634e+000
      vertex  1.500000e+000  5.054048e+000  8.984633e+000
      vertex  0.000000e+000  5.054048e+000  8.984633e+000
    endloop
  endfacet
  facet normal  0.000000e+000  2.588189e-001 -9.659259e-001
    outer loop
      vertex  1.500000e+000  5.854048e+000  1.037027e+001
      vertex  0.000000e+000  6.654048e+000  1.058463e+001
      vertex  1.500000e+000  6.654048e+000  1.058463e+001
    endloop
  endfacet
  facet normal  -0.000000e+000 -2.588191e-001 -9.659259e-001
    outer loop
      vertex  1.500000e+000  6.654048e+000  1.058463e+001
      vertex  0.000000e+000  6.654048e+000  1.058463e+001
      vertex  0.000000e+000  7.454048e+000  1.037027e+001
    endloop
  endfacet
  facet normal  0.000000e+000 -2.588191e-001 -9.659259e-001
    outer loop
      vertex  1.500000e+000  6.654048e+000  1.058463e+001
      vertex  0.000000e+000  7.454048e+000  1.037027e+001
      vertex  1.500000e+000  7.454048e+000  1.037027e+001
    endloop
  endfacet
  facet normal  -0.000000e+000 -7.071068e-001 -7.071068e-001
    outer loop
      vertex  1.500000e+000  7.454048e+000  1.037027e+001
      vertex  0.000000e+000  7.454048e+000  1.037027e+001
      vertex  0.000000e+000  8.039689e+000  9.784634e+000
    endloop
  endfacet
  facet normal  0.000000e+000 -7.071068e-001 -7.071068e-001
    outer loop
      vertex  1.500000e+000  7.454048e+000  1.037027e+001
      vertex  0.000000e+000  8.039689e+000  9.784634e+000
      vertex  1.500000e+000  8.039689e+000  9.784634e+000
    endloop
  endfacet
  facet normal  -0.000000e+000 -9.659259e-001 -2.588189e-001
    outer loop
      vertex  1.500000e+000  8.039689e+000  9.784634e+000
      vertex  0.000000e+000  8.039689e+000  9.784634e+000
      vertex  0.000000e+000  8.254048e+000  8.984633e+000
    endloop
  endfacet
  facet normal  0.000000e+000 -9.659259e-001 -2.588189e-001
    outer loop
      vertex  1.500000e+000  8.039689e+000  9.784634e+000
      vertex  0.000000e+000  8.254048e+000  8.984633e+000
      vertex  1.500000e+000  8.254048e+000  8.984633e+000
    endloop
  endfacet
endsolid CATIA STL
