solid CATIA STL
  facet normal -4.997278e-008 -9.420154e-001 -3.355697e-001
    outer loop
      vertex  5.371287e+000 -1.156822e+001  2.674379e+000
      vertex  5.631759e+000 -1.107251e+001  1.282823e+000
      vertex  1.069985e+001 -1.188351e+001  3.559469e+000
    endloop
  endfacet
  facet normal -3.806091e-008 -9.420154e-001 -3.355698e-001
    outer loop
      vertex  1.069985e+001 -1.188351e+001  3.559469e+000
      vertex  5.631759e+000 -1.107251e+001  1.282823e+000
      vertex  1.096033e+001 -1.138780e+001  2.167912e+000
    endloop
  endfacet
  facet normal  3.465191e-001 -9.022778e-001 -2.565526e-001
    outer loop
      vertex  1.069985e+001 -1.188351e+001  3.559469e+000
      vertex  1.096033e+001 -1.138780e+001  2.167912e+000
      vertex  1.102421e+001 -1.178607e+001  3.654892e+000
    endloop
  endfacet
  facet normal  3.465189e-001 -9.022779e-001 -2.565526e-001
    outer loop
      vertex  1.102421e+001 -1.178607e+001  3.654892e+000
      vertex  1.096033e+001 -1.138780e+001  2.167912e+000
      vertex  1.128468e+001 -1.129037e+001  2.263335e+000
    endloop
  endfacet
  facet normal  8.679466e-001 -4.964490e-001 -1.438494e-002
    outer loop
      vertex  1.102421e+001 -1.178607e+001  3.654892e+000
      vertex  1.128468e+001 -1.129037e+001  2.263335e+000
      vertex  1.118794e+001 -1.150363e+001  3.786150e+000
    endloop
  endfacet
  facet normal  8.679466e-001 -4.964490e-001 -1.438494e-002
    outer loop
      vertex  1.118794e+001 -1.150363e+001  3.786150e+000
      vertex  1.128468e+001 -1.129037e+001  2.263335e+000
      vertex  1.144841e+001 -1.100793e+001  2.394594e+000
    endloop
  endfacet
  facet normal  9.761689e-001 -1.822602e-001  1.177942e-001
    outer loop
      vertex  1.118794e+001 -1.150363e+001  3.786150e+000
      vertex  1.144841e+001 -1.100793e+001  2.394594e+000
      vertex  1.236971e+001 -3.095420e+000  7.002573e+000
    endloop
  endfacet
  facet normal  9.761689e-001 -1.822602e-001  1.177942e-001
    outer loop
      vertex  1.236971e+001 -3.095420e+000  7.002573e+000
      vertex  1.144841e+001 -1.100793e+001  2.394594e+000
      vertex  1.263018e+001 -2.599712e+000  5.611017e+000
    endloop
  endfacet
  facet normal  9.735515e-001  8.441514e-002  2.123007e-001
    outer loop
      vertex  1.236971e+001 -3.095420e+000  7.002573e+000
      vertex  1.263018e+001 -2.599712e+000  5.611017e+000
      vertex  1.232812e+001 -2.832123e+000  7.088582e+000
    endloop
  endfacet
  facet normal  9.735515e-001  8.441521e-002  2.123007e-001
    outer loop
      vertex  1.232812e+001 -2.832123e+000  7.088582e+000
      vertex  1.263018e+001 -2.599712e+000  5.611017e+000
      vertex  1.258859e+001 -2.336416e+000  5.697026e+000
    endloop
  endfacet
  facet normal  7.409528e-001  5.766877e-001  3.441226e-001
    outer loop
      vertex  1.232812e+001 -2.832123e+000  7.088582e+000
      vertex  1.258859e+001 -2.336416e+000  5.697026e+000
      vertex  1.214642e+001 -2.622854e+000  7.129118e+000
    endloop
  endfacet
  facet normal  7.409534e-001  5.766868e-001  3.441226e-001
    outer loop
      vertex  1.214642e+001 -2.622854e+000  7.129118e+000
      vertex  1.258859e+001 -2.336416e+000  5.697026e+000
      vertex  1.240689e+001 -2.127146e+000  5.737562e+000
    endloop
  endfacet
  facet normal  2.758385e-001  8.879876e-001  3.679554e-001
    outer loop
      vertex  1.214642e+001 -2.622854e+000  7.129118e+000
      vertex  1.240689e+001 -2.127146e+000  5.737562e+000
      vertex  1.188162e+001 -2.533282e+000  7.111461e+000
    endloop
  endfacet
  facet normal  2.758372e-001  8.879882e-001  3.679550e-001
    outer loop
      vertex  1.188162e+001 -2.533282e+000  7.111461e+000
      vertex  1.240689e+001 -2.127146e+000  5.737562e+000
      vertex  1.214209e+001 -2.037575e+000  5.719904e+000
    endloop
  endfacet
  facet normal -1.736482e-001 -3.304717e-001  9.277041e-001
    outer loop
      vertex  5.371287e+000 -2.148066e+000  6.030077e+000
      vertex  5.371287e+000 -1.156822e+001  2.674379e+000
      vertex  1.069985e+001 -1.188351e+001  3.559469e+000
    endloop
  endfacet
  facet normal -1.736487e-001 -3.304719e-001  9.277038e-001
    outer loop
      vertex  5.371287e+000 -2.148066e+000  6.030077e+000
      vertex  1.069985e+001 -1.188351e+001  3.559469e+000
      vertex  1.102421e+001 -1.178607e+001  3.654892e+000
    endloop
  endfacet
  facet normal -1.736484e-001 -3.304718e-001  9.277039e-001
    outer loop
      vertex  5.371287e+000 -2.148066e+000  6.030077e+000
      vertex  1.102421e+001 -1.178607e+001  3.654892e+000
      vertex  1.118794e+001 -1.150363e+001  3.786150e+000
    endloop
  endfacet
  facet normal -1.736482e-001 -3.304716e-001  9.277040e-001
    outer loop
      vertex  5.371287e+000 -2.148066e+000  6.030077e+000
      vertex  1.118794e+001 -1.150363e+001  3.786150e+000
      vertex  1.236971e+001 -3.095420e+000  7.002573e+000
    endloop
  endfacet
  facet normal -1.736482e-001 -3.304717e-001  9.277040e-001
    outer loop
      vertex  5.371287e+000 -2.148066e+000  6.030077e+000
      vertex  1.236971e+001 -3.095420e+000  7.002573e+000
      vertex  1.232812e+001 -2.832123e+000  7.088582e+000
    endloop
  endfacet
  facet normal -1.736481e-001 -3.304714e-001  9.277041e-001
    outer loop
      vertex  5.371287e+000 -2.148066e+000  6.030077e+000
      vertex  1.232812e+001 -2.832123e+000  7.088582e+000
      vertex  1.214642e+001 -2.622854e+000  7.129118e+000
    endloop
  endfacet
  facet normal -1.736482e-001 -3.304715e-001  9.277042e-001
    outer loop
      vertex  5.371287e+000 -2.148066e+000  6.030077e+000
      vertex  1.214642e+001 -2.622854e+000  7.129118e+000
      vertex  1.188162e+001 -2.533282e+000  7.111461e+000
    endloop
  endfacet
  facet normal  2.666249e-008  9.420153e-001  3.355696e-001
    outer loop
      vertex  5.371287e+000 -2.148066e+000  6.030077e+000
      vertex  1.188162e+001 -2.533282e+000  7.111461e+000
      vertex  5.631759e+000 -1.652358e+000  4.638520e+000
    endloop
  endfacet
  facet normal  5.639151e-008  9.420155e-001  3.355696e-001
    outer loop
      vertex  5.631759e+000 -1.652358e+000  4.638520e+000
      vertex  1.188162e+001 -2.533282e+000  7.111461e+000
      vertex  1.214209e+001 -2.037575e+000  5.719904e+000
    endloop
  endfacet
  facet normal  1.736481e-001  3.304671e-001 -9.277056e-001
    outer loop
      vertex  5.631759e+000 -1.652358e+000  4.638520e+000
      vertex  1.214209e+001 -2.037575e+000  5.719904e+000
      vertex  1.240689e+001 -2.127146e+000  5.737562e+000
    endloop
  endfacet
  facet normal  1.736482e-001  3.304730e-001 -9.277035e-001
    outer loop
      vertex  5.631759e+000 -1.652358e+000  4.638520e+000
      vertex  1.240689e+001 -2.127146e+000  5.737562e+000
      vertex  1.258859e+001 -2.336416e+000  5.697026e+000
    endloop
  endfacet
  facet normal  1.736482e-001  3.304720e-001 -9.277039e-001
    outer loop
      vertex  5.631759e+000 -1.652358e+000  4.638520e+000
      vertex  1.258859e+001 -2.336416e+000  5.697026e+000
      vertex  1.263018e+001 -2.599712e+000  5.611017e+000
    endloop
  endfacet
  facet normal  1.736481e-001  3.304716e-001 -9.277040e-001
    outer loop
      vertex  5.631759e+000 -1.652358e+000  4.638520e+000
      vertex  1.263018e+001 -2.599712e+000  5.611017e+000
      vertex  1.144841e+001 -1.100793e+001  2.394594e+000
    endloop
  endfacet
  facet normal  1.736490e-001  3.304721e-001 -9.277037e-001
    outer loop
      vertex  5.631759e+000 -1.652358e+000  4.638520e+000
      vertex  1.144841e+001 -1.100793e+001  2.394594e+000
      vertex  1.128468e+001 -1.129037e+001  2.263335e+000
    endloop
  endfacet
  facet normal  1.736481e-001  3.304716e-001 -9.277040e-001
    outer loop
      vertex  5.631759e+000 -1.652358e+000  4.638520e+000
      vertex  1.128468e+001 -1.129037e+001  2.263335e+000
      vertex  1.096033e+001 -1.138780e+001  2.167912e+000
    endloop
  endfacet
  facet normal  1.736482e-001  3.304717e-001 -9.277041e-001
    outer loop
      vertex  5.631759e+000 -1.652358e+000  4.638520e+000
      vertex  1.096033e+001 -1.138780e+001  2.167912e+000
      vertex  5.631759e+000 -1.107251e+001  1.282823e+000
    endloop
  endfacet
  facet normal  5.591931e-001  2.781998e-001 -7.809660e-001
    outer loop
      vertex  3.154347e+000 -1.066704e+001  1.445723e-001
      vertex  4.308144e+000 -1.508040e+000  4.233389e+000
      vertex  4.308144e+000 -1.092819e+001  8.776921e-001
    endloop
  endfacet
  facet normal  3.090170e-001  3.191458e-001 -8.959100e-001
    outer loop
      vertex  4.308144e+000 -1.092819e+001  8.776921e-001
      vertex  4.308144e+000 -1.508040e+000  4.233389e+000
      vertex  5.631759e+000 -1.652358e+000  4.638520e+000
    endloop
  endfacet
  facet normal  3.090167e-001  3.191458e-001 -8.959100e-001
    outer loop
      vertex  4.308144e+000 -1.092819e+001  8.776921e-001
      vertex  5.631759e+000 -1.652358e+000  4.638520e+000
      vertex  5.631759e+000 -1.107251e+001  1.282823e+000
    endloop
  endfacet
  facet normal  5.591930e-001  2.781999e-001 -7.809661e-001
    outer loop
      vertex  4.308144e+000 -1.508040e+000  4.233389e+000
      vertex  3.154347e+000 -1.066704e+001  1.445723e-001
      vertex  3.154347e+000 -1.246884e+000  3.500269e+000
    endloop
  endfacet
  facet normal  7.660444e-001  2.157001e-001 -6.055158e-001
    outer loop
      vertex  3.154347e+000 -1.246884e+000  3.500269e+000
      vertex  3.154347e+000 -1.066704e+001  1.445723e-001
      vertex  2.259759e+000 -1.030928e+001 -8.597365e-001
    endloop
  endfacet
  facet normal  7.660444e-001  2.157000e-001 -6.055157e-001
    outer loop
      vertex  3.154347e+000 -1.246884e+000  3.500269e+000
      vertex  2.259759e+000 -1.030928e+001 -8.597365e-001
      vertex  2.259759e+000 -8.891242e-001  2.495960e+000
    endloop
  endfacet
  facet normal  9.135454e-001  1.364884e-001 -3.831521e-001
    outer loop
      vertex  2.259759e+000 -8.891242e-001  2.495960e+000
      vertex  2.259759e+000 -1.030928e+001 -8.597365e-001
      vertex  1.693691e+000 -9.882631e+000 -2.057424e+000
    endloop
  endfacet
  facet normal  9.135455e-001  1.364885e-001 -3.831522e-001
    outer loop
      vertex  2.259759e+000 -8.891242e-001  2.495960e+000
      vertex  1.693691e+000 -9.882631e+000 -2.057424e+000
      vertex  1.693691e+000 -4.624777e-001  1.298273e+000
    endloop
  endfacet
  facet normal  9.902681e-001  4.670228e-002 -1.311032e-001
    outer loop
      vertex  1.693691e+000 -4.624777e-001  1.298273e+000
      vertex  1.693691e+000 -9.882631e+000 -2.057424e+000
      vertex  1.500000e+000 -9.420154e+000 -3.355697e+000
    endloop
  endfacet
  facet normal  9.902681e-001  4.670228e-002 -1.311032e-001
    outer loop
      vertex  1.693691e+000 -4.624777e-001  1.298273e+000
      vertex  1.500000e+000 -9.420154e+000 -3.355697e+000
      vertex  1.500000e+000  2.220446e-016 -1.776357e-015
    endloop
  endfacet
  facet normal  1.000000e+000  0.000000e+000  0.000000e+000
    outer loop
      vertex  1.500000e+000  8.717029e-002 -1.179222e+001
      vertex  1.500000e+000 -3.567962e-001 -1.234893e+001
      vertex  1.500000e+000  3.515102e+000 -1.223297e+001
    endloop
  endfacet
  facet normal  1.000000e+000  0.000000e+000  -0.000000e+000
    outer loop
      vertex  1.500000e+000 -9.420154e+000 -3.355697e+000
      vertex  1.500000e+000 -6.064457e+000 -1.277585e+001
      vertex  1.500000e+000 -2.351964e+000 -9.847072e+000
    endloop
  endfacet
  facet normal  1.000000e+000  0.000000e+000  -0.000000e+000
    outer loop
      vertex  1.500000e+000 -9.420154e+000 -3.355697e+000
      vertex  1.500000e+000 -2.351964e+000 -9.847072e+000
      vertex  1.500000e+000 -1.710413e+000 -9.538117e+000
    endloop
  endfacet
  facet normal  1.000000e+000  0.000000e+000  -0.000000e+000
    outer loop
      vertex  1.500000e+000 -9.420154e+000 -3.355697e+000
      vertex  1.500000e+000 -1.710413e+000 -9.538117e+000
      vertex  1.500000e+000 -9.983464e-001 -9.538117e+000
    endloop
  endfacet
  facet normal  1.000000e+000  0.000000e+000  -0.000000e+000
    outer loop
      vertex  1.500000e+000 -9.420154e+000 -3.355697e+000
      vertex  1.500000e+000 -9.983464e-001 -9.538117e+000
      vertex  1.500000e+000  3.355697e+000 -9.420154e+000
    endloop
  endfacet
  facet normal  1.000000e+000  0.000000e+000  0.000000e+000
    outer loop
      vertex  1.500000e+000 -9.420154e+000 -3.355697e+000
      vertex  1.500000e+000  3.355697e+000 -9.420154e+000
      vertex  1.500000e+000  2.220446e-016 -1.776357e-015
    endloop
  endfacet
  facet normal  1.000000e+000  -0.000000e+000  -0.000000e+000
    outer loop
      vertex  1.500000e+000 -6.064457e+000 -1.277585e+001
      vertex  1.500000e+000 -5.400961e+000 -1.403487e+001
      vertex  1.500000e+000 -4.409636e+000 -1.505596e+001
    endloop
  endfacet
  facet normal  1.000000e+000  -0.000000e+000  -0.000000e+000
    outer loop
      vertex  1.500000e+000 -6.064457e+000 -1.277585e+001
      vertex  1.500000e+000 -4.409636e+000 -1.505596e+001
      vertex  1.500000e+000 -3.170791e+000 -1.575640e+001
    endloop
  endfacet
  facet normal  1.000000e+000  -0.000000e+000  -0.000000e+000
    outer loop
      vertex  1.500000e+000 -6.064457e+000 -1.277585e+001
      vertex  1.500000e+000 -3.170791e+000 -1.575640e+001
      vertex  1.500000e+000 -1.784792e+000 -1.607944e+001
    endloop
  endfacet
  facet normal  9.999999e-001  0.000000e+000  -0.000000e+000
    outer loop
      vertex  1.500000e+000 -6.064457e+000 -1.277585e+001
      vertex  1.500000e+000 -1.784792e+000 -1.607944e+001
      vertex  1.500000e+000 -1.710413e+000 -1.265789e+001
    endloop
  endfacet
  facet normal  1.000000e+000  0.000000e+000  0.000000e+000
    outer loop
      vertex  1.500000e+000 -6.064457e+000 -1.277585e+001
      vertex  1.500000e+000 -1.710413e+000 -1.265789e+001
      vertex  1.500000e+000 -2.351964e+000 -1.234893e+001
    endloop
  endfacet
  facet normal  1.000000e+000  0.000000e+000  0.000000e+000
    outer loop
      vertex  1.500000e+000 -6.064457e+000 -1.277585e+001
      vertex  1.500000e+000 -2.351964e+000 -1.234893e+001
      vertex  1.500000e+000 -2.795930e+000 -1.179222e+001
    endloop
  endfacet
  facet normal  1.000000e+000  0.000000e+000  0.000000e+000
    outer loop
      vertex  1.500000e+000 -6.064457e+000 -1.277585e+001
      vertex  1.500000e+000 -2.795930e+000 -1.179222e+001
      vertex  1.500000e+000 -2.954380e+000 -1.109800e+001
    endloop
  endfacet
  facet normal  1.000000e+000  0.000000e+000  -0.000000e+000
    outer loop
      vertex  1.500000e+000 -6.064457e+000 -1.277585e+001
      vertex  1.500000e+000 -2.954380e+000 -1.109800e+001
      vertex  1.500000e+000 -2.795930e+000 -1.040379e+001
    endloop
  endfacet
  facet normal  9.999999e-001  0.000000e+000  -0.000000e+000
    outer loop
      vertex  1.500000e+000 -6.064457e+000 -1.277585e+001
      vertex  1.500000e+000 -2.795930e+000 -1.040379e+001
      vertex  1.500000e+000 -2.351964e+000 -9.847072e+000
    endloop
  endfacet
  facet normal  1.000000e+000  -0.000000e+000  0.000000e+000
    outer loop
      vertex  1.500000e+000 -9.983464e-001 -1.265789e+001
      vertex  1.500000e+000 -1.710413e+000 -1.265789e+001
      vertex  1.500000e+000 -1.784792e+000 -1.607944e+001
    endloop
  endfacet
  facet normal  1.000000e+000  0.000000e+000  0.000000e+000
    outer loop
      vertex  1.500000e+000 -9.983464e-001 -1.265789e+001
      vertex  1.500000e+000 -1.784792e+000 -1.607944e+001
      vertex  1.500000e+000 -3.639233e-001 -1.599892e+001
    endloop
  endfacet
  facet normal  1.000000e+000  0.000000e+000  -0.000000e+000
    outer loop
      vertex  1.500000e+000 -9.983464e-001 -1.265789e+001
      vertex  1.500000e+000 -3.639233e-001 -1.599892e+001
      vertex  1.500000e+000  9.767044e-001 -1.552135e+001
    endloop
  endfacet
  facet normal  1.000000e+000  0.000000e+000  -0.000000e+000
    outer loop
      vertex  1.500000e+000 -9.983464e-001 -1.265789e+001
      vertex  1.500000e+000  9.767044e-001 -1.552135e+001
      vertex  1.500000e+000  2.128481e+000 -1.468544e+001
    endloop
  endfacet
  facet normal  1.000000e+000  0.000000e+000  -0.000000e+000
    outer loop
      vertex  1.500000e+000 -9.983464e-001 -1.265789e+001
      vertex  1.500000e+000  2.128481e+000 -1.468544e+001
      vertex  1.500000e+000  2.998098e+000 -1.355888e+001
    endloop
  endfacet
  facet normal  1.000000e+000  0.000000e+000  -0.000000e+000
    outer loop
      vertex  1.500000e+000 -9.983464e-001 -1.265789e+001
      vertex  1.500000e+000  2.998098e+000 -1.355888e+001
      vertex  1.500000e+000  3.515102e+000 -1.223297e+001
    endloop
  endfacet
  facet normal  1.000000e+000  0.000000e+000  0.000000e+000
    outer loop
      vertex  1.500000e+000 -9.983464e-001 -1.265789e+001
      vertex  1.500000e+000  3.515102e+000 -1.223297e+001
      vertex  1.500000e+000 -3.567962e-001 -1.234893e+001
    endloop
  endfacet
  facet normal  1.000000e+000  -0.000000e+000  0.000000e+000
    outer loop
      vertex  1.500000e+000  3.355697e+000 -9.420154e+000
      vertex  1.500000e+000 -9.983464e-001 -9.538117e+000
      vertex  1.500000e+000  3.637610e+000 -1.081510e+001
    endloop
  endfacet
  facet normal  1.000000e+000  0.000000e+000  0.000000e+000
    outer loop
      vertex  1.500000e+000  3.637610e+000 -1.081510e+001
      vertex  1.500000e+000 -9.983464e-001 -9.538117e+000
      vertex  1.500000e+000 -3.567962e-001 -9.847072e+000
    endloop
  endfacet
  facet normal  1.000000e+000  0.000000e+000  0.000000e+000
    outer loop
      vertex  1.500000e+000  3.637610e+000 -1.081510e+001
      vertex  1.500000e+000 -3.567962e-001 -9.847072e+000
      vertex  1.500000e+000  8.717029e-002 -1.040379e+001
    endloop
  endfacet
  facet normal  1.000000e+000  0.000000e+000  0.000000e+000
    outer loop
      vertex  1.500000e+000  8.717029e-002 -1.179222e+001
      vertex  1.500000e+000  3.515102e+000 -1.223297e+001
      vertex  1.500000e+000  2.456201e-001 -1.109800e+001
    endloop
  endfacet
  facet normal  1.000000e+000  -0.000000e+000  0.000000e+000
    outer loop
      vertex  1.500000e+000  2.456201e-001 -1.109800e+001
      vertex  1.500000e+000  3.515102e+000 -1.223297e+001
      vertex  1.500000e+000  3.637610e+000 -1.081510e+001
    endloop
  endfacet
  facet normal  1.000000e+000  0.000000e+000  0.000000e+000
    outer loop
      vertex  1.500000e+000  2.456201e-001 -1.109800e+001
      vertex  1.500000e+000  3.637610e+000 -1.081510e+001
      vertex  1.500000e+000  8.717029e-002 -1.040379e+001
    endloop
  endfacet
  facet normal  2.579481e-016  9.420155e-001  3.355697e-001
    outer loop
      vertex  0.000000e+000  0.000000e+000  0.000000e+000
      vertex  1.500000e+000  2.220446e-016 -1.776357e-015
      vertex  0.000000e+000  3.355697e+000 -9.420154e+000
    endloop
  endfacet
  facet normal  -0.000000e+000  9.420153e-001  3.355697e-001
    outer loop
      vertex  0.000000e+000  3.355697e+000 -9.420154e+000
      vertex  1.500000e+000  2.220446e-016 -1.776357e-015
      vertex  1.500000e+000  3.355697e+000 -9.420154e+000
    endloop
  endfacet
  facet normal -2.615019e-009  9.420155e-001  3.355696e-001
    outer loop
      vertex  5.371287e+000 -2.148066e+000  6.030077e+000
      vertex  5.631759e+000 -1.652358e+000  4.638520e+000
      vertex  3.925482e+000 -2.002816e+000  5.622329e+000
    endloop
  endfacet
  facet normal -2.465980e-009  9.420154e-001  3.355696e-001
    outer loop
      vertex  3.925482e+000 -2.002816e+000  5.622329e+000
      vertex  5.631759e+000 -1.652358e+000  4.638520e+000
      vertex  4.308144e+000 -1.508040e+000  4.233389e+000
    endloop
  endfacet
  facet normal -1.521902e-008  9.420154e-001  3.355696e-001
    outer loop
      vertex  3.925482e+000 -2.002816e+000  5.622329e+000
      vertex  4.308144e+000 -1.508040e+000  4.233389e+000
      vertex  2.618469e+000 -1.749593e+000  4.911480e+000
    endloop
  endfacet
  facet normal -4.755221e-009  9.420155e-001  3.355696e-001
    outer loop
      vertex  2.618469e+000 -1.749593e+000  4.911480e+000
      vertex  4.308144e+000 -1.508040e+000  4.233389e+000
      vertex  3.154347e+000 -1.246884e+000  3.500269e+000
    endloop
  endfacet
  facet normal  1.242009e-007  9.420153e-001  3.355697e-001
    outer loop
      vertex  2.618469e+000 -1.749593e+000  4.911480e+000
      vertex  3.154347e+000 -1.246884e+000  3.500269e+000
      vertex  2.259759e+000 -8.891242e-001  2.495960e+000
    endloop
  endfacet
  facet normal -1.120418e-009  9.420153e-001  3.355696e-001
    outer loop
      vertex  2.618469e+000 -1.749593e+000  4.911480e+000
      vertex  2.259759e+000 -8.891242e-001  2.495960e+000
      vertex  1.520711e+000 -1.402050e+000  3.935853e+000
    endloop
  endfacet
  facet normal -2.395848e-010  9.420153e-001  3.355697e-001
    outer loop
      vertex  1.520711e+000 -1.402050e+000  3.935853e+000
      vertex  2.259759e+000 -8.891242e-001  2.495960e+000
      vertex  1.693691e+000 -4.624777e-001  1.298273e+000
    endloop
  endfacet
  facet normal  4.635640e-008  9.420153e-001  3.355697e-001
    outer loop
      vertex  1.520711e+000 -1.402050e+000  3.935853e+000
      vertex  1.693691e+000 -4.624777e-001  1.298273e+000
      vertex  1.500000e+000  2.220446e-016 -1.776357e-015
    endloop
  endfacet
  facet normal  3.125596e-008  9.420154e-001  3.355697e-001
    outer loop
      vertex  1.520711e+000 -1.402050e+000  3.935853e+000
      vertex  1.500000e+000  2.220446e-016 -1.776357e-015
      vertex  6.913878e-001 -9.789221e-001  2.748042e+000
    endloop
  endfacet
  facet normal  0.000000e+000  9.420153e-001  3.355696e-001
    outer loop
      vertex  6.913878e-001 -9.789221e-001  2.748042e+000
      vertex  1.500000e+000  2.220446e-016 -1.776357e-015
      vertex  0.000000e+000  0.000000e+000  0.000000e+000
    endloop
  endfacet
  facet normal -2.546822e-007  9.420153e-001  3.355697e-001
    outer loop
      vertex  6.913878e-001 -9.789221e-001  2.748042e+000
      vertex  0.000000e+000  0.000000e+000  0.000000e+000
      vertex  1.752083e-001 -5.030200e-001  1.412084e+000
    endloop
  endfacet
  facet normal -2.868031e-001 -3.214723e-001  9.024409e-001
    outer loop
      vertex  5.371287e+000 -1.156822e+001  2.674379e+000
      vertex  5.371287e+000 -2.148066e+000  6.030077e+000
      vertex  3.925482e+000 -1.142297e+001  2.266632e+000
    endloop
  endfacet
  facet normal -2.868033e-001 -3.214722e-001  9.024409e-001
    outer loop
      vertex  3.925482e+000 -1.142297e+001  2.266632e+000
      vertex  5.371287e+000 -2.148066e+000  6.030077e+000
      vertex  3.925482e+000 -2.002816e+000  5.622329e+000
    endloop
  endfacet
  facet normal -5.000001e-001 -2.906119e-001  8.158091e-001
    outer loop
      vertex  3.925482e+000 -1.142297e+001  2.266632e+000
      vertex  3.925482e+000 -2.002816e+000  5.622329e+000
      vertex  2.618469e+000 -1.116975e+001  1.555784e+000
    endloop
  endfacet
  facet normal -5.000001e-001 -2.906119e-001  8.158091e-001
    outer loop
      vertex  2.618469e+000 -1.116975e+001  1.555784e+000
      vertex  3.925482e+000 -2.002816e+000  5.622329e+000
      vertex  2.618469e+000 -1.749593e+000  4.911480e+000
    endloop
  endfacet
  facet normal -6.862416e-001 -2.440846e-001  6.851972e-001
    outer loop
      vertex  2.618469e+000 -1.116975e+001  1.555784e+000
      vertex  2.618469e+000 -1.749593e+000  4.911480e+000
      vertex  1.520711e+000 -1.082220e+001  5.801558e-001
    endloop
  endfacet
  facet normal -6.862416e-001 -2.440846e-001  6.851972e-001
    outer loop
      vertex  1.520711e+000 -1.082220e+001  5.801558e-001
      vertex  2.618469e+000 -1.749593e+000  4.911480e+000
      vertex  1.520711e+000 -1.402050e+000  3.935853e+000
    endloop
  endfacet
  facet normal -8.354878e-001 -1.843985e-001  5.176458e-001
    outer loop
      vertex  1.520711e+000 -1.082220e+001  5.801558e-001
      vertex  1.520711e+000 -1.402050e+000  3.935853e+000
      vertex  6.913878e-001 -1.039908e+001 -6.076548e-001
    endloop
  endfacet
  facet normal -8.354877e-001 -1.843986e-001  5.176459e-001
    outer loop
      vertex  6.913878e-001 -1.039908e+001 -6.076548e-001
      vertex  1.520711e+000 -1.402050e+000  3.935853e+000
      vertex  6.913878e-001 -9.789221e-001  2.748042e+000
    endloop
  endfacet
  facet normal -9.396926e-001 -1.147716e-001  3.221883e-001
    outer loop
      vertex  6.913878e-001 -1.039908e+001 -6.076548e-001
      vertex  6.913878e-001 -9.789221e-001  2.748042e+000
      vertex  1.752083e-001 -9.923174e+000 -1.943613e+000
    endloop
  endfacet
  facet normal -9.396926e-001 -1.147716e-001  3.221883e-001
    outer loop
      vertex  1.752083e-001 -9.923174e+000 -1.943613e+000
      vertex  6.913878e-001 -9.789221e-001  2.748042e+000
      vertex  1.752083e-001 -5.030200e-001  1.412084e+000
    endloop
  endfacet
  facet normal -9.932383e-001 -3.895727e-002  1.093613e-001
    outer loop
      vertex  1.752083e-001 -9.923174e+000 -1.943613e+000
      vertex  1.752083e-001 -5.030200e-001  1.412084e+000
      vertex  0.000000e+000 -9.420154e+000 -3.355697e+000
    endloop
  endfacet
  facet normal -9.932383e-001 -3.895727e-002  1.093613e-001
    outer loop
      vertex  0.000000e+000 -9.420154e+000 -3.355697e+000
      vertex  1.752083e-001 -5.030200e-001  1.412084e+000
      vertex  0.000000e+000  0.000000e+000  0.000000e+000
    endloop
  endfacet
  facet normal -1.000000e+000  0.000000e+000  0.000000e+000
    outer loop
      vertex  0.000000e+000  3.515102e+000 -1.223297e+001
      vertex  0.000000e+000 -3.567962e-001 -1.234893e+001
      vertex  0.000000e+000  8.717029e-002 -1.179222e+001
    endloop
  endfacet
  facet normal -1.000000e+000  0.000000e+000  -0.000000e+000
    outer loop
      vertex  0.000000e+000 -9.420154e+000 -3.355697e+000
      vertex  0.000000e+000  0.000000e+000  0.000000e+000
      vertex  0.000000e+000  3.355697e+000 -9.420154e+000
    endloop
  endfacet
  facet normal -1.000000e+000  -0.000000e+000  0.000000e+000
    outer loop
      vertex  0.000000e+000 -9.420154e+000 -3.355697e+000
      vertex  0.000000e+000  3.355697e+000 -9.420154e+000
      vertex  0.000000e+000 -9.983464e-001 -9.538117e+000
    endloop
  endfacet
  facet normal -1.000000e+000  0.000000e+000  0.000000e+000
    outer loop
      vertex  0.000000e+000 -9.420154e+000 -3.355697e+000
      vertex  0.000000e+000 -9.983464e-001 -9.538117e+000
      vertex  0.000000e+000 -1.710413e+000 -9.538117e+000
    endloop
  endfacet
  facet normal -1.000000e+000  -0.000000e+000  0.000000e+000
    outer loop
      vertex  0.000000e+000 -9.420154e+000 -3.355697e+000
      vertex  0.000000e+000 -1.710413e+000 -9.538117e+000
      vertex  0.000000e+000 -2.351964e+000 -9.847072e+000
    endloop
  endfacet
  facet normal -1.000000e+000  -0.000000e+000  0.000000e+000
    outer loop
      vertex  0.000000e+000 -9.420154e+000 -3.355697e+000
      vertex  0.000000e+000 -2.351964e+000 -9.847072e+000
      vertex  0.000000e+000 -6.064457e+000 -1.277585e+001
    endloop
  endfacet
  facet normal -9.999999e-001  0.000000e+000  0.000000e+000
    outer loop
      vertex  0.000000e+000 -6.064457e+000 -1.277585e+001
      vertex  0.000000e+000 -2.351964e+000 -9.847072e+000
      vertex  0.000000e+000 -2.795930e+000 -1.040379e+001
    endloop
  endfacet
  facet normal -1.000000e+000  0.000000e+000  0.000000e+000
    outer loop
      vertex  0.000000e+000 -6.064457e+000 -1.277585e+001
      vertex  0.000000e+000 -2.795930e+000 -1.040379e+001
      vertex  0.000000e+000 -2.954380e+000 -1.109800e+001
    endloop
  endfacet
  facet normal -1.000000e+000  0.000000e+000  -0.000000e+000
    outer loop
      vertex  0.000000e+000 -6.064457e+000 -1.277585e+001
      vertex  0.000000e+000 -2.954380e+000 -1.109800e+001
      vertex  0.000000e+000 -2.795930e+000 -1.179222e+001
    endloop
  endfacet
  facet normal -1.000000e+000  0.000000e+000  -0.000000e+000
    outer loop
      vertex  0.000000e+000 -6.064457e+000 -1.277585e+001
      vertex  0.000000e+000 -2.795930e+000 -1.179222e+001
      vertex  0.000000e+000 -2.351964e+000 -1.234893e+001
    endloop
  endfacet
  facet normal -1.000000e+000  0.000000e+000  -0.000000e+000
    outer loop
      vertex  0.000000e+000 -6.064457e+000 -1.277585e+001
      vertex  0.000000e+000 -2.351964e+000 -1.234893e+001
      vertex  0.000000e+000 -1.710413e+000 -1.265789e+001
    endloop
  endfacet
  facet normal -1.000000e+000  0.000000e+000  0.000000e+000
    outer loop
      vertex  0.000000e+000 -6.064457e+000 -1.277585e+001
      vertex  0.000000e+000 -1.710413e+000 -1.265789e+001
      vertex  0.000000e+000 -1.784792e+000 -1.607944e+001
    endloop
  endfacet
  facet normal -1.000000e+000  0.000000e+000  0.000000e+000
    outer loop
      vertex  0.000000e+000 -6.064457e+000 -1.277585e+001
      vertex  0.000000e+000 -1.784792e+000 -1.607944e+001
      vertex  0.000000e+000 -3.170791e+000 -1.575640e+001
    endloop
  endfacet
  facet normal -1.000000e+000  0.000000e+000  0.000000e+000
    outer loop
      vertex  0.000000e+000 -6.064457e+000 -1.277585e+001
      vertex  0.000000e+000 -3.170791e+000 -1.575640e+001
      vertex  0.000000e+000 -4.409636e+000 -1.505596e+001
    endloop
  endfacet
  facet normal -1.000000e+000  0.000000e+000  0.000000e+000
    outer loop
      vertex  0.000000e+000 -6.064457e+000 -1.277585e+001
      vertex  0.000000e+000 -4.409636e+000 -1.505596e+001
      vertex  0.000000e+000 -5.400961e+000 -1.403487e+001
    endloop
  endfacet
  facet normal -1.000000e+000  0.000000e+000  -0.000000e+000
    outer loop
      vertex  0.000000e+000 -9.983464e-001 -1.265789e+001
      vertex  0.000000e+000 -3.567962e-001 -1.234893e+001
      vertex  0.000000e+000  3.515102e+000 -1.223297e+001
    endloop
  endfacet
  facet normal -1.000000e+000  0.000000e+000  0.000000e+000
    outer loop
      vertex  0.000000e+000 -9.983464e-001 -1.265789e+001
      vertex  0.000000e+000  3.515102e+000 -1.223297e+001
      vertex  0.000000e+000  2.998098e+000 -1.355888e+001
    endloop
  endfacet
  facet normal -1.000000e+000  -0.000000e+000  0.000000e+000
    outer loop
      vertex  0.000000e+000 -9.983464e-001 -1.265789e+001
      vertex  0.000000e+000  2.998098e+000 -1.355888e+001
      vertex  0.000000e+000  2.128481e+000 -1.468544e+001
    endloop
  endfacet
  facet normal -1.000000e+000  -0.000000e+000  0.000000e+000
    outer loop
      vertex  0.000000e+000 -9.983464e-001 -1.265789e+001
      vertex  0.000000e+000  2.128481e+000 -1.468544e+001
      vertex  0.000000e+000  9.767044e-001 -1.552135e+001
    endloop
  endfacet
  facet normal -1.000000e+000  -0.000000e+000  0.000000e+000
    outer loop
      vertex  0.000000e+000 -9.983464e-001 -1.265789e+001
      vertex  0.000000e+000  9.767044e-001 -1.552135e+001
      vertex  0.000000e+000 -3.639233e-001 -1.599892e+001
    endloop
  endfacet
  facet normal -1.000000e+000  -0.000000e+000  0.000000e+000
    outer loop
      vertex  0.000000e+000 -9.983464e-001 -1.265789e+001
      vertex  0.000000e+000 -3.639233e-001 -1.599892e+001
      vertex  0.000000e+000 -1.784792e+000 -1.607944e+001
    endloop
  endfacet
  facet normal -1.000000e+000  0.000000e+000  0.000000e+000
    outer loop
      vertex  0.000000e+000 -9.983464e-001 -1.265789e+001
      vertex  0.000000e+000 -1.784792e+000 -1.607944e+001
      vertex  0.000000e+000 -1.710413e+000 -1.265789e+001
    endloop
  endfacet
  facet normal -1.000000e+000  0.000000e+000  0.000000e+000
    outer loop
      vertex  0.000000e+000  8.717029e-002 -1.040379e+001
      vertex  0.000000e+000 -3.567962e-001 -9.847072e+000
      vertex  0.000000e+000  3.637610e+000 -1.081510e+001
    endloop
  endfacet
  facet normal -1.000000e+000  0.000000e+000  0.000000e+000
    outer loop
      vertex  0.000000e+000  3.637610e+000 -1.081510e+001
      vertex  0.000000e+000 -3.567962e-001 -9.847072e+000
      vertex  0.000000e+000 -9.983464e-001 -9.538117e+000
    endloop
  endfacet
  facet normal -1.000000e+000  0.000000e+000  0.000000e+000
    outer loop
      vertex  0.000000e+000  3.637610e+000 -1.081510e+001
      vertex  0.000000e+000 -9.983464e-001 -9.538117e+000
      vertex  0.000000e+000  3.355697e+000 -9.420154e+000
    endloop
  endfacet
  facet normal -1.000000e+000  -0.000000e+000  0.000000e+000
    outer loop
      vertex  0.000000e+000  8.717029e-002 -1.040379e+001
      vertex  0.000000e+000  3.637610e+000 -1.081510e+001
      vertex  0.000000e+000  2.456201e-001 -1.109800e+001
    endloop
  endfacet
  facet normal -1.000000e+000  0.000000e+000  0.000000e+000
    outer loop
      vertex  0.000000e+000  2.456201e-001 -1.109800e+001
      vertex  0.000000e+000  3.637610e+000 -1.081510e+001
      vertex  0.000000e+000  3.515102e+000 -1.223297e+001
    endloop
  endfacet
  facet normal -1.000000e+000  0.000000e+000  0.000000e+000
    outer loop
      vertex  0.000000e+000  2.456201e-001 -1.109800e+001
      vertex  0.000000e+000  3.515102e+000 -1.223297e+001
      vertex  0.000000e+000  8.717029e-002 -1.179222e+001
    endloop
  endfacet
  facet normal  0.000000e+000 -9.420154e-001 -3.355696e-001
    outer loop
      vertex  0.000000e+000 -9.420154e+000 -3.355697e+000
      vertex  0.000000e+000 -6.064457e+000 -1.277585e+001
      vertex  1.500000e+000 -9.420154e+000 -3.355697e+000
    endloop
  endfacet
  facet normal  0.000000e+000 -9.420154e-001 -3.355696e-001
    outer loop
      vertex  1.500000e+000 -9.420154e+000 -3.355697e+000
      vertex  0.000000e+000 -6.064457e+000 -1.277585e+001
      vertex  1.500000e+000 -6.064457e+000 -1.277585e+001
    endloop
  endfacet
  facet normal  6.671190e-007 -9.420153e-001 -3.355696e-001
    outer loop
      vertex  2.259759e+000 -1.030928e+001 -8.597365e-001
      vertex  3.154347e+000 -1.066704e+001  1.445723e-001
      vertex  2.618469e+000 -1.116975e+001  1.555784e+000
    endloop
  endfacet
  facet normal -8.034148e-008 -9.420153e-001 -3.355699e-001
    outer loop
      vertex  2.618469e+000 -1.116975e+001  1.555784e+000
      vertex  3.154347e+000 -1.066704e+001  1.445723e-001
      vertex  4.308144e+000 -1.092819e+001  8.776921e-001
    endloop
  endfacet
  facet normal -7.010843e-008 -9.420153e-001 -3.355698e-001
    outer loop
      vertex  2.618469e+000 -1.116975e+001  1.555784e+000
      vertex  4.308144e+000 -1.092819e+001  8.776921e-001
      vertex  3.925482e+000 -1.142297e+001  2.266632e+000
    endloop
  endfacet
  facet normal  2.514850e-007 -9.420153e-001 -3.355698e-001
    outer loop
      vertex  3.925482e+000 -1.142297e+001  2.266632e+000
      vertex  4.308144e+000 -1.092819e+001  8.776921e-001
      vertex  5.631759e+000 -1.107251e+001  1.282823e+000
    endloop
  endfacet
  facet normal  3.270386e-007 -9.420153e-001 -3.355696e-001
    outer loop
      vertex  3.925482e+000 -1.142297e+001  2.266632e+000
      vertex  5.631759e+000 -1.107251e+001  1.282823e+000
      vertex  5.371287e+000 -1.156822e+001  2.674379e+000
    endloop
  endfacet
  facet normal -3.421419e-007 -9.420153e-001 -3.355696e-001
    outer loop
      vertex  1.500000e+000 -9.420154e+000 -3.355697e+000
      vertex  1.693691e+000 -9.882631e+000 -2.057424e+000
      vertex  1.520711e+000 -1.082220e+001  5.801558e-001
    endloop
  endfacet
  facet normal -1.116113e-006 -9.420153e-001 -3.355697e-001
    outer loop
      vertex  1.520711e+000 -1.082220e+001  5.801558e-001
      vertex  1.693691e+000 -9.882631e+000 -2.057424e+000
      vertex  2.259759e+000 -1.030928e+001 -8.597365e-001
    endloop
  endfacet
  facet normal -6.368816e-007 -9.420154e-001 -3.355695e-001
    outer loop
      vertex  1.520711e+000 -1.082220e+001  5.801558e-001
      vertex  2.259759e+000 -1.030928e+001 -8.597365e-001
      vertex  2.618469e+000 -1.116975e+001  1.555784e+000
    endloop
  endfacet
  facet normal  1.914614e-006 -9.420152e-001 -3.355700e-001
    outer loop
      vertex  1.752083e-001 -9.923174e+000 -1.943613e+000
      vertex  0.000000e+000 -9.420154e+000 -3.355697e+000
      vertex  6.913878e-001 -1.039908e+001 -6.076548e-001
    endloop
  endfacet
  facet normal  0.000000e+000 -9.420154e-001 -3.355696e-001
    outer loop
      vertex  6.913878e-001 -1.039908e+001 -6.076548e-001
      vertex  0.000000e+000 -9.420154e+000 -3.355697e+000
      vertex  1.500000e+000 -9.420154e+000 -3.355697e+000
    endloop
  endfacet
  facet normal -1.640274e-008 -9.420154e-001 -3.355696e-001
    outer loop
      vertex  6.913878e-001 -1.039908e+001 -6.076548e-001
      vertex  1.500000e+000 -9.420154e+000 -3.355697e+000
      vertex  1.520711e+000 -1.082220e+001  5.801558e-001
    endloop
  endfacet
  facet normal  0.000000e+000  9.801836e-001  1.980914e-001
    outer loop
      vertex  0.000000e+000  3.355697e+000 -9.420154e+000
      vertex  1.500000e+000  3.355697e+000 -9.420154e+000
      vertex  0.000000e+000  3.637610e+000 -1.081510e+001
    endloop
  endfacet
  facet normal  -0.000000e+000  9.801836e-001  1.980914e-001
    outer loop
      vertex  0.000000e+000  3.637610e+000 -1.081510e+001
      vertex  1.500000e+000  3.355697e+000 -9.420154e+000
      vertex  1.500000e+000  3.637610e+000 -1.081510e+001
    endloop
  endfacet
  facet normal  0.000000e+000  9.962880e-001 -8.608241e-002
    outer loop
      vertex  0.000000e+000  3.637610e+000 -1.081510e+001
      vertex  1.500000e+000  3.637610e+000 -1.081510e+001
      vertex  0.000000e+000  3.515102e+000 -1.223297e+001
    endloop
  endfacet
  facet normal  0.000000e+000  9.962880e-001 -8.608241e-002
    outer loop
      vertex  0.000000e+000  3.515102e+000 -1.223297e+001
      vertex  1.500000e+000  3.637610e+000 -1.081510e+001
      vertex  1.500000e+000  3.515102e+000 -1.223297e+001
    endloop
  endfacet
  facet normal  0.000000e+000  9.316791e-001 -3.632823e-001
    outer loop
      vertex  0.000000e+000  3.515102e+000 -1.223297e+001
      vertex  1.500000e+000  3.515102e+000 -1.223297e+001
      vertex  0.000000e+000  2.998098e+000 -1.355888e+001
    endloop
  endfacet
  facet normal  0.000000e+000  9.316791e-001 -3.632823e-001
    outer loop
      vertex  0.000000e+000  2.998098e+000 -1.355888e+001
      vertex  1.500000e+000  3.515102e+000 -1.223297e+001
      vertex  1.500000e+000  2.998098e+000 -1.355888e+001
    endloop
  endfacet
  facet normal  0.000000e+000  7.915910e-001 -6.110511e-001
    outer loop
      vertex  0.000000e+000  2.998098e+000 -1.355888e+001
      vertex  1.500000e+000  2.998098e+000 -1.355888e+001
      vertex  0.000000e+000  2.128481e+000 -1.468544e+001
    endloop
  endfacet
  facet normal  0.000000e+000  7.915910e-001 -6.110511e-001
    outer loop
      vertex  0.000000e+000  2.128481e+000 -1.468544e+001
      vertex  1.500000e+000  2.998098e+000 -1.355888e+001
      vertex  1.500000e+000  2.128481e+000 -1.468544e+001
    endloop
  endfacet
  facet normal  0.000000e+000  5.873733e-001 -8.093162e-001
    outer loop
      vertex  0.000000e+000  2.128481e+000 -1.468544e+001
      vertex  1.500000e+000  2.128481e+000 -1.468544e+001
      vertex  0.000000e+000  9.767044e-001 -1.552135e+001
    endloop
  endfacet
  facet normal  0.000000e+000  5.873733e-001 -8.093162e-001
    outer loop
      vertex  0.000000e+000  9.767044e-001 -1.552135e+001
      vertex  1.500000e+000  2.128481e+000 -1.468544e+001
      vertex  1.500000e+000  9.767044e-001 -1.552135e+001
    endloop
  endfacet
  facet normal  0.000000e+000  3.355699e-001 -9.420153e-001
    outer loop
      vertex  0.000000e+000  9.767044e-001 -1.552135e+001
      vertex  1.500000e+000  9.767044e-001 -1.552135e+001
      vertex  0.000000e+000 -3.639233e-001 -1.599892e+001
    endloop
  endfacet
  facet normal  0.000000e+000  3.355699e-001 -9.420153e-001
    outer loop
      vertex  0.000000e+000 -3.639233e-001 -1.599892e+001
      vertex  1.500000e+000  9.767044e-001 -1.552135e+001
      vertex  1.500000e+000 -3.639233e-001 -1.599892e+001
    endloop
  endfacet
  facet normal  0.000000e+000  5.658056e-002 -9.983979e-001
    outer loop
      vertex  0.000000e+000 -3.639233e-001 -1.599892e+001
      vertex  1.500000e+000 -3.639233e-001 -1.599892e+001
      vertex  0.000000e+000 -1.784792e+000 -1.607944e+001
    endloop
  endfacet
  facet normal  0.000000e+000  5.658056e-002 -9.983979e-001
    outer loop
      vertex  0.000000e+000 -1.784792e+000 -1.607944e+001
      vertex  1.500000e+000 -3.639233e-001 -1.599892e+001
      vertex  1.500000e+000 -1.784792e+000 -1.607944e+001
    endloop
  endfacet
  facet normal  -0.000000e+000 -2.269930e-001 -9.738964e-001
    outer loop
      vertex  0.000000e+000 -1.784792e+000 -1.607944e+001
      vertex  1.500000e+000 -1.784792e+000 -1.607944e+001
      vertex  0.000000e+000 -3.170791e+000 -1.575640e+001
    endloop
  endfacet
  facet normal  0.000000e+000 -2.269930e-001 -9.738964e-001
    outer loop
      vertex  0.000000e+000 -3.170791e+000 -1.575640e+001
      vertex  1.500000e+000 -1.784792e+000 -1.607944e+001
      vertex  1.500000e+000 -3.170791e+000 -1.575640e+001
    endloop
  endfacet
  facet normal  -0.000000e+000 -4.921765e-001 -8.704954e-001
    outer loop
      vertex  0.000000e+000 -3.170791e+000 -1.575640e+001
      vertex  1.500000e+000 -3.170791e+000 -1.575640e+001
      vertex  0.000000e+000 -4.409636e+000 -1.505596e+001
    endloop
  endfacet
  facet normal  0.000000e+000 -4.921765e-001 -8.704954e-001
    outer loop
      vertex  0.000000e+000 -4.409636e+000 -1.505596e+001
      vertex  1.500000e+000 -3.170791e+000 -1.575640e+001
      vertex  1.500000e+000 -4.409636e+000 -1.505596e+001
    endloop
  endfacet
  facet normal  -0.000000e+000 -7.174866e-001 -6.965723e-001
    outer loop
      vertex  0.000000e+000 -4.409636e+000 -1.505596e+001
      vertex  1.500000e+000 -4.409636e+000 -1.505596e+001
      vertex  0.000000e+000 -5.400961e+000 -1.403487e+001
    endloop
  endfacet
  facet normal  0.000000e+000 -7.174866e-001 -6.965723e-001
    outer loop
      vertex  0.000000e+000 -5.400961e+000 -1.403487e+001
      vertex  1.500000e+000 -4.409636e+000 -1.505596e+001
      vertex  1.500000e+000 -5.400961e+000 -1.403487e+001
    endloop
  endfacet
  facet normal  -0.000000e+000 -8.846704e-001 -4.662171e-001
    outer loop
      vertex  0.000000e+000 -5.400961e+000 -1.403487e+001
      vertex  1.500000e+000 -5.400961e+000 -1.403487e+001
      vertex  0.000000e+000 -6.064457e+000 -1.277585e+001
    endloop
  endfacet
  facet normal  0.000000e+000 -8.846704e-001 -4.662171e-001
    outer loop
      vertex  0.000000e+000 -6.064457e+000 -1.277585e+001
      vertex  1.500000e+000 -5.400961e+000 -1.403487e+001
      vertex  1.500000e+000 -6.064457e+000 -1.277585e+001
    endloop
  endfacet
  facet normal  0.000000e+000 -4.338837e-001  9.009688e-001
    outer loop
      vertex  0.000000e+000 -9.983464e-001 -1.265789e+001
      vertex  1.500000e+000 -3.567962e-001 -1.234893e+001
      vertex  0.000000e+000 -3.567962e-001 -1.234893e+001
    endloop
  endfacet
  facet normal  0.000000e+000 -7.818313e-001  6.234901e-001
    outer loop
      vertex  0.000000e+000 -3.567962e-001 -1.234893e+001
      vertex  1.500000e+000 -3.567962e-001 -1.234893e+001
      vertex  1.500000e+000  8.717029e-002 -1.179222e+001
    endloop
  endfacet
  facet normal  0.000000e+000 -7.818313e-001  6.234901e-001
    outer loop
      vertex  0.000000e+000 -3.567962e-001 -1.234893e+001
      vertex  1.500000e+000  8.717029e-002 -1.179222e+001
      vertex  0.000000e+000  8.717029e-002 -1.179222e+001
    endloop
  endfacet
  facet normal  0.000000e+000 -9.749279e-001  2.225210e-001
    outer loop
      vertex  0.000000e+000  8.717029e-002 -1.179222e+001
      vertex  1.500000e+000  8.717029e-002 -1.179222e+001
      vertex  1.500000e+000  2.456201e-001 -1.109800e+001
    endloop
  endfacet
  facet normal  0.000000e+000 -9.749279e-001  2.225210e-001
    outer loop
      vertex  0.000000e+000  8.717029e-002 -1.179222e+001
      vertex  1.500000e+000  2.456201e-001 -1.109800e+001
      vertex  0.000000e+000  2.456201e-001 -1.109800e+001
    endloop
  endfacet
  facet normal  0.000000e+000 -4.338837e-001  9.009688e-001
    outer loop
      vertex  1.500000e+000 -3.567962e-001 -1.234893e+001
      vertex  0.000000e+000 -9.983464e-001 -1.265789e+001
      vertex  1.500000e+000 -9.983464e-001 -1.265789e+001
    endloop
  endfacet
  facet normal  0.000000e+000  0.000000e+000  1.000000e+000
    outer loop
      vertex  1.500000e+000 -9.983464e-001 -1.265789e+001
      vertex  0.000000e+000 -9.983464e-001 -1.265789e+001
      vertex  0.000000e+000 -1.710413e+000 -1.265789e+001
    endloop
  endfacet
  facet normal  0.000000e+000  0.000000e+000  1.000000e+000
    outer loop
      vertex  1.500000e+000 -9.983464e-001 -1.265789e+001
      vertex  0.000000e+000 -1.710413e+000 -1.265789e+001
      vertex  1.500000e+000 -1.710413e+000 -1.265789e+001
    endloop
  endfacet
  facet normal  0.000000e+000  4.338837e-001  9.009688e-001
    outer loop
      vertex  1.500000e+000 -1.710413e+000 -1.265789e+001
      vertex  0.000000e+000 -1.710413e+000 -1.265789e+001
      vertex  0.000000e+000 -2.351964e+000 -1.234893e+001
    endloop
  endfacet
  facet normal  -0.000000e+000  4.338837e-001  9.009688e-001
    outer loop
      vertex  1.500000e+000 -1.710413e+000 -1.265789e+001
      vertex  0.000000e+000 -2.351964e+000 -1.234893e+001
      vertex  1.500000e+000 -2.351964e+000 -1.234893e+001
    endloop
  endfacet
  facet normal  0.000000e+000  7.818312e-001  6.234902e-001
    outer loop
      vertex  1.500000e+000 -2.351964e+000 -1.234893e+001
      vertex  0.000000e+000 -2.351964e+000 -1.234893e+001
      vertex  0.000000e+000 -2.795930e+000 -1.179222e+001
    endloop
  endfacet
  facet normal  -0.000000e+000  7.818312e-001  6.234902e-001
    outer loop
      vertex  1.500000e+000 -2.351964e+000 -1.234893e+001
      vertex  0.000000e+000 -2.795930e+000 -1.179222e+001
      vertex  1.500000e+000 -2.795930e+000 -1.179222e+001
    endloop
  endfacet
  facet normal  0.000000e+000  9.749280e-001  2.225208e-001
    outer loop
      vertex  1.500000e+000 -2.795930e+000 -1.179222e+001
      vertex  0.000000e+000 -2.795930e+000 -1.179222e+001
      vertex  0.000000e+000 -2.954380e+000 -1.109800e+001
    endloop
  endfacet
  facet normal  -0.000000e+000  9.749280e-001  2.225208e-001
    outer loop
      vertex  1.500000e+000 -2.795930e+000 -1.179222e+001
      vertex  0.000000e+000 -2.954380e+000 -1.109800e+001
      vertex  1.500000e+000 -2.954380e+000 -1.109800e+001
    endloop
  endfacet
  facet normal  0.000000e+000  4.338837e-001 -9.009688e-001
    outer loop
      vertex  0.000000e+000 -1.710413e+000 -9.538117e+000
      vertex  1.500000e+000 -2.351964e+000 -9.847072e+000
      vertex  0.000000e+000 -2.351964e+000 -9.847072e+000
    endloop
  endfacet
  facet normal  0.000000e+000  7.818317e-001 -6.234896e-001
    outer loop
      vertex  0.000000e+000 -2.351964e+000 -9.847072e+000
      vertex  1.500000e+000 -2.351964e+000 -9.847072e+000
      vertex  1.500000e+000 -2.795930e+000 -1.040379e+001
    endloop
  endfacet
  facet normal  0.000000e+000  7.818317e-001 -6.234896e-001
    outer loop
      vertex  0.000000e+000 -2.351964e+000 -9.847072e+000
      vertex  1.500000e+000 -2.795930e+000 -1.040379e+001
      vertex  0.000000e+000 -2.795930e+000 -1.040379e+001
    endloop
  endfacet
  facet normal  0.000000e+000  9.749280e-001 -2.225208e-001
    outer loop
      vertex  0.000000e+000 -2.795930e+000 -1.040379e+001
      vertex  1.500000e+000 -2.795930e+000 -1.040379e+001
      vertex  1.500000e+000 -2.954380e+000 -1.109800e+001
    endloop
  endfacet
  facet normal  0.000000e+000  9.749280e-001 -2.225208e-001
    outer loop
      vertex  0.000000e+000 -2.795930e+000 -1.040379e+001
      vertex  1.500000e+000 -2.954380e+000 -1.109800e+001
      vertex  0.000000e+000 -2.954380e+000 -1.109800e+001
    endloop
  endfacet
  facet normal  0.000000e+000  4.338837e-001 -9.009688e-001
    outer loop
      vertex  1.500000e+000 -2.351964e+000 -9.847072e+000
      vertex  0.000000e+000 -1.710413e+000 -9.538117e+000
      vertex  1.500000e+000 -1.710413e+000 -9.538117e+000
    endloop
  endfacet
  facet normal  0.000000e+000  0.000000e+000 -1.000000e+000
    outer loop
      vertex  1.500000e+000 -1.710413e+000 -9.538117e+000
      vertex  0.000000e+000 -1.710413e+000 -9.538117e+000
      vertex  0.000000e+000 -9.983464e-001 -9.538117e+000
    endloop
  endfacet
  facet normal  0.000000e+000  0.000000e+000 -1.000000e+000
    outer loop
      vertex  1.500000e+000 -1.710413e+000 -9.538117e+000
      vertex  0.000000e+000 -9.983464e-001 -9.538117e+000
      vertex  1.500000e+000 -9.983464e-001 -9.538117e+000
    endloop
  endfacet
  facet normal  -0.000000e+000 -4.338837e-001 -9.009688e-001
    outer loop
      vertex  1.500000e+000 -9.983464e-001 -9.538117e+000
      vertex  0.000000e+000 -9.983464e-001 -9.538117e+000
      vertex  0.000000e+000 -3.567962e-001 -9.847072e+000
    endloop
  endfacet
  facet normal  0.000000e+000 -4.338837e-001 -9.009688e-001
    outer loop
      vertex  1.500000e+000 -9.983464e-001 -9.538117e+000
      vertex  0.000000e+000 -3.567962e-001 -9.847072e+000
      vertex  1.500000e+000 -3.567962e-001 -9.847072e+000
    endloop
  endfacet
  facet normal  -0.000000e+000 -7.818319e-001 -6.234895e-001
    outer loop
      vertex  1.500000e+000 -3.567962e-001 -9.847072e+000
      vertex  0.000000e+000 -3.567962e-001 -9.847072e+000
      vertex  0.000000e+000  8.717029e-002 -1.040379e+001
    endloop
  endfacet
  facet normal  0.000000e+000 -7.818319e-001 -6.234895e-001
    outer loop
      vertex  1.500000e+000 -3.567962e-001 -9.847072e+000
      vertex  0.000000e+000  8.717029e-002 -1.040379e+001
      vertex  1.500000e+000  8.717029e-002 -1.040379e+001
    endloop
  endfacet
  facet normal  -0.000000e+000 -9.749279e-001 -2.225210e-001
    outer loop
      vertex  1.500000e+000  8.717029e-002 -1.040379e+001
      vertex  0.000000e+000  8.717029e-002 -1.040379e+001
      vertex  0.000000e+000  2.456201e-001 -1.109800e+001
    endloop
  endfacet
  facet normal  0.000000e+000 -9.749279e-001 -2.225210e-001
    outer loop
      vertex  1.500000e+000  8.717029e-002 -1.040379e+001
      vertex  0.000000e+000  2.456201e-001 -1.109800e+001
      vertex  1.500000e+000  2.456201e-001 -1.109800e+001
    endloop
  endfacet
endsolid CATIA STL
