solid CATIA STL
  facet normal  1.320756e-008  9.915376e-001  1.298190e-001
    outer loop
      vertex -2.952768e+001 -1.425572e+000  1.088830e+001
      vertex -2.913946e+001 -1.613665e+000  1.232493e+001
      vertex -2.964724e+000 -5.015821e-001  3.831007e+000
    endloop
  endfacet
  facet normal  3.522142e-010  9.915377e-001  1.298190e-001
    outer loop
      vertex -2.964724e+000 -5.015821e-001  3.831007e+000
      vertex -2.913946e+001 -1.613665e+000  1.232493e+001
      vertex -2.576495e+000 -6.896755e-001  5.267635e+000
    endloop
  endfacet
  facet normal -8.923988e-001  3.484034e-001  2.867743e-001
    outer loop
      vertex -3.001065e+001 -1.938141e+000  1.095171e+001
      vertex -2.962242e+001 -2.126234e+000  1.238833e+001
      vertex -2.986919e+001 -1.582659e+000  1.096002e+001
    endloop
  endfacet
  facet normal -8.924010e-001  3.483987e-001  2.867729e-001
    outer loop
      vertex -2.986919e+001 -1.582659e+000  1.096002e+001
      vertex -2.962242e+001 -2.126234e+000  1.238833e+001
      vertex -2.948096e+001 -1.770752e+000  1.239665e+001
    endloop
  endfacet
  facet normal -3.696436e-001  9.032037e-001  2.181443e-001
    outer loop
      vertex -2.986919e+001 -1.582659e+000  1.096002e+001
      vertex -2.948096e+001 -1.770752e+000  1.239665e+001
      vertex -2.952768e+001 -1.425572e+000  1.088830e+001
    endloop
  endfacet
  facet normal -3.696430e-001  9.032038e-001  2.181443e-001
    outer loop
      vertex -2.952768e+001 -1.425572e+000  1.088830e+001
      vertex -2.948096e+001 -1.770752e+000  1.239665e+001
      vertex -2.913946e+001 -1.613665e+000  1.232493e+001
    endloop
  endfacet
  facet normal -9.659257e-001 -3.359971e-002  2.566294e-001
    outer loop
      vertex -3.001065e+001 -1.938141e+000  1.095171e+001
      vertex -3.001065e+001 -1.086198e+001  9.783335e+000
      vertex -2.962242e+001 -2.126234e+000  1.238833e+001
    endloop
  endfacet
  facet normal -9.659257e-001 -3.359971e-002  2.566294e-001
    outer loop
      vertex -2.962242e+001 -2.126234e+000  1.238833e+001
      vertex -3.001065e+001 -1.086198e+001  9.783335e+000
      vertex -2.962242e+001 -1.105007e+001  1.121996e+001
    endloop
  endfacet
  facet normal -3.696441e-001 -9.289193e-001 -2.172964e-002
    outer loop
      vertex -2.952768e+001 -1.134095e+001  9.590111e+000
      vertex -2.913946e+001 -1.152904e+001  1.102674e+001
      vertex -2.986919e+001 -1.120762e+001  9.699854e+000
    endloop
  endfacet
  facet normal -3.696423e-001 -9.289200e-001 -2.173084e-002
    outer loop
      vertex -2.986919e+001 -1.120762e+001  9.699854e+000
      vertex -2.913946e+001 -1.152904e+001  1.102674e+001
      vertex -2.948096e+001 -1.139571e+001  1.113648e+001
    endloop
  endfacet
  facet normal -8.923990e-001 -4.104880e-001  1.874134e-001
    outer loop
      vertex -2.986919e+001 -1.120762e+001  9.699854e+000
      vertex -2.948096e+001 -1.139571e+001  1.113648e+001
      vertex -3.001065e+001 -1.086198e+001  9.783335e+000
    endloop
  endfacet
  facet normal -8.924007e-001 -4.104828e-001  1.874161e-001
    outer loop
      vertex -3.001065e+001 -1.086198e+001  9.783335e+000
      vertex -2.948096e+001 -1.139571e+001  1.113648e+001
      vertex -2.962242e+001 -1.105007e+001  1.121996e+001
    endloop
  endfacet
  facet normal -2.588218e-001  1.253954e-001 -9.577512e-001
    outer loop
      vertex -2.986919e+001 -1.582659e+000  1.096002e+001
      vertex -3.001065e+001 -1.086198e+001  9.783335e+000
      vertex -3.001065e+001 -1.938141e+000  1.095171e+001
    endloop
  endfacet
  facet normal -2.588225e-001  1.253954e-001 -9.577510e-001
    outer loop
      vertex -3.001065e+001 -1.086198e+001  9.783335e+000
      vertex -2.986919e+001 -1.582659e+000  1.096002e+001
      vertex -2.986919e+001 -1.120762e+001  9.699854e+000
    endloop
  endfacet
  facet normal -2.588177e-001  1.253956e-001 -9.577522e-001
    outer loop
      vertex -2.986919e+001 -1.120762e+001  9.699854e+000
      vertex -2.986919e+001 -1.582659e+000  1.096002e+001
      vertex -2.952768e+001 -1.425572e+000  1.088830e+001
    endloop
  endfacet
  facet normal -2.588173e-001  1.253956e-001 -9.577523e-001
    outer loop
      vertex -2.986919e+001 -1.120762e+001  9.699854e+000
      vertex -2.952768e+001 -1.425572e+000  1.088830e+001
      vertex -2.952768e+001 -1.134095e+001  9.590111e+000
    endloop
  endfacet
  facet normal -2.588190e-001  1.253955e-001 -9.577518e-001
    outer loop
      vertex -2.952768e+001 -1.134095e+001  9.590111e+000
      vertex -2.952768e+001 -1.425572e+000  1.088830e+001
      vertex -2.964724e+000 -5.015821e-001  3.831007e+000
    endloop
  endfacet
  facet normal -2.588190e-001  1.253955e-001 -9.577518e-001
    outer loop
      vertex -2.952768e+001 -1.134095e+001  9.590111e+000
      vertex -2.964724e+000 -5.015821e-001  3.831007e+000
      vertex -2.964724e+000 -1.041696e+001  2.532817e+000
    endloop
  endfacet
  facet normal  3.249805e-008 -9.915377e-001 -1.298189e-001
    outer loop
      vertex -2.952768e+001 -1.134095e+001  9.590111e+000
      vertex -2.964724e+000 -1.041696e+001  2.532817e+000
      vertex -2.913946e+001 -1.152904e+001  1.102674e+001
    endloop
  endfacet
  facet normal -1.510207e-007 -9.915376e-001 -1.298195e-001
    outer loop
      vertex -2.913946e+001 -1.152904e+001  1.102674e+001
      vertex -2.964724e+000 -1.041696e+001  2.532817e+000
      vertex -2.576495e+000 -1.060505e+001  3.969445e+000
    endloop
  endfacet
  facet normal  2.588190e-001 -1.253956e-001  9.577519e-001
    outer loop
      vertex -2.962242e+001 -2.126234e+000  1.238833e+001
      vertex -2.962242e+001 -1.105007e+001  1.121996e+001
      vertex -2.948096e+001 -1.770752e+000  1.239665e+001
    endloop
  endfacet
  facet normal  2.588190e-001 -1.253955e-001  9.577519e-001
    outer loop
      vertex -2.948096e+001 -1.770752e+000  1.239665e+001
      vertex -2.962242e+001 -1.105007e+001  1.121996e+001
      vertex -2.948096e+001 -1.139571e+001  1.113648e+001
    endloop
  endfacet
  facet normal  2.588202e-001 -1.253955e-001  9.577516e-001
    outer loop
      vertex -2.948096e+001 -1.770752e+000  1.239665e+001
      vertex -2.948096e+001 -1.139571e+001  1.113648e+001
      vertex -2.913946e+001 -1.613665e+000  1.232493e+001
    endloop
  endfacet
  facet normal  2.588202e-001 -1.253955e-001  9.577516e-001
    outer loop
      vertex -2.913946e+001 -1.613665e+000  1.232493e+001
      vertex -2.948096e+001 -1.139571e+001  1.113648e+001
      vertex -2.913946e+001 -1.152904e+001  1.102674e+001
    endloop
  endfacet
  facet normal  2.588190e-001 -1.253956e-001  9.577519e-001
    outer loop
      vertex -2.913946e+001 -1.613665e+000  1.232493e+001
      vertex -2.913946e+001 -1.152904e+001  1.102674e+001
      vertex -2.576495e+000 -6.896755e-001  5.267635e+000
    endloop
  endfacet
  facet normal  2.588190e-001 -1.253955e-001  9.577519e-001
    outer loop
      vertex -2.576495e+000 -6.896755e-001  5.267635e+000
      vertex -2.913946e+001 -1.152904e+001  1.102674e+001
      vertex -2.576495e+000 -1.060505e+001  3.969445e+000
    endloop
  endfacet
  facet normal  3.826834e-001 -1.199371e-001  9.160614e-001
    outer loop
      vertex -2.576495e+000 -6.896755e-001  5.267635e+000
      vertex -2.576495e+000 -1.060505e+001  3.969445e+000
      vertex -1.250000e+000 -6.183461e-001  4.722833e+000
    endloop
  endfacet
  facet normal  3.826835e-001 -1.199371e-001  9.160613e-001
    outer loop
      vertex -1.250000e+000 -6.183461e-001  4.722833e+000
      vertex -2.576495e+000 -1.060505e+001  3.969445e+000
      vertex -1.250000e+000 -1.053372e+001  3.424643e+000
    endloop
  endfacet
  facet normal  6.087616e-001 -1.029923e-001  7.866398e-001
    outer loop
      vertex -1.250000e+000 -6.183461e-001  4.722833e+000
      vertex -1.250000e+000 -1.053372e+001  3.424643e+000
      vertex -1.109127e-001 -5.048774e-001  3.856177e+000
    endloop
  endfacet
  facet normal  6.087614e-001 -1.029923e-001  7.866398e-001
    outer loop
      vertex -1.109127e-001 -5.048774e-001  3.856177e+000
      vertex -1.250000e+000 -1.053372e+001  3.424643e+000
      vertex -1.109127e-001 -1.042025e+001  2.557986e+000
    endloop
  endfacet
  facet normal  7.933533e-001 -7.902881e-002  6.036099e-001
    outer loop
      vertex -1.109127e-001 -5.048774e-001  3.856177e+000
      vertex -1.109127e-001 -1.042025e+001  2.557986e+000
      vertex  7.631397e-001 -3.570023e-001  2.726729e+000
    endloop
  endfacet
  facet normal  7.933534e-001 -7.902881e-002  6.036099e-001
    outer loop
      vertex  7.631397e-001 -3.570023e-001  2.726729e+000
      vertex -1.109127e-001 -1.042025e+001  2.557986e+000
      vertex  7.631397e-001 -1.027238e+001  1.428539e+000
    endloop
  endfacet
  facet normal  9.238795e-001 -4.967958e-002  3.794450e-001
    outer loop
      vertex  7.631397e-001 -3.570023e-001  2.726729e+000
      vertex  7.631397e-001 -1.027238e+001  1.428539e+000
      vertex  1.312592e+000 -1.847980e-001  1.411459e+000
    endloop
  endfacet
  facet normal  9.238795e-001 -4.967958e-002  3.794450e-001
    outer loop
      vertex  1.312592e+000 -1.847980e-001  1.411459e+000
      vertex  7.631397e-001 -1.027238e+001  1.428539e+000
      vertex  1.312592e+000 -1.010017e+001  1.132685e-001
    endloop
  endfacet
  facet normal  9.914449e-001 -1.694478e-002  1.294217e-001
    outer loop
      vertex  1.312592e+000 -1.847980e-001  1.411459e+000
      vertex  1.312592e+000 -1.010017e+001  1.132685e-001
      vertex  1.500000e+000  1.110223e-016 -8.881784e-016
    endloop
  endfacet
  facet normal  9.914449e-001 -1.694478e-002  1.294217e-001
    outer loop
      vertex  1.500000e+000  1.110223e-016 -8.881784e-016
      vertex  1.312592e+000 -1.010017e+001  1.132685e-001
      vertex  1.500000e+000 -9.915377e+000 -1.298190e+000
    endloop
  endfacet
  facet normal  1.000000e+000  0.000000e+000  -0.000000e+000
    outer loop
      vertex  1.500000e+000 -9.915377e+000 -1.298190e+000
      vertex  1.500000e+000 -5.108593e+000 -4.221143e+000
      vertex  1.500000e+000 -4.308593e+000 -4.006783e+000
    endloop
  endfacet
  facet normal  1.000000e+000  0.000000e+000  0.000000e+000
    outer loop
      vertex  1.500000e+000  6.490951e-001 -4.957688e+000
      vertex  1.500000e+000  1.110223e-016 -8.881784e-016
      vertex  1.500000e+000 -9.915377e+000 -1.298190e+000
    endloop
  endfacet
  facet normal  1.000000e+000  0.000000e+000  0.000000e+000
    outer loop
      vertex  1.500000e+000  6.490951e-001 -4.957688e+000
      vertex  1.500000e+000 -9.915377e+000 -1.298190e+000
      vertex  1.500000e+000 -4.308593e+000 -4.006783e+000
    endloop
  endfacet
  facet normal  1.000000e+000  0.000000e+000  0.000000e+000
    outer loop
      vertex  1.500000e+000  6.490951e-001 -4.957688e+000
      vertex  1.500000e+000 -4.308593e+000 -4.006783e+000
      vertex  1.500000e+000 -3.508594e+000 -4.221143e+000
    endloop
  endfacet
  facet normal  1.000000e+000  0.000000e+000  0.000000e+000
    outer loop
      vertex  1.500000e+000  6.490951e-001 -4.957688e+000
      vertex  1.500000e+000 -3.508594e+000 -4.221143e+000
      vertex  1.500000e+000 -2.922953e+000 -4.806784e+000
    endloop
  endfacet
  facet normal  1.000000e+000  0.000000e+000  0.000000e+000
    outer loop
      vertex  1.500000e+000  6.490951e-001 -4.957688e+000
      vertex  1.500000e+000 -2.922953e+000 -4.806784e+000
      vertex  1.500000e+000 -2.708593e+000 -5.606783e+000
    endloop
  endfacet
  facet normal  1.000000e+000  -0.000000e+000  0.000000e+000
    outer loop
      vertex  1.500000e+000  6.490951e-001 -4.957688e+000
      vertex  1.500000e+000 -2.708593e+000 -5.606783e+000
      vertex  1.500000e+000  6.070299e-001 -6.521468e+000
    endloop
  endfacet
  facet normal  1.000000e+000  0.000000e+000  0.000000e+000
    outer loop
      vertex  1.500000e+000 -9.266282e+000 -6.255878e+000
      vertex  1.500000e+000 -5.694234e+000 -6.406784e+000
      vertex  1.500000e+000 -5.908594e+000 -5.606783e+000
    endloop
  endfacet
  facet normal  1.000000e+000  0.000000e+000  -0.000000e+000
    outer loop
      vertex  1.500000e+000 -9.266282e+000 -6.255878e+000
      vertex  1.500000e+000 -5.908594e+000 -5.606783e+000
      vertex  1.500000e+000 -5.694234e+000 -4.806784e+000
    endloop
  endfacet
  facet normal  1.000000e+000  0.000000e+000  -0.000000e+000
    outer loop
      vertex  1.500000e+000 -9.266282e+000 -6.255878e+000
      vertex  1.500000e+000 -5.694234e+000 -4.806784e+000
      vertex  1.500000e+000 -5.108593e+000 -4.221143e+000
    endloop
  endfacet
  facet normal  1.000000e+000  0.000000e+000  0.000000e+000
    outer loop
      vertex  1.500000e+000 -9.266282e+000 -6.255878e+000
      vertex  1.500000e+000 -5.108593e+000 -4.221143e+000
      vertex  1.500000e+000 -9.915377e+000 -1.298190e+000
    endloop
  endfacet
  facet normal  9.999999e-001  0.000000e+000  -0.000000e+000
    outer loop
      vertex  1.500000e+000 -4.308593e+000 -7.206784e+000
      vertex  1.500000e+000 -3.659498e+000 -1.056447e+001
      vertex  1.500000e+000 -2.159257e+000 -1.012124e+001
    endloop
  endfacet
  facet normal  1.000000e+000  0.000000e+000  -0.000000e+000
    outer loop
      vertex  1.500000e+000 -4.308593e+000 -7.206784e+000
      vertex  1.500000e+000 -2.159257e+000 -1.012124e+001
      vertex  1.500000e+000 -8.694084e-001 -9.236110e+000
    endloop
  endfacet
  facet normal  1.000000e+000  0.000000e+000  -0.000000e+000
    outer loop
      vertex  1.500000e+000 -4.308593e+000 -7.206784e+000
      vertex  1.500000e+000 -8.694084e-001 -9.236110e+000
      vertex  1.500000e+000  8.378929e-002 -7.995711e+000
    endloop
  endfacet
  facet normal  1.000000e+000  0.000000e+000  0.000000e+000
    outer loop
      vertex  1.500000e+000 -4.308593e+000 -7.206784e+000
      vertex  1.500000e+000  8.378929e-002 -7.995711e+000
      vertex  1.500000e+000 -3.508594e+000 -6.992424e+000
    endloop
  endfacet
  facet normal  1.000000e+000  0.000000e+000  0.000000e+000
    outer loop
      vertex  1.500000e+000 -8.823054e+000 -7.756120e+000
      vertex  1.500000e+000 -4.308593e+000 -7.206784e+000
      vertex  1.500000e+000 -5.108593e+000 -6.992424e+000
    endloop
  endfacet
  facet normal  1.000000e+000  0.000000e+000  0.000000e+000
    outer loop
      vertex  1.500000e+000 -8.823054e+000 -7.756120e+000
      vertex  1.500000e+000 -5.108593e+000 -6.992424e+000
      vertex  1.500000e+000 -5.694234e+000 -6.406784e+000
    endloop
  endfacet
  facet normal  1.000000e+000  0.000000e+000  0.000000e+000
    outer loop
      vertex  1.500000e+000 -8.823054e+000 -7.756120e+000
      vertex  1.500000e+000 -5.694234e+000 -6.406784e+000
      vertex  1.500000e+000 -9.266282e+000 -6.255878e+000
    endloop
  endfacet
  facet normal  9.999999e-001  0.000000e+000  0.000000e+000
    outer loop
      vertex  1.500000e+000 -3.659498e+000 -1.056447e+001
      vertex  1.500000e+000 -4.308593e+000 -7.206784e+000
      vertex  1.500000e+000 -5.223278e+000 -1.052241e+001
    endloop
  endfacet
  facet normal  1.000000e+000  0.000000e+000  -0.000000e+000
    outer loop
      vertex  1.500000e+000 -5.223278e+000 -1.052241e+001
      vertex  1.500000e+000 -4.308593e+000 -7.206784e+000
      vertex  1.500000e+000 -8.823054e+000 -7.756120e+000
    endloop
  endfacet
  facet normal  1.000000e+000  0.000000e+000  0.000000e+000
    outer loop
      vertex  1.500000e+000 -5.223278e+000 -1.052241e+001
      vertex  1.500000e+000 -8.823054e+000 -7.756120e+000
      vertex  1.500000e+000 -6.697521e+000 -9.999166e+000
    endloop
  endfacet
  facet normal  1.000000e+000  0.000000e+000  0.000000e+000
    outer loop
      vertex  1.500000e+000 -6.697521e+000 -9.999166e+000
      vertex  1.500000e+000 -8.823054e+000 -7.756120e+000
      vertex  1.500000e+000 -7.937919e+000 -9.045969e+000
    endloop
  endfacet
  facet normal  1.000000e+000  0.000000e+000  0.000000e+000
    outer loop
      vertex  1.500000e+000 -3.508594e+000 -6.992424e+000
      vertex  1.500000e+000  8.378929e-002 -7.995711e+000
      vertex  1.500000e+000 -2.922953e+000 -6.406784e+000
    endloop
  endfacet
  facet normal  1.000000e+000  0.000000e+000  0.000000e+000
    outer loop
      vertex  1.500000e+000 -2.922953e+000 -6.406784e+000
      vertex  1.500000e+000  8.378929e-002 -7.995711e+000
      vertex  1.500000e+000  6.070299e-001 -6.521468e+000
    endloop
  endfacet
  facet normal  1.000000e+000  0.000000e+000  0.000000e+000
    outer loop
      vertex  1.500000e+000 -2.922953e+000 -6.406784e+000
      vertex  1.500000e+000  6.070299e-001 -6.521468e+000
      vertex  1.500000e+000 -2.708593e+000 -5.606783e+000
    endloop
  endfacet
  facet normal  3.479767e-018  9.915377e-001  1.298190e-001
    outer loop
      vertex  0.000000e+000  0.000000e+000  0.000000e+000
      vertex  1.500000e+000  1.110223e-016 -8.881784e-016
      vertex  0.000000e+000  6.490951e-001 -4.957688e+000
    endloop
  endfacet
  facet normal  -0.000000e+000  9.915377e-001  1.298190e-001
    outer loop
      vertex  0.000000e+000  6.490951e-001 -4.957688e+000
      vertex  1.500000e+000  1.110223e-016 -8.881784e-016
      vertex  1.500000e+000  6.490951e-001 -4.957688e+000
    endloop
  endfacet
  facet normal -1.390504e-008  9.915377e-001  1.298190e-001
    outer loop
      vertex -8.265867e-001 -3.161152e-001  2.414440e+000
      vertex -1.777719e+000 -4.317622e-001  3.297734e+000
      vertex -1.250000e+000 -6.183461e-001  4.722833e+000
    endloop
  endfacet
  facet normal -4.802258e-010  9.915377e-001  1.298190e-001
    outer loop
      vertex -1.250000e+000 -6.183461e-001  4.722833e+000
      vertex -1.777719e+000 -4.317622e-001  3.297734e+000
      vertex -2.964724e+000 -5.015821e-001  3.831007e+000
    endloop
  endfacet
  facet normal -2.599947e-009  9.915376e-001  1.298190e-001
    outer loop
      vertex -1.250000e+000 -6.183461e-001  4.722833e+000
      vertex -2.964724e+000 -5.015821e-001  3.831007e+000
      vertex -2.576495e+000 -6.896755e-001  5.267635e+000
    endloop
  endfacet
  facet normal -8.179798e-009  9.915377e-001  1.298190e-001
    outer loop
      vertex -1.109127e-001 -5.048774e-001  3.856177e+000
      vertex -8.265867e-001 -3.161152e-001  2.414440e+000
      vertex -1.250000e+000 -6.183461e-001  4.722833e+000
    endloop
  endfacet
  facet normal  2.288843e-008  9.915377e-001  1.298190e-001
    outer loop
      vertex -8.265867e-001 -3.161152e-001  2.414440e+000
      vertex -1.109127e-001 -5.048774e-001  3.856177e+000
      vertex -2.122795e-001 -1.669158e-001  1.274877e+000
    endloop
  endfacet
  facet normal  3.302019e-008  9.915377e-001  1.298190e-001
    outer loop
      vertex -2.122795e-001 -1.669158e-001  1.274877e+000
      vertex -1.109127e-001 -5.048774e-001  3.856177e+000
      vertex  7.631397e-001 -3.570023e-001  2.726729e+000
    endloop
  endfacet
  facet normal  5.518517e-009  9.915377e-001  1.298190e-001
    outer loop
      vertex -2.122795e-001 -1.669158e-001  1.274877e+000
      vertex  7.631397e-001 -3.570023e-001  2.726729e+000
      vertex  0.000000e+000  0.000000e+000  0.000000e+000
    endloop
  endfacet
  facet normal -9.043760e-009  9.915377e-001  1.298190e-001
    outer loop
      vertex  0.000000e+000  0.000000e+000  0.000000e+000
      vertex  7.631397e-001 -3.570023e-001  2.726729e+000
      vertex  1.312592e+000 -1.847980e-001  1.411459e+000
    endloop
  endfacet
  facet normal  0.000000e+000  9.915376e-001  1.298190e-001
    outer loop
      vertex  0.000000e+000  0.000000e+000  0.000000e+000
      vertex  1.312592e+000 -1.847980e-001  1.411459e+000
      vertex  1.500000e+000  1.110223e-016 -8.881784e-016
    endloop
  endfacet
  facet normal -6.835923e-001  9.475023e-002 -7.236877e-001
    outer loop
      vertex -8.265867e-001 -3.161152e-001  2.414440e+000
      vertex -1.777719e+000 -1.034714e+001  1.999544e+000
      vertex -1.777719e+000 -4.317622e-001  3.297734e+000
    endloop
  endfacet
  facet normal -4.127070e-001  1.182474e-001 -9.031559e-001
    outer loop
      vertex -1.777719e+000 -4.317622e-001  3.297734e+000
      vertex -1.777719e+000 -1.034714e+001  1.999544e+000
      vertex -2.964724e+000 -1.041696e+001  2.532817e+000
    endloop
  endfacet
  facet normal -4.127070e-001  1.182474e-001 -9.031558e-001
    outer loop
      vertex -1.777719e+000 -4.317622e-001  3.297734e+000
      vertex -2.964724e+000 -1.041696e+001  2.532817e+000
      vertex -2.964724e+000 -5.015821e-001  3.831007e+000
    endloop
  endfacet
  facet normal -6.835923e-001  9.475023e-002 -7.236877e-001
    outer loop
      vertex -1.777719e+000 -1.034714e+001  1.999544e+000
      vertex -8.265867e-001 -3.161152e-001  2.414440e+000
      vertex -8.265867e-001 -1.023149e+001  1.116250e+000
    endloop
  endfacet
  facet normal -8.819213e-001  6.119626e-002 -4.674076e-001
    outer loop
      vertex -8.265867e-001 -1.023149e+001  1.116250e+000
      vertex -8.265867e-001 -3.161152e-001  2.414440e+000
      vertex -2.122795e-001 -1.669158e-001  1.274877e+000
    endloop
  endfacet
  facet normal -8.819213e-001  6.119626e-002 -4.674076e-001
    outer loop
      vertex -8.265867e-001 -1.023149e+001  1.116250e+000
      vertex -2.122795e-001 -1.669158e-001  1.274877e+000
      vertex -2.122795e-001 -1.008229e+001 -2.331270e-002
    endloop
  endfacet
  facet normal -9.866434e-001  2.114693e-002 -1.615170e-001
    outer loop
      vertex -2.122795e-001 -1.008229e+001 -2.331270e-002
      vertex -2.122795e-001 -1.669158e-001  1.274877e+000
      vertex  0.000000e+000  0.000000e+000  0.000000e+000
    endloop
  endfacet
  facet normal -9.866434e-001  2.114693e-002 -1.615170e-001
    outer loop
      vertex -2.122795e-001 -1.008229e+001 -2.331270e-002
      vertex  0.000000e+000  0.000000e+000  0.000000e+000
      vertex  0.000000e+000 -9.915377e+000 -1.298190e+000
    endloop
  endfacet
  facet normal -1.000000e+000  0.000000e+000  0.000000e+000
    outer loop
      vertex  0.000000e+000 -4.308593e+000 -4.006783e+000
      vertex  0.000000e+000 -5.108593e+000 -4.221143e+000
      vertex  0.000000e+000 -9.915377e+000 -1.298190e+000
    endloop
  endfacet
  facet normal -1.000000e+000  0.000000e+000  0.000000e+000
    outer loop
      vertex  0.000000e+000  6.490951e-001 -4.957688e+000
      vertex  0.000000e+000  6.070299e-001 -6.521468e+000
      vertex  0.000000e+000 -2.708593e+000 -5.606783e+000
    endloop
  endfacet
  facet normal -1.000000e+000  0.000000e+000  0.000000e+000
    outer loop
      vertex  0.000000e+000  6.490951e-001 -4.957688e+000
      vertex  0.000000e+000 -2.708593e+000 -5.606783e+000
      vertex  0.000000e+000 -2.922953e+000 -4.806784e+000
    endloop
  endfacet
  facet normal -1.000000e+000  0.000000e+000  0.000000e+000
    outer loop
      vertex  0.000000e+000  6.490951e-001 -4.957688e+000
      vertex  0.000000e+000 -2.922953e+000 -4.806784e+000
      vertex  0.000000e+000 -3.508594e+000 -4.221143e+000
    endloop
  endfacet
  facet normal -1.000000e+000  0.000000e+000  0.000000e+000
    outer loop
      vertex  0.000000e+000  6.490951e-001 -4.957688e+000
      vertex  0.000000e+000 -3.508594e+000 -4.221143e+000
      vertex  0.000000e+000 -4.308593e+000 -4.006783e+000
    endloop
  endfacet
  facet normal -1.000000e+000  0.000000e+000  0.000000e+000
    outer loop
      vertex  0.000000e+000  6.490951e-001 -4.957688e+000
      vertex  0.000000e+000 -4.308593e+000 -4.006783e+000
      vertex  0.000000e+000 -9.915377e+000 -1.298190e+000
    endloop
  endfacet
  facet normal -1.000000e+000  0.000000e+000  0.000000e+000
    outer loop
      vertex  0.000000e+000  6.490951e-001 -4.957688e+000
      vertex  0.000000e+000 -9.915377e+000 -1.298190e+000
      vertex  0.000000e+000  0.000000e+000  0.000000e+000
    endloop
  endfacet
  facet normal -1.000000e+000  0.000000e+000  0.000000e+000
    outer loop
      vertex  0.000000e+000 -9.266282e+000 -6.255878e+000
      vertex  0.000000e+000 -9.915377e+000 -1.298190e+000
      vertex  0.000000e+000 -5.108593e+000 -4.221143e+000
    endloop
  endfacet
  facet normal -1.000000e+000  0.000000e+000  0.000000e+000
    outer loop
      vertex  0.000000e+000 -9.266282e+000 -6.255878e+000
      vertex  0.000000e+000 -5.108593e+000 -4.221143e+000
      vertex  0.000000e+000 -5.694234e+000 -4.806784e+000
    endloop
  endfacet
  facet normal -1.000000e+000  0.000000e+000  0.000000e+000
    outer loop
      vertex  0.000000e+000 -9.266282e+000 -6.255878e+000
      vertex  0.000000e+000 -5.694234e+000 -4.806784e+000
      vertex  0.000000e+000 -5.908594e+000 -5.606783e+000
    endloop
  endfacet
  facet normal -1.000000e+000  0.000000e+000  -0.000000e+000
    outer loop
      vertex  0.000000e+000 -9.266282e+000 -6.255878e+000
      vertex  0.000000e+000 -5.908594e+000 -5.606783e+000
      vertex  0.000000e+000 -5.694234e+000 -6.406784e+000
    endloop
  endfacet
  facet normal -1.000000e+000  0.000000e+000  -0.000000e+000
    outer loop
      vertex  0.000000e+000 -4.308593e+000 -7.206784e+000
      vertex  0.000000e+000 -3.508594e+000 -6.992424e+000
      vertex  0.000000e+000  8.378929e-002 -7.995711e+000
    endloop
  endfacet
  facet normal -1.000000e+000  -0.000000e+000  0.000000e+000
    outer loop
      vertex  0.000000e+000 -4.308593e+000 -7.206784e+000
      vertex  0.000000e+000  8.378929e-002 -7.995711e+000
      vertex  0.000000e+000 -8.694084e-001 -9.236110e+000
    endloop
  endfacet
  facet normal -1.000000e+000  -0.000000e+000  0.000000e+000
    outer loop
      vertex  0.000000e+000 -4.308593e+000 -7.206784e+000
      vertex  0.000000e+000 -8.694084e-001 -9.236110e+000
      vertex  0.000000e+000 -2.159257e+000 -1.012124e+001
    endloop
  endfacet
  facet normal -9.999999e-001  -0.000000e+000  0.000000e+000
    outer loop
      vertex  0.000000e+000 -4.308593e+000 -7.206784e+000
      vertex  0.000000e+000 -2.159257e+000 -1.012124e+001
      vertex  0.000000e+000 -3.659498e+000 -1.056447e+001
    endloop
  endfacet
  facet normal -1.000000e+000  0.000000e+000  0.000000e+000
    outer loop
      vertex  0.000000e+000 -8.823054e+000 -7.756120e+000
      vertex  0.000000e+000 -9.266282e+000 -6.255878e+000
      vertex  0.000000e+000 -5.694234e+000 -6.406784e+000
    endloop
  endfacet
  facet normal -1.000000e+000  0.000000e+000  -0.000000e+000
    outer loop
      vertex  0.000000e+000 -8.823054e+000 -7.756120e+000
      vertex  0.000000e+000 -5.694234e+000 -6.406784e+000
      vertex  0.000000e+000 -5.108593e+000 -6.992424e+000
    endloop
  endfacet
  facet normal -1.000000e+000  0.000000e+000  -0.000000e+000
    outer loop
      vertex  0.000000e+000 -8.823054e+000 -7.756120e+000
      vertex  0.000000e+000 -5.108593e+000 -6.992424e+000
      vertex  0.000000e+000 -4.308593e+000 -7.206784e+000
    endloop
  endfacet
  facet normal -9.999999e-001  0.000000e+000  0.000000e+000
    outer loop
      vertex  0.000000e+000 -3.659498e+000 -1.056447e+001
      vertex  0.000000e+000 -5.223278e+000 -1.052241e+001
      vertex  0.000000e+000 -4.308593e+000 -7.206784e+000
    endloop
  endfacet
  facet normal -1.000000e+000  0.000000e+000  0.000000e+000
    outer loop
      vertex  0.000000e+000 -4.308593e+000 -7.206784e+000
      vertex  0.000000e+000 -5.223278e+000 -1.052241e+001
      vertex  0.000000e+000 -8.823054e+000 -7.756120e+000
    endloop
  endfacet
  facet normal -1.000000e+000  0.000000e+000  0.000000e+000
    outer loop
      vertex  0.000000e+000 -5.223278e+000 -1.052241e+001
      vertex  0.000000e+000 -6.697521e+000 -9.999166e+000
      vertex  0.000000e+000 -8.823054e+000 -7.756120e+000
    endloop
  endfacet
  facet normal -1.000000e+000  0.000000e+000  0.000000e+000
    outer loop
      vertex  0.000000e+000 -8.823054e+000 -7.756120e+000
      vertex  0.000000e+000 -6.697521e+000 -9.999166e+000
      vertex  0.000000e+000 -7.937919e+000 -9.045969e+000
    endloop
  endfacet
  facet normal -1.000000e+000  0.000000e+000  0.000000e+000
    outer loop
      vertex  0.000000e+000 -2.708593e+000 -5.606783e+000
      vertex  0.000000e+000  6.070299e-001 -6.521468e+000
      vertex  0.000000e+000 -2.922953e+000 -6.406784e+000
    endloop
  endfacet
  facet normal -1.000000e+000  0.000000e+000  0.000000e+000
    outer loop
      vertex  0.000000e+000 -2.922953e+000 -6.406784e+000
      vertex  0.000000e+000  6.070299e-001 -6.521468e+000
      vertex  0.000000e+000  8.378929e-002 -7.995711e+000
    endloop
  endfacet
  facet normal -1.000000e+000  0.000000e+000  0.000000e+000
    outer loop
      vertex  0.000000e+000 -2.922953e+000 -6.406784e+000
      vertex  0.000000e+000  8.378929e-002 -7.995711e+000
      vertex  0.000000e+000 -3.508594e+000 -6.992424e+000
    endloop
  endfacet
  facet normal  0.000000e+000 -9.915377e-001 -1.298189e-001
    outer loop
      vertex  0.000000e+000 -9.915377e+000 -1.298190e+000
      vertex  0.000000e+000 -9.266282e+000 -6.255878e+000
      vertex  1.500000e+000 -9.915377e+000 -1.298190e+000
    endloop
  endfacet
  facet normal  0.000000e+000 -9.915377e-001 -1.298189e-001
    outer loop
      vertex  1.500000e+000 -9.915377e+000 -1.298190e+000
      vertex  0.000000e+000 -9.266282e+000 -6.255878e+000
      vertex  1.500000e+000 -9.266282e+000 -6.255878e+000
    endloop
  endfacet
  facet normal  2.709224e-007 -9.915376e-001 -1.298196e-001
    outer loop
      vertex -2.576495e+000 -1.060505e+001  3.969445e+000
      vertex -2.964724e+000 -1.041696e+001  2.532817e+000
      vertex -1.250000e+000 -1.053372e+001  3.424643e+000
    endloop
  endfacet
  facet normal -2.248268e-007 -9.915377e-001 -1.298187e-001
    outer loop
      vertex -1.250000e+000 -1.053372e+001  3.424643e+000
      vertex -2.964724e+000 -1.041696e+001  2.532817e+000
      vertex -1.777719e+000 -1.034714e+001  1.999544e+000
    endloop
  endfacet
  facet normal  3.830941e-007 -9.915377e-001 -1.298189e-001
    outer loop
      vertex -1.250000e+000 -1.053372e+001  3.424643e+000
      vertex -1.777719e+000 -1.034714e+001  1.999544e+000
      vertex -8.265867e-001 -1.023149e+001  1.116250e+000
    endloop
  endfacet
  facet normal -4.628918e-007 -9.915376e-001 -1.298191e-001
    outer loop
      vertex -1.250000e+000 -1.053372e+001  3.424643e+000
      vertex -8.265867e-001 -1.023149e+001  1.116250e+000
      vertex -1.109127e-001 -1.042025e+001  2.557986e+000
    endloop
  endfacet
  facet normal -2.446714e-007 -9.915376e-001 -1.298192e-001
    outer loop
      vertex -1.109127e-001 -1.042025e+001  2.557986e+000
      vertex -8.265867e-001 -1.023149e+001  1.116250e+000
      vertex -2.122795e-001 -1.008229e+001 -2.331270e-002
    endloop
  endfacet
  facet normal  4.053415e-007 -9.915377e-001 -1.298192e-001
    outer loop
      vertex -1.109127e-001 -1.042025e+001  2.557986e+000
      vertex -2.122795e-001 -1.008229e+001 -2.331270e-002
      vertex  7.631397e-001 -1.027238e+001  1.428539e+000
    endloop
  endfacet
  facet normal  1.485737e-007 -9.915377e-001 -1.298191e-001
    outer loop
      vertex  7.631397e-001 -1.027238e+001  1.428539e+000
      vertex -2.122795e-001 -1.008229e+001 -2.331270e-002
      vertex  0.000000e+000 -9.915377e+000 -1.298190e+000
    endloop
  endfacet
  facet normal -2.974723e-007 -9.915377e-001 -1.298189e-001
    outer loop
      vertex  7.631397e-001 -1.027238e+001  1.428539e+000
      vertex  0.000000e+000 -9.915377e+000 -1.298190e+000
      vertex  1.312592e+000 -1.010017e+001  1.132685e-001
    endloop
  endfacet
  facet normal  0.000000e+000 -9.915376e-001 -1.298192e-001
    outer loop
      vertex  1.312592e+000 -1.010017e+001  1.132685e-001
      vertex  0.000000e+000 -9.915377e+000 -1.298190e+000
      vertex  1.500000e+000 -9.915377e+000 -1.298190e+000
    endloop
  endfacet
  facet normal  0.000000e+000  9.996384e-001 -2.688994e-002
    outer loop
      vertex  0.000000e+000  6.490951e-001 -4.957688e+000
      vertex  1.500000e+000  6.490951e-001 -4.957688e+000
      vertex  0.000000e+000  6.070299e-001 -6.521468e+000
    endloop
  endfacet
  facet normal  0.000000e+000  9.996384e-001 -2.688994e-002
    outer loop
      vertex  0.000000e+000  6.070299e-001 -6.521468e+000
      vertex  1.500000e+000  6.490951e-001 -4.957688e+000
      vertex  1.500000e+000  6.070299e-001 -6.521468e+000
    endloop
  endfacet
  facet normal  0.000000e+000  9.424032e-001 -3.344792e-001
    outer loop
      vertex  0.000000e+000  6.070299e-001 -6.521468e+000
      vertex  1.500000e+000  6.070299e-001 -6.521468e+000
      vertex  0.000000e+000  8.378929e-002 -7.995711e+000
    endloop
  endfacet
  facet normal  0.000000e+000  9.424032e-001 -3.344792e-001
    outer loop
      vertex  0.000000e+000  8.378929e-002 -7.995711e+000
      vertex  1.500000e+000  6.070299e-001 -6.521468e+000
      vertex  1.500000e+000  8.378929e-002 -7.995711e+000
    endloop
  endfacet
  facet normal  0.000000e+000  7.929191e-001 -6.093271e-001
    outer loop
      vertex  0.000000e+000  8.378929e-002 -7.995711e+000
      vertex  1.500000e+000  8.378929e-002 -7.995711e+000
      vertex  0.000000e+000 -8.694084e-001 -9.236110e+000
    endloop
  endfacet
  facet normal  0.000000e+000  7.929191e-001 -6.093271e-001
    outer loop
      vertex  0.000000e+000 -8.694084e-001 -9.236110e+000
      vertex  1.500000e+000  8.378929e-002 -7.995711e+000
      vertex  1.500000e+000 -8.694084e-001 -9.236110e+000
    endloop
  endfacet
  facet normal  0.000000e+000  5.658183e-001 -8.245301e-001
    outer loop
      vertex  0.000000e+000 -8.694084e-001 -9.236110e+000
      vertex  1.500000e+000 -8.694084e-001 -9.236110e+000
      vertex  0.000000e+000 -2.159257e+000 -1.012124e+001
    endloop
  endfacet
  facet normal  0.000000e+000  5.658183e-001 -8.245301e-001
    outer loop
      vertex  0.000000e+000 -2.159257e+000 -1.012124e+001
      vertex  1.500000e+000 -8.694084e-001 -9.236110e+000
      vertex  1.500000e+000 -2.159257e+000 -1.012124e+001
    endloop
  endfacet
  facet normal  0.000000e+000  2.833313e-001 -9.590221e-001
    outer loop
      vertex  0.000000e+000 -2.159257e+000 -1.012124e+001
      vertex  1.500000e+000 -2.159257e+000 -1.012124e+001
      vertex  0.000000e+000 -3.659498e+000 -1.056447e+001
    endloop
  endfacet
  facet normal  0.000000e+000  2.833313e-001 -9.590221e-001
    outer loop
      vertex  0.000000e+000 -3.659498e+000 -1.056447e+001
      vertex  1.500000e+000 -2.159257e+000 -1.012124e+001
      vertex  1.500000e+000 -3.659498e+000 -1.056447e+001
    endloop
  endfacet
  facet normal  -0.000000e+000 -2.689025e-002 -9.996384e-001
    outer loop
      vertex  0.000000e+000 -3.659498e+000 -1.056447e+001
      vertex  1.500000e+000 -3.659498e+000 -1.056447e+001
      vertex  0.000000e+000 -5.223278e+000 -1.052241e+001
    endloop
  endfacet
  facet normal  0.000000e+000 -2.689025e-002 -9.996384e-001
    outer loop
      vertex  0.000000e+000 -5.223278e+000 -1.052241e+001
      vertex  1.500000e+000 -3.659498e+000 -1.056447e+001
      vertex  1.500000e+000 -5.223278e+000 -1.052241e+001
    endloop
  endfacet
  facet normal  -0.000000e+000 -3.344789e-001 -9.424033e-001
    outer loop
      vertex  0.000000e+000 -5.223278e+000 -1.052241e+001
      vertex  1.500000e+000 -5.223278e+000 -1.052241e+001
      vertex  0.000000e+000 -6.697521e+000 -9.999166e+000
    endloop
  endfacet
  facet normal  0.000000e+000 -3.344789e-001 -9.424033e-001
    outer loop
      vertex  0.000000e+000 -6.697521e+000 -9.999166e+000
      vertex  1.500000e+000 -5.223278e+000 -1.052241e+001
      vertex  1.500000e+000 -6.697521e+000 -9.999166e+000
    endloop
  endfacet
  facet normal  -0.000000e+000 -6.093271e-001 -7.929190e-001
    outer loop
      vertex  0.000000e+000 -6.697521e+000 -9.999166e+000
      vertex  1.500000e+000 -6.697521e+000 -9.999166e+000
      vertex  0.000000e+000 -7.937919e+000 -9.045969e+000
    endloop
  endfacet
  facet normal  0.000000e+000 -6.093271e-001 -7.929190e-001
    outer loop
      vertex  0.000000e+000 -7.937919e+000 -9.045969e+000
      vertex  1.500000e+000 -6.697521e+000 -9.999166e+000
      vertex  1.500000e+000 -7.937919e+000 -9.045969e+000
    endloop
  endfacet
  facet normal  -0.000000e+000 -8.245299e-001 -5.658184e-001
    outer loop
      vertex  0.000000e+000 -7.937919e+000 -9.045969e+000
      vertex  1.500000e+000 -7.937919e+000 -9.045969e+000
      vertex  0.000000e+000 -8.823054e+000 -7.756120e+000
    endloop
  endfacet
  facet normal  0.000000e+000 -8.245299e-001 -5.658184e-001
    outer loop
      vertex  0.000000e+000 -8.823054e+000 -7.756120e+000
      vertex  1.500000e+000 -7.937919e+000 -9.045969e+000
      vertex  1.500000e+000 -8.823054e+000 -7.756120e+000
    endloop
  endfacet
  facet normal  -0.000000e+000 -9.590221e-001 -2.833312e-001
    outer loop
      vertex  0.000000e+000 -8.823054e+000 -7.756120e+000
      vertex  1.500000e+000 -8.823054e+000 -7.756120e+000
      vertex  0.000000e+000 -9.266282e+000 -6.255878e+000
    endloop
  endfacet
  facet normal  0.000000e+000 -9.590221e-001 -2.833312e-001
    outer loop
      vertex  0.000000e+000 -9.266282e+000 -6.255878e+000
      vertex  1.500000e+000 -8.823054e+000 -7.756120e+000
      vertex  1.500000e+000 -9.266282e+000 -6.255878e+000
    endloop
  endfacet
  facet normal  0.000000e+000 -2.588196e-001  9.659257e-001
    outer loop
      vertex  0.000000e+000 -4.308593e+000 -7.206784e+000
      vertex  1.500000e+000 -3.508594e+000 -6.992424e+000
      vertex  0.000000e+000 -3.508594e+000 -6.992424e+000
    endloop
  endfacet
  facet normal  0.000000e+000 -7.071067e-001  7.071069e-001
    outer loop
      vertex  0.000000e+000 -3.508594e+000 -6.992424e+000
      vertex  1.500000e+000 -3.508594e+000 -6.992424e+000
      vertex  1.500000e+000 -2.922953e+000 -6.406784e+000
    endloop
  endfacet
  facet normal  0.000000e+000 -7.071067e-001  7.071069e-001
    outer loop
      vertex  0.000000e+000 -3.508594e+000 -6.992424e+000
      vertex  1.500000e+000 -2.922953e+000 -6.406784e+000
      vertex  0.000000e+000 -2.922953e+000 -6.406784e+000
    endloop
  endfacet
  facet normal  0.000000e+000 -9.659258e-001  2.588192e-001
    outer loop
      vertex  0.000000e+000 -2.922953e+000 -6.406784e+000
      vertex  1.500000e+000 -2.922953e+000 -6.406784e+000
      vertex  1.500000e+000 -2.708593e+000 -5.606783e+000
    endloop
  endfacet
  facet normal  0.000000e+000 -9.659258e-001  2.588192e-001
    outer loop
      vertex  0.000000e+000 -2.922953e+000 -6.406784e+000
      vertex  1.500000e+000 -2.708593e+000 -5.606783e+000
      vertex  0.000000e+000 -2.708593e+000 -5.606783e+000
    endloop
  endfacet
  facet normal  0.000000e+000 -2.588196e-001  9.659257e-001
    outer loop
      vertex  1.500000e+000 -3.508594e+000 -6.992424e+000
      vertex  0.000000e+000 -4.308593e+000 -7.206784e+000
      vertex  1.500000e+000 -4.308593e+000 -7.206784e+000
    endloop
  endfacet
  facet normal  0.000000e+000  2.588194e-001  9.659257e-001
    outer loop
      vertex  1.500000e+000 -4.308593e+000 -7.206784e+000
      vertex  0.000000e+000 -4.308593e+000 -7.206784e+000
      vertex  0.000000e+000 -5.108593e+000 -6.992424e+000
    endloop
  endfacet
  facet normal  -0.000000e+000  2.588194e-001  9.659257e-001
    outer loop
      vertex  1.500000e+000 -4.308593e+000 -7.206784e+000
      vertex  0.000000e+000 -5.108593e+000 -6.992424e+000
      vertex  1.500000e+000 -5.108593e+000 -6.992424e+000
    endloop
  endfacet
  facet normal  0.000000e+000  7.071065e-001  7.071071e-001
    outer loop
      vertex  1.500000e+000 -5.108593e+000 -6.992424e+000
      vertex  0.000000e+000 -5.108593e+000 -6.992424e+000
      vertex  0.000000e+000 -5.694234e+000 -6.406784e+000
    endloop
  endfacet
  facet normal  -0.000000e+000  7.071065e-001  7.071071e-001
    outer loop
      vertex  1.500000e+000 -5.108593e+000 -6.992424e+000
      vertex  0.000000e+000 -5.694234e+000 -6.406784e+000
      vertex  1.500000e+000 -5.694234e+000 -6.406784e+000
    endloop
  endfacet
  facet normal  0.000000e+000  9.659259e-001  2.588189e-001
    outer loop
      vertex  1.500000e+000 -5.694234e+000 -6.406784e+000
      vertex  0.000000e+000 -5.694234e+000 -6.406784e+000
      vertex  0.000000e+000 -5.908594e+000 -5.606783e+000
    endloop
  endfacet
  facet normal  -0.000000e+000  9.659259e-001  2.588189e-001
    outer loop
      vertex  1.500000e+000 -5.694234e+000 -6.406784e+000
      vertex  0.000000e+000 -5.908594e+000 -5.606783e+000
      vertex  1.500000e+000 -5.908594e+000 -5.606783e+000
    endloop
  endfacet
  facet normal  0.000000e+000  2.588189e-001 -9.659259e-001
    outer loop
      vertex  0.000000e+000 -4.308593e+000 -4.006783e+000
      vertex  1.500000e+000 -5.108593e+000 -4.221143e+000
      vertex  0.000000e+000 -5.108593e+000 -4.221143e+000
    endloop
  endfacet
  facet normal  0.000000e+000  7.071068e-001 -7.071068e-001
    outer loop
      vertex  0.000000e+000 -5.108593e+000 -4.221143e+000
      vertex  1.500000e+000 -5.108593e+000 -4.221143e+000
      vertex  1.500000e+000 -5.694234e+000 -4.806784e+000
    endloop
  endfacet
  facet normal  0.000000e+000  7.071068e-001 -7.071068e-001
    outer loop
      vertex  0.000000e+000 -5.108593e+000 -4.221143e+000
      vertex  1.500000e+000 -5.694234e+000 -4.806784e+000
      vertex  0.000000e+000 -5.694234e+000 -4.806784e+000
    endloop
  endfacet
  facet normal  0.000000e+000  9.659259e-001 -2.588191e-001
    outer loop
      vertex  0.000000e+000 -5.694234e+000 -4.806784e+000
      vertex  1.500000e+000 -5.694234e+000 -4.806784e+000
      vertex  1.500000e+000 -5.908594e+000 -5.606783e+000
    endloop
  endfacet
  facet normal  0.000000e+000  9.659259e-001 -2.588191e-001
    outer loop
      vertex  0.000000e+000 -5.694234e+000 -4.806784e+000
      vertex  1.500000e+000 -5.908594e+000 -5.606783e+000
      vertex  0.000000e+000 -5.908594e+000 -5.606783e+000
    endloop
  endfacet
  facet normal  0.000000e+000  2.588189e-001 -9.659259e-001
    outer loop
      vertex  1.500000e+000 -5.108593e+000 -4.221143e+000
      vertex  0.000000e+000 -4.308593e+000 -4.006783e+000
      vertex  1.500000e+000 -4.308593e+000 -4.006783e+000
    endloop
  endfacet
  facet normal  -0.000000e+000 -2.588191e-001 -9.659259e-001
    outer loop
      vertex  1.500000e+000 -4.308593e+000 -4.006783e+000
      vertex  0.000000e+000 -4.308593e+000 -4.006783e+000
      vertex  0.000000e+000 -3.508594e+000 -4.221143e+000
    endloop
  endfacet
  facet normal  0.000000e+000 -2.588191e-001 -9.659259e-001
    outer loop
      vertex  1.500000e+000 -4.308593e+000 -4.006783e+000
      vertex  0.000000e+000 -3.508594e+000 -4.221143e+000
      vertex  1.500000e+000 -3.508594e+000 -4.221143e+000
    endloop
  endfacet
  facet normal  -0.000000e+000 -7.071069e-001 -7.071066e-001
    outer loop
      vertex  1.500000e+000 -3.508594e+000 -4.221143e+000
      vertex  0.000000e+000 -3.508594e+000 -4.221143e+000
      vertex  0.000000e+000 -2.922953e+000 -4.806784e+000
    endloop
  endfacet
  facet normal  0.000000e+000 -7.071069e-001 -7.071066e-001
    outer loop
      vertex  1.500000e+000 -3.508594e+000 -4.221143e+000
      vertex  0.000000e+000 -2.922953e+000 -4.806784e+000
      vertex  1.500000e+000 -2.922953e+000 -4.806784e+000
    endloop
  endfacet
  facet normal  -0.000000e+000 -9.659258e-001 -2.588193e-001
    outer loop
      vertex  1.500000e+000 -2.922953e+000 -4.806784e+000
      vertex  0.000000e+000 -2.922953e+000 -4.806784e+000
      vertex  0.000000e+000 -2.708593e+000 -5.606783e+000
    endloop
  endfacet
  facet normal  0.000000e+000 -9.659258e-001 -2.588193e-001
    outer loop
      vertex  1.500000e+000 -2.922953e+000 -4.806784e+000
      vertex  0.000000e+000 -2.708593e+000 -5.606783e+000
      vertex  1.500000e+000 -2.708593e+000 -5.606783e+000
    endloop
  endfacet
endsolid CATIA STL
