solid CATIA STL
  facet normal  1.000000e+000  0.000000e+000  0.000000e+000
    outer loop
      vertex  3.000000e+000 -2.011320e+001  5.969235e+000
      vertex  3.000000e+000 -2.107941e+001  5.057059e+000
      vertex  3.000000e+000 -1.013232e+001  6.724872e+000
    endloop
  endfacet
  facet normal  1.000000e+000  0.000000e+000  -0.000000e+000
    outer loop
      vertex  3.000000e+000 -5.000000e+000  0.000000e+000
      vertex  3.000000e+000 -2.500000e+000  6.698730e-001
      vertex  3.000000e+000 -6.698730e-001  2.500000e+000
    endloop
  endfacet
  facet normal  1.000000e+000  0.000000e+000  -0.000000e+000
    outer loop
      vertex  3.000000e+000 -5.000000e+000  0.000000e+000
      vertex  3.000000e+000 -6.698730e-001  2.500000e+000
      vertex  3.000000e+000  0.000000e+000  5.000000e+000
    endloop
  endfacet
  facet normal  1.000000e+000  0.000000e+000  0.000000e+000
    outer loop
      vertex  3.000000e+000 -5.000000e+000  0.000000e+000
      vertex  3.000000e+000  0.000000e+000  5.000000e+000
      vertex  3.000000e+000 -6.113197e+000  5.969235e+000
    endloop
  endfacet
  facet normal  1.000000e+000  0.000000e+000  0.000000e+000
    outer loop
      vertex  3.000000e+000 -5.000000e+000  0.000000e+000
      vertex  3.000000e+000 -6.113197e+000  5.969235e+000
      vertex  3.000000e+000 -7.079413e+000  5.057059e+000
    endloop
  endfacet
  facet normal  1.000000e+000  0.000000e+000  0.000000e+000
    outer loop
      vertex  3.000000e+000 -5.000000e+000  0.000000e+000
      vertex  3.000000e+000 -7.079413e+000  5.057059e+000
      vertex  3.000000e+000 -2.800000e+001  0.000000e+000
    endloop
  endfacet
  facet normal  1.000000e+000  0.000000e+000  0.000000e+000
    outer loop
      vertex  3.000000e+000 -2.800000e+001  1.400000e+001
      vertex  3.000000e+000 -2.800000e+001  0.000000e+000
      vertex  3.000000e+000 -2.413232e+001  6.724872e+000
    endloop
  endfacet
  facet normal  1.000000e+000  0.000000e+000  -0.000000e+000
    outer loop
      vertex  3.000000e+000 -2.800000e+001  1.400000e+001
      vertex  3.000000e+000 -2.413232e+001  6.724872e+000
      vertex  3.000000e+000 -2.388680e+001  8.030765e+000
    endloop
  endfacet
  facet normal  1.000000e+000  0.000000e+000  -0.000000e+000
    outer loop
      vertex  3.000000e+000 -2.800000e+001  1.400000e+001
      vertex  3.000000e+000 -2.388680e+001  8.030765e+000
      vertex  3.000000e+000 -2.292059e+001  8.942941e+000
    endloop
  endfacet
  facet normal  9.999999e-001  0.000000e+000  -0.000000e+000
    outer loop
      vertex  3.000000e+000 -2.800000e+001  1.400000e+001
      vertex  3.000000e+000 -2.292059e+001  8.942941e+000
      vertex  3.000000e+000 -2.160274e+001  9.112980e+000
    endloop
  endfacet
  facet normal  1.000000e+000  -0.000000e+000  -0.000000e+000
    outer loop
      vertex  3.000000e+000 -2.800000e+001  1.400000e+001
      vertex  3.000000e+000 -2.160274e+001  9.112980e+000
      vertex  3.000000e+000 -2.043663e+001  8.475932e+000
    endloop
  endfacet
  facet normal  1.000000e+000  -0.000000e+000  -0.000000e+000
    outer loop
      vertex  3.000000e+000 -2.800000e+001  1.400000e+001
      vertex  3.000000e+000 -2.043663e+001  8.475932e+000
      vertex  3.000000e+000 -9.886803e+000  8.030765e+000
    endloop
  endfacet
  facet normal  1.000000e+000  0.000000e+000  -0.000000e+000
    outer loop
      vertex  3.000000e+000 -2.800000e+001  1.400000e+001
      vertex  3.000000e+000 -9.886803e+000  8.030765e+000
      vertex  3.000000e+000 -8.920587e+000  8.942941e+000
    endloop
  endfacet
  facet normal  1.000000e+000  0.000000e+000  -0.000000e+000
    outer loop
      vertex  3.000000e+000 -2.800000e+001  1.400000e+001
      vertex  3.000000e+000 -8.920587e+000  8.942941e+000
      vertex  3.000000e+000 -7.602738e+000  9.112980e+000
    endloop
  endfacet
  facet normal  1.000000e+000  0.000000e+000  0.000000e+000
    outer loop
      vertex  3.000000e+000 -2.800000e+001  0.000000e+000
      vertex  3.000000e+000 -7.079413e+000  5.057059e+000
      vertex  3.000000e+000 -8.397262e+000  4.887020e+000
    endloop
  endfacet
  facet normal  1.000000e+000  0.000000e+000  0.000000e+000
    outer loop
      vertex  3.000000e+000 -2.800000e+001  0.000000e+000
      vertex  3.000000e+000 -8.397262e+000  4.887020e+000
      vertex  3.000000e+000 -9.563370e+000  5.524068e+000
    endloop
  endfacet
  facet normal  9.999999e-001  0.000000e+000  0.000000e+000
    outer loop
      vertex  3.000000e+000 -2.800000e+001  0.000000e+000
      vertex  3.000000e+000 -9.563370e+000  5.524068e+000
      vertex  3.000000e+000 -1.013232e+001  6.724872e+000
    endloop
  endfacet
  facet normal  1.000000e+000  0.000000e+000  0.000000e+000
    outer loop
      vertex  3.000000e+000 -2.800000e+001  0.000000e+000
      vertex  3.000000e+000 -1.013232e+001  6.724872e+000
      vertex  3.000000e+000 -2.107941e+001  5.057059e+000
    endloop
  endfacet
  facet normal  1.000000e+000  0.000000e+000  0.000000e+000
    outer loop
      vertex  3.000000e+000 -2.800000e+001  0.000000e+000
      vertex  3.000000e+000 -2.107941e+001  5.057059e+000
      vertex  3.000000e+000 -2.239726e+001  4.887020e+000
    endloop
  endfacet
  facet normal  1.000000e+000  0.000000e+000  0.000000e+000
    outer loop
      vertex  3.000000e+000 -2.800000e+001  0.000000e+000
      vertex  3.000000e+000 -2.239726e+001  4.887020e+000
      vertex  3.000000e+000 -2.356337e+001  5.524068e+000
    endloop
  endfacet
  facet normal  1.000000e+000  0.000000e+000  0.000000e+000
    outer loop
      vertex  3.000000e+000 -2.800000e+001  0.000000e+000
      vertex  3.000000e+000 -2.356337e+001  5.524068e+000
      vertex  3.000000e+000 -2.413232e+001  6.724872e+000
    endloop
  endfacet
  facet normal  1.000000e+000  -0.000000e+000  0.000000e+000
    outer loop
      vertex  3.000000e+000 -5.000000e+000  1.400000e+001
      vertex  3.000000e+000 -2.800000e+001  1.400000e+001
      vertex  3.000000e+000 -7.602738e+000  9.112980e+000
    endloop
  endfacet
  facet normal  1.000000e+000  -0.000000e+000  0.000000e+000
    outer loop
      vertex  3.000000e+000 -5.000000e+000  1.400000e+001
      vertex  3.000000e+000 -7.602738e+000  9.112980e+000
      vertex  3.000000e+000 -6.436630e+000  8.475932e+000
    endloop
  endfacet
  facet normal  1.000000e+000  -0.000000e+000  0.000000e+000
    outer loop
      vertex  3.000000e+000 -5.000000e+000  1.400000e+001
      vertex  3.000000e+000 -6.436630e+000  8.475932e+000
      vertex  3.000000e+000 -5.867676e+000  7.275128e+000
    endloop
  endfacet
  facet normal  1.000000e+000  0.000000e+000  0.000000e+000
    outer loop
      vertex  3.000000e+000 -5.000000e+000  1.400000e+001
      vertex  3.000000e+000 -5.867676e+000  7.275128e+000
      vertex  3.000000e+000 -6.698730e-001  1.150000e+001
    endloop
  endfacet
  facet normal  9.999999e-001  0.000000e+000  0.000000e+000
    outer loop
      vertex  3.000000e+000 -5.000000e+000  1.400000e+001
      vertex  3.000000e+000 -6.698730e-001  1.150000e+001
      vertex  3.000000e+000 -2.500000e+000  1.333013e+001
    endloop
  endfacet
  facet normal  1.000000e+000  0.000000e+000  0.000000e+000
    outer loop
      vertex  3.000000e+000  0.000000e+000  9.000000e+000
      vertex  3.000000e+000 -6.698730e-001  1.150000e+001
      vertex  3.000000e+000  0.000000e+000  5.000000e+000
    endloop
  endfacet
  facet normal  1.000000e+000  0.000000e+000  0.000000e+000
    outer loop
      vertex  3.000000e+000  0.000000e+000  5.000000e+000
      vertex  3.000000e+000 -6.698730e-001  1.150000e+001
      vertex  3.000000e+000 -5.867676e+000  7.275128e+000
    endloop
  endfacet
  facet normal  1.000000e+000  0.000000e+000  0.000000e+000
    outer loop
      vertex  3.000000e+000  0.000000e+000  5.000000e+000
      vertex  3.000000e+000 -5.867676e+000  7.275128e+000
      vertex  3.000000e+000 -6.113197e+000  5.969235e+000
    endloop
  endfacet
  facet normal  1.000000e+000  0.000000e+000  0.000000e+000
    outer loop
      vertex  3.000000e+000 -9.886803e+000  8.030765e+000
      vertex  3.000000e+000 -2.043663e+001  8.475932e+000
      vertex  3.000000e+000 -1.013232e+001  6.724872e+000
    endloop
  endfacet
  facet normal  1.000000e+000  0.000000e+000  0.000000e+000
    outer loop
      vertex  3.000000e+000 -1.013232e+001  6.724872e+000
      vertex  3.000000e+000 -2.043663e+001  8.475932e+000
      vertex  3.000000e+000 -1.986768e+001  7.275128e+000
    endloop
  endfacet
  facet normal  1.000000e+000  0.000000e+000  0.000000e+000
    outer loop
      vertex  3.000000e+000 -1.013232e+001  6.724872e+000
      vertex  3.000000e+000 -1.986768e+001  7.275128e+000
      vertex  3.000000e+000 -2.011320e+001  5.969235e+000
    endloop
  endfacet
  facet normal -1.000000e+000  0.000000e+000  0.000000e+000
    outer loop
      vertex  0.000000e+000  0.000000e+000  5.000000e+000
      vertex  0.000000e+000 -6.698730e-001  2.500000e+000
      vertex  0.000000e+000 -7.394690e+000  4.936968e+000
    endloop
  endfacet
  facet normal -1.000000e+000  0.000000e+000  0.000000e+000
    outer loop
      vertex  0.000000e+000  0.000000e+000  5.000000e+000
      vertex  0.000000e+000 -7.394690e+000  4.936968e+000
      vertex  0.000000e+000 -6.113197e+000  5.969235e+000
    endloop
  endfacet
  facet normal -9.999999e-001  0.000000e+000  0.000000e+000
    outer loop
      vertex  0.000000e+000  0.000000e+000  5.000000e+000
      vertex  0.000000e+000 -6.113197e+000  5.969235e+000
      vertex  0.000000e+000 -5.936968e+000  7.605310e+000
    endloop
  endfacet
  facet normal -1.000000e+000  0.000000e+000  0.000000e+000
    outer loop
      vertex  0.000000e+000  0.000000e+000  5.000000e+000
      vertex  0.000000e+000 -5.936968e+000  7.605310e+000
      vertex  0.000000e+000 -6.969235e+000  8.886803e+000
    endloop
  endfacet
  facet normal -9.999999e-001  0.000000e+000  0.000000e+000
    outer loop
      vertex  0.000000e+000  0.000000e+000  5.000000e+000
      vertex  0.000000e+000 -6.969235e+000  8.886803e+000
      vertex  0.000000e+000  0.000000e+000  9.000000e+000
    endloop
  endfacet
  facet normal -1.000000e+000  0.000000e+000  0.000000e+000
    outer loop
      vertex  0.000000e+000 -2.800000e+001  0.000000e+000
      vertex  0.000000e+000 -2.388680e+001  8.030765e+000
      vertex  0.000000e+000 -2.406303e+001  6.394690e+000
    endloop
  endfacet
  facet normal -1.000000e+000  0.000000e+000  -0.000000e+000
    outer loop
      vertex  0.000000e+000 -2.800000e+001  0.000000e+000
      vertex  0.000000e+000 -2.406303e+001  6.394690e+000
      vertex  0.000000e+000 -2.303077e+001  5.113197e+000
    endloop
  endfacet
  facet normal -1.000000e+000  0.000000e+000  -0.000000e+000
    outer loop
      vertex  0.000000e+000 -2.800000e+001  0.000000e+000
      vertex  0.000000e+000 -2.303077e+001  5.113197e+000
      vertex  0.000000e+000 -2.139469e+001  4.936968e+000
    endloop
  endfacet
  facet normal -9.999999e-001  0.000000e+000  -0.000000e+000
    outer loop
      vertex  0.000000e+000 -2.800000e+001  0.000000e+000
      vertex  0.000000e+000 -2.139469e+001  4.936968e+000
      vertex  0.000000e+000 -9.030765e+000  5.113197e+000
    endloop
  endfacet
  facet normal -1.000000e+000  0.000000e+000  -0.000000e+000
    outer loop
      vertex  0.000000e+000 -2.800000e+001  0.000000e+000
      vertex  0.000000e+000 -9.030765e+000  5.113197e+000
      vertex  0.000000e+000 -7.394690e+000  4.936968e+000
    endloop
  endfacet
  facet normal -1.000000e+000  0.000000e+000  -0.000000e+000
    outer loop
      vertex  0.000000e+000 -2.800000e+001  0.000000e+000
      vertex  0.000000e+000 -7.394690e+000  4.936968e+000
      vertex  0.000000e+000 -5.000000e+000 -3.552714e-015
    endloop
  endfacet
  facet normal -1.000000e+000  -0.000000e+000  0.000000e+000
    outer loop
      vertex  0.000000e+000 -2.800000e+001  1.400000e+001
      vertex  0.000000e+000 -5.000000e+000  1.400000e+001
      vertex  0.000000e+000 -6.969235e+000  8.886803e+000
    endloop
  endfacet
  facet normal -1.000000e+000  0.000000e+000  0.000000e+000
    outer loop
      vertex  0.000000e+000 -2.800000e+001  1.400000e+001
      vertex  0.000000e+000 -6.969235e+000  8.886803e+000
      vertex  0.000000e+000 -8.605310e+000  9.063032e+000
    endloop
  endfacet
  facet normal -1.000000e+000  -0.000000e+000  0.000000e+000
    outer loop
      vertex  0.000000e+000 -2.800000e+001  1.400000e+001
      vertex  0.000000e+000 -8.605310e+000  9.063032e+000
      vertex  0.000000e+000 -9.886803e+000  8.030765e+000
    endloop
  endfacet
  facet normal -1.000000e+000  0.000000e+000  0.000000e+000
    outer loop
      vertex  0.000000e+000 -2.800000e+001  1.400000e+001
      vertex  0.000000e+000 -9.886803e+000  8.030765e+000
      vertex  0.000000e+000 -2.096923e+001  8.886803e+000
    endloop
  endfacet
  facet normal -1.000000e+000  0.000000e+000  0.000000e+000
    outer loop
      vertex  0.000000e+000 -2.800000e+001  1.400000e+001
      vertex  0.000000e+000 -2.096923e+001  8.886803e+000
      vertex  0.000000e+000 -2.260531e+001  9.063032e+000
    endloop
  endfacet
  facet normal -1.000000e+000  -0.000000e+000  0.000000e+000
    outer loop
      vertex  0.000000e+000 -2.800000e+001  1.400000e+001
      vertex  0.000000e+000 -2.260531e+001  9.063032e+000
      vertex  0.000000e+000 -2.388680e+001  8.030765e+000
    endloop
  endfacet
  facet normal -1.000000e+000  -0.000000e+000  0.000000e+000
    outer loop
      vertex  0.000000e+000 -2.800000e+001  1.400000e+001
      vertex  0.000000e+000 -2.388680e+001  8.030765e+000
      vertex  0.000000e+000 -2.800000e+001  0.000000e+000
    endloop
  endfacet
  facet normal -9.999999e-001  -0.000000e+000  0.000000e+000
    outer loop
      vertex  0.000000e+000 -5.000000e+000  1.400000e+001
      vertex  0.000000e+000 -2.500000e+000  1.333013e+001
      vertex  0.000000e+000 -6.969235e+000  8.886803e+000
    endloop
  endfacet
  facet normal -1.000000e+000  0.000000e+000  0.000000e+000
    outer loop
      vertex  0.000000e+000 -6.969235e+000  8.886803e+000
      vertex  0.000000e+000 -2.500000e+000  1.333013e+001
      vertex  0.000000e+000 -6.698730e-001  1.150000e+001
    endloop
  endfacet
  facet normal -1.000000e+000  0.000000e+000  -0.000000e+000
    outer loop
      vertex  0.000000e+000 -6.969235e+000  8.886803e+000
      vertex  0.000000e+000 -6.698730e-001  1.150000e+001
      vertex  0.000000e+000  0.000000e+000  9.000000e+000
    endloop
  endfacet
  facet normal -1.000000e+000  -0.000000e+000  0.000000e+000
    outer loop
      vertex  0.000000e+000 -7.394690e+000  4.936968e+000
      vertex  0.000000e+000 -6.698730e-001  2.500000e+000
      vertex  0.000000e+000 -5.000000e+000 -3.552714e-015
    endloop
  endfacet
  facet normal -9.999999e-001  0.000000e+000  0.000000e+000
    outer loop
      vertex  0.000000e+000 -5.000000e+000 -3.552714e-015
      vertex  0.000000e+000 -6.698730e-001  2.500000e+000
      vertex  0.000000e+000 -2.500000e+000  6.698730e-001
    endloop
  endfacet
  facet normal -1.000000e+000  -0.000000e+000  0.000000e+000
    outer loop
      vertex  0.000000e+000 -2.096923e+001  8.886803e+000
      vertex  0.000000e+000 -9.886803e+000  8.030765e+000
      vertex  0.000000e+000 -1.993697e+001  7.605310e+000
    endloop
  endfacet
  facet normal -1.000000e+000  0.000000e+000  0.000000e+000
    outer loop
      vertex  0.000000e+000 -1.993697e+001  7.605310e+000
      vertex  0.000000e+000 -9.886803e+000  8.030765e+000
      vertex  0.000000e+000 -1.006303e+001  6.394690e+000
    endloop
  endfacet
  facet normal -1.000000e+000  -0.000000e+000  0.000000e+000
    outer loop
      vertex  0.000000e+000 -1.993697e+001  7.605310e+000
      vertex  0.000000e+000 -1.006303e+001  6.394690e+000
      vertex  0.000000e+000 -2.011320e+001  5.969235e+000
    endloop
  endfacet
  facet normal -1.000000e+000  0.000000e+000  0.000000e+000
    outer loop
      vertex  0.000000e+000 -2.011320e+001  5.969235e+000
      vertex  0.000000e+000 -1.006303e+001  6.394690e+000
      vertex  0.000000e+000 -9.030765e+000  5.113197e+000
    endloop
  endfacet
  facet normal -1.000000e+000  -0.000000e+000  0.000000e+000
    outer loop
      vertex  0.000000e+000 -2.011320e+001  5.969235e+000
      vertex  0.000000e+000 -9.030765e+000  5.113197e+000
      vertex  0.000000e+000 -2.139469e+001  4.936968e+000
    endloop
  endfacet
  facet normal  5.227208e-002  7.777032e-001  6.264547e-001
    outer loop
      vertex  3.000000e+000 -2.356337e+001  5.524068e+000
      vertex  0.000000e+000 -2.303077e+001  5.113197e+000
      vertex  0.000000e+000 -2.406303e+001  6.394690e+000
    endloop
  endfacet
  facet normal -3.505462e-002  4.791312e-001  8.770431e-001
    outer loop
      vertex  0.000000e+000 -2.303077e+001  5.113197e+000
      vertex  3.000000e+000 -2.356337e+001  5.524068e+000
      vertex  3.000000e+000 -2.239726e+001  4.887020e+000
    endloop
  endfacet
  facet normal  5.227226e-002  1.069485e-001  9.928896e-001
    outer loop
      vertex  3.000000e+000 -2.239726e+001  4.887020e+000
      vertex  0.000000e+000 -2.139469e+001  4.936968e+000
      vertex  0.000000e+000 -2.303077e+001  5.113197e+000
    endloop
  endfacet
  facet normal -2.624377e-002  9.033822e-001  4.280327e-001
    outer loop
      vertex  3.000000e+000 -2.356337e+001  5.524068e+000
      vertex  0.000000e+000 -2.406303e+001  6.394690e+000
      vertex  3.000000e+000 -2.413232e+001  6.724872e+000
    endloop
  endfacet
  facet normal  3.473052e-002  9.936489e-001 -1.070307e-001
    outer loop
      vertex  3.000000e+000 -2.413232e+001  6.724872e+000
      vertex  0.000000e+000 -2.406303e+001  6.394690e+000
      vertex  0.000000e+000 -2.388680e+001  8.030765e+000
    endloop
  endfacet
  facet normal  0.000000e+000  9.827812e-001 -1.847732e-001
    outer loop
      vertex  3.000000e+000 -2.413232e+001  6.724872e+000
      vertex  0.000000e+000 -2.388680e+001  8.030765e+000
      vertex  3.000000e+000 -2.388680e+001  8.030765e+000
    endloop
  endfacet
  facet normal -2.624370e-002 -1.279225e-001  9.914369e-001
    outer loop
      vertex  3.000000e+000 -2.239726e+001  4.887020e+000
      vertex  3.000000e+000 -2.107941e+001  5.057059e+000
      vertex  0.000000e+000 -2.139469e+001  4.936968e+000
    endloop
  endfacet
  facet normal  4.299615e-002 -6.858453e-001  7.264761e-001
    outer loop
      vertex  0.000000e+000 -2.139469e+001  4.936968e+000
      vertex  3.000000e+000 -2.107941e+001  5.057059e+000
      vertex  3.000000e+000 -2.011320e+001  5.969235e+000
    endloop
  endfacet
  facet normal  0.000000e+000 -6.273124e-001  7.787677e-001
    outer loop
      vertex  0.000000e+000 -2.139469e+001  4.936968e+000
      vertex  3.000000e+000 -2.011320e+001  5.969235e+000
      vertex  0.000000e+000 -2.011320e+001  5.969235e+000
    endloop
  endfacet
  facet normal  5.227208e-002 -7.777032e-001 -6.264547e-001
    outer loop
      vertex  3.000000e+000 -2.043663e+001  8.475932e+000
      vertex  0.000000e+000 -2.096923e+001  8.886803e+000
      vertex  0.000000e+000 -1.993697e+001  7.605310e+000
    endloop
  endfacet
  facet normal -3.505462e-002 -4.791312e-001 -8.770431e-001
    outer loop
      vertex  3.000000e+000 -2.160274e+001  9.112980e+000
      vertex  0.000000e+000 -2.096923e+001  8.886803e+000
      vertex  3.000000e+000 -2.043663e+001  8.475932e+000
    endloop
  endfacet
  facet normal  5.227220e-002 -1.069488e-001 -9.928896e-001
    outer loop
      vertex  0.000000e+000 -2.260531e+001  9.063032e+000
      vertex  0.000000e+000 -2.096923e+001  8.886803e+000
      vertex  3.000000e+000 -2.160274e+001  9.112980e+000
    endloop
  endfacet
  facet normal -2.624377e-002 -9.033822e-001 -4.280327e-001
    outer loop
      vertex  3.000000e+000 -2.043663e+001  8.475932e+000
      vertex  0.000000e+000 -1.993697e+001  7.605310e+000
      vertex  3.000000e+000 -1.986768e+001  7.275128e+000
    endloop
  endfacet
  facet normal  3.473052e-002 -9.936490e-001  1.070307e-001
    outer loop
      vertex  3.000000e+000 -1.986768e+001  7.275128e+000
      vertex  0.000000e+000 -1.993697e+001  7.605310e+000
      vertex  0.000000e+000 -2.011320e+001  5.969235e+000
    endloop
  endfacet
  facet normal  0.000000e+000 -9.827812e-001  1.847731e-001
    outer loop
      vertex  3.000000e+000 -1.986768e+001  7.275128e+000
      vertex  0.000000e+000 -2.011320e+001  5.969235e+000
      vertex  3.000000e+000 -2.011320e+001  5.969235e+000
    endloop
  endfacet
  facet normal -2.624398e-002  1.279228e-001 -9.914369e-001
    outer loop
      vertex  3.000000e+000 -2.160274e+001  9.112980e+000
      vertex  3.000000e+000 -2.292059e+001  8.942941e+000
      vertex  0.000000e+000 -2.260531e+001  9.063032e+000
    endloop
  endfacet
  facet normal  4.299592e-002  6.858453e-001 -7.264761e-001
    outer loop
      vertex  0.000000e+000 -2.260531e+001  9.063032e+000
      vertex  3.000000e+000 -2.292059e+001  8.942941e+000
      vertex  3.000000e+000 -2.388680e+001  8.030765e+000
    endloop
  endfacet
  facet normal  0.000000e+000  6.273127e-001 -7.787675e-001
    outer loop
      vertex  0.000000e+000 -2.260531e+001  9.063032e+000
      vertex  3.000000e+000 -2.388680e+001  8.030765e+000
      vertex  0.000000e+000 -2.388680e+001  8.030765e+000
    endloop
  endfacet
  facet normal  5.227223e-002  7.777029e-001  6.264549e-001
    outer loop
      vertex  3.000000e+000 -9.563370e+000  5.524068e+000
      vertex  0.000000e+000 -9.030765e+000  5.113197e+000
      vertex  0.000000e+000 -1.006303e+001  6.394690e+000
    endloop
  endfacet
  facet normal -3.505455e-002  4.791309e-001  8.770431e-001
    outer loop
      vertex  0.000000e+000 -9.030765e+000  5.113197e+000
      vertex  3.000000e+000 -9.563370e+000  5.524068e+000
      vertex  3.000000e+000 -8.397262e+000  4.887020e+000
    endloop
  endfacet
  facet normal  5.227223e-002  1.069486e-001  9.928895e-001
    outer loop
      vertex  3.000000e+000 -8.397262e+000  4.887020e+000
      vertex  0.000000e+000 -7.394690e+000  4.936968e+000
      vertex  0.000000e+000 -9.030765e+000  5.113197e+000
    endloop
  endfacet
  facet normal -2.624398e-002  9.033824e-001  4.280321e-001
    outer loop
      vertex  3.000000e+000 -9.563370e+000  5.524068e+000
      vertex  0.000000e+000 -1.006303e+001  6.394690e+000
      vertex  3.000000e+000 -1.013232e+001  6.724872e+000
    endloop
  endfacet
  facet normal  3.473021e-002  9.936489e-001 -1.070307e-001
    outer loop
      vertex  3.000000e+000 -1.013232e+001  6.724872e+000
      vertex  0.000000e+000 -1.006303e+001  6.394690e+000
      vertex  0.000000e+000 -9.886803e+000  8.030765e+000
    endloop
  endfacet
  facet normal  0.000000e+000  9.827814e-001 -1.847725e-001
    outer loop
      vertex  3.000000e+000 -1.013232e+001  6.724872e+000
      vertex  0.000000e+000 -9.886803e+000  8.030765e+000
      vertex  3.000000e+000 -9.886803e+000  8.030765e+000
    endloop
  endfacet
  facet normal -2.624369e-002 -1.279226e-001  9.914369e-001
    outer loop
      vertex  3.000000e+000 -8.397262e+000  4.887020e+000
      vertex  3.000000e+000 -7.079413e+000  5.057059e+000
      vertex  0.000000e+000 -7.394690e+000  4.936968e+000
    endloop
  endfacet
  facet normal  4.299613e-002 -6.858451e-001  7.264763e-001
    outer loop
      vertex  0.000000e+000 -7.394690e+000  4.936968e+000
      vertex  3.000000e+000 -7.079413e+000  5.057059e+000
      vertex  3.000000e+000 -6.113197e+000  5.969235e+000
    endloop
  endfacet
  facet normal  0.000000e+000 -6.273122e-001  7.787678e-001
    outer loop
      vertex  0.000000e+000 -7.394690e+000  4.936968e+000
      vertex  3.000000e+000 -6.113197e+000  5.969235e+000
      vertex  0.000000e+000 -6.113197e+000  5.969235e+000
    endloop
  endfacet
  facet normal  5.227220e-002 -7.777032e-001 -6.264547e-001
    outer loop
      vertex  3.000000e+000 -6.436630e+000  8.475932e+000
      vertex  0.000000e+000 -6.969235e+000  8.886803e+000
      vertex  0.000000e+000 -5.936968e+000  7.605310e+000
    endloop
  endfacet
  facet normal -3.505462e-002 -4.791309e-001 -8.770431e-001
    outer loop
      vertex  0.000000e+000 -6.969235e+000  8.886803e+000
      vertex  3.000000e+000 -6.436630e+000  8.475932e+000
      vertex  3.000000e+000 -7.602738e+000  9.112980e+000
    endloop
  endfacet
  facet normal  5.227217e-002 -1.069488e-001 -9.928895e-001
    outer loop
      vertex  3.000000e+000 -7.602738e+000  9.112980e+000
      vertex  0.000000e+000 -8.605310e+000  9.063032e+000
      vertex  0.000000e+000 -6.969235e+000  8.886803e+000
    endloop
  endfacet
  facet normal -2.624374e-002 -9.033822e-001 -4.280324e-001
    outer loop
      vertex  3.000000e+000 -6.436630e+000  8.475932e+000
      vertex  0.000000e+000 -5.936968e+000  7.605310e+000
      vertex  3.000000e+000 -5.867676e+000  7.275128e+000
    endloop
  endfacet
  facet normal  3.473049e-002 -9.936490e-001  1.070304e-001
    outer loop
      vertex  3.000000e+000 -5.867676e+000  7.275128e+000
      vertex  0.000000e+000 -5.936968e+000  7.605310e+000
      vertex  0.000000e+000 -6.113197e+000  5.969235e+000
    endloop
  endfacet
  facet normal  0.000000e+000 -9.827812e-001  1.847727e-001
    outer loop
      vertex  3.000000e+000 -5.867676e+000  7.275128e+000
      vertex  0.000000e+000 -6.113197e+000  5.969235e+000
      vertex  3.000000e+000 -6.113197e+000  5.969235e+000
    endloop
  endfacet
  facet normal -2.624400e-002  1.279230e-001 -9.914368e-001
    outer loop
      vertex  3.000000e+000 -7.602738e+000  9.112980e+000
      vertex  3.000000e+000 -8.920587e+000  8.942941e+000
      vertex  0.000000e+000 -8.605310e+000  9.063032e+000
    endloop
  endfacet
  facet normal  4.299565e-002  6.858450e-001 -7.264764e-001
    outer loop
      vertex  0.000000e+000 -8.605310e+000  9.063032e+000
      vertex  3.000000e+000 -8.920587e+000  8.942941e+000
      vertex  3.000000e+000 -9.886803e+000  8.030765e+000
    endloop
  endfacet
  facet normal  0.000000e+000  6.273127e-001 -7.787675e-001
    outer loop
      vertex  0.000000e+000 -8.605310e+000  9.063032e+000
      vertex  3.000000e+000 -9.886803e+000  8.030765e+000
      vertex  0.000000e+000 -9.886803e+000  8.030765e+000
    endloop
  endfacet
  facet normal  -0.000000e+000  1.000000e+000  0.000000e+000
    outer loop
      vertex  1.692059e+001 -3.400000e+001  8.942941e+000
      vertex  1.560274e+001 -3.400000e+001  9.112980e+000
      vertex  1.600000e+001 -3.400000e+001  1.400000e+001
    endloop
  endfacet
  facet normal  0.000000e+000  9.999999e-001  0.000000e+000
    outer loop
      vertex  1.850000e+001 -3.400000e+001  1.333013e+001
      vertex  2.033013e+001 -3.400000e+001  1.150000e+001
      vertex  1.600000e+001 -3.400000e+001  1.400000e+001
    endloop
  endfacet
  facet normal  0.000000e+000  1.000000e+000  -0.000000e+000
    outer loop
      vertex  2.100000e+001 -3.400000e+001  5.000000e+000
      vertex  2.033013e+001 -3.400000e+001  2.500000e+000
      vertex  1.639726e+001 -3.400000e+001  4.887020e+000
    endloop
  endfacet
  facet normal  0.000000e+000  9.999999e-001  0.000000e+000
    outer loop
      vertex  2.100000e+001 -3.400000e+001  5.000000e+000
      vertex  1.639726e+001 -3.400000e+001  4.887020e+000
      vertex  1.756337e+001 -3.400000e+001  5.524068e+000
    endloop
  endfacet
  facet normal  -0.000000e+000  1.000000e+000  0.000000e+000
    outer loop
      vertex  2.100000e+001 -3.400000e+001  5.000000e+000
      vertex  1.756337e+001 -3.400000e+001  5.524068e+000
      vertex  2.100000e+001 -3.400000e+001  9.000000e+000
    endloop
  endfacet
  facet normal  0.000000e+000  1.000000e+000  0.000000e+000
    outer loop
      vertex  9.000000e+000 -3.400000e+001  1.400000e+001
      vertex  1.600000e+001 -3.400000e+001  1.400000e+001
      vertex  1.560274e+001 -3.400000e+001  9.112980e+000
    endloop
  endfacet
  facet normal  0.000000e+000  1.000000e+000  0.000000e+000
    outer loop
      vertex  9.000000e+000 -3.400000e+001  1.400000e+001
      vertex  1.560274e+001 -3.400000e+001  9.112980e+000
      vertex  1.443663e+001 -3.400000e+001  8.475932e+000
    endloop
  endfacet
  facet normal  0.000000e+000  1.000000e+000  0.000000e+000
    outer loop
      vertex  9.000000e+000 -3.400000e+001  1.400000e+001
      vertex  1.443663e+001 -3.400000e+001  8.475932e+000
      vertex  1.386768e+001 -3.400000e+001  7.275128e+000
    endloop
  endfacet
  facet normal  0.000000e+000  1.000000e+000  0.000000e+000
    outer loop
      vertex  9.000000e+000 -3.400000e+001  1.400000e+001
      vertex  1.386768e+001 -3.400000e+001  7.275128e+000
      vertex  1.411320e+001 -3.400000e+001  5.969235e+000
    endloop
  endfacet
  facet normal  0.000000e+000  1.000000e+000  0.000000e+000
    outer loop
      vertex  9.000000e+000 -3.400000e+001  1.400000e+001
      vertex  1.411320e+001 -3.400000e+001  5.969235e+000
      vertex  9.000000e+000 -3.400000e+001  0.000000e+000
    endloop
  endfacet
  facet normal  0.000000e+000  1.000000e+000  0.000000e+000
    outer loop
      vertex  2.100000e+001 -3.400000e+001  9.000000e+000
      vertex  1.756337e+001 -3.400000e+001  5.524068e+000
      vertex  1.813232e+001 -3.400000e+001  6.724872e+000
    endloop
  endfacet
  facet normal  0.000000e+000  1.000000e+000  -0.000000e+000
    outer loop
      vertex  2.100000e+001 -3.400000e+001  9.000000e+000
      vertex  1.813232e+001 -3.400000e+001  6.724872e+000
      vertex  1.788680e+001 -3.400000e+001  8.030765e+000
    endloop
  endfacet
  facet normal  0.000000e+000  1.000000e+000  -0.000000e+000
    outer loop
      vertex  2.100000e+001 -3.400000e+001  9.000000e+000
      vertex  1.788680e+001 -3.400000e+001  8.030765e+000
      vertex  1.692059e+001 -3.400000e+001  8.942941e+000
    endloop
  endfacet
  facet normal  0.000000e+000  1.000000e+000  -0.000000e+000
    outer loop
      vertex  2.100000e+001 -3.400000e+001  9.000000e+000
      vertex  1.692059e+001 -3.400000e+001  8.942941e+000
      vertex  1.600000e+001 -3.400000e+001  1.400000e+001
    endloop
  endfacet
  facet normal  0.000000e+000  9.999999e-001  0.000000e+000
    outer loop
      vertex  2.100000e+001 -3.400000e+001  9.000000e+000
      vertex  1.600000e+001 -3.400000e+001  1.400000e+001
      vertex  2.033013e+001 -3.400000e+001  1.150000e+001
    endloop
  endfacet
  facet normal  0.000000e+000  1.000000e+000  0.000000e+000
    outer loop
      vertex  1.411320e+001 -3.400000e+001  5.969235e+000
      vertex  1.507941e+001 -3.400000e+001  5.057059e+000
      vertex  9.000000e+000 -3.400000e+001  0.000000e+000
    endloop
  endfacet
  facet normal  0.000000e+000  9.999999e-001  0.000000e+000
    outer loop
      vertex  9.000000e+000 -3.400000e+001  0.000000e+000
      vertex  1.507941e+001 -3.400000e+001  5.057059e+000
      vertex  1.639726e+001 -3.400000e+001  4.887020e+000
    endloop
  endfacet
  facet normal  0.000000e+000  1.000000e+000  0.000000e+000
    outer loop
      vertex  9.000000e+000 -3.400000e+001  0.000000e+000
      vertex  1.639726e+001 -3.400000e+001  4.887020e+000
      vertex  1.600000e+001 -3.400000e+001 -7.105427e-015
    endloop
  endfacet
  facet normal  0.000000e+000  1.000000e+000  0.000000e+000
    outer loop
      vertex  1.600000e+001 -3.400000e+001 -7.105427e-015
      vertex  1.639726e+001 -3.400000e+001  4.887020e+000
      vertex  2.033013e+001 -3.400000e+001  2.500000e+000
    endloop
  endfacet
  facet normal  0.000000e+000  9.999999e-001  0.000000e+000
    outer loop
      vertex  1.600000e+001 -3.400000e+001 -7.105427e-015
      vertex  2.033013e+001 -3.400000e+001  2.500000e+000
      vertex  1.850000e+001 -3.400000e+001  6.698730e-001
    endloop
  endfacet
  facet normal  -0.000000e+000 -1.000000e+000  -0.000000e+000
    outer loop
      vertex  2.100000e+001 -3.700000e+001  9.000000e+000
      vertex  2.033013e+001 -3.700000e+001  1.150000e+001
      vertex  1.850000e+001 -3.700000e+001  1.333013e+001
    endloop
  endfacet
  facet normal  0.000000e+000 -1.000000e+000  -0.000000e+000
    outer loop
      vertex  1.600000e+001 -3.700000e+001 -7.105427e-015
      vertex  1.539469e+001 -3.700000e+001  4.936968e+000
      vertex  9.000000e+000 -3.700000e+001 -7.105427e-015
    endloop
  endfacet
  facet normal  0.000000e+000 -1.000000e+000  0.000000e+000
    outer loop
      vertex  9.000000e+000 -3.700000e+001 -7.105427e-015
      vertex  1.539469e+001 -3.700000e+001  4.936968e+000
      vertex  1.411320e+001 -3.700000e+001  5.969235e+000
    endloop
  endfacet
  facet normal  -0.000000e+000 -1.000000e+000  0.000000e+000
    outer loop
      vertex  9.000000e+000 -3.700000e+001 -7.105427e-015
      vertex  1.411320e+001 -3.700000e+001  5.969235e+000
      vertex  9.000000e+000 -3.700000e+001  1.400000e+001
    endloop
  endfacet
  facet normal  0.000000e+000 -1.000000e+000  0.000000e+000
    outer loop
      vertex  9.000000e+000 -3.700000e+001  1.400000e+001
      vertex  1.411320e+001 -3.700000e+001  5.969235e+000
      vertex  1.393697e+001 -3.700000e+001  7.605310e+000
    endloop
  endfacet
  facet normal  0.000000e+000 -1.000000e+000  0.000000e+000
    outer loop
      vertex  9.000000e+000 -3.700000e+001  1.400000e+001
      vertex  1.393697e+001 -3.700000e+001  7.605310e+000
      vertex  1.496924e+001 -3.700000e+001  8.886803e+000
    endloop
  endfacet
  facet normal  0.000000e+000 -1.000000e+000  0.000000e+000
    outer loop
      vertex  9.000000e+000 -3.700000e+001  1.400000e+001
      vertex  1.496924e+001 -3.700000e+001  8.886803e+000
      vertex  1.600000e+001 -3.700000e+001  1.400000e+001
    endloop
  endfacet
  facet normal  0.000000e+000 -9.999999e-001  -0.000000e+000
    outer loop
      vertex  1.600000e+001 -3.700000e+001  1.400000e+001
      vertex  1.496924e+001 -3.700000e+001  8.886803e+000
      vertex  1.660531e+001 -3.700000e+001  9.063032e+000
    endloop
  endfacet
  facet normal  0.000000e+000 -1.000000e+000  0.000000e+000
    outer loop
      vertex  1.600000e+001 -3.700000e+001  1.400000e+001
      vertex  1.660531e+001 -3.700000e+001  9.063032e+000
      vertex  1.850000e+001 -3.700000e+001  1.333013e+001
    endloop
  endfacet
  facet normal  0.000000e+000 -1.000000e+000  0.000000e+000
    outer loop
      vertex  1.850000e+001 -3.700000e+001  1.333013e+001
      vertex  1.660531e+001 -3.700000e+001  9.063032e+000
      vertex  1.788680e+001 -3.700000e+001  8.030765e+000
    endloop
  endfacet
  facet normal  0.000000e+000 -1.000000e+000  0.000000e+000
    outer loop
      vertex  1.850000e+001 -3.700000e+001  1.333013e+001
      vertex  1.788680e+001 -3.700000e+001  8.030765e+000
      vertex  2.100000e+001 -3.700000e+001  9.000000e+000
    endloop
  endfacet
  facet normal  0.000000e+000 -1.000000e+000  0.000000e+000
    outer loop
      vertex  2.100000e+001 -3.700000e+001  9.000000e+000
      vertex  1.788680e+001 -3.700000e+001  8.030765e+000
      vertex  1.806303e+001 -3.700000e+001  6.394690e+000
    endloop
  endfacet
  facet normal  0.000000e+000 -1.000000e+000  0.000000e+000
    outer loop
      vertex  2.100000e+001 -3.700000e+001  9.000000e+000
      vertex  1.806303e+001 -3.700000e+001  6.394690e+000
      vertex  2.100000e+001 -3.700000e+001  5.000000e+000
    endloop
  endfacet
  facet normal  0.000000e+000 -1.000000e+000  0.000000e+000
    outer loop
      vertex  2.033013e+001 -3.700000e+001  2.500000e+000
      vertex  2.100000e+001 -3.700000e+001  5.000000e+000
      vertex  1.850000e+001 -3.700000e+001  6.698730e-001
    endloop
  endfacet
  facet normal  0.000000e+000 -1.000000e+000  0.000000e+000
    outer loop
      vertex  1.850000e+001 -3.700000e+001  6.698730e-001
      vertex  2.100000e+001 -3.700000e+001  5.000000e+000
      vertex  1.806303e+001 -3.700000e+001  6.394690e+000
    endloop
  endfacet
  facet normal  0.000000e+000 -1.000000e+000  -0.000000e+000
    outer loop
      vertex  1.850000e+001 -3.700000e+001  6.698730e-001
      vertex  1.806303e+001 -3.700000e+001  6.394690e+000
      vertex  1.600000e+001 -3.700000e+001 -7.105427e-015
    endloop
  endfacet
  facet normal  0.000000e+000 -1.000000e+000  0.000000e+000
    outer loop
      vertex  1.600000e+001 -3.700000e+001 -7.105427e-015
      vertex  1.806303e+001 -3.700000e+001  6.394690e+000
      vertex  1.703077e+001 -3.700000e+001  5.113197e+000
    endloop
  endfacet
  facet normal  0.000000e+000 -1.000000e+000  0.000000e+000
    outer loop
      vertex  1.600000e+001 -3.700000e+001 -7.105427e-015
      vertex  1.703077e+001 -3.700000e+001  5.113197e+000
      vertex  1.539469e+001 -3.700000e+001  4.936968e+000
    endloop
  endfacet
  facet normal  7.777029e-001  5.227223e-002 -6.264549e-001
    outer loop
      vertex  1.443663e+001 -3.400000e+001  8.475932e+000
      vertex  1.496924e+001 -3.700000e+001  8.886803e+000
      vertex  1.393697e+001 -3.700000e+001  7.605310e+000
    endloop
  endfacet
  facet normal  4.791309e-001 -3.505455e-002 -8.770431e-001
    outer loop
      vertex  1.496924e+001 -3.700000e+001  8.886803e+000
      vertex  1.443663e+001 -3.400000e+001  8.475932e+000
      vertex  1.560274e+001 -3.400000e+001  9.112980e+000
    endloop
  endfacet
  facet normal  1.069489e-001  5.227218e-002 -9.928895e-001
    outer loop
      vertex  1.560274e+001 -3.400000e+001  9.112980e+000
      vertex  1.660531e+001 -3.700000e+001  9.063032e+000
      vertex  1.496924e+001 -3.700000e+001  8.886803e+000
    endloop
  endfacet
  facet normal  9.033824e-001 -2.624398e-002 -4.280321e-001
    outer loop
      vertex  1.443663e+001 -3.400000e+001  8.475932e+000
      vertex  1.393697e+001 -3.700000e+001  7.605310e+000
      vertex  1.386768e+001 -3.400000e+001  7.275128e+000
    endloop
  endfacet
  facet normal  9.936490e-001  3.473020e-002  1.070307e-001
    outer loop
      vertex  1.386768e+001 -3.400000e+001  7.275128e+000
      vertex  1.393697e+001 -3.700000e+001  7.605310e+000
      vertex  1.411320e+001 -3.700000e+001  5.969235e+000
    endloop
  endfacet
  facet normal  9.827814e-001  -0.000000e+000  1.847724e-001
    outer loop
      vertex  1.386768e+001 -3.400000e+001  7.275128e+000
      vertex  1.411320e+001 -3.700000e+001  5.969235e+000
      vertex  1.411320e+001 -3.400000e+001  5.969235e+000
    endloop
  endfacet
  facet normal -1.279229e-001 -2.624397e-002 -9.914369e-001
    outer loop
      vertex  1.560274e+001 -3.400000e+001  9.112980e+000
      vertex  1.692059e+001 -3.400000e+001  8.942941e+000
      vertex  1.660531e+001 -3.700000e+001  9.063032e+000
    endloop
  endfacet
  facet normal -6.858453e-001  4.299592e-002 -7.264761e-001
    outer loop
      vertex  1.660531e+001 -3.700000e+001  9.063032e+000
      vertex  1.692059e+001 -3.400000e+001  8.942941e+000
      vertex  1.788680e+001 -3.400000e+001  8.030765e+000
    endloop
  endfacet
  facet normal -6.273127e-001  -0.000000e+000 -7.787675e-001
    outer loop
      vertex  1.660531e+001 -3.700000e+001  9.063032e+000
      vertex  1.788680e+001 -3.400000e+001  8.030765e+000
      vertex  1.788680e+001 -3.700000e+001  8.030765e+000
    endloop
  endfacet
  facet normal -7.777032e-001  5.227208e-002  6.264547e-001
    outer loop
      vertex  1.756337e+001 -3.400000e+001  5.524068e+000
      vertex  1.703077e+001 -3.700000e+001  5.113197e+000
      vertex  1.806303e+001 -3.700000e+001  6.394690e+000
    endloop
  endfacet
  facet normal -4.791312e-001 -3.505462e-002  8.770431e-001
    outer loop
      vertex  1.639726e+001 -3.400000e+001  4.887020e+000
      vertex  1.703077e+001 -3.700000e+001  5.113197e+000
      vertex  1.756337e+001 -3.400000e+001  5.524068e+000
    endloop
  endfacet
  facet normal -1.069485e-001  5.227226e-002  9.928896e-001
    outer loop
      vertex  1.539469e+001 -3.700000e+001  4.936968e+000
      vertex  1.703077e+001 -3.700000e+001  5.113197e+000
      vertex  1.639726e+001 -3.400000e+001  4.887020e+000
    endloop
  endfacet
  facet normal -9.033822e-001 -2.624377e-002  4.280327e-001
    outer loop
      vertex  1.756337e+001 -3.400000e+001  5.524068e+000
      vertex  1.806303e+001 -3.700000e+001  6.394690e+000
      vertex  1.813232e+001 -3.400000e+001  6.724872e+000
    endloop
  endfacet
  facet normal -9.936489e-001  3.473052e-002 -1.070307e-001
    outer loop
      vertex  1.813232e+001 -3.400000e+001  6.724872e+000
      vertex  1.806303e+001 -3.700000e+001  6.394690e+000
      vertex  1.788680e+001 -3.700000e+001  8.030765e+000
    endloop
  endfacet
  facet normal -9.827812e-001  0.000000e+000 -1.847732e-001
    outer loop
      vertex  1.813232e+001 -3.400000e+001  6.724872e+000
      vertex  1.788680e+001 -3.700000e+001  8.030765e+000
      vertex  1.788680e+001 -3.400000e+001  8.030765e+000
    endloop
  endfacet
  facet normal  1.279226e-001 -2.624373e-002  9.914369e-001
    outer loop
      vertex  1.639726e+001 -3.400000e+001  4.887020e+000
      vertex  1.507941e+001 -3.400000e+001  5.057059e+000
      vertex  1.539469e+001 -3.700000e+001  4.936968e+000
    endloop
  endfacet
  facet normal  6.858450e-001  4.299589e-002  7.264764e-001
    outer loop
      vertex  1.539469e+001 -3.700000e+001  4.936968e+000
      vertex  1.507941e+001 -3.400000e+001  5.057059e+000
      vertex  1.411320e+001 -3.400000e+001  5.969235e+000
    endloop
  endfacet
  facet normal  6.273124e-001  0.000000e+000  7.787677e-001
    outer loop
      vertex  1.539469e+001 -3.700000e+001  4.936968e+000
      vertex  1.411320e+001 -3.400000e+001  5.969235e+000
      vertex  1.411320e+001 -3.700000e+001  5.969235e+000
    endloop
  endfacet
  facet normal  9.659259e-001  0.000000e+000 -2.588188e-001
    outer loop
      vertex  2.100000e+001 -3.400000e+001  5.000000e+000
      vertex  2.100000e+001 -3.700000e+001  5.000000e+000
      vertex  2.033013e+001 -3.400000e+001  2.500000e+000
    endloop
  endfacet
  facet normal  9.659259e-001  0.000000e+000 -2.588188e-001
    outer loop
      vertex  2.033013e+001 -3.400000e+001  2.500000e+000
      vertex  2.100000e+001 -3.700000e+001  5.000000e+000
      vertex  2.033013e+001 -3.700000e+001  2.500000e+000
    endloop
  endfacet
  facet normal  7.071066e-001  0.000000e+000 -7.071069e-001
    outer loop
      vertex  2.033013e+001 -3.400000e+001  2.500000e+000
      vertex  2.033013e+001 -3.700000e+001  2.500000e+000
      vertex  1.850000e+001 -3.400000e+001  6.698730e-001
    endloop
  endfacet
  facet normal  7.071066e-001  0.000000e+000 -7.071069e-001
    outer loop
      vertex  1.850000e+001 -3.400000e+001  6.698730e-001
      vertex  2.033013e+001 -3.700000e+001  2.500000e+000
      vertex  1.850000e+001 -3.700000e+001  6.698730e-001
    endloop
  endfacet
  facet normal  2.588190e-001  0.000000e+000 -9.659258e-001
    outer loop
      vertex  1.850000e+001 -3.400000e+001  6.698730e-001
      vertex  1.850000e+001 -3.700000e+001  6.698730e-001
      vertex  1.600000e+001 -3.400000e+001 -7.105427e-015
    endloop
  endfacet
  facet normal  2.588190e-001  0.000000e+000 -9.659258e-001
    outer loop
      vertex  1.600000e+001 -3.400000e+001 -7.105427e-015
      vertex  1.850000e+001 -3.700000e+001  6.698730e-001
      vertex  1.600000e+001 -3.700000e+001 -7.105427e-015
    endloop
  endfacet
  facet normal  1.000000e+000  0.000000e+000  0.000000e+000
    outer loop
      vertex  2.100000e+001 -3.400000e+001  5.000000e+000
      vertex  2.100000e+001 -3.400000e+001  9.000000e+000
      vertex  2.100000e+001 -3.700000e+001  5.000000e+000
    endloop
  endfacet
  facet normal  1.000000e+000  0.000000e+000  0.000000e+000
    outer loop
      vertex  2.100000e+001 -3.700000e+001  5.000000e+000
      vertex  2.100000e+001 -3.400000e+001  9.000000e+000
      vertex  2.100000e+001 -3.700000e+001  9.000000e+000
    endloop
  endfacet
  facet normal  2.588191e-001  -0.000000e+000  9.659258e-001
    outer loop
      vertex  1.600000e+001 -3.400000e+001  1.400000e+001
      vertex  1.600000e+001 -3.700000e+001  1.400000e+001
      vertex  1.850000e+001 -3.400000e+001  1.333013e+001
    endloop
  endfacet
  facet normal  2.588191e-001  0.000000e+000  9.659258e-001
    outer loop
      vertex  1.850000e+001 -3.400000e+001  1.333013e+001
      vertex  1.600000e+001 -3.700000e+001  1.400000e+001
      vertex  1.850000e+001 -3.700000e+001  1.333013e+001
    endloop
  endfacet
  facet normal  7.071066e-001  -0.000000e+000  7.071069e-001
    outer loop
      vertex  1.850000e+001 -3.400000e+001  1.333013e+001
      vertex  1.850000e+001 -3.700000e+001  1.333013e+001
      vertex  2.033013e+001 -3.400000e+001  1.150000e+001
    endloop
  endfacet
  facet normal  7.071066e-001  0.000000e+000  7.071069e-001
    outer loop
      vertex  2.033013e+001 -3.400000e+001  1.150000e+001
      vertex  1.850000e+001 -3.700000e+001  1.333013e+001
      vertex  2.033013e+001 -3.700000e+001  1.150000e+001
    endloop
  endfacet
  facet normal  9.659259e-001  -0.000000e+000  2.588188e-001
    outer loop
      vertex  2.033013e+001 -3.400000e+001  1.150000e+001
      vertex  2.033013e+001 -3.700000e+001  1.150000e+001
      vertex  2.100000e+001 -3.400000e+001  9.000000e+000
    endloop
  endfacet
  facet normal  9.659259e-001  0.000000e+000  2.588188e-001
    outer loop
      vertex  2.100000e+001 -3.400000e+001  9.000000e+000
      vertex  2.033013e+001 -3.700000e+001  1.150000e+001
      vertex  2.100000e+001 -3.700000e+001  9.000000e+000
    endloop
  endfacet
  facet normal  0.000000e+000  0.000000e+000  1.000000e+000
    outer loop
      vertex  9.000000e+000 -3.700000e+001  1.400000e+001
      vertex  1.600000e+001 -3.700000e+001  1.400000e+001
      vertex  9.000000e+000 -3.400000e+001  1.400000e+001
    endloop
  endfacet
  facet normal  -0.000000e+000  0.000000e+000  1.000000e+000
    outer loop
      vertex  9.000000e+000 -3.400000e+001  1.400000e+001
      vertex  1.600000e+001 -3.700000e+001  1.400000e+001
      vertex  1.600000e+001 -3.400000e+001  1.400000e+001
    endloop
  endfacet
  facet normal  0.000000e+000  0.000000e+000  1.000000e+000
    outer loop
      vertex  0.000000e+000 -5.000000e+000  1.400000e+001
      vertex  0.000000e+000 -2.800000e+001  1.400000e+001
      vertex  3.000000e+000 -5.000000e+000  1.400000e+001
    endloop
  endfacet
  facet normal  0.000000e+000  0.000000e+000  1.000000e+000
    outer loop
      vertex  3.000000e+000 -5.000000e+000  1.400000e+001
      vertex  0.000000e+000 -2.800000e+001  1.400000e+001
      vertex  3.000000e+000 -2.800000e+001  1.400000e+001
    endloop
  endfacet
  facet normal  0.000000e+000  2.588191e-001  9.659258e-001
    outer loop
      vertex  0.000000e+000 -5.000000e+000  1.400000e+001
      vertex  3.000000e+000 -5.000000e+000  1.400000e+001
      vertex  0.000000e+000 -2.500000e+000  1.333013e+001
    endloop
  endfacet
  facet normal  -0.000000e+000  2.588191e-001  9.659258e-001
    outer loop
      vertex  0.000000e+000 -2.500000e+000  1.333013e+001
      vertex  3.000000e+000 -5.000000e+000  1.400000e+001
      vertex  3.000000e+000 -2.500000e+000  1.333013e+001
    endloop
  endfacet
  facet normal  0.000000e+000  7.071067e-001  7.071068e-001
    outer loop
      vertex  0.000000e+000 -2.500000e+000  1.333013e+001
      vertex  3.000000e+000 -2.500000e+000  1.333013e+001
      vertex  0.000000e+000 -6.698730e-001  1.150000e+001
    endloop
  endfacet
  facet normal  -0.000000e+000  7.071067e-001  7.071068e-001
    outer loop
      vertex  0.000000e+000 -6.698730e-001  1.150000e+001
      vertex  3.000000e+000 -2.500000e+000  1.333013e+001
      vertex  3.000000e+000 -6.698730e-001  1.150000e+001
    endloop
  endfacet
  facet normal  0.000000e+000  9.659258e-001  2.588190e-001
    outer loop
      vertex  0.000000e+000 -6.698730e-001  1.150000e+001
      vertex  3.000000e+000 -6.698730e-001  1.150000e+001
      vertex  0.000000e+000  0.000000e+000  9.000000e+000
    endloop
  endfacet
  facet normal  -0.000000e+000  9.659258e-001  2.588190e-001
    outer loop
      vertex  0.000000e+000  0.000000e+000  9.000000e+000
      vertex  3.000000e+000 -6.698730e-001  1.150000e+001
      vertex  3.000000e+000  0.000000e+000  9.000000e+000
    endloop
  endfacet
  facet normal  0.000000e+000  1.000000e+000  0.000000e+000
    outer loop
      vertex  0.000000e+000  0.000000e+000  5.000000e+000
      vertex  0.000000e+000  0.000000e+000  9.000000e+000
      vertex  3.000000e+000  0.000000e+000  5.000000e+000
    endloop
  endfacet
  facet normal  0.000000e+000  1.000000e+000  -0.000000e+000
    outer loop
      vertex  3.000000e+000  0.000000e+000  5.000000e+000
      vertex  0.000000e+000  0.000000e+000  9.000000e+000
      vertex  3.000000e+000  0.000000e+000  9.000000e+000
    endloop
  endfacet
  facet normal  0.000000e+000  9.659258e-001 -2.588190e-001
    outer loop
      vertex  0.000000e+000  0.000000e+000  5.000000e+000
      vertex  3.000000e+000  0.000000e+000  5.000000e+000
      vertex  0.000000e+000 -6.698730e-001  2.500000e+000
    endloop
  endfacet
  facet normal  0.000000e+000  9.659258e-001 -2.588190e-001
    outer loop
      vertex  0.000000e+000 -6.698730e-001  2.500000e+000
      vertex  3.000000e+000  0.000000e+000  5.000000e+000
      vertex  3.000000e+000 -6.698730e-001  2.500000e+000
    endloop
  endfacet
  facet normal  0.000000e+000  7.071068e-001 -7.071068e-001
    outer loop
      vertex  0.000000e+000 -6.698730e-001  2.500000e+000
      vertex  3.000000e+000 -6.698730e-001  2.500000e+000
      vertex  0.000000e+000 -2.500000e+000  6.698730e-001
    endloop
  endfacet
  facet normal  0.000000e+000  7.071068e-001 -7.071068e-001
    outer loop
      vertex  0.000000e+000 -2.500000e+000  6.698730e-001
      vertex  3.000000e+000 -6.698730e-001  2.500000e+000
      vertex  3.000000e+000 -2.500000e+000  6.698730e-001
    endloop
  endfacet
  facet normal  0.000000e+000  2.588190e-001 -9.659258e-001
    outer loop
      vertex  0.000000e+000 -2.500000e+000  6.698730e-001
      vertex  3.000000e+000 -2.500000e+000  6.698730e-001
      vertex  0.000000e+000 -5.000000e+000 -3.552714e-015
    endloop
  endfacet
  facet normal  1.143886e-015  2.588190e-001 -9.659258e-001
    outer loop
      vertex  0.000000e+000 -5.000000e+000 -3.552714e-015
      vertex  3.000000e+000 -2.500000e+000  6.698730e-001
      vertex  3.000000e+000 -5.000000e+000  0.000000e+000
    endloop
  endfacet
  facet normal  0.000000e+000 -1.544658e-016 -1.000000e+000
    outer loop
      vertex  0.000000e+000 -2.800000e+001  0.000000e+000
      vertex  0.000000e+000 -5.000000e+000 -3.552714e-015
      vertex  3.000000e+000 -2.800000e+001  0.000000e+000
    endloop
  endfacet
  facet normal  1.184238e-015  0.000000e+000 -1.000000e+000
    outer loop
      vertex  3.000000e+000 -2.800000e+001  0.000000e+000
      vertex  0.000000e+000 -5.000000e+000 -3.552714e-015
      vertex  3.000000e+000 -5.000000e+000  0.000000e+000
    endloop
  endfacet
  facet normal  0.000000e+000  2.368476e-015 -1.000000e+000
    outer loop
      vertex  9.000000e+000 -3.700000e+001 -7.105427e-015
      vertex  9.000000e+000 -3.400000e+001  0.000000e+000
      vertex  1.600000e+001 -3.700000e+001 -7.105427e-015
    endloop
  endfacet
  facet normal -1.015061e-015  0.000000e+000 -1.000000e+000
    outer loop
      vertex  1.600000e+001 -3.700000e+001 -7.105427e-015
      vertex  9.000000e+000 -3.400000e+001  0.000000e+000
      vertex  1.600000e+001 -3.400000e+001 -7.105427e-015
    endloop
  endfacet
  facet normal  5.031129e-016  7.529617e-016 -1.000000e+000
    outer loop
      vertex  4.757360e+000 -3.224264e+001  0.000000e+000
      vertex  6.703899e+000 -3.354328e+001  0.000000e+000
      vertex  5.555849e+000 -3.631491e+001 -2.664535e-015
    endloop
  endfacet
  facet normal  1.766696e-016  8.881791e-016 -1.000000e+000
    outer loop
      vertex  5.555849e+000 -3.631491e+001 -2.664535e-015
      vertex  6.703899e+000 -3.354328e+001  0.000000e+000
      vertex  9.000000e+000 -3.400000e+001  0.000000e+000
    endloop
  endfacet
  facet normal -8.182813e-016  2.368476e-015 -1.000000e+000
    outer loop
      vertex  5.555849e+000 -3.631491e+001 -2.664535e-015
      vertex  9.000000e+000 -3.400000e+001  0.000000e+000
      vertex  9.000000e+000 -3.700000e+001 -7.105427e-015
    endloop
  endfacet
  facet normal  1.634854e-015  3.251925e-016 -1.000000e+000
    outer loop
      vertex  3.000000e+000 -2.800000e+001  0.000000e+000
      vertex  3.456723e+000 -3.029610e+001  0.000000e+000
      vertex  2.636039e+000 -3.436396e+001 -2.664535e-015
    endloop
  endfacet
  facet normal  7.529615e-016  5.031127e-016 -1.000000e+000
    outer loop
      vertex  2.636039e+000 -3.436396e+001 -2.664535e-015
      vertex  3.456723e+000 -3.029610e+001  0.000000e+000
      vertex  4.757360e+000 -3.224264e+001  0.000000e+000
    endloop
  endfacet
  facet normal  5.031128e-016  7.529616e-016 -1.000000e+000
    outer loop
      vertex  2.636039e+000 -3.436396e+001 -2.664535e-015
      vertex  4.757360e+000 -3.224264e+001  0.000000e+000
      vertex  5.555849e+000 -3.631491e+001 -2.664535e-015
    endloop
  endfacet
  facet normal  0.000000e+000  7.736407e-016 -1.000000e+000
    outer loop
      vertex  0.000000e+000 -2.800000e+001  0.000000e+000
      vertex  3.000000e+000 -2.800000e+001  0.000000e+000
      vertex  6.850842e-001 -3.144415e+001 -2.664535e-015
    endloop
  endfacet
  facet normal  5.772110e-016  3.856801e-016 -1.000000e+000
    outer loop
      vertex  6.850842e-001 -3.144415e+001 -2.664535e-015
      vertex  3.000000e+000 -2.800000e+001  0.000000e+000
      vertex  2.636039e+000 -3.436396e+001 -2.664535e-015
    endloop
  endfacet
  facet normal  0.000000e+000  0.000000e+000  1.000000e+000
    outer loop
      vertex  9.000000e+000 -3.700000e+001  1.400000e+001
      vertex  9.000000e+000 -3.400000e+001  1.400000e+001
      vertex  5.555849e+000 -3.631491e+001  1.400000e+001
    endloop
  endfacet
  facet normal  0.000000e+000  0.000000e+000  1.000000e+000
    outer loop
      vertex  5.555849e+000 -3.631491e+001  1.400000e+001
      vertex  9.000000e+000 -3.400000e+001  1.400000e+001
      vertex  6.703899e+000 -3.354328e+001  1.400000e+001
    endloop
  endfacet
  facet normal  0.000000e+000  0.000000e+000  1.000000e+000
    outer loop
      vertex  5.555849e+000 -3.631491e+001  1.400000e+001
      vertex  6.703899e+000 -3.354328e+001  1.400000e+001
      vertex  4.757360e+000 -3.224264e+001  1.400000e+001
    endloop
  endfacet
  facet normal  0.000000e+000  0.000000e+000  1.000000e+000
    outer loop
      vertex  5.555849e+000 -3.631491e+001  1.400000e+001
      vertex  4.757360e+000 -3.224264e+001  1.400000e+001
      vertex  2.636039e+000 -3.436396e+001  1.400000e+001
    endloop
  endfacet
  facet normal  0.000000e+000  0.000000e+000  1.000000e+000
    outer loop
      vertex  2.636039e+000 -3.436396e+001  1.400000e+001
      vertex  4.757360e+000 -3.224264e+001  1.400000e+001
      vertex  3.456723e+000 -3.029610e+001  1.400000e+001
    endloop
  endfacet
  facet normal  0.000000e+000  0.000000e+000  1.000000e+000
    outer loop
      vertex  2.636039e+000 -3.436396e+001  1.400000e+001
      vertex  3.456723e+000 -3.029610e+001  1.400000e+001
      vertex  3.000000e+000 -2.800000e+001  1.400000e+001
    endloop
  endfacet
  facet normal  0.000000e+000  -0.000000e+000  1.000000e+000
    outer loop
      vertex  0.000000e+000 -2.800000e+001  1.400000e+001
      vertex  6.850842e-001 -3.144415e+001  1.400000e+001
      vertex  3.000000e+000 -2.800000e+001  1.400000e+001
    endloop
  endfacet
  facet normal  0.000000e+000  0.000000e+000  1.000000e+000
    outer loop
      vertex  3.000000e+000 -2.800000e+001  1.400000e+001
      vertex  6.850842e-001 -3.144415e+001  1.400000e+001
      vertex  2.636039e+000 -3.436396e+001  1.400000e+001
    endloop
  endfacet
  facet normal -9.807853e-001 -1.950903e-001  0.000000e+000
    outer loop
      vertex  0.000000e+000 -2.800000e+001  1.400000e+001
      vertex  0.000000e+000 -2.800000e+001  0.000000e+000
      vertex  6.850842e-001 -3.144415e+001  1.400000e+001
    endloop
  endfacet
  facet normal -9.807853e-001 -1.950903e-001  -0.000000e+000
    outer loop
      vertex  6.850842e-001 -3.144415e+001  1.400000e+001
      vertex  0.000000e+000 -2.800000e+001  0.000000e+000
      vertex  6.850842e-001 -3.144415e+001 -2.664535e-015
    endloop
  endfacet
  facet normal -8.314695e-001 -5.555703e-001  0.000000e+000
    outer loop
      vertex  6.850842e-001 -3.144415e+001  1.400000e+001
      vertex  6.850842e-001 -3.144415e+001 -2.664535e-015
      vertex  2.636039e+000 -3.436396e+001  1.400000e+001
    endloop
  endfacet
  facet normal -8.314695e-001 -5.555703e-001  -0.000000e+000
    outer loop
      vertex  2.636039e+000 -3.436396e+001  1.400000e+001
      vertex  6.850842e-001 -3.144415e+001 -2.664535e-015
      vertex  2.636039e+000 -3.436396e+001 -2.664535e-015
    endloop
  endfacet
  facet normal -5.555702e-001 -8.314697e-001  0.000000e+000
    outer loop
      vertex  2.636039e+000 -3.436396e+001  1.400000e+001
      vertex  2.636039e+000 -3.436396e+001 -2.664535e-015
      vertex  5.555849e+000 -3.631491e+001  1.400000e+001
    endloop
  endfacet
  facet normal -5.555702e-001 -8.314697e-001  -0.000000e+000
    outer loop
      vertex  5.555849e+000 -3.631491e+001  1.400000e+001
      vertex  2.636039e+000 -3.436396e+001 -2.664535e-015
      vertex  5.555849e+000 -3.631491e+001 -2.664535e-015
    endloop
  endfacet
  facet normal -1.950906e-001 -9.807852e-001  0.000000e+000
    outer loop
      vertex  5.555849e+000 -3.631491e+001  1.400000e+001
      vertex  5.555849e+000 -3.631491e+001 -2.664535e-015
      vertex  9.000000e+000 -3.700000e+001  1.400000e+001
    endloop
  endfacet
  facet normal -1.950906e-001 -9.807852e-001  -0.000000e+000
    outer loop
      vertex  9.000000e+000 -3.700000e+001  1.400000e+001
      vertex  5.555849e+000 -3.631491e+001 -2.664535e-015
      vertex  9.000000e+000 -3.700000e+001 -7.105427e-015
    endloop
  endfacet
  facet normal  8.314697e-001  5.555702e-001  -0.000000e+000
    outer loop
      vertex  4.757360e+000 -3.224264e+001  1.400000e+001
      vertex  3.456723e+000 -3.029610e+001  0.000000e+000
      vertex  3.456723e+000 -3.029610e+001  1.400000e+001
    endloop
  endfacet
  facet normal  9.807853e-001  1.950903e-001  0.000000e+000
    outer loop
      vertex  3.456723e+000 -3.029610e+001  1.400000e+001
      vertex  3.456723e+000 -3.029610e+001  0.000000e+000
      vertex  3.000000e+000 -2.800000e+001  0.000000e+000
    endloop
  endfacet
  facet normal  9.807853e-001  1.950903e-001  -0.000000e+000
    outer loop
      vertex  3.456723e+000 -3.029610e+001  1.400000e+001
      vertex  3.000000e+000 -2.800000e+001  0.000000e+000
      vertex  3.000000e+000 -2.800000e+001  1.400000e+001
    endloop
  endfacet
  facet normal  8.314697e-001  5.555702e-001  0.000000e+000
    outer loop
      vertex  3.456723e+000 -3.029610e+001  0.000000e+000
      vertex  4.757360e+000 -3.224264e+001  1.400000e+001
      vertex  4.757360e+000 -3.224264e+001  0.000000e+000
    endloop
  endfacet
  facet normal  5.555702e-001  8.314697e-001  -0.000000e+000
    outer loop
      vertex  4.757360e+000 -3.224264e+001  0.000000e+000
      vertex  4.757360e+000 -3.224264e+001  1.400000e+001
      vertex  6.703899e+000 -3.354328e+001  1.400000e+001
    endloop
  endfacet
  facet normal  5.555702e-001  8.314697e-001  0.000000e+000
    outer loop
      vertex  4.757360e+000 -3.224264e+001  0.000000e+000
      vertex  6.703899e+000 -3.354328e+001  1.400000e+001
      vertex  6.703899e+000 -3.354328e+001  0.000000e+000
    endloop
  endfacet
  facet normal  1.950901e-001  9.807853e-001  -0.000000e+000
    outer loop
      vertex  6.703899e+000 -3.354328e+001  0.000000e+000
      vertex  6.703899e+000 -3.354328e+001  1.400000e+001
      vertex  9.000000e+000 -3.400000e+001  1.400000e+001
    endloop
  endfacet
  facet normal  1.950901e-001  9.807853e-001  0.000000e+000
    outer loop
      vertex  6.703899e+000 -3.354328e+001  0.000000e+000
      vertex  9.000000e+000 -3.400000e+001  1.400000e+001
      vertex  9.000000e+000 -3.400000e+001  0.000000e+000
    endloop
  endfacet
endsolid CATIA STL
