solid CATIA STL
  facet normal  1.000000e+000  0.000000e+000  0.000000e+000
    outer loop
      vertex  2.000000e+000 -1.800000e+001 -3.000000e+000
      vertex  2.000000e+000 -1.303076e+001 -1.886803e+000
      vertex  2.000000e+000 -1.406303e+001 -6.053100e-001
    endloop
  endfacet
  facet normal  1.000000e+000  0.000000e+000  -0.000000e+000
    outer loop
      vertex  2.000000e+000 -1.800000e+001 -3.000000e+000
      vertex  2.000000e+000 -1.733013e+001 -5.500000e+000
      vertex  2.000000e+000 -1.303076e+001 -1.886803e+000
    endloop
  endfacet
  facet normal  1.000000e+000  0.000000e+000  0.000000e+000
    outer loop
      vertex  2.000000e+000 -1.303076e+001 -1.886803e+000
      vertex  2.000000e+000 -1.733013e+001 -5.500000e+000
      vertex  2.000000e+000 -1.550000e+001 -7.330127e+000
    endloop
  endfacet
  facet normal  9.999999e-001  -0.000000e+000  0.000000e+000
    outer loop
      vertex  2.000000e+000 -1.303076e+001 -1.886803e+000
      vertex  2.000000e+000 -1.550000e+001 -7.330127e+000
      vertex  2.000000e+000 -1.300000e+001 -8.000000e+000
    endloop
  endfacet
  facet normal  1.000000e+000  0.000000e+000  -0.000000e+000
    outer loop
      vertex  2.000000e+000 -1.303076e+001 -1.886803e+000
      vertex  2.000000e+000 -1.300000e+001 -8.000000e+000
      vertex  2.000000e+000 -1.139469e+001 -2.063032e+000
    endloop
  endfacet
  facet normal  1.000000e+000  0.000000e+000  0.000000e+000
    outer loop
      vertex  2.000000e+000 -1.139469e+001 -2.063032e+000
      vertex  2.000000e+000 -1.300000e+001 -8.000000e+000
      vertex  2.000000e+000 -6.500000e+000 -8.000000e+000
    endloop
  endfacet
  facet normal  1.000000e+000  0.000000e+000  0.000000e+000
    outer loop
      vertex  2.000000e+000 -1.139469e+001 -2.063032e+000
      vertex  2.000000e+000 -6.500000e+000 -8.000000e+000
      vertex  2.000000e+000 -1.011320e+001 -1.030765e+000
    endloop
  endfacet
  facet normal  1.000000e+000  0.000000e+000  0.000000e+000
    outer loop
      vertex  2.000000e+000 -1.096924e+001  1.886803e+000
      vertex  2.000000e+000 -6.500000e+000  8.000000e+000
      vertex  2.000000e+000 -1.260531e+001  2.063032e+000
    endloop
  endfacet
  facet normal  1.000000e+000  0.000000e+000  -0.000000e+000
    outer loop
      vertex  2.000000e+000 -1.260531e+001  2.063032e+000
      vertex  2.000000e+000 -6.500000e+000  8.000000e+000
      vertex  2.000000e+000 -1.300000e+001  8.000000e+000
    endloop
  endfacet
  facet normal  9.999999e-001  0.000000e+000  0.000000e+000
    outer loop
      vertex  2.000000e+000 -1.260531e+001  2.063032e+000
      vertex  2.000000e+000 -1.300000e+001  8.000000e+000
      vertex  2.000000e+000 -1.800000e+001  3.000000e+000
    endloop
  endfacet
  facet normal  1.000000e+000  0.000000e+000  0.000000e+000
    outer loop
      vertex  2.000000e+000 -1.800000e+001  3.000000e+000
      vertex  2.000000e+000 -1.300000e+001  8.000000e+000
      vertex  2.000000e+000 -1.550000e+001  7.330127e+000
    endloop
  endfacet
  facet normal  1.000000e+000  0.000000e+000  0.000000e+000
    outer loop
      vertex  2.000000e+000 -1.800000e+001  3.000000e+000
      vertex  2.000000e+000 -1.550000e+001  7.330127e+000
      vertex  2.000000e+000 -1.733013e+001  5.500000e+000
    endloop
  endfacet
  facet normal  1.000000e+000  0.000000e+000  0.000000e+000
    outer loop
      vertex  2.000000e+000 -1.800000e+001 -3.000000e+000
      vertex  2.000000e+000 -1.406303e+001 -6.053100e-001
      vertex  2.000000e+000 -1.800000e+001  3.000000e+000
    endloop
  endfacet
  facet normal  1.000000e+000  0.000000e+000  0.000000e+000
    outer loop
      vertex  2.000000e+000 -1.800000e+001  3.000000e+000
      vertex  2.000000e+000 -1.406303e+001 -6.053100e-001
      vertex  2.000000e+000 -1.388680e+001  1.030765e+000
    endloop
  endfacet
  facet normal  1.000000e+000  0.000000e+000  -0.000000e+000
    outer loop
      vertex  2.000000e+000 -1.800000e+001  3.000000e+000
      vertex  2.000000e+000 -1.388680e+001  1.030765e+000
      vertex  2.000000e+000 -1.260531e+001  2.063032e+000
    endloop
  endfacet
  facet normal  9.999999e-001  0.000000e+000  0.000000e+000
    outer loop
      vertex  2.000000e+000 -1.011320e+001 -1.030765e+000
      vertex  2.000000e+000 -6.500000e+000 -8.000000e+000
      vertex  2.000000e+000 -9.936968e+000  6.053100e-001
    endloop
  endfacet
  facet normal  1.000000e+000  -0.000000e+000  0.000000e+000
    outer loop
      vertex  2.000000e+000 -9.936968e+000  6.053100e-001
      vertex  2.000000e+000 -6.500000e+000 -8.000000e+000
      vertex  2.000000e+000 -6.500000e+000  8.000000e+000
    endloop
  endfacet
  facet normal  1.000000e+000  0.000000e+000  0.000000e+000
    outer loop
      vertex  2.000000e+000 -9.936968e+000  6.053100e-001
      vertex  2.000000e+000 -6.500000e+000  8.000000e+000
      vertex  2.000000e+000 -1.096924e+001  1.886803e+000
    endloop
  endfacet
  facet normal  0.000000e+000 -1.000000e+000  0.000000e+000
    outer loop
      vertex  1.600000e+001 -1.500000e+000  2.266199e-015
      vertex  1.152028e+001 -1.500000e+000  1.520280e+000
      vertex  1.215000e+001 -1.500000e+000  2.632904e-016
    endloop
  endfacet
  facet normal  -0.000000e+000 -1.000000e+000  0.000000e+000
    outer loop
      vertex  7.000000e+000 -1.500000e+000 -6.134649e+000
      vertex  1.339815e+001 -1.500000e+000 -3.747689e+000
      vertex  1.528577e+001 -1.500000e+000 -2.281162e+000
    endloop
  endfacet
  facet normal  -0.000000e+000 -1.000000e+000  0.000000e+000
    outer loop
      vertex  7.000000e+000 -1.500000e+000 -6.134649e+000
      vertex  1.528577e+001 -1.500000e+000 -2.281162e+000
      vertex  1.000000e+001 -1.500000e+000 -2.150000e+000
    endloop
  endfacet
  facet normal  -0.000000e+000 -1.000000e+000  0.000000e+000
    outer loop
      vertex  7.000000e+000 -1.500000e+000 -6.134649e+000
      vertex  1.000000e+001 -1.500000e+000 -2.150000e+000
      vertex  8.479720e+000 -1.500000e+000 -1.520280e+000
    endloop
  endfacet
  facet normal  -0.000000e+000 -1.000000e+000  0.000000e+000
    outer loop
      vertex  7.000000e+000 -1.500000e+000 -6.134649e+000
      vertex  8.479720e+000 -1.500000e+000 -1.520280e+000
      vertex  7.850000e+000 -1.500000e+000  0.000000e+000
    endloop
  endfacet
  facet normal  -0.000000e+000 -1.000000e+000  0.000000e+000
    outer loop
      vertex  7.000000e+000 -1.500000e+000 -6.134649e+000
      vertex  7.850000e+000 -1.500000e+000  0.000000e+000
      vertex  7.000000e+000 -1.500000e+000  6.134649e+000
    endloop
  endfacet
  facet normal  0.000000e+000 -1.000000e+000  0.000000e+000
    outer loop
      vertex  1.528577e+001 -1.500000e+000 -2.281162e+000
      vertex  1.600000e+001 -1.500000e+000  2.266199e-015
      vertex  1.215000e+001 -1.500000e+000  2.632904e-016
    endloop
  endfacet
  facet normal  0.000000e+000 -1.000000e+000  -0.000000e+000
    outer loop
      vertex  1.528577e+001 -1.500000e+000 -2.281162e+000
      vertex  1.215000e+001 -1.500000e+000  2.632904e-016
      vertex  1.152028e+001 -1.500000e+000 -1.520280e+000
    endloop
  endfacet
  facet normal  0.000000e+000 -1.000000e+000  -0.000000e+000
    outer loop
      vertex  1.528577e+001 -1.500000e+000 -2.281162e+000
      vertex  1.152028e+001 -1.500000e+000 -1.520280e+000
      vertex  1.000000e+001 -1.500000e+000 -2.150000e+000
    endloop
  endfacet
  facet normal  -0.000000e+000 -1.000000e+000  0.000000e+000
    outer loop
      vertex  7.850000e+000 -1.500000e+000  0.000000e+000
      vertex  8.479720e+000 -1.500000e+000  1.520280e+000
      vertex  7.000000e+000 -1.500000e+000  6.134649e+000
    endloop
  endfacet
  facet normal  0.000000e+000 -9.999999e-001  0.000000e+000
    outer loop
      vertex  7.000000e+000 -1.500000e+000  6.134649e+000
      vertex  8.479720e+000 -1.500000e+000  1.520280e+000
      vertex  1.000000e+001 -1.500000e+000  2.150000e+000
    endloop
  endfacet
  facet normal  0.000000e+000 -1.000000e+000  0.000000e+000
    outer loop
      vertex  7.000000e+000 -1.500000e+000  6.134649e+000
      vertex  1.000000e+001 -1.500000e+000  2.150000e+000
      vertex  1.339815e+001 -1.500000e+000  3.747689e+000
    endloop
  endfacet
  facet normal  0.000000e+000 -1.000000e+000  0.000000e+000
    outer loop
      vertex  1.339815e+001 -1.500000e+000  3.747689e+000
      vertex  1.000000e+001 -1.500000e+000  2.150000e+000
      vertex  1.528577e+001 -1.500000e+000  2.281162e+000
    endloop
  endfacet
  facet normal  0.000000e+000 -1.000000e+000  0.000000e+000
    outer loop
      vertex  1.528577e+001 -1.500000e+000  2.281162e+000
      vertex  1.000000e+001 -1.500000e+000  2.150000e+000
      vertex  1.152028e+001 -1.500000e+000  1.520280e+000
    endloop
  endfacet
  facet normal  0.000000e+000 -1.000000e+000  0.000000e+000
    outer loop
      vertex  1.528577e+001 -1.500000e+000  2.281162e+000
      vertex  1.152028e+001 -1.500000e+000  1.520280e+000
      vertex  1.600000e+001 -1.500000e+000  2.266199e-015
    endloop
  endfacet
  facet normal  3.495342e-001  0.000000e+000 -9.369236e-001
    outer loop
      vertex  2.052449e+000 -5.777684e+000 -7.980433e+000
      vertex  2.000000e+000 -6.500000e+000 -8.000000e+000
      vertex  2.000000e+000 -1.500000e+000 -8.000000e+000
    endloop
  endfacet
  facet normal  3.495342e-001  0.000000e+000 -9.369236e-001
    outer loop
      vertex  2.052449e+000 -5.777684e+000 -7.980433e+000
      vertex  2.000000e+000 -1.500000e+000 -8.000000e+000
      vertex  2.000000e+000  1.500000e+000 -8.000000e+000
    endloop
  endfacet
  facet normal  3.495342e-001  0.000000e+000 -9.369236e-001
    outer loop
      vertex  2.052449e+000 -5.777684e+000 -7.980433e+000
      vertex  2.000000e+000  1.500000e+000 -8.000000e+000
      vertex  2.000000e+000  6.500000e+000 -8.000000e+000
    endloop
  endfacet
  facet normal  3.495342e-001  0.000000e+000 -9.369237e-001
    outer loop
      vertex  2.052449e+000 -5.777684e+000 -7.980433e+000
      vertex  2.000000e+000  6.500000e+000 -8.000000e+000
      vertex  2.052449e+000  5.777684e+000 -7.980433e+000
    endloop
  endfacet
  facet normal  3.495380e-001  0.000000e+000 -9.369222e-001
    outer loop
      vertex  2.052449e+000 -5.777684e+000 -7.980433e+000
      vertex  2.052449e+000  5.777684e+000 -7.980433e+000
      vertex  2.933243e+000  3.591137e+000 -7.651835e+000
    endloop
  endfacet
  facet normal  3.495381e-001  0.000000e+000 -9.369223e-001
    outer loop
      vertex  2.052449e+000 -5.777684e+000 -7.980433e+000
      vertex  2.933243e+000  3.591137e+000 -7.651835e+000
      vertex  2.933243e+000 -3.591137e+000 -7.651835e+000
    endloop
  endfacet
  facet normal  3.495378e-001  0.000000e+000 -9.369223e-001
    outer loop
      vertex  7.000000e+000 -1.500000e+000 -6.134649e+000
      vertex  1.339815e+001  1.500000e+000 -3.747689e+000
      vertex  1.339815e+001 -1.500000e+000 -3.747689e+000
    endloop
  endfacet
  facet normal  3.495378e-001  0.000000e+000 -9.369223e-001
    outer loop
      vertex  1.339815e+001  1.500000e+000 -3.747689e+000
      vertex  7.000000e+000 -1.500000e+000 -6.134649e+000
      vertex  7.000000e+000  1.500000e+000 -6.134649e+000
    endloop
  endfacet
  facet normal  3.495378e-001  0.000000e+000 -9.369223e-001
    outer loop
      vertex  7.000000e+000  1.500000e+000 -6.134649e+000
      vertex  7.000000e+000 -1.500000e+000 -6.134649e+000
      vertex  4.718184e+000 -2.051032e+000 -6.985926e+000
    endloop
  endfacet
  facet normal  3.495378e-001  0.000000e+000 -9.369223e-001
    outer loop
      vertex  7.000000e+000  1.500000e+000 -6.134649e+000
      vertex  4.718184e+000 -2.051032e+000 -6.985926e+000
      vertex  4.718184e+000  2.051032e+000 -6.985926e+000
    endloop
  endfacet
  facet normal  3.495379e-001  0.000000e+000 -9.369223e-001
    outer loop
      vertex  4.718184e+000  2.051032e+000 -6.985926e+000
      vertex  4.718184e+000 -2.051032e+000 -6.985926e+000
      vertex  2.933243e+000 -3.591137e+000 -7.651835e+000
    endloop
  endfacet
  facet normal  3.495379e-001  0.000000e+000 -9.369223e-001
    outer loop
      vertex  4.718184e+000  2.051032e+000 -6.985926e+000
      vertex  2.933243e+000 -3.591137e+000 -7.651835e+000
      vertex  2.933243e+000  3.591137e+000 -7.651835e+000
    endloop
  endfacet
  facet normal  3.495342e-001  0.000000e+000  9.369236e-001
    outer loop
      vertex  2.052449e+000  5.777684e+000  7.980433e+000
      vertex  2.000000e+000  6.500000e+000  8.000000e+000
      vertex  2.000000e+000  1.500000e+000  8.000000e+000
    endloop
  endfacet
  facet normal  3.495342e-001  0.000000e+000  9.369236e-001
    outer loop
      vertex  2.052449e+000  5.777684e+000  7.980433e+000
      vertex  2.000000e+000  1.500000e+000  8.000000e+000
      vertex  2.000000e+000 -1.500000e+000  8.000000e+000
    endloop
  endfacet
  facet normal  3.495342e-001  0.000000e+000  9.369236e-001
    outer loop
      vertex  2.052449e+000  5.777684e+000  7.980433e+000
      vertex  2.000000e+000 -1.500000e+000  8.000000e+000
      vertex  2.000000e+000 -6.500000e+000  8.000000e+000
    endloop
  endfacet
  facet normal  3.495342e-001  0.000000e+000  9.369237e-001
    outer loop
      vertex  2.052449e+000  5.777684e+000  7.980433e+000
      vertex  2.000000e+000 -6.500000e+000  8.000000e+000
      vertex  2.052449e+000 -5.777684e+000  7.980433e+000
    endloop
  endfacet
  facet normal  3.495380e-001  -0.000000e+000  9.369222e-001
    outer loop
      vertex  2.052449e+000  5.777684e+000  7.980433e+000
      vertex  2.052449e+000 -5.777684e+000  7.980433e+000
      vertex  2.933243e+000 -3.591137e+000  7.651835e+000
    endloop
  endfacet
  facet normal  3.495381e-001  -0.000000e+000  9.369223e-001
    outer loop
      vertex  2.052449e+000  5.777684e+000  7.980433e+000
      vertex  2.933243e+000 -3.591137e+000  7.651835e+000
      vertex  2.933243e+000  3.591137e+000  7.651835e+000
    endloop
  endfacet
  facet normal  3.495379e-001  0.000000e+000  9.369223e-001
    outer loop
      vertex  4.718184e+000 -2.051032e+000  6.985926e+000
      vertex  2.933243e+000  3.591137e+000  7.651835e+000
      vertex  2.933243e+000 -3.591137e+000  7.651835e+000
    endloop
  endfacet
  facet normal  3.495379e-001  -0.000000e+000  9.369223e-001
    outer loop
      vertex  2.933243e+000  3.591137e+000  7.651835e+000
      vertex  4.718184e+000 -2.051032e+000  6.985926e+000
      vertex  4.718184e+000  2.051032e+000  6.985926e+000
    endloop
  endfacet
  facet normal  3.495378e-001  0.000000e+000  9.369223e-001
    outer loop
      vertex  4.718184e+000  2.051032e+000  6.985926e+000
      vertex  4.718184e+000 -2.051032e+000  6.985926e+000
      vertex  7.000000e+000 -1.500000e+000  6.134649e+000
    endloop
  endfacet
  facet normal  3.495378e-001  -0.000000e+000  9.369223e-001
    outer loop
      vertex  4.718184e+000  2.051032e+000  6.985926e+000
      vertex  7.000000e+000 -1.500000e+000  6.134649e+000
      vertex  7.000000e+000  1.500000e+000  6.134649e+000
    endloop
  endfacet
  facet normal  3.495378e-001  0.000000e+000  9.369223e-001
    outer loop
      vertex  7.000000e+000  1.500000e+000  6.134649e+000
      vertex  7.000000e+000 -1.500000e+000  6.134649e+000
      vertex  1.339815e+001 -1.500000e+000  3.747689e+000
    endloop
  endfacet
  facet normal  3.495378e-001  -0.000000e+000  9.369223e-001
    outer loop
      vertex  7.000000e+000  1.500000e+000  6.134649e+000
      vertex  1.339815e+001 -1.500000e+000  3.747689e+000
      vertex  1.339815e+001  1.500000e+000  3.747689e+000
    endloop
  endfacet
  facet normal  -0.000000e+000  -0.000000e+000 -1.000000e+000
    outer loop
      vertex  0.000000e+000  1.300000e+001 -8.000000e+000
      vertex  2.000000e+000  1.300000e+001 -8.000000e+000
      vertex  2.000000e+000  6.500000e+000 -8.000000e+000
    endloop
  endfacet
  facet normal  -0.000000e+000  -0.000000e+000 -1.000000e+000
    outer loop
      vertex  0.000000e+000  1.300000e+001 -8.000000e+000
      vertex  2.000000e+000  6.500000e+000 -8.000000e+000
      vertex  2.000000e+000  1.500000e+000 -8.000000e+000
    endloop
  endfacet
  facet normal  -0.000000e+000  -0.000000e+000 -1.000000e+000
    outer loop
      vertex  0.000000e+000  1.300000e+001 -8.000000e+000
      vertex  2.000000e+000  1.500000e+000 -8.000000e+000
      vertex  2.000000e+000 -1.500000e+000 -8.000000e+000
    endloop
  endfacet
  facet normal  -0.000000e+000  -0.000000e+000 -1.000000e+000
    outer loop
      vertex  0.000000e+000  1.300000e+001 -8.000000e+000
      vertex  2.000000e+000 -1.500000e+000 -8.000000e+000
      vertex  2.000000e+000 -6.500000e+000 -8.000000e+000
    endloop
  endfacet
  facet normal  -0.000000e+000  -0.000000e+000 -1.000000e+000
    outer loop
      vertex  0.000000e+000  1.300000e+001 -8.000000e+000
      vertex  2.000000e+000 -6.500000e+000 -8.000000e+000
      vertex  2.000000e+000 -1.300000e+001 -8.000000e+000
    endloop
  endfacet
  facet normal  0.000000e+000  0.000000e+000 -1.000000e+000
    outer loop
      vertex  0.000000e+000  1.300000e+001 -8.000000e+000
      vertex  2.000000e+000 -1.300000e+001 -8.000000e+000
      vertex  0.000000e+000 -1.300000e+001 -8.000000e+000
    endloop
  endfacet
  facet normal  0.000000e+000  -0.000000e+000  1.000000e+000
    outer loop
      vertex  0.000000e+000 -1.300000e+001  8.000000e+000
      vertex  2.000000e+000 -1.300000e+001  8.000000e+000
      vertex  2.000000e+000 -6.500000e+000  8.000000e+000
    endloop
  endfacet
  facet normal  0.000000e+000  -0.000000e+000  1.000000e+000
    outer loop
      vertex  0.000000e+000 -1.300000e+001  8.000000e+000
      vertex  2.000000e+000 -6.500000e+000  8.000000e+000
      vertex  2.000000e+000 -1.500000e+000  8.000000e+000
    endloop
  endfacet
  facet normal  0.000000e+000  -0.000000e+000  1.000000e+000
    outer loop
      vertex  0.000000e+000 -1.300000e+001  8.000000e+000
      vertex  2.000000e+000 -1.500000e+000  8.000000e+000
      vertex  2.000000e+000  1.500000e+000  8.000000e+000
    endloop
  endfacet
  facet normal  0.000000e+000  -0.000000e+000  1.000000e+000
    outer loop
      vertex  0.000000e+000 -1.300000e+001  8.000000e+000
      vertex  2.000000e+000  1.500000e+000  8.000000e+000
      vertex  2.000000e+000  6.500000e+000  8.000000e+000
    endloop
  endfacet
  facet normal  0.000000e+000  -0.000000e+000  1.000000e+000
    outer loop
      vertex  0.000000e+000 -1.300000e+001  8.000000e+000
      vertex  2.000000e+000  6.500000e+000  8.000000e+000
      vertex  2.000000e+000  1.300000e+001  8.000000e+000
    endloop
  endfacet
  facet normal  0.000000e+000  0.000000e+000  1.000000e+000
    outer loop
      vertex  0.000000e+000 -1.300000e+001  8.000000e+000
      vertex  2.000000e+000  1.300000e+001  8.000000e+000
      vertex  0.000000e+000  1.300000e+001  8.000000e+000
    endloop
  endfacet
  facet normal  9.275706e-001 -3.736476e-001  0.000000e+000
    outer loop
      vertex  2.933243e+000 -3.591137e+000 -7.651835e+000
      vertex  2.052449e+000 -5.777684e+000  7.980433e+000
      vertex  2.052449e+000 -5.777684e+000 -7.980433e+000
    endloop
  endfacet
  facet normal  9.973741e-001 -7.242187e-002  0.000000e+000
    outer loop
      vertex  2.052449e+000 -5.777684e+000 -7.980433e+000
      vertex  2.052449e+000 -5.777684e+000  7.980433e+000
      vertex  2.000000e+000 -6.500000e+000  8.000000e+000
    endloop
  endfacet
  facet normal  9.973741e-001 -7.242187e-002  0.000000e+000
    outer loop
      vertex  2.052449e+000 -5.777684e+000 -7.980433e+000
      vertex  2.000000e+000 -6.500000e+000  8.000000e+000
      vertex  2.000000e+000 -6.500000e+000 -8.000000e+000
    endloop
  endfacet
  facet normal  9.275707e-001 -3.736477e-001  0.000000e+000
    outer loop
      vertex  2.052449e+000 -5.777684e+000  7.980433e+000
      vertex  2.933243e+000 -3.591137e+000 -7.651835e+000
      vertex  2.933243e+000 -3.591137e+000  7.651835e+000
    endloop
  endfacet
  facet normal  6.532710e-001 -7.571241e-001  0.000000e+000
    outer loop
      vertex  2.933243e+000 -3.591137e+000  7.651835e+000
      vertex  2.933243e+000 -3.591137e+000 -7.651835e+000
      vertex  4.718184e+000 -2.051032e+000 -6.985926e+000
    endloop
  endfacet
  facet normal  6.532711e-001 -7.571242e-001  0.000000e+000
    outer loop
      vertex  2.933243e+000 -3.591137e+000  7.651835e+000
      vertex  4.718184e+000 -2.051032e+000 -6.985926e+000
      vertex  4.718184e+000 -2.051032e+000  6.985926e+000
    endloop
  endfacet
  facet normal  2.347407e-001 -9.720581e-001  0.000000e+000
    outer loop
      vertex  4.718184e+000 -2.051032e+000  6.985926e+000
      vertex  4.718184e+000 -2.051032e+000 -6.985926e+000
      vertex  7.000000e+000 -1.500000e+000 -6.134649e+000
    endloop
  endfacet
  facet normal  2.347407e-001 -9.720580e-001  0.000000e+000
    outer loop
      vertex  4.718184e+000 -2.051032e+000  6.985926e+000
      vertex  7.000000e+000 -1.500000e+000 -6.134649e+000
      vertex  7.000000e+000 -1.500000e+000  6.134649e+000
    endloop
  endfacet
  facet normal  1.000000e+000  0.000000e+000  0.000000e+000
    outer loop
      vertex  2.000000e+000  6.500000e+000 -8.000000e+000
      vertex  2.000000e+000  1.300000e+001 -8.000000e+000
      vertex  2.000000e+000  1.260531e+001 -2.063032e+000
    endloop
  endfacet
  facet normal  9.999999e-001  0.000000e+000  0.000000e+000
    outer loop
      vertex  2.000000e+000  6.500000e+000 -8.000000e+000
      vertex  2.000000e+000  1.260531e+001 -2.063032e+000
      vertex  2.000000e+000  1.096924e+001 -1.886803e+000
    endloop
  endfacet
  facet normal  1.000000e+000  0.000000e+000  0.000000e+000
    outer loop
      vertex  2.000000e+000  6.500000e+000 -8.000000e+000
      vertex  2.000000e+000  1.096924e+001 -1.886803e+000
      vertex  2.000000e+000  9.936968e+000 -6.053100e-001
    endloop
  endfacet
  facet normal  1.000000e+000  0.000000e+000  -0.000000e+000
    outer loop
      vertex  2.000000e+000  6.500000e+000 -8.000000e+000
      vertex  2.000000e+000  9.936968e+000 -6.053100e-001
      vertex  2.000000e+000  1.011320e+001  1.030765e+000
    endloop
  endfacet
  facet normal  9.999999e-001  0.000000e+000  0.000000e+000
    outer loop
      vertex  2.000000e+000  6.500000e+000  8.000000e+000
      vertex  2.000000e+000  6.500000e+000 -8.000000e+000
      vertex  2.000000e+000  1.011320e+001  1.030765e+000
    endloop
  endfacet
  facet normal  1.000000e+000  0.000000e+000  -0.000000e+000
    outer loop
      vertex  2.000000e+000  6.500000e+000  8.000000e+000
      vertex  2.000000e+000  1.011320e+001  1.030765e+000
      vertex  2.000000e+000  1.139469e+001  2.063032e+000
    endloop
  endfacet
  facet normal  1.000000e+000  0.000000e+000  -0.000000e+000
    outer loop
      vertex  2.000000e+000  6.500000e+000  8.000000e+000
      vertex  2.000000e+000  1.139469e+001  2.063032e+000
      vertex  2.000000e+000  1.300000e+001  8.000000e+000
    endloop
  endfacet
  facet normal  1.000000e+000  0.000000e+000  -0.000000e+000
    outer loop
      vertex  2.000000e+000  1.260531e+001 -2.063032e+000
      vertex  2.000000e+000  1.300000e+001 -8.000000e+000
      vertex  2.000000e+000  1.550000e+001 -7.330127e+000
    endloop
  endfacet
  facet normal  1.000000e+000  0.000000e+000  -0.000000e+000
    outer loop
      vertex  2.000000e+000  1.260531e+001 -2.063032e+000
      vertex  2.000000e+000  1.550000e+001 -7.330127e+000
      vertex  2.000000e+000  1.733013e+001 -5.500000e+000
    endloop
  endfacet
  facet normal  1.000000e+000  0.000000e+000  -0.000000e+000
    outer loop
      vertex  2.000000e+000  1.260531e+001 -2.063032e+000
      vertex  2.000000e+000  1.733013e+001 -5.500000e+000
      vertex  2.000000e+000  1.800000e+001 -3.000000e+000
    endloop
  endfacet
  facet normal  1.000000e+000  0.000000e+000  0.000000e+000
    outer loop
      vertex  2.000000e+000  1.800000e+001 -3.000000e+000
      vertex  2.000000e+000  1.800000e+001  3.000000e+000
      vertex  2.000000e+000  1.303076e+001  1.886803e+000
    endloop
  endfacet
  facet normal  1.000000e+000  0.000000e+000  0.000000e+000
    outer loop
      vertex  2.000000e+000  1.800000e+001 -3.000000e+000
      vertex  2.000000e+000  1.303076e+001  1.886803e+000
      vertex  2.000000e+000  1.406303e+001  6.053100e-001
    endloop
  endfacet
  facet normal  1.000000e+000  0.000000e+000  0.000000e+000
    outer loop
      vertex  2.000000e+000  1.800000e+001 -3.000000e+000
      vertex  2.000000e+000  1.406303e+001  6.053100e-001
      vertex  2.000000e+000  1.388680e+001 -1.030765e+000
    endloop
  endfacet
  facet normal  1.000000e+000  0.000000e+000  0.000000e+000
    outer loop
      vertex  2.000000e+000  1.800000e+001 -3.000000e+000
      vertex  2.000000e+000  1.388680e+001 -1.030765e+000
      vertex  2.000000e+000  1.260531e+001 -2.063032e+000
    endloop
  endfacet
  facet normal  1.000000e+000  0.000000e+000  0.000000e+000
    outer loop
      vertex  2.000000e+000  1.800000e+001  3.000000e+000
      vertex  2.000000e+000  1.733013e+001  5.500000e+000
      vertex  2.000000e+000  1.303076e+001  1.886803e+000
    endloop
  endfacet
  facet normal  1.000000e+000  0.000000e+000  0.000000e+000
    outer loop
      vertex  2.000000e+000  1.303076e+001  1.886803e+000
      vertex  2.000000e+000  1.733013e+001  5.500000e+000
      vertex  2.000000e+000  1.550000e+001  7.330127e+000
    endloop
  endfacet
  facet normal  1.000000e+000  0.000000e+000  0.000000e+000
    outer loop
      vertex  2.000000e+000  1.303076e+001  1.886803e+000
      vertex  2.000000e+000  1.550000e+001  7.330127e+000
      vertex  2.000000e+000  1.139469e+001  2.063032e+000
    endloop
  endfacet
  facet normal  1.000000e+000  0.000000e+000  0.000000e+000
    outer loop
      vertex  2.000000e+000  1.139469e+001  2.063032e+000
      vertex  2.000000e+000  1.550000e+001  7.330127e+000
      vertex  2.000000e+000  1.300000e+001  8.000000e+000
    endloop
  endfacet
  facet normal  0.000000e+000  1.000000e+000  0.000000e+000
    outer loop
      vertex  1.215000e+001  1.500000e+000  2.632904e-016
      vertex  1.152028e+001  1.500000e+000  1.520280e+000
      vertex  1.600000e+001  1.500000e+000  2.266199e-015
    endloop
  endfacet
  facet normal  0.000000e+000  1.000000e+000  0.000000e+000
    outer loop
      vertex  7.000000e+000  1.500000e+000 -6.134649e+000
      vertex  7.000000e+000  1.500000e+000  6.134649e+000
      vertex  7.850000e+000  1.500000e+000  0.000000e+000
    endloop
  endfacet
  facet normal  0.000000e+000  1.000000e+000  0.000000e+000
    outer loop
      vertex  7.000000e+000  1.500000e+000 -6.134649e+000
      vertex  7.850000e+000  1.500000e+000  0.000000e+000
      vertex  8.479720e+000  1.500000e+000 -1.520280e+000
    endloop
  endfacet
  facet normal  0.000000e+000  9.999999e-001  0.000000e+000
    outer loop
      vertex  7.000000e+000  1.500000e+000 -6.134649e+000
      vertex  8.479720e+000  1.500000e+000 -1.520280e+000
      vertex  1.000000e+001  1.500000e+000 -2.150000e+000
    endloop
  endfacet
  facet normal  0.000000e+000  1.000000e+000  0.000000e+000
    outer loop
      vertex  7.000000e+000  1.500000e+000 -6.134649e+000
      vertex  1.000000e+001  1.500000e+000 -2.150000e+000
      vertex  1.528577e+001  1.500000e+000 -2.281162e+000
    endloop
  endfacet
  facet normal  0.000000e+000  1.000000e+000  0.000000e+000
    outer loop
      vertex  7.000000e+000  1.500000e+000 -6.134649e+000
      vertex  1.528577e+001  1.500000e+000 -2.281162e+000
      vertex  1.339815e+001  1.500000e+000 -3.747689e+000
    endloop
  endfacet
  facet normal  -0.000000e+000  1.000000e+000  0.000000e+000
    outer loop
      vertex  1.528577e+001  1.500000e+000 -2.281162e+000
      vertex  1.000000e+001  1.500000e+000 -2.150000e+000
      vertex  1.152028e+001  1.500000e+000 -1.520280e+000
    endloop
  endfacet
  facet normal  -0.000000e+000  1.000000e+000  0.000000e+000
    outer loop
      vertex  1.528577e+001  1.500000e+000 -2.281162e+000
      vertex  1.152028e+001  1.500000e+000 -1.520280e+000
      vertex  1.215000e+001  1.500000e+000  2.632904e-016
    endloop
  endfacet
  facet normal  -0.000000e+000  1.000000e+000  0.000000e+000
    outer loop
      vertex  1.528577e+001  1.500000e+000 -2.281162e+000
      vertex  1.215000e+001  1.500000e+000  2.632904e-016
      vertex  1.600000e+001  1.500000e+000  2.266199e-015
    endloop
  endfacet
  facet normal  0.000000e+000  1.000000e+000  -0.000000e+000
    outer loop
      vertex  1.339815e+001  1.500000e+000  3.747689e+000
      vertex  1.000000e+001  1.500000e+000  2.150000e+000
      vertex  7.000000e+000  1.500000e+000  6.134649e+000
    endloop
  endfacet
  facet normal  0.000000e+000  9.999999e-001  0.000000e+000
    outer loop
      vertex  7.000000e+000  1.500000e+000  6.134649e+000
      vertex  1.000000e+001  1.500000e+000  2.150000e+000
      vertex  8.479720e+000  1.500000e+000  1.520280e+000
    endloop
  endfacet
  facet normal  0.000000e+000  1.000000e+000  0.000000e+000
    outer loop
      vertex  7.000000e+000  1.500000e+000  6.134649e+000
      vertex  8.479720e+000  1.500000e+000  1.520280e+000
      vertex  7.850000e+000  1.500000e+000  0.000000e+000
    endloop
  endfacet
  facet normal  -0.000000e+000  1.000000e+000  0.000000e+000
    outer loop
      vertex  1.600000e+001  1.500000e+000  2.266199e-015
      vertex  1.152028e+001  1.500000e+000  1.520280e+000
      vertex  1.528577e+001  1.500000e+000  2.281162e+000
    endloop
  endfacet
  facet normal  0.000000e+000  1.000000e+000  0.000000e+000
    outer loop
      vertex  1.528577e+001  1.500000e+000  2.281162e+000
      vertex  1.152028e+001  1.500000e+000  1.520280e+000
      vertex  1.000000e+001  1.500000e+000  2.150000e+000
    endloop
  endfacet
  facet normal  0.000000e+000  1.000000e+000  0.000000e+000
    outer loop
      vertex  1.528577e+001  1.500000e+000  2.281162e+000
      vertex  1.000000e+001  1.500000e+000  2.150000e+000
      vertex  1.339815e+001  1.500000e+000  3.747689e+000
    endloop
  endfacet
  facet normal  6.532711e-001  7.571242e-001  0.000000e+000
    outer loop
      vertex  2.933243e+000  3.591137e+000 -7.651835e+000
      vertex  4.718184e+000  2.051032e+000  6.985926e+000
      vertex  4.718184e+000  2.051032e+000 -6.985926e+000
    endloop
  endfacet
  facet normal  2.347407e-001  9.720581e-001  -0.000000e+000
    outer loop
      vertex  4.718184e+000  2.051032e+000 -6.985926e+000
      vertex  4.718184e+000  2.051032e+000  6.985926e+000
      vertex  7.000000e+000  1.500000e+000  6.134649e+000
    endloop
  endfacet
  facet normal  2.347407e-001  9.720580e-001  0.000000e+000
    outer loop
      vertex  4.718184e+000  2.051032e+000 -6.985926e+000
      vertex  7.000000e+000  1.500000e+000  6.134649e+000
      vertex  7.000000e+000  1.500000e+000 -6.134649e+000
    endloop
  endfacet
  facet normal  6.532710e-001  7.571241e-001  -0.000000e+000
    outer loop
      vertex  4.718184e+000  2.051032e+000  6.985926e+000
      vertex  2.933243e+000  3.591137e+000 -7.651835e+000
      vertex  2.933243e+000  3.591137e+000  7.651835e+000
    endloop
  endfacet
  facet normal  9.275707e-001  3.736477e-001  0.000000e+000
    outer loop
      vertex  2.933243e+000  3.591137e+000  7.651835e+000
      vertex  2.933243e+000  3.591137e+000 -7.651835e+000
      vertex  2.052449e+000  5.777684e+000 -7.980433e+000
    endloop
  endfacet
  facet normal  9.275706e-001  3.736476e-001  -0.000000e+000
    outer loop
      vertex  2.933243e+000  3.591137e+000  7.651835e+000
      vertex  2.052449e+000  5.777684e+000 -7.980433e+000
      vertex  2.052449e+000  5.777684e+000  7.980433e+000
    endloop
  endfacet
  facet normal  9.973741e-001  7.242187e-002  0.000000e+000
    outer loop
      vertex  2.052449e+000  5.777684e+000  7.980433e+000
      vertex  2.052449e+000  5.777684e+000 -7.980433e+000
      vertex  2.000000e+000  6.500000e+000 -8.000000e+000
    endloop
  endfacet
  facet normal  9.973741e-001  7.242187e-002  -0.000000e+000
    outer loop
      vertex  2.052449e+000  5.777684e+000  7.980433e+000
      vertex  2.000000e+000  6.500000e+000 -8.000000e+000
      vertex  2.000000e+000  6.500000e+000  8.000000e+000
    endloop
  endfacet
  facet normal -1.000000e+000  0.000000e+000  0.000000e+000
    outer loop
      vertex  0.000000e+000 -1.733013e+001  5.500000e+000
      vertex  0.000000e+000 -1.550000e+001  7.330127e+000
      vertex  0.000000e+000 -1.800000e+001  3.000000e+000
    endloop
  endfacet
  facet normal -1.000000e+000  -0.000000e+000  0.000000e+000
    outer loop
      vertex  0.000000e+000 -1.406303e+001 -6.053100e-001
      vertex  0.000000e+000 -1.303076e+001 -1.886803e+000
      vertex  0.000000e+000 -1.800000e+001 -3.000000e+000
    endloop
  endfacet
  facet normal -1.000000e+000  -0.000000e+000  0.000000e+000
    outer loop
      vertex  0.000000e+000  1.260531e+001 -2.063032e+000
      vertex  0.000000e+000  1.800000e+001 -3.000000e+000
      vertex  0.000000e+000  1.733013e+001 -5.500000e+000
    endloop
  endfacet
  facet normal -1.000000e+000  -0.000000e+000  0.000000e+000
    outer loop
      vertex  0.000000e+000  1.260531e+001 -2.063032e+000
      vertex  0.000000e+000  1.733013e+001 -5.500000e+000
      vertex  0.000000e+000  1.550000e+001 -7.330127e+000
    endloop
  endfacet
  facet normal -1.000000e+000  -0.000000e+000  0.000000e+000
    outer loop
      vertex  0.000000e+000  1.260531e+001 -2.063032e+000
      vertex  0.000000e+000  1.550000e+001 -7.330127e+000
      vertex  0.000000e+000  1.300000e+001 -8.000000e+000
    endloop
  endfacet
  facet normal -1.000000e+000  0.000000e+000  0.000000e+000
    outer loop
      vertex  0.000000e+000  1.260531e+001 -2.063032e+000
      vertex  0.000000e+000  1.300000e+001 -8.000000e+000
      vertex  0.000000e+000 -1.300000e+001 -8.000000e+000
    endloop
  endfacet
  facet normal -1.000000e+000  0.000000e+000  0.000000e+000
    outer loop
      vertex  0.000000e+000  1.260531e+001 -2.063032e+000
      vertex  0.000000e+000 -1.300000e+001 -8.000000e+000
      vertex  0.000000e+000  1.096924e+001 -1.886803e+000
    endloop
  endfacet
  facet normal -1.000000e+000  -0.000000e+000  0.000000e+000
    outer loop
      vertex  0.000000e+000 -1.300000e+001  8.000000e+000
      vertex  0.000000e+000  1.300000e+001  8.000000e+000
      vertex  0.000000e+000  1.139469e+001  2.063032e+000
    endloop
  endfacet
  facet normal -1.000000e+000  8.040693e-017  3.303878e-016
    outer loop
      vertex  0.000000e+000 -1.300000e+001  8.000000e+000
      vertex  0.000000e+000  1.139469e+001  2.063032e+000
      vertex -4.440892e-016  1.011320e+001  1.030765e+000
    endloop
  endfacet
  facet normal -1.000000e+000 -2.135243e-017 -7.093143e-018
    outer loop
      vertex  0.000000e+000 -1.300000e+001  8.000000e+000
      vertex -4.440892e-016  1.011320e+001  1.030765e+000
      vertex  0.000000e+000 -1.096924e+001  1.886803e+000
    endloop
  endfacet
  facet normal -1.000000e+000  0.000000e+000  0.000000e+000
    outer loop
      vertex  0.000000e+000 -1.300000e+001  8.000000e+000
      vertex  0.000000e+000 -1.096924e+001  1.886803e+000
      vertex  0.000000e+000 -1.260531e+001  2.063032e+000
    endloop
  endfacet
  facet normal -9.999999e-001  0.000000e+000  0.000000e+000
    outer loop
      vertex  0.000000e+000 -1.300000e+001  8.000000e+000
      vertex  0.000000e+000 -1.260531e+001  2.063032e+000
      vertex  0.000000e+000 -1.800000e+001  3.000000e+000
    endloop
  endfacet
  facet normal -1.000000e+000  0.000000e+000  0.000000e+000
    outer loop
      vertex  0.000000e+000 -1.300000e+001  8.000000e+000
      vertex  0.000000e+000 -1.800000e+001  3.000000e+000
      vertex  0.000000e+000 -1.550000e+001  7.330127e+000
    endloop
  endfacet
  facet normal -1.000000e+000 -6.146673e-017 -3.539008e-016
    outer loop
      vertex  0.000000e+000  1.800000e+001 -3.000000e+000
      vertex  0.000000e+000  1.260531e+001 -2.063032e+000
      vertex -4.440892e-016  1.388680e+001 -1.030765e+000
    endloop
  endfacet
  facet normal -1.000000e+000  2.262518e-016  2.470651e-016
    outer loop
      vertex  0.000000e+000  1.800000e+001 -3.000000e+000
      vertex -4.440892e-016  1.388680e+001 -1.030765e+000
      vertex  0.000000e+000  1.406303e+001  6.053100e-001
    endloop
  endfacet
  facet normal -1.000000e+000  0.000000e+000  0.000000e+000
    outer loop
      vertex  0.000000e+000  1.800000e+001 -3.000000e+000
      vertex  0.000000e+000  1.406303e+001  6.053100e-001
      vertex  0.000000e+000  1.303076e+001  1.886803e+000
    endloop
  endfacet
  facet normal -1.000000e+000  0.000000e+000  0.000000e+000
    outer loop
      vertex  0.000000e+000  1.800000e+001 -3.000000e+000
      vertex  0.000000e+000  1.303076e+001  1.886803e+000
      vertex  0.000000e+000  1.800000e+001  3.000000e+000
    endloop
  endfacet
  facet normal -9.999999e-001  0.000000e+000  0.000000e+000
    outer loop
      vertex  0.000000e+000  1.800000e+001  3.000000e+000
      vertex  0.000000e+000  1.303076e+001  1.886803e+000
      vertex  0.000000e+000  1.733013e+001  5.500000e+000
    endloop
  endfacet
  facet normal -1.000000e+000  -0.000000e+000  0.000000e+000
    outer loop
      vertex  0.000000e+000  1.733013e+001  5.500000e+000
      vertex  0.000000e+000  1.303076e+001  1.886803e+000
      vertex  0.000000e+000  1.550000e+001  7.330127e+000
    endloop
  endfacet
  facet normal -1.000000e+000  0.000000e+000  0.000000e+000
    outer loop
      vertex  0.000000e+000  1.303076e+001  1.886803e+000
      vertex  0.000000e+000  1.139469e+001  2.063032e+000
      vertex  0.000000e+000  1.550000e+001  7.330127e+000
    endloop
  endfacet
  facet normal -1.000000e+000  -0.000000e+000  0.000000e+000
    outer loop
      vertex  0.000000e+000  1.550000e+001  7.330127e+000
      vertex  0.000000e+000  1.139469e+001  2.063032e+000
      vertex  0.000000e+000  1.300000e+001  8.000000e+000
    endloop
  endfacet
  facet normal -1.000000e+000  0.000000e+000  0.000000e+000
    outer loop
      vertex  0.000000e+000  1.096924e+001 -1.886803e+000
      vertex  0.000000e+000 -1.300000e+001 -8.000000e+000
      vertex  0.000000e+000 -1.139469e+001 -2.063032e+000
    endloop
  endfacet
  facet normal -1.000000e+000  0.000000e+000  0.000000e+000
    outer loop
      vertex  0.000000e+000 -1.139469e+001 -2.063032e+000
      vertex  0.000000e+000 -1.300000e+001 -8.000000e+000
      vertex  0.000000e+000 -1.550000e+001 -7.330127e+000
    endloop
  endfacet
  facet normal -1.000000e+000  0.000000e+000  0.000000e+000
    outer loop
      vertex  0.000000e+000 -1.139469e+001 -2.063032e+000
      vertex  0.000000e+000 -1.550000e+001 -7.330127e+000
      vertex  0.000000e+000 -1.303076e+001 -1.886803e+000
    endloop
  endfacet
  facet normal -1.000000e+000  0.000000e+000  0.000000e+000
    outer loop
      vertex  0.000000e+000 -1.303076e+001 -1.886803e+000
      vertex  0.000000e+000 -1.550000e+001 -7.330127e+000
      vertex  0.000000e+000 -1.733013e+001 -5.500000e+000
    endloop
  endfacet
  facet normal -1.000000e+000  0.000000e+000  0.000000e+000
    outer loop
      vertex  0.000000e+000 -1.303076e+001 -1.886803e+000
      vertex  0.000000e+000 -1.733013e+001 -5.500000e+000
      vertex  0.000000e+000 -1.800000e+001 -3.000000e+000
    endloop
  endfacet
  facet normal -1.000000e+000  0.000000e+000  0.000000e+000
    outer loop
      vertex  0.000000e+000 -1.260531e+001  2.063032e+000
      vertex  0.000000e+000 -1.388680e+001  1.030765e+000
      vertex  0.000000e+000 -1.800000e+001  3.000000e+000
    endloop
  endfacet
  facet normal -1.000000e+000  0.000000e+000  0.000000e+000
    outer loop
      vertex  0.000000e+000 -1.800000e+001  3.000000e+000
      vertex  0.000000e+000 -1.388680e+001  1.030765e+000
      vertex  0.000000e+000 -1.406303e+001 -6.053100e-001
    endloop
  endfacet
  facet normal -1.000000e+000  -0.000000e+000  0.000000e+000
    outer loop
      vertex  0.000000e+000 -1.800000e+001  3.000000e+000
      vertex  0.000000e+000 -1.406303e+001 -6.053100e-001
      vertex  0.000000e+000 -1.800000e+001 -3.000000e+000
    endloop
  endfacet
  facet normal -9.999999e-001 -2.177668e-017 -1.754153e-017
    outer loop
      vertex  0.000000e+000 -1.096924e+001  1.886803e+000
      vertex -4.440892e-016  1.011320e+001  1.030765e+000
      vertex  0.000000e+000 -9.936968e+000  6.053100e-001
    endloop
  endfacet
  facet normal -1.000000e+000 -1.642671e-017 -2.696663e-016
    outer loop
      vertex  0.000000e+000 -9.936968e+000  6.053100e-001
      vertex -4.440892e-016  1.011320e+001  1.030765e+000
      vertex  0.000000e+000  9.936968e+000 -6.053100e-001
    endloop
  endfacet
  facet normal -1.000000e+000  1.642671e-017  2.696663e-016
    outer loop
      vertex  0.000000e+000 -9.936968e+000  6.053100e-001
      vertex  0.000000e+000  9.936968e+000 -6.053100e-001
      vertex -4.440892e-016 -1.011320e+001 -1.030765e+000
    endloop
  endfacet
  facet normal -9.999999e-001  2.177668e-017  1.754153e-017
    outer loop
      vertex -4.440892e-016 -1.011320e+001 -1.030765e+000
      vertex  0.000000e+000  9.936968e+000 -6.053100e-001
      vertex  0.000000e+000  1.096924e+001 -1.886803e+000
    endloop
  endfacet
  facet normal -1.000000e+000  3.423555e-018 -4.344579e-016
    outer loop
      vertex -4.440892e-016 -1.011320e+001 -1.030765e+000
      vertex  0.000000e+000  1.096924e+001 -1.886803e+000
      vertex  0.000000e+000 -1.139469e+001 -2.063032e+000
    endloop
  endfacet
  facet normal  0.000000e+000 -1.000000e+000  0.000000e+000
    outer loop
      vertex  2.000000e+000 -1.800000e+001  3.000000e+000
      vertex  0.000000e+000 -1.800000e+001  3.000000e+000
      vertex  2.000000e+000 -1.800000e+001 -3.000000e+000
    endloop
  endfacet
  facet normal  0.000000e+000 -1.000000e+000  0.000000e+000
    outer loop
      vertex  2.000000e+000 -1.800000e+001 -3.000000e+000
      vertex  0.000000e+000 -1.800000e+001  3.000000e+000
      vertex  0.000000e+000 -1.800000e+001 -3.000000e+000
    endloop
  endfacet
  facet normal  -0.000000e+000 -2.588190e-001 -9.659259e-001
    outer loop
      vertex  0.000000e+000 -1.300000e+001 -8.000000e+000
      vertex  2.000000e+000 -1.300000e+001 -8.000000e+000
      vertex  0.000000e+000 -1.550000e+001 -7.330127e+000
    endloop
  endfacet
  facet normal  0.000000e+000 -2.588190e-001 -9.659259e-001
    outer loop
      vertex  0.000000e+000 -1.550000e+001 -7.330127e+000
      vertex  2.000000e+000 -1.300000e+001 -8.000000e+000
      vertex  2.000000e+000 -1.550000e+001 -7.330127e+000
    endloop
  endfacet
  facet normal  -0.000000e+000 -7.071067e-001 -7.071069e-001
    outer loop
      vertex  0.000000e+000 -1.550000e+001 -7.330127e+000
      vertex  2.000000e+000 -1.550000e+001 -7.330127e+000
      vertex  0.000000e+000 -1.733013e+001 -5.500000e+000
    endloop
  endfacet
  facet normal  0.000000e+000 -7.071067e-001 -7.071069e-001
    outer loop
      vertex  0.000000e+000 -1.733013e+001 -5.500000e+000
      vertex  2.000000e+000 -1.550000e+001 -7.330127e+000
      vertex  2.000000e+000 -1.733013e+001 -5.500000e+000
    endloop
  endfacet
  facet normal  -0.000000e+000 -9.659259e-001 -2.588188e-001
    outer loop
      vertex  0.000000e+000 -1.733013e+001 -5.500000e+000
      vertex  2.000000e+000 -1.733013e+001 -5.500000e+000
      vertex  0.000000e+000 -1.800000e+001 -3.000000e+000
    endloop
  endfacet
  facet normal  0.000000e+000 -9.659259e-001 -2.588188e-001
    outer loop
      vertex  0.000000e+000 -1.800000e+001 -3.000000e+000
      vertex  2.000000e+000 -1.733013e+001 -5.500000e+000
      vertex  2.000000e+000 -1.800000e+001 -3.000000e+000
    endloop
  endfacet
  facet normal  0.000000e+000  1.000000e+000  0.000000e+000
    outer loop
      vertex  2.000000e+000  1.800000e+001 -3.000000e+000
      vertex  0.000000e+000  1.800000e+001 -3.000000e+000
      vertex  2.000000e+000  1.800000e+001  3.000000e+000
    endloop
  endfacet
  facet normal  0.000000e+000  1.000000e+000  0.000000e+000
    outer loop
      vertex  2.000000e+000  1.800000e+001  3.000000e+000
      vertex  0.000000e+000  1.800000e+001 -3.000000e+000
      vertex  0.000000e+000  1.800000e+001  3.000000e+000
    endloop
  endfacet
  facet normal  0.000000e+000  9.659259e-001 -2.588188e-001
    outer loop
      vertex  0.000000e+000  1.800000e+001 -3.000000e+000
      vertex  2.000000e+000  1.800000e+001 -3.000000e+000
      vertex  0.000000e+000  1.733013e+001 -5.500000e+000
    endloop
  endfacet
  facet normal  0.000000e+000  9.659259e-001 -2.588188e-001
    outer loop
      vertex  0.000000e+000  1.733013e+001 -5.500000e+000
      vertex  2.000000e+000  1.800000e+001 -3.000000e+000
      vertex  2.000000e+000  1.733013e+001 -5.500000e+000
    endloop
  endfacet
  facet normal  0.000000e+000  7.071067e-001 -7.071069e-001
    outer loop
      vertex  0.000000e+000  1.733013e+001 -5.500000e+000
      vertex  2.000000e+000  1.733013e+001 -5.500000e+000
      vertex  0.000000e+000  1.550000e+001 -7.330127e+000
    endloop
  endfacet
  facet normal  0.000000e+000  7.071067e-001 -7.071069e-001
    outer loop
      vertex  0.000000e+000  1.550000e+001 -7.330127e+000
      vertex  2.000000e+000  1.733013e+001 -5.500000e+000
      vertex  2.000000e+000  1.550000e+001 -7.330127e+000
    endloop
  endfacet
  facet normal  0.000000e+000  2.588190e-001 -9.659259e-001
    outer loop
      vertex  0.000000e+000  1.550000e+001 -7.330127e+000
      vertex  2.000000e+000  1.550000e+001 -7.330127e+000
      vertex  0.000000e+000  1.300000e+001 -8.000000e+000
    endloop
  endfacet
  facet normal  0.000000e+000  2.588190e-001 -9.659259e-001
    outer loop
      vertex  0.000000e+000  1.300000e+001 -8.000000e+000
      vertex  2.000000e+000  1.550000e+001 -7.330127e+000
      vertex  2.000000e+000  1.300000e+001 -8.000000e+000
    endloop
  endfacet
  facet normal  0.000000e+000 -9.659259e-001  2.588188e-001
    outer loop
      vertex  0.000000e+000 -1.800000e+001  3.000000e+000
      vertex  2.000000e+000 -1.800000e+001  3.000000e+000
      vertex  0.000000e+000 -1.733013e+001  5.500000e+000
    endloop
  endfacet
  facet normal  0.000000e+000 -9.659259e-001  2.588188e-001
    outer loop
      vertex  0.000000e+000 -1.733013e+001  5.500000e+000
      vertex  2.000000e+000 -1.800000e+001  3.000000e+000
      vertex  2.000000e+000 -1.733013e+001  5.500000e+000
    endloop
  endfacet
  facet normal  0.000000e+000 -7.071067e-001  7.071069e-001
    outer loop
      vertex  0.000000e+000 -1.733013e+001  5.500000e+000
      vertex  2.000000e+000 -1.733013e+001  5.500000e+000
      vertex  0.000000e+000 -1.550000e+001  7.330127e+000
    endloop
  endfacet
  facet normal  0.000000e+000 -7.071067e-001  7.071069e-001
    outer loop
      vertex  0.000000e+000 -1.550000e+001  7.330127e+000
      vertex  2.000000e+000 -1.733013e+001  5.500000e+000
      vertex  2.000000e+000 -1.550000e+001  7.330127e+000
    endloop
  endfacet
  facet normal  0.000000e+000 -2.588190e-001  9.659259e-001
    outer loop
      vertex  0.000000e+000 -1.550000e+001  7.330127e+000
      vertex  2.000000e+000 -1.550000e+001  7.330127e+000
      vertex  0.000000e+000 -1.300000e+001  8.000000e+000
    endloop
  endfacet
  facet normal  0.000000e+000 -2.588190e-001  9.659259e-001
    outer loop
      vertex  0.000000e+000 -1.300000e+001  8.000000e+000
      vertex  2.000000e+000 -1.550000e+001  7.330127e+000
      vertex  2.000000e+000 -1.300000e+001  8.000000e+000
    endloop
  endfacet
  facet normal  0.000000e+000  2.588190e-001  9.659259e-001
    outer loop
      vertex  0.000000e+000  1.300000e+001  8.000000e+000
      vertex  2.000000e+000  1.300000e+001  8.000000e+000
      vertex  0.000000e+000  1.550000e+001  7.330127e+000
    endloop
  endfacet
  facet normal  -0.000000e+000  2.588190e-001  9.659259e-001
    outer loop
      vertex  0.000000e+000  1.550000e+001  7.330127e+000
      vertex  2.000000e+000  1.300000e+001  8.000000e+000
      vertex  2.000000e+000  1.550000e+001  7.330127e+000
    endloop
  endfacet
  facet normal  0.000000e+000  7.071067e-001  7.071069e-001
    outer loop
      vertex  0.000000e+000  1.550000e+001  7.330127e+000
      vertex  2.000000e+000  1.550000e+001  7.330127e+000
      vertex  0.000000e+000  1.733013e+001  5.500000e+000
    endloop
  endfacet
  facet normal  -0.000000e+000  7.071067e-001  7.071069e-001
    outer loop
      vertex  0.000000e+000  1.733013e+001  5.500000e+000
      vertex  2.000000e+000  1.550000e+001  7.330127e+000
      vertex  2.000000e+000  1.733013e+001  5.500000e+000
    endloop
  endfacet
  facet normal  0.000000e+000  9.659259e-001  2.588188e-001
    outer loop
      vertex  0.000000e+000  1.733013e+001  5.500000e+000
      vertex  2.000000e+000  1.733013e+001  5.500000e+000
      vertex  0.000000e+000  1.800000e+001  3.000000e+000
    endloop
  endfacet
  facet normal  -0.000000e+000  9.659259e-001  2.588188e-001
    outer loop
      vertex  0.000000e+000  1.800000e+001  3.000000e+000
      vertex  2.000000e+000  1.733013e+001  5.500000e+000
      vertex  2.000000e+000  1.800000e+001  3.000000e+000
    endloop
  endfacet
  facet normal  -0.000000e+000  7.787675e-001  6.273126e-001
    outer loop
      vertex  2.000000e+000 -1.303076e+001 -1.886803e+000
      vertex  0.000000e+000 -1.406303e+001 -6.053100e-001
      vertex  2.000000e+000 -1.406303e+001 -6.053100e-001
    endloop
  endfacet
  facet normal  0.000000e+000  9.942487e-001 -1.070953e-001
    outer loop
      vertex  2.000000e+000 -1.406303e+001 -6.053100e-001
      vertex  0.000000e+000 -1.406303e+001 -6.053100e-001
      vertex  0.000000e+000 -1.388680e+001  1.030765e+000
    endloop
  endfacet
  facet normal  0.000000e+000  9.942487e-001 -1.070953e-001
    outer loop
      vertex  2.000000e+000 -1.406303e+001 -6.053100e-001
      vertex  0.000000e+000 -1.388680e+001  1.030765e+000
      vertex  2.000000e+000 -1.388680e+001  1.030765e+000
    endloop
  endfacet
  facet normal  0.000000e+000  7.787675e-001  6.273126e-001
    outer loop
      vertex  0.000000e+000 -1.406303e+001 -6.053100e-001
      vertex  2.000000e+000 -1.303076e+001 -1.886803e+000
      vertex  0.000000e+000 -1.303076e+001 -1.886803e+000
    endloop
  endfacet
  facet normal  -0.000000e+000  1.070951e-001  9.942487e-001
    outer loop
      vertex  0.000000e+000 -1.303076e+001 -1.886803e+000
      vertex  2.000000e+000 -1.303076e+001 -1.886803e+000
      vertex  2.000000e+000 -1.139469e+001 -2.063032e+000
    endloop
  endfacet
  facet normal  0.000000e+000  1.070951e-001  9.942487e-001
    outer loop
      vertex  0.000000e+000 -1.303076e+001 -1.886803e+000
      vertex  2.000000e+000 -1.139469e+001 -2.063032e+000
      vertex  0.000000e+000 -1.139469e+001 -2.063032e+000
    endloop
  endfacet
  facet normal  0.000000e+000 -6.273124e-001  7.787676e-001
    outer loop
      vertex  0.000000e+000 -1.139469e+001 -2.063032e+000
      vertex  2.000000e+000 -1.139469e+001 -2.063032e+000
      vertex  2.000000e+000 -1.011320e+001 -1.030765e+000
    endloop
  endfacet
  facet normal  0.000000e+000 -6.273124e-001  7.787676e-001
    outer loop
      vertex  0.000000e+000 -1.139469e+001 -2.063032e+000
      vertex  2.000000e+000 -1.011320e+001 -1.030765e+000
      vertex -4.440892e-016 -1.011320e+001 -1.030765e+000
    endloop
  endfacet
  facet normal  0.000000e+000 -7.787675e-001 -6.273126e-001
    outer loop
      vertex  2.000000e+000 -1.096924e+001  1.886803e+000
      vertex  0.000000e+000 -9.936968e+000  6.053100e-001
      vertex  2.000000e+000 -9.936968e+000  6.053100e-001
    endloop
  endfacet
  facet normal  0.000000e+000 -9.942487e-001  1.070953e-001
    outer loop
      vertex  2.000000e+000 -9.936968e+000  6.053100e-001
      vertex  0.000000e+000 -9.936968e+000  6.053100e-001
      vertex -4.440892e-016 -1.011320e+001 -1.030765e+000
    endloop
  endfacet
  facet normal  0.000000e+000 -9.942487e-001  1.070953e-001
    outer loop
      vertex  2.000000e+000 -9.936968e+000  6.053100e-001
      vertex -4.440892e-016 -1.011320e+001 -1.030765e+000
      vertex  2.000000e+000 -1.011320e+001 -1.030765e+000
    endloop
  endfacet
  facet normal  -0.000000e+000 -7.787675e-001 -6.273126e-001
    outer loop
      vertex  0.000000e+000 -9.936968e+000  6.053100e-001
      vertex  2.000000e+000 -1.096924e+001  1.886803e+000
      vertex  0.000000e+000 -1.096924e+001  1.886803e+000
    endloop
  endfacet
  facet normal  0.000000e+000 -1.070951e-001 -9.942487e-001
    outer loop
      vertex  0.000000e+000 -1.096924e+001  1.886803e+000
      vertex  2.000000e+000 -1.096924e+001  1.886803e+000
      vertex  2.000000e+000 -1.260531e+001  2.063032e+000
    endloop
  endfacet
  facet normal  -0.000000e+000 -1.070951e-001 -9.942487e-001
    outer loop
      vertex  0.000000e+000 -1.096924e+001  1.886803e+000
      vertex  2.000000e+000 -1.260531e+001  2.063032e+000
      vertex  0.000000e+000 -1.260531e+001  2.063032e+000
    endloop
  endfacet
  facet normal  0.000000e+000  6.273124e-001 -7.787676e-001
    outer loop
      vertex  0.000000e+000 -1.260531e+001  2.063032e+000
      vertex  2.000000e+000 -1.260531e+001  2.063032e+000
      vertex  2.000000e+000 -1.388680e+001  1.030765e+000
    endloop
  endfacet
  facet normal  0.000000e+000  6.273124e-001 -7.787676e-001
    outer loop
      vertex  0.000000e+000 -1.260531e+001  2.063032e+000
      vertex  2.000000e+000 -1.388680e+001  1.030765e+000
      vertex  0.000000e+000 -1.388680e+001  1.030765e+000
    endloop
  endfacet
  facet normal  -0.000000e+000  7.787675e-001  6.273126e-001
    outer loop
      vertex  2.000000e+000  1.096924e+001 -1.886803e+000
      vertex  0.000000e+000  9.936968e+000 -6.053100e-001
      vertex  2.000000e+000  9.936968e+000 -6.053100e-001
    endloop
  endfacet
  facet normal  0.000000e+000  9.942487e-001 -1.070953e-001
    outer loop
      vertex  2.000000e+000  9.936968e+000 -6.053100e-001
      vertex  0.000000e+000  9.936968e+000 -6.053100e-001
      vertex -4.440892e-016  1.011320e+001  1.030765e+000
    endloop
  endfacet
  facet normal  0.000000e+000  9.942487e-001 -1.070953e-001
    outer loop
      vertex  2.000000e+000  9.936968e+000 -6.053100e-001
      vertex -4.440892e-016  1.011320e+001  1.030765e+000
      vertex  2.000000e+000  1.011320e+001  1.030765e+000
    endloop
  endfacet
  facet normal  0.000000e+000  7.787675e-001  6.273126e-001
    outer loop
      vertex  0.000000e+000  9.936968e+000 -6.053100e-001
      vertex  2.000000e+000  1.096924e+001 -1.886803e+000
      vertex  0.000000e+000  1.096924e+001 -1.886803e+000
    endloop
  endfacet
  facet normal  -0.000000e+000  1.070951e-001  9.942487e-001
    outer loop
      vertex  0.000000e+000  1.096924e+001 -1.886803e+000
      vertex  2.000000e+000  1.096924e+001 -1.886803e+000
      vertex  2.000000e+000  1.260531e+001 -2.063032e+000
    endloop
  endfacet
  facet normal  0.000000e+000  1.070951e-001  9.942487e-001
    outer loop
      vertex  0.000000e+000  1.096924e+001 -1.886803e+000
      vertex  2.000000e+000  1.260531e+001 -2.063032e+000
      vertex  0.000000e+000  1.260531e+001 -2.063032e+000
    endloop
  endfacet
  facet normal  0.000000e+000 -6.273124e-001  7.787676e-001
    outer loop
      vertex  0.000000e+000  1.260531e+001 -2.063032e+000
      vertex  2.000000e+000  1.260531e+001 -2.063032e+000
      vertex  2.000000e+000  1.388680e+001 -1.030765e+000
    endloop
  endfacet
  facet normal  0.000000e+000 -6.273124e-001  7.787676e-001
    outer loop
      vertex  0.000000e+000  1.260531e+001 -2.063032e+000
      vertex  2.000000e+000  1.388680e+001 -1.030765e+000
      vertex -4.440892e-016  1.388680e+001 -1.030765e+000
    endloop
  endfacet
  facet normal  0.000000e+000 -7.787675e-001 -6.273126e-001
    outer loop
      vertex  2.000000e+000  1.303076e+001  1.886803e+000
      vertex  0.000000e+000  1.406303e+001  6.053100e-001
      vertex  2.000000e+000  1.406303e+001  6.053100e-001
    endloop
  endfacet
  facet normal  0.000000e+000 -9.942487e-001  1.070953e-001
    outer loop
      vertex  2.000000e+000  1.406303e+001  6.053100e-001
      vertex  0.000000e+000  1.406303e+001  6.053100e-001
      vertex -4.440892e-016  1.388680e+001 -1.030765e+000
    endloop
  endfacet
  facet normal  0.000000e+000 -9.942487e-001  1.070953e-001
    outer loop
      vertex  2.000000e+000  1.406303e+001  6.053100e-001
      vertex -4.440892e-016  1.388680e+001 -1.030765e+000
      vertex  2.000000e+000  1.388680e+001 -1.030765e+000
    endloop
  endfacet
  facet normal  -0.000000e+000 -7.787675e-001 -6.273126e-001
    outer loop
      vertex  0.000000e+000  1.406303e+001  6.053100e-001
      vertex  2.000000e+000  1.303076e+001  1.886803e+000
      vertex  0.000000e+000  1.303076e+001  1.886803e+000
    endloop
  endfacet
  facet normal  0.000000e+000 -1.070951e-001 -9.942487e-001
    outer loop
      vertex  0.000000e+000  1.303076e+001  1.886803e+000
      vertex  2.000000e+000  1.303076e+001  1.886803e+000
      vertex  2.000000e+000  1.139469e+001  2.063032e+000
    endloop
  endfacet
  facet normal  -0.000000e+000 -1.070951e-001 -9.942487e-001
    outer loop
      vertex  0.000000e+000  1.303076e+001  1.886803e+000
      vertex  2.000000e+000  1.139469e+001  2.063032e+000
      vertex  0.000000e+000  1.139469e+001  2.063032e+000
    endloop
  endfacet
  facet normal  0.000000e+000  6.273124e-001 -7.787676e-001
    outer loop
      vertex  0.000000e+000  1.139469e+001  2.063032e+000
      vertex  2.000000e+000  1.139469e+001  2.063032e+000
      vertex  2.000000e+000  1.011320e+001  1.030765e+000
    endloop
  endfacet
  facet normal  0.000000e+000  6.273124e-001 -7.787676e-001
    outer loop
      vertex  0.000000e+000  1.139469e+001  2.063032e+000
      vertex  2.000000e+000  1.011320e+001  1.030765e+000
      vertex -4.440892e-016  1.011320e+001  1.030765e+000
    endloop
  endfacet
  facet normal -3.826835e-001  -0.000000e+000 -9.238795e-001
    outer loop
      vertex  1.000000e+001 -1.500000e+000  2.150000e+000
      vertex  1.152028e+001  1.500000e+000  1.520280e+000
      vertex  1.152028e+001 -1.500000e+000  1.520280e+000
    endloop
  endfacet
  facet normal -9.238797e-001  0.000000e+000 -3.826831e-001
    outer loop
      vertex  1.152028e+001 -1.500000e+000  1.520280e+000
      vertex  1.152028e+001  1.500000e+000  1.520280e+000
      vertex  1.215000e+001  1.500000e+000  2.632904e-016
    endloop
  endfacet
  facet normal -9.238797e-001  -0.000000e+000 -3.826831e-001
    outer loop
      vertex  1.152028e+001 -1.500000e+000  1.520280e+000
      vertex  1.215000e+001  1.500000e+000  2.632904e-016
      vertex  1.215000e+001 -1.500000e+000  2.632904e-016
    endloop
  endfacet
  facet normal -3.826835e-001  0.000000e+000 -9.238795e-001
    outer loop
      vertex  1.152028e+001  1.500000e+000  1.520280e+000
      vertex  1.000000e+001 -1.500000e+000  2.150000e+000
      vertex  1.000000e+001  1.500000e+000  2.150000e+000
    endloop
  endfacet
  facet normal  3.826835e-001  0.000000e+000 -9.238795e-001
    outer loop
      vertex  1.000000e+001  1.500000e+000  2.150000e+000
      vertex  1.000000e+001 -1.500000e+000  2.150000e+000
      vertex  8.479720e+000 -1.500000e+000  1.520280e+000
    endloop
  endfacet
  facet normal  3.826835e-001  0.000000e+000 -9.238795e-001
    outer loop
      vertex  1.000000e+001  1.500000e+000  2.150000e+000
      vertex  8.479720e+000 -1.500000e+000  1.520280e+000
      vertex  8.479720e+000  1.500000e+000  1.520280e+000
    endloop
  endfacet
  facet normal  9.238796e-001  0.000000e+000 -3.826833e-001
    outer loop
      vertex  8.479720e+000  1.500000e+000  1.520280e+000
      vertex  8.479720e+000 -1.500000e+000  1.520280e+000
      vertex  7.850000e+000 -1.500000e+000  0.000000e+000
    endloop
  endfacet
  facet normal  9.238796e-001  0.000000e+000 -3.826833e-001
    outer loop
      vertex  8.479720e+000  1.500000e+000  1.520280e+000
      vertex  7.850000e+000 -1.500000e+000  0.000000e+000
      vertex  7.850000e+000  1.500000e+000  0.000000e+000
    endloop
  endfacet
  facet normal  3.826835e-001  0.000000e+000  9.238795e-001
    outer loop
      vertex  1.000000e+001 -1.500000e+000 -2.150000e+000
      vertex  8.479720e+000  1.500000e+000 -1.520280e+000
      vertex  8.479720e+000 -1.500000e+000 -1.520280e+000
    endloop
  endfacet
  facet normal  9.238796e-001  -0.000000e+000  3.826833e-001
    outer loop
      vertex  8.479720e+000 -1.500000e+000 -1.520280e+000
      vertex  8.479720e+000  1.500000e+000 -1.520280e+000
      vertex  7.850000e+000  1.500000e+000  0.000000e+000
    endloop
  endfacet
  facet normal  9.238796e-001  0.000000e+000  3.826833e-001
    outer loop
      vertex  8.479720e+000 -1.500000e+000 -1.520280e+000
      vertex  7.850000e+000  1.500000e+000  0.000000e+000
      vertex  7.850000e+000 -1.500000e+000  0.000000e+000
    endloop
  endfacet
  facet normal  3.826835e-001  -0.000000e+000  9.238795e-001
    outer loop
      vertex  8.479720e+000  1.500000e+000 -1.520280e+000
      vertex  1.000000e+001 -1.500000e+000 -2.150000e+000
      vertex  1.000000e+001  1.500000e+000 -2.150000e+000
    endloop
  endfacet
  facet normal -3.826835e-001  0.000000e+000  9.238795e-001
    outer loop
      vertex  1.000000e+001  1.500000e+000 -2.150000e+000
      vertex  1.000000e+001 -1.500000e+000 -2.150000e+000
      vertex  1.152028e+001 -1.500000e+000 -1.520280e+000
    endloop
  endfacet
  facet normal -3.826835e-001  0.000000e+000  9.238795e-001
    outer loop
      vertex  1.000000e+001  1.500000e+000 -2.150000e+000
      vertex  1.152028e+001 -1.500000e+000 -1.520280e+000
      vertex  1.152028e+001  1.500000e+000 -1.520280e+000
    endloop
  endfacet
  facet normal -9.238797e-001  0.000000e+000  3.826831e-001
    outer loop
      vertex  1.152028e+001  1.500000e+000 -1.520280e+000
      vertex  1.152028e+001 -1.500000e+000 -1.520280e+000
      vertex  1.215000e+001 -1.500000e+000  2.632904e-016
    endloop
  endfacet
  facet normal -9.238797e-001  0.000000e+000  3.826831e-001
    outer loop
      vertex  1.152028e+001  1.500000e+000 -1.520280e+000
      vertex  1.215000e+001 -1.500000e+000  2.632904e-016
      vertex  1.215000e+001  1.500000e+000  2.632904e-016
    endloop
  endfacet
  facet normal  6.135177e-001  0.000000e+000 -7.896810e-001
    outer loop
      vertex  1.339815e+001 -1.500000e+000 -3.747689e+000
      vertex  1.339815e+001  1.500000e+000 -3.747689e+000
      vertex  1.528577e+001 -1.500000e+000 -2.281162e+000
    endloop
  endfacet
  facet normal  6.135177e-001  0.000000e+000 -7.896810e-001
    outer loop
      vertex  1.528577e+001 -1.500000e+000 -2.281162e+000
      vertex  1.339815e+001  1.500000e+000 -3.747689e+000
      vertex  1.528577e+001  1.500000e+000 -2.281162e+000
    endloop
  endfacet
  facet normal  9.543173e-001  0.000000e+000 -2.987951e-001
    outer loop
      vertex  1.528577e+001 -1.500000e+000 -2.281162e+000
      vertex  1.528577e+001  1.500000e+000 -2.281162e+000
      vertex  1.600000e+001 -1.500000e+000  2.266199e-015
    endloop
  endfacet
  facet normal  9.543173e-001  0.000000e+000 -2.987951e-001
    outer loop
      vertex  1.600000e+001 -1.500000e+000  2.266199e-015
      vertex  1.528577e+001  1.500000e+000 -2.281162e+000
      vertex  1.600000e+001  1.500000e+000  2.266199e-015
    endloop
  endfacet
  facet normal  9.543173e-001  0.000000e+000  2.987951e-001
    outer loop
      vertex  1.600000e+001 -1.500000e+000  2.266199e-015
      vertex  1.600000e+001  1.500000e+000  2.266199e-015
      vertex  1.528577e+001 -1.500000e+000  2.281162e+000
    endloop
  endfacet
  facet normal  9.543173e-001  -0.000000e+000  2.987951e-001
    outer loop
      vertex  1.528577e+001 -1.500000e+000  2.281162e+000
      vertex  1.600000e+001  1.500000e+000  2.266199e-015
      vertex  1.528577e+001  1.500000e+000  2.281162e+000
    endloop
  endfacet
  facet normal  6.135177e-001  0.000000e+000  7.896810e-001
    outer loop
      vertex  1.528577e+001 -1.500000e+000  2.281162e+000
      vertex  1.528577e+001  1.500000e+000  2.281162e+000
      vertex  1.339815e+001 -1.500000e+000  3.747689e+000
    endloop
  endfacet
  facet normal  6.135177e-001  -0.000000e+000  7.896810e-001
    outer loop
      vertex  1.339815e+001 -1.500000e+000  3.747689e+000
      vertex  1.528577e+001  1.500000e+000  2.281162e+000
      vertex  1.339815e+001  1.500000e+000  3.747689e+000
    endloop
  endfacet
endsolid CATIA STL
