solid CATIA STL
  facet normal -1.000000e+000  0.000000e+000  0.000000e+000
    outer loop
      vertex -3.000000e+000 -7.000000e+000  2.015000e+001
      vertex -3.000000e+000 -1.900000e+001  2.446410e+001
      vertex -3.000000e+000 -1.700000e+001  2.500000e+001
    endloop
  endfacet
  facet normal -1.000000e+000  0.000000e+000  -0.000000e+000
    outer loop
      vertex -3.000000e+000 -2.100000e+001  2.100000e+001
      vertex -3.000000e+000 -2.046410e+001  2.300000e+001
      vertex -3.000000e+000 -1.900000e+001  2.446410e+001
    endloop
  endfacet
  facet normal -1.000000e+000  0.000000e+000  -0.000000e+000
    outer loop
      vertex -3.000000e+000 -2.100000e+001  2.100000e+001
      vertex -3.000000e+000 -1.900000e+001  2.446410e+001
      vertex -3.000000e+000 -7.000000e+000  2.015000e+001
    endloop
  endfacet
  facet normal -1.000000e+000  -0.000000e+000  0.000000e+000
    outer loop
      vertex -3.000000e+000 -2.100000e+001  2.100000e+001
      vertex -3.000000e+000 -7.000000e+000  2.015000e+001
      vertex -3.000000e+000 -8.520280e+000  1.952028e+001
    endloop
  endfacet
  facet normal -1.000000e+000  -0.000000e+000  0.000000e+000
    outer loop
      vertex -3.000000e+000 -2.100000e+001  2.100000e+001
      vertex -3.000000e+000 -8.520280e+000  1.952028e+001
      vertex -3.000000e+000 -2.100000e+001  5.000000e-001
    endloop
  endfacet
  facet normal -9.999999e-001  0.000000e+000  0.000000e+000
    outer loop
      vertex -3.000000e+000 -2.100000e+001  5.000000e-001
      vertex -3.000000e+000 -8.520280e+000  1.952028e+001
      vertex -3.000000e+000 -9.150000e+000  1.800000e+001
    endloop
  endfacet
  facet normal -1.000000e+000  0.000000e+000  -0.000000e+000
    outer loop
      vertex -3.000000e+000 -2.100000e+001  5.000000e-001
      vertex -3.000000e+000 -9.150000e+000  1.800000e+001
      vertex -3.000000e+000 -8.520280e+000  1.647972e+001
    endloop
  endfacet
  facet normal -1.000000e+000  0.000000e+000  -0.000000e+000
    outer loop
      vertex -3.000000e+000 -2.100000e+001  5.000000e-001
      vertex -3.000000e+000 -8.520280e+000  1.647972e+001
      vertex -3.000000e+000 -7.000000e+000  1.585000e+001
    endloop
  endfacet
  facet normal -1.000000e+000  0.000000e+000  0.000000e+000
    outer loop
      vertex -3.000000e+000 -2.100000e+001  5.000000e-001
      vertex -3.000000e+000 -7.000000e+000  1.585000e+001
      vertex -3.000000e+000 -2.050000e+001  0.000000e+000
    endloop
  endfacet
  facet normal -1.000000e+000  0.000000e+000  0.000000e+000
    outer loop
      vertex -3.000000e+000 -2.100000e+001  5.000000e-001
      vertex -3.000000e+000 -2.050000e+001  0.000000e+000
      vertex -3.000000e+000 -2.085355e+001  1.464466e-001
    endloop
  endfacet
  facet normal -1.000000e+000  0.000000e+000  0.000000e+000
    outer loop
      vertex -3.000000e+000  7.000000e+000  2.015000e+001
      vertex -3.000000e+000  5.479721e+000  1.952028e+001
      vertex -3.000000e+000 -5.479721e+000  1.952028e+001
    endloop
  endfacet
  facet normal -1.000000e+000  0.000000e+000  0.000000e+000
    outer loop
      vertex -3.000000e+000  7.000000e+000  2.015000e+001
      vertex -3.000000e+000 -5.479721e+000  1.952028e+001
      vertex -3.000000e+000 -7.000000e+000  2.015000e+001
    endloop
  endfacet
  facet normal -1.000000e+000  0.000000e+000  0.000000e+000
    outer loop
      vertex -3.000000e+000  7.000000e+000  2.015000e+001
      vertex -3.000000e+000 -7.000000e+000  2.015000e+001
      vertex -3.000000e+000 -1.700000e+001  2.500000e+001
    endloop
  endfacet
  facet normal -1.000000e+000  0.000000e+000  0.000000e+000
    outer loop
      vertex -3.000000e+000  7.000000e+000  2.015000e+001
      vertex -3.000000e+000 -1.700000e+001  2.500000e+001
      vertex -3.000000e+000  1.100000e+001  2.500000e+001
    endloop
  endfacet
  facet normal -1.000000e+000  0.000000e+000  -0.000000e+000
    outer loop
      vertex -3.000000e+000  7.000000e+000  2.015000e+001
      vertex -3.000000e+000  1.100000e+001  2.500000e+001
      vertex -3.000000e+000  1.311263e+001  2.462749e+001
    endloop
  endfacet
  facet normal -1.000000e+000  0.000000e+000  -0.000000e+000
    outer loop
      vertex -3.000000e+000  7.000000e+000  2.015000e+001
      vertex -3.000000e+000  1.311263e+001  2.462749e+001
      vertex -3.000000e+000  1.497044e+001  2.355488e+001
    endloop
  endfacet
  facet normal -1.000000e+000  0.000000e+000  -0.000000e+000
    outer loop
      vertex -3.000000e+000  7.000000e+000  2.015000e+001
      vertex -3.000000e+000  1.497044e+001  2.355488e+001
      vertex -3.000000e+000  1.634937e+001  2.191154e+001
    endloop
  endfacet
  facet normal -1.000000e+000  0.000000e+000  0.000000e+000
    outer loop
      vertex -3.000000e+000  7.000000e+000  2.015000e+001
      vertex -3.000000e+000  1.634937e+001  2.191154e+001
      vertex -3.000000e+000  8.520280e+000  1.952028e+001
    endloop
  endfacet
  facet normal -1.000000e+000  0.000000e+000  0.000000e+000
    outer loop
      vertex -3.000000e+000  2.856699e+001  7.500000e-001
      vertex -3.000000e+000  7.000000e+000  1.585000e+001
      vertex -3.000000e+000  8.520280e+000  1.647972e+001
    endloop
  endfacet
  facet normal -1.000000e+000  0.000000e+000  0.000000e+000
    outer loop
      vertex -3.000000e+000  2.856699e+001  7.500000e-001
      vertex -3.000000e+000  8.520280e+000  1.647972e+001
      vertex -3.000000e+000  9.150000e+000  1.800000e+001
    endloop
  endfacet
  facet normal -1.000000e+000  0.000000e+000  0.000000e+000
    outer loop
      vertex -3.000000e+000  2.856699e+001  7.500000e-001
      vertex -3.000000e+000  9.150000e+000  1.800000e+001
      vertex -3.000000e+000  8.520280e+000  1.952028e+001
    endloop
  endfacet
  facet normal -1.000000e+000  0.000000e+000  0.000000e+000
    outer loop
      vertex -3.000000e+000  2.856699e+001  7.500000e-001
      vertex -3.000000e+000  8.520280e+000  1.952028e+001
      vertex -3.000000e+000  1.634937e+001  2.191154e+001
    endloop
  endfacet
  facet normal -1.000000e+000  0.000000e+000  0.000000e+000
    outer loop
      vertex -3.000000e+000  2.862638e+001  4.131759e-001
      vertex -3.000000e+000  2.845537e+001  1.169778e-001
      vertex -3.000000e+000  2.856699e+001  7.500000e-001
    endloop
  endfacet
  facet normal -9.999999e-001  -0.000000e+000  0.000000e+000
    outer loop
      vertex -3.000000e+000  2.856699e+001  7.500000e-001
      vertex -3.000000e+000  2.845537e+001  1.169778e-001
      vertex -3.000000e+000  7.000000e+000  1.585000e+001
    endloop
  endfacet
  facet normal -1.000000e+000  0.000000e+000  0.000000e+000
    outer loop
      vertex -3.000000e+000  2.845537e+001  1.169778e-001
      vertex -3.000000e+000  2.813397e+001  0.000000e+000
      vertex -3.000000e+000  7.000000e+000  1.585000e+001
    endloop
  endfacet
  facet normal -1.000000e+000  0.000000e+000  -0.000000e+000
    outer loop
      vertex -3.000000e+000  7.000000e+000  1.585000e+001
      vertex -3.000000e+000  2.813397e+001  0.000000e+000
      vertex -3.000000e+000 -2.050000e+001  0.000000e+000
    endloop
  endfacet
  facet normal -1.000000e+000  0.000000e+000  -0.000000e+000
    outer loop
      vertex -3.000000e+000 -2.050000e+001  0.000000e+000
      vertex -3.000000e+000 -7.000000e+000  1.585000e+001
      vertex -3.000000e+000  7.000000e+000  1.585000e+001
    endloop
  endfacet
  facet normal -1.000000e+000  0.000000e+000  0.000000e+000
    outer loop
      vertex -3.000000e+000  7.000000e+000  1.585000e+001
      vertex -3.000000e+000 -7.000000e+000  1.585000e+001
      vertex -3.000000e+000 -5.479721e+000  1.647972e+001
    endloop
  endfacet
  facet normal -1.000000e+000  0.000000e+000  0.000000e+000
    outer loop
      vertex -3.000000e+000  7.000000e+000  1.585000e+001
      vertex -3.000000e+000 -5.479721e+000  1.647972e+001
      vertex -3.000000e+000  5.479721e+000  1.647972e+001
    endloop
  endfacet
  facet normal -1.000000e+000  0.000000e+000  0.000000e+000
    outer loop
      vertex -3.000000e+000  5.479721e+000  1.647972e+001
      vertex -3.000000e+000 -5.479721e+000  1.647972e+001
      vertex -3.000000e+000 -4.850000e+000  1.800000e+001
    endloop
  endfacet
  facet normal -1.000000e+000  0.000000e+000  0.000000e+000
    outer loop
      vertex -3.000000e+000  5.479721e+000  1.647972e+001
      vertex -3.000000e+000 -4.850000e+000  1.800000e+001
      vertex -3.000000e+000  4.850000e+000  1.800000e+001
    endloop
  endfacet
  facet normal -1.000000e+000  0.000000e+000  0.000000e+000
    outer loop
      vertex -3.000000e+000  4.850000e+000  1.800000e+001
      vertex -3.000000e+000 -4.850000e+000  1.800000e+001
      vertex -3.000000e+000 -5.479721e+000  1.952028e+001
    endloop
  endfacet
  facet normal -1.000000e+000  0.000000e+000  0.000000e+000
    outer loop
      vertex -3.000000e+000  4.850000e+000  1.800000e+001
      vertex -3.000000e+000 -5.479721e+000  1.952028e+001
      vertex -3.000000e+000  5.479721e+000  1.952028e+001
    endloop
  endfacet
  facet normal  1.000000e+000  -0.000000e+000  0.000000e+000
    outer loop
      vertex  0.000000e+000 -1.700000e+001  2.500000e+001
      vertex  0.000000e+000 -1.900000e+001  2.446410e+001
      vertex  0.000000e+000 -7.000000e+000  2.015000e+001
    endloop
  endfacet
  facet normal  1.000000e+000  0.000000e+000  0.000000e+000
    outer loop
      vertex  0.000000e+000 -2.100000e+001  2.100000e+001
      vertex  0.000000e+000 -2.100000e+001  5.000000e-001
      vertex  0.000000e+000 -8.520280e+000  1.952028e+001
    endloop
  endfacet
  facet normal  1.000000e+000  0.000000e+000  -0.000000e+000
    outer loop
      vertex  0.000000e+000 -2.100000e+001  2.100000e+001
      vertex  0.000000e+000 -8.520280e+000  1.952028e+001
      vertex  0.000000e+000 -7.000000e+000  2.015000e+001
    endloop
  endfacet
  facet normal  1.000000e+000  0.000000e+000  0.000000e+000
    outer loop
      vertex  0.000000e+000 -2.100000e+001  2.100000e+001
      vertex  0.000000e+000 -7.000000e+000  2.015000e+001
      vertex  0.000000e+000 -1.900000e+001  2.446410e+001
    endloop
  endfacet
  facet normal  1.000000e+000  0.000000e+000  0.000000e+000
    outer loop
      vertex  0.000000e+000 -2.100000e+001  2.100000e+001
      vertex  0.000000e+000 -1.900000e+001  2.446410e+001
      vertex  0.000000e+000 -2.046410e+001  2.300000e+001
    endloop
  endfacet
  facet normal  1.000000e+000  -0.000000e+000  -0.000000e+000
    outer loop
      vertex  0.000000e+000 -2.100000e+001  5.000000e-001
      vertex  0.000000e+000 -2.085355e+001  1.464466e-001
      vertex  0.000000e+000 -2.050000e+001  0.000000e+000
    endloop
  endfacet
  facet normal  1.000000e+000  0.000000e+000  -0.000000e+000
    outer loop
      vertex  0.000000e+000 -2.100000e+001  5.000000e-001
      vertex  0.000000e+000 -2.050000e+001  0.000000e+000
      vertex  0.000000e+000 -7.000000e+000  1.585000e+001
    endloop
  endfacet
  facet normal  1.000000e+000  0.000000e+000  0.000000e+000
    outer loop
      vertex  0.000000e+000 -2.100000e+001  5.000000e-001
      vertex  0.000000e+000 -7.000000e+000  1.585000e+001
      vertex  0.000000e+000 -8.520280e+000  1.647972e+001
    endloop
  endfacet
  facet normal  1.000000e+000  0.000000e+000  0.000000e+000
    outer loop
      vertex  0.000000e+000 -2.100000e+001  5.000000e-001
      vertex  0.000000e+000 -8.520280e+000  1.647972e+001
      vertex  0.000000e+000 -9.150000e+000  1.800000e+001
    endloop
  endfacet
  facet normal  9.999999e-001  0.000000e+000  -0.000000e+000
    outer loop
      vertex  0.000000e+000 -2.100000e+001  5.000000e-001
      vertex  0.000000e+000 -9.150000e+000  1.800000e+001
      vertex  0.000000e+000 -8.520280e+000  1.952028e+001
    endloop
  endfacet
  facet normal  1.000000e+000  0.000000e+000  -0.000000e+000
    outer loop
      vertex  0.000000e+000  7.000000e+000  2.015000e+001
      vertex  0.000000e+000  8.520280e+000  1.952028e+001
      vertex  0.000000e+000  1.634937e+001  2.191154e+001
    endloop
  endfacet
  facet normal  1.000000e+000  0.000000e+000  0.000000e+000
    outer loop
      vertex  0.000000e+000  7.000000e+000  2.015000e+001
      vertex  0.000000e+000  1.634937e+001  2.191154e+001
      vertex  0.000000e+000  1.497044e+001  2.355488e+001
    endloop
  endfacet
  facet normal  1.000000e+000  0.000000e+000  0.000000e+000
    outer loop
      vertex  0.000000e+000  7.000000e+000  2.015000e+001
      vertex  0.000000e+000  1.497044e+001  2.355488e+001
      vertex  0.000000e+000  1.311263e+001  2.462749e+001
    endloop
  endfacet
  facet normal  1.000000e+000  0.000000e+000  0.000000e+000
    outer loop
      vertex  0.000000e+000  7.000000e+000  2.015000e+001
      vertex  0.000000e+000  1.311263e+001  2.462749e+001
      vertex  0.000000e+000  1.100000e+001  2.500000e+001
    endloop
  endfacet
  facet normal  1.000000e+000  0.000000e+000  0.000000e+000
    outer loop
      vertex  0.000000e+000  7.000000e+000  2.015000e+001
      vertex  0.000000e+000  1.100000e+001  2.500000e+001
      vertex  0.000000e+000 -1.700000e+001  2.500000e+001
    endloop
  endfacet
  facet normal  1.000000e+000  0.000000e+000  0.000000e+000
    outer loop
      vertex  0.000000e+000  7.000000e+000  2.015000e+001
      vertex  0.000000e+000 -1.700000e+001  2.500000e+001
      vertex  0.000000e+000 -7.000000e+000  2.015000e+001
    endloop
  endfacet
  facet normal  1.000000e+000  -0.000000e+000  0.000000e+000
    outer loop
      vertex  0.000000e+000  7.000000e+000  2.015000e+001
      vertex  0.000000e+000 -7.000000e+000  2.015000e+001
      vertex  0.000000e+000 -5.479721e+000  1.952028e+001
    endloop
  endfacet
  facet normal  1.000000e+000  0.000000e+000  0.000000e+000
    outer loop
      vertex  0.000000e+000  7.000000e+000  2.015000e+001
      vertex  0.000000e+000 -5.479721e+000  1.952028e+001
      vertex  0.000000e+000  5.479721e+000  1.952028e+001
    endloop
  endfacet
  facet normal  1.000000e+000  0.000000e+000  0.000000e+000
    outer loop
      vertex  0.000000e+000  2.856699e+001  7.500000e-001
      vertex  0.000000e+000  1.634937e+001  2.191154e+001
      vertex  0.000000e+000  8.520280e+000  1.952028e+001
    endloop
  endfacet
  facet normal  1.000000e+000  0.000000e+000  0.000000e+000
    outer loop
      vertex  0.000000e+000  2.856699e+001  7.500000e-001
      vertex  0.000000e+000  8.520280e+000  1.952028e+001
      vertex  0.000000e+000  9.150000e+000  1.800000e+001
    endloop
  endfacet
  facet normal  1.000000e+000  0.000000e+000  0.000000e+000
    outer loop
      vertex  0.000000e+000  2.856699e+001  7.500000e-001
      vertex  0.000000e+000  9.150000e+000  1.800000e+001
      vertex  0.000000e+000  8.520280e+000  1.647972e+001
    endloop
  endfacet
  facet normal  1.000000e+000  0.000000e+000  0.000000e+000
    outer loop
      vertex  0.000000e+000  2.856699e+001  7.500000e-001
      vertex  0.000000e+000  8.520280e+000  1.647972e+001
      vertex  0.000000e+000  7.000000e+000  1.585000e+001
    endloop
  endfacet
  facet normal  1.000000e+000  0.000000e+000  0.000000e+000
    outer loop
      vertex  0.000000e+000  2.862638e+001  4.131759e-001
      vertex  0.000000e+000  2.856699e+001  7.500000e-001
      vertex  0.000000e+000  2.845537e+001  1.169778e-001
    endloop
  endfacet
  facet normal  9.999999e-001  0.000000e+000  -0.000000e+000
    outer loop
      vertex  0.000000e+000  2.845537e+001  1.169778e-001
      vertex  0.000000e+000  2.856699e+001  7.500000e-001
      vertex  0.000000e+000  7.000000e+000  1.585000e+001
    endloop
  endfacet
  facet normal  1.000000e+000  0.000000e+000  0.000000e+000
    outer loop
      vertex  0.000000e+000  2.845537e+001  1.169778e-001
      vertex  0.000000e+000  7.000000e+000  1.585000e+001
      vertex  0.000000e+000  2.813397e+001  0.000000e+000
    endloop
  endfacet
  facet normal  9.999999e-001  0.000000e+000  0.000000e+000
    outer loop
      vertex  0.000000e+000  2.813397e+001  0.000000e+000
      vertex  0.000000e+000  7.000000e+000  1.585000e+001
      vertex  0.000000e+000 -2.050000e+001  0.000000e+000
    endloop
  endfacet
  facet normal  1.000000e+000  -0.000000e+000  0.000000e+000
    outer loop
      vertex  0.000000e+000  5.479721e+000  1.952028e+001
      vertex  0.000000e+000 -5.479721e+000  1.952028e+001
      vertex  0.000000e+000  4.850000e+000  1.800000e+001
    endloop
  endfacet
  facet normal  1.000000e+000  0.000000e+000  0.000000e+000
    outer loop
      vertex  0.000000e+000  4.850000e+000  1.800000e+001
      vertex  0.000000e+000 -5.479721e+000  1.952028e+001
      vertex  0.000000e+000 -4.850000e+000  1.800000e+001
    endloop
  endfacet
  facet normal  1.000000e+000  -0.000000e+000  0.000000e+000
    outer loop
      vertex  0.000000e+000  4.850000e+000  1.800000e+001
      vertex  0.000000e+000 -4.850000e+000  1.800000e+001
      vertex  0.000000e+000  5.479721e+000  1.647972e+001
    endloop
  endfacet
  facet normal  1.000000e+000  0.000000e+000  0.000000e+000
    outer loop
      vertex  0.000000e+000  5.479721e+000  1.647972e+001
      vertex  0.000000e+000 -4.850000e+000  1.800000e+001
      vertex  0.000000e+000 -5.479721e+000  1.647972e+001
    endloop
  endfacet
  facet normal  1.000000e+000  -0.000000e+000  0.000000e+000
    outer loop
      vertex  0.000000e+000  5.479721e+000  1.647972e+001
      vertex  0.000000e+000 -5.479721e+000  1.647972e+001
      vertex  0.000000e+000  7.000000e+000  1.585000e+001
    endloop
  endfacet
  facet normal  1.000000e+000  0.000000e+000  0.000000e+000
    outer loop
      vertex  0.000000e+000  7.000000e+000  1.585000e+001
      vertex  0.000000e+000 -5.479721e+000  1.647972e+001
      vertex  0.000000e+000 -7.000000e+000  1.585000e+001
    endloop
  endfacet
  facet normal  1.000000e+000  -0.000000e+000  0.000000e+000
    outer loop
      vertex  0.000000e+000  7.000000e+000  1.585000e+001
      vertex  0.000000e+000 -7.000000e+000  1.585000e+001
      vertex  0.000000e+000 -2.050000e+001  0.000000e+000
    endloop
  endfacet
  facet normal  0.000000e+000  0.000000e+000 -1.000000e+000
    outer loop
      vertex -3.000000e+000 -2.050000e+001  0.000000e+000
      vertex -3.000000e+000  2.813397e+001  0.000000e+000
      vertex  0.000000e+000 -2.050000e+001  0.000000e+000
    endloop
  endfacet
  facet normal  0.000000e+000  0.000000e+000 -1.000000e+000
    outer loop
      vertex  0.000000e+000 -2.050000e+001  0.000000e+000
      vertex -3.000000e+000  2.813397e+001  0.000000e+000
      vertex  0.000000e+000  2.813397e+001  0.000000e+000
    endloop
  endfacet
  facet normal  0.000000e+000 -9.999999e-001  0.000000e+000
    outer loop
      vertex -3.000000e+000 -2.100000e+001  2.100000e+001
      vertex -3.000000e+000 -2.100000e+001  5.000000e-001
      vertex  0.000000e+000 -2.100000e+001  2.100000e+001
    endloop
  endfacet
  facet normal  0.000000e+000 -9.999999e-001  -0.000000e+000
    outer loop
      vertex  0.000000e+000 -2.100000e+001  2.100000e+001
      vertex -3.000000e+000 -2.100000e+001  5.000000e-001
      vertex  0.000000e+000 -2.100000e+001  5.000000e-001
    endloop
  endfacet
  facet normal  0.000000e+000 -9.238799e-001 -3.826826e-001
    outer loop
      vertex  0.000000e+000 -2.100000e+001  5.000000e-001
      vertex -3.000000e+000 -2.100000e+001  5.000000e-001
      vertex  0.000000e+000 -2.085355e+001  1.464466e-001
    endloop
  endfacet
  facet normal  -0.000000e+000 -9.238799e-001 -3.826826e-001
    outer loop
      vertex  0.000000e+000 -2.085355e+001  1.464466e-001
      vertex -3.000000e+000 -2.100000e+001  5.000000e-001
      vertex -3.000000e+000 -2.085355e+001  1.464466e-001
    endloop
  endfacet
  facet normal  0.000000e+000 -3.826831e-001 -9.238797e-001
    outer loop
      vertex  0.000000e+000 -2.085355e+001  1.464466e-001
      vertex -3.000000e+000 -2.085355e+001  1.464466e-001
      vertex  0.000000e+000 -2.050000e+001  0.000000e+000
    endloop
  endfacet
  facet normal  -0.000000e+000 -3.826831e-001 -9.238797e-001
    outer loop
      vertex  0.000000e+000 -2.050000e+001  0.000000e+000
      vertex -3.000000e+000 -2.085355e+001  1.464466e-001
      vertex -3.000000e+000 -2.050000e+001  0.000000e+000
    endloop
  endfacet
  facet normal  0.000000e+000  8.660254e-001  5.000001e-001
    outer loop
      vertex -3.000000e+000  2.856699e+001  7.500000e-001
      vertex -3.000000e+000  1.634937e+001  2.191154e+001
      vertex  0.000000e+000  2.856699e+001  7.500000e-001
    endloop
  endfacet
  facet normal  0.000000e+000  8.660254e-001  5.000001e-001
    outer loop
      vertex  0.000000e+000  2.856699e+001  7.500000e-001
      vertex -3.000000e+000  1.634937e+001  2.191154e+001
      vertex  0.000000e+000  1.634937e+001  2.191154e+001
    endloop
  endfacet
  facet normal  0.000000e+000  3.420200e-001 -9.396927e-001
    outer loop
      vertex  0.000000e+000  2.813397e+001  0.000000e+000
      vertex -3.000000e+000  2.813397e+001  0.000000e+000
      vertex  0.000000e+000  2.845537e+001  1.169778e-001
    endloop
  endfacet
  facet normal  0.000000e+000  3.420200e-001 -9.396927e-001
    outer loop
      vertex  0.000000e+000  2.845537e+001  1.169778e-001
      vertex -3.000000e+000  2.813397e+001  0.000000e+000
      vertex -3.000000e+000  2.845537e+001  1.169778e-001
    endloop
  endfacet
  facet normal  0.000000e+000  8.660243e-001 -5.000020e-001
    outer loop
      vertex  0.000000e+000  2.845537e+001  1.169778e-001
      vertex -3.000000e+000  2.845537e+001  1.169778e-001
      vertex  0.000000e+000  2.862638e+001  4.131759e-001
    endloop
  endfacet
  facet normal  0.000000e+000  8.660243e-001 -5.000020e-001
    outer loop
      vertex  0.000000e+000  2.862638e+001  4.131759e-001
      vertex -3.000000e+000  2.845537e+001  1.169778e-001
      vertex -3.000000e+000  2.862638e+001  4.131759e-001
    endloop
  endfacet
  facet normal  -0.000000e+000  9.848079e-001  1.736477e-001
    outer loop
      vertex  0.000000e+000  2.862638e+001  4.131759e-001
      vertex -3.000000e+000  2.862638e+001  4.131759e-001
      vertex  0.000000e+000  2.856699e+001  7.500000e-001
    endloop
  endfacet
  facet normal  0.000000e+000  9.848079e-001  1.736477e-001
    outer loop
      vertex  0.000000e+000  2.856699e+001  7.500000e-001
      vertex -3.000000e+000  2.862638e+001  4.131759e-001
      vertex -3.000000e+000  2.856699e+001  7.500000e-001
    endloop
  endfacet
  facet normal  0.000000e+000  3.826836e-001 -9.238795e-001
    outer loop
      vertex -3.000000e+000  7.000000e+000  2.015000e+001
      vertex  0.000000e+000  5.479721e+000  1.952028e+001
      vertex -3.000000e+000  5.479721e+000  1.952028e+001
    endloop
  endfacet
  facet normal  0.000000e+000  9.238795e-001 -3.826838e-001
    outer loop
      vertex -3.000000e+000  5.479721e+000  1.952028e+001
      vertex  0.000000e+000  5.479721e+000  1.952028e+001
      vertex  0.000000e+000  4.850000e+000  1.800000e+001
    endloop
  endfacet
  facet normal  0.000000e+000  9.238795e-001 -3.826838e-001
    outer loop
      vertex -3.000000e+000  5.479721e+000  1.952028e+001
      vertex  0.000000e+000  4.850000e+000  1.800000e+001
      vertex -3.000000e+000  4.850000e+000  1.800000e+001
    endloop
  endfacet
  facet normal  0.000000e+000  3.826836e-001 -9.238795e-001
    outer loop
      vertex  0.000000e+000  5.479721e+000  1.952028e+001
      vertex -3.000000e+000  7.000000e+000  2.015000e+001
      vertex  0.000000e+000  7.000000e+000  2.015000e+001
    endloop
  endfacet
  facet normal  -0.000000e+000 -3.826835e-001 -9.238795e-001
    outer loop
      vertex  0.000000e+000  7.000000e+000  2.015000e+001
      vertex -3.000000e+000  7.000000e+000  2.015000e+001
      vertex -3.000000e+000  8.520280e+000  1.952028e+001
    endloop
  endfacet
  facet normal  0.000000e+000 -3.826835e-001 -9.238795e-001
    outer loop
      vertex  0.000000e+000  7.000000e+000  2.015000e+001
      vertex -3.000000e+000  8.520280e+000  1.952028e+001
      vertex  0.000000e+000  8.520280e+000  1.952028e+001
    endloop
  endfacet
  facet normal  -0.000000e+000 -9.238796e-001 -3.826832e-001
    outer loop
      vertex  0.000000e+000  8.520280e+000  1.952028e+001
      vertex -3.000000e+000  8.520280e+000  1.952028e+001
      vertex -3.000000e+000  9.150000e+000  1.800000e+001
    endloop
  endfacet
  facet normal  0.000000e+000 -9.238796e-001 -3.826832e-001
    outer loop
      vertex  0.000000e+000  8.520280e+000  1.952028e+001
      vertex -3.000000e+000  9.150000e+000  1.800000e+001
      vertex  0.000000e+000  9.150000e+000  1.800000e+001
    endloop
  endfacet
  facet normal  0.000000e+000 -3.826835e-001  9.238795e-001
    outer loop
      vertex -3.000000e+000  7.000000e+000  1.585000e+001
      vertex  0.000000e+000  8.520280e+000  1.647972e+001
      vertex -3.000000e+000  8.520280e+000  1.647972e+001
    endloop
  endfacet
  facet normal  0.000000e+000 -9.238796e-001  3.826832e-001
    outer loop
      vertex -3.000000e+000  8.520280e+000  1.647972e+001
      vertex  0.000000e+000  8.520280e+000  1.647972e+001
      vertex  0.000000e+000  9.150000e+000  1.800000e+001
    endloop
  endfacet
  facet normal  0.000000e+000 -9.238796e-001  3.826832e-001
    outer loop
      vertex -3.000000e+000  8.520280e+000  1.647972e+001
      vertex  0.000000e+000  9.150000e+000  1.800000e+001
      vertex -3.000000e+000  9.150000e+000  1.800000e+001
    endloop
  endfacet
  facet normal  0.000000e+000 -3.826835e-001  9.238795e-001
    outer loop
      vertex  0.000000e+000  8.520280e+000  1.647972e+001
      vertex -3.000000e+000  7.000000e+000  1.585000e+001
      vertex  0.000000e+000  7.000000e+000  1.585000e+001
    endloop
  endfacet
  facet normal  0.000000e+000  3.826836e-001  9.238795e-001
    outer loop
      vertex  0.000000e+000  7.000000e+000  1.585000e+001
      vertex -3.000000e+000  7.000000e+000  1.585000e+001
      vertex -3.000000e+000  5.479721e+000  1.647972e+001
    endloop
  endfacet
  facet normal  -0.000000e+000  3.826836e-001  9.238795e-001
    outer loop
      vertex  0.000000e+000  7.000000e+000  1.585000e+001
      vertex -3.000000e+000  5.479721e+000  1.647972e+001
      vertex  0.000000e+000  5.479721e+000  1.647972e+001
    endloop
  endfacet
  facet normal  0.000000e+000  9.238795e-001  3.826838e-001
    outer loop
      vertex  0.000000e+000  5.479721e+000  1.647972e+001
      vertex -3.000000e+000  5.479721e+000  1.647972e+001
      vertex -3.000000e+000  4.850000e+000  1.800000e+001
    endloop
  endfacet
  facet normal  -0.000000e+000  9.238795e-001  3.826838e-001
    outer loop
      vertex  0.000000e+000  5.479721e+000  1.647972e+001
      vertex -3.000000e+000  4.850000e+000  1.800000e+001
      vertex  0.000000e+000  4.850000e+000  1.800000e+001
    endloop
  endfacet
  facet normal  0.000000e+000  3.826835e-001 -9.238795e-001
    outer loop
      vertex -3.000000e+000 -7.000000e+000  2.015000e+001
      vertex  0.000000e+000 -8.520280e+000  1.952028e+001
      vertex -3.000000e+000 -8.520280e+000  1.952028e+001
    endloop
  endfacet
  facet normal  0.000000e+000  9.238796e-001 -3.826832e-001
    outer loop
      vertex -3.000000e+000 -8.520280e+000  1.952028e+001
      vertex  0.000000e+000 -8.520280e+000  1.952028e+001
      vertex  0.000000e+000 -9.150000e+000  1.800000e+001
    endloop
  endfacet
  facet normal  0.000000e+000  9.238796e-001 -3.826832e-001
    outer loop
      vertex -3.000000e+000 -8.520280e+000  1.952028e+001
      vertex  0.000000e+000 -9.150000e+000  1.800000e+001
      vertex -3.000000e+000 -9.150000e+000  1.800000e+001
    endloop
  endfacet
  facet normal  0.000000e+000  3.826835e-001 -9.238795e-001
    outer loop
      vertex  0.000000e+000 -8.520280e+000  1.952028e+001
      vertex -3.000000e+000 -7.000000e+000  2.015000e+001
      vertex  0.000000e+000 -7.000000e+000  2.015000e+001
    endloop
  endfacet
  facet normal  -0.000000e+000 -3.826836e-001 -9.238795e-001
    outer loop
      vertex  0.000000e+000 -7.000000e+000  2.015000e+001
      vertex -3.000000e+000 -7.000000e+000  2.015000e+001
      vertex -3.000000e+000 -5.479721e+000  1.952028e+001
    endloop
  endfacet
  facet normal  0.000000e+000 -3.826836e-001 -9.238795e-001
    outer loop
      vertex  0.000000e+000 -7.000000e+000  2.015000e+001
      vertex -3.000000e+000 -5.479721e+000  1.952028e+001
      vertex  0.000000e+000 -5.479721e+000  1.952028e+001
    endloop
  endfacet
  facet normal  -0.000000e+000 -9.238795e-001 -3.826838e-001
    outer loop
      vertex  0.000000e+000 -5.479721e+000  1.952028e+001
      vertex -3.000000e+000 -5.479721e+000  1.952028e+001
      vertex -3.000000e+000 -4.850000e+000  1.800000e+001
    endloop
  endfacet
  facet normal  0.000000e+000 -9.238795e-001 -3.826838e-001
    outer loop
      vertex  0.000000e+000 -5.479721e+000  1.952028e+001
      vertex -3.000000e+000 -4.850000e+000  1.800000e+001
      vertex  0.000000e+000 -4.850000e+000  1.800000e+001
    endloop
  endfacet
  facet normal  0.000000e+000 -3.826836e-001  9.238795e-001
    outer loop
      vertex -3.000000e+000 -7.000000e+000  1.585000e+001
      vertex  0.000000e+000 -5.479721e+000  1.647972e+001
      vertex -3.000000e+000 -5.479721e+000  1.647972e+001
    endloop
  endfacet
  facet normal  0.000000e+000 -9.238795e-001  3.826838e-001
    outer loop
      vertex -3.000000e+000 -5.479721e+000  1.647972e+001
      vertex  0.000000e+000 -5.479721e+000  1.647972e+001
      vertex  0.000000e+000 -4.850000e+000  1.800000e+001
    endloop
  endfacet
  facet normal  0.000000e+000 -9.238795e-001  3.826838e-001
    outer loop
      vertex -3.000000e+000 -5.479721e+000  1.647972e+001
      vertex  0.000000e+000 -4.850000e+000  1.800000e+001
      vertex -3.000000e+000 -4.850000e+000  1.800000e+001
    endloop
  endfacet
  facet normal  0.000000e+000 -3.826836e-001  9.238795e-001
    outer loop
      vertex  0.000000e+000 -5.479721e+000  1.647972e+001
      vertex -3.000000e+000 -7.000000e+000  1.585000e+001
      vertex  0.000000e+000 -7.000000e+000  1.585000e+001
    endloop
  endfacet
  facet normal  0.000000e+000  3.826835e-001  9.238795e-001
    outer loop
      vertex  0.000000e+000 -7.000000e+000  1.585000e+001
      vertex -3.000000e+000 -7.000000e+000  1.585000e+001
      vertex -3.000000e+000 -8.520280e+000  1.647972e+001
    endloop
  endfacet
  facet normal  -0.000000e+000  3.826835e-001  9.238795e-001
    outer loop
      vertex  0.000000e+000 -7.000000e+000  1.585000e+001
      vertex -3.000000e+000 -8.520280e+000  1.647972e+001
      vertex  0.000000e+000 -8.520280e+000  1.647972e+001
    endloop
  endfacet
  facet normal  0.000000e+000  9.238796e-001  3.826832e-001
    outer loop
      vertex  0.000000e+000 -8.520280e+000  1.647972e+001
      vertex -3.000000e+000 -8.520280e+000  1.647972e+001
      vertex -3.000000e+000 -9.150000e+000  1.800000e+001
    endloop
  endfacet
  facet normal  -0.000000e+000  9.238796e-001  3.826832e-001
    outer loop
      vertex  0.000000e+000 -8.520280e+000  1.647972e+001
      vertex -3.000000e+000 -9.150000e+000  1.800000e+001
      vertex  0.000000e+000 -9.150000e+000  1.800000e+001
    endloop
  endfacet
  facet normal  0.000000e+000 -9.659259e-001  2.588190e-001
    outer loop
      vertex -3.000000e+000 -2.100000e+001  2.100000e+001
      vertex  0.000000e+000 -2.100000e+001  2.100000e+001
      vertex -3.000000e+000 -2.046410e+001  2.300000e+001
    endloop
  endfacet
  facet normal  0.000000e+000 -9.659259e-001  2.588190e-001
    outer loop
      vertex -3.000000e+000 -2.046410e+001  2.300000e+001
      vertex  0.000000e+000 -2.100000e+001  2.100000e+001
      vertex  0.000000e+000 -2.046410e+001  2.300000e+001
    endloop
  endfacet
  facet normal  0.000000e+000 -7.071068e-001  7.071068e-001
    outer loop
      vertex -3.000000e+000 -2.046410e+001  2.300000e+001
      vertex  0.000000e+000 -2.046410e+001  2.300000e+001
      vertex -3.000000e+000 -1.900000e+001  2.446410e+001
    endloop
  endfacet
  facet normal  0.000000e+000 -7.071068e-001  7.071068e-001
    outer loop
      vertex -3.000000e+000 -1.900000e+001  2.446410e+001
      vertex  0.000000e+000 -2.046410e+001  2.300000e+001
      vertex  0.000000e+000 -1.900000e+001  2.446410e+001
    endloop
  endfacet
  facet normal  0.000000e+000 -2.588190e-001  9.659259e-001
    outer loop
      vertex -3.000000e+000 -1.900000e+001  2.446410e+001
      vertex  0.000000e+000 -1.900000e+001  2.446410e+001
      vertex -3.000000e+000 -1.700000e+001  2.500000e+001
    endloop
  endfacet
  facet normal  0.000000e+000 -2.588190e-001  9.659259e-001
    outer loop
      vertex -3.000000e+000 -1.700000e+001  2.500000e+001
      vertex  0.000000e+000 -1.900000e+001  2.446410e+001
      vertex  0.000000e+000 -1.700000e+001  2.500000e+001
    endloop
  endfacet
  facet normal  0.000000e+000  0.000000e+000  1.000000e+000
    outer loop
      vertex -3.000000e+000  1.100000e+001  2.500000e+001
      vertex -3.000000e+000 -1.700000e+001  2.500000e+001
      vertex  0.000000e+000  1.100000e+001  2.500000e+001
    endloop
  endfacet
  facet normal  0.000000e+000  0.000000e+000  1.000000e+000
    outer loop
      vertex  0.000000e+000  1.100000e+001  2.500000e+001
      vertex -3.000000e+000 -1.700000e+001  2.500000e+001
      vertex  0.000000e+000 -1.700000e+001  2.500000e+001
    endloop
  endfacet
  facet normal  0.000000e+000  1.736479e-001  9.848078e-001
    outer loop
      vertex -3.000000e+000  1.100000e+001  2.500000e+001
      vertex  0.000000e+000  1.100000e+001  2.500000e+001
      vertex -3.000000e+000  1.311263e+001  2.462749e+001
    endloop
  endfacet
  facet normal  -0.000000e+000  1.736479e-001  9.848078e-001
    outer loop
      vertex -3.000000e+000  1.311263e+001  2.462749e+001
      vertex  0.000000e+000  1.100000e+001  2.500000e+001
      vertex  0.000000e+000  1.311263e+001  2.462749e+001
    endloop
  endfacet
  facet normal  0.000000e+000  5.000004e-001  8.660252e-001
    outer loop
      vertex -3.000000e+000  1.311263e+001  2.462749e+001
      vertex  0.000000e+000  1.311263e+001  2.462749e+001
      vertex -3.000000e+000  1.497044e+001  2.355488e+001
    endloop
  endfacet
  facet normal  -0.000000e+000  5.000004e-001  8.660252e-001
    outer loop
      vertex -3.000000e+000  1.497044e+001  2.355488e+001
      vertex  0.000000e+000  1.311263e+001  2.462749e+001
      vertex  0.000000e+000  1.497044e+001  2.355488e+001
    endloop
  endfacet
  facet normal  0.000000e+000  7.660442e-001  6.427879e-001
    outer loop
      vertex -3.000000e+000  1.497044e+001  2.355488e+001
      vertex  0.000000e+000  1.497044e+001  2.355488e+001
      vertex -3.000000e+000  1.634937e+001  2.191154e+001
    endloop
  endfacet
  facet normal  -0.000000e+000  7.660442e-001  6.427879e-001
    outer loop
      vertex -3.000000e+000  1.634937e+001  2.191154e+001
      vertex  0.000000e+000  1.497044e+001  2.355488e+001
      vertex  0.000000e+000  1.634937e+001  2.191154e+001
    endloop
  endfacet
endsolid CATIA STL
