solid CATIA STL
  facet normal  1.000000e+000  0.000000e+000  0.000000e+000
    outer loop
      vertex  1.750000e+001 -2.920686e-015 -1.590000e+001
      vertex  1.750000e+001  9.345785e+000 -1.286337e+001
      vertex  1.750000e+001  2.257426e+000 -1.280250e+001
    endloop
  endfacet
  facet normal  9.999999e-001  0.000000e+000  0.000000e+000
    outer loop
      vertex  1.750000e+001  2.257426e+000  1.280250e+001
      vertex  1.750000e+001  9.735621e-016  1.590000e+001
      vertex  1.750000e+001 -2.257426e+000  1.280250e+001
    endloop
  endfacet
  facet normal  9.999999e-001  0.000000e+000  0.000000e+000
    outer loop
      vertex  1.750000e+001 -2.920686e-015 -1.590000e+001
      vertex  1.750000e+001 -9.345785e+000 -1.286337e+001
      vertex  1.750000e+001 -4.913370e+000 -1.512180e+001
    endloop
  endfacet
  facet normal  9.999999e-001  0.000000e+000  -0.000000e+000
    outer loop
      vertex  1.750000e+001 -2.920686e-015 -1.590000e+001
      vertex  1.750000e+001  4.913370e+000 -1.512180e+001
      vertex  1.750000e+001  9.345785e+000 -1.286337e+001
    endloop
  endfacet
  facet normal  1.000000e+000  -0.000000e+000  0.000000e+000
    outer loop
      vertex  1.750000e+001  9.735621e-016  1.590000e+001
      vertex  1.750000e+001 -4.913370e+000  1.512180e+001
      vertex  1.750000e+001 -2.257426e+000  1.280250e+001
    endloop
  endfacet
  facet normal  1.000000e+000  0.000000e+000  0.000000e+000
    outer loop
      vertex  1.750000e+001 -2.257426e+000  1.280250e+001
      vertex  1.750000e+001 -4.913370e+000  1.512180e+001
      vertex  1.750000e+001 -9.345785e+000  1.286337e+001
    endloop
  endfacet
  facet normal  9.999999e-001  0.000000e+000  0.000000e+000
    outer loop
      vertex  1.750000e+001 -2.257426e+000  1.280250e+001
      vertex  1.750000e+001 -9.345785e+000  1.286337e+001
      vertex  1.750000e+001 -6.500000e+000  1.125833e+001
    endloop
  endfacet
  facet normal  1.000000e+000  0.000000e+000  0.000000e+000
    outer loop
      vertex  1.750000e+001 -6.500000e+000  1.125833e+001
      vertex  1.750000e+001 -9.345785e+000  1.286337e+001
      vertex  1.750000e+001 -1.286337e+001  9.345785e+000
    endloop
  endfacet
  facet normal  1.000000e+000  -0.000000e+000  0.000000e+000
    outer loop
      vertex  1.750000e+001 -6.500000e+000  1.125833e+001
      vertex  1.750000e+001 -1.286337e+001  9.345785e+000
      vertex  1.750000e+001 -9.958578e+000  8.356239e+000
    endloop
  endfacet
  facet normal  9.999999e-001  0.000000e+000  0.000000e+000
    outer loop
      vertex  1.750000e+001  4.913370e+000  1.512180e+001
      vertex  1.750000e+001  9.735621e-016  1.590000e+001
      vertex  1.750000e+001  9.345785e+000  1.286337e+001
    endloop
  endfacet
  facet normal  1.000000e+000  0.000000e+000  0.000000e+000
    outer loop
      vertex  1.750000e+001  9.345785e+000  1.286337e+001
      vertex  1.750000e+001  9.735621e-016  1.590000e+001
      vertex  1.750000e+001  2.257426e+000  1.280250e+001
    endloop
  endfacet
  facet normal  1.000000e+000  -0.000000e+000  0.000000e+000
    outer loop
      vertex  1.750000e+001  9.345785e+000  1.286337e+001
      vertex  1.750000e+001  2.257426e+000  1.280250e+001
      vertex  1.750000e+001  1.286337e+001  9.345785e+000
    endloop
  endfacet
  facet normal  1.000000e+000  0.000000e+000  0.000000e+000
    outer loop
      vertex  1.750000e+001  1.286337e+001  9.345785e+000
      vertex  1.750000e+001  2.257426e+000  1.280250e+001
      vertex  1.750000e+001  6.500000e+000  1.125833e+001
    endloop
  endfacet
  facet normal  1.000000e+000  0.000000e+000  0.000000e+000
    outer loop
      vertex  1.750000e+001  1.286337e+001  9.345785e+000
      vertex  1.750000e+001  6.500000e+000  1.125833e+001
      vertex  1.750000e+001  9.958578e+000  8.356239e+000
    endloop
  endfacet
  facet normal  9.999999e-001  0.000000e+000  0.000000e+000
    outer loop
      vertex  1.750000e+001 -9.958578e+000  8.356239e+000
      vertex  1.750000e+001 -1.286337e+001  9.345785e+000
      vertex  1.750000e+001 -1.221600e+001  4.446262e+000
    endloop
  endfacet
  facet normal  1.000000e+000  0.000000e+000  0.000000e+000
    outer loop
      vertex  1.750000e+001 -1.221600e+001  4.446262e+000
      vertex  1.750000e+001 -1.286337e+001  9.345785e+000
      vertex  1.750000e+001 -1.512180e+001  4.913370e+000
    endloop
  endfacet
  facet normal  9.999999e-001  0.000000e+000  0.000000e+000
    outer loop
      vertex  1.750000e+001 -1.221600e+001  4.446262e+000
      vertex  1.750000e+001 -1.512180e+001  4.913370e+000
      vertex  1.750000e+001 -1.300000e+001 -4.181171e-015
    endloop
  endfacet
  facet normal  1.000000e+000  0.000000e+000  0.000000e+000
    outer loop
      vertex  1.750000e+001 -1.300000e+001 -4.181171e-015
      vertex  1.750000e+001 -1.512180e+001  4.913370e+000
      vertex  1.750000e+001 -1.590000e+001  1.947124e-015
    endloop
  endfacet
  facet normal  1.000000e+000  0.000000e+000  0.000000e+000
    outer loop
      vertex  1.750000e+001 -1.300000e+001 -4.181171e-015
      vertex  1.750000e+001 -1.590000e+001  1.947124e-015
      vertex  1.750000e+001 -1.221600e+001 -4.446262e+000
    endloop
  endfacet
  facet normal  9.999999e-001  0.000000e+000  0.000000e+000
    outer loop
      vertex  1.750000e+001 -1.221600e+001 -4.446262e+000
      vertex  1.750000e+001 -1.590000e+001  1.947124e-015
      vertex  1.750000e+001 -1.512180e+001 -4.913370e+000
    endloop
  endfacet
  facet normal  1.000000e+000  -0.000000e+000  0.000000e+000
    outer loop
      vertex  1.750000e+001 -1.221600e+001 -4.446262e+000
      vertex  1.750000e+001 -1.512180e+001 -4.913370e+000
      vertex  1.750000e+001 -9.958578e+000 -8.356239e+000
    endloop
  endfacet
  facet normal  9.999999e-001  0.000000e+000  0.000000e+000
    outer loop
      vertex  1.750000e+001 -9.958578e+000 -8.356239e+000
      vertex  1.750000e+001 -1.512180e+001 -4.913370e+000
      vertex  1.750000e+001 -1.286337e+001 -9.345785e+000
    endloop
  endfacet
  facet normal  1.000000e+000  -0.000000e+000  0.000000e+000
    outer loop
      vertex  1.750000e+001 -9.958578e+000 -8.356239e+000
      vertex  1.750000e+001 -1.286337e+001 -9.345785e+000
      vertex  1.750000e+001 -6.500000e+000 -1.125833e+001
    endloop
  endfacet
  facet normal  1.000000e+000  0.000000e+000  0.000000e+000
    outer loop
      vertex  1.750000e+001 -6.500000e+000 -1.125833e+001
      vertex  1.750000e+001 -1.286337e+001 -9.345785e+000
      vertex  1.750000e+001 -9.345785e+000 -1.286337e+001
    endloop
  endfacet
  facet normal  9.999999e-001  0.000000e+000  0.000000e+000
    outer loop
      vertex  1.750000e+001 -6.500000e+000 -1.125833e+001
      vertex  1.750000e+001 -9.345785e+000 -1.286337e+001
      vertex  1.750000e+001 -2.257426e+000 -1.280250e+001
    endloop
  endfacet
  facet normal  1.000000e+000  0.000000e+000  0.000000e+000
    outer loop
      vertex  1.750000e+001 -2.257426e+000 -1.280250e+001
      vertex  1.750000e+001 -9.345785e+000 -1.286337e+001
      vertex  1.750000e+001 -2.920686e-015 -1.590000e+001
    endloop
  endfacet
  facet normal  9.999999e-001  0.000000e+000  -0.000000e+000
    outer loop
      vertex  1.750000e+001 -2.257426e+000 -1.280250e+001
      vertex  1.750000e+001 -2.920686e-015 -1.590000e+001
      vertex  1.750000e+001  2.257426e+000 -1.280250e+001
    endloop
  endfacet
  facet normal  9.999999e-001  -0.000000e+000  0.000000e+000
    outer loop
      vertex  1.750000e+001  1.286337e+001  9.345785e+000
      vertex  1.750000e+001  9.958578e+000  8.356239e+000
      vertex  1.750000e+001  1.512180e+001  4.913370e+000
    endloop
  endfacet
  facet normal  1.000000e+000  0.000000e+000  0.000000e+000
    outer loop
      vertex  1.750000e+001  1.512180e+001  4.913370e+000
      vertex  1.750000e+001  9.958578e+000  8.356239e+000
      vertex  1.750000e+001  1.221600e+001  4.446262e+000
    endloop
  endfacet
  facet normal  9.999999e-001  -0.000000e+000  0.000000e+000
    outer loop
      vertex  1.750000e+001  1.512180e+001  4.913370e+000
      vertex  1.750000e+001  1.221600e+001  4.446262e+000
      vertex  1.750000e+001  1.590000e+001  0.000000e+000
    endloop
  endfacet
  facet normal  1.000000e+000  0.000000e+000  0.000000e+000
    outer loop
      vertex  1.750000e+001  1.590000e+001  0.000000e+000
      vertex  1.750000e+001  1.221600e+001  4.446262e+000
      vertex  1.750000e+001  1.300000e+001  0.000000e+000
    endloop
  endfacet
  facet normal  1.000000e+000  -0.000000e+000  0.000000e+000
    outer loop
      vertex  1.750000e+001  1.590000e+001  0.000000e+000
      vertex  1.750000e+001  1.300000e+001  0.000000e+000
      vertex  1.750000e+001  1.512180e+001 -4.913370e+000
    endloop
  endfacet
  facet normal  9.999999e-001  0.000000e+000  0.000000e+000
    outer loop
      vertex  1.750000e+001  1.512180e+001 -4.913370e+000
      vertex  1.750000e+001  1.300000e+001  0.000000e+000
      vertex  1.750000e+001  1.221600e+001 -4.446262e+000
    endloop
  endfacet
  facet normal  1.000000e+000  0.000000e+000  0.000000e+000
    outer loop
      vertex  1.750000e+001  1.512180e+001 -4.913370e+000
      vertex  1.750000e+001  1.221600e+001 -4.446262e+000
      vertex  1.750000e+001  1.286337e+001 -9.345785e+000
    endloop
  endfacet
  facet normal  9.999999e-001  0.000000e+000  0.000000e+000
    outer loop
      vertex  1.750000e+001  1.286337e+001 -9.345785e+000
      vertex  1.750000e+001  1.221600e+001 -4.446262e+000
      vertex  1.750000e+001  9.958578e+000 -8.356239e+000
    endloop
  endfacet
  facet normal  1.000000e+000  0.000000e+000  0.000000e+000
    outer loop
      vertex  1.750000e+001  1.286337e+001 -9.345785e+000
      vertex  1.750000e+001  9.958578e+000 -8.356239e+000
      vertex  1.750000e+001  9.345785e+000 -1.286337e+001
    endloop
  endfacet
  facet normal  1.000000e+000  0.000000e+000  -0.000000e+000
    outer loop
      vertex  1.750000e+001  9.345785e+000 -1.286337e+001
      vertex  1.750000e+001  9.958578e+000 -8.356239e+000
      vertex  1.750000e+001  6.500000e+000 -1.125833e+001
    endloop
  endfacet
  facet normal  9.999999e-001  0.000000e+000  0.000000e+000
    outer loop
      vertex  1.750000e+001  9.345785e+000 -1.286337e+001
      vertex  1.750000e+001  6.500000e+000 -1.125833e+001
      vertex  1.750000e+001  2.257426e+000 -1.280250e+001
    endloop
  endfacet
  facet normal -1.000000e+000  -0.000000e+000  0.000000e+000
    outer loop
      vertex -1.750000e+001  2.257426e+000 -1.280250e+001
      vertex -1.750000e+001  9.345785e+000 -1.286337e+001
      vertex -1.750000e+001 -2.920686e-015 -1.590000e+001
    endloop
  endfacet
  facet normal -9.999999e-001  0.000000e+000  -0.000000e+000
    outer loop
      vertex -1.750000e+001 -2.257426e+000  1.280250e+001
      vertex -1.750000e+001  9.735621e-016  1.590000e+001
      vertex -1.750000e+001  2.257426e+000  1.280250e+001
    endloop
  endfacet
  facet normal -9.999999e-001  0.000000e+000  0.000000e+000
    outer loop
      vertex -1.750000e+001 -4.913370e+000 -1.512180e+001
      vertex -1.750000e+001 -9.345785e+000 -1.286337e+001
      vertex -1.750000e+001 -2.920686e-015 -1.590000e+001
    endloop
  endfacet
  facet normal -9.999999e-001  -0.000000e+000  0.000000e+000
    outer loop
      vertex -1.750000e+001  9.345785e+000 -1.286337e+001
      vertex -1.750000e+001  4.913370e+000 -1.512180e+001
      vertex -1.750000e+001 -2.920686e-015 -1.590000e+001
    endloop
  endfacet
  facet normal -1.000000e+000  0.000000e+000  0.000000e+000
    outer loop
      vertex -1.750000e+001 -9.958578e+000  8.356239e+000
      vertex -1.750000e+001 -1.286337e+001  9.345785e+000
      vertex -1.750000e+001 -6.500000e+000  1.125833e+001
    endloop
  endfacet
  facet normal -1.000000e+000  -0.000000e+000  0.000000e+000
    outer loop
      vertex -1.750000e+001 -6.500000e+000  1.125833e+001
      vertex -1.750000e+001 -1.286337e+001  9.345785e+000
      vertex -1.750000e+001 -9.345785e+000  1.286337e+001
    endloop
  endfacet
  facet normal -9.999999e-001  0.000000e+000  0.000000e+000
    outer loop
      vertex -1.750000e+001 -6.500000e+000  1.125833e+001
      vertex -1.750000e+001 -9.345785e+000  1.286337e+001
      vertex -1.750000e+001 -2.257426e+000  1.280250e+001
    endloop
  endfacet
  facet normal -1.000000e+000  0.000000e+000  0.000000e+000
    outer loop
      vertex -1.750000e+001 -2.257426e+000  1.280250e+001
      vertex -1.750000e+001 -9.345785e+000  1.286337e+001
      vertex -1.750000e+001 -4.913370e+000  1.512180e+001
    endloop
  endfacet
  facet normal -1.000000e+000  0.000000e+000  0.000000e+000
    outer loop
      vertex -1.750000e+001 -2.257426e+000  1.280250e+001
      vertex -1.750000e+001 -4.913370e+000  1.512180e+001
      vertex -1.750000e+001  9.735621e-016  1.590000e+001
    endloop
  endfacet
  facet normal -1.000000e+000  0.000000e+000  0.000000e+000
    outer loop
      vertex -1.750000e+001  9.958578e+000  8.356239e+000
      vertex -1.750000e+001  6.500000e+000  1.125833e+001
      vertex -1.750000e+001  1.286337e+001  9.345785e+000
    endloop
  endfacet
  facet normal -1.000000e+000  0.000000e+000  0.000000e+000
    outer loop
      vertex -1.750000e+001  1.286337e+001  9.345785e+000
      vertex -1.750000e+001  6.500000e+000  1.125833e+001
      vertex -1.750000e+001  2.257426e+000  1.280250e+001
    endloop
  endfacet
  facet normal -1.000000e+000  0.000000e+000  0.000000e+000
    outer loop
      vertex -1.750000e+001  1.286337e+001  9.345785e+000
      vertex -1.750000e+001  2.257426e+000  1.280250e+001
      vertex -1.750000e+001  9.345785e+000  1.286337e+001
    endloop
  endfacet
  facet normal -1.000000e+000  -0.000000e+000  0.000000e+000
    outer loop
      vertex -1.750000e+001  9.345785e+000  1.286337e+001
      vertex -1.750000e+001  2.257426e+000  1.280250e+001
      vertex -1.750000e+001  9.735621e-016  1.590000e+001
    endloop
  endfacet
  facet normal -9.999999e-001  0.000000e+000  0.000000e+000
    outer loop
      vertex -1.750000e+001  9.345785e+000  1.286337e+001
      vertex -1.750000e+001  9.735621e-016  1.590000e+001
      vertex -1.750000e+001  4.913370e+000  1.512180e+001
    endloop
  endfacet
  facet normal -9.999999e-001  0.000000e+000  0.000000e+000
    outer loop
      vertex -1.750000e+001  2.257426e+000 -1.280250e+001
      vertex -1.750000e+001 -2.920686e-015 -1.590000e+001
      vertex -1.750000e+001 -2.257426e+000 -1.280250e+001
    endloop
  endfacet
  facet normal -1.000000e+000  0.000000e+000  -0.000000e+000
    outer loop
      vertex -1.750000e+001 -2.257426e+000 -1.280250e+001
      vertex -1.750000e+001 -2.920686e-015 -1.590000e+001
      vertex -1.750000e+001 -9.345785e+000 -1.286337e+001
    endloop
  endfacet
  facet normal -9.999999e-001  0.000000e+000  0.000000e+000
    outer loop
      vertex -1.750000e+001 -2.257426e+000 -1.280250e+001
      vertex -1.750000e+001 -9.345785e+000 -1.286337e+001
      vertex -1.750000e+001 -6.500000e+000 -1.125833e+001
    endloop
  endfacet
  facet normal -1.000000e+000  -0.000000e+000  0.000000e+000
    outer loop
      vertex -1.750000e+001 -6.500000e+000 -1.125833e+001
      vertex -1.750000e+001 -9.345785e+000 -1.286337e+001
      vertex -1.750000e+001 -1.286337e+001 -9.345785e+000
    endloop
  endfacet
  facet normal -1.000000e+000  0.000000e+000  0.000000e+000
    outer loop
      vertex -1.750000e+001 -6.500000e+000 -1.125833e+001
      vertex -1.750000e+001 -1.286337e+001 -9.345785e+000
      vertex -1.750000e+001 -9.958578e+000 -8.356239e+000
    endloop
  endfacet
  facet normal -9.999999e-001  -0.000000e+000  0.000000e+000
    outer loop
      vertex -1.750000e+001 -9.958578e+000 -8.356239e+000
      vertex -1.750000e+001 -1.286337e+001 -9.345785e+000
      vertex -1.750000e+001 -1.512180e+001 -4.913370e+000
    endloop
  endfacet
  facet normal -1.000000e+000  0.000000e+000  0.000000e+000
    outer loop
      vertex -1.750000e+001 -9.958578e+000 -8.356239e+000
      vertex -1.750000e+001 -1.512180e+001 -4.913370e+000
      vertex -1.750000e+001 -1.221600e+001 -4.446262e+000
    endloop
  endfacet
  facet normal -9.999999e-001  -0.000000e+000  0.000000e+000
    outer loop
      vertex -1.750000e+001 -1.221600e+001 -4.446262e+000
      vertex -1.750000e+001 -1.512180e+001 -4.913370e+000
      vertex -1.750000e+001 -1.590000e+001  1.947124e-015
    endloop
  endfacet
  facet normal -1.000000e+000  0.000000e+000  0.000000e+000
    outer loop
      vertex -1.750000e+001 -1.221600e+001 -4.446262e+000
      vertex -1.750000e+001 -1.590000e+001  1.947124e-015
      vertex -1.750000e+001 -1.300000e+001 -4.181171e-015
    endloop
  endfacet
  facet normal -1.000000e+000  0.000000e+000  0.000000e+000
    outer loop
      vertex -1.750000e+001 -1.300000e+001 -4.181171e-015
      vertex -1.750000e+001 -1.590000e+001  1.947124e-015
      vertex -1.750000e+001 -1.512180e+001  4.913370e+000
    endloop
  endfacet
  facet normal -9.999999e-001  0.000000e+000  0.000000e+000
    outer loop
      vertex -1.750000e+001 -1.300000e+001 -4.181171e-015
      vertex -1.750000e+001 -1.512180e+001  4.913370e+000
      vertex -1.750000e+001 -1.221600e+001  4.446262e+000
    endloop
  endfacet
  facet normal -1.000000e+000  0.000000e+000  0.000000e+000
    outer loop
      vertex -1.750000e+001 -1.221600e+001  4.446262e+000
      vertex -1.750000e+001 -1.512180e+001  4.913370e+000
      vertex -1.750000e+001 -1.286337e+001  9.345785e+000
    endloop
  endfacet
  facet normal -9.999999e-001  0.000000e+000  0.000000e+000
    outer loop
      vertex -1.750000e+001 -1.221600e+001  4.446262e+000
      vertex -1.750000e+001 -1.286337e+001  9.345785e+000
      vertex -1.750000e+001 -9.958578e+000  8.356239e+000
    endloop
  endfacet
  facet normal -9.999999e-001  0.000000e+000  -0.000000e+000
    outer loop
      vertex -1.750000e+001  2.257426e+000 -1.280250e+001
      vertex -1.750000e+001  6.500000e+000 -1.125833e+001
      vertex -1.750000e+001  9.345785e+000 -1.286337e+001
    endloop
  endfacet
  facet normal -1.000000e+000  0.000000e+000  0.000000e+000
    outer loop
      vertex -1.750000e+001  9.345785e+000 -1.286337e+001
      vertex -1.750000e+001  6.500000e+000 -1.125833e+001
      vertex -1.750000e+001  9.958578e+000 -8.356239e+000
    endloop
  endfacet
  facet normal -1.000000e+000  0.000000e+000  -0.000000e+000
    outer loop
      vertex -1.750000e+001  9.345785e+000 -1.286337e+001
      vertex -1.750000e+001  9.958578e+000 -8.356239e+000
      vertex -1.750000e+001  1.286337e+001 -9.345785e+000
    endloop
  endfacet
  facet normal -9.999999e-001  0.000000e+000  0.000000e+000
    outer loop
      vertex -1.750000e+001  1.286337e+001 -9.345785e+000
      vertex -1.750000e+001  9.958578e+000 -8.356239e+000
      vertex -1.750000e+001  1.221600e+001 -4.446262e+000
    endloop
  endfacet
  facet normal -1.000000e+000  0.000000e+000  0.000000e+000
    outer loop
      vertex -1.750000e+001  1.286337e+001 -9.345785e+000
      vertex -1.750000e+001  1.221600e+001 -4.446262e+000
      vertex -1.750000e+001  1.512180e+001 -4.913370e+000
    endloop
  endfacet
  facet normal -9.999999e-001  0.000000e+000  0.000000e+000
    outer loop
      vertex -1.750000e+001  1.512180e+001 -4.913370e+000
      vertex -1.750000e+001  1.221600e+001 -4.446262e+000
      vertex -1.750000e+001  1.300000e+001  0.000000e+000
    endloop
  endfacet
  facet normal -1.000000e+000  0.000000e+000  0.000000e+000
    outer loop
      vertex -1.750000e+001  1.512180e+001 -4.913370e+000
      vertex -1.750000e+001  1.300000e+001  0.000000e+000
      vertex -1.750000e+001  1.590000e+001  0.000000e+000
    endloop
  endfacet
  facet normal -1.000000e+000  0.000000e+000  0.000000e+000
    outer loop
      vertex -1.750000e+001  1.590000e+001  0.000000e+000
      vertex -1.750000e+001  1.300000e+001  0.000000e+000
      vertex -1.750000e+001  1.221600e+001  4.446262e+000
    endloop
  endfacet
  facet normal -9.999999e-001  0.000000e+000  0.000000e+000
    outer loop
      vertex -1.750000e+001  1.590000e+001  0.000000e+000
      vertex -1.750000e+001  1.221600e+001  4.446262e+000
      vertex -1.750000e+001  1.512180e+001  4.913370e+000
    endloop
  endfacet
  facet normal -1.000000e+000  -0.000000e+000  0.000000e+000
    outer loop
      vertex -1.750000e+001  1.512180e+001  4.913370e+000
      vertex -1.750000e+001  1.221600e+001  4.446262e+000
      vertex -1.750000e+001  9.958578e+000  8.356239e+000
    endloop
  endfacet
  facet normal -9.999999e-001  0.000000e+000  0.000000e+000
    outer loop
      vertex -1.750000e+001  1.512180e+001  4.913370e+000
      vertex -1.750000e+001  9.958578e+000  8.356239e+000
      vertex -1.750000e+001  1.286337e+001  9.345785e+000
    endloop
  endfacet
  facet normal  0.000000e+000  3.420201e-001 -9.396926e-001
    outer loop
      vertex -1.750000e+001 -2.257426e+000  1.280250e+001
      vertex  1.750000e+001 -6.500000e+000  1.125833e+001
      vertex -1.750000e+001 -6.500000e+000  1.125833e+001
    endloop
  endfacet
  facet normal  0.000000e+000  6.427875e-001 -7.660444e-001
    outer loop
      vertex -1.750000e+001 -6.500000e+000  1.125833e+001
      vertex  1.750000e+001 -6.500000e+000  1.125833e+001
      vertex  1.750000e+001 -9.958578e+000  8.356239e+000
    endloop
  endfacet
  facet normal  0.000000e+000  6.427875e-001 -7.660444e-001
    outer loop
      vertex -1.750000e+001 -6.500000e+000  1.125833e+001
      vertex  1.750000e+001 -9.958578e+000  8.356239e+000
      vertex -1.750000e+001 -9.958578e+000  8.356239e+000
    endloop
  endfacet
  facet normal  0.000000e+000  8.660254e-001 -4.999999e-001
    outer loop
      vertex -1.750000e+001 -9.958578e+000  8.356239e+000
      vertex  1.750000e+001 -9.958578e+000  8.356239e+000
      vertex  1.750000e+001 -1.221600e+001  4.446262e+000
    endloop
  endfacet
  facet normal  0.000000e+000  8.660254e-001 -4.999999e-001
    outer loop
      vertex -1.750000e+001 -9.958578e+000  8.356239e+000
      vertex  1.750000e+001 -1.221600e+001  4.446262e+000
      vertex -1.750000e+001 -1.221600e+001  4.446262e+000
    endloop
  endfacet
  facet normal  0.000000e+000  9.848077e-001 -1.736481e-001
    outer loop
      vertex -1.750000e+001 -1.221600e+001  4.446262e+000
      vertex  1.750000e+001 -1.221600e+001  4.446262e+000
      vertex  1.750000e+001 -1.300000e+001 -4.181171e-015
    endloop
  endfacet
  facet normal  0.000000e+000  9.848077e-001 -1.736481e-001
    outer loop
      vertex -1.750000e+001 -1.221600e+001  4.446262e+000
      vertex  1.750000e+001 -1.300000e+001 -4.181171e-015
      vertex -1.750000e+001 -1.300000e+001 -4.181171e-015
    endloop
  endfacet
  facet normal  0.000000e+000  3.420201e-001 -9.396926e-001
    outer loop
      vertex  1.750000e+001 -6.500000e+000  1.125833e+001
      vertex -1.750000e+001 -2.257426e+000  1.280250e+001
      vertex  1.750000e+001 -2.257426e+000  1.280250e+001
    endloop
  endfacet
  facet normal  0.000000e+000  0.000000e+000 -9.999999e-001
    outer loop
      vertex  1.750000e+001 -2.257426e+000  1.280250e+001
      vertex -1.750000e+001 -2.257426e+000  1.280250e+001
      vertex -1.750000e+001  2.257426e+000  1.280250e+001
    endloop
  endfacet
  facet normal  0.000000e+000  0.000000e+000 -9.999999e-001
    outer loop
      vertex  1.750000e+001 -2.257426e+000  1.280250e+001
      vertex -1.750000e+001  2.257426e+000  1.280250e+001
      vertex  1.750000e+001  2.257426e+000  1.280250e+001
    endloop
  endfacet
  facet normal  -0.000000e+000 -3.420201e-001 -9.396926e-001
    outer loop
      vertex  1.750000e+001  2.257426e+000  1.280250e+001
      vertex -1.750000e+001  2.257426e+000  1.280250e+001
      vertex -1.750000e+001  6.500000e+000  1.125833e+001
    endloop
  endfacet
  facet normal  0.000000e+000 -3.420201e-001 -9.396926e-001
    outer loop
      vertex  1.750000e+001  2.257426e+000  1.280250e+001
      vertex -1.750000e+001  6.500000e+000  1.125833e+001
      vertex  1.750000e+001  6.500000e+000  1.125833e+001
    endloop
  endfacet
  facet normal  -0.000000e+000 -6.427875e-001 -7.660444e-001
    outer loop
      vertex  1.750000e+001  6.500000e+000  1.125833e+001
      vertex -1.750000e+001  6.500000e+000  1.125833e+001
      vertex -1.750000e+001  9.958578e+000  8.356239e+000
    endloop
  endfacet
  facet normal  0.000000e+000 -6.427875e-001 -7.660444e-001
    outer loop
      vertex  1.750000e+001  6.500000e+000  1.125833e+001
      vertex -1.750000e+001  9.958578e+000  8.356239e+000
      vertex  1.750000e+001  9.958578e+000  8.356239e+000
    endloop
  endfacet
  facet normal  -0.000000e+000 -8.660254e-001 -4.999999e-001
    outer loop
      vertex  1.750000e+001  9.958578e+000  8.356239e+000
      vertex -1.750000e+001  9.958578e+000  8.356239e+000
      vertex -1.750000e+001  1.221600e+001  4.446262e+000
    endloop
  endfacet
  facet normal  0.000000e+000 -8.660254e-001 -4.999999e-001
    outer loop
      vertex  1.750000e+001  9.958578e+000  8.356239e+000
      vertex -1.750000e+001  1.221600e+001  4.446262e+000
      vertex  1.750000e+001  1.221600e+001  4.446262e+000
    endloop
  endfacet
  facet normal  -0.000000e+000 -9.848077e-001 -1.736481e-001
    outer loop
      vertex  1.750000e+001  1.221600e+001  4.446262e+000
      vertex -1.750000e+001  1.221600e+001  4.446262e+000
      vertex -1.750000e+001  1.300000e+001  0.000000e+000
    endloop
  endfacet
  facet normal  0.000000e+000 -9.848077e-001 -1.736481e-001
    outer loop
      vertex  1.750000e+001  1.221600e+001  4.446262e+000
      vertex -1.750000e+001  1.300000e+001  0.000000e+000
      vertex  1.750000e+001  1.300000e+001  0.000000e+000
    endloop
  endfacet
  facet normal  0.000000e+000 -3.420201e-001  9.396926e-001
    outer loop
      vertex -1.750000e+001  2.257426e+000 -1.280250e+001
      vertex  1.750000e+001  6.500000e+000 -1.125833e+001
      vertex -1.750000e+001  6.500000e+000 -1.125833e+001
    endloop
  endfacet
  facet normal  0.000000e+000 -6.427875e-001  7.660444e-001
    outer loop
      vertex -1.750000e+001  6.500000e+000 -1.125833e+001
      vertex  1.750000e+001  6.500000e+000 -1.125833e+001
      vertex  1.750000e+001  9.958578e+000 -8.356239e+000
    endloop
  endfacet
  facet normal  0.000000e+000 -6.427875e-001  7.660444e-001
    outer loop
      vertex -1.750000e+001  6.500000e+000 -1.125833e+001
      vertex  1.750000e+001  9.958578e+000 -8.356239e+000
      vertex -1.750000e+001  9.958578e+000 -8.356239e+000
    endloop
  endfacet
  facet normal  0.000000e+000 -8.660254e-001  4.999999e-001
    outer loop
      vertex -1.750000e+001  9.958578e+000 -8.356239e+000
      vertex  1.750000e+001  9.958578e+000 -8.356239e+000
      vertex  1.750000e+001  1.221600e+001 -4.446262e+000
    endloop
  endfacet
  facet normal  0.000000e+000 -8.660254e-001  4.999999e-001
    outer loop
      vertex -1.750000e+001  9.958578e+000 -8.356239e+000
      vertex  1.750000e+001  1.221600e+001 -4.446262e+000
      vertex -1.750000e+001  1.221600e+001 -4.446262e+000
    endloop
  endfacet
  facet normal  0.000000e+000 -9.848077e-001  1.736481e-001
    outer loop
      vertex -1.750000e+001  1.221600e+001 -4.446262e+000
      vertex  1.750000e+001  1.221600e+001 -4.446262e+000
      vertex  1.750000e+001  1.300000e+001  0.000000e+000
    endloop
  endfacet
  facet normal  0.000000e+000 -9.848077e-001  1.736481e-001
    outer loop
      vertex -1.750000e+001  1.221600e+001 -4.446262e+000
      vertex  1.750000e+001  1.300000e+001  0.000000e+000
      vertex -1.750000e+001  1.300000e+001  0.000000e+000
    endloop
  endfacet
  facet normal  0.000000e+000 -3.420201e-001  9.396926e-001
    outer loop
      vertex  1.750000e+001  6.500000e+000 -1.125833e+001
      vertex -1.750000e+001  2.257426e+000 -1.280250e+001
      vertex  1.750000e+001  2.257426e+000 -1.280250e+001
    endloop
  endfacet
  facet normal  0.000000e+000  0.000000e+000  9.999999e-001
    outer loop
      vertex  1.750000e+001  2.257426e+000 -1.280250e+001
      vertex -1.750000e+001  2.257426e+000 -1.280250e+001
      vertex -1.750000e+001 -2.257426e+000 -1.280250e+001
    endloop
  endfacet
  facet normal  0.000000e+000  0.000000e+000  9.999999e-001
    outer loop
      vertex  1.750000e+001  2.257426e+000 -1.280250e+001
      vertex -1.750000e+001 -2.257426e+000 -1.280250e+001
      vertex  1.750000e+001 -2.257426e+000 -1.280250e+001
    endloop
  endfacet
  facet normal  0.000000e+000  3.420201e-001  9.396926e-001
    outer loop
      vertex  1.750000e+001 -2.257426e+000 -1.280250e+001
      vertex -1.750000e+001 -2.257426e+000 -1.280250e+001
      vertex -1.750000e+001 -6.500000e+000 -1.125833e+001
    endloop
  endfacet
  facet normal  -0.000000e+000  3.420201e-001  9.396926e-001
    outer loop
      vertex  1.750000e+001 -2.257426e+000 -1.280250e+001
      vertex -1.750000e+001 -6.500000e+000 -1.125833e+001
      vertex  1.750000e+001 -6.500000e+000 -1.125833e+001
    endloop
  endfacet
  facet normal  0.000000e+000  6.427875e-001  7.660444e-001
    outer loop
      vertex  1.750000e+001 -6.500000e+000 -1.125833e+001
      vertex -1.750000e+001 -6.500000e+000 -1.125833e+001
      vertex -1.750000e+001 -9.958578e+000 -8.356239e+000
    endloop
  endfacet
  facet normal  -0.000000e+000  6.427875e-001  7.660444e-001
    outer loop
      vertex  1.750000e+001 -6.500000e+000 -1.125833e+001
      vertex -1.750000e+001 -9.958578e+000 -8.356239e+000
      vertex  1.750000e+001 -9.958578e+000 -8.356239e+000
    endloop
  endfacet
  facet normal  0.000000e+000  8.660254e-001  4.999999e-001
    outer loop
      vertex  1.750000e+001 -9.958578e+000 -8.356239e+000
      vertex -1.750000e+001 -9.958578e+000 -8.356239e+000
      vertex -1.750000e+001 -1.221600e+001 -4.446262e+000
    endloop
  endfacet
  facet normal  -0.000000e+000  8.660254e-001  4.999999e-001
    outer loop
      vertex  1.750000e+001 -9.958578e+000 -8.356239e+000
      vertex -1.750000e+001 -1.221600e+001 -4.446262e+000
      vertex  1.750000e+001 -1.221600e+001 -4.446262e+000
    endloop
  endfacet
  facet normal  0.000000e+000  9.848077e-001  1.736481e-001
    outer loop
      vertex  1.750000e+001 -1.221600e+001 -4.446262e+000
      vertex -1.750000e+001 -1.221600e+001 -4.446262e+000
      vertex -1.750000e+001 -1.300000e+001 -4.181171e-015
    endloop
  endfacet
  facet normal  -0.000000e+000  9.848077e-001  1.736481e-001
    outer loop
      vertex  1.750000e+001 -1.221600e+001 -4.446262e+000
      vertex -1.750000e+001 -1.300000e+001 -4.181171e-015
      vertex  1.750000e+001 -1.300000e+001 -4.181171e-015
    endloop
  endfacet
  facet normal  0.000000e+000  9.876883e-001 -1.564344e-001
    outer loop
      vertex -1.750000e+001  1.590000e+001  0.000000e+000
      vertex  1.750000e+001  1.590000e+001  0.000000e+000
      vertex -1.750000e+001  1.512180e+001 -4.913370e+000
    endloop
  endfacet
  facet normal  0.000000e+000  9.876883e-001 -1.564344e-001
    outer loop
      vertex -1.750000e+001  1.512180e+001 -4.913370e+000
      vertex  1.750000e+001  1.590000e+001  0.000000e+000
      vertex  1.750000e+001  1.512180e+001 -4.913370e+000
    endloop
  endfacet
  facet normal  0.000000e+000  8.910064e-001 -4.539905e-001
    outer loop
      vertex -1.750000e+001  1.512180e+001 -4.913370e+000
      vertex  1.750000e+001  1.512180e+001 -4.913370e+000
      vertex -1.750000e+001  1.286337e+001 -9.345785e+000
    endloop
  endfacet
  facet normal  0.000000e+000  8.910064e-001 -4.539905e-001
    outer loop
      vertex -1.750000e+001  1.286337e+001 -9.345785e+000
      vertex  1.750000e+001  1.512180e+001 -4.913370e+000
      vertex  1.750000e+001  1.286337e+001 -9.345785e+000
    endloop
  endfacet
  facet normal  0.000000e+000  7.071068e-001 -7.071068e-001
    outer loop
      vertex -1.750000e+001  1.286337e+001 -9.345785e+000
      vertex  1.750000e+001  1.286337e+001 -9.345785e+000
      vertex -1.750000e+001  9.345785e+000 -1.286337e+001
    endloop
  endfacet
  facet normal  0.000000e+000  7.071068e-001 -7.071068e-001
    outer loop
      vertex -1.750000e+001  9.345785e+000 -1.286337e+001
      vertex  1.750000e+001  1.286337e+001 -9.345785e+000
      vertex  1.750000e+001  9.345785e+000 -1.286337e+001
    endloop
  endfacet
  facet normal  0.000000e+000  4.539905e-001 -8.910064e-001
    outer loop
      vertex -1.750000e+001  9.345785e+000 -1.286337e+001
      vertex  1.750000e+001  9.345785e+000 -1.286337e+001
      vertex -1.750000e+001  4.913370e+000 -1.512180e+001
    endloop
  endfacet
  facet normal  0.000000e+000  4.539905e-001 -8.910064e-001
    outer loop
      vertex -1.750000e+001  4.913370e+000 -1.512180e+001
      vertex  1.750000e+001  9.345785e+000 -1.286337e+001
      vertex  1.750000e+001  4.913370e+000 -1.512180e+001
    endloop
  endfacet
  facet normal  0.000000e+000  1.564344e-001 -9.876883e-001
    outer loop
      vertex -1.750000e+001  4.913370e+000 -1.512180e+001
      vertex  1.750000e+001  4.913370e+000 -1.512180e+001
      vertex -1.750000e+001 -2.920686e-015 -1.590000e+001
    endloop
  endfacet
  facet normal  0.000000e+000  1.564344e-001 -9.876883e-001
    outer loop
      vertex -1.750000e+001 -2.920686e-015 -1.590000e+001
      vertex  1.750000e+001  4.913370e+000 -1.512180e+001
      vertex  1.750000e+001 -2.920686e-015 -1.590000e+001
    endloop
  endfacet
  facet normal  -0.000000e+000 -1.564344e-001 -9.876883e-001
    outer loop
      vertex -1.750000e+001 -2.920686e-015 -1.590000e+001
      vertex  1.750000e+001 -2.920686e-015 -1.590000e+001
      vertex -1.750000e+001 -4.913370e+000 -1.512180e+001
    endloop
  endfacet
  facet normal  0.000000e+000 -1.564344e-001 -9.876883e-001
    outer loop
      vertex -1.750000e+001 -4.913370e+000 -1.512180e+001
      vertex  1.750000e+001 -2.920686e-015 -1.590000e+001
      vertex  1.750000e+001 -4.913370e+000 -1.512180e+001
    endloop
  endfacet
  facet normal  -0.000000e+000 -4.539905e-001 -8.910064e-001
    outer loop
      vertex -1.750000e+001 -4.913370e+000 -1.512180e+001
      vertex  1.750000e+001 -4.913370e+000 -1.512180e+001
      vertex -1.750000e+001 -9.345785e+000 -1.286337e+001
    endloop
  endfacet
  facet normal  0.000000e+000 -4.539905e-001 -8.910064e-001
    outer loop
      vertex -1.750000e+001 -9.345785e+000 -1.286337e+001
      vertex  1.750000e+001 -4.913370e+000 -1.512180e+001
      vertex  1.750000e+001 -9.345785e+000 -1.286337e+001
    endloop
  endfacet
  facet normal  -0.000000e+000 -7.071068e-001 -7.071068e-001
    outer loop
      vertex -1.750000e+001 -9.345785e+000 -1.286337e+001
      vertex  1.750000e+001 -9.345785e+000 -1.286337e+001
      vertex -1.750000e+001 -1.286337e+001 -9.345785e+000
    endloop
  endfacet
  facet normal  0.000000e+000 -7.071068e-001 -7.071068e-001
    outer loop
      vertex -1.750000e+001 -1.286337e+001 -9.345785e+000
      vertex  1.750000e+001 -9.345785e+000 -1.286337e+001
      vertex  1.750000e+001 -1.286337e+001 -9.345785e+000
    endloop
  endfacet
  facet normal  -0.000000e+000 -8.910064e-001 -4.539905e-001
    outer loop
      vertex -1.750000e+001 -1.286337e+001 -9.345785e+000
      vertex  1.750000e+001 -1.286337e+001 -9.345785e+000
      vertex -1.750000e+001 -1.512180e+001 -4.913370e+000
    endloop
  endfacet
  facet normal  0.000000e+000 -8.910064e-001 -4.539905e-001
    outer loop
      vertex -1.750000e+001 -1.512180e+001 -4.913370e+000
      vertex  1.750000e+001 -1.286337e+001 -9.345785e+000
      vertex  1.750000e+001 -1.512180e+001 -4.913370e+000
    endloop
  endfacet
  facet normal  -0.000000e+000 -9.876883e-001 -1.564344e-001
    outer loop
      vertex -1.750000e+001 -1.512180e+001 -4.913370e+000
      vertex  1.750000e+001 -1.512180e+001 -4.913370e+000
      vertex -1.750000e+001 -1.590000e+001  1.947124e-015
    endloop
  endfacet
  facet normal  0.000000e+000 -9.876883e-001 -1.564344e-001
    outer loop
      vertex -1.750000e+001 -1.590000e+001  1.947124e-015
      vertex  1.750000e+001 -1.512180e+001 -4.913370e+000
      vertex  1.750000e+001 -1.590000e+001  1.947124e-015
    endloop
  endfacet
  facet normal  0.000000e+000 -9.876883e-001  1.564344e-001
    outer loop
      vertex -1.750000e+001 -1.590000e+001  1.947124e-015
      vertex  1.750000e+001 -1.590000e+001  1.947124e-015
      vertex -1.750000e+001 -1.512180e+001  4.913370e+000
    endloop
  endfacet
  facet normal  0.000000e+000 -9.876883e-001  1.564344e-001
    outer loop
      vertex -1.750000e+001 -1.512180e+001  4.913370e+000
      vertex  1.750000e+001 -1.590000e+001  1.947124e-015
      vertex  1.750000e+001 -1.512180e+001  4.913370e+000
    endloop
  endfacet
  facet normal  0.000000e+000 -8.910064e-001  4.539905e-001
    outer loop
      vertex -1.750000e+001 -1.512180e+001  4.913370e+000
      vertex  1.750000e+001 -1.512180e+001  4.913370e+000
      vertex -1.750000e+001 -1.286337e+001  9.345785e+000
    endloop
  endfacet
  facet normal  0.000000e+000 -8.910064e-001  4.539905e-001
    outer loop
      vertex -1.750000e+001 -1.286337e+001  9.345785e+000
      vertex  1.750000e+001 -1.512180e+001  4.913370e+000
      vertex  1.750000e+001 -1.286337e+001  9.345785e+000
    endloop
  endfacet
  facet normal  0.000000e+000 -7.071068e-001  7.071068e-001
    outer loop
      vertex -1.750000e+001 -1.286337e+001  9.345785e+000
      vertex  1.750000e+001 -1.286337e+001  9.345785e+000
      vertex -1.750000e+001 -9.345785e+000  1.286337e+001
    endloop
  endfacet
  facet normal  0.000000e+000 -7.071068e-001  7.071068e-001
    outer loop
      vertex -1.750000e+001 -9.345785e+000  1.286337e+001
      vertex  1.750000e+001 -1.286337e+001  9.345785e+000
      vertex  1.750000e+001 -9.345785e+000  1.286337e+001
    endloop
  endfacet
  facet normal  0.000000e+000 -4.539905e-001  8.910064e-001
    outer loop
      vertex -1.750000e+001 -9.345785e+000  1.286337e+001
      vertex  1.750000e+001 -9.345785e+000  1.286337e+001
      vertex -1.750000e+001 -4.913370e+000  1.512180e+001
    endloop
  endfacet
  facet normal  0.000000e+000 -4.539905e-001  8.910064e-001
    outer loop
      vertex -1.750000e+001 -4.913370e+000  1.512180e+001
      vertex  1.750000e+001 -9.345785e+000  1.286337e+001
      vertex  1.750000e+001 -4.913370e+000  1.512180e+001
    endloop
  endfacet
  facet normal  0.000000e+000 -1.564344e-001  9.876883e-001
    outer loop
      vertex -1.750000e+001 -4.913370e+000  1.512180e+001
      vertex  1.750000e+001 -4.913370e+000  1.512180e+001
      vertex -1.750000e+001  9.735621e-016  1.590000e+001
    endloop
  endfacet
  facet normal  0.000000e+000 -1.564344e-001  9.876883e-001
    outer loop
      vertex -1.750000e+001  9.735621e-016  1.590000e+001
      vertex  1.750000e+001 -4.913370e+000  1.512180e+001
      vertex  1.750000e+001  9.735621e-016  1.590000e+001
    endloop
  endfacet
  facet normal  0.000000e+000  1.564344e-001  9.876883e-001
    outer loop
      vertex -1.750000e+001  9.735621e-016  1.590000e+001
      vertex  1.750000e+001  9.735621e-016  1.590000e+001
      vertex -1.750000e+001  4.913370e+000  1.512180e+001
    endloop
  endfacet
  facet normal  -0.000000e+000  1.564344e-001  9.876883e-001
    outer loop
      vertex -1.750000e+001  4.913370e+000  1.512180e+001
      vertex  1.750000e+001  9.735621e-016  1.590000e+001
      vertex  1.750000e+001  4.913370e+000  1.512180e+001
    endloop
  endfacet
  facet normal  0.000000e+000  4.539905e-001  8.910064e-001
    outer loop
      vertex -1.750000e+001  4.913370e+000  1.512180e+001
      vertex  1.750000e+001  4.913370e+000  1.512180e+001
      vertex -1.750000e+001  9.345785e+000  1.286337e+001
    endloop
  endfacet
  facet normal  -0.000000e+000  4.539905e-001  8.910064e-001
    outer loop
      vertex -1.750000e+001  9.345785e+000  1.286337e+001
      vertex  1.750000e+001  4.913370e+000  1.512180e+001
      vertex  1.750000e+001  9.345785e+000  1.286337e+001
    endloop
  endfacet
  facet normal  0.000000e+000  7.071068e-001  7.071068e-001
    outer loop
      vertex -1.750000e+001  9.345785e+000  1.286337e+001
      vertex  1.750000e+001  9.345785e+000  1.286337e+001
      vertex -1.750000e+001  1.286337e+001  9.345785e+000
    endloop
  endfacet
  facet normal  -0.000000e+000  7.071068e-001  7.071068e-001
    outer loop
      vertex -1.750000e+001  1.286337e+001  9.345785e+000
      vertex  1.750000e+001  9.345785e+000  1.286337e+001
      vertex  1.750000e+001  1.286337e+001  9.345785e+000
    endloop
  endfacet
  facet normal  0.000000e+000  8.910064e-001  4.539905e-001
    outer loop
      vertex -1.750000e+001  1.286337e+001  9.345785e+000
      vertex  1.750000e+001  1.286337e+001  9.345785e+000
      vertex -1.750000e+001  1.512180e+001  4.913370e+000
    endloop
  endfacet
  facet normal  -0.000000e+000  8.910064e-001  4.539905e-001
    outer loop
      vertex -1.750000e+001  1.512180e+001  4.913370e+000
      vertex  1.750000e+001  1.286337e+001  9.345785e+000
      vertex  1.750000e+001  1.512180e+001  4.913370e+000
    endloop
  endfacet
  facet normal  0.000000e+000  9.876883e-001  1.564344e-001
    outer loop
      vertex -1.750000e+001  1.512180e+001  4.913370e+000
      vertex  1.750000e+001  1.512180e+001  4.913370e+000
      vertex -1.750000e+001  1.590000e+001  0.000000e+000
    endloop
  endfacet
  facet normal  -0.000000e+000  9.876883e-001  1.564344e-001
    outer loop
      vertex -1.750000e+001  1.590000e+001  0.000000e+000
      vertex  1.750000e+001  1.512180e+001  4.913370e+000
      vertex  1.750000e+001  1.590000e+001  0.000000e+000
    endloop
  endfacet
endsolid CATIA STL
