solid CATIA STL
  facet normal  0.000000e+000  1.000000e+000  -0.000000e+000
    outer loop
      vertex  3.897114e+000  9.400000e+000 -2.250000e+000
      vertex  2.250000e+000  9.400000e+000 -3.897114e+000
      vertex  8.034442e-001  9.400000e+000 -2.472747e+000
    endloop
  endfacet
  facet normal  0.000000e+000  1.000000e+000  0.000000e+000
    outer loop
      vertex  8.034442e-001  9.400000e+000 -2.472747e+000
      vertex  2.250000e+000  9.400000e+000 -3.897114e+000
      vertex  8.266093e-016  9.400000e+000 -4.500000e+000
    endloop
  endfacet
  facet normal  0.000000e+000  1.000000e+000  -0.000000e+000
    outer loop
      vertex  8.034442e-001  9.400000e+000 -2.472747e+000
      vertex  8.266093e-016  9.400000e+000 -4.500000e+000
      vertex -8.034442e-001  9.400000e+000 -2.472747e+000
    endloop
  endfacet
  facet normal  0.000000e+000  1.000000e+000  0.000000e+000
    outer loop
      vertex -8.034442e-001  9.400000e+000 -2.472747e+000
      vertex  8.266093e-016  9.400000e+000 -4.500000e+000
      vertex -2.250000e+000  9.400000e+000 -3.897114e+000
    endloop
  endfacet
  facet normal  0.000000e+000  1.000000e+000  -0.000000e+000
    outer loop
      vertex -8.034442e-001  9.400000e+000 -2.472747e+000
      vertex -2.250000e+000  9.400000e+000 -3.897114e+000
      vertex -3.897114e+000  9.400000e+000 -2.250000e+000
    endloop
  endfacet
  facet normal  0.000000e+000  1.000000e+000  0.000000e+000
    outer loop
      vertex -2.755364e-016  9.400000e+000  4.500000e+000
      vertex  8.034442e-001  9.400000e+000  2.472747e+000
      vertex -2.250000e+000  9.400000e+000  3.897114e+000
    endloop
  endfacet
  facet normal  0.000000e+000  1.000000e+000  0.000000e+000
    outer loop
      vertex -2.250000e+000  9.400000e+000  3.897114e+000
      vertex  8.034442e-001  9.400000e+000  2.472747e+000
      vertex -8.034442e-001  9.400000e+000  2.472747e+000
    endloop
  endfacet
  facet normal  0.000000e+000  1.000000e+000  0.000000e+000
    outer loop
      vertex -2.250000e+000  9.400000e+000  3.897114e+000
      vertex -8.034442e-001  9.400000e+000  2.472747e+000
      vertex -3.897114e+000  9.400000e+000  2.250000e+000
    endloop
  endfacet
  facet normal  0.000000e+000  1.000000e+000  0.000000e+000
    outer loop
      vertex -2.755364e-016  9.400000e+000  4.500000e+000
      vertex  2.250000e+000  9.400000e+000  3.897114e+000
      vertex  8.034442e-001  9.400000e+000  2.472747e+000
    endloop
  endfacet
  facet normal  -0.000000e+000  1.000000e+000  0.000000e+000
    outer loop
      vertex  8.034442e-001  9.400000e+000  2.472747e+000
      vertex  2.250000e+000  9.400000e+000  3.897114e+000
      vertex  3.897114e+000  9.400000e+000  2.250000e+000
    endloop
  endfacet
  facet normal  0.000000e+000  1.000000e+000  0.000000e+000
    outer loop
      vertex  8.034442e-001  9.400000e+000  2.472747e+000
      vertex  3.897114e+000  9.400000e+000  2.250000e+000
      vertex  2.103444e+000  9.400000e+000  1.528242e+000
    endloop
  endfacet
  facet normal  -0.000000e+000  1.000000e+000  0.000000e+000
    outer loop
      vertex  2.103444e+000  9.400000e+000  1.528242e+000
      vertex  3.897114e+000  9.400000e+000  2.250000e+000
      vertex  4.500000e+000  9.400000e+000  5.510729e-016
    endloop
  endfacet
  facet normal  0.000000e+000  1.000000e+000  0.000000e+000
    outer loop
      vertex  2.103444e+000  9.400000e+000  1.528242e+000
      vertex  4.500000e+000  9.400000e+000  5.510729e-016
      vertex  2.600000e+000  9.400000e+000  3.183976e-016
    endloop
  endfacet
  facet normal  0.000000e+000  1.000000e+000  0.000000e+000
    outer loop
      vertex  2.600000e+000  9.400000e+000  3.183976e-016
      vertex  4.500000e+000  9.400000e+000  5.510729e-016
      vertex  2.103444e+000  9.400000e+000 -1.528242e+000
    endloop
  endfacet
  facet normal  -0.000000e+000  1.000000e+000  0.000000e+000
    outer loop
      vertex  2.103444e+000  9.400000e+000 -1.528242e+000
      vertex  4.500000e+000  9.400000e+000  5.510729e-016
      vertex  3.897114e+000  9.400000e+000 -2.250000e+000
    endloop
  endfacet
  facet normal  0.000000e+000  1.000000e+000  0.000000e+000
    outer loop
      vertex  2.103444e+000  9.400000e+000 -1.528242e+000
      vertex  3.897114e+000  9.400000e+000 -2.250000e+000
      vertex  8.034442e-001  9.400000e+000 -2.472747e+000
    endloop
  endfacet
  facet normal  0.000000e+000  9.999999e-001  0.000000e+000
    outer loop
      vertex -3.897114e+000  9.400000e+000  2.250000e+000
      vertex -8.034442e-001  9.400000e+000  2.472747e+000
      vertex -4.500000e+000  9.400000e+000  0.000000e+000
    endloop
  endfacet
  facet normal  0.000000e+000  1.000000e+000  0.000000e+000
    outer loop
      vertex -4.500000e+000  9.400000e+000  0.000000e+000
      vertex -8.034442e-001  9.400000e+000  2.472747e+000
      vertex -2.103444e+000  9.400000e+000  1.528242e+000
    endloop
  endfacet
  facet normal  0.000000e+000  1.000000e+000  0.000000e+000
    outer loop
      vertex -4.500000e+000  9.400000e+000  0.000000e+000
      vertex -2.103444e+000  9.400000e+000  1.528242e+000
      vertex -2.600000e+000  9.400000e+000  0.000000e+000
    endloop
  endfacet
  facet normal  0.000000e+000  1.000000e+000  0.000000e+000
    outer loop
      vertex -4.500000e+000  9.400000e+000  0.000000e+000
      vertex -2.600000e+000  9.400000e+000  0.000000e+000
      vertex -3.897114e+000  9.400000e+000 -2.250000e+000
    endloop
  endfacet
  facet normal  0.000000e+000  1.000000e+000  0.000000e+000
    outer loop
      vertex -3.897114e+000  9.400000e+000 -2.250000e+000
      vertex -2.600000e+000  9.400000e+000  0.000000e+000
      vertex -2.103444e+000  9.400000e+000 -1.528242e+000
    endloop
  endfacet
  facet normal  0.000000e+000  1.000000e+000  0.000000e+000
    outer loop
      vertex -3.897114e+000  9.400000e+000 -2.250000e+000
      vertex -2.103444e+000  9.400000e+000 -1.528242e+000
      vertex -8.034442e-001  9.400000e+000 -2.472747e+000
    endloop
  endfacet
  facet normal  0.000000e+000 -1.000000e+000  0.000000e+000
    outer loop
      vertex -3.897114e+000  0.000000e+000 -2.250000e+000
      vertex -2.250000e+000  0.000000e+000 -3.897114e+000
      vertex -8.034442e-001  0.000000e+000 -2.472747e+000
    endloop
  endfacet
  facet normal  0.000000e+000 -1.000000e+000  -0.000000e+000
    outer loop
      vertex -8.034442e-001  0.000000e+000 -2.472747e+000
      vertex -2.250000e+000  0.000000e+000 -3.897114e+000
      vertex  8.266093e-016  0.000000e+000 -4.500000e+000
    endloop
  endfacet
  facet normal  0.000000e+000 -1.000000e+000  0.000000e+000
    outer loop
      vertex -8.034442e-001  0.000000e+000 -2.472747e+000
      vertex  8.266093e-016  0.000000e+000 -4.500000e+000
      vertex  8.034442e-001  0.000000e+000 -2.472747e+000
    endloop
  endfacet
  facet normal  0.000000e+000 -1.000000e+000  -0.000000e+000
    outer loop
      vertex  8.034442e-001  0.000000e+000 -2.472747e+000
      vertex  8.266093e-016  0.000000e+000 -4.500000e+000
      vertex  2.250000e+000  0.000000e+000 -3.897114e+000
    endloop
  endfacet
  facet normal  0.000000e+000 -1.000000e+000  0.000000e+000
    outer loop
      vertex  8.034442e-001  0.000000e+000 -2.472747e+000
      vertex  2.250000e+000  0.000000e+000 -3.897114e+000
      vertex  3.897114e+000  0.000000e+000 -2.250000e+000
    endloop
  endfacet
  facet normal  -0.000000e+000 -1.000000e+000  0.000000e+000
    outer loop
      vertex -3.897114e+000  0.000000e+000  2.250000e+000
      vertex -8.034442e-001  0.000000e+000  2.472747e+000
      vertex -2.250000e+000  0.000000e+000  3.897114e+000
    endloop
  endfacet
  facet normal  0.000000e+000 -1.000000e+000  0.000000e+000
    outer loop
      vertex -2.250000e+000  0.000000e+000  3.897114e+000
      vertex -8.034442e-001  0.000000e+000  2.472747e+000
      vertex  8.034442e-001  0.000000e+000  2.472747e+000
    endloop
  endfacet
  facet normal  0.000000e+000 -1.000000e+000  0.000000e+000
    outer loop
      vertex -2.250000e+000  0.000000e+000  3.897114e+000
      vertex  8.034442e-001  0.000000e+000  2.472747e+000
      vertex -2.755364e-016  0.000000e+000  4.500000e+000
    endloop
  endfacet
  facet normal  -0.000000e+000 -1.000000e+000  0.000000e+000
    outer loop
      vertex  2.600000e+000  0.000000e+000  3.183976e-016
      vertex  4.500000e+000  0.000000e+000  5.510729e-016
      vertex  2.103444e+000  0.000000e+000  1.528242e+000
    endloop
  endfacet
  facet normal  0.000000e+000 -1.000000e+000  0.000000e+000
    outer loop
      vertex  2.103444e+000  0.000000e+000  1.528242e+000
      vertex  4.500000e+000  0.000000e+000  5.510729e-016
      vertex  3.897114e+000  0.000000e+000  2.250000e+000
    endloop
  endfacet
  facet normal  -0.000000e+000 -1.000000e+000  0.000000e+000
    outer loop
      vertex  2.103444e+000  0.000000e+000  1.528242e+000
      vertex  3.897114e+000  0.000000e+000  2.250000e+000
      vertex  8.034442e-001  0.000000e+000  2.472747e+000
    endloop
  endfacet
  facet normal  0.000000e+000 -1.000000e+000  0.000000e+000
    outer loop
      vertex  8.034442e-001  0.000000e+000  2.472747e+000
      vertex  3.897114e+000  0.000000e+000  2.250000e+000
      vertex  2.250000e+000  0.000000e+000  3.897114e+000
    endloop
  endfacet
  facet normal  -0.000000e+000 -1.000000e+000  0.000000e+000
    outer loop
      vertex  8.034442e-001  0.000000e+000  2.472747e+000
      vertex  2.250000e+000  0.000000e+000  3.897114e+000
      vertex -2.755364e-016  0.000000e+000  4.500000e+000
    endloop
  endfacet
  facet normal  -0.000000e+000 -1.000000e+000  0.000000e+000
    outer loop
      vertex  8.034442e-001  0.000000e+000 -2.472747e+000
      vertex  3.897114e+000  0.000000e+000 -2.250000e+000
      vertex  2.103444e+000  0.000000e+000 -1.528242e+000
    endloop
  endfacet
  facet normal  0.000000e+000 -1.000000e+000  0.000000e+000
    outer loop
      vertex  2.103444e+000  0.000000e+000 -1.528242e+000
      vertex  3.897114e+000  0.000000e+000 -2.250000e+000
      vertex  4.500000e+000  0.000000e+000  5.510729e-016
    endloop
  endfacet
  facet normal  0.000000e+000 -1.000000e+000  0.000000e+000
    outer loop
      vertex  2.103444e+000  0.000000e+000 -1.528242e+000
      vertex  4.500000e+000  0.000000e+000  5.510729e-016
      vertex  2.600000e+000  0.000000e+000  3.183976e-016
    endloop
  endfacet
  facet normal  0.000000e+000 -1.000000e+000  0.000000e+000
    outer loop
      vertex -2.600000e+000  0.000000e+000  0.000000e+000
      vertex -2.103444e+000  0.000000e+000  1.528242e+000
      vertex -4.500000e+000  0.000000e+000  0.000000e+000
    endloop
  endfacet
  facet normal  0.000000e+000 -1.000000e+000  0.000000e+000
    outer loop
      vertex -4.500000e+000  0.000000e+000  0.000000e+000
      vertex -2.103444e+000  0.000000e+000  1.528242e+000
      vertex -8.034442e-001  0.000000e+000  2.472747e+000
    endloop
  endfacet
  facet normal  0.000000e+000 -9.999999e-001  0.000000e+000
    outer loop
      vertex -4.500000e+000  0.000000e+000  0.000000e+000
      vertex -8.034442e-001  0.000000e+000  2.472747e+000
      vertex -3.897114e+000  0.000000e+000  2.250000e+000
    endloop
  endfacet
  facet normal  0.000000e+000 -1.000000e+000  -0.000000e+000
    outer loop
      vertex -8.034442e-001  0.000000e+000 -2.472747e+000
      vertex -2.103444e+000  0.000000e+000 -1.528242e+000
      vertex -3.897114e+000  0.000000e+000 -2.250000e+000
    endloop
  endfacet
  facet normal  0.000000e+000 -1.000000e+000  0.000000e+000
    outer loop
      vertex -3.897114e+000  0.000000e+000 -2.250000e+000
      vertex -2.103444e+000  0.000000e+000 -1.528242e+000
      vertex -2.600000e+000  0.000000e+000  0.000000e+000
    endloop
  endfacet
  facet normal  -0.000000e+000 -1.000000e+000  0.000000e+000
    outer loop
      vertex -3.897114e+000  0.000000e+000 -2.250000e+000
      vertex -2.600000e+000  0.000000e+000  0.000000e+000
      vertex -4.500000e+000  0.000000e+000  0.000000e+000
    endloop
  endfacet
  facet normal -5.877852e-001  -0.000000e+000 -8.090170e-001
    outer loop
      vertex  8.034442e-001  0.000000e+000  2.472747e+000
      vertex  2.103444e+000  9.400000e+000  1.528242e+000
      vertex  2.103444e+000  0.000000e+000  1.528242e+000
    endloop
  endfacet
  facet normal -9.510565e-001  0.000000e+000 -3.090170e-001
    outer loop
      vertex  2.103444e+000  0.000000e+000  1.528242e+000
      vertex  2.103444e+000  9.400000e+000  1.528242e+000
      vertex  2.600000e+000  9.400000e+000  3.183976e-016
    endloop
  endfacet
  facet normal -9.510565e-001  -0.000000e+000 -3.090170e-001
    outer loop
      vertex  2.103444e+000  0.000000e+000  1.528242e+000
      vertex  2.600000e+000  9.400000e+000  3.183976e-016
      vertex  2.600000e+000  0.000000e+000  3.183976e-016
    endloop
  endfacet
  facet normal -5.877852e-001  0.000000e+000 -8.090170e-001
    outer loop
      vertex  2.103444e+000  9.400000e+000  1.528242e+000
      vertex  8.034442e-001  0.000000e+000  2.472747e+000
      vertex  8.034442e-001  9.400000e+000  2.472747e+000
    endloop
  endfacet
  facet normal  0.000000e+000  -0.000000e+000 -1.000000e+000
    outer loop
      vertex  8.034442e-001  9.400000e+000  2.472747e+000
      vertex  8.034442e-001  0.000000e+000  2.472747e+000
      vertex -8.034442e-001  0.000000e+000  2.472747e+000
    endloop
  endfacet
  facet normal  0.000000e+000  0.000000e+000 -1.000000e+000
    outer loop
      vertex  8.034442e-001  9.400000e+000  2.472747e+000
      vertex -8.034442e-001  0.000000e+000  2.472747e+000
      vertex -8.034442e-001  9.400000e+000  2.472747e+000
    endloop
  endfacet
  facet normal  5.877852e-001  0.000000e+000 -8.090170e-001
    outer loop
      vertex -8.034442e-001  9.400000e+000  2.472747e+000
      vertex -8.034442e-001  0.000000e+000  2.472747e+000
      vertex -2.103444e+000  0.000000e+000  1.528242e+000
    endloop
  endfacet
  facet normal  5.877852e-001  0.000000e+000 -8.090170e-001
    outer loop
      vertex -8.034442e-001  9.400000e+000  2.472747e+000
      vertex -2.103444e+000  0.000000e+000  1.528242e+000
      vertex -2.103444e+000  9.400000e+000  1.528242e+000
    endloop
  endfacet
  facet normal  9.510565e-001  0.000000e+000 -3.090170e-001
    outer loop
      vertex -2.103444e+000  9.400000e+000  1.528242e+000
      vertex -2.103444e+000  0.000000e+000  1.528242e+000
      vertex -2.600000e+000  0.000000e+000  0.000000e+000
    endloop
  endfacet
  facet normal  9.510565e-001  0.000000e+000 -3.090170e-001
    outer loop
      vertex -2.103444e+000  9.400000e+000  1.528242e+000
      vertex -2.600000e+000  0.000000e+000  0.000000e+000
      vertex -2.600000e+000  9.400000e+000  0.000000e+000
    endloop
  endfacet
  facet normal  5.877852e-001  0.000000e+000  8.090170e-001
    outer loop
      vertex -8.034442e-001  0.000000e+000 -2.472747e+000
      vertex -2.103444e+000  9.400000e+000 -1.528242e+000
      vertex -2.103444e+000  0.000000e+000 -1.528242e+000
    endloop
  endfacet
  facet normal  9.510565e-001  -0.000000e+000  3.090170e-001
    outer loop
      vertex -2.103444e+000  0.000000e+000 -1.528242e+000
      vertex -2.103444e+000  9.400000e+000 -1.528242e+000
      vertex -2.600000e+000  9.400000e+000  0.000000e+000
    endloop
  endfacet
  facet normal  9.510565e-001  0.000000e+000  3.090170e-001
    outer loop
      vertex -2.103444e+000  0.000000e+000 -1.528242e+000
      vertex -2.600000e+000  9.400000e+000  0.000000e+000
      vertex -2.600000e+000  0.000000e+000  0.000000e+000
    endloop
  endfacet
  facet normal  5.877852e-001  -0.000000e+000  8.090170e-001
    outer loop
      vertex -2.103444e+000  9.400000e+000 -1.528242e+000
      vertex -8.034442e-001  0.000000e+000 -2.472747e+000
      vertex -8.034442e-001  9.400000e+000 -2.472747e+000
    endloop
  endfacet
  facet normal  0.000000e+000  0.000000e+000  1.000000e+000
    outer loop
      vertex -8.034442e-001  9.400000e+000 -2.472747e+000
      vertex -8.034442e-001  0.000000e+000 -2.472747e+000
      vertex  8.034442e-001  0.000000e+000 -2.472747e+000
    endloop
  endfacet
  facet normal  0.000000e+000  -0.000000e+000  1.000000e+000
    outer loop
      vertex -8.034442e-001  9.400000e+000 -2.472747e+000
      vertex  8.034442e-001  0.000000e+000 -2.472747e+000
      vertex  8.034442e-001  9.400000e+000 -2.472747e+000
    endloop
  endfacet
  facet normal -5.877852e-001  0.000000e+000  8.090170e-001
    outer loop
      vertex  8.034442e-001  9.400000e+000 -2.472747e+000
      vertex  8.034442e-001  0.000000e+000 -2.472747e+000
      vertex  2.103444e+000  0.000000e+000 -1.528242e+000
    endloop
  endfacet
  facet normal -5.877852e-001  0.000000e+000  8.090170e-001
    outer loop
      vertex  8.034442e-001  9.400000e+000 -2.472747e+000
      vertex  2.103444e+000  0.000000e+000 -1.528242e+000
      vertex  2.103444e+000  9.400000e+000 -1.528242e+000
    endloop
  endfacet
  facet normal -9.510565e-001  0.000000e+000  3.090170e-001
    outer loop
      vertex  2.103444e+000  9.400000e+000 -1.528242e+000
      vertex  2.103444e+000  0.000000e+000 -1.528242e+000
      vertex  2.600000e+000  0.000000e+000  3.183976e-016
    endloop
  endfacet
  facet normal -9.510565e-001  0.000000e+000  3.090170e-001
    outer loop
      vertex  2.103444e+000  9.400000e+000 -1.528242e+000
      vertex  2.600000e+000  0.000000e+000  3.183976e-016
      vertex  2.600000e+000  9.400000e+000  3.183976e-016
    endloop
  endfacet
  facet normal -9.659258e-001  -0.000000e+000 -2.588191e-001
    outer loop
      vertex -4.500000e+000  0.000000e+000  0.000000e+000
      vertex -4.500000e+000  9.400000e+000  0.000000e+000
      vertex -3.897114e+000  0.000000e+000 -2.250000e+000
    endloop
  endfacet
  facet normal -9.659258e-001  0.000000e+000 -2.588191e-001
    outer loop
      vertex -3.897114e+000  0.000000e+000 -2.250000e+000
      vertex -4.500000e+000  9.400000e+000  0.000000e+000
      vertex -3.897114e+000  9.400000e+000 -2.250000e+000
    endloop
  endfacet
  facet normal -7.071068e-001  -0.000000e+000 -7.071068e-001
    outer loop
      vertex -3.897114e+000  0.000000e+000 -2.250000e+000
      vertex -3.897114e+000  9.400000e+000 -2.250000e+000
      vertex -2.250000e+000  0.000000e+000 -3.897114e+000
    endloop
  endfacet
  facet normal -7.071068e-001  0.000000e+000 -7.071068e-001
    outer loop
      vertex -2.250000e+000  0.000000e+000 -3.897114e+000
      vertex -3.897114e+000  9.400000e+000 -2.250000e+000
      vertex -2.250000e+000  9.400000e+000 -3.897114e+000
    endloop
  endfacet
  facet normal -2.588191e-001  -0.000000e+000 -9.659258e-001
    outer loop
      vertex -2.250000e+000  0.000000e+000 -3.897114e+000
      vertex -2.250000e+000  9.400000e+000 -3.897114e+000
      vertex  8.266093e-016  0.000000e+000 -4.500000e+000
    endloop
  endfacet
  facet normal -2.588191e-001  0.000000e+000 -9.659258e-001
    outer loop
      vertex  8.266093e-016  0.000000e+000 -4.500000e+000
      vertex -2.250000e+000  9.400000e+000 -3.897114e+000
      vertex  8.266093e-016  9.400000e+000 -4.500000e+000
    endloop
  endfacet
  facet normal  2.588191e-001  0.000000e+000 -9.659258e-001
    outer loop
      vertex  8.266093e-016  0.000000e+000 -4.500000e+000
      vertex  8.266093e-016  9.400000e+000 -4.500000e+000
      vertex  2.250000e+000  0.000000e+000 -3.897114e+000
    endloop
  endfacet
  facet normal  2.588191e-001  0.000000e+000 -9.659258e-001
    outer loop
      vertex  2.250000e+000  0.000000e+000 -3.897114e+000
      vertex  8.266093e-016  9.400000e+000 -4.500000e+000
      vertex  2.250000e+000  9.400000e+000 -3.897114e+000
    endloop
  endfacet
  facet normal  7.071068e-001  0.000000e+000 -7.071068e-001
    outer loop
      vertex  2.250000e+000  0.000000e+000 -3.897114e+000
      vertex  2.250000e+000  9.400000e+000 -3.897114e+000
      vertex  3.897114e+000  0.000000e+000 -2.250000e+000
    endloop
  endfacet
  facet normal  7.071068e-001  0.000000e+000 -7.071068e-001
    outer loop
      vertex  3.897114e+000  0.000000e+000 -2.250000e+000
      vertex  2.250000e+000  9.400000e+000 -3.897114e+000
      vertex  3.897114e+000  9.400000e+000 -2.250000e+000
    endloop
  endfacet
  facet normal  9.659258e-001  0.000000e+000 -2.588191e-001
    outer loop
      vertex  3.897114e+000  0.000000e+000 -2.250000e+000
      vertex  3.897114e+000  9.400000e+000 -2.250000e+000
      vertex  4.500000e+000  0.000000e+000  5.510729e-016
    endloop
  endfacet
  facet normal  9.659258e-001  0.000000e+000 -2.588191e-001
    outer loop
      vertex  4.500000e+000  0.000000e+000  5.510729e-016
      vertex  3.897114e+000  9.400000e+000 -2.250000e+000
      vertex  4.500000e+000  9.400000e+000  5.510729e-016
    endloop
  endfacet
  facet normal  9.659258e-001  0.000000e+000  2.588191e-001
    outer loop
      vertex  4.500000e+000  0.000000e+000  5.510729e-016
      vertex  4.500000e+000  9.400000e+000  5.510729e-016
      vertex  3.897114e+000  0.000000e+000  2.250000e+000
    endloop
  endfacet
  facet normal  9.659258e-001  -0.000000e+000  2.588191e-001
    outer loop
      vertex  3.897114e+000  0.000000e+000  2.250000e+000
      vertex  4.500000e+000  9.400000e+000  5.510729e-016
      vertex  3.897114e+000  9.400000e+000  2.250000e+000
    endloop
  endfacet
  facet normal  7.071068e-001  0.000000e+000  7.071068e-001
    outer loop
      vertex  3.897114e+000  0.000000e+000  2.250000e+000
      vertex  3.897114e+000  9.400000e+000  2.250000e+000
      vertex  2.250000e+000  0.000000e+000  3.897114e+000
    endloop
  endfacet
  facet normal  7.071068e-001  -0.000000e+000  7.071068e-001
    outer loop
      vertex  2.250000e+000  0.000000e+000  3.897114e+000
      vertex  3.897114e+000  9.400000e+000  2.250000e+000
      vertex  2.250000e+000  9.400000e+000  3.897114e+000
    endloop
  endfacet
  facet normal  2.588191e-001  0.000000e+000  9.659258e-001
    outer loop
      vertex  2.250000e+000  0.000000e+000  3.897114e+000
      vertex  2.250000e+000  9.400000e+000  3.897114e+000
      vertex -2.755364e-016  0.000000e+000  4.500000e+000
    endloop
  endfacet
  facet normal  2.588191e-001  -0.000000e+000  9.659258e-001
    outer loop
      vertex -2.755364e-016  0.000000e+000  4.500000e+000
      vertex  2.250000e+000  9.400000e+000  3.897114e+000
      vertex -2.755364e-016  9.400000e+000  4.500000e+000
    endloop
  endfacet
  facet normal -2.588191e-001  0.000000e+000  9.659258e-001
    outer loop
      vertex -2.755364e-016  0.000000e+000  4.500000e+000
      vertex -2.755364e-016  9.400000e+000  4.500000e+000
      vertex -2.250000e+000  0.000000e+000  3.897114e+000
    endloop
  endfacet
  facet normal -2.588191e-001  0.000000e+000  9.659258e-001
    outer loop
      vertex -2.250000e+000  0.000000e+000  3.897114e+000
      vertex -2.755364e-016  9.400000e+000  4.500000e+000
      vertex -2.250000e+000  9.400000e+000  3.897114e+000
    endloop
  endfacet
  facet normal -7.071068e-001  0.000000e+000  7.071068e-001
    outer loop
      vertex -2.250000e+000  0.000000e+000  3.897114e+000
      vertex -2.250000e+000  9.400000e+000  3.897114e+000
      vertex -3.897114e+000  0.000000e+000  2.250000e+000
    endloop
  endfacet
  facet normal -7.071068e-001  0.000000e+000  7.071068e-001
    outer loop
      vertex -3.897114e+000  0.000000e+000  2.250000e+000
      vertex -2.250000e+000  9.400000e+000  3.897114e+000
      vertex -3.897114e+000  9.400000e+000  2.250000e+000
    endloop
  endfacet
  facet normal -9.659258e-001  0.000000e+000  2.588191e-001
    outer loop
      vertex -3.897114e+000  0.000000e+000  2.250000e+000
      vertex -3.897114e+000  9.400000e+000  2.250000e+000
      vertex -4.500000e+000  0.000000e+000  0.000000e+000
    endloop
  endfacet
  facet normal -9.659258e-001  0.000000e+000  2.588191e-001
    outer loop
      vertex -4.500000e+000  0.000000e+000  0.000000e+000
      vertex -3.897114e+000  9.400000e+000  2.250000e+000
      vertex -4.500000e+000  9.400000e+000  0.000000e+000
    endloop
  endfacet
endsolid CATIA STL
