solid CATIA STL
  facet normal  0.000000e+000  1.000000e+000  0.000000e+000
    outer loop
      vertex  7.500000e+001  1.100000e+001 -2.500000e+001
      vertex  7.608156e+001  1.100000e+001 -2.667130e+001
      vertex  7.250000e+001  1.100000e+001 -2.566987e+001
    endloop
  endfacet
  facet normal  0.000000e+000  1.000000e+000  0.000000e+000
    outer loop
      vertex  7.250000e+001  1.100000e+001 -2.566987e+001
      vertex  7.608156e+001  1.100000e+001 -2.667130e+001
      vertex  7.391844e+001  1.100000e+001 -2.667130e+001
    endloop
  endfacet
  facet normal  0.000000e+000  1.000000e+000  0.000000e+000
    outer loop
      vertex  7.250000e+001  1.100000e+001 -2.566987e+001
      vertex  7.391844e+001  1.100000e+001 -2.667130e+001
      vertex  7.066988e+001  1.100000e+001 -2.750000e+001
    endloop
  endfacet
  facet normal  -0.000000e+000  1.000000e+000  0.000000e+000
    outer loop
      vertex  7.066988e+001  1.100000e+001 -2.750000e+001
      vertex  7.391844e+001  1.100000e+001 -2.667130e+001
      vertex  7.216844e+001  1.100000e+001 -2.794275e+001
    endloop
  endfacet
  facet normal  0.000000e+000  1.000000e+000  0.000000e+000
    outer loop
      vertex  7.066988e+001  1.100000e+001 -2.750000e+001
      vertex  7.216844e+001  1.100000e+001 -2.794275e+001
      vertex  7.000000e+001  1.100000e+001 -3.000000e+001
    endloop
  endfacet
  facet normal  0.000000e+000  1.000000e+000  0.000000e+000
    outer loop
      vertex  7.000000e+001  1.100000e+001 -3.000000e+001
      vertex  7.216844e+001  1.100000e+001 -2.794275e+001
      vertex  7.150000e+001  1.100000e+001 -3.000000e+001
    endloop
  endfacet
  facet normal  0.000000e+000  1.000000e+000  0.000000e+000
    outer loop
      vertex  7.000000e+001  1.100000e+001 -3.000000e+001
      vertex  7.150000e+001  1.100000e+001 -3.000000e+001
      vertex  7.066988e+001  1.100000e+001 -3.250000e+001
    endloop
  endfacet
  facet normal  0.000000e+000  9.999999e-001  0.000000e+000
    outer loop
      vertex  7.066988e+001  1.100000e+001 -3.250000e+001
      vertex  7.150000e+001  1.100000e+001 -3.000000e+001
      vertex  7.216844e+001  1.100000e+001 -3.205725e+001
    endloop
  endfacet
  facet normal  0.000000e+000  9.999999e-001  0.000000e+000
    outer loop
      vertex  7.066988e+001  1.100000e+001 -3.250000e+001
      vertex  7.216844e+001  1.100000e+001 -3.205725e+001
      vertex  7.250000e+001  1.100000e+001 -3.433013e+001
    endloop
  endfacet
  facet normal  0.000000e+000  9.999999e-001  -0.000000e+000
    outer loop
      vertex  7.250000e+001  1.100000e+001 -3.433013e+001
      vertex  7.216844e+001  1.100000e+001 -3.205725e+001
      vertex  7.391844e+001  1.100000e+001 -3.332870e+001
    endloop
  endfacet
  facet normal  0.000000e+000  1.000000e+000  0.000000e+000
    outer loop
      vertex  7.250000e+001  1.100000e+001 -3.433013e+001
      vertex  7.391844e+001  1.100000e+001 -3.332870e+001
      vertex  7.500000e+001  1.100000e+001 -3.500000e+001
    endloop
  endfacet
  facet normal  0.000000e+000  1.000000e+000  -0.000000e+000
    outer loop
      vertex  7.500000e+001  1.100000e+001 -3.500000e+001
      vertex  7.391844e+001  1.100000e+001 -3.332870e+001
      vertex  7.608156e+001  1.100000e+001 -3.332870e+001
    endloop
  endfacet
  facet normal  0.000000e+000  1.000000e+000  0.000000e+000
    outer loop
      vertex  7.500000e+001  1.100000e+001 -3.500000e+001
      vertex  7.608156e+001  1.100000e+001 -3.332870e+001
      vertex  7.750000e+001  1.100000e+001 -3.433013e+001
    endloop
  endfacet
  facet normal  -0.000000e+000  1.000000e+000  0.000000e+000
    outer loop
      vertex  7.750000e+001  1.100000e+001 -3.433013e+001
      vertex  7.608156e+001  1.100000e+001 -3.332870e+001
      vertex  7.933012e+001  1.100000e+001 -3.250000e+001
    endloop
  endfacet
  facet normal  0.000000e+000  1.000000e+000  0.000000e+000
    outer loop
      vertex  7.933012e+001  1.100000e+001 -3.250000e+001
      vertex  7.608156e+001  1.100000e+001 -3.332870e+001
      vertex  7.783156e+001  1.100000e+001 -3.205725e+001
    endloop
  endfacet
  facet normal  -0.000000e+000  1.000000e+000  0.000000e+000
    outer loop
      vertex  7.933012e+001  1.100000e+001 -3.250000e+001
      vertex  7.783156e+001  1.100000e+001 -3.205725e+001
      vertex  8.000000e+001  1.100000e+001 -3.000000e+001
    endloop
  endfacet
  facet normal  0.000000e+000  1.000000e+000  0.000000e+000
    outer loop
      vertex  8.000000e+001  1.100000e+001 -3.000000e+001
      vertex  7.783156e+001  1.100000e+001 -3.205725e+001
      vertex  7.850000e+001  1.100000e+001 -3.000000e+001
    endloop
  endfacet
  facet normal  0.000000e+000  1.000000e+000  0.000000e+000
    outer loop
      vertex  8.000000e+001  1.100000e+001 -3.000000e+001
      vertex  7.850000e+001  1.100000e+001 -3.000000e+001
      vertex  7.933012e+001  1.100000e+001 -2.750000e+001
    endloop
  endfacet
  facet normal  0.000000e+000  1.000000e+000  0.000000e+000
    outer loop
      vertex  7.933012e+001  1.100000e+001 -2.750000e+001
      vertex  7.850000e+001  1.100000e+001 -3.000000e+001
      vertex  7.783156e+001  1.100000e+001 -2.794275e+001
    endloop
  endfacet
  facet normal  0.000000e+000  9.999999e-001  -0.000000e+000
    outer loop
      vertex  7.933012e+001  1.100000e+001 -2.750000e+001
      vertex  7.783156e+001  1.100000e+001 -2.794275e+001
      vertex  7.750000e+001  1.100000e+001 -2.566987e+001
    endloop
  endfacet
  facet normal  0.000000e+000  9.999999e-001  0.000000e+000
    outer loop
      vertex  7.750000e+001  1.100000e+001 -2.566987e+001
      vertex  7.783156e+001  1.100000e+001 -2.794275e+001
      vertex  7.608156e+001  1.100000e+001 -2.667130e+001
    endloop
  endfacet
  facet normal  0.000000e+000  1.000000e+000  -0.000000e+000
    outer loop
      vertex  7.750000e+001  1.100000e+001 -2.566987e+001
      vertex  7.608156e+001  1.100000e+001 -2.667130e+001
      vertex  7.500000e+001  1.100000e+001 -2.500000e+001
    endloop
  endfacet
  facet normal  0.000000e+000 -1.000000e+000  -0.000000e+000
    outer loop
      vertex  7.750000e+001 -1.100000e+001 -3.433013e+001
      vertex  7.608156e+001 -1.100000e+001 -3.332870e+001
      vertex  7.500000e+001 -1.100000e+001 -3.500000e+001
    endloop
  endfacet
  facet normal  0.000000e+000 -1.000000e+000  0.000000e+000
    outer loop
      vertex  7.500000e+001 -1.100000e+001 -3.500000e+001
      vertex  7.608156e+001 -1.100000e+001 -3.332870e+001
      vertex  7.391844e+001 -1.100000e+001 -3.332870e+001
    endloop
  endfacet
  facet normal  0.000000e+000 -1.000000e+000  -0.000000e+000
    outer loop
      vertex  7.500000e+001 -1.100000e+001 -3.500000e+001
      vertex  7.391844e+001 -1.100000e+001 -3.332870e+001
      vertex  7.250000e+001 -1.100000e+001 -3.433013e+001
    endloop
  endfacet
  facet normal  0.000000e+000 -9.999999e-001  0.000000e+000
    outer loop
      vertex  7.250000e+001 -1.100000e+001 -3.433013e+001
      vertex  7.391844e+001 -1.100000e+001 -3.332870e+001
      vertex  7.216844e+001 -1.100000e+001 -3.205725e+001
    endloop
  endfacet
  facet normal  0.000000e+000 -9.999999e-001  -0.000000e+000
    outer loop
      vertex  7.250000e+001 -1.100000e+001 -3.433013e+001
      vertex  7.216844e+001 -1.100000e+001 -3.205725e+001
      vertex  7.066988e+001 -1.100000e+001 -3.250000e+001
    endloop
  endfacet
  facet normal  0.000000e+000 -9.999999e-001  0.000000e+000
    outer loop
      vertex  7.066988e+001 -1.100000e+001 -3.250000e+001
      vertex  7.216844e+001 -1.100000e+001 -3.205725e+001
      vertex  7.150000e+001 -1.100000e+001 -3.000000e+001
    endloop
  endfacet
  facet normal  -0.000000e+000 -1.000000e+000  0.000000e+000
    outer loop
      vertex  7.066988e+001 -1.100000e+001 -3.250000e+001
      vertex  7.150000e+001 -1.100000e+001 -3.000000e+001
      vertex  7.000000e+001 -1.100000e+001 -3.000000e+001
    endloop
  endfacet
  facet normal  0.000000e+000 -1.000000e+000  0.000000e+000
    outer loop
      vertex  7.000000e+001 -1.100000e+001 -3.000000e+001
      vertex  7.150000e+001 -1.100000e+001 -3.000000e+001
      vertex  7.216844e+001 -1.100000e+001 -2.794275e+001
    endloop
  endfacet
  facet normal  -0.000000e+000 -1.000000e+000  0.000000e+000
    outer loop
      vertex  7.000000e+001 -1.100000e+001 -3.000000e+001
      vertex  7.216844e+001 -1.100000e+001 -2.794275e+001
      vertex  7.066988e+001 -1.100000e+001 -2.750000e+001
    endloop
  endfacet
  facet normal  0.000000e+000 -1.000000e+000  0.000000e+000
    outer loop
      vertex  7.066988e+001 -1.100000e+001 -2.750000e+001
      vertex  7.216844e+001 -1.100000e+001 -2.794275e+001
      vertex  7.391844e+001 -1.100000e+001 -2.667130e+001
    endloop
  endfacet
  facet normal  -0.000000e+000 -1.000000e+000  0.000000e+000
    outer loop
      vertex  7.066988e+001 -1.100000e+001 -2.750000e+001
      vertex  7.391844e+001 -1.100000e+001 -2.667130e+001
      vertex  7.250000e+001 -1.100000e+001 -2.566987e+001
    endloop
  endfacet
  facet normal  0.000000e+000 -1.000000e+000  0.000000e+000
    outer loop
      vertex  7.250000e+001 -1.100000e+001 -2.566987e+001
      vertex  7.391844e+001 -1.100000e+001 -2.667130e+001
      vertex  7.608156e+001 -1.100000e+001 -2.667130e+001
    endloop
  endfacet
  facet normal  0.000000e+000 -1.000000e+000  0.000000e+000
    outer loop
      vertex  7.250000e+001 -1.100000e+001 -2.566987e+001
      vertex  7.608156e+001 -1.100000e+001 -2.667130e+001
      vertex  7.500000e+001 -1.100000e+001 -2.500000e+001
    endloop
  endfacet
  facet normal  0.000000e+000 -1.000000e+000  0.000000e+000
    outer loop
      vertex  7.500000e+001 -1.100000e+001 -2.500000e+001
      vertex  7.608156e+001 -1.100000e+001 -2.667130e+001
      vertex  7.750000e+001 -1.100000e+001 -2.566987e+001
    endloop
  endfacet
  facet normal  0.000000e+000 -9.999999e-001  -0.000000e+000
    outer loop
      vertex  7.750000e+001 -1.100000e+001 -2.566987e+001
      vertex  7.608156e+001 -1.100000e+001 -2.667130e+001
      vertex  7.783156e+001 -1.100000e+001 -2.794275e+001
    endloop
  endfacet
  facet normal  0.000000e+000 -9.999999e-001  0.000000e+000
    outer loop
      vertex  7.750000e+001 -1.100000e+001 -2.566987e+001
      vertex  7.783156e+001 -1.100000e+001 -2.794275e+001
      vertex  7.933012e+001 -1.100000e+001 -2.750000e+001
    endloop
  endfacet
  facet normal  0.000000e+000 -1.000000e+000  0.000000e+000
    outer loop
      vertex  7.933012e+001 -1.100000e+001 -2.750000e+001
      vertex  7.783156e+001 -1.100000e+001 -2.794275e+001
      vertex  7.850000e+001 -1.100000e+001 -3.000000e+001
    endloop
  endfacet
  facet normal  0.000000e+000 -1.000000e+000  0.000000e+000
    outer loop
      vertex  7.933012e+001 -1.100000e+001 -2.750000e+001
      vertex  7.850000e+001 -1.100000e+001 -3.000000e+001
      vertex  8.000000e+001 -1.100000e+001 -3.000000e+001
    endloop
  endfacet
  facet normal  -0.000000e+000 -1.000000e+000  0.000000e+000
    outer loop
      vertex  8.000000e+001 -1.100000e+001 -3.000000e+001
      vertex  7.850000e+001 -1.100000e+001 -3.000000e+001
      vertex  7.783156e+001 -1.100000e+001 -3.205725e+001
    endloop
  endfacet
  facet normal  0.000000e+000 -1.000000e+000  0.000000e+000
    outer loop
      vertex  8.000000e+001 -1.100000e+001 -3.000000e+001
      vertex  7.783156e+001 -1.100000e+001 -3.205725e+001
      vertex  7.933012e+001 -1.100000e+001 -3.250000e+001
    endloop
  endfacet
  facet normal  -0.000000e+000 -1.000000e+000  0.000000e+000
    outer loop
      vertex  7.933012e+001 -1.100000e+001 -3.250000e+001
      vertex  7.783156e+001 -1.100000e+001 -3.205725e+001
      vertex  7.608156e+001 -1.100000e+001 -3.332870e+001
    endloop
  endfacet
  facet normal  0.000000e+000 -1.000000e+000  0.000000e+000
    outer loop
      vertex  7.933012e+001 -1.100000e+001 -3.250000e+001
      vertex  7.608156e+001 -1.100000e+001 -3.332870e+001
      vertex  7.750000e+001 -1.100000e+001 -3.433013e+001
    endloop
  endfacet
  facet normal -5.877849e-001  -0.000000e+000 -8.090173e-001
    outer loop
      vertex  7.608156e+001 -1.100000e+001 -2.667130e+001
      vertex  7.783156e+001  1.100000e+001 -2.794275e+001
      vertex  7.783156e+001 -1.100000e+001 -2.794275e+001
    endloop
  endfacet
  facet normal -9.510564e-001  0.000000e+000 -3.090174e-001
    outer loop
      vertex  7.783156e+001 -1.100000e+001 -2.794275e+001
      vertex  7.783156e+001  1.100000e+001 -2.794275e+001
      vertex  7.850000e+001  1.100000e+001 -3.000000e+001
    endloop
  endfacet
  facet normal -9.510564e-001  -0.000000e+000 -3.090174e-001
    outer loop
      vertex  7.783156e+001 -1.100000e+001 -2.794275e+001
      vertex  7.850000e+001  1.100000e+001 -3.000000e+001
      vertex  7.850000e+001 -1.100000e+001 -3.000000e+001
    endloop
  endfacet
  facet normal -5.877849e-001  0.000000e+000 -8.090173e-001
    outer loop
      vertex  7.783156e+001  1.100000e+001 -2.794275e+001
      vertex  7.608156e+001 -1.100000e+001 -2.667130e+001
      vertex  7.608156e+001  1.100000e+001 -2.667130e+001
    endloop
  endfacet
  facet normal  0.000000e+000  -0.000000e+000 -1.000000e+000
    outer loop
      vertex  7.608156e+001  1.100000e+001 -2.667130e+001
      vertex  7.608156e+001 -1.100000e+001 -2.667130e+001
      vertex  7.391844e+001 -1.100000e+001 -2.667130e+001
    endloop
  endfacet
  facet normal  0.000000e+000  0.000000e+000 -1.000000e+000
    outer loop
      vertex  7.608156e+001  1.100000e+001 -2.667130e+001
      vertex  7.391844e+001 -1.100000e+001 -2.667130e+001
      vertex  7.391844e+001  1.100000e+001 -2.667130e+001
    endloop
  endfacet
  facet normal  5.877849e-001  0.000000e+000 -8.090173e-001
    outer loop
      vertex  7.391844e+001  1.100000e+001 -2.667130e+001
      vertex  7.391844e+001 -1.100000e+001 -2.667130e+001
      vertex  7.216844e+001 -1.100000e+001 -2.794275e+001
    endloop
  endfacet
  facet normal  5.877849e-001  0.000000e+000 -8.090173e-001
    outer loop
      vertex  7.391844e+001  1.100000e+001 -2.667130e+001
      vertex  7.216844e+001 -1.100000e+001 -2.794275e+001
      vertex  7.216844e+001  1.100000e+001 -2.794275e+001
    endloop
  endfacet
  facet normal  9.510564e-001  0.000000e+000 -3.090174e-001
    outer loop
      vertex  7.216844e+001  1.100000e+001 -2.794275e+001
      vertex  7.216844e+001 -1.100000e+001 -2.794275e+001
      vertex  7.150000e+001 -1.100000e+001 -3.000000e+001
    endloop
  endfacet
  facet normal  9.510564e-001  0.000000e+000 -3.090174e-001
    outer loop
      vertex  7.216844e+001  1.100000e+001 -2.794275e+001
      vertex  7.150000e+001 -1.100000e+001 -3.000000e+001
      vertex  7.150000e+001  1.100000e+001 -3.000000e+001
    endloop
  endfacet
  facet normal  5.877854e-001  0.000000e+000  8.090168e-001
    outer loop
      vertex  7.391844e+001 -1.100000e+001 -3.332870e+001
      vertex  7.216844e+001  1.100000e+001 -3.205725e+001
      vertex  7.216844e+001 -1.100000e+001 -3.205725e+001
    endloop
  endfacet
  facet normal  9.510564e-001  -0.000000e+000  3.090177e-001
    outer loop
      vertex  7.216844e+001 -1.100000e+001 -3.205725e+001
      vertex  7.216844e+001  1.100000e+001 -3.205725e+001
      vertex  7.150000e+001  1.100000e+001 -3.000000e+001
    endloop
  endfacet
  facet normal  9.510564e-001  0.000000e+000  3.090177e-001
    outer loop
      vertex  7.216844e+001 -1.100000e+001 -3.205725e+001
      vertex  7.150000e+001  1.100000e+001 -3.000000e+001
      vertex  7.150000e+001 -1.100000e+001 -3.000000e+001
    endloop
  endfacet
  facet normal  5.877854e-001  -0.000000e+000  8.090168e-001
    outer loop
      vertex  7.216844e+001  1.100000e+001 -3.205725e+001
      vertex  7.391844e+001 -1.100000e+001 -3.332870e+001
      vertex  7.391844e+001  1.100000e+001 -3.332870e+001
    endloop
  endfacet
  facet normal  0.000000e+000  0.000000e+000  1.000000e+000
    outer loop
      vertex  7.391844e+001  1.100000e+001 -3.332870e+001
      vertex  7.391844e+001 -1.100000e+001 -3.332870e+001
      vertex  7.608156e+001 -1.100000e+001 -3.332870e+001
    endloop
  endfacet
  facet normal  0.000000e+000  -0.000000e+000  1.000000e+000
    outer loop
      vertex  7.391844e+001  1.100000e+001 -3.332870e+001
      vertex  7.608156e+001 -1.100000e+001 -3.332870e+001
      vertex  7.608156e+001  1.100000e+001 -3.332870e+001
    endloop
  endfacet
  facet normal -5.877854e-001  0.000000e+000  8.090168e-001
    outer loop
      vertex  7.608156e+001  1.100000e+001 -3.332870e+001
      vertex  7.608156e+001 -1.100000e+001 -3.332870e+001
      vertex  7.783156e+001 -1.100000e+001 -3.205725e+001
    endloop
  endfacet
  facet normal -5.877854e-001  0.000000e+000  8.090168e-001
    outer loop
      vertex  7.608156e+001  1.100000e+001 -3.332870e+001
      vertex  7.783156e+001 -1.100000e+001 -3.205725e+001
      vertex  7.783156e+001  1.100000e+001 -3.205725e+001
    endloop
  endfacet
  facet normal -9.510564e-001  0.000000e+000  3.090177e-001
    outer loop
      vertex  7.783156e+001  1.100000e+001 -3.205725e+001
      vertex  7.783156e+001 -1.100000e+001 -3.205725e+001
      vertex  7.850000e+001 -1.100000e+001 -3.000000e+001
    endloop
  endfacet
  facet normal -9.510564e-001  0.000000e+000  3.090177e-001
    outer loop
      vertex  7.783156e+001  1.100000e+001 -3.205725e+001
      vertex  7.850000e+001 -1.100000e+001 -3.000000e+001
      vertex  7.850000e+001  1.100000e+001 -3.000000e+001
    endloop
  endfacet
  facet normal -9.659255e-001  -0.000000e+000 -2.588201e-001
    outer loop
      vertex  7.000000e+001 -1.100000e+001 -3.000000e+001
      vertex  7.000000e+001  1.100000e+001 -3.000000e+001
      vertex  7.066988e+001 -1.100000e+001 -3.250000e+001
    endloop
  endfacet
  facet normal -9.659255e-001  0.000000e+000 -2.588201e-001
    outer loop
      vertex  7.066988e+001 -1.100000e+001 -3.250000e+001
      vertex  7.000000e+001  1.100000e+001 -3.000000e+001
      vertex  7.066988e+001  1.100000e+001 -3.250000e+001
    endloop
  endfacet
  facet normal -7.071075e-001  -0.000000e+000 -7.071061e-001
    outer loop
      vertex  7.066988e+001 -1.100000e+001 -3.250000e+001
      vertex  7.066988e+001  1.100000e+001 -3.250000e+001
      vertex  7.250000e+001 -1.100000e+001 -3.433013e+001
    endloop
  endfacet
  facet normal -7.071075e-001  0.000000e+000 -7.071061e-001
    outer loop
      vertex  7.250000e+001 -1.100000e+001 -3.433013e+001
      vertex  7.066988e+001  1.100000e+001 -3.250000e+001
      vertex  7.250000e+001  1.100000e+001 -3.433013e+001
    endloop
  endfacet
  facet normal -2.588188e-001  -0.000000e+000 -9.659259e-001
    outer loop
      vertex  7.250000e+001 -1.100000e+001 -3.433013e+001
      vertex  7.250000e+001  1.100000e+001 -3.433013e+001
      vertex  7.500000e+001 -1.100000e+001 -3.500000e+001
    endloop
  endfacet
  facet normal -2.588188e-001  0.000000e+000 -9.659259e-001
    outer loop
      vertex  7.500000e+001 -1.100000e+001 -3.500000e+001
      vertex  7.250000e+001  1.100000e+001 -3.433013e+001
      vertex  7.500000e+001  1.100000e+001 -3.500000e+001
    endloop
  endfacet
  facet normal  2.588188e-001  0.000000e+000 -9.659259e-001
    outer loop
      vertex  7.500000e+001 -1.100000e+001 -3.500000e+001
      vertex  7.500000e+001  1.100000e+001 -3.500000e+001
      vertex  7.750000e+001 -1.100000e+001 -3.433013e+001
    endloop
  endfacet
  facet normal  2.588188e-001  0.000000e+000 -9.659259e-001
    outer loop
      vertex  7.750000e+001 -1.100000e+001 -3.433013e+001
      vertex  7.500000e+001  1.100000e+001 -3.500000e+001
      vertex  7.750000e+001  1.100000e+001 -3.433013e+001
    endloop
  endfacet
  facet normal  7.071075e-001  0.000000e+000 -7.071061e-001
    outer loop
      vertex  7.750000e+001 -1.100000e+001 -3.433013e+001
      vertex  7.750000e+001  1.100000e+001 -3.433013e+001
      vertex  7.933012e+001 -1.100000e+001 -3.250000e+001
    endloop
  endfacet
  facet normal  7.071075e-001  0.000000e+000 -7.071061e-001
    outer loop
      vertex  7.933012e+001 -1.100000e+001 -3.250000e+001
      vertex  7.750000e+001  1.100000e+001 -3.433013e+001
      vertex  7.933012e+001  1.100000e+001 -3.250000e+001
    endloop
  endfacet
  facet normal  9.659255e-001  0.000000e+000 -2.588201e-001
    outer loop
      vertex  7.933012e+001 -1.100000e+001 -3.250000e+001
      vertex  7.933012e+001  1.100000e+001 -3.250000e+001
      vertex  8.000000e+001 -1.100000e+001 -3.000000e+001
    endloop
  endfacet
  facet normal  9.659255e-001  0.000000e+000 -2.588201e-001
    outer loop
      vertex  8.000000e+001 -1.100000e+001 -3.000000e+001
      vertex  7.933012e+001  1.100000e+001 -3.250000e+001
      vertex  8.000000e+001  1.100000e+001 -3.000000e+001
    endloop
  endfacet
  facet normal  9.659255e-001  0.000000e+000  2.588201e-001
    outer loop
      vertex  8.000000e+001 -1.100000e+001 -3.000000e+001
      vertex  8.000000e+001  1.100000e+001 -3.000000e+001
      vertex  7.933012e+001 -1.100000e+001 -2.750000e+001
    endloop
  endfacet
  facet normal  9.659255e-001  -0.000000e+000  2.588201e-001
    outer loop
      vertex  7.933012e+001 -1.100000e+001 -2.750000e+001
      vertex  8.000000e+001  1.100000e+001 -3.000000e+001
      vertex  7.933012e+001  1.100000e+001 -2.750000e+001
    endloop
  endfacet
  facet normal  7.071075e-001  0.000000e+000  7.071061e-001
    outer loop
      vertex  7.933012e+001 -1.100000e+001 -2.750000e+001
      vertex  7.933012e+001  1.100000e+001 -2.750000e+001
      vertex  7.750000e+001 -1.100000e+001 -2.566987e+001
    endloop
  endfacet
  facet normal  7.071075e-001  -0.000000e+000  7.071061e-001
    outer loop
      vertex  7.750000e+001 -1.100000e+001 -2.566987e+001
      vertex  7.933012e+001  1.100000e+001 -2.750000e+001
      vertex  7.750000e+001  1.100000e+001 -2.566987e+001
    endloop
  endfacet
  facet normal  2.588188e-001  0.000000e+000  9.659259e-001
    outer loop
      vertex  7.750000e+001 -1.100000e+001 -2.566987e+001
      vertex  7.750000e+001  1.100000e+001 -2.566987e+001
      vertex  7.500000e+001 -1.100000e+001 -2.500000e+001
    endloop
  endfacet
  facet normal  2.588188e-001  -0.000000e+000  9.659259e-001
    outer loop
      vertex  7.500000e+001 -1.100000e+001 -2.500000e+001
      vertex  7.750000e+001  1.100000e+001 -2.566987e+001
      vertex  7.500000e+001  1.100000e+001 -2.500000e+001
    endloop
  endfacet
  facet normal -2.588188e-001  0.000000e+000  9.659259e-001
    outer loop
      vertex  7.500000e+001 -1.100000e+001 -2.500000e+001
      vertex  7.500000e+001  1.100000e+001 -2.500000e+001
      vertex  7.250000e+001 -1.100000e+001 -2.566987e+001
    endloop
  endfacet
  facet normal -2.588188e-001  0.000000e+000  9.659259e-001
    outer loop
      vertex  7.250000e+001 -1.100000e+001 -2.566987e+001
      vertex  7.500000e+001  1.100000e+001 -2.500000e+001
      vertex  7.250000e+001  1.100000e+001 -2.566987e+001
    endloop
  endfacet
  facet normal -7.071075e-001  0.000000e+000  7.071061e-001
    outer loop
      vertex  7.250000e+001 -1.100000e+001 -2.566987e+001
      vertex  7.250000e+001  1.100000e+001 -2.566987e+001
      vertex  7.066988e+001 -1.100000e+001 -2.750000e+001
    endloop
  endfacet
  facet normal -7.071075e-001  0.000000e+000  7.071061e-001
    outer loop
      vertex  7.066988e+001 -1.100000e+001 -2.750000e+001
      vertex  7.250000e+001  1.100000e+001 -2.566987e+001
      vertex  7.066988e+001  1.100000e+001 -2.750000e+001
    endloop
  endfacet
  facet normal -9.659255e-001  0.000000e+000  2.588201e-001
    outer loop
      vertex  7.066988e+001 -1.100000e+001 -2.750000e+001
      vertex  7.066988e+001  1.100000e+001 -2.750000e+001
      vertex  7.000000e+001 -1.100000e+001 -3.000000e+001
    endloop
  endfacet
  facet normal -9.659255e-001  0.000000e+000  2.588201e-001
    outer loop
      vertex  7.000000e+001 -1.100000e+001 -3.000000e+001
      vertex  7.066988e+001  1.100000e+001 -2.750000e+001
      vertex  7.000000e+001  1.100000e+001 -3.000000e+001
    endloop
  endfacet
endsolid CATIA STL
