solid CATIA STL
  facet normal  0.000000e+000 -1.000000e+000  -0.000000e+000
    outer loop
      vertex  2.533856e+000  0.000000e+000 -8.635946e+000
      vertex  3.839000e-001  0.000000e+000 -2.975335e+000
      vertex -9.638562e-001  0.000000e+000 -8.948239e+000
    endloop
  endfacet
  facet normal  0.000000e+000 -1.000000e+000  0.000000e+000
    outer loop
      vertex -4.314830e+000  0.000000e+000 -7.898243e+000
      vertex -9.638562e-001  0.000000e+000 -8.948239e+000
      vertex  3.839000e-001  0.000000e+000 -2.975335e+000
    endloop
  endfacet
  facet normal  -0.000000e+000 -1.000000e+000  0.000000e+000
    outer loop
      vertex -4.314830e+000  0.000000e+000 -7.898243e+000
      vertex  3.839000e-001  0.000000e+000 -2.975335e+000
      vertex -1.438277e+000  0.000000e+000 -2.632748e+000
    endloop
  endfacet
  facet normal  -0.000000e+000 -1.000000e+000  0.000000e+000
    outer loop
      vertex -4.314830e+000  0.000000e+000 -7.898243e+000
      vertex -1.438277e+000  0.000000e+000 -2.632748e+000
      vertex -8.635946e+000  0.000000e+000 -2.533856e+000
    endloop
  endfacet
  facet normal  0.000000e+000 -1.000000e+000  0.000000e+000
    outer loop
      vertex -4.314830e+000  0.000000e+000 -7.898243e+000
      vertex -8.635946e+000  0.000000e+000 -2.533856e+000
      vertex -7.008910e+000  0.000000e+000 -5.645811e+000
    endloop
  endfacet
  facet normal  -0.000000e+000 -1.000000e+000  0.000000e+000
    outer loop
      vertex  2.059440e+000  0.000000e+000 -2.181446e+000
      vertex  8.948239e+000  0.000000e+000 -9.638562e-001
      vertex  2.948344e+000  0.000000e+000 -5.543185e-001
    endloop
  endfacet
  facet normal  0.000000e+000 -1.000000e+000  0.000000e+000
    outer loop
      vertex  2.948344e+000  0.000000e+000 -5.543185e-001
      vertex  8.948239e+000  0.000000e+000 -9.638562e-001
      vertex  8.635946e+000  0.000000e+000  2.533856e+000
    endloop
  endfacet
  facet normal  0.000000e+000 -1.000000e+000  0.000000e+000
    outer loop
      vertex  2.948344e+000  0.000000e+000 -5.543185e-001
      vertex  8.635946e+000  0.000000e+000  2.533856e+000
      vertex  2.711081e+000  0.000000e+000  1.284540e+000
    endloop
  endfacet
  facet normal  0.000000e+000 -9.999999e-001  0.000000e+000
    outer loop
      vertex  2.711081e+000  0.000000e+000  1.284540e+000
      vertex  8.635946e+000  0.000000e+000  2.533856e+000
      vertex  7.008910e+000  0.000000e+000  5.645811e+000
    endloop
  endfacet
  facet normal  0.000000e+000 -1.000000e+000  0.000000e+000
    outer loop
      vertex  2.711081e+000  0.000000e+000  1.284540e+000
      vertex  7.008910e+000  0.000000e+000  5.645811e+000
      vertex  1.438277e+000  0.000000e+000  2.632748e+000
    endloop
  endfacet
  facet normal  0.000000e+000 -1.000000e+000  0.000000e+000
    outer loop
      vertex  9.638562e-001  0.000000e+000  8.948239e+000
      vertex  7.008910e+000  0.000000e+000  5.645811e+000
      vertex  4.314830e+000  0.000000e+000  7.898243e+000
    endloop
  endfacet
  facet normal  0.000000e+000 -1.000000e+000  0.000000e+000
    outer loop
      vertex  7.008910e+000  0.000000e+000  5.645811e+000
      vertex  9.638562e-001  0.000000e+000  8.948239e+000
      vertex  1.438277e+000  0.000000e+000  2.632748e+000
    endloop
  endfacet
  facet normal  0.000000e+000 -1.000000e+000  0.000000e+000
    outer loop
      vertex  1.438277e+000  0.000000e+000  2.632748e+000
      vertex  9.638562e-001  0.000000e+000  8.948239e+000
      vertex -2.533856e+000  0.000000e+000  8.635946e+000
    endloop
  endfacet
  facet normal  0.000000e+000 -1.000000e+000  0.000000e+000
    outer loop
      vertex  1.438277e+000  0.000000e+000  2.632748e+000
      vertex -2.533856e+000  0.000000e+000  8.635946e+000
      vertex -3.839000e-001  0.000000e+000  2.975335e+000
    endloop
  endfacet
  facet normal  0.000000e+000 -1.000000e+000  0.000000e+000
    outer loop
      vertex -3.839000e-001  0.000000e+000  2.975335e+000
      vertex -2.533856e+000  0.000000e+000  8.635946e+000
      vertex -5.645811e+000  0.000000e+000  7.008910e+000
    endloop
  endfacet
  facet normal  0.000000e+000 -9.999999e-001  -0.000000e+000
    outer loop
      vertex -3.839000e-001  0.000000e+000  2.975335e+000
      vertex -5.645811e+000  0.000000e+000  7.008910e+000
      vertex -7.898243e+000  0.000000e+000  4.314830e+000
    endloop
  endfacet
  facet normal  0.000000e+000 -1.000000e+000  0.000000e+000
    outer loop
      vertex -2.948344e+000  0.000000e+000  5.543185e-001
      vertex -8.948239e+000  0.000000e+000  9.638562e-001
      vertex -2.711081e+000  0.000000e+000 -1.284540e+000
    endloop
  endfacet
  facet normal  -0.000000e+000 -1.000000e+000  0.000000e+000
    outer loop
      vertex -2.711081e+000  0.000000e+000 -1.284540e+000
      vertex -8.948239e+000  0.000000e+000  9.638562e-001
      vertex -8.635946e+000  0.000000e+000 -2.533856e+000
    endloop
  endfacet
  facet normal  0.000000e+000 -1.000000e+000  0.000000e+000
    outer loop
      vertex -2.711081e+000  0.000000e+000 -1.284540e+000
      vertex -8.635946e+000  0.000000e+000 -2.533856e+000
      vertex -1.438277e+000  0.000000e+000 -2.632748e+000
    endloop
  endfacet
  facet normal  0.000000e+000 -1.000000e+000  0.000000e+000
    outer loop
      vertex -3.839000e-001  0.000000e+000  2.975335e+000
      vertex -7.898243e+000  0.000000e+000  4.314830e+000
      vertex -2.059440e+000  0.000000e+000  2.181446e+000
    endloop
  endfacet
  facet normal  -0.000000e+000 -1.000000e+000  0.000000e+000
    outer loop
      vertex -2.059440e+000  0.000000e+000  2.181446e+000
      vertex -7.898243e+000  0.000000e+000  4.314830e+000
      vertex -8.948239e+000  0.000000e+000  9.638562e-001
    endloop
  endfacet
  facet normal  0.000000e+000 -1.000000e+000  0.000000e+000
    outer loop
      vertex -2.059440e+000  0.000000e+000  2.181446e+000
      vertex -8.948239e+000  0.000000e+000  9.638562e-001
      vertex -2.948344e+000  0.000000e+000  5.543185e-001
    endloop
  endfacet
  facet normal  0.000000e+000 -1.000000e+000  0.000000e+000
    outer loop
      vertex  5.645811e+000  0.000000e+000 -7.008910e+000
      vertex  7.898243e+000  0.000000e+000 -4.314830e+000
      vertex  2.533856e+000  0.000000e+000 -8.635946e+000
    endloop
  endfacet
  facet normal  0.000000e+000 -1.000000e+000  0.000000e+000
    outer loop
      vertex  2.533856e+000  0.000000e+000 -8.635946e+000
      vertex  7.898243e+000  0.000000e+000 -4.314830e+000
      vertex  3.839000e-001  0.000000e+000 -2.975335e+000
    endloop
  endfacet
  facet normal  0.000000e+000 -9.999999e-001  0.000000e+000
    outer loop
      vertex  7.898243e+000  0.000000e+000 -4.314830e+000
      vertex  8.948239e+000  0.000000e+000 -9.638562e-001
      vertex  3.839000e-001  0.000000e+000 -2.975335e+000
    endloop
  endfacet
  facet normal  0.000000e+000 -1.000000e+000  0.000000e+000
    outer loop
      vertex  3.839000e-001  0.000000e+000 -2.975335e+000
      vertex  8.948239e+000  0.000000e+000 -9.638562e-001
      vertex  2.059440e+000  0.000000e+000 -2.181446e+000
    endloop
  endfacet
  facet normal  -0.000000e+000  1.000000e+000  0.000000e+000
    outer loop
      vertex  1.438277e+000  1.600000e+001  2.632748e+000
      vertex -3.839000e-001  1.600000e+001  2.975335e+000
      vertex -1.179829e-001  1.600000e+001  4.998608e+000
    endloop
  endfacet
  facet normal  0.000000e+000  1.000000e+000  0.000000e+000
    outer loop
      vertex  1.438277e+000  1.600000e+001  2.632748e+000
      vertex -1.179829e-001  1.600000e+001  4.998608e+000
      vertex  2.397128e+000  1.600000e+001  4.387913e+000
    endloop
  endfacet
  facet normal  0.000000e+000  1.000000e+000  0.000000e+000
    outer loop
      vertex  1.438277e+000  1.600000e+001  2.632748e+000
      vertex  2.397128e+000  1.600000e+001  4.387913e+000
      vertex  4.269930e+000  1.600000e+001  2.601480e+000
    endloop
  endfacet
  facet normal  0.000000e+000  1.000000e+000  0.000000e+000
    outer loop
      vertex  1.438277e+000  1.600000e+001  2.632748e+000
      vertex  4.269930e+000  1.600000e+001  2.601480e+000
      vertex  2.711081e+000  1.600000e+001  1.284540e+000
    endloop
  endfacet
  facet normal  0.000000e+000  1.000000e+000  -0.000000e+000
    outer loop
      vertex  3.839000e-001  1.600000e+001 -2.975335e+000
      vertex  1.179829e-001  1.600000e+001 -4.998608e+000
      vertex -1.438277e+000  1.600000e+001 -2.632748e+000
    endloop
  endfacet
  facet normal  0.000000e+000  1.000000e+000  0.000000e+000
    outer loop
      vertex -1.438277e+000  1.600000e+001 -2.632748e+000
      vertex  1.179829e-001  1.600000e+001 -4.998608e+000
      vertex -2.397128e+000  1.600000e+001 -4.387913e+000
    endloop
  endfacet
  facet normal  0.000000e+000  1.000000e+000  -0.000000e+000
    outer loop
      vertex -1.438277e+000  1.600000e+001 -2.632748e+000
      vertex -2.397128e+000  1.600000e+001 -4.387913e+000
      vertex -4.269930e+000  1.600000e+001 -2.601480e+000
    endloop
  endfacet
  facet normal  -0.000000e+000  1.000000e+000  0.000000e+000
    outer loop
      vertex -1.438277e+000  1.600000e+001 -2.632748e+000
      vertex -4.269930e+000  1.600000e+001 -2.601480e+000
      vertex -2.711081e+000  1.600000e+001 -1.284540e+000
    endloop
  endfacet
  facet normal  0.000000e+000  1.000000e+000  0.000000e+000
    outer loop
      vertex -2.711081e+000  1.600000e+001 -1.284540e+000
      vertex -4.269930e+000  1.600000e+001 -2.601480e+000
      vertex -4.998608e+000  1.600000e+001 -1.179829e-001
    endloop
  endfacet
  facet normal  -0.000000e+000  1.000000e+000  0.000000e+000
    outer loop
      vertex -2.711081e+000  1.600000e+001 -1.284540e+000
      vertex -4.998608e+000  1.600000e+001 -1.179829e-001
      vertex -2.948344e+000  1.600000e+001  5.543185e-001
    endloop
  endfacet
  facet normal  0.000000e+000  1.000000e+000  0.000000e+000
    outer loop
      vertex -2.948344e+000  1.600000e+001  5.543185e-001
      vertex -4.998608e+000  1.600000e+001 -1.179829e-001
      vertex -2.059440e+000  1.600000e+001  2.181446e+000
    endloop
  endfacet
  facet normal  0.000000e+000  1.000000e+000  0.000000e+000
    outer loop
      vertex -2.059440e+000  1.600000e+001  2.181446e+000
      vertex -4.998608e+000  1.600000e+001 -1.179829e-001
      vertex -4.387913e+000  1.600000e+001  2.397128e+000
    endloop
  endfacet
  facet normal  -0.000000e+000  1.000000e+000  0.000000e+000
    outer loop
      vertex -2.059440e+000  1.600000e+001  2.181446e+000
      vertex -4.387913e+000  1.600000e+001  2.397128e+000
      vertex -3.839000e-001  1.600000e+001  2.975335e+000
    endloop
  endfacet
  facet normal  0.000000e+000  1.000000e+000  0.000000e+000
    outer loop
      vertex -3.839000e-001  1.600000e+001  2.975335e+000
      vertex -4.387913e+000  1.600000e+001  2.397128e+000
      vertex -2.601480e+000  1.600000e+001  4.269930e+000
    endloop
  endfacet
  facet normal  -0.000000e+000  1.000000e+000  0.000000e+000
    outer loop
      vertex -3.839000e-001  1.600000e+001  2.975335e+000
      vertex -2.601480e+000  1.600000e+001  4.269930e+000
      vertex -1.179829e-001  1.600000e+001  4.998608e+000
    endloop
  endfacet
  facet normal  0.000000e+000  1.000000e+000  0.000000e+000
    outer loop
      vertex  2.711081e+000  1.600000e+001  1.284540e+000
      vertex  4.269930e+000  1.600000e+001  2.601480e+000
      vertex  2.948344e+000  1.600000e+001 -5.543185e-001
    endloop
  endfacet
  facet normal  0.000000e+000  1.000000e+000  0.000000e+000
    outer loop
      vertex  2.948344e+000  1.600000e+001 -5.543185e-001
      vertex  4.269930e+000  1.600000e+001  2.601480e+000
      vertex  4.998608e+000  1.600000e+001  1.179829e-001
    endloop
  endfacet
  facet normal  0.000000e+000  1.000000e+000  0.000000e+000
    outer loop
      vertex  2.948344e+000  1.600000e+001 -5.543185e-001
      vertex  4.998608e+000  1.600000e+001  1.179829e-001
      vertex  2.059440e+000  1.600000e+001 -2.181446e+000
    endloop
  endfacet
  facet normal  -0.000000e+000  1.000000e+000  0.000000e+000
    outer loop
      vertex  2.059440e+000  1.600000e+001 -2.181446e+000
      vertex  4.998608e+000  1.600000e+001  1.179829e-001
      vertex  4.387913e+000  1.600000e+001 -2.397128e+000
    endloop
  endfacet
  facet normal  0.000000e+000  1.000000e+000  0.000000e+000
    outer loop
      vertex  2.059440e+000  1.600000e+001 -2.181446e+000
      vertex  4.387913e+000  1.600000e+001 -2.397128e+000
      vertex  3.839000e-001  1.600000e+001 -2.975335e+000
    endloop
  endfacet
  facet normal  -0.000000e+000  1.000000e+000  0.000000e+000
    outer loop
      vertex  3.839000e-001  1.600000e+001 -2.975335e+000
      vertex  4.387913e+000  1.600000e+001 -2.397128e+000
      vertex  2.601480e+000  1.600000e+001 -4.269930e+000
    endloop
  endfacet
  facet normal  0.000000e+000  1.000000e+000  0.000000e+000
    outer loop
      vertex  3.839000e-001  1.600000e+001 -2.975335e+000
      vertex  2.601480e+000  1.600000e+001 -4.269930e+000
      vertex  1.179829e-001  1.600000e+001 -4.998608e+000
    endloop
  endfacet
  facet normal -6.229679e-001  2.381421e-001 -7.451170e-001
    outer loop
      vertex -2.397128e+000  1.600000e+001 -4.387913e+000
      vertex -4.314830e+000  0.000000e+000 -7.898243e+000
      vertex -7.008910e+000  0.000000e+000 -5.645811e+000
    endloop
  endfacet
  facet normal -6.686879e-001  2.478532e-001 -7.010173e-001
    outer loop
      vertex -2.397128e+000  1.600000e+001 -4.387913e+000
      vertex -7.008910e+000  0.000000e+000 -5.645811e+000
      vertex -4.269930e+000  1.600000e+001 -2.601480e+000
    endloop
  endfacet
  facet normal  2.285921e-001  2.478532e-001  9.414427e-001
    outer loop
      vertex  2.397128e+000  1.600000e+001  4.387913e+000
      vertex -1.179829e-001  1.600000e+001  4.998608e+000
      vertex  9.638562e-001  0.000000e+000  8.948239e+000
    endloop
  endfacet
  facet normal  2.904035e-001  2.381421e-001  9.267978e-001
    outer loop
      vertex  2.397128e+000  1.600000e+001  4.387913e+000
      vertex  9.638562e-001  0.000000e+000  8.948239e+000
      vertex  4.314830e+000  0.000000e+000  7.898243e+000
    endloop
  endfacet
  facet normal -8.647829e-002  2.332450e-001  9.685651e-001
    outer loop
      vertex -1.179829e-001  1.600000e+001  4.998608e+000
      vertex -2.533856e+000  0.000000e+000  8.635946e+000
      vertex  9.638562e-001  0.000000e+000  8.948239e+000
    endloop
  endfacet
  facet normal -4.505491e-001  2.332450e-001  8.617437e-001
    outer loop
      vertex -2.601480e+000  1.600000e+001  4.269930e+000
      vertex -5.645811e+000  0.000000e+000  7.008910e+000
      vertex -2.533856e+000  0.000000e+000  8.635946e+000
    endloop
  endfacet
  facet normal -2.724372e-001  2.522213e-001  9.285270e-001
    outer loop
      vertex -2.601480e+000  1.600000e+001  4.269930e+000
      vertex -2.533856e+000  0.000000e+000  8.635946e+000
      vertex -1.179829e-001  1.600000e+001  4.998608e+000
    endloop
  endfacet
  facet normal -7.451170e-001  2.381421e-001  6.229679e-001
    outer loop
      vertex -4.387913e+000  1.600000e+001  2.397128e+000
      vertex -7.898243e+000  0.000000e+000  4.314830e+000
      vertex -5.645811e+000  0.000000e+000  7.008910e+000
    endloop
  endfacet
  facet normal -7.010173e-001  2.478532e-001  6.686879e-001
    outer loop
      vertex -4.387913e+000  1.600000e+001  2.397128e+000
      vertex -5.645811e+000  0.000000e+000  7.008910e+000
      vertex -2.601480e+000  1.600000e+001  4.269930e+000
    endloop
  endfacet
  facet normal -9.685651e-001  2.332450e-001 -8.647829e-002
    outer loop
      vertex -4.998608e+000  1.600000e+001 -1.179829e-001
      vertex -8.635946e+000  0.000000e+000 -2.533856e+000
      vertex -8.948239e+000  0.000000e+000  9.638562e-001
    endloop
  endfacet
  facet normal -9.414427e-001  2.478532e-001  2.285921e-001
    outer loop
      vertex -4.998608e+000  1.600000e+001 -1.179829e-001
      vertex -8.948239e+000  0.000000e+000  9.638562e-001
      vertex -4.387913e+000  1.600000e+001  2.397128e+000
    endloop
  endfacet
  facet normal -8.617437e-001  2.332450e-001 -4.505491e-001
    outer loop
      vertex -4.269930e+000  1.600000e+001 -2.601480e+000
      vertex -7.008910e+000  0.000000e+000 -5.645811e+000
      vertex -8.635946e+000  0.000000e+000 -2.533856e+000
    endloop
  endfacet
  facet normal -9.285270e-001  2.522213e-001 -2.724372e-001
    outer loop
      vertex -4.269930e+000  1.600000e+001 -2.601480e+000
      vertex -8.635946e+000  0.000000e+000 -2.533856e+000
      vertex -4.998608e+000  1.600000e+001 -1.179829e-001
    endloop
  endfacet
  facet normal -9.267978e-001  2.381421e-001  2.904035e-001
    outer loop
      vertex -4.387913e+000  1.600000e+001  2.397128e+000
      vertex -8.948239e+000  0.000000e+000  9.638562e-001
      vertex -7.898243e+000  0.000000e+000  4.314830e+000
    endloop
  endfacet
  facet normal  4.281799e-001  0.000000e+000 -9.036935e-001
    outer loop
      vertex -2.059440e+000  0.000000e+000  2.181446e+000
      vertex -3.839000e-001  1.600000e+001  2.975335e+000
      vertex -3.839000e-001  0.000000e+000  2.975335e+000
    endloop
  endfacet
  facet normal -1.847728e-001  0.000000e+000 -9.827813e-001
    outer loop
      vertex -3.839000e-001  0.000000e+000  2.975335e+000
      vertex -3.839000e-001  1.600000e+001  2.975335e+000
      vertex  1.438277e+000  1.600000e+001  2.632748e+000
    endloop
  endfacet
  facet normal -1.847728e-001  -0.000000e+000 -9.827813e-001
    outer loop
      vertex -3.839000e-001  0.000000e+000  2.975335e+000
      vertex  1.438277e+000  1.600000e+001  2.632748e+000
      vertex  1.438277e+000  0.000000e+000  2.632748e+000
    endloop
  endfacet
  facet normal  4.281799e-001  0.000000e+000 -9.036935e-001
    outer loop
      vertex -3.839000e-001  1.600000e+001  2.975335e+000
      vertex -2.059440e+000  0.000000e+000  2.181446e+000
      vertex -2.059440e+000  1.600000e+001  2.181446e+000
    endloop
  endfacet
  facet normal  8.775826e-001  0.000000e+000 -4.794255e-001
    outer loop
      vertex -2.059440e+000  1.600000e+001  2.181446e+000
      vertex -2.059440e+000  0.000000e+000  2.181446e+000
      vertex -2.948344e+000  0.000000e+000  5.543185e-001
    endloop
  endfacet
  facet normal  8.775826e-001  0.000000e+000 -4.794255e-001
    outer loop
      vertex -2.059440e+000  1.600000e+001  2.181446e+000
      vertex -2.948344e+000  0.000000e+000  5.543185e-001
      vertex -2.948344e+000  1.600000e+001  5.543185e-001
    endloop
  endfacet
  facet normal  9.917784e-001  0.000000e+000  1.279666e-001
    outer loop
      vertex -2.948344e+000  1.600000e+001  5.543185e-001
      vertex -2.948344e+000  0.000000e+000  5.543185e-001
      vertex -2.711081e+000  0.000000e+000 -1.284540e+000
    endloop
  endfacet
  facet normal  9.917784e-001  -0.000000e+000  1.279666e-001
    outer loop
      vertex -2.948344e+000  1.600000e+001  5.543185e-001
      vertex -2.711081e+000  0.000000e+000 -1.284540e+000
      vertex -2.711081e+000  1.600000e+001 -1.284540e+000
    endloop
  endfacet
  facet normal  7.271487e-001  0.000000e+000  6.864800e-001
    outer loop
      vertex -2.711081e+000  1.600000e+001 -1.284540e+000
      vertex -2.711081e+000  0.000000e+000 -1.284540e+000
      vertex -1.438277e+000  0.000000e+000 -2.632748e+000
    endloop
  endfacet
  facet normal  7.271487e-001  -0.000000e+000  6.864800e-001
    outer loop
      vertex -2.711081e+000  1.600000e+001 -1.284540e+000
      vertex -1.438277e+000  0.000000e+000 -2.632748e+000
      vertex -1.438277e+000  1.600000e+001 -2.632748e+000
    endloop
  endfacet
  facet normal  6.229679e-001  2.381421e-001  7.451170e-001
    outer loop
      vertex  2.397128e+000  1.600000e+001  4.387913e+000
      vertex  4.314830e+000  0.000000e+000  7.898243e+000
      vertex  7.008910e+000  0.000000e+000  5.645811e+000
    endloop
  endfacet
  facet normal  6.686879e-001  2.478532e-001  7.010173e-001
    outer loop
      vertex  2.397128e+000  1.600000e+001  4.387913e+000
      vertex  7.008910e+000  0.000000e+000  5.645811e+000
      vertex  4.269930e+000  1.600000e+001  2.601480e+000
    endloop
  endfacet
  facet normal -2.285921e-001  2.478532e-001 -9.414427e-001
    outer loop
      vertex -2.397128e+000  1.600000e+001 -4.387913e+000
      vertex  1.179829e-001  1.600000e+001 -4.998608e+000
      vertex -9.638562e-001  0.000000e+000 -8.948239e+000
    endloop
  endfacet
  facet normal -2.904035e-001  2.381421e-001 -9.267978e-001
    outer loop
      vertex -2.397128e+000  1.600000e+001 -4.387913e+000
      vertex -9.638562e-001  0.000000e+000 -8.948239e+000
      vertex -4.314830e+000  0.000000e+000 -7.898243e+000
    endloop
  endfacet
  facet normal  8.647829e-002  2.332450e-001 -9.685651e-001
    outer loop
      vertex  1.179829e-001  1.600000e+001 -4.998608e+000
      vertex  2.533856e+000  0.000000e+000 -8.635946e+000
      vertex -9.638562e-001  0.000000e+000 -8.948239e+000
    endloop
  endfacet
  facet normal  4.505491e-001  2.332450e-001 -8.617437e-001
    outer loop
      vertex  2.601480e+000  1.600000e+001 -4.269930e+000
      vertex  5.645811e+000  0.000000e+000 -7.008910e+000
      vertex  2.533856e+000  0.000000e+000 -8.635946e+000
    endloop
  endfacet
  facet normal  2.724372e-001  2.522213e-001 -9.285270e-001
    outer loop
      vertex  2.601480e+000  1.600000e+001 -4.269930e+000
      vertex  2.533856e+000  0.000000e+000 -8.635946e+000
      vertex  1.179829e-001  1.600000e+001 -4.998608e+000
    endloop
  endfacet
  facet normal  7.451170e-001  2.381421e-001 -6.229679e-001
    outer loop
      vertex  4.387913e+000  1.600000e+001 -2.397128e+000
      vertex  7.898243e+000  0.000000e+000 -4.314830e+000
      vertex  5.645811e+000  0.000000e+000 -7.008910e+000
    endloop
  endfacet
  facet normal  7.010173e-001  2.478532e-001 -6.686879e-001
    outer loop
      vertex  4.387913e+000  1.600000e+001 -2.397128e+000
      vertex  5.645811e+000  0.000000e+000 -7.008910e+000
      vertex  2.601480e+000  1.600000e+001 -4.269930e+000
    endloop
  endfacet
  facet normal  9.685651e-001  2.332450e-001  8.647829e-002
    outer loop
      vertex  4.998608e+000  1.600000e+001  1.179829e-001
      vertex  8.635946e+000  0.000000e+000  2.533856e+000
      vertex  8.948239e+000  0.000000e+000 -9.638562e-001
    endloop
  endfacet
  facet normal  9.414427e-001  2.478532e-001 -2.285921e-001
    outer loop
      vertex  4.998608e+000  1.600000e+001  1.179829e-001
      vertex  8.948239e+000  0.000000e+000 -9.638562e-001
      vertex  4.387913e+000  1.600000e+001 -2.397128e+000
    endloop
  endfacet
  facet normal  8.617437e-001  2.332450e-001  4.505491e-001
    outer loop
      vertex  4.269930e+000  1.600000e+001  2.601480e+000
      vertex  7.008910e+000  0.000000e+000  5.645811e+000
      vertex  8.635946e+000  0.000000e+000  2.533856e+000
    endloop
  endfacet
  facet normal  9.285270e-001  2.522213e-001  2.724372e-001
    outer loop
      vertex  4.269930e+000  1.600000e+001  2.601480e+000
      vertex  8.635946e+000  0.000000e+000  2.533856e+000
      vertex  4.998608e+000  1.600000e+001  1.179829e-001
    endloop
  endfacet
  facet normal  9.267978e-001  2.381421e-001 -2.904035e-001
    outer loop
      vertex  4.387913e+000  1.600000e+001 -2.397128e+000
      vertex  8.948239e+000  0.000000e+000 -9.638562e-001
      vertex  7.898243e+000  0.000000e+000 -4.314830e+000
    endloop
  endfacet
  facet normal -4.281799e-001  0.000000e+000  9.036935e-001
    outer loop
      vertex  2.059440e+000  0.000000e+000 -2.181446e+000
      vertex  3.839000e-001  1.600000e+001 -2.975335e+000
      vertex  3.839000e-001  0.000000e+000 -2.975335e+000
    endloop
  endfacet
  facet normal  1.847728e-001  -0.000000e+000  9.827813e-001
    outer loop
      vertex  3.839000e-001  0.000000e+000 -2.975335e+000
      vertex  3.839000e-001  1.600000e+001 -2.975335e+000
      vertex -1.438277e+000  1.600000e+001 -2.632748e+000
    endloop
  endfacet
  facet normal  1.847728e-001  0.000000e+000  9.827813e-001
    outer loop
      vertex  3.839000e-001  0.000000e+000 -2.975335e+000
      vertex -1.438277e+000  1.600000e+001 -2.632748e+000
      vertex -1.438277e+000  0.000000e+000 -2.632748e+000
    endloop
  endfacet
  facet normal -4.281799e-001  0.000000e+000  9.036935e-001
    outer loop
      vertex  3.839000e-001  1.600000e+001 -2.975335e+000
      vertex  2.059440e+000  0.000000e+000 -2.181446e+000
      vertex  2.059440e+000  1.600000e+001 -2.181446e+000
    endloop
  endfacet
  facet normal -8.775826e-001  0.000000e+000  4.794255e-001
    outer loop
      vertex  2.059440e+000  1.600000e+001 -2.181446e+000
      vertex  2.059440e+000  0.000000e+000 -2.181446e+000
      vertex  2.948344e+000  0.000000e+000 -5.543185e-001
    endloop
  endfacet
  facet normal -8.775826e-001  0.000000e+000  4.794255e-001
    outer loop
      vertex  2.059440e+000  1.600000e+001 -2.181446e+000
      vertex  2.948344e+000  0.000000e+000 -5.543185e-001
      vertex  2.948344e+000  1.600000e+001 -5.543185e-001
    endloop
  endfacet
  facet normal -9.917784e-001  -0.000000e+000 -1.279666e-001
    outer loop
      vertex  2.948344e+000  1.600000e+001 -5.543185e-001
      vertex  2.948344e+000  0.000000e+000 -5.543185e-001
      vertex  2.711081e+000  0.000000e+000  1.284540e+000
    endloop
  endfacet
  facet normal -9.917784e-001  0.000000e+000 -1.279666e-001
    outer loop
      vertex  2.948344e+000  1.600000e+001 -5.543185e-001
      vertex  2.711081e+000  0.000000e+000  1.284540e+000
      vertex  2.711081e+000  1.600000e+001  1.284540e+000
    endloop
  endfacet
  facet normal -7.271487e-001  -0.000000e+000 -6.864800e-001
    outer loop
      vertex  2.711081e+000  1.600000e+001  1.284540e+000
      vertex  2.711081e+000  0.000000e+000  1.284540e+000
      vertex  1.438277e+000  0.000000e+000  2.632748e+000
    endloop
  endfacet
  facet normal -7.271487e-001  0.000000e+000 -6.864800e-001
    outer loop
      vertex  2.711081e+000  1.600000e+001  1.284540e+000
      vertex  1.438277e+000  0.000000e+000  2.632748e+000
      vertex  1.438277e+000  1.600000e+001  2.632748e+000
    endloop
  endfacet
endsolid CATIA STL
