solid CATIA STL
  facet normal  0.000000e+000  -0.000000e+000  1.000000e+000
    outer loop
      vertex  4.900000e+001  9.000000e+000  5.200000e+001
      vertex  5.000000e+001  9.000000e+000  5.200000e+001
      vertex  5.000000e+001  1.100000e+001  5.200000e+001
    endloop
  endfacet
  facet normal  0.000000e+000  0.000000e+000  1.000000e+000
    outer loop
      vertex  4.900000e+001  9.000000e+000  5.200000e+001
      vertex  5.000000e+001  1.100000e+001  5.200000e+001
      vertex  4.823459e+001  8.847799e+000  5.200000e+001
    endloop
  endfacet
  facet normal  0.000000e+000  -0.000000e+000  9.999999e-001
    outer loop
      vertex -1.300000e+001 -3.700000e+001  5.200000e+001
      vertex  5.000000e+001 -3.700000e+001  5.200000e+001
      vertex  5.000000e+001 -1.300000e+001  5.200000e+001
    endloop
  endfacet
  facet normal  0.000000e+000  -0.000000e+000  1.000000e+000
    outer loop
      vertex -1.300000e+001 -3.700000e+001  5.200000e+001
      vertex  5.000000e+001 -1.300000e+001  5.200000e+001
      vertex  5.000000e+001 -1.100000e+001  5.200000e+001
    endloop
  endfacet
  facet normal  0.000000e+000  -0.000000e+000  1.000000e+000
    outer loop
      vertex -1.300000e+001 -3.700000e+001  5.200000e+001
      vertex  5.000000e+001 -1.100000e+001  5.200000e+001
      vertex  5.000000e+001 -9.000000e+000  5.200000e+001
    endloop
  endfacet
  facet normal  0.000000e+000  0.000000e+000  1.000000e+000
    outer loop
      vertex -1.300000e+001 -3.700000e+001  5.200000e+001
      vertex  5.000000e+001 -9.000000e+000  5.200000e+001
      vertex  4.900000e+001 -9.000000e+000  5.200000e+001
    endloop
  endfacet
  facet normal  0.000000e+000  0.000000e+000  1.000000e+000
    outer loop
      vertex -1.300000e+001 -3.700000e+001  5.200000e+001
      vertex  4.900000e+001 -9.000000e+000  5.200000e+001
      vertex  4.823459e+001 -8.847799e+000  5.200000e+001
    endloop
  endfacet
  facet normal  0.000000e+000  0.000000e+000  1.000000e+000
    outer loop
      vertex -1.300000e+001 -3.700000e+001  5.200000e+001
      vertex  4.823459e+001 -8.847799e+000  5.200000e+001
      vertex  4.758583e+001 -8.414173e+000  5.200000e+001
    endloop
  endfacet
  facet normal  0.000000e+000  0.000000e+000  1.000000e+000
    outer loop
      vertex -1.300000e+001 -3.700000e+001  5.200000e+001
      vertex  4.758583e+001 -8.414173e+000  5.200000e+001
      vertex  4.715220e+001 -7.765407e+000  5.200000e+001
    endloop
  endfacet
  facet normal  0.000000e+000  0.000000e+000  1.000000e+000
    outer loop
      vertex -1.300000e+001 -3.700000e+001  5.200000e+001
      vertex  4.715220e+001 -7.765407e+000  5.200000e+001
      vertex  4.700000e+001 -7.000000e+000  5.200000e+001
    endloop
  endfacet
  facet normal  0.000000e+000  -0.000000e+000  1.000000e+000
    outer loop
      vertex -1.300000e+001 -3.700000e+001  5.200000e+001
      vertex  4.700000e+001 -7.000000e+000  5.200000e+001
      vertex  4.700000e+001  7.000000e+000  5.200000e+001
    endloop
  endfacet
  facet normal  0.000000e+000  0.000000e+000  1.000000e+000
    outer loop
      vertex -1.300000e+001 -3.700000e+001  5.200000e+001
      vertex  4.700000e+001  7.000000e+000  5.200000e+001
      vertex -1.300000e+001  3.800000e+001  5.200000e+001
    endloop
  endfacet
  facet normal  0.000000e+000  0.000000e+000  1.000000e+000
    outer loop
      vertex  4.823459e+001  8.847799e+000  5.200000e+001
      vertex  5.000000e+001  1.100000e+001  5.200000e+001
      vertex  4.758583e+001  8.414173e+000  5.200000e+001
    endloop
  endfacet
  facet normal  0.000000e+000  0.000000e+000  1.000000e+000
    outer loop
      vertex  4.758583e+001  8.414173e+000  5.200000e+001
      vertex  5.000000e+001  1.100000e+001  5.200000e+001
      vertex  5.000000e+001  3.800000e+001  5.200000e+001
    endloop
  endfacet
  facet normal  0.000000e+000  0.000000e+000  1.000000e+000
    outer loop
      vertex  4.758583e+001  8.414173e+000  5.200000e+001
      vertex  5.000000e+001  3.800000e+001  5.200000e+001
      vertex  4.715220e+001  7.765407e+000  5.200000e+001
    endloop
  endfacet
  facet normal  0.000000e+000  0.000000e+000  1.000000e+000
    outer loop
      vertex  4.715220e+001  7.765407e+000  5.200000e+001
      vertex  5.000000e+001  3.800000e+001  5.200000e+001
      vertex  4.700000e+001  7.000000e+000  5.200000e+001
    endloop
  endfacet
  facet normal  0.000000e+000  -0.000000e+000  1.000000e+000
    outer loop
      vertex  4.700000e+001  7.000000e+000  5.200000e+001
      vertex  5.000000e+001  3.800000e+001  5.200000e+001
      vertex -1.300000e+001  3.800000e+001  5.200000e+001
    endloop
  endfacet
  facet normal  0.000000e+000  0.000000e+000 -1.000000e+000
    outer loop
      vertex  5.000000e+001  1.100000e+001  5.000000e+001
      vertex  5.000000e+001  9.000000e+000  5.000000e+001
      vertex  4.900000e+001  9.000000e+000  5.000000e+001
    endloop
  endfacet
  facet normal  0.000000e+000  0.000000e+000 -1.000000e+000
    outer loop
      vertex  4.823459e+001  8.847799e+000  5.000000e+001
      vertex  5.000000e+001  1.100000e+001  5.000000e+001
      vertex  4.900000e+001  9.000000e+000  5.000000e+001
    endloop
  endfacet
  facet normal  0.000000e+000  0.000000e+000 -1.000000e+000
    outer loop
      vertex -1.300000e+001 -3.700000e+001  5.000000e+001
      vertex -1.300000e+001  3.800000e+001  5.000000e+001
      vertex  4.700000e+001  7.000000e+000  5.000000e+001
    endloop
  endfacet
  facet normal  0.000000e+000  -0.000000e+000 -1.000000e+000
    outer loop
      vertex -1.300000e+001 -3.700000e+001  5.000000e+001
      vertex  4.700000e+001  7.000000e+000  5.000000e+001
      vertex  4.700000e+001 -7.000000e+000  5.000000e+001
    endloop
  endfacet
  facet normal  0.000000e+000  -0.000000e+000 -1.000000e+000
    outer loop
      vertex -1.300000e+001 -3.700000e+001  5.000000e+001
      vertex  4.700000e+001 -7.000000e+000  5.000000e+001
      vertex  4.715220e+001 -7.765407e+000  5.000000e+001
    endloop
  endfacet
  facet normal  0.000000e+000  -0.000000e+000 -1.000000e+000
    outer loop
      vertex -1.300000e+001 -3.700000e+001  5.000000e+001
      vertex  4.715220e+001 -7.765407e+000  5.000000e+001
      vertex  4.758583e+001 -8.414173e+000  5.000000e+001
    endloop
  endfacet
  facet normal  0.000000e+000  -0.000000e+000 -1.000000e+000
    outer loop
      vertex -1.300000e+001 -3.700000e+001  5.000000e+001
      vertex  4.758583e+001 -8.414173e+000  5.000000e+001
      vertex  4.823459e+001 -8.847799e+000  5.000000e+001
    endloop
  endfacet
  facet normal  0.000000e+000  -0.000000e+000 -1.000000e+000
    outer loop
      vertex -1.300000e+001 -3.700000e+001  5.000000e+001
      vertex  4.823459e+001 -8.847799e+000  5.000000e+001
      vertex  4.900000e+001 -9.000000e+000  5.000000e+001
    endloop
  endfacet
  facet normal  0.000000e+000  -0.000000e+000 -1.000000e+000
    outer loop
      vertex -1.300000e+001 -3.700000e+001  5.000000e+001
      vertex  4.900000e+001 -9.000000e+000  5.000000e+001
      vertex  5.000000e+001 -9.000000e+000  5.000000e+001
    endloop
  endfacet
  facet normal  0.000000e+000  -0.000000e+000 -1.000000e+000
    outer loop
      vertex -1.300000e+001 -3.700000e+001  5.000000e+001
      vertex  5.000000e+001 -9.000000e+000  5.000000e+001
      vertex  5.000000e+001 -1.100000e+001  5.000000e+001
    endloop
  endfacet
  facet normal  0.000000e+000  -0.000000e+000 -1.000000e+000
    outer loop
      vertex -1.300000e+001 -3.700000e+001  5.000000e+001
      vertex  5.000000e+001 -1.100000e+001  5.000000e+001
      vertex  5.000000e+001 -1.300000e+001  5.000000e+001
    endloop
  endfacet
  facet normal  0.000000e+000  -0.000000e+000 -9.999999e-001
    outer loop
      vertex -1.300000e+001 -3.700000e+001  5.000000e+001
      vertex  5.000000e+001 -1.300000e+001  5.000000e+001
      vertex  5.000000e+001 -3.700000e+001  5.000000e+001
    endloop
  endfacet
  facet normal  0.000000e+000  0.000000e+000 -1.000000e+000
    outer loop
      vertex  4.715220e+001  7.765407e+000  5.000000e+001
      vertex  5.000000e+001  3.800000e+001  5.000000e+001
      vertex  4.758583e+001  8.414173e+000  5.000000e+001
    endloop
  endfacet
  facet normal  0.000000e+000  0.000000e+000 -1.000000e+000
    outer loop
      vertex  4.758583e+001  8.414173e+000  5.000000e+001
      vertex  5.000000e+001  3.800000e+001  5.000000e+001
      vertex  5.000000e+001  1.100000e+001  5.000000e+001
    endloop
  endfacet
  facet normal  0.000000e+000  0.000000e+000 -1.000000e+000
    outer loop
      vertex  4.758583e+001  8.414173e+000  5.000000e+001
      vertex  5.000000e+001  1.100000e+001  5.000000e+001
      vertex  4.823459e+001  8.847799e+000  5.000000e+001
    endloop
  endfacet
  facet normal  0.000000e+000  0.000000e+000 -1.000000e+000
    outer loop
      vertex  4.715220e+001  7.765407e+000  5.000000e+001
      vertex  4.700000e+001  7.000000e+000  5.000000e+001
      vertex  5.000000e+001  3.800000e+001  5.000000e+001
    endloop
  endfacet
  facet normal  -0.000000e+000  0.000000e+000 -1.000000e+000
    outer loop
      vertex  5.000000e+001  3.800000e+001  5.000000e+001
      vertex  4.700000e+001  7.000000e+000  5.000000e+001
      vertex -1.300000e+001  3.800000e+001  5.000000e+001
    endloop
  endfacet
  facet normal  1.000000e+000  -0.000000e+000  0.000000e+000
    outer loop
      vertex  5.000000e+001  1.100000e+001  5.200000e+001
      vertex  5.000000e+001  9.000000e+000  5.200000e+001
      vertex  5.000000e+001  1.100000e+001  5.000000e+001
    endloop
  endfacet
  facet normal  1.000000e+000  0.000000e+000  0.000000e+000
    outer loop
      vertex  5.000000e+001  1.100000e+001  5.000000e+001
      vertex  5.000000e+001  9.000000e+000  5.200000e+001
      vertex  5.000000e+001  9.000000e+000  5.000000e+001
    endloop
  endfacet
  facet normal  0.000000e+000 -1.000000e+000  -0.000000e+000
    outer loop
      vertex  5.000000e+001  9.000000e+000  5.000000e+001
      vertex  5.000000e+001  9.000000e+000  5.200000e+001
      vertex  4.900000e+001  9.000000e+000  5.000000e+001
    endloop
  endfacet
  facet normal  0.000000e+000 -1.000000e+000  0.000000e+000
    outer loop
      vertex  4.900000e+001  9.000000e+000  5.000000e+001
      vertex  5.000000e+001  9.000000e+000  5.200000e+001
      vertex  4.900000e+001  9.000000e+000  5.200000e+001
    endloop
  endfacet
  facet normal  8.313890e-001 -5.556909e-001  0.000000e+000
    outer loop
      vertex  4.758583e+001  8.414173e+000  5.000000e+001
      vertex  4.715220e+001  7.765407e+000  5.200000e+001
      vertex  4.715220e+001  7.765407e+000  5.000000e+001
    endloop
  endfacet
  facet normal  9.807976e-001 -1.950286e-001  0.000000e+000
    outer loop
      vertex  4.715220e+001  7.765407e+000  5.000000e+001
      vertex  4.715220e+001  7.765407e+000  5.200000e+001
      vertex  4.700000e+001  7.000000e+000  5.200000e+001
    endloop
  endfacet
  facet normal  9.807976e-001 -1.950286e-001  0.000000e+000
    outer loop
      vertex  4.715220e+001  7.765407e+000  5.000000e+001
      vertex  4.700000e+001  7.000000e+000  5.200000e+001
      vertex  4.700000e+001  7.000000e+000  5.000000e+001
    endloop
  endfacet
  facet normal  8.313890e-001 -5.556909e-001  0.000000e+000
    outer loop
      vertex  4.715220e+001  7.765407e+000  5.200000e+001
      vertex  4.758583e+001  8.414173e+000  5.000000e+001
      vertex  4.758583e+001  8.414173e+000  5.200000e+001
    endloop
  endfacet
  facet normal  5.556897e-001 -8.313897e-001  0.000000e+000
    outer loop
      vertex  4.758583e+001  8.414173e+000  5.200000e+001
      vertex  4.758583e+001  8.414173e+000  5.000000e+001
      vertex  4.823459e+001  8.847799e+000  5.000000e+001
    endloop
  endfacet
  facet normal  5.556897e-001 -8.313897e-001  0.000000e+000
    outer loop
      vertex  4.758583e+001  8.414173e+000  5.200000e+001
      vertex  4.823459e+001  8.847799e+000  5.000000e+001
      vertex  4.823459e+001  8.847799e+000  5.200000e+001
    endloop
  endfacet
  facet normal  1.950307e-001 -9.807972e-001  0.000000e+000
    outer loop
      vertex  4.823459e+001  8.847799e+000  5.200000e+001
      vertex  4.823459e+001  8.847799e+000  5.000000e+001
      vertex  4.900000e+001  9.000000e+000  5.000000e+001
    endloop
  endfacet
  facet normal  1.950307e-001 -9.807972e-001  0.000000e+000
    outer loop
      vertex  4.823459e+001  8.847799e+000  5.200000e+001
      vertex  4.900000e+001  9.000000e+000  5.000000e+001
      vertex  4.900000e+001  9.000000e+000  5.200000e+001
    endloop
  endfacet
  facet normal  1.000000e+000  -0.000000e+000  0.000000e+000
    outer loop
      vertex  4.700000e+001  7.000000e+000  5.200000e+001
      vertex  4.700000e+001 -7.000000e+000  5.200000e+001
      vertex  4.700000e+001  7.000000e+000  5.000000e+001
    endloop
  endfacet
  facet normal  1.000000e+000  0.000000e+000  0.000000e+000
    outer loop
      vertex  4.700000e+001  7.000000e+000  5.000000e+001
      vertex  4.700000e+001 -7.000000e+000  5.200000e+001
      vertex  4.700000e+001 -7.000000e+000  5.000000e+001
    endloop
  endfacet
  facet normal  5.556897e-001  8.313897e-001  0.000000e+000
    outer loop
      vertex  4.758583e+001 -8.414173e+000  5.000000e+001
      vertex  4.823459e+001 -8.847799e+000  5.200000e+001
      vertex  4.823459e+001 -8.847799e+000  5.000000e+001
    endloop
  endfacet
  facet normal  1.950307e-001  9.807972e-001  -0.000000e+000
    outer loop
      vertex  4.823459e+001 -8.847799e+000  5.000000e+001
      vertex  4.823459e+001 -8.847799e+000  5.200000e+001
      vertex  4.900000e+001 -9.000000e+000  5.200000e+001
    endloop
  endfacet
  facet normal  1.950307e-001  9.807972e-001  0.000000e+000
    outer loop
      vertex  4.823459e+001 -8.847799e+000  5.000000e+001
      vertex  4.900000e+001 -9.000000e+000  5.200000e+001
      vertex  4.900000e+001 -9.000000e+000  5.000000e+001
    endloop
  endfacet
  facet normal  5.556897e-001  8.313897e-001  -0.000000e+000
    outer loop
      vertex  4.823459e+001 -8.847799e+000  5.200000e+001
      vertex  4.758583e+001 -8.414173e+000  5.000000e+001
      vertex  4.758583e+001 -8.414173e+000  5.200000e+001
    endloop
  endfacet
  facet normal  8.313890e-001  5.556909e-001  0.000000e+000
    outer loop
      vertex  4.758583e+001 -8.414173e+000  5.200000e+001
      vertex  4.758583e+001 -8.414173e+000  5.000000e+001
      vertex  4.715220e+001 -7.765407e+000  5.000000e+001
    endloop
  endfacet
  facet normal  8.313890e-001  5.556909e-001  -0.000000e+000
    outer loop
      vertex  4.758583e+001 -8.414173e+000  5.200000e+001
      vertex  4.715220e+001 -7.765407e+000  5.000000e+001
      vertex  4.715220e+001 -7.765407e+000  5.200000e+001
    endloop
  endfacet
  facet normal  9.807976e-001  1.950286e-001  0.000000e+000
    outer loop
      vertex  4.715220e+001 -7.765407e+000  5.200000e+001
      vertex  4.715220e+001 -7.765407e+000  5.000000e+001
      vertex  4.700000e+001 -7.000000e+000  5.000000e+001
    endloop
  endfacet
  facet normal  9.807976e-001  1.950286e-001  -0.000000e+000
    outer loop
      vertex  4.715220e+001 -7.765407e+000  5.200000e+001
      vertex  4.700000e+001 -7.000000e+000  5.000000e+001
      vertex  4.700000e+001 -7.000000e+000  5.200000e+001
    endloop
  endfacet
  facet normal  0.000000e+000  1.000000e+000  0.000000e+000
    outer loop
      vertex  4.900000e+001 -9.000000e+000  5.000000e+001
      vertex  4.900000e+001 -9.000000e+000  5.200000e+001
      vertex  5.000000e+001 -9.000000e+000  5.000000e+001
    endloop
  endfacet
  facet normal  0.000000e+000  1.000000e+000  -0.000000e+000
    outer loop
      vertex  5.000000e+001 -9.000000e+000  5.000000e+001
      vertex  4.900000e+001 -9.000000e+000  5.200000e+001
      vertex  5.000000e+001 -9.000000e+000  5.200000e+001
    endloop
  endfacet
  facet normal  1.000000e+000  -0.000000e+000  0.000000e+000
    outer loop
      vertex  5.000000e+001 -9.000000e+000  5.200000e+001
      vertex  5.000000e+001 -1.100000e+001  5.200000e+001
      vertex  5.000000e+001 -9.000000e+000  5.000000e+001
    endloop
  endfacet
  facet normal  1.000000e+000  0.000000e+000  0.000000e+000
    outer loop
      vertex  5.000000e+001 -9.000000e+000  5.000000e+001
      vertex  5.000000e+001 -1.100000e+001  5.200000e+001
      vertex  5.000000e+001 -1.100000e+001  5.000000e+001
    endloop
  endfacet
  facet normal  1.000000e+000  -0.000000e+000  0.000000e+000
    outer loop
      vertex  5.000000e+001 -1.100000e+001  5.200000e+001
      vertex  5.000000e+001 -1.300000e+001  5.200000e+001
      vertex  5.000000e+001 -1.100000e+001  5.000000e+001
    endloop
  endfacet
  facet normal  1.000000e+000  0.000000e+000  0.000000e+000
    outer loop
      vertex  5.000000e+001 -1.100000e+001  5.000000e+001
      vertex  5.000000e+001 -1.300000e+001  5.200000e+001
      vertex  5.000000e+001 -1.300000e+001  5.000000e+001
    endloop
  endfacet
  facet normal  1.000000e+000  -0.000000e+000  0.000000e+000
    outer loop
      vertex  5.000000e+001 -1.300000e+001  5.200000e+001
      vertex  5.000000e+001 -3.700000e+001  5.200000e+001
      vertex  5.000000e+001 -1.300000e+001  5.000000e+001
    endloop
  endfacet
  facet normal  1.000000e+000  0.000000e+000  0.000000e+000
    outer loop
      vertex  5.000000e+001 -1.300000e+001  5.000000e+001
      vertex  5.000000e+001 -3.700000e+001  5.200000e+001
      vertex  5.000000e+001 -3.700000e+001  5.000000e+001
    endloop
  endfacet
  facet normal  0.000000e+000 -1.000000e+000  0.000000e+000
    outer loop
      vertex  5.000000e+001 -3.700000e+001  5.200000e+001
      vertex -1.300000e+001 -3.700000e+001  5.200000e+001
      vertex  5.000000e+001 -3.700000e+001  5.000000e+001
    endloop
  endfacet
  facet normal  0.000000e+000 -1.000000e+000  0.000000e+000
    outer loop
      vertex  5.000000e+001 -3.700000e+001  5.000000e+001
      vertex -1.300000e+001 -3.700000e+001  5.200000e+001
      vertex -1.300000e+001 -3.700000e+001  5.000000e+001
    endloop
  endfacet
  facet normal -1.000000e+000  -0.000000e+000  0.000000e+000
    outer loop
      vertex -1.300000e+001 -3.700000e+001  5.200000e+001
      vertex -1.300000e+001  3.800000e+001  5.200000e+001
      vertex -1.300000e+001 -3.700000e+001  5.000000e+001
    endloop
  endfacet
  facet normal -1.000000e+000  0.000000e+000  0.000000e+000
    outer loop
      vertex -1.300000e+001 -3.700000e+001  5.000000e+001
      vertex -1.300000e+001  3.800000e+001  5.200000e+001
      vertex -1.300000e+001  3.800000e+001  5.000000e+001
    endloop
  endfacet
  facet normal  0.000000e+000  1.000000e+000  0.000000e+000
    outer loop
      vertex -1.300000e+001  3.800000e+001  5.200000e+001
      vertex  5.000000e+001  3.800000e+001  5.200000e+001
      vertex -1.300000e+001  3.800000e+001  5.000000e+001
    endloop
  endfacet
  facet normal  0.000000e+000  1.000000e+000  0.000000e+000
    outer loop
      vertex -1.300000e+001  3.800000e+001  5.000000e+001
      vertex  5.000000e+001  3.800000e+001  5.200000e+001
      vertex  5.000000e+001  3.800000e+001  5.000000e+001
    endloop
  endfacet
  facet normal  1.000000e+000  -0.000000e+000  0.000000e+000
    outer loop
      vertex  5.000000e+001  3.800000e+001  5.200000e+001
      vertex  5.000000e+001  1.100000e+001  5.200000e+001
      vertex  5.000000e+001  3.800000e+001  5.000000e+001
    endloop
  endfacet
  facet normal  1.000000e+000  0.000000e+000  0.000000e+000
    outer loop
      vertex  5.000000e+001  3.800000e+001  5.000000e+001
      vertex  5.000000e+001  1.100000e+001  5.200000e+001
      vertex  5.000000e+001  1.100000e+001  5.000000e+001
    endloop
  endfacet
endsolid CATIA STL
