solid CATIA STL
  facet normal -3.826826e-001  0.000000e+000 -9.238799e-001
    outer loop
      vertex  8.040037e-016 -2.131371e+001  2.348478e+001
      vertex  1.484924e+000 -2.131371e+001  2.286970e+001
      vertex  5.282640e-016 -2.531371e+001  2.348478e+001
    endloop
  endfacet
  facet normal -3.826826e-001  0.000000e+000 -9.238799e-001
    outer loop
      vertex  5.282640e-016 -2.531371e+001  2.348478e+001
      vertex  1.484924e+000 -2.131371e+001  2.286970e+001
      vertex  1.484924e+000 -2.531371e+001  2.286970e+001
    endloop
  endfacet
  facet normal -9.238796e-001  0.000000e+000 -3.826834e-001
    outer loop
      vertex  1.484924e+000 -2.131371e+001  2.286970e+001
      vertex  2.100000e+000 -2.131371e+001  2.138478e+001
      vertex  1.484924e+000 -2.531371e+001  2.286970e+001
    endloop
  endfacet
  facet normal -9.238796e-001  0.000000e+000 -3.826834e-001
    outer loop
      vertex  1.484924e+000 -2.531371e+001  2.286970e+001
      vertex  2.100000e+000 -2.131371e+001  2.138478e+001
      vertex  2.100000e+000 -2.531371e+001  2.138478e+001
    endloop
  endfacet
  facet normal -9.238796e-001  0.000000e+000  3.826834e-001
    outer loop
      vertex  2.100000e+000 -2.131371e+001  2.138478e+001
      vertex  1.484924e+000 -2.131371e+001  1.989985e+001
      vertex  2.100000e+000 -2.531371e+001  2.138478e+001
    endloop
  endfacet
  facet normal -9.238796e-001  0.000000e+000  3.826834e-001
    outer loop
      vertex  2.100000e+000 -2.531371e+001  2.138478e+001
      vertex  1.484924e+000 -2.131371e+001  1.989985e+001
      vertex  1.484924e+000 -2.531371e+001  1.989985e+001
    endloop
  endfacet
  facet normal -3.826836e-001  0.000000e+000  9.238795e-001
    outer loop
      vertex  1.484924e+000 -2.131371e+001  1.989985e+001
      vertex  7.846450e-015 -2.131371e+001  1.928478e+001
      vertex  1.484924e+000 -2.531371e+001  1.989985e+001
    endloop
  endfacet
  facet normal -3.826836e-001  0.000000e+000  9.238795e-001
    outer loop
      vertex  1.484924e+000 -2.531371e+001  1.989985e+001
      vertex  7.846450e-015 -2.131371e+001  1.928478e+001
      vertex  2.856100e-015 -2.531371e+001  1.928478e+001
    endloop
  endfacet
  facet normal  3.826836e-001  0.000000e+000  9.238795e-001
    outer loop
      vertex  7.846450e-015 -2.131371e+001  1.928478e+001
      vertex -1.484924e+000 -2.131371e+001  1.989985e+001
      vertex  2.856100e-015 -2.531371e+001  1.928478e+001
    endloop
  endfacet
  facet normal  3.826836e-001  0.000000e+000  9.238795e-001
    outer loop
      vertex  2.856100e-015 -2.531371e+001  1.928478e+001
      vertex -1.484924e+000 -2.131371e+001  1.989985e+001
      vertex -1.484924e+000 -2.531371e+001  1.989985e+001
    endloop
  endfacet
  facet normal  9.238796e-001  0.000000e+000  3.826834e-001
    outer loop
      vertex -1.484924e+000 -2.131371e+001  1.989985e+001
      vertex -2.100000e+000 -2.131371e+001  2.138478e+001
      vertex -1.484924e+000 -2.531371e+001  1.989985e+001
    endloop
  endfacet
  facet normal  9.238796e-001  0.000000e+000  3.826834e-001
    outer loop
      vertex -1.484924e+000 -2.531371e+001  1.989985e+001
      vertex -2.100000e+000 -2.131371e+001  2.138478e+001
      vertex -2.100000e+000 -2.531371e+001  2.138478e+001
    endloop
  endfacet
  facet normal  9.238796e-001  0.000000e+000 -3.826834e-001
    outer loop
      vertex -2.100000e+000 -2.131371e+001  2.138478e+001
      vertex -1.484924e+000 -2.131371e+001  2.286970e+001
      vertex -2.100000e+000 -2.531371e+001  2.138478e+001
    endloop
  endfacet
  facet normal  9.238796e-001  0.000000e+000 -3.826834e-001
    outer loop
      vertex -2.100000e+000 -2.531371e+001  2.138478e+001
      vertex -1.484924e+000 -2.131371e+001  2.286970e+001
      vertex -1.484924e+000 -2.531371e+001  2.286970e+001
    endloop
  endfacet
  facet normal  3.826826e-001  0.000000e+000 -9.238799e-001
    outer loop
      vertex -1.484924e+000 -2.131371e+001  2.286970e+001
      vertex  8.040037e-016 -2.131371e+001  2.348478e+001
      vertex -1.484924e+000 -2.531371e+001  2.286970e+001
    endloop
  endfacet
  facet normal  3.826826e-001  0.000000e+000 -9.238799e-001
    outer loop
      vertex -1.484924e+000 -2.531371e+001  2.286970e+001
      vertex  8.040037e-016 -2.131371e+001  2.348478e+001
      vertex  5.282640e-016 -2.531371e+001  2.348478e+001
    endloop
  endfacet
  facet normal  0.000000e+000 -1.000000e+000  0.000000e+000
    outer loop
      vertex  1.050000e+001 -2.531371e+001  2.838478e+001
      vertex -1.050000e+001 -2.531371e+001  2.838478e+001
      vertex -1.484924e+000 -2.531371e+001  2.286970e+001
    endloop
  endfacet
  facet normal  0.000000e+000 -1.000000e+000  0.000000e+000
    outer loop
      vertex  1.050000e+001 -2.531371e+001  2.838478e+001
      vertex -1.484924e+000 -2.531371e+001  2.286970e+001
      vertex  5.282640e-016 -2.531371e+001  2.348478e+001
    endloop
  endfacet
  facet normal  0.000000e+000 -1.000000e+000  0.000000e+000
    outer loop
      vertex  1.050000e+001 -2.531371e+001  2.838478e+001
      vertex  5.282640e-016 -2.531371e+001  2.348478e+001
      vertex  1.484924e+000 -2.531371e+001  2.286970e+001
    endloop
  endfacet
  facet normal  0.000000e+000 -1.000000e+000  0.000000e+000
    outer loop
      vertex  1.050000e+001 -2.531371e+001  2.838478e+001
      vertex  1.484924e+000 -2.531371e+001  2.286970e+001
      vertex  1.050000e+001 -2.531371e+001  1.531371e+001
    endloop
  endfacet
  facet normal  0.000000e+000 -9.999999e-001  0.000000e+000
    outer loop
      vertex -1.050000e+001 -2.531371e+001  1.531371e+001
      vertex  1.050000e+001 -2.531371e+001  1.531371e+001
      vertex  2.856100e-015 -2.531371e+001  1.928478e+001
    endloop
  endfacet
  facet normal  -0.000000e+000 -1.000000e+000  0.000000e+000
    outer loop
      vertex -1.050000e+001 -2.531371e+001  1.531371e+001
      vertex  2.856100e-015 -2.531371e+001  1.928478e+001
      vertex -1.484924e+000 -2.531371e+001  1.989985e+001
    endloop
  endfacet
  facet normal  -0.000000e+000 -1.000000e+000  0.000000e+000
    outer loop
      vertex -1.050000e+001 -2.531371e+001  1.531371e+001
      vertex -1.484924e+000 -2.531371e+001  1.989985e+001
      vertex -2.100000e+000 -2.531371e+001  2.138478e+001
    endloop
  endfacet
  facet normal  -0.000000e+000 -1.000000e+000  0.000000e+000
    outer loop
      vertex -1.050000e+001 -2.531371e+001  1.531371e+001
      vertex -2.100000e+000 -2.531371e+001  2.138478e+001
      vertex -1.484924e+000 -2.531371e+001  2.286970e+001
    endloop
  endfacet
  facet normal  -0.000000e+000 -1.000000e+000  0.000000e+000
    outer loop
      vertex -1.050000e+001 -2.531371e+001  1.531371e+001
      vertex -1.484924e+000 -2.531371e+001  2.286970e+001
      vertex -1.050000e+001 -2.531371e+001  2.838478e+001
    endloop
  endfacet
  facet normal  0.000000e+000 -1.000000e+000  0.000000e+000
    outer loop
      vertex  1.050000e+001 -2.531371e+001  1.531371e+001
      vertex  1.484924e+000 -2.531371e+001  2.286970e+001
      vertex  2.100000e+000 -2.531371e+001  2.138478e+001
    endloop
  endfacet
  facet normal  0.000000e+000 -1.000000e+000  -0.000000e+000
    outer loop
      vertex  1.050000e+001 -2.531371e+001  1.531371e+001
      vertex  2.100000e+000 -2.531371e+001  2.138478e+001
      vertex  1.484924e+000 -2.531371e+001  1.989985e+001
    endloop
  endfacet
  facet normal  0.000000e+000 -1.000000e+000  -0.000000e+000
    outer loop
      vertex  1.050000e+001 -2.531371e+001  1.531371e+001
      vertex  1.484924e+000 -2.531371e+001  1.989985e+001
      vertex  2.856100e-015 -2.531371e+001  1.928478e+001
    endloop
  endfacet
  facet normal  0.000000e+000  1.000000e+000  0.000000e+000
    outer loop
      vertex -1.050000e+001 -2.131371e+001  1.531371e+001
      vertex -1.050000e+001 -2.131371e+001  2.838478e+001
      vertex -2.100000e+000 -2.131371e+001  2.138478e+001
    endloop
  endfacet
  facet normal  0.000000e+000  1.000000e+000  0.000000e+000
    outer loop
      vertex -1.050000e+001 -2.131371e+001  1.531371e+001
      vertex -2.100000e+000 -2.131371e+001  2.138478e+001
      vertex -1.484924e+000 -2.131371e+001  1.989985e+001
    endloop
  endfacet
  facet normal  0.000000e+000  1.000000e+000  0.000000e+000
    outer loop
      vertex -1.050000e+001 -2.131371e+001  1.531371e+001
      vertex -1.484924e+000 -2.131371e+001  1.989985e+001
      vertex  7.846450e-015 -2.131371e+001  1.928478e+001
    endloop
  endfacet
  facet normal  0.000000e+000  9.999999e-001  0.000000e+000
    outer loop
      vertex  1.050000e+001 -2.131371e+001  1.531371e+001
      vertex -1.050000e+001 -2.131371e+001  1.531371e+001
      vertex  7.846450e-015 -2.131371e+001  1.928478e+001
    endloop
  endfacet
  facet normal  -0.000000e+000  1.000000e+000  0.000000e+000
    outer loop
      vertex  1.050000e+001 -2.131371e+001  1.531371e+001
      vertex  7.846450e-015 -2.131371e+001  1.928478e+001
      vertex  1.484924e+000 -2.131371e+001  1.989985e+001
    endloop
  endfacet
  facet normal  -0.000000e+000  1.000000e+000  0.000000e+000
    outer loop
      vertex  1.050000e+001 -2.131371e+001  1.531371e+001
      vertex  1.484924e+000 -2.131371e+001  1.989985e+001
      vertex  2.100000e+000 -2.131371e+001  2.138478e+001
    endloop
  endfacet
  facet normal  -0.000000e+000  1.000000e+000  -0.000000e+000
    outer loop
      vertex  1.050000e+001 -2.131371e+001  1.531371e+001
      vertex  2.100000e+000 -2.131371e+001  2.138478e+001
      vertex  1.484924e+000 -2.131371e+001  2.286970e+001
    endloop
  endfacet
  facet normal  -0.000000e+000  1.000000e+000  0.000000e+000
    outer loop
      vertex  1.050000e+001 -2.131371e+001  1.531371e+001
      vertex  1.484924e+000 -2.131371e+001  2.286970e+001
      vertex  1.050000e+001 -2.131371e+001  2.838478e+001
    endloop
  endfacet
  facet normal  0.000000e+000  1.000000e+000  0.000000e+000
    outer loop
      vertex -1.050000e+001 -2.131371e+001  2.838478e+001
      vertex  1.050000e+001 -2.131371e+001  2.838478e+001
      vertex  1.484924e+000 -2.131371e+001  2.286970e+001
    endloop
  endfacet
  facet normal  0.000000e+000  1.000000e+000  0.000000e+000
    outer loop
      vertex -1.050000e+001 -2.131371e+001  2.838478e+001
      vertex  1.484924e+000 -2.131371e+001  2.286970e+001
      vertex  8.040037e-016 -2.131371e+001  2.348478e+001
    endloop
  endfacet
  facet normal  0.000000e+000  1.000000e+000  0.000000e+000
    outer loop
      vertex -1.050000e+001 -2.131371e+001  2.838478e+001
      vertex  8.040037e-016 -2.131371e+001  2.348478e+001
      vertex -1.484924e+000 -2.131371e+001  2.286970e+001
    endloop
  endfacet
  facet normal  0.000000e+000  9.999999e-001  0.000000e+000
    outer loop
      vertex -1.050000e+001 -2.131371e+001  2.838478e+001
      vertex -1.484924e+000 -2.131371e+001  2.286970e+001
      vertex -2.100000e+000 -2.131371e+001  2.138478e+001
    endloop
  endfacet
  facet normal  -0.000000e+000 -8.314697e-001 -5.555699e-001
    outer loop
      vertex -1.050000e+001 -2.238478e+001  8.242640e+000
      vertex  1.050000e+001 -2.238478e+001  8.242640e+000
      vertex -1.050000e+001 -2.455250e+001  1.148687e+001
    endloop
  endfacet
  facet normal  0.000000e+000 -8.314697e-001 -5.555699e-001
    outer loop
      vertex -1.050000e+001 -2.455250e+001  1.148687e+001
      vertex  1.050000e+001 -2.238478e+001  8.242640e+000
      vertex  1.050000e+001 -2.455250e+001  1.148687e+001
    endloop
  endfacet
  facet normal  -0.000000e+000 -9.807853e-001 -1.950906e-001
    outer loop
      vertex -1.050000e+001 -2.455250e+001  1.148687e+001
      vertex  1.050000e+001 -2.455250e+001  1.148687e+001
      vertex -1.050000e+001 -2.531371e+001  1.531371e+001
    endloop
  endfacet
  facet normal  0.000000e+000 -9.807853e-001 -1.950906e-001
    outer loop
      vertex -1.050000e+001 -2.531371e+001  1.531371e+001
      vertex  1.050000e+001 -2.455250e+001  1.148687e+001
      vertex  1.050000e+001 -2.531371e+001  1.531371e+001
    endloop
  endfacet
  facet normal  -0.000000e+000  7.071068e-001  7.071068e-001
    outer loop
      vertex  1.050000e+001 -1.424264e+001  5.757360e+000
      vertex -1.050000e+001 -1.424264e+001  5.757360e+000
      vertex  1.050000e+001 -1.955635e+001  1.107107e+001
    endloop
  endfacet
  facet normal  0.000000e+000  7.071068e-001  7.071068e-001
    outer loop
      vertex  1.050000e+001 -1.955635e+001  1.107107e+001
      vertex -1.050000e+001 -1.424264e+001  5.757360e+000
      vertex -1.050000e+001 -1.955635e+001  1.107107e+001
    endloop
  endfacet
  facet normal  1.000000e+000  0.000000e+000  0.000000e+000
    outer loop
      vertex  1.050000e+001 -2.238478e+001  8.242640e+000
      vertex  1.050000e+001 -1.707107e+001  2.928932e+000
      vertex  1.050000e+001 -1.955635e+001  1.107107e+001
    endloop
  endfacet
  facet normal  9.999999e-001  0.000000e+000  0.000000e+000
    outer loop
      vertex  1.050000e+001 -1.955635e+001  1.107107e+001
      vertex  1.050000e+001 -1.707107e+001  2.928932e+000
      vertex  1.050000e+001 -1.424264e+001  5.757360e+000
    endloop
  endfacet
  facet normal  1.000000e+000  -0.000000e+000  -0.000000e+000
    outer loop
      vertex  1.050000e+001 -2.531371e+001  1.531371e+001
      vertex  1.050000e+001 -2.455250e+001  1.148687e+001
      vertex  1.050000e+001 -2.238478e+001  8.242640e+000
    endloop
  endfacet
  facet normal  9.999999e-001  0.000000e+000  -0.000000e+000
    outer loop
      vertex  1.050000e+001 -2.531371e+001  1.531371e+001
      vertex  1.050000e+001 -2.238478e+001  8.242640e+000
      vertex  1.050000e+001 -1.955635e+001  1.107107e+001
    endloop
  endfacet
  facet normal  1.000000e+000  0.000000e+000  0.000000e+000
    outer loop
      vertex  1.050000e+001 -2.531371e+001  1.531371e+001
      vertex  1.050000e+001 -1.955635e+001  1.107107e+001
      vertex  1.050000e+001 -2.085699e+001  1.301761e+001
    endloop
  endfacet
  facet normal  1.000000e+000  0.000000e+000  0.000000e+000
    outer loop
      vertex  1.050000e+001 -2.531371e+001  1.531371e+001
      vertex  1.050000e+001 -2.085699e+001  1.301761e+001
      vertex  1.050000e+001 -2.131371e+001  1.531371e+001
    endloop
  endfacet
  facet normal  0.000000e+000  8.314697e-001  5.555702e-001
    outer loop
      vertex -1.050000e+001 -1.955635e+001  1.107107e+001
      vertex -1.050000e+001 -2.085699e+001  1.301761e+001
      vertex  1.050000e+001 -1.955635e+001  1.107107e+001
    endloop
  endfacet
  facet normal  0.000000e+000  8.314697e-001  5.555702e-001
    outer loop
      vertex  1.050000e+001 -1.955635e+001  1.107107e+001
      vertex -1.050000e+001 -2.085699e+001  1.301761e+001
      vertex  1.050000e+001 -2.085699e+001  1.301761e+001
    endloop
  endfacet
  facet normal  0.000000e+000  9.807851e-001  1.950909e-001
    outer loop
      vertex -1.050000e+001 -2.085699e+001  1.301761e+001
      vertex -1.050000e+001 -2.131371e+001  1.531371e+001
      vertex  1.050000e+001 -2.085699e+001  1.301761e+001
    endloop
  endfacet
  facet normal  0.000000e+000  9.807851e-001  1.950909e-001
    outer loop
      vertex  1.050000e+001 -2.085699e+001  1.301761e+001
      vertex -1.050000e+001 -2.131371e+001  1.531371e+001
      vertex  1.050000e+001 -2.131371e+001  1.531371e+001
    endloop
  endfacet
  facet normal  1.000000e+000  0.000000e+000  0.000000e+000
    outer loop
      vertex  1.050000e+001 -2.531371e+001  1.531371e+001
      vertex  1.050000e+001 -2.131371e+001  1.531371e+001
      vertex  1.050000e+001 -2.531371e+001  2.838478e+001
    endloop
  endfacet
  facet normal  1.000000e+000  -0.000000e+000  0.000000e+000
    outer loop
      vertex  1.050000e+001 -2.531371e+001  2.838478e+001
      vertex  1.050000e+001 -2.131371e+001  1.531371e+001
      vertex  1.050000e+001 -2.131371e+001  2.838478e+001
    endloop
  endfacet
  facet normal  0.000000e+000  0.000000e+000  1.000000e+000
    outer loop
      vertex -1.050000e+001 -2.131371e+001  2.838478e+001
      vertex -1.050000e+001 -2.531371e+001  2.838478e+001
      vertex  1.050000e+001 -2.131371e+001  2.838478e+001
    endloop
  endfacet
  facet normal  0.000000e+000  0.000000e+000  1.000000e+000
    outer loop
      vertex  1.050000e+001 -2.131371e+001  2.838478e+001
      vertex -1.050000e+001 -2.531371e+001  2.838478e+001
      vertex  1.050000e+001 -2.531371e+001  2.838478e+001
    endloop
  endfacet
  facet normal -1.000000e+000  0.000000e+000  0.000000e+000
    outer loop
      vertex -1.050000e+001 -2.531371e+001  1.531371e+001
      vertex -1.050000e+001 -2.531371e+001  2.838478e+001
      vertex -1.050000e+001 -2.131371e+001  1.531371e+001
    endloop
  endfacet
  facet normal -1.000000e+000  0.000000e+000  0.000000e+000
    outer loop
      vertex -1.050000e+001 -2.131371e+001  1.531371e+001
      vertex -1.050000e+001 -2.531371e+001  2.838478e+001
      vertex -1.050000e+001 -2.131371e+001  2.838478e+001
    endloop
  endfacet
  facet normal -1.000000e+000  -0.000000e+000  -0.000000e+000
    outer loop
      vertex -1.050000e+001 -2.531371e+001  1.531371e+001
      vertex -1.050000e+001 -2.131371e+001  1.531371e+001
      vertex -1.050000e+001 -2.085699e+001  1.301761e+001
    endloop
  endfacet
  facet normal -1.000000e+000  -0.000000e+000  -0.000000e+000
    outer loop
      vertex -1.050000e+001 -2.531371e+001  1.531371e+001
      vertex -1.050000e+001 -2.085699e+001  1.301761e+001
      vertex -1.050000e+001 -1.955635e+001  1.107107e+001
    endloop
  endfacet
  facet normal -9.999999e-001  -0.000000e+000  0.000000e+000
    outer loop
      vertex -1.050000e+001 -2.531371e+001  1.531371e+001
      vertex -1.050000e+001 -1.955635e+001  1.107107e+001
      vertex -1.050000e+001 -2.238478e+001  8.242640e+000
    endloop
  endfacet
  facet normal -1.000000e+000  0.000000e+000  0.000000e+000
    outer loop
      vertex -1.050000e+001 -2.531371e+001  1.531371e+001
      vertex -1.050000e+001 -2.238478e+001  8.242640e+000
      vertex -1.050000e+001 -2.455250e+001  1.148687e+001
    endloop
  endfacet
  facet normal -1.000000e+000  0.000000e+000  -0.000000e+000
    outer loop
      vertex -1.050000e+001 -2.238478e+001  8.242640e+000
      vertex -1.050000e+001 -1.955635e+001  1.107107e+001
      vertex -1.050000e+001 -1.707107e+001  2.928932e+000
    endloop
  endfacet
  facet normal -9.999999e-001  0.000000e+000  0.000000e+000
    outer loop
      vertex -1.050000e+001 -1.707107e+001  2.928932e+000
      vertex -1.050000e+001 -1.955635e+001  1.107107e+001
      vertex -1.050000e+001 -1.424264e+001  5.757360e+000
    endloop
  endfacet
  facet normal  0.000000e+000 -7.071068e-001 -7.071068e-001
    outer loop
      vertex  1.050000e+001 -1.707107e+001  2.928932e+000
      vertex  1.050000e+001 -2.238478e+001  8.242640e+000
      vertex -1.050000e+001 -1.707107e+001  2.928932e+000
    endloop
  endfacet
  facet normal  0.000000e+000 -7.071068e-001 -7.071068e-001
    outer loop
      vertex -1.050000e+001 -1.707107e+001  2.928932e+000
      vertex  1.050000e+001 -2.238478e+001  8.242640e+000
      vertex -1.050000e+001 -2.238478e+001  8.242640e+000
    endloop
  endfacet
  facet normal  0.000000e+000  5.555704e-001  8.314695e-001
    outer loop
      vertex  1.050000e+001 -1.424264e+001  5.757360e+000
      vertex  1.050000e+001 -1.229610e+001  4.456723e+000
      vertex -1.050000e+001 -1.424264e+001  5.757360e+000
    endloop
  endfacet
  facet normal  0.000000e+000  5.555704e-001  8.314695e-001
    outer loop
      vertex -1.050000e+001 -1.424264e+001  5.757360e+000
      vertex  1.050000e+001 -1.229610e+001  4.456723e+000
      vertex -1.050000e+001 -1.229610e+001  4.456723e+000
    endloop
  endfacet
  facet normal  0.000000e+000  1.950903e-001  9.807853e-001
    outer loop
      vertex  1.050000e+001 -1.229610e+001  4.456723e+000
      vertex  1.050000e+001 -1.000000e+001  4.000000e+000
      vertex -1.050000e+001 -1.229610e+001  4.456723e+000
    endloop
  endfacet
  facet normal  0.000000e+000  1.950903e-001  9.807853e-001
    outer loop
      vertex -1.050000e+001 -1.229610e+001  4.456723e+000
      vertex  1.050000e+001 -1.000000e+001  4.000000e+000
      vertex -1.050000e+001 -1.000000e+001  4.000000e+000
    endloop
  endfacet
  facet normal  0.000000e+000  0.000000e+000  9.999999e-001
    outer loop
      vertex  1.050000e+001 -1.000000e+001  4.000000e+000
      vertex  1.050000e+001  0.000000e+000  4.000000e+000
      vertex  7.750000e+000  0.000000e+000  4.000000e+000
    endloop
  endfacet
  facet normal  0.000000e+000  0.000000e+000  1.000000e+000
    outer loop
      vertex  1.050000e+001 -1.000000e+001  4.000000e+000
      vertex  7.750000e+000  0.000000e+000  4.000000e+000
      vertex  6.982509e+000 -3.362599e+000  4.000000e+000
    endloop
  endfacet
  facet normal  0.000000e+000  0.000000e+000  1.000000e+000
    outer loop
      vertex  1.050000e+001 -1.000000e+001  4.000000e+000
      vertex  6.982509e+000 -3.362599e+000  4.000000e+000
      vertex  4.832046e+000 -6.059194e+000  4.000000e+000
    endloop
  endfacet
  facet normal  0.000000e+000  0.000000e+000  1.000000e+000
    outer loop
      vertex  1.050000e+001 -1.000000e+001  4.000000e+000
      vertex  4.832046e+000 -6.059194e+000  4.000000e+000
      vertex  1.724537e+000 -7.555691e+000  4.000000e+000
    endloop
  endfacet
  facet normal  0.000000e+000  0.000000e+000  1.000000e+000
    outer loop
      vertex  1.050000e+001 -1.000000e+001  4.000000e+000
      vertex  1.724537e+000 -7.555691e+000  4.000000e+000
      vertex -1.724537e+000 -7.555691e+000  4.000000e+000
    endloop
  endfacet
  facet normal  0.000000e+000  0.000000e+000  1.000000e+000
    outer loop
      vertex  1.050000e+001 -1.000000e+001  4.000000e+000
      vertex -1.724537e+000 -7.555691e+000  4.000000e+000
      vertex -1.050000e+001 -1.000000e+001  4.000000e+000
    endloop
  endfacet
  facet normal  0.000000e+000  0.000000e+000  1.000000e+000
    outer loop
      vertex -1.050000e+001 -1.000000e+001  4.000000e+000
      vertex -1.724537e+000 -7.555691e+000  4.000000e+000
      vertex -4.832046e+000 -6.059194e+000  4.000000e+000
    endloop
  endfacet
  facet normal  0.000000e+000  0.000000e+000  1.000000e+000
    outer loop
      vertex -1.050000e+001 -1.000000e+001  4.000000e+000
      vertex -4.832046e+000 -6.059194e+000  4.000000e+000
      vertex -6.982509e+000 -3.362599e+000  4.000000e+000
    endloop
  endfacet
  facet normal  0.000000e+000  0.000000e+000  1.000000e+000
    outer loop
      vertex -1.050000e+001 -1.000000e+001  4.000000e+000
      vertex -6.982509e+000 -3.362599e+000  4.000000e+000
      vertex -7.750000e+000  9.490699e-016  4.000000e+000
    endloop
  endfacet
  facet normal  0.000000e+000  0.000000e+000  9.999999e-001
    outer loop
      vertex -1.050000e+001 -1.000000e+001  4.000000e+000
      vertex -7.750000e+000  9.490699e-016  4.000000e+000
      vertex -1.050000e+001  0.000000e+000  4.000000e+000
    endloop
  endfacet
  facet normal  0.000000e+000  0.000000e+000  1.000000e+000
    outer loop
      vertex  1.050000e+001  0.000000e+000  4.000000e+000
      vertex  9.866773e+000  3.591212e+000  4.000000e+000
      vertex  7.750000e+000  0.000000e+000  4.000000e+000
    endloop
  endfacet
  facet normal  0.000000e+000  0.000000e+000  9.999999e-001
    outer loop
      vertex  7.750000e+000  0.000000e+000  4.000000e+000
      vertex  9.866773e+000  3.591212e+000  4.000000e+000
      vertex  8.043467e+000  6.749270e+000  4.000000e+000
    endloop
  endfacet
  facet normal  0.000000e+000  0.000000e+000  1.000000e+000
    outer loop
      vertex  7.750000e+000  0.000000e+000  4.000000e+000
      vertex  8.043467e+000  6.749270e+000  4.000000e+000
      vertex  6.982509e+000  3.362599e+000  4.000000e+000
    endloop
  endfacet
  facet normal  0.000000e+000  0.000000e+000  1.000000e+000
    outer loop
      vertex  6.982509e+000  3.362599e+000  4.000000e+000
      vertex  8.043467e+000  6.749270e+000  4.000000e+000
      vertex  4.832046e+000  6.059194e+000  4.000000e+000
    endloop
  endfacet
  facet normal  0.000000e+000  0.000000e+000  1.000000e+000
    outer loop
      vertex  4.832046e+000  6.059194e+000  4.000000e+000
      vertex  8.043467e+000  6.749270e+000  4.000000e+000
      vertex  5.250000e+000  9.093266e+000  4.000000e+000
    endloop
  endfacet
  facet normal  0.000000e+000  0.000000e+000  1.000000e+000
    outer loop
      vertex  4.832046e+000  6.059194e+000  4.000000e+000
      vertex  5.250000e+000  9.093266e+000  4.000000e+000
      vertex  1.724537e+000  7.555691e+000  4.000000e+000
    endloop
  endfacet
  facet normal  0.000000e+000  0.000000e+000  1.000000e+000
    outer loop
      vertex  1.724537e+000  7.555691e+000  4.000000e+000
      vertex  5.250000e+000  9.093266e+000  4.000000e+000
      vertex  1.823306e+000  1.034048e+001  4.000000e+000
    endloop
  endfacet
  facet normal  0.000000e+000  0.000000e+000  1.000000e+000
    outer loop
      vertex  1.724537e+000  7.555691e+000  4.000000e+000
      vertex  1.823306e+000  1.034048e+001  4.000000e+000
      vertex -1.724537e+000  7.555691e+000  4.000000e+000
    endloop
  endfacet
  facet normal  0.000000e+000  -0.000000e+000  9.999999e-001
    outer loop
      vertex -1.724537e+000  7.555691e+000  4.000000e+000
      vertex  1.823306e+000  1.034048e+001  4.000000e+000
      vertex -1.823306e+000  1.034048e+001  4.000000e+000
    endloop
  endfacet
  facet normal  0.000000e+000  0.000000e+000  1.000000e+000
    outer loop
      vertex -1.724537e+000  7.555691e+000  4.000000e+000
      vertex -1.823306e+000  1.034048e+001  4.000000e+000
      vertex -4.832046e+000  6.059194e+000  4.000000e+000
    endloop
  endfacet
  facet normal  0.000000e+000  -0.000000e+000  1.000000e+000
    outer loop
      vertex -4.832046e+000  6.059194e+000  4.000000e+000
      vertex -1.823306e+000  1.034048e+001  4.000000e+000
      vertex -5.250000e+000  9.093266e+000  4.000000e+000
    endloop
  endfacet
  facet normal  0.000000e+000  0.000000e+000  1.000000e+000
    outer loop
      vertex -4.832046e+000  6.059194e+000  4.000000e+000
      vertex -5.250000e+000  9.093266e+000  4.000000e+000
      vertex -6.982509e+000  3.362599e+000  4.000000e+000
    endloop
  endfacet
  facet normal  0.000000e+000  -0.000000e+000  1.000000e+000
    outer loop
      vertex -6.982509e+000  3.362599e+000  4.000000e+000
      vertex -5.250000e+000  9.093266e+000  4.000000e+000
      vertex -8.043467e+000  6.749270e+000  4.000000e+000
    endloop
  endfacet
  facet normal  0.000000e+000  0.000000e+000  1.000000e+000
    outer loop
      vertex -6.982509e+000  3.362599e+000  4.000000e+000
      vertex -8.043467e+000  6.749270e+000  4.000000e+000
      vertex -7.750000e+000  9.490699e-016  4.000000e+000
    endloop
  endfacet
  facet normal  -0.000000e+000  0.000000e+000  9.999999e-001
    outer loop
      vertex -8.043467e+000  6.749270e+000  4.000000e+000
      vertex -9.866773e+000  3.591212e+000  4.000000e+000
      vertex -7.750000e+000  9.490699e-016  4.000000e+000
    endloop
  endfacet
  facet normal  0.000000e+000  0.000000e+000  1.000000e+000
    outer loop
      vertex -7.750000e+000  9.490699e-016  4.000000e+000
      vertex -9.866773e+000  3.591212e+000  4.000000e+000
      vertex -1.050000e+001  0.000000e+000  4.000000e+000
    endloop
  endfacet
  facet normal  1.000000e+000  0.000000e+000  0.000000e+000
    outer loop
      vertex  1.050000e+001 -1.000000e+001  0.000000e+000
      vertex  1.050000e+001  0.000000e+000  0.000000e+000
      vertex  1.050000e+001 -1.000000e+001  4.000000e+000
    endloop
  endfacet
  facet normal  1.000000e+000  -0.000000e+000  0.000000e+000
    outer loop
      vertex  1.050000e+001 -1.000000e+001  4.000000e+000
      vertex  1.050000e+001  0.000000e+000  0.000000e+000
      vertex  1.050000e+001  0.000000e+000  4.000000e+000
    endloop
  endfacet
  facet normal  1.000000e+000  -0.000000e+000  -0.000000e+000
    outer loop
      vertex  1.050000e+001 -1.707107e+001  2.928932e+000
      vertex  1.050000e+001 -1.382683e+001  7.612047e-001
      vertex  1.050000e+001 -1.000000e+001  0.000000e+000
    endloop
  endfacet
  facet normal  1.000000e+000  0.000000e+000  -0.000000e+000
    outer loop
      vertex  1.050000e+001 -1.707107e+001  2.928932e+000
      vertex  1.050000e+001 -1.000000e+001  0.000000e+000
      vertex  1.050000e+001 -1.000000e+001  4.000000e+000
    endloop
  endfacet
  facet normal  1.000000e+000  0.000000e+000  0.000000e+000
    outer loop
      vertex  1.050000e+001 -1.707107e+001  2.928932e+000
      vertex  1.050000e+001 -1.000000e+001  4.000000e+000
      vertex  1.050000e+001 -1.229610e+001  4.456723e+000
    endloop
  endfacet
  facet normal  1.000000e+000  0.000000e+000  0.000000e+000
    outer loop
      vertex  1.050000e+001 -1.707107e+001  2.928932e+000
      vertex  1.050000e+001 -1.229610e+001  4.456723e+000
      vertex  1.050000e+001 -1.424264e+001  5.757360e+000
    endloop
  endfacet
  facet normal  0.000000e+000 -5.555702e-001 -8.314695e-001
    outer loop
      vertex  1.050000e+001 -1.707107e+001  2.928932e+000
      vertex -1.050000e+001 -1.707107e+001  2.928932e+000
      vertex  1.050000e+001 -1.382683e+001  7.612047e-001
    endloop
  endfacet
  facet normal  -0.000000e+000 -5.555702e-001 -8.314695e-001
    outer loop
      vertex  1.050000e+001 -1.382683e+001  7.612047e-001
      vertex -1.050000e+001 -1.707107e+001  2.928932e+000
      vertex -1.050000e+001 -1.382683e+001  7.612047e-001
    endloop
  endfacet
  facet normal  0.000000e+000 -1.950903e-001 -9.807853e-001
    outer loop
      vertex  1.050000e+001 -1.382683e+001  7.612047e-001
      vertex -1.050000e+001 -1.382683e+001  7.612047e-001
      vertex  1.050000e+001 -1.000000e+001  0.000000e+000
    endloop
  endfacet
  facet normal  -0.000000e+000 -1.950903e-001 -9.807853e-001
    outer loop
      vertex  1.050000e+001 -1.000000e+001  0.000000e+000
      vertex -1.050000e+001 -1.382683e+001  7.612047e-001
      vertex -1.050000e+001 -1.000000e+001  0.000000e+000
    endloop
  endfacet
  facet normal  0.000000e+000  0.000000e+000 -1.000000e+000
    outer loop
      vertex  1.050000e+001 -1.000000e+001  0.000000e+000
      vertex -1.050000e+001 -1.000000e+001  0.000000e+000
      vertex -1.724537e+000 -7.555691e+000  0.000000e+000
    endloop
  endfacet
  facet normal  0.000000e+000  0.000000e+000 -1.000000e+000
    outer loop
      vertex  1.050000e+001 -1.000000e+001  0.000000e+000
      vertex -1.724537e+000 -7.555691e+000  0.000000e+000
      vertex  1.724537e+000 -7.555691e+000  0.000000e+000
    endloop
  endfacet
  facet normal  0.000000e+000  0.000000e+000 -1.000000e+000
    outer loop
      vertex  1.050000e+001 -1.000000e+001  0.000000e+000
      vertex  1.724537e+000 -7.555691e+000  0.000000e+000
      vertex  4.832046e+000 -6.059194e+000  0.000000e+000
    endloop
  endfacet
  facet normal  0.000000e+000  0.000000e+000 -1.000000e+000
    outer loop
      vertex  1.050000e+001 -1.000000e+001  0.000000e+000
      vertex  4.832046e+000 -6.059194e+000  0.000000e+000
      vertex  6.982509e+000 -3.362599e+000  0.000000e+000
    endloop
  endfacet
  facet normal  0.000000e+000  0.000000e+000 -1.000000e+000
    outer loop
      vertex  1.050000e+001 -1.000000e+001  0.000000e+000
      vertex  6.982509e+000 -3.362599e+000  0.000000e+000
      vertex  7.750000e+000  0.000000e+000  0.000000e+000
    endloop
  endfacet
  facet normal  0.000000e+000  0.000000e+000 -9.999999e-001
    outer loop
      vertex  1.050000e+001 -1.000000e+001  0.000000e+000
      vertex  7.750000e+000  0.000000e+000  0.000000e+000
      vertex  1.050000e+001  0.000000e+000  0.000000e+000
    endloop
  endfacet
  facet normal  0.000000e+000  0.000000e+000 -9.999999e-001
    outer loop
      vertex -1.050000e+001 -1.000000e+001  0.000000e+000
      vertex -1.050000e+001  1.285837e-015  0.000000e+000
      vertex -7.750000e+000  9.490699e-016  0.000000e+000
    endloop
  endfacet
  facet normal  0.000000e+000  -0.000000e+000 -1.000000e+000
    outer loop
      vertex -1.050000e+001 -1.000000e+001  0.000000e+000
      vertex -7.750000e+000  9.490699e-016  0.000000e+000
      vertex -6.982509e+000 -3.362599e+000  0.000000e+000
    endloop
  endfacet
  facet normal  0.000000e+000  -0.000000e+000 -1.000000e+000
    outer loop
      vertex -1.050000e+001 -1.000000e+001  0.000000e+000
      vertex -6.982509e+000 -3.362599e+000  0.000000e+000
      vertex -4.832046e+000 -6.059194e+000  0.000000e+000
    endloop
  endfacet
  facet normal  0.000000e+000  -0.000000e+000 -1.000000e+000
    outer loop
      vertex -1.050000e+001 -1.000000e+001  0.000000e+000
      vertex -4.832046e+000 -6.059194e+000  0.000000e+000
      vertex -1.724537e+000 -7.555691e+000  0.000000e+000
    endloop
  endfacet
  facet normal  0.000000e+000  0.000000e+000 -1.000000e+000
    outer loop
      vertex -1.724537e+000  7.555691e+000  0.000000e+000
      vertex -1.823306e+000  1.034048e+001  0.000000e+000
      vertex  1.724537e+000  7.555691e+000  0.000000e+000
    endloop
  endfacet
  facet normal  0.000000e+000  0.000000e+000 -9.999999e-001
    outer loop
      vertex  1.724537e+000  7.555691e+000  0.000000e+000
      vertex -1.823306e+000  1.034048e+001  0.000000e+000
      vertex  1.823306e+000  1.034048e+001  0.000000e+000
    endloop
  endfacet
  facet normal  0.000000e+000  -0.000000e+000 -1.000000e+000
    outer loop
      vertex  1.724537e+000  7.555691e+000  0.000000e+000
      vertex  1.823306e+000  1.034048e+001  0.000000e+000
      vertex  5.250000e+000  9.093266e+000  0.000000e+000
    endloop
  endfacet
  facet normal  0.000000e+000  0.000000e+000 -1.000000e+000
    outer loop
      vertex -1.823306e+000  1.034048e+001  0.000000e+000
      vertex -1.724537e+000  7.555691e+000  0.000000e+000
      vertex -5.250000e+000  9.093266e+000  0.000000e+000
    endloop
  endfacet
  facet normal  0.000000e+000  0.000000e+000 -1.000000e+000
    outer loop
      vertex -5.250000e+000  9.093266e+000  0.000000e+000
      vertex -1.724537e+000  7.555691e+000  0.000000e+000
      vertex -4.832046e+000  6.059194e+000  0.000000e+000
    endloop
  endfacet
  facet normal  0.000000e+000  0.000000e+000 -1.000000e+000
    outer loop
      vertex -5.250000e+000  9.093266e+000  0.000000e+000
      vertex -4.832046e+000  6.059194e+000  0.000000e+000
      vertex -8.043467e+000  6.749270e+000  0.000000e+000
    endloop
  endfacet
  facet normal  0.000000e+000  0.000000e+000 -1.000000e+000
    outer loop
      vertex -8.043467e+000  6.749270e+000  0.000000e+000
      vertex -4.832046e+000  6.059194e+000  0.000000e+000
      vertex -6.982509e+000  3.362599e+000  0.000000e+000
    endloop
  endfacet
  facet normal  0.000000e+000  0.000000e+000 -1.000000e+000
    outer loop
      vertex -8.043467e+000  6.749270e+000  0.000000e+000
      vertex -6.982509e+000  3.362599e+000  0.000000e+000
      vertex -9.866773e+000  3.591212e+000  0.000000e+000
    endloop
  endfacet
  facet normal  0.000000e+000  0.000000e+000 -1.000000e+000
    outer loop
      vertex -9.866773e+000  3.591212e+000  0.000000e+000
      vertex -6.982509e+000  3.362599e+000  0.000000e+000
      vertex -7.750000e+000  9.490699e-016  0.000000e+000
    endloop
  endfacet
  facet normal  0.000000e+000  0.000000e+000 -1.000000e+000
    outer loop
      vertex -9.866773e+000  3.591212e+000  0.000000e+000
      vertex -7.750000e+000  9.490699e-016  0.000000e+000
      vertex -1.050000e+001  1.285837e-015  0.000000e+000
    endloop
  endfacet
  facet normal  0.000000e+000  0.000000e+000 -9.999999e-001
    outer loop
      vertex  8.043467e+000  6.749270e+000  0.000000e+000
      vertex  1.724537e+000  7.555691e+000  0.000000e+000
      vertex  5.250000e+000  9.093266e+000  0.000000e+000
    endloop
  endfacet
  facet normal  -0.000000e+000  0.000000e+000 -1.000000e+000
    outer loop
      vertex  1.724537e+000  7.555691e+000  0.000000e+000
      vertex  8.043467e+000  6.749270e+000  0.000000e+000
      vertex  4.832046e+000  6.059194e+000  0.000000e+000
    endloop
  endfacet
  facet normal  0.000000e+000  0.000000e+000 -9.999999e-001
    outer loop
      vertex  4.832046e+000  6.059194e+000  0.000000e+000
      vertex  8.043467e+000  6.749270e+000  0.000000e+000
      vertex  9.866773e+000  3.591212e+000  0.000000e+000
    endloop
  endfacet
  facet normal  -0.000000e+000  0.000000e+000 -1.000000e+000
    outer loop
      vertex  4.832046e+000  6.059194e+000  0.000000e+000
      vertex  9.866773e+000  3.591212e+000  0.000000e+000
      vertex  6.982509e+000  3.362599e+000  0.000000e+000
    endloop
  endfacet
  facet normal  0.000000e+000  0.000000e+000 -1.000000e+000
    outer loop
      vertex  6.982509e+000  3.362599e+000  0.000000e+000
      vertex  9.866773e+000  3.591212e+000  0.000000e+000
      vertex  1.050000e+001  0.000000e+000  0.000000e+000
    endloop
  endfacet
  facet normal  0.000000e+000  0.000000e+000 -1.000000e+000
    outer loop
      vertex  6.982509e+000  3.362599e+000  0.000000e+000
      vertex  1.050000e+001  0.000000e+000  0.000000e+000
      vertex  7.750000e+000  0.000000e+000  0.000000e+000
    endloop
  endfacet
  facet normal -1.000000e+000  0.000000e+000  0.000000e+000
    outer loop
      vertex -1.050000e+001  1.285837e-015  0.000000e+000
      vertex -1.050000e+001 -1.000000e+001  0.000000e+000
      vertex -1.050000e+001  0.000000e+000  4.000000e+000
    endloop
  endfacet
  facet normal -1.000000e+000  -0.000000e+000  0.000000e+000
    outer loop
      vertex -1.050000e+001  0.000000e+000  4.000000e+000
      vertex -1.050000e+001 -1.000000e+001  0.000000e+000
      vertex -1.050000e+001 -1.000000e+001  4.000000e+000
    endloop
  endfacet
  facet normal -1.000000e+000  0.000000e+000  -0.000000e+000
    outer loop
      vertex -1.050000e+001 -1.707107e+001  2.928932e+000
      vertex -1.050000e+001 -1.424264e+001  5.757360e+000
      vertex -1.050000e+001 -1.229610e+001  4.456723e+000
    endloop
  endfacet
  facet normal -1.000000e+000  0.000000e+000  -0.000000e+000
    outer loop
      vertex -1.050000e+001 -1.707107e+001  2.928932e+000
      vertex -1.050000e+001 -1.229610e+001  4.456723e+000
      vertex -1.050000e+001 -1.000000e+001  4.000000e+000
    endloop
  endfacet
  facet normal -1.000000e+000  0.000000e+000  -0.000000e+000
    outer loop
      vertex -1.050000e+001 -1.707107e+001  2.928932e+000
      vertex -1.050000e+001 -1.000000e+001  4.000000e+000
      vertex -1.050000e+001 -1.000000e+001  0.000000e+000
    endloop
  endfacet
  facet normal -1.000000e+000  0.000000e+000  0.000000e+000
    outer loop
      vertex -1.050000e+001 -1.707107e+001  2.928932e+000
      vertex -1.050000e+001 -1.000000e+001  0.000000e+000
      vertex -1.050000e+001 -1.382683e+001  7.612047e-001
    endloop
  endfacet
  facet normal -9.848078e-001  1.736481e-001  5.582079e-017
    outer loop
      vertex -1.050000e+001  1.285837e-015  0.000000e+000
      vertex -1.050000e+001  0.000000e+000  4.000000e+000
      vertex -9.866773e+000  3.591212e+000  0.000000e+000
    endloop
  endfacet
  facet normal -9.848078e-001  1.736481e-001  0.000000e+000
    outer loop
      vertex -9.866773e+000  3.591212e+000  0.000000e+000
      vertex -1.050000e+001  0.000000e+000  4.000000e+000
      vertex -9.866773e+000  3.591212e+000  4.000000e+000
    endloop
  endfacet
  facet normal -8.660253e-001  5.000000e-001  0.000000e+000
    outer loop
      vertex -9.866773e+000  3.591212e+000  0.000000e+000
      vertex -9.866773e+000  3.591212e+000  4.000000e+000
      vertex -8.043467e+000  6.749270e+000  0.000000e+000
    endloop
  endfacet
  facet normal -8.660253e-001  5.000000e-001  0.000000e+000
    outer loop
      vertex -8.043467e+000  6.749270e+000  0.000000e+000
      vertex -9.866773e+000  3.591212e+000  4.000000e+000
      vertex -8.043467e+000  6.749270e+000  4.000000e+000
    endloop
  endfacet
  facet normal -6.427875e-001  7.660444e-001  0.000000e+000
    outer loop
      vertex -8.043467e+000  6.749270e+000  0.000000e+000
      vertex -8.043467e+000  6.749270e+000  4.000000e+000
      vertex -5.250000e+000  9.093266e+000  0.000000e+000
    endloop
  endfacet
  facet normal -6.427875e-001  7.660444e-001  0.000000e+000
    outer loop
      vertex -5.250000e+000  9.093266e+000  0.000000e+000
      vertex -8.043467e+000  6.749270e+000  4.000000e+000
      vertex -5.250000e+000  9.093266e+000  4.000000e+000
    endloop
  endfacet
  facet normal -3.420203e-001  9.396926e-001  0.000000e+000
    outer loop
      vertex -5.250000e+000  9.093266e+000  0.000000e+000
      vertex -5.250000e+000  9.093266e+000  4.000000e+000
      vertex -1.823306e+000  1.034048e+001  0.000000e+000
    endloop
  endfacet
  facet normal -3.420203e-001  9.396926e-001  0.000000e+000
    outer loop
      vertex -1.823306e+000  1.034048e+001  0.000000e+000
      vertex -5.250000e+000  9.093266e+000  4.000000e+000
      vertex -1.823306e+000  1.034048e+001  4.000000e+000
    endloop
  endfacet
  facet normal  0.000000e+000  1.000000e+000  0.000000e+000
    outer loop
      vertex -1.823306e+000  1.034048e+001  0.000000e+000
      vertex -1.823306e+000  1.034048e+001  4.000000e+000
      vertex  1.823306e+000  1.034048e+001  0.000000e+000
    endloop
  endfacet
  facet normal  0.000000e+000  1.000000e+000  -0.000000e+000
    outer loop
      vertex  1.823306e+000  1.034048e+001  0.000000e+000
      vertex -1.823306e+000  1.034048e+001  4.000000e+000
      vertex  1.823306e+000  1.034048e+001  4.000000e+000
    endloop
  endfacet
  facet normal  3.420203e-001  9.396926e-001  0.000000e+000
    outer loop
      vertex  1.823306e+000  1.034048e+001  0.000000e+000
      vertex  1.823306e+000  1.034048e+001  4.000000e+000
      vertex  5.250000e+000  9.093266e+000  0.000000e+000
    endloop
  endfacet
  facet normal  3.420203e-001  9.396926e-001  -0.000000e+000
    outer loop
      vertex  5.250000e+000  9.093266e+000  0.000000e+000
      vertex  1.823306e+000  1.034048e+001  4.000000e+000
      vertex  5.250000e+000  9.093266e+000  4.000000e+000
    endloop
  endfacet
  facet normal  6.427875e-001  7.660444e-001  0.000000e+000
    outer loop
      vertex  5.250000e+000  9.093266e+000  0.000000e+000
      vertex  5.250000e+000  9.093266e+000  4.000000e+000
      vertex  8.043467e+000  6.749270e+000  0.000000e+000
    endloop
  endfacet
  facet normal  6.427875e-001  7.660444e-001  -0.000000e+000
    outer loop
      vertex  8.043467e+000  6.749270e+000  0.000000e+000
      vertex  5.250000e+000  9.093266e+000  4.000000e+000
      vertex  8.043467e+000  6.749270e+000  4.000000e+000
    endloop
  endfacet
  facet normal  8.660253e-001  5.000000e-001  0.000000e+000
    outer loop
      vertex  8.043467e+000  6.749270e+000  0.000000e+000
      vertex  8.043467e+000  6.749270e+000  4.000000e+000
      vertex  9.866773e+000  3.591212e+000  0.000000e+000
    endloop
  endfacet
  facet normal  8.660253e-001  5.000000e-001  -0.000000e+000
    outer loop
      vertex  9.866773e+000  3.591212e+000  0.000000e+000
      vertex  8.043467e+000  6.749270e+000  4.000000e+000
      vertex  9.866773e+000  3.591212e+000  4.000000e+000
    endloop
  endfacet
  facet normal  9.848078e-001  1.736481e-001  0.000000e+000
    outer loop
      vertex  9.866773e+000  3.591212e+000  0.000000e+000
      vertex  9.866773e+000  3.591212e+000  4.000000e+000
      vertex  1.050000e+001  0.000000e+000  0.000000e+000
    endloop
  endfacet
  facet normal  9.848078e-001  1.736481e-001  -0.000000e+000
    outer loop
      vertex  1.050000e+001  0.000000e+000  0.000000e+000
      vertex  9.866773e+000  3.591212e+000  4.000000e+000
      vertex  1.050000e+001  0.000000e+000  4.000000e+000
    endloop
  endfacet
  facet normal -4.338837e-001  9.009689e-001  0.000000e+000
    outer loop
      vertex  1.724537e+000 -7.555691e+000  0.000000e+000
      vertex  4.832046e+000 -6.059194e+000  4.000000e+000
      vertex  4.832046e+000 -6.059194e+000  0.000000e+000
    endloop
  endfacet
  facet normal -7.818315e-001  6.234897e-001  0.000000e+000
    outer loop
      vertex  4.832046e+000 -6.059194e+000  0.000000e+000
      vertex  4.832046e+000 -6.059194e+000  4.000000e+000
      vertex  6.982509e+000 -3.362599e+000  4.000000e+000
    endloop
  endfacet
  facet normal -7.818315e-001  6.234897e-001  0.000000e+000
    outer loop
      vertex  4.832046e+000 -6.059194e+000  0.000000e+000
      vertex  6.982509e+000 -3.362599e+000  4.000000e+000
      vertex  6.982509e+000 -3.362599e+000  0.000000e+000
    endloop
  endfacet
  facet normal -9.749278e-001  2.225209e-001  0.000000e+000
    outer loop
      vertex  6.982509e+000 -3.362599e+000  0.000000e+000
      vertex  6.982509e+000 -3.362599e+000  4.000000e+000
      vertex  7.750000e+000  0.000000e+000  4.000000e+000
    endloop
  endfacet
  facet normal -9.749278e-001  2.225209e-001  0.000000e+000
    outer loop
      vertex  6.982509e+000 -3.362599e+000  0.000000e+000
      vertex  7.750000e+000  0.000000e+000  4.000000e+000
      vertex  7.750000e+000  0.000000e+000  0.000000e+000
    endloop
  endfacet
  facet normal -4.338837e-001  9.009689e-001  0.000000e+000
    outer loop
      vertex  4.832046e+000 -6.059194e+000  4.000000e+000
      vertex  1.724537e+000 -7.555691e+000  0.000000e+000
      vertex  1.724537e+000 -7.555691e+000  4.000000e+000
    endloop
  endfacet
  facet normal  0.000000e+000  1.000000e+000  0.000000e+000
    outer loop
      vertex  1.724537e+000 -7.555691e+000  4.000000e+000
      vertex  1.724537e+000 -7.555691e+000  0.000000e+000
      vertex -1.724537e+000 -7.555691e+000  0.000000e+000
    endloop
  endfacet
  facet normal  0.000000e+000  1.000000e+000  0.000000e+000
    outer loop
      vertex  1.724537e+000 -7.555691e+000  4.000000e+000
      vertex -1.724537e+000 -7.555691e+000  0.000000e+000
      vertex -1.724537e+000 -7.555691e+000  4.000000e+000
    endloop
  endfacet
  facet normal  4.338837e-001  9.009689e-001  0.000000e+000
    outer loop
      vertex -1.724537e+000 -7.555691e+000  4.000000e+000
      vertex -1.724537e+000 -7.555691e+000  0.000000e+000
      vertex -4.832046e+000 -6.059194e+000  0.000000e+000
    endloop
  endfacet
  facet normal  4.338837e-001  9.009689e-001  -0.000000e+000
    outer loop
      vertex -1.724537e+000 -7.555691e+000  4.000000e+000
      vertex -4.832046e+000 -6.059194e+000  0.000000e+000
      vertex -4.832046e+000 -6.059194e+000  4.000000e+000
    endloop
  endfacet
  facet normal  7.818315e-001  6.234897e-001  0.000000e+000
    outer loop
      vertex -4.832046e+000 -6.059194e+000  4.000000e+000
      vertex -4.832046e+000 -6.059194e+000  0.000000e+000
      vertex -6.982509e+000 -3.362599e+000  0.000000e+000
    endloop
  endfacet
  facet normal  7.818315e-001  6.234897e-001  -0.000000e+000
    outer loop
      vertex -4.832046e+000 -6.059194e+000  4.000000e+000
      vertex -6.982509e+000 -3.362599e+000  0.000000e+000
      vertex -6.982509e+000 -3.362599e+000  4.000000e+000
    endloop
  endfacet
  facet normal  9.749278e-001  2.225209e-001  0.000000e+000
    outer loop
      vertex -6.982509e+000 -3.362599e+000  4.000000e+000
      vertex -6.982509e+000 -3.362599e+000  0.000000e+000
      vertex -7.750000e+000  9.490699e-016  0.000000e+000
    endloop
  endfacet
  facet normal  9.749278e-001  2.225209e-001  -0.000000e+000
    outer loop
      vertex -6.982509e+000 -3.362599e+000  4.000000e+000
      vertex -7.750000e+000  9.490699e-016  0.000000e+000
      vertex -7.750000e+000  9.490699e-016  4.000000e+000
    endloop
  endfacet
  facet normal  4.338837e-001 -9.009689e-001  0.000000e+000
    outer loop
      vertex -1.724537e+000  7.555691e+000  0.000000e+000
      vertex -4.832046e+000  6.059194e+000  4.000000e+000
      vertex -4.832046e+000  6.059194e+000  0.000000e+000
    endloop
  endfacet
  facet normal  7.818315e-001 -6.234897e-001  0.000000e+000
    outer loop
      vertex -4.832046e+000  6.059194e+000  0.000000e+000
      vertex -4.832046e+000  6.059194e+000  4.000000e+000
      vertex -6.982509e+000  3.362599e+000  4.000000e+000
    endloop
  endfacet
  facet normal  7.818315e-001 -6.234897e-001  0.000000e+000
    outer loop
      vertex -4.832046e+000  6.059194e+000  0.000000e+000
      vertex -6.982509e+000  3.362599e+000  4.000000e+000
      vertex -6.982509e+000  3.362599e+000  0.000000e+000
    endloop
  endfacet
  facet normal  9.749278e-001 -2.225209e-001  0.000000e+000
    outer loop
      vertex -6.982509e+000  3.362599e+000  0.000000e+000
      vertex -6.982509e+000  3.362599e+000  4.000000e+000
      vertex -7.750000e+000  9.490699e-016  4.000000e+000
    endloop
  endfacet
  facet normal  9.749278e-001 -2.225209e-001  0.000000e+000
    outer loop
      vertex -6.982509e+000  3.362599e+000  0.000000e+000
      vertex -7.750000e+000  9.490699e-016  4.000000e+000
      vertex -7.750000e+000  9.490699e-016  0.000000e+000
    endloop
  endfacet
  facet normal  4.338837e-001 -9.009689e-001  0.000000e+000
    outer loop
      vertex -4.832046e+000  6.059194e+000  4.000000e+000
      vertex -1.724537e+000  7.555691e+000  0.000000e+000
      vertex -1.724537e+000  7.555691e+000  4.000000e+000
    endloop
  endfacet
  facet normal  0.000000e+000 -1.000000e+000  0.000000e+000
    outer loop
      vertex -1.724537e+000  7.555691e+000  4.000000e+000
      vertex -1.724537e+000  7.555691e+000  0.000000e+000
      vertex  1.724537e+000  7.555691e+000  0.000000e+000
    endloop
  endfacet
  facet normal  0.000000e+000 -1.000000e+000  0.000000e+000
    outer loop
      vertex -1.724537e+000  7.555691e+000  4.000000e+000
      vertex  1.724537e+000  7.555691e+000  0.000000e+000
      vertex  1.724537e+000  7.555691e+000  4.000000e+000
    endloop
  endfacet
  facet normal -4.338837e-001 -9.009689e-001  -0.000000e+000
    outer loop
      vertex  1.724537e+000  7.555691e+000  4.000000e+000
      vertex  1.724537e+000  7.555691e+000  0.000000e+000
      vertex  4.832046e+000  6.059194e+000  0.000000e+000
    endloop
  endfacet
  facet normal -4.338837e-001 -9.009689e-001  0.000000e+000
    outer loop
      vertex  1.724537e+000  7.555691e+000  4.000000e+000
      vertex  4.832046e+000  6.059194e+000  0.000000e+000
      vertex  4.832046e+000  6.059194e+000  4.000000e+000
    endloop
  endfacet
  facet normal -7.818315e-001 -6.234897e-001  -0.000000e+000
    outer loop
      vertex  4.832046e+000  6.059194e+000  4.000000e+000
      vertex  4.832046e+000  6.059194e+000  0.000000e+000
      vertex  6.982509e+000  3.362599e+000  0.000000e+000
    endloop
  endfacet
  facet normal -7.818315e-001 -6.234897e-001  0.000000e+000
    outer loop
      vertex  4.832046e+000  6.059194e+000  4.000000e+000
      vertex  6.982509e+000  3.362599e+000  0.000000e+000
      vertex  6.982509e+000  3.362599e+000  4.000000e+000
    endloop
  endfacet
  facet normal -9.749278e-001 -2.225209e-001  -0.000000e+000
    outer loop
      vertex  6.982509e+000  3.362599e+000  4.000000e+000
      vertex  6.982509e+000  3.362599e+000  0.000000e+000
      vertex  7.750000e+000  0.000000e+000  0.000000e+000
    endloop
  endfacet
  facet normal -9.749278e-001 -2.225209e-001  0.000000e+000
    outer loop
      vertex  6.982509e+000  3.362599e+000  4.000000e+000
      vertex  7.750000e+000  0.000000e+000  0.000000e+000
      vertex  7.750000e+000  0.000000e+000  4.000000e+000
    endloop
  endfacet
endsolid CATIA STL
