solid CATIA STL
  facet normal  7.682212e-001  0.000000e+000 -6.401844e-001
    outer loop
      vertex  8.044091e+001  1.300000e+001 -2.815705e+001
      vertex  8.044091e+001  4.100000e+001 -2.815705e+001
      vertex  9.526263e+001  1.300000e+001 -1.037099e+001
    endloop
  endfacet
  facet normal  7.682196e-001 -2.053373e-006 -6.401864e-001
    outer loop
      vertex  9.526263e+001  1.300000e+001 -1.037099e+001
      vertex  8.044091e+001  4.100000e+001 -2.815705e+001
      vertex  8.178596e+001  4.100000e+001 -2.654300e+001
    endloop
  endfacet
  facet normal  7.682214e-001  0.000000e+000 -6.401843e-001
    outer loop
      vertex  9.526263e+001  1.300000e+001 -1.037099e+001
      vertex  8.178596e+001  4.100000e+001 -2.654300e+001
      vertex  9.526263e+001  1.700000e+001 -1.037099e+001
    endloop
  endfacet
  facet normal -7.682213e-001  0.000000e+000  6.401845e-001
    outer loop
      vertex  9.372620e+001  1.700000e+001 -9.090618e+000
      vertex  8.024951e+001  4.100000e+001 -2.526264e+001
      vertex  9.372620e+001  1.300000e+001 -9.090618e+000
    endloop
  endfacet
  facet normal -7.682215e-001 -2.532737e-007  6.401843e-001
    outer loop
      vertex  9.372620e+001  1.300000e+001 -9.090618e+000
      vertex  8.024951e+001  4.100000e+001 -2.526264e+001
      vertex  7.890447e+001  4.100000e+001 -2.687668e+001
    endloop
  endfacet
  facet normal -7.682212e-001  0.000000e+000  6.401844e-001
    outer loop
      vertex  9.372620e+001  1.300000e+001 -9.090618e+000
      vertex  7.890447e+001  4.100000e+001 -2.687668e+001
      vertex  7.890447e+001  1.300000e+001 -2.687668e+001
    endloop
  endfacet
  facet normal  0.000000e+000  1.000000e+000  0.000000e+000
    outer loop
      vertex  8.024951e+001  4.100000e+001 -2.526264e+001
      vertex  8.178596e+001  4.100000e+001 -2.654300e+001
      vertex  7.890447e+001  4.100000e+001 -2.687668e+001
    endloop
  endfacet
  facet normal  -0.000000e+000  1.000000e+000  0.000000e+000
    outer loop
      vertex  7.890447e+001  4.100000e+001 -2.687668e+001
      vertex  8.178596e+001  4.100000e+001 -2.654300e+001
      vertex  8.044091e+001  4.100000e+001 -2.815705e+001
    endloop
  endfacet
  facet normal -6.401856e-001  0.000000e+000 -7.682204e-001
    outer loop
      vertex  8.044091e+001  4.100000e+001 -2.815705e+001
      vertex  8.044091e+001  1.300000e+001 -2.815705e+001
      vertex  7.890447e+001  4.100000e+001 -2.687668e+001
    endloop
  endfacet
  facet normal -6.401856e-001  -0.000000e+000 -7.682204e-001
    outer loop
      vertex  7.890447e+001  4.100000e+001 -2.687668e+001
      vertex  8.044091e+001  1.300000e+001 -2.815705e+001
      vertex  7.890447e+001  1.300000e+001 -2.687668e+001
    endloop
  endfacet
  facet normal  0.000000e+000 -1.000000e+000  0.000000e+000
    outer loop
      vertex  7.890447e+001  1.300000e+001 -2.687668e+001
      vertex  8.044091e+001  1.300000e+001 -2.815705e+001
      vertex  9.372620e+001  1.300000e+001 -9.090618e+000
    endloop
  endfacet
  facet normal  0.000000e+000 -1.000000e+000  -0.000000e+000
    outer loop
      vertex  9.372620e+001  1.300000e+001 -9.090618e+000
      vertex  8.044091e+001  1.300000e+001 -2.815705e+001
      vertex  9.526263e+001  1.300000e+001 -1.037099e+001
    endloop
  endfacet
  facet normal  6.401855e-001  0.000000e+000  7.682204e-001
    outer loop
      vertex  9.526263e+001  1.300000e+001 -1.037099e+001
      vertex  9.526263e+001  1.700000e+001 -1.037099e+001
      vertex  9.372620e+001  1.300000e+001 -9.090618e+000
    endloop
  endfacet
  facet normal  6.401855e-001  -0.000000e+000  7.682204e-001
    outer loop
      vertex  9.372620e+001  1.300000e+001 -9.090618e+000
      vertex  9.526263e+001  1.700000e+001 -1.037099e+001
      vertex  9.372620e+001  1.700000e+001 -9.090618e+000
    endloop
  endfacet
  facet normal  4.812791e-001  6.594133e-001  5.775332e-001
    outer loop
      vertex  9.526263e+001  1.700000e+001 -1.037099e+001
      vertex  8.178596e+001  4.100000e+001 -2.654300e+001
      vertex  9.372620e+001  1.700000e+001 -9.090618e+000
    endloop
  endfacet
  facet normal  4.812776e-001  6.594134e-001  5.775343e-001
    outer loop
      vertex  9.372620e+001  1.700000e+001 -9.090618e+000
      vertex  8.178596e+001  4.100000e+001 -2.654300e+001
      vertex  8.024951e+001  4.100000e+001 -2.526264e+001
    endloop
  endfacet
endsolid CATIA STL
