solid CATIA STL
  facet normal  8.191521e-001  8.904826e-008  5.735763e-001
    outer loop
      vertex  8.393106e+000 -3.700000e+001  1.397178e+001
      vertex  1.642318e+001 -3.700000e+001  2.503651e+000
      vertex  1.093786e+001 -3.072705e+001  1.033749e+001
    endloop
  endfacet
  facet normal  8.191522e-001 -7.861042e-008  5.735762e-001
    outer loop
      vertex  8.393106e+000 -3.700000e+001  1.397178e+001
      vertex  1.093786e+001 -3.072705e+001  1.033749e+001
      vertex  1.031277e+001 -2.922705e+001  1.123022e+001
    endloop
  endfacet
  facet normal  8.191521e-001  -0.000000e+000  5.735763e-001
    outer loop
      vertex  8.393106e+000 -3.700000e+001  1.397178e+001
      vertex  1.031277e+001 -2.922705e+001  1.123022e+001
      vertex  1.031277e+001 -2.737295e+001  1.123022e+001
    endloop
  endfacet
  facet normal  8.191521e-001  0.000000e+000  5.735763e-001
    outer loop
      vertex  8.393106e+000 -3.700000e+001  1.397178e+001
      vertex  1.031277e+001 -2.737295e+001  1.123022e+001
      vertex  8.393106e+000 -1.100000e+001  1.397178e+001
    endloop
  endfacet
  facet normal  8.191521e-001  0.000000e+000  5.735765e-001
    outer loop
      vertex  1.642318e+001 -3.700000e+001  2.503651e+000
      vertex  1.642318e+001 -1.100000e+001  2.503651e+000
      vertex  1.358579e+001 -2.737295e+001  6.555857e+000
    endloop
  endfacet
  facet normal  8.191521e-001  0.000000e+000  5.735765e-001
    outer loop
      vertex  1.642318e+001 -3.700000e+001  2.503651e+000
      vertex  1.358579e+001 -2.737295e+001  6.555857e+000
      vertex  1.358579e+001 -2.922705e+001  6.555857e+000
    endloop
  endfacet
  facet normal  8.191521e-001 -3.274506e-008  5.735765e-001
    outer loop
      vertex  1.642318e+001 -3.700000e+001  2.503651e+000
      vertex  1.358579e+001 -2.922705e+001  6.555857e+000
      vertex  1.296070e+001 -3.072705e+001  7.448580e+000
    endloop
  endfacet
  facet normal  8.191521e-001  3.810668e-008  5.735764e-001
    outer loop
      vertex  1.642318e+001 -3.700000e+001  2.503651e+000
      vertex  1.296070e+001 -3.072705e+001  7.448580e+000
      vertex  1.194928e+001 -3.130000e+001  8.893037e+000
    endloop
  endfacet
  facet normal  8.191519e-001 -3.694447e-007  5.735766e-001
    outer loop
      vertex  1.642318e+001 -3.700000e+001  2.503651e+000
      vertex  1.194928e+001 -3.130000e+001  8.893037e+000
      vertex  1.093786e+001 -3.072705e+001  1.033749e+001
    endloop
  endfacet
  facet normal  8.191521e-001 -1.113649e-008  5.735763e-001
    outer loop
      vertex  1.642318e+001 -1.100000e+001  2.503651e+000
      vertex  8.393106e+000 -1.100000e+001  1.397178e+001
      vertex  1.031277e+001 -2.737295e+001  1.123022e+001
    endloop
  endfacet
  facet normal  8.191541e-001 -2.257339e-006  5.735735e-001
    outer loop
      vertex  1.642318e+001 -1.100000e+001  2.503651e+000
      vertex  1.031277e+001 -2.737295e+001  1.123022e+001
      vertex  1.093786e+001 -2.587295e+001  1.033749e+001
    endloop
  endfacet
  facet normal  8.191519e-001  9.940191e-008  5.735765e-001
    outer loop
      vertex  1.642318e+001 -1.100000e+001  2.503651e+000
      vertex  1.093786e+001 -2.587295e+001  1.033749e+001
      vertex  1.194928e+001 -2.530000e+001  8.893037e+000
    endloop
  endfacet
  facet normal  8.191521e-001 -2.392843e-009  5.735764e-001
    outer loop
      vertex  1.642318e+001 -1.100000e+001  2.503651e+000
      vertex  1.194928e+001 -2.530000e+001  8.893037e+000
      vertex  1.296070e+001 -2.587295e+001  7.448580e+000
    endloop
  endfacet
  facet normal  8.191520e-001  2.059721e-008  5.735765e-001
    outer loop
      vertex  1.642318e+001 -1.100000e+001  2.503651e+000
      vertex  1.296070e+001 -2.587295e+001  7.448580e+000
      vertex  1.358579e+001 -2.737295e+001  6.555857e+000
    endloop
  endfacet
  facet normal -8.191521e-001  -0.000000e+000 -5.735765e-001
    outer loop
      vertex  6.754802e+000 -3.700000e+001  1.282463e+001
      vertex  6.754802e+000 -1.100000e+001  1.282463e+001
      vertex  8.674465e+000 -2.737295e+001  1.008306e+001
    endloop
  endfacet
  facet normal -8.191521e-001  -0.000000e+000 -5.735764e-001
    outer loop
      vertex  6.754802e+000 -3.700000e+001  1.282463e+001
      vertex  8.674465e+000 -2.737295e+001  1.008306e+001
      vertex  8.674465e+000 -2.922705e+001  1.008306e+001
    endloop
  endfacet
  facet normal -8.191522e-001  1.101628e-007 -5.735762e-001
    outer loop
      vertex  6.754802e+000 -3.700000e+001  1.282463e+001
      vertex  8.674465e+000 -2.922705e+001  1.008306e+001
      vertex  9.299557e+000 -3.072705e+001  9.190340e+000
    endloop
  endfacet
  facet normal -8.191520e-001 -6.033048e-008 -5.735764e-001
    outer loop
      vertex  6.754802e+000 -3.700000e+001  1.282463e+001
      vertex  9.299557e+000 -3.072705e+001  9.190340e+000
      vertex  1.478487e+001 -3.700000e+001  1.356498e+000
    endloop
  endfacet
  facet normal -8.191519e-001  2.830472e-007 -5.735766e-001
    outer loop
      vertex  1.478487e+001 -3.700000e+001  1.356498e+000
      vertex  9.299557e+000 -3.072705e+001  9.190340e+000
      vertex  1.031098e+001 -3.130000e+001  7.745884e+000
    endloop
  endfacet
  facet normal -8.191521e-001 -3.810668e-008 -5.735764e-001
    outer loop
      vertex  1.478487e+001 -3.700000e+001  1.356498e+000
      vertex  1.031098e+001 -3.130000e+001  7.745884e+000
      vertex  1.132240e+001 -3.072705e+001  6.301427e+000
    endloop
  endfacet
  facet normal -8.191521e-001  3.274506e-008 -5.735765e-001
    outer loop
      vertex  1.478487e+001 -3.700000e+001  1.356498e+000
      vertex  1.132240e+001 -3.072705e+001  6.301427e+000
      vertex  1.194749e+001 -2.922705e+001  5.408704e+000
    endloop
  endfacet
  facet normal -8.191521e-001  0.000000e+000 -5.735765e-001
    outer loop
      vertex  1.478487e+001 -3.700000e+001  1.356498e+000
      vertex  1.194749e+001 -2.922705e+001  5.408704e+000
      vertex  1.194749e+001 -2.737295e+001  5.408704e+000
    endloop
  endfacet
  facet normal -8.191521e-001  0.000000e+000 -5.735765e-001
    outer loop
      vertex  1.478487e+001 -3.700000e+001  1.356498e+000
      vertex  1.194749e+001 -2.737295e+001  5.408704e+000
      vertex  1.478487e+001 -1.100000e+001  1.356498e+000
    endloop
  endfacet
  facet normal -8.191520e-001 -2.059721e-008 -5.735765e-001
    outer loop
      vertex  1.478487e+001 -1.100000e+001  1.356498e+000
      vertex  1.194749e+001 -2.737295e+001  5.408704e+000
      vertex  1.132240e+001 -2.587295e+001  6.301427e+000
    endloop
  endfacet
  facet normal -8.191521e-001  1.863951e-008 -5.735764e-001
    outer loop
      vertex  1.478487e+001 -1.100000e+001  1.356498e+000
      vertex  1.132240e+001 -2.587295e+001  6.301427e+000
      vertex  1.031098e+001 -2.530000e+001  7.745884e+000
    endloop
  endfacet
  facet normal -8.191519e-001 -7.615599e-008 -5.735765e-001
    outer loop
      vertex  1.478487e+001 -1.100000e+001  1.356498e+000
      vertex  1.031098e+001 -2.530000e+001  7.745884e+000
      vertex  9.299557e+000 -2.587295e+001  9.190340e+000
    endloop
  endfacet
  facet normal -8.191542e-001  2.417270e-006 -5.735734e-001
    outer loop
      vertex  1.478487e+001 -1.100000e+001  1.356498e+000
      vertex  9.299557e+000 -2.587295e+001  9.190340e+000
      vertex  8.674465e+000 -2.737295e+001  1.008306e+001
    endloop
  endfacet
  facet normal -8.191521e-001 -7.016933e-009 -5.735763e-001
    outer loop
      vertex  1.478487e+001 -1.100000e+001  1.356498e+000
      vertex  8.674465e+000 -2.737295e+001  1.008306e+001
      vertex  6.754802e+000 -1.100000e+001  1.282463e+001
    endloop
  endfacet
  facet normal  4.640330e-001  5.877855e-001 -6.627077e-001
    outer loop
      vertex  8.674465e+000 -2.922705e+001  1.008306e+001
      vertex  1.093786e+001 -3.072705e+001  1.033749e+001
      vertex  9.299557e+000 -3.072705e+001  9.190340e+000
    endloop
  endfacet
  facet normal  1.772448e-001  9.510566e-001 -2.531317e-001
    outer loop
      vertex  9.299557e+000 -3.072705e+001  9.190340e+000
      vertex  1.093786e+001 -3.072705e+001  1.033749e+001
      vertex  1.194928e+001 -3.130000e+001  8.893037e+000
    endloop
  endfacet
  facet normal  1.772448e-001  9.510566e-001 -2.531317e-001
    outer loop
      vertex  9.299557e+000 -3.072705e+001  9.190340e+000
      vertex  1.194928e+001 -3.130000e+001  8.893037e+000
      vertex  1.031098e+001 -3.130000e+001  7.745884e+000
    endloop
  endfacet
  facet normal  4.640330e-001  5.877855e-001 -6.627077e-001
    outer loop
      vertex  1.093786e+001 -3.072705e+001  1.033749e+001
      vertex  8.674465e+000 -2.922705e+001  1.008306e+001
      vertex  1.031277e+001 -2.922705e+001  1.123022e+001
    endloop
  endfacet
  facet normal  5.735766e-001  0.000000e+000 -8.191520e-001
    outer loop
      vertex  1.031277e+001 -2.922705e+001  1.123022e+001
      vertex  8.674465e+000 -2.922705e+001  1.008306e+001
      vertex  8.674465e+000 -2.737295e+001  1.008306e+001
    endloop
  endfacet
  facet normal  5.735766e-001  0.000000e+000 -8.191520e-001
    outer loop
      vertex  1.031277e+001 -2.922705e+001  1.123022e+001
      vertex  8.674465e+000 -2.737295e+001  1.008306e+001
      vertex  1.031277e+001 -2.737295e+001  1.123022e+001
    endloop
  endfacet
  facet normal  4.640330e-001 -5.877855e-001 -6.627077e-001
    outer loop
      vertex  1.031277e+001 -2.737295e+001  1.123022e+001
      vertex  8.674465e+000 -2.737295e+001  1.008306e+001
      vertex  9.299557e+000 -2.587295e+001  9.190340e+000
    endloop
  endfacet
  facet normal  4.640330e-001 -5.877855e-001 -6.627077e-001
    outer loop
      vertex  1.031277e+001 -2.737295e+001  1.123022e+001
      vertex  9.299557e+000 -2.587295e+001  9.190340e+000
      vertex  1.093786e+001 -2.587295e+001  1.033749e+001
    endloop
  endfacet
  facet normal  1.772453e-001 -9.510562e-001 -2.531325e-001
    outer loop
      vertex  1.093786e+001 -2.587295e+001  1.033749e+001
      vertex  9.299557e+000 -2.587295e+001  9.190340e+000
      vertex  1.031098e+001 -2.530000e+001  7.745884e+000
    endloop
  endfacet
  facet normal  1.772453e-001 -9.510562e-001 -2.531325e-001
    outer loop
      vertex  1.093786e+001 -2.587295e+001  1.033749e+001
      vertex  1.031098e+001 -2.530000e+001  7.745884e+000
      vertex  1.194928e+001 -2.530000e+001  8.893037e+000
    endloop
  endfacet
  facet normal -4.640332e-001 -5.877852e-001  6.627079e-001
    outer loop
      vertex  1.194749e+001 -2.737295e+001  5.408704e+000
      vertex  1.296070e+001 -2.587295e+001  7.448580e+000
      vertex  1.132240e+001 -2.587295e+001  6.301427e+000
    endloop
  endfacet
  facet normal -1.772453e-001 -9.510564e-001  2.531324e-001
    outer loop
      vertex  1.132240e+001 -2.587295e+001  6.301427e+000
      vertex  1.296070e+001 -2.587295e+001  7.448580e+000
      vertex  1.194928e+001 -2.530000e+001  8.893037e+000
    endloop
  endfacet
  facet normal -1.772453e-001 -9.510564e-001  2.531324e-001
    outer loop
      vertex  1.132240e+001 -2.587295e+001  6.301427e+000
      vertex  1.194928e+001 -2.530000e+001  8.893037e+000
      vertex  1.031098e+001 -2.530000e+001  7.745884e+000
    endloop
  endfacet
  facet normal -4.640332e-001 -5.877852e-001  6.627079e-001
    outer loop
      vertex  1.296070e+001 -2.587295e+001  7.448580e+000
      vertex  1.194749e+001 -2.737295e+001  5.408704e+000
      vertex  1.358579e+001 -2.737295e+001  6.555857e+000
    endloop
  endfacet
  facet normal -5.735766e-001  0.000000e+000  8.191520e-001
    outer loop
      vertex  1.358579e+001 -2.737295e+001  6.555857e+000
      vertex  1.194749e+001 -2.737295e+001  5.408704e+000
      vertex  1.194749e+001 -2.922705e+001  5.408704e+000
    endloop
  endfacet
  facet normal -5.735766e-001  0.000000e+000  8.191520e-001
    outer loop
      vertex  1.358579e+001 -2.737295e+001  6.555857e+000
      vertex  1.194749e+001 -2.922705e+001  5.408704e+000
      vertex  1.358579e+001 -2.922705e+001  6.555857e+000
    endloop
  endfacet
  facet normal -4.640332e-001  5.877852e-001  6.627079e-001
    outer loop
      vertex  1.358579e+001 -2.922705e+001  6.555857e+000
      vertex  1.194749e+001 -2.922705e+001  5.408704e+000
      vertex  1.132240e+001 -3.072705e+001  6.301427e+000
    endloop
  endfacet
  facet normal -4.640332e-001  5.877852e-001  6.627079e-001
    outer loop
      vertex  1.358579e+001 -2.922705e+001  6.555857e+000
      vertex  1.132240e+001 -3.072705e+001  6.301427e+000
      vertex  1.296070e+001 -3.072705e+001  7.448580e+000
    endloop
  endfacet
  facet normal -1.772447e-001  9.510565e-001  2.531316e-001
    outer loop
      vertex  1.296070e+001 -3.072705e+001  7.448580e+000
      vertex  1.132240e+001 -3.072705e+001  6.301427e+000
      vertex  1.031098e+001 -3.130000e+001  7.745884e+000
    endloop
  endfacet
  facet normal -1.772447e-001  9.510565e-001  2.531316e-001
    outer loop
      vertex  1.296070e+001 -3.072705e+001  7.448580e+000
      vertex  1.031098e+001 -3.130000e+001  7.745884e+000
      vertex  1.194928e+001 -3.130000e+001  8.893037e+000
    endloop
  endfacet
  facet normal -5.735764e-001  0.000000e+000  8.191521e-001
    outer loop
      vertex  8.393106e+000 -1.100000e+001  1.397178e+001
      vertex  6.754802e+000 -1.100000e+001  1.282463e+001
      vertex  8.393106e+000 -3.700000e+001  1.397178e+001
    endloop
  endfacet
  facet normal -5.735764e-001  0.000000e+000  8.191521e-001
    outer loop
      vertex  8.393106e+000 -3.700000e+001  1.397178e+001
      vertex  6.754802e+000 -1.100000e+001  1.282463e+001
      vertex  6.754802e+000 -3.700000e+001  1.282463e+001
    endloop
  endfacet
  facet normal  0.000000e+000  1.000000e+000  -0.000000e+000
    outer loop
      vertex  1.642318e+001 -1.100000e+001  2.503651e+000
      vertex  1.478487e+001 -1.100000e+001  1.356498e+000
      vertex  8.393106e+000 -1.100000e+001  1.397178e+001
    endloop
  endfacet
  facet normal  0.000000e+000  1.000000e+000  0.000000e+000
    outer loop
      vertex  8.393106e+000 -1.100000e+001  1.397178e+001
      vertex  1.478487e+001 -1.100000e+001  1.356498e+000
      vertex  6.754802e+000 -1.100000e+001  1.282463e+001
    endloop
  endfacet
  facet normal  5.735765e-001  0.000000e+000 -8.191520e-001
    outer loop
      vertex  1.642318e+001 -3.700000e+001  2.503651e+000
      vertex  1.478487e+001 -3.700000e+001  1.356498e+000
      vertex  1.642318e+001 -1.100000e+001  2.503651e+000
    endloop
  endfacet
  facet normal  5.735765e-001  0.000000e+000 -8.191520e-001
    outer loop
      vertex  1.642318e+001 -1.100000e+001  2.503651e+000
      vertex  1.478487e+001 -3.700000e+001  1.356498e+000
      vertex  1.478487e+001 -1.100000e+001  1.356498e+000
    endloop
  endfacet
  facet normal  0.000000e+000 -1.000000e+000  0.000000e+000
    outer loop
      vertex  8.393106e+000 -3.700000e+001  1.397178e+001
      vertex  6.754802e+000 -3.700000e+001  1.282463e+001
      vertex  1.642318e+001 -3.700000e+001  2.503651e+000
    endloop
  endfacet
  facet normal  -0.000000e+000 -1.000000e+000  0.000000e+000
    outer loop
      vertex  1.642318e+001 -3.700000e+001  2.503651e+000
      vertex  6.754802e+000 -3.700000e+001  1.282463e+001
      vertex  1.478487e+001 -3.700000e+001  1.356498e+000
    endloop
  endfacet
endsolid CATIA STL
