solid CATIA STL
  facet normal -9.269189e-001  3.752613e-001  5.923292e-004
    outer loop
      vertex -7.520196e+000  2.728855e+000  8.602872e+000
      vertex -7.292149e+000  3.290071e+000  9.917877e+000
      vertex -7.391036e+000  3.061467e+000  0.000000e+000
    endloop
  endfacet
  facet normal  9.964131e-001  8.462263e-002  0.000000e+000
    outer loop
      vertex  8.000000e+000  0.000000e+000  1.564794e+001
      vertex  7.885424e+000  1.349106e+000  1.597456e+001
      vertex  8.000000e+000  0.000000e+000  2.200000e+001
    endloop
  endfacet
  facet normal  4.983030e-001  8.668257e-001 -1.753164e-002
    outer loop
      vertex  5.656854e+000  5.656854e+000  0.000000e+000
      vertex  4.928320e+000  6.301719e+000  1.117720e+001
      vertex  5.043009e+000  6.210319e+000  9.917877e+000
    endloop
  endfacet
  facet normal  9.960640e-001  8.863647e-002  -0.000000e+000
    outer loop
      vertex  8.000000e+000  0.000000e+000  6.352057e+000
      vertex  8.000000e+000  0.000000e+000  0.000000e+000
      vertex  7.874297e+000  1.412602e+000  6.019347e+000
    endloop
  endfacet
  facet normal  9.804780e-001  1.950293e-001  2.502323e-002
    outer loop
      vertex  7.391036e+000  3.061467e+000  2.200000e+001
      vertex  8.000000e+000  0.000000e+000  2.200000e+001
      vertex  7.885424e+000  1.349106e+000  1.597456e+001
    endloop
  endfacet
  facet normal  9.555836e-001  2.946718e-001 -5.336619e-003
    outer loop
      vertex  7.391036e+000  3.061467e+000  2.200000e+001
      vertex  7.885424e+000  1.349106e+000  1.597456e+001
      vertex  7.271884e+000  3.334622e+000  1.574722e+001
    endloop
  endfacet
  facet normal  8.676744e-001  4.971060e-001  5.181984e-003
    outer loop
      vertex  7.391036e+000  3.061467e+000  2.200000e+001
      vertex  7.271884e+000  3.334622e+000  1.574722e+001
      vertex  6.577654e+000  4.553512e+000  1.506185e+001
    endloop
  endfacet
  facet normal  7.310712e-001  6.796186e-001  6.044561e-002
    outer loop
      vertex  7.391036e+000  3.061467e+000  2.200000e+001
      vertex  6.577654e+000  4.553512e+000  1.506185e+001
      vertex  5.688226e+000  5.625307e+000  1.376850e+001
    endloop
  endfacet
  facet normal  8.314691e-001  5.555699e-001  1.039702e-003
    outer loop
      vertex  7.391036e+000  3.061467e+000  2.200000e+001
      vertex  5.688226e+000  5.625307e+000  1.376850e+001
      vertex  5.656854e+000  5.656854e+000  2.200000e+001
    endloop
  endfacet
  facet normal -8.314534e-001  5.555594e-001  6.243729e-003
    outer loop
      vertex -7.391036e+000  3.061467e+000  2.200000e+001
      vertex -5.656854e+000  5.656854e+000  2.200000e+001
      vertex -7.230614e+000  3.423190e+000  1.117720e+001
    endloop
  endfacet
  facet normal -9.165805e-001  3.998502e-001 -2.222324e-004
    outer loop
      vertex -7.391036e+000  3.061467e+000  2.200000e+001
      vertex -7.230614e+000  3.423190e+000  1.117720e+001
      vertex -7.422885e+000  2.983417e+000  1.292829e+001
    endloop
  endfacet
  facet normal -9.396831e-001  3.420461e-001  3.562088e-004
    outer loop
      vertex -7.391036e+000  3.061467e+000  2.200000e+001
      vertex -7.422885e+000  2.983417e+000  1.292829e+001
      vertex -7.606587e+000  2.477868e+000  1.376850e+001
    endloop
  endfacet
  facet normal -9.722421e-001  2.338089e-001  8.882637e-003
    outer loop
      vertex -7.391036e+000  3.061467e+000  2.200000e+001
      vertex -7.606587e+000  2.477868e+000  1.376850e+001
      vertex -7.921062e+000  1.121058e+000  1.506185e+001
    endloop
  endfacet
  facet normal -9.941930e-001  9.571613e-002  4.918028e-002
    outer loop
      vertex -7.391036e+000  3.061467e+000  2.200000e+001
      vertex -7.921062e+000  1.121058e+000  1.506185e+001
      vertex -8.000000e+000  9.796851e-016  1.564794e+001
    endloop
  endfacet
  facet normal -9.807853e-001  1.950904e-001  0.000000e+000
    outer loop
      vertex -7.391036e+000  3.061467e+000  2.200000e+001
      vertex -8.000000e+000  9.796851e-016  1.564794e+001
      vertex -8.000000e+000  9.796851e-016  2.200000e+001
    endloop
  endfacet
  facet normal  5.555319e-001  8.314121e-001 -1.175827e-002
    outer loop
      vertex  5.656854e+000  5.656854e+000  0.000000e+000
      vertex  3.061467e+000  7.391036e+000  0.000000e+000
      vertex  4.928320e+000  6.301719e+000  1.117720e+001
    endloop
  endfacet
  facet normal  5.039814e-001  8.637145e-001  0.000000e+000
    outer loop
      vertex  4.928320e+000  6.301719e+000  1.117720e+001
      vertex  3.061467e+000  7.391036e+000  0.000000e+000
      vertex  3.061467e+000  7.391036e+000  2.200000e+001
    endloop
  endfacet
  facet normal  5.841600e-001  8.114138e-001  1.909431e-002
    outer loop
      vertex  4.928320e+000  6.301719e+000  1.117720e+001
      vertex  3.061467e+000  7.391036e+000  2.200000e+001
      vertex  5.297358e+000  5.994831e+000  1.292829e+001
    endloop
  endfacet
  facet normal  5.555479e-001  8.314362e-001  8.960708e-003
    outer loop
      vertex  5.297358e+000  5.994831e+000  1.292829e+001
      vertex  3.061467e+000  7.391036e+000  2.200000e+001
      vertex  5.656854e+000  5.656854e+000  2.200000e+001
    endloop
  endfacet
  facet normal  6.871753e-001  7.264916e-001 -1.652882e-004
    outer loop
      vertex  5.297358e+000  5.994831e+000  1.292829e+001
      vertex  5.656854e+000  5.656854e+000  2.200000e+001
      vertex  5.688226e+000  5.625307e+000  1.376850e+001
    endloop
  endfacet
  facet normal -9.807853e-001  1.950904e-001  0.000000e+000
    outer loop
      vertex -8.000000e+000  9.796851e-016  0.000000e+000
      vertex -8.000000e+000  9.796851e-016  6.352057e+000
      vertex -7.391036e+000  3.061467e+000  0.000000e+000
    endloop
  endfacet
  facet normal -9.939201e-001  9.938386e-002 -4.738640e-002
    outer loop
      vertex -7.391036e+000  3.061467e+000  0.000000e+000
      vertex -8.000000e+000  9.796851e-016  6.352057e+000
      vertex -7.911374e+000  1.187503e+000  6.983696e+000
    endloop
  endfacet
  facet normal -9.680373e-001  2.507598e-001 -4.838597e-003
    outer loop
      vertex -7.391036e+000  3.061467e+000  0.000000e+000
      vertex -7.911374e+000  1.187503e+000  6.983696e+000
      vertex -7.520196e+000  2.728855e+000  8.602872e+000
    endloop
  endfacet
  facet normal -8.314611e-001  5.555646e-001 -4.515367e-003
    outer loop
      vertex -7.391036e+000  3.061467e+000  0.000000e+000
      vertex -7.292149e+000  3.290071e+000  9.917877e+000
      vertex -5.656854e+000  5.656854e+000  0.000000e+000
    endloop
  endfacet
  facet normal -8.495368e-001  5.273373e-001 -1.423186e-002
    outer loop
      vertex -5.656854e+000  5.656854e+000  0.000000e+000
      vertex -7.292149e+000  3.290071e+000  9.917877e+000
      vertex -7.230614e+000  3.423190e+000  1.117720e+001
    endloop
  endfacet
  facet normal -8.174753e-001  5.759637e-001  0.000000e+000
    outer loop
      vertex -5.656854e+000  5.656854e+000  0.000000e+000
      vertex -7.230614e+000  3.423190e+000  1.117720e+001
      vertex -5.656854e+000  5.656854e+000  2.200000e+001
    endloop
  endfacet
  facet normal -5.555702e-001  8.314696e-001  0.000000e+000
    outer loop
      vertex -5.656854e+000  5.656854e+000  0.000000e+000
      vertex -5.656854e+000  5.656854e+000  2.200000e+001
      vertex -3.061467e+000  7.391036e+000  0.000000e+000
    endloop
  endfacet
  facet normal -5.555702e-001  8.314696e-001  0.000000e+000
    outer loop
      vertex -3.061467e+000  7.391036e+000  0.000000e+000
      vertex -5.656854e+000  5.656854e+000  2.200000e+001
      vertex -3.061467e+000  7.391036e+000  2.200000e+001
    endloop
  endfacet
  facet normal -1.950904e-001  9.807853e-001  0.000000e+000
    outer loop
      vertex -3.061467e+000  7.391036e+000  0.000000e+000
      vertex -3.061467e+000  7.391036e+000  2.200000e+001
      vertex  4.898425e-016  8.000000e+000  0.000000e+000
    endloop
  endfacet
  facet normal -1.950904e-001  9.807853e-001  0.000000e+000
    outer loop
      vertex  4.898425e-016  8.000000e+000  0.000000e+000
      vertex -3.061467e+000  7.391036e+000  2.200000e+001
      vertex  4.898425e-016  8.000000e+000  2.200000e+001
    endloop
  endfacet
  facet normal  1.950904e-001  9.807853e-001  0.000000e+000
    outer loop
      vertex  4.898425e-016  8.000000e+000  0.000000e+000
      vertex  4.898425e-016  8.000000e+000  2.200000e+001
      vertex  3.061467e+000  7.391036e+000  0.000000e+000
    endloop
  endfacet
  facet normal  1.950904e-001  9.807853e-001  -0.000000e+000
    outer loop
      vertex  3.061467e+000  7.391036e+000  0.000000e+000
      vertex  4.898425e-016  8.000000e+000  2.200000e+001
      vertex  3.061467e+000  7.391036e+000  2.200000e+001
    endloop
  endfacet
  facet normal  7.055458e-001  7.051827e-001 -7.015993e-002
    outer loop
      vertex  6.539203e+000  4.608560e+000  6.983696e+000
      vertex  7.391036e+000  3.061467e+000  0.000000e+000
      vertex  5.498474e+000  5.810920e+000  8.602872e+000
    endloop
  endfacet
  facet normal  8.314577e-001  5.555623e-001  5.357939e-003
    outer loop
      vertex  5.498474e+000  5.810920e+000  8.602872e+000
      vertex  7.391036e+000  3.061467e+000  0.000000e+000
      vertex  5.656854e+000  5.656854e+000  0.000000e+000
    endloop
  endfacet
  facet normal  6.570184e-001  7.538731e-001 -1.404997e-003
    outer loop
      vertex  5.498474e+000  5.810920e+000  8.602872e+000
      vertex  5.656854e+000  5.656854e+000  0.000000e+000
      vertex  5.043009e+000  6.210319e+000  9.917877e+000
    endloop
  endfacet
  facet normal  9.496394e-001  3.088885e-001 -5.265758e-002
    outer loop
      vertex  7.874297e+000  1.412602e+000  6.019347e+000
      vertex  8.000000e+000  0.000000e+000  0.000000e+000
      vertex  7.243204e+000  3.396469e+000  6.275385e+000
    endloop
  endfacet
  facet normal  9.807063e-001  1.950747e-001  1.268924e-002
    outer loop
      vertex  7.243204e+000  3.396469e+000  6.275385e+000
      vertex  8.000000e+000  0.000000e+000  0.000000e+000
      vertex  7.391036e+000  3.061467e+000  0.000000e+000
    endloop
  endfacet
  facet normal  8.630173e-001  5.051308e-001 -6.635078e-003
    outer loop
      vertex  7.243204e+000  3.396469e+000  6.275385e+000
      vertex  7.391036e+000  3.061467e+000  0.000000e+000
      vertex  6.539203e+000  4.608560e+000  6.983696e+000
    endloop
  endfacet
  facet normal -8.630173e-001 -5.051308e-001  6.635077e-003
    outer loop
      vertex -7.391036e+000 -3.061467e+000  2.200000e+001
      vertex -7.243204e+000 -3.396469e+000  1.572461e+001
      vertex -6.539203e+000 -4.608560e+000  1.501630e+001
    endloop
  endfacet
  facet normal  8.314544e-001 -5.555601e-001  6.045762e-003
    outer loop
      vertex  7.391036e+000 -3.061467e+000  2.200000e+001
      vertex  5.656854e+000 -5.656854e+000  2.200000e+001
      vertex  7.230614e+000 -3.423190e+000  1.082280e+001
    endloop
  endfacet
  facet normal  9.048382e-001 -4.257548e-001  7.916863e-004
    outer loop
      vertex  7.391036e+000 -3.061467e+000  2.200000e+001
      vertex  7.230614e+000 -3.423190e+000  1.082280e+001
      vertex  7.292149e+000 -3.290071e+000  1.208212e+001
    endloop
  endfacet
  facet normal  9.269189e-001 -3.752613e-001 -5.923292e-004
    outer loop
      vertex  7.391036e+000 -3.061467e+000  2.200000e+001
      vertex  7.292149e+000 -3.290071e+000  1.208212e+001
      vertex  7.520196e+000 -2.728855e+000  1.339713e+001
    endloop
  endfacet
  facet normal  9.680373e-001 -2.507598e-001  4.838597e-003
    outer loop
      vertex  7.391036e+000 -3.061467e+000  2.200000e+001
      vertex  7.520196e+000 -2.728855e+000  1.339713e+001
      vertex  7.911374e+000 -1.187503e+000  1.501630e+001
    endloop
  endfacet
  facet normal  9.939201e-001 -9.938386e-002  4.738640e-002
    outer loop
      vertex  7.391036e+000 -3.061467e+000  2.200000e+001
      vertex  7.911374e+000 -1.187503e+000  1.501630e+001
      vertex  8.000000e+000  0.000000e+000  1.564794e+001
    endloop
  endfacet
  facet normal  9.807853e-001 -1.950904e-001  0.000000e+000
    outer loop
      vertex  7.391036e+000 -3.061467e+000  2.200000e+001
      vertex  8.000000e+000  0.000000e+000  1.564794e+001
      vertex  8.000000e+000  0.000000e+000  2.200000e+001
    endloop
  endfacet
  facet normal -8.312747e-001 -5.554399e-001  2.165180e-002
    outer loop
      vertex -5.656854e+000 -5.656854e+000  2.200000e+001
      vertex -7.391036e+000 -3.061467e+000  2.200000e+001
      vertex -6.539203e+000 -4.608560e+000  1.501630e+001
    endloop
  endfacet
  facet normal -7.575995e-001 -6.527159e-001 -2.258308e-003
    outer loop
      vertex -5.656854e+000 -5.656854e+000  2.200000e+001
      vertex -6.539203e+000 -4.608560e+000  1.501630e+001
      vertex -5.498474e+000 -5.810920e+000  1.339713e+001
    endloop
  endfacet
  facet normal -6.570184e-001 -7.538731e-001  1.404997e-003
    outer loop
      vertex -5.656854e+000 -5.656854e+000  2.200000e+001
      vertex -5.498474e+000 -5.810920e+000  1.339713e+001
      vertex -5.043009e+000 -6.210319e+000  1.208212e+001
    endloop
  endfacet
  facet normal -4.983030e-001 -8.668257e-001  1.753164e-002
    outer loop
      vertex -5.656854e+000 -5.656854e+000  2.200000e+001
      vertex -5.043009e+000 -6.210319e+000  1.208212e+001
      vertex -4.928320e+000 -6.301719e+000  1.082280e+001
    endloop
  endfacet
  facet normal -3.714597e-001 -9.279857e-001  2.932793e-002
    outer loop
      vertex -5.656854e+000 -5.656854e+000  2.200000e+001
      vertex -4.928320e+000 -6.301719e+000  1.082280e+001
      vertex -3.061467e+000 -7.391036e+000  0.000000e+000
    endloop
  endfacet
  facet normal -5.555702e-001 -8.314696e-001  0.000000e+000
    outer loop
      vertex -5.656854e+000 -5.656854e+000  2.200000e+001
      vertex -3.061467e+000 -7.391036e+000  0.000000e+000
      vertex -3.061467e+000 -7.391036e+000  2.200000e+001
    endloop
  endfacet
  facet normal  9.807853e-001 -1.950904e-001  0.000000e+000
    outer loop
      vertex  8.000000e+000  0.000000e+000  0.000000e+000
      vertex  8.000000e+000  0.000000e+000  6.352057e+000
      vertex  7.391036e+000 -3.061467e+000  0.000000e+000
    endloop
  endfacet
  facet normal  9.941930e-001 -9.571613e-002 -4.918028e-002
    outer loop
      vertex  7.391036e+000 -3.061467e+000  0.000000e+000
      vertex  8.000000e+000  0.000000e+000  6.352057e+000
      vertex  7.921062e+000 -1.121058e+000  6.938149e+000
    endloop
  endfacet
  facet normal  9.722421e-001 -2.338089e-001 -8.882637e-003
    outer loop
      vertex  7.391036e+000 -3.061467e+000  0.000000e+000
      vertex  7.921062e+000 -1.121058e+000  6.938149e+000
      vertex  7.606587e+000 -2.477868e+000  8.231497e+000
    endloop
  endfacet
  facet normal  8.730154e-001 -4.869752e-001 -2.644208e-002
    outer loop
      vertex  7.230614e+000 -3.423190e+000  1.082280e+001
      vertex  5.656854e+000 -5.656854e+000  0.000000e+000
      vertex  7.422885e+000 -2.983417e+000  9.071711e+000
    endloop
  endfacet
  facet normal  8.314682e-001 -5.555693e-001  1.860815e-003
    outer loop
      vertex  7.422885e+000 -2.983417e+000  9.071711e+000
      vertex  5.656854e+000 -5.656854e+000  0.000000e+000
      vertex  7.391036e+000 -3.061467e+000  0.000000e+000
    endloop
  endfacet
  facet normal  9.396831e-001 -3.420461e-001 -3.562088e-004
    outer loop
      vertex  7.422885e+000 -2.983417e+000  9.071711e+000
      vertex  7.391036e+000 -3.061467e+000  0.000000e+000
      vertex  7.606587e+000 -2.477868e+000  8.231497e+000
    endloop
  endfacet
  facet normal -1.950904e-001 -9.807853e-001  0.000000e+000
    outer loop
      vertex -3.061467e+000 -7.391036e+000  2.200000e+001
      vertex -3.061467e+000 -7.391036e+000  0.000000e+000
      vertex -1.469528e-015 -8.000000e+000  2.200000e+001
    endloop
  endfacet
  facet normal -1.950904e-001 -9.807853e-001  -0.000000e+000
    outer loop
      vertex -1.469528e-015 -8.000000e+000  2.200000e+001
      vertex -3.061467e+000 -7.391036e+000  0.000000e+000
      vertex -1.469528e-015 -8.000000e+000  0.000000e+000
    endloop
  endfacet
  facet normal  1.950904e-001 -9.807853e-001  0.000000e+000
    outer loop
      vertex -1.469528e-015 -8.000000e+000  2.200000e+001
      vertex -1.469528e-015 -8.000000e+000  0.000000e+000
      vertex  3.061467e+000 -7.391036e+000  2.200000e+001
    endloop
  endfacet
  facet normal  1.950904e-001 -9.807853e-001  0.000000e+000
    outer loop
      vertex  3.061467e+000 -7.391036e+000  2.200000e+001
      vertex -1.469528e-015 -8.000000e+000  0.000000e+000
      vertex  3.061467e+000 -7.391036e+000  0.000000e+000
    endloop
  endfacet
  facet normal  5.555702e-001 -8.314696e-001  0.000000e+000
    outer loop
      vertex  3.061467e+000 -7.391036e+000  2.200000e+001
      vertex  3.061467e+000 -7.391036e+000  0.000000e+000
      vertex  5.656854e+000 -5.656854e+000  2.200000e+001
    endloop
  endfacet
  facet normal  5.555702e-001 -8.314696e-001  0.000000e+000
    outer loop
      vertex  5.656854e+000 -5.656854e+000  2.200000e+001
      vertex  3.061467e+000 -7.391036e+000  0.000000e+000
      vertex  5.656854e+000 -5.656854e+000  0.000000e+000
    endloop
  endfacet
  facet normal  8.174753e-001 -5.759637e-001  0.000000e+000
    outer loop
      vertex  5.656854e+000 -5.656854e+000  2.200000e+001
      vertex  5.656854e+000 -5.656854e+000  0.000000e+000
      vertex  7.230614e+000 -3.423190e+000  1.082280e+001
    endloop
  endfacet
  facet normal -9.531608e-001 -3.023982e-001 -6.311037e-003
    outer loop
      vertex -7.243204e+000 -3.396469e+000  1.572461e+001
      vertex -7.391036e+000 -3.061467e+000  2.200000e+001
      vertex -7.874297e+000 -1.412602e+000  1.598065e+001
    endloop
  endfacet
  facet normal -9.804716e-001 -1.950280e-001  2.529326e-002
    outer loop
      vertex -7.874297e+000 -1.412602e+000  1.598065e+001
      vertex -7.391036e+000 -3.061467e+000  2.200000e+001
      vertex -8.000000e+000  9.796851e-016  2.200000e+001
    endloop
  endfacet
  facet normal -9.960640e-001 -8.863647e-002  -0.000000e+000
    outer loop
      vertex -7.874297e+000 -1.412602e+000  1.598065e+001
      vertex -8.000000e+000  9.796851e-016  2.200000e+001
      vertex -8.000000e+000  9.796851e-016  1.564794e+001
    endloop
  endfacet
  facet normal -5.555292e-001 -8.314083e-001 -1.214325e-002
    outer loop
      vertex -3.061467e+000 -7.391036e+000  0.000000e+000
      vertex -4.928320e+000 -6.301719e+000  1.082280e+001
      vertex -5.656854e+000 -5.656854e+000  0.000000e+000
    endloop
  endfacet
  facet normal -6.277465e-001 -7.784069e-001 -4.123936e-003
    outer loop
      vertex -5.656854e+000 -5.656854e+000  0.000000e+000
      vertex -4.928320e+000 -6.301719e+000  1.082280e+001
      vertex -5.297358e+000 -5.994831e+000  9.071711e+000
    endloop
  endfacet
  facet normal -6.871753e-001 -7.264916e-001  1.652882e-004
    outer loop
      vertex -5.656854e+000 -5.656854e+000  0.000000e+000
      vertex -5.297358e+000 -5.994831e+000  9.071711e+000
      vertex -5.688226e+000 -5.625307e+000  8.231497e+000
    endloop
  endfacet
  facet normal -8.314691e-001 -5.555699e-001 -1.039702e-003
    outer loop
      vertex -5.656854e+000 -5.656854e+000  0.000000e+000
      vertex -5.688226e+000 -5.625307e+000  8.231497e+000
      vertex -7.391036e+000 -3.061467e+000  0.000000e+000
    endloop
  endfacet
  facet normal -7.310712e-001 -6.796186e-001 -6.044561e-002
    outer loop
      vertex -7.391036e+000 -3.061467e+000  0.000000e+000
      vertex -5.688226e+000 -5.625307e+000  8.231497e+000
      vertex -6.577654e+000 -4.553512e+000  6.938149e+000
    endloop
  endfacet
  facet normal -8.676744e-001 -4.971061e-001 -5.181985e-003
    outer loop
      vertex -7.391036e+000 -3.061467e+000  0.000000e+000
      vertex -6.577654e+000 -4.553512e+000  6.938149e+000
      vertex -7.271884e+000 -3.334622e+000  6.252778e+000
    endloop
  endfacet
  facet normal -9.807346e-001 -1.950803e-001  1.016659e-002
    outer loop
      vertex -7.391036e+000 -3.061467e+000  0.000000e+000
      vertex -7.271884e+000 -3.334622e+000  6.252778e+000
      vertex -8.000000e+000  9.796851e-016  0.000000e+000
    endloop
  endfacet
  facet normal -9.526766e-001 -3.000012e-001 -4.905524e-002
    outer loop
      vertex -8.000000e+000  9.796851e-016  0.000000e+000
      vertex -7.271884e+000 -3.334622e+000  6.252778e+000
      vertex -7.885424e+000 -1.349106e+000  6.025444e+000
    endloop
  endfacet
  facet normal -9.964131e-001 -8.462263e-002  0.000000e+000
    outer loop
      vertex -8.000000e+000  9.796851e-016  0.000000e+000
      vertex -7.885424e+000 -1.349106e+000  6.025444e+000
      vertex -8.000000e+000  9.796851e-016  6.352057e+000
    endloop
  endfacet
  facet normal  1.657879e-001 -7.002896e-001 -6.943406e-001
    outer loop
      vertex  6.577654e+000  4.553512e+000  1.506185e+001
      vertex -7.606587e+000  2.477868e+000  1.376850e+001
      vertex  5.688226e+000  5.625307e+000  1.376850e+001
    endloop
  endfacet
  facet normal  2.031188e-001 -8.579757e-001 -4.718267e-001
    outer loop
      vertex  5.688226e+000  5.625307e+000  1.376850e+001
      vertex -7.606587e+000  2.477868e+000  1.376850e+001
      vertex -7.422885e+000  2.983417e+000  1.292829e+001
    endloop
  endfacet
  facet normal  2.031188e-001 -8.579758e-001 -4.718267e-001
    outer loop
      vertex  5.688226e+000  5.625307e+000  1.376850e+001
      vertex -7.422885e+000  2.983417e+000  1.292829e+001
      vertex  5.297358e+000  5.994831e+000  1.292829e+001
    endloop
  endfacet
  facet normal  2.250363e-001 -9.505556e-001 -2.140158e-001
    outer loop
      vertex  5.297358e+000  5.994831e+000  1.292829e+001
      vertex -7.422885e+000  2.983417e+000  1.292829e+001
      vertex -7.230614e+000  3.423190e+000  1.117720e+001
    endloop
  endfacet
  facet normal  2.250363e-001 -9.505555e-001 -2.140158e-001
    outer loop
      vertex  5.297358e+000  5.994831e+000  1.292829e+001
      vertex -7.230614e+000  3.423190e+000  1.117720e+001
      vertex  4.928320e+000  6.301719e+000  1.117720e+001
    endloop
  endfacet
  facet normal  2.294135e-001 -9.690447e-001  9.122468e-002
    outer loop
      vertex  4.928320e+000  6.301719e+000  1.117720e+001
      vertex -7.230614e+000  3.423190e+000  1.117720e+001
      vertex -7.292149e+000  3.290071e+000  9.917877e+000
    endloop
  endfacet
  facet normal  2.294134e-001 -9.690447e-001  9.122476e-002
    outer loop
      vertex  4.928320e+000  6.301719e+000  1.117720e+001
      vertex -7.292149e+000  3.290071e+000  9.917877e+000
      vertex  5.043009e+000  6.210319e+000  9.917877e+000
    endloop
  endfacet
  facet normal  2.156813e-001 -9.110398e-001  3.514087e-001
    outer loop
      vertex  5.043009e+000  6.210319e+000  9.917877e+000
      vertex -7.292149e+000  3.290071e+000  9.917877e+000
      vertex -7.520196e+000  2.728855e+000  8.602872e+000
    endloop
  endfacet
  facet normal  2.156813e-001 -9.110399e-001  3.514084e-001
    outer loop
      vertex  5.043009e+000  6.210319e+000  9.917877e+000
      vertex -7.520196e+000  2.728855e+000  8.602872e+000
      vertex  5.498474e+000  5.810920e+000  8.602872e+000
    endloop
  endfacet
  facet normal  1.657879e-001 -7.002895e-001 -6.943406e-001
    outer loop
      vertex -7.606587e+000  2.477868e+000  1.376850e+001
      vertex  6.577654e+000  4.553512e+000  1.506185e+001
      vertex -7.921062e+000  1.121058e+000  1.506185e+001
    endloop
  endfacet
  facet normal  1.045309e-001 -4.415395e-001 -8.911319e-001
    outer loop
      vertex -7.921062e+000  1.121058e+000  1.506185e+001
      vertex  6.577654e+000  4.553512e+000  1.506185e+001
      vertex  7.271884e+000  3.334622e+000  1.574722e+001
    endloop
  endfacet
  facet normal  1.075800e-001 -4.665568e-001 -8.779244e-001
    outer loop
      vertex -7.921062e+000  1.121058e+000  1.506185e+001
      vertex  7.271884e+000  3.334622e+000  1.574722e+001
      vertex -8.000000e+000  9.796851e-016  1.564794e+001
    endloop
  endfacet
  facet normal  2.933481e-002 -1.047520e-001 -9.940656e-001
    outer loop
      vertex -8.000000e+000  9.796851e-016  1.564794e+001
      vertex  7.271884e+000  3.334622e+000  1.574722e+001
      vertex  7.885424e+000  1.349106e+000  1.597456e+001
    endloop
  endfacet
  facet normal  3.918787e-002 -2.257750e-001 -9.733910e-001
    outer loop
      vertex -8.000000e+000  9.796851e-016  1.564794e+001
      vertex  7.885424e+000  1.349106e+000  1.597456e+001
      vertex -7.874297e+000 -1.412602e+000  1.598065e+001
    endloop
  endfacet
  facet normal -4.099800e-002  2.318100e-001 -9.718968e-001
    outer loop
      vertex -7.874297e+000 -1.412602e+000  1.598065e+001
      vertex  7.885424e+000  1.349106e+000  1.597456e+001
      vertex  8.000000e+000  0.000000e+000  1.564794e+001
    endloop
  endfacet
  facet normal -3.131404e-002  1.181316e-001 -9.925041e-001
    outer loop
      vertex -7.874297e+000 -1.412602e+000  1.598065e+001
      vertex  8.000000e+000  0.000000e+000  1.564794e+001
      vertex -7.243204e+000 -3.396469e+000  1.572461e+001
    endloop
  endfacet
  facet normal -1.098216e-001  4.731424e-001 -8.741141e-001
    outer loop
      vertex -7.243204e+000 -3.396469e+000  1.572461e+001
      vertex  8.000000e+000  0.000000e+000  1.564794e+001
      vertex  7.911374e+000 -1.187503e+000  1.501630e+001
    endloop
  endfacet
  facet normal -1.075535e-001  4.543069e-001 -8.843288e-001
    outer loop
      vertex -7.243204e+000 -3.396469e+000  1.572461e+001
      vertex  7.911374e+000 -1.187503e+000  1.501630e+001
      vertex -6.539203e+000 -4.608560e+000  1.501630e+001
    endloop
  endfacet
  facet normal -1.737460e-001  7.339048e-001 -6.566550e-001
    outer loop
      vertex -6.539203e+000 -4.608560e+000  1.501630e+001
      vertex  7.911374e+000 -1.187503e+000  1.501630e+001
      vertex  7.520196e+000 -2.728855e+000  1.339713e+001
    endloop
  endfacet
  facet normal -1.737460e-001  7.339048e-001 -6.566551e-001
    outer loop
      vertex -6.539203e+000 -4.608560e+000  1.501630e+001
      vertex  7.520196e+000 -2.728855e+000  1.339713e+001
      vertex -5.498474e+000 -5.810920e+000  1.339713e+001
    endloop
  endfacet
  facet normal -1.657879e-001  7.002897e-001  6.943405e-001
    outer loop
      vertex  7.921062e+000 -1.121058e+000  6.938149e+000
      vertex -5.688226e+000 -5.625307e+000  8.231497e+000
      vertex  7.606587e+000 -2.477868e+000  8.231497e+000
    endloop
  endfacet
  facet normal -2.031188e-001  8.579758e-001  4.718265e-001
    outer loop
      vertex  7.606587e+000 -2.477868e+000  8.231497e+000
      vertex -5.688226e+000 -5.625307e+000  8.231497e+000
      vertex -5.297358e+000 -5.994831e+000  9.071711e+000
    endloop
  endfacet
  facet normal -2.031188e-001  8.579758e-001  4.718265e-001
    outer loop
      vertex  7.606587e+000 -2.477868e+000  8.231497e+000
      vertex -5.297358e+000 -5.994831e+000  9.071711e+000
      vertex  7.422885e+000 -2.983417e+000  9.071711e+000
    endloop
  endfacet
  facet normal -2.250363e-001  9.505556e-001  2.140158e-001
    outer loop
      vertex  7.422885e+000 -2.983417e+000  9.071711e+000
      vertex -5.297358e+000 -5.994831e+000  9.071711e+000
      vertex -4.928320e+000 -6.301719e+000  1.082280e+001
    endloop
  endfacet
  facet normal -2.250363e-001  9.505555e-001  2.140158e-001
    outer loop
      vertex  7.422885e+000 -2.983417e+000  9.071711e+000
      vertex -4.928320e+000 -6.301719e+000  1.082280e+001
      vertex  7.230614e+000 -3.423190e+000  1.082280e+001
    endloop
  endfacet
  facet normal -2.294135e-001  9.690447e-001 -9.122476e-002
    outer loop
      vertex  7.230614e+000 -3.423190e+000  1.082280e+001
      vertex -4.928320e+000 -6.301719e+000  1.082280e+001
      vertex -5.043009e+000 -6.210319e+000  1.208212e+001
    endloop
  endfacet
  facet normal -2.294134e-001  9.690447e-001 -9.122468e-002
    outer loop
      vertex  7.230614e+000 -3.423190e+000  1.082280e+001
      vertex -5.043009e+000 -6.210319e+000  1.208212e+001
      vertex  7.292149e+000 -3.290071e+000  1.208212e+001
    endloop
  endfacet
  facet normal -2.156813e-001  9.110399e-001 -3.514085e-001
    outer loop
      vertex  7.292149e+000 -3.290071e+000  1.208212e+001
      vertex -5.043009e+000 -6.210319e+000  1.208212e+001
      vertex -5.498474e+000 -5.810920e+000  1.339713e+001
    endloop
  endfacet
  facet normal -2.156813e-001  9.110398e-001 -3.514088e-001
    outer loop
      vertex  7.292149e+000 -3.290071e+000  1.208212e+001
      vertex -5.498474e+000 -5.810920e+000  1.339713e+001
      vertex  7.520196e+000 -2.728855e+000  1.339713e+001
    endloop
  endfacet
  facet normal -1.657879e-001  7.002897e-001  6.943405e-001
    outer loop
      vertex -5.688226e+000 -5.625307e+000  8.231497e+000
      vertex  7.921062e+000 -1.121058e+000  6.938149e+000
      vertex -6.577654e+000 -4.553512e+000  6.938149e+000
    endloop
  endfacet
  facet normal -1.104565e-001  4.665692e-001  8.775606e-001
    outer loop
      vertex -6.577654e+000 -4.553512e+000  6.938149e+000
      vertex  7.921062e+000 -1.121058e+000  6.938149e+000
      vertex  8.000000e+000  0.000000e+000  6.352057e+000
    endloop
  endfacet
  facet normal -1.024294e-001  4.425830e-001  8.908584e-001
    outer loop
      vertex -6.577654e+000 -4.553512e+000  6.938149e+000
      vertex  8.000000e+000  0.000000e+000  6.352057e+000
      vertex -7.271884e+000 -3.334622e+000  6.252778e+000
    endloop
  endfacet
  facet normal -5.528827e-002  2.242416e-001  9.729640e-001
    outer loop
      vertex -7.271884e+000 -3.334622e+000  6.252778e+000
      vertex  8.000000e+000  0.000000e+000  6.352057e+000
      vertex  7.874297e+000  1.412602e+000  6.019347e+000
    endloop
  endfacet
  facet normal -1.855387e-002  1.080722e-001  9.939700e-001
    outer loop
      vertex -7.271884e+000 -3.334622e+000  6.252778e+000
      vertex  7.874297e+000  1.412602e+000  6.019347e+000
      vertex -7.885424e+000 -1.349106e+000  6.025444e+000
    endloop
  endfacet
  facet normal  2.162279e-002 -1.211999e-001  9.923925e-001
    outer loop
      vertex -7.885424e+000 -1.349106e+000  6.025444e+000
      vertex  7.874297e+000  1.412602e+000  6.019347e+000
      vertex  7.243204e+000  3.396469e+000  6.275385e+000
    endloop
  endfacet
  facet normal  5.622656e-002 -2.304126e-001  9.714673e-001
    outer loop
      vertex -7.885424e+000 -1.349106e+000  6.025444e+000
      vertex  7.243204e+000  3.396469e+000  6.275385e+000
      vertex -8.000000e+000  9.796851e-016  6.352057e+000
    endloop
  endfacet
  facet normal  1.058635e-001 -4.551535e-001  8.840975e-001
    outer loop
      vertex -8.000000e+000  9.796851e-016  6.352057e+000
      vertex  7.243204e+000  3.396469e+000  6.275385e+000
      vertex  6.539203e+000  4.608560e+000  6.983696e+000
    endloop
  endfacet
  facet normal  1.120155e-001 -4.731545e-001  8.738292e-001
    outer loop
      vertex -8.000000e+000  9.796851e-016  6.352057e+000
      vertex  6.539203e+000  4.608560e+000  6.983696e+000
      vertex -7.911374e+000  1.187503e+000  6.983696e+000
    endloop
  endfacet
  facet normal  1.737460e-001 -7.339048e-001  6.566551e-001
    outer loop
      vertex -7.911374e+000  1.187503e+000  6.983696e+000
      vertex  6.539203e+000  4.608560e+000  6.983696e+000
      vertex  5.498474e+000  5.810920e+000  8.602872e+000
    endloop
  endfacet
  facet normal  1.737461e-001 -7.339050e-001  6.566551e-001
    outer loop
      vertex -7.911374e+000  1.187503e+000  6.983696e+000
      vertex  5.498474e+000  5.810920e+000  8.602872e+000
      vertex -7.520196e+000  2.728855e+000  8.602872e+000
    endloop
  endfacet
  facet normal  0.000000e+000  0.000000e+000  1.000000e+000
    outer loop
      vertex -3.061467e+000  7.391036e+000  2.200000e+001
      vertex  3.061467e+000  7.391036e+000  2.200000e+001
      vertex  4.898425e-016  8.000000e+000  2.200000e+001
    endloop
  endfacet
  facet normal  -0.000000e+000  0.000000e+000  1.000000e+000
    outer loop
      vertex  3.061467e+000  7.391036e+000  2.200000e+001
      vertex -3.061467e+000  7.391036e+000  2.200000e+001
      vertex  5.656854e+000  5.656854e+000  2.200000e+001
    endloop
  endfacet
  facet normal  0.000000e+000  0.000000e+000  1.000000e+000
    outer loop
      vertex  5.656854e+000  5.656854e+000  2.200000e+001
      vertex -3.061467e+000  7.391036e+000  2.200000e+001
      vertex -5.656854e+000  5.656854e+000  2.200000e+001
    endloop
  endfacet
  facet normal  -0.000000e+000  0.000000e+000  1.000000e+000
    outer loop
      vertex  5.656854e+000  5.656854e+000  2.200000e+001
      vertex -5.656854e+000  5.656854e+000  2.200000e+001
      vertex  7.391036e+000  3.061467e+000  2.200000e+001
    endloop
  endfacet
  facet normal  0.000000e+000  0.000000e+000  1.000000e+000
    outer loop
      vertex  7.391036e+000  3.061467e+000  2.200000e+001
      vertex -5.656854e+000  5.656854e+000  2.200000e+001
      vertex -7.391036e+000  3.061467e+000  2.200000e+001
    endloop
  endfacet
  facet normal  -0.000000e+000  0.000000e+000  9.999999e-001
    outer loop
      vertex  7.391036e+000  3.061467e+000  2.200000e+001
      vertex -7.391036e+000  3.061467e+000  2.200000e+001
      vertex  8.000000e+000  0.000000e+000  2.200000e+001
    endloop
  endfacet
  facet normal  0.000000e+000  0.000000e+000  1.000000e+000
    outer loop
      vertex  8.000000e+000  0.000000e+000  2.200000e+001
      vertex -7.391036e+000  3.061467e+000  2.200000e+001
      vertex -8.000000e+000  9.796851e-016  2.200000e+001
    endloop
  endfacet
  facet normal  0.000000e+000  0.000000e+000  1.000000e+000
    outer loop
      vertex  8.000000e+000  0.000000e+000  2.200000e+001
      vertex -8.000000e+000  9.796851e-016  2.200000e+001
      vertex  7.391036e+000 -3.061467e+000  2.200000e+001
    endloop
  endfacet
  facet normal  0.000000e+000  0.000000e+000  9.999999e-001
    outer loop
      vertex  7.391036e+000 -3.061467e+000  2.200000e+001
      vertex -8.000000e+000  9.796851e-016  2.200000e+001
      vertex -7.391036e+000 -3.061467e+000  2.200000e+001
    endloop
  endfacet
  facet normal  -0.000000e+000  0.000000e+000  1.000000e+000
    outer loop
      vertex  7.391036e+000 -3.061467e+000  2.200000e+001
      vertex -7.391036e+000 -3.061467e+000  2.200000e+001
      vertex  5.656854e+000 -5.656854e+000  2.200000e+001
    endloop
  endfacet
  facet normal  0.000000e+000  0.000000e+000  1.000000e+000
    outer loop
      vertex  5.656854e+000 -5.656854e+000  2.200000e+001
      vertex -7.391036e+000 -3.061467e+000  2.200000e+001
      vertex -5.656854e+000 -5.656854e+000  2.200000e+001
    endloop
  endfacet
  facet normal  -0.000000e+000  0.000000e+000  1.000000e+000
    outer loop
      vertex  5.656854e+000 -5.656854e+000  2.200000e+001
      vertex -5.656854e+000 -5.656854e+000  2.200000e+001
      vertex  3.061467e+000 -7.391036e+000  2.200000e+001
    endloop
  endfacet
  facet normal  0.000000e+000  0.000000e+000  1.000000e+000
    outer loop
      vertex  3.061467e+000 -7.391036e+000  2.200000e+001
      vertex -5.656854e+000 -5.656854e+000  2.200000e+001
      vertex -3.061467e+000 -7.391036e+000  2.200000e+001
    endloop
  endfacet
  facet normal  -0.000000e+000  0.000000e+000  1.000000e+000
    outer loop
      vertex  3.061467e+000 -7.391036e+000  2.200000e+001
      vertex -3.061467e+000 -7.391036e+000  2.200000e+001
      vertex -1.469528e-015 -8.000000e+000  2.200000e+001
    endloop
  endfacet
  facet normal  0.000000e+000  0.000000e+000 -1.000000e+000
    outer loop
      vertex  4.898425e-016  8.000000e+000  0.000000e+000
      vertex  3.061467e+000  7.391036e+000  0.000000e+000
      vertex -3.061467e+000  7.391036e+000  0.000000e+000
    endloop
  endfacet
  facet normal  0.000000e+000  0.000000e+000 -1.000000e+000
    outer loop
      vertex -1.469528e-015 -8.000000e+000  0.000000e+000
      vertex -3.061467e+000 -7.391036e+000  0.000000e+000
      vertex  3.061467e+000 -7.391036e+000  0.000000e+000
    endloop
  endfacet
  facet normal  0.000000e+000  0.000000e+000 -1.000000e+000
    outer loop
      vertex  3.061467e+000 -7.391036e+000  0.000000e+000
      vertex -3.061467e+000 -7.391036e+000  0.000000e+000
      vertex -5.656854e+000 -5.656854e+000  0.000000e+000
    endloop
  endfacet
  facet normal  0.000000e+000  0.000000e+000 -1.000000e+000
    outer loop
      vertex  3.061467e+000 -7.391036e+000  0.000000e+000
      vertex -5.656854e+000 -5.656854e+000  0.000000e+000
      vertex  5.656854e+000 -5.656854e+000  0.000000e+000
    endloop
  endfacet
  facet normal  0.000000e+000  0.000000e+000 -1.000000e+000
    outer loop
      vertex  5.656854e+000 -5.656854e+000  0.000000e+000
      vertex -5.656854e+000 -5.656854e+000  0.000000e+000
      vertex -7.391036e+000 -3.061467e+000  0.000000e+000
    endloop
  endfacet
  facet normal  0.000000e+000  0.000000e+000 -1.000000e+000
    outer loop
      vertex  5.656854e+000 -5.656854e+000  0.000000e+000
      vertex -7.391036e+000 -3.061467e+000  0.000000e+000
      vertex  7.391036e+000 -3.061467e+000  0.000000e+000
    endloop
  endfacet
  facet normal  0.000000e+000  0.000000e+000 -9.999999e-001
    outer loop
      vertex  7.391036e+000 -3.061467e+000  0.000000e+000
      vertex -7.391036e+000 -3.061467e+000  0.000000e+000
      vertex -8.000000e+000  9.796851e-016  0.000000e+000
    endloop
  endfacet
  facet normal  0.000000e+000  0.000000e+000 -1.000000e+000
    outer loop
      vertex  7.391036e+000 -3.061467e+000  0.000000e+000
      vertex -8.000000e+000  9.796851e-016  0.000000e+000
      vertex  8.000000e+000  0.000000e+000  0.000000e+000
    endloop
  endfacet
  facet normal  0.000000e+000  0.000000e+000 -1.000000e+000
    outer loop
      vertex  8.000000e+000  0.000000e+000  0.000000e+000
      vertex -8.000000e+000  9.796851e-016  0.000000e+000
      vertex -7.391036e+000  3.061467e+000  0.000000e+000
    endloop
  endfacet
  facet normal  0.000000e+000  0.000000e+000 -9.999999e-001
    outer loop
      vertex  8.000000e+000  0.000000e+000  0.000000e+000
      vertex -7.391036e+000  3.061467e+000  0.000000e+000
      vertex  7.391036e+000  3.061467e+000  0.000000e+000
    endloop
  endfacet
  facet normal  0.000000e+000  0.000000e+000 -1.000000e+000
    outer loop
      vertex  7.391036e+000  3.061467e+000  0.000000e+000
      vertex -7.391036e+000  3.061467e+000  0.000000e+000
      vertex -5.656854e+000  5.656854e+000  0.000000e+000
    endloop
  endfacet
  facet normal  0.000000e+000  0.000000e+000 -1.000000e+000
    outer loop
      vertex  7.391036e+000  3.061467e+000  0.000000e+000
      vertex -5.656854e+000  5.656854e+000  0.000000e+000
      vertex  5.656854e+000  5.656854e+000  0.000000e+000
    endloop
  endfacet
  facet normal  0.000000e+000  0.000000e+000 -1.000000e+000
    outer loop
      vertex  5.656854e+000  5.656854e+000  0.000000e+000
      vertex -5.656854e+000  5.656854e+000  0.000000e+000
      vertex -3.061467e+000  7.391036e+000  0.000000e+000
    endloop
  endfacet
  facet normal  0.000000e+000  0.000000e+000 -1.000000e+000
    outer loop
      vertex  5.656854e+000  5.656854e+000  0.000000e+000
      vertex -3.061467e+000  7.391036e+000  0.000000e+000
      vertex  3.061467e+000  7.391036e+000  0.000000e+000
    endloop
  endfacet
endsolid CATIA STL
