solid CATIA STL
  facet normal  4.641065e-001  0.000000e+000  8.857794e-001
    outer loop
      vertex -2.700000e+001 -1.500000e+000  4.000000e+000
      vertex -2.700000e+001  1.500000e+000  4.000000e+000
      vertex -2.841886e+001 -1.500000e+000  4.743416e+000
    endloop
  endfacet
  facet normal  4.641065e-001  -0.000000e+000  8.857794e-001
    outer loop
      vertex -2.841886e+001 -1.500000e+000  4.743416e+000
      vertex -2.700000e+001  1.500000e+000  4.000000e+000
      vertex -2.841886e+001  1.500000e+000  4.743416e+000
    endloop
  endfacet
  facet normal  1.601824e-001  0.000000e+000  9.870875e-001
    outer loop
      vertex -2.841886e+001 -1.500000e+000  4.743416e+000
      vertex -2.841886e+001  1.500000e+000  4.743416e+000
      vertex -3.000000e+001 -1.500000e+000  5.000000e+000
    endloop
  endfacet
  facet normal  1.601824e-001  -0.000000e+000  9.870875e-001
    outer loop
      vertex -3.000000e+001 -1.500000e+000  5.000000e+000
      vertex -2.841886e+001  1.500000e+000  4.743416e+000
      vertex -3.000000e+001  1.500000e+000  5.000000e+000
    endloop
  endfacet
  facet normal -2.588190e-001  0.000000e+000  9.659258e-001
    outer loop
      vertex -3.000000e+001 -1.500000e+000  5.000000e+000
      vertex -3.000000e+001  1.500000e+000  5.000000e+000
      vertex -3.250000e+001 -1.500000e+000  4.330127e+000
    endloop
  endfacet
  facet normal -2.588190e-001  0.000000e+000  9.659258e-001
    outer loop
      vertex -3.250000e+001 -1.500000e+000  4.330127e+000
      vertex -3.000000e+001  1.500000e+000  5.000000e+000
      vertex -3.250000e+001  1.500000e+000  4.330127e+000
    endloop
  endfacet
  facet normal -7.071067e-001  0.000000e+000  7.071069e-001
    outer loop
      vertex -3.250000e+001 -1.500000e+000  4.330127e+000
      vertex -3.250000e+001  1.500000e+000  4.330127e+000
      vertex -3.433013e+001 -1.500000e+000  2.500000e+000
    endloop
  endfacet
  facet normal -7.071067e-001  0.000000e+000  7.071069e-001
    outer loop
      vertex -3.433013e+001 -1.500000e+000  2.500000e+000
      vertex -3.250000e+001  1.500000e+000  4.330127e+000
      vertex -3.433013e+001  1.500000e+000  2.500000e+000
    endloop
  endfacet
  facet normal -9.659259e-001  0.000000e+000  2.588188e-001
    outer loop
      vertex -3.433013e+001 -1.500000e+000  2.500000e+000
      vertex -3.433013e+001  1.500000e+000  2.500000e+000
      vertex -3.500000e+001 -1.500000e+000 -2.342907e-014
    endloop
  endfacet
  facet normal -9.659259e-001  0.000000e+000  2.588188e-001
    outer loop
      vertex -3.500000e+001 -1.500000e+000 -2.342907e-014
      vertex -3.433013e+001  1.500000e+000  2.500000e+000
      vertex -3.500000e+001  1.500000e+000 -2.342907e-014
    endloop
  endfacet
  facet normal -9.659259e-001  -0.000000e+000 -2.588188e-001
    outer loop
      vertex -3.500000e+001 -1.500000e+000 -2.342907e-014
      vertex -3.500000e+001  1.500000e+000 -2.342907e-014
      vertex -3.433013e+001 -1.500000e+000 -2.500000e+000
    endloop
  endfacet
  facet normal -9.659259e-001  0.000000e+000 -2.588188e-001
    outer loop
      vertex -3.433013e+001 -1.500000e+000 -2.500000e+000
      vertex -3.500000e+001  1.500000e+000 -2.342907e-014
      vertex -3.433013e+001  1.500000e+000 -2.500000e+000
    endloop
  endfacet
  facet normal -7.071067e-001  -0.000000e+000 -7.071069e-001
    outer loop
      vertex -3.433013e+001 -1.500000e+000 -2.500000e+000
      vertex -3.433013e+001  1.500000e+000 -2.500000e+000
      vertex -3.250000e+001 -1.500000e+000 -4.330127e+000
    endloop
  endfacet
  facet normal -7.071067e-001  0.000000e+000 -7.071069e-001
    outer loop
      vertex -3.250000e+001 -1.500000e+000 -4.330127e+000
      vertex -3.433013e+001  1.500000e+000 -2.500000e+000
      vertex -3.250000e+001  1.500000e+000 -4.330127e+000
    endloop
  endfacet
  facet normal -2.588190e-001  -0.000000e+000 -9.659258e-001
    outer loop
      vertex -3.250000e+001 -1.500000e+000 -4.330127e+000
      vertex -3.250000e+001  1.500000e+000 -4.330127e+000
      vertex -3.000000e+001 -1.500000e+000 -5.000000e+000
    endloop
  endfacet
  facet normal -2.588190e-001  0.000000e+000 -9.659258e-001
    outer loop
      vertex -3.000000e+001 -1.500000e+000 -5.000000e+000
      vertex -3.250000e+001  1.500000e+000 -4.330127e+000
      vertex -3.000000e+001  1.500000e+000 -5.000000e+000
    endloop
  endfacet
  facet normal  1.601824e-001  0.000000e+000 -9.870875e-001
    outer loop
      vertex -3.000000e+001 -1.500000e+000 -5.000000e+000
      vertex -3.000000e+001  1.500000e+000 -5.000000e+000
      vertex -2.841886e+001 -1.500000e+000 -4.743416e+000
    endloop
  endfacet
  facet normal  1.601824e-001  0.000000e+000 -9.870875e-001
    outer loop
      vertex -2.841886e+001 -1.500000e+000 -4.743416e+000
      vertex -3.000000e+001  1.500000e+000 -5.000000e+000
      vertex -2.841886e+001  1.500000e+000 -4.743416e+000
    endloop
  endfacet
  facet normal  4.641065e-001  0.000000e+000 -8.857794e-001
    outer loop
      vertex -2.841886e+001 -1.500000e+000 -4.743416e+000
      vertex -2.841886e+001  1.500000e+000 -4.743416e+000
      vertex -2.700000e+001 -1.500000e+000 -4.000000e+000
    endloop
  endfacet
  facet normal  4.641065e-001  0.000000e+000 -8.857794e-001
    outer loop
      vertex -2.700000e+001 -1.500000e+000 -4.000000e+000
      vertex -2.841886e+001  1.500000e+000 -4.743416e+000
      vertex -2.700000e+001  1.500000e+000 -4.000000e+000
    endloop
  endfacet
  facet normal -4.641066e-001  -0.000000e+000 -8.857794e-001
    outer loop
      vertex -3.000000e+000 -1.500000e+000 -4.000000e+000
      vertex -3.000000e+000  1.500000e+000 -4.000000e+000
      vertex -1.581139e+000 -1.500000e+000 -4.743416e+000
    endloop
  endfacet
  facet normal -4.641066e-001  0.000000e+000 -8.857794e-001
    outer loop
      vertex -1.581139e+000 -1.500000e+000 -4.743416e+000
      vertex -3.000000e+000  1.500000e+000 -4.000000e+000
      vertex -1.581139e+000  1.500000e+000 -4.743416e+000
    endloop
  endfacet
  facet normal -1.601823e-001  -0.000000e+000 -9.870875e-001
    outer loop
      vertex -1.581139e+000 -1.500000e+000 -4.743416e+000
      vertex -1.581139e+000  1.500000e+000 -4.743416e+000
      vertex  5.359347e-015 -1.500000e+000 -5.000000e+000
    endloop
  endfacet
  facet normal -1.601823e-001  7.157850e-015 -9.870875e-001
    outer loop
      vertex  5.359347e-015 -1.500000e+000 -5.000000e+000
      vertex -1.581139e+000  1.500000e+000 -4.743416e+000
      vertex  1.394163e-013  1.500000e+000 -5.000000e+000
    endloop
  endfacet
  facet normal  2.588190e-001 -1.156549e-014 -9.659258e-001
    outer loop
      vertex  5.359347e-015 -1.500000e+000 -5.000000e+000
      vertex  1.394163e-013  1.500000e+000 -5.000000e+000
      vertex  2.500000e+000 -1.500000e+000 -4.330127e+000
    endloop
  endfacet
  facet normal  2.588190e-001  0.000000e+000 -9.659258e-001
    outer loop
      vertex  2.500000e+000 -1.500000e+000 -4.330127e+000
      vertex  1.394163e-013  1.500000e+000 -5.000000e+000
      vertex  2.500000e+000  1.500000e+000 -4.330127e+000
    endloop
  endfacet
  facet normal  7.071068e-001  0.000000e+000 -7.071068e-001
    outer loop
      vertex  2.500000e+000 -1.500000e+000 -4.330127e+000
      vertex  2.500000e+000  1.500000e+000 -4.330127e+000
      vertex  4.330127e+000 -1.500000e+000 -2.500000e+000
    endloop
  endfacet
  facet normal  7.071068e-001  0.000000e+000 -7.071068e-001
    outer loop
      vertex  4.330127e+000 -1.500000e+000 -2.500000e+000
      vertex  2.500000e+000  1.500000e+000 -4.330127e+000
      vertex  4.330127e+000  1.500000e+000 -2.500000e+000
    endloop
  endfacet
  facet normal  9.659258e-001  0.000000e+000 -2.588190e-001
    outer loop
      vertex  4.330127e+000 -1.500000e+000 -2.500000e+000
      vertex  4.330127e+000  1.500000e+000 -2.500000e+000
      vertex  5.000000e+000 -1.500000e+000  6.123032e-016
    endloop
  endfacet
  facet normal  9.659258e-001  0.000000e+000 -2.588190e-001
    outer loop
      vertex  5.000000e+000 -1.500000e+000  6.123032e-016
      vertex  4.330127e+000  1.500000e+000 -2.500000e+000
      vertex  5.000000e+000  1.500000e+000  6.123032e-016
    endloop
  endfacet
  facet normal  9.659258e-001  0.000000e+000  2.588190e-001
    outer loop
      vertex  5.000000e+000 -1.500000e+000  6.123032e-016
      vertex  5.000000e+000  1.500000e+000  6.123032e-016
      vertex  4.330127e+000 -1.500000e+000  2.500000e+000
    endloop
  endfacet
  facet normal  9.659258e-001  -0.000000e+000  2.588190e-001
    outer loop
      vertex  4.330127e+000 -1.500000e+000  2.500000e+000
      vertex  5.000000e+000  1.500000e+000  6.123032e-016
      vertex  4.330127e+000  1.500000e+000  2.500000e+000
    endloop
  endfacet
  facet normal  7.071068e-001  0.000000e+000  7.071068e-001
    outer loop
      vertex  4.330127e+000 -1.500000e+000  2.500000e+000
      vertex  4.330127e+000  1.500000e+000  2.500000e+000
      vertex  2.500000e+000 -1.500000e+000  4.330127e+000
    endloop
  endfacet
  facet normal  7.071068e-001  -0.000000e+000  7.071068e-001
    outer loop
      vertex  2.500000e+000 -1.500000e+000  4.330127e+000
      vertex  4.330127e+000  1.500000e+000  2.500000e+000
      vertex  2.500000e+000  1.500000e+000  4.330127e+000
    endloop
  endfacet
  facet normal  2.588190e-001  0.000000e+000  9.659258e-001
    outer loop
      vertex  2.500000e+000 -1.500000e+000  4.330127e+000
      vertex  2.500000e+000  1.500000e+000  4.330127e+000
      vertex  7.105427e-015 -1.500000e+000  5.000000e+000
    endloop
  endfacet
  facet normal  2.588190e-001 -3.831290e-016  9.659258e-001
    outer loop
      vertex  7.105427e-015 -1.500000e+000  5.000000e+000
      vertex  2.500000e+000  1.500000e+000  4.330127e+000
      vertex  1.154632e-014  1.500000e+000  5.000000e+000
    endloop
  endfacet
  facet normal -1.601824e-001  2.371175e-016  9.870874e-001
    outer loop
      vertex  7.105427e-015 -1.500000e+000  5.000000e+000
      vertex  1.154632e-014  1.500000e+000  5.000000e+000
      vertex -1.581139e+000 -1.500000e+000  4.743416e+000
    endloop
  endfacet
  facet normal -1.601823e-001  0.000000e+000  9.870875e-001
    outer loop
      vertex -1.581139e+000 -1.500000e+000  4.743416e+000
      vertex  1.154632e-014  1.500000e+000  5.000000e+000
      vertex -1.581139e+000  1.500000e+000  4.743416e+000
    endloop
  endfacet
  facet normal -4.641066e-001  0.000000e+000  8.857794e-001
    outer loop
      vertex -1.581139e+000 -1.500000e+000  4.743416e+000
      vertex -1.581139e+000  1.500000e+000  4.743416e+000
      vertex -3.000000e+000 -1.500000e+000  4.000000e+000
    endloop
  endfacet
  facet normal -4.641066e-001  0.000000e+000  8.857794e-001
    outer loop
      vertex -3.000000e+000 -1.500000e+000  4.000000e+000
      vertex -1.581139e+000  1.500000e+000  4.743416e+000
      vertex -3.000000e+000  1.500000e+000  4.000000e+000
    endloop
  endfacet
  facet normal  4.641066e-001  0.000000e+000  8.857793e-001
    outer loop
      vertex -2.700000e+001 -1.500000e+000  4.000000e+000
      vertex -2.558114e+001 -1.500000e+000  3.256583e+000
      vertex -2.700000e+001  1.500000e+000  4.000000e+000
    endloop
  endfacet
  facet normal  4.641066e-001  0.000000e+000  8.857793e-001
    outer loop
      vertex -2.700000e+001  1.500000e+000  4.000000e+000
      vertex -2.558114e+001 -1.500000e+000  3.256583e+000
      vertex -2.558114e+001  1.500000e+000  3.256583e+000
    endloop
  endfacet
  facet normal  1.601822e-001  0.000000e+000  9.870875e-001
    outer loop
      vertex -2.558114e+001 -1.500000e+000  3.256583e+000
      vertex -2.400000e+001 -1.500000e+000  3.000000e+000
      vertex -2.558114e+001  1.500000e+000  3.256583e+000
    endloop
  endfacet
  facet normal  1.601822e-001  0.000000e+000  9.870875e-001
    outer loop
      vertex -2.558114e+001  1.500000e+000  3.256583e+000
      vertex -2.400000e+001 -1.500000e+000  3.000000e+000
      vertex -2.400000e+001  1.500000e+000  3.000000e+000
    endloop
  endfacet
  facet normal  -0.000000e+000 -1.000000e+000  0.000000e+000
    outer loop
      vertex -3.000000e+001 -1.500000e+000 -5.000000e+000
      vertex -2.841886e+001 -1.500000e+000 -4.743416e+000
      vertex -2.700000e+001 -1.500000e+000 -4.000000e+000
    endloop
  endfacet
  facet normal  0.000000e+000 -1.000000e+000  0.000000e+000
    outer loop
      vertex -2.558114e+001 -1.500000e+000 -3.256583e+000
      vertex -3.000000e+001 -1.500000e+000 -5.000000e+000
      vertex -2.700000e+001 -1.500000e+000 -4.000000e+000
    endloop
  endfacet
  facet normal  0.000000e+000 -1.000000e+000  0.000000e+000
    outer loop
      vertex -2.907295e+001 -1.500000e+000 -2.853169e+000
      vertex -2.558114e+001 -1.500000e+000 -3.256583e+000
      vertex -2.400000e+001 -1.500000e+000 -3.000000e+000
    endloop
  endfacet
  facet normal  0.000000e+000 -1.000000e+000  0.000000e+000
    outer loop
      vertex -3.433013e+001 -1.500000e+000 -2.500000e+000
      vertex -3.092705e+001 -1.500000e+000 -2.853169e+000
      vertex -3.242705e+001 -1.500000e+000 -1.763356e+000
    endloop
  endfacet
  facet normal  0.000000e+000 -1.000000e+000  0.000000e+000
    outer loop
      vertex -3.433013e+001 -1.500000e+000 -2.500000e+000
      vertex -3.250000e+001 -1.500000e+000 -4.330127e+000
      vertex -3.092705e+001 -1.500000e+000 -2.853169e+000
    endloop
  endfacet
  facet normal  0.000000e+000 -1.000000e+000  0.000000e+000
    outer loop
      vertex -6.000000e+000 -1.500000e+000 -3.000000e+000
      vertex -4.418861e+000 -1.500000e+000 -3.256583e+000
      vertex -9.270510e-001 -1.500000e+000 -2.853169e+000
    endloop
  endfacet
  facet normal  -0.000000e+000 -1.000000e+000  0.000000e+000
    outer loop
      vertex -6.000000e+000 -1.500000e+000 -3.000000e+000
      vertex -9.270510e-001 -1.500000e+000 -2.853169e+000
      vertex -2.907295e+001 -1.500000e+000 -2.853169e+000
    endloop
  endfacet
  facet normal  0.000000e+000 -1.000000e+000  0.000000e+000
    outer loop
      vertex -6.000000e+000 -1.500000e+000 -3.000000e+000
      vertex -2.907295e+001 -1.500000e+000 -2.853169e+000
      vertex -2.400000e+001 -1.500000e+000 -3.000000e+000
    endloop
  endfacet
  facet normal  -0.000000e+000 -1.000000e+000  0.000000e+000
    outer loop
      vertex  5.359347e-015 -1.500000e+000 -5.000000e+000
      vertex  2.500000e+000 -1.500000e+000 -4.330127e+000
      vertex  9.270510e-001 -1.500000e+000 -2.853169e+000
    endloop
  endfacet
  facet normal  -0.000000e+000 -1.000000e+000  0.000000e+000
    outer loop
      vertex  5.359347e-015 -1.500000e+000 -5.000000e+000
      vertex  9.270510e-001 -1.500000e+000 -2.853169e+000
      vertex -9.270510e-001 -1.500000e+000 -2.853169e+000
    endloop
  endfacet
  facet normal  0.000000e+000 -9.999999e-001  -0.000000e+000
    outer loop
      vertex  5.359347e-015 -1.500000e+000 -5.000000e+000
      vertex -9.270510e-001 -1.500000e+000 -2.853169e+000
      vertex -4.418861e+000 -1.500000e+000 -3.256583e+000
    endloop
  endfacet
  facet normal  0.000000e+000 -1.000000e+000  0.000000e+000
    outer loop
      vertex  5.359347e-015 -1.500000e+000 -5.000000e+000
      vertex -4.418861e+000 -1.500000e+000 -3.256583e+000
      vertex -3.000000e+000 -1.500000e+000 -4.000000e+000
    endloop
  endfacet
  facet normal  0.000000e+000 -1.000000e+000  0.000000e+000
    outer loop
      vertex  5.359347e-015 -1.500000e+000 -5.000000e+000
      vertex -3.000000e+000 -1.500000e+000 -4.000000e+000
      vertex -1.581139e+000 -1.500000e+000 -4.743416e+000
    endloop
  endfacet
  facet normal  0.000000e+000 -1.000000e+000  0.000000e+000
    outer loop
      vertex -2.907295e+001 -1.500000e+000  2.853169e+000
      vertex -2.757295e+001 -1.500000e+000  1.763356e+000
      vertex -2.427051e+000 -1.500000e+000  1.763356e+000
    endloop
  endfacet
  facet normal  0.000000e+000 -1.000000e+000  0.000000e+000
    outer loop
      vertex -2.907295e+001 -1.500000e+000  2.853169e+000
      vertex -2.427051e+000 -1.500000e+000  1.763356e+000
      vertex -9.270510e-001 -1.500000e+000  2.853169e+000
    endloop
  endfacet
  facet normal  0.000000e+000 -1.000000e+000  0.000000e+000
    outer loop
      vertex -2.907295e+001 -1.500000e+000  2.853169e+000
      vertex -9.270510e-001 -1.500000e+000  2.853169e+000
      vertex -6.000000e+000 -1.500000e+000  3.000000e+000
    endloop
  endfacet
  facet normal  -0.000000e+000 -1.000000e+000  0.000000e+000
    outer loop
      vertex -2.907295e+001 -1.500000e+000  2.853169e+000
      vertex -6.000000e+000 -1.500000e+000  3.000000e+000
      vertex -2.400000e+001 -1.500000e+000  3.000000e+000
    endloop
  endfacet
  facet normal  -0.000000e+000 -1.000000e+000  0.000000e+000
    outer loop
      vertex -2.907295e+001 -1.500000e+000  2.853169e+000
      vertex -2.400000e+001 -1.500000e+000  3.000000e+000
      vertex -2.558114e+001 -1.500000e+000  3.256583e+000
    endloop
  endfacet
  facet normal  -0.000000e+000 -1.000000e+000  0.000000e+000
    outer loop
      vertex -2.907295e+001 -1.500000e+000  2.853169e+000
      vertex -2.558114e+001 -1.500000e+000  3.256583e+000
      vertex -2.700000e+001 -1.500000e+000  4.000000e+000
    endloop
  endfacet
  facet normal  -0.000000e+000 -1.000000e+000  0.000000e+000
    outer loop
      vertex -2.907295e+001 -1.500000e+000  2.853169e+000
      vertex -2.700000e+001 -1.500000e+000  4.000000e+000
      vertex -2.841886e+001 -1.500000e+000  4.743416e+000
    endloop
  endfacet
  facet normal  -0.000000e+000 -1.000000e+000  0.000000e+000
    outer loop
      vertex -2.907295e+001 -1.500000e+000  2.853169e+000
      vertex -2.841886e+001 -1.500000e+000  4.743416e+000
      vertex -3.000000e+001 -1.500000e+000  5.000000e+000
    endloop
  endfacet
  facet normal  0.000000e+000 -1.000000e+000  -0.000000e+000
    outer loop
      vertex -2.907295e+001 -1.500000e+000  2.853169e+000
      vertex -3.000000e+001 -1.500000e+000  5.000000e+000
      vertex -3.250000e+001 -1.500000e+000  4.330127e+000
    endloop
  endfacet
  facet normal  0.000000e+000 -9.999999e-001  0.000000e+000
    outer loop
      vertex -2.907295e+001 -1.500000e+000  2.853169e+000
      vertex -3.250000e+001 -1.500000e+000  4.330127e+000
      vertex -3.092705e+001 -1.500000e+000  2.853169e+000
    endloop
  endfacet
  facet normal  0.000000e+000 -1.000000e+000  0.000000e+000
    outer loop
      vertex -9.270510e-001 -1.500000e+000  2.853169e+000
      vertex  9.270510e-001 -1.500000e+000  2.853169e+000
      vertex  7.105427e-015 -1.500000e+000  5.000000e+000
    endloop
  endfacet
  facet normal  0.000000e+000 -9.999999e-001  0.000000e+000
    outer loop
      vertex -9.270510e-001 -1.500000e+000  2.853169e+000
      vertex  7.105427e-015 -1.500000e+000  5.000000e+000
      vertex -1.581139e+000 -1.500000e+000  4.743416e+000
    endloop
  endfacet
  facet normal  0.000000e+000 -1.000000e+000  -0.000000e+000
    outer loop
      vertex -9.270510e-001 -1.500000e+000  2.853169e+000
      vertex -1.581139e+000 -1.500000e+000  4.743416e+000
      vertex -3.000000e+000 -1.500000e+000  4.000000e+000
    endloop
  endfacet
  facet normal  0.000000e+000 -1.000000e+000  -0.000000e+000
    outer loop
      vertex -9.270510e-001 -1.500000e+000  2.853169e+000
      vertex -3.000000e+000 -1.500000e+000  4.000000e+000
      vertex -4.418861e+000 -1.500000e+000  3.256583e+000
    endloop
  endfacet
  facet normal  0.000000e+000 -1.000000e+000  -0.000000e+000
    outer loop
      vertex -9.270510e-001 -1.500000e+000  2.853169e+000
      vertex -4.418861e+000 -1.500000e+000  3.256583e+000
      vertex -6.000000e+000 -1.500000e+000  3.000000e+000
    endloop
  endfacet
  facet normal  0.000000e+000 -1.000000e+000  -0.000000e+000
    outer loop
      vertex -2.558114e+001 -1.500000e+000 -3.256583e+000
      vertex -2.907295e+001 -1.500000e+000 -2.853169e+000
      vertex -3.000000e+001 -1.500000e+000 -5.000000e+000
    endloop
  endfacet
  facet normal  0.000000e+000 -1.000000e+000  0.000000e+000
    outer loop
      vertex -3.000000e+001 -1.500000e+000 -5.000000e+000
      vertex -2.907295e+001 -1.500000e+000 -2.853169e+000
      vertex -3.092705e+001 -1.500000e+000 -2.853169e+000
    endloop
  endfacet
  facet normal  0.000000e+000 -1.000000e+000  -0.000000e+000
    outer loop
      vertex -3.000000e+001 -1.500000e+000 -5.000000e+000
      vertex -3.092705e+001 -1.500000e+000 -2.853169e+000
      vertex -3.250000e+001 -1.500000e+000 -4.330127e+000
    endloop
  endfacet
  facet normal  -0.000000e+000 -9.999999e-001  0.000000e+000
    outer loop
      vertex  3.000000e+000 -1.500000e+000  3.673819e-016
      vertex  5.000000e+000 -1.500000e+000  6.123032e-016
      vertex  2.427051e+000 -1.500000e+000  1.763356e+000
    endloop
  endfacet
  facet normal  0.000000e+000 -1.000000e+000  0.000000e+000
    outer loop
      vertex  2.427051e+000 -1.500000e+000  1.763356e+000
      vertex  5.000000e+000 -1.500000e+000  6.123032e-016
      vertex  4.330127e+000 -1.500000e+000  2.500000e+000
    endloop
  endfacet
  facet normal  -0.000000e+000 -1.000000e+000  0.000000e+000
    outer loop
      vertex  2.427051e+000 -1.500000e+000  1.763356e+000
      vertex  4.330127e+000 -1.500000e+000  2.500000e+000
      vertex  9.270510e-001 -1.500000e+000  2.853169e+000
    endloop
  endfacet
  facet normal  0.000000e+000 -1.000000e+000  0.000000e+000
    outer loop
      vertex  9.270510e-001 -1.500000e+000  2.853169e+000
      vertex  4.330127e+000 -1.500000e+000  2.500000e+000
      vertex  2.500000e+000 -1.500000e+000  4.330127e+000
    endloop
  endfacet
  facet normal  -0.000000e+000 -1.000000e+000  0.000000e+000
    outer loop
      vertex  9.270510e-001 -1.500000e+000  2.853169e+000
      vertex  2.500000e+000 -1.500000e+000  4.330127e+000
      vertex  7.105427e-015 -1.500000e+000  5.000000e+000
    endloop
  endfacet
  facet normal  0.000000e+000 -1.000000e+000  0.000000e+000
    outer loop
      vertex  2.500000e+000 -1.500000e+000 -4.330127e+000
      vertex  4.330127e+000 -1.500000e+000 -2.500000e+000
      vertex  9.270510e-001 -1.500000e+000 -2.853169e+000
    endloop
  endfacet
  facet normal  0.000000e+000 -1.000000e+000  0.000000e+000
    outer loop
      vertex  9.270510e-001 -1.500000e+000 -2.853169e+000
      vertex  4.330127e+000 -1.500000e+000 -2.500000e+000
      vertex  2.427051e+000 -1.500000e+000 -1.763356e+000
    endloop
  endfacet
  facet normal  0.000000e+000 -1.000000e+000  0.000000e+000
    outer loop
      vertex  4.330127e+000 -1.500000e+000 -2.500000e+000
      vertex  5.000000e+000 -1.500000e+000  6.123032e-016
      vertex  2.427051e+000 -1.500000e+000 -1.763356e+000
    endloop
  endfacet
  facet normal  0.000000e+000 -9.999999e-001  0.000000e+000
    outer loop
      vertex  2.427051e+000 -1.500000e+000 -1.763356e+000
      vertex  5.000000e+000 -1.500000e+000  6.123032e-016
      vertex  3.000000e+000 -1.500000e+000  3.673819e-016
    endloop
  endfacet
  facet normal  -0.000000e+000 -1.000000e+000  0.000000e+000
    outer loop
      vertex -2.700000e+001 -1.500000e+000  3.673819e-016
      vertex -2.427051e+000 -1.500000e+000  1.763356e+000
      vertex -2.757295e+001 -1.500000e+000  1.763356e+000
    endloop
  endfacet
  facet normal  0.000000e+000 -9.999999e-001  0.000000e+000
    outer loop
      vertex -2.427051e+000 -1.500000e+000  1.763356e+000
      vertex -2.700000e+001 -1.500000e+000  3.673819e-016
      vertex -3.000000e+000 -1.500000e+000  0.000000e+000
    endloop
  endfacet
  facet normal  -0.000000e+000 -9.999999e-001  0.000000e+000
    outer loop
      vertex -3.000000e+000 -1.500000e+000  0.000000e+000
      vertex -2.700000e+001 -1.500000e+000  3.673819e-016
      vertex -2.757295e+001 -1.500000e+000 -1.763356e+000
    endloop
  endfacet
  facet normal  0.000000e+000 -1.000000e+000  0.000000e+000
    outer loop
      vertex -3.000000e+000 -1.500000e+000  0.000000e+000
      vertex -2.757295e+001 -1.500000e+000 -1.763356e+000
      vertex -2.427051e+000 -1.500000e+000 -1.763356e+000
    endloop
  endfacet
  facet normal  -0.000000e+000 -1.000000e+000  0.000000e+000
    outer loop
      vertex -2.427051e+000 -1.500000e+000 -1.763356e+000
      vertex -2.757295e+001 -1.500000e+000 -1.763356e+000
      vertex -2.907295e+001 -1.500000e+000 -2.853169e+000
    endloop
  endfacet
  facet normal  0.000000e+000 -1.000000e+000  0.000000e+000
    outer loop
      vertex -2.427051e+000 -1.500000e+000 -1.763356e+000
      vertex -2.907295e+001 -1.500000e+000 -2.853169e+000
      vertex -9.270510e-001 -1.500000e+000 -2.853169e+000
    endloop
  endfacet
  facet normal  0.000000e+000 -1.000000e+000  0.000000e+000
    outer loop
      vertex -3.250000e+001 -1.500000e+000  4.330127e+000
      vertex -3.433013e+001 -1.500000e+000  2.500000e+000
      vertex -3.092705e+001 -1.500000e+000  2.853169e+000
    endloop
  endfacet
  facet normal  0.000000e+000 -1.000000e+000  0.000000e+000
    outer loop
      vertex -3.092705e+001 -1.500000e+000  2.853169e+000
      vertex -3.433013e+001 -1.500000e+000  2.500000e+000
      vertex -3.500000e+001 -1.500000e+000 -2.342907e-014
    endloop
  endfacet
  facet normal  0.000000e+000 -1.000000e+000  0.000000e+000
    outer loop
      vertex -3.092705e+001 -1.500000e+000  2.853169e+000
      vertex -3.500000e+001 -1.500000e+000 -2.342907e-014
      vertex -3.242705e+001 -1.500000e+000  1.763356e+000
    endloop
  endfacet
  facet normal  0.000000e+000 -9.999999e-001  0.000000e+000
    outer loop
      vertex -3.242705e+001 -1.500000e+000  1.763356e+000
      vertex -3.500000e+001 -1.500000e+000 -2.342907e-014
      vertex -3.300000e+001 -1.500000e+000  0.000000e+000
    endloop
  endfacet
  facet normal  0.000000e+000 -1.000000e+000  0.000000e+000
    outer loop
      vertex -3.300000e+001 -1.500000e+000  0.000000e+000
      vertex -3.500000e+001 -1.500000e+000 -2.342907e-014
      vertex -3.433013e+001 -1.500000e+000 -2.500000e+000
    endloop
  endfacet
  facet normal  0.000000e+000 -1.000000e+000  0.000000e+000
    outer loop
      vertex -3.300000e+001 -1.500000e+000  0.000000e+000
      vertex -3.433013e+001 -1.500000e+000 -2.500000e+000
      vertex -3.242705e+001 -1.500000e+000 -1.763356e+000
    endloop
  endfacet
  facet normal  0.000000e+000  1.000000e+000  -0.000000e+000
    outer loop
      vertex -2.700000e+001  1.500000e+000 -4.000000e+000
      vertex -2.841886e+001  1.500000e+000 -4.743416e+000
      vertex -3.000000e+001  1.500000e+000 -5.000000e+000
    endloop
  endfacet
  facet normal  0.000000e+000  1.000000e+000  0.000000e+000
    outer loop
      vertex -2.700000e+001  1.500000e+000 -4.000000e+000
      vertex -3.000000e+001  1.500000e+000 -5.000000e+000
      vertex -2.558114e+001  1.500000e+000 -3.256583e+000
    endloop
  endfacet
  facet normal  0.000000e+000  1.000000e+000  -0.000000e+000
    outer loop
      vertex -2.400000e+001  1.500000e+000 -3.000000e+000
      vertex -2.558114e+001  1.500000e+000 -3.256583e+000
      vertex -2.907295e+001  1.500000e+000 -2.853169e+000
    endloop
  endfacet
  facet normal  0.000000e+000  1.000000e+000  0.000000e+000
    outer loop
      vertex -3.242705e+001  1.500000e+000 -1.763356e+000
      vertex -3.092705e+001  1.500000e+000 -2.853169e+000
      vertex -3.433013e+001  1.500000e+000 -2.500000e+000
    endloop
  endfacet
  facet normal  0.000000e+000  1.000000e+000  -0.000000e+000
    outer loop
      vertex -3.092705e+001  1.500000e+000 -2.853169e+000
      vertex -3.250000e+001  1.500000e+000 -4.330127e+000
      vertex -3.433013e+001  1.500000e+000 -2.500000e+000
    endloop
  endfacet
  facet normal  0.000000e+000  1.000000e+000  -0.000000e+000
    outer loop
      vertex -6.000000e+000  1.500000e+000 -3.000000e+000
      vertex -2.400000e+001  1.500000e+000 -3.000000e+000
      vertex -2.907295e+001  1.500000e+000 -2.853169e+000
    endloop
  endfacet
  facet normal  -0.000000e+000  1.000000e+000  0.000000e+000
    outer loop
      vertex -6.000000e+000  1.500000e+000 -3.000000e+000
      vertex -2.907295e+001  1.500000e+000 -2.853169e+000
      vertex -9.270510e-001  1.500000e+000 -2.853169e+000
    endloop
  endfacet
  facet normal  0.000000e+000  1.000000e+000  0.000000e+000
    outer loop
      vertex -6.000000e+000  1.500000e+000 -3.000000e+000
      vertex -9.270510e-001  1.500000e+000 -2.853169e+000
      vertex -4.418861e+000  1.500000e+000 -3.256583e+000
    endloop
  endfacet
  facet normal  -0.000000e+000  1.000000e+000  -0.000000e+000
    outer loop
      vertex  1.394163e-013  1.500000e+000 -5.000000e+000
      vertex -1.581139e+000  1.500000e+000 -4.743416e+000
      vertex -3.000000e+000  1.500000e+000 -4.000000e+000
    endloop
  endfacet
  facet normal  -0.000000e+000  1.000000e+000  -0.000000e+000
    outer loop
      vertex  1.394163e-013  1.500000e+000 -5.000000e+000
      vertex -3.000000e+000  1.500000e+000 -4.000000e+000
      vertex -4.418861e+000  1.500000e+000 -3.256583e+000
    endloop
  endfacet
  facet normal  -0.000000e+000  9.999999e-001  0.000000e+000
    outer loop
      vertex  1.394163e-013  1.500000e+000 -5.000000e+000
      vertex -4.418861e+000  1.500000e+000 -3.256583e+000
      vertex -9.270510e-001  1.500000e+000 -2.853169e+000
    endloop
  endfacet
  facet normal  -0.000000e+000  1.000000e+000  0.000000e+000
    outer loop
      vertex  1.394163e-013  1.500000e+000 -5.000000e+000
      vertex -9.270510e-001  1.500000e+000 -2.853169e+000
      vertex  9.270510e-001  1.500000e+000 -2.853169e+000
    endloop
  endfacet
  facet normal  0.000000e+000  1.000000e+000  0.000000e+000
    outer loop
      vertex  1.394163e-013  1.500000e+000 -5.000000e+000
      vertex  9.270510e-001  1.500000e+000 -2.853169e+000
      vertex  2.500000e+000  1.500000e+000 -4.330127e+000
    endloop
  endfacet
  facet normal  0.000000e+000  9.999999e-001  -0.000000e+000
    outer loop
      vertex -2.907295e+001  1.500000e+000  2.853169e+000
      vertex -3.092705e+001  1.500000e+000  2.853169e+000
      vertex -3.250000e+001  1.500000e+000  4.330127e+000
    endloop
  endfacet
  facet normal  -0.000000e+000  1.000000e+000  0.000000e+000
    outer loop
      vertex -2.907295e+001  1.500000e+000  2.853169e+000
      vertex -3.250000e+001  1.500000e+000  4.330127e+000
      vertex -3.000000e+001  1.500000e+000  5.000000e+000
    endloop
  endfacet
  facet normal  0.000000e+000  1.000000e+000  0.000000e+000
    outer loop
      vertex -2.907295e+001  1.500000e+000  2.853169e+000
      vertex -3.000000e+001  1.500000e+000  5.000000e+000
      vertex -2.841886e+001  1.500000e+000  4.743416e+000
    endloop
  endfacet
  facet normal  0.000000e+000  1.000000e+000  0.000000e+000
    outer loop
      vertex -2.907295e+001  1.500000e+000  2.853169e+000
      vertex -2.841886e+001  1.500000e+000  4.743416e+000
      vertex -2.700000e+001  1.500000e+000  4.000000e+000
    endloop
  endfacet
  facet normal  0.000000e+000  1.000000e+000  0.000000e+000
    outer loop
      vertex -2.907295e+001  1.500000e+000  2.853169e+000
      vertex -2.700000e+001  1.500000e+000  4.000000e+000
      vertex -2.558114e+001  1.500000e+000  3.256583e+000
    endloop
  endfacet
  facet normal  0.000000e+000  1.000000e+000  0.000000e+000
    outer loop
      vertex -2.907295e+001  1.500000e+000  2.853169e+000
      vertex -2.558114e+001  1.500000e+000  3.256583e+000
      vertex -2.400000e+001  1.500000e+000  3.000000e+000
    endloop
  endfacet
  facet normal  -0.000000e+000  1.000000e+000  0.000000e+000
    outer loop
      vertex -2.907295e+001  1.500000e+000  2.853169e+000
      vertex -2.400000e+001  1.500000e+000  3.000000e+000
      vertex -6.000000e+000  1.500000e+000  3.000000e+000
    endloop
  endfacet
  facet normal  0.000000e+000  1.000000e+000  0.000000e+000
    outer loop
      vertex -2.907295e+001  1.500000e+000  2.853169e+000
      vertex -6.000000e+000  1.500000e+000  3.000000e+000
      vertex -9.270510e-001  1.500000e+000  2.853169e+000
    endloop
  endfacet
  facet normal  0.000000e+000  1.000000e+000  0.000000e+000
    outer loop
      vertex -2.907295e+001  1.500000e+000  2.853169e+000
      vertex -9.270510e-001  1.500000e+000  2.853169e+000
      vertex -2.427051e+000  1.500000e+000  1.763356e+000
    endloop
  endfacet
  facet normal  0.000000e+000  1.000000e+000  0.000000e+000
    outer loop
      vertex -2.907295e+001  1.500000e+000  2.853169e+000
      vertex -2.427051e+000  1.500000e+000  1.763356e+000
      vertex -2.757295e+001  1.500000e+000  1.763356e+000
    endloop
  endfacet
  facet normal  -0.000000e+000  1.000000e+000  0.000000e+000
    outer loop
      vertex -9.270510e-001  1.500000e+000  2.853169e+000
      vertex -6.000000e+000  1.500000e+000  3.000000e+000
      vertex -4.418861e+000  1.500000e+000  3.256583e+000
    endloop
  endfacet
  facet normal  -0.000000e+000  1.000000e+000  0.000000e+000
    outer loop
      vertex -9.270510e-001  1.500000e+000  2.853169e+000
      vertex -4.418861e+000  1.500000e+000  3.256583e+000
      vertex -3.000000e+000  1.500000e+000  4.000000e+000
    endloop
  endfacet
  facet normal  -0.000000e+000  1.000000e+000  0.000000e+000
    outer loop
      vertex -9.270510e-001  1.500000e+000  2.853169e+000
      vertex -3.000000e+000  1.500000e+000  4.000000e+000
      vertex -1.581139e+000  1.500000e+000  4.743416e+000
    endloop
  endfacet
  facet normal  -0.000000e+000  9.999999e-001  0.000000e+000
    outer loop
      vertex -9.270510e-001  1.500000e+000  2.853169e+000
      vertex -1.581139e+000  1.500000e+000  4.743416e+000
      vertex  1.154632e-014  1.500000e+000  5.000000e+000
    endloop
  endfacet
  facet normal  0.000000e+000  1.000000e+000  0.000000e+000
    outer loop
      vertex -9.270510e-001  1.500000e+000  2.853169e+000
      vertex  1.154632e-014  1.500000e+000  5.000000e+000
      vertex  9.270510e-001  1.500000e+000  2.853169e+000
    endloop
  endfacet
  facet normal  0.000000e+000  1.000000e+000  0.000000e+000
    outer loop
      vertex -3.250000e+001  1.500000e+000 -4.330127e+000
      vertex -3.092705e+001  1.500000e+000 -2.853169e+000
      vertex -3.000000e+001  1.500000e+000 -5.000000e+000
    endloop
  endfacet
  facet normal  0.000000e+000  1.000000e+000  -0.000000e+000
    outer loop
      vertex -3.000000e+001  1.500000e+000 -5.000000e+000
      vertex -3.092705e+001  1.500000e+000 -2.853169e+000
      vertex -2.907295e+001  1.500000e+000 -2.853169e+000
    endloop
  endfacet
  facet normal  0.000000e+000  1.000000e+000  0.000000e+000
    outer loop
      vertex -3.000000e+001  1.500000e+000 -5.000000e+000
      vertex -2.907295e+001  1.500000e+000 -2.853169e+000
      vertex -2.558114e+001  1.500000e+000 -3.256583e+000
    endloop
  endfacet
  facet normal  0.000000e+000  1.000000e+000  0.000000e+000
    outer loop
      vertex  1.154632e-014  1.500000e+000  5.000000e+000
      vertex  2.500000e+000  1.500000e+000  4.330127e+000
      vertex  9.270510e-001  1.500000e+000  2.853169e+000
    endloop
  endfacet
  facet normal  -0.000000e+000  1.000000e+000  0.000000e+000
    outer loop
      vertex  9.270510e-001  1.500000e+000  2.853169e+000
      vertex  2.500000e+000  1.500000e+000  4.330127e+000
      vertex  4.330127e+000  1.500000e+000  2.500000e+000
    endloop
  endfacet
  facet normal  0.000000e+000  1.000000e+000  0.000000e+000
    outer loop
      vertex  9.270510e-001  1.500000e+000  2.853169e+000
      vertex  4.330127e+000  1.500000e+000  2.500000e+000
      vertex  2.427051e+000  1.500000e+000  1.763356e+000
    endloop
  endfacet
  facet normal  -0.000000e+000  1.000000e+000  0.000000e+000
    outer loop
      vertex  2.427051e+000  1.500000e+000  1.763356e+000
      vertex  4.330127e+000  1.500000e+000  2.500000e+000
      vertex  5.000000e+000  1.500000e+000  6.123032e-016
    endloop
  endfacet
  facet normal  0.000000e+000  9.999999e-001  0.000000e+000
    outer loop
      vertex  2.427051e+000  1.500000e+000  1.763356e+000
      vertex  5.000000e+000  1.500000e+000  6.123032e-016
      vertex  3.000000e+000  1.500000e+000  3.673819e-016
    endloop
  endfacet
  facet normal  -0.000000e+000  1.000000e+000  0.000000e+000
    outer loop
      vertex  2.500000e+000  1.500000e+000 -4.330127e+000
      vertex  9.270510e-001  1.500000e+000 -2.853169e+000
      vertex  4.330127e+000  1.500000e+000 -2.500000e+000
    endloop
  endfacet
  facet normal  0.000000e+000  1.000000e+000  0.000000e+000
    outer loop
      vertex  4.330127e+000  1.500000e+000 -2.500000e+000
      vertex  9.270510e-001  1.500000e+000 -2.853169e+000
      vertex  2.427051e+000  1.500000e+000 -1.763356e+000
    endloop
  endfacet
  facet normal  -0.000000e+000  1.000000e+000  0.000000e+000
    outer loop
      vertex  4.330127e+000  1.500000e+000 -2.500000e+000
      vertex  2.427051e+000  1.500000e+000 -1.763356e+000
      vertex  5.000000e+000  1.500000e+000  6.123032e-016
    endloop
  endfacet
  facet normal  0.000000e+000  9.999999e-001  0.000000e+000
    outer loop
      vertex  5.000000e+000  1.500000e+000  6.123032e-016
      vertex  2.427051e+000  1.500000e+000 -1.763356e+000
      vertex  3.000000e+000  1.500000e+000  3.673819e-016
    endloop
  endfacet
  facet normal  0.000000e+000  1.000000e+000  0.000000e+000
    outer loop
      vertex -2.757295e+001  1.500000e+000  1.763356e+000
      vertex -2.427051e+000  1.500000e+000  1.763356e+000
      vertex -2.700000e+001  1.500000e+000  3.673819e-016
    endloop
  endfacet
  facet normal  -0.000000e+000  9.999999e-001  0.000000e+000
    outer loop
      vertex -2.700000e+001  1.500000e+000  3.673819e-016
      vertex -2.427051e+000  1.500000e+000  1.763356e+000
      vertex -3.000000e+000  1.500000e+000  0.000000e+000
    endloop
  endfacet
  facet normal  0.000000e+000  9.999999e-001  0.000000e+000
    outer loop
      vertex -2.700000e+001  1.500000e+000  3.673819e-016
      vertex -3.000000e+000  1.500000e+000  0.000000e+000
      vertex -2.757295e+001  1.500000e+000 -1.763356e+000
    endloop
  endfacet
  facet normal  0.000000e+000  1.000000e+000  0.000000e+000
    outer loop
      vertex -2.757295e+001  1.500000e+000 -1.763356e+000
      vertex -3.000000e+000  1.500000e+000  0.000000e+000
      vertex -2.427051e+000  1.500000e+000 -1.763356e+000
    endloop
  endfacet
  facet normal  0.000000e+000  1.000000e+000  0.000000e+000
    outer loop
      vertex -2.757295e+001  1.500000e+000 -1.763356e+000
      vertex -2.427051e+000  1.500000e+000 -1.763356e+000
      vertex -2.907295e+001  1.500000e+000 -2.853169e+000
    endloop
  endfacet
  facet normal  0.000000e+000  1.000000e+000  0.000000e+000
    outer loop
      vertex -2.907295e+001  1.500000e+000 -2.853169e+000
      vertex -2.427051e+000  1.500000e+000 -1.763356e+000
      vertex -9.270510e-001  1.500000e+000 -2.853169e+000
    endloop
  endfacet
  facet normal  0.000000e+000  1.000000e+000  0.000000e+000
    outer loop
      vertex -3.242705e+001  1.500000e+000  1.763356e+000
      vertex -3.500000e+001  1.500000e+000 -2.342907e-014
      vertex -3.092705e+001  1.500000e+000  2.853169e+000
    endloop
  endfacet
  facet normal  0.000000e+000  1.000000e+000  0.000000e+000
    outer loop
      vertex -3.092705e+001  1.500000e+000  2.853169e+000
      vertex -3.500000e+001  1.500000e+000 -2.342907e-014
      vertex -3.433013e+001  1.500000e+000  2.500000e+000
    endloop
  endfacet
  facet normal  0.000000e+000  1.000000e+000  0.000000e+000
    outer loop
      vertex -3.092705e+001  1.500000e+000  2.853169e+000
      vertex -3.433013e+001  1.500000e+000  2.500000e+000
      vertex -3.250000e+001  1.500000e+000  4.330127e+000
    endloop
  endfacet
  facet normal  0.000000e+000  1.000000e+000  0.000000e+000
    outer loop
      vertex -3.242705e+001  1.500000e+000 -1.763356e+000
      vertex -3.433013e+001  1.500000e+000 -2.500000e+000
      vertex -3.300000e+001  1.500000e+000  0.000000e+000
    endloop
  endfacet
  facet normal  0.000000e+000  1.000000e+000  0.000000e+000
    outer loop
      vertex -3.300000e+001  1.500000e+000  0.000000e+000
      vertex -3.433013e+001  1.500000e+000 -2.500000e+000
      vertex -3.500000e+001  1.500000e+000 -2.342907e-014
    endloop
  endfacet
  facet normal  0.000000e+000  9.999999e-001  0.000000e+000
    outer loop
      vertex -3.300000e+001  1.500000e+000  0.000000e+000
      vertex -3.500000e+001  1.500000e+000 -2.342907e-014
      vertex -3.242705e+001  1.500000e+000  1.763356e+000
    endloop
  endfacet
  facet normal -4.641066e-001  0.000000e+000 -8.857793e-001
    outer loop
      vertex -3.000000e+000 -1.500000e+000 -4.000000e+000
      vertex -4.418861e+000 -1.500000e+000 -3.256583e+000
      vertex -3.000000e+000  1.500000e+000 -4.000000e+000
    endloop
  endfacet
  facet normal -4.641066e-001  0.000000e+000 -8.857793e-001
    outer loop
      vertex -3.000000e+000  1.500000e+000 -4.000000e+000
      vertex -4.418861e+000 -1.500000e+000 -3.256583e+000
      vertex -4.418861e+000  1.500000e+000 -3.256583e+000
    endloop
  endfacet
  facet normal -1.601822e-001  0.000000e+000 -9.870875e-001
    outer loop
      vertex -4.418861e+000 -1.500000e+000 -3.256583e+000
      vertex -6.000000e+000 -1.500000e+000 -3.000000e+000
      vertex -4.418861e+000  1.500000e+000 -3.256583e+000
    endloop
  endfacet
  facet normal -1.601822e-001  0.000000e+000 -9.870875e-001
    outer loop
      vertex -4.418861e+000  1.500000e+000 -3.256583e+000
      vertex -6.000000e+000 -1.500000e+000 -3.000000e+000
      vertex -6.000000e+000  1.500000e+000 -3.000000e+000
    endloop
  endfacet
  facet normal  0.000000e+000  0.000000e+000 -1.000000e+000
    outer loop
      vertex -2.400000e+001 -1.500000e+000 -3.000000e+000
      vertex -2.400000e+001  1.500000e+000 -3.000000e+000
      vertex -6.000000e+000 -1.500000e+000 -3.000000e+000
    endloop
  endfacet
  facet normal  0.000000e+000  0.000000e+000 -1.000000e+000
    outer loop
      vertex -6.000000e+000 -1.500000e+000 -3.000000e+000
      vertex -2.400000e+001  1.500000e+000 -3.000000e+000
      vertex -6.000000e+000  1.500000e+000 -3.000000e+000
    endloop
  endfacet
  facet normal  1.601822e-001  0.000000e+000 -9.870875e-001
    outer loop
      vertex -2.400000e+001 -1.500000e+000 -3.000000e+000
      vertex -2.558114e+001 -1.500000e+000 -3.256583e+000
      vertex -2.400000e+001  1.500000e+000 -3.000000e+000
    endloop
  endfacet
  facet normal  1.601822e-001  0.000000e+000 -9.870875e-001
    outer loop
      vertex -2.400000e+001  1.500000e+000 -3.000000e+000
      vertex -2.558114e+001 -1.500000e+000 -3.256583e+000
      vertex -2.558114e+001  1.500000e+000 -3.256583e+000
    endloop
  endfacet
  facet normal  4.641066e-001  0.000000e+000 -8.857793e-001
    outer loop
      vertex -2.558114e+001 -1.500000e+000 -3.256583e+000
      vertex -2.700000e+001 -1.500000e+000 -4.000000e+000
      vertex -2.558114e+001  1.500000e+000 -3.256583e+000
    endloop
  endfacet
  facet normal  4.641066e-001  0.000000e+000 -8.857793e-001
    outer loop
      vertex -2.558114e+001  1.500000e+000 -3.256583e+000
      vertex -2.700000e+001 -1.500000e+000 -4.000000e+000
      vertex -2.700000e+001  1.500000e+000 -4.000000e+000
    endloop
  endfacet
  facet normal  0.000000e+000  0.000000e+000  1.000000e+000
    outer loop
      vertex -2.400000e+001 -1.500000e+000  3.000000e+000
      vertex -6.000000e+000 -1.500000e+000  3.000000e+000
      vertex -2.400000e+001  1.500000e+000  3.000000e+000
    endloop
  endfacet
  facet normal  -0.000000e+000  0.000000e+000  1.000000e+000
    outer loop
      vertex -2.400000e+001  1.500000e+000  3.000000e+000
      vertex -6.000000e+000 -1.500000e+000  3.000000e+000
      vertex -6.000000e+000  1.500000e+000  3.000000e+000
    endloop
  endfacet
  facet normal -1.601822e-001  0.000000e+000  9.870875e-001
    outer loop
      vertex -6.000000e+000 -1.500000e+000  3.000000e+000
      vertex -4.418861e+000 -1.500000e+000  3.256583e+000
      vertex -6.000000e+000  1.500000e+000  3.000000e+000
    endloop
  endfacet
  facet normal -1.601822e-001  0.000000e+000  9.870875e-001
    outer loop
      vertex -6.000000e+000  1.500000e+000  3.000000e+000
      vertex -4.418861e+000 -1.500000e+000  3.256583e+000
      vertex -4.418861e+000  1.500000e+000  3.256583e+000
    endloop
  endfacet
  facet normal -4.641066e-001  0.000000e+000  8.857793e-001
    outer loop
      vertex -4.418861e+000 -1.500000e+000  3.256583e+000
      vertex -3.000000e+000 -1.500000e+000  4.000000e+000
      vertex -4.418861e+000  1.500000e+000  3.256583e+000
    endloop
  endfacet
  facet normal -4.641066e-001  0.000000e+000  8.857793e-001
    outer loop
      vertex -4.418861e+000  1.500000e+000  3.256583e+000
      vertex -3.000000e+000 -1.500000e+000  4.000000e+000
      vertex -3.000000e+000  1.500000e+000  4.000000e+000
    endloop
  endfacet
  facet normal -5.877852e-001  -0.000000e+000 -8.090170e-001
    outer loop
      vertex -2.907295e+001 -1.500000e+000  2.853169e+000
      vertex -2.757295e+001  1.500000e+000  1.763356e+000
      vertex -2.757295e+001 -1.500000e+000  1.763356e+000
    endloop
  endfacet
  facet normal -9.510566e-001  0.000000e+000 -3.090167e-001
    outer loop
      vertex -2.757295e+001 -1.500000e+000  1.763356e+000
      vertex -2.757295e+001  1.500000e+000  1.763356e+000
      vertex -2.700000e+001  1.500000e+000  3.673819e-016
    endloop
  endfacet
  facet normal -9.510566e-001  -0.000000e+000 -3.090167e-001
    outer loop
      vertex -2.757295e+001 -1.500000e+000  1.763356e+000
      vertex -2.700000e+001  1.500000e+000  3.673819e-016
      vertex -2.700000e+001 -1.500000e+000  3.673819e-016
    endloop
  endfacet
  facet normal -5.877852e-001  0.000000e+000 -8.090170e-001
    outer loop
      vertex -2.757295e+001  1.500000e+000  1.763356e+000
      vertex -2.907295e+001 -1.500000e+000  2.853169e+000
      vertex -2.907295e+001  1.500000e+000  2.853169e+000
    endloop
  endfacet
  facet normal  0.000000e+000  -0.000000e+000 -1.000000e+000
    outer loop
      vertex -2.907295e+001  1.500000e+000  2.853169e+000
      vertex -2.907295e+001 -1.500000e+000  2.853169e+000
      vertex -3.092705e+001 -1.500000e+000  2.853169e+000
    endloop
  endfacet
  facet normal  0.000000e+000  0.000000e+000 -1.000000e+000
    outer loop
      vertex -2.907295e+001  1.500000e+000  2.853169e+000
      vertex -3.092705e+001 -1.500000e+000  2.853169e+000
      vertex -3.092705e+001  1.500000e+000  2.853169e+000
    endloop
  endfacet
  facet normal  5.877852e-001  0.000000e+000 -8.090170e-001
    outer loop
      vertex -3.092705e+001  1.500000e+000  2.853169e+000
      vertex -3.092705e+001 -1.500000e+000  2.853169e+000
      vertex -3.242705e+001 -1.500000e+000  1.763356e+000
    endloop
  endfacet
  facet normal  5.877852e-001  0.000000e+000 -8.090170e-001
    outer loop
      vertex -3.092705e+001  1.500000e+000  2.853169e+000
      vertex -3.242705e+001 -1.500000e+000  1.763356e+000
      vertex -3.242705e+001  1.500000e+000  1.763356e+000
    endloop
  endfacet
  facet normal  9.510566e-001  0.000000e+000 -3.090167e-001
    outer loop
      vertex -3.242705e+001  1.500000e+000  1.763356e+000
      vertex -3.242705e+001 -1.500000e+000  1.763356e+000
      vertex -3.300000e+001 -1.500000e+000  0.000000e+000
    endloop
  endfacet
  facet normal  9.510566e-001  0.000000e+000 -3.090167e-001
    outer loop
      vertex -3.242705e+001  1.500000e+000  1.763356e+000
      vertex -3.300000e+001 -1.500000e+000  0.000000e+000
      vertex -3.300000e+001  1.500000e+000  0.000000e+000
    endloop
  endfacet
  facet normal  5.877852e-001  0.000000e+000  8.090170e-001
    outer loop
      vertex -3.092705e+001 -1.500000e+000 -2.853169e+000
      vertex -3.242705e+001  1.500000e+000 -1.763356e+000
      vertex -3.242705e+001 -1.500000e+000 -1.763356e+000
    endloop
  endfacet
  facet normal  9.510566e-001  -0.000000e+000  3.090167e-001
    outer loop
      vertex -3.242705e+001 -1.500000e+000 -1.763356e+000
      vertex -3.242705e+001  1.500000e+000 -1.763356e+000
      vertex -3.300000e+001  1.500000e+000  0.000000e+000
    endloop
  endfacet
  facet normal  9.510566e-001  0.000000e+000  3.090167e-001
    outer loop
      vertex -3.242705e+001 -1.500000e+000 -1.763356e+000
      vertex -3.300000e+001  1.500000e+000  0.000000e+000
      vertex -3.300000e+001 -1.500000e+000  0.000000e+000
    endloop
  endfacet
  facet normal  5.877852e-001  -0.000000e+000  8.090170e-001
    outer loop
      vertex -3.242705e+001  1.500000e+000 -1.763356e+000
      vertex -3.092705e+001 -1.500000e+000 -2.853169e+000
      vertex -3.092705e+001  1.500000e+000 -2.853169e+000
    endloop
  endfacet
  facet normal  0.000000e+000  0.000000e+000  1.000000e+000
    outer loop
      vertex -3.092705e+001  1.500000e+000 -2.853169e+000
      vertex -3.092705e+001 -1.500000e+000 -2.853169e+000
      vertex -2.907295e+001 -1.500000e+000 -2.853169e+000
    endloop
  endfacet
  facet normal  0.000000e+000  -0.000000e+000  1.000000e+000
    outer loop
      vertex -3.092705e+001  1.500000e+000 -2.853169e+000
      vertex -2.907295e+001 -1.500000e+000 -2.853169e+000
      vertex -2.907295e+001  1.500000e+000 -2.853169e+000
    endloop
  endfacet
  facet normal -5.877852e-001  0.000000e+000  8.090170e-001
    outer loop
      vertex -2.907295e+001  1.500000e+000 -2.853169e+000
      vertex -2.907295e+001 -1.500000e+000 -2.853169e+000
      vertex -2.757295e+001 -1.500000e+000 -1.763356e+000
    endloop
  endfacet
  facet normal -5.877852e-001  0.000000e+000  8.090170e-001
    outer loop
      vertex -2.907295e+001  1.500000e+000 -2.853169e+000
      vertex -2.757295e+001 -1.500000e+000 -1.763356e+000
      vertex -2.757295e+001  1.500000e+000 -1.763356e+000
    endloop
  endfacet
  facet normal -9.510566e-001  0.000000e+000  3.090167e-001
    outer loop
      vertex -2.757295e+001  1.500000e+000 -1.763356e+000
      vertex -2.757295e+001 -1.500000e+000 -1.763356e+000
      vertex -2.700000e+001 -1.500000e+000  3.673819e-016
    endloop
  endfacet
  facet normal -9.510566e-001  0.000000e+000  3.090167e-001
    outer loop
      vertex -2.757295e+001  1.500000e+000 -1.763356e+000
      vertex -2.700000e+001 -1.500000e+000  3.673819e-016
      vertex -2.700000e+001  1.500000e+000  3.673819e-016
    endloop
  endfacet
  facet normal -5.877852e-001  -0.000000e+000 -8.090170e-001
    outer loop
      vertex  9.270510e-001 -1.500000e+000  2.853169e+000
      vertex  2.427051e+000  1.500000e+000  1.763356e+000
      vertex  2.427051e+000 -1.500000e+000  1.763356e+000
    endloop
  endfacet
  facet normal -9.510565e-001  0.000000e+000 -3.090169e-001
    outer loop
      vertex  2.427051e+000 -1.500000e+000  1.763356e+000
      vertex  2.427051e+000  1.500000e+000  1.763356e+000
      vertex  3.000000e+000  1.500000e+000  3.673819e-016
    endloop
  endfacet
  facet normal -9.510565e-001  -0.000000e+000 -3.090169e-001
    outer loop
      vertex  2.427051e+000 -1.500000e+000  1.763356e+000
      vertex  3.000000e+000  1.500000e+000  3.673819e-016
      vertex  3.000000e+000 -1.500000e+000  3.673819e-016
    endloop
  endfacet
  facet normal -5.877852e-001  0.000000e+000 -8.090170e-001
    outer loop
      vertex  2.427051e+000  1.500000e+000  1.763356e+000
      vertex  9.270510e-001 -1.500000e+000  2.853169e+000
      vertex  9.270510e-001  1.500000e+000  2.853169e+000
    endloop
  endfacet
  facet normal  0.000000e+000  -0.000000e+000 -1.000000e+000
    outer loop
      vertex  9.270510e-001  1.500000e+000  2.853169e+000
      vertex  9.270510e-001 -1.500000e+000  2.853169e+000
      vertex -9.270510e-001 -1.500000e+000  2.853169e+000
    endloop
  endfacet
  facet normal  0.000000e+000  0.000000e+000 -1.000000e+000
    outer loop
      vertex  9.270510e-001  1.500000e+000  2.853169e+000
      vertex -9.270510e-001 -1.500000e+000  2.853169e+000
      vertex -9.270510e-001  1.500000e+000  2.853169e+000
    endloop
  endfacet
  facet normal  5.877852e-001  0.000000e+000 -8.090170e-001
    outer loop
      vertex -9.270510e-001  1.500000e+000  2.853169e+000
      vertex -9.270510e-001 -1.500000e+000  2.853169e+000
      vertex -2.427051e+000 -1.500000e+000  1.763356e+000
    endloop
  endfacet
  facet normal  5.877852e-001  0.000000e+000 -8.090170e-001
    outer loop
      vertex -9.270510e-001  1.500000e+000  2.853169e+000
      vertex -2.427051e+000 -1.500000e+000  1.763356e+000
      vertex -2.427051e+000  1.500000e+000  1.763356e+000
    endloop
  endfacet
  facet normal  9.510565e-001  0.000000e+000 -3.090169e-001
    outer loop
      vertex -2.427051e+000  1.500000e+000  1.763356e+000
      vertex -2.427051e+000 -1.500000e+000  1.763356e+000
      vertex -3.000000e+000 -1.500000e+000  0.000000e+000
    endloop
  endfacet
  facet normal  9.510565e-001  0.000000e+000 -3.090169e-001
    outer loop
      vertex -2.427051e+000  1.500000e+000  1.763356e+000
      vertex -3.000000e+000 -1.500000e+000  0.000000e+000
      vertex -3.000000e+000  1.500000e+000  0.000000e+000
    endloop
  endfacet
  facet normal  5.877852e-001  0.000000e+000  8.090170e-001
    outer loop
      vertex -9.270510e-001 -1.500000e+000 -2.853169e+000
      vertex -2.427051e+000  1.500000e+000 -1.763356e+000
      vertex -2.427051e+000 -1.500000e+000 -1.763356e+000
    endloop
  endfacet
  facet normal  9.510565e-001  -0.000000e+000  3.090169e-001
    outer loop
      vertex -2.427051e+000 -1.500000e+000 -1.763356e+000
      vertex -2.427051e+000  1.500000e+000 -1.763356e+000
      vertex -3.000000e+000  1.500000e+000  0.000000e+000
    endloop
  endfacet
  facet normal  9.510565e-001  0.000000e+000  3.090169e-001
    outer loop
      vertex -2.427051e+000 -1.500000e+000 -1.763356e+000
      vertex -3.000000e+000  1.500000e+000  0.000000e+000
      vertex -3.000000e+000 -1.500000e+000  0.000000e+000
    endloop
  endfacet
  facet normal  5.877852e-001  -0.000000e+000  8.090170e-001
    outer loop
      vertex -2.427051e+000  1.500000e+000 -1.763356e+000
      vertex -9.270510e-001 -1.500000e+000 -2.853169e+000
      vertex -9.270510e-001  1.500000e+000 -2.853169e+000
    endloop
  endfacet
  facet normal  0.000000e+000  0.000000e+000  1.000000e+000
    outer loop
      vertex -9.270510e-001  1.500000e+000 -2.853169e+000
      vertex -9.270510e-001 -1.500000e+000 -2.853169e+000
      vertex  9.270510e-001 -1.500000e+000 -2.853169e+000
    endloop
  endfacet
  facet normal  0.000000e+000  -0.000000e+000  1.000000e+000
    outer loop
      vertex -9.270510e-001  1.500000e+000 -2.853169e+000
      vertex  9.270510e-001 -1.500000e+000 -2.853169e+000
      vertex  9.270510e-001  1.500000e+000 -2.853169e+000
    endloop
  endfacet
  facet normal -5.877852e-001  0.000000e+000  8.090170e-001
    outer loop
      vertex  9.270510e-001  1.500000e+000 -2.853169e+000
      vertex  9.270510e-001 -1.500000e+000 -2.853169e+000
      vertex  2.427051e+000 -1.500000e+000 -1.763356e+000
    endloop
  endfacet
  facet normal -5.877852e-001  0.000000e+000  8.090170e-001
    outer loop
      vertex  9.270510e-001  1.500000e+000 -2.853169e+000
      vertex  2.427051e+000 -1.500000e+000 -1.763356e+000
      vertex  2.427051e+000  1.500000e+000 -1.763356e+000
    endloop
  endfacet
  facet normal -9.510565e-001  0.000000e+000  3.090169e-001
    outer loop
      vertex  2.427051e+000  1.500000e+000 -1.763356e+000
      vertex  2.427051e+000 -1.500000e+000 -1.763356e+000
      vertex  3.000000e+000 -1.500000e+000  3.673819e-016
    endloop
  endfacet
  facet normal -9.510565e-001  0.000000e+000  3.090169e-001
    outer loop
      vertex  2.427051e+000  1.500000e+000 -1.763356e+000
      vertex  3.000000e+000 -1.500000e+000  3.673819e-016
      vertex  3.000000e+000  1.500000e+000  3.673819e-016
    endloop
  endfacet
endsolid CATIA STL
