solid CATIA STL
  facet normal  0.000000e+000  9.999999e-001  0.000000e+000
    outer loop
      vertex  9.500000e+001  2.600000e+001  1.500000e+001
      vertex  9.608156e+001  2.600000e+001  1.332870e+001
      vertex  9.250000e+001  2.600000e+001  1.433013e+001
    endloop
  endfacet
  facet normal  0.000000e+000  1.000000e+000  0.000000e+000
    outer loop
      vertex  9.250000e+001  2.600000e+001  1.433013e+001
      vertex  9.608156e+001  2.600000e+001  1.332870e+001
      vertex  9.391844e+001  2.600000e+001  1.332870e+001
    endloop
  endfacet
  facet normal  0.000000e+000  1.000000e+000  0.000000e+000
    outer loop
      vertex  9.250000e+001  2.600000e+001  1.433013e+001
      vertex  9.391844e+001  2.600000e+001  1.332870e+001
      vertex  9.066988e+001  2.600000e+001  1.250000e+001
    endloop
  endfacet
  facet normal  -0.000000e+000  9.999999e-001  0.000000e+000
    outer loop
      vertex  9.066988e+001  2.600000e+001  1.250000e+001
      vertex  9.391844e+001  2.600000e+001  1.332870e+001
      vertex  9.216844e+001  2.600000e+001  1.205725e+001
    endloop
  endfacet
  facet normal  0.000000e+000  1.000000e+000  0.000000e+000
    outer loop
      vertex  9.066988e+001  2.600000e+001  1.250000e+001
      vertex  9.216844e+001  2.600000e+001  1.205725e+001
      vertex  9.000000e+001  2.600000e+001  1.000000e+001
    endloop
  endfacet
  facet normal  0.000000e+000  1.000000e+000  0.000000e+000
    outer loop
      vertex  9.000000e+001  2.600000e+001  1.000000e+001
      vertex  9.216844e+001  2.600000e+001  1.205725e+001
      vertex  9.150000e+001  2.600000e+001  1.000000e+001
    endloop
  endfacet
  facet normal  0.000000e+000  1.000000e+000  0.000000e+000
    outer loop
      vertex  9.000000e+001  2.600000e+001  1.000000e+001
      vertex  9.150000e+001  2.600000e+001  1.000000e+001
      vertex  9.066988e+001  2.600000e+001  7.500000e+000
    endloop
  endfacet
  facet normal  0.000000e+000  1.000000e+000  0.000000e+000
    outer loop
      vertex  9.066988e+001  2.600000e+001  7.500000e+000
      vertex  9.150000e+001  2.600000e+001  1.000000e+001
      vertex  9.216844e+001  2.600000e+001  7.942751e+000
    endloop
  endfacet
  facet normal  0.000000e+000  9.999999e-001  0.000000e+000
    outer loop
      vertex  9.066988e+001  2.600000e+001  7.500000e+000
      vertex  9.216844e+001  2.600000e+001  7.942751e+000
      vertex  9.250000e+001  2.600000e+001  5.669873e+000
    endloop
  endfacet
  facet normal  0.000000e+000  1.000000e+000  -0.000000e+000
    outer loop
      vertex  9.250000e+001  2.600000e+001  5.669873e+000
      vertex  9.216844e+001  2.600000e+001  7.942751e+000
      vertex  9.391844e+001  2.600000e+001  6.671302e+000
    endloop
  endfacet
  facet normal  0.000000e+000  1.000000e+000  0.000000e+000
    outer loop
      vertex  9.250000e+001  2.600000e+001  5.669873e+000
      vertex  9.391844e+001  2.600000e+001  6.671302e+000
      vertex  9.500000e+001  2.600000e+001  5.000000e+000
    endloop
  endfacet
  facet normal  0.000000e+000  1.000000e+000  -0.000000e+000
    outer loop
      vertex  9.500000e+001  2.600000e+001  5.000000e+000
      vertex  9.391844e+001  2.600000e+001  6.671302e+000
      vertex  9.608156e+001  2.600000e+001  6.671302e+000
    endloop
  endfacet
  facet normal  0.000000e+000  1.000000e+000  0.000000e+000
    outer loop
      vertex  9.500000e+001  2.600000e+001  5.000000e+000
      vertex  9.608156e+001  2.600000e+001  6.671302e+000
      vertex  9.750000e+001  2.600000e+001  5.669873e+000
    endloop
  endfacet
  facet normal  -0.000000e+000  1.000000e+000  0.000000e+000
    outer loop
      vertex  9.750000e+001  2.600000e+001  5.669873e+000
      vertex  9.608156e+001  2.600000e+001  6.671302e+000
      vertex  9.933012e+001  2.600000e+001  7.500000e+000
    endloop
  endfacet
  facet normal  0.000000e+000  1.000000e+000  0.000000e+000
    outer loop
      vertex  9.933012e+001  2.600000e+001  7.500000e+000
      vertex  9.608156e+001  2.600000e+001  6.671302e+000
      vertex  9.783156e+001  2.600000e+001  7.942751e+000
    endloop
  endfacet
  facet normal  -0.000000e+000  1.000000e+000  0.000000e+000
    outer loop
      vertex  9.933012e+001  2.600000e+001  7.500000e+000
      vertex  9.783156e+001  2.600000e+001  7.942751e+000
      vertex  1.000000e+002  2.600000e+001  1.000000e+001
    endloop
  endfacet
  facet normal  0.000000e+000  1.000000e+000  0.000000e+000
    outer loop
      vertex  1.000000e+002  2.600000e+001  1.000000e+001
      vertex  9.783156e+001  2.600000e+001  7.942751e+000
      vertex  9.850000e+001  2.600000e+001  1.000000e+001
    endloop
  endfacet
  facet normal  0.000000e+000  1.000000e+000  0.000000e+000
    outer loop
      vertex  1.000000e+002  2.600000e+001  1.000000e+001
      vertex  9.850000e+001  2.600000e+001  1.000000e+001
      vertex  9.933012e+001  2.600000e+001  1.250000e+001
    endloop
  endfacet
  facet normal  0.000000e+000  9.999999e-001  0.000000e+000
    outer loop
      vertex  9.933012e+001  2.600000e+001  1.250000e+001
      vertex  9.850000e+001  2.600000e+001  1.000000e+001
      vertex  9.783156e+001  2.600000e+001  1.205725e+001
    endloop
  endfacet
  facet normal  0.000000e+000  1.000000e+000  -0.000000e+000
    outer loop
      vertex  9.933012e+001  2.600000e+001  1.250000e+001
      vertex  9.783156e+001  2.600000e+001  1.205725e+001
      vertex  9.750000e+001  2.600000e+001  1.433013e+001
    endloop
  endfacet
  facet normal  0.000000e+000  9.999999e-001  0.000000e+000
    outer loop
      vertex  9.750000e+001  2.600000e+001  1.433013e+001
      vertex  9.783156e+001  2.600000e+001  1.205725e+001
      vertex  9.608156e+001  2.600000e+001  1.332870e+001
    endloop
  endfacet
  facet normal  0.000000e+000  9.999999e-001  -0.000000e+000
    outer loop
      vertex  9.750000e+001  2.600000e+001  1.433013e+001
      vertex  9.608156e+001  2.600000e+001  1.332870e+001
      vertex  9.500000e+001  2.600000e+001  1.500000e+001
    endloop
  endfacet
  facet normal  0.000000e+000 -1.000000e+000  -0.000000e+000
    outer loop
      vertex  9.750000e+001  0.000000e+000  5.669873e+000
      vertex  9.608156e+001  0.000000e+000  6.671302e+000
      vertex  9.500000e+001  0.000000e+000  5.000000e+000
    endloop
  endfacet
  facet normal  0.000000e+000 -1.000000e+000  0.000000e+000
    outer loop
      vertex  9.500000e+001  0.000000e+000  5.000000e+000
      vertex  9.608156e+001  0.000000e+000  6.671302e+000
      vertex  9.391844e+001  0.000000e+000  6.671302e+000
    endloop
  endfacet
  facet normal  0.000000e+000 -1.000000e+000  -0.000000e+000
    outer loop
      vertex  9.500000e+001  0.000000e+000  5.000000e+000
      vertex  9.391844e+001  0.000000e+000  6.671302e+000
      vertex  9.250000e+001  0.000000e+000  5.669873e+000
    endloop
  endfacet
  facet normal  0.000000e+000 -1.000000e+000  0.000000e+000
    outer loop
      vertex  9.250000e+001  0.000000e+000  5.669873e+000
      vertex  9.391844e+001  0.000000e+000  6.671302e+000
      vertex  9.216844e+001  0.000000e+000  7.942751e+000
    endloop
  endfacet
  facet normal  0.000000e+000 -9.999999e-001  -0.000000e+000
    outer loop
      vertex  9.250000e+001  0.000000e+000  5.669873e+000
      vertex  9.216844e+001  0.000000e+000  7.942751e+000
      vertex  9.066988e+001  0.000000e+000  7.500000e+000
    endloop
  endfacet
  facet normal  0.000000e+000 -1.000000e+000  0.000000e+000
    outer loop
      vertex  9.066988e+001  0.000000e+000  7.500000e+000
      vertex  9.216844e+001  0.000000e+000  7.942751e+000
      vertex  9.150000e+001  0.000000e+000  1.000000e+001
    endloop
  endfacet
  facet normal  -0.000000e+000 -1.000000e+000  0.000000e+000
    outer loop
      vertex  9.066988e+001  0.000000e+000  7.500000e+000
      vertex  9.150000e+001  0.000000e+000  1.000000e+001
      vertex  9.000000e+001  0.000000e+000  1.000000e+001
    endloop
  endfacet
  facet normal  0.000000e+000 -1.000000e+000  0.000000e+000
    outer loop
      vertex  9.000000e+001  0.000000e+000  1.000000e+001
      vertex  9.150000e+001  0.000000e+000  1.000000e+001
      vertex  9.216844e+001  0.000000e+000  1.205725e+001
    endloop
  endfacet
  facet normal  -0.000000e+000 -1.000000e+000  0.000000e+000
    outer loop
      vertex  9.000000e+001  0.000000e+000  1.000000e+001
      vertex  9.216844e+001  0.000000e+000  1.205725e+001
      vertex  9.066988e+001  0.000000e+000  1.250000e+001
    endloop
  endfacet
  facet normal  0.000000e+000 -9.999999e-001  0.000000e+000
    outer loop
      vertex  9.066988e+001  0.000000e+000  1.250000e+001
      vertex  9.216844e+001  0.000000e+000  1.205725e+001
      vertex  9.391844e+001  0.000000e+000  1.332870e+001
    endloop
  endfacet
  facet normal  -0.000000e+000 -1.000000e+000  0.000000e+000
    outer loop
      vertex  9.066988e+001  0.000000e+000  1.250000e+001
      vertex  9.391844e+001  0.000000e+000  1.332870e+001
      vertex  9.250000e+001  0.000000e+000  1.433013e+001
    endloop
  endfacet
  facet normal  0.000000e+000 -1.000000e+000  0.000000e+000
    outer loop
      vertex  9.250000e+001  0.000000e+000  1.433013e+001
      vertex  9.391844e+001  0.000000e+000  1.332870e+001
      vertex  9.608156e+001  0.000000e+000  1.332870e+001
    endloop
  endfacet
  facet normal  0.000000e+000 -9.999999e-001  0.000000e+000
    outer loop
      vertex  9.250000e+001  0.000000e+000  1.433013e+001
      vertex  9.608156e+001  0.000000e+000  1.332870e+001
      vertex  9.500000e+001  0.000000e+000  1.500000e+001
    endloop
  endfacet
  facet normal  0.000000e+000 -9.999999e-001  0.000000e+000
    outer loop
      vertex  9.500000e+001  0.000000e+000  1.500000e+001
      vertex  9.608156e+001  0.000000e+000  1.332870e+001
      vertex  9.750000e+001  0.000000e+000  1.433013e+001
    endloop
  endfacet
  facet normal  0.000000e+000 -9.999999e-001  -0.000000e+000
    outer loop
      vertex  9.750000e+001  0.000000e+000  1.433013e+001
      vertex  9.608156e+001  0.000000e+000  1.332870e+001
      vertex  9.783156e+001  0.000000e+000  1.205725e+001
    endloop
  endfacet
  facet normal  0.000000e+000 -1.000000e+000  0.000000e+000
    outer loop
      vertex  9.750000e+001  0.000000e+000  1.433013e+001
      vertex  9.783156e+001  0.000000e+000  1.205725e+001
      vertex  9.933012e+001  0.000000e+000  1.250000e+001
    endloop
  endfacet
  facet normal  0.000000e+000 -9.999999e-001  0.000000e+000
    outer loop
      vertex  9.933012e+001  0.000000e+000  1.250000e+001
      vertex  9.783156e+001  0.000000e+000  1.205725e+001
      vertex  9.850000e+001  0.000000e+000  1.000000e+001
    endloop
  endfacet
  facet normal  0.000000e+000 -1.000000e+000  0.000000e+000
    outer loop
      vertex  9.933012e+001  0.000000e+000  1.250000e+001
      vertex  9.850000e+001  0.000000e+000  1.000000e+001
      vertex  1.000000e+002  0.000000e+000  1.000000e+001
    endloop
  endfacet
  facet normal  -0.000000e+000 -1.000000e+000  0.000000e+000
    outer loop
      vertex  1.000000e+002  0.000000e+000  1.000000e+001
      vertex  9.850000e+001  0.000000e+000  1.000000e+001
      vertex  9.783156e+001  0.000000e+000  7.942751e+000
    endloop
  endfacet
  facet normal  0.000000e+000 -1.000000e+000  0.000000e+000
    outer loop
      vertex  1.000000e+002  0.000000e+000  1.000000e+001
      vertex  9.783156e+001  0.000000e+000  7.942751e+000
      vertex  9.933012e+001  0.000000e+000  7.500000e+000
    endloop
  endfacet
  facet normal  -0.000000e+000 -1.000000e+000  0.000000e+000
    outer loop
      vertex  9.933012e+001  0.000000e+000  7.500000e+000
      vertex  9.783156e+001  0.000000e+000  7.942751e+000
      vertex  9.608156e+001  0.000000e+000  6.671302e+000
    endloop
  endfacet
  facet normal  0.000000e+000 -1.000000e+000  0.000000e+000
    outer loop
      vertex  9.933012e+001  0.000000e+000  7.500000e+000
      vertex  9.608156e+001  0.000000e+000  6.671302e+000
      vertex  9.750000e+001  0.000000e+000  5.669873e+000
    endloop
  endfacet
  facet normal -5.877855e-001  -0.000000e+000 -8.090169e-001
    outer loop
      vertex  9.608156e+001  0.000000e+000  1.332870e+001
      vertex  9.783156e+001  2.600000e+001  1.205725e+001
      vertex  9.783156e+001  0.000000e+000  1.205725e+001
    endloop
  endfacet
  facet normal -9.510563e-001  0.000000e+000 -3.090176e-001
    outer loop
      vertex  9.783156e+001  0.000000e+000  1.205725e+001
      vertex  9.783156e+001  2.600000e+001  1.205725e+001
      vertex  9.850000e+001  2.600000e+001  1.000000e+001
    endloop
  endfacet
  facet normal -9.510563e-001  -0.000000e+000 -3.090176e-001
    outer loop
      vertex  9.783156e+001  0.000000e+000  1.205725e+001
      vertex  9.850000e+001  2.600000e+001  1.000000e+001
      vertex  9.850000e+001  0.000000e+000  1.000000e+001
    endloop
  endfacet
  facet normal -5.877855e-001  0.000000e+000 -8.090169e-001
    outer loop
      vertex  9.783156e+001  2.600000e+001  1.205725e+001
      vertex  9.608156e+001  0.000000e+000  1.332870e+001
      vertex  9.608156e+001  2.600000e+001  1.332870e+001
    endloop
  endfacet
  facet normal  0.000000e+000  -0.000000e+000 -9.999999e-001
    outer loop
      vertex  9.608156e+001  2.600000e+001  1.332870e+001
      vertex  9.608156e+001  0.000000e+000  1.332870e+001
      vertex  9.391844e+001  0.000000e+000  1.332870e+001
    endloop
  endfacet
  facet normal  0.000000e+000  0.000000e+000 -9.999999e-001
    outer loop
      vertex  9.608156e+001  2.600000e+001  1.332870e+001
      vertex  9.391844e+001  0.000000e+000  1.332870e+001
      vertex  9.391844e+001  2.600000e+001  1.332870e+001
    endloop
  endfacet
  facet normal  5.877855e-001  0.000000e+000 -8.090169e-001
    outer loop
      vertex  9.391844e+001  2.600000e+001  1.332870e+001
      vertex  9.391844e+001  0.000000e+000  1.332870e+001
      vertex  9.216844e+001  0.000000e+000  1.205725e+001
    endloop
  endfacet
  facet normal  5.877855e-001  0.000000e+000 -8.090169e-001
    outer loop
      vertex  9.391844e+001  2.600000e+001  1.332870e+001
      vertex  9.216844e+001  0.000000e+000  1.205725e+001
      vertex  9.216844e+001  2.600000e+001  1.205725e+001
    endloop
  endfacet
  facet normal  9.510563e-001  0.000000e+000 -3.090176e-001
    outer loop
      vertex  9.216844e+001  2.600000e+001  1.205725e+001
      vertex  9.216844e+001  0.000000e+000  1.205725e+001
      vertex  9.150000e+001  0.000000e+000  1.000000e+001
    endloop
  endfacet
  facet normal  9.510563e-001  0.000000e+000 -3.090176e-001
    outer loop
      vertex  9.216844e+001  2.600000e+001  1.205725e+001
      vertex  9.150000e+001  0.000000e+000  1.000000e+001
      vertex  9.150000e+001  2.600000e+001  1.000000e+001
    endloop
  endfacet
  facet normal  5.877852e-001  0.000000e+000  8.090171e-001
    outer loop
      vertex  9.391844e+001  0.000000e+000  6.671302e+000
      vertex  9.216844e+001  2.600000e+001  7.942751e+000
      vertex  9.216844e+001  0.000000e+000  7.942751e+000
    endloop
  endfacet
  facet normal  9.510564e-001  -0.000000e+000  3.090175e-001
    outer loop
      vertex  9.216844e+001  0.000000e+000  7.942751e+000
      vertex  9.216844e+001  2.600000e+001  7.942751e+000
      vertex  9.150000e+001  2.600000e+001  1.000000e+001
    endloop
  endfacet
  facet normal  9.510564e-001  0.000000e+000  3.090175e-001
    outer loop
      vertex  9.216844e+001  0.000000e+000  7.942751e+000
      vertex  9.150000e+001  2.600000e+001  1.000000e+001
      vertex  9.150000e+001  0.000000e+000  1.000000e+001
    endloop
  endfacet
  facet normal  5.877852e-001  -0.000000e+000  8.090171e-001
    outer loop
      vertex  9.216844e+001  2.600000e+001  7.942751e+000
      vertex  9.391844e+001  0.000000e+000  6.671302e+000
      vertex  9.391844e+001  2.600000e+001  6.671302e+000
    endloop
  endfacet
  facet normal  0.000000e+000  0.000000e+000  9.999999e-001
    outer loop
      vertex  9.391844e+001  2.600000e+001  6.671302e+000
      vertex  9.391844e+001  0.000000e+000  6.671302e+000
      vertex  9.608156e+001  0.000000e+000  6.671302e+000
    endloop
  endfacet
  facet normal  0.000000e+000  -0.000000e+000  9.999999e-001
    outer loop
      vertex  9.391844e+001  2.600000e+001  6.671302e+000
      vertex  9.608156e+001  0.000000e+000  6.671302e+000
      vertex  9.608156e+001  2.600000e+001  6.671302e+000
    endloop
  endfacet
  facet normal -5.877852e-001  0.000000e+000  8.090171e-001
    outer loop
      vertex  9.608156e+001  2.600000e+001  6.671302e+000
      vertex  9.608156e+001  0.000000e+000  6.671302e+000
      vertex  9.783156e+001  0.000000e+000  7.942751e+000
    endloop
  endfacet
  facet normal -5.877852e-001  0.000000e+000  8.090171e-001
    outer loop
      vertex  9.608156e+001  2.600000e+001  6.671302e+000
      vertex  9.783156e+001  0.000000e+000  7.942751e+000
      vertex  9.783156e+001  2.600000e+001  7.942751e+000
    endloop
  endfacet
  facet normal -9.510564e-001  0.000000e+000  3.090175e-001
    outer loop
      vertex  9.783156e+001  2.600000e+001  7.942751e+000
      vertex  9.783156e+001  0.000000e+000  7.942751e+000
      vertex  9.850000e+001  0.000000e+000  1.000000e+001
    endloop
  endfacet
  facet normal -9.510564e-001  0.000000e+000  3.090175e-001
    outer loop
      vertex  9.783156e+001  2.600000e+001  7.942751e+000
      vertex  9.850000e+001  0.000000e+000  1.000000e+001
      vertex  9.850000e+001  2.600000e+001  1.000000e+001
    endloop
  endfacet
  facet normal -9.659255e-001  -0.000000e+000 -2.588201e-001
    outer loop
      vertex  9.000000e+001  0.000000e+000  1.000000e+001
      vertex  9.000000e+001  2.600000e+001  1.000000e+001
      vertex  9.066988e+001  0.000000e+000  7.500000e+000
    endloop
  endfacet
  facet normal -9.659255e-001  0.000000e+000 -2.588201e-001
    outer loop
      vertex  9.066988e+001  0.000000e+000  7.500000e+000
      vertex  9.000000e+001  2.600000e+001  1.000000e+001
      vertex  9.066988e+001  2.600000e+001  7.500000e+000
    endloop
  endfacet
  facet normal -7.071074e-001  -0.000000e+000 -7.071061e-001
    outer loop
      vertex  9.066988e+001  0.000000e+000  7.500000e+000
      vertex  9.066988e+001  2.600000e+001  7.500000e+000
      vertex  9.250000e+001  0.000000e+000  5.669873e+000
    endloop
  endfacet
  facet normal -7.071074e-001  0.000000e+000 -7.071061e-001
    outer loop
      vertex  9.250000e+001  0.000000e+000  5.669873e+000
      vertex  9.066988e+001  2.600000e+001  7.500000e+000
      vertex  9.250000e+001  2.600000e+001  5.669873e+000
    endloop
  endfacet
  facet normal -2.588190e-001  -0.000000e+000 -9.659258e-001
    outer loop
      vertex  9.250000e+001  0.000000e+000  5.669873e+000
      vertex  9.250000e+001  2.600000e+001  5.669873e+000
      vertex  9.500000e+001  0.000000e+000  5.000000e+000
    endloop
  endfacet
  facet normal -2.588190e-001  0.000000e+000 -9.659258e-001
    outer loop
      vertex  9.500000e+001  0.000000e+000  5.000000e+000
      vertex  9.250000e+001  2.600000e+001  5.669873e+000
      vertex  9.500000e+001  2.600000e+001  5.000000e+000
    endloop
  endfacet
  facet normal  2.588190e-001  0.000000e+000 -9.659258e-001
    outer loop
      vertex  9.500000e+001  0.000000e+000  5.000000e+000
      vertex  9.500000e+001  2.600000e+001  5.000000e+000
      vertex  9.750000e+001  0.000000e+000  5.669873e+000
    endloop
  endfacet
  facet normal  2.588190e-001  0.000000e+000 -9.659258e-001
    outer loop
      vertex  9.750000e+001  0.000000e+000  5.669873e+000
      vertex  9.500000e+001  2.600000e+001  5.000000e+000
      vertex  9.750000e+001  2.600000e+001  5.669873e+000
    endloop
  endfacet
  facet normal  7.071074e-001  0.000000e+000 -7.071061e-001
    outer loop
      vertex  9.750000e+001  0.000000e+000  5.669873e+000
      vertex  9.750000e+001  2.600000e+001  5.669873e+000
      vertex  9.933012e+001  0.000000e+000  7.500000e+000
    endloop
  endfacet
  facet normal  7.071074e-001  0.000000e+000 -7.071061e-001
    outer loop
      vertex  9.933012e+001  0.000000e+000  7.500000e+000
      vertex  9.750000e+001  2.600000e+001  5.669873e+000
      vertex  9.933012e+001  2.600000e+001  7.500000e+000
    endloop
  endfacet
  facet normal  9.659255e-001  0.000000e+000 -2.588201e-001
    outer loop
      vertex  9.933012e+001  0.000000e+000  7.500000e+000
      vertex  9.933012e+001  2.600000e+001  7.500000e+000
      vertex  1.000000e+002  0.000000e+000  1.000000e+001
    endloop
  endfacet
  facet normal  9.659255e-001  0.000000e+000 -2.588201e-001
    outer loop
      vertex  1.000000e+002  0.000000e+000  1.000000e+001
      vertex  9.933012e+001  2.600000e+001  7.500000e+000
      vertex  1.000000e+002  2.600000e+001  1.000000e+001
    endloop
  endfacet
  facet normal  9.659255e-001  0.000000e+000  2.588201e-001
    outer loop
      vertex  1.000000e+002  0.000000e+000  1.000000e+001
      vertex  1.000000e+002  2.600000e+001  1.000000e+001
      vertex  9.933012e+001  0.000000e+000  1.250000e+001
    endloop
  endfacet
  facet normal  9.659255e-001  -0.000000e+000  2.588201e-001
    outer loop
      vertex  9.933012e+001  0.000000e+000  1.250000e+001
      vertex  1.000000e+002  2.600000e+001  1.000000e+001
      vertex  9.933012e+001  2.600000e+001  1.250000e+001
    endloop
  endfacet
  facet normal  7.071073e-001  0.000000e+000  7.071062e-001
    outer loop
      vertex  9.933012e+001  0.000000e+000  1.250000e+001
      vertex  9.933012e+001  2.600000e+001  1.250000e+001
      vertex  9.750000e+001  0.000000e+000  1.433013e+001
    endloop
  endfacet
  facet normal  7.071073e-001  -0.000000e+000  7.071062e-001
    outer loop
      vertex  9.750000e+001  0.000000e+000  1.433013e+001
      vertex  9.933012e+001  2.600000e+001  1.250000e+001
      vertex  9.750000e+001  2.600000e+001  1.433013e+001
    endloop
  endfacet
  facet normal  2.588191e-001  0.000000e+000  9.659258e-001
    outer loop
      vertex  9.750000e+001  0.000000e+000  1.433013e+001
      vertex  9.750000e+001  2.600000e+001  1.433013e+001
      vertex  9.500000e+001  0.000000e+000  1.500000e+001
    endloop
  endfacet
  facet normal  2.588191e-001  -0.000000e+000  9.659258e-001
    outer loop
      vertex  9.500000e+001  0.000000e+000  1.500000e+001
      vertex  9.750000e+001  2.600000e+001  1.433013e+001
      vertex  9.500000e+001  2.600000e+001  1.500000e+001
    endloop
  endfacet
  facet normal -2.588191e-001  0.000000e+000  9.659258e-001
    outer loop
      vertex  9.500000e+001  0.000000e+000  1.500000e+001
      vertex  9.500000e+001  2.600000e+001  1.500000e+001
      vertex  9.250000e+001  0.000000e+000  1.433013e+001
    endloop
  endfacet
  facet normal -2.588191e-001  0.000000e+000  9.659258e-001
    outer loop
      vertex  9.250000e+001  0.000000e+000  1.433013e+001
      vertex  9.500000e+001  2.600000e+001  1.500000e+001
      vertex  9.250000e+001  2.600000e+001  1.433013e+001
    endloop
  endfacet
  facet normal -7.071073e-001  0.000000e+000  7.071062e-001
    outer loop
      vertex  9.250000e+001  0.000000e+000  1.433013e+001
      vertex  9.250000e+001  2.600000e+001  1.433013e+001
      vertex  9.066988e+001  0.000000e+000  1.250000e+001
    endloop
  endfacet
  facet normal -7.071073e-001  0.000000e+000  7.071062e-001
    outer loop
      vertex  9.066988e+001  0.000000e+000  1.250000e+001
      vertex  9.250000e+001  2.600000e+001  1.433013e+001
      vertex  9.066988e+001  2.600000e+001  1.250000e+001
    endloop
  endfacet
  facet normal -9.659255e-001  0.000000e+000  2.588201e-001
    outer loop
      vertex  9.066988e+001  0.000000e+000  1.250000e+001
      vertex  9.066988e+001  2.600000e+001  1.250000e+001
      vertex  9.000000e+001  0.000000e+000  1.000000e+001
    endloop
  endfacet
  facet normal -9.659255e-001  0.000000e+000  2.588201e-001
    outer loop
      vertex  9.000000e+001  0.000000e+000  1.000000e+001
      vertex  9.066988e+001  2.600000e+001  1.250000e+001
      vertex  9.000000e+001  2.600000e+001  1.000000e+001
    endloop
  endfacet
endsolid CATIA STL
