solid CATIA STL
  facet normal  0.000000e+000  1.000000e+000  0.000000e+000
    outer loop
      vertex -3.100000e+000  3.000000e+000  0.000000e+000
      vertex -2.507953e+000  3.000000e+000 -1.822134e+000
      vertex -3.423635e+001  3.000000e+000 -1.665634e+001
    endloop
  endfacet
  facet normal  0.000000e+000  1.000000e+000  0.000000e+000
    outer loop
      vertex  5.698578e+000  3.000000e+000 -4.065244e+000
      vertex -1.860284e+001  3.000000e+000 -3.813049e+001
      vertex -1.665634e+001  3.000000e+000 -3.423635e+001
    endloop
  endfacet
  facet normal  0.000000e+000  1.000000e+000  0.000000e+000
    outer loop
      vertex  5.698578e+000  3.000000e+000 -4.065244e+000
      vertex -1.665634e+001  3.000000e+000 -3.423635e+001
      vertex -1.600016e+001  3.000000e+000 -2.993257e+001
    endloop
  endfacet
  facet normal  0.000000e+000  9.999999e-001  0.000000e+000
    outer loop
      vertex  5.698578e+000  3.000000e+000 -4.065244e+000
      vertex -1.600016e+001  3.000000e+000 -2.993257e+001
      vertex -9.579527e-001  3.000000e+000 -2.948275e+000
    endloop
  endfacet
  facet normal  -0.000000e+000  1.000000e+000  0.000000e+000
    outer loop
      vertex  5.698578e+000  3.000000e+000 -4.065244e+000
      vertex -9.579527e-001  3.000000e+000 -2.948275e+000
      vertex  9.579527e-001  3.000000e+000 -2.948275e+000
    endloop
  endfacet
  facet normal  -0.000000e+000  1.000000e+000  0.000000e+000
    outer loop
      vertex  5.698578e+000  3.000000e+000 -4.065244e+000
      vertex  9.579527e-001  3.000000e+000 -2.948275e+000
      vertex  2.507953e+000  3.000000e+000 -1.822134e+000
    endloop
  endfacet
  facet normal  -0.000000e+000  1.000000e+000  0.000000e+000
    outer loop
      vertex  5.698578e+000  3.000000e+000 -4.065244e+000
      vertex  2.507953e+000  3.000000e+000 -1.822134e+000
      vertex  6.920032e+000  3.000000e+000 -1.055062e+000
    endloop
  endfacet
  facet normal  0.000000e+000  1.000000e+000  -0.000000e+000
    outer loop
      vertex -9.579527e-001  3.000000e+000 -2.948275e+000
      vertex -1.600016e+001  3.000000e+000 -2.993257e+001
      vertex -1.669777e+001  3.000000e+000 -2.563530e+001
    endloop
  endfacet
  facet normal  0.000000e+000  1.000000e+000  -0.000000e+000
    outer loop
      vertex -9.579527e-001  3.000000e+000 -2.948275e+000
      vertex -1.669777e+001  3.000000e+000 -2.563530e+001
      vertex -1.868169e+001  3.000000e+000 -2.176010e+001
    endloop
  endfacet
  facet normal  0.000000e+000  1.000000e+000  -0.000000e+000
    outer loop
      vertex -9.579527e-001  3.000000e+000 -2.948275e+000
      vertex -1.868169e+001  3.000000e+000 -2.176010e+001
      vertex -2.176010e+001  3.000000e+000 -1.868169e+001
    endloop
  endfacet
  facet normal  0.000000e+000  9.999999e-001  -0.000000e+000
    outer loop
      vertex -9.579527e-001  3.000000e+000 -2.948275e+000
      vertex -2.176010e+001  3.000000e+000 -1.868169e+001
      vertex -2.563530e+001  3.000000e+000 -1.669777e+001
    endloop
  endfacet
  facet normal  0.000000e+000  1.000000e+000  -0.000000e+000
    outer loop
      vertex -9.579527e-001  3.000000e+000 -2.948275e+000
      vertex -2.563530e+001  3.000000e+000 -1.669777e+001
      vertex -2.993257e+001  3.000000e+000 -1.600016e+001
    endloop
  endfacet
  facet normal  0.000000e+000  1.000000e+000  -0.000000e+000
    outer loop
      vertex -9.579527e-001  3.000000e+000 -2.948275e+000
      vertex -2.993257e+001  3.000000e+000 -1.600016e+001
      vertex -3.423635e+001  3.000000e+000 -1.665634e+001
    endloop
  endfacet
  facet normal  0.000000e+000  1.000000e+000  0.000000e+000
    outer loop
      vertex -9.579527e-001  3.000000e+000 -2.948275e+000
      vertex -3.423635e+001  3.000000e+000 -1.665634e+001
      vertex -2.507953e+000  3.000000e+000 -1.822134e+000
    endloop
  endfacet
  facet normal  0.000000e+000  1.000000e+000  0.000000e+000
    outer loop
      vertex -3.813049e+001  3.000000e+000 -1.860284e+001
      vertex -4.065244e+000  3.000000e+000  5.698578e+000
      vertex -9.579527e-001  3.000000e+000  2.948275e+000
    endloop
  endfacet
  facet normal  0.000000e+000  1.000000e+000  0.000000e+000
    outer loop
      vertex -3.813049e+001  3.000000e+000 -1.860284e+001
      vertex -9.579527e-001  3.000000e+000  2.948275e+000
      vertex -2.507953e+000  3.000000e+000  1.822134e+000
    endloop
  endfacet
  facet normal  0.000000e+000  1.000000e+000  0.000000e+000
    outer loop
      vertex -3.813049e+001  3.000000e+000 -1.860284e+001
      vertex -2.507953e+000  3.000000e+000  1.822134e+000
      vertex -3.100000e+000  3.000000e+000  0.000000e+000
    endloop
  endfacet
  facet normal  0.000000e+000  1.000000e+000  0.000000e+000
    outer loop
      vertex -3.813049e+001  3.000000e+000 -1.860284e+001
      vertex -3.100000e+000  3.000000e+000  0.000000e+000
      vertex -3.423635e+001  3.000000e+000 -1.665634e+001
    endloop
  endfacet
  facet normal  0.000000e+000  1.000000e+000  0.000000e+000
    outer loop
      vertex -4.065244e+000  3.000000e+000  5.698578e+000
      vertex -1.055062e+000  3.000000e+000  6.920032e+000
      vertex -9.579527e-001  3.000000e+000  2.948275e+000
    endloop
  endfacet
  facet normal  0.000000e+000  1.000000e+000  -0.000000e+000
    outer loop
      vertex -9.579527e-001  3.000000e+000  2.948275e+000
      vertex -1.055062e+000  3.000000e+000  6.920032e+000
      vertex  2.182349e+000  3.000000e+000  6.651116e+000
    endloop
  endfacet
  facet normal  0.000000e+000  1.000000e+000  0.000000e+000
    outer loop
      vertex -9.579527e-001  3.000000e+000  2.948275e+000
      vertex  2.182349e+000  3.000000e+000  6.651116e+000
      vertex  9.579527e-001  3.000000e+000  2.948275e+000
    endloop
  endfacet
  facet normal  0.000000e+000  1.000000e+000  0.000000e+000
    outer loop
      vertex  9.579527e-001  3.000000e+000  2.948275e+000
      vertex  2.182349e+000  3.000000e+000  6.651116e+000
      vertex  4.949748e+000  3.000000e+000  4.949748e+000
    endloop
  endfacet
  facet normal  0.000000e+000  1.000000e+000  0.000000e+000
    outer loop
      vertex  9.579527e-001  3.000000e+000  2.948275e+000
      vertex  4.949748e+000  3.000000e+000  4.949748e+000
      vertex  2.507953e+000  3.000000e+000  1.822134e+000
    endloop
  endfacet
  facet normal  0.000000e+000  9.999999e-001  0.000000e+000
    outer loop
      vertex  2.507953e+000  3.000000e+000  1.822134e+000
      vertex  4.949748e+000  3.000000e+000  4.949748e+000
      vertex  6.651116e+000  3.000000e+000  2.182349e+000
    endloop
  endfacet
  facet normal  0.000000e+000  1.000000e+000  0.000000e+000
    outer loop
      vertex  2.507953e+000  3.000000e+000  1.822134e+000
      vertex  6.651116e+000  3.000000e+000  2.182349e+000
      vertex  3.100000e+000  3.000000e+000  3.796280e-016
    endloop
  endfacet
  facet normal  -0.000000e+000  1.000000e+000  0.000000e+000
    outer loop
      vertex  3.100000e+000  3.000000e+000  3.796280e-016
      vertex  6.651116e+000  3.000000e+000  2.182349e+000
      vertex  6.920032e+000  3.000000e+000 -1.055062e+000
    endloop
  endfacet
  facet normal  0.000000e+000  1.000000e+000  0.000000e+000
    outer loop
      vertex  3.100000e+000  3.000000e+000  3.796280e-016
      vertex  6.920032e+000  3.000000e+000 -1.055062e+000
      vertex  2.507953e+000  3.000000e+000 -1.822134e+000
    endloop
  endfacet
  facet normal  -0.000000e+000 -1.000000e+000  0.000000e+000
    outer loop
      vertex -3.423635e+001  0.000000e+000 -1.665634e+001
      vertex -2.507953e+000  0.000000e+000 -1.822134e+000
      vertex -3.100000e+000  0.000000e+000  0.000000e+000
    endloop
  endfacet
  facet normal  0.000000e+000 -1.000000e+000  0.000000e+000
    outer loop
      vertex  5.698578e+000  0.000000e+000 -4.065244e+000
      vertex  6.920032e+000  0.000000e+000 -1.055062e+000
      vertex  2.507953e+000  0.000000e+000 -1.822134e+000
    endloop
  endfacet
  facet normal  0.000000e+000 -1.000000e+000  -0.000000e+000
    outer loop
      vertex  5.698578e+000  0.000000e+000 -4.065244e+000
      vertex  2.507953e+000  0.000000e+000 -1.822134e+000
      vertex  9.579527e-001  0.000000e+000 -2.948275e+000
    endloop
  endfacet
  facet normal  -0.000000e+000 -1.000000e+000  -0.000000e+000
    outer loop
      vertex  5.698578e+000  0.000000e+000 -4.065244e+000
      vertex  9.579527e-001  0.000000e+000 -2.948275e+000
      vertex -9.579527e-001  0.000000e+000 -2.948275e+000
    endloop
  endfacet
  facet normal  0.000000e+000 -1.000000e+000  -0.000000e+000
    outer loop
      vertex  5.698578e+000  0.000000e+000 -4.065244e+000
      vertex -9.579527e-001  0.000000e+000 -2.948275e+000
      vertex -1.600016e+001  0.000000e+000 -2.993257e+001
    endloop
  endfacet
  facet normal  0.000000e+000 -1.000000e+000  -0.000000e+000
    outer loop
      vertex  5.698578e+000  0.000000e+000 -4.065244e+000
      vertex -1.600016e+001  0.000000e+000 -2.993257e+001
      vertex -1.665634e+001  0.000000e+000 -3.423635e+001
    endloop
  endfacet
  facet normal  0.000000e+000 -9.999999e-001  -0.000000e+000
    outer loop
      vertex  5.698578e+000  0.000000e+000 -4.065244e+000
      vertex -1.665634e+001  0.000000e+000 -3.423635e+001
      vertex -1.860284e+001  0.000000e+000 -3.813049e+001
    endloop
  endfacet
  facet normal  0.000000e+000 -1.000000e+000  -0.000000e+000
    outer loop
      vertex -9.579527e-001  0.000000e+000 -2.948275e+000
      vertex -2.507953e+000  0.000000e+000 -1.822134e+000
      vertex -3.423635e+001  0.000000e+000 -1.665634e+001
    endloop
  endfacet
  facet normal  0.000000e+000 -1.000000e+000  0.000000e+000
    outer loop
      vertex -9.579527e-001  0.000000e+000 -2.948275e+000
      vertex -3.423635e+001  0.000000e+000 -1.665634e+001
      vertex -2.993257e+001  0.000000e+000 -1.600016e+001
    endloop
  endfacet
  facet normal  0.000000e+000 -1.000000e+000  0.000000e+000
    outer loop
      vertex -9.579527e-001  0.000000e+000 -2.948275e+000
      vertex -2.993257e+001  0.000000e+000 -1.600016e+001
      vertex -2.563530e+001  0.000000e+000 -1.669777e+001
    endloop
  endfacet
  facet normal  0.000000e+000 -9.999999e-001  0.000000e+000
    outer loop
      vertex -9.579527e-001  0.000000e+000 -2.948275e+000
      vertex -2.563530e+001  0.000000e+000 -1.669777e+001
      vertex -2.176010e+001  0.000000e+000 -1.868169e+001
    endloop
  endfacet
  facet normal  0.000000e+000 -1.000000e+000  0.000000e+000
    outer loop
      vertex -9.579527e-001  0.000000e+000 -2.948275e+000
      vertex -2.176010e+001  0.000000e+000 -1.868169e+001
      vertex -1.868169e+001  0.000000e+000 -2.176010e+001
    endloop
  endfacet
  facet normal  0.000000e+000 -1.000000e+000  0.000000e+000
    outer loop
      vertex -9.579527e-001  0.000000e+000 -2.948275e+000
      vertex -1.868169e+001  0.000000e+000 -2.176010e+001
      vertex -1.669777e+001  0.000000e+000 -2.563530e+001
    endloop
  endfacet
  facet normal  0.000000e+000 -1.000000e+000  0.000000e+000
    outer loop
      vertex -9.579527e-001  0.000000e+000 -2.948275e+000
      vertex -1.669777e+001  0.000000e+000 -2.563530e+001
      vertex -1.600016e+001  0.000000e+000 -2.993257e+001
    endloop
  endfacet
  facet normal  -0.000000e+000 -1.000000e+000  0.000000e+000
    outer loop
      vertex -3.813049e+001  0.000000e+000 -1.860284e+001
      vertex -3.423635e+001  0.000000e+000 -1.665634e+001
      vertex -3.100000e+000  0.000000e+000  0.000000e+000
    endloop
  endfacet
  facet normal  -0.000000e+000 -9.999999e-001  0.000000e+000
    outer loop
      vertex -3.813049e+001  0.000000e+000 -1.860284e+001
      vertex -3.100000e+000  0.000000e+000  0.000000e+000
      vertex -2.507953e+000  0.000000e+000  1.822134e+000
    endloop
  endfacet
  facet normal  -0.000000e+000 -1.000000e+000  0.000000e+000
    outer loop
      vertex -3.813049e+001  0.000000e+000 -1.860284e+001
      vertex -2.507953e+000  0.000000e+000  1.822134e+000
      vertex -9.579527e-001  0.000000e+000  2.948275e+000
    endloop
  endfacet
  facet normal  -0.000000e+000 -1.000000e+000  0.000000e+000
    outer loop
      vertex -3.813049e+001  0.000000e+000 -1.860284e+001
      vertex -9.579527e-001  0.000000e+000  2.948275e+000
      vertex -4.065244e+000  0.000000e+000  5.698578e+000
    endloop
  endfacet
  facet normal  -0.000000e+000 -1.000000e+000  0.000000e+000
    outer loop
      vertex  2.507953e+000  0.000000e+000 -1.822134e+000
      vertex  6.920032e+000  0.000000e+000 -1.055062e+000
      vertex  3.100000e+000  0.000000e+000  3.796280e-016
    endloop
  endfacet
  facet normal  0.000000e+000 -1.000000e+000  0.000000e+000
    outer loop
      vertex  3.100000e+000  0.000000e+000  3.796280e-016
      vertex  6.920032e+000  0.000000e+000 -1.055062e+000
      vertex  6.651116e+000  0.000000e+000  2.182349e+000
    endloop
  endfacet
  facet normal  0.000000e+000 -1.000000e+000  0.000000e+000
    outer loop
      vertex  3.100000e+000  0.000000e+000  3.796280e-016
      vertex  6.651116e+000  0.000000e+000  2.182349e+000
      vertex  2.507953e+000  0.000000e+000  1.822134e+000
    endloop
  endfacet
  facet normal  0.000000e+000 -9.999999e-001  0.000000e+000
    outer loop
      vertex  2.507953e+000  0.000000e+000  1.822134e+000
      vertex  6.651116e+000  0.000000e+000  2.182349e+000
      vertex  4.949748e+000  0.000000e+000  4.949748e+000
    endloop
  endfacet
  facet normal  0.000000e+000 -1.000000e+000  0.000000e+000
    outer loop
      vertex  2.507953e+000  0.000000e+000  1.822134e+000
      vertex  4.949748e+000  0.000000e+000  4.949748e+000
      vertex  9.579527e-001  0.000000e+000  2.948275e+000
    endloop
  endfacet
  facet normal  0.000000e+000 -1.000000e+000  0.000000e+000
    outer loop
      vertex  9.579527e-001  0.000000e+000  2.948275e+000
      vertex  4.949748e+000  0.000000e+000  4.949748e+000
      vertex  2.182349e+000  0.000000e+000  6.651116e+000
    endloop
  endfacet
  facet normal  0.000000e+000 -1.000000e+000  0.000000e+000
    outer loop
      vertex  9.579527e-001  0.000000e+000  2.948275e+000
      vertex  2.182349e+000  0.000000e+000  6.651116e+000
      vertex -9.579527e-001  0.000000e+000  2.948275e+000
    endloop
  endfacet
  facet normal  0.000000e+000 -1.000000e+000  0.000000e+000
    outer loop
      vertex -9.579527e-001  0.000000e+000  2.948275e+000
      vertex  2.182349e+000  0.000000e+000  6.651116e+000
      vertex -1.055062e+000  0.000000e+000  6.920032e+000
    endloop
  endfacet
  facet normal  0.000000e+000 -1.000000e+000  -0.000000e+000
    outer loop
      vertex -9.579527e-001  0.000000e+000  2.948275e+000
      vertex -1.055062e+000  0.000000e+000  6.920032e+000
      vertex -4.065244e+000  0.000000e+000  5.698578e+000
    endloop
  endfacet
  facet normal -5.877853e-001  -0.000000e+000 -8.090171e-001
    outer loop
      vertex  9.579527e-001  0.000000e+000  2.948275e+000
      vertex  2.507953e+000  3.000000e+000  1.822134e+000
      vertex  2.507953e+000  0.000000e+000  1.822134e+000
    endloop
  endfacet
  facet normal -9.510566e-001  0.000000e+000 -3.090169e-001
    outer loop
      vertex  2.507953e+000  0.000000e+000  1.822134e+000
      vertex  2.507953e+000  3.000000e+000  1.822134e+000
      vertex  3.100000e+000  3.000000e+000  3.796280e-016
    endloop
  endfacet
  facet normal -9.510566e-001  -0.000000e+000 -3.090169e-001
    outer loop
      vertex  2.507953e+000  0.000000e+000  1.822134e+000
      vertex  3.100000e+000  3.000000e+000  3.796280e-016
      vertex  3.100000e+000  0.000000e+000  3.796280e-016
    endloop
  endfacet
  facet normal -5.877853e-001  0.000000e+000 -8.090171e-001
    outer loop
      vertex  2.507953e+000  3.000000e+000  1.822134e+000
      vertex  9.579527e-001  0.000000e+000  2.948275e+000
      vertex  9.579527e-001  3.000000e+000  2.948275e+000
    endloop
  endfacet
  facet normal  0.000000e+000  -0.000000e+000 -1.000000e+000
    outer loop
      vertex  9.579527e-001  3.000000e+000  2.948275e+000
      vertex  9.579527e-001  0.000000e+000  2.948275e+000
      vertex -9.579527e-001  0.000000e+000  2.948275e+000
    endloop
  endfacet
  facet normal  0.000000e+000  0.000000e+000 -1.000000e+000
    outer loop
      vertex  9.579527e-001  3.000000e+000  2.948275e+000
      vertex -9.579527e-001  0.000000e+000  2.948275e+000
      vertex -9.579527e-001  3.000000e+000  2.948275e+000
    endloop
  endfacet
  facet normal  5.877853e-001  0.000000e+000 -8.090171e-001
    outer loop
      vertex -9.579527e-001  3.000000e+000  2.948275e+000
      vertex -9.579527e-001  0.000000e+000  2.948275e+000
      vertex -2.507953e+000  0.000000e+000  1.822134e+000
    endloop
  endfacet
  facet normal  5.877853e-001  0.000000e+000 -8.090171e-001
    outer loop
      vertex -9.579527e-001  3.000000e+000  2.948275e+000
      vertex -2.507953e+000  0.000000e+000  1.822134e+000
      vertex -2.507953e+000  3.000000e+000  1.822134e+000
    endloop
  endfacet
  facet normal  9.510566e-001  0.000000e+000 -3.090169e-001
    outer loop
      vertex -2.507953e+000  3.000000e+000  1.822134e+000
      vertex -2.507953e+000  0.000000e+000  1.822134e+000
      vertex -3.100000e+000  0.000000e+000  0.000000e+000
    endloop
  endfacet
  facet normal  9.510566e-001  0.000000e+000 -3.090169e-001
    outer loop
      vertex -2.507953e+000  3.000000e+000  1.822134e+000
      vertex -3.100000e+000  0.000000e+000  0.000000e+000
      vertex -3.100000e+000  3.000000e+000  0.000000e+000
    endloop
  endfacet
  facet normal  5.877853e-001  0.000000e+000  8.090171e-001
    outer loop
      vertex -9.579527e-001  0.000000e+000 -2.948275e+000
      vertex -2.507953e+000  3.000000e+000 -1.822134e+000
      vertex -2.507953e+000  0.000000e+000 -1.822134e+000
    endloop
  endfacet
  facet normal  9.510566e-001  -0.000000e+000  3.090169e-001
    outer loop
      vertex -2.507953e+000  0.000000e+000 -1.822134e+000
      vertex -2.507953e+000  3.000000e+000 -1.822134e+000
      vertex -3.100000e+000  3.000000e+000  0.000000e+000
    endloop
  endfacet
  facet normal  9.510566e-001  0.000000e+000  3.090169e-001
    outer loop
      vertex -2.507953e+000  0.000000e+000 -1.822134e+000
      vertex -3.100000e+000  3.000000e+000  0.000000e+000
      vertex -3.100000e+000  0.000000e+000  0.000000e+000
    endloop
  endfacet
  facet normal  5.877853e-001  -0.000000e+000  8.090171e-001
    outer loop
      vertex -2.507953e+000  3.000000e+000 -1.822134e+000
      vertex -9.579527e-001  0.000000e+000 -2.948275e+000
      vertex -9.579527e-001  3.000000e+000 -2.948275e+000
    endloop
  endfacet
  facet normal  0.000000e+000  0.000000e+000  1.000000e+000
    outer loop
      vertex -9.579527e-001  3.000000e+000 -2.948275e+000
      vertex -9.579527e-001  0.000000e+000 -2.948275e+000
      vertex  9.579527e-001  0.000000e+000 -2.948275e+000
    endloop
  endfacet
  facet normal  0.000000e+000  -0.000000e+000  1.000000e+000
    outer loop
      vertex -9.579527e-001  3.000000e+000 -2.948275e+000
      vertex  9.579527e-001  0.000000e+000 -2.948275e+000
      vertex  9.579527e-001  3.000000e+000 -2.948275e+000
    endloop
  endfacet
  facet normal -5.877853e-001  0.000000e+000  8.090171e-001
    outer loop
      vertex  9.579527e-001  3.000000e+000 -2.948275e+000
      vertex  9.579527e-001  0.000000e+000 -2.948275e+000
      vertex  2.507953e+000  0.000000e+000 -1.822134e+000
    endloop
  endfacet
  facet normal -5.877853e-001  0.000000e+000  8.090171e-001
    outer loop
      vertex  9.579527e-001  3.000000e+000 -2.948275e+000
      vertex  2.507953e+000  0.000000e+000 -1.822134e+000
      vertex  2.507953e+000  3.000000e+000 -1.822134e+000
    endloop
  endfacet
  facet normal -9.510566e-001  0.000000e+000  3.090169e-001
    outer loop
      vertex  2.507953e+000  3.000000e+000 -1.822134e+000
      vertex  2.507953e+000  0.000000e+000 -1.822134e+000
      vertex  3.100000e+000  0.000000e+000  3.796280e-016
    endloop
  endfacet
  facet normal -9.510566e-001  0.000000e+000  3.090169e-001
    outer loop
      vertex  2.507953e+000  3.000000e+000 -1.822134e+000
      vertex  3.100000e+000  0.000000e+000  3.796280e-016
      vertex  3.100000e+000  3.000000e+000  3.796280e-016
    endloop
  endfacet
  facet normal -5.807492e-001  0.000000e+000  8.140826e-001
    outer loop
      vertex -4.065244e+000  3.000000e+000  5.698578e+000
      vertex -3.813049e+001  3.000000e+000 -1.860284e+001
      vertex -4.065244e+000  0.000000e+000  5.698578e+000
    endloop
  endfacet
  facet normal -5.807492e-001  0.000000e+000  8.140826e-001
    outer loop
      vertex -4.065244e+000  0.000000e+000  5.698578e+000
      vertex -3.813049e+001  3.000000e+000 -1.860284e+001
      vertex -3.813049e+001  0.000000e+000 -1.860284e+001
    endloop
  endfacet
  facet normal -8.901303e-001  -0.000000e+000 -4.557061e-001
    outer loop
      vertex -1.868169e+001  0.000000e+000 -2.176010e+001
      vertex -1.669777e+001  3.000000e+000 -2.563530e+001
      vertex -1.669777e+001  0.000000e+000 -2.563530e+001
    endloop
  endfacet
  facet normal -9.870781e-001  0.000000e+000 -1.602393e-001
    outer loop
      vertex -1.669777e+001  0.000000e+000 -2.563530e+001
      vertex -1.669777e+001  3.000000e+000 -2.563530e+001
      vertex -1.600016e+001  3.000000e+000 -2.993257e+001
    endloop
  endfacet
  facet normal -9.870781e-001  -0.000000e+000 -1.602393e-001
    outer loop
      vertex -1.669777e+001  0.000000e+000 -2.563530e+001
      vertex -1.600016e+001  3.000000e+000 -2.993257e+001
      vertex -1.600016e+001  0.000000e+000 -2.993257e+001
    endloop
  endfacet
  facet normal -9.885760e-001  0.000000e+000  1.507234e-001
    outer loop
      vertex -1.600016e+001  0.000000e+000 -2.993257e+001
      vertex -1.600016e+001  3.000000e+000 -2.993257e+001
      vertex -1.665634e+001  3.000000e+000 -3.423635e+001
    endloop
  endfacet
  facet normal -9.885760e-001  0.000000e+000  1.507234e-001
    outer loop
      vertex -1.600016e+001  0.000000e+000 -2.993257e+001
      vertex -1.665634e+001  3.000000e+000 -3.423635e+001
      vertex -1.665634e+001  0.000000e+000 -3.423635e+001
    endloop
  endfacet
  facet normal -8.944789e-001  0.000000e+000  4.471102e-001
    outer loop
      vertex -1.665634e+001  0.000000e+000 -3.423635e+001
      vertex -1.665634e+001  3.000000e+000 -3.423635e+001
      vertex -1.860284e+001  3.000000e+000 -3.813049e+001
    endloop
  endfacet
  facet normal -8.944789e-001  0.000000e+000  4.471102e-001
    outer loop
      vertex -1.665634e+001  0.000000e+000 -3.423635e+001
      vertex -1.860284e+001  3.000000e+000 -3.813049e+001
      vertex -1.860284e+001  0.000000e+000 -3.813049e+001
    endloop
  endfacet
  facet normal -8.901303e-001  0.000000e+000 -4.557061e-001
    outer loop
      vertex -1.669777e+001  3.000000e+000 -2.563530e+001
      vertex -1.868169e+001  0.000000e+000 -2.176010e+001
      vertex -1.868169e+001  3.000000e+000 -2.176010e+001
    endloop
  endfacet
  facet normal -7.071068e-001  -0.000000e+000 -7.071068e-001
    outer loop
      vertex -1.868169e+001  3.000000e+000 -2.176010e+001
      vertex -1.868169e+001  0.000000e+000 -2.176010e+001
      vertex -2.176010e+001  0.000000e+000 -1.868169e+001
    endloop
  endfacet
  facet normal -7.071068e-001  0.000000e+000 -7.071068e-001
    outer loop
      vertex -1.868169e+001  3.000000e+000 -2.176010e+001
      vertex -2.176010e+001  0.000000e+000 -1.868169e+001
      vertex -2.176010e+001  3.000000e+000 -1.868169e+001
    endloop
  endfacet
  facet normal -4.557061e-001  -0.000000e+000 -8.901303e-001
    outer loop
      vertex -2.176010e+001  3.000000e+000 -1.868169e+001
      vertex -2.176010e+001  0.000000e+000 -1.868169e+001
      vertex -2.563530e+001  0.000000e+000 -1.669777e+001
    endloop
  endfacet
  facet normal -4.557061e-001  0.000000e+000 -8.901303e-001
    outer loop
      vertex -2.176010e+001  3.000000e+000 -1.868169e+001
      vertex -2.563530e+001  0.000000e+000 -1.669777e+001
      vertex -2.563530e+001  3.000000e+000 -1.669777e+001
    endloop
  endfacet
  facet normal -1.602393e-001  -0.000000e+000 -9.870781e-001
    outer loop
      vertex -2.563530e+001  3.000000e+000 -1.669777e+001
      vertex -2.563530e+001  0.000000e+000 -1.669777e+001
      vertex -2.993257e+001  0.000000e+000 -1.600016e+001
    endloop
  endfacet
  facet normal -1.602393e-001  0.000000e+000 -9.870781e-001
    outer loop
      vertex -2.563530e+001  3.000000e+000 -1.669777e+001
      vertex -2.993257e+001  0.000000e+000 -1.600016e+001
      vertex -2.993257e+001  3.000000e+000 -1.600016e+001
    endloop
  endfacet
  facet normal  1.507234e-001  0.000000e+000 -9.885760e-001
    outer loop
      vertex -2.993257e+001  3.000000e+000 -1.600016e+001
      vertex -2.993257e+001  0.000000e+000 -1.600016e+001
      vertex -3.423635e+001  0.000000e+000 -1.665634e+001
    endloop
  endfacet
  facet normal  1.507234e-001  0.000000e+000 -9.885760e-001
    outer loop
      vertex -2.993257e+001  3.000000e+000 -1.600016e+001
      vertex -3.423635e+001  0.000000e+000 -1.665634e+001
      vertex -3.423635e+001  3.000000e+000 -1.665634e+001
    endloop
  endfacet
  facet normal  4.471102e-001  0.000000e+000 -8.944789e-001
    outer loop
      vertex -3.423635e+001  3.000000e+000 -1.665634e+001
      vertex -3.423635e+001  0.000000e+000 -1.665634e+001
      vertex -3.813049e+001  0.000000e+000 -1.860284e+001
    endloop
  endfacet
  facet normal  4.471102e-001  0.000000e+000 -8.944789e-001
    outer loop
      vertex -3.423635e+001  3.000000e+000 -1.665634e+001
      vertex -3.813049e+001  0.000000e+000 -1.860284e+001
      vertex -3.813049e+001  3.000000e+000 -1.860284e+001
    endloop
  endfacet
  facet normal  8.140826e-001  0.000000e+000 -5.807492e-001
    outer loop
      vertex  5.698578e+000  3.000000e+000 -4.065244e+000
      vertex  5.698578e+000  0.000000e+000 -4.065244e+000
      vertex -1.860284e+001  3.000000e+000 -3.813049e+001
    endloop
  endfacet
  facet normal  8.140826e-001  0.000000e+000 -5.807492e-001
    outer loop
      vertex -1.860284e+001  3.000000e+000 -3.813049e+001
      vertex  5.698578e+000  0.000000e+000 -4.065244e+000
      vertex -1.860284e+001  0.000000e+000 -3.813049e+001
    endloop
  endfacet
  facet normal  9.266202e-001  0.000000e+000 -3.759986e-001
    outer loop
      vertex  5.698578e+000  0.000000e+000 -4.065244e+000
      vertex  5.698578e+000  3.000000e+000 -4.065244e+000
      vertex  6.920032e+000  0.000000e+000 -1.055062e+000
    endloop
  endfacet
  facet normal  9.266202e-001  0.000000e+000 -3.759986e-001
    outer loop
      vertex  6.920032e+000  0.000000e+000 -1.055062e+000
      vertex  5.698578e+000  3.000000e+000 -4.065244e+000
      vertex  6.920032e+000  3.000000e+000 -1.055062e+000
    endloop
  endfacet
  facet normal  9.965679e-001  0.000000e+000  8.277993e-002
    outer loop
      vertex  6.920032e+000  0.000000e+000 -1.055062e+000
      vertex  6.920032e+000  3.000000e+000 -1.055062e+000
      vertex  6.651116e+000  0.000000e+000  2.182349e+000
    endloop
  endfacet
  facet normal  9.965679e-001  -0.000000e+000  8.277993e-002
    outer loop
      vertex  6.651116e+000  0.000000e+000  2.182349e+000
      vertex  6.920032e+000  3.000000e+000 -1.055062e+000
      vertex  6.651116e+000  3.000000e+000  2.182349e+000
    endloop
  endfacet
  facet normal  8.518844e-001  0.000000e+000  5.237300e-001
    outer loop
      vertex  6.651116e+000  0.000000e+000  2.182349e+000
      vertex  6.651116e+000  3.000000e+000  2.182349e+000
      vertex  4.949748e+000  0.000000e+000  4.949748e+000
    endloop
  endfacet
  facet normal  8.518844e-001  -0.000000e+000  5.237300e-001
    outer loop
      vertex  4.949748e+000  0.000000e+000  4.949748e+000
      vertex  6.651116e+000  3.000000e+000  2.182349e+000
      vertex  4.949748e+000  3.000000e+000  4.949748e+000
    endloop
  endfacet
  facet normal  5.237300e-001  0.000000e+000  8.518844e-001
    outer loop
      vertex  4.949748e+000  0.000000e+000  4.949748e+000
      vertex  4.949748e+000  3.000000e+000  4.949748e+000
      vertex  2.182349e+000  0.000000e+000  6.651116e+000
    endloop
  endfacet
  facet normal  5.237300e-001  -0.000000e+000  8.518844e-001
    outer loop
      vertex  2.182349e+000  0.000000e+000  6.651116e+000
      vertex  4.949748e+000  3.000000e+000  4.949748e+000
      vertex  2.182349e+000  3.000000e+000  6.651116e+000
    endloop
  endfacet
  facet normal  8.277993e-002  0.000000e+000  9.965679e-001
    outer loop
      vertex  2.182349e+000  0.000000e+000  6.651116e+000
      vertex  2.182349e+000  3.000000e+000  6.651116e+000
      vertex -1.055062e+000  0.000000e+000  6.920032e+000
    endloop
  endfacet
  facet normal  8.277993e-002  -0.000000e+000  9.965679e-001
    outer loop
      vertex -1.055062e+000  0.000000e+000  6.920032e+000
      vertex  2.182349e+000  3.000000e+000  6.651116e+000
      vertex -1.055062e+000  3.000000e+000  6.920032e+000
    endloop
  endfacet
  facet normal -3.759986e-001  0.000000e+000  9.266202e-001
    outer loop
      vertex -1.055062e+000  0.000000e+000  6.920032e+000
      vertex -1.055062e+000  3.000000e+000  6.920032e+000
      vertex -4.065244e+000  0.000000e+000  5.698578e+000
    endloop
  endfacet
  facet normal -3.759986e-001  0.000000e+000  9.266202e-001
    outer loop
      vertex -4.065244e+000  0.000000e+000  5.698578e+000
      vertex -1.055062e+000  3.000000e+000  6.920032e+000
      vertex -4.065244e+000  3.000000e+000  5.698578e+000
    endloop
  endfacet
endsolid CATIA STL
