solid CATIA STL
  facet normal  1.000000e+000  0.000000e+000  0.000000e+000
    outer loop
      vertex  2.200000e+001 -3.350000e+001  0.000000e+000
      vertex  2.200000e+001  3.350000e+001  4.076600e-017
      vertex  2.200000e+001 -3.350000e+001  1.500000e+001
    endloop
  endfacet
  facet normal  1.000000e+000  -0.000000e+000  0.000000e+000
    outer loop
      vertex  2.200000e+001 -3.350000e+001  1.500000e+001
      vertex  2.200000e+001  3.350000e+001  4.076600e-017
      vertex  2.200000e+001  3.350000e+001  1.500000e+001
    endloop
  endfacet
  facet normal -1.000000e+000  0.000000e+000  0.000000e+000
    outer loop
      vertex  2.000000e+001 -3.350000e+001  0.000000e+000
      vertex  2.000000e+001 -3.350000e+001  1.500000e+001
      vertex  2.000000e+001  3.350000e+001  4.076600e-017
    endloop
  endfacet
  facet normal -1.000000e+000  0.000000e+000  0.000000e+000
    outer loop
      vertex  2.000000e+001  3.350000e+001  4.076600e-017
      vertex  2.000000e+001 -3.350000e+001  1.500000e+001
      vertex  2.000000e+001  3.350000e+001  1.500000e+001
    endloop
  endfacet
  facet normal  0.000000e+000  6.084478e-019 -1.000000e+000
    outer loop
      vertex  2.200000e+001 -3.350000e+001  0.000000e+000
      vertex  2.000000e+001 -3.350000e+001  0.000000e+000
      vertex  2.200000e+001  3.350000e+001  4.076600e-017
    endloop
  endfacet
  facet normal  0.000000e+000  6.084478e-019 -1.000000e+000
    outer loop
      vertex  2.200000e+001  3.350000e+001  4.076600e-017
      vertex  2.000000e+001 -3.350000e+001  0.000000e+000
      vertex  2.000000e+001  3.350000e+001  4.076600e-017
    endloop
  endfacet
  facet normal  0.000000e+000 -1.000000e+000  0.000000e+000
    outer loop
      vertex  2.200000e+001 -3.350000e+001  1.500000e+001
      vertex  2.000000e+001 -3.350000e+001  1.500000e+001
      vertex  2.200000e+001 -3.350000e+001  0.000000e+000
    endloop
  endfacet
  facet normal  0.000000e+000 -1.000000e+000  0.000000e+000
    outer loop
      vertex  2.200000e+001 -3.350000e+001  0.000000e+000
      vertex  2.000000e+001 -3.350000e+001  1.500000e+001
      vertex  2.000000e+001 -3.350000e+001  0.000000e+000
    endloop
  endfacet
  facet normal  -0.000000e+000  0.000000e+000  1.000000e+000
    outer loop
      vertex  2.200000e+001  3.350000e+001  1.500000e+001
      vertex  2.000000e+001  3.350000e+001  1.500000e+001
      vertex  2.200000e+001 -3.350000e+001  1.500000e+001
    endloop
  endfacet
  facet normal  0.000000e+000  0.000000e+000  1.000000e+000
    outer loop
      vertex  2.200000e+001 -3.350000e+001  1.500000e+001
      vertex  2.000000e+001  3.350000e+001  1.500000e+001
      vertex  2.000000e+001 -3.350000e+001  1.500000e+001
    endloop
  endfacet
  facet normal  0.000000e+000  1.000000e+000  0.000000e+000
    outer loop
      vertex  2.200000e+001  3.350000e+001  4.076600e-017
      vertex  2.000000e+001  3.350000e+001  4.076600e-017
      vertex  2.200000e+001  3.350000e+001  1.500000e+001
    endloop
  endfacet
  facet normal  0.000000e+000  1.000000e+000  0.000000e+000
    outer loop
      vertex  2.200000e+001  3.350000e+001  1.500000e+001
      vertex  2.000000e+001  3.350000e+001  4.076600e-017
      vertex  2.000000e+001  3.350000e+001  1.500000e+001
    endloop
  endfacet
endsolid CATIA STL
