solid CATIA STL
  facet normal -9.392262e-002 -7.247725e-008 -9.955795e-001
    outer loop
      vertex  6.984091e+001  1.300000e+001 -3.252662e+001
      vertex -2.640444e+001  1.300000e+001 -2.344686e+001
      vertex -9.906026e+000  2.550000e+001 -2.500332e+001
    endloop
  endfacet
  facet normal -9.392259e-002  6.477072e-008 -9.955795e-001
    outer loop
      vertex  6.984091e+001  1.300000e+001 -3.252662e+001
      vertex -9.906026e+000  2.550000e+001 -2.500332e+001
      vertex  5.978454e+001  2.550000e+001 -3.157790e+001
    endloop
  endfacet
  facet normal -9.392247e-002  1.613594e-007 -9.955796e-001
    outer loop
      vertex  6.984091e+001  1.300000e+001 -3.252662e+001
      vertex  5.978454e+001  2.550000e+001 -3.157790e+001
      vertex  6.227349e+001  2.616987e+001 -3.181271e+001
    endloop
  endfacet
  facet normal -9.392253e-002  1.268398e-007 -9.955795e-001
    outer loop
      vertex  6.984091e+001  1.300000e+001 -3.252662e+001
      vertex  6.227349e+001  2.616987e+001 -3.181271e+001
      vertex  6.409553e+001  2.800000e+001 -3.198460e+001
    endloop
  endfacet
  facet normal -9.392270e-002  5.808095e-008 -9.955795e-001
    outer loop
      vertex  6.984091e+001  1.300000e+001 -3.252662e+001
      vertex  6.409553e+001  2.800000e+001 -3.198460e+001
      vertex  6.476244e+001  3.050000e+001 -3.204751e+001
    endloop
  endfacet
  facet normal -9.392291e-002  0.000000e+000 -9.955795e-001
    outer loop
      vertex  6.984091e+001  1.300000e+001 -3.252662e+001
      vertex  6.476244e+001  3.050000e+001 -3.204751e+001
      vertex  6.984091e+001  4.100000e+001 -3.252662e+001
    endloop
  endfacet
  facet normal -9.392262e-002 -9.965629e-008 -9.955794e-001
    outer loop
      vertex -2.640444e+001  4.100000e+001 -2.344686e+001
      vertex  6.984091e+001  4.100000e+001 -3.252662e+001
      vertex  5.978454e+001  3.550000e+001 -3.157790e+001
    endloop
  endfacet
  facet normal -9.392257e-002  3.078740e-007 -9.955794e-001
    outer loop
      vertex -2.640444e+001  4.100000e+001 -2.344686e+001
      vertex  5.978454e+001  3.550000e+001 -3.157790e+001
      vertex -9.906026e+000  3.550000e+001 -2.500332e+001
    endloop
  endfacet
  facet normal -9.392294e-002 -8.606322e-007 -9.955794e-001
    outer loop
      vertex -2.640444e+001  4.100000e+001 -2.344686e+001
      vertex -9.906026e+000  3.550000e+001 -2.500332e+001
      vertex -1.239497e+001  3.483013e+001 -2.476851e+001
    endloop
  endfacet
  facet normal -9.392257e-002 -1.858556e-008 -9.955795e-001
    outer loop
      vertex -2.640444e+001  4.100000e+001 -2.344686e+001
      vertex -1.239497e+001  3.483013e+001 -2.476851e+001
      vertex -1.421701e+001  3.300000e+001 -2.459662e+001
    endloop
  endfacet
  facet normal -9.392249e-002  1.088532e-007 -9.955795e-001
    outer loop
      vertex -2.640444e+001  4.100000e+001 -2.344686e+001
      vertex -1.421701e+001  3.300000e+001 -2.459662e+001
      vertex -1.488392e+001  3.050000e+001 -2.453370e+001
    endloop
  endfacet
  facet normal -9.392259e-002  0.000000e+000 -9.955795e-001
    outer loop
      vertex -2.640444e+001  4.100000e+001 -2.344686e+001
      vertex -1.488392e+001  3.050000e+001 -2.453370e+001
      vertex -2.640444e+001  1.300000e+001 -2.344686e+001
    endloop
  endfacet
  facet normal -9.392275e-002 -7.184543e-008 -9.955794e-001
    outer loop
      vertex  6.984091e+001  4.100000e+001 -3.252662e+001
      vertex  6.476244e+001  3.050000e+001 -3.204751e+001
      vertex  6.409553e+001  3.300000e+001 -3.198460e+001
    endloop
  endfacet
  facet normal -9.392259e-002 -1.913149e-007 -9.955794e-001
    outer loop
      vertex  6.984091e+001  4.100000e+001 -3.252662e+001
      vertex  6.409553e+001  3.300000e+001 -3.198460e+001
      vertex  6.227349e+001  3.483013e+001 -3.181271e+001
    endloop
  endfacet
  facet normal -9.392250e-002 -2.989951e-007 -9.955795e-001
    outer loop
      vertex  6.984091e+001  4.100000e+001 -3.252662e+001
      vertex  6.227349e+001  3.483013e+001 -3.181271e+001
      vertex  5.978454e+001  3.550000e+001 -3.157790e+001
    endloop
  endfacet
  facet normal -9.392245e-002 -9.629730e-008 -9.955796e-001
    outer loop
      vertex -2.640444e+001  1.300000e+001 -2.344686e+001
      vertex -1.488392e+001  3.050000e+001 -2.453370e+001
      vertex -1.421701e+001  2.800000e+001 -2.459662e+001
    endloop
  endfacet
  facet normal -9.392258e-002  1.380981e-008 -9.955795e-001
    outer loop
      vertex -2.640444e+001  1.300000e+001 -2.344686e+001
      vertex -1.421701e+001  2.800000e+001 -2.459662e+001
      vertex -1.239497e+001  2.616987e+001 -2.476851e+001
    endloop
  endfacet
  facet normal -9.392305e-002  5.102941e-007 -9.955795e-001
    outer loop
      vertex -2.640444e+001  1.300000e+001 -2.344686e+001
      vertex -1.239497e+001  2.616987e+001 -2.476851e+001
      vertex -9.906026e+000  2.550000e+001 -2.500332e+001
    endloop
  endfacet
  facet normal  9.392253e-002  0.000000e+000  9.955795e-001
    outer loop
      vertex  7.002876e+001  1.300000e+001 -3.053545e+001
      vertex  7.002876e+001  4.100000e+001 -3.053545e+001
      vertex  6.495028e+001  3.050000e+001 -3.005635e+001
    endloop
  endfacet
  facet normal  9.392251e-002 -6.109060e-009  9.955795e-001
    outer loop
      vertex  7.002876e+001  1.300000e+001 -3.053545e+001
      vertex  6.495028e+001  3.050000e+001 -3.005635e+001
      vertex  6.428337e+001  2.800000e+001 -2.999344e+001
    endloop
  endfacet
  facet normal  9.392258e-002  1.897438e-008  9.955795e-001
    outer loop
      vertex  7.002876e+001  1.300000e+001 -3.053545e+001
      vertex  6.428337e+001  2.800000e+001 -2.999344e+001
      vertex  6.246133e+001  2.616987e+001 -2.982155e+001
    endloop
  endfacet
  facet normal  9.392244e-002 -6.004574e-008  9.955795e-001
    outer loop
      vertex  7.002876e+001  1.300000e+001 -3.053545e+001
      vertex  6.246133e+001  2.616987e+001 -2.982155e+001
      vertex  5.997239e+001  2.550000e+001 -2.958674e+001
    endloop
  endfacet
  facet normal  9.392259e-002  5.847976e-008  9.955795e-001
    outer loop
      vertex  7.002876e+001  1.300000e+001 -3.053545e+001
      vertex  5.997239e+001  2.550000e+001 -2.958674e+001
      vertex -9.718181e+000  2.550000e+001 -2.301216e+001
    endloop
  endfacet
  facet normal  9.392259e-002  9.360489e-008  9.955795e-001
    outer loop
      vertex  7.002876e+001  1.300000e+001 -3.053545e+001
      vertex -9.718181e+000  2.550000e+001 -2.301216e+001
      vertex -2.621660e+001  1.300000e+001 -2.145570e+001
    endloop
  endfacet
  facet normal  9.392260e-002  -0.000000e+000  9.955795e-001
    outer loop
      vertex -2.621660e+001  4.100000e+001 -2.145570e+001
      vertex -2.621660e+001  1.300000e+001 -2.145570e+001
      vertex -1.469608e+001  3.050000e+001 -2.254255e+001
    endloop
  endfacet
  facet normal  9.392302e-002  4.716667e-007  9.955794e-001
    outer loop
      vertex -2.621660e+001  4.100000e+001 -2.145570e+001
      vertex -1.469608e+001  3.050000e+001 -2.254255e+001
      vertex -1.402917e+001  3.300000e+001 -2.260546e+001
    endloop
  endfacet
  facet normal  9.392267e-002 -7.522726e-008  9.955795e-001
    outer loop
      vertex -2.621660e+001  4.100000e+001 -2.145570e+001
      vertex -1.402917e+001  3.300000e+001 -2.260546e+001
      vertex -1.220713e+001  3.483013e+001 -2.277735e+001
    endloop
  endfacet
  facet normal  9.392252e-002 -3.966381e-007  9.955794e-001
    outer loop
      vertex -2.621660e+001  4.100000e+001 -2.145570e+001
      vertex -1.220713e+001  3.483013e+001 -2.277735e+001
      vertex -9.718181e+000  3.550000e+001 -2.301216e+001
    endloop
  endfacet
  facet normal  9.392257e-002 -2.427310e-007  9.955794e-001
    outer loop
      vertex -2.621660e+001  4.100000e+001 -2.145570e+001
      vertex -9.718181e+000  3.550000e+001 -2.301216e+001
      vertex  5.997239e+001  3.550000e+001 -2.958674e+001
    endloop
  endfacet
  facet normal  9.392259e-002 -1.511901e-007  9.955794e-001
    outer loop
      vertex -2.621660e+001  4.100000e+001 -2.145570e+001
      vertex  5.997239e+001  3.550000e+001 -2.958674e+001
      vertex  7.002876e+001  4.100000e+001 -3.053545e+001
    endloop
  endfacet
  facet normal  9.392245e-002  1.112633e-007  9.955795e-001
    outer loop
      vertex  7.002876e+001  4.100000e+001 -3.053545e+001
      vertex  5.997239e+001  3.550000e+001 -2.958674e+001
      vertex  6.246133e+001  3.483013e+001 -2.982155e+001
    endloop
  endfacet
  facet normal  9.392256e-002 -2.861940e-008  9.955794e-001
    outer loop
      vertex  7.002876e+001  4.100000e+001 -3.053545e+001
      vertex  6.246133e+001  3.483013e+001 -2.982155e+001
      vertex  6.428337e+001  3.300000e+001 -2.999344e+001
    endloop
  endfacet
  facet normal  9.392251e-002  7.556832e-009  9.955794e-001
    outer loop
      vertex  7.002876e+001  4.100000e+001 -3.053545e+001
      vertex  6.428337e+001  3.300000e+001 -2.999344e+001
      vertex  6.495028e+001  3.050000e+001 -3.005635e+001
    endloop
  endfacet
  facet normal  9.392248e-002  2.380290e-007  9.955795e-001
    outer loop
      vertex -2.621660e+001  1.300000e+001 -2.145570e+001
      vertex -9.718181e+000  2.550000e+001 -2.301216e+001
      vertex -1.220713e+001  2.616987e+001 -2.277735e+001
    endloop
  endfacet
  facet normal  9.392265e-002  5.589684e-008  9.955795e-001
    outer loop
      vertex -2.621660e+001  1.300000e+001 -2.145570e+001
      vertex -1.220713e+001  2.616987e+001 -2.277735e+001
      vertex -1.402917e+001  2.800000e+001 -2.260546e+001
    endloop
  endfacet
  facet normal  9.392323e-002 -4.172610e-007  9.955794e-001
    outer loop
      vertex -2.621660e+001  1.300000e+001 -2.145570e+001
      vertex -1.402917e+001  2.800000e+001 -2.260546e+001
      vertex -1.469608e+001  3.050000e+001 -2.254255e+001
    endloop
  endfacet
  facet normal  0.000000e+000 -1.000000e+000  0.000000e+000
    outer loop
      vertex -9.906026e+000  3.550000e+001 -2.500332e+001
      vertex  5.978454e+001  3.550000e+001 -3.157790e+001
      vertex -9.718181e+000  3.550000e+001 -2.301216e+001
    endloop
  endfacet
  facet normal  0.000000e+000 -1.000000e+000  0.000000e+000
    outer loop
      vertex -9.718181e+000  3.550000e+001 -2.301216e+001
      vertex  5.978454e+001  3.550000e+001 -3.157790e+001
      vertex  5.997239e+001  3.550000e+001 -2.958674e+001
    endloop
  endfacet
  facet normal -9.616564e-001  2.588178e-001  9.072138e-002
    outer loop
      vertex  6.495028e+001  3.050000e+001 -3.005635e+001
      vertex  6.409553e+001  2.800000e+001 -3.198460e+001
      vertex  6.428337e+001  2.800000e+001 -2.999344e+001
    endloop
  endfacet
  facet normal -7.039805e-001  7.071073e-001  6.641258e-002
    outer loop
      vertex  6.428337e+001  2.800000e+001 -2.999344e+001
      vertex  6.409553e+001  2.800000e+001 -3.198460e+001
      vertex  6.227349e+001  2.616987e+001 -3.181271e+001
    endloop
  endfacet
  facet normal -7.039812e-001  7.071066e-001  6.641399e-002
    outer loop
      vertex  6.428337e+001  2.800000e+001 -2.999344e+001
      vertex  6.227349e+001  2.616987e+001 -3.181271e+001
      vertex  6.246133e+001  2.616987e+001 -2.982155e+001
    endloop
  endfacet
  facet normal -2.576747e-001  9.659259e-001  2.430918e-002
    outer loop
      vertex  6.246133e+001  2.616987e+001 -2.982155e+001
      vertex  6.227349e+001  2.616987e+001 -3.181271e+001
      vertex  5.978454e+001  2.550000e+001 -3.157790e+001
    endloop
  endfacet
  facet normal -2.576747e-001  9.659259e-001  2.430918e-002
    outer loop
      vertex  6.246133e+001  2.616987e+001 -2.982155e+001
      vertex  5.978454e+001  2.550000e+001 -3.157790e+001
      vertex  5.997239e+001  2.550000e+001 -2.958674e+001
    endloop
  endfacet
  facet normal -9.616564e-001  2.588178e-001  9.072138e-002
    outer loop
      vertex  6.409553e+001  2.800000e+001 -3.198460e+001
      vertex  6.495028e+001  3.050000e+001 -3.005635e+001
      vertex  6.476244e+001  3.050000e+001 -3.204751e+001
    endloop
  endfacet
  facet normal -9.616564e-001 -2.588178e-001  9.072138e-002
    outer loop
      vertex  6.476244e+001  3.050000e+001 -3.204751e+001
      vertex  6.495028e+001  3.050000e+001 -3.005635e+001
      vertex  6.428337e+001  3.300000e+001 -2.999344e+001
    endloop
  endfacet
  facet normal -9.616564e-001 -2.588178e-001  9.072138e-002
    outer loop
      vertex  6.476244e+001  3.050000e+001 -3.204751e+001
      vertex  6.428337e+001  3.300000e+001 -2.999344e+001
      vertex  6.409553e+001  3.300000e+001 -3.198460e+001
    endloop
  endfacet
  facet normal -7.039813e-001 -7.071066e-001  6.641265e-002
    outer loop
      vertex  6.409553e+001  3.300000e+001 -3.198460e+001
      vertex  6.428337e+001  3.300000e+001 -2.999344e+001
      vertex  6.246133e+001  3.483013e+001 -2.982155e+001
    endloop
  endfacet
  facet normal -7.039804e-001 -7.071073e-001  6.641392e-002
    outer loop
      vertex  6.409553e+001  3.300000e+001 -3.198460e+001
      vertex  6.246133e+001  3.483013e+001 -2.982155e+001
      vertex  6.227349e+001  3.483013e+001 -3.181271e+001
    endloop
  endfacet
  facet normal -2.576747e-001 -9.659259e-001  2.430918e-002
    outer loop
      vertex  6.227349e+001  3.483013e+001 -3.181271e+001
      vertex  6.246133e+001  3.483013e+001 -2.982155e+001
      vertex  5.997239e+001  3.550000e+001 -2.958674e+001
    endloop
  endfacet
  facet normal -2.576747e-001 -9.659259e-001  2.430918e-002
    outer loop
      vertex  6.227349e+001  3.483013e+001 -3.181271e+001
      vertex  5.997239e+001  3.550000e+001 -2.958674e+001
      vertex  5.978454e+001  3.550000e+001 -3.157790e+001
    endloop
  endfacet
  facet normal  0.000000e+000  1.000000e+000  0.000000e+000
    outer loop
      vertex  5.978454e+001  2.550000e+001 -3.157790e+001
      vertex -9.906026e+000  2.550000e+001 -2.500332e+001
      vertex  5.997239e+001  2.550000e+001 -2.958674e+001
    endloop
  endfacet
  facet normal  0.000000e+000  1.000000e+000  0.000000e+000
    outer loop
      vertex  5.997239e+001  2.550000e+001 -2.958674e+001
      vertex -9.906026e+000  2.550000e+001 -2.500332e+001
      vertex -9.718181e+000  2.550000e+001 -2.301216e+001
    endloop
  endfacet
  facet normal  9.616559e-001 -2.588192e-001 -9.072234e-002
    outer loop
      vertex -1.469608e+001  3.050000e+001 -2.254255e+001
      vertex -1.421701e+001  3.300000e+001 -2.459662e+001
      vertex -1.402917e+001  3.300000e+001 -2.260546e+001
    endloop
  endfacet
  facet normal  7.039812e-001 -7.071066e-001 -6.641338e-002
    outer loop
      vertex -1.402917e+001  3.300000e+001 -2.260546e+001
      vertex -1.421701e+001  3.300000e+001 -2.459662e+001
      vertex -1.239497e+001  3.483013e+001 -2.476851e+001
    endloop
  endfacet
  facet normal  7.039812e-001 -7.071066e-001 -6.641338e-002
    outer loop
      vertex -1.402917e+001  3.300000e+001 -2.260546e+001
      vertex -1.239497e+001  3.483013e+001 -2.476851e+001
      vertex -1.220713e+001  3.483013e+001 -2.277735e+001
    endloop
  endfacet
  facet normal  2.576747e-001 -9.659259e-001 -2.430895e-002
    outer loop
      vertex -1.220713e+001  3.483013e+001 -2.277735e+001
      vertex -1.239497e+001  3.483013e+001 -2.476851e+001
      vertex -9.906026e+000  3.550000e+001 -2.500332e+001
    endloop
  endfacet
  facet normal  2.576747e-001 -9.659259e-001 -2.430893e-002
    outer loop
      vertex -1.220713e+001  3.483013e+001 -2.277735e+001
      vertex -9.906026e+000  3.550000e+001 -2.500332e+001
      vertex -9.718181e+000  3.550000e+001 -2.301216e+001
    endloop
  endfacet
  facet normal  9.616560e-001 -2.588188e-001 -9.072181e-002
    outer loop
      vertex -1.421701e+001  3.300000e+001 -2.459662e+001
      vertex -1.469608e+001  3.050000e+001 -2.254255e+001
      vertex -1.488392e+001  3.050000e+001 -2.453370e+001
    endloop
  endfacet
  facet normal  9.616559e-001  2.588192e-001 -9.072180e-002
    outer loop
      vertex -1.488392e+001  3.050000e+001 -2.453370e+001
      vertex -1.469608e+001  3.050000e+001 -2.254255e+001
      vertex -1.402917e+001  2.800000e+001 -2.260546e+001
    endloop
  endfacet
  facet normal  9.616560e-001  2.588188e-001 -9.072235e-002
    outer loop
      vertex -1.488392e+001  3.050000e+001 -2.453370e+001
      vertex -1.402917e+001  2.800000e+001 -2.260546e+001
      vertex -1.421701e+001  2.800000e+001 -2.459662e+001
    endloop
  endfacet
  facet normal  7.039812e-001  7.071066e-001 -6.641338e-002
    outer loop
      vertex -1.421701e+001  2.800000e+001 -2.459662e+001
      vertex -1.402917e+001  2.800000e+001 -2.260546e+001
      vertex -1.220713e+001  2.616987e+001 -2.277735e+001
    endloop
  endfacet
  facet normal  7.039812e-001  7.071066e-001 -6.641338e-002
    outer loop
      vertex -1.421701e+001  2.800000e+001 -2.459662e+001
      vertex -1.220713e+001  2.616987e+001 -2.277735e+001
      vertex -1.239497e+001  2.616987e+001 -2.476851e+001
    endloop
  endfacet
  facet normal  2.576747e-001  9.659259e-001 -2.430896e-002
    outer loop
      vertex -1.239497e+001  2.616987e+001 -2.476851e+001
      vertex -1.220713e+001  2.616987e+001 -2.277735e+001
      vertex -9.718181e+000  2.550000e+001 -2.301216e+001
    endloop
  endfacet
  facet normal  2.576747e-001  9.659259e-001 -2.430893e-002
    outer loop
      vertex -1.239497e+001  2.616987e+001 -2.476851e+001
      vertex -9.718181e+000  2.550000e+001 -2.301216e+001
      vertex -9.906026e+000  2.550000e+001 -2.500332e+001
    endloop
  endfacet
  facet normal  0.000000e+000  1.000000e+000  0.000000e+000
    outer loop
      vertex  6.984091e+001  4.100000e+001 -3.252662e+001
      vertex -2.640444e+001  4.100000e+001 -2.344686e+001
      vertex  7.002876e+001  4.100000e+001 -3.053545e+001
    endloop
  endfacet
  facet normal  0.000000e+000  1.000000e+000  0.000000e+000
    outer loop
      vertex  7.002876e+001  4.100000e+001 -3.053545e+001
      vertex -2.640444e+001  4.100000e+001 -2.344686e+001
      vertex -2.621660e+001  4.100000e+001 -2.145570e+001
    endloop
  endfacet
  facet normal -9.955795e-001  0.000000e+000  9.392260e-002
    outer loop
      vertex -2.640444e+001  4.100000e+001 -2.344686e+001
      vertex -2.640444e+001  1.300000e+001 -2.344686e+001
      vertex -2.621660e+001  4.100000e+001 -2.145570e+001
    endloop
  endfacet
  facet normal -9.955795e-001  0.000000e+000  9.392260e-002
    outer loop
      vertex -2.621660e+001  4.100000e+001 -2.145570e+001
      vertex -2.640444e+001  1.300000e+001 -2.344686e+001
      vertex -2.621660e+001  1.300000e+001 -2.145570e+001
    endloop
  endfacet
  facet normal  0.000000e+000 -1.000000e+000  0.000000e+000
    outer loop
      vertex -2.640444e+001  1.300000e+001 -2.344686e+001
      vertex  6.984091e+001  1.300000e+001 -3.252662e+001
      vertex -2.621660e+001  1.300000e+001 -2.145570e+001
    endloop
  endfacet
  facet normal  0.000000e+000 -1.000000e+000  0.000000e+000
    outer loop
      vertex -2.621660e+001  1.300000e+001 -2.145570e+001
      vertex  6.984091e+001  1.300000e+001 -3.252662e+001
      vertex  7.002876e+001  1.300000e+001 -3.053545e+001
    endloop
  endfacet
  facet normal  9.955796e-001  0.000000e+000 -9.392156e-002
    outer loop
      vertex  6.984091e+001  1.300000e+001 -3.252662e+001
      vertex  6.984091e+001  4.100000e+001 -3.252662e+001
      vertex  7.002876e+001  1.300000e+001 -3.053545e+001
    endloop
  endfacet
  facet normal  9.955796e-001  0.000000e+000 -9.392156e-002
    outer loop
      vertex  7.002876e+001  1.300000e+001 -3.053545e+001
      vertex  6.984091e+001  4.100000e+001 -3.252662e+001
      vertex  7.002876e+001  4.100000e+001 -3.053545e+001
    endloop
  endfacet
endsolid CATIA STL
