solid CATIA STL
  facet normal  0.000000e+000 -9.510565e-001 -3.090171e-001
    outer loop
      vertex -1.200000e+001 -2.926829e+000 -7.168428e-016
      vertex -2.900000e+001 -2.926829e+000 -7.168428e-016
      vertex -1.200000e+001 -2.367855e+000 -1.720347e+000
    endloop
  endfacet
  facet normal  -0.000000e+000 -9.510565e-001 -3.090171e-001
    outer loop
      vertex -1.200000e+001 -2.367855e+000 -1.720347e+000
      vertex -2.900000e+001 -2.926829e+000 -7.168428e-016
      vertex -2.900000e+001 -2.367855e+000 -1.720347e+000
    endloop
  endfacet
  facet normal  0.000000e+000 -5.877852e-001 -8.090169e-001
    outer loop
      vertex -1.200000e+001 -2.367855e+000 -1.720347e+000
      vertex -2.900000e+001 -2.367855e+000 -1.720347e+000
      vertex -1.200000e+001 -9.044400e-001 -2.783580e+000
    endloop
  endfacet
  facet normal  -0.000000e+000 -5.877852e-001 -8.090169e-001
    outer loop
      vertex -1.200000e+001 -9.044400e-001 -2.783580e+000
      vertex -2.900000e+001 -2.367855e+000 -1.720347e+000
      vertex -2.900000e+001 -9.044400e-001 -2.783580e+000
    endloop
  endfacet
  facet normal  0.000000e+000  0.000000e+000 -1.000000e+000
    outer loop
      vertex -1.200000e+001 -9.044400e-001 -2.783580e+000
      vertex -2.900000e+001 -9.044400e-001 -2.783580e+000
      vertex -1.200000e+001  9.044400e-001 -2.783580e+000
    endloop
  endfacet
  facet normal  -0.000000e+000  0.000000e+000 -1.000000e+000
    outer loop
      vertex -1.200000e+001  9.044400e-001 -2.783580e+000
      vertex -2.900000e+001 -9.044400e-001 -2.783580e+000
      vertex -2.900000e+001  9.044400e-001 -2.783580e+000
    endloop
  endfacet
  facet normal  0.000000e+000  5.877852e-001 -8.090169e-001
    outer loop
      vertex -1.200000e+001  9.044400e-001 -2.783580e+000
      vertex -2.900000e+001  9.044400e-001 -2.783580e+000
      vertex -1.200000e+001  2.367855e+000 -1.720347e+000
    endloop
  endfacet
  facet normal  0.000000e+000  5.877852e-001 -8.090169e-001
    outer loop
      vertex -1.200000e+001  2.367855e+000 -1.720347e+000
      vertex -2.900000e+001  9.044400e-001 -2.783580e+000
      vertex -2.900000e+001  2.367855e+000 -1.720347e+000
    endloop
  endfacet
  facet normal  0.000000e+000  9.510565e-001 -3.090171e-001
    outer loop
      vertex -1.200000e+001  2.367855e+000 -1.720347e+000
      vertex -2.900000e+001  2.367855e+000 -1.720347e+000
      vertex -1.200000e+001  2.926829e+000  3.584214e-016
    endloop
  endfacet
  facet normal  0.000000e+000  9.510565e-001 -3.090171e-001
    outer loop
      vertex -1.200000e+001  2.926829e+000  3.584214e-016
      vertex -2.900000e+001  2.367855e+000 -1.720347e+000
      vertex -2.900000e+001  2.926829e+000  3.584214e-016
    endloop
  endfacet
  facet normal  -0.000000e+000  9.510565e-001  3.090171e-001
    outer loop
      vertex -1.200000e+001  2.926829e+000  3.584214e-016
      vertex -2.900000e+001  2.926829e+000  3.584214e-016
      vertex -1.200000e+001  2.367855e+000  1.720347e+000
    endloop
  endfacet
  facet normal  0.000000e+000  9.510565e-001  3.090171e-001
    outer loop
      vertex -1.200000e+001  2.367855e+000  1.720347e+000
      vertex -2.900000e+001  2.926829e+000  3.584214e-016
      vertex -2.900000e+001  2.367855e+000  1.720347e+000
    endloop
  endfacet
  facet normal  -0.000000e+000  5.877852e-001  8.090169e-001
    outer loop
      vertex -1.200000e+001  2.367855e+000  1.720347e+000
      vertex -2.900000e+001  2.367855e+000  1.720347e+000
      vertex -1.200000e+001  9.044400e-001  2.783580e+000
    endloop
  endfacet
  facet normal  0.000000e+000  5.877852e-001  8.090169e-001
    outer loop
      vertex -1.200000e+001  9.044400e-001  2.783580e+000
      vertex -2.900000e+001  2.367855e+000  1.720347e+000
      vertex -2.900000e+001  9.044400e-001  2.783580e+000
    endloop
  endfacet
  facet normal  -0.000000e+000  0.000000e+000  1.000000e+000
    outer loop
      vertex -1.200000e+001  9.044400e-001  2.783580e+000
      vertex -2.900000e+001  9.044400e-001  2.783580e+000
      vertex -1.200000e+001 -9.044400e-001  2.783580e+000
    endloop
  endfacet
  facet normal  0.000000e+000  0.000000e+000  1.000000e+000
    outer loop
      vertex -1.200000e+001 -9.044400e-001  2.783580e+000
      vertex -2.900000e+001  9.044400e-001  2.783580e+000
      vertex -2.900000e+001 -9.044400e-001  2.783580e+000
    endloop
  endfacet
  facet normal  0.000000e+000 -5.877852e-001  8.090169e-001
    outer loop
      vertex -1.200000e+001 -9.044400e-001  2.783580e+000
      vertex -2.900000e+001 -9.044400e-001  2.783580e+000
      vertex -1.200000e+001 -2.367855e+000  1.720347e+000
    endloop
  endfacet
  facet normal  0.000000e+000 -5.877852e-001  8.090169e-001
    outer loop
      vertex -1.200000e+001 -2.367855e+000  1.720347e+000
      vertex -2.900000e+001 -9.044400e-001  2.783580e+000
      vertex -2.900000e+001 -2.367855e+000  1.720347e+000
    endloop
  endfacet
  facet normal  0.000000e+000 -9.510565e-001  3.090171e-001
    outer loop
      vertex -1.200000e+001 -2.367855e+000  1.720347e+000
      vertex -2.900000e+001 -2.367855e+000  1.720347e+000
      vertex -1.200000e+001 -2.926829e+000 -7.168428e-016
    endloop
  endfacet
  facet normal  0.000000e+000 -9.510565e-001  3.090171e-001
    outer loop
      vertex -1.200000e+001 -2.926829e+000 -7.168428e-016
      vertex -2.900000e+001 -2.367855e+000  1.720347e+000
      vertex -2.900000e+001 -2.926829e+000 -7.168428e-016
    endloop
  endfacet
  facet normal  -0.000000e+000  9.510565e-001  3.090170e-001
    outer loop
      vertex -2.500000e-001  3.000000e+000  3.673819e-016
      vertex -1.200000e+001  3.000000e+000  3.673819e-016
      vertex -2.500000e-001  2.427051e+000  1.763356e+000
    endloop
  endfacet
  facet normal  0.000000e+000  9.510565e-001  3.090170e-001
    outer loop
      vertex -2.500000e-001  2.427051e+000  1.763356e+000
      vertex -1.200000e+001  3.000000e+000  3.673819e-016
      vertex -1.200000e+001  2.427051e+000  1.763356e+000
    endloop
  endfacet
  facet normal  -0.000000e+000  5.877852e-001  8.090170e-001
    outer loop
      vertex -2.500000e-001  2.427051e+000  1.763356e+000
      vertex -1.200000e+001  2.427051e+000  1.763356e+000
      vertex -2.500000e-001  9.270510e-001  2.853169e+000
    endloop
  endfacet
  facet normal  0.000000e+000  5.877852e-001  8.090170e-001
    outer loop
      vertex -2.500000e-001  9.270510e-001  2.853169e+000
      vertex -1.200000e+001  2.427051e+000  1.763356e+000
      vertex -1.200000e+001  9.270510e-001  2.853169e+000
    endloop
  endfacet
  facet normal  -0.000000e+000  0.000000e+000  1.000000e+000
    outer loop
      vertex -2.500000e-001  9.270510e-001  2.853169e+000
      vertex -1.200000e+001  9.270510e-001  2.853169e+000
      vertex -2.500000e-001 -9.270510e-001  2.853169e+000
    endloop
  endfacet
  facet normal  0.000000e+000  0.000000e+000  1.000000e+000
    outer loop
      vertex -2.500000e-001 -9.270510e-001  2.853169e+000
      vertex -1.200000e+001  9.270510e-001  2.853169e+000
      vertex -1.200000e+001 -9.270510e-001  2.853169e+000
    endloop
  endfacet
  facet normal  0.000000e+000 -5.877852e-001  8.090170e-001
    outer loop
      vertex -2.500000e-001 -9.270510e-001  2.853169e+000
      vertex -1.200000e+001 -9.270510e-001  2.853169e+000
      vertex -2.500000e-001 -2.427051e+000  1.763356e+000
    endloop
  endfacet
  facet normal  0.000000e+000 -5.877852e-001  8.090170e-001
    outer loop
      vertex -2.500000e-001 -2.427051e+000  1.763356e+000
      vertex -1.200000e+001 -9.270510e-001  2.853169e+000
      vertex -1.200000e+001 -2.427051e+000  1.763356e+000
    endloop
  endfacet
  facet normal  0.000000e+000 -9.510565e-001  3.090170e-001
    outer loop
      vertex -2.500000e-001 -2.427051e+000  1.763356e+000
      vertex -1.200000e+001 -2.427051e+000  1.763356e+000
      vertex -2.500000e-001 -3.000000e+000  0.000000e+000
    endloop
  endfacet
  facet normal  0.000000e+000 -9.510565e-001  3.090170e-001
    outer loop
      vertex -2.500000e-001 -3.000000e+000  0.000000e+000
      vertex -1.200000e+001 -2.427051e+000  1.763356e+000
      vertex -1.200000e+001 -3.000000e+000  0.000000e+000
    endloop
  endfacet
  facet normal  0.000000e+000 -9.510565e-001 -3.090170e-001
    outer loop
      vertex -2.500000e-001 -3.000000e+000  0.000000e+000
      vertex -1.200000e+001 -3.000000e+000  0.000000e+000
      vertex -2.500000e-001 -2.427051e+000 -1.763356e+000
    endloop
  endfacet
  facet normal  -0.000000e+000 -9.510565e-001 -3.090170e-001
    outer loop
      vertex -2.500000e-001 -2.427051e+000 -1.763356e+000
      vertex -1.200000e+001 -3.000000e+000  0.000000e+000
      vertex -1.200000e+001 -2.427051e+000 -1.763356e+000
    endloop
  endfacet
  facet normal  0.000000e+000 -5.877852e-001 -8.090170e-001
    outer loop
      vertex -2.500000e-001 -2.427051e+000 -1.763356e+000
      vertex -1.200000e+001 -2.427051e+000 -1.763356e+000
      vertex -2.500000e-001 -9.270510e-001 -2.853169e+000
    endloop
  endfacet
  facet normal  -0.000000e+000 -5.877852e-001 -8.090170e-001
    outer loop
      vertex -2.500000e-001 -9.270510e-001 -2.853169e+000
      vertex -1.200000e+001 -2.427051e+000 -1.763356e+000
      vertex -1.200000e+001 -9.270510e-001 -2.853169e+000
    endloop
  endfacet
  facet normal  0.000000e+000  0.000000e+000 -1.000000e+000
    outer loop
      vertex -2.500000e-001 -9.270510e-001 -2.853169e+000
      vertex -1.200000e+001 -9.270510e-001 -2.853169e+000
      vertex -2.500000e-001  9.270510e-001 -2.853169e+000
    endloop
  endfacet
  facet normal  -0.000000e+000  0.000000e+000 -1.000000e+000
    outer loop
      vertex -2.500000e-001  9.270510e-001 -2.853169e+000
      vertex -1.200000e+001 -9.270510e-001 -2.853169e+000
      vertex -1.200000e+001  9.270510e-001 -2.853169e+000
    endloop
  endfacet
  facet normal  0.000000e+000  5.877852e-001 -8.090170e-001
    outer loop
      vertex -2.500000e-001  9.270510e-001 -2.853169e+000
      vertex -1.200000e+001  9.270510e-001 -2.853169e+000
      vertex -2.500000e-001  2.427051e+000 -1.763356e+000
    endloop
  endfacet
  facet normal  0.000000e+000  5.877852e-001 -8.090170e-001
    outer loop
      vertex -2.500000e-001  2.427051e+000 -1.763356e+000
      vertex -1.200000e+001  9.270510e-001 -2.853169e+000
      vertex -1.200000e+001  2.427051e+000 -1.763356e+000
    endloop
  endfacet
  facet normal  0.000000e+000  9.510565e-001 -3.090170e-001
    outer loop
      vertex -2.500000e-001  2.427051e+000 -1.763356e+000
      vertex -1.200000e+001  2.427051e+000 -1.763356e+000
      vertex -2.500000e-001  3.000000e+000  3.673819e-016
    endloop
  endfacet
  facet normal  0.000000e+000  9.510565e-001 -3.090170e-001
    outer loop
      vertex -2.500000e-001  3.000000e+000  3.673819e-016
      vertex -1.200000e+001  2.427051e+000 -1.763356e+000
      vertex -1.200000e+001  3.000000e+000  3.673819e-016
    endloop
  endfacet
  facet normal -1.000000e+000  0.000000e+000  -0.000000e+000
    outer loop
      vertex  0.000000e+000 -2.185000e+000 -3.784531e+000
      vertex  0.000000e+000 -1.004305e+000 -3.090934e+000
      vertex  0.000000e+000  3.078610e-015 -4.370000e+000
    endloop
  endfacet
  facet normal -1.000000e+000  0.000000e+000  0.000000e+000
    outer loop
      vertex  0.000000e+000  3.078610e-015 -4.370000e+000
      vertex  0.000000e+000 -1.004305e+000 -3.090934e+000
      vertex  0.000000e+000  1.004305e+000 -3.090934e+000
    endloop
  endfacet
  facet normal -1.000000e+000  0.000000e+000  -0.000000e+000
    outer loop
      vertex  0.000000e+000  3.078610e-015 -4.370000e+000
      vertex  0.000000e+000  1.004305e+000 -3.090934e+000
      vertex  0.000000e+000  2.185000e+000 -3.784531e+000
    endloop
  endfacet
  facet normal -1.000000e+000  0.000000e+000  0.000000e+000
    outer loop
      vertex  0.000000e+000  2.185000e+000 -3.784531e+000
      vertex  0.000000e+000  1.004305e+000 -3.090934e+000
      vertex  0.000000e+000  2.629305e+000 -1.910302e+000
    endloop
  endfacet
  facet normal -1.000000e+000  0.000000e+000  -0.000000e+000
    outer loop
      vertex  0.000000e+000  2.185000e+000 -3.784531e+000
      vertex  0.000000e+000  2.629305e+000 -1.910302e+000
      vertex  0.000000e+000  3.784531e+000 -2.185000e+000
    endloop
  endfacet
  facet normal -1.000000e+000  0.000000e+000  0.000000e+000
    outer loop
      vertex  0.000000e+000  3.784531e+000 -2.185000e+000
      vertex  0.000000e+000  2.629305e+000 -1.910302e+000
      vertex  0.000000e+000  3.250000e+000  7.954748e-013
    endloop
  endfacet
  facet normal -1.000000e+000  0.000000e+000  0.000000e+000
    outer loop
      vertex  0.000000e+000  3.784531e+000 -2.185000e+000
      vertex  0.000000e+000  3.250000e+000  7.954748e-013
      vertex  0.000000e+000  4.370000e+000  0.000000e+000
    endloop
  endfacet
  facet normal -1.000000e+000  0.000000e+000  0.000000e+000
    outer loop
      vertex  0.000000e+000  4.370000e+000  0.000000e+000
      vertex  0.000000e+000  3.250000e+000  7.954748e-013
      vertex  0.000000e+000  2.629305e+000  1.910302e+000
    endloop
  endfacet
  facet normal -9.999999e-001  0.000000e+000  0.000000e+000
    outer loop
      vertex  0.000000e+000  4.370000e+000  0.000000e+000
      vertex  0.000000e+000  2.629305e+000  1.910302e+000
      vertex  0.000000e+000  3.784531e+000  2.185000e+000
    endloop
  endfacet
  facet normal -9.999999e-001  -0.000000e+000  0.000000e+000
    outer loop
      vertex  0.000000e+000  3.784531e+000  2.185000e+000
      vertex  0.000000e+000  2.629305e+000  1.910302e+000
      vertex  0.000000e+000  1.004305e+000  3.090934e+000
    endloop
  endfacet
  facet normal -9.999999e-001  0.000000e+000  0.000000e+000
    outer loop
      vertex  0.000000e+000  3.784531e+000  2.185000e+000
      vertex  0.000000e+000  1.004305e+000  3.090934e+000
      vertex  0.000000e+000  2.185000e+000  3.784531e+000
    endloop
  endfacet
  facet normal -9.999999e-001  0.000000e+000  0.000000e+000
    outer loop
      vertex  0.000000e+000  2.185000e+000  3.784531e+000
      vertex  0.000000e+000  1.004305e+000  3.090934e+000
      vertex  0.000000e+000 -1.004305e+000  3.090934e+000
    endloop
  endfacet
  facet normal -9.999999e-001  0.000000e+000  0.000000e+000
    outer loop
      vertex  0.000000e+000  2.185000e+000  3.784531e+000
      vertex  0.000000e+000 -1.004305e+000  3.090934e+000
      vertex  0.000000e+000 -7.027585e-016  4.370000e+000
    endloop
  endfacet
  facet normal -1.000000e+000  0.000000e+000  0.000000e+000
    outer loop
      vertex  0.000000e+000 -7.027585e-016  4.370000e+000
      vertex  0.000000e+000 -1.004305e+000  3.090934e+000
      vertex  0.000000e+000 -2.185000e+000  3.784531e+000
    endloop
  endfacet
  facet normal -1.000000e+000  0.000000e+000  -0.000000e+000
    outer loop
      vertex  0.000000e+000 -2.185000e+000  3.784531e+000
      vertex  0.000000e+000 -1.004305e+000  3.090934e+000
      vertex  0.000000e+000 -2.629305e+000  1.910302e+000
    endloop
  endfacet
  facet normal -1.000000e+000  0.000000e+000  0.000000e+000
    outer loop
      vertex  0.000000e+000 -2.185000e+000  3.784531e+000
      vertex  0.000000e+000 -2.629305e+000  1.910302e+000
      vertex  0.000000e+000 -3.784531e+000  2.185000e+000
    endloop
  endfacet
  facet normal -1.000000e+000  0.000000e+000  0.000000e+000
    outer loop
      vertex  0.000000e+000 -3.784531e+000  2.185000e+000
      vertex  0.000000e+000 -2.629305e+000  1.910302e+000
      vertex  0.000000e+000 -3.250000e+000  1.277258e-015
    endloop
  endfacet
  facet normal -1.000000e+000  -0.000000e+000  0.000000e+000
    outer loop
      vertex  0.000000e+000 -3.784531e+000  2.185000e+000
      vertex  0.000000e+000 -3.250000e+000  1.277258e-015
      vertex  0.000000e+000 -4.370000e+000  5.351530e-016
    endloop
  endfacet
  facet normal -1.000000e+000  0.000000e+000  0.000000e+000
    outer loop
      vertex  0.000000e+000 -4.370000e+000  5.351530e-016
      vertex  0.000000e+000 -3.250000e+000  1.277258e-015
      vertex  0.000000e+000 -2.629305e+000 -1.910302e+000
    endloop
  endfacet
  facet normal -9.999999e-001  -0.000000e+000  0.000000e+000
    outer loop
      vertex  0.000000e+000 -4.370000e+000  5.351530e-016
      vertex  0.000000e+000 -2.629305e+000 -1.910302e+000
      vertex  0.000000e+000 -3.784531e+000 -2.185000e+000
    endloop
  endfacet
  facet normal -9.999999e-001  0.000000e+000  0.000000e+000
    outer loop
      vertex  0.000000e+000 -3.784531e+000 -2.185000e+000
      vertex  0.000000e+000 -2.629305e+000 -1.910302e+000
      vertex  0.000000e+000 -1.004305e+000 -3.090934e+000
    endloop
  endfacet
  facet normal -9.999999e-001  -0.000000e+000  0.000000e+000
    outer loop
      vertex  0.000000e+000 -3.784531e+000 -2.185000e+000
      vertex  0.000000e+000 -1.004305e+000 -3.090934e+000
      vertex  0.000000e+000 -2.185000e+000 -3.784531e+000
    endloop
  endfacet
  facet normal -3.665256e-001  8.848705e-001 -2.875118e-001
    outer loop
      vertex -2.500000e-001  3.000000e+000  3.673819e-016
      vertex -7.322331e-002  3.073223e+000 -6.741274e-013
      vertex -2.500000e-001  2.427051e+000 -1.763356e+000
    endloop
  endfacet
  facet normal -3.665254e-001  8.848706e-001 -2.875119e-001
    outer loop
      vertex -2.500000e-001  2.427051e+000 -1.763356e+000
      vertex -7.322331e-002  3.073223e+000 -6.741274e-013
      vertex -7.322331e-002  2.486290e+000 -1.806395e+000
    endloop
  endfacet
  facet normal -9.168194e-001  3.797591e-001 -1.233912e-001
    outer loop
      vertex -7.322331e-002  3.073223e+000 -6.741274e-013
      vertex  0.000000e+000  3.250000e+000  7.954748e-013
      vertex -7.322331e-002  2.486290e+000 -1.806395e+000
    endloop
  endfacet
  facet normal -9.168192e-001  3.797594e-001 -1.233913e-001
    outer loop
      vertex -7.322331e-002  2.486290e+000 -1.806395e+000
      vertex  0.000000e+000  3.250000e+000  7.954748e-013
      vertex  0.000000e+000  2.629305e+000 -1.910302e+000
    endloop
  endfacet
  facet normal -3.665254e-001 -8.848706e-001 -2.875119e-001
    outer loop
      vertex -2.500000e-001 -2.427051e+000 -1.763356e+000
      vertex -7.322331e-002 -2.486290e+000 -1.806395e+000
      vertex -2.500000e-001 -3.000000e+000  0.000000e+000
    endloop
  endfacet
  facet normal -3.665257e-001 -8.848706e-001 -2.875119e-001
    outer loop
      vertex -2.500000e-001 -3.000000e+000  0.000000e+000
      vertex -7.322331e-002 -2.486290e+000 -1.806395e+000
      vertex -7.322331e-002 -3.073223e+000 -2.087219e-014
    endloop
  endfacet
  facet normal -9.168192e-001 -3.797594e-001 -1.233913e-001
    outer loop
      vertex -7.322331e-002 -2.486290e+000 -1.806395e+000
      vertex  0.000000e+000 -2.629305e+000 -1.910302e+000
      vertex -7.322331e-002 -3.073223e+000 -2.087219e-014
    endloop
  endfacet
  facet normal -9.168193e-001 -3.797591e-001 -1.233912e-001
    outer loop
      vertex -7.322331e-002 -3.073223e+000 -2.087219e-014
      vertex  0.000000e+000 -2.629305e+000 -1.910302e+000
      vertex  0.000000e+000 -3.250000e+000  1.277258e-015
    endloop
  endfacet
  facet normal -3.665261e-001 -5.468799e-001 -7.527157e-001
    outer loop
      vertex -2.500000e-001 -9.270510e-001 -2.853169e+000
      vertex -7.322331e-002 -9.496782e-001 -2.922809e+000
      vertex -2.500000e-001 -2.427051e+000 -1.763356e+000
    endloop
  endfacet
  facet normal -3.665254e-001 -5.468802e-001 -7.527159e-001
    outer loop
      vertex -2.500000e-001 -2.427051e+000 -1.763356e+000
      vertex -7.322331e-002 -9.496782e-001 -2.922809e+000
      vertex -7.322331e-002 -2.486290e+000 -1.806395e+000
    endloop
  endfacet
  facet normal -9.168192e-001 -2.347042e-001 -3.230425e-001
    outer loop
      vertex -7.322331e-002 -9.496782e-001 -2.922809e+000
      vertex  0.000000e+000 -1.004305e+000 -3.090934e+000
      vertex -7.322331e-002 -2.486290e+000 -1.806395e+000
    endloop
  endfacet
  facet normal -9.168192e-001 -2.347041e-001 -3.230425e-001
    outer loop
      vertex -7.322331e-002 -2.486290e+000 -1.806395e+000
      vertex  0.000000e+000 -1.004305e+000 -3.090934e+000
      vertex  0.000000e+000 -2.629305e+000 -1.910302e+000
    endloop
  endfacet
  facet normal -3.665262e-001  0.000000e+000 -9.304076e-001
    outer loop
      vertex -2.500000e-001  9.270510e-001 -2.853169e+000
      vertex -7.322331e-002  9.496782e-001 -2.922809e+000
      vertex -2.500000e-001 -9.270510e-001 -2.853169e+000
    endloop
  endfacet
  facet normal -3.665262e-001  0.000000e+000 -9.304076e-001
    outer loop
      vertex -2.500000e-001 -9.270510e-001 -2.853169e+000
      vertex -7.322331e-002  9.496782e-001 -2.922809e+000
      vertex -7.322331e-002 -9.496782e-001 -2.922809e+000
    endloop
  endfacet
  facet normal -9.168192e-001  0.000000e+000 -3.993026e-001
    outer loop
      vertex -7.322331e-002  9.496782e-001 -2.922809e+000
      vertex  0.000000e+000  1.004305e+000 -3.090934e+000
      vertex -7.322331e-002 -9.496782e-001 -2.922809e+000
    endloop
  endfacet
  facet normal -9.168192e-001  0.000000e+000 -3.993027e-001
    outer loop
      vertex -7.322331e-002 -9.496782e-001 -2.922809e+000
      vertex  0.000000e+000  1.004305e+000 -3.090934e+000
      vertex  0.000000e+000 -1.004305e+000 -3.090934e+000
    endloop
  endfacet
  facet normal -3.665254e-001  5.468801e-001 -7.527159e-001
    outer loop
      vertex -2.500000e-001  2.427051e+000 -1.763356e+000
      vertex -7.322331e-002  2.486290e+000 -1.806395e+000
      vertex -2.500000e-001  9.270510e-001 -2.853169e+000
    endloop
  endfacet
  facet normal -3.665260e-001  5.468799e-001 -7.527157e-001
    outer loop
      vertex -2.500000e-001  9.270510e-001 -2.853169e+000
      vertex -7.322331e-002  2.486290e+000 -1.806395e+000
      vertex -7.322331e-002  9.496782e-001 -2.922809e+000
    endloop
  endfacet
  facet normal -9.168193e-001  2.347041e-001 -3.230425e-001
    outer loop
      vertex -7.322331e-002  2.486290e+000 -1.806395e+000
      vertex  0.000000e+000  2.629305e+000 -1.910302e+000
      vertex -7.322331e-002  9.496782e-001 -2.922809e+000
    endloop
  endfacet
  facet normal -9.168192e-001  2.347042e-001 -3.230426e-001
    outer loop
      vertex -7.322331e-002  9.496782e-001 -2.922809e+000
      vertex  0.000000e+000  2.629305e+000 -1.910302e+000
      vertex  0.000000e+000  1.004305e+000 -3.090934e+000
    endloop
  endfacet
  facet normal -3.665256e-001 -8.848705e-001  2.875118e-001
    outer loop
      vertex -2.500000e-001 -3.000000e+000  0.000000e+000
      vertex -7.322331e-002 -3.073223e+000 -2.087219e-014
      vertex -2.500000e-001 -2.427051e+000  1.763356e+000
    endloop
  endfacet
  facet normal -3.665254e-001 -8.848706e-001  2.875119e-001
    outer loop
      vertex -2.500000e-001 -2.427051e+000  1.763356e+000
      vertex -7.322331e-002 -3.073223e+000 -2.087219e-014
      vertex -7.322331e-002 -2.486290e+000  1.806395e+000
    endloop
  endfacet
  facet normal -9.168194e-001 -3.797591e-001  1.233912e-001
    outer loop
      vertex -7.322331e-002 -3.073223e+000 -2.087219e-014
      vertex  0.000000e+000 -3.250000e+000  1.277258e-015
      vertex -7.322331e-002 -2.486290e+000  1.806395e+000
    endloop
  endfacet
  facet normal -9.168192e-001 -3.797594e-001  1.233913e-001
    outer loop
      vertex -7.322331e-002 -2.486290e+000  1.806395e+000
      vertex  0.000000e+000 -3.250000e+000  1.277258e-015
      vertex  0.000000e+000 -2.629305e+000  1.910302e+000
    endloop
  endfacet
  facet normal -3.665254e-001  8.848706e-001  2.875119e-001
    outer loop
      vertex -2.500000e-001  2.427051e+000  1.763356e+000
      vertex -7.322331e-002  2.486290e+000  1.806395e+000
      vertex -2.500000e-001  3.000000e+000  3.673819e-016
    endloop
  endfacet
  facet normal -3.665257e-001  8.848706e-001  2.875119e-001
    outer loop
      vertex -2.500000e-001  3.000000e+000  3.673819e-016
      vertex -7.322331e-002  2.486290e+000  1.806395e+000
      vertex -7.322331e-002  3.073223e+000 -6.741274e-013
    endloop
  endfacet
  facet normal -9.168192e-001  3.797594e-001  1.233913e-001
    outer loop
      vertex -7.322331e-002  2.486290e+000  1.806395e+000
      vertex  0.000000e+000  2.629305e+000  1.910302e+000
      vertex -7.322331e-002  3.073223e+000 -6.741274e-013
    endloop
  endfacet
  facet normal -9.168193e-001  3.797591e-001  1.233912e-001
    outer loop
      vertex -7.322331e-002  3.073223e+000 -6.741274e-013
      vertex  0.000000e+000  2.629305e+000  1.910302e+000
      vertex  0.000000e+000  3.250000e+000  7.954748e-013
    endloop
  endfacet
  facet normal -3.665261e-001  5.468799e-001  7.527157e-001
    outer loop
      vertex -2.500000e-001  9.270510e-001  2.853169e+000
      vertex -7.322331e-002  9.496782e-001  2.922809e+000
      vertex -2.500000e-001  2.427051e+000  1.763356e+000
    endloop
  endfacet
  facet normal -3.665254e-001  5.468802e-001  7.527159e-001
    outer loop
      vertex -2.500000e-001  2.427051e+000  1.763356e+000
      vertex -7.322331e-002  9.496782e-001  2.922809e+000
      vertex -7.322331e-002  2.486290e+000  1.806395e+000
    endloop
  endfacet
  facet normal -9.168192e-001  2.347042e-001  3.230425e-001
    outer loop
      vertex -7.322331e-002  9.496782e-001  2.922809e+000
      vertex  0.000000e+000  1.004305e+000  3.090934e+000
      vertex -7.322331e-002  2.486290e+000  1.806395e+000
    endloop
  endfacet
  facet normal -9.168192e-001  2.347041e-001  3.230425e-001
    outer loop
      vertex -7.322331e-002  2.486290e+000  1.806395e+000
      vertex  0.000000e+000  1.004305e+000  3.090934e+000
      vertex  0.000000e+000  2.629305e+000  1.910302e+000
    endloop
  endfacet
  facet normal -3.665262e-001  0.000000e+000  9.304076e-001
    outer loop
      vertex -2.500000e-001 -9.270510e-001  2.853169e+000
      vertex -7.322331e-002 -9.496782e-001  2.922809e+000
      vertex -2.500000e-001  9.270510e-001  2.853169e+000
    endloop
  endfacet
  facet normal -3.665262e-001  0.000000e+000  9.304076e-001
    outer loop
      vertex -2.500000e-001  9.270510e-001  2.853169e+000
      vertex -7.322331e-002 -9.496782e-001  2.922809e+000
      vertex -7.322331e-002  9.496782e-001  2.922809e+000
    endloop
  endfacet
  facet normal -9.168192e-001  0.000000e+000  3.993026e-001
    outer loop
      vertex -7.322331e-002 -9.496782e-001  2.922809e+000
      vertex  0.000000e+000 -1.004305e+000  3.090934e+000
      vertex -7.322331e-002  9.496782e-001  2.922809e+000
    endloop
  endfacet
  facet normal -9.168192e-001  0.000000e+000  3.993027e-001
    outer loop
      vertex -7.322331e-002  9.496782e-001  2.922809e+000
      vertex  0.000000e+000 -1.004305e+000  3.090934e+000
      vertex  0.000000e+000  1.004305e+000  3.090934e+000
    endloop
  endfacet
  facet normal -3.665254e-001 -5.468801e-001  7.527159e-001
    outer loop
      vertex -2.500000e-001 -2.427051e+000  1.763356e+000
      vertex -7.322331e-002 -2.486290e+000  1.806395e+000
      vertex -2.500000e-001 -9.270510e-001  2.853169e+000
    endloop
  endfacet
  facet normal -3.665260e-001 -5.468799e-001  7.527157e-001
    outer loop
      vertex -2.500000e-001 -9.270510e-001  2.853169e+000
      vertex -7.322331e-002 -2.486290e+000  1.806395e+000
      vertex -7.322331e-002 -9.496782e-001  2.922809e+000
    endloop
  endfacet
  facet normal -9.168193e-001 -2.347041e-001  3.230425e-001
    outer loop
      vertex -7.322331e-002 -2.486290e+000  1.806395e+000
      vertex  0.000000e+000 -2.629305e+000  1.910302e+000
      vertex -7.322331e-002 -9.496782e-001  2.922809e+000
    endloop
  endfacet
  facet normal -9.168192e-001 -2.347042e-001  3.230426e-001
    outer loop
      vertex -7.322331e-002 -9.496782e-001  2.922809e+000
      vertex  0.000000e+000 -2.629305e+000  1.910302e+000
      vertex  0.000000e+000 -1.004305e+000  3.090934e+000
    endloop
  endfacet
  facet normal -1.000000e+000  0.000000e+000  0.000000e+000
    outer loop
      vertex -3.000000e+001  1.362474e+000  1.362474e+000
      vertex -3.000000e+001 -1.362474e+000  1.362474e+000
      vertex -3.000000e+001 -9.348774e-014  1.926829e+000
    endloop
  endfacet
  facet normal -1.000000e+000  -0.000000e+000  0.000000e+000
    outer loop
      vertex -3.000000e+001 -1.362474e+000  1.362474e+000
      vertex -3.000000e+001  1.362474e+000  1.362474e+000
      vertex -3.000000e+001 -1.926829e+000 -2.814221e-015
    endloop
  endfacet
  facet normal -1.000000e+000  0.000000e+000  0.000000e+000
    outer loop
      vertex -3.000000e+001 -1.926829e+000 -2.814221e-015
      vertex -3.000000e+001  1.362474e+000  1.362474e+000
      vertex -3.000000e+001  1.926829e+000 -2.866564e-016
    endloop
  endfacet
  facet normal -1.000000e+000  0.000000e+000  0.000000e+000
    outer loop
      vertex -3.000000e+001 -1.926829e+000 -2.814221e-015
      vertex -3.000000e+001  1.926829e+000 -2.866564e-016
      vertex -3.000000e+001 -1.362474e+000 -1.362474e+000
    endloop
  endfacet
  facet normal -1.000000e+000  0.000000e+000  0.000000e+000
    outer loop
      vertex -3.000000e+001 -1.362474e+000 -1.362474e+000
      vertex -3.000000e+001  1.926829e+000 -2.866564e-016
      vertex -3.000000e+001  1.362474e+000 -1.362474e+000
    endloop
  endfacet
  facet normal -1.000000e+000  -0.000000e+000  0.000000e+000
    outer loop
      vertex -3.000000e+001 -1.362474e+000 -1.362474e+000
      vertex -3.000000e+001  1.362474e+000 -1.362474e+000
      vertex -3.000000e+001 -3.007022e-015 -1.926829e+000
    endloop
  endfacet
  facet normal -6.891518e-001 -6.891517e-001 -2.239190e-001
    outer loop
      vertex -2.900000e+001 -2.367855e+000 -1.720347e+000
      vertex -2.900000e+001 -2.926829e+000 -7.168428e-016
      vertex -3.000000e+001 -1.926829e+000 -2.814221e-015
    endloop
  endfacet
  facet normal -7.292605e-001 -6.321517e-001 -2.618458e-001
    outer loop
      vertex -3.000000e+001 -1.362474e+000 -1.362474e+000
      vertex -2.900000e+001 -2.367855e+000 -1.720347e+000
      vertex -3.000000e+001 -1.926829e+000 -2.814221e-015
    endloop
  endfacet
  facet normal -7.292605e-001  6.321517e-001 -2.618458e-001
    outer loop
      vertex -2.900000e+001  2.367855e+000 -1.720347e+000
      vertex -3.000000e+001  1.362474e+000 -1.362474e+000
      vertex -3.000000e+001  1.926829e+000 -2.866564e-016
    endloop
  endfacet
  facet normal -6.891518e-001  6.891517e-001 -2.239190e-001
    outer loop
      vertex -2.900000e+001  2.926829e+000  3.584214e-016
      vertex -2.900000e+001  2.367855e+000 -1.720347e+000
      vertex -3.000000e+001  1.926829e+000 -2.866564e-016
    endloop
  endfacet
  facet normal -6.608280e-001  4.411548e-001 -6.071975e-001
    outer loop
      vertex -2.900000e+001  2.367855e+000 -1.720347e+000
      vertex -2.900000e+001  9.044400e-001 -2.783580e+000
      vertex -3.000000e+001  1.362474e+000 -1.362474e+000
    endloop
  endfacet
  facet normal -6.506197e-001  0.000000e+000 -7.594037e-001
    outer loop
      vertex -2.900000e+001  9.044400e-001 -2.783580e+000
      vertex -2.900000e+001 -9.044400e-001 -2.783580e+000
      vertex -3.000000e+001 -3.007022e-015 -1.926829e+000
    endloop
  endfacet
  facet normal -7.510837e-001  2.526503e-001 -6.099518e-001
    outer loop
      vertex -3.000000e+001  1.362474e+000 -1.362474e+000
      vertex -2.900000e+001  9.044400e-001 -2.783580e+000
      vertex -3.000000e+001 -3.007022e-015 -1.926829e+000
    endloop
  endfacet
  facet normal -6.608280e-001 -4.411548e-001 -6.071975e-001
    outer loop
      vertex -2.900000e+001 -9.044400e-001 -2.783580e+000
      vertex -2.900000e+001 -2.367855e+000 -1.720347e+000
      vertex -3.000000e+001 -1.362474e+000 -1.362474e+000
    endloop
  endfacet
  facet normal -7.510837e-001 -2.526503e-001 -6.099518e-001
    outer loop
      vertex -3.000000e+001 -3.007022e-015 -1.926829e+000
      vertex -2.900000e+001 -9.044400e-001 -2.783580e+000
      vertex -3.000000e+001 -1.362474e+000 -1.362474e+000
    endloop
  endfacet
  facet normal -6.891518e-001  6.891517e-001  2.239190e-001
    outer loop
      vertex -2.900000e+001  2.367855e+000  1.720347e+000
      vertex -2.900000e+001  2.926829e+000  3.584214e-016
      vertex -3.000000e+001  1.926829e+000 -2.866564e-016
    endloop
  endfacet
  facet normal -7.292605e-001  6.321517e-001  2.618458e-001
    outer loop
      vertex -3.000000e+001  1.362474e+000  1.362474e+000
      vertex -2.900000e+001  2.367855e+000  1.720347e+000
      vertex -3.000000e+001  1.926829e+000 -2.866564e-016
    endloop
  endfacet
  facet normal -7.292605e-001 -6.321517e-001  2.618458e-001
    outer loop
      vertex -2.900000e+001 -2.367855e+000  1.720347e+000
      vertex -3.000000e+001 -1.362474e+000  1.362474e+000
      vertex -3.000000e+001 -1.926829e+000 -2.814221e-015
    endloop
  endfacet
  facet normal -6.891518e-001 -6.891517e-001  2.239190e-001
    outer loop
      vertex -2.900000e+001 -2.926829e+000 -7.168428e-016
      vertex -2.900000e+001 -2.367855e+000  1.720347e+000
      vertex -3.000000e+001 -1.926829e+000 -2.814221e-015
    endloop
  endfacet
  facet normal -6.608280e-001 -4.411548e-001  6.071975e-001
    outer loop
      vertex -2.900000e+001 -2.367855e+000  1.720347e+000
      vertex -2.900000e+001 -9.044400e-001  2.783580e+000
      vertex -3.000000e+001 -1.362474e+000  1.362474e+000
    endloop
  endfacet
  facet normal -6.506197e-001  0.000000e+000  7.594037e-001
    outer loop
      vertex -2.900000e+001 -9.044400e-001  2.783580e+000
      vertex -2.900000e+001  9.044400e-001  2.783580e+000
      vertex -3.000000e+001 -9.348774e-014  1.926829e+000
    endloop
  endfacet
  facet normal -7.510837e-001 -2.526503e-001  6.099518e-001
    outer loop
      vertex -3.000000e+001 -1.362474e+000  1.362474e+000
      vertex -2.900000e+001 -9.044400e-001  2.783580e+000
      vertex -3.000000e+001 -9.348774e-014  1.926829e+000
    endloop
  endfacet
  facet normal -6.608280e-001  4.411548e-001  6.071975e-001
    outer loop
      vertex -2.900000e+001  9.044400e-001  2.783580e+000
      vertex -2.900000e+001  2.367855e+000  1.720347e+000
      vertex -3.000000e+001  1.362474e+000  1.362474e+000
    endloop
  endfacet
  facet normal -7.510837e-001  2.526503e-001  6.099518e-001
    outer loop
      vertex -3.000000e+001 -9.348774e-014  1.926829e+000
      vertex -2.900000e+001  9.044400e-001  2.783580e+000
      vertex -3.000000e+001  1.362474e+000  1.362474e+000
    endloop
  endfacet
  facet normal -1.000000e+000  0.000000e+000  0.000000e+000
    outer loop
      vertex -1.200000e+001  9.270510e-001  2.853169e+000
      vertex -1.200000e+001  2.427051e+000  1.763356e+000
      vertex -1.200000e+001  9.044400e-001  2.783580e+000
    endloop
  endfacet
  facet normal -1.000000e+000  0.000000e+000  0.000000e+000
    outer loop
      vertex -1.200000e+001  9.270510e-001  2.853169e+000
      vertex -1.200000e+001  9.044400e-001  2.783580e+000
      vertex -1.200000e+001 -9.270510e-001  2.853169e+000
    endloop
  endfacet
  facet normal -9.999999e-001  0.000000e+000  0.000000e+000
    outer loop
      vertex -1.200000e+001 -9.270510e-001  2.853169e+000
      vertex -1.200000e+001  9.044400e-001  2.783580e+000
      vertex -1.200000e+001 -9.044400e-001  2.783580e+000
    endloop
  endfacet
  facet normal -1.000000e+000  -0.000000e+000  0.000000e+000
    outer loop
      vertex -1.200000e+001 -9.270510e-001  2.853169e+000
      vertex -1.200000e+001 -9.044400e-001  2.783580e+000
      vertex -1.200000e+001 -2.427051e+000  1.763356e+000
    endloop
  endfacet
  facet normal -1.000000e+000  0.000000e+000  0.000000e+000
    outer loop
      vertex -1.200000e+001 -2.427051e+000  1.763356e+000
      vertex -1.200000e+001 -9.044400e-001  2.783580e+000
      vertex -1.200000e+001 -2.367855e+000  1.720347e+000
    endloop
  endfacet
  facet normal -1.000000e+000  -0.000000e+000  0.000000e+000
    outer loop
      vertex -1.200000e+001 -2.427051e+000  1.763356e+000
      vertex -1.200000e+001 -2.367855e+000  1.720347e+000
      vertex -1.200000e+001 -3.000000e+000  0.000000e+000
    endloop
  endfacet
  facet normal -1.000000e+000  0.000000e+000  0.000000e+000
    outer loop
      vertex -1.200000e+001 -3.000000e+000  0.000000e+000
      vertex -1.200000e+001 -2.367855e+000  1.720347e+000
      vertex -1.200000e+001 -2.926829e+000 -7.168428e-016
    endloop
  endfacet
  facet normal -1.000000e+000  -0.000000e+000  -0.000000e+000
    outer loop
      vertex -1.200000e+001 -3.000000e+000  0.000000e+000
      vertex -1.200000e+001 -2.926829e+000 -7.168428e-016
      vertex -1.200000e+001 -2.427051e+000 -1.763356e+000
    endloop
  endfacet
  facet normal -1.000000e+000  0.000000e+000  0.000000e+000
    outer loop
      vertex -1.200000e+001 -2.427051e+000 -1.763356e+000
      vertex -1.200000e+001 -2.926829e+000 -7.168428e-016
      vertex -1.200000e+001 -2.367855e+000 -1.720347e+000
    endloop
  endfacet
  facet normal -1.000000e+000  0.000000e+000  -0.000000e+000
    outer loop
      vertex -1.200000e+001 -2.427051e+000 -1.763356e+000
      vertex -1.200000e+001 -2.367855e+000 -1.720347e+000
      vertex -1.200000e+001 -9.270510e-001 -2.853169e+000
    endloop
  endfacet
  facet normal -1.000000e+000  0.000000e+000  0.000000e+000
    outer loop
      vertex -1.200000e+001 -9.270510e-001 -2.853169e+000
      vertex -1.200000e+001 -2.367855e+000 -1.720347e+000
      vertex -1.200000e+001 -9.044400e-001 -2.783580e+000
    endloop
  endfacet
  facet normal -1.000000e+000  0.000000e+000  -0.000000e+000
    outer loop
      vertex -1.200000e+001 -9.270510e-001 -2.853169e+000
      vertex -1.200000e+001 -9.044400e-001 -2.783580e+000
      vertex -1.200000e+001  9.270510e-001 -2.853169e+000
    endloop
  endfacet
  facet normal -9.999999e-001  0.000000e+000  0.000000e+000
    outer loop
      vertex -1.200000e+001  9.270510e-001 -2.853169e+000
      vertex -1.200000e+001 -9.044400e-001 -2.783580e+000
      vertex -1.200000e+001  9.044400e-001 -2.783580e+000
    endloop
  endfacet
  facet normal -1.000000e+000  0.000000e+000  0.000000e+000
    outer loop
      vertex -1.200000e+001  9.270510e-001 -2.853169e+000
      vertex -1.200000e+001  9.044400e-001 -2.783580e+000
      vertex -1.200000e+001  2.427051e+000 -1.763356e+000
    endloop
  endfacet
  facet normal -1.000000e+000  -0.000000e+000  0.000000e+000
    outer loop
      vertex -1.200000e+001  2.427051e+000 -1.763356e+000
      vertex -1.200000e+001  9.044400e-001 -2.783580e+000
      vertex -1.200000e+001  2.367855e+000 -1.720347e+000
    endloop
  endfacet
  facet normal -1.000000e+000  0.000000e+000  0.000000e+000
    outer loop
      vertex -1.200000e+001  2.427051e+000 -1.763356e+000
      vertex -1.200000e+001  2.367855e+000 -1.720347e+000
      vertex -1.200000e+001  3.000000e+000  3.673819e-016
    endloop
  endfacet
  facet normal -1.000000e+000  0.000000e+000  0.000000e+000
    outer loop
      vertex -1.200000e+001  3.000000e+000  3.673819e-016
      vertex -1.200000e+001  2.367855e+000 -1.720347e+000
      vertex -1.200000e+001  2.926829e+000  3.584214e-016
    endloop
  endfacet
  facet normal -1.000000e+000  0.000000e+000  0.000000e+000
    outer loop
      vertex -1.200000e+001  3.000000e+000  3.673819e-016
      vertex -1.200000e+001  2.926829e+000  3.584214e-016
      vertex -1.200000e+001  2.427051e+000  1.763356e+000
    endloop
  endfacet
  facet normal -1.000000e+000  0.000000e+000  -0.000000e+000
    outer loop
      vertex -1.200000e+001  2.427051e+000  1.763356e+000
      vertex -1.200000e+001  2.926829e+000  3.584214e-016
      vertex -1.200000e+001  2.367855e+000  1.720347e+000
    endloop
  endfacet
  facet normal -1.000000e+000  0.000000e+000  0.000000e+000
    outer loop
      vertex -1.200000e+001  2.427051e+000  1.763356e+000
      vertex -1.200000e+001  2.367855e+000  1.720347e+000
      vertex -1.200000e+001  9.044400e-001  2.783580e+000
    endloop
  endfacet
  facet normal  1.000000e+000  0.000000e+000  0.000000e+000
    outer loop
      vertex  4.875000e+000  2.395930e+000  4.385720e+000
      vertex  4.875000e+000 -1.179240e-001  4.996110e+000
      vertex  4.875000e+000 -2.600180e+000  4.267796e+000
    endloop
  endfacet
  facet normal  1.000000e+000  -0.000000e+000  0.000000e+000
    outer loop
      vertex  4.875000e+000  2.395930e+000  4.385720e+000
      vertex  4.875000e+000 -2.600180e+000  4.267796e+000
      vertex  4.875000e+000  4.267796e+000  2.600180e+000
    endloop
  endfacet
  facet normal  1.000000e+000  0.000000e+000  0.000000e+000
    outer loop
      vertex  4.875000e+000  4.267796e+000  2.600180e+000
      vertex  4.875000e+000 -2.600180e+000  4.267796e+000
      vertex  4.875000e+000 -4.385720e+000  2.395930e+000
    endloop
  endfacet
  facet normal  1.000000e+000  -0.000000e+000  0.000000e+000
    outer loop
      vertex  4.875000e+000  4.267796e+000  2.600180e+000
      vertex  4.875000e+000 -4.385720e+000  2.395930e+000
      vertex  4.875000e+000  4.996110e+000  1.179240e-001
    endloop
  endfacet
  facet normal  1.000000e+000  0.000000e+000  0.000000e+000
    outer loop
      vertex  4.875000e+000  4.996110e+000  1.179240e-001
      vertex  4.875000e+000 -4.385720e+000  2.395930e+000
      vertex  4.875000e+000 -4.996110e+000 -1.179240e-001
    endloop
  endfacet
  facet normal  1.000000e+000  -0.000000e+000  0.000000e+000
    outer loop
      vertex  4.875000e+000  4.996110e+000  1.179240e-001
      vertex  4.875000e+000 -4.996110e+000 -1.179240e-001
      vertex  4.875000e+000  4.385720e+000 -2.395930e+000
    endloop
  endfacet
  facet normal  1.000000e+000  0.000000e+000  0.000000e+000
    outer loop
      vertex  4.875000e+000  4.385720e+000 -2.395930e+000
      vertex  4.875000e+000 -4.996110e+000 -1.179240e-001
      vertex  4.875000e+000 -4.267796e+000 -2.600180e+000
    endloop
  endfacet
  facet normal  1.000000e+000  -0.000000e+000  0.000000e+000
    outer loop
      vertex  4.875000e+000  4.385720e+000 -2.395930e+000
      vertex  4.875000e+000 -4.267796e+000 -2.600180e+000
      vertex  4.875000e+000  2.600180e+000 -4.267796e+000
    endloop
  endfacet
  facet normal  1.000000e+000  0.000000e+000  0.000000e+000
    outer loop
      vertex  4.875000e+000  2.600180e+000 -4.267796e+000
      vertex  4.875000e+000 -4.267796e+000 -2.600180e+000
      vertex  4.875000e+000 -2.395930e+000 -4.385720e+000
    endloop
  endfacet
  facet normal  1.000000e+000  -0.000000e+000  0.000000e+000
    outer loop
      vertex  4.875000e+000  2.600180e+000 -4.267796e+000
      vertex  4.875000e+000 -2.395930e+000 -4.385720e+000
      vertex  4.875000e+000  1.179240e-001 -4.996110e+000
    endloop
  endfacet
  facet normal  0.000000e+000  5.000000e-001 -8.660253e-001
    outer loop
      vertex  5.000000e-001  5.000000e+000 -2.886751e+000
      vertex  4.426975e+000  5.000000e+000 -2.886751e+000
      vertex  5.000000e-001 -2.220446e-015 -5.773503e+000
    endloop
  endfacet
  facet normal  3.681175e-009  5.000000e-001 -8.660254e-001
    outer loop
      vertex  5.000000e-001 -2.220446e-015 -5.773503e+000
      vertex  4.426975e+000  5.000000e+000 -2.886751e+000
      vertex  4.756230e+000  3.747036e+000 -3.610151e+000
    endloop
  endfacet
  facet normal  0.000000e+000  5.000000e-001 -8.660253e-001
    outer loop
      vertex  5.000000e-001 -2.220446e-015 -5.773503e+000
      vertex  4.756230e+000  3.747036e+000 -3.610151e+000
      vertex  4.426975e+000 -2.664535e-015 -5.773503e+000
    endloop
  endfacet
  facet normal  1.185246e-006  4.999999e-001 -8.660254e-001
    outer loop
      vertex  4.426975e+000 -2.664535e-015 -5.773503e+000
      vertex  4.756230e+000  3.747036e+000 -3.610151e+000
      vertex  4.807003e+000  1.564838e+000 -4.870043e+000
    endloop
  endfacet
  facet normal -5.654341e-017 -5.000000e-001 -8.660253e-001
    outer loop
      vertex  5.000000e-001 -2.220446e-015 -5.773503e+000
      vertex  4.426975e+000 -2.664535e-015 -5.773503e+000
      vertex  5.000000e-001 -5.000000e+000 -2.886751e+000
    endloop
  endfacet
  facet normal  2.545490e-008 -5.000000e-001 -8.660254e-001
    outer loop
      vertex  5.000000e-001 -5.000000e+000 -2.886751e+000
      vertex  4.426975e+000 -2.664535e-015 -5.773503e+000
      vertex  4.872753e+000 -2.397795e+000 -4.389135e+000
    endloop
  endfacet
  facet normal  0.000000e+000 -5.000000e-001 -8.660254e-001
    outer loop
      vertex  5.000000e-001 -5.000000e+000 -2.886751e+000
      vertex  4.872753e+000 -2.397795e+000 -4.389135e+000
      vertex  4.426975e+000 -5.000000e+000 -2.886751e+000
    endloop
  endfacet
  facet normal  0.000000e+000 -1.000000e+000  0.000000e+000
    outer loop
      vertex  5.000000e-001 -5.000000e+000 -2.886751e+000
      vertex  4.426975e+000 -5.000000e+000 -2.886751e+000
      vertex  5.000000e-001 -5.000000e+000  2.886751e+000
    endloop
  endfacet
  facet normal  0.000000e+000 -1.000000e+000  0.000000e+000
    outer loop
      vertex  5.000000e-001 -5.000000e+000  2.886751e+000
      vertex  4.426975e+000 -5.000000e+000 -2.886751e+000
      vertex  4.756230e+000 -5.000000e+000 -1.439953e+000
    endloop
  endfacet
  facet normal  0.000000e+000 -1.000000e+000  0.000000e+000
    outer loop
      vertex  5.000000e-001 -5.000000e+000  2.886751e+000
      vertex  4.756230e+000 -5.000000e+000 -1.439953e+000
      vertex  4.426975e+000 -5.000000e+000  2.886751e+000
    endloop
  endfacet
  facet normal  0.000000e+000 -1.000000e+000  0.000000e+000
    outer loop
      vertex  4.426975e+000 -5.000000e+000  2.886751e+000
      vertex  4.756230e+000 -5.000000e+000 -1.439953e+000
      vertex  4.807003e+000 -5.000000e+000  1.079832e+000
    endloop
  endfacet
  facet normal  0.000000e+000 -5.000000e-001  8.660253e-001
    outer loop
      vertex  5.000000e-001 -5.000000e+000  2.886751e+000
      vertex  4.426975e+000 -5.000000e+000  2.886751e+000
      vertex  5.000000e-001  0.000000e+000  5.773503e+000
    endloop
  endfacet
  facet normal  3.681175e-009 -5.000000e-001  8.660254e-001
    outer loop
      vertex  5.000000e-001  0.000000e+000  5.773503e+000
      vertex  4.426975e+000 -5.000000e+000  2.886751e+000
      vertex  4.756230e+000 -3.747036e+000  3.610151e+000
    endloop
  endfacet
  facet normal  0.000000e+000 -5.000000e-001  8.660253e-001
    outer loop
      vertex  5.000000e-001  0.000000e+000  5.773503e+000
      vertex  4.756230e+000 -3.747036e+000  3.610151e+000
      vertex  4.426975e+000 -1.776357e-015  5.773503e+000
    endloop
  endfacet
  facet normal  1.185246e-006 -4.999999e-001  8.660254e-001
    outer loop
      vertex  4.426975e+000 -1.776357e-015  5.773503e+000
      vertex  4.756230e+000 -3.747036e+000  3.610151e+000
      vertex  4.807003e+000 -1.564838e+000  4.870043e+000
    endloop
  endfacet
  facet normal  2.261737e-016  5.000000e-001  8.660253e-001
    outer loop
      vertex  5.000000e-001  0.000000e+000  5.773503e+000
      vertex  4.426975e+000 -1.776357e-015  5.773503e+000
      vertex  5.000000e-001  5.000000e+000  2.886751e+000
    endloop
  endfacet
  facet normal  2.545490e-008  5.000000e-001  8.660254e-001
    outer loop
      vertex  5.000000e-001  5.000000e+000  2.886751e+000
      vertex  4.426975e+000 -1.776357e-015  5.773503e+000
      vertex  4.872753e+000  2.397795e+000  4.389135e+000
    endloop
  endfacet
  facet normal  0.000000e+000  5.000000e-001  8.660254e-001
    outer loop
      vertex  5.000000e-001  5.000000e+000  2.886751e+000
      vertex  4.872753e+000  2.397795e+000  4.389135e+000
      vertex  4.426975e+000  5.000000e+000  2.886751e+000
    endloop
  endfacet
  facet normal  0.000000e+000  1.000000e+000  0.000000e+000
    outer loop
      vertex  5.000000e-001  5.000000e+000  2.886751e+000
      vertex  4.426975e+000  5.000000e+000  2.886751e+000
      vertex  5.000000e-001  5.000000e+000 -2.886751e+000
    endloop
  endfacet
  facet normal  0.000000e+000  1.000000e+000  0.000000e+000
    outer loop
      vertex  5.000000e-001  5.000000e+000 -2.886751e+000
      vertex  4.426975e+000  5.000000e+000  2.886751e+000
      vertex  4.807003e+000  5.000000e+000  1.079832e+000
    endloop
  endfacet
  facet normal  0.000000e+000  9.999999e-001  0.000000e+000
    outer loop
      vertex  5.000000e-001  5.000000e+000 -2.886751e+000
      vertex  4.807003e+000  5.000000e+000  1.079832e+000
      vertex  4.426975e+000  5.000000e+000 -2.886751e+000
    endloop
  endfacet
  facet normal  0.000000e+000  9.999999e-001  0.000000e+000
    outer loop
      vertex  4.426975e+000  5.000000e+000 -2.886751e+000
      vertex  4.807003e+000  5.000000e+000  1.079832e+000
      vertex  4.756230e+000  5.000000e+000 -1.439953e+000
    endloop
  endfacet
  facet normal  8.466379e-001  3.673439e-001  3.850491e-001
    outer loop
      vertex  4.426975e+000  5.000000e+000  2.886751e+000
      vertex  4.872753e+000  2.397795e+000  4.389135e+000
      vertex  4.875000e+000  4.267796e+000  2.600180e+000
    endloop
  endfacet
  facet normal  8.688499e-001  4.601172e-001  1.827350e-001
    outer loop
      vertex  4.426975e+000  5.000000e+000  2.886751e+000
      vertex  4.875000e+000  4.267796e+000  2.600180e+000
      vertex  4.807003e+000  5.000000e+000  1.079832e+000
    endloop
  endfacet
  facet normal  8.680301e-001 -1.171857e-001 -4.824845e-001
    outer loop
      vertex  4.872753e+000 -2.397795e+000 -4.389135e+000
      vertex  4.426975e+000 -2.664535e-015 -5.773503e+000
      vertex  4.875000e+000  1.179240e-001 -4.996110e+000
    endloop
  endfacet
  facet normal  8.583453e-001 -1.210618e-001 -4.985854e-001
    outer loop
      vertex  4.872753e+000 -2.397795e+000 -4.389135e+000
      vertex  4.875000e+000  1.179240e-001 -4.996110e+000
      vertex  4.875000e+000 -2.395930e+000 -4.385720e+000
    endloop
  endfacet
  facet normal  8.583438e-001  3.541370e-001  3.712587e-001
    outer loop
      vertex  4.875000e+000  2.395930e+000  4.385720e+000
      vertex  4.875000e+000  4.267796e+000  2.600180e+000
      vertex  4.872753e+000  2.397795e+000  4.389135e+000
    endloop
  endfacet
  facet normal  4.447519e-002  9.990101e-001 -8.961661e-004
    outer loop
      vertex  4.756230e+000  5.000000e+000 -1.439953e+000
      vertex  4.807003e+000  5.000000e+000  1.079832e+000
      vertex  4.875000e+000  4.996110e+000  1.179240e-001
    endloop
  endfacet
  facet normal  4.218722e-002  5.002908e-001 -8.648291e-001
    outer loop
      vertex  4.875000e+000  2.600180e+000 -4.267796e+000
      vertex  4.807003e+000  1.564838e+000 -4.870043e+000
      vertex  4.756230e+000  3.747036e+000 -3.610151e+000
    endloop
  endfacet
  facet normal  9.535441e-001  2.179855e-001 -2.079325e-001
    outer loop
      vertex  4.875000e+000  2.600180e+000 -4.267796e+000
      vertex  4.756230e+000  3.747036e+000 -3.610151e+000
      vertex  4.875000e+000  4.385720e+000 -2.395930e+000
    endloop
  endfacet
  facet normal  8.577160e-001  8.449329e-002 -5.071332e-001
    outer loop
      vertex  4.426975e+000 -2.664535e-015 -5.773503e+000
      vertex  4.807003e+000  1.564838e+000 -4.870043e+000
      vertex  4.875000e+000  1.179240e-001 -4.996110e+000
    endloop
  endfacet
  facet normal  9.706730e-001  2.306794e-001  6.768320e-002
    outer loop
      vertex  4.807003e+000  5.000000e+000  1.079832e+000
      vertex  4.875000e+000  4.267796e+000  2.600180e+000
      vertex  4.875000e+000  4.996110e+000  1.179240e-001
    endloop
  endfacet
  facet normal  9.729538e-001  6.503564e-002 -2.216559e-001
    outer loop
      vertex  4.875000e+000  1.179240e-001 -4.996110e+000
      vertex  4.807003e+000  1.564838e+000 -4.870043e+000
      vertex  4.875000e+000  2.600180e+000 -4.267796e+000
    endloop
  endfacet
  facet normal  8.687028e-001  3.982948e-001 -2.944770e-001
    outer loop
      vertex  4.756230e+000  3.747036e+000 -3.610151e+000
      vertex  4.426975e+000  5.000000e+000 -2.886751e+000
      vertex  4.875000e+000  4.385720e+000 -2.395930e+000
    endloop
  endfacet
  facet normal  8.601660e-001  4.709516e-001 -1.957522e-001
    outer loop
      vertex  4.875000e+000  4.385720e+000 -2.395930e+000
      vertex  4.426975e+000  5.000000e+000 -2.886751e+000
      vertex  4.756230e+000  5.000000e+000 -1.439953e+000
    endloop
  endfacet
  facet normal  9.524750e-001  2.960159e-001 -7.187578e-002
    outer loop
      vertex  4.875000e+000  4.385720e+000 -2.395930e+000
      vertex  4.756230e+000  5.000000e+000 -1.439953e+000
      vertex  4.875000e+000  4.996110e+000  1.179240e-001
    endloop
  endfacet
  facet normal  8.466379e-001 -3.673439e-001 -3.850491e-001
    outer loop
      vertex  4.426975e+000 -5.000000e+000 -2.886751e+000
      vertex  4.872753e+000 -2.397795e+000 -4.389135e+000
      vertex  4.875000e+000 -4.267796e+000 -2.600180e+000
    endloop
  endfacet
  facet normal  8.687028e-001 -4.541721e-001 -1.976950e-001
    outer loop
      vertex  4.426975e+000 -5.000000e+000 -2.886751e+000
      vertex  4.875000e+000 -4.267796e+000 -2.600180e+000
      vertex  4.756230e+000 -5.000000e+000 -1.439953e+000
    endloop
  endfacet
  facet normal  8.680301e-001  1.171857e-001  4.824845e-001
    outer loop
      vertex  4.872753e+000  2.397795e+000  4.389135e+000
      vertex  4.426975e+000 -1.776357e-015  5.773503e+000
      vertex  4.875000e+000 -1.179240e-001  4.996110e+000
    endloop
  endfacet
  facet normal  8.583453e-001  1.210618e-001  4.985854e-001
    outer loop
      vertex  4.872753e+000  2.397795e+000  4.389135e+000
      vertex  4.875000e+000 -1.179240e-001  4.996110e+000
      vertex  4.875000e+000  2.395930e+000  4.385720e+000
    endloop
  endfacet
  facet normal  8.583438e-001 -3.541370e-001 -3.712587e-001
    outer loop
      vertex  4.875000e+000 -2.395930e+000 -4.385720e+000
      vertex  4.875000e+000 -4.267796e+000 -2.600180e+000
      vertex  4.872753e+000 -2.397795e+000 -4.389135e+000
    endloop
  endfacet
  facet normal  4.218527e-002 -9.991094e-001 -8.500246e-004
    outer loop
      vertex  4.875000e+000 -4.996110e+000 -1.179240e-001
      vertex  4.807003e+000 -5.000000e+000  1.079832e+000
      vertex  4.756230e+000 -5.000000e+000 -1.439953e+000
    endloop
  endfacet
  facet normal  9.535440e-001 -2.890677e-001 -8.481480e-002
    outer loop
      vertex  4.875000e+000 -4.996110e+000 -1.179240e-001
      vertex  4.756230e+000 -5.000000e+000 -1.439953e+000
      vertex  4.875000e+000 -4.267796e+000 -2.600180e+000
    endloop
  endfacet
  facet normal  4.218722e-002 -5.002908e-001  8.648291e-001
    outer loop
      vertex  4.875000e+000 -2.600180e+000  4.267796e+000
      vertex  4.807003e+000 -1.564838e+000  4.870043e+000
      vertex  4.756230e+000 -3.747036e+000  3.610151e+000
    endloop
  endfacet
  facet normal  9.535441e-001 -2.179855e-001  2.079325e-001
    outer loop
      vertex  4.875000e+000 -2.600180e+000  4.267796e+000
      vertex  4.756230e+000 -3.747036e+000  3.610151e+000
      vertex  4.875000e+000 -4.385720e+000  2.395930e+000
    endloop
  endfacet
  facet normal  8.577160e-001 -8.449329e-002  5.071332e-001
    outer loop
      vertex  4.426975e+000 -1.776357e-015  5.773503e+000
      vertex  4.807003e+000 -1.564838e+000  4.870043e+000
      vertex  4.875000e+000 -1.179240e-001  4.996110e+000
    endloop
  endfacet
  facet normal  9.729538e-001 -6.503564e-002  2.216559e-001
    outer loop
      vertex  4.875000e+000 -1.179240e-001  4.996110e+000
      vertex  4.807003e+000 -1.564838e+000  4.870043e+000
      vertex  4.875000e+000 -2.600180e+000  4.267796e+000
    endloop
  endfacet
  facet normal  8.687028e-001 -3.982948e-001  2.944770e-001
    outer loop
      vertex  4.756230e+000 -3.747036e+000  3.610151e+000
      vertex  4.426975e+000 -5.000000e+000  2.886751e+000
      vertex  4.875000e+000 -4.385720e+000  2.395930e+000
    endloop
  endfacet
  facet normal  8.577160e-001 -4.814367e-001  1.803934e-001
    outer loop
      vertex  4.875000e+000 -4.385720e+000  2.395930e+000
      vertex  4.426975e+000 -5.000000e+000  2.886751e+000
      vertex  4.807003e+000 -5.000000e+000  1.079832e+000
    endloop
  endfacet
  facet normal  9.729537e-001 -2.244773e-001  5.450545e-002
    outer loop
      vertex  4.875000e+000 -4.385720e+000  2.395930e+000
      vertex  4.807003e+000 -5.000000e+000  1.079832e+000
      vertex  4.875000e+000 -4.996110e+000 -1.179240e-001
    endloop
  endfacet
  facet normal -1.000000e+000  0.000000e+000  -0.000000e+000
    outer loop
      vertex  5.000000e-001  3.784531e+000 -2.185000e+000
      vertex  5.000000e-001  4.370000e+000  0.000000e+000
      vertex  5.000000e-001  5.000000e+000 -2.886751e+000
    endloop
  endfacet
  facet normal -1.000000e+000  0.000000e+000  -0.000000e+000
    outer loop
      vertex  5.000000e-001  2.185000e+000 -3.784531e+000
      vertex  5.000000e-001  3.784531e+000 -2.185000e+000
      vertex  5.000000e-001  5.000000e+000 -2.886751e+000
    endloop
  endfacet
  facet normal -1.000000e+000  0.000000e+000  0.000000e+000
    outer loop
      vertex  5.000000e-001 -2.220446e-015 -5.773503e+000
      vertex  5.000000e-001 -2.185000e+000 -3.784531e+000
      vertex  5.000000e-001  3.078610e-015 -4.370000e+000
    endloop
  endfacet
  facet normal -1.000000e+000  0.000000e+000  -0.000000e+000
    outer loop
      vertex  5.000000e-001 -2.220446e-015 -5.773503e+000
      vertex  5.000000e-001  3.078610e-015 -4.370000e+000
      vertex  5.000000e-001  2.185000e+000 -3.784531e+000
    endloop
  endfacet
  facet normal -1.000000e+000  0.000000e+000  -0.000000e+000
    outer loop
      vertex  5.000000e-001 -2.220446e-015 -5.773503e+000
      vertex  5.000000e-001  2.185000e+000 -3.784531e+000
      vertex  5.000000e-001  5.000000e+000 -2.886751e+000
    endloop
  endfacet
  facet normal -1.000000e+000  0.000000e+000  -0.000000e+000
    outer loop
      vertex  5.000000e-001 -5.000000e+000 -2.886751e+000
      vertex  5.000000e-001 -4.370000e+000  5.351530e-016
      vertex  5.000000e-001 -3.784531e+000 -2.185000e+000
    endloop
  endfacet
  facet normal -1.000000e+000  0.000000e+000  -0.000000e+000
    outer loop
      vertex  5.000000e-001 -5.000000e+000 -2.886751e+000
      vertex  5.000000e-001 -3.784531e+000 -2.185000e+000
      vertex  5.000000e-001 -2.185000e+000 -3.784531e+000
    endloop
  endfacet
  facet normal -1.000000e+000  -0.000000e+000  -0.000000e+000
    outer loop
      vertex  5.000000e-001 -5.000000e+000 -2.886751e+000
      vertex  5.000000e-001 -2.185000e+000 -3.784531e+000
      vertex  5.000000e-001 -2.220446e-015 -5.773503e+000
    endloop
  endfacet
  facet normal -1.000000e+000  0.000000e+000  0.000000e+000
    outer loop
      vertex  5.000000e-001 -5.000000e+000  2.886751e+000
      vertex  5.000000e-001 -2.185000e+000  3.784531e+000
      vertex  5.000000e-001 -3.784531e+000  2.185000e+000
    endloop
  endfacet
  facet normal -1.000000e+000  -0.000000e+000  0.000000e+000
    outer loop
      vertex  5.000000e-001 -5.000000e+000  2.886751e+000
      vertex  5.000000e-001 -3.784531e+000  2.185000e+000
      vertex  5.000000e-001 -4.370000e+000  5.351530e-016
    endloop
  endfacet
  facet normal -1.000000e+000  -0.000000e+000  0.000000e+000
    outer loop
      vertex  5.000000e-001 -5.000000e+000  2.886751e+000
      vertex  5.000000e-001 -4.370000e+000  5.351530e-016
      vertex  5.000000e-001 -5.000000e+000 -2.886751e+000
    endloop
  endfacet
  facet normal -1.000000e+000  0.000000e+000  0.000000e+000
    outer loop
      vertex  5.000000e-001  0.000000e+000  5.773503e+000
      vertex  5.000000e-001  2.185000e+000  3.784531e+000
      vertex  5.000000e-001 -7.027585e-016  4.370000e+000
    endloop
  endfacet
  facet normal -1.000000e+000  -0.000000e+000  0.000000e+000
    outer loop
      vertex  5.000000e-001  0.000000e+000  5.773503e+000
      vertex  5.000000e-001 -7.027585e-016  4.370000e+000
      vertex  5.000000e-001 -2.185000e+000  3.784531e+000
    endloop
  endfacet
  facet normal -1.000000e+000  -0.000000e+000  0.000000e+000
    outer loop
      vertex  5.000000e-001  0.000000e+000  5.773503e+000
      vertex  5.000000e-001 -2.185000e+000  3.784531e+000
      vertex  5.000000e-001 -5.000000e+000  2.886751e+000
    endloop
  endfacet
  facet normal -1.000000e+000  0.000000e+000  0.000000e+000
    outer loop
      vertex  5.000000e-001  5.000000e+000  2.886751e+000
      vertex  5.000000e-001  5.000000e+000 -2.886751e+000
      vertex  5.000000e-001  4.370000e+000  0.000000e+000
    endloop
  endfacet
  facet normal -1.000000e+000  0.000000e+000  0.000000e+000
    outer loop
      vertex  5.000000e-001  5.000000e+000  2.886751e+000
      vertex  5.000000e-001  4.370000e+000  0.000000e+000
      vertex  5.000000e-001  3.784531e+000  2.185000e+000
    endloop
  endfacet
  facet normal -1.000000e+000  0.000000e+000  0.000000e+000
    outer loop
      vertex  5.000000e-001  5.000000e+000  2.886751e+000
      vertex  5.000000e-001  3.784531e+000  2.185000e+000
      vertex  5.000000e-001  2.185000e+000  3.784531e+000
    endloop
  endfacet
  facet normal -1.000000e+000  0.000000e+000  0.000000e+000
    outer loop
      vertex  5.000000e-001  5.000000e+000  2.886751e+000
      vertex  5.000000e-001  2.185000e+000  3.784531e+000
      vertex  5.000000e-001  0.000000e+000  5.773503e+000
    endloop
  endfacet
  facet normal  0.000000e+000  9.659259e-001 -2.588190e-001
    outer loop
      vertex  0.000000e+000  4.370000e+000  0.000000e+000
      vertex  5.000000e-001  4.370000e+000  0.000000e+000
      vertex  0.000000e+000  3.784531e+000 -2.185000e+000
    endloop
  endfacet
  facet normal  0.000000e+000  9.659259e-001 -2.588190e-001
    outer loop
      vertex  0.000000e+000  3.784531e+000 -2.185000e+000
      vertex  5.000000e-001  4.370000e+000  0.000000e+000
      vertex  5.000000e-001  3.784531e+000 -2.185000e+000
    endloop
  endfacet
  facet normal  0.000000e+000  7.071068e-001 -7.071068e-001
    outer loop
      vertex  0.000000e+000  3.784531e+000 -2.185000e+000
      vertex  5.000000e-001  3.784531e+000 -2.185000e+000
      vertex  0.000000e+000  2.185000e+000 -3.784531e+000
    endloop
  endfacet
  facet normal  0.000000e+000  7.071068e-001 -7.071068e-001
    outer loop
      vertex  0.000000e+000  2.185000e+000 -3.784531e+000
      vertex  5.000000e-001  3.784531e+000 -2.185000e+000
      vertex  5.000000e-001  2.185000e+000 -3.784531e+000
    endloop
  endfacet
  facet normal  0.000000e+000  2.588190e-001 -9.659259e-001
    outer loop
      vertex  0.000000e+000  2.185000e+000 -3.784531e+000
      vertex  5.000000e-001  2.185000e+000 -3.784531e+000
      vertex  0.000000e+000  3.078610e-015 -4.370000e+000
    endloop
  endfacet
  facet normal  0.000000e+000  2.588190e-001 -9.659259e-001
    outer loop
      vertex  0.000000e+000  3.078610e-015 -4.370000e+000
      vertex  5.000000e-001  2.185000e+000 -3.784531e+000
      vertex  5.000000e-001  3.078610e-015 -4.370000e+000
    endloop
  endfacet
  facet normal  -0.000000e+000 -2.588190e-001 -9.659259e-001
    outer loop
      vertex  0.000000e+000  3.078610e-015 -4.370000e+000
      vertex  5.000000e-001  3.078610e-015 -4.370000e+000
      vertex  0.000000e+000 -2.185000e+000 -3.784531e+000
    endloop
  endfacet
  facet normal  0.000000e+000 -2.588190e-001 -9.659259e-001
    outer loop
      vertex  0.000000e+000 -2.185000e+000 -3.784531e+000
      vertex  5.000000e-001  3.078610e-015 -4.370000e+000
      vertex  5.000000e-001 -2.185000e+000 -3.784531e+000
    endloop
  endfacet
  facet normal  -0.000000e+000 -7.071068e-001 -7.071068e-001
    outer loop
      vertex  0.000000e+000 -2.185000e+000 -3.784531e+000
      vertex  5.000000e-001 -2.185000e+000 -3.784531e+000
      vertex  0.000000e+000 -3.784531e+000 -2.185000e+000
    endloop
  endfacet
  facet normal  0.000000e+000 -7.071068e-001 -7.071068e-001
    outer loop
      vertex  0.000000e+000 -3.784531e+000 -2.185000e+000
      vertex  5.000000e-001 -2.185000e+000 -3.784531e+000
      vertex  5.000000e-001 -3.784531e+000 -2.185000e+000
    endloop
  endfacet
  facet normal  -0.000000e+000 -9.659259e-001 -2.588190e-001
    outer loop
      vertex  0.000000e+000 -3.784531e+000 -2.185000e+000
      vertex  5.000000e-001 -3.784531e+000 -2.185000e+000
      vertex  0.000000e+000 -4.370000e+000  5.351530e-016
    endloop
  endfacet
  facet normal  0.000000e+000 -9.659259e-001 -2.588190e-001
    outer loop
      vertex  0.000000e+000 -4.370000e+000  5.351530e-016
      vertex  5.000000e-001 -3.784531e+000 -2.185000e+000
      vertex  5.000000e-001 -4.370000e+000  5.351530e-016
    endloop
  endfacet
  facet normal  0.000000e+000 -9.659259e-001  2.588190e-001
    outer loop
      vertex  0.000000e+000 -4.370000e+000  5.351530e-016
      vertex  5.000000e-001 -4.370000e+000  5.351530e-016
      vertex  0.000000e+000 -3.784531e+000  2.185000e+000
    endloop
  endfacet
  facet normal  0.000000e+000 -9.659259e-001  2.588190e-001
    outer loop
      vertex  0.000000e+000 -3.784531e+000  2.185000e+000
      vertex  5.000000e-001 -4.370000e+000  5.351530e-016
      vertex  5.000000e-001 -3.784531e+000  2.185000e+000
    endloop
  endfacet
  facet normal  0.000000e+000 -7.071068e-001  7.071068e-001
    outer loop
      vertex  0.000000e+000 -3.784531e+000  2.185000e+000
      vertex  5.000000e-001 -3.784531e+000  2.185000e+000
      vertex  0.000000e+000 -2.185000e+000  3.784531e+000
    endloop
  endfacet
  facet normal  0.000000e+000 -7.071068e-001  7.071068e-001
    outer loop
      vertex  0.000000e+000 -2.185000e+000  3.784531e+000
      vertex  5.000000e-001 -3.784531e+000  2.185000e+000
      vertex  5.000000e-001 -2.185000e+000  3.784531e+000
    endloop
  endfacet
  facet normal  0.000000e+000 -2.588190e-001  9.659259e-001
    outer loop
      vertex  0.000000e+000 -2.185000e+000  3.784531e+000
      vertex  5.000000e-001 -2.185000e+000  3.784531e+000
      vertex  0.000000e+000 -7.027585e-016  4.370000e+000
    endloop
  endfacet
  facet normal  0.000000e+000 -2.588190e-001  9.659259e-001
    outer loop
      vertex  0.000000e+000 -7.027585e-016  4.370000e+000
      vertex  5.000000e-001 -2.185000e+000  3.784531e+000
      vertex  5.000000e-001 -7.027585e-016  4.370000e+000
    endloop
  endfacet
  facet normal  0.000000e+000  2.588190e-001  9.659259e-001
    outer loop
      vertex  0.000000e+000 -7.027585e-016  4.370000e+000
      vertex  5.000000e-001 -7.027585e-016  4.370000e+000
      vertex  0.000000e+000  2.185000e+000  3.784531e+000
    endloop
  endfacet
  facet normal  -0.000000e+000  2.588190e-001  9.659259e-001
    outer loop
      vertex  0.000000e+000  2.185000e+000  3.784531e+000
      vertex  5.000000e-001 -7.027585e-016  4.370000e+000
      vertex  5.000000e-001  2.185000e+000  3.784531e+000
    endloop
  endfacet
  facet normal  0.000000e+000  7.071068e-001  7.071068e-001
    outer loop
      vertex  0.000000e+000  2.185000e+000  3.784531e+000
      vertex  5.000000e-001  2.185000e+000  3.784531e+000
      vertex  0.000000e+000  3.784531e+000  2.185000e+000
    endloop
  endfacet
  facet normal  -0.000000e+000  7.071068e-001  7.071068e-001
    outer loop
      vertex  0.000000e+000  3.784531e+000  2.185000e+000
      vertex  5.000000e-001  2.185000e+000  3.784531e+000
      vertex  5.000000e-001  3.784531e+000  2.185000e+000
    endloop
  endfacet
  facet normal  0.000000e+000  9.659259e-001  2.588190e-001
    outer loop
      vertex  0.000000e+000  3.784531e+000  2.185000e+000
      vertex  5.000000e-001  3.784531e+000  2.185000e+000
      vertex  0.000000e+000  4.370000e+000  0.000000e+000
    endloop
  endfacet
  facet normal  -0.000000e+000  9.659259e-001  2.588190e-001
    outer loop
      vertex  0.000000e+000  4.370000e+000  0.000000e+000
      vertex  5.000000e-001  3.784531e+000  2.185000e+000
      vertex  5.000000e-001  4.370000e+000  0.000000e+000
    endloop
  endfacet
endsolid CATIA STL
