solid CATIA STL
  facet normal  1.000000e+000  0.000000e+000  -0.000000e+000
    outer loop
      vertex  1.000000e+000 -4.005367e+000 -2.312500e+000
      vertex  1.000000e+000 -2.312500e+000 -4.005367e+000
      vertex  1.000000e+000 -8.188950e-001 -2.520300e+000
    endloop
  endfacet
  facet normal  1.000000e+000  0.000000e+000  0.000000e+000
    outer loop
      vertex  1.000000e+000 -8.188950e-001 -2.520300e+000
      vertex  1.000000e+000 -2.312500e+000 -4.005367e+000
      vertex  1.000000e+000 -5.290463e-015 -4.625000e+000
    endloop
  endfacet
  facet normal  9.999999e-001  0.000000e+000  -0.000000e+000
    outer loop
      vertex  1.000000e+000 -8.188950e-001 -2.520300e+000
      vertex  1.000000e+000 -5.290463e-015 -4.625000e+000
      vertex  1.000000e+000  8.188950e-001 -2.520300e+000
    endloop
  endfacet
  facet normal  1.000000e+000  0.000000e+000  0.000000e+000
    outer loop
      vertex  1.000000e+000  8.188950e-001 -2.520300e+000
      vertex  1.000000e+000 -5.290463e-015 -4.625000e+000
      vertex  1.000000e+000  2.312500e+000 -4.005367e+000
    endloop
  endfacet
  facet normal  1.000000e+000  0.000000e+000  -0.000000e+000
    outer loop
      vertex  1.000000e+000  8.188950e-001 -2.520300e+000
      vertex  1.000000e+000  2.312500e+000 -4.005367e+000
      vertex  1.000000e+000  4.005367e+000 -2.312500e+000
    endloop
  endfacet
  facet normal  9.999999e-001  0.000000e+000  0.000000e+000
    outer loop
      vertex  1.000000e+000  8.518403e-014  4.625000e+000
      vertex  1.000000e+000 -8.188950e-001  2.520300e+000
      vertex  1.000000e+000  2.312500e+000  4.005367e+000
    endloop
  endfacet
  facet normal  1.000000e+000  0.000000e+000  0.000000e+000
    outer loop
      vertex  1.000000e+000  2.312500e+000  4.005367e+000
      vertex  1.000000e+000 -8.188950e-001  2.520300e+000
      vertex  1.000000e+000  8.188950e-001  2.520300e+000
    endloop
  endfacet
  facet normal  1.000000e+000  -0.000000e+000  0.000000e+000
    outer loop
      vertex  1.000000e+000  2.312500e+000  4.005367e+000
      vertex  1.000000e+000  8.188950e-001  2.520300e+000
      vertex  1.000000e+000  4.005367e+000  2.312500e+000
    endloop
  endfacet
  facet normal  1.000000e+000  -0.000000e+000  0.000000e+000
    outer loop
      vertex  1.000000e+000  8.518403e-014  4.625000e+000
      vertex  1.000000e+000 -2.312500e+000  4.005367e+000
      vertex  1.000000e+000 -8.188950e-001  2.520300e+000
    endloop
  endfacet
  facet normal  1.000000e+000  0.000000e+000  0.000000e+000
    outer loop
      vertex  1.000000e+000 -8.188950e-001  2.520300e+000
      vertex  1.000000e+000 -2.312500e+000  4.005367e+000
      vertex  1.000000e+000 -4.005367e+000  2.312500e+000
    endloop
  endfacet
  facet normal  1.000000e+000  -0.000000e+000  0.000000e+000
    outer loop
      vertex  1.000000e+000 -8.188950e-001  2.520300e+000
      vertex  1.000000e+000 -4.005367e+000  2.312500e+000
      vertex  1.000000e+000 -2.143895e+000  1.557631e+000
    endloop
  endfacet
  facet normal  1.000000e+000  0.000000e+000  0.000000e+000
    outer loop
      vertex  1.000000e+000 -2.143895e+000  1.557631e+000
      vertex  1.000000e+000 -4.005367e+000  2.312500e+000
      vertex  1.000000e+000 -4.625000e+000  1.911917e-013
    endloop
  endfacet
  facet normal  1.000000e+000  -0.000000e+000  0.000000e+000
    outer loop
      vertex  1.000000e+000 -2.143895e+000  1.557631e+000
      vertex  1.000000e+000 -4.625000e+000  1.911917e-013
      vertex  1.000000e+000 -2.650000e+000  3.245207e-016
    endloop
  endfacet
  facet normal  1.000000e+000  0.000000e+000  0.000000e+000
    outer loop
      vertex  1.000000e+000 -2.650000e+000  3.245207e-016
      vertex  1.000000e+000 -4.625000e+000  1.911917e-013
      vertex  1.000000e+000 -2.143895e+000 -1.557631e+000
    endloop
  endfacet
  facet normal  1.000000e+000  0.000000e+000  0.000000e+000
    outer loop
      vertex  1.000000e+000 -2.143895e+000 -1.557631e+000
      vertex  1.000000e+000 -4.625000e+000  1.911917e-013
      vertex  1.000000e+000 -4.005367e+000 -2.312500e+000
    endloop
  endfacet
  facet normal  1.000000e+000  -0.000000e+000  0.000000e+000
    outer loop
      vertex  1.000000e+000 -2.143895e+000 -1.557631e+000
      vertex  1.000000e+000 -4.005367e+000 -2.312500e+000
      vertex  1.000000e+000 -8.188950e-001 -2.520300e+000
    endloop
  endfacet
  facet normal  1.000000e+000  0.000000e+000  0.000000e+000
    outer loop
      vertex  1.000000e+000  4.005367e+000  2.312500e+000
      vertex  1.000000e+000  8.188950e-001  2.520300e+000
      vertex  1.000000e+000  4.625000e+000 -1.378214e-015
    endloop
  endfacet
  facet normal  9.999999e-001  0.000000e+000  0.000000e+000
    outer loop
      vertex  1.000000e+000  4.625000e+000 -1.378214e-015
      vertex  1.000000e+000  8.188950e-001  2.520300e+000
      vertex  1.000000e+000  2.143895e+000  1.557631e+000
    endloop
  endfacet
  facet normal  1.000000e+000  0.000000e+000  0.000000e+000
    outer loop
      vertex  1.000000e+000  4.625000e+000 -1.378214e-015
      vertex  1.000000e+000  2.143895e+000  1.557631e+000
      vertex  1.000000e+000  2.650000e+000  0.000000e+000
    endloop
  endfacet
  facet normal  9.999999e-001  0.000000e+000  0.000000e+000
    outer loop
      vertex  1.000000e+000  4.625000e+000 -1.378214e-015
      vertex  1.000000e+000  2.650000e+000  0.000000e+000
      vertex  1.000000e+000  4.005367e+000 -2.312500e+000
    endloop
  endfacet
  facet normal  1.000000e+000  0.000000e+000  0.000000e+000
    outer loop
      vertex  1.000000e+000  4.005367e+000 -2.312500e+000
      vertex  1.000000e+000  2.650000e+000  0.000000e+000
      vertex  1.000000e+000  2.143895e+000 -1.557631e+000
    endloop
  endfacet
  facet normal  1.000000e+000  0.000000e+000  0.000000e+000
    outer loop
      vertex  1.000000e+000  4.005367e+000 -2.312500e+000
      vertex  1.000000e+000  2.143895e+000 -1.557631e+000
      vertex  1.000000e+000  8.188950e-001 -2.520300e+000
    endloop
  endfacet
  facet normal -4.449987e-016  9.659259e-001 -2.588190e-001
    outer loop
      vertex  0.000000e+000  5.000000e+000  0.000000e+000
      vertex  7.122524e-001  5.000000e+000 -1.224606e-015
      vertex  0.000000e+000  4.330127e+000 -2.500000e+000
    endloop
  endfacet
  facet normal  0.000000e+000  9.659259e-001 -2.588190e-001
    outer loop
      vertex  0.000000e+000  4.330127e+000 -2.500000e+000
      vertex  7.122524e-001  5.000000e+000 -1.224606e-015
      vertex  7.122524e-001  4.330127e+000 -2.500000e+000
    endloop
  endfacet
  facet normal  0.000000e+000  7.071068e-001 -7.071068e-001
    outer loop
      vertex  0.000000e+000  4.330127e+000 -2.500000e+000
      vertex  7.122524e-001  4.330127e+000 -2.500000e+000
      vertex  0.000000e+000  2.500000e+000 -4.330127e+000
    endloop
  endfacet
  facet normal  0.000000e+000  7.071068e-001 -7.071068e-001
    outer loop
      vertex  0.000000e+000  2.500000e+000 -4.330127e+000
      vertex  7.122524e-001  4.330127e+000 -2.500000e+000
      vertex  7.122524e-001  2.500000e+000 -4.330127e+000
    endloop
  endfacet
  facet normal  0.000000e+000  2.588190e-001 -9.659259e-001
    outer loop
      vertex  0.000000e+000  2.500000e+000 -4.330127e+000
      vertex  7.122524e-001  2.500000e+000 -4.330127e+000
      vertex  0.000000e+000 -9.184548e-016 -5.000000e+000
    endloop
  endfacet
  facet normal  0.000000e+000  2.588190e-001 -9.659259e-001
    outer loop
      vertex  0.000000e+000 -9.184548e-016 -5.000000e+000
      vertex  7.122524e-001  2.500000e+000 -4.330127e+000
      vertex  7.122524e-001 -9.184548e-016 -5.000000e+000
    endloop
  endfacet
  facet normal  -0.000000e+000 -2.588190e-001 -9.659259e-001
    outer loop
      vertex  0.000000e+000 -9.184548e-016 -5.000000e+000
      vertex  7.122524e-001 -9.184548e-016 -5.000000e+000
      vertex  0.000000e+000 -2.500000e+000 -4.330127e+000
    endloop
  endfacet
  facet normal  0.000000e+000 -2.588190e-001 -9.659259e-001
    outer loop
      vertex  0.000000e+000 -2.500000e+000 -4.330127e+000
      vertex  7.122524e-001 -9.184548e-016 -5.000000e+000
      vertex  7.122524e-001 -2.500000e+000 -4.330127e+000
    endloop
  endfacet
  facet normal  -0.000000e+000 -7.071068e-001 -7.071068e-001
    outer loop
      vertex  0.000000e+000 -2.500000e+000 -4.330127e+000
      vertex  7.122524e-001 -2.500000e+000 -4.330127e+000
      vertex  0.000000e+000 -4.330127e+000 -2.500000e+000
    endloop
  endfacet
  facet normal  0.000000e+000 -7.071068e-001 -7.071068e-001
    outer loop
      vertex  0.000000e+000 -4.330127e+000 -2.500000e+000
      vertex  7.122524e-001 -2.500000e+000 -4.330127e+000
      vertex  7.122524e-001 -4.330127e+000 -2.500000e+000
    endloop
  endfacet
  facet normal  -0.000000e+000 -9.659259e-001 -2.588190e-001
    outer loop
      vertex  0.000000e+000 -4.330127e+000 -2.500000e+000
      vertex  7.122524e-001 -4.330127e+000 -2.500000e+000
      vertex  0.000000e+000 -5.000000e+000  6.123032e-016
    endloop
  endfacet
  facet normal  0.000000e+000 -9.659259e-001 -2.588190e-001
    outer loop
      vertex  0.000000e+000 -5.000000e+000  6.123032e-016
      vertex  7.122524e-001 -4.330127e+000 -2.500000e+000
      vertex  7.122524e-001 -5.000000e+000  6.123032e-016
    endloop
  endfacet
  facet normal  0.000000e+000 -9.659259e-001  2.588190e-001
    outer loop
      vertex  0.000000e+000 -5.000000e+000  6.123032e-016
      vertex  7.122524e-001 -5.000000e+000  6.123032e-016
      vertex  0.000000e+000 -4.330127e+000  2.500000e+000
    endloop
  endfacet
  facet normal  0.000000e+000 -9.659259e-001  2.588190e-001
    outer loop
      vertex  0.000000e+000 -4.330127e+000  2.500000e+000
      vertex  7.122524e-001 -5.000000e+000  6.123032e-016
      vertex  7.122524e-001 -4.330127e+000  2.500000e+000
    endloop
  endfacet
  facet normal  0.000000e+000 -7.071068e-001  7.071068e-001
    outer loop
      vertex  0.000000e+000 -4.330127e+000  2.500000e+000
      vertex  7.122524e-001 -4.330127e+000  2.500000e+000
      vertex  0.000000e+000 -2.500000e+000  4.330127e+000
    endloop
  endfacet
  facet normal  0.000000e+000 -7.071068e-001  7.071068e-001
    outer loop
      vertex  0.000000e+000 -2.500000e+000  4.330127e+000
      vertex  7.122524e-001 -4.330127e+000  2.500000e+000
      vertex  7.122524e-001 -2.500000e+000  4.330127e+000
    endloop
  endfacet
  facet normal  0.000000e+000 -2.588190e-001  9.659259e-001
    outer loop
      vertex  0.000000e+000 -2.500000e+000  4.330127e+000
      vertex  7.122524e-001 -2.500000e+000  4.330127e+000
      vertex  0.000000e+000  3.061516e-016  5.000000e+000
    endloop
  endfacet
  facet normal  0.000000e+000 -2.588190e-001  9.659259e-001
    outer loop
      vertex  0.000000e+000  3.061516e-016  5.000000e+000
      vertex  7.122524e-001 -2.500000e+000  4.330127e+000
      vertex  7.122524e-001  3.061516e-016  5.000000e+000
    endloop
  endfacet
  facet normal  0.000000e+000  2.588190e-001  9.659259e-001
    outer loop
      vertex  0.000000e+000  3.061516e-016  5.000000e+000
      vertex  7.122524e-001  3.061516e-016  5.000000e+000
      vertex  0.000000e+000  2.500000e+000  4.330127e+000
    endloop
  endfacet
  facet normal  -0.000000e+000  2.588190e-001  9.659259e-001
    outer loop
      vertex  0.000000e+000  2.500000e+000  4.330127e+000
      vertex  7.122524e-001  3.061516e-016  5.000000e+000
      vertex  7.122524e-001  2.500000e+000  4.330127e+000
    endloop
  endfacet
  facet normal  0.000000e+000  7.071068e-001  7.071068e-001
    outer loop
      vertex  0.000000e+000  2.500000e+000  4.330127e+000
      vertex  7.122524e-001  2.500000e+000  4.330127e+000
      vertex  0.000000e+000  4.330127e+000  2.500000e+000
    endloop
  endfacet
  facet normal  -0.000000e+000  7.071068e-001  7.071068e-001
    outer loop
      vertex  0.000000e+000  4.330127e+000  2.500000e+000
      vertex  7.122524e-001  2.500000e+000  4.330127e+000
      vertex  7.122524e-001  4.330127e+000  2.500000e+000
    endloop
  endfacet
  facet normal  0.000000e+000  9.659259e-001  2.588190e-001
    outer loop
      vertex  0.000000e+000  4.330127e+000  2.500000e+000
      vertex  7.122524e-001  4.330127e+000  2.500000e+000
      vertex  0.000000e+000  5.000000e+000  0.000000e+000
    endloop
  endfacet
  facet normal  4.449987e-016  9.659259e-001  2.588190e-001
    outer loop
      vertex  0.000000e+000  5.000000e+000  0.000000e+000
      vertex  7.122524e-001  4.330127e+000  2.500000e+000
      vertex  7.122524e-001  5.000000e+000 -1.224606e-015
    endloop
  endfacet
  facet normal  7.830053e-001 -1.609893e-001 -6.008204e-001
    outer loop
      vertex  7.122524e-001 -9.184548e-016 -5.000000e+000
      vertex  1.000000e+000 -2.312500e+000 -4.005367e+000
      vertex  7.122524e-001 -2.500000e+000 -4.330127e+000
    endloop
  endfacet
  facet normal  7.830052e-001 -4.398312e-001 -4.398312e-001
    outer loop
      vertex  7.122524e-001 -2.500000e+000 -4.330127e+000
      vertex  1.000000e+000 -2.312500e+000 -4.005367e+000
      vertex  1.000000e+000 -4.005367e+000 -2.312500e+000
    endloop
  endfacet
  facet normal  7.830052e-001 -4.398312e-001 -4.398312e-001
    outer loop
      vertex  7.122524e-001 -2.500000e+000 -4.330127e+000
      vertex  1.000000e+000 -4.005367e+000 -2.312500e+000
      vertex  7.122524e-001 -4.330127e+000 -2.500000e+000
    endloop
  endfacet
  facet normal  7.830054e-001 -6.008204e-001 -1.609894e-001
    outer loop
      vertex  7.122524e-001 -4.330127e+000 -2.500000e+000
      vertex  1.000000e+000 -4.005367e+000 -2.312500e+000
      vertex  1.000000e+000 -4.625000e+000  1.911917e-013
    endloop
  endfacet
  facet normal  7.830049e-001 -6.008208e-001 -1.609894e-001
    outer loop
      vertex  7.122524e-001 -4.330127e+000 -2.500000e+000
      vertex  1.000000e+000 -4.625000e+000  1.911917e-013
      vertex  7.122524e-001 -5.000000e+000  6.123032e-016
    endloop
  endfacet
  facet normal  7.830049e-001 -1.609895e-001 -6.008208e-001
    outer loop
      vertex  1.000000e+000 -2.312500e+000 -4.005367e+000
      vertex  7.122524e-001 -9.184548e-016 -5.000000e+000
      vertex  1.000000e+000 -5.290463e-015 -4.625000e+000
    endloop
  endfacet
  facet normal  7.830049e-001  1.609894e-001 -6.008208e-001
    outer loop
      vertex  1.000000e+000 -5.290463e-015 -4.625000e+000
      vertex  7.122524e-001 -9.184548e-016 -5.000000e+000
      vertex  7.122524e-001  2.500000e+000 -4.330127e+000
    endloop
  endfacet
  facet normal  7.830054e-001  1.609894e-001 -6.008204e-001
    outer loop
      vertex  1.000000e+000 -5.290463e-015 -4.625000e+000
      vertex  7.122524e-001  2.500000e+000 -4.330127e+000
      vertex  1.000000e+000  2.312500e+000 -4.005367e+000
    endloop
  endfacet
  facet normal  7.830052e-001  4.398312e-001 -4.398312e-001
    outer loop
      vertex  1.000000e+000  2.312500e+000 -4.005367e+000
      vertex  7.122524e-001  2.500000e+000 -4.330127e+000
      vertex  7.122524e-001  4.330127e+000 -2.500000e+000
    endloop
  endfacet
  facet normal  7.830052e-001  4.398312e-001 -4.398312e-001
    outer loop
      vertex  1.000000e+000  2.312500e+000 -4.005367e+000
      vertex  7.122524e-001  4.330127e+000 -2.500000e+000
      vertex  1.000000e+000  4.005367e+000 -2.312500e+000
    endloop
  endfacet
  facet normal  7.830053e-001  6.008204e-001 -1.609893e-001
    outer loop
      vertex  1.000000e+000  4.005367e+000 -2.312500e+000
      vertex  7.122524e-001  4.330127e+000 -2.500000e+000
      vertex  7.122524e-001  5.000000e+000 -1.224606e-015
    endloop
  endfacet
  facet normal  7.830049e-001  6.008208e-001 -1.609895e-001
    outer loop
      vertex  1.000000e+000  4.005367e+000 -2.312500e+000
      vertex  7.122524e-001  5.000000e+000 -1.224606e-015
      vertex  1.000000e+000  4.625000e+000 -1.378214e-015
    endloop
  endfacet
  facet normal  7.830053e-001  1.609893e-001  6.008204e-001
    outer loop
      vertex  7.122524e-001  3.061516e-016  5.000000e+000
      vertex  1.000000e+000  2.312500e+000  4.005367e+000
      vertex  7.122524e-001  2.500000e+000  4.330127e+000
    endloop
  endfacet
  facet normal  7.830052e-001  4.398312e-001  4.398312e-001
    outer loop
      vertex  7.122524e-001  2.500000e+000  4.330127e+000
      vertex  1.000000e+000  2.312500e+000  4.005367e+000
      vertex  1.000000e+000  4.005367e+000  2.312500e+000
    endloop
  endfacet
  facet normal  7.830052e-001  4.398312e-001  4.398312e-001
    outer loop
      vertex  7.122524e-001  2.500000e+000  4.330127e+000
      vertex  1.000000e+000  4.005367e+000  2.312500e+000
      vertex  7.122524e-001  4.330127e+000  2.500000e+000
    endloop
  endfacet
  facet normal  7.830054e-001  6.008204e-001  1.609894e-001
    outer loop
      vertex  7.122524e-001  4.330127e+000  2.500000e+000
      vertex  1.000000e+000  4.005367e+000  2.312500e+000
      vertex  1.000000e+000  4.625000e+000 -1.378214e-015
    endloop
  endfacet
  facet normal  7.830049e-001  6.008208e-001  1.609894e-001
    outer loop
      vertex  7.122524e-001  4.330127e+000  2.500000e+000
      vertex  1.000000e+000  4.625000e+000 -1.378214e-015
      vertex  7.122524e-001  5.000000e+000 -1.224606e-015
    endloop
  endfacet
  facet normal  7.830049e-001  1.609895e-001  6.008208e-001
    outer loop
      vertex  1.000000e+000  2.312500e+000  4.005367e+000
      vertex  7.122524e-001  3.061516e-016  5.000000e+000
      vertex  1.000000e+000  8.518403e-014  4.625000e+000
    endloop
  endfacet
  facet normal  7.830049e-001 -1.609894e-001  6.008208e-001
    outer loop
      vertex  1.000000e+000  8.518403e-014  4.625000e+000
      vertex  7.122524e-001  3.061516e-016  5.000000e+000
      vertex  7.122524e-001 -2.500000e+000  4.330127e+000
    endloop
  endfacet
  facet normal  7.830054e-001 -1.609894e-001  6.008204e-001
    outer loop
      vertex  1.000000e+000  8.518403e-014  4.625000e+000
      vertex  7.122524e-001 -2.500000e+000  4.330127e+000
      vertex  1.000000e+000 -2.312500e+000  4.005367e+000
    endloop
  endfacet
  facet normal  7.830052e-001 -4.398312e-001  4.398312e-001
    outer loop
      vertex  1.000000e+000 -2.312500e+000  4.005367e+000
      vertex  7.122524e-001 -2.500000e+000  4.330127e+000
      vertex  7.122524e-001 -4.330127e+000  2.500000e+000
    endloop
  endfacet
  facet normal  7.830052e-001 -4.398312e-001  4.398312e-001
    outer loop
      vertex  1.000000e+000 -2.312500e+000  4.005367e+000
      vertex  7.122524e-001 -4.330127e+000  2.500000e+000
      vertex  1.000000e+000 -4.005367e+000  2.312500e+000
    endloop
  endfacet
  facet normal  7.830053e-001 -6.008204e-001  1.609893e-001
    outer loop
      vertex  1.000000e+000 -4.005367e+000  2.312500e+000
      vertex  7.122524e-001 -4.330127e+000  2.500000e+000
      vertex  7.122524e-001 -5.000000e+000  6.123032e-016
    endloop
  endfacet
  facet normal  7.830049e-001 -6.008208e-001  1.609895e-001
    outer loop
      vertex  1.000000e+000 -4.005367e+000  2.312500e+000
      vertex  7.122524e-001 -5.000000e+000  6.123032e-016
      vertex  1.000000e+000 -4.625000e+000  1.911917e-013
    endloop
  endfacet
  facet normal -1.000000e+000  0.000000e+000  0.000000e+000
    outer loop
      vertex  0.000000e+000  4.330127e+000 -2.500000e+000
      vertex  0.000000e+000  2.500000e+000 -4.330127e+000
      vertex  0.000000e+000  8.188950e-001 -2.520300e+000
    endloop
  endfacet
  facet normal -9.999999e-001  0.000000e+000  -0.000000e+000
    outer loop
      vertex  0.000000e+000  8.188950e-001 -2.520300e+000
      vertex  0.000000e+000  2.500000e+000 -4.330127e+000
      vertex  0.000000e+000 -9.184548e-016 -5.000000e+000
    endloop
  endfacet
  facet normal -1.000000e+000  0.000000e+000  0.000000e+000
    outer loop
      vertex  0.000000e+000  8.188950e-001 -2.520300e+000
      vertex  0.000000e+000 -9.184548e-016 -5.000000e+000
      vertex  0.000000e+000 -8.188950e-001 -2.520300e+000
    endloop
  endfacet
  facet normal -9.999999e-001  0.000000e+000  -0.000000e+000
    outer loop
      vertex  0.000000e+000 -8.188950e-001 -2.520300e+000
      vertex  0.000000e+000 -9.184548e-016 -5.000000e+000
      vertex  0.000000e+000 -2.500000e+000 -4.330127e+000
    endloop
  endfacet
  facet normal -1.000000e+000  0.000000e+000  0.000000e+000
    outer loop
      vertex  0.000000e+000 -8.188950e-001 -2.520300e+000
      vertex  0.000000e+000 -2.500000e+000 -4.330127e+000
      vertex  0.000000e+000 -4.330127e+000 -2.500000e+000
    endloop
  endfacet
  facet normal -1.000000e+000  0.000000e+000  0.000000e+000
    outer loop
      vertex  0.000000e+000  4.330127e+000  2.500000e+000
      vertex  0.000000e+000  8.188950e-001  2.520300e+000
      vertex  0.000000e+000  2.500000e+000  4.330127e+000
    endloop
  endfacet
  facet normal -1.000000e+000  0.000000e+000  0.000000e+000
    outer loop
      vertex  0.000000e+000  2.500000e+000  4.330127e+000
      vertex  0.000000e+000  8.188950e-001  2.520300e+000
      vertex  0.000000e+000 -8.188950e-001  2.520300e+000
    endloop
  endfacet
  facet normal -1.000000e+000  0.000000e+000  0.000000e+000
    outer loop
      vertex  0.000000e+000  2.500000e+000  4.330127e+000
      vertex  0.000000e+000 -8.188950e-001  2.520300e+000
      vertex  0.000000e+000  3.061516e-016  5.000000e+000
    endloop
  endfacet
  facet normal -1.000000e+000  0.000000e+000  0.000000e+000
    outer loop
      vertex  0.000000e+000 -2.650000e+000  3.245207e-016
      vertex  0.000000e+000 -5.000000e+000  6.123032e-016
      vertex  0.000000e+000 -2.143895e+000  1.557631e+000
    endloop
  endfacet
  facet normal -1.000000e+000  -0.000000e+000  0.000000e+000
    outer loop
      vertex  0.000000e+000 -2.143895e+000  1.557631e+000
      vertex  0.000000e+000 -5.000000e+000  6.123032e-016
      vertex  0.000000e+000 -4.330127e+000  2.500000e+000
    endloop
  endfacet
  facet normal -1.000000e+000  0.000000e+000  0.000000e+000
    outer loop
      vertex  0.000000e+000 -2.143895e+000  1.557631e+000
      vertex  0.000000e+000 -4.330127e+000  2.500000e+000
      vertex  0.000000e+000 -8.188950e-001  2.520300e+000
    endloop
  endfacet
  facet normal -1.000000e+000  -0.000000e+000  0.000000e+000
    outer loop
      vertex  0.000000e+000 -8.188950e-001  2.520300e+000
      vertex  0.000000e+000 -4.330127e+000  2.500000e+000
      vertex  0.000000e+000 -2.500000e+000  4.330127e+000
    endloop
  endfacet
  facet normal -9.999999e-001  0.000000e+000  0.000000e+000
    outer loop
      vertex  0.000000e+000 -8.188950e-001  2.520300e+000
      vertex  0.000000e+000 -2.500000e+000  4.330127e+000
      vertex  0.000000e+000  3.061516e-016  5.000000e+000
    endloop
  endfacet
  facet normal -1.000000e+000  0.000000e+000  0.000000e+000
    outer loop
      vertex  0.000000e+000 -8.188950e-001 -2.520300e+000
      vertex  0.000000e+000 -4.330127e+000 -2.500000e+000
      vertex  0.000000e+000 -2.143895e+000 -1.557631e+000
    endloop
  endfacet
  facet normal -1.000000e+000  -0.000000e+000  0.000000e+000
    outer loop
      vertex  0.000000e+000 -2.143895e+000 -1.557631e+000
      vertex  0.000000e+000 -4.330127e+000 -2.500000e+000
      vertex  0.000000e+000 -5.000000e+000  6.123032e-016
    endloop
  endfacet
  facet normal -1.000000e+000  0.000000e+000  0.000000e+000
    outer loop
      vertex  0.000000e+000 -2.143895e+000 -1.557631e+000
      vertex  0.000000e+000 -5.000000e+000  6.123032e-016
      vertex  0.000000e+000 -2.650000e+000  3.245207e-016
    endloop
  endfacet
  facet normal -1.000000e+000  0.000000e+000  0.000000e+000
    outer loop
      vertex  0.000000e+000  2.650000e+000  0.000000e+000
      vertex  0.000000e+000  2.143895e+000  1.557631e+000
      vertex  0.000000e+000  5.000000e+000  0.000000e+000
    endloop
  endfacet
  facet normal -1.000000e+000  0.000000e+000  0.000000e+000
    outer loop
      vertex  0.000000e+000  5.000000e+000  0.000000e+000
      vertex  0.000000e+000  2.143895e+000  1.557631e+000
      vertex  0.000000e+000  8.188950e-001  2.520300e+000
    endloop
  endfacet
  facet normal -1.000000e+000  0.000000e+000  0.000000e+000
    outer loop
      vertex  0.000000e+000  5.000000e+000  0.000000e+000
      vertex  0.000000e+000  8.188950e-001  2.520300e+000
      vertex  0.000000e+000  4.330127e+000  2.500000e+000
    endloop
  endfacet
  facet normal -1.000000e+000  0.000000e+000  -0.000000e+000
    outer loop
      vertex  0.000000e+000  8.188950e-001 -2.520300e+000
      vertex  0.000000e+000  2.143895e+000 -1.557631e+000
      vertex  0.000000e+000  4.330127e+000 -2.500000e+000
    endloop
  endfacet
  facet normal -1.000000e+000  0.000000e+000  0.000000e+000
    outer loop
      vertex  0.000000e+000  4.330127e+000 -2.500000e+000
      vertex  0.000000e+000  2.143895e+000 -1.557631e+000
      vertex  0.000000e+000  2.650000e+000  0.000000e+000
    endloop
  endfacet
  facet normal -9.999999e-001  0.000000e+000  0.000000e+000
    outer loop
      vertex  0.000000e+000  4.330127e+000 -2.500000e+000
      vertex  0.000000e+000  2.650000e+000  0.000000e+000
      vertex  0.000000e+000  5.000000e+000  0.000000e+000
    endloop
  endfacet
  facet normal  0.000000e+000  5.877852e-001 -8.090170e-001
    outer loop
      vertex  0.000000e+000 -8.188950e-001  2.520300e+000
      vertex  1.000000e+000 -2.143895e+000  1.557631e+000
      vertex  0.000000e+000 -2.143895e+000  1.557631e+000
    endloop
  endfacet
  facet normal  0.000000e+000  9.510565e-001 -3.090170e-001
    outer loop
      vertex  0.000000e+000 -2.143895e+000  1.557631e+000
      vertex  1.000000e+000 -2.143895e+000  1.557631e+000
      vertex  1.000000e+000 -2.650000e+000  3.245207e-016
    endloop
  endfacet
  facet normal  0.000000e+000  9.510565e-001 -3.090170e-001
    outer loop
      vertex  0.000000e+000 -2.143895e+000  1.557631e+000
      vertex  1.000000e+000 -2.650000e+000  3.245207e-016
      vertex  0.000000e+000 -2.650000e+000  3.245207e-016
    endloop
  endfacet
  facet normal  0.000000e+000  5.877852e-001 -8.090170e-001
    outer loop
      vertex  1.000000e+000 -2.143895e+000  1.557631e+000
      vertex  0.000000e+000 -8.188950e-001  2.520300e+000
      vertex  1.000000e+000 -8.188950e-001  2.520300e+000
    endloop
  endfacet
  facet normal  0.000000e+000  0.000000e+000 -9.999999e-001
    outer loop
      vertex  1.000000e+000 -8.188950e-001  2.520300e+000
      vertex  0.000000e+000 -8.188950e-001  2.520300e+000
      vertex  0.000000e+000  8.188950e-001  2.520300e+000
    endloop
  endfacet
  facet normal  0.000000e+000  0.000000e+000 -9.999999e-001
    outer loop
      vertex  1.000000e+000 -8.188950e-001  2.520300e+000
      vertex  0.000000e+000  8.188950e-001  2.520300e+000
      vertex  1.000000e+000  8.188950e-001  2.520300e+000
    endloop
  endfacet
  facet normal  -0.000000e+000 -5.877852e-001 -8.090170e-001
    outer loop
      vertex  1.000000e+000  8.188950e-001  2.520300e+000
      vertex  0.000000e+000  8.188950e-001  2.520300e+000
      vertex  0.000000e+000  2.143895e+000  1.557631e+000
    endloop
  endfacet
  facet normal  0.000000e+000 -5.877852e-001 -8.090170e-001
    outer loop
      vertex  1.000000e+000  8.188950e-001  2.520300e+000
      vertex  0.000000e+000  2.143895e+000  1.557631e+000
      vertex  1.000000e+000  2.143895e+000  1.557631e+000
    endloop
  endfacet
  facet normal  -0.000000e+000 -9.510565e-001 -3.090170e-001
    outer loop
      vertex  1.000000e+000  2.143895e+000  1.557631e+000
      vertex  0.000000e+000  2.143895e+000  1.557631e+000
      vertex  0.000000e+000  2.650000e+000  0.000000e+000
    endloop
  endfacet
  facet normal  0.000000e+000 -9.510565e-001 -3.090170e-001
    outer loop
      vertex  1.000000e+000  2.143895e+000  1.557631e+000
      vertex  0.000000e+000  2.650000e+000  0.000000e+000
      vertex  1.000000e+000  2.650000e+000  0.000000e+000
    endloop
  endfacet
  facet normal  0.000000e+000 -5.877852e-001  8.090170e-001
    outer loop
      vertex  0.000000e+000  8.188950e-001 -2.520300e+000
      vertex  1.000000e+000  2.143895e+000 -1.557631e+000
      vertex  0.000000e+000  2.143895e+000 -1.557631e+000
    endloop
  endfacet
  facet normal  0.000000e+000 -9.510565e-001  3.090170e-001
    outer loop
      vertex  0.000000e+000  2.143895e+000 -1.557631e+000
      vertex  1.000000e+000  2.143895e+000 -1.557631e+000
      vertex  1.000000e+000  2.650000e+000  0.000000e+000
    endloop
  endfacet
  facet normal  0.000000e+000 -9.510565e-001  3.090170e-001
    outer loop
      vertex  0.000000e+000  2.143895e+000 -1.557631e+000
      vertex  1.000000e+000  2.650000e+000  0.000000e+000
      vertex  0.000000e+000  2.650000e+000  0.000000e+000
    endloop
  endfacet
  facet normal  0.000000e+000 -5.877852e-001  8.090170e-001
    outer loop
      vertex  1.000000e+000  2.143895e+000 -1.557631e+000
      vertex  0.000000e+000  8.188950e-001 -2.520300e+000
      vertex  1.000000e+000  8.188950e-001 -2.520300e+000
    endloop
  endfacet
  facet normal  0.000000e+000  0.000000e+000  9.999999e-001
    outer loop
      vertex  1.000000e+000  8.188950e-001 -2.520300e+000
      vertex  0.000000e+000  8.188950e-001 -2.520300e+000
      vertex  0.000000e+000 -8.188950e-001 -2.520300e+000
    endloop
  endfacet
  facet normal  0.000000e+000  0.000000e+000  9.999999e-001
    outer loop
      vertex  1.000000e+000  8.188950e-001 -2.520300e+000
      vertex  0.000000e+000 -8.188950e-001 -2.520300e+000
      vertex  1.000000e+000 -8.188950e-001 -2.520300e+000
    endloop
  endfacet
  facet normal  0.000000e+000  5.877852e-001  8.090170e-001
    outer loop
      vertex  1.000000e+000 -8.188950e-001 -2.520300e+000
      vertex  0.000000e+000 -8.188950e-001 -2.520300e+000
      vertex  0.000000e+000 -2.143895e+000 -1.557631e+000
    endloop
  endfacet
  facet normal  -0.000000e+000  5.877852e-001  8.090170e-001
    outer loop
      vertex  1.000000e+000 -8.188950e-001 -2.520300e+000
      vertex  0.000000e+000 -2.143895e+000 -1.557631e+000
      vertex  1.000000e+000 -2.143895e+000 -1.557631e+000
    endloop
  endfacet
  facet normal  0.000000e+000  9.510565e-001  3.090170e-001
    outer loop
      vertex  1.000000e+000 -2.143895e+000 -1.557631e+000
      vertex  0.000000e+000 -2.143895e+000 -1.557631e+000
      vertex  0.000000e+000 -2.650000e+000  3.245207e-016
    endloop
  endfacet
  facet normal  -0.000000e+000  9.510565e-001  3.090170e-001
    outer loop
      vertex  1.000000e+000 -2.143895e+000 -1.557631e+000
      vertex  0.000000e+000 -2.650000e+000  3.245207e-016
      vertex  1.000000e+000 -2.650000e+000  3.245207e-016
    endloop
  endfacet
endsolid CATIA STL
