solid CATIA STL
  facet normal  0.000000e+000 -9.510565e-001 -3.090171e-001
    outer loop
      vertex -1.200000e+001 -2.926829e+000 -7.168428e-016
      vertex -2.900000e+001 -2.926829e+000 -7.168428e-016
      vertex -1.200000e+001 -2.367855e+000 -1.720347e+000
    endloop
  endfacet
  facet normal  -0.000000e+000 -9.510565e-001 -3.090171e-001
    outer loop
      vertex -1.200000e+001 -2.367855e+000 -1.720347e+000
      vertex -2.900000e+001 -2.926829e+000 -7.168428e-016
      vertex -2.900000e+001 -2.367855e+000 -1.720347e+000
    endloop
  endfacet
  facet normal  0.000000e+000 -5.877852e-001 -8.090169e-001
    outer loop
      vertex -1.200000e+001 -2.367855e+000 -1.720347e+000
      vertex -2.900000e+001 -2.367855e+000 -1.720347e+000
      vertex -1.200000e+001 -9.044400e-001 -2.783580e+000
    endloop
  endfacet
  facet normal  -0.000000e+000 -5.877852e-001 -8.090169e-001
    outer loop
      vertex -1.200000e+001 -9.044400e-001 -2.783580e+000
      vertex -2.900000e+001 -2.367855e+000 -1.720347e+000
      vertex -2.900000e+001 -9.044400e-001 -2.783580e+000
    endloop
  endfacet
  facet normal  0.000000e+000  0.000000e+000 -1.000000e+000
    outer loop
      vertex -1.200000e+001 -9.044400e-001 -2.783580e+000
      vertex -2.900000e+001 -9.044400e-001 -2.783580e+000
      vertex -1.200000e+001  9.044400e-001 -2.783580e+000
    endloop
  endfacet
  facet normal  -0.000000e+000  0.000000e+000 -1.000000e+000
    outer loop
      vertex -1.200000e+001  9.044400e-001 -2.783580e+000
      vertex -2.900000e+001 -9.044400e-001 -2.783580e+000
      vertex -2.900000e+001  9.044400e-001 -2.783580e+000
    endloop
  endfacet
  facet normal  0.000000e+000  5.877852e-001 -8.090169e-001
    outer loop
      vertex -1.200000e+001  9.044400e-001 -2.783580e+000
      vertex -2.900000e+001  9.044400e-001 -2.783580e+000
      vertex -1.200000e+001  2.367855e+000 -1.720347e+000
    endloop
  endfacet
  facet normal  0.000000e+000  5.877852e-001 -8.090169e-001
    outer loop
      vertex -1.200000e+001  2.367855e+000 -1.720347e+000
      vertex -2.900000e+001  9.044400e-001 -2.783580e+000
      vertex -2.900000e+001  2.367855e+000 -1.720347e+000
    endloop
  endfacet
  facet normal  0.000000e+000  9.510565e-001 -3.090171e-001
    outer loop
      vertex -1.200000e+001  2.367855e+000 -1.720347e+000
      vertex -2.900000e+001  2.367855e+000 -1.720347e+000
      vertex -1.200000e+001  2.926829e+000  3.584214e-016
    endloop
  endfacet
  facet normal  0.000000e+000  9.510565e-001 -3.090171e-001
    outer loop
      vertex -1.200000e+001  2.926829e+000  3.584214e-016
      vertex -2.900000e+001  2.367855e+000 -1.720347e+000
      vertex -2.900000e+001  2.926829e+000  3.584214e-016
    endloop
  endfacet
  facet normal  -0.000000e+000  9.510565e-001  3.090171e-001
    outer loop
      vertex -1.200000e+001  2.926829e+000  3.584214e-016
      vertex -2.900000e+001  2.926829e+000  3.584214e-016
      vertex -1.200000e+001  2.367855e+000  1.720347e+000
    endloop
  endfacet
  facet normal  0.000000e+000  9.510565e-001  3.090171e-001
    outer loop
      vertex -1.200000e+001  2.367855e+000  1.720347e+000
      vertex -2.900000e+001  2.926829e+000  3.584214e-016
      vertex -2.900000e+001  2.367855e+000  1.720347e+000
    endloop
  endfacet
  facet normal  -0.000000e+000  5.877852e-001  8.090169e-001
    outer loop
      vertex -1.200000e+001  2.367855e+000  1.720347e+000
      vertex -2.900000e+001  2.367855e+000  1.720347e+000
      vertex -1.200000e+001  9.044400e-001  2.783580e+000
    endloop
  endfacet
  facet normal  0.000000e+000  5.877852e-001  8.090169e-001
    outer loop
      vertex -1.200000e+001  9.044400e-001  2.783580e+000
      vertex -2.900000e+001  2.367855e+000  1.720347e+000
      vertex -2.900000e+001  9.044400e-001  2.783580e+000
    endloop
  endfacet
  facet normal  -0.000000e+000  0.000000e+000  1.000000e+000
    outer loop
      vertex -1.200000e+001  9.044400e-001  2.783580e+000
      vertex -2.900000e+001  9.044400e-001  2.783580e+000
      vertex -1.200000e+001 -9.044400e-001  2.783580e+000
    endloop
  endfacet
  facet normal  0.000000e+000  0.000000e+000  1.000000e+000
    outer loop
      vertex -1.200000e+001 -9.044400e-001  2.783580e+000
      vertex -2.900000e+001  9.044400e-001  2.783580e+000
      vertex -2.900000e+001 -9.044400e-001  2.783580e+000
    endloop
  endfacet
  facet normal  0.000000e+000 -5.877852e-001  8.090169e-001
    outer loop
      vertex -1.200000e+001 -9.044400e-001  2.783580e+000
      vertex -2.900000e+001 -9.044400e-001  2.783580e+000
      vertex -1.200000e+001 -2.367855e+000  1.720347e+000
    endloop
  endfacet
  facet normal  0.000000e+000 -5.877852e-001  8.090169e-001
    outer loop
      vertex -1.200000e+001 -2.367855e+000  1.720347e+000
      vertex -2.900000e+001 -9.044400e-001  2.783580e+000
      vertex -2.900000e+001 -2.367855e+000  1.720347e+000
    endloop
  endfacet
  facet normal  0.000000e+000 -9.510565e-001  3.090171e-001
    outer loop
      vertex -1.200000e+001 -2.367855e+000  1.720347e+000
      vertex -2.900000e+001 -2.367855e+000  1.720347e+000
      vertex -1.200000e+001 -2.926829e+000 -7.168428e-016
    endloop
  endfacet
  facet normal  0.000000e+000 -9.510565e-001  3.090171e-001
    outer loop
      vertex -1.200000e+001 -2.926829e+000 -7.168428e-016
      vertex -2.900000e+001 -2.367855e+000  1.720347e+000
      vertex -2.900000e+001 -2.926829e+000 -7.168428e-016
    endloop
  endfacet
  facet normal  -0.000000e+000  9.510565e-001  3.090170e-001
    outer loop
      vertex -2.500000e-001  3.000000e+000  3.673819e-016
      vertex -1.200000e+001  3.000000e+000  3.673819e-016
      vertex -2.500000e-001  2.427051e+000  1.763356e+000
    endloop
  endfacet
  facet normal  0.000000e+000  9.510565e-001  3.090170e-001
    outer loop
      vertex -2.500000e-001  2.427051e+000  1.763356e+000
      vertex -1.200000e+001  3.000000e+000  3.673819e-016
      vertex -1.200000e+001  2.427051e+000  1.763356e+000
    endloop
  endfacet
  facet normal  -0.000000e+000  5.877852e-001  8.090170e-001
    outer loop
      vertex -2.500000e-001  2.427051e+000  1.763356e+000
      vertex -1.200000e+001  2.427051e+000  1.763356e+000
      vertex -2.500000e-001  9.270510e-001  2.853169e+000
    endloop
  endfacet
  facet normal  0.000000e+000  5.877852e-001  8.090170e-001
    outer loop
      vertex -2.500000e-001  9.270510e-001  2.853169e+000
      vertex -1.200000e+001  2.427051e+000  1.763356e+000
      vertex -1.200000e+001  9.270510e-001  2.853169e+000
    endloop
  endfacet
  facet normal  -0.000000e+000  0.000000e+000  1.000000e+000
    outer loop
      vertex -2.500000e-001  9.270510e-001  2.853169e+000
      vertex -1.200000e+001  9.270510e-001  2.853169e+000
      vertex -2.500000e-001 -9.270510e-001  2.853169e+000
    endloop
  endfacet
  facet normal  0.000000e+000  0.000000e+000  1.000000e+000
    outer loop
      vertex -2.500000e-001 -9.270510e-001  2.853169e+000
      vertex -1.200000e+001  9.270510e-001  2.853169e+000
      vertex -1.200000e+001 -9.270510e-001  2.853169e+000
    endloop
  endfacet
  facet normal  0.000000e+000 -5.877852e-001  8.090170e-001
    outer loop
      vertex -2.500000e-001 -9.270510e-001  2.853169e+000
      vertex -1.200000e+001 -9.270510e-001  2.853169e+000
      vertex -2.500000e-001 -2.427051e+000  1.763356e+000
    endloop
  endfacet
  facet normal  0.000000e+000 -5.877852e-001  8.090170e-001
    outer loop
      vertex -2.500000e-001 -2.427051e+000  1.763356e+000
      vertex -1.200000e+001 -9.270510e-001  2.853169e+000
      vertex -1.200000e+001 -2.427051e+000  1.763356e+000
    endloop
  endfacet
  facet normal  0.000000e+000 -9.510565e-001  3.090170e-001
    outer loop
      vertex -2.500000e-001 -2.427051e+000  1.763356e+000
      vertex -1.200000e+001 -2.427051e+000  1.763356e+000
      vertex -2.500000e-001 -3.000000e+000  0.000000e+000
    endloop
  endfacet
  facet normal  0.000000e+000 -9.510565e-001  3.090170e-001
    outer loop
      vertex -2.500000e-001 -3.000000e+000  0.000000e+000
      vertex -1.200000e+001 -2.427051e+000  1.763356e+000
      vertex -1.200000e+001 -3.000000e+000  0.000000e+000
    endloop
  endfacet
  facet normal  0.000000e+000 -9.510565e-001 -3.090170e-001
    outer loop
      vertex -2.500000e-001 -3.000000e+000  0.000000e+000
      vertex -1.200000e+001 -3.000000e+000  0.000000e+000
      vertex -2.500000e-001 -2.427051e+000 -1.763356e+000
    endloop
  endfacet
  facet normal  -0.000000e+000 -9.510565e-001 -3.090170e-001
    outer loop
      vertex -2.500000e-001 -2.427051e+000 -1.763356e+000
      vertex -1.200000e+001 -3.000000e+000  0.000000e+000
      vertex -1.200000e+001 -2.427051e+000 -1.763356e+000
    endloop
  endfacet
  facet normal  0.000000e+000 -5.877852e-001 -8.090170e-001
    outer loop
      vertex -2.500000e-001 -2.427051e+000 -1.763356e+000
      vertex -1.200000e+001 -2.427051e+000 -1.763356e+000
      vertex -2.500000e-001 -9.270510e-001 -2.853169e+000
    endloop
  endfacet
  facet normal  -0.000000e+000 -5.877852e-001 -8.090170e-001
    outer loop
      vertex -2.500000e-001 -9.270510e-001 -2.853169e+000
      vertex -1.200000e+001 -2.427051e+000 -1.763356e+000
      vertex -1.200000e+001 -9.270510e-001 -2.853169e+000
    endloop
  endfacet
  facet normal  0.000000e+000  0.000000e+000 -1.000000e+000
    outer loop
      vertex -2.500000e-001 -9.270510e-001 -2.853169e+000
      vertex -1.200000e+001 -9.270510e-001 -2.853169e+000
      vertex -2.500000e-001  9.270510e-001 -2.853169e+000
    endloop
  endfacet
  facet normal  -0.000000e+000  0.000000e+000 -1.000000e+000
    outer loop
      vertex -2.500000e-001  9.270510e-001 -2.853169e+000
      vertex -1.200000e+001 -9.270510e-001 -2.853169e+000
      vertex -1.200000e+001  9.270510e-001 -2.853169e+000
    endloop
  endfacet
  facet normal  0.000000e+000  5.877852e-001 -8.090170e-001
    outer loop
      vertex -2.500000e-001  9.270510e-001 -2.853169e+000
      vertex -1.200000e+001  9.270510e-001 -2.853169e+000
      vertex -2.500000e-001  2.427051e+000 -1.763356e+000
    endloop
  endfacet
  facet normal  0.000000e+000  5.877852e-001 -8.090170e-001
    outer loop
      vertex -2.500000e-001  2.427051e+000 -1.763356e+000
      vertex -1.200000e+001  9.270510e-001 -2.853169e+000
      vertex -1.200000e+001  2.427051e+000 -1.763356e+000
    endloop
  endfacet
  facet normal  0.000000e+000  9.510565e-001 -3.090170e-001
    outer loop
      vertex -2.500000e-001  2.427051e+000 -1.763356e+000
      vertex -1.200000e+001  2.427051e+000 -1.763356e+000
      vertex -2.500000e-001  3.000000e+000  3.673819e-016
    endloop
  endfacet
  facet normal  0.000000e+000  9.510565e-001 -3.090170e-001
    outer loop
      vertex -2.500000e-001  3.000000e+000  3.673819e-016
      vertex -1.200000e+001  2.427051e+000 -1.763356e+000
      vertex -1.200000e+001  3.000000e+000  3.673819e-016
    endloop
  endfacet
  facet normal -1.000000e+000  0.000000e+000  -0.000000e+000
    outer loop
      vertex  0.000000e+000 -2.220000e+000 -3.845153e+000
      vertex  0.000000e+000 -1.004305e+000 -3.090934e+000
      vertex  0.000000e+000 -8.155879e-016 -4.440000e+000
    endloop
  endfacet
  facet normal -1.000000e+000  0.000000e+000  0.000000e+000
    outer loop
      vertex  0.000000e+000 -8.155879e-016 -4.440000e+000
      vertex  0.000000e+000 -1.004305e+000 -3.090934e+000
      vertex  0.000000e+000  1.004305e+000 -3.090934e+000
    endloop
  endfacet
  facet normal -1.000000e+000  0.000000e+000  -0.000000e+000
    outer loop
      vertex  0.000000e+000 -8.155879e-016 -4.440000e+000
      vertex  0.000000e+000  1.004305e+000 -3.090934e+000
      vertex  0.000000e+000  2.220000e+000 -3.845153e+000
    endloop
  endfacet
  facet normal -1.000000e+000  0.000000e+000  0.000000e+000
    outer loop
      vertex  0.000000e+000  2.220000e+000 -3.845153e+000
      vertex  0.000000e+000  1.004305e+000 -3.090934e+000
      vertex  0.000000e+000  2.629305e+000 -1.910302e+000
    endloop
  endfacet
  facet normal -9.999999e-001  0.000000e+000  -0.000000e+000
    outer loop
      vertex  0.000000e+000  2.220000e+000 -3.845153e+000
      vertex  0.000000e+000  2.629305e+000 -1.910302e+000
      vertex  0.000000e+000  3.845153e+000 -2.220000e+000
    endloop
  endfacet
  facet normal -1.000000e+000  0.000000e+000  0.000000e+000
    outer loop
      vertex  0.000000e+000  3.845153e+000 -2.220000e+000
      vertex  0.000000e+000  2.629305e+000 -1.910302e+000
      vertex  0.000000e+000  3.250000e+000  8.424650e-013
    endloop
  endfacet
  facet normal -1.000000e+000  0.000000e+000  0.000000e+000
    outer loop
      vertex  0.000000e+000  3.845153e+000 -2.220000e+000
      vertex  0.000000e+000  3.250000e+000  8.424650e-013
      vertex  0.000000e+000  4.440000e+000  0.000000e+000
    endloop
  endfacet
  facet normal -1.000000e+000  0.000000e+000  0.000000e+000
    outer loop
      vertex  0.000000e+000  4.440000e+000  0.000000e+000
      vertex  0.000000e+000  3.250000e+000  8.424650e-013
      vertex  0.000000e+000  2.629305e+000  1.910302e+000
    endloop
  endfacet
  facet normal -1.000000e+000  0.000000e+000  0.000000e+000
    outer loop
      vertex  0.000000e+000  4.440000e+000  0.000000e+000
      vertex  0.000000e+000  2.629305e+000  1.910302e+000
      vertex  0.000000e+000  3.845153e+000  2.220000e+000
    endloop
  endfacet
  facet normal -1.000000e+000  -0.000000e+000  0.000000e+000
    outer loop
      vertex  0.000000e+000  3.845153e+000  2.220000e+000
      vertex  0.000000e+000  2.629305e+000  1.910302e+000
      vertex  0.000000e+000  1.004305e+000  3.090934e+000
    endloop
  endfacet
  facet normal -1.000000e+000  0.000000e+000  0.000000e+000
    outer loop
      vertex  0.000000e+000  3.845153e+000  2.220000e+000
      vertex  0.000000e+000  1.004305e+000  3.090934e+000
      vertex  0.000000e+000  2.220000e+000  3.845153e+000
    endloop
  endfacet
  facet normal -1.000000e+000  0.000000e+000  0.000000e+000
    outer loop
      vertex  0.000000e+000  2.220000e+000  3.845153e+000
      vertex  0.000000e+000  1.004305e+000  3.090934e+000
      vertex  0.000000e+000 -1.004305e+000  3.090934e+000
    endloop
  endfacet
  facet normal -9.999999e-001  0.000000e+000  0.000000e+000
    outer loop
      vertex  0.000000e+000  2.220000e+000  3.845153e+000
      vertex  0.000000e+000 -1.004305e+000  3.090934e+000
      vertex  0.000000e+000  2.718626e-016  4.440000e+000
    endloop
  endfacet
  facet normal -1.000000e+000  0.000000e+000  0.000000e+000
    outer loop
      vertex  0.000000e+000  2.718626e-016  4.440000e+000
      vertex  0.000000e+000 -1.004305e+000  3.090934e+000
      vertex  0.000000e+000 -2.220000e+000  3.845153e+000
    endloop
  endfacet
  facet normal -1.000000e+000  0.000000e+000  -0.000000e+000
    outer loop
      vertex  0.000000e+000 -2.220000e+000  3.845153e+000
      vertex  0.000000e+000 -1.004305e+000  3.090934e+000
      vertex  0.000000e+000 -2.629305e+000  1.910302e+000
    endloop
  endfacet
  facet normal -9.999999e-001  0.000000e+000  0.000000e+000
    outer loop
      vertex  0.000000e+000 -2.220000e+000  3.845153e+000
      vertex  0.000000e+000 -2.629305e+000  1.910302e+000
      vertex  0.000000e+000 -3.845153e+000  2.220000e+000
    endloop
  endfacet
  facet normal -1.000000e+000  0.000000e+000  0.000000e+000
    outer loop
      vertex  0.000000e+000 -3.845153e+000  2.220000e+000
      vertex  0.000000e+000 -2.629305e+000  1.910302e+000
      vertex  0.000000e+000 -3.250000e+000  4.524660e-015
    endloop
  endfacet
  facet normal -1.000000e+000  -0.000000e+000  0.000000e+000
    outer loop
      vertex  0.000000e+000 -3.845153e+000  2.220000e+000
      vertex  0.000000e+000 -3.250000e+000  4.524660e-015
      vertex  0.000000e+000 -4.440000e+000  5.437252e-016
    endloop
  endfacet
  facet normal -1.000000e+000  0.000000e+000  0.000000e+000
    outer loop
      vertex  0.000000e+000 -4.440000e+000  5.437252e-016
      vertex  0.000000e+000 -3.250000e+000  4.524660e-015
      vertex  0.000000e+000 -2.629305e+000 -1.910302e+000
    endloop
  endfacet
  facet normal -1.000000e+000  -0.000000e+000  0.000000e+000
    outer loop
      vertex  0.000000e+000 -4.440000e+000  5.437252e-016
      vertex  0.000000e+000 -2.629305e+000 -1.910302e+000
      vertex  0.000000e+000 -3.845153e+000 -2.220000e+000
    endloop
  endfacet
  facet normal -1.000000e+000  0.000000e+000  0.000000e+000
    outer loop
      vertex  0.000000e+000 -3.845153e+000 -2.220000e+000
      vertex  0.000000e+000 -2.629305e+000 -1.910302e+000
      vertex  0.000000e+000 -1.004305e+000 -3.090934e+000
    endloop
  endfacet
  facet normal -1.000000e+000  -0.000000e+000  0.000000e+000
    outer loop
      vertex  0.000000e+000 -3.845153e+000 -2.220000e+000
      vertex  0.000000e+000 -1.004305e+000 -3.090934e+000
      vertex  0.000000e+000 -2.220000e+000 -3.845153e+000
    endloop
  endfacet
  facet normal -3.665256e-001  8.848705e-001 -2.875118e-001
    outer loop
      vertex -2.500000e-001  3.000000e+000  3.673819e-016
      vertex -7.322331e-002  3.073223e+000 -4.758416e-013
      vertex -2.500000e-001  2.427051e+000 -1.763356e+000
    endloop
  endfacet
  facet normal -3.665254e-001  8.848706e-001 -2.875119e-001
    outer loop
      vertex -2.500000e-001  2.427051e+000 -1.763356e+000
      vertex -7.322331e-002  3.073223e+000 -4.758416e-013
      vertex -7.322331e-002  2.486290e+000 -1.806395e+000
    endloop
  endfacet
  facet normal -9.168194e-001  3.797591e-001 -1.233912e-001
    outer loop
      vertex -7.322331e-002  3.073223e+000 -4.758416e-013
      vertex  0.000000e+000  3.250000e+000  8.424650e-013
      vertex -7.322331e-002  2.486290e+000 -1.806395e+000
    endloop
  endfacet
  facet normal -9.168192e-001  3.797594e-001 -1.233913e-001
    outer loop
      vertex -7.322331e-002  2.486290e+000 -1.806395e+000
      vertex  0.000000e+000  3.250000e+000  8.424650e-013
      vertex  0.000000e+000  2.629305e+000 -1.910302e+000
    endloop
  endfacet
  facet normal -3.665254e-001 -8.848706e-001 -2.875119e-001
    outer loop
      vertex -2.500000e-001 -2.427051e+000 -1.763356e+000
      vertex -7.322331e-002 -2.486290e+000 -1.806395e+000
      vertex -2.500000e-001 -3.000000e+000  0.000000e+000
    endloop
  endfacet
  facet normal -3.665257e-001 -8.848706e-001 -2.875119e-001
    outer loop
      vertex -2.500000e-001 -3.000000e+000  0.000000e+000
      vertex -7.322331e-002 -2.486290e+000 -1.806395e+000
      vertex -7.322331e-002 -3.073223e+000 -6.883383e-015
    endloop
  endfacet
  facet normal -9.168192e-001 -3.797594e-001 -1.233913e-001
    outer loop
      vertex -7.322331e-002 -2.486290e+000 -1.806395e+000
      vertex  0.000000e+000 -2.629305e+000 -1.910302e+000
      vertex -7.322331e-002 -3.073223e+000 -6.883383e-015
    endloop
  endfacet
  facet normal -9.168193e-001 -3.797591e-001 -1.233912e-001
    outer loop
      vertex -7.322331e-002 -3.073223e+000 -6.883383e-015
      vertex  0.000000e+000 -2.629305e+000 -1.910302e+000
      vertex  0.000000e+000 -3.250000e+000  4.524660e-015
    endloop
  endfacet
  facet normal -3.665261e-001 -5.468799e-001 -7.527157e-001
    outer loop
      vertex -2.500000e-001 -9.270510e-001 -2.853169e+000
      vertex -7.322331e-002 -9.496782e-001 -2.922809e+000
      vertex -2.500000e-001 -2.427051e+000 -1.763356e+000
    endloop
  endfacet
  facet normal -3.665254e-001 -5.468802e-001 -7.527159e-001
    outer loop
      vertex -2.500000e-001 -2.427051e+000 -1.763356e+000
      vertex -7.322331e-002 -9.496782e-001 -2.922809e+000
      vertex -7.322331e-002 -2.486290e+000 -1.806395e+000
    endloop
  endfacet
  facet normal -9.168192e-001 -2.347042e-001 -3.230425e-001
    outer loop
      vertex -7.322331e-002 -9.496782e-001 -2.922809e+000
      vertex  0.000000e+000 -1.004305e+000 -3.090934e+000
      vertex -7.322331e-002 -2.486290e+000 -1.806395e+000
    endloop
  endfacet
  facet normal -9.168192e-001 -2.347041e-001 -3.230425e-001
    outer loop
      vertex -7.322331e-002 -2.486290e+000 -1.806395e+000
      vertex  0.000000e+000 -1.004305e+000 -3.090934e+000
      vertex  0.000000e+000 -2.629305e+000 -1.910302e+000
    endloop
  endfacet
  facet normal -3.665262e-001  0.000000e+000 -9.304076e-001
    outer loop
      vertex -2.500000e-001  9.270510e-001 -2.853169e+000
      vertex -7.322331e-002  9.496782e-001 -2.922809e+000
      vertex -2.500000e-001 -9.270510e-001 -2.853169e+000
    endloop
  endfacet
  facet normal -3.665262e-001  0.000000e+000 -9.304076e-001
    outer loop
      vertex -2.500000e-001 -9.270510e-001 -2.853169e+000
      vertex -7.322331e-002  9.496782e-001 -2.922809e+000
      vertex -7.322331e-002 -9.496782e-001 -2.922809e+000
    endloop
  endfacet
  facet normal -9.168192e-001  0.000000e+000 -3.993026e-001
    outer loop
      vertex -7.322331e-002  9.496782e-001 -2.922809e+000
      vertex  0.000000e+000  1.004305e+000 -3.090934e+000
      vertex -7.322331e-002 -9.496782e-001 -2.922809e+000
    endloop
  endfacet
  facet normal -9.168192e-001  0.000000e+000 -3.993027e-001
    outer loop
      vertex -7.322331e-002 -9.496782e-001 -2.922809e+000
      vertex  0.000000e+000  1.004305e+000 -3.090934e+000
      vertex  0.000000e+000 -1.004305e+000 -3.090934e+000
    endloop
  endfacet
  facet normal -3.665254e-001  5.468801e-001 -7.527159e-001
    outer loop
      vertex -2.500000e-001  2.427051e+000 -1.763356e+000
      vertex -7.322331e-002  2.486290e+000 -1.806395e+000
      vertex -2.500000e-001  9.270510e-001 -2.853169e+000
    endloop
  endfacet
  facet normal -3.665260e-001  5.468799e-001 -7.527157e-001
    outer loop
      vertex -2.500000e-001  9.270510e-001 -2.853169e+000
      vertex -7.322331e-002  2.486290e+000 -1.806395e+000
      vertex -7.322331e-002  9.496782e-001 -2.922809e+000
    endloop
  endfacet
  facet normal -9.168193e-001  2.347041e-001 -3.230425e-001
    outer loop
      vertex -7.322331e-002  2.486290e+000 -1.806395e+000
      vertex  0.000000e+000  2.629305e+000 -1.910302e+000
      vertex -7.322331e-002  9.496782e-001 -2.922809e+000
    endloop
  endfacet
  facet normal -9.168192e-001  2.347042e-001 -3.230426e-001
    outer loop
      vertex -7.322331e-002  9.496782e-001 -2.922809e+000
      vertex  0.000000e+000  2.629305e+000 -1.910302e+000
      vertex  0.000000e+000  1.004305e+000 -3.090934e+000
    endloop
  endfacet
  facet normal -3.665256e-001 -8.848705e-001  2.875118e-001
    outer loop
      vertex -2.500000e-001 -3.000000e+000  0.000000e+000
      vertex -7.322331e-002 -3.073223e+000 -6.883383e-015
      vertex -2.500000e-001 -2.427051e+000  1.763356e+000
    endloop
  endfacet
  facet normal -3.665254e-001 -8.848706e-001  2.875119e-001
    outer loop
      vertex -2.500000e-001 -2.427051e+000  1.763356e+000
      vertex -7.322331e-002 -3.073223e+000 -6.883383e-015
      vertex -7.322331e-002 -2.486290e+000  1.806395e+000
    endloop
  endfacet
  facet normal -9.168194e-001 -3.797591e-001  1.233912e-001
    outer loop
      vertex -7.322331e-002 -3.073223e+000 -6.883383e-015
      vertex  0.000000e+000 -3.250000e+000  4.524660e-015
      vertex -7.322331e-002 -2.486290e+000  1.806395e+000
    endloop
  endfacet
  facet normal -9.168192e-001 -3.797594e-001  1.233913e-001
    outer loop
      vertex -7.322331e-002 -2.486290e+000  1.806395e+000
      vertex  0.000000e+000 -3.250000e+000  4.524660e-015
      vertex  0.000000e+000 -2.629305e+000  1.910302e+000
    endloop
  endfacet
  facet normal -3.665254e-001  8.848706e-001  2.875119e-001
    outer loop
      vertex -2.500000e-001  2.427051e+000  1.763356e+000
      vertex -7.322331e-002  2.486290e+000  1.806395e+000
      vertex -2.500000e-001  3.000000e+000  3.673819e-016
    endloop
  endfacet
  facet normal -3.665257e-001  8.848706e-001  2.875119e-001
    outer loop
      vertex -2.500000e-001  3.000000e+000  3.673819e-016
      vertex -7.322331e-002  2.486290e+000  1.806395e+000
      vertex -7.322331e-002  3.073223e+000 -4.758416e-013
    endloop
  endfacet
  facet normal -9.168192e-001  3.797594e-001  1.233913e-001
    outer loop
      vertex -7.322331e-002  2.486290e+000  1.806395e+000
      vertex  0.000000e+000  2.629305e+000  1.910302e+000
      vertex -7.322331e-002  3.073223e+000 -4.758416e-013
    endloop
  endfacet
  facet normal -9.168193e-001  3.797591e-001  1.233912e-001
    outer loop
      vertex -7.322331e-002  3.073223e+000 -4.758416e-013
      vertex  0.000000e+000  2.629305e+000  1.910302e+000
      vertex  0.000000e+000  3.250000e+000  8.424650e-013
    endloop
  endfacet
  facet normal -3.665261e-001  5.468799e-001  7.527157e-001
    outer loop
      vertex -2.500000e-001  9.270510e-001  2.853169e+000
      vertex -7.322331e-002  9.496782e-001  2.922809e+000
      vertex -2.500000e-001  2.427051e+000  1.763356e+000
    endloop
  endfacet
  facet normal -3.665254e-001  5.468802e-001  7.527159e-001
    outer loop
      vertex -2.500000e-001  2.427051e+000  1.763356e+000
      vertex -7.322331e-002  9.496782e-001  2.922809e+000
      vertex -7.322331e-002  2.486290e+000  1.806395e+000
    endloop
  endfacet
  facet normal -9.168192e-001  2.347042e-001  3.230425e-001
    outer loop
      vertex -7.322331e-002  9.496782e-001  2.922809e+000
      vertex  0.000000e+000  1.004305e+000  3.090934e+000
      vertex -7.322331e-002  2.486290e+000  1.806395e+000
    endloop
  endfacet
  facet normal -9.168192e-001  2.347041e-001  3.230425e-001
    outer loop
      vertex -7.322331e-002  2.486290e+000  1.806395e+000
      vertex  0.000000e+000  1.004305e+000  3.090934e+000
      vertex  0.000000e+000  2.629305e+000  1.910302e+000
    endloop
  endfacet
  facet normal -3.665262e-001  0.000000e+000  9.304076e-001
    outer loop
      vertex -2.500000e-001 -9.270510e-001  2.853169e+000
      vertex -7.322331e-002 -9.496782e-001  2.922809e+000
      vertex -2.500000e-001  9.270510e-001  2.853169e+000
    endloop
  endfacet
  facet normal -3.665262e-001  0.000000e+000  9.304076e-001
    outer loop
      vertex -2.500000e-001  9.270510e-001  2.853169e+000
      vertex -7.322331e-002 -9.496782e-001  2.922809e+000
      vertex -7.322331e-002  9.496782e-001  2.922809e+000
    endloop
  endfacet
  facet normal -9.168192e-001  0.000000e+000  3.993026e-001
    outer loop
      vertex -7.322331e-002 -9.496782e-001  2.922809e+000
      vertex  0.000000e+000 -1.004305e+000  3.090934e+000
      vertex -7.322331e-002  9.496782e-001  2.922809e+000
    endloop
  endfacet
  facet normal -9.168192e-001  0.000000e+000  3.993027e-001
    outer loop
      vertex -7.322331e-002  9.496782e-001  2.922809e+000
      vertex  0.000000e+000 -1.004305e+000  3.090934e+000
      vertex  0.000000e+000  1.004305e+000  3.090934e+000
    endloop
  endfacet
  facet normal -3.665254e-001 -5.468801e-001  7.527159e-001
    outer loop
      vertex -2.500000e-001 -2.427051e+000  1.763356e+000
      vertex -7.322331e-002 -2.486290e+000  1.806395e+000
      vertex -2.500000e-001 -9.270510e-001  2.853169e+000
    endloop
  endfacet
  facet normal -3.665260e-001 -5.468799e-001  7.527157e-001
    outer loop
      vertex -2.500000e-001 -9.270510e-001  2.853169e+000
      vertex -7.322331e-002 -2.486290e+000  1.806395e+000
      vertex -7.322331e-002 -9.496782e-001  2.922809e+000
    endloop
  endfacet
  facet normal -9.168193e-001 -2.347041e-001  3.230425e-001
    outer loop
      vertex -7.322331e-002 -2.486290e+000  1.806395e+000
      vertex  0.000000e+000 -2.629305e+000  1.910302e+000
      vertex -7.322331e-002 -9.496782e-001  2.922809e+000
    endloop
  endfacet
  facet normal -9.168192e-001 -2.347042e-001  3.230426e-001
    outer loop
      vertex -7.322331e-002 -9.496782e-001  2.922809e+000
      vertex  0.000000e+000 -2.629305e+000  1.910302e+000
      vertex  0.000000e+000 -1.004305e+000  3.090934e+000
    endloop
  endfacet
  facet normal -1.000000e+000  0.000000e+000  0.000000e+000
    outer loop
      vertex -3.000000e+001  1.362474e+000  1.362474e+000
      vertex -3.000000e+001 -1.362474e+000  1.362474e+000
      vertex -3.000000e+001 -9.348774e-014  1.926829e+000
    endloop
  endfacet
  facet normal -1.000000e+000  -0.000000e+000  0.000000e+000
    outer loop
      vertex -3.000000e+001 -1.362474e+000  1.362474e+000
      vertex -3.000000e+001  1.362474e+000  1.362474e+000
      vertex -3.000000e+001 -1.926829e+000 -2.814221e-015
    endloop
  endfacet
  facet normal -1.000000e+000  0.000000e+000  0.000000e+000
    outer loop
      vertex -3.000000e+001 -1.926829e+000 -2.814221e-015
      vertex -3.000000e+001  1.362474e+000  1.362474e+000
      vertex -3.000000e+001  1.926829e+000 -2.866564e-016
    endloop
  endfacet
  facet normal -1.000000e+000  0.000000e+000  0.000000e+000
    outer loop
      vertex -3.000000e+001 -1.926829e+000 -2.814221e-015
      vertex -3.000000e+001  1.926829e+000 -2.866564e-016
      vertex -3.000000e+001 -1.362474e+000 -1.362474e+000
    endloop
  endfacet
  facet normal -1.000000e+000  0.000000e+000  0.000000e+000
    outer loop
      vertex -3.000000e+001 -1.362474e+000 -1.362474e+000
      vertex -3.000000e+001  1.926829e+000 -2.866564e-016
      vertex -3.000000e+001  1.362474e+000 -1.362474e+000
    endloop
  endfacet
  facet normal -1.000000e+000  -0.000000e+000  0.000000e+000
    outer loop
      vertex -3.000000e+001 -1.362474e+000 -1.362474e+000
      vertex -3.000000e+001  1.362474e+000 -1.362474e+000
      vertex -3.000000e+001 -3.007022e-015 -1.926829e+000
    endloop
  endfacet
  facet normal -6.891518e-001 -6.891517e-001 -2.239190e-001
    outer loop
      vertex -2.900000e+001 -2.367855e+000 -1.720347e+000
      vertex -2.900000e+001 -2.926829e+000 -7.168428e-016
      vertex -3.000000e+001 -1.926829e+000 -2.814221e-015
    endloop
  endfacet
  facet normal -7.292605e-001 -6.321517e-001 -2.618458e-001
    outer loop
      vertex -3.000000e+001 -1.362474e+000 -1.362474e+000
      vertex -2.900000e+001 -2.367855e+000 -1.720347e+000
      vertex -3.000000e+001 -1.926829e+000 -2.814221e-015
    endloop
  endfacet
  facet normal -7.292605e-001  6.321517e-001 -2.618458e-001
    outer loop
      vertex -2.900000e+001  2.367855e+000 -1.720347e+000
      vertex -3.000000e+001  1.362474e+000 -1.362474e+000
      vertex -3.000000e+001  1.926829e+000 -2.866564e-016
    endloop
  endfacet
  facet normal -6.891518e-001  6.891517e-001 -2.239190e-001
    outer loop
      vertex -2.900000e+001  2.926829e+000  3.584214e-016
      vertex -2.900000e+001  2.367855e+000 -1.720347e+000
      vertex -3.000000e+001  1.926829e+000 -2.866564e-016
    endloop
  endfacet
  facet normal -6.608280e-001  4.411548e-001 -6.071975e-001
    outer loop
      vertex -2.900000e+001  2.367855e+000 -1.720347e+000
      vertex -2.900000e+001  9.044400e-001 -2.783580e+000
      vertex -3.000000e+001  1.362474e+000 -1.362474e+000
    endloop
  endfacet
  facet normal -6.506197e-001  0.000000e+000 -7.594037e-001
    outer loop
      vertex -2.900000e+001  9.044400e-001 -2.783580e+000
      vertex -2.900000e+001 -9.044400e-001 -2.783580e+000
      vertex -3.000000e+001 -3.007022e-015 -1.926829e+000
    endloop
  endfacet
  facet normal -7.510837e-001  2.526503e-001 -6.099518e-001
    outer loop
      vertex -3.000000e+001  1.362474e+000 -1.362474e+000
      vertex -2.900000e+001  9.044400e-001 -2.783580e+000
      vertex -3.000000e+001 -3.007022e-015 -1.926829e+000
    endloop
  endfacet
  facet normal -6.608280e-001 -4.411548e-001 -6.071975e-001
    outer loop
      vertex -2.900000e+001 -9.044400e-001 -2.783580e+000
      vertex -2.900000e+001 -2.367855e+000 -1.720347e+000
      vertex -3.000000e+001 -1.362474e+000 -1.362474e+000
    endloop
  endfacet
  facet normal -7.510837e-001 -2.526503e-001 -6.099518e-001
    outer loop
      vertex -3.000000e+001 -3.007022e-015 -1.926829e+000
      vertex -2.900000e+001 -9.044400e-001 -2.783580e+000
      vertex -3.000000e+001 -1.362474e+000 -1.362474e+000
    endloop
  endfacet
  facet normal -6.891518e-001  6.891517e-001  2.239190e-001
    outer loop
      vertex -2.900000e+001  2.367855e+000  1.720347e+000
      vertex -2.900000e+001  2.926829e+000  3.584214e-016
      vertex -3.000000e+001  1.926829e+000 -2.866564e-016
    endloop
  endfacet
  facet normal -7.292605e-001  6.321517e-001  2.618458e-001
    outer loop
      vertex -3.000000e+001  1.362474e+000  1.362474e+000
      vertex -2.900000e+001  2.367855e+000  1.720347e+000
      vertex -3.000000e+001  1.926829e+000 -2.866564e-016
    endloop
  endfacet
  facet normal -7.292605e-001 -6.321517e-001  2.618458e-001
    outer loop
      vertex -2.900000e+001 -2.367855e+000  1.720347e+000
      vertex -3.000000e+001 -1.362474e+000  1.362474e+000
      vertex -3.000000e+001 -1.926829e+000 -2.814221e-015
    endloop
  endfacet
  facet normal -6.891518e-001 -6.891517e-001  2.239190e-001
    outer loop
      vertex -2.900000e+001 -2.926829e+000 -7.168428e-016
      vertex -2.900000e+001 -2.367855e+000  1.720347e+000
      vertex -3.000000e+001 -1.926829e+000 -2.814221e-015
    endloop
  endfacet
  facet normal -6.608280e-001 -4.411548e-001  6.071975e-001
    outer loop
      vertex -2.900000e+001 -2.367855e+000  1.720347e+000
      vertex -2.900000e+001 -9.044400e-001  2.783580e+000
      vertex -3.000000e+001 -1.362474e+000  1.362474e+000
    endloop
  endfacet
  facet normal -6.506197e-001  0.000000e+000  7.594037e-001
    outer loop
      vertex -2.900000e+001 -9.044400e-001  2.783580e+000
      vertex -2.900000e+001  9.044400e-001  2.783580e+000
      vertex -3.000000e+001 -9.348774e-014  1.926829e+000
    endloop
  endfacet
  facet normal -7.510837e-001 -2.526503e-001  6.099518e-001
    outer loop
      vertex -3.000000e+001 -1.362474e+000  1.362474e+000
      vertex -2.900000e+001 -9.044400e-001  2.783580e+000
      vertex -3.000000e+001 -9.348774e-014  1.926829e+000
    endloop
  endfacet
  facet normal -6.608280e-001  4.411548e-001  6.071975e-001
    outer loop
      vertex -2.900000e+001  9.044400e-001  2.783580e+000
      vertex -2.900000e+001  2.367855e+000  1.720347e+000
      vertex -3.000000e+001  1.362474e+000  1.362474e+000
    endloop
  endfacet
  facet normal -7.510837e-001  2.526503e-001  6.099518e-001
    outer loop
      vertex -3.000000e+001 -9.348774e-014  1.926829e+000
      vertex -2.900000e+001  9.044400e-001  2.783580e+000
      vertex -3.000000e+001  1.362474e+000  1.362474e+000
    endloop
  endfacet
  facet normal -1.000000e+000  0.000000e+000  0.000000e+000
    outer loop
      vertex -1.200000e+001  9.270510e-001  2.853169e+000
      vertex -1.200000e+001  2.427051e+000  1.763356e+000
      vertex -1.200000e+001  9.044400e-001  2.783580e+000
    endloop
  endfacet
  facet normal -1.000000e+000  0.000000e+000  0.000000e+000
    outer loop
      vertex -1.200000e+001  9.270510e-001  2.853169e+000
      vertex -1.200000e+001  9.044400e-001  2.783580e+000
      vertex -1.200000e+001 -9.270510e-001  2.853169e+000
    endloop
  endfacet
  facet normal -9.999999e-001  0.000000e+000  0.000000e+000
    outer loop
      vertex -1.200000e+001 -9.270510e-001  2.853169e+000
      vertex -1.200000e+001  9.044400e-001  2.783580e+000
      vertex -1.200000e+001 -9.044400e-001  2.783580e+000
    endloop
  endfacet
  facet normal -1.000000e+000  -0.000000e+000  0.000000e+000
    outer loop
      vertex -1.200000e+001 -9.270510e-001  2.853169e+000
      vertex -1.200000e+001 -9.044400e-001  2.783580e+000
      vertex -1.200000e+001 -2.427051e+000  1.763356e+000
    endloop
  endfacet
  facet normal -1.000000e+000  0.000000e+000  0.000000e+000
    outer loop
      vertex -1.200000e+001 -2.427051e+000  1.763356e+000
      vertex -1.200000e+001 -9.044400e-001  2.783580e+000
      vertex -1.200000e+001 -2.367855e+000  1.720347e+000
    endloop
  endfacet
  facet normal -1.000000e+000  -0.000000e+000  0.000000e+000
    outer loop
      vertex -1.200000e+001 -2.427051e+000  1.763356e+000
      vertex -1.200000e+001 -2.367855e+000  1.720347e+000
      vertex -1.200000e+001 -3.000000e+000  0.000000e+000
    endloop
  endfacet
  facet normal -1.000000e+000  0.000000e+000  0.000000e+000
    outer loop
      vertex -1.200000e+001 -3.000000e+000  0.000000e+000
      vertex -1.200000e+001 -2.367855e+000  1.720347e+000
      vertex -1.200000e+001 -2.926829e+000 -7.168428e-016
    endloop
  endfacet
  facet normal -1.000000e+000  -0.000000e+000  -0.000000e+000
    outer loop
      vertex -1.200000e+001 -3.000000e+000  0.000000e+000
      vertex -1.200000e+001 -2.926829e+000 -7.168428e-016
      vertex -1.200000e+001 -2.427051e+000 -1.763356e+000
    endloop
  endfacet
  facet normal -1.000000e+000  0.000000e+000  0.000000e+000
    outer loop
      vertex -1.200000e+001 -2.427051e+000 -1.763356e+000
      vertex -1.200000e+001 -2.926829e+000 -7.168428e-016
      vertex -1.200000e+001 -2.367855e+000 -1.720347e+000
    endloop
  endfacet
  facet normal -1.000000e+000  0.000000e+000  -0.000000e+000
    outer loop
      vertex -1.200000e+001 -2.427051e+000 -1.763356e+000
      vertex -1.200000e+001 -2.367855e+000 -1.720347e+000
      vertex -1.200000e+001 -9.270510e-001 -2.853169e+000
    endloop
  endfacet
  facet normal -1.000000e+000  0.000000e+000  0.000000e+000
    outer loop
      vertex -1.200000e+001 -9.270510e-001 -2.853169e+000
      vertex -1.200000e+001 -2.367855e+000 -1.720347e+000
      vertex -1.200000e+001 -9.044400e-001 -2.783580e+000
    endloop
  endfacet
  facet normal -1.000000e+000  0.000000e+000  -0.000000e+000
    outer loop
      vertex -1.200000e+001 -9.270510e-001 -2.853169e+000
      vertex -1.200000e+001 -9.044400e-001 -2.783580e+000
      vertex -1.200000e+001  9.270510e-001 -2.853169e+000
    endloop
  endfacet
  facet normal -9.999999e-001  0.000000e+000  0.000000e+000
    outer loop
      vertex -1.200000e+001  9.270510e-001 -2.853169e+000
      vertex -1.200000e+001 -9.044400e-001 -2.783580e+000
      vertex -1.200000e+001  9.044400e-001 -2.783580e+000
    endloop
  endfacet
  facet normal -1.000000e+000  0.000000e+000  0.000000e+000
    outer loop
      vertex -1.200000e+001  9.270510e-001 -2.853169e+000
      vertex -1.200000e+001  9.044400e-001 -2.783580e+000
      vertex -1.200000e+001  2.427051e+000 -1.763356e+000
    endloop
  endfacet
  facet normal -1.000000e+000  -0.000000e+000  0.000000e+000
    outer loop
      vertex -1.200000e+001  2.427051e+000 -1.763356e+000
      vertex -1.200000e+001  9.044400e-001 -2.783580e+000
      vertex -1.200000e+001  2.367855e+000 -1.720347e+000
    endloop
  endfacet
  facet normal -1.000000e+000  0.000000e+000  0.000000e+000
    outer loop
      vertex -1.200000e+001  2.427051e+000 -1.763356e+000
      vertex -1.200000e+001  2.367855e+000 -1.720347e+000
      vertex -1.200000e+001  3.000000e+000  3.673819e-016
    endloop
  endfacet
  facet normal -1.000000e+000  0.000000e+000  0.000000e+000
    outer loop
      vertex -1.200000e+001  3.000000e+000  3.673819e-016
      vertex -1.200000e+001  2.367855e+000 -1.720347e+000
      vertex -1.200000e+001  2.926829e+000  3.584214e-016
    endloop
  endfacet
  facet normal -1.000000e+000  0.000000e+000  0.000000e+000
    outer loop
      vertex -1.200000e+001  3.000000e+000  3.673819e-016
      vertex -1.200000e+001  2.926829e+000  3.584214e-016
      vertex -1.200000e+001  2.427051e+000  1.763356e+000
    endloop
  endfacet
  facet normal -1.000000e+000  0.000000e+000  -0.000000e+000
    outer loop
      vertex -1.200000e+001  2.427051e+000  1.763356e+000
      vertex -1.200000e+001  2.926829e+000  3.584214e-016
      vertex -1.200000e+001  2.367855e+000  1.720347e+000
    endloop
  endfacet
  facet normal -1.000000e+000  0.000000e+000  0.000000e+000
    outer loop
      vertex -1.200000e+001  2.427051e+000  1.763356e+000
      vertex -1.200000e+001  2.367855e+000  1.720347e+000
      vertex -1.200000e+001  9.044400e-001  2.783580e+000
    endloop
  endfacet
  facet normal  9.999999e-001  0.000000e+000  0.000000e+000
    outer loop
      vertex  4.150000e+000  2.386389e+000  4.368256e+000
      vertex  4.150000e+000 -1.174544e-001  4.976215e+000
      vertex  4.150000e+000 -2.589826e+000  4.250801e+000
    endloop
  endfacet
  facet normal  1.000000e+000  -0.000000e+000  0.000000e+000
    outer loop
      vertex  4.150000e+000  2.386389e+000  4.368256e+000
      vertex  4.150000e+000 -2.589826e+000  4.250801e+000
      vertex  4.150000e+000  4.250801e+000  2.589826e+000
    endloop
  endfacet
  facet normal  1.000000e+000  0.000000e+000  0.000000e+000
    outer loop
      vertex  4.150000e+000  4.250801e+000  2.589826e+000
      vertex  4.150000e+000 -2.589826e+000  4.250801e+000
      vertex  4.150000e+000 -4.368256e+000  2.386389e+000
    endloop
  endfacet
  facet normal  1.000000e+000  -0.000000e+000  0.000000e+000
    outer loop
      vertex  4.150000e+000  4.250801e+000  2.589826e+000
      vertex  4.150000e+000 -4.368256e+000  2.386389e+000
      vertex  4.150000e+000  4.976215e+000  1.174544e-001
    endloop
  endfacet
  facet normal  9.999999e-001  0.000000e+000  0.000000e+000
    outer loop
      vertex  4.150000e+000  4.976215e+000  1.174544e-001
      vertex  4.150000e+000 -4.368256e+000  2.386389e+000
      vertex  4.150000e+000 -4.976215e+000 -1.174544e-001
    endloop
  endfacet
  facet normal  9.999999e-001  -0.000000e+000  0.000000e+000
    outer loop
      vertex  4.150000e+000  4.976215e+000  1.174544e-001
      vertex  4.150000e+000 -4.976215e+000 -1.174544e-001
      vertex  4.150000e+000  4.368256e+000 -2.386389e+000
    endloop
  endfacet
  facet normal  1.000000e+000  0.000000e+000  0.000000e+000
    outer loop
      vertex  4.150000e+000  4.368256e+000 -2.386389e+000
      vertex  4.150000e+000 -4.976215e+000 -1.174544e-001
      vertex  4.150000e+000 -4.250801e+000 -2.589826e+000
    endloop
  endfacet
  facet normal  1.000000e+000  -0.000000e+000  0.000000e+000
    outer loop
      vertex  4.150000e+000  4.368256e+000 -2.386389e+000
      vertex  4.150000e+000 -4.250801e+000 -2.589826e+000
      vertex  4.150000e+000  2.589826e+000 -4.250801e+000
    endloop
  endfacet
  facet normal  1.000000e+000  0.000000e+000  0.000000e+000
    outer loop
      vertex  4.150000e+000  2.589826e+000 -4.250801e+000
      vertex  4.150000e+000 -4.250801e+000 -2.589826e+000
      vertex  4.150000e+000 -2.386389e+000 -4.368256e+000
    endloop
  endfacet
  facet normal  9.999999e-001  -0.000000e+000  0.000000e+000
    outer loop
      vertex  4.150000e+000  2.589826e+000 -4.250801e+000
      vertex  4.150000e+000 -2.386389e+000 -4.368256e+000
      vertex  4.150000e+000  1.174544e-001 -4.976215e+000
    endloop
  endfacet
  facet normal  0.000000e+000  5.000000e-001 -8.660254e-001
    outer loop
      vertex  5.000000e-001  5.000000e+000 -2.886751e+000
      vertex  3.690486e+000  5.000000e+000 -2.886751e+000
      vertex  5.000000e-001 -4.440892e-016 -5.773503e+000
    endloop
  endfacet
  facet normal  2.276026e-008  5.000000e-001 -8.660254e-001
    outer loop
      vertex  5.000000e-001 -4.440892e-016 -5.773503e+000
      vertex  3.690486e+000  5.000000e+000 -2.886751e+000
      vertex  4.064698e+000  3.475649e+000 -3.766836e+000
    endloop
  endfacet
  facet normal  0.000000e+000  5.000000e-001 -8.660254e-001
    outer loop
      vertex  5.000000e-001 -4.440892e-016 -5.773503e+000
      vertex  4.064698e+000  3.475649e+000 -3.766836e+000
      vertex  3.690486e+000  1.776357e-015 -5.773503e+000
    endloop
  endfacet
  facet normal -3.622545e-007  5.000001e-001 -8.660254e-001
    outer loop
      vertex  3.690486e+000  1.776357e-015 -5.773503e+000
      vertex  4.064698e+000  3.475649e+000 -3.766836e+000
      vertex  4.078891e+000  1.626300e+000 -4.834558e+000
    endloop
  endfacet
  facet normal  3.479793e-016 -5.000000e-001 -8.660254e-001
    outer loop
      vertex  5.000000e-001 -4.440892e-016 -5.773503e+000
      vertex  3.690486e+000  1.776357e-015 -5.773503e+000
      vertex  5.000000e-001 -5.000000e+000 -2.886751e+000
    endloop
  endfacet
  facet normal  3.000515e-008 -5.000001e-001 -8.660254e-001
    outer loop
      vertex  5.000000e-001 -5.000000e+000 -2.886751e+000
      vertex  3.690486e+000  1.776357e-015 -5.773503e+000
      vertex  4.136264e+000 -2.397795e+000 -4.389135e+000
    endloop
  endfacet
  facet normal  0.000000e+000 -5.000000e-001 -8.660254e-001
    outer loop
      vertex  5.000000e-001 -5.000000e+000 -2.886751e+000
      vertex  4.136264e+000 -2.397795e+000 -4.389135e+000
      vertex  3.690486e+000 -5.000000e+000 -2.886751e+000
    endloop
  endfacet
  facet normal  0.000000e+000 -1.000000e+000  0.000000e+000
    outer loop
      vertex  5.000000e-001 -5.000000e+000 -2.886751e+000
      vertex  3.690486e+000 -5.000000e+000 -2.886751e+000
      vertex  5.000000e-001 -5.000000e+000  2.886751e+000
    endloop
  endfacet
  facet normal  0.000000e+000 -1.000000e+000  0.000000e+000
    outer loop
      vertex  5.000000e-001 -5.000000e+000  2.886751e+000
      vertex  3.690486e+000 -5.000000e+000 -2.886751e+000
      vertex  4.064698e+000 -5.000000e+000 -1.126582e+000
    endloop
  endfacet
  facet normal  0.000000e+000 -1.000000e+000  0.000000e+000
    outer loop
      vertex  5.000000e-001 -5.000000e+000  2.886751e+000
      vertex  4.064698e+000 -5.000000e+000 -1.126582e+000
      vertex  3.690486e+000 -5.000000e+000  2.886751e+000
    endloop
  endfacet
  facet normal  0.000000e+000 -1.000000e+000  0.000000e+000
    outer loop
      vertex  3.690486e+000 -5.000000e+000  2.886751e+000
      vertex  4.064698e+000 -5.000000e+000 -1.126582e+000
      vertex  4.078891e+000 -5.000000e+000  1.008862e+000
    endloop
  endfacet
  facet normal  0.000000e+000 -5.000000e-001  8.660254e-001
    outer loop
      vertex  5.000000e-001 -5.000000e+000  2.886751e+000
      vertex  3.690486e+000 -5.000000e+000  2.886751e+000
      vertex  5.000000e-001 -3.552714e-015  5.773503e+000
    endloop
  endfacet
  facet normal  2.276026e-008 -5.000000e-001  8.660254e-001
    outer loop
      vertex  5.000000e-001 -3.552714e-015  5.773503e+000
      vertex  3.690486e+000 -5.000000e+000  2.886751e+000
      vertex  4.064698e+000 -3.475649e+000  3.766836e+000
    endloop
  endfacet
  facet normal  0.000000e+000 -5.000000e-001  8.660254e-001
    outer loop
      vertex  5.000000e-001 -3.552714e-015  5.773503e+000
      vertex  4.064698e+000 -3.475649e+000  3.766836e+000
      vertex  3.690486e+000 -5.329071e-015  5.773503e+000
    endloop
  endfacet
  facet normal -3.622545e-007 -5.000001e-001  8.660254e-001
    outer loop
      vertex  3.690486e+000 -5.329071e-015  5.773503e+000
      vertex  4.064698e+000 -3.475649e+000  3.766836e+000
      vertex  4.078891e+000 -1.626300e+000  4.834558e+000
    endloop
  endfacet
  facet normal  2.783834e-016  5.000000e-001  8.660254e-001
    outer loop
      vertex  5.000000e-001 -3.552714e-015  5.773503e+000
      vertex  3.690486e+000 -5.329071e-015  5.773503e+000
      vertex  5.000000e-001  5.000000e+000  2.886751e+000
    endloop
  endfacet
  facet normal  3.000515e-008  5.000001e-001  8.660254e-001
    outer loop
      vertex  5.000000e-001  5.000000e+000  2.886751e+000
      vertex  3.690486e+000 -5.329071e-015  5.773503e+000
      vertex  4.136264e+000  2.397795e+000  4.389135e+000
    endloop
  endfacet
  facet normal  0.000000e+000  5.000000e-001  8.660254e-001
    outer loop
      vertex  5.000000e-001  5.000000e+000  2.886751e+000
      vertex  4.136264e+000  2.397795e+000  4.389135e+000
      vertex  3.690486e+000  5.000000e+000  2.886751e+000
    endloop
  endfacet
  facet normal  0.000000e+000  1.000000e+000  0.000000e+000
    outer loop
      vertex  5.000000e-001  5.000000e+000  2.886751e+000
      vertex  3.690486e+000  5.000000e+000  2.886751e+000
      vertex  5.000000e-001  5.000000e+000 -2.886751e+000
    endloop
  endfacet
  facet normal  0.000000e+000  1.000000e+000  0.000000e+000
    outer loop
      vertex  5.000000e-001  5.000000e+000 -2.886751e+000
      vertex  3.690486e+000  5.000000e+000  2.886751e+000
      vertex  4.078891e+000  5.000000e+000  1.008862e+000
    endloop
  endfacet
  facet normal  0.000000e+000  1.000000e+000  0.000000e+000
    outer loop
      vertex  5.000000e-001  5.000000e+000 -2.886751e+000
      vertex  4.078891e+000  5.000000e+000  1.008862e+000
      vertex  3.690486e+000  5.000000e+000 -2.886751e+000
    endloop
  endfacet
  facet normal  0.000000e+000  1.000000e+000  0.000000e+000
    outer loop
      vertex  3.690486e+000  5.000000e+000 -2.886751e+000
      vertex  4.078891e+000  5.000000e+000  1.008862e+000
      vertex  4.064698e+000  5.000000e+000 -1.126582e+000
    endloop
  endfacet
  facet normal  8.469859e-001  3.670972e-001  3.845185e-001
    outer loop
      vertex  3.690486e+000  5.000000e+000  2.886751e+000
      vertex  4.136264e+000  2.397795e+000  4.389135e+000
      vertex  4.150000e+000  4.250801e+000  2.589826e+000
    endloop
  endfacet
  facet normal  8.687012e-001  4.616008e-001  1.796742e-001
    outer loop
      vertex  3.690486e+000  5.000000e+000  2.886751e+000
      vertex  4.150000e+000  4.250801e+000  2.589826e+000
      vertex  4.078891e+000  5.000000e+000  1.008862e+000
    endloop
  endfacet
  facet normal  8.582297e-001  4.797397e-001 -1.824599e-001
    outer loop
      vertex  3.690486e+000  5.000000e+000 -2.886751e+000
      vertex  4.064698e+000  5.000000e+000 -1.126582e+000
      vertex  4.150000e+000  4.368256e+000 -2.386389e+000
    endloop
  endfacet
  facet normal  8.687028e-001  3.897509e-001 -3.056954e-001
    outer loop
      vertex  3.690486e+000  5.000000e+000 -2.886751e+000
      vertex  4.150000e+000  4.368256e+000 -2.386389e+000
      vertex  4.064698e+000  3.475649e+000 -3.766836e+000
    endloop
  endfacet
  facet normal  9.655774e-001  2.527713e-001 -6.137551e-002
    outer loop
      vertex  4.150000e+000  4.976215e+000  1.174544e-001
      vertex  4.150000e+000  4.368256e+000 -2.386389e+000
      vertex  4.064698e+000  5.000000e+000 -1.126582e+000
    endloop
  endfacet
  facet normal  2.950200e-001  9.554891e-001 -1.960827e-003
    outer loop
      vertex  4.064698e+000  5.000000e+000 -1.126582e+000
      vertex  4.078891e+000  5.000000e+000  1.008862e+000
      vertex  4.150000e+000  4.976215e+000  1.174544e-001
    endloop
  endfacet
  facet normal  2.896592e-001  4.802313e-001 -8.279344e-001
    outer loop
      vertex  4.150000e+000  2.589826e+000 -4.250801e+000
      vertex  4.078891e+000  1.626300e+000 -4.834558e+000
      vertex  4.064698e+000  3.475649e+000 -3.766836e+000
    endloop
  endfacet
  facet normal  9.634832e-001  1.937561e-001 -1.848205e-001
    outer loop
      vertex  4.150000e+000  2.589826e+000 -4.250801e+000
      vertex  4.064698e+000  3.475649e+000 -3.766836e+000
      vertex  4.150000e+000  4.368256e+000 -2.386389e+000
    endloop
  endfacet
  facet normal  8.583557e-001  3.541233e-001  3.712442e-001
    outer loop
      vertex  4.150000e+000  2.386389e+000  4.368256e+000
      vertex  4.150000e+000  4.250801e+000  2.589826e+000
      vertex  4.136264e+000  2.397795e+000  4.389135e+000
    endloop
  endfacet
  facet normal  9.678882e-001  2.412122e-001  7.077362e-002
    outer loop
      vertex  4.078891e+000  5.000000e+000  1.008862e+000
      vertex  4.150000e+000  4.250801e+000  2.589826e+000
      vertex  4.150000e+000  4.976215e+000  1.174544e-001
    endloop
  endfacet
  facet normal  9.710136e-001  6.729476e-002 -2.293555e-001
    outer loop
      vertex  4.150000e+000  1.174544e-001 -4.976215e+000
      vertex  4.078891e+000  1.626300e+000 -4.834558e+000
      vertex  4.150000e+000  2.589826e+000 -4.250801e+000
    endloop
  endfacet
  facet normal  8.583555e-001 -1.210577e-001 -4.985687e-001
    outer loop
      vertex  4.150000e+000 -2.386389e+000 -4.368256e+000
      vertex  4.136264e+000 -2.397795e+000 -4.389135e+000
      vertex  4.150000e+000  1.174544e-001 -4.976215e+000
    endloop
  endfacet
  facet normal  8.677931e-001 -1.174401e-001 -4.828488e-001
    outer loop
      vertex  4.150000e+000  1.174544e-001 -4.976215e+000
      vertex  4.136264e+000 -2.397795e+000 -4.389135e+000
      vertex  3.690486e+000  1.776357e-015 -5.773503e+000
    endloop
  endfacet
  facet normal  8.573745e-001  8.801609e-002 -5.071114e-001
    outer loop
      vertex  4.150000e+000  1.174544e-001 -4.976215e+000
      vertex  3.690486e+000  1.776357e-015 -5.773503e+000
      vertex  4.078891e+000  1.626300e+000 -4.834558e+000
    endloop
  endfacet
  facet normal  8.469859e-001 -3.670972e-001 -3.845185e-001
    outer loop
      vertex  3.690486e+000 -5.000000e+000 -2.886751e+000
      vertex  4.136264e+000 -2.397795e+000 -4.389135e+000
      vertex  4.150000e+000 -4.250801e+000 -2.589826e+000
    endloop
  endfacet
  facet normal  8.687028e-001 -4.596154e-001 -1.846865e-001
    outer loop
      vertex  3.690486e+000 -5.000000e+000 -2.886751e+000
      vertex  4.150000e+000 -4.250801e+000 -2.589826e+000
      vertex  4.064698e+000 -5.000000e+000 -1.126582e+000
    endloop
  endfacet
  facet normal  8.573745e-001 -4.831795e-001  1.773315e-001
    outer loop
      vertex  3.690486e+000 -5.000000e+000  2.886751e+000
      vertex  4.078891e+000 -5.000000e+000  1.008862e+000
      vertex  4.150000e+000 -4.368256e+000  2.386389e+000
    endloop
  endfacet
  facet normal  8.687028e-001 -3.897509e-001  3.056954e-001
    outer loop
      vertex  3.690486e+000 -5.000000e+000  2.886751e+000
      vertex  4.150000e+000 -4.368256e+000  2.386389e+000
      vertex  4.064698e+000 -3.475649e+000  3.766836e+000
    endloop
  endfacet
  facet normal  2.896556e-001 -9.571290e-001 -1.925173e-003
    outer loop
      vertex  4.150000e+000 -4.976215e+000 -1.174544e-001
      vertex  4.078891e+000 -5.000000e+000  1.008862e+000
      vertex  4.064698e+000 -5.000000e+000 -1.126582e+000
    endloop
  endfacet
  facet normal  9.634832e-001 -2.569374e-001 -7.538751e-002
    outer loop
      vertex  4.150000e+000 -4.976215e+000 -1.174544e-001
      vertex  4.064698e+000 -5.000000e+000 -1.126582e+000
      vertex  4.150000e+000 -4.250801e+000 -2.589826e+000
    endloop
  endfacet
  facet normal  2.896592e-001 -4.802313e-001  8.279344e-001
    outer loop
      vertex  4.150000e+000 -2.589826e+000  4.250801e+000
      vertex  4.078891e+000 -1.626300e+000  4.834558e+000
      vertex  4.064698e+000 -3.475649e+000  3.766836e+000
    endloop
  endfacet
  facet normal  9.634832e-001 -1.937561e-001  1.848205e-001
    outer loop
      vertex  4.150000e+000 -2.589826e+000  4.250801e+000
      vertex  4.064698e+000 -3.475649e+000  3.766836e+000
      vertex  4.150000e+000 -4.368256e+000  2.386389e+000
    endloop
  endfacet
  facet normal  8.583557e-001 -3.541233e-001 -3.712442e-001
    outer loop
      vertex  4.150000e+000 -2.386389e+000 -4.368256e+000
      vertex  4.150000e+000 -4.250801e+000 -2.589826e+000
      vertex  4.136264e+000 -2.397795e+000 -4.389135e+000
    endloop
  endfacet
  facet normal  9.710135e-001 -2.322753e-001  5.639885e-002
    outer loop
      vertex  4.150000e+000 -4.368256e+000  2.386389e+000
      vertex  4.078891e+000 -5.000000e+000  1.008862e+000
      vertex  4.150000e+000 -4.976215e+000 -1.174544e-001
    endloop
  endfacet
  facet normal  9.710136e-001 -6.729476e-002  2.293555e-001
    outer loop
      vertex  4.150000e+000 -1.174544e-001  4.976215e+000
      vertex  4.078891e+000 -1.626300e+000  4.834558e+000
      vertex  4.150000e+000 -2.589826e+000  4.250801e+000
    endloop
  endfacet
  facet normal  8.583555e-001  1.210577e-001  4.985687e-001
    outer loop
      vertex  4.150000e+000  2.386389e+000  4.368256e+000
      vertex  4.136264e+000  2.397795e+000  4.389135e+000
      vertex  4.150000e+000 -1.174544e-001  4.976215e+000
    endloop
  endfacet
  facet normal  8.677931e-001  1.174401e-001  4.828488e-001
    outer loop
      vertex  4.150000e+000 -1.174544e-001  4.976215e+000
      vertex  4.136264e+000  2.397795e+000  4.389135e+000
      vertex  3.690486e+000 -5.329071e-015  5.773503e+000
    endloop
  endfacet
  facet normal  8.573745e-001 -8.801609e-002  5.071114e-001
    outer loop
      vertex  4.150000e+000 -1.174544e-001  4.976215e+000
      vertex  3.690486e+000 -5.329071e-015  5.773503e+000
      vertex  4.078891e+000 -1.626300e+000  4.834558e+000
    endloop
  endfacet
  facet normal -1.000000e+000  0.000000e+000  -0.000000e+000
    outer loop
      vertex  5.000000e-001  3.845153e+000 -2.220000e+000
      vertex  5.000000e-001  4.440000e+000  0.000000e+000
      vertex  5.000000e-001  5.000000e+000 -2.886751e+000
    endloop
  endfacet
  facet normal -1.000000e+000  0.000000e+000  -0.000000e+000
    outer loop
      vertex  5.000000e-001  2.220000e+000 -3.845153e+000
      vertex  5.000000e-001  3.845153e+000 -2.220000e+000
      vertex  5.000000e-001  5.000000e+000 -2.886751e+000
    endloop
  endfacet
  facet normal -1.000000e+000  0.000000e+000  0.000000e+000
    outer loop
      vertex  5.000000e-001 -4.440892e-016 -5.773503e+000
      vertex  5.000000e-001 -2.220000e+000 -3.845153e+000
      vertex  5.000000e-001 -8.155879e-016 -4.440000e+000
    endloop
  endfacet
  facet normal -1.000000e+000  0.000000e+000  0.000000e+000
    outer loop
      vertex  5.000000e-001 -4.440892e-016 -5.773503e+000
      vertex  5.000000e-001 -8.155879e-016 -4.440000e+000
      vertex  5.000000e-001  2.220000e+000 -3.845153e+000
    endloop
  endfacet
  facet normal -9.999999e-001  0.000000e+000  -0.000000e+000
    outer loop
      vertex  5.000000e-001 -4.440892e-016 -5.773503e+000
      vertex  5.000000e-001  2.220000e+000 -3.845153e+000
      vertex  5.000000e-001  5.000000e+000 -2.886751e+000
    endloop
  endfacet
  facet normal -1.000000e+000  0.000000e+000  -0.000000e+000
    outer loop
      vertex  5.000000e-001 -5.000000e+000 -2.886751e+000
      vertex  5.000000e-001 -4.440000e+000  5.437252e-016
      vertex  5.000000e-001 -3.845153e+000 -2.220000e+000
    endloop
  endfacet
  facet normal -1.000000e+000  0.000000e+000  -0.000000e+000
    outer loop
      vertex  5.000000e-001 -5.000000e+000 -2.886751e+000
      vertex  5.000000e-001 -3.845153e+000 -2.220000e+000
      vertex  5.000000e-001 -2.220000e+000 -3.845153e+000
    endloop
  endfacet
  facet normal -9.999999e-001  -0.000000e+000  -0.000000e+000
    outer loop
      vertex  5.000000e-001 -5.000000e+000 -2.886751e+000
      vertex  5.000000e-001 -2.220000e+000 -3.845153e+000
      vertex  5.000000e-001 -4.440892e-016 -5.773503e+000
    endloop
  endfacet
  facet normal -1.000000e+000  0.000000e+000  0.000000e+000
    outer loop
      vertex  5.000000e-001 -5.000000e+000  2.886751e+000
      vertex  5.000000e-001 -2.220000e+000  3.845153e+000
      vertex  5.000000e-001 -3.845153e+000  2.220000e+000
    endloop
  endfacet
  facet normal -1.000000e+000  -0.000000e+000  0.000000e+000
    outer loop
      vertex  5.000000e-001 -5.000000e+000  2.886751e+000
      vertex  5.000000e-001 -3.845153e+000  2.220000e+000
      vertex  5.000000e-001 -4.440000e+000  5.437252e-016
    endloop
  endfacet
  facet normal -1.000000e+000  -0.000000e+000  0.000000e+000
    outer loop
      vertex  5.000000e-001 -5.000000e+000  2.886751e+000
      vertex  5.000000e-001 -4.440000e+000  5.437252e-016
      vertex  5.000000e-001 -5.000000e+000 -2.886751e+000
    endloop
  endfacet
  facet normal -1.000000e+000  0.000000e+000  0.000000e+000
    outer loop
      vertex  5.000000e-001 -3.552714e-015  5.773503e+000
      vertex  5.000000e-001  2.220000e+000  3.845153e+000
      vertex  5.000000e-001  2.718626e-016  4.440000e+000
    endloop
  endfacet
  facet normal -1.000000e+000  -0.000000e+000  0.000000e+000
    outer loop
      vertex  5.000000e-001 -3.552714e-015  5.773503e+000
      vertex  5.000000e-001  2.718626e-016  4.440000e+000
      vertex  5.000000e-001 -2.220000e+000  3.845153e+000
    endloop
  endfacet
  facet normal -9.999999e-001  -0.000000e+000  0.000000e+000
    outer loop
      vertex  5.000000e-001 -3.552714e-015  5.773503e+000
      vertex  5.000000e-001 -2.220000e+000  3.845153e+000
      vertex  5.000000e-001 -5.000000e+000  2.886751e+000
    endloop
  endfacet
  facet normal -1.000000e+000  0.000000e+000  0.000000e+000
    outer loop
      vertex  5.000000e-001  5.000000e+000  2.886751e+000
      vertex  5.000000e-001  5.000000e+000 -2.886751e+000
      vertex  5.000000e-001  4.440000e+000  0.000000e+000
    endloop
  endfacet
  facet normal -1.000000e+000  0.000000e+000  0.000000e+000
    outer loop
      vertex  5.000000e-001  5.000000e+000  2.886751e+000
      vertex  5.000000e-001  4.440000e+000  0.000000e+000
      vertex  5.000000e-001  3.845153e+000  2.220000e+000
    endloop
  endfacet
  facet normal -1.000000e+000  0.000000e+000  0.000000e+000
    outer loop
      vertex  5.000000e-001  5.000000e+000  2.886751e+000
      vertex  5.000000e-001  3.845153e+000  2.220000e+000
      vertex  5.000000e-001  2.220000e+000  3.845153e+000
    endloop
  endfacet
  facet normal -9.999999e-001  0.000000e+000  0.000000e+000
    outer loop
      vertex  5.000000e-001  5.000000e+000  2.886751e+000
      vertex  5.000000e-001  2.220000e+000  3.845153e+000
      vertex  5.000000e-001 -3.552714e-015  5.773503e+000
    endloop
  endfacet
  facet normal  0.000000e+000  9.659258e-001 -2.588190e-001
    outer loop
      vertex  0.000000e+000  4.440000e+000  0.000000e+000
      vertex  5.000000e-001  4.440000e+000  0.000000e+000
      vertex  0.000000e+000  3.845153e+000 -2.220000e+000
    endloop
  endfacet
  facet normal  0.000000e+000  9.659258e-001 -2.588190e-001
    outer loop
      vertex  0.000000e+000  3.845153e+000 -2.220000e+000
      vertex  5.000000e-001  4.440000e+000  0.000000e+000
      vertex  5.000000e-001  3.845153e+000 -2.220000e+000
    endloop
  endfacet
  facet normal  0.000000e+000  7.071068e-001 -7.071068e-001
    outer loop
      vertex  0.000000e+000  3.845153e+000 -2.220000e+000
      vertex  5.000000e-001  3.845153e+000 -2.220000e+000
      vertex  0.000000e+000  2.220000e+000 -3.845153e+000
    endloop
  endfacet
  facet normal  0.000000e+000  7.071068e-001 -7.071068e-001
    outer loop
      vertex  0.000000e+000  2.220000e+000 -3.845153e+000
      vertex  5.000000e-001  3.845153e+000 -2.220000e+000
      vertex  5.000000e-001  2.220000e+000 -3.845153e+000
    endloop
  endfacet
  facet normal  0.000000e+000  2.588190e-001 -9.659258e-001
    outer loop
      vertex  0.000000e+000  2.220000e+000 -3.845153e+000
      vertex  5.000000e-001  2.220000e+000 -3.845153e+000
      vertex  0.000000e+000 -8.155879e-016 -4.440000e+000
    endloop
  endfacet
  facet normal  0.000000e+000  2.588190e-001 -9.659258e-001
    outer loop
      vertex  0.000000e+000 -8.155879e-016 -4.440000e+000
      vertex  5.000000e-001  2.220000e+000 -3.845153e+000
      vertex  5.000000e-001 -8.155879e-016 -4.440000e+000
    endloop
  endfacet
  facet normal  -0.000000e+000 -2.588190e-001 -9.659258e-001
    outer loop
      vertex  0.000000e+000 -8.155879e-016 -4.440000e+000
      vertex  5.000000e-001 -8.155879e-016 -4.440000e+000
      vertex  0.000000e+000 -2.220000e+000 -3.845153e+000
    endloop
  endfacet
  facet normal  0.000000e+000 -2.588190e-001 -9.659258e-001
    outer loop
      vertex  0.000000e+000 -2.220000e+000 -3.845153e+000
      vertex  5.000000e-001 -8.155879e-016 -4.440000e+000
      vertex  5.000000e-001 -2.220000e+000 -3.845153e+000
    endloop
  endfacet
  facet normal  -0.000000e+000 -7.071068e-001 -7.071068e-001
    outer loop
      vertex  0.000000e+000 -2.220000e+000 -3.845153e+000
      vertex  5.000000e-001 -2.220000e+000 -3.845153e+000
      vertex  0.000000e+000 -3.845153e+000 -2.220000e+000
    endloop
  endfacet
  facet normal  0.000000e+000 -7.071068e-001 -7.071068e-001
    outer loop
      vertex  0.000000e+000 -3.845153e+000 -2.220000e+000
      vertex  5.000000e-001 -2.220000e+000 -3.845153e+000
      vertex  5.000000e-001 -3.845153e+000 -2.220000e+000
    endloop
  endfacet
  facet normal  -0.000000e+000 -9.659258e-001 -2.588190e-001
    outer loop
      vertex  0.000000e+000 -3.845153e+000 -2.220000e+000
      vertex  5.000000e-001 -3.845153e+000 -2.220000e+000
      vertex  0.000000e+000 -4.440000e+000  5.437252e-016
    endloop
  endfacet
  facet normal  0.000000e+000 -9.659258e-001 -2.588190e-001
    outer loop
      vertex  0.000000e+000 -4.440000e+000  5.437252e-016
      vertex  5.000000e-001 -3.845153e+000 -2.220000e+000
      vertex  5.000000e-001 -4.440000e+000  5.437252e-016
    endloop
  endfacet
  facet normal  0.000000e+000 -9.659258e-001  2.588190e-001
    outer loop
      vertex  0.000000e+000 -4.440000e+000  5.437252e-016
      vertex  5.000000e-001 -4.440000e+000  5.437252e-016
      vertex  0.000000e+000 -3.845153e+000  2.220000e+000
    endloop
  endfacet
  facet normal  0.000000e+000 -9.659258e-001  2.588190e-001
    outer loop
      vertex  0.000000e+000 -3.845153e+000  2.220000e+000
      vertex  5.000000e-001 -4.440000e+000  5.437252e-016
      vertex  5.000000e-001 -3.845153e+000  2.220000e+000
    endloop
  endfacet
  facet normal  0.000000e+000 -7.071068e-001  7.071068e-001
    outer loop
      vertex  0.000000e+000 -3.845153e+000  2.220000e+000
      vertex  5.000000e-001 -3.845153e+000  2.220000e+000
      vertex  0.000000e+000 -2.220000e+000  3.845153e+000
    endloop
  endfacet
  facet normal  0.000000e+000 -7.071068e-001  7.071068e-001
    outer loop
      vertex  0.000000e+000 -2.220000e+000  3.845153e+000
      vertex  5.000000e-001 -3.845153e+000  2.220000e+000
      vertex  5.000000e-001 -2.220000e+000  3.845153e+000
    endloop
  endfacet
  facet normal  0.000000e+000 -2.588190e-001  9.659258e-001
    outer loop
      vertex  0.000000e+000 -2.220000e+000  3.845153e+000
      vertex  5.000000e-001 -2.220000e+000  3.845153e+000
      vertex  0.000000e+000  2.718626e-016  4.440000e+000
    endloop
  endfacet
  facet normal  0.000000e+000 -2.588190e-001  9.659258e-001
    outer loop
      vertex  0.000000e+000  2.718626e-016  4.440000e+000
      vertex  5.000000e-001 -2.220000e+000  3.845153e+000
      vertex  5.000000e-001  2.718626e-016  4.440000e+000
    endloop
  endfacet
  facet normal  0.000000e+000  2.588190e-001  9.659258e-001
    outer loop
      vertex  0.000000e+000  2.718626e-016  4.440000e+000
      vertex  5.000000e-001  2.718626e-016  4.440000e+000
      vertex  0.000000e+000  2.220000e+000  3.845153e+000
    endloop
  endfacet
  facet normal  -0.000000e+000  2.588190e-001  9.659258e-001
    outer loop
      vertex  0.000000e+000  2.220000e+000  3.845153e+000
      vertex  5.000000e-001  2.718626e-016  4.440000e+000
      vertex  5.000000e-001  2.220000e+000  3.845153e+000
    endloop
  endfacet
  facet normal  0.000000e+000  7.071068e-001  7.071068e-001
    outer loop
      vertex  0.000000e+000  2.220000e+000  3.845153e+000
      vertex  5.000000e-001  2.220000e+000  3.845153e+000
      vertex  0.000000e+000  3.845153e+000  2.220000e+000
    endloop
  endfacet
  facet normal  -0.000000e+000  7.071068e-001  7.071068e-001
    outer loop
      vertex  0.000000e+000  3.845153e+000  2.220000e+000
      vertex  5.000000e-001  2.220000e+000  3.845153e+000
      vertex  5.000000e-001  3.845153e+000  2.220000e+000
    endloop
  endfacet
  facet normal  0.000000e+000  9.659258e-001  2.588190e-001
    outer loop
      vertex  0.000000e+000  3.845153e+000  2.220000e+000
      vertex  5.000000e-001  3.845153e+000  2.220000e+000
      vertex  0.000000e+000  4.440000e+000  0.000000e+000
    endloop
  endfacet
  facet normal  -0.000000e+000  9.659258e-001  2.588190e-001
    outer loop
      vertex  0.000000e+000  4.440000e+000  0.000000e+000
      vertex  5.000000e-001  3.845153e+000  2.220000e+000
      vertex  5.000000e-001  4.440000e+000  0.000000e+000
    endloop
  endfacet
endsolid CATIA STL
