solid CATIA STL
  facet normal  7.770138e-001  1.152504e-004  6.294836e-001
    outer loop
      vertex -1.153434e+003 -1.824478e+002 -4.311438e+001
      vertex -1.153287e+003 -1.822642e+002 -4.329598e+001
      vertex -1.153231e+003 -1.819805e+002 -4.336459e+001
    endloop
  endfacet
  facet normal  7.771459e-001 -2.939453e-005  6.293205e-001
    outer loop
      vertex -1.153434e+003 -1.824478e+002 -4.311438e+001
      vertex -1.153231e+003 -1.819805e+002 -4.336459e+001
      vertex -1.193201e+003 -1.823826e+002  5.993878e+000
    endloop
  endfacet
  facet normal  7.771459e-001 -5.442510e-006  6.293204e-001
    outer loop
      vertex -1.153434e+003 -1.824478e+002 -4.311438e+001
      vertex -1.193201e+003 -1.823826e+002  5.993878e+000
      vertex -1.194453e+003 -1.862853e+002  7.539274e+000
    endloop
  endfacet
  facet normal  7.771451e-001  1.705837e-005  6.293215e-001
    outer loop
      vertex -1.153434e+003 -1.824478e+002 -4.311438e+001
      vertex -1.194453e+003 -1.862853e+002  7.539274e+000
      vertex -1.196402e+003 -1.893826e+002  9.946285e+000
    endloop
  endfacet
  facet normal  7.771453e-001  1.326232e-005  6.293212e-001
    outer loop
      vertex -1.153434e+003 -1.824478e+002 -4.311438e+001
      vertex -1.196402e+003 -1.893826e+002  9.946285e+000
      vertex -1.198858e+003 -1.913711e+002  1.297930e+001
    endloop
  endfacet
  facet normal  7.771746e-001 -3.632275e-004  6.292850e-001
    outer loop
      vertex -1.153434e+003 -1.824478e+002 -4.311438e+001
      vertex -1.198858e+003 -1.913711e+002  1.297930e+001
      vertex -1.201580e+003 -1.920563e+002  1.634141e+001
    endloop
  endfacet
  facet normal  7.771460e-001 -1.133112e-006  6.293203e-001
    outer loop
      vertex -1.153434e+003 -1.824478e+002 -4.311438e+001
      vertex -1.201580e+003 -1.920563e+002  1.634141e+001
      vertex -1.211748e+003 -2.177557e+002  2.889746e+001
    endloop
  endfacet
  facet normal  7.771389e-001  5.114516e-006  6.293291e-001
    outer loop
      vertex -1.201580e+003 -1.640563e+002  1.634141e+001
      vertex -1.198858e+003 -1.647415e+002  1.297930e+001
      vertex -1.153231e+003 -5.684342e-014 -4.336459e+001
    endloop
  endfacet
  facet normal  7.771458e-001  -0.000000e+000  6.293206e-001
    outer loop
      vertex -1.201580e+003 -1.640563e+002  1.634141e+001
      vertex -1.153231e+003 -5.684342e-014 -4.336459e+001
      vertex -1.153231e+003  1.819805e+002 -4.336459e+001
    endloop
  endfacet
  facet normal  7.772048e-001 -2.081481e-005  6.292478e-001
    outer loop
      vertex -1.201580e+003 -1.640563e+002  1.634141e+001
      vertex -1.153231e+003  1.819805e+002 -4.336459e+001
      vertex -1.153287e+003  1.822642e+002 -4.329598e+001
    endloop
  endfacet
  facet normal  7.770818e-001  2.247163e-005  6.293995e-001
    outer loop
      vertex -1.201580e+003 -1.640563e+002  1.634141e+001
      vertex -1.153287e+003  1.822642e+002 -4.329598e+001
      vertex -1.153434e+003  1.824478e+002 -4.311438e+001
    endloop
  endfacet
  facet normal  7.771458e-001  6.422513e-008  6.293207e-001
    outer loop
      vertex -1.201580e+003 -1.640563e+002  1.634141e+001
      vertex -1.153434e+003  1.824478e+002 -4.311438e+001
      vertex -1.211748e+003  2.177557e+002  2.889746e+001
    endloop
  endfacet
  facet normal  7.771461e-001  8.175575e-008  6.293203e-001
    outer loop
      vertex -1.201580e+003 -1.640563e+002  1.634141e+001
      vertex -1.211748e+003  2.177557e+002  2.889746e+001
      vertex -1.352097e+003  3.353762e-012  2.022135e+002
    endloop
  endfacet
  facet normal  7.771462e-001  0.000000e+000  6.293201e-001
    outer loop
      vertex -1.153231e+003 -1.819805e+002 -4.336459e+001
      vertex -1.153231e+003 -5.684342e-014 -4.336459e+001
      vertex -1.198858e+003 -1.647415e+002  1.297930e+001
    endloop
  endfacet
  facet normal  7.771433e-001 -1.960303e-005  6.293237e-001
    outer loop
      vertex -1.153231e+003 -1.819805e+002 -4.336459e+001
      vertex -1.198858e+003 -1.647415e+002  1.297930e+001
      vertex -1.196402e+003 -1.667301e+002  9.946285e+000
    endloop
  endfacet
  facet normal  7.771432e-001 -1.998956e-005  6.293237e-001
    outer loop
      vertex -1.153231e+003 -1.819805e+002 -4.336459e+001
      vertex -1.196402e+003 -1.667301e+002  9.946285e+000
      vertex -1.194453e+003 -1.698273e+002  7.539274e+000
    endloop
  endfacet
  facet normal  7.771463e-001  5.726157e-006  6.293200e-001
    outer loop
      vertex -1.153231e+003 -1.819805e+002 -4.336459e+001
      vertex -1.194453e+003 -1.698273e+002  7.539274e+000
      vertex -1.193201e+003 -1.737301e+002  5.993878e+000
    endloop
  endfacet
  facet normal  7.771466e-001  1.073413e-005  6.293195e-001
    outer loop
      vertex -1.153231e+003 -1.819805e+002 -4.336459e+001
      vertex -1.193201e+003 -1.737301e+002  5.993878e+000
      vertex -1.192770e+003 -1.780563e+002  5.461371e+000
    endloop
  endfacet
  facet normal  7.771459e-001 -1.052682e-005  6.293206e-001
    outer loop
      vertex -1.153231e+003 -1.819805e+002 -4.336459e+001
      vertex -1.192770e+003 -1.780563e+002  5.461371e+000
      vertex -1.193201e+003 -1.823826e+002  5.993878e+000
    endloop
  endfacet
  facet normal  7.771467e-001 -9.998980e-007  6.293195e-001
    outer loop
      vertex -1.352097e+003  3.353762e-012  2.022135e+002
      vertex -1.211748e+003  2.177557e+002  2.889746e+001
      vertex -1.214225e+003  2.199320e+002  3.195638e+001
    endloop
  endfacet
  facet normal  7.771528e-001 -1.062668e-005  6.293120e-001
    outer loop
      vertex -1.352097e+003  3.353762e-012  2.022135e+002
      vertex -1.214225e+003  2.199320e+002  3.195638e+001
      vertex -1.216223e+003  2.231178e+002  3.442372e+001
    endloop
  endfacet
  facet normal  7.771460e-001 -3.025480e-007  6.293202e-001
    outer loop
      vertex -1.352097e+003  3.353762e-012  2.022135e+002
      vertex -1.216223e+003  2.231178e+002  3.442372e+001
      vertex -1.217584e+003  2.270613e+002  3.610452e+001
    endloop
  endfacet
  facet normal  7.771369e-001  1.342654e-005  6.293315e-001
    outer loop
      vertex -1.352097e+003  3.353762e-012  2.022135e+002
      vertex -1.217584e+003  2.270613e+002  3.610452e+001
      vertex -1.218201e+003  2.314510e+002  3.686596e+001
    endloop
  endfacet
  facet normal  7.771510e-001 -7.291037e-006  6.293140e-001
    outer loop
      vertex -1.352097e+003  3.353762e-012  2.022135e+002
      vertex -1.218201e+003  2.314510e+002  3.686596e+001
      vertex -1.218024e+003  2.359399e+002  3.664788e+001
    endloop
  endfacet
  facet normal  7.771381e-001  1.139169e-005  6.293302e-001
    outer loop
      vertex -1.352097e+003  3.353762e-012  2.022135e+002
      vertex -1.218024e+003  2.359399e+002  3.664788e+001
      vertex -1.217068e+003  2.401733e+002  3.546751e+001
    endloop
  endfacet
  facet normal  7.771163e-001  4.225042e-005  6.293569e-001
    outer loop
      vertex -1.352097e+003  3.353762e-012  2.022135e+002
      vertex -1.217068e+003  2.401733e+002  3.546751e+001
      vertex -1.217033e+003  2.404429e+002  3.542363e+001
    endloop
  endfacet
  facet normal  7.771430e-001  4.487494e-006  6.293241e-001
    outer loop
      vertex -1.352097e+003  3.353762e-012  2.022135e+002
      vertex -1.217033e+003  2.404429e+002  3.542363e+001
      vertex -1.217093e+003  2.407015e+002  3.549734e+001
    endloop
  endfacet
  facet normal  7.772580e-001 -1.584727e-004  6.291820e-001
    outer loop
      vertex -1.352097e+003  3.353762e-012  2.022135e+002
      vertex -1.217093e+003  2.407015e+002  3.549734e+001
      vertex -1.217229e+003  2.408706e+002  3.566628e+001
    endloop
  endfacet
  facet normal  7.771460e-001  0.000000e+000  6.293204e-001
    outer loop
      vertex -1.352097e+003  3.353762e-012  2.022135e+002
      vertex -1.217229e+003  2.408706e+002  3.566628e+001
      vertex -1.352097e+003  3.047598e+002  2.022135e+002
    endloop
  endfacet
  facet normal  7.771435e-001 -9.651048e-006  6.293235e-001
    outer loop
      vertex -1.217229e+003  2.408706e+002  3.566628e+001
      vertex -1.345312e+003  3.226669e+002  1.938347e+002
      vertex -1.345493e+003  3.226924e+002  1.940591e+002
    endloop
  endfacet
  facet normal  7.772002e-001  2.150588e-004  6.292533e-001
    outer loop
      vertex -1.217229e+003  2.408706e+002  3.566628e+001
      vertex -1.345493e+003  3.226924e+002  1.940591e+002
      vertex -1.345653e+003  3.225533e+002  1.942568e+002
    endloop
  endfacet
  facet normal  7.771440e-001 -8.392019e-006  6.293229e-001
    outer loop
      vertex -1.217229e+003  2.408706e+002  3.566628e+001
      vertex -1.345653e+003  3.225533e+002  1.942568e+002
      vertex -1.345738e+003  3.222964e+002  1.943613e+002
    endloop
  endfacet
  facet normal  7.771456e-001 -1.749783e-006  6.293209e-001
    outer loop
      vertex -1.217229e+003  2.408706e+002  3.566628e+001
      vertex -1.345738e+003  3.222964e+002  1.943613e+002
      vertex -1.346989e+003  3.158766e+002  1.959055e+002
    endloop
  endfacet
  facet normal  7.771459e-001 -3.525898e-007  6.293204e-001
    outer loop
      vertex -1.217229e+003  2.408706e+002  3.566628e+001
      vertex -1.346989e+003  3.158766e+002  1.959055e+002
      vertex -1.349107e+003  3.100603e+002  1.985215e+002
    endloop
  endfacet
  facet normal  7.771440e-001 -9.442501e-006  6.293228e-001
    outer loop
      vertex -1.217229e+003  2.408706e+002  3.566628e+001
      vertex -1.349107e+003  3.100603e+002  1.985215e+002
      vertex -1.351987e+003  3.051392e+002  2.020781e+002
    endloop
  endfacet
  facet normal  7.771554e-001  5.089006e-005  6.293088e-001
    outer loop
      vertex -1.217229e+003  2.408706e+002  3.566628e+001
      vertex -1.351987e+003  3.051392e+002  2.020781e+002
      vertex -1.352068e+003  3.049685e+002  2.021780e+002
    endloop
  endfacet
  facet normal  7.771816e-001  1.897407e-004  6.292765e-001
    outer loop
      vertex -1.217229e+003  2.408706e+002  3.566628e+001
      vertex -1.352068e+003  3.049685e+002  2.021780e+002
      vertex -1.352097e+003  3.047598e+002  2.022135e+002
    endloop
  endfacet
  facet normal  7.771457e-001  1.155662e-006  6.293206e-001
    outer loop
      vertex -1.217229e+003 -2.408706e+002  3.566628e+001
      vertex -1.352097e+003 -3.047598e+002  2.022135e+002
      vertex -1.349107e+003 -3.100603e+002  1.985215e+002
    endloop
  endfacet
  facet normal  7.771459e-001  3.525898e-007  6.293204e-001
    outer loop
      vertex -1.217229e+003 -2.408706e+002  3.566628e+001
      vertex -1.349107e+003 -3.100603e+002  1.985215e+002
      vertex -1.346989e+003 -3.158766e+002  1.959055e+002
    endloop
  endfacet
  facet normal  7.771471e-001 -4.614770e-006  6.293191e-001
    outer loop
      vertex -1.217229e+003 -2.408706e+002  3.566628e+001
      vertex -1.346989e+003 -3.158766e+002  1.959055e+002
      vertex -1.345312e+003 -3.226669e+002  1.938347e+002
    endloop
  endfacet
  facet normal  7.770280e-001  6.279048e-004  6.294658e-001
    outer loop
      vertex -1.352097e+003 -3.047598e+002  2.022135e+002
      vertex -1.217229e+003 -2.408706e+002  3.566628e+001
      vertex -1.217093e+003 -2.407015e+002  3.549734e+001
    endloop
  endfacet
  facet normal  7.771475e-001 -7.109211e-006  6.293185e-001
    outer loop
      vertex -1.352097e+003 -3.047598e+002  2.022135e+002
      vertex -1.217093e+003 -2.407015e+002  3.549734e+001
      vertex -1.217033e+003 -2.404429e+002  3.542363e+001
    endloop
  endfacet
  facet normal  7.771519e-001 -3.042550e-005  6.293131e-001
    outer loop
      vertex -1.352097e+003 -3.047598e+002  2.022135e+002
      vertex -1.217033e+003 -2.404429e+002  3.542363e+001
      vertex -1.217068e+003 -2.401733e+002  3.546751e+001
    endloop
  endfacet
  facet normal  7.771473e-001 -6.152411e-006  6.293187e-001
    outer loop
      vertex -1.352097e+003 -3.047598e+002  2.022135e+002
      vertex -1.217068e+003 -2.401733e+002  3.546751e+001
      vertex -1.218024e+003 -2.359399e+002  3.664788e+001
    endloop
  endfacet
  facet normal  7.771446e-001  6.651887e-006  6.293220e-001
    outer loop
      vertex -1.352097e+003 -3.047598e+002  2.022135e+002
      vertex -1.218024e+003 -2.359399e+002  3.664788e+001
      vertex -1.218201e+003 -2.314510e+002  3.686596e+001
    endloop
  endfacet
  facet normal  7.771500e-001 -1.807720e-005  6.293154e-001
    outer loop
      vertex -1.352097e+003 -3.047598e+002  2.022135e+002
      vertex -1.218201e+003 -2.314510e+002  3.686596e+001
      vertex -1.217584e+003 -2.270613e+002  3.610452e+001
    endloop
  endfacet
  facet normal  7.771458e-001  5.980471e-007  6.293207e-001
    outer loop
      vertex -1.352097e+003 -3.047598e+002  2.022135e+002
      vertex -1.217584e+003 -2.270613e+002  3.610452e+001
      vertex -1.216223e+003 -2.231178e+002  3.442372e+001
    endloop
  endfacet
  facet normal  7.771376e-001  3.464122e-005  6.293307e-001
    outer loop
      vertex -1.352097e+003 -3.047598e+002  2.022135e+002
      vertex -1.216223e+003 -2.231178e+002  3.442372e+001
      vertex -1.214225e+003 -2.199320e+002  3.195638e+001
    endloop
  endfacet
  facet normal  7.771438e-001  9.393754e-006  6.293230e-001
    outer loop
      vertex -1.352097e+003 -3.047598e+002  2.022135e+002
      vertex -1.214225e+003 -2.199320e+002  3.195638e+001
      vertex -1.211748e+003 -2.177557e+002  2.889746e+001
    endloop
  endfacet
  facet normal  7.771465e-001 -1.675842e-006  6.293196e-001
    outer loop
      vertex -1.352097e+003 -3.047598e+002  2.022135e+002
      vertex -1.211748e+003 -2.177557e+002  2.889746e+001
      vertex -1.201580e+003 -1.920563e+002  1.634141e+001
    endloop
  endfacet
  facet normal  7.771508e-001 -1.597504e-005  6.293145e-001
    outer loop
      vertex -1.352097e+003 -3.047598e+002  2.022135e+002
      vertex -1.201580e+003 -1.920563e+002  1.634141e+001
      vertex -1.204303e+003 -1.913711e+002  1.970353e+001
    endloop
  endfacet
  facet normal  7.771403e-001  1.864858e-005  6.293275e-001
    outer loop
      vertex -1.352097e+003 -3.047598e+002  2.022135e+002
      vertex -1.204303e+003 -1.913711e+002  1.970353e+001
      vertex -1.206759e+003 -1.893826e+002  2.273654e+001
    endloop
  endfacet
  facet normal  7.771494e-001 -1.027361e-005  6.293162e-001
    outer loop
      vertex -1.352097e+003 -3.047598e+002  2.022135e+002
      vertex -1.206759e+003 -1.893826e+002  2.273654e+001
      vertex -1.208708e+003 -1.862853e+002  2.514355e+001
    endloop
  endfacet
  facet normal  7.771445e-001  4.539627e-006  6.293222e-001
    outer loop
      vertex -1.352097e+003 -3.047598e+002  2.022135e+002
      vertex -1.208708e+003 -1.862853e+002  2.514355e+001
      vertex -1.209960e+003 -1.823826e+002  2.668895e+001
    endloop
  endfacet
  facet normal  7.771497e-001 -1.070328e-005  6.293158e-001
    outer loop
      vertex -1.352097e+003 -3.047598e+002  2.022135e+002
      vertex -1.209960e+003 -1.823826e+002  2.668895e+001
      vertex -1.210391e+003 -1.780563e+002  2.722146e+001
    endloop
  endfacet
  facet normal  7.771414e-001  1.280132e-005  6.293261e-001
    outer loop
      vertex -1.352097e+003 -3.047598e+002  2.022135e+002
      vertex -1.210391e+003 -1.780563e+002  2.722146e+001
      vertex -1.209960e+003 -1.737301e+002  2.668895e+001
    endloop
  endfacet
  facet normal  7.771491e-001 -8.223914e-006  6.293166e-001
    outer loop
      vertex -1.352097e+003 -3.047598e+002  2.022135e+002
      vertex -1.209960e+003 -1.737301e+002  2.668895e+001
      vertex -1.208708e+003 -1.698273e+002  2.514355e+001
    endloop
  endfacet
  facet normal  7.771317e-001  3.830518e-005  6.293380e-001
    outer loop
      vertex -1.352097e+003 -3.047598e+002  2.022135e+002
      vertex -1.208708e+003 -1.698273e+002  2.514355e+001
      vertex -1.206759e+003 -1.667301e+002  2.273654e+001
    endloop
  endfacet
  facet normal  7.771461e-001  -0.000000e+000  6.293202e-001
    outer loop
      vertex -1.352097e+003  3.353762e-012  2.022135e+002
      vertex -1.352097e+003 -3.047598e+002  2.022135e+002
      vertex -1.206759e+003 -1.667301e+002  2.273654e+001
    endloop
  endfacet
  facet normal  7.771391e-001 -1.529395e-005  6.293287e-001
    outer loop
      vertex -1.352097e+003  3.353762e-012  2.022135e+002
      vertex -1.206759e+003 -1.667301e+002  2.273654e+001
      vertex -1.204303e+003 -1.647415e+002  1.970353e+001
    endloop
  endfacet
  facet normal  7.771512e-001  1.191853e-005  6.293139e-001
    outer loop
      vertex -1.352097e+003  3.353762e-012  2.022135e+002
      vertex -1.204303e+003 -1.647415e+002  1.970353e+001
      vertex -1.201580e+003 -1.640563e+002  1.634141e+001
    endloop
  endfacet
  facet normal  7.772007e-001  2.890447e-005  6.292526e-001
    outer loop
      vertex -1.346989e+003 -3.158766e+002  1.959055e+002
      vertex -1.345738e+003 -3.222964e+002  1.943613e+002
      vertex -1.345312e+003 -3.226669e+002  1.938347e+002
    endloop
  endfacet
  facet normal  7.772138e-001  6.641496e-005  6.292367e-001
    outer loop
      vertex -1.345312e+003 -3.226669e+002  1.938347e+002
      vertex -1.345738e+003 -3.222964e+002  1.943613e+002
      vertex -1.345653e+003 -3.225533e+002  1.942568e+002
    endloop
  endfacet
  facet normal  7.771621e-001 -3.258865e-004  6.293005e-001
    outer loop
      vertex -1.345312e+003 -3.226669e+002  1.938347e+002
      vertex -1.345653e+003 -3.225533e+002  1.942568e+002
      vertex -1.345493e+003 -3.226924e+002  1.940591e+002
    endloop
  endfacet
  facet normal  7.769814e-001 -2.592530e-004  6.295235e-001
    outer loop
      vertex -1.352068e+003 -3.049685e+002  2.021780e+002
      vertex -1.351987e+003 -3.051392e+002  2.020781e+002
      vertex -1.352097e+003 -3.047598e+002  2.022135e+002
    endloop
  endfacet
  facet normal  7.769433e-001 -2.870441e-004  6.295705e-001
    outer loop
      vertex -1.352097e+003 -3.047598e+002  2.022135e+002
      vertex -1.351987e+003 -3.051392e+002  2.020781e+002
      vertex -1.349107e+003 -3.100603e+002  1.985215e+002
    endloop
  endfacet
  facet normal -6.292821e-001  0.000000e+000  7.771770e-001
    outer loop
      vertex -1.352874e+003  3.223924e-012  2.015842e+002
      vertex -1.352874e+003 -3.047598e+002  2.015842e+002
      vertex -1.352097e+003  3.353762e-012  2.022135e+002
    endloop
  endfacet
  facet normal -6.292821e-001  0.000000e+000  7.771770e-001
    outer loop
      vertex -1.352097e+003  3.353762e-012  2.022135e+002
      vertex -1.352874e+003 -3.047598e+002  2.015842e+002
      vertex -1.352097e+003 -3.047598e+002  2.022135e+002
    endloop
  endfacet
  facet normal -6.292821e-001  0.000000e+000  7.771770e-001
    outer loop
      vertex -1.352874e+003  3.047598e+002  2.015842e+002
      vertex -1.352874e+003  3.223924e-012  2.015842e+002
      vertex -1.352097e+003  3.047598e+002  2.022135e+002
    endloop
  endfacet
  facet normal -6.292821e-001  0.000000e+000  7.771770e-001
    outer loop
      vertex -1.352097e+003  3.047598e+002  2.022135e+002
      vertex -1.352874e+003  3.223924e-012  2.015842e+002
      vertex -1.352097e+003  3.353762e-012  2.022135e+002
    endloop
  endfacet
  facet normal -6.147147e-001  2.139216e-001  7.591860e-001
    outer loop
      vertex -1.352874e+003  3.047598e+002  2.015842e+002
      vertex -1.352097e+003  3.047598e+002  2.022135e+002
      vertex -1.352845e+003  3.049685e+002  2.015487e+002
    endloop
  endfacet
  facet normal -6.148202e-001  2.135785e-001  7.591971e-001
    outer loop
      vertex -1.352845e+003  3.049685e+002  2.015487e+002
      vertex -1.352097e+003  3.047598e+002  2.022135e+002
      vertex -1.352068e+003  3.049685e+002  2.021780e+002
    endloop
  endfacet
  facet normal -5.025551e-001  6.019406e-001  6.205690e-001
    outer loop
      vertex -1.352845e+003  3.049685e+002  2.015487e+002
      vertex -1.352068e+003  3.049685e+002  2.021780e+002
      vertex -1.352764e+003  3.051392e+002  2.014488e+002
    endloop
  endfacet
  facet normal -5.025551e-001  6.019406e-001  6.205690e-001
    outer loop
      vertex -1.352764e+003  3.051392e+002  2.014488e+002
      vertex -1.352068e+003  3.049685e+002  2.021780e+002
      vertex -1.351987e+003  3.051392e+002  2.020781e+002
    endloop
  endfacet
  facet normal -6.011451e-001  2.956794e-001  7.424273e-001
    outer loop
      vertex -1.347766e+003  3.158766e+002  1.952762e+002
      vertex -1.345738e+003  3.222964e+002  1.943613e+002
      vertex -1.346515e+003  3.222964e+002  1.937320e+002
    endloop
  endfacet
  facet normal -6.011451e-001  2.956794e-001  7.424273e-001
    outer loop
      vertex -1.345738e+003  3.222964e+002  1.943613e+002
      vertex -1.347766e+003  3.158766e+002  1.952762e+002
      vertex -1.346989e+003  3.158766e+002  1.959055e+002
    endloop
  endfacet
  facet normal -5.446457e-001  5.009031e-001  6.726493e-001
    outer loop
      vertex -1.346989e+003  3.158766e+002  1.959055e+002
      vertex -1.347766e+003  3.158766e+002  1.952762e+002
      vertex -1.349884e+003  3.100603e+002  1.978922e+002
    endloop
  endfacet
  facet normal -5.446457e-001  5.009031e-001  6.726493e-001
    outer loop
      vertex -1.346989e+003  3.158766e+002  1.959055e+002
      vertex -1.349884e+003  3.100603e+002  1.978922e+002
      vertex -1.349107e+003  3.100603e+002  1.985215e+002
    endloop
  endfacet
  facet normal -4.608156e-001  6.809951e-001  5.691173e-001
    outer loop
      vertex -1.349107e+003  3.100603e+002  1.985215e+002
      vertex -1.349884e+003  3.100603e+002  1.978922e+002
      vertex -1.352764e+003  3.051392e+002  2.014488e+002
    endloop
  endfacet
  facet normal -4.608558e-001  6.810013e-001  5.690775e-001
    outer loop
      vertex -1.349107e+003  3.100603e+002  1.985215e+002
      vertex -1.352764e+003  3.051392e+002  2.014488e+002
      vertex -1.351987e+003  3.051392e+002  2.020781e+002
    endloop
  endfacet
  facet normal -5.575575e-001  4.636441e-001  6.885955e-001
    outer loop
      vertex -1.346515e+003  3.222964e+002  1.937320e+002
      vertex -1.345738e+003  3.222964e+002  1.943613e+002
      vertex -1.346431e+003  3.225533e+002  1.936275e+002
    endloop
  endfacet
  facet normal -5.575762e-001  4.636120e-001  6.886020e-001
    outer loop
      vertex -1.346431e+003  3.225533e+002  1.936275e+002
      vertex -1.345738e+003  3.222964e+002  1.943613e+002
      vertex -1.345653e+003  3.225533e+002  1.942568e+002
    endloop
  endfacet
  facet normal -3.018749e-001  8.774292e-001  3.728130e-001
    outer loop
      vertex -1.346431e+003  3.225533e+002  1.936275e+002
      vertex -1.345653e+003  3.225533e+002  1.942568e+002
      vertex -1.346271e+003  3.226924e+002  1.934298e+002
    endloop
  endfacet
  facet normal -3.019585e-001  8.773776e-001  3.728667e-001
    outer loop
      vertex -1.346271e+003  3.226924e+002  1.934298e+002
      vertex -1.345653e+003  3.225533e+002  1.942568e+002
      vertex -1.345493e+003  3.226924e+002  1.940591e+002
    endloop
  endfacet
  facet normal  5.531056e-002  9.961305e-001 -6.829901e-002
    outer loop
      vertex -1.346271e+003  3.226924e+002  1.934298e+002
      vertex -1.345493e+003  3.226924e+002  1.940591e+002
      vertex -1.346089e+003  3.226669e+002  1.932054e+002
    endloop
  endfacet
  facet normal  5.531056e-002  9.961305e-001 -6.829901e-002
    outer loop
      vertex -1.346089e+003  3.226669e+002  1.932054e+002
      vertex -1.345493e+003  3.226924e+002  1.940591e+002
      vertex -1.345312e+003  3.226669e+002  1.938347e+002
    endloop
  endfacet
  facet normal  2.346650e-001  9.278679e-001 -2.898163e-001
    outer loop
      vertex -1.218007e+003  2.408706e+002  3.503696e+001
      vertex -1.346089e+003  3.226669e+002  1.932054e+002
      vertex -1.217229e+003  2.408706e+002  3.566628e+001
    endloop
  endfacet
  facet normal  2.346872e-001  9.278679e-001 -2.897982e-001
    outer loop
      vertex -1.217229e+003  2.408706e+002  3.566628e+001
      vertex -1.346089e+003  3.226669e+002  1.932054e+002
      vertex -1.345312e+003  3.226669e+002  1.938347e+002
    endloop
  endfacet
  facet normal  3.863698e-001  7.893176e-001 -4.771751e-001
    outer loop
      vertex -1.218007e+003  2.408706e+002  3.503696e+001
      vertex -1.217229e+003  2.408706e+002  3.566628e+001
      vertex -1.217870e+003  2.407015e+002  3.486802e+001
    endloop
  endfacet
  facet normal  3.864915e-001  7.892125e-001 -4.772505e-001
    outer loop
      vertex -1.217870e+003  2.407015e+002  3.486802e+001
      vertex -1.217229e+003  2.408706e+002  3.566628e+001
      vertex -1.217093e+003  2.407015e+002  3.549734e+001
    endloop
  endfacet
  facet normal  5.908411e-001  3.443979e-001 -7.295869e-001
    outer loop
      vertex -1.217870e+003  2.407015e+002  3.486802e+001
      vertex -1.217093e+003  2.407015e+002  3.549734e+001
      vertex -1.217810e+003  2.404429e+002  3.479431e+001
    endloop
  endfacet
  facet normal  5.908411e-001  3.443979e-001 -7.295869e-001
    outer loop
      vertex -1.217810e+003  2.404429e+002  3.479431e+001
      vertex -1.217093e+003  2.407015e+002  3.549734e+001
      vertex -1.217033e+003  2.404429e+002  3.542363e+001
    endloop
  endfacet
  facet normal  6.159799e-001 -2.049692e-001 -7.606291e-001
    outer loop
      vertex -1.217810e+003  2.404429e+002  3.479431e+001
      vertex -1.217033e+003  2.404429e+002  3.542363e+001
      vertex -1.217846e+003  2.401733e+002  3.483819e+001
    endloop
  endfacet
  facet normal  6.159807e-001 -2.049794e-001 -7.606255e-001
    outer loop
      vertex -1.217846e+003  2.401733e+002  3.483819e+001
      vertex -1.217033e+003  2.404429e+002  3.542363e+001
      vertex -1.217068e+003  2.401733e+002  3.546751e+001
    endloop
  endfacet
  facet normal  5.517501e-001  4.808679e-001 -6.814234e-001
    outer loop
      vertex -1.218361e+003  2.270613e+002  3.547520e+001
      vertex -1.216223e+003  2.231178e+002  3.442372e+001
      vertex -1.217000e+003  2.231178e+002  3.379440e+001
    endloop
  endfacet
  facet normal  4.457366e-001  7.058859e-001 -5.504943e-001
    outer loop
      vertex -1.217000e+003  2.231178e+002  3.379440e+001
      vertex -1.216223e+003  2.231178e+002  3.442372e+001
      vertex -1.214225e+003  2.199320e+002  3.195638e+001
    endloop
  endfacet
  facet normal  4.457749e-001  7.058948e-001 -5.504519e-001
    outer loop
      vertex -1.217000e+003  2.231178e+002  3.379440e+001
      vertex -1.214225e+003  2.199320e+002  3.195638e+001
      vertex -1.215002e+003  2.199320e+002  3.132705e+001
    endloop
  endfacet
  facet normal  3.045226e-001  8.751383e-001 -3.760307e-001
    outer loop
      vertex -1.215002e+003  2.199320e+002  3.132705e+001
      vertex -1.214225e+003  2.199320e+002  3.195638e+001
      vertex -1.211748e+003  2.177557e+002  2.889746e+001
    endloop
  endfacet
  facet normal  3.045221e-001  8.751381e-001 -3.760312e-001
    outer loop
      vertex -1.215002e+003  2.199320e+002  3.132705e+001
      vertex -1.211748e+003  2.177557e+002  2.889746e+001
      vertex -1.212525e+003  2.177557e+002  2.826814e+001
    endloop
  endfacet
  facet normal  5.517501e-001  4.808679e-001 -6.814234e-001
    outer loop
      vertex -1.216223e+003  2.231178e+002  3.442372e+001
      vertex -1.218361e+003  2.270613e+002  3.547520e+001
      vertex -1.217584e+003  2.270613e+002  3.610452e+001
    endloop
  endfacet
  facet normal  6.141694e-001  2.178415e-001 -7.585124e-001
    outer loop
      vertex -1.217584e+003  2.270613e+002  3.610452e+001
      vertex -1.218361e+003  2.270613e+002  3.547520e+001
      vertex -1.218978e+003  2.314510e+002  3.623664e+001
    endloop
  endfacet
  facet normal  6.142253e-001  2.178578e-001 -7.584624e-001
    outer loop
      vertex -1.217584e+003  2.270613e+002  3.610452e+001
      vertex -1.218978e+003  2.314510e+002  3.623664e+001
      vertex -1.218201e+003  2.314510e+002  3.686596e+001
    endloop
  endfacet
  facet normal  6.281154e-001 -6.239706e-002 -7.756144e-001
    outer loop
      vertex -1.218201e+003  2.314510e+002  3.686596e+001
      vertex -1.218978e+003  2.314510e+002  3.623664e+001
      vertex -1.218801e+003  2.359399e+002  3.601856e+001
    endloop
  endfacet
  facet normal  6.281177e-001 -6.239639e-002 -7.756125e-001
    outer loop
      vertex -1.218201e+003  2.314510e+002  3.686596e+001
      vertex -1.218801e+003  2.359399e+002  3.601856e+001
      vertex -1.218024e+003  2.359399e+002  3.664788e+001
    endloop
  endfacet
  facet normal  5.923737e-001 -3.376946e-001 -7.314750e-001
    outer loop
      vertex -1.218024e+003  2.359399e+002  3.664788e+001
      vertex -1.218801e+003  2.359399e+002  3.601856e+001
      vertex -1.217846e+003  2.401733e+002  3.483819e+001
    endloop
  endfacet
  facet normal  5.923737e-001 -3.376946e-001 -7.314750e-001
    outer loop
      vertex -1.218024e+003  2.359399e+002  3.664788e+001
      vertex -1.217846e+003  2.401733e+002  3.483819e+001
      vertex -1.217068e+003  2.401733e+002  3.546751e+001
    endloop
  endfacet
  facet normal  2.240882e-001  9.344605e-001 -2.767095e-001
    outer loop
      vertex -1.212525e+003  2.177557e+002  2.826814e+001
      vertex -1.211748e+003  2.177557e+002  2.889746e+001
      vertex -1.154211e+003  1.824478e+002 -4.374370e+001
    endloop
  endfacet
  facet normal  2.240878e-001  9.344605e-001 -2.767098e-001
    outer loop
      vertex -1.154211e+003  1.824478e+002 -4.374370e+001
      vertex -1.211748e+003  2.177557e+002  2.889746e+001
      vertex -1.153434e+003  1.824478e+002 -4.311438e+001
    endloop
  endfacet
  facet normal  3.887794e-001  7.863703e-001 -4.800755e-001
    outer loop
      vertex -1.154211e+003  1.824478e+002 -4.374370e+001
      vertex -1.153434e+003  1.824478e+002 -4.311438e+001
      vertex -1.154064e+003  1.822642e+002 -4.392530e+001
    endloop
  endfacet
  facet normal  3.886679e-001  7.864651e-001 -4.800104e-001
    outer loop
      vertex -1.154064e+003  1.822642e+002 -4.392530e+001
      vertex -1.153434e+003  1.824478e+002 -4.311438e+001
      vertex -1.153287e+003  1.822642e+002 -4.329598e+001
    endloop
  endfacet
  facet normal  6.008241e-001  2.973338e-001 -7.420263e-001
    outer loop
      vertex -1.154064e+003  1.822642e+002 -4.392530e+001
      vertex -1.153287e+003  1.822642e+002 -4.329598e+001
      vertex -1.154009e+003  1.819805e+002 -4.399392e+001
    endloop
  endfacet
  facet normal  6.009273e-001  2.970981e-001 -7.420372e-001
    outer loop
      vertex -1.154009e+003  1.819805e+002 -4.399392e+001
      vertex -1.153287e+003  1.822642e+002 -4.329598e+001
      vertex -1.153231e+003  1.819805e+002 -4.336459e+001
    endloop
  endfacet
  facet normal  6.293441e-001  0.000000e+000 -7.771268e-001
    outer loop
      vertex -1.154009e+003  2.815034e-014 -4.399392e+001
      vertex -1.154009e+003  1.819805e+002 -4.399392e+001
      vertex -1.153231e+003 -5.684342e-014 -4.336459e+001
    endloop
  endfacet
  facet normal  6.293441e-001  0.000000e+000 -7.771268e-001
    outer loop
      vertex -1.153231e+003 -5.684342e-014 -4.336459e+001
      vertex -1.154009e+003  1.819805e+002 -4.399392e+001
      vertex -1.153231e+003  1.819805e+002 -4.336459e+001
    endloop
  endfacet
  facet normal  6.293441e-001  0.000000e+000 -7.771268e-001
    outer loop
      vertex -1.154009e+003 -1.819805e+002 -4.399392e+001
      vertex -1.154009e+003  2.815034e-014 -4.399392e+001
      vertex -1.153231e+003 -1.819805e+002 -4.336459e+001
    endloop
  endfacet
  facet normal  6.293441e-001  0.000000e+000 -7.771268e-001
    outer loop
      vertex -1.153231e+003 -1.819805e+002 -4.336459e+001
      vertex -1.154009e+003  2.815034e-014 -4.399392e+001
      vertex -1.153231e+003 -5.684342e-014 -4.336459e+001
    endloop
  endfacet
  facet normal  6.008811e-001 -2.973338e-001 -7.419801e-001
    outer loop
      vertex -1.154009e+003 -1.819805e+002 -4.399392e+001
      vertex -1.153231e+003 -1.819805e+002 -4.336459e+001
      vertex -1.154064e+003 -1.822642e+002 -4.392530e+001
    endloop
  endfacet
  facet normal  6.008703e-001 -2.970981e-001 -7.420834e-001
    outer loop
      vertex -1.154064e+003 -1.822642e+002 -4.392530e+001
      vertex -1.153231e+003 -1.819805e+002 -4.336459e+001
      vertex -1.153287e+003 -1.822642e+002 -4.329598e+001
    endloop
  endfacet
  facet normal  3.887439e-001 -7.863702e-001 -4.801042e-001
    outer loop
      vertex -1.154064e+003 -1.822642e+002 -4.392530e+001
      vertex -1.153287e+003 -1.822642e+002 -4.329598e+001
      vertex -1.154211e+003 -1.824478e+002 -4.374370e+001
    endloop
  endfacet
  facet normal  3.887034e-001 -7.864651e-001 -4.799817e-001
    outer loop
      vertex -1.154211e+003 -1.824478e+002 -4.374370e+001
      vertex -1.153287e+003 -1.822642e+002 -4.329598e+001
      vertex -1.153434e+003 -1.824478e+002 -4.311438e+001
    endloop
  endfacet
  facet normal  2.240878e-001 -9.344605e-001 -2.767098e-001
    outer loop
      vertex -1.212525e+003 -2.177557e+002  2.826814e+001
      vertex -1.154211e+003 -1.824478e+002 -4.374370e+001
      vertex -1.211748e+003 -2.177557e+002  2.889746e+001
    endloop
  endfacet
  facet normal  2.240878e-001 -9.344605e-001 -2.767098e-001
    outer loop
      vertex -1.211748e+003 -2.177557e+002  2.889746e+001
      vertex -1.154211e+003 -1.824478e+002 -4.374370e+001
      vertex -1.153434e+003 -1.824478e+002 -4.311438e+001
    endloop
  endfacet
  facet normal  6.142277e-001 -2.178415e-001 -7.584653e-001
    outer loop
      vertex -1.218361e+003 -2.270613e+002  3.547520e+001
      vertex -1.218201e+003 -2.314510e+002  3.686596e+001
      vertex -1.218978e+003 -2.314510e+002  3.623664e+001
    endloop
  endfacet
  facet normal  6.281154e-001  6.239639e-002 -7.756144e-001
    outer loop
      vertex -1.218978e+003 -2.314510e+002  3.623664e+001
      vertex -1.218201e+003 -2.314510e+002  3.686596e+001
      vertex -1.218024e+003 -2.359399e+002  3.664788e+001
    endloop
  endfacet
  facet normal  6.281177e-001  6.239704e-002 -7.756125e-001
    outer loop
      vertex -1.218978e+003 -2.314510e+002  3.623664e+001
      vertex -1.218024e+003 -2.359399e+002  3.664788e+001
      vertex -1.218801e+003 -2.359399e+002  3.601856e+001
    endloop
  endfacet
  facet normal  5.923737e-001  3.376946e-001 -7.314750e-001
    outer loop
      vertex -1.218801e+003 -2.359399e+002  3.601856e+001
      vertex -1.218024e+003 -2.359399e+002  3.664788e+001
      vertex -1.217068e+003 -2.401733e+002  3.546751e+001
    endloop
  endfacet
  facet normal  5.923737e-001  3.376946e-001 -7.314750e-001
    outer loop
      vertex -1.218801e+003 -2.359399e+002  3.601856e+001
      vertex -1.217068e+003 -2.401733e+002  3.546751e+001
      vertex -1.217846e+003 -2.401733e+002  3.483819e+001
    endloop
  endfacet
  facet normal  6.141670e-001 -2.178578e-001 -7.585096e-001
    outer loop
      vertex -1.218201e+003 -2.314510e+002  3.686596e+001
      vertex -1.218361e+003 -2.270613e+002  3.547520e+001
      vertex -1.217584e+003 -2.270613e+002  3.610452e+001
    endloop
  endfacet
  facet normal  5.517501e-001 -4.808679e-001 -6.814234e-001
    outer loop
      vertex -1.217584e+003 -2.270613e+002  3.610452e+001
      vertex -1.218361e+003 -2.270613e+002  3.547520e+001
      vertex -1.217000e+003 -2.231178e+002  3.379440e+001
    endloop
  endfacet
  facet normal  5.517501e-001 -4.808679e-001 -6.814234e-001
    outer loop
      vertex -1.217584e+003 -2.270613e+002  3.610452e+001
      vertex -1.217000e+003 -2.231178e+002  3.379440e+001
      vertex -1.216223e+003 -2.231178e+002  3.442372e+001
    endloop
  endfacet
  facet normal  4.457310e-001 -7.058948e-001 -5.504875e-001
    outer loop
      vertex -1.216223e+003 -2.231178e+002  3.442372e+001
      vertex -1.217000e+003 -2.231178e+002  3.379440e+001
      vertex -1.215002e+003 -2.199320e+002  3.132705e+001
    endloop
  endfacet
  facet normal  4.457805e-001 -7.058859e-001 -5.504588e-001
    outer loop
      vertex -1.216223e+003 -2.231178e+002  3.442372e+001
      vertex -1.215002e+003 -2.199320e+002  3.132705e+001
      vertex -1.214225e+003 -2.199320e+002  3.195638e+001
    endloop
  endfacet
  facet normal  3.045227e-001 -8.751382e-001 -3.760308e-001
    outer loop
      vertex -1.214225e+003 -2.199320e+002  3.195638e+001
      vertex -1.215002e+003 -2.199320e+002  3.132705e+001
      vertex -1.212525e+003 -2.177557e+002  2.826814e+001
    endloop
  endfacet
  facet normal  3.045220e-001 -8.751382e-001 -3.760311e-001
    outer loop
      vertex -1.214225e+003 -2.199320e+002  3.195638e+001
      vertex -1.212525e+003 -2.177557e+002  2.826814e+001
      vertex -1.211748e+003 -2.177557e+002  2.889746e+001
    endloop
  endfacet
  facet normal  6.159821e-001  2.049691e-001 -7.606272e-001
    outer loop
      vertex -1.217846e+003 -2.401733e+002  3.483819e+001
      vertex -1.217068e+003 -2.401733e+002  3.546751e+001
      vertex -1.217810e+003 -2.404429e+002  3.479431e+001
    endloop
  endfacet
  facet normal  6.159785e-001  2.049795e-001 -7.606273e-001
    outer loop
      vertex -1.217810e+003 -2.404429e+002  3.479431e+001
      vertex -1.217068e+003 -2.401733e+002  3.546751e+001
      vertex -1.217033e+003 -2.404429e+002  3.542363e+001
    endloop
  endfacet
  facet normal  5.908411e-001 -3.443979e-001 -7.295869e-001
    outer loop
      vertex -1.217810e+003 -2.404429e+002  3.479431e+001
      vertex -1.217033e+003 -2.404429e+002  3.542363e+001
      vertex -1.217870e+003 -2.407015e+002  3.486802e+001
    endloop
  endfacet
  facet normal  5.908411e-001 -3.443979e-001 -7.295869e-001
    outer loop
      vertex -1.217870e+003 -2.407015e+002  3.486802e+001
      vertex -1.217033e+003 -2.404429e+002  3.542363e+001
      vertex -1.217093e+003 -2.407015e+002  3.549734e+001
    endloop
  endfacet
  facet normal  3.864064e-001 -7.893177e-001 -4.771454e-001
    outer loop
      vertex -1.217870e+003 -2.407015e+002  3.486802e+001
      vertex -1.217093e+003 -2.407015e+002  3.549734e+001
      vertex -1.218007e+003 -2.408706e+002  3.503696e+001
    endloop
  endfacet
  facet normal  3.864548e-001 -7.892125e-001 -4.772801e-001
    outer loop
      vertex -1.218007e+003 -2.408706e+002  3.503696e+001
      vertex -1.217093e+003 -2.407015e+002  3.549734e+001
      vertex -1.217229e+003 -2.408706e+002  3.566628e+001
    endloop
  endfacet
  facet normal  2.346872e-001 -9.278679e-001 -2.897983e-001
    outer loop
      vertex -1.346089e+003 -3.226669e+002  1.932054e+002
      vertex -1.218007e+003 -2.408706e+002  3.503696e+001
      vertex -1.345312e+003 -3.226669e+002  1.938347e+002
    endloop
  endfacet
  facet normal  2.346649e-001 -9.278679e-001 -2.898163e-001
    outer loop
      vertex -1.345312e+003 -3.226669e+002  1.938347e+002
      vertex -1.218007e+003 -2.408706e+002  3.503696e+001
      vertex -1.217229e+003 -2.408706e+002  3.566628e+001
    endloop
  endfacet
  facet normal  5.531056e-002 -9.961305e-001 -6.829901e-002
    outer loop
      vertex -1.346089e+003 -3.226669e+002  1.932054e+002
      vertex -1.345312e+003 -3.226669e+002  1.938347e+002
      vertex -1.346271e+003 -3.226924e+002  1.934298e+002
    endloop
  endfacet
  facet normal  5.531056e-002 -9.961305e-001 -6.829901e-002
    outer loop
      vertex -1.346271e+003 -3.226924e+002  1.934298e+002
      vertex -1.345312e+003 -3.226669e+002  1.938347e+002
      vertex -1.345493e+003 -3.226924e+002  1.940591e+002
    endloop
  endfacet
  facet normal -3.018992e-001 -8.774292e-001  3.727934e-001
    outer loop
      vertex -1.346271e+003 -3.226924e+002  1.934298e+002
      vertex -1.345493e+003 -3.226924e+002  1.940591e+002
      vertex -1.346431e+003 -3.225533e+002  1.936275e+002
    endloop
  endfacet
  facet normal -3.019342e-001 -8.773776e-001  3.728863e-001
    outer loop
      vertex -1.346431e+003 -3.225533e+002  1.936275e+002
      vertex -1.345493e+003 -3.226924e+002  1.940591e+002
      vertex -1.345653e+003 -3.225533e+002  1.942568e+002
    endloop
  endfacet
  facet normal -5.575656e-001 -4.636441e-001  6.885890e-001
    outer loop
      vertex -1.346431e+003 -3.225533e+002  1.936275e+002
      vertex -1.345653e+003 -3.225533e+002  1.942568e+002
      vertex -1.346515e+003 -3.222964e+002  1.937320e+002
    endloop
  endfacet
  facet normal -5.575681e-001 -4.636120e-001  6.886086e-001
    outer loop
      vertex -1.346515e+003 -3.222964e+002  1.937320e+002
      vertex -1.345653e+003 -3.225533e+002  1.942568e+002
      vertex -1.345738e+003 -3.222964e+002  1.943613e+002
    endloop
  endfacet
  facet normal -4.608594e-001 -6.809952e-001  5.690819e-001
    outer loop
      vertex -1.349884e+003 -3.100603e+002  1.978922e+002
      vertex -1.351987e+003 -3.051392e+002  2.020781e+002
      vertex -1.352764e+003 -3.051392e+002  2.014488e+002
    endloop
  endfacet
  facet normal -4.608120e-001 -6.810013e-001  5.691128e-001
    outer loop
      vertex -1.351987e+003 -3.051392e+002  2.020781e+002
      vertex -1.349884e+003 -3.100603e+002  1.978922e+002
      vertex -1.349107e+003 -3.100603e+002  1.985215e+002
    endloop
  endfacet
  facet normal -5.446457e-001 -5.009031e-001  6.726493e-001
    outer loop
      vertex -1.349107e+003 -3.100603e+002  1.985215e+002
      vertex -1.349884e+003 -3.100603e+002  1.978922e+002
      vertex -1.347766e+003 -3.158766e+002  1.952762e+002
    endloop
  endfacet
  facet normal -5.446457e-001 -5.009031e-001  6.726493e-001
    outer loop
      vertex -1.349107e+003 -3.100603e+002  1.985215e+002
      vertex -1.347766e+003 -3.158766e+002  1.952762e+002
      vertex -1.346989e+003 -3.158766e+002  1.959055e+002
    endloop
  endfacet
  facet normal -6.011451e-001 -2.956794e-001  7.424273e-001
    outer loop
      vertex -1.346989e+003 -3.158766e+002  1.959055e+002
      vertex -1.347766e+003 -3.158766e+002  1.952762e+002
      vertex -1.346515e+003 -3.222964e+002  1.937320e+002
    endloop
  endfacet
  facet normal -6.011451e-001 -2.956794e-001  7.424273e-001
    outer loop
      vertex -1.346989e+003 -3.158766e+002  1.959055e+002
      vertex -1.346515e+003 -3.222964e+002  1.937320e+002
      vertex -1.345738e+003 -3.222964e+002  1.943613e+002
    endloop
  endfacet
  facet normal -5.025551e-001 -6.019406e-001  6.205690e-001
    outer loop
      vertex -1.352764e+003 -3.051392e+002  2.014488e+002
      vertex -1.351987e+003 -3.051392e+002  2.020781e+002
      vertex -1.352845e+003 -3.049685e+002  2.015487e+002
    endloop
  endfacet
  facet normal -5.025551e-001 -6.019406e-001  6.205690e-001
    outer loop
      vertex -1.352845e+003 -3.049685e+002  2.015487e+002
      vertex -1.351987e+003 -3.051392e+002  2.020781e+002
      vertex -1.352068e+003 -3.049685e+002  2.021780e+002
    endloop
  endfacet
  facet normal -6.147730e-001 -2.139217e-001  7.591388e-001
    outer loop
      vertex -1.352845e+003 -3.049685e+002  2.015487e+002
      vertex -1.352068e+003 -3.049685e+002  2.021780e+002
      vertex -1.352874e+003 -3.047598e+002  2.015842e+002
    endloop
  endfacet
  facet normal -6.147619e-001 -2.135786e-001  7.592443e-001
    outer loop
      vertex -1.352874e+003 -3.047598e+002  2.015842e+002
      vertex -1.352068e+003 -3.049685e+002  2.021780e+002
      vertex -1.352097e+003 -3.047598e+002  2.022135e+002
    endloop
  endfacet
  facet normal -7.771493e-001  1.215285e-005 -6.293163e-001
    outer loop
      vertex -1.218801e+003 -2.359399e+002  3.601856e+001
      vertex -1.218007e+003 -2.408706e+002  3.503696e+001
      vertex -1.346089e+003 -3.226669e+002  1.932054e+002
    endloop
  endfacet
  facet normal -7.765707e-001  0.000000e+000 -6.300301e-001
    outer loop
      vertex -1.154009e+003  2.815034e-014 -4.399392e+001
      vertex -1.154064e+003  1.822642e+002 -4.392530e+001
      vertex -1.154009e+003  1.819805e+002 -4.399392e+001
    endloop
  endfacet
  facet normal -7.771459e-001  -0.000000e+000 -6.293204e-001
    outer loop
      vertex -1.352874e+003 -3.047598e+002  2.015842e+002
      vertex -1.352874e+003  3.223924e-012  2.015842e+002
      vertex -1.211168e+003 -1.780563e+002  2.659214e+001
    endloop
  endfacet
  facet normal -7.771459e-001 -6.551726e-008 -6.293204e-001
    outer loop
      vertex -1.352874e+003 -3.047598e+002  2.015842e+002
      vertex -1.211168e+003 -1.780563e+002  2.659214e+001
      vertex -1.218361e+003 -2.270613e+002  3.547520e+001
    endloop
  endfacet
  facet normal -7.771447e-001 -5.442645e-006 -6.293220e-001
    outer loop
      vertex -1.352874e+003 -3.047598e+002  2.015842e+002
      vertex -1.218361e+003 -2.270613e+002  3.547520e+001
      vertex -1.218978e+003 -2.314510e+002  3.623664e+001
    endloop
  endfacet
  facet normal -7.770949e-001 -2.346165e-004 -6.293833e-001
    outer loop
      vertex -1.352874e+003 -3.047598e+002  2.015842e+002
      vertex -1.218978e+003 -2.314510e+002  3.623664e+001
      vertex -1.352845e+003 -3.049685e+002  2.015487e+002
    endloop
  endfacet
  facet normal -7.771444e-001 -6.083648e-006 -6.293224e-001
    outer loop
      vertex -1.218978e+003 -2.314510e+002  3.623664e+001
      vertex -1.218801e+003 -2.359399e+002  3.601856e+001
      vertex -1.346089e+003 -3.226669e+002  1.932054e+002
    endloop
  endfacet
  facet normal -7.771434e-001 -9.030943e-006 -6.293234e-001
    outer loop
      vertex -1.218978e+003 -2.314510e+002  3.623664e+001
      vertex -1.346089e+003 -3.226669e+002  1.932054e+002
      vertex -1.346271e+003 -3.226924e+002  1.934298e+002
    endloop
  endfacet
  facet normal -7.770872e-001 -2.074259e-004 -6.293930e-001
    outer loop
      vertex -1.218978e+003 -2.314510e+002  3.623664e+001
      vertex -1.346271e+003 -3.226924e+002  1.934298e+002
      vertex -1.346431e+003 -3.225533e+002  1.936275e+002
    endloop
  endfacet
  facet normal -7.771521e-001  2.215164e-005 -6.293128e-001
    outer loop
      vertex -1.218978e+003 -2.314510e+002  3.623664e+001
      vertex -1.346431e+003 -3.225533e+002  1.936275e+002
      vertex -1.346515e+003 -3.222964e+002  1.937320e+002
    endloop
  endfacet
  facet normal -7.771454e-001 -1.668404e-006 -6.293211e-001
    outer loop
      vertex -1.218978e+003 -2.314510e+002  3.623664e+001
      vertex -1.346515e+003 -3.222964e+002  1.937320e+002
      vertex -1.347766e+003 -3.158766e+002  1.952762e+002
    endloop
  endfacet
  facet normal -7.771458e-001 -2.459078e-007 -6.293206e-001
    outer loop
      vertex -1.218978e+003 -2.314510e+002  3.623664e+001
      vertex -1.347766e+003 -3.158766e+002  1.952762e+002
      vertex -1.349884e+003 -3.100603e+002  1.978922e+002
    endloop
  endfacet
  facet normal -7.771471e-001  5.275025e-006 -6.293190e-001
    outer loop
      vertex -1.218978e+003 -2.314510e+002  3.623664e+001
      vertex -1.349884e+003 -3.100603e+002  1.978922e+002
      vertex -1.352764e+003 -3.051392e+002  2.014488e+002
    endloop
  endfacet
  facet normal -7.771567e-001  4.933220e-005 -6.293071e-001
    outer loop
      vertex -1.218978e+003 -2.314510e+002  3.623664e+001
      vertex -1.352764e+003 -3.051392e+002  2.014488e+002
      vertex -1.352845e+003 -3.049685e+002  2.015487e+002
    endloop
  endfacet
  facet normal -7.771468e-001 -3.984957e-007 -6.293194e-001
    outer loop
      vertex -1.211168e+003 -1.780563e+002  2.659214e+001
      vertex -1.212525e+003 -2.177557e+002  2.826814e+001
      vertex -1.215002e+003 -2.199320e+002  3.132705e+001
    endloop
  endfacet
  facet normal -7.771400e-001 -1.970020e-006 -6.293278e-001
    outer loop
      vertex -1.211168e+003 -1.780563e+002  2.659214e+001
      vertex -1.215002e+003 -2.199320e+002  3.132705e+001
      vertex -1.217000e+003 -2.231178e+002  3.379440e+001
    endloop
  endfacet
  facet normal -7.771468e-001  2.386050e-007 -6.293195e-001
    outer loop
      vertex -1.211168e+003 -1.780563e+002  2.659214e+001
      vertex -1.217000e+003 -2.231178e+002  3.379440e+001
      vertex -1.218361e+003 -2.270613e+002  3.547520e+001
    endloop
  endfacet
  facet normal -7.771214e-001 -3.097165e-004 -6.293507e-001
    outer loop
      vertex -1.154211e+003 -1.824478e+002 -4.374370e+001
      vertex -1.202358e+003 -1.920563e+002  1.571209e+001
      vertex -1.199635e+003 -1.913711e+002  1.234998e+001
    endloop
  endfacet
  facet normal -7.771442e-001 -1.671126e-005 -6.293226e-001
    outer loop
      vertex -1.154211e+003 -1.824478e+002 -4.374370e+001
      vertex -1.199635e+003 -1.913711e+002  1.234998e+001
      vertex -1.197179e+003 -1.893826e+002  9.316965e+000
    endloop
  endfacet
  facet normal -7.771463e-001  1.542840e-005 -6.293200e-001
    outer loop
      vertex -1.154211e+003 -1.824478e+002 -4.374370e+001
      vertex -1.197179e+003 -1.893826e+002  9.316965e+000
      vertex -1.195230e+003 -1.862853e+002  6.909954e+000
    endloop
  endfacet
  facet normal -7.771459e-001  5.435254e-006 -6.293204e-001
    outer loop
      vertex -1.154211e+003 -1.824478e+002 -4.374370e+001
      vertex -1.195230e+003 -1.862853e+002  6.909954e+000
      vertex -1.193978e+003 -1.823826e+002  5.364558e+000
    endloop
  endfacet
  facet normal -7.771459e-001 -1.144814e-005 -6.293204e-001
    outer loop
      vertex -1.154211e+003 -1.824478e+002 -4.374370e+001
      vertex -1.193978e+003 -1.823826e+002  5.364558e+000
      vertex -1.193547e+003 -1.780563e+002  4.832050e+000
    endloop
  endfacet
  facet normal -7.771170e-001 -2.974370e-006 -6.293563e-001
    outer loop
      vertex -1.212525e+003 -2.177557e+002  2.826814e+001
      vertex -1.211168e+003 -1.780563e+002  2.659214e+001
      vertex -1.210737e+003 -1.823826e+002  2.605963e+001
    endloop
  endfacet
  facet normal -7.771391e-001 -1.458519e-007 -6.293289e-001
    outer loop
      vertex -1.212525e+003 -2.177557e+002  2.826814e+001
      vertex -1.210737e+003 -1.823826e+002  2.605963e+001
      vertex -1.209485e+003 -1.862853e+002  2.451423e+001
    endloop
  endfacet
  facet normal -7.771537e-001  3.413746e-006 -6.293109e-001
    outer loop
      vertex -1.212525e+003 -2.177557e+002  2.826814e+001
      vertex -1.209485e+003 -1.862853e+002  2.451423e+001
      vertex -1.207536e+003 -1.893826e+002  2.210722e+001
    endloop
  endfacet
  facet normal -7.771491e-001  1.393791e-006 -6.293165e-001
    outer loop
      vertex -1.212525e+003 -2.177557e+002  2.826814e+001
      vertex -1.207536e+003 -1.893826e+002  2.210722e+001
      vertex -1.205080e+003 -1.913711e+002  1.907421e+001
    endloop
  endfacet
  facet normal -7.771391e-001 -5.777950e-006 -6.293289e-001
    outer loop
      vertex -1.212525e+003 -2.177557e+002  2.826814e+001
      vertex -1.205080e+003 -1.913711e+002  1.907421e+001
      vertex -1.202358e+003 -1.920563e+002  1.571209e+001
    endloop
  endfacet
  facet normal -7.771459e-001  1.137048e-006 -6.293203e-001
    outer loop
      vertex -1.212525e+003 -2.177557e+002  2.826814e+001
      vertex -1.202358e+003 -1.920563e+002  1.571209e+001
      vertex -1.154211e+003 -1.824478e+002 -4.374370e+001
    endloop
  endfacet
  facet normal -7.771459e-001  0.000000e+000 -6.293204e-001
    outer loop
      vertex -1.211168e+003 -1.780563e+002  2.659214e+001
      vertex -1.352874e+003  3.223924e-012  2.015842e+002
      vertex -1.352874e+003  3.047598e+002  2.015842e+002
    endloop
  endfacet
  facet normal -7.769141e-001  1.717186e-004 -6.296065e-001
    outer loop
      vertex -1.211168e+003 -1.780563e+002  2.659214e+001
      vertex -1.352874e+003  3.047598e+002  2.015842e+002
      vertex -1.352845e+003  3.049685e+002  2.015487e+002
    endloop
  endfacet
  facet normal -7.771781e-001 -2.372108e-005 -6.292807e-001
    outer loop
      vertex -1.211168e+003 -1.780563e+002  2.659214e+001
      vertex -1.352845e+003  3.049685e+002  2.015487e+002
      vertex -1.352764e+003  3.051392e+002  2.014488e+002
    endloop
  endfacet
  facet normal -7.771491e-001 -2.285936e-006 -6.293164e-001
    outer loop
      vertex -1.211168e+003 -1.780563e+002  2.659214e+001
      vertex -1.352764e+003  3.051392e+002  2.014488e+002
      vertex -1.349884e+003  3.100603e+002  1.978922e+002
    endloop
  endfacet
  facet normal -7.771457e-001  1.682779e-007 -6.293207e-001
    outer loop
      vertex -1.211168e+003 -1.780563e+002  2.659214e+001
      vertex -1.349884e+003  3.100603e+002  1.978922e+002
      vertex -1.347766e+003  3.158766e+002  1.952762e+002
    endloop
  endfacet
  facet normal -7.771444e-001  1.130672e-006 -6.293225e-001
    outer loop
      vertex -1.211168e+003 -1.780563e+002  2.659214e+001
      vertex -1.347766e+003  3.158766e+002  1.952762e+002
      vertex -1.346515e+003  3.222964e+002  1.937320e+002
    endloop
  endfacet
  facet normal -7.771640e-001 -1.229891e-005 -6.292982e-001
    outer loop
      vertex -1.211168e+003 -1.780563e+002  2.659214e+001
      vertex -1.346515e+003  3.222964e+002  1.937320e+002
      vertex -1.346431e+003  3.225533e+002  1.936275e+002
    endloop
  endfacet
  facet normal -7.770405e-001  7.192946e-005 -6.294506e-001
    outer loop
      vertex -1.211168e+003 -1.780563e+002  2.659214e+001
      vertex -1.346431e+003  3.225533e+002  1.936275e+002
      vertex -1.346271e+003  3.226924e+002  1.934298e+002
    endloop
  endfacet
  facet normal -7.771439e-001  1.519167e-006 -6.293229e-001
    outer loop
      vertex -1.211168e+003 -1.780563e+002  2.659214e+001
      vertex -1.346271e+003  3.226924e+002  1.934298e+002
      vertex -1.346089e+003  3.226669e+002  1.932054e+002
    endloop
  endfacet
  facet normal -7.771460e-001  7.028709e-008 -6.293203e-001
    outer loop
      vertex -1.211168e+003 -1.780563e+002  2.659214e+001
      vertex -1.346089e+003  3.226669e+002  1.932054e+002
      vertex -1.218978e+003  2.314510e+002  3.623664e+001
    endloop
  endfacet
  facet normal -7.771620e-001 -7.144494e-007 -6.293005e-001
    outer loop
      vertex -1.211168e+003 -1.780563e+002  2.659214e+001
      vertex -1.218978e+003  2.314510e+002  3.623664e+001
      vertex -1.218361e+003  2.270613e+002  3.547520e+001
    endloop
  endfacet
  facet normal -7.771465e-001 -1.748723e-008 -6.293198e-001
    outer loop
      vertex -1.211168e+003 -1.780563e+002  2.659214e+001
      vertex -1.218361e+003  2.270613e+002  3.547520e+001
      vertex -1.217000e+003  2.231178e+002  3.379440e+001
    endloop
  endfacet
  facet normal -7.771411e-001  1.797821e-007 -6.293264e-001
    outer loop
      vertex -1.211168e+003 -1.780563e+002  2.659214e+001
      vertex -1.217000e+003  2.231178e+002  3.379440e+001
      vertex -1.215002e+003  2.199320e+002  3.132705e+001
    endloop
  endfacet
  facet normal -7.771469e-001  3.888520e-008 -6.293193e-001
    outer loop
      vertex -1.211168e+003 -1.780563e+002  2.659214e+001
      vertex -1.215002e+003  2.199320e+002  3.132705e+001
      vertex -1.212525e+003  2.177557e+002  2.826814e+001
    endloop
  endfacet
  facet normal -7.771066e-001  3.873165e-007 -6.293690e-001
    outer loop
      vertex -1.211168e+003 -1.780563e+002  2.659214e+001
      vertex -1.212525e+003  2.177557e+002  2.826814e+001
      vertex -1.210737e+003 -1.737301e+002  2.605963e+001
    endloop
  endfacet
  facet normal -7.771673e-001  6.050772e-006 -6.292940e-001
    outer loop
      vertex -1.154211e+003  1.824478e+002 -4.374370e+001
      vertex -1.193547e+003 -1.780563e+002  4.832050e+000
      vertex -1.193978e+003 -1.737301e+002  5.364558e+000
    endloop
  endfacet
  facet normal -7.771409e-001 -1.406345e-006 -6.293266e-001
    outer loop
      vertex -1.154211e+003  1.824478e+002 -4.374370e+001
      vertex -1.193978e+003 -1.737301e+002  5.364558e+000
      vertex -1.195230e+003 -1.698273e+002  6.909954e+000
    endloop
  endfacet
  facet normal -7.771379e-001 -2.269930e-006 -6.293302e-001
    outer loop
      vertex -1.154211e+003  1.824478e+002 -4.374370e+001
      vertex -1.195230e+003 -1.698273e+002  6.909954e+000
      vertex -1.197179e+003 -1.667301e+002  9.316965e+000
    endloop
  endfacet
  facet normal -7.771492e-001  1.215406e-006 -6.293164e-001
    outer loop
      vertex -1.154211e+003  1.824478e+002 -4.374370e+001
      vertex -1.197179e+003 -1.667301e+002  9.316965e+000
      vertex -1.199635e+003 -1.647415e+002  1.234998e+001
    endloop
  endfacet
  facet normal -7.771521e-001  2.165038e-006 -6.293129e-001
    outer loop
      vertex -1.154211e+003  1.824478e+002 -4.374370e+001
      vertex -1.199635e+003 -1.647415e+002  1.234998e+001
      vertex -1.202358e+003 -1.640563e+002  1.571209e+001
    endloop
  endfacet
  facet normal -7.771382e-001 -2.693254e-006 -6.293299e-001
    outer loop
      vertex -1.154211e+003  1.824478e+002 -4.374370e+001
      vertex -1.202358e+003 -1.640563e+002  1.571209e+001
      vertex -1.205080e+003 -1.647415e+002  1.907421e+001
    endloop
  endfacet
  facet normal -7.771501e-001  1.713272e-006 -6.293152e-001
    outer loop
      vertex -1.154211e+003  1.824478e+002 -4.374370e+001
      vertex -1.205080e+003 -1.647415e+002  1.907421e+001
      vertex -1.207536e+003 -1.667301e+002  2.210722e+001
    endloop
  endfacet
  facet normal -7.771590e-001  5.160816e-006 -6.293042e-001
    outer loop
      vertex -1.154211e+003  1.824478e+002 -4.374370e+001
      vertex -1.207536e+003 -1.667301e+002  2.210722e+001
      vertex -1.209485e+003 -1.698273e+002  2.451423e+001
    endloop
  endfacet
  facet normal -7.771320e-001 -5.549481e-006 -6.293376e-001
    outer loop
      vertex -1.154211e+003  1.824478e+002 -4.374370e+001
      vertex -1.209485e+003 -1.698273e+002  2.451423e+001
      vertex -1.210737e+003 -1.737301e+002  2.605963e+001
    endloop
  endfacet
  facet normal -7.771458e-001 -6.359696e-008 -6.293207e-001
    outer loop
      vertex -1.154211e+003  1.824478e+002 -4.374370e+001
      vertex -1.210737e+003 -1.737301e+002  2.605963e+001
      vertex -1.212525e+003  2.177557e+002  2.826814e+001
    endloop
  endfacet
  facet normal -7.775791e-001  4.989741e-004 -6.287849e-001
    outer loop
      vertex -1.154064e+003 -1.822642e+002 -4.392530e+001
      vertex -1.154211e+003 -1.824478e+002 -4.374370e+001
      vertex -1.154009e+003 -1.819805e+002 -4.399392e+001
    endloop
  endfacet
  facet normal -7.771444e-001  2.262598e-005 -6.293223e-001
    outer loop
      vertex -1.154009e+003 -1.819805e+002 -4.399392e+001
      vertex -1.154211e+003 -1.824478e+002 -4.374370e+001
      vertex -1.193547e+003 -1.780563e+002  4.832050e+000
    endloop
  endfacet
  facet normal -7.771453e-001  0.000000e+000 -6.293212e-001
    outer loop
      vertex -1.154009e+003 -1.819805e+002 -4.399392e+001
      vertex -1.193547e+003 -1.780563e+002  4.832050e+000
      vertex -1.154009e+003  2.815034e-014 -4.399392e+001
    endloop
  endfacet
  facet normal -7.771451e-001 -6.013721e-008 -6.293213e-001
    outer loop
      vertex -1.154009e+003  2.815034e-014 -4.399392e+001
      vertex -1.193547e+003 -1.780563e+002  4.832050e+000
      vertex -1.154211e+003  1.824478e+002 -4.374370e+001
    endloop
  endfacet
  facet normal -7.773330e-001 -5.868994e-007 -6.290894e-001
    outer loop
      vertex -1.154009e+003  2.815034e-014 -4.399392e+001
      vertex -1.154211e+003  1.824478e+002 -4.374370e+001
      vertex -1.154064e+003  1.822642e+002 -4.392530e+001
    endloop
  endfacet
  facet normal -7.771648e-001  1.721620e-005 -6.292971e-001
    outer loop
      vertex -1.217810e+003 -2.404429e+002  3.479431e+001
      vertex -1.217870e+003 -2.407015e+002  3.486802e+001
      vertex -1.217846e+003 -2.401733e+002  3.483819e+001
    endloop
  endfacet
  facet normal -7.770637e-001  5.532389e-006 -6.294219e-001
    outer loop
      vertex -1.217846e+003 -2.401733e+002  3.483819e+001
      vertex -1.217870e+003 -2.407015e+002  3.486802e+001
      vertex -1.218007e+003 -2.408706e+002  3.503696e+001
    endloop
  endfacet
  facet normal -7.771056e-001  2.994108e-005 -6.293703e-001
    outer loop
      vertex -1.217846e+003 -2.401733e+002  3.483819e+001
      vertex -1.218007e+003 -2.408706e+002  3.503696e+001
      vertex -1.218801e+003 -2.359399e+002  3.601856e+001
    endloop
  endfacet
  facet normal -7.771448e-001  4.521136e-006 -6.293219e-001
    outer loop
      vertex -1.218978e+003  2.314510e+002  3.623664e+001
      vertex -1.346089e+003  3.226669e+002  1.932054e+002
      vertex -1.218801e+003  2.359399e+002  3.601856e+001
    endloop
  endfacet
  facet normal -7.771493e-001 -1.215011e-005 -6.293163e-001
    outer loop
      vertex -1.218801e+003  2.359399e+002  3.601856e+001
      vertex -1.346089e+003  3.226669e+002  1.932054e+002
      vertex -1.218007e+003  2.408706e+002  3.503696e+001
    endloop
  endfacet
  facet normal -7.771056e-001 -2.994108e-005 -6.293703e-001
    outer loop
      vertex -1.218801e+003  2.359399e+002  3.601856e+001
      vertex -1.218007e+003  2.408706e+002  3.503696e+001
      vertex -1.217846e+003  2.401733e+002  3.483819e+001
    endloop
  endfacet
  facet normal -7.770637e-001 -5.532389e-006 -6.294219e-001
    outer loop
      vertex -1.217846e+003  2.401733e+002  3.483819e+001
      vertex -1.218007e+003  2.408706e+002  3.503696e+001
      vertex -1.217870e+003  2.407015e+002  3.486802e+001
    endloop
  endfacet
  facet normal -7.771648e-001 -1.721620e-005 -6.292971e-001
    outer loop
      vertex -1.217846e+003  2.401733e+002  3.483819e+001
      vertex -1.217870e+003  2.407015e+002  3.486802e+001
      vertex -1.217810e+003  2.404429e+002  3.479431e+001
    endloop
  endfacet
  facet normal  5.607477e-001 -4.539934e-001 -6.924247e-001
    outer loop
      vertex -1.209485e+003 -1.698273e+002  2.451423e+001
      vertex -1.209960e+003 -1.737301e+002  2.668895e+001
      vertex -1.210737e+003 -1.737301e+002  2.605963e+001
    endloop
  endfacet
  facet normal  6.215955e-001 -1.564260e-001 -7.675611e-001
    outer loop
      vertex -1.210737e+003 -1.737301e+002  2.605963e+001
      vertex -1.209960e+003 -1.737301e+002  2.668895e+001
      vertex -1.210391e+003 -1.780563e+002  2.722146e+001
    endloop
  endfacet
  facet normal  6.215348e-001 -1.564431e-001 -7.676067e-001
    outer loop
      vertex -1.210737e+003 -1.737301e+002  2.605963e+001
      vertex -1.210391e+003 -1.780563e+002  2.722146e+001
      vertex -1.211168e+003 -1.780563e+002  2.659214e+001
    endloop
  endfacet
  facet normal  5.607477e-001 -4.539934e-001 -6.924247e-001
    outer loop
      vertex -1.209960e+003 -1.737301e+002  2.668895e+001
      vertex -1.209485e+003 -1.698273e+002  2.451423e+001
      vertex -1.208708e+003 -1.698273e+002  2.514355e+001
    endloop
  endfacet
  facet normal  4.450155e-001 -7.071023e-001 -5.495157e-001
    outer loop
      vertex -1.208708e+003 -1.698273e+002  2.514355e+001
      vertex -1.209485e+003 -1.698273e+002  2.451423e+001
      vertex -1.207536e+003 -1.667301e+002  2.210722e+001
    endloop
  endfacet
  facet normal  4.450155e-001 -7.071023e-001 -5.495157e-001
    outer loop
      vertex -1.208708e+003 -1.698273e+002  2.514355e+001
      vertex -1.207536e+003 -1.667301e+002  2.210722e+001
      vertex -1.206759e+003 -1.667301e+002  2.273654e+001
    endloop
  endfacet
  facet normal  2.857170e-001 -8.910054e-001 -3.528103e-001
    outer loop
      vertex -1.206759e+003 -1.667301e+002  2.273654e+001
      vertex -1.207536e+003 -1.667301e+002  2.210722e+001
      vertex -1.205080e+003 -1.647415e+002  1.907421e+001
    endloop
  endfacet
  facet normal  2.856855e-001 -8.910090e-001 -3.528267e-001
    outer loop
      vertex -1.206759e+003 -1.667301e+002  2.273654e+001
      vertex -1.205080e+003 -1.647415e+002  1.907421e+001
      vertex -1.204303e+003 -1.647415e+002  1.970353e+001
    endloop
  endfacet
  facet normal  9.844098e-002 -9.876884e-001 -1.215764e-001
    outer loop
      vertex -1.204303e+003 -1.647415e+002  1.970353e+001
      vertex -1.205080e+003 -1.647415e+002  1.907421e+001
      vertex -1.202358e+003 -1.640563e+002  1.571209e+001
    endloop
  endfacet
  facet normal  9.845192e-002 -9.876881e-001 -1.215710e-001
    outer loop
      vertex -1.204303e+003 -1.647415e+002  1.970353e+001
      vertex -1.202358e+003 -1.640563e+002  1.571209e+001
      vertex -1.201580e+003 -1.640563e+002  1.634141e+001
    endloop
  endfacet
  facet normal  2.856899e-001  8.910054e-001 -3.528322e-001
    outer loop
      vertex -1.207536e+003 -1.893826e+002  2.210722e+001
      vertex -1.204303e+003 -1.913711e+002  1.970353e+001
      vertex -1.205080e+003 -1.913711e+002  1.907421e+001
    endloop
  endfacet
  facet normal  9.844267e-002  9.876880e-001 -1.215785e-001
    outer loop
      vertex -1.205080e+003 -1.913711e+002  1.907421e+001
      vertex -1.204303e+003 -1.913711e+002  1.970353e+001
      vertex -1.201580e+003 -1.920563e+002  1.634141e+001
    endloop
  endfacet
  facet normal  9.845024e-002  9.876885e-001 -1.215689e-001
    outer loop
      vertex -1.205080e+003 -1.913711e+002  1.907421e+001
      vertex -1.201580e+003 -1.920563e+002  1.634141e+001
      vertex -1.202358e+003 -1.920563e+002  1.571209e+001
    endloop
  endfacet
  facet normal  2.857126e-001  8.910090e-001 -3.528048e-001
    outer loop
      vertex -1.204303e+003 -1.913711e+002  1.970353e+001
      vertex -1.207536e+003 -1.893826e+002  2.210722e+001
      vertex -1.206759e+003 -1.893826e+002  2.273654e+001
    endloop
  endfacet
  facet normal  4.450155e-001  7.071023e-001 -5.495157e-001
    outer loop
      vertex -1.206759e+003 -1.893826e+002  2.273654e+001
      vertex -1.207536e+003 -1.893826e+002  2.210722e+001
      vertex -1.209485e+003 -1.862853e+002  2.451423e+001
    endloop
  endfacet
  facet normal  4.450155e-001  7.071023e-001 -5.495157e-001
    outer loop
      vertex -1.206759e+003 -1.893826e+002  2.273654e+001
      vertex -1.209485e+003 -1.862853e+002  2.451423e+001
      vertex -1.208708e+003 -1.862853e+002  2.514355e+001
    endloop
  endfacet
  facet normal  5.607477e-001  4.539934e-001 -6.924247e-001
    outer loop
      vertex -1.208708e+003 -1.862853e+002  2.514355e+001
      vertex -1.209485e+003 -1.862853e+002  2.451423e+001
      vertex -1.210737e+003 -1.823826e+002  2.605963e+001
    endloop
  endfacet
  facet normal  5.607477e-001  4.539934e-001 -6.924247e-001
    outer loop
      vertex -1.208708e+003 -1.862853e+002  2.514355e+001
      vertex -1.210737e+003 -1.823826e+002  2.605963e+001
      vertex -1.209960e+003 -1.823826e+002  2.668895e+001
    endloop
  endfacet
  facet normal  6.215938e-001  1.564431e-001 -7.675590e-001
    outer loop
      vertex -1.209960e+003 -1.823826e+002  2.668895e+001
      vertex -1.210737e+003 -1.823826e+002  2.605963e+001
      vertex -1.211168e+003 -1.780563e+002  2.659214e+001
    endloop
  endfacet
  facet normal  6.215365e-001  1.564260e-001 -7.676088e-001
    outer loop
      vertex -1.209960e+003 -1.823826e+002  2.668895e+001
      vertex -1.211168e+003 -1.780563e+002  2.659214e+001
      vertex -1.210391e+003 -1.780563e+002  2.722146e+001
    endloop
  endfacet
  facet normal -5.607477e-001  4.539937e-001  6.924247e-001
    outer loop
      vertex -1.195230e+003 -1.862853e+002  6.909954e+000
      vertex -1.193201e+003 -1.823826e+002  5.993878e+000
      vertex -1.193978e+003 -1.823826e+002  5.364558e+000
    endloop
  endfacet
  facet normal -6.215938e-001  1.564428e-001  7.675590e-001
    outer loop
      vertex -1.193978e+003 -1.823826e+002  5.364558e+000
      vertex -1.193201e+003 -1.823826e+002  5.993878e+000
      vertex -1.192770e+003 -1.780563e+002  5.461371e+000
    endloop
  endfacet
  facet normal -6.215369e-001  1.564258e-001  7.676086e-001
    outer loop
      vertex -1.193978e+003 -1.823826e+002  5.364558e+000
      vertex -1.192770e+003 -1.780563e+002  5.461371e+000
      vertex -1.193547e+003 -1.780563e+002  4.832050e+000
    endloop
  endfacet
  facet normal -5.607477e-001  4.539937e-001  6.924247e-001
    outer loop
      vertex -1.193201e+003 -1.823826e+002  5.993878e+000
      vertex -1.195230e+003 -1.862853e+002  6.909954e+000
      vertex -1.194453e+003 -1.862853e+002  7.539274e+000
    endloop
  endfacet
  facet normal -4.450099e-001  7.071111e-001  5.495089e-001
    outer loop
      vertex -1.194453e+003 -1.862853e+002  7.539274e+000
      vertex -1.195230e+003 -1.862853e+002  6.909954e+000
      vertex -1.197179e+003 -1.893826e+002  9.316965e+000
    endloop
  endfacet
  facet normal -4.449732e-001  7.071024e-001  5.495499e-001
    outer loop
      vertex -1.194453e+003 -1.862853e+002  7.539274e+000
      vertex -1.197179e+003 -1.893826e+002  9.316965e+000
      vertex -1.196402e+003 -1.893826e+002  9.946285e+000
    endloop
  endfacet
  facet normal -2.856899e-001  8.910054e-001  3.528322e-001
    outer loop
      vertex -1.196402e+003 -1.893826e+002  9.946285e+000
      vertex -1.197179e+003 -1.893826e+002  9.316965e+000
      vertex -1.199635e+003 -1.913711e+002  1.234998e+001
    endloop
  endfacet
  facet normal -2.856899e-001  8.910054e-001  3.528322e-001
    outer loop
      vertex -1.196402e+003 -1.893826e+002  9.946285e+000
      vertex -1.199635e+003 -1.913711e+002  1.234998e+001
      vertex -1.198858e+003 -1.913711e+002  1.297930e+001
    endloop
  endfacet
  facet normal -9.844269e-002  9.876880e-001  1.215785e-001
    outer loop
      vertex -1.198858e+003 -1.913711e+002  1.297930e+001
      vertex -1.199635e+003 -1.913711e+002  1.234998e+001
      vertex -1.202358e+003 -1.920563e+002  1.571209e+001
    endloop
  endfacet
  facet normal -9.845024e-002  9.876885e-001  1.215689e-001
    outer loop
      vertex -1.198858e+003 -1.913711e+002  1.297930e+001
      vertex -1.202358e+003 -1.920563e+002  1.571209e+001
      vertex -1.201580e+003 -1.920563e+002  1.634141e+001
    endloop
  endfacet
  facet normal -2.856899e-001 -8.910054e-001  3.528322e-001
    outer loop
      vertex -1.197179e+003 -1.667301e+002  9.316965e+000
      vertex -1.198858e+003 -1.647415e+002  1.297930e+001
      vertex -1.199635e+003 -1.647415e+002  1.234998e+001
    endloop
  endfacet
  facet normal -9.844100e-002 -9.876885e-001  1.215764e-001
    outer loop
      vertex -1.199635e+003 -1.647415e+002  1.234998e+001
      vertex -1.198858e+003 -1.647415e+002  1.297930e+001
      vertex -1.201580e+003 -1.640563e+002  1.634141e+001
    endloop
  endfacet
  facet normal -9.845193e-002 -9.876881e-001  1.215710e-001
    outer loop
      vertex -1.199635e+003 -1.647415e+002  1.234998e+001
      vertex -1.201580e+003 -1.640563e+002  1.634141e+001
      vertex -1.202358e+003 -1.640563e+002  1.571209e+001
    endloop
  endfacet
  facet normal -2.856899e-001 -8.910054e-001  3.528322e-001
    outer loop
      vertex -1.198858e+003 -1.647415e+002  1.297930e+001
      vertex -1.197179e+003 -1.667301e+002  9.316965e+000
      vertex -1.196402e+003 -1.667301e+002  9.946285e+000
    endloop
  endfacet
  facet normal -4.449677e-001 -7.071111e-001  5.495431e-001
    outer loop
      vertex -1.196402e+003 -1.667301e+002  9.946285e+000
      vertex -1.197179e+003 -1.667301e+002  9.316965e+000
      vertex -1.195230e+003 -1.698273e+002  6.909954e+000
    endloop
  endfacet
  facet normal -4.450155e-001 -7.071023e-001  5.495157e-001
    outer loop
      vertex -1.196402e+003 -1.667301e+002  9.946285e+000
      vertex -1.195230e+003 -1.698273e+002  6.909954e+000
      vertex -1.194453e+003 -1.698273e+002  7.539274e+000
    endloop
  endfacet
  facet normal -5.607477e-001 -4.539937e-001  6.924247e-001
    outer loop
      vertex -1.194453e+003 -1.698273e+002  7.539274e+000
      vertex -1.195230e+003 -1.698273e+002  6.909954e+000
      vertex -1.193978e+003 -1.737301e+002  5.364558e+000
    endloop
  endfacet
  facet normal -5.607477e-001 -4.539937e-001  6.924247e-001
    outer loop
      vertex -1.194453e+003 -1.698273e+002  7.539274e+000
      vertex -1.193978e+003 -1.737301e+002  5.364558e+000
      vertex -1.193201e+003 -1.737301e+002  5.993878e+000
    endloop
  endfacet
  facet normal -6.215955e-001 -1.564258e-001  7.675611e-001
    outer loop
      vertex -1.193201e+003 -1.737301e+002  5.993878e+000
      vertex -1.193978e+003 -1.737301e+002  5.364558e+000
      vertex -1.193547e+003 -1.780563e+002  4.832050e+000
    endloop
  endfacet
  facet normal -6.215352e-001 -1.564428e-001  7.676065e-001
    outer loop
      vertex -1.193201e+003 -1.737301e+002  5.993878e+000
      vertex -1.193547e+003 -1.780563e+002  4.832050e+000
      vertex -1.192770e+003 -1.780563e+002  5.461371e+000
    endloop
  endfacet
endsolid CATIA STL
