solid CATIA STL
  facet normal  7.986355e-001  5.959513e-001 -8.380568e-002
    outer loop
      vertex -1.540733e+003 -1.597381e+002  5.197051e+002
      vertex -1.540733e+003 -1.223838e+002  7.853352e+002
      vertex -1.503159e+003 -1.717603e+002  7.922788e+002
    endloop
  endfacet
  facet normal  7.986645e-001  5.959117e-001 -8.381142e-002
    outer loop
      vertex -1.540733e+003 -1.597381e+002  5.197051e+002
      vertex -1.503159e+003 -1.717603e+002  7.922788e+002
      vertex -1.502966e+003 -1.720294e+002  7.921998e+002
    endloop
  endfacet
  facet normal  7.986534e-001  5.959270e-001 -8.380919e-002
    outer loop
      vertex -1.540733e+003 -1.597381e+002  5.197051e+002
      vertex -1.502966e+003 -1.720294e+002  7.921998e+002
      vertex -1.502863e+003 -1.722062e+002  7.919281e+002
    endloop
  endfacet
  facet normal  7.986358e-001  5.959508e-001 -8.380565e-002
    outer loop
      vertex -1.540733e+003 -1.597381e+002  5.197051e+002
      vertex -1.502863e+003 -1.722062e+002  7.919281e+002
      vertex -1.473839e+003 -2.467829e+002  5.381934e+002
    endloop
  endfacet
  facet normal  7.986265e-001  5.960016e-001 -8.353318e-002
    outer loop
      vertex -1.540733e+003 -1.597381e+002  5.197051e+002
      vertex -1.473839e+003 -2.467829e+002  5.381934e+002
      vertex -1.473856e+003 -2.467993e+002  5.379145e+002
    endloop
  endfacet
  facet normal  7.986397e-001  5.959274e-001 -8.393661e-002
    outer loop
      vertex -1.540733e+003 -1.597381e+002  5.197051e+002
      vertex -1.473856e+003 -2.467993e+002  5.379145e+002
      vertex -1.473960e+003 -2.466926e+002  5.376777e+002
    endloop
  endfacet
  facet normal  7.986538e-001  5.958440e-001 -8.439215e-002
    outer loop
      vertex -1.540733e+003 -1.597381e+002  5.197051e+002
      vertex -1.473960e+003 -2.466926e+002  5.376777e+002
      vertex -1.474120e+003 -2.464963e+002  5.375573e+002
    endloop
  endfacet
  facet normal  7.986337e-001  5.959633e-001 -8.373765e-002
    outer loop
      vertex -1.540733e+003 -1.597381e+002  5.197051e+002
      vertex -1.474120e+003 -2.464963e+002  5.375573e+002
      vertex -1.476987e+003 -2.428566e+002  5.361119e+002
    endloop
  endfacet
  facet normal  7.986352e-001  5.959537e-001 -8.379174e-002
    outer loop
      vertex -1.540733e+003 -1.597381e+002  5.197051e+002
      vertex -1.476987e+003 -2.428566e+002  5.361119e+002
      vertex -1.479587e+003 -2.397480e+002  5.334407e+002
    endloop
  endfacet
  facet normal  7.986354e-001  5.959515e-001 -8.380534e-002
    outer loop
      vertex -1.540733e+003 -1.597381e+002  5.197051e+002
      vertex -1.479587e+003 -2.397480e+002  5.334407e+002
      vertex -1.481715e+003 -2.374153e+002  5.297540e+002
    endloop
  endfacet
  facet normal  7.986353e-001  5.959499e-001 -8.381731e-002
    outer loop
      vertex -1.540733e+003 -1.597381e+002  5.197051e+002
      vertex -1.481715e+003 -2.374153e+002  5.297540e+002
      vertex -1.483202e+003 -2.360423e+002  5.253425e+002
    endloop
  endfacet
  facet normal  7.986355e-001  5.959506e-001 -8.381065e-002
    outer loop
      vertex -1.540733e+003 -1.597381e+002  5.197051e+002
      vertex -1.483202e+003 -2.360423e+002  5.253425e+002
      vertex -1.483932e+003 -2.357372e+002  5.205536e+002
    endloop
  endfacet
  facet normal  7.986370e-001  5.959520e-001 -8.378720e-002
    outer loop
      vertex -1.540733e+003 -1.597381e+002  5.197051e+002
      vertex -1.483932e+003 -2.357372e+002  5.205536e+002
      vertex -1.483880e+003 -2.364337e+002  5.160939e+002
    endloop
  endfacet
  facet normal  7.986339e-001  5.959513e-001 -8.382113e-002
    outer loop
      vertex -1.540733e+003 -1.597381e+002  5.197051e+002
      vertex -1.483880e+003 -2.364337e+002  5.160939e+002
      vertex -1.483128e+003 -2.380272e+002  5.119381e+002
    endloop
  endfacet
  facet normal  7.986368e-001  5.959510e-001 -8.379616e-002
    outer loop
      vertex -1.540733e+003 -1.597381e+002  5.197051e+002
      vertex -1.483128e+003 -2.380272e+002  5.119381e+002
      vertex -1.481725e+003 -2.404091e+002  5.083694e+002
    endloop
  endfacet
  facet normal  7.986353e-001  5.959513e-001 -8.380670e-002
    outer loop
      vertex -1.540733e+003 -1.597381e+002  5.197051e+002
      vertex -1.481725e+003 -2.404091e+002  5.083694e+002
      vertex -1.470121e+003 -2.584034e+002  4.909848e+002
    endloop
  endfacet
  facet normal  7.988162e-001  5.957544e-001 -8.348221e-002
    outer loop
      vertex -1.470121e+003 -2.584034e+002  4.909848e+002
      vertex -1.481725e+003 -2.404091e+002  5.083694e+002
      vertex -1.479767e+003 -2.434171e+002  5.056311e+002
    endloop
  endfacet
  facet normal  7.986333e-001  5.959541e-001 -8.380699e-002
    outer loop
      vertex -1.470121e+003 -2.584034e+002  4.909848e+002
      vertex -1.479767e+003 -2.434171e+002  5.056311e+002
      vertex -1.477389e+003 -2.468461e+002  5.039097e+002
    endloop
  endfacet
  facet normal  7.986252e-001  5.959630e-001 -8.381946e-002
    outer loop
      vertex -1.470121e+003 -2.584034e+002  4.909848e+002
      vertex -1.477389e+003 -2.468461e+002  5.039097e+002
      vertex -1.474752e+003 -2.504625e+002  5.033225e+002
    endloop
  endfacet
  facet normal  7.986450e-001  5.959398e-001 -8.379709e-002
    outer loop
      vertex -1.470121e+003 -2.584034e+002  4.909848e+002
      vertex -1.474752e+003 -2.504625e+002  5.033225e+002
      vertex -1.472542e+003 -2.533697e+002  5.037112e+002
    endloop
  endfacet
  facet normal  7.986313e-001  5.959568e-001 -8.380641e-002
    outer loop
      vertex -1.470121e+003 -2.584034e+002  4.909848e+002
      vertex -1.472542e+003 -2.533697e+002  5.037112e+002
      vertex -1.469719e+003 -2.573696e+002  5.021740e+002
    endloop
  endfacet
  facet normal  7.986344e-001  5.959528e-001 -8.380616e-002
    outer loop
      vertex -1.470121e+003 -2.584034e+002  4.909848e+002
      vertex -1.469719e+003 -2.573696e+002  5.021740e+002
      vertex -1.469719e+003 -2.588671e+002  4.915251e+002
    endloop
  endfacet
  facet normal  7.986570e-001  5.959156e-001 -8.385504e-002
    outer loop
      vertex -1.470121e+003 -2.584034e+002  4.909848e+002
      vertex -1.469719e+003 -2.588671e+002  4.915251e+002
      vertex -1.469778e+003 -2.588307e+002  4.912190e+002
    endloop
  endfacet
  facet normal  7.986473e-001  5.959356e-001 -8.380418e-002
    outer loop
      vertex -1.470121e+003 -2.584034e+002  4.909848e+002
      vertex -1.469778e+003 -2.588307e+002  4.912190e+002
      vertex -1.469932e+003 -2.586527e+002  4.910117e+002
    endloop
  endfacet
  facet normal  7.985085e-001  5.960298e-001 -8.445529e-002
    outer loop
      vertex -1.470211e+003 -2.563268e+002  5.048990e+002
      vertex -1.470066e+003 -2.565369e+002  5.047838e+002
      vertex -1.470379e+003 -2.561067e+002  5.048595e+002
    endloop
  endfacet
  facet normal  7.986241e-001  5.959812e-001 -8.370141e-002
    outer loop
      vertex -1.470379e+003 -2.561067e+002  5.048595e+002
      vertex -1.470066e+003 -2.565369e+002  5.047838e+002
      vertex -1.472542e+003 -2.533697e+002  5.037112e+002
    endloop
  endfacet
  facet normal  7.986397e-001  5.959370e-001 -8.386785e-002
    outer loop
      vertex -1.470066e+003 -2.565369e+002  5.047838e+002
      vertex -1.469990e+003 -2.566712e+002  5.045501e+002
      vertex -1.472542e+003 -2.533697e+002  5.037112e+002
    endloop
  endfacet
  facet normal  7.986355e-001  5.959535e-001 -8.379012e-002
    outer loop
      vertex -1.472542e+003 -2.533697e+002  5.037112e+002
      vertex -1.469990e+003 -2.566712e+002  5.045501e+002
      vertex -1.469719e+003 -2.573696e+002  5.021740e+002
    endloop
  endfacet
  facet normal  5.713971e-001 -7.945707e-001 -2.053353e-001
    outer loop
      vertex -1.469719e+003 -2.588671e+002  4.915251e+002
      vertex -1.470517e+003 -2.594630e+002  4.916089e+002
      vertex -1.469778e+003 -2.588307e+002  4.912190e+002
    endloop
  endfacet
  facet normal  5.714059e-001 -7.945694e-001 -2.053164e-001
    outer loop
      vertex -1.469778e+003 -2.588307e+002  4.912190e+002
      vertex -1.470517e+003 -2.594630e+002  4.916089e+002
      vertex -1.470577e+003 -2.594266e+002  4.913028e+002
    endloop
  endfacet
  facet normal  3.461717e-001 -5.687919e-001 -7.460837e-001
    outer loop
      vertex -1.469778e+003 -2.588307e+002  4.912190e+002
      vertex -1.470577e+003 -2.594266e+002  4.913028e+002
      vertex -1.469932e+003 -2.586527e+002  4.910117e+002
    endloop
  endfacet
  facet normal  3.461717e-001 -5.687919e-001 -7.460837e-001
    outer loop
      vertex -1.469932e+003 -2.586527e+002  4.910117e+002
      vertex -1.470577e+003 -2.594266e+002  4.913028e+002
      vertex -1.470731e+003 -2.592487e+002  4.910955e+002
    endloop
  endfacet
  facet normal -1.551151e-002 -1.188196e-001 -9.927948e-001
    outer loop
      vertex -1.469932e+003 -2.586527e+002  4.910117e+002
      vertex -1.470731e+003 -2.592487e+002  4.910955e+002
      vertex -1.470121e+003 -2.584034e+002  4.909848e+002
    endloop
  endfacet
  facet normal -1.551151e-002 -1.188196e-001 -9.927948e-001
    outer loop
      vertex -1.470121e+003 -2.584034e+002  4.909848e+002
      vertex -1.470731e+003 -2.592487e+002  4.910955e+002
      vertex -1.470920e+003 -2.589994e+002  4.910686e+002
    endloop
  endfacet
  facet normal  6.018395e-001 -7.908356e-001  1.112120e-001
    outer loop
      vertex -1.470517e+003 -2.594630e+002  4.916089e+002
      vertex -1.469719e+003 -2.588671e+002  4.915251e+002
      vertex -1.470517e+003 -2.579655e+002  5.022578e+002
    endloop
  endfacet
  facet normal  6.018369e-001 -7.908377e-001  1.112119e-001
    outer loop
      vertex -1.470517e+003 -2.579655e+002  5.022578e+002
      vertex -1.469719e+003 -2.588671e+002  4.915251e+002
      vertex -1.469719e+003 -2.573696e+002  5.021740e+002
    endloop
  endfacet
  facet normal  5.918651e-001 -7.524918e-001  2.888806e-001
    outer loop
      vertex -1.470789e+003 -2.572672e+002  5.046339e+002
      vertex -1.470517e+003 -2.579655e+002  5.022578e+002
      vertex -1.469990e+003 -2.566712e+002  5.045501e+002
    endloop
  endfacet
  facet normal  5.918651e-001 -7.524918e-001  2.888806e-001
    outer loop
      vertex -1.469990e+003 -2.566712e+002  5.045501e+002
      vertex -1.470517e+003 -2.579655e+002  5.022578e+002
      vertex -1.469719e+003 -2.573696e+002  5.021740e+002
    endloop
  endfacet
  facet normal -1.811635e-002  1.629911e-001  9.864612e-001
    outer loop
      vertex -1.470379e+003 -2.561067e+002  5.048595e+002
      vertex -1.471178e+003 -2.567026e+002  5.049433e+002
      vertex -1.470211e+003 -2.563268e+002  5.048990e+002
    endloop
  endfacet
  facet normal -1.811933e-002  1.629987e-001  9.864599e-001
    outer loop
      vertex -1.470211e+003 -2.563268e+002  5.048990e+002
      vertex -1.471178e+003 -2.567026e+002  5.049433e+002
      vertex -1.471010e+003 -2.569227e+002  5.049828e+002
    endloop
  endfacet
  facet normal  3.081249e-001 -2.853402e-001  9.075462e-001
    outer loop
      vertex -1.470211e+003 -2.563268e+002  5.048990e+002
      vertex -1.471010e+003 -2.569227e+002  5.049828e+002
      vertex -1.470066e+003 -2.565369e+002  5.047838e+002
    endloop
  endfacet
  facet normal  3.080854e-001 -2.852169e-001  9.075983e-001
    outer loop
      vertex -1.470066e+003 -2.565369e+002  5.047838e+002
      vertex -1.471010e+003 -2.569227e+002  5.049828e+002
      vertex -1.470865e+003 -2.571328e+002  5.048676e+002
    endloop
  endfacet
  facet normal  5.376543e-001 -6.439285e-001  5.443197e-001
    outer loop
      vertex -1.470066e+003 -2.565369e+002  5.047838e+002
      vertex -1.470865e+003 -2.571328e+002  5.048676e+002
      vertex -1.469990e+003 -2.566712e+002  5.045501e+002
    endloop
  endfacet
  facet normal  5.376543e-001 -6.439285e-001  5.443197e-001
    outer loop
      vertex -1.469990e+003 -2.566712e+002  5.045501e+002
      vertex -1.470865e+003 -2.571328e+002  5.048676e+002
      vertex -1.470789e+003 -2.572672e+002  5.046339e+002
    endloop
  endfacet
  facet normal -1.238910e-001  2.990641e-001  9.461563e-001
    outer loop
      vertex -1.470379e+003 -2.561067e+002  5.048595e+002
      vertex -1.472542e+003 -2.533697e+002  5.037112e+002
      vertex -1.471178e+003 -2.567026e+002  5.049433e+002
    endloop
  endfacet
  facet normal -1.238910e-001  2.990641e-001  9.461563e-001
    outer loop
      vertex -1.471178e+003 -2.567026e+002  5.049433e+002
      vertex -1.472542e+003 -2.533697e+002  5.037112e+002
      vertex -1.473341e+003 -2.539657e+002  5.037950e+002
    endloop
  endfacet
  facet normal  3.271949e-003  1.349471e-001  9.908474e-001
    outer loop
      vertex -1.472542e+003 -2.533697e+002  5.037112e+002
      vertex -1.474752e+003 -2.504625e+002  5.033225e+002
      vertex -1.473341e+003 -2.539657e+002  5.037950e+002
    endloop
  endfacet
  facet normal  3.271565e-003  1.349469e-001  9.908474e-001
    outer loop
      vertex -1.473341e+003 -2.539657e+002  5.037950e+002
      vertex -1.474752e+003 -2.504625e+002  5.033225e+002
      vertex -1.475551e+003 -2.510585e+002  5.034063e+002
    endloop
  endfacet
  facet normal  5.918651e-001  7.524918e-001  2.888806e-001
    outer loop
      vertex -1.470789e+003  2.572672e+002  5.046339e+002
      vertex -1.469990e+003  2.566712e+002  5.045501e+002
      vertex -1.470517e+003  2.579655e+002  5.022578e+002
    endloop
  endfacet
  facet normal  5.918651e-001  7.524918e-001  2.888806e-001
    outer loop
      vertex -1.470517e+003  2.579655e+002  5.022578e+002
      vertex -1.469990e+003  2.566712e+002  5.045501e+002
      vertex -1.469719e+003  2.573696e+002  5.021740e+002
    endloop
  endfacet
  facet normal  5.179740e-001  7.515277e-001 -4.085452e-001
    outer loop
      vertex -1.482513e+003  2.380112e+002  5.298378e+002
      vertex -1.483202e+003  2.360423e+002  5.253425e+002
      vertex -1.484001e+003  2.366382e+002  5.254263e+002
    endloop
  endfacet
  facet normal  5.827403e-001  8.005328e-001 -1.398602e-001
    outer loop
      vertex -1.484001e+003  2.366382e+002  5.254263e+002
      vertex -1.483202e+003  2.360423e+002  5.253425e+002
      vertex -1.483932e+003  2.357372e+002  5.205536e+002
    endloop
  endfacet
  facet normal  5.827302e-001  8.005400e-001 -1.398616e-001
    outer loop
      vertex -1.484001e+003  2.366382e+002  5.254263e+002
      vertex -1.483932e+003  2.357372e+002  5.205536e+002
      vertex -1.484731e+003  2.363331e+002  5.206375e+002
    endloop
  endfacet
  facet normal  5.179096e-001  7.515678e-001 -4.085529e-001
    outer loop
      vertex -1.483202e+003  2.360423e+002  5.253425e+002
      vertex -1.482513e+003  2.380112e+002  5.298378e+002
      vertex -1.481715e+003  2.374153e+002  5.297540e+002
    endloop
  endfacet
  facet normal  4.123472e-001  6.433446e-001 -6.450407e-001
    outer loop
      vertex -1.481715e+003  2.374153e+002  5.297540e+002
      vertex -1.482513e+003  2.380112e+002  5.298378e+002
      vertex -1.480386e+003  2.403439e+002  5.335245e+002
    endloop
  endfacet
  facet normal  4.123472e-001  6.433446e-001 -6.450407e-001
    outer loop
      vertex -1.481715e+003  2.374153e+002  5.297540e+002
      vertex -1.480386e+003  2.403439e+002  5.335245e+002
      vertex -1.479587e+003  2.397480e+002  5.334407e+002
    endloop
  endfacet
  facet normal  2.742875e-001  4.844232e-001 -8.307228e-001
    outer loop
      vertex -1.479587e+003  2.397480e+002  5.334407e+002
      vertex -1.480386e+003  2.403439e+002  5.335245e+002
      vertex -1.477786e+003  2.434526e+002  5.361957e+002
    endloop
  endfacet
  facet normal  2.742786e-001  4.844278e-001 -8.307231e-001
    outer loop
      vertex -1.479587e+003  2.397480e+002  5.334407e+002
      vertex -1.477786e+003  2.434526e+002  5.361957e+002
      vertex -1.476987e+003  2.428566e+002  5.361119e+002
    endloop
  endfacet
  facet normal  1.145870e-001  2.873599e-001 -9.509438e-001
    outer loop
      vertex -1.476987e+003  2.428566e+002  5.361119e+002
      vertex -1.477786e+003  2.434526e+002  5.361957e+002
      vertex -1.474918e+003  2.470922e+002  5.376411e+002
    endloop
  endfacet
  facet normal  1.146405e-001  2.873342e-001 -9.509451e-001
    outer loop
      vertex -1.476987e+003  2.428566e+002  5.361119e+002
      vertex -1.474918e+003  2.470922e+002  5.376411e+002
      vertex -1.474120e+003  2.464963e+002  5.375573e+002
    endloop
  endfacet
  facet normal  5.987412e-001  8.008760e-001  1.032548e-002
    outer loop
      vertex -1.474637e+003  2.473788e+002  5.382772e+002
      vertex -1.473839e+003  2.467829e+002  5.381934e+002
      vertex -1.474655e+003  2.473952e+002  5.379983e+002
    endloop
  endfacet
  facet normal  5.987059e-001  8.008996e-001  1.054723e-002
    outer loop
      vertex -1.474655e+003  2.473952e+002  5.379983e+002
      vertex -1.473839e+003  2.467829e+002  5.381934e+002
      vertex -1.473856e+003  2.467993e+002  5.379145e+002
    endloop
  endfacet
  facet normal  4.721726e-001  7.068633e-001 -5.266853e-001
    outer loop
      vertex -1.474655e+003  2.473952e+002  5.379983e+002
      vertex -1.473856e+003  2.467993e+002  5.379145e+002
      vertex -1.474759e+003  2.472885e+002  5.377615e+002
    endloop
  endfacet
  facet normal  4.721418e-001  7.067505e-001 -5.268643e-001
    outer loop
      vertex -1.474759e+003  2.472885e+002  5.377615e+002
      vertex -1.473856e+003  2.467993e+002  5.379145e+002
      vertex -1.473960e+003  2.466926e+002  5.376777e+002
    endloop
  endfacet
  facet normal  1.975978e-001  3.911716e-001 -8.988547e-001
    outer loop
      vertex -1.474759e+003  2.472885e+002  5.377615e+002
      vertex -1.473960e+003  2.466926e+002  5.376777e+002
      vertex -1.474918e+003  2.470922e+002  5.376411e+002
    endloop
  endfacet
  facet normal  1.975978e-001  3.911716e-001 -8.988547e-001
    outer loop
      vertex -1.474918e+003  2.470922e+002  5.376411e+002
      vertex -1.473960e+003  2.466926e+002  5.376777e+002
      vertex -1.474120e+003  2.464963e+002  5.375573e+002
    endloop
  endfacet
  facet normal  5.918660e-001  7.524942e-001  2.888721e-001
    outer loop
      vertex -1.503661e+003  1.728022e+002  7.920119e+002
      vertex -1.502863e+003  1.722062e+002  7.919281e+002
      vertex -1.474637e+003  2.473788e+002  5.382772e+002
    endloop
  endfacet
  facet normal  5.918660e-001  7.524942e-001  2.888721e-001
    outer loop
      vertex -1.474637e+003  2.473788e+002  5.382772e+002
      vertex -1.502863e+003  1.722062e+002  7.919281e+002
      vertex -1.473839e+003  2.467829e+002  5.381934e+002
    endloop
  endfacet
  facet normal  2.047056e-001  1.380846e-001  9.690348e-001
    outer loop
      vertex -1.503958e+003  1.723563e+002  7.923626e+002
      vertex -1.503159e+003  1.717603e+002  7.922788e+002
      vertex -1.503765e+003  1.726254e+002  7.922836e+002
    endloop
  endfacet
  facet normal  2.047671e-001  1.381278e-001  9.690156e-001
    outer loop
      vertex -1.503765e+003  1.726254e+002  7.922836e+002
      vertex -1.503159e+003  1.717603e+002  7.922788e+002
      vertex -1.502966e+003  1.720294e+002  7.921998e+002
    endloop
  endfacet
  facet normal  5.194643e-001  6.122616e-001  5.960643e-001
    outer loop
      vertex -1.503765e+003  1.726254e+002  7.922836e+002
      vertex -1.502966e+003  1.720294e+002  7.921998e+002
      vertex -1.503661e+003  1.728022e+002  7.920119e+002
    endloop
  endfacet
  facet normal  5.194485e-001  6.122529e-001  5.960870e-001
    outer loop
      vertex -1.503661e+003  1.728022e+002  7.920119e+002
      vertex -1.502966e+003  1.720294e+002  7.921998e+002
      vertex -1.502863e+003  1.722062e+002  7.919281e+002
    endloop
  endfacet
  facet normal -4.157558e-006 -1.392523e-001  9.902569e-001
    outer loop
      vertex -1.541531e+003  1.229798e+002  7.854190e+002
      vertex -1.540733e+003  1.223838e+002  7.853352e+002
      vertex -1.503958e+003  1.723563e+002  7.923626e+002
    endloop
  endfacet
  facet normal -5.016225e-006 -1.392517e-001  9.902571e-001
    outer loop
      vertex -1.503958e+003  1.723563e+002  7.923626e+002
      vertex -1.540733e+003  1.223838e+002  7.853352e+002
      vertex -1.503159e+003  1.717603e+002  7.922788e+002
    endloop
  endfacet
  facet normal -2.035789e-001 -1.365135e-001 -9.694946e-001
    outer loop
      vertex -1.541531e+003  1.603340e+002  5.197889e+002
      vertex -1.470920e+003  2.589994e+002  4.910686e+002
      vertex -1.540733e+003  1.597381e+002  5.197051e+002
    endloop
  endfacet
  facet normal -2.035989e-001 -1.364988e-001 -9.694924e-001
    outer loop
      vertex -1.540733e+003  1.597381e+002  5.197051e+002
      vertex -1.470920e+003  2.589994e+002  4.910686e+002
      vertex -1.470121e+003  2.584034e+002  4.909848e+002
    endloop
  endfacet
  facet normal  5.714009e-001  7.945730e-001 -2.053159e-001
    outer loop
      vertex -1.470517e+003  2.594630e+002  4.916089e+002
      vertex -1.469719e+003  2.588671e+002  4.915251e+002
      vertex -1.470577e+003  2.594266e+002  4.913028e+002
    endloop
  endfacet
  facet normal  5.714022e-001  7.945670e-001 -2.053359e-001
    outer loop
      vertex -1.470577e+003  2.594266e+002  4.913028e+002
      vertex -1.469719e+003  2.588671e+002  4.915251e+002
      vertex -1.469778e+003  2.588307e+002  4.912190e+002
    endloop
  endfacet
  facet normal  3.461717e-001  5.687919e-001 -7.460837e-001
    outer loop
      vertex -1.470577e+003  2.594266e+002  4.913028e+002
      vertex -1.469778e+003  2.588307e+002  4.912190e+002
      vertex -1.470731e+003  2.592487e+002  4.910955e+002
    endloop
  endfacet
  facet normal  3.461717e-001  5.687919e-001 -7.460837e-001
    outer loop
      vertex -1.470731e+003  2.592487e+002  4.910955e+002
      vertex -1.469778e+003  2.588307e+002  4.912190e+002
      vertex -1.469932e+003  2.586527e+002  4.910117e+002
    endloop
  endfacet
  facet normal -1.551151e-002  1.188196e-001 -9.927948e-001
    outer loop
      vertex -1.470731e+003  2.592487e+002  4.910955e+002
      vertex -1.469932e+003  2.586527e+002  4.910117e+002
      vertex -1.470920e+003  2.589994e+002  4.910686e+002
    endloop
  endfacet
  facet normal -1.551151e-002  1.188196e-001 -9.927948e-001
    outer loop
      vertex -1.470920e+003  2.589994e+002  4.910686e+002
      vertex -1.469932e+003  2.586527e+002  4.910117e+002
      vertex -1.470121e+003  2.584034e+002  4.909848e+002
    endloop
  endfacet
  facet normal  6.018395e-001  7.908356e-001  1.112120e-001
    outer loop
      vertex -1.470517e+003  2.594630e+002  4.916089e+002
      vertex -1.470517e+003  2.579655e+002  5.022578e+002
      vertex -1.469719e+003  2.588671e+002  4.915251e+002
    endloop
  endfacet
  facet normal  6.018369e-001  7.908377e-001  1.112119e-001
    outer loop
      vertex -1.469719e+003  2.588671e+002  4.915251e+002
      vertex -1.470517e+003  2.579655e+002  5.022578e+002
      vertex -1.469719e+003  2.573696e+002  5.021740e+002
    endloop
  endfacet
  facet normal -7.986355e-001  5.959512e-001  8.380565e-002
    outer loop
      vertex -1.541531e+003  1.603340e+002  5.197889e+002
      vertex -1.541531e+003  1.229798e+002  7.854190e+002
      vertex -1.503958e+003  1.723563e+002  7.923626e+002
    endloop
  endfacet
  facet normal -7.984954e-001  5.961430e-001  8.377787e-002
    outer loop
      vertex -1.541531e+003  1.603340e+002  5.197889e+002
      vertex -1.503958e+003  1.723563e+002  7.923626e+002
      vertex -1.503765e+003  1.726254e+002  7.922836e+002
    endloop
  endfacet
  facet normal -7.986303e-001  5.959583e-001  8.380491e-002
    outer loop
      vertex -1.541531e+003  1.603340e+002  5.197889e+002
      vertex -1.503765e+003  1.726254e+002  7.922836e+002
      vertex -1.503661e+003  1.728022e+002  7.920119e+002
    endloop
  endfacet
  facet normal -7.986354e-001  5.959516e-001  8.380591e-002
    outer loop
      vertex -1.541531e+003  1.603340e+002  5.197889e+002
      vertex -1.503661e+003  1.728022e+002  7.920119e+002
      vertex -1.474637e+003  2.473788e+002  5.382772e+002
    endloop
  endfacet
  facet normal -7.986389e-001  5.959318e-001  8.391194e-002
    outer loop
      vertex -1.541531e+003  1.603340e+002  5.197889e+002
      vertex -1.474637e+003  2.473788e+002  5.382772e+002
      vertex -1.474655e+003  2.473952e+002  5.379983e+002
    endloop
  endfacet
  facet normal -7.986248e-001  5.960112e-001  8.348048e-002
    outer loop
      vertex -1.541531e+003  1.603340e+002  5.197889e+002
      vertex -1.474655e+003  2.473952e+002  5.379983e+002
      vertex -1.474759e+003  2.472885e+002  5.377615e+002
    endloop
  endfacet
  facet normal -7.986532e-001  5.958451e-001  8.438959e-002
    outer loop
      vertex -1.541531e+003  1.603340e+002  5.197889e+002
      vertex -1.474759e+003  2.472885e+002  5.377615e+002
      vertex -1.474918e+003  2.470922e+002  5.376411e+002
    endloop
  endfacet
  facet normal -7.986333e-001  5.959636e-001  8.373962e-002
    outer loop
      vertex -1.541531e+003  1.603340e+002  5.197889e+002
      vertex -1.474918e+003  2.470922e+002  5.376411e+002
      vertex -1.477786e+003  2.434526e+002  5.361957e+002
    endloop
  endfacet
  facet normal -7.986358e-001  5.959475e-001  8.383076e-002
    outer loop
      vertex -1.541531e+003  1.603340e+002  5.197889e+002
      vertex -1.477786e+003  2.434526e+002  5.361957e+002
      vertex -1.480386e+003  2.403439e+002  5.335245e+002
    endloop
  endfacet
  facet normal -7.986354e-001  5.959515e-001  8.380534e-002
    outer loop
      vertex -1.541531e+003  1.603340e+002  5.197889e+002
      vertex -1.480386e+003  2.403439e+002  5.335245e+002
      vertex -1.482513e+003  2.380112e+002  5.298378e+002
    endloop
  endfacet
  facet normal -7.986354e-001  5.959527e-001  8.379644e-002
    outer loop
      vertex -1.541531e+003  1.603340e+002  5.197889e+002
      vertex -1.482513e+003  2.380112e+002  5.298378e+002
      vertex -1.484001e+003  2.366382e+002  5.254263e+002
    endloop
  endfacet
  facet normal -7.986350e-001  5.959515e-001  8.380862e-002
    outer loop
      vertex -1.541531e+003  1.603340e+002  5.197889e+002
      vertex -1.484001e+003  2.366382e+002  5.254263e+002
      vertex -1.484731e+003  2.363331e+002  5.206375e+002
    endloop
  endfacet
  facet normal -7.986348e-001  5.959514e-001  8.381101e-002
    outer loop
      vertex -1.541531e+003  1.603340e+002  5.197889e+002
      vertex -1.484731e+003  2.363331e+002  5.206375e+002
      vertex -1.484679e+003  2.370296e+002  5.161777e+002
    endloop
  endfacet
  facet normal -7.986363e-001  5.959517e-001  8.379522e-002
    outer loop
      vertex -1.541531e+003  1.603340e+002  5.197889e+002
      vertex -1.484679e+003  2.370296e+002  5.161777e+002
      vertex -1.483926e+003  2.386232e+002  5.120219e+002
    endloop
  endfacet
  facet normal -7.986325e-001  5.959522e-001  8.382858e-002
    outer loop
      vertex -1.541531e+003  1.603340e+002  5.197889e+002
      vertex -1.483926e+003  2.386232e+002  5.120219e+002
      vertex -1.482523e+003  2.410051e+002  5.084532e+002
    endloop
  endfacet
  facet normal -7.986364e-001  5.959510e-001  8.379951e-002
    outer loop
      vertex -1.541531e+003  1.603340e+002  5.197889e+002
      vertex -1.482523e+003  2.410051e+002  5.084532e+002
      vertex -1.470920e+003  2.589994e+002  4.910686e+002
    endloop
  endfacet
  facet normal -7.985632e-001  5.960306e-001  8.393078e-002
    outer loop
      vertex -1.470920e+003  2.589994e+002  4.910686e+002
      vertex -1.482523e+003  2.410051e+002  5.084532e+002
      vertex -1.480566e+003  2.440130e+002  5.057149e+002
    endloop
  endfacet
  facet normal -7.986315e-001  5.959561e-001  8.380953e-002
    outer loop
      vertex -1.470920e+003  2.589994e+002  4.910686e+002
      vertex -1.480566e+003  2.440130e+002  5.057149e+002
      vertex -1.478188e+003  2.474421e+002  5.039935e+002
    endloop
  endfacet
  facet normal -7.986418e-001  5.959446e-001  8.379350e-002
    outer loop
      vertex -1.470920e+003  2.589994e+002  4.910686e+002
      vertex -1.478188e+003  2.474421e+002  5.039935e+002
      vertex -1.475551e+003  2.510585e+002  5.034063e+002
    endloop
  endfacet
  facet normal -7.986289e-001  5.959597e-001  8.380800e-002
    outer loop
      vertex -1.470920e+003  2.589994e+002  4.910686e+002
      vertex -1.475551e+003  2.510585e+002  5.034063e+002
      vertex -1.473341e+003  2.539657e+002  5.037950e+002
    endloop
  endfacet
  facet normal -7.986313e-001  5.959568e-001  8.380641e-002
    outer loop
      vertex -1.470920e+003  2.589994e+002  4.910686e+002
      vertex -1.473341e+003  2.539657e+002  5.037950e+002
      vertex -1.470517e+003  2.579655e+002  5.022578e+002
    endloop
  endfacet
  facet normal -7.986367e-001  5.959496e-001  8.380596e-002
    outer loop
      vertex -1.470920e+003  2.589994e+002  4.910686e+002
      vertex -1.470517e+003  2.579655e+002  5.022578e+002
      vertex -1.470517e+003  2.594630e+002  4.916089e+002
    endloop
  endfacet
  facet normal -7.986553e-001  5.959192e-001  8.384592e-002
    outer loop
      vertex -1.470920e+003  2.589994e+002  4.910686e+002
      vertex -1.470517e+003  2.594630e+002  4.916089e+002
      vertex -1.470577e+003  2.594266e+002  4.913028e+002
    endloop
  endfacet
  facet normal -7.986473e-001  5.959356e-001  8.380418e-002
    outer loop
      vertex -1.470920e+003  2.589994e+002  4.910686e+002
      vertex -1.470577e+003  2.594266e+002  4.913028e+002
      vertex -1.470731e+003  2.592487e+002  4.910955e+002
    endloop
  endfacet
  facet normal -7.986965e-001  5.959506e-001  8.322831e-002
    outer loop
      vertex -1.471010e+003  2.569227e+002  5.049828e+002
      vertex -1.470865e+003  2.571328e+002  5.048676e+002
      vertex -1.471178e+003  2.567026e+002  5.049433e+002
    endloop
  endfacet
  facet normal -7.986241e-001  5.959812e-001  8.370141e-002
    outer loop
      vertex -1.471178e+003  2.567026e+002  5.049433e+002
      vertex -1.470865e+003  2.571328e+002  5.048676e+002
      vertex -1.473341e+003  2.539657e+002  5.037950e+002
    endloop
  endfacet
  facet normal -7.986397e-001  5.959370e-001  8.386785e-002
    outer loop
      vertex -1.470865e+003  2.571328e+002  5.048676e+002
      vertex -1.470789e+003  2.572672e+002  5.046339e+002
      vertex -1.473341e+003  2.539657e+002  5.037950e+002
    endloop
  endfacet
  facet normal -7.986355e-001  5.959535e-001  8.379012e-002
    outer loop
      vertex -1.473341e+003  2.539657e+002  5.037950e+002
      vertex -1.470789e+003  2.572672e+002  5.046339e+002
      vertex -1.470517e+003  2.579655e+002  5.022578e+002
    endloop
  endfacet
  facet normal -1.812110e-002 -1.629974e-001  9.864601e-001
    outer loop
      vertex -1.471178e+003  2.567026e+002  5.049433e+002
      vertex -1.470379e+003  2.561067e+002  5.048595e+002
      vertex -1.471010e+003  2.569227e+002  5.049828e+002
    endloop
  endfacet
  facet normal -1.811458e-002 -1.629925e-001  9.864610e-001
    outer loop
      vertex -1.471010e+003  2.569227e+002  5.049828e+002
      vertex -1.470379e+003  2.561067e+002  5.048595e+002
      vertex -1.470211e+003  2.563268e+002  5.048990e+002
    endloop
  endfacet
  facet normal  3.080555e-001  2.852393e-001  9.076014e-001
    outer loop
      vertex -1.471010e+003  2.569227e+002  5.049828e+002
      vertex -1.470211e+003  2.563268e+002  5.048990e+002
      vertex -1.470865e+003  2.571328e+002  5.048676e+002
    endloop
  endfacet
  facet normal  3.081549e-001  2.853178e-001  9.075430e-001
    outer loop
      vertex -1.470865e+003  2.571328e+002  5.048676e+002
      vertex -1.470211e+003  2.563268e+002  5.048990e+002
      vertex -1.470066e+003  2.565369e+002  5.047838e+002
    endloop
  endfacet
  facet normal  5.376543e-001  6.439285e-001  5.443197e-001
    outer loop
      vertex -1.470865e+003  2.571328e+002  5.048676e+002
      vertex -1.470066e+003  2.565369e+002  5.047838e+002
      vertex -1.470789e+003  2.572672e+002  5.046339e+002
    endloop
  endfacet
  facet normal  5.376543e-001  6.439285e-001  5.443197e-001
    outer loop
      vertex -1.470789e+003  2.572672e+002  5.046339e+002
      vertex -1.470066e+003  2.565369e+002  5.047838e+002
      vertex -1.469990e+003  2.566712e+002  5.045501e+002
    endloop
  endfacet
  facet normal -1.238910e-001 -2.990641e-001  9.461563e-001
    outer loop
      vertex -1.471178e+003  2.567026e+002  5.049433e+002
      vertex -1.473341e+003  2.539657e+002  5.037950e+002
      vertex -1.470379e+003  2.561067e+002  5.048595e+002
    endloop
  endfacet
  facet normal -1.238910e-001 -2.990641e-001  9.461563e-001
    outer loop
      vertex -1.470379e+003  2.561067e+002  5.048595e+002
      vertex -1.473341e+003  2.539657e+002  5.037950e+002
      vertex -1.472542e+003  2.533697e+002  5.037112e+002
    endloop
  endfacet
  facet normal  3.271884e-003 -1.349472e-001  9.908475e-001
    outer loop
      vertex -1.473341e+003  2.539657e+002  5.037950e+002
      vertex -1.475551e+003  2.510585e+002  5.034063e+002
      vertex -1.472542e+003  2.533697e+002  5.037112e+002
    endloop
  endfacet
  facet normal  3.271630e-003 -1.349468e-001  9.908473e-001
    outer loop
      vertex -1.472542e+003  2.533697e+002  5.037112e+002
      vertex -1.475551e+003  2.510585e+002  5.034063e+002
      vertex -1.474752e+003  2.504625e+002  5.033225e+002
    endloop
  endfacet
  facet normal  7.986353e-001 -5.959513e-001 -8.380670e-002
    outer loop
      vertex -1.540733e+003  1.597381e+002  5.197051e+002
      vertex -1.470121e+003  2.584034e+002  4.909848e+002
      vertex -1.481725e+003  2.404091e+002  5.083694e+002
    endloop
  endfacet
  facet normal  7.986368e-001 -5.959510e-001 -8.379616e-002
    outer loop
      vertex -1.540733e+003  1.597381e+002  5.197051e+002
      vertex -1.481725e+003  2.404091e+002  5.083694e+002
      vertex -1.483128e+003  2.380272e+002  5.119381e+002
    endloop
  endfacet
  facet normal  7.986339e-001 -5.959513e-001 -8.382113e-002
    outer loop
      vertex -1.540733e+003  1.597381e+002  5.197051e+002
      vertex -1.483128e+003  2.380272e+002  5.119381e+002
      vertex -1.483880e+003  2.364337e+002  5.160939e+002
    endloop
  endfacet
  facet normal  7.986370e-001 -5.959520e-001 -8.378720e-002
    outer loop
      vertex -1.540733e+003  1.597381e+002  5.197051e+002
      vertex -1.483880e+003  2.364337e+002  5.160939e+002
      vertex -1.483932e+003  2.357372e+002  5.205536e+002
    endloop
  endfacet
  facet normal  7.986355e-001 -5.959506e-001 -8.381065e-002
    outer loop
      vertex -1.540733e+003  1.597381e+002  5.197051e+002
      vertex -1.483932e+003  2.357372e+002  5.205536e+002
      vertex -1.483202e+003  2.360423e+002  5.253425e+002
    endloop
  endfacet
  facet normal  7.986353e-001 -5.959499e-001 -8.381731e-002
    outer loop
      vertex -1.540733e+003  1.597381e+002  5.197051e+002
      vertex -1.483202e+003  2.360423e+002  5.253425e+002
      vertex -1.481715e+003  2.374153e+002  5.297540e+002
    endloop
  endfacet
  facet normal  7.986354e-001 -5.959515e-001 -8.380534e-002
    outer loop
      vertex -1.540733e+003  1.597381e+002  5.197051e+002
      vertex -1.481715e+003  2.374153e+002  5.297540e+002
      vertex -1.479587e+003  2.397480e+002  5.334407e+002
    endloop
  endfacet
  facet normal  7.986352e-001 -5.959537e-001 -8.379174e-002
    outer loop
      vertex -1.540733e+003  1.597381e+002  5.197051e+002
      vertex -1.479587e+003  2.397480e+002  5.334407e+002
      vertex -1.476987e+003  2.428566e+002  5.361119e+002
    endloop
  endfacet
  facet normal  7.986337e-001 -5.959633e-001 -8.373765e-002
    outer loop
      vertex -1.540733e+003  1.597381e+002  5.197051e+002
      vertex -1.476987e+003  2.428566e+002  5.361119e+002
      vertex -1.474120e+003  2.464963e+002  5.375573e+002
    endloop
  endfacet
  facet normal  7.986538e-001 -5.958440e-001 -8.439215e-002
    outer loop
      vertex -1.540733e+003  1.597381e+002  5.197051e+002
      vertex -1.474120e+003  2.464963e+002  5.375573e+002
      vertex -1.473960e+003  2.466926e+002  5.376777e+002
    endloop
  endfacet
  facet normal  7.986397e-001 -5.959274e-001 -8.393661e-002
    outer loop
      vertex -1.540733e+003  1.597381e+002  5.197051e+002
      vertex -1.473960e+003  2.466926e+002  5.376777e+002
      vertex -1.473856e+003  2.467993e+002  5.379145e+002
    endloop
  endfacet
  facet normal  7.986265e-001 -5.960016e-001 -8.353318e-002
    outer loop
      vertex -1.540733e+003  1.597381e+002  5.197051e+002
      vertex -1.473856e+003  2.467993e+002  5.379145e+002
      vertex -1.473839e+003  2.467829e+002  5.381934e+002
    endloop
  endfacet
  facet normal  7.986358e-001 -5.959508e-001 -8.380565e-002
    outer loop
      vertex -1.540733e+003  1.597381e+002  5.197051e+002
      vertex -1.473839e+003  2.467829e+002  5.381934e+002
      vertex -1.502863e+003  1.722062e+002  7.919281e+002
    endloop
  endfacet
  facet normal  7.986534e-001 -5.959270e-001 -8.380919e-002
    outer loop
      vertex -1.540733e+003  1.597381e+002  5.197051e+002
      vertex -1.502863e+003  1.722062e+002  7.919281e+002
      vertex -1.502966e+003  1.720294e+002  7.921998e+002
    endloop
  endfacet
  facet normal  7.986645e-001 -5.959117e-001 -8.381142e-002
    outer loop
      vertex -1.540733e+003  1.597381e+002  5.197051e+002
      vertex -1.502966e+003  1.720294e+002  7.921998e+002
      vertex -1.503159e+003  1.717603e+002  7.922788e+002
    endloop
  endfacet
  facet normal  7.986355e-001 -5.959513e-001 -8.380568e-002
    outer loop
      vertex -1.540733e+003  1.597381e+002  5.197051e+002
      vertex -1.503159e+003  1.717603e+002  7.922788e+002
      vertex -1.540733e+003  1.223838e+002  7.853352e+002
    endloop
  endfacet
  facet normal  7.986473e-001 -5.959356e-001 -8.380418e-002
    outer loop
      vertex -1.470121e+003  2.584034e+002  4.909848e+002
      vertex -1.469932e+003  2.586527e+002  4.910117e+002
      vertex -1.469778e+003  2.588307e+002  4.912190e+002
    endloop
  endfacet
  facet normal  7.986570e-001 -5.959156e-001 -8.385504e-002
    outer loop
      vertex -1.470121e+003  2.584034e+002  4.909848e+002
      vertex -1.469778e+003  2.588307e+002  4.912190e+002
      vertex -1.469719e+003  2.588671e+002  4.915251e+002
    endloop
  endfacet
  facet normal  7.986344e-001 -5.959528e-001 -8.380616e-002
    outer loop
      vertex -1.470121e+003  2.584034e+002  4.909848e+002
      vertex -1.469719e+003  2.588671e+002  4.915251e+002
      vertex -1.469719e+003  2.573696e+002  5.021740e+002
    endloop
  endfacet
  facet normal  7.986313e-001 -5.959568e-001 -8.380641e-002
    outer loop
      vertex -1.470121e+003  2.584034e+002  4.909848e+002
      vertex -1.469719e+003  2.573696e+002  5.021740e+002
      vertex -1.472542e+003  2.533697e+002  5.037112e+002
    endloop
  endfacet
  facet normal  7.986450e-001 -5.959398e-001 -8.379709e-002
    outer loop
      vertex -1.470121e+003  2.584034e+002  4.909848e+002
      vertex -1.472542e+003  2.533697e+002  5.037112e+002
      vertex -1.474752e+003  2.504625e+002  5.033225e+002
    endloop
  endfacet
  facet normal  7.986252e-001 -5.959630e-001 -8.381946e-002
    outer loop
      vertex -1.470121e+003  2.584034e+002  4.909848e+002
      vertex -1.474752e+003  2.504625e+002  5.033225e+002
      vertex -1.477389e+003  2.468461e+002  5.039097e+002
    endloop
  endfacet
  facet normal  7.986333e-001 -5.959541e-001 -8.380699e-002
    outer loop
      vertex -1.470121e+003  2.584034e+002  4.909848e+002
      vertex -1.477389e+003  2.468461e+002  5.039097e+002
      vertex -1.479767e+003  2.434171e+002  5.056311e+002
    endloop
  endfacet
  facet normal  7.988162e-001 -5.957544e-001 -8.348221e-002
    outer loop
      vertex -1.470121e+003  2.584034e+002  4.909848e+002
      vertex -1.479767e+003  2.434171e+002  5.056311e+002
      vertex -1.481725e+003  2.404091e+002  5.083694e+002
    endloop
  endfacet
  facet normal  7.985085e-001 -5.960298e-001 -8.445529e-002
    outer loop
      vertex -1.470211e+003  2.563268e+002  5.048990e+002
      vertex -1.470379e+003  2.561067e+002  5.048595e+002
      vertex -1.470066e+003  2.565369e+002  5.047838e+002
    endloop
  endfacet
  facet normal  7.986241e-001 -5.959812e-001 -8.370141e-002
    outer loop
      vertex -1.470066e+003  2.565369e+002  5.047838e+002
      vertex -1.470379e+003  2.561067e+002  5.048595e+002
      vertex -1.472542e+003  2.533697e+002  5.037112e+002
    endloop
  endfacet
  facet normal  7.986397e-001 -5.959370e-001 -8.386785e-002
    outer loop
      vertex -1.470066e+003  2.565369e+002  5.047838e+002
      vertex -1.472542e+003  2.533697e+002  5.037112e+002
      vertex -1.469990e+003  2.566712e+002  5.045501e+002
    endloop
  endfacet
  facet normal  7.986355e-001 -5.959535e-001 -8.379012e-002
    outer loop
      vertex -1.469990e+003  2.566712e+002  5.045501e+002
      vertex -1.472542e+003  2.533697e+002  5.037112e+002
      vertex -1.469719e+003  2.573696e+002  5.021740e+002
    endloop
  endfacet
  facet normal -4.157558e-006  1.392523e-001  9.902569e-001
    outer loop
      vertex -1.541531e+003 -1.229798e+002  7.854190e+002
      vertex -1.503958e+003 -1.723563e+002  7.923626e+002
      vertex -1.540733e+003 -1.223838e+002  7.853352e+002
    endloop
  endfacet
  facet normal -5.016225e-006  1.392517e-001  9.902571e-001
    outer loop
      vertex -1.540733e+003 -1.223838e+002  7.853352e+002
      vertex -1.503958e+003 -1.723563e+002  7.923626e+002
      vertex -1.503159e+003 -1.717603e+002  7.922788e+002
    endloop
  endfacet
  facet normal  2.047471e-001 -1.381427e-001  9.690177e-001
    outer loop
      vertex -1.503159e+003 -1.717603e+002  7.922788e+002
      vertex -1.503958e+003 -1.723563e+002  7.923626e+002
      vertex -1.502966e+003 -1.720294e+002  7.921998e+002
    endloop
  endfacet
  facet normal  2.047255e-001 -1.380696e-001  9.690326e-001
    outer loop
      vertex -1.502966e+003 -1.720294e+002  7.921998e+002
      vertex -1.503958e+003 -1.723563e+002  7.923626e+002
      vertex -1.503765e+003 -1.726254e+002  7.922836e+002
    endloop
  endfacet
  facet normal  5.194560e-001 -6.122473e-001  5.960862e-001
    outer loop
      vertex -1.502966e+003 -1.720294e+002  7.921998e+002
      vertex -1.503765e+003 -1.726254e+002  7.922836e+002
      vertex -1.502863e+003 -1.722062e+002  7.919281e+002
    endloop
  endfacet
  facet normal  5.194569e-001 -6.122671e-001  5.960650e-001
    outer loop
      vertex -1.502863e+003 -1.722062e+002  7.919281e+002
      vertex -1.503765e+003 -1.726254e+002  7.922836e+002
      vertex -1.503661e+003 -1.728022e+002  7.920119e+002
    endloop
  endfacet
  facet normal  5.918660e-001 -7.524942e-001  2.888721e-001
    outer loop
      vertex -1.503661e+003 -1.728022e+002  7.920119e+002
      vertex -1.474637e+003 -2.473788e+002  5.382772e+002
      vertex -1.502863e+003 -1.722062e+002  7.919281e+002
    endloop
  endfacet
  facet normal  5.918660e-001 -7.524942e-001  2.888721e-001
    outer loop
      vertex -1.502863e+003 -1.722062e+002  7.919281e+002
      vertex -1.474637e+003 -2.473788e+002  5.382772e+002
      vertex -1.473839e+003 -2.467829e+002  5.381934e+002
    endloop
  endfacet
  facet normal  5.987544e-001 -8.008632e-001  1.054215e-002
    outer loop
      vertex -1.473839e+003 -2.467829e+002  5.381934e+002
      vertex -1.474637e+003 -2.473788e+002  5.382772e+002
      vertex -1.473856e+003 -2.467993e+002  5.379145e+002
    endloop
  endfacet
  facet normal  5.986925e-001 -8.009122e-001  1.033059e-002
    outer loop
      vertex -1.473856e+003 -2.467993e+002  5.379145e+002
      vertex -1.474637e+003 -2.473788e+002  5.382772e+002
      vertex -1.474655e+003 -2.473952e+002  5.379983e+002
    endloop
  endfacet
  facet normal  4.720958e-001 -7.067848e-001 -5.268595e-001
    outer loop
      vertex -1.473856e+003 -2.467993e+002  5.379145e+002
      vertex -1.474655e+003 -2.473952e+002  5.379983e+002
      vertex -1.473960e+003 -2.466926e+002  5.376777e+002
    endloop
  endfacet
  facet normal  4.722186e-001 -7.068289e-001 -5.266901e-001
    outer loop
      vertex -1.473960e+003 -2.466926e+002  5.376777e+002
      vertex -1.474655e+003 -2.473952e+002  5.379983e+002
      vertex -1.474759e+003 -2.472885e+002  5.377615e+002
    endloop
  endfacet
  facet normal  1.975978e-001 -3.911716e-001 -8.988547e-001
    outer loop
      vertex -1.473960e+003 -2.466926e+002  5.376777e+002
      vertex -1.474759e+003 -2.472885e+002  5.377615e+002
      vertex -1.474120e+003 -2.464963e+002  5.375573e+002
    endloop
  endfacet
  facet normal  1.975978e-001 -3.911716e-001 -8.988547e-001
    outer loop
      vertex -1.474120e+003 -2.464963e+002  5.375573e+002
      vertex -1.474759e+003 -2.472885e+002  5.377615e+002
      vertex -1.474918e+003 -2.470922e+002  5.376411e+002
    endloop
  endfacet
  facet normal  5.179693e-001 -7.515234e-001 -4.085592e-001
    outer loop
      vertex -1.481715e+003 -2.374153e+002  5.297540e+002
      vertex -1.484001e+003 -2.366382e+002  5.254263e+002
      vertex -1.483202e+003 -2.360423e+002  5.253425e+002
    endloop
  endfacet
  facet normal  5.827399e-001 -8.005326e-001 -1.398626e-001
    outer loop
      vertex -1.483202e+003 -2.360423e+002  5.253425e+002
      vertex -1.484001e+003 -2.366382e+002  5.254263e+002
      vertex -1.484731e+003 -2.363331e+002  5.206375e+002
    endloop
  endfacet
  facet normal  5.827306e-001 -8.005401e-001 -1.398591e-001
    outer loop
      vertex -1.483202e+003 -2.360423e+002  5.253425e+002
      vertex -1.484731e+003 -2.363331e+002  5.206375e+002
      vertex -1.483932e+003 -2.357372e+002  5.205536e+002
    endloop
  endfacet
  facet normal  5.179144e-001 -7.515722e-001 -4.085389e-001
    outer loop
      vertex -1.484001e+003 -2.366382e+002  5.254263e+002
      vertex -1.481715e+003 -2.374153e+002  5.297540e+002
      vertex -1.482513e+003 -2.380112e+002  5.298378e+002
    endloop
  endfacet
  facet normal  4.123472e-001 -6.433446e-001 -6.450407e-001
    outer loop
      vertex -1.482513e+003 -2.380112e+002  5.298378e+002
      vertex -1.481715e+003 -2.374153e+002  5.297540e+002
      vertex -1.479587e+003 -2.397480e+002  5.334407e+002
    endloop
  endfacet
  facet normal  4.123472e-001 -6.433446e-001 -6.450407e-001
    outer loop
      vertex -1.482513e+003 -2.380112e+002  5.298378e+002
      vertex -1.479587e+003 -2.397480e+002  5.334407e+002
      vertex -1.480386e+003 -2.403439e+002  5.335245e+002
    endloop
  endfacet
  facet normal  2.742864e-001 -4.844220e-001 -8.307239e-001
    outer loop
      vertex -1.480386e+003 -2.403439e+002  5.335245e+002
      vertex -1.479587e+003 -2.397480e+002  5.334407e+002
      vertex -1.476987e+003 -2.428566e+002  5.361119e+002
    endloop
  endfacet
  facet normal  2.742797e-001 -4.844291e-001 -8.307220e-001
    outer loop
      vertex -1.480386e+003 -2.403439e+002  5.335245e+002
      vertex -1.476987e+003 -2.428566e+002  5.361119e+002
      vertex -1.477786e+003 -2.434526e+002  5.361957e+002
    endloop
  endfacet
  facet normal  1.145941e-001 -2.873688e-001 -9.509402e-001
    outer loop
      vertex -1.477786e+003 -2.434526e+002  5.361957e+002
      vertex -1.476987e+003 -2.428566e+002  5.361119e+002
      vertex -1.474120e+003 -2.464963e+002  5.375573e+002
    endloop
  endfacet
  facet normal  1.146334e-001 -2.873253e-001 -9.509487e-001
    outer loop
      vertex -1.477786e+003 -2.434526e+002  5.361957e+002
      vertex -1.474120e+003 -2.464963e+002  5.375573e+002
      vertex -1.474918e+003 -2.470922e+002  5.376411e+002
    endloop
  endfacet
  facet normal -7.986364e-001 -5.959510e-001  8.379951e-002
    outer loop
      vertex -1.541531e+003 -1.603340e+002  5.197889e+002
      vertex -1.470920e+003 -2.589994e+002  4.910686e+002
      vertex -1.482523e+003 -2.410051e+002  5.084532e+002
    endloop
  endfacet
  facet normal -7.986325e-001 -5.959522e-001  8.382858e-002
    outer loop
      vertex -1.541531e+003 -1.603340e+002  5.197889e+002
      vertex -1.482523e+003 -2.410051e+002  5.084532e+002
      vertex -1.483926e+003 -2.386232e+002  5.120219e+002
    endloop
  endfacet
  facet normal -7.986363e-001 -5.959517e-001  8.379522e-002
    outer loop
      vertex -1.541531e+003 -1.603340e+002  5.197889e+002
      vertex -1.483926e+003 -2.386232e+002  5.120219e+002
      vertex -1.484679e+003 -2.370296e+002  5.161777e+002
    endloop
  endfacet
  facet normal -7.986348e-001 -5.959514e-001  8.381101e-002
    outer loop
      vertex -1.541531e+003 -1.603340e+002  5.197889e+002
      vertex -1.484679e+003 -2.370296e+002  5.161777e+002
      vertex -1.484731e+003 -2.363331e+002  5.206375e+002
    endloop
  endfacet
  facet normal -7.986350e-001 -5.959515e-001  8.380862e-002
    outer loop
      vertex -1.541531e+003 -1.603340e+002  5.197889e+002
      vertex -1.484731e+003 -2.363331e+002  5.206375e+002
      vertex -1.484001e+003 -2.366382e+002  5.254263e+002
    endloop
  endfacet
  facet normal -7.986354e-001 -5.959527e-001  8.379644e-002
    outer loop
      vertex -1.541531e+003 -1.603340e+002  5.197889e+002
      vertex -1.484001e+003 -2.366382e+002  5.254263e+002
      vertex -1.482513e+003 -2.380112e+002  5.298378e+002
    endloop
  endfacet
  facet normal -7.986354e-001 -5.959515e-001  8.380534e-002
    outer loop
      vertex -1.541531e+003 -1.603340e+002  5.197889e+002
      vertex -1.482513e+003 -2.380112e+002  5.298378e+002
      vertex -1.480386e+003 -2.403439e+002  5.335245e+002
    endloop
  endfacet
  facet normal -7.986358e-001 -5.959475e-001  8.383076e-002
    outer loop
      vertex -1.541531e+003 -1.603340e+002  5.197889e+002
      vertex -1.480386e+003 -2.403439e+002  5.335245e+002
      vertex -1.477786e+003 -2.434526e+002  5.361957e+002
    endloop
  endfacet
  facet normal -7.986333e-001 -5.959636e-001  8.373962e-002
    outer loop
      vertex -1.541531e+003 -1.603340e+002  5.197889e+002
      vertex -1.477786e+003 -2.434526e+002  5.361957e+002
      vertex -1.474918e+003 -2.470922e+002  5.376411e+002
    endloop
  endfacet
  facet normal -7.986532e-001 -5.958451e-001  8.438959e-002
    outer loop
      vertex -1.541531e+003 -1.603340e+002  5.197889e+002
      vertex -1.474918e+003 -2.470922e+002  5.376411e+002
      vertex -1.474759e+003 -2.472885e+002  5.377615e+002
    endloop
  endfacet
  facet normal -7.986248e-001 -5.960112e-001  8.348048e-002
    outer loop
      vertex -1.541531e+003 -1.603340e+002  5.197889e+002
      vertex -1.474759e+003 -2.472885e+002  5.377615e+002
      vertex -1.474655e+003 -2.473952e+002  5.379983e+002
    endloop
  endfacet
  facet normal -7.986389e-001 -5.959318e-001  8.391194e-002
    outer loop
      vertex -1.541531e+003 -1.603340e+002  5.197889e+002
      vertex -1.474655e+003 -2.473952e+002  5.379983e+002
      vertex -1.474637e+003 -2.473788e+002  5.382772e+002
    endloop
  endfacet
  facet normal -7.986354e-001 -5.959516e-001  8.380591e-002
    outer loop
      vertex -1.541531e+003 -1.603340e+002  5.197889e+002
      vertex -1.474637e+003 -2.473788e+002  5.382772e+002
      vertex -1.503661e+003 -1.728022e+002  7.920119e+002
    endloop
  endfacet
  facet normal -7.986303e-001 -5.959583e-001  8.380491e-002
    outer loop
      vertex -1.541531e+003 -1.603340e+002  5.197889e+002
      vertex -1.503661e+003 -1.728022e+002  7.920119e+002
      vertex -1.503765e+003 -1.726254e+002  7.922836e+002
    endloop
  endfacet
  facet normal -7.984954e-001 -5.961430e-001  8.377787e-002
    outer loop
      vertex -1.541531e+003 -1.603340e+002  5.197889e+002
      vertex -1.503765e+003 -1.726254e+002  7.922836e+002
      vertex -1.503958e+003 -1.723563e+002  7.923626e+002
    endloop
  endfacet
  facet normal -7.986355e-001 -5.959512e-001  8.380565e-002
    outer loop
      vertex -1.541531e+003 -1.603340e+002  5.197889e+002
      vertex -1.503958e+003 -1.723563e+002  7.923626e+002
      vertex -1.541531e+003 -1.229798e+002  7.854190e+002
    endloop
  endfacet
  facet normal -7.986473e-001 -5.959356e-001  8.380418e-002
    outer loop
      vertex -1.470920e+003 -2.589994e+002  4.910686e+002
      vertex -1.470731e+003 -2.592487e+002  4.910955e+002
      vertex -1.470577e+003 -2.594266e+002  4.913028e+002
    endloop
  endfacet
  facet normal -7.986553e-001 -5.959192e-001  8.384592e-002
    outer loop
      vertex -1.470920e+003 -2.589994e+002  4.910686e+002
      vertex -1.470577e+003 -2.594266e+002  4.913028e+002
      vertex -1.470517e+003 -2.594630e+002  4.916089e+002
    endloop
  endfacet
  facet normal -7.986367e-001 -5.959496e-001  8.380596e-002
    outer loop
      vertex -1.470920e+003 -2.589994e+002  4.910686e+002
      vertex -1.470517e+003 -2.594630e+002  4.916089e+002
      vertex -1.470517e+003 -2.579655e+002  5.022578e+002
    endloop
  endfacet
  facet normal -7.986313e-001 -5.959568e-001  8.380641e-002
    outer loop
      vertex -1.470920e+003 -2.589994e+002  4.910686e+002
      vertex -1.470517e+003 -2.579655e+002  5.022578e+002
      vertex -1.473341e+003 -2.539657e+002  5.037950e+002
    endloop
  endfacet
  facet normal -7.986289e-001 -5.959597e-001  8.380800e-002
    outer loop
      vertex -1.470920e+003 -2.589994e+002  4.910686e+002
      vertex -1.473341e+003 -2.539657e+002  5.037950e+002
      vertex -1.475551e+003 -2.510585e+002  5.034063e+002
    endloop
  endfacet
  facet normal -7.986418e-001 -5.959446e-001  8.379350e-002
    outer loop
      vertex -1.470920e+003 -2.589994e+002  4.910686e+002
      vertex -1.475551e+003 -2.510585e+002  5.034063e+002
      vertex -1.478188e+003 -2.474421e+002  5.039935e+002
    endloop
  endfacet
  facet normal -7.986315e-001 -5.959561e-001  8.380953e-002
    outer loop
      vertex -1.470920e+003 -2.589994e+002  4.910686e+002
      vertex -1.478188e+003 -2.474421e+002  5.039935e+002
      vertex -1.480566e+003 -2.440130e+002  5.057149e+002
    endloop
  endfacet
  facet normal -7.985632e-001 -5.960306e-001  8.393078e-002
    outer loop
      vertex -1.470920e+003 -2.589994e+002  4.910686e+002
      vertex -1.480566e+003 -2.440130e+002  5.057149e+002
      vertex -1.482523e+003 -2.410051e+002  5.084532e+002
    endloop
  endfacet
  facet normal -7.986965e-001 -5.959506e-001  8.322831e-002
    outer loop
      vertex -1.471010e+003 -2.569227e+002  5.049828e+002
      vertex -1.471178e+003 -2.567026e+002  5.049433e+002
      vertex -1.470865e+003 -2.571328e+002  5.048676e+002
    endloop
  endfacet
  facet normal -7.986241e-001 -5.959812e-001  8.370141e-002
    outer loop
      vertex -1.470865e+003 -2.571328e+002  5.048676e+002
      vertex -1.471178e+003 -2.567026e+002  5.049433e+002
      vertex -1.473341e+003 -2.539657e+002  5.037950e+002
    endloop
  endfacet
  facet normal -7.986397e-001 -5.959370e-001  8.386785e-002
    outer loop
      vertex -1.470865e+003 -2.571328e+002  5.048676e+002
      vertex -1.473341e+003 -2.539657e+002  5.037950e+002
      vertex -1.470789e+003 -2.572672e+002  5.046339e+002
    endloop
  endfacet
  facet normal -7.986355e-001 -5.959535e-001  8.379012e-002
    outer loop
      vertex -1.470789e+003 -2.572672e+002  5.046339e+002
      vertex -1.473341e+003 -2.539657e+002  5.037950e+002
      vertex -1.470517e+003 -2.579655e+002  5.022578e+002
    endloop
  endfacet
  facet normal -2.035789e-001  1.365135e-001 -9.694946e-001
    outer loop
      vertex -1.541531e+003 -1.603340e+002  5.197889e+002
      vertex -1.540733e+003 -1.597381e+002  5.197051e+002
      vertex -1.470920e+003 -2.589994e+002  4.910686e+002
    endloop
  endfacet
  facet normal -2.035989e-001  1.364988e-001 -9.694924e-001
    outer loop
      vertex -1.470920e+003 -2.589994e+002  4.910686e+002
      vertex -1.540733e+003 -1.597381e+002  5.197051e+002
      vertex -1.470121e+003 -2.584034e+002  4.909848e+002
    endloop
  endfacet
  facet normal  4.173809e-001 -4.481223e-001  7.905566e-001
    outer loop
      vertex -1.481725e+003 -2.404091e+002  5.083694e+002
      vertex -1.480566e+003 -2.440130e+002  5.057149e+002
      vertex -1.479767e+003 -2.434171e+002  5.056311e+002
    endloop
  endfacet
  facet normal  2.909279e-001 -2.603861e-001  9.206302e-001
    outer loop
      vertex -1.479767e+003 -2.434171e+002  5.056311e+002
      vertex -1.480566e+003 -2.440130e+002  5.057149e+002
      vertex -1.478188e+003 -2.474421e+002  5.039935e+002
    endloop
  endfacet
  facet normal  2.909500e-001 -2.603758e-001  9.206262e-001
    outer loop
      vertex -1.479767e+003 -2.434171e+002  5.056311e+002
      vertex -1.478188e+003 -2.474421e+002  5.039935e+002
      vertex -1.477389e+003 -2.468461e+002  5.039097e+002
    endloop
  endfacet
  facet normal  1.446839e-001 -5.490476e-002  9.879535e-001
    outer loop
      vertex -1.477389e+003 -2.468461e+002  5.039097e+002
      vertex -1.478188e+003 -2.474421e+002  5.039935e+002
      vertex -1.475551e+003 -2.510585e+002  5.034063e+002
    endloop
  endfacet
  facet normal  1.446395e-001 -5.492476e-002  9.879588e-001
    outer loop
      vertex -1.477389e+003 -2.468461e+002  5.039097e+002
      vertex -1.475551e+003 -2.510585e+002  5.034063e+002
      vertex -1.474752e+003 -2.504625e+002  5.033225e+002
    endloop
  endfacet
  facet normal  4.173353e-001 -4.481451e-001  7.905676e-001
    outer loop
      vertex -1.480566e+003 -2.440130e+002  5.057149e+002
      vertex -1.481725e+003 -2.404091e+002  5.083694e+002
      vertex -1.482523e+003 -2.410051e+002  5.084532e+002
    endloop
  endfacet
  facet normal  5.153314e-001 -6.053443e-001  6.066234e-001
    outer loop
      vertex -1.482523e+003 -2.410051e+002  5.084532e+002
      vertex -1.481725e+003 -2.404091e+002  5.083694e+002
      vertex -1.483128e+003 -2.380272e+002  5.119381e+002
    endloop
  endfacet
  facet normal  5.153779e-001 -6.053185e-001  6.066095e-001
    outer loop
      vertex -1.482523e+003 -2.410051e+002  5.084532e+002
      vertex -1.483128e+003 -2.380272e+002  5.119381e+002
      vertex -1.483926e+003 -2.386232e+002  5.120219e+002
    endloop
  endfacet
  facet normal  5.782562e-001 -7.212560e-001  3.813259e-001
    outer loop
      vertex -1.483926e+003 -2.386232e+002  5.120219e+002
      vertex -1.483128e+003 -2.380272e+002  5.119381e+002
      vertex -1.483880e+003 -2.364337e+002  5.160939e+002
    endloop
  endfacet
  facet normal  5.782064e-001 -7.212869e-001  3.813431e-001
    outer loop
      vertex -1.483926e+003 -2.386232e+002  5.120219e+002
      vertex -1.483880e+003 -2.364337e+002  5.160939e+002
      vertex -1.484679e+003 -2.370296e+002  5.161777e+002
    endloop
  endfacet
  facet normal  6.016783e-001 -7.880746e-001  1.300834e-001
    outer loop
      vertex -1.484679e+003 -2.370296e+002  5.161777e+002
      vertex -1.483880e+003 -2.364337e+002  5.160939e+002
      vertex -1.483932e+003 -2.357372e+002  5.205536e+002
    endloop
  endfacet
  facet normal  6.017274e-001 -7.880400e-001  1.300648e-001
    outer loop
      vertex -1.484679e+003 -2.370296e+002  5.161777e+002
      vertex -1.483932e+003 -2.357372e+002  5.205536e+002
      vertex -1.484731e+003 -2.363331e+002  5.206375e+002
    endloop
  endfacet
  facet normal  4.173760e-001  4.481147e-001  7.905634e-001
    outer loop
      vertex -1.482523e+003  2.410051e+002  5.084532e+002
      vertex -1.479767e+003  2.434171e+002  5.056311e+002
      vertex -1.480566e+003  2.440130e+002  5.057149e+002
    endloop
  endfacet
  facet normal  2.909307e-001  2.603902e-001  9.206282e-001
    outer loop
      vertex -1.480566e+003  2.440130e+002  5.057149e+002
      vertex -1.479767e+003  2.434171e+002  5.056311e+002
      vertex -1.477389e+003  2.468461e+002  5.039097e+002
    endloop
  endfacet
  facet normal  2.909472e-001  2.603718e-001  9.206282e-001
    outer loop
      vertex -1.480566e+003  2.440130e+002  5.057149e+002
      vertex -1.477389e+003  2.468461e+002  5.039097e+002
      vertex -1.478188e+003  2.474421e+002  5.039935e+002
    endloop
  endfacet
  facet normal  1.446777e-001  5.489627e-002  9.879548e-001
    outer loop
      vertex -1.478188e+003  2.474421e+002  5.039935e+002
      vertex -1.477389e+003  2.468461e+002  5.039097e+002
      vertex -1.474752e+003  2.504625e+002  5.033225e+002
    endloop
  endfacet
  facet normal  1.446457e-001  5.493325e-002  9.879575e-001
    outer loop
      vertex -1.478188e+003  2.474421e+002  5.039935e+002
      vertex -1.474752e+003  2.504625e+002  5.033225e+002
      vertex -1.475551e+003  2.510585e+002  5.034063e+002
    endloop
  endfacet
  facet normal  4.173402e-001  4.481526e-001  7.905608e-001
    outer loop
      vertex -1.479767e+003  2.434171e+002  5.056311e+002
      vertex -1.482523e+003  2.410051e+002  5.084532e+002
      vertex -1.481725e+003  2.404091e+002  5.083694e+002
    endloop
  endfacet
  facet normal  5.153351e-001  6.053505e-001  6.066139e-001
    outer loop
      vertex -1.481725e+003  2.404091e+002  5.083694e+002
      vertex -1.482523e+003  2.410051e+002  5.084532e+002
      vertex -1.483926e+003  2.386232e+002  5.120219e+002
    endloop
  endfacet
  facet normal  5.153742e-001  6.053123e-001  6.066189e-001
    outer loop
      vertex -1.481725e+003  2.404091e+002  5.083694e+002
      vertex -1.483926e+003  2.386232e+002  5.120219e+002
      vertex -1.483128e+003  2.380272e+002  5.119381e+002
    endloop
  endfacet
  facet normal  5.782540e-001  7.212514e-001  3.813381e-001
    outer loop
      vertex -1.483128e+003  2.380272e+002  5.119381e+002
      vertex -1.483926e+003  2.386232e+002  5.120219e+002
      vertex -1.484679e+003  2.370296e+002  5.161777e+002
    endloop
  endfacet
  facet normal  5.782087e-001  7.212915e-001  3.813309e-001
    outer loop
      vertex -1.483128e+003  2.380272e+002  5.119381e+002
      vertex -1.484679e+003  2.370296e+002  5.161777e+002
      vertex -1.483880e+003  2.364337e+002  5.160939e+002
    endloop
  endfacet
  facet normal  6.016785e-001  7.880767e-001  1.300700e-001
    outer loop
      vertex -1.483880e+003  2.364337e+002  5.160939e+002
      vertex -1.484679e+003  2.370296e+002  5.161777e+002
      vertex -1.484731e+003  2.363331e+002  5.206375e+002
    endloop
  endfacet
  facet normal  6.017273e-001  7.880380e-001  1.300783e-001
    outer loop
      vertex -1.483880e+003  2.364337e+002  5.160939e+002
      vertex -1.484731e+003  2.363331e+002  5.206375e+002
      vertex -1.483932e+003  2.357372e+002  5.205536e+002
    endloop
  endfacet
  facet normal  8.849862e-001 -4.610806e-001 -6.483947e-002
    outer loop
      vertex -1.540733e+003  1.223838e+002  7.853352e+002
      vertex -1.541332e+003  1.212569e+002  7.851768e+002
      vertex -1.540733e+003  1.597381e+002  5.197051e+002
    endloop
  endfacet
  facet normal  8.840026e-001 -4.629258e-001 -6.510918e-002
    outer loop
      vertex -1.540733e+003  1.597381e+002  5.197051e+002
      vertex -1.541332e+003  1.212569e+002  7.851768e+002
      vertex -1.541326e+003  1.585573e+002  5.200457e+002
    endloop
  endfacet
  facet normal  9.870014e-001 -1.591475e-001 -2.236948e-002
    outer loop
      vertex -1.541332e+003  1.212569e+002  7.851768e+002
      vertex -1.541538e+003  1.200000e+002  7.850000e+002
      vertex -1.541326e+003  1.585573e+002  5.200457e+002
    endloop
  endfacet
  facet normal  9.866511e-001 -1.612616e-001 -2.267742e-002
    outer loop
      vertex -1.541326e+003  1.585573e+002  5.200457e+002
      vertex -1.541538e+003  1.200000e+002  7.850000e+002
      vertex -1.541538e+003  1.572377e+002  5.201984e+002
    endloop
  endfacet
  facet normal  1.000000e+000  0.000000e+000  0.000000e+000
    outer loop
      vertex -1.541538e+003 -1.200000e+002  7.850000e+002
      vertex -1.541538e+003 -1.572377e+002  5.201984e+002
      vertex -1.541538e+003  1.200000e+002  7.850000e+002
    endloop
  endfacet
  facet normal  1.000000e+000  0.000000e+000  0.000000e+000
    outer loop
      vertex -1.541538e+003  1.200000e+002  7.850000e+002
      vertex -1.541538e+003 -1.572377e+002  5.201984e+002
      vertex -1.541538e+003  1.572377e+002  5.201984e+002
    endloop
  endfacet
  facet normal  8.840044e-001  4.629237e-001 -6.509867e-002
    outer loop
      vertex -1.540733e+003 -1.597381e+002  5.197051e+002
      vertex -1.541326e+003 -1.585573e+002  5.200457e+002
      vertex -1.540733e+003 -1.223838e+002  7.853352e+002
    endloop
  endfacet
  facet normal  8.849862e-001  4.610792e-001 -6.484935e-002
    outer loop
      vertex -1.540733e+003 -1.223838e+002  7.853352e+002
      vertex -1.541326e+003 -1.585573e+002  5.200457e+002
      vertex -1.541332e+003 -1.212569e+002  7.851768e+002
    endloop
  endfacet
  facet normal  9.866515e-001  1.612605e-001 -2.266676e-002
    outer loop
      vertex -1.541326e+003 -1.585573e+002  5.200457e+002
      vertex -1.541538e+003 -1.572377e+002  5.201984e+002
      vertex -1.541332e+003 -1.212569e+002  7.851768e+002
    endloop
  endfacet
  facet normal  9.870014e-001  1.591460e-001 -2.237991e-002
    outer loop
      vertex -1.541332e+003 -1.212569e+002  7.851768e+002
      vertex -1.541538e+003 -1.572377e+002  5.201984e+002
      vertex -1.541538e+003 -1.200000e+002  7.850000e+002
    endloop
  endfacet
  facet normal -1.000000e+000  0.000000e+000  -0.000000e+000
    outer loop
      vertex -1.542538e+003 -1.572377e+002  5.201984e+002
      vertex -1.542538e+003 -1.200000e+002  7.850000e+002
      vertex -1.542538e+003  1.572377e+002  5.201984e+002
    endloop
  endfacet
  facet normal -1.000000e+000  0.000000e+000  0.000000e+000
    outer loop
      vertex -1.542538e+003  1.572377e+002  5.201984e+002
      vertex -1.542538e+003 -1.200000e+002  7.850000e+002
      vertex -1.542538e+003  1.200000e+002  7.850000e+002
    endloop
  endfacet
  facet normal -8.849940e-001  4.610658e-001  6.483738e-002
    outer loop
      vertex -1.541531e+003  1.229798e+002  7.854190e+002
      vertex -1.541531e+003  1.603340e+002  5.197889e+002
      vertex -1.542280e+003  1.215711e+002  7.852209e+002
    endloop
  endfacet
  facet normal -8.840005e-001  4.629294e-001  6.511233e-002
    outer loop
      vertex -1.542280e+003  1.215711e+002  7.852209e+002
      vertex -1.541531e+003  1.603340e+002  5.197889e+002
      vertex -1.542273e+003  1.588755e+002  5.200905e+002
    endloop
  endfacet
  facet normal -9.870044e-001  1.591291e-001  2.236435e-002
    outer loop
      vertex -1.542280e+003  1.215711e+002  7.852209e+002
      vertex -1.542273e+003  1.588755e+002  5.200905e+002
      vertex -1.542538e+003  1.200000e+002  7.850000e+002
    endloop
  endfacet
  facet normal -9.866573e-001  1.612246e-001  2.267222e-002
    outer loop
      vertex -1.542538e+003  1.200000e+002  7.850000e+002
      vertex -1.542273e+003  1.588755e+002  5.200905e+002
      vertex -1.542538e+003  1.572377e+002  5.201984e+002
    endloop
  endfacet
  facet normal -2.237031e-001 -1.647303e-001 -9.606357e-001
    outer loop
      vertex -1.540733e+003  1.597381e+002  5.197051e+002
      vertex -1.541326e+003  1.585573e+002  5.200457e+002
      vertex -1.541531e+003  1.603340e+002  5.197889e+002
    endloop
  endfacet
  facet normal -9.808681e-002 -1.534775e-001 -9.832720e-001
    outer loop
      vertex -1.541531e+003  1.603340e+002  5.197889e+002
      vertex -1.541326e+003  1.585573e+002  5.200457e+002
      vertex -1.542273e+003  1.588755e+002  5.200905e+002
    endloop
  endfacet
  facet normal -8.106750e-002 -1.016687e-001 -9.915097e-001
    outer loop
      vertex -1.541326e+003  1.585573e+002  5.200457e+002
      vertex -1.541538e+003  1.572377e+002  5.201984e+002
      vertex -1.542273e+003  1.588755e+002  5.200905e+002
    endloop
  endfacet
  facet normal  0.000000e+000 -6.571004e-002 -9.978388e-001
    outer loop
      vertex -1.542273e+003  1.588755e+002  5.200905e+002
      vertex -1.541538e+003  1.572377e+002  5.201984e+002
      vertex -1.542538e+003  1.572377e+002  5.201984e+002
    endloop
  endfacet
  facet normal  0.000000e+000  0.000000e+000 -1.000000e+000
    outer loop
      vertex -1.542538e+003 -1.572377e+002  5.201984e+002
      vertex -1.542538e+003  1.572377e+002  5.201984e+002
      vertex -1.541538e+003 -1.572377e+002  5.201984e+002
    endloop
  endfacet
  facet normal  0.000000e+000  0.000000e+000 -1.000000e+000
    outer loop
      vertex -1.541538e+003 -1.572377e+002  5.201984e+002
      vertex -1.542538e+003  1.572377e+002  5.201984e+002
      vertex -1.541538e+003  1.572377e+002  5.201984e+002
    endloop
  endfacet
  facet normal -2.237031e-001  1.647303e-001 -9.606357e-001
    outer loop
      vertex -1.540733e+003 -1.597381e+002  5.197051e+002
      vertex -1.541531e+003 -1.603340e+002  5.197889e+002
      vertex -1.541326e+003 -1.585573e+002  5.200457e+002
    endloop
  endfacet
  facet normal -9.808681e-002  1.534775e-001 -9.832720e-001
    outer loop
      vertex -1.541326e+003 -1.585573e+002  5.200457e+002
      vertex -1.541531e+003 -1.603340e+002  5.197889e+002
      vertex -1.542273e+003 -1.588755e+002  5.200905e+002
    endloop
  endfacet
  facet normal -8.106750e-002  1.016687e-001 -9.915097e-001
    outer loop
      vertex -1.541326e+003 -1.585573e+002  5.200457e+002
      vertex -1.542273e+003 -1.588755e+002  5.200905e+002
      vertex -1.541538e+003 -1.572377e+002  5.201984e+002
    endloop
  endfacet
  facet normal  0.000000e+000  6.571004e-002 -9.978388e-001
    outer loop
      vertex -1.541538e+003 -1.572377e+002  5.201984e+002
      vertex -1.542273e+003 -1.588755e+002  5.200905e+002
      vertex -1.542538e+003 -1.572377e+002  5.201984e+002
    endloop
  endfacet
  facet normal -8.840023e-001 -4.629276e-001  6.509920e-002
    outer loop
      vertex -1.541531e+003 -1.603340e+002  5.197889e+002
      vertex -1.541531e+003 -1.229798e+002  7.854190e+002
      vertex -1.542273e+003 -1.588755e+002  5.200905e+002
    endloop
  endfacet
  facet normal -8.849940e-001 -4.610641e-001  6.484986e-002
    outer loop
      vertex -1.542273e+003 -1.588755e+002  5.200905e+002
      vertex -1.541531e+003 -1.229798e+002  7.854190e+002
      vertex -1.542280e+003 -1.215711e+002  7.852209e+002
    endloop
  endfacet
  facet normal -9.866577e-001 -1.612239e-001  2.265910e-002
    outer loop
      vertex -1.542273e+003 -1.588755e+002  5.200905e+002
      vertex -1.542280e+003 -1.215711e+002  7.852209e+002
      vertex -1.542538e+003 -1.572377e+002  5.201984e+002
    endloop
  endfacet
  facet normal -9.870045e-001 -1.591273e-001  2.237728e-002
    outer loop
      vertex -1.542538e+003 -1.572377e+002  5.201984e+002
      vertex -1.542280e+003 -1.215711e+002  7.852209e+002
      vertex -1.542538e+003 -1.200000e+002  7.850000e+002
    endloop
  endfacet
  facet normal  0.000000e+000  0.000000e+000  1.000000e+000
    outer loop
      vertex -1.542538e+003  1.200000e+002  7.850000e+002
      vertex -1.542538e+003 -1.200000e+002  7.850000e+002
      vertex -1.541538e+003  1.200000e+002  7.850000e+002
    endloop
  endfacet
  facet normal  0.000000e+000  0.000000e+000  1.000000e+000
    outer loop
      vertex -1.541538e+003  1.200000e+002  7.850000e+002
      vertex -1.542538e+003 -1.200000e+002  7.850000e+002
      vertex -1.541538e+003 -1.200000e+002  7.850000e+002
    endloop
  endfacet
  facet normal  9.988999e-006  1.392337e-001  9.902595e-001
    outer loop
      vertex -1.541531e+003 -1.229798e+002  7.854190e+002
      vertex -1.540733e+003 -1.223838e+002  7.853352e+002
      vertex -1.541332e+003 -1.212569e+002  7.851768e+002
    endloop
  endfacet
  facet normal -1.093856e-004  1.392473e-001  9.902576e-001
    outer loop
      vertex -1.541531e+003 -1.229798e+002  7.854190e+002
      vertex -1.541332e+003 -1.212569e+002  7.851768e+002
      vertex -1.541538e+003 -1.200000e+002  7.850000e+002
    endloop
  endfacet
  facet normal  0.000000e+000  1.392476e-001  9.902577e-001
    outer loop
      vertex -1.541531e+003 -1.229798e+002  7.854190e+002
      vertex -1.541538e+003 -1.200000e+002  7.850000e+002
      vertex -1.542538e+003 -1.200000e+002  7.850000e+002
    endloop
  endfacet
  facet normal  1.003326e-004  1.392808e-001  9.902529e-001
    outer loop
      vertex -1.541531e+003 -1.229798e+002  7.854190e+002
      vertex -1.542538e+003 -1.200000e+002  7.850000e+002
      vertex -1.542280e+003 -1.215711e+002  7.852209e+002
    endloop
  endfacet
  facet normal  1.003326e-004 -1.392808e-001  9.902529e-001
    outer loop
      vertex -1.541531e+003  1.229798e+002  7.854190e+002
      vertex -1.542280e+003  1.215711e+002  7.852209e+002
      vertex -1.542538e+003  1.200000e+002  7.850000e+002
    endloop
  endfacet
  facet normal  0.000000e+000 -1.392476e-001  9.902577e-001
    outer loop
      vertex -1.541531e+003  1.229798e+002  7.854190e+002
      vertex -1.542538e+003  1.200000e+002  7.850000e+002
      vertex -1.541538e+003  1.200000e+002  7.850000e+002
    endloop
  endfacet
  facet normal -1.093856e-004 -1.392473e-001  9.902576e-001
    outer loop
      vertex -1.541531e+003  1.229798e+002  7.854190e+002
      vertex -1.541538e+003  1.200000e+002  7.850000e+002
      vertex -1.541332e+003  1.212569e+002  7.851768e+002
    endloop
  endfacet
  facet normal  9.988999e-006 -1.392337e-001  9.902595e-001
    outer loop
      vertex -1.541531e+003  1.229798e+002  7.854190e+002
      vertex -1.541332e+003  1.212569e+002  7.851768e+002
      vertex -1.540733e+003  1.223838e+002  7.853352e+002
    endloop
  endfacet
endsolid CATIA STL
