solid CATIA STL
  facet normal  6.560589e-001  -0.000000e+000  7.547097e-001
    outer loop
      vertex -1.439172e+003  3.175221e+002  2.840498e+002
      vertex -1.439172e+003 -3.175221e+002  2.840498e+002
      vertex -1.361437e+003 -3.070054e+002  2.164758e+002
    endloop
  endfacet
  facet normal  6.560589e-001  -0.000000e+000  7.547097e-001
    outer loop
      vertex -1.439172e+003  3.175221e+002  2.840498e+002
      vertex -1.361437e+003 -3.070054e+002  2.164758e+002
      vertex -1.361437e+003  3.070054e+002  2.164758e+002
    endloop
  endfacet
  facet normal  6.560600e-001  1.386747e-005  7.547087e-001
    outer loop
      vertex -1.439172e+003  3.175221e+002  2.840498e+002
      vertex -1.361437e+003  3.070054e+002  2.164758e+002
      vertex -1.365788e+003  3.082512e+002  2.202581e+002
    endloop
  endfacet
  facet normal  6.560598e-001  1.096393e-005  7.547089e-001
    outer loop
      vertex -1.439172e+003  3.175221e+002  2.840498e+002
      vertex -1.365788e+003  3.082512e+002  2.202581e+002
      vertex -1.369526e+003  3.102168e+002  2.235074e+002
    endloop
  endfacet
  facet normal  6.560590e-001 -2.615252e-006  7.547096e-001
    outer loop
      vertex -1.439172e+003  3.175221e+002  2.840498e+002
      vertex -1.369526e+003  3.102168e+002  2.235074e+002
      vertex -1.372810e+003  3.132920e+002  2.263623e+002
    endloop
  endfacet
  facet normal  6.560590e-001 -1.370589e-006  7.547095e-001
    outer loop
      vertex -1.439172e+003  3.175221e+002  2.840498e+002
      vertex -1.372810e+003  3.132920e+002  2.263623e+002
      vertex -1.375768e+003  3.175221e+002  2.289335e+002
    endloop
  endfacet
  facet normal  6.560590e-001 -9.196862e-006  7.547095e-001
    outer loop
      vertex -1.439172e+003 -3.175221e+002  2.840498e+002
      vertex -1.375768e+003 -3.175221e+002  2.289335e+002
      vertex -1.375592e+003 -3.174643e+002  2.287804e+002
    endloop
  endfacet
  facet normal  6.560590e-001  1.215459e-004  7.547097e-001
    outer loop
      vertex -1.439172e+003 -3.175221e+002  2.840498e+002
      vertex -1.375592e+003 -3.174643e+002  2.287804e+002
      vertex -1.375456e+003 -3.173043e+002  2.286627e+002
    endloop
  endfacet
  facet normal  6.560593e-001 -3.470974e-006  7.547095e-001
    outer loop
      vertex -1.439172e+003 -3.175221e+002  2.840498e+002
      vertex -1.375456e+003 -3.173043e+002  2.286627e+002
      vertex -1.372810e+003 -3.132920e+002  2.263623e+002
    endloop
  endfacet
  facet normal  6.560590e-001  2.615252e-006  7.547096e-001
    outer loop
      vertex -1.439172e+003 -3.175221e+002  2.840498e+002
      vertex -1.372810e+003 -3.132920e+002  2.263623e+002
      vertex -1.369526e+003 -3.102168e+002  2.235074e+002
    endloop
  endfacet
  facet normal  6.560598e-001 -1.096393e-005  7.547089e-001
    outer loop
      vertex -1.439172e+003 -3.175221e+002  2.840498e+002
      vertex -1.369526e+003 -3.102168e+002  2.235074e+002
      vertex -1.365788e+003 -3.082512e+002  2.202581e+002
    endloop
  endfacet
  facet normal  6.560626e-001 -5.001914e-005  7.547065e-001
    outer loop
      vertex -1.439172e+003 -3.175221e+002  2.840498e+002
      vertex -1.365788e+003 -3.082512e+002  2.202581e+002
      vertex -1.361806e+003 -3.075053e+002  2.167966e+002
    endloop
  endfacet
  facet normal  6.560450e-001  1.887805e-004  7.547217e-001
    outer loop
      vertex -1.439172e+003 -3.175221e+002  2.840498e+002
      vertex -1.361806e+003 -3.075053e+002  2.167966e+002
      vertex -1.361544e+003 -3.073551e+002  2.165693e+002
    endloop
  endfacet
  facet normal  6.560634e-001 -5.792474e-005  7.547058e-001
    outer loop
      vertex -1.439172e+003 -3.175221e+002  2.840498e+002
      vertex -1.361544e+003 -3.073551e+002  2.165693e+002
      vertex -1.361437e+003 -3.070054e+002  2.164758e+002
    endloop
  endfacet
  facet normal  6.560676e-001  6.017089e-005  7.547022e-001
    outer loop
      vertex -1.361437e+003  3.070054e+002  2.164758e+002
      vertex -1.361544e+003  3.073551e+002  2.165693e+002
      vertex -1.365788e+003  3.082512e+002  2.202581e+002
    endloop
  endfacet
  facet normal  6.560333e-001 -2.244676e-004  7.547319e-001
    outer loop
      vertex -1.365788e+003  3.082512e+002  2.202581e+002
      vertex -1.361544e+003  3.073551e+002  2.165693e+002
      vertex -1.361806e+003  3.075053e+002  2.167966e+002
    endloop
  endfacet
  facet normal  6.561256e-001  8.036650e-005  7.546517e-001
    outer loop
      vertex -1.372810e+003  3.132920e+002  2.263623e+002
      vertex -1.375456e+003  3.173043e+002  2.286627e+002
      vertex -1.375768e+003  3.175221e+002  2.289335e+002
    endloop
  endfacet
  facet normal  6.560253e-001 -1.716354e-004  7.547390e-001
    outer loop
      vertex -1.375768e+003  3.175221e+002  2.289335e+002
      vertex -1.375456e+003  3.173043e+002  2.286627e+002
      vertex -1.375592e+003  3.174643e+002  2.287804e+002
    endloop
  endfacet
  facet normal  0.000000e+000 -1.000000e+000  0.000000e+000
    outer loop
      vertex -1.472357e+003 -2.600000e+002  4.898065e+002
      vertex -1.468356e+003 -2.600000e+002  4.881898e+002
      vertex -1.471983e+003 -2.600000e+002  4.907337e+002
    endloop
  endfacet
  facet normal  0.000000e+000 -1.000000e+000  0.000000e+000
    outer loop
      vertex -1.471983e+003 -2.600000e+002  4.907337e+002
      vertex -1.468356e+003 -2.600000e+002  4.881898e+002
      vertex -1.467981e+003 -2.600000e+002  4.891170e+002
    endloop
  endfacet
  facet normal  3.746065e-001  -0.000000e+000  9.271839e-001
    outer loop
      vertex -1.540302e+003  1.649607e+002  5.183363e+002
      vertex -1.540302e+003 -1.649607e+002  5.183363e+002
      vertex -1.467981e+003 -2.600000e+002  4.891170e+002
    endloop
  endfacet
  facet normal  3.746065e-001  -0.000000e+000  9.271839e-001
    outer loop
      vertex -1.540302e+003  1.649607e+002  5.183363e+002
      vertex -1.467981e+003 -2.600000e+002  4.891170e+002
      vertex -1.467981e+003  2.600000e+002  4.891170e+002
    endloop
  endfacet
  facet normal  3.746010e-001  4.908540e-006  9.271861e-001
    outer loop
      vertex -1.540302e+003  1.649607e+002  5.183363e+002
      vertex -1.467981e+003  2.600000e+002  4.891170e+002
      vertex -1.471983e+003  2.600000e+002  4.907337e+002
    endloop
  endfacet
  facet normal  3.745543e-001  4.394557e-005  9.272049e-001
    outer loop
      vertex -1.540302e+003  1.649607e+002  5.183363e+002
      vertex -1.471983e+003  2.600000e+002  4.907337e+002
      vertex -1.472187e+003  2.599488e+002  4.908162e+002
    endloop
  endfacet
  facet normal  3.745914e-001  1.301373e-005  9.271900e-001
    outer loop
      vertex -1.540302e+003  1.649607e+002  5.183363e+002
      vertex -1.472187e+003  2.599488e+002  4.908162e+002
      vertex -1.472349e+003  2.598057e+002  4.908819e+002
    endloop
  endfacet
  facet normal  3.746010e-001  1.728816e-004  9.271861e-001
    outer loop
      vertex -1.471983e+003 -2.600000e+002  4.907337e+002
      vertex -1.467981e+003 -2.600000e+002  4.891170e+002
      vertex -1.472187e+003 -2.599488e+002  4.908162e+002
    endloop
  endfacet
  facet normal  3.745991e-001 -6.570190e-006  9.271868e-001
    outer loop
      vertex -1.472187e+003 -2.599488e+002  4.908162e+002
      vertex -1.467981e+003 -2.600000e+002  4.891170e+002
      vertex -1.540302e+003 -1.649607e+002  5.183363e+002
    endloop
  endfacet
  facet normal  3.745914e-001 -1.301373e-005  9.271900e-001
    outer loop
      vertex -1.472187e+003 -2.599488e+002  4.908162e+002
      vertex -1.540302e+003 -1.649607e+002  5.183363e+002
      vertex -1.472349e+003 -2.598057e+002  4.908819e+002
    endloop
  endfacet
  facet normal -7.336619e-001 -6.114439e-001  2.964398e-001
    outer loop
      vertex -1.540676e+003 -1.649607e+002  5.174091e+002
      vertex -1.472724e+003 -2.598057e+002  4.899547e+002
      vertex -1.540302e+003 -1.649607e+002  5.183363e+002
    endloop
  endfacet
  facet normal -7.336619e-001 -6.114439e-001  2.964398e-001
    outer loop
      vertex -1.540302e+003 -1.649607e+002  5.183363e+002
      vertex -1.472724e+003 -2.598057e+002  4.899547e+002
      vertex -1.472349e+003 -2.598057e+002  4.908819e+002
    endloop
  endfacet
  facet normal -5.864410e-001 -7.745576e-001  2.369544e-001
    outer loop
      vertex -1.472349e+003 -2.598057e+002  4.908819e+002
      vertex -1.472724e+003 -2.598057e+002  4.899547e+002
      vertex -1.472187e+003 -2.599488e+002  4.908162e+002
    endloop
  endfacet
  facet normal -5.862406e-001 -7.747577e-001  2.367963e-001
    outer loop
      vertex -1.472187e+003 -2.599488e+002  4.908162e+002
      vertex -1.472724e+003 -2.598057e+002  4.899547e+002
      vertex -1.472562e+003 -2.599488e+002  4.898890e+002
    endloop
  endfacet
  facet normal -2.097337e-001 -9.740815e-001  8.471636e-002
    outer loop
      vertex -1.472187e+003 -2.599488e+002  4.908162e+002
      vertex -1.472562e+003 -2.599488e+002  4.898890e+002
      vertex -1.471983e+003 -2.600000e+002  4.907337e+002
    endloop
  endfacet
  facet normal -2.097337e-001 -9.740815e-001  8.471636e-002
    outer loop
      vertex -1.471983e+003 -2.600000e+002  4.907337e+002
      vertex -1.472562e+003 -2.599488e+002  4.898890e+002
      vertex -1.472357e+003 -2.600000e+002  4.898065e+002
    endloop
  endfacet
  facet normal -3.739367e-001 -5.585024e-004 -9.274540e-001
    outer loop
      vertex -1.540676e+003  1.649607e+002  5.174091e+002
      vertex -1.472724e+003  2.598057e+002  4.899547e+002
      vertex -1.472562e+003  2.599488e+002  4.898890e+002
    endloop
  endfacet
  facet normal -3.745544e-001 -4.335886e-005 -9.272049e-001
    outer loop
      vertex -1.540676e+003  1.649607e+002  5.174091e+002
      vertex -1.472562e+003  2.599488e+002  4.898890e+002
      vertex -1.472357e+003  2.600000e+002  4.898065e+002
    endloop
  endfacet
  facet normal -3.746108e-001  3.787660e-006 -9.271821e-001
    outer loop
      vertex -1.540676e+003  1.649607e+002  5.174091e+002
      vertex -1.472357e+003  2.600000e+002  4.898065e+002
      vertex -1.468356e+003  2.600000e+002  4.881898e+002
    endloop
  endfacet
  facet normal -3.746065e-001  -0.000000e+000 -9.271839e-001
    outer loop
      vertex -1.540676e+003  1.649607e+002  5.174091e+002
      vertex -1.468356e+003  2.600000e+002  4.881898e+002
      vertex -1.468356e+003 -2.600000e+002  4.881898e+002
    endloop
  endfacet
  facet normal -3.746065e-001  0.000000e+000 -9.271839e-001
    outer loop
      vertex -1.540676e+003  1.649607e+002  5.174091e+002
      vertex -1.468356e+003 -2.600000e+002  4.881898e+002
      vertex -1.540676e+003 -1.649607e+002  5.174091e+002
    endloop
  endfacet
  facet normal -3.739367e-001  5.585024e-004 -9.274540e-001
    outer loop
      vertex -1.472724e+003 -2.598057e+002  4.899547e+002
      vertex -1.540676e+003 -1.649607e+002  5.174091e+002
      vertex -1.472562e+003 -2.599488e+002  4.898890e+002
    endloop
  endfacet
  facet normal -3.746086e-001 -1.780775e-006 -9.271832e-001
    outer loop
      vertex -1.472562e+003 -2.599488e+002  4.898890e+002
      vertex -1.540676e+003 -1.649607e+002  5.174091e+002
      vertex -1.468356e+003 -2.600000e+002  4.881898e+002
    endloop
  endfacet
  facet normal -3.746108e-001 -2.185112e-004 -9.271821e-001
    outer loop
      vertex -1.472562e+003 -2.599488e+002  4.898890e+002
      vertex -1.468356e+003 -2.600000e+002  4.881898e+002
      vertex -1.472357e+003 -2.600000e+002  4.898065e+002
    endloop
  endfacet
  facet normal -6.560589e-001 -1.224771e-006 -7.547097e-001
    outer loop
      vertex -1.439828e+003  3.175221e+002  2.832951e+002
      vertex -1.376424e+003  3.175221e+002  2.281788e+002
      vertex -1.373466e+003  3.132920e+002  2.256076e+002
    endloop
  endfacet
  facet normal -6.560586e-001  7.031319e-006 -7.547100e-001
    outer loop
      vertex -1.439828e+003  3.175221e+002  2.832951e+002
      vertex -1.373466e+003  3.132920e+002  2.256076e+002
      vertex -1.370182e+003  3.102168e+002  2.227527e+002
    endloop
  endfacet
  facet normal -6.560596e-001 -1.057115e-005 -7.547089e-001
    outer loop
      vertex -1.439828e+003  3.175221e+002  2.832951e+002
      vertex -1.370182e+003  3.102168e+002  2.227527e+002
      vertex -1.366444e+003  3.082512e+002  2.195034e+002
    endloop
  endfacet
  facet normal -6.560598e-001 -1.288648e-005 -7.547088e-001
    outer loop
      vertex -1.439828e+003  3.175221e+002  2.832951e+002
      vertex -1.366444e+003  3.082512e+002  2.195034e+002
      vertex -1.362093e+003  3.070054e+002  2.157210e+002
    endloop
  endfacet
  facet normal -6.560589e-001  -0.000000e+000 -7.547097e-001
    outer loop
      vertex -1.439828e+003  3.175221e+002  2.832951e+002
      vertex -1.362093e+003  3.070054e+002  2.157210e+002
      vertex -1.362093e+003 -3.070054e+002  2.157210e+002
    endloop
  endfacet
  facet normal -6.560588e-001  0.000000e+000 -7.547097e-001
    outer loop
      vertex -1.439828e+003  3.175221e+002  2.832951e+002
      vertex -1.362093e+003 -3.070054e+002  2.157210e+002
      vertex -1.439828e+003 -3.175221e+002  2.832951e+002
    endloop
  endfacet
  facet normal -6.560633e-001  5.787715e-005 -7.547058e-001
    outer loop
      vertex -1.439828e+003 -3.175221e+002  2.832951e+002
      vertex -1.362093e+003 -3.070054e+002  2.157210e+002
      vertex -1.362200e+003 -3.073551e+002  2.158146e+002
    endloop
  endfacet
  facet normal -6.560449e-001 -1.891152e-004 -7.547219e-001
    outer loop
      vertex -1.439828e+003 -3.175221e+002  2.832951e+002
      vertex -1.362200e+003 -3.073551e+002  2.158146e+002
      vertex -1.362462e+003 -3.075053e+002  2.160419e+002
    endloop
  endfacet
  facet normal -6.560623e-001  4.744546e-005 -7.547067e-001
    outer loop
      vertex -1.439828e+003 -3.175221e+002  2.832951e+002
      vertex -1.362462e+003 -3.075053e+002  2.160419e+002
      vertex -1.366444e+003 -3.082512e+002  2.195034e+002
    endloop
  endfacet
  facet normal -6.560596e-001  1.057115e-005 -7.547089e-001
    outer loop
      vertex -1.439828e+003 -3.175221e+002  2.832951e+002
      vertex -1.366444e+003 -3.082512e+002  2.195034e+002
      vertex -1.370182e+003 -3.102168e+002  2.227527e+002
    endloop
  endfacet
  facet normal -6.560586e-001 -7.031319e-006 -7.547100e-001
    outer loop
      vertex -1.439828e+003 -3.175221e+002  2.832951e+002
      vertex -1.370182e+003 -3.102168e+002  2.227527e+002
      vertex -1.373466e+003 -3.132920e+002  2.256076e+002
    endloop
  endfacet
  facet normal -6.560591e-001  6.228168e-006 -7.547095e-001
    outer loop
      vertex -1.439828e+003 -3.175221e+002  2.832951e+002
      vertex -1.373466e+003 -3.132920e+002  2.256076e+002
      vertex -1.376112e+003 -3.173043e+002  2.279080e+002
    endloop
  endfacet
  facet normal -6.560587e-001 -1.938536e-004 -7.547098e-001
    outer loop
      vertex -1.439828e+003 -3.175221e+002  2.832951e+002
      vertex -1.376112e+003 -3.173043e+002  2.279080e+002
      vertex -1.376248e+003 -3.174643e+002  2.280257e+002
    endloop
  endfacet
  facet normal -6.560589e-001  2.078803e-004 -7.547096e-001
    outer loop
      vertex -1.439828e+003 -3.175221e+002  2.832951e+002
      vertex -1.376248e+003 -3.174643e+002  2.280257e+002
      vertex -1.376424e+003 -3.175221e+002  2.281788e+002
    endloop
  endfacet
  facet normal -6.560676e-001 -6.017089e-005 -7.547022e-001
    outer loop
      vertex -1.362093e+003  3.070054e+002  2.157210e+002
      vertex -1.366444e+003  3.082512e+002  2.195034e+002
      vertex -1.362200e+003  3.073551e+002  2.158146e+002
    endloop
  endfacet
  facet normal -6.560333e-001  2.244676e-004 -7.547319e-001
    outer loop
      vertex -1.362200e+003  3.073551e+002  2.158146e+002
      vertex -1.366444e+003  3.082512e+002  2.195034e+002
      vertex -1.362462e+003  3.075053e+002  2.160419e+002
    endloop
  endfacet
  facet normal -6.561278e-001 -8.569358e-005 -7.546498e-001
    outer loop
      vertex -1.373466e+003  3.132920e+002  2.256076e+002
      vertex -1.376424e+003  3.175221e+002  2.281788e+002
      vertex -1.376112e+003  3.173043e+002  2.279080e+002
    endloop
  endfacet
  facet normal -6.559550e-001  3.477848e-004 -7.547999e-001
    outer loop
      vertex -1.376112e+003  3.173043e+002  2.279080e+002
      vertex -1.376424e+003  3.175221e+002  2.281788e+002
      vertex -1.376248e+003  3.174643e+002  2.280257e+002
    endloop
  endfacet
  facet normal  0.000000e+000  1.000000e+000  0.000000e+000
    outer loop
      vertex -1.439828e+003  3.175221e+002  2.832951e+002
      vertex -1.439172e+003  3.175221e+002  2.840498e+002
      vertex -1.376424e+003  3.175221e+002  2.281788e+002
    endloop
  endfacet
  facet normal  0.000000e+000  1.000000e+000  -0.000000e+000
    outer loop
      vertex -1.376424e+003  3.175221e+002  2.281788e+002
      vertex -1.439172e+003  3.175221e+002  2.840498e+002
      vertex -1.375768e+003  3.175221e+002  2.289335e+002
    endloop
  endfacet
  facet normal  1.814359e-001  9.706749e-001 -1.577059e-001
    outer loop
      vertex -1.376424e+003  3.175221e+002  2.281788e+002
      vertex -1.375768e+003  3.175221e+002  2.289335e+002
      vertex -1.376248e+003  3.174643e+002  2.280257e+002
    endloop
  endfacet
  facet normal  1.814270e-001  9.706774e-001 -1.577013e-001
    outer loop
      vertex -1.376248e+003  3.174643e+002  2.280257e+002
      vertex -1.375768e+003  3.175221e+002  2.289335e+002
      vertex -1.375592e+003  3.174643e+002  2.287804e+002
    endloop
  endfacet
  facet normal  5.024614e-001  7.461764e-001 -4.367534e-001
    outer loop
      vertex -1.376248e+003  3.174643e+002  2.280257e+002
      vertex -1.375592e+003  3.174643e+002  2.287804e+002
      vertex -1.376112e+003  3.173043e+002  2.279080e+002
    endloop
  endfacet
  facet normal  5.024813e-001  7.461579e-001 -4.367619e-001
    outer loop
      vertex -1.376112e+003  3.173043e+002  2.279080e+002
      vertex -1.375592e+003  3.174643e+002  2.287804e+002
      vertex -1.375456e+003  3.173043e+002  2.286627e+002
    endloop
  endfacet
  facet normal  2.784126e-001  9.294745e-001 -2.419990e-001
    outer loop
      vertex -1.370182e+003  3.102168e+002  2.227527e+002
      vertex -1.365788e+003  3.082512e+002  2.202581e+002
      vertex -1.366444e+003  3.082512e+002  2.195034e+002
    endloop
  endfacet
  facet normal  1.056423e-001  9.901555e-001 -9.182534e-002
    outer loop
      vertex -1.366444e+003  3.082512e+002  2.195034e+002
      vertex -1.365788e+003  3.082512e+002  2.202581e+002
      vertex -1.361806e+003  3.075053e+002  2.167966e+002
    endloop
  endfacet
  facet normal  1.056423e-001  9.901555e-001 -9.182534e-002
    outer loop
      vertex -1.366444e+003  3.082512e+002  2.195034e+002
      vertex -1.361806e+003  3.075053e+002  2.167966e+002
      vertex -1.362462e+003  3.075053e+002  2.160419e+002
    endloop
  endfacet
  facet normal  2.784126e-001  9.294745e-001 -2.419990e-001
    outer loop
      vertex -1.365788e+003  3.082512e+002  2.202581e+002
      vertex -1.370182e+003  3.102168e+002  2.227527e+002
      vertex -1.369526e+003  3.102168e+002  2.235074e+002
    endloop
  endfacet
  facet normal  4.355737e-001  8.166601e-001 -3.786051e-001
    outer loop
      vertex -1.369526e+003  3.102168e+002  2.235074e+002
      vertex -1.370182e+003  3.102168e+002  2.227527e+002
      vertex -1.373466e+003  3.132920e+002  2.256076e+002
    endloop
  endfacet
  facet normal  4.355706e-001  8.166595e-001 -3.786100e-001
    outer loop
      vertex -1.369526e+003  3.102168e+002  2.235074e+002
      vertex -1.373466e+003  3.132920e+002  2.256076e+002
      vertex -1.372810e+003  3.132920e+002  2.263623e+002
    endloop
  endfacet
  facet normal  5.682946e-001  6.580483e-001 -4.939773e-001
    outer loop
      vertex -1.372810e+003  3.132920e+002  2.263623e+002
      vertex -1.373466e+003  3.132920e+002  2.256076e+002
      vertex -1.376112e+003  3.173043e+002  2.279080e+002
    endloop
  endfacet
  facet normal  5.682989e-001  6.580495e-001 -4.939711e-001
    outer loop
      vertex -1.372810e+003  3.132920e+002  2.263623e+002
      vertex -1.376112e+003  3.173043e+002  2.279080e+002
      vertex -1.375456e+003  3.173043e+002  2.286627e+002
    endloop
  endfacet
  facet normal  3.001522e-001  9.175196e-001 -2.608954e-001
    outer loop
      vertex -1.362462e+003  3.075053e+002  2.160419e+002
      vertex -1.361806e+003  3.075053e+002  2.167966e+002
      vertex -1.362200e+003  3.073551e+002  2.158146e+002
    endloop
  endfacet
  facet normal  3.001522e-001  9.175196e-001 -2.608954e-001
    outer loop
      vertex -1.362200e+003  3.073551e+002  2.158146e+002
      vertex -1.361806e+003  3.075053e+002  2.167966e+002
      vertex -1.361544e+003  3.073551e+002  2.165693e+002
    endloop
  endfacet
  facet normal  6.988376e-001  3.776857e-001 -6.074367e-001
    outer loop
      vertex -1.362200e+003  3.073551e+002  2.158146e+002
      vertex -1.361544e+003  3.073551e+002  2.165693e+002
      vertex -1.362093e+003  3.070054e+002  2.157210e+002
    endloop
  endfacet
  facet normal  6.988376e-001  3.776857e-001 -6.074367e-001
    outer loop
      vertex -1.362093e+003  3.070054e+002  2.157210e+002
      vertex -1.361544e+003  3.073551e+002  2.165693e+002
      vertex -1.361437e+003  3.070054e+002  2.164758e+002
    endloop
  endfacet
  facet normal  7.547382e-001  0.000000e+000 -6.560261e-001
    outer loop
      vertex -1.362093e+003 -3.070054e+002  2.157210e+002
      vertex -1.362093e+003  3.070054e+002  2.157210e+002
      vertex -1.361437e+003 -3.070054e+002  2.164758e+002
    endloop
  endfacet
  facet normal  7.547382e-001  0.000000e+000 -6.560261e-001
    outer loop
      vertex -1.361437e+003 -3.070054e+002  2.164758e+002
      vertex -1.362093e+003  3.070054e+002  2.157210e+002
      vertex -1.361437e+003  3.070054e+002  2.164758e+002
    endloop
  endfacet
  facet normal  6.988376e-001 -3.776857e-001 -6.074367e-001
    outer loop
      vertex -1.362093e+003 -3.070054e+002  2.157210e+002
      vertex -1.361437e+003 -3.070054e+002  2.164758e+002
      vertex -1.362200e+003 -3.073551e+002  2.158146e+002
    endloop
  endfacet
  facet normal  6.988376e-001 -3.776857e-001 -6.074367e-001
    outer loop
      vertex -1.362200e+003 -3.073551e+002  2.158146e+002
      vertex -1.361437e+003 -3.070054e+002  2.164758e+002
      vertex -1.361544e+003 -3.073551e+002  2.165693e+002
    endloop
  endfacet
  facet normal  3.001522e-001 -9.175196e-001 -2.608954e-001
    outer loop
      vertex -1.362200e+003 -3.073551e+002  2.158146e+002
      vertex -1.361544e+003 -3.073551e+002  2.165693e+002
      vertex -1.362462e+003 -3.075053e+002  2.160419e+002
    endloop
  endfacet
  facet normal  3.001522e-001 -9.175196e-001 -2.608954e-001
    outer loop
      vertex -1.362462e+003 -3.075053e+002  2.160419e+002
      vertex -1.361544e+003 -3.073551e+002  2.165693e+002
      vertex -1.361806e+003 -3.075053e+002  2.167966e+002
    endloop
  endfacet
  facet normal  4.355699e-001 -8.166601e-001 -3.786094e-001
    outer loop
      vertex -1.370182e+003 -3.102168e+002  2.227527e+002
      vertex -1.372810e+003 -3.132920e+002  2.263623e+002
      vertex -1.373466e+003 -3.132920e+002  2.256076e+002
    endloop
  endfacet
  facet normal  5.682939e-001 -6.580493e-001 -4.939767e-001
    outer loop
      vertex -1.373466e+003 -3.132920e+002  2.256076e+002
      vertex -1.372810e+003 -3.132920e+002  2.263623e+002
      vertex -1.375456e+003 -3.173043e+002  2.286627e+002
    endloop
  endfacet
  facet normal  5.682996e-001 -6.580484e-001 -4.939717e-001
    outer loop
      vertex -1.373466e+003 -3.132920e+002  2.256076e+002
      vertex -1.375456e+003 -3.173043e+002  2.286627e+002
      vertex -1.376112e+003 -3.173043e+002  2.279080e+002
    endloop
  endfacet
  facet normal  4.355744e-001 -8.166595e-001 -3.786056e-001
    outer loop
      vertex -1.372810e+003 -3.132920e+002  2.263623e+002
      vertex -1.370182e+003 -3.102168e+002  2.227527e+002
      vertex -1.369526e+003 -3.102168e+002  2.235074e+002
    endloop
  endfacet
  facet normal  2.784126e-001 -9.294745e-001 -2.419990e-001
    outer loop
      vertex -1.369526e+003 -3.102168e+002  2.235074e+002
      vertex -1.370182e+003 -3.102168e+002  2.227527e+002
      vertex -1.366444e+003 -3.082512e+002  2.195034e+002
    endloop
  endfacet
  facet normal  2.784126e-001 -9.294745e-001 -2.419990e-001
    outer loop
      vertex -1.369526e+003 -3.102168e+002  2.235074e+002
      vertex -1.366444e+003 -3.082512e+002  2.195034e+002
      vertex -1.365788e+003 -3.082512e+002  2.202581e+002
    endloop
  endfacet
  facet normal  1.056423e-001 -9.901555e-001 -9.182534e-002
    outer loop
      vertex -1.365788e+003 -3.082512e+002  2.202581e+002
      vertex -1.366444e+003 -3.082512e+002  2.195034e+002
      vertex -1.362462e+003 -3.075053e+002  2.160419e+002
    endloop
  endfacet
  facet normal  1.056423e-001 -9.901555e-001 -9.182534e-002
    outer loop
      vertex -1.365788e+003 -3.082512e+002  2.202581e+002
      vertex -1.362462e+003 -3.075053e+002  2.160419e+002
      vertex -1.361806e+003 -3.075053e+002  2.167966e+002
    endloop
  endfacet
  facet normal  5.024657e-001 -7.461762e-001 -4.367483e-001
    outer loop
      vertex -1.376112e+003 -3.173043e+002  2.279080e+002
      vertex -1.375456e+003 -3.173043e+002  2.286627e+002
      vertex -1.376248e+003 -3.174643e+002  2.280257e+002
    endloop
  endfacet
  facet normal  5.024770e-001 -7.461579e-001 -4.367669e-001
    outer loop
      vertex -1.376248e+003 -3.174643e+002  2.280257e+002
      vertex -1.375456e+003 -3.173043e+002  2.286627e+002
      vertex -1.375592e+003 -3.174643e+002  2.287804e+002
    endloop
  endfacet
  facet normal  1.814343e-001 -9.706749e-001 -1.577077e-001
    outer loop
      vertex -1.376248e+003 -3.174643e+002  2.280257e+002
      vertex -1.375592e+003 -3.174643e+002  2.287804e+002
      vertex -1.376424e+003 -3.175221e+002  2.281788e+002
    endloop
  endfacet
  facet normal  1.814285e-001 -9.706773e-001 -1.576995e-001
    outer loop
      vertex -1.376424e+003 -3.175221e+002  2.281788e+002
      vertex -1.375592e+003 -3.174643e+002  2.287804e+002
      vertex -1.375768e+003 -3.175221e+002  2.289335e+002
    endloop
  endfacet
  facet normal  0.000000e+000 -1.000000e+000  0.000000e+000
    outer loop
      vertex -1.439828e+003 -3.175221e+002  2.832951e+002
      vertex -1.376424e+003 -3.175221e+002  2.281788e+002
      vertex -1.439172e+003 -3.175221e+002  2.840498e+002
    endloop
  endfacet
  facet normal  0.000000e+000 -1.000000e+000  0.000000e+000
    outer loop
      vertex -1.439172e+003 -3.175221e+002  2.840498e+002
      vertex -1.376424e+003 -3.175221e+002  2.281788e+002
      vertex -1.375768e+003 -3.175221e+002  2.289335e+002
    endloop
  endfacet
  facet normal  0.000000e+000  1.000000e+000  0.000000e+000
    outer loop
      vertex -1.472357e+003  2.600000e+002  4.898065e+002
      vertex -1.471983e+003  2.600000e+002  4.907337e+002
      vertex -1.468356e+003  2.600000e+002  4.881898e+002
    endloop
  endfacet
  facet normal  0.000000e+000  1.000000e+000  -0.000000e+000
    outer loop
      vertex -1.468356e+003  2.600000e+002  4.881898e+002
      vertex -1.471983e+003  2.600000e+002  4.907337e+002
      vertex -1.467981e+003  2.600000e+002  4.891170e+002
    endloop
  endfacet
  facet normal -2.097337e-001  9.740815e-001  8.471636e-002
    outer loop
      vertex -1.471983e+003  2.600000e+002  4.907337e+002
      vertex -1.472357e+003  2.600000e+002  4.898065e+002
      vertex -1.472187e+003  2.599488e+002  4.908162e+002
    endloop
  endfacet
  facet normal -2.097337e-001  9.740815e-001  8.471636e-002
    outer loop
      vertex -1.472187e+003  2.599488e+002  4.908162e+002
      vertex -1.472357e+003  2.600000e+002  4.898065e+002
      vertex -1.472562e+003  2.599488e+002  4.898890e+002
    endloop
  endfacet
  facet normal -5.864678e-001  7.745577e-001  2.368881e-001
    outer loop
      vertex -1.472187e+003  2.599488e+002  4.908162e+002
      vertex -1.472562e+003  2.599488e+002  4.898890e+002
      vertex -1.472349e+003  2.598057e+002  4.908819e+002
    endloop
  endfacet
  facet normal -5.862138e-001  7.747576e-001  2.368626e-001
    outer loop
      vertex -1.472349e+003  2.598057e+002  4.908819e+002
      vertex -1.472562e+003  2.599488e+002  4.898890e+002
      vertex -1.472724e+003  2.598057e+002  4.899547e+002
    endloop
  endfacet
  facet normal -7.336619e-001  6.114439e-001  2.964398e-001
    outer loop
      vertex -1.540676e+003  1.649607e+002  5.174091e+002
      vertex -1.540302e+003  1.649607e+002  5.183363e+002
      vertex -1.472724e+003  2.598057e+002  4.899547e+002
    endloop
  endfacet
  facet normal -7.336619e-001  6.114439e-001  2.964398e-001
    outer loop
      vertex -1.472724e+003  2.598057e+002  4.899547e+002
      vertex -1.540302e+003  1.649607e+002  5.183363e+002
      vertex -1.472349e+003  2.598057e+002  4.908819e+002
    endloop
  endfacet
  facet normal -9.998518e-001  1.195216e-004 -1.721610e-002
    outer loop
      vertex -1.544323e+003  1.613880e+002  5.518068e+002
      vertex -1.544317e+003  1.615344e+002  5.514533e+002
      vertex -1.544326e+003  1.610344e+002  5.519532e+002
    endloop
  endfacet
  facet normal -9.998477e-001 -1.183580e-004 -1.745396e-002
    outer loop
      vertex -1.544326e+003  1.610344e+002  5.519532e+002
      vertex -1.544317e+003  1.615344e+002  5.514533e+002
      vertex -1.543802e+003  1.615344e+002  5.219578e+002
    endloop
  endfacet
  facet normal -9.998477e-001  0.000000e+000 -1.745199e-002
    outer loop
      vertex -1.544326e+003  1.610344e+002  5.519532e+002
      vertex -1.543802e+003  1.615344e+002  5.219578e+002
      vertex -1.544326e+003 -1.610344e+002  5.519532e+002
    endloop
  endfacet
  facet normal -9.998477e-001  0.000000e+000 -1.745199e-002
    outer loop
      vertex -1.544326e+003 -1.610344e+002  5.519532e+002
      vertex -1.543802e+003  1.615344e+002  5.219578e+002
      vertex -1.543802e+003 -1.615344e+002  5.219578e+002
    endloop
  endfacet
  facet normal -9.998477e-001 -2.195080e-005 -1.745162e-002
    outer loop
      vertex -1.544326e+003 -1.610344e+002  5.519532e+002
      vertex -1.543802e+003 -1.615344e+002  5.219578e+002
      vertex -1.544323e+003 -1.613880e+002  5.518068e+002
    endloop
  endfacet
  facet normal -9.998476e-001  4.547810e-004 -1.745396e-002
    outer loop
      vertex -1.544323e+003 -1.613880e+002  5.518068e+002
      vertex -1.543802e+003 -1.615344e+002  5.219578e+002
      vertex -1.544317e+003 -1.615344e+002  5.514533e+002
    endloop
  endfacet
  facet normal -1.612690e-002 -3.826694e-001  9.237446e-001
    outer loop
      vertex -1.543326e+003 -1.610344e+002  5.519706e+002
      vertex -1.544326e+003 -1.610344e+002  5.519532e+002
      vertex -1.543324e+003 -1.613880e+002  5.518242e+002
    endloop
  endfacet
  facet normal -1.612884e-002 -3.826742e-001  9.237425e-001
    outer loop
      vertex -1.543324e+003 -1.613880e+002  5.518242e+002
      vertex -1.544326e+003 -1.610344e+002  5.519532e+002
      vertex -1.544323e+003 -1.613880e+002  5.518068e+002
    endloop
  endfacet
  facet normal -6.681154e-003 -9.238701e-001  3.826479e-001
    outer loop
      vertex -1.543324e+003 -1.613880e+002  5.518242e+002
      vertex -1.544323e+003 -1.613880e+002  5.518068e+002
      vertex -1.543317e+003 -1.615344e+002  5.514708e+002
    endloop
  endfacet
  facet normal -6.680372e-003 -9.238692e-001  3.826498e-001
    outer loop
      vertex -1.543317e+003 -1.615344e+002  5.514708e+002
      vertex -1.544323e+003 -1.613880e+002  5.518068e+002
      vertex -1.544317e+003 -1.615344e+002  5.514533e+002
    endloop
  endfacet
  facet normal -1.745553e-002  0.000000e+000  9.998477e-001
    outer loop
      vertex -1.544326e+003  1.610344e+002  5.519532e+002
      vertex -1.544326e+003 -1.610344e+002  5.519532e+002
      vertex -1.543326e+003  1.610344e+002  5.519706e+002
    endloop
  endfacet
  facet normal -1.745553e-002  0.000000e+000  9.998477e-001
    outer loop
      vertex -1.543326e+003  1.610344e+002  5.519706e+002
      vertex -1.544326e+003 -1.610344e+002  5.519532e+002
      vertex -1.543326e+003 -1.610344e+002  5.519706e+002
    endloop
  endfacet
  facet normal -6.680338e-003  9.238701e-001  3.826479e-001
    outer loop
      vertex -1.543317e+003  1.615344e+002  5.514708e+002
      vertex -1.544317e+003  1.615344e+002  5.514533e+002
      vertex -1.543324e+003  1.613880e+002  5.518242e+002
    endloop
  endfacet
  facet normal -6.681188e-003  9.238693e-001  3.826498e-001
    outer loop
      vertex -1.543324e+003  1.613880e+002  5.518242e+002
      vertex -1.544317e+003  1.615344e+002  5.514533e+002
      vertex -1.544323e+003  1.613880e+002  5.518068e+002
    endloop
  endfacet
  facet normal -1.612887e-002  3.826694e-001  9.237446e-001
    outer loop
      vertex -1.543324e+003  1.613880e+002  5.518242e+002
      vertex -1.544323e+003  1.613880e+002  5.518068e+002
      vertex -1.543326e+003  1.610344e+002  5.519706e+002
    endloop
  endfacet
  facet normal -1.612687e-002  3.826742e-001  9.237427e-001
    outer loop
      vertex -1.543326e+003  1.610344e+002  5.519706e+002
      vertex -1.544323e+003  1.613880e+002  5.518068e+002
      vertex -1.544326e+003  1.610344e+002  5.519532e+002
    endloop
  endfacet
  facet normal  0.000000e+000  9.999999e-001  0.000000e+000
    outer loop
      vertex -1.544317e+003  1.615344e+002  5.514533e+002
      vertex -1.543317e+003  1.615344e+002  5.514708e+002
      vertex -1.543802e+003  1.615344e+002  5.219578e+002
    endloop
  endfacet
  facet normal  0.000000e+000  9.999999e-001  0.000000e+000
    outer loop
      vertex -1.543802e+003  1.615344e+002  5.219578e+002
      vertex -1.543317e+003  1.615344e+002  5.514708e+002
      vertex -1.542802e+003  1.615344e+002  5.219752e+002
    endloop
  endfacet
  facet normal  9.998476e-001  3.786858e-004  1.745396e-002
    outer loop
      vertex -1.542802e+003 -1.615344e+002  5.219752e+002
      vertex -1.543324e+003 -1.613880e+002  5.518242e+002
      vertex -1.543317e+003 -1.615344e+002  5.514708e+002
    endloop
  endfacet
  facet normal  9.998475e-001 -3.256554e-004  1.745742e-002
    outer loop
      vertex -1.543324e+003 -1.613880e+002  5.518242e+002
      vertex -1.542802e+003 -1.615344e+002  5.219752e+002
      vertex -1.543326e+003 -1.610344e+002  5.519706e+002
    endloop
  endfacet
  facet normal  9.998477e-001  0.000000e+000  1.745199e-002
    outer loop
      vertex -1.543326e+003 -1.610344e+002  5.519706e+002
      vertex -1.542802e+003 -1.615344e+002  5.219752e+002
      vertex -1.542802e+003  1.615344e+002  5.219752e+002
    endloop
  endfacet
  facet normal  9.998477e-001  0.000000e+000  1.745199e-002
    outer loop
      vertex -1.543326e+003 -1.610344e+002  5.519706e+002
      vertex -1.542802e+003  1.615344e+002  5.219752e+002
      vertex -1.543326e+003  1.610344e+002  5.519706e+002
    endloop
  endfacet
  facet normal  9.998477e-001  1.183580e-004  1.745396e-002
    outer loop
      vertex -1.543326e+003  1.610344e+002  5.519706e+002
      vertex -1.542802e+003  1.615344e+002  5.219752e+002
      vertex -1.543317e+003  1.615344e+002  5.514708e+002
    endloop
  endfacet
  facet normal  9.998413e-001  4.698064e-004  1.780539e-002
    outer loop
      vertex -1.543326e+003  1.610344e+002  5.519706e+002
      vertex -1.543317e+003  1.615344e+002  5.514708e+002
      vertex -1.543324e+003  1.613880e+002  5.518242e+002
    endloop
  endfacet
  facet normal  0.000000e+000 -9.999999e-001  0.000000e+000
    outer loop
      vertex -1.544317e+003 -1.615344e+002  5.514533e+002
      vertex -1.543802e+003 -1.615344e+002  5.219578e+002
      vertex -1.543317e+003 -1.615344e+002  5.514708e+002
    endloop
  endfacet
  facet normal  0.000000e+000 -9.999999e-001  -0.000000e+000
    outer loop
      vertex -1.543317e+003 -1.615344e+002  5.514708e+002
      vertex -1.543802e+003 -1.615344e+002  5.219578e+002
      vertex -1.542802e+003 -1.615344e+002  5.219752e+002
    endloop
  endfacet
  facet normal -9.923281e-001  -0.000000e+000 -1.236321e-001
    outer loop
      vertex -1.543802e+003 -1.615344e+002  5.219578e+002
      vertex -1.543802e+003  1.615344e+002  5.219578e+002
      vertex -1.543671e+003 -1.616616e+002  5.209025e+002
    endloop
  endfacet
  facet normal -9.923281e-001  0.000000e+000 -1.236321e-001
    outer loop
      vertex -1.543671e+003 -1.616616e+002  5.209025e+002
      vertex -1.543802e+003  1.615344e+002  5.219578e+002
      vertex -1.543671e+003  1.616616e+002  5.209025e+002
    endloop
  endfacet
  facet normal -9.455776e-001  -0.000000e+000 -3.253966e-001
    outer loop
      vertex -1.543671e+003 -1.616616e+002  5.209025e+002
      vertex -1.543671e+003  1.616616e+002  5.209025e+002
      vertex -1.543343e+003 -1.620114e+002  5.199504e+002
    endloop
  endfacet
  facet normal -9.455777e-001  0.000000e+000 -3.253966e-001
    outer loop
      vertex -1.543343e+003 -1.620114e+002  5.199504e+002
      vertex -1.543671e+003  1.616616e+002  5.209025e+002
      vertex -1.543343e+003  1.620114e+002  5.199504e+002
    endloop
  endfacet
  facet normal -8.411885e-001  -0.000000e+000 -5.407420e-001
    outer loop
      vertex -1.543343e+003 -1.620114e+002  5.199504e+002
      vertex -1.543343e+003  1.620114e+002  5.199504e+002
      vertex -1.542594e+003 -1.628313e+002  5.187845e+002
    endloop
  endfacet
  facet normal -8.411885e-001  0.000000e+000 -5.407420e-001
    outer loop
      vertex -1.542594e+003 -1.628313e+002  5.187845e+002
      vertex -1.543343e+003  1.620114e+002  5.199504e+002
      vertex -1.542594e+003  1.628313e+002  5.187845e+002
    endloop
  endfacet
  facet normal -6.713590e-001  -0.000000e+000 -7.411323e-001
    outer loop
      vertex -1.542594e+003 -1.628313e+002  5.187845e+002
      vertex -1.542594e+003  1.628313e+002  5.187845e+002
      vertex -1.541674e+003 -1.638487e+002  5.179517e+002
    endloop
  endfacet
  facet normal -6.713590e-001  0.000000e+000 -7.411323e-001
    outer loop
      vertex -1.541674e+003 -1.638487e+002  5.179517e+002
      vertex -1.542594e+003  1.628313e+002  5.187845e+002
      vertex -1.541674e+003  1.638487e+002  5.179517e+002
    endloop
  endfacet
  facet normal -4.775493e-001  -0.000000e+000 -8.786049e-001
    outer loop
      vertex -1.541674e+003 -1.638487e+002  5.179517e+002
      vertex -1.541674e+003  1.638487e+002  5.179517e+002
      vertex -1.540676e+003 -1.649607e+002  5.174091e+002
    endloop
  endfacet
  facet normal -4.775494e-001  0.000000e+000 -8.786049e-001
    outer loop
      vertex -1.540676e+003 -1.649607e+002  5.174091e+002
      vertex -1.541674e+003  1.638487e+002  5.179517e+002
      vertex -1.540676e+003  1.649607e+002  5.174091e+002
    endloop
  endfacet
  facet normal -5.883024e-001 -6.954463e-001  4.126196e-001
    outer loop
      vertex -1.541836e+003 -1.628313e+002  5.194366e+002
      vertex -1.541674e+003 -1.638487e+002  5.179517e+002
      vertex -1.541100e+003 -1.638488e+002  5.187703e+002
    endloop
  endfacet
  facet normal -5.745397e-001 -7.124071e-001  4.029643e-001
    outer loop
      vertex -1.541100e+003 -1.638488e+002  5.187703e+002
      vertex -1.541674e+003 -1.638487e+002  5.179517e+002
      vertex -1.540676e+003 -1.649607e+002  5.174091e+002
    endloop
  endfacet
  facet normal -7.196962e-001 -6.304558e-001  2.907969e-001
    outer loop
      vertex -1.541100e+003 -1.638488e+002  5.187703e+002
      vertex -1.540676e+003 -1.649607e+002  5.174091e+002
      vertex -1.540302e+003 -1.649607e+002  5.183363e+002
    endloop
  endfacet
  facet normal -4.154800e-001 -7.707716e-001  4.829986e-001
    outer loop
      vertex -1.541674e+003 -1.638487e+002  5.179517e+002
      vertex -1.541836e+003 -1.628313e+002  5.194366e+002
      vertex -1.542594e+003 -1.628313e+002  5.187845e+002
    endloop
  endfacet
  facet normal -3.901752e-001 -8.012629e-001  4.535870e-001
    outer loop
      vertex -1.542594e+003 -1.628313e+002  5.187845e+002
      vertex -1.541836e+003 -1.628313e+002  5.194366e+002
      vertex -1.542435e+003 -1.620114e+002  5.203693e+002
    endloop
  endfacet
  facet normal -2.147994e-001 -8.585030e-001  4.656543e-001
    outer loop
      vertex -1.542594e+003 -1.628313e+002  5.187845e+002
      vertex -1.542435e+003 -1.620114e+002  5.203693e+002
      vertex -1.543343e+003 -1.620114e+002  5.199504e+002
    endloop
  endfacet
  facet normal -1.675238e-001 -9.165398e-001  3.631675e-001
    outer loop
      vertex -1.543343e+003 -1.620114e+002  5.199504e+002
      vertex -1.542435e+003 -1.620114e+002  5.203693e+002
      vertex -1.542697e+003 -1.616617e+002  5.211310e+002
    endloop
  endfacet
  facet normal -7.530562e-002 -9.441227e-001  3.208761e-001
    outer loop
      vertex -1.543343e+003 -1.620114e+002  5.199504e+002
      vertex -1.542697e+003 -1.616617e+002  5.211310e+002
      vertex -1.543671e+003 -1.616616e+002  5.209025e+002
    endloop
  endfacet
  facet normal -3.398500e-002 -9.888813e-001  1.447719e-001
    outer loop
      vertex -1.543671e+003 -1.616616e+002  5.209025e+002
      vertex -1.542697e+003 -1.616617e+002  5.211310e+002
      vertex -1.542802e+003 -1.615344e+002  5.219752e+002
    endloop
  endfacet
  facet normal -2.084796e-003 -9.928420e-001  1.194165e-001
    outer loop
      vertex -1.543671e+003 -1.616616e+002  5.209025e+002
      vertex -1.542802e+003 -1.615344e+002  5.219752e+002
      vertex -1.543802e+003 -1.615344e+002  5.219578e+002
    endloop
  endfacet
  facet normal  9.455854e-001  0.000000e+000  3.253741e-001
    outer loop
      vertex -1.542435e+003 -1.620114e+002  5.203693e+002
      vertex -1.542697e+003  1.616617e+002  5.211310e+002
      vertex -1.542697e+003 -1.616617e+002  5.211310e+002
    endloop
  endfacet
  facet normal  9.923220e-001  -0.000000e+000  1.236815e-001
    outer loop
      vertex -1.542697e+003 -1.616617e+002  5.211310e+002
      vertex -1.542697e+003  1.616617e+002  5.211310e+002
      vertex -1.542802e+003  1.615344e+002  5.219752e+002
    endloop
  endfacet
  facet normal  9.923220e-001  0.000000e+000  1.236816e-001
    outer loop
      vertex -1.542697e+003 -1.616617e+002  5.211310e+002
      vertex -1.542802e+003  1.615344e+002  5.219752e+002
      vertex -1.542802e+003 -1.615344e+002  5.219752e+002
    endloop
  endfacet
  facet normal  9.455854e-001  -0.000000e+000  3.253741e-001
    outer loop
      vertex -1.542697e+003  1.616617e+002  5.211310e+002
      vertex -1.542435e+003 -1.620114e+002  5.203693e+002
      vertex -1.542435e+003  1.620114e+002  5.203693e+002
    endloop
  endfacet
  facet normal  8.412160e-001  0.000000e+000  5.406991e-001
    outer loop
      vertex -1.542435e+003  1.620114e+002  5.203693e+002
      vertex -1.542435e+003 -1.620114e+002  5.203693e+002
      vertex -1.541836e+003 -1.628313e+002  5.194366e+002
    endloop
  endfacet
  facet normal  8.412160e-001  -0.000000e+000  5.406991e-001
    outer loop
      vertex -1.542435e+003  1.620114e+002  5.203693e+002
      vertex -1.541836e+003 -1.628313e+002  5.194366e+002
      vertex -1.541836e+003  1.628313e+002  5.194366e+002
    endloop
  endfacet
  facet normal  6.714076e-001  0.000000e+000  7.410884e-001
    outer loop
      vertex -1.541836e+003  1.628313e+002  5.194366e+002
      vertex -1.541836e+003 -1.628313e+002  5.194366e+002
      vertex -1.541100e+003 -1.638488e+002  5.187703e+002
    endloop
  endfacet
  facet normal  6.714076e-001  -0.000000e+000  7.410883e-001
    outer loop
      vertex -1.541836e+003  1.628313e+002  5.194366e+002
      vertex -1.541100e+003 -1.638488e+002  5.187703e+002
      vertex -1.541100e+003  1.638488e+002  5.187703e+002
    endloop
  endfacet
  facet normal  4.774638e-001  0.000000e+000  8.786514e-001
    outer loop
      vertex -1.541100e+003  1.638488e+002  5.187703e+002
      vertex -1.541100e+003 -1.638488e+002  5.187703e+002
      vertex -1.540302e+003 -1.649607e+002  5.183363e+002
    endloop
  endfacet
  facet normal  4.774638e-001  -0.000000e+000  8.786514e-001
    outer loop
      vertex -1.541100e+003  1.638488e+002  5.187703e+002
      vertex -1.540302e+003 -1.649607e+002  5.183363e+002
      vertex -1.540302e+003  1.649607e+002  5.183363e+002
    endloop
  endfacet
  facet normal -7.196962e-001  6.304558e-001  2.907969e-001
    outer loop
      vertex -1.540302e+003  1.649607e+002  5.183363e+002
      vertex -1.540676e+003  1.649607e+002  5.174091e+002
      vertex -1.541100e+003  1.638488e+002  5.187703e+002
    endloop
  endfacet
  facet normal -5.745397e-001  7.124071e-001  4.029643e-001
    outer loop
      vertex -1.541100e+003  1.638488e+002  5.187703e+002
      vertex -1.540676e+003  1.649607e+002  5.174091e+002
      vertex -1.541674e+003  1.638487e+002  5.179517e+002
    endloop
  endfacet
  facet normal -5.883024e-001  6.954463e-001  4.126196e-001
    outer loop
      vertex -1.541100e+003  1.638488e+002  5.187703e+002
      vertex -1.541674e+003  1.638487e+002  5.179517e+002
      vertex -1.541836e+003  1.628313e+002  5.194366e+002
    endloop
  endfacet
  facet normal -4.154800e-001  7.707716e-001  4.829986e-001
    outer loop
      vertex -1.541836e+003  1.628313e+002  5.194366e+002
      vertex -1.541674e+003  1.638487e+002  5.179517e+002
      vertex -1.542594e+003  1.628313e+002  5.187845e+002
    endloop
  endfacet
  facet normal -3.901752e-001  8.012629e-001  4.535870e-001
    outer loop
      vertex -1.541836e+003  1.628313e+002  5.194366e+002
      vertex -1.542594e+003  1.628313e+002  5.187845e+002
      vertex -1.542435e+003  1.620114e+002  5.203693e+002
    endloop
  endfacet
  facet normal -2.147994e-001  8.585030e-001  4.656543e-001
    outer loop
      vertex -1.542435e+003  1.620114e+002  5.203693e+002
      vertex -1.542594e+003  1.628313e+002  5.187845e+002
      vertex -1.543343e+003  1.620114e+002  5.199504e+002
    endloop
  endfacet
  facet normal -1.675238e-001  9.165398e-001  3.631675e-001
    outer loop
      vertex -1.542435e+003  1.620114e+002  5.203693e+002
      vertex -1.543343e+003  1.620114e+002  5.199504e+002
      vertex -1.542697e+003  1.616617e+002  5.211310e+002
    endloop
  endfacet
  facet normal -7.530562e-002  9.441227e-001  3.208761e-001
    outer loop
      vertex -1.542697e+003  1.616617e+002  5.211310e+002
      vertex -1.543343e+003  1.620114e+002  5.199504e+002
      vertex -1.543671e+003  1.616616e+002  5.209025e+002
    endloop
  endfacet
  facet normal -3.398500e-002  9.888813e-001  1.447719e-001
    outer loop
      vertex -1.542697e+003  1.616617e+002  5.211310e+002
      vertex -1.543671e+003  1.616616e+002  5.209025e+002
      vertex -1.542802e+003  1.615344e+002  5.219752e+002
    endloop
  endfacet
  facet normal -2.084796e-003  9.928420e-001  1.194165e-001
    outer loop
      vertex -1.542802e+003  1.615344e+002  5.219752e+002
      vertex -1.543671e+003  1.616616e+002  5.209025e+002
      vertex -1.543802e+003  1.615344e+002  5.219578e+002
    endloop
  endfacet
  facet normal  0.000000e+000 -9.999999e-001  0.000000e+000
    outer loop
      vertex -1.441510e+003 -3.175221e+002  2.864593e+002
      vertex -1.440962e+003 -3.175221e+002  2.847213e+002
      vertex -1.440518e+003 -3.175221e+002  2.865812e+002
    endloop
  endfacet
  facet normal  0.000000e+000 -1.000000e+000  0.000000e+000
    outer loop
      vertex -1.440518e+003 -3.175221e+002  2.865812e+002
      vertex -1.440962e+003 -3.175221e+002  2.847213e+002
      vertex -1.440079e+003 -3.175221e+002  2.851908e+002
    endloop
  endfacet
  facet normal  0.000000e+000 -9.999999e-001  -0.000000e+000
    outer loop
      vertex -1.440079e+003 -3.175221e+002  2.851908e+002
      vertex -1.440962e+003 -3.175221e+002  2.847213e+002
      vertex -1.439828e+003 -3.175221e+002  2.832951e+002
    endloop
  endfacet
  facet normal  0.000000e+000 -1.000000e+000  0.000000e+000
    outer loop
      vertex -1.440079e+003 -3.175221e+002  2.851908e+002
      vertex -1.439828e+003 -3.175221e+002  2.832951e+002
      vertex -1.439172e+003 -3.175221e+002  2.840498e+002
    endloop
  endfacet
  facet normal  7.826384e-001  0.000000e+000  6.224766e-001
    outer loop
      vertex -1.439172e+003  3.175221e+002  2.840498e+002
      vertex -1.440079e+003  3.175221e+002  2.851908e+002
      vertex -1.439172e+003 -3.175221e+002  2.840498e+002
    endloop
  endfacet
  facet normal  7.826384e-001  0.000000e+000  6.224766e-001
    outer loop
      vertex -1.439172e+003 -3.175221e+002  2.840498e+002
      vertex -1.440079e+003  3.175221e+002  2.851908e+002
      vertex -1.440079e+003 -3.175221e+002  2.851908e+002
    endloop
  endfacet
  facet normal  9.536990e-001  0.000000e+000  3.007627e-001
    outer loop
      vertex -1.440079e+003  3.175221e+002  2.851908e+002
      vertex -1.440518e+003  3.175221e+002  2.865812e+002
      vertex -1.440079e+003 -3.175221e+002  2.851908e+002
    endloop
  endfacet
  facet normal  9.536990e-001  0.000000e+000  3.007627e-001
    outer loop
      vertex -1.440079e+003 -3.175221e+002  2.851908e+002
      vertex -1.440518e+003  3.175221e+002  2.865812e+002
      vertex -1.440518e+003 -3.175221e+002  2.865812e+002
    endloop
  endfacet
  facet normal  0.000000e+000  9.999999e-001  -0.000000e+000
    outer loop
      vertex -1.440518e+003  3.175221e+002  2.865812e+002
      vertex -1.440962e+003  3.175221e+002  2.847213e+002
      vertex -1.441510e+003  3.175221e+002  2.864593e+002
    endloop
  endfacet
  facet normal  0.000000e+000  1.000000e+000  -0.000000e+000
    outer loop
      vertex -1.439172e+003  3.175221e+002  2.840498e+002
      vertex -1.439828e+003  3.175221e+002  2.832951e+002
      vertex -1.440079e+003  3.175221e+002  2.851908e+002
    endloop
  endfacet
  facet normal  0.000000e+000  9.999999e-001  0.000000e+000
    outer loop
      vertex -1.440079e+003  3.175221e+002  2.851908e+002
      vertex -1.439828e+003  3.175221e+002  2.832951e+002
      vertex -1.440962e+003  3.175221e+002  2.847213e+002
    endloop
  endfacet
  facet normal  0.000000e+000  1.000000e+000  0.000000e+000
    outer loop
      vertex -1.440079e+003  3.175221e+002  2.851908e+002
      vertex -1.440962e+003  3.175221e+002  2.847213e+002
      vertex -1.440518e+003  3.175221e+002  2.865812e+002
    endloop
  endfacet
  facet normal -3.368168e-002  9.610411e-001  2.743458e-001
    outer loop
      vertex -1.440518e+003  3.175221e+002  2.865812e+002
      vertex -1.441510e+003  3.175221e+002  2.864593e+002
      vertex -1.464891e+003  2.600000e+002  4.850904e+002
    endloop
  endfacet
  facet normal -3.368168e-002  9.610411e-001  2.743458e-001
    outer loop
      vertex -1.464891e+003  2.600000e+002  4.850904e+002
      vertex -1.441510e+003  3.175221e+002  2.864593e+002
      vertex -1.465884e+003  2.600000e+002  4.849686e+002
    endloop
  endfacet
  facet normal  9.925463e-001  0.000000e+000  1.218689e-001
    outer loop
      vertex -1.440518e+003 -3.175221e+002  2.865812e+002
      vertex -1.440518e+003  3.175221e+002  2.865812e+002
      vertex -1.464891e+003 -2.600000e+002  4.850904e+002
    endloop
  endfacet
  facet normal  9.925462e-001  -0.000000e+000  1.218689e-001
    outer loop
      vertex -1.464891e+003 -2.600000e+002  4.850904e+002
      vertex -1.440518e+003  3.175221e+002  2.865812e+002
      vertex -1.464891e+003  2.600000e+002  4.850904e+002
    endloop
  endfacet
  facet normal -3.368168e-002 -9.610411e-001  2.743458e-001
    outer loop
      vertex -1.464891e+003 -2.600000e+002  4.850904e+002
      vertex -1.465884e+003 -2.600000e+002  4.849686e+002
      vertex -1.440518e+003 -3.175221e+002  2.865812e+002
    endloop
  endfacet
  facet normal -3.368168e-002 -9.610411e-001  2.743458e-001
    outer loop
      vertex -1.440518e+003 -3.175221e+002  2.865812e+002
      vertex -1.465884e+003 -2.600000e+002  4.849686e+002
      vertex -1.441510e+003 -3.175221e+002  2.864593e+002
    endloop
  endfacet
  facet normal -9.925462e-001  -0.000000e+000 -1.218689e-001
    outer loop
      vertex -1.465884e+003 -2.600000e+002  4.849686e+002
      vertex -1.465884e+003  2.600000e+002  4.849686e+002
      vertex -1.441510e+003 -3.175221e+002  2.864593e+002
    endloop
  endfacet
  facet normal -9.925463e-001  0.000000e+000 -1.218689e-001
    outer loop
      vertex -1.441510e+003 -3.175221e+002  2.864593e+002
      vertex -1.465884e+003  2.600000e+002  4.849686e+002
      vertex -1.441510e+003  3.175221e+002  2.864593e+002
    endloop
  endfacet
  facet normal -7.826237e-001  0.000000e+000 -6.224951e-001
    outer loop
      vertex -1.439828e+003  3.175221e+002  2.832951e+002
      vertex -1.439828e+003 -3.175221e+002  2.832951e+002
      vertex -1.440962e+003  3.175221e+002  2.847213e+002
    endloop
  endfacet
  facet normal -7.826237e-001  -0.000000e+000 -6.224951e-001
    outer loop
      vertex -1.440962e+003  3.175221e+002  2.847213e+002
      vertex -1.439828e+003 -3.175221e+002  2.832951e+002
      vertex -1.440962e+003 -3.175221e+002  2.847213e+002
    endloop
  endfacet
  facet normal -9.537005e-001  0.000000e+000 -3.007579e-001
    outer loop
      vertex -1.440962e+003  3.175221e+002  2.847213e+002
      vertex -1.440962e+003 -3.175221e+002  2.847213e+002
      vertex -1.441510e+003  3.175221e+002  2.864593e+002
    endloop
  endfacet
  facet normal -9.537005e-001  -0.000000e+000 -3.007579e-001
    outer loop
      vertex -1.441510e+003  3.175221e+002  2.864593e+002
      vertex -1.440962e+003 -3.175221e+002  2.847213e+002
      vertex -1.441510e+003 -3.175221e+002  2.864593e+002
    endloop
  endfacet
  facet normal  -0.000000e+000 -1.000000e+000  0.000000e+000
    outer loop
      vertex -1.465884e+003 -2.600000e+002  4.849686e+002
      vertex -1.464891e+003 -2.600000e+002  4.850904e+002
      vertex -1.466681e+003 -2.600000e+002  4.869161e+002
    endloop
  endfacet
  facet normal  0.000000e+000 -9.999999e-001  0.000000e+000
    outer loop
      vertex -1.466681e+003 -2.600000e+002  4.869161e+002
      vertex -1.464891e+003 -2.600000e+002  4.850904e+002
      vertex -1.465887e+003 -2.600000e+002  4.875249e+002
    endloop
  endfacet
  facet normal  -0.000000e+000 -1.000000e+000  0.000000e+000
    outer loop
      vertex -1.466681e+003 -2.600000e+002  4.869161e+002
      vertex -1.465887e+003 -2.600000e+002  4.875249e+002
      vertex -1.468356e+003 -2.600000e+002  4.881898e+002
    endloop
  endfacet
  facet normal  0.000000e+000 -1.000000e+000  0.000000e+000
    outer loop
      vertex -1.468356e+003 -2.600000e+002  4.881898e+002
      vertex -1.465887e+003 -2.600000e+002  4.875249e+002
      vertex -1.467981e+003 -2.600000e+002  4.891170e+002
    endloop
  endfacet
  facet normal  6.052959e-001  -0.000000e+000  7.960005e-001
    outer loop
      vertex -1.467981e+003  2.600000e+002  4.891170e+002
      vertex -1.467981e+003 -2.600000e+002  4.891170e+002
      vertex -1.465887e+003  2.600000e+002  4.875249e+002
    endloop
  endfacet
  facet normal  6.052959e-001  0.000000e+000  7.960005e-001
    outer loop
      vertex -1.465887e+003  2.600000e+002  4.875249e+002
      vertex -1.467981e+003 -2.600000e+002  4.891170e+002
      vertex -1.465887e+003 -2.600000e+002  4.875249e+002
    endloop
  endfacet
  facet normal  9.255388e-001  -0.000000e+000  3.786527e-001
    outer loop
      vertex -1.465887e+003  2.600000e+002  4.875249e+002
      vertex -1.465887e+003 -2.600000e+002  4.875249e+002
      vertex -1.464891e+003  2.600000e+002  4.850904e+002
    endloop
  endfacet
  facet normal  9.255388e-001  0.000000e+000  3.786527e-001
    outer loop
      vertex -1.464891e+003  2.600000e+002  4.850904e+002
      vertex -1.465887e+003 -2.600000e+002  4.875249e+002
      vertex -1.464891e+003 -2.600000e+002  4.850904e+002
    endloop
  endfacet
  facet normal  0.000000e+000  1.000000e+000  0.000000e+000
    outer loop
      vertex -1.465884e+003  2.600000e+002  4.849686e+002
      vertex -1.466681e+003  2.600000e+002  4.869161e+002
      vertex -1.464891e+003  2.600000e+002  4.850904e+002
    endloop
  endfacet
  facet normal  0.000000e+000  9.999999e-001  0.000000e+000
    outer loop
      vertex -1.464891e+003  2.600000e+002  4.850904e+002
      vertex -1.466681e+003  2.600000e+002  4.869161e+002
      vertex -1.465887e+003  2.600000e+002  4.875249e+002
    endloop
  endfacet
  facet normal  0.000000e+000  1.000000e+000  0.000000e+000
    outer loop
      vertex -1.466681e+003  2.600000e+002  4.869161e+002
      vertex -1.468356e+003  2.600000e+002  4.881898e+002
      vertex -1.465887e+003  2.600000e+002  4.875249e+002
    endloop
  endfacet
  facet normal  0.000000e+000  1.000000e+000  0.000000e+000
    outer loop
      vertex -1.465887e+003  2.600000e+002  4.875249e+002
      vertex -1.468356e+003  2.600000e+002  4.881898e+002
      vertex -1.467981e+003  2.600000e+002  4.891170e+002
    endloop
  endfacet
  facet normal -6.053146e-001  0.000000e+000 -7.959864e-001
    outer loop
      vertex -1.468356e+003  2.600000e+002  4.881898e+002
      vertex -1.466681e+003  2.600000e+002  4.869161e+002
      vertex -1.468356e+003 -2.600000e+002  4.881898e+002
    endloop
  endfacet
  facet normal -6.053146e-001  0.000000e+000 -7.959864e-001
    outer loop
      vertex -1.468356e+003 -2.600000e+002  4.881898e+002
      vertex -1.466681e+003  2.600000e+002  4.869161e+002
      vertex -1.466681e+003 -2.600000e+002  4.869161e+002
    endloop
  endfacet
  facet normal -9.255213e-001  0.000000e+000 -3.786955e-001
    outer loop
      vertex -1.466681e+003  2.600000e+002  4.869161e+002
      vertex -1.465884e+003  2.600000e+002  4.849686e+002
      vertex -1.466681e+003 -2.600000e+002  4.869161e+002
    endloop
  endfacet
  facet normal -9.255213e-001  0.000000e+000 -3.786955e-001
    outer loop
      vertex -1.466681e+003 -2.600000e+002  4.869161e+002
      vertex -1.465884e+003  2.600000e+002  4.849686e+002
      vertex -1.465884e+003 -2.600000e+002  4.849686e+002
    endloop
  endfacet
endsolid CATIA STL
