solid CATIA STL
  facet normal  0.000000e+000  0.000000e+000 -9.999999e-001
    outer loop
      vertex -3.285240e+002 -1.722000e+002 -4.000000e+001
      vertex -6.560000e+002 -1.730000e+002 -4.000000e+001
      vertex -6.560000e+002  1.730000e+002 -4.000000e+001
    endloop
  endfacet
  facet normal  0.000000e+000  0.000000e+000 -1.000000e+000
    outer loop
      vertex -3.285240e+002 -1.722000e+002 -4.000000e+001
      vertex -6.560000e+002  1.730000e+002 -4.000000e+001
      vertex -3.285240e+002  1.722000e+002 -4.000000e+001
    endloop
  endfacet
  facet normal  0.000000e+000  0.000000e+000 -9.999999e-001
    outer loop
      vertex -3.285240e+002 -1.722000e+002 -4.000000e+001
      vertex -3.285240e+002  1.722000e+002 -4.000000e+001
      vertex  5.000000e+001  1.800000e+002 -4.000000e+001
    endloop
  endfacet
  facet normal  0.000000e+000  -0.000000e+000 -1.000000e+000
    outer loop
      vertex -3.285240e+002 -1.722000e+002 -4.000000e+001
      vertex  5.000000e+001  1.800000e+002 -4.000000e+001
      vertex  5.000000e+001 -1.800000e+002 -4.000000e+001
    endloop
  endfacet
  facet normal  0.000000e+000  -0.000000e+000  1.000000e+000
    outer loop
      vertex -3.285240e+002 -1.722000e+002 -2.000000e+001
      vertex  5.000000e+001 -1.800000e+002 -2.000000e+001
      vertex  5.000000e+001  1.800000e+002 -2.000000e+001
    endloop
  endfacet
  facet normal  0.000000e+000  0.000000e+000  1.000000e+000
    outer loop
      vertex -3.285240e+002 -1.722000e+002 -2.000000e+001
      vertex  5.000000e+001  1.800000e+002 -2.000000e+001
      vertex -3.285240e+002  1.722000e+002 -2.000000e+001
    endloop
  endfacet
  facet normal  0.000000e+000  0.000000e+000  1.000000e+000
    outer loop
      vertex -3.285240e+002 -1.722000e+002 -2.000000e+001
      vertex -3.285240e+002  1.722000e+002 -2.000000e+001
      vertex -6.560000e+002  1.730000e+002 -2.000000e+001
    endloop
  endfacet
  facet normal  0.000000e+000  0.000000e+000  9.999999e-001
    outer loop
      vertex -3.285240e+002 -1.722000e+002 -2.000000e+001
      vertex -6.560000e+002  1.730000e+002 -2.000000e+001
      vertex -6.560000e+002 -1.730000e+002 -2.000000e+001
    endloop
  endfacet
  facet normal  2.442929e-003  9.999970e-001  0.000000e+000
    outer loop
      vertex -6.560000e+002  1.730000e+002 -4.000000e+001
      vertex -6.560000e+002  1.730000e+002 -2.000000e+001
      vertex -3.285240e+002  1.722000e+002 -4.000000e+001
    endloop
  endfacet
  facet normal  2.442929e-003  9.999970e-001  -0.000000e+000
    outer loop
      vertex -3.285240e+002  1.722000e+002 -4.000000e+001
      vertex -6.560000e+002  1.730000e+002 -2.000000e+001
      vertex -3.285240e+002  1.722000e+002 -2.000000e+001
    endloop
  endfacet
  facet normal -2.060199e-002  9.997878e-001  0.000000e+000
    outer loop
      vertex -3.285240e+002  1.722000e+002 -4.000000e+001
      vertex -3.285240e+002  1.722000e+002 -2.000000e+001
      vertex  5.000000e+001  1.800000e+002 -4.000000e+001
    endloop
  endfacet
  facet normal -2.060199e-002  9.997878e-001  0.000000e+000
    outer loop
      vertex  5.000000e+001  1.800000e+002 -4.000000e+001
      vertex -3.285240e+002  1.722000e+002 -2.000000e+001
      vertex  5.000000e+001  1.800000e+002 -2.000000e+001
    endloop
  endfacet
  facet normal  1.000000e+000  0.000000e+000  0.000000e+000
    outer loop
      vertex  5.000000e+001 -1.800000e+002 -4.000000e+001
      vertex  5.000000e+001  1.800000e+002 -4.000000e+001
      vertex  5.000000e+001 -1.800000e+002 -2.000000e+001
    endloop
  endfacet
  facet normal  1.000000e+000  -0.000000e+000  0.000000e+000
    outer loop
      vertex  5.000000e+001 -1.800000e+002 -2.000000e+001
      vertex  5.000000e+001  1.800000e+002 -4.000000e+001
      vertex  5.000000e+001  1.800000e+002 -2.000000e+001
    endloop
  endfacet
  facet normal -2.060199e-002 -9.997878e-001  0.000000e+000
    outer loop
      vertex -3.285240e+002 -1.722000e+002 -4.000000e+001
      vertex  5.000000e+001 -1.800000e+002 -4.000000e+001
      vertex -3.285240e+002 -1.722000e+002 -2.000000e+001
    endloop
  endfacet
  facet normal -2.060199e-002 -9.997878e-001  0.000000e+000
    outer loop
      vertex -3.285240e+002 -1.722000e+002 -2.000000e+001
      vertex  5.000000e+001 -1.800000e+002 -4.000000e+001
      vertex  5.000000e+001 -1.800000e+002 -2.000000e+001
    endloop
  endfacet
  facet normal  2.442929e-003 -9.999970e-001  0.000000e+000
    outer loop
      vertex -6.560000e+002 -1.730000e+002 -4.000000e+001
      vertex -3.285240e+002 -1.722000e+002 -4.000000e+001
      vertex -6.560000e+002 -1.730000e+002 -2.000000e+001
    endloop
  endfacet
  facet normal  2.442929e-003 -9.999970e-001  0.000000e+000
    outer loop
      vertex -6.560000e+002 -1.730000e+002 -2.000000e+001
      vertex -3.285240e+002 -1.722000e+002 -4.000000e+001
      vertex -3.285240e+002 -1.722000e+002 -2.000000e+001
    endloop
  endfacet
  facet normal -1.000000e+000  0.000000e+000  0.000000e+000
    outer loop
      vertex -6.560000e+002 -1.730000e+002 -4.000000e+001
      vertex -6.560000e+002 -1.730000e+002 -2.000000e+001
      vertex -6.560000e+002  1.730000e+002 -4.000000e+001
    endloop
  endfacet
  facet normal -1.000000e+000  0.000000e+000  0.000000e+000
    outer loop
      vertex -6.560000e+002  1.730000e+002 -4.000000e+001
      vertex -6.560000e+002 -1.730000e+002 -2.000000e+001
      vertex -6.560000e+002  1.730000e+002 -2.000000e+001
    endloop
  endfacet
endsolid CATIA STL
