solid CATIA STL
  facet normal  8.607998e-002  0.000000e+000 -9.962883e-001
    outer loop
      vertex -1.393808e+003  2.150000e+002 -1.038738e+002
      vertex -6.530733e+002  1.730000e+002 -3.987380e+001
      vertex -1.393808e+003 -2.150000e+002 -1.038738e+002
    endloop
  endfacet
  facet normal  8.607998e-002  0.000000e+000 -9.962882e-001
    outer loop
      vertex -1.393808e+003 -2.150000e+002 -1.038738e+002
      vertex -6.530733e+002  1.730000e+002 -3.987380e+001
      vertex -6.530733e+002 -1.730000e+002 -3.987380e+001
    endloop
  endfacet
  facet normal -8.607997e-002  0.000000e+000  9.962882e-001
    outer loop
      vertex -1.395530e+003  2.150000e+002 -8.394804e+001
      vertex -1.395530e+003 -2.150000e+002 -8.394804e+001
      vertex -6.547949e+002  1.730000e+002 -1.994803e+001
    endloop
  endfacet
  facet normal -8.607997e-002  0.000000e+000  9.962882e-001
    outer loop
      vertex -6.547949e+002  1.730000e+002 -1.994803e+001
      vertex -1.395530e+003 -2.150000e+002 -8.394804e+001
      vertex -6.547949e+002 -1.730000e+002 -1.994803e+001
    endloop
  endfacet
  facet normal  5.619070e-002  9.984082e-001  4.855141e-003
    outer loop
      vertex -1.393808e+003  2.150000e+002 -1.038738e+002
      vertex -1.395530e+003  2.150000e+002 -8.394804e+001
      vertex -6.530733e+002  1.730000e+002 -3.987380e+001
    endloop
  endfacet
  facet normal  5.619072e-002  9.984082e-001  4.854798e-003
    outer loop
      vertex -6.530733e+002  1.730000e+002 -3.987380e+001
      vertex -1.395530e+003  2.150000e+002 -8.394804e+001
      vertex -6.547949e+002  1.730000e+002 -1.994803e+001
    endloop
  endfacet
  facet normal  9.962884e-001  0.000000e+000  8.607790e-002
    outer loop
      vertex -6.530733e+002  1.730000e+002 -3.987380e+001
      vertex -6.547949e+002  1.730000e+002 -1.994803e+001
      vertex -6.530733e+002 -1.730000e+002 -3.987380e+001
    endloop
  endfacet
  facet normal  9.962884e-001  0.000000e+000  8.607790e-002
    outer loop
      vertex -6.530733e+002 -1.730000e+002 -3.987380e+001
      vertex -6.547949e+002  1.730000e+002 -1.994803e+001
      vertex -6.547949e+002 -1.730000e+002 -1.994803e+001
    endloop
  endfacet
  facet normal  5.619070e-002 -9.984083e-001  4.855142e-003
    outer loop
      vertex -1.393808e+003 -2.150000e+002 -1.038738e+002
      vertex -6.530733e+002 -1.730000e+002 -3.987380e+001
      vertex -1.395530e+003 -2.150000e+002 -8.394804e+001
    endloop
  endfacet
  facet normal  5.619073e-002 -9.984083e-001  4.854799e-003
    outer loop
      vertex -1.395530e+003 -2.150000e+002 -8.394804e+001
      vertex -6.530733e+002 -1.730000e+002 -3.987380e+001
      vertex -6.547949e+002 -1.730000e+002 -1.994803e+001
    endloop
  endfacet
  facet normal -9.962879e-001  0.000000e+000 -8.608396e-002
    outer loop
      vertex -1.393808e+003  2.150000e+002 -1.038738e+002
      vertex -1.393808e+003 -2.150000e+002 -1.038738e+002
      vertex -1.395530e+003  2.150000e+002 -8.394804e+001
    endloop
  endfacet
  facet normal -9.962879e-001  -0.000000e+000 -8.608396e-002
    outer loop
      vertex -1.395530e+003  2.150000e+002 -8.394804e+001
      vertex -1.393808e+003 -2.150000e+002 -1.038738e+002
      vertex -1.395530e+003 -2.150000e+002 -8.394804e+001
    endloop
  endfacet
endsolid CATIA STL
