solid CATIA STL
  facet normal  0.000000e+000  9.807853e-001 -1.950904e-001
    outer loop
      vertex  6.000000e-001  9.500000e+000 -2.326752e-015
      vertex  9.400000e+000  9.500000e+000 -2.326752e-015
      vertex  6.000000e-001  8.776855e+000 -3.635493e+000
    endloop
  endfacet
  facet normal  0.000000e+000  9.807853e-001 -1.950904e-001
    outer loop
      vertex  6.000000e-001  8.776855e+000 -3.635493e+000
      vertex  9.400000e+000  9.500000e+000 -2.326752e-015
      vertex  9.400000e+000  8.776855e+000 -3.635493e+000
    endloop
  endfacet
  facet normal  0.000000e+000  8.314697e-001 -5.555702e-001
    outer loop
      vertex  6.000000e-001  8.776855e+000 -3.635493e+000
      vertex  9.400000e+000  8.776855e+000 -3.635493e+000
      vertex  6.000000e-001  6.717515e+000 -6.717515e+000
    endloop
  endfacet
  facet normal  0.000000e+000  8.314697e-001 -5.555702e-001
    outer loop
      vertex  6.000000e-001  6.717515e+000 -6.717515e+000
      vertex  9.400000e+000  8.776855e+000 -3.635493e+000
      vertex  9.400000e+000  6.717515e+000 -6.717515e+000
    endloop
  endfacet
  facet normal  0.000000e+000  5.555702e-001 -8.314697e-001
    outer loop
      vertex  6.000000e-001  6.717515e+000 -6.717515e+000
      vertex  9.400000e+000  6.717515e+000 -6.717515e+000
      vertex  6.000000e-001  3.635493e+000 -8.776855e+000
    endloop
  endfacet
  facet normal  0.000000e+000  5.555702e-001 -8.314697e-001
    outer loop
      vertex  6.000000e-001  3.635493e+000 -8.776855e+000
      vertex  9.400000e+000  6.717515e+000 -6.717515e+000
      vertex  9.400000e+000  3.635493e+000 -8.776855e+000
    endloop
  endfacet
  facet normal  0.000000e+000  1.950904e-001 -9.807853e-001
    outer loop
      vertex  6.000000e-001  3.635493e+000 -8.776855e+000
      vertex  9.400000e+000  3.635493e+000 -8.776855e+000
      vertex  6.000000e-001 -1.745064e-015 -9.500000e+000
    endloop
  endfacet
  facet normal  0.000000e+000  1.950904e-001 -9.807853e-001
    outer loop
      vertex  6.000000e-001 -1.745064e-015 -9.500000e+000
      vertex  9.400000e+000  3.635493e+000 -8.776855e+000
      vertex  9.400000e+000 -1.745064e-015 -9.500000e+000
    endloop
  endfacet
  facet normal  -0.000000e+000 -1.950904e-001 -9.807853e-001
    outer loop
      vertex  6.000000e-001 -1.745064e-015 -9.500000e+000
      vertex  9.400000e+000 -1.745064e-015 -9.500000e+000
      vertex  6.000000e-001 -3.635493e+000 -8.776855e+000
    endloop
  endfacet
  facet normal  0.000000e+000 -1.950904e-001 -9.807853e-001
    outer loop
      vertex  6.000000e-001 -3.635493e+000 -8.776855e+000
      vertex  9.400000e+000 -1.745064e-015 -9.500000e+000
      vertex  9.400000e+000 -3.635493e+000 -8.776855e+000
    endloop
  endfacet
  facet normal  -0.000000e+000 -5.555702e-001 -8.314697e-001
    outer loop
      vertex  6.000000e-001 -3.635493e+000 -8.776855e+000
      vertex  9.400000e+000 -3.635493e+000 -8.776855e+000
      vertex  6.000000e-001 -6.717515e+000 -6.717515e+000
    endloop
  endfacet
  facet normal  0.000000e+000 -5.555702e-001 -8.314697e-001
    outer loop
      vertex  6.000000e-001 -6.717515e+000 -6.717515e+000
      vertex  9.400000e+000 -3.635493e+000 -8.776855e+000
      vertex  9.400000e+000 -6.717515e+000 -6.717515e+000
    endloop
  endfacet
  facet normal  -0.000000e+000 -8.314697e-001 -5.555702e-001
    outer loop
      vertex  6.000000e-001 -6.717515e+000 -6.717515e+000
      vertex  9.400000e+000 -6.717515e+000 -6.717515e+000
      vertex  6.000000e-001 -8.776855e+000 -3.635493e+000
    endloop
  endfacet
  facet normal  0.000000e+000 -8.314697e-001 -5.555702e-001
    outer loop
      vertex  6.000000e-001 -8.776855e+000 -3.635493e+000
      vertex  9.400000e+000 -6.717515e+000 -6.717515e+000
      vertex  9.400000e+000 -8.776855e+000 -3.635493e+000
    endloop
  endfacet
  facet normal  -0.000000e+000 -9.807853e-001 -1.950904e-001
    outer loop
      vertex  6.000000e-001 -8.776855e+000 -3.635493e+000
      vertex  9.400000e+000 -8.776855e+000 -3.635493e+000
      vertex  6.000000e-001 -9.500000e+000  5.382224e-015
    endloop
  endfacet
  facet normal  0.000000e+000 -9.807853e-001 -1.950904e-001
    outer loop
      vertex  6.000000e-001 -9.500000e+000  5.382224e-015
      vertex  9.400000e+000 -8.776855e+000 -3.635493e+000
      vertex  9.400000e+000 -9.500000e+000  5.382224e-015
    endloop
  endfacet
  facet normal  0.000000e+000 -9.807853e-001  1.950904e-001
    outer loop
      vertex  6.000000e-001 -9.500000e+000  5.382224e-015
      vertex  9.400000e+000 -9.500000e+000  5.382224e-015
      vertex  6.000000e-001 -8.776855e+000  3.635493e+000
    endloop
  endfacet
  facet normal  0.000000e+000 -9.807853e-001  1.950904e-001
    outer loop
      vertex  6.000000e-001 -8.776855e+000  3.635493e+000
      vertex  9.400000e+000 -9.500000e+000  5.382224e-015
      vertex  9.400000e+000 -8.776855e+000  3.635493e+000
    endloop
  endfacet
  facet normal  0.000000e+000 -8.314697e-001  5.555702e-001
    outer loop
      vertex  6.000000e-001 -8.776855e+000  3.635493e+000
      vertex  9.400000e+000 -8.776855e+000  3.635493e+000
      vertex  6.000000e-001 -6.717515e+000  6.717515e+000
    endloop
  endfacet
  facet normal  0.000000e+000 -8.314697e-001  5.555702e-001
    outer loop
      vertex  6.000000e-001 -6.717515e+000  6.717515e+000
      vertex  9.400000e+000 -8.776855e+000  3.635493e+000
      vertex  9.400000e+000 -6.717515e+000  6.717515e+000
    endloop
  endfacet
  facet normal  0.000000e+000 -5.555702e-001  8.314697e-001
    outer loop
      vertex  6.000000e-001 -6.717515e+000  6.717515e+000
      vertex  9.400000e+000 -6.717515e+000  6.717515e+000
      vertex  6.000000e-001 -3.635493e+000  8.776855e+000
    endloop
  endfacet
  facet normal  0.000000e+000 -5.555702e-001  8.314697e-001
    outer loop
      vertex  6.000000e-001 -3.635493e+000  8.776855e+000
      vertex  9.400000e+000 -6.717515e+000  6.717515e+000
      vertex  9.400000e+000 -3.635493e+000  8.776855e+000
    endloop
  endfacet
  facet normal  0.000000e+000 -1.950904e-001  9.807853e-001
    outer loop
      vertex  6.000000e-001 -3.635493e+000  8.776855e+000
      vertex  9.400000e+000 -3.635493e+000  8.776855e+000
      vertex  6.000000e-001  4.800536e-015  9.500000e+000
    endloop
  endfacet
  facet normal  0.000000e+000 -1.950904e-001  9.807853e-001
    outer loop
      vertex  6.000000e-001  4.800536e-015  9.500000e+000
      vertex  9.400000e+000 -3.635493e+000  8.776855e+000
      vertex  9.400000e+000  4.800536e-015  9.500000e+000
    endloop
  endfacet
  facet normal  0.000000e+000  1.950904e-001  9.807853e-001
    outer loop
      vertex  6.000000e-001  4.800536e-015  9.500000e+000
      vertex  9.400000e+000  4.800536e-015  9.500000e+000
      vertex  6.000000e-001  3.635493e+000  8.776855e+000
    endloop
  endfacet
  facet normal  -0.000000e+000  1.950904e-001  9.807853e-001
    outer loop
      vertex  6.000000e-001  3.635493e+000  8.776855e+000
      vertex  9.400000e+000  4.800536e-015  9.500000e+000
      vertex  9.400000e+000  3.635493e+000  8.776855e+000
    endloop
  endfacet
  facet normal  0.000000e+000  5.555702e-001  8.314697e-001
    outer loop
      vertex  6.000000e-001  3.635493e+000  8.776855e+000
      vertex  9.400000e+000  3.635493e+000  8.776855e+000
      vertex  6.000000e-001  6.717515e+000  6.717515e+000
    endloop
  endfacet
  facet normal  -0.000000e+000  5.555702e-001  8.314697e-001
    outer loop
      vertex  6.000000e-001  6.717515e+000  6.717515e+000
      vertex  9.400000e+000  3.635493e+000  8.776855e+000
      vertex  9.400000e+000  6.717515e+000  6.717515e+000
    endloop
  endfacet
  facet normal  0.000000e+000  8.314697e-001  5.555702e-001
    outer loop
      vertex  6.000000e-001  6.717515e+000  6.717515e+000
      vertex  9.400000e+000  6.717515e+000  6.717515e+000
      vertex  6.000000e-001  8.776855e+000  3.635493e+000
    endloop
  endfacet
  facet normal  -0.000000e+000  8.314697e-001  5.555702e-001
    outer loop
      vertex  6.000000e-001  8.776855e+000  3.635493e+000
      vertex  9.400000e+000  6.717515e+000  6.717515e+000
      vertex  9.400000e+000  8.776855e+000  3.635493e+000
    endloop
  endfacet
  facet normal  0.000000e+000  9.807853e-001  1.950904e-001
    outer loop
      vertex  6.000000e-001  8.776855e+000  3.635493e+000
      vertex  9.400000e+000  8.776855e+000  3.635493e+000
      vertex  6.000000e-001  9.500000e+000 -2.326752e-015
    endloop
  endfacet
  facet normal  -0.000000e+000  9.807853e-001  1.950904e-001
    outer loop
      vertex  6.000000e-001  9.500000e+000 -2.326752e-015
      vertex  9.400000e+000  8.776855e+000  3.635493e+000
      vertex  9.400000e+000  9.500000e+000 -2.326752e-015
    endloop
  endfacet
  facet normal  1.000000e+000  0.000000e+000  0.000000e+000
    outer loop
      vertex  1.000000e+001 -7.591444e-008  9.281618e+000
      vertex  1.000000e+001 -1.668907e+000  7.311959e+000
      vertex  1.000000e+001  3.551921e+000  8.575097e+000
    endloop
  endfacet
  facet normal  1.000000e+000  0.000000e+000  0.000000e+000
    outer loop
      vertex  1.000000e+001  3.551921e+000  8.575097e+000
      vertex  1.000000e+001 -1.668907e+000  7.311959e+000
      vertex  1.000000e+001  1.668907e+000  7.311959e+000
    endloop
  endfacet
  facet normal  1.000000e+000  -0.000000e+000  0.000000e+000
    outer loop
      vertex  1.000000e+001  3.551921e+000  8.575097e+000
      vertex  1.000000e+001  1.668907e+000  7.311959e+000
      vertex  1.000000e+001  6.563095e+000  6.563095e+000
    endloop
  endfacet
  facet normal  1.000000e+000  0.000000e+000  0.000000e+000
    outer loop
      vertex  1.000000e+001  6.563095e+000  6.563095e+000
      vertex  1.000000e+001  1.668907e+000  7.311959e+000
      vertex  1.000000e+001  4.676174e+000  5.863736e+000
    endloop
  endfacet
  facet normal  1.000000e+000  -0.000000e+000  0.000000e+000
    outer loop
      vertex  1.000000e+001  6.563095e+000  6.563095e+000
      vertex  1.000000e+001  4.676174e+000  5.863736e+000
      vertex  1.000000e+001  8.575097e+000  3.551921e+000
    endloop
  endfacet
  facet normal  1.000000e+000  0.000000e+000  0.000000e+000
    outer loop
      vertex  1.000000e+001  8.575097e+000  3.551921e+000
      vertex  1.000000e+001  4.676174e+000  5.863736e+000
      vertex  1.000000e+001  6.757267e+000  3.254128e+000
    endloop
  endfacet
  facet normal  1.000000e+000  -0.000000e+000  0.000000e+000
    outer loop
      vertex  1.000000e+001  8.575097e+000  3.551921e+000
      vertex  1.000000e+001  6.757267e+000  3.254128e+000
      vertex  1.000000e+001  9.281618e+000  5.658297e-015
    endloop
  endfacet
  facet normal  1.000000e+000  0.000000e+000  0.000000e+000
    outer loop
      vertex  1.000000e+001  9.281618e+000  5.658297e-015
      vertex  1.000000e+001  6.757267e+000  3.254128e+000
      vertex  1.000000e+001  7.500000e+000  0.000000e+000
    endloop
  endfacet
  facet normal  9.999999e-001  -0.000000e+000  0.000000e+000
    outer loop
      vertex  1.000000e+001  9.281618e+000  5.658297e-015
      vertex  1.000000e+001  7.500000e+000  0.000000e+000
      vertex  1.000000e+001  8.575097e+000 -3.551921e+000
    endloop
  endfacet
  facet normal  1.000000e+000  0.000000e+000  0.000000e+000
    outer loop
      vertex  1.000000e+001  8.575097e+000 -3.551921e+000
      vertex  1.000000e+001  7.500000e+000  0.000000e+000
      vertex  1.000000e+001  6.757267e+000 -3.254128e+000
    endloop
  endfacet
  facet normal  1.000000e+000  0.000000e+000  0.000000e+000
    outer loop
      vertex  1.000000e+001  8.575097e+000 -3.551921e+000
      vertex  1.000000e+001  6.757267e+000 -3.254128e+000
      vertex  1.000000e+001  6.563095e+000 -6.563095e+000
    endloop
  endfacet
  facet normal  9.999999e-001  0.000000e+000  -0.000000e+000
    outer loop
      vertex  1.000000e+001  6.563095e+000 -6.563095e+000
      vertex  1.000000e+001  6.757267e+000 -3.254128e+000
      vertex  1.000000e+001  4.676174e+000 -5.863736e+000
    endloop
  endfacet
  facet normal  9.999999e-001  0.000000e+000  0.000000e+000
    outer loop
      vertex  1.000000e+001  6.563095e+000 -6.563095e+000
      vertex  1.000000e+001  4.676174e+000 -5.863736e+000
      vertex  1.000000e+001  3.551921e+000 -8.575097e+000
    endloop
  endfacet
  facet normal  1.000000e+000  0.000000e+000  -0.000000e+000
    outer loop
      vertex  1.000000e+001  3.551921e+000 -8.575097e+000
      vertex  1.000000e+001  4.676174e+000 -5.863736e+000
      vertex  1.000000e+001  1.668907e+000 -7.311959e+000
    endloop
  endfacet
  facet normal  1.000000e+000  0.000000e+000  0.000000e+000
    outer loop
      vertex  1.000000e+001  3.551921e+000 -8.575097e+000
      vertex  1.000000e+001  1.668907e+000 -7.311959e+000
      vertex  1.000000e+001 -1.704949e-015 -9.281618e+000
    endloop
  endfacet
  facet normal  9.999999e-001  0.000000e+000  -0.000000e+000
    outer loop
      vertex  1.000000e+001 -1.704949e-015 -9.281618e+000
      vertex  1.000000e+001  1.668907e+000 -7.311959e+000
      vertex  1.000000e+001 -1.668907e+000 -7.311959e+000
    endloop
  endfacet
  facet normal  1.000000e+000  0.000000e+000  0.000000e+000
    outer loop
      vertex  1.000000e+001 -1.704949e-015 -9.281618e+000
      vertex  1.000000e+001 -1.668907e+000 -7.311959e+000
      vertex  1.000000e+001 -3.551921e+000 -8.575097e+000
    endloop
  endfacet
  facet normal  1.000000e+000  0.000000e+000  0.000000e+000
    outer loop
      vertex  1.000000e+001 -3.551921e+000 -8.575097e+000
      vertex  1.000000e+001 -1.668907e+000 -7.311959e+000
      vertex  1.000000e+001 -6.563095e+000 -6.563095e+000
    endloop
  endfacet
  facet normal  1.000000e+000  -0.000000e+000  0.000000e+000
    outer loop
      vertex  1.000000e+001 -6.563095e+000 -6.563095e+000
      vertex  1.000000e+001 -1.668907e+000 -7.311959e+000
      vertex  1.000000e+001 -4.676174e+000 -5.863736e+000
    endloop
  endfacet
  facet normal  1.000000e+000  0.000000e+000  0.000000e+000
    outer loop
      vertex  1.000000e+001 -6.563095e+000 -6.563095e+000
      vertex  1.000000e+001 -4.676174e+000 -5.863736e+000
      vertex  1.000000e+001 -8.575097e+000 -3.551921e+000
    endloop
  endfacet
  facet normal  1.000000e+000  -0.000000e+000  0.000000e+000
    outer loop
      vertex  1.000000e+001 -8.575097e+000 -3.551921e+000
      vertex  1.000000e+001 -4.676174e+000 -5.863736e+000
      vertex  1.000000e+001 -6.757267e+000 -3.254128e+000
    endloop
  endfacet
  facet normal  1.000000e+000  0.000000e+000  0.000000e+000
    outer loop
      vertex  1.000000e+001 -8.575097e+000 -3.551921e+000
      vertex  1.000000e+001 -6.757267e+000 -3.254128e+000
      vertex  1.000000e+001 -9.281618e+000 -1.518289e-007
    endloop
  endfacet
  facet normal  1.000000e+000  -0.000000e+000  0.000000e+000
    outer loop
      vertex  1.000000e+001 -9.281618e+000 -1.518289e-007
      vertex  1.000000e+001 -6.757267e+000 -3.254128e+000
      vertex  1.000000e+001 -7.500000e+000  4.249124e-015
    endloop
  endfacet
  facet normal  9.999999e-001  0.000000e+000  0.000000e+000
    outer loop
      vertex  1.000000e+001 -9.281618e+000 -1.518289e-007
      vertex  1.000000e+001 -7.500000e+000  4.249124e-015
      vertex  1.000000e+001 -8.575097e+000  3.551921e+000
    endloop
  endfacet
  facet normal  1.000000e+000  0.000000e+000  0.000000e+000
    outer loop
      vertex  1.000000e+001 -8.575097e+000  3.551921e+000
      vertex  1.000000e+001 -7.500000e+000  4.249124e-015
      vertex  1.000000e+001 -6.757267e+000  3.254128e+000
    endloop
  endfacet
  facet normal  1.000000e+000  0.000000e+000  -0.000000e+000
    outer loop
      vertex  1.000000e+001 -8.575097e+000  3.551921e+000
      vertex  1.000000e+001 -6.757267e+000  3.254128e+000
      vertex  1.000000e+001 -6.563095e+000  6.563095e+000
    endloop
  endfacet
  facet normal  1.000000e+000  0.000000e+000  0.000000e+000
    outer loop
      vertex  1.000000e+001 -6.563095e+000  6.563095e+000
      vertex  1.000000e+001 -6.757267e+000  3.254128e+000
      vertex  1.000000e+001 -4.676174e+000  5.863736e+000
    endloop
  endfacet
  facet normal  9.999999e-001  0.000000e+000  -0.000000e+000
    outer loop
      vertex  1.000000e+001 -6.563095e+000  6.563095e+000
      vertex  1.000000e+001 -4.676174e+000  5.863736e+000
      vertex  1.000000e+001 -3.551921e+000  8.575097e+000
    endloop
  endfacet
  facet normal  1.000000e+000  0.000000e+000  0.000000e+000
    outer loop
      vertex  1.000000e+001 -3.551921e+000  8.575097e+000
      vertex  1.000000e+001 -4.676174e+000  5.863736e+000
      vertex  1.000000e+001 -1.668907e+000  7.311959e+000
    endloop
  endfacet
  facet normal  9.999999e-001  0.000000e+000  -0.000000e+000
    outer loop
      vertex  1.000000e+001 -3.551921e+000  8.575097e+000
      vertex  1.000000e+001 -1.668907e+000  7.311959e+000
      vertex  1.000000e+001 -7.591444e-008  9.281618e+000
    endloop
  endfacet
  facet normal  3.361968e-001 -1.837345e-001 -9.236955e-001
    outer loop
      vertex  9.400000e+000 -1.745064e-015 -9.500000e+000
      vertex  1.000000e+001 -3.551921e+000 -8.575097e+000
      vertex  9.400000e+000 -3.635493e+000 -8.776855e+000
    endloop
  endfacet
  facet normal  3.361969e-001 -5.232314e-001 -7.830712e-001
    outer loop
      vertex  9.400000e+000 -3.635493e+000 -8.776855e+000
      vertex  1.000000e+001 -3.551921e+000 -8.575097e+000
      vertex  1.000000e+001 -6.563095e+000 -6.563095e+000
    endloop
  endfacet
  facet normal  3.361973e-001 -5.232314e-001 -7.830712e-001
    outer loop
      vertex  9.400000e+000 -3.635493e+000 -8.776855e+000
      vertex  1.000000e+001 -6.563095e+000 -6.563095e+000
      vertex  9.400000e+000 -6.717515e+000 -6.717515e+000
    endloop
  endfacet
  facet normal  3.361973e-001 -7.830711e-001 -5.232314e-001
    outer loop
      vertex  9.400000e+000 -6.717515e+000 -6.717515e+000
      vertex  1.000000e+001 -6.563095e+000 -6.563095e+000
      vertex  1.000000e+001 -8.575097e+000 -3.551921e+000
    endloop
  endfacet
  facet normal  3.361969e-001 -7.830712e-001 -5.232314e-001
    outer loop
      vertex  9.400000e+000 -6.717515e+000 -6.717515e+000
      vertex  1.000000e+001 -8.575097e+000 -3.551921e+000
      vertex  9.400000e+000 -8.776855e+000 -3.635493e+000
    endloop
  endfacet
  facet normal  3.361968e-001 -9.236954e-001 -1.837344e-001
    outer loop
      vertex  9.400000e+000 -8.776855e+000 -3.635493e+000
      vertex  1.000000e+001 -8.575097e+000 -3.551921e+000
      vertex  1.000000e+001 -9.281618e+000 -1.518289e-007
    endloop
  endfacet
  facet normal  3.361970e-001 -9.236954e-001 -1.837345e-001
    outer loop
      vertex  9.400000e+000 -8.776855e+000 -3.635493e+000
      vertex  1.000000e+001 -9.281618e+000 -1.518289e-007
      vertex  9.400000e+000 -9.500000e+000  5.382224e-015
    endloop
  endfacet
  facet normal  3.361970e-001 -1.837344e-001 -9.236953e-001
    outer loop
      vertex  1.000000e+001 -3.551921e+000 -8.575097e+000
      vertex  9.400000e+000 -1.745064e-015 -9.500000e+000
      vertex  1.000000e+001 -1.704949e-015 -9.281618e+000
    endloop
  endfacet
  facet normal  3.361970e-001  1.837345e-001 -9.236954e-001
    outer loop
      vertex  1.000000e+001 -1.704949e-015 -9.281618e+000
      vertex  9.400000e+000 -1.745064e-015 -9.500000e+000
      vertex  9.400000e+000  3.635493e+000 -8.776855e+000
    endloop
  endfacet
  facet normal  3.361968e-001  1.837344e-001 -9.236954e-001
    outer loop
      vertex  1.000000e+001 -1.704949e-015 -9.281618e+000
      vertex  9.400000e+000  3.635493e+000 -8.776855e+000
      vertex  1.000000e+001  3.551921e+000 -8.575097e+000
    endloop
  endfacet
  facet normal  3.361969e-001  5.232314e-001 -7.830712e-001
    outer loop
      vertex  1.000000e+001  3.551921e+000 -8.575097e+000
      vertex  9.400000e+000  3.635493e+000 -8.776855e+000
      vertex  9.400000e+000  6.717515e+000 -6.717515e+000
    endloop
  endfacet
  facet normal  3.361973e-001  5.232314e-001 -7.830711e-001
    outer loop
      vertex  1.000000e+001  3.551921e+000 -8.575097e+000
      vertex  9.400000e+000  6.717515e+000 -6.717515e+000
      vertex  1.000000e+001  6.563095e+000 -6.563095e+000
    endloop
  endfacet
  facet normal  3.361973e-001  7.830712e-001 -5.232314e-001
    outer loop
      vertex  1.000000e+001  6.563095e+000 -6.563095e+000
      vertex  9.400000e+000  6.717515e+000 -6.717515e+000
      vertex  9.400000e+000  8.776855e+000 -3.635493e+000
    endloop
  endfacet
  facet normal  3.361969e-001  7.830712e-001 -5.232314e-001
    outer loop
      vertex  1.000000e+001  6.563095e+000 -6.563095e+000
      vertex  9.400000e+000  8.776855e+000 -3.635493e+000
      vertex  1.000000e+001  8.575097e+000 -3.551921e+000
    endloop
  endfacet
  facet normal  3.361968e-001  9.236955e-001 -1.837345e-001
    outer loop
      vertex  1.000000e+001  8.575097e+000 -3.551921e+000
      vertex  9.400000e+000  8.776855e+000 -3.635493e+000
      vertex  9.400000e+000  9.500000e+000 -2.326752e-015
    endloop
  endfacet
  facet normal  3.361970e-001  9.236953e-001 -1.837344e-001
    outer loop
      vertex  1.000000e+001  8.575097e+000 -3.551921e+000
      vertex  9.400000e+000  9.500000e+000 -2.326752e-015
      vertex  1.000000e+001  9.281618e+000  5.658297e-015
    endloop
  endfacet
  facet normal  3.361968e-001  1.837345e-001  9.236955e-001
    outer loop
      vertex  9.400000e+000  4.800536e-015  9.500000e+000
      vertex  1.000000e+001  3.551921e+000  8.575097e+000
      vertex  9.400000e+000  3.635493e+000  8.776855e+000
    endloop
  endfacet
  facet normal  3.361969e-001  5.232314e-001  7.830712e-001
    outer loop
      vertex  9.400000e+000  3.635493e+000  8.776855e+000
      vertex  1.000000e+001  3.551921e+000  8.575097e+000
      vertex  1.000000e+001  6.563095e+000  6.563095e+000
    endloop
  endfacet
  facet normal  3.361973e-001  5.232314e-001  7.830712e-001
    outer loop
      vertex  9.400000e+000  3.635493e+000  8.776855e+000
      vertex  1.000000e+001  6.563095e+000  6.563095e+000
      vertex  9.400000e+000  6.717515e+000  6.717515e+000
    endloop
  endfacet
  facet normal  3.361973e-001  7.830711e-001  5.232314e-001
    outer loop
      vertex  9.400000e+000  6.717515e+000  6.717515e+000
      vertex  1.000000e+001  6.563095e+000  6.563095e+000
      vertex  1.000000e+001  8.575097e+000  3.551921e+000
    endloop
  endfacet
  facet normal  3.361969e-001  7.830712e-001  5.232314e-001
    outer loop
      vertex  9.400000e+000  6.717515e+000  6.717515e+000
      vertex  1.000000e+001  8.575097e+000  3.551921e+000
      vertex  9.400000e+000  8.776855e+000  3.635493e+000
    endloop
  endfacet
  facet normal  3.361968e-001  9.236954e-001  1.837344e-001
    outer loop
      vertex  9.400000e+000  8.776855e+000  3.635493e+000
      vertex  1.000000e+001  8.575097e+000  3.551921e+000
      vertex  1.000000e+001  9.281618e+000  5.658297e-015
    endloop
  endfacet
  facet normal  3.361970e-001  9.236954e-001  1.837345e-001
    outer loop
      vertex  9.400000e+000  8.776855e+000  3.635493e+000
      vertex  1.000000e+001  9.281618e+000  5.658297e-015
      vertex  9.400000e+000  9.500000e+000 -2.326752e-015
    endloop
  endfacet
  facet normal  3.361970e-001  1.837344e-001  9.236954e-001
    outer loop
      vertex  1.000000e+001  3.551921e+000  8.575097e+000
      vertex  9.400000e+000  4.800536e-015  9.500000e+000
      vertex  1.000000e+001 -7.591444e-008  9.281618e+000
    endloop
  endfacet
  facet normal  3.361970e-001 -1.837345e-001  9.236954e-001
    outer loop
      vertex  1.000000e+001 -7.591444e-008  9.281618e+000
      vertex  9.400000e+000  4.800536e-015  9.500000e+000
      vertex  9.400000e+000 -3.635493e+000  8.776855e+000
    endloop
  endfacet
  facet normal  3.361968e-001 -1.837344e-001  9.236954e-001
    outer loop
      vertex  1.000000e+001 -7.591444e-008  9.281618e+000
      vertex  9.400000e+000 -3.635493e+000  8.776855e+000
      vertex  1.000000e+001 -3.551921e+000  8.575097e+000
    endloop
  endfacet
  facet normal  3.361969e-001 -5.232314e-001  7.830712e-001
    outer loop
      vertex  1.000000e+001 -3.551921e+000  8.575097e+000
      vertex  9.400000e+000 -3.635493e+000  8.776855e+000
      vertex  9.400000e+000 -6.717515e+000  6.717515e+000
    endloop
  endfacet
  facet normal  3.361978e-001 -5.232313e-001  7.830709e-001
    outer loop
      vertex  1.000000e+001 -3.551921e+000  8.575097e+000
      vertex  9.400000e+000 -6.717515e+000  6.717515e+000
      vertex  1.000000e+001 -6.563095e+000  6.563095e+000
    endloop
  endfacet
  facet normal  3.361976e-001 -7.830710e-001  5.232313e-001
    outer loop
      vertex  1.000000e+001 -6.563095e+000  6.563095e+000
      vertex  9.400000e+000 -6.717515e+000  6.717515e+000
      vertex  9.400000e+000 -8.776855e+000  3.635493e+000
    endloop
  endfacet
  facet normal  3.361969e-001 -7.830712e-001  5.232315e-001
    outer loop
      vertex  1.000000e+001 -6.563095e+000  6.563095e+000
      vertex  9.400000e+000 -8.776855e+000  3.635493e+000
      vertex  1.000000e+001 -8.575097e+000  3.551921e+000
    endloop
  endfacet
  facet normal  3.361968e-001 -9.236955e-001  1.837345e-001
    outer loop
      vertex  1.000000e+001 -8.575097e+000  3.551921e+000
      vertex  9.400000e+000 -8.776855e+000  3.635493e+000
      vertex  9.400000e+000 -9.500000e+000  5.382224e-015
    endloop
  endfacet
  facet normal  3.361971e-001 -9.236954e-001  1.837344e-001
    outer loop
      vertex  1.000000e+001 -8.575097e+000  3.551921e+000
      vertex  9.400000e+000 -9.500000e+000  5.382224e-015
      vertex  1.000000e+001 -9.281618e+000 -1.518289e-007
    endloop
  endfacet
  facet normal -1.000000e+000  0.000000e+000  -0.000000e+000
    outer loop
      vertex  0.000000e+000 -3.551921e+000 -8.575097e+000
      vertex  0.000000e+000 -1.668907e+000 -7.311959e+000
      vertex  0.000000e+000 -1.704949e-015 -9.281618e+000
    endloop
  endfacet
  facet normal -9.999999e-001  0.000000e+000  0.000000e+000
    outer loop
      vertex  0.000000e+000 -1.704949e-015 -9.281618e+000
      vertex  0.000000e+000 -1.668907e+000 -7.311959e+000
      vertex  0.000000e+000  1.668907e+000 -7.311959e+000
    endloop
  endfacet
  facet normal -1.000000e+000  0.000000e+000  -0.000000e+000
    outer loop
      vertex  0.000000e+000 -1.704949e-015 -9.281618e+000
      vertex  0.000000e+000  1.668907e+000 -7.311959e+000
      vertex  0.000000e+000  3.551921e+000 -8.575097e+000
    endloop
  endfacet
  facet normal -1.000000e+000  0.000000e+000  0.000000e+000
    outer loop
      vertex  0.000000e+000  3.551921e+000 -8.575097e+000
      vertex  0.000000e+000  1.668907e+000 -7.311959e+000
      vertex  0.000000e+000  4.676174e+000 -5.863736e+000
    endloop
  endfacet
  facet normal -9.999999e-001  0.000000e+000  -0.000000e+000
    outer loop
      vertex  0.000000e+000  3.551921e+000 -8.575097e+000
      vertex  0.000000e+000  4.676174e+000 -5.863736e+000
      vertex  0.000000e+000  6.563095e+000 -6.563095e+000
    endloop
  endfacet
  facet normal -9.999999e-001  0.000000e+000  0.000000e+000
    outer loop
      vertex  0.000000e+000  6.563095e+000 -6.563095e+000
      vertex  0.000000e+000  4.676174e+000 -5.863736e+000
      vertex  0.000000e+000  6.757267e+000 -3.254128e+000
    endloop
  endfacet
  facet normal -1.000000e+000  0.000000e+000  -0.000000e+000
    outer loop
      vertex  0.000000e+000  6.563095e+000 -6.563095e+000
      vertex  0.000000e+000  6.757267e+000 -3.254128e+000
      vertex  0.000000e+000  8.575097e+000 -3.551921e+000
    endloop
  endfacet
  facet normal -1.000000e+000  0.000000e+000  0.000000e+000
    outer loop
      vertex  0.000000e+000  8.575097e+000 -3.551921e+000
      vertex  0.000000e+000  6.757267e+000 -3.254128e+000
      vertex  0.000000e+000  7.500000e+000  0.000000e+000
    endloop
  endfacet
  facet normal -9.999999e-001  0.000000e+000  0.000000e+000
    outer loop
      vertex  0.000000e+000  8.575097e+000 -3.551921e+000
      vertex  0.000000e+000  7.500000e+000  0.000000e+000
      vertex  0.000000e+000  9.281618e+000  7.182252e-015
    endloop
  endfacet
  facet normal -1.000000e+000  -0.000000e+000  0.000000e+000
    outer loop
      vertex  0.000000e+000  9.281618e+000  7.182252e-015
      vertex  0.000000e+000  7.500000e+000  0.000000e+000
      vertex  0.000000e+000  6.757267e+000  3.254128e+000
    endloop
  endfacet
  facet normal -1.000000e+000  0.000000e+000  0.000000e+000
    outer loop
      vertex  0.000000e+000  9.281618e+000  7.182252e-015
      vertex  0.000000e+000  6.757267e+000  3.254128e+000
      vertex  0.000000e+000  8.575097e+000  3.551921e+000
    endloop
  endfacet
  facet normal -1.000000e+000  -0.000000e+000  0.000000e+000
    outer loop
      vertex  0.000000e+000  8.575097e+000  3.551921e+000
      vertex  0.000000e+000  6.757267e+000  3.254128e+000
      vertex  0.000000e+000  4.676174e+000  5.863736e+000
    endloop
  endfacet
  facet normal -1.000000e+000  0.000000e+000  0.000000e+000
    outer loop
      vertex  0.000000e+000  8.575097e+000  3.551921e+000
      vertex  0.000000e+000  4.676174e+000  5.863736e+000
      vertex  0.000000e+000  6.563095e+000  6.563095e+000
    endloop
  endfacet
  facet normal -1.000000e+000  -0.000000e+000  0.000000e+000
    outer loop
      vertex  0.000000e+000  6.563095e+000  6.563095e+000
      vertex  0.000000e+000  4.676174e+000  5.863736e+000
      vertex  0.000000e+000  1.668907e+000  7.311959e+000
    endloop
  endfacet
  facet normal -1.000000e+000  0.000000e+000  0.000000e+000
    outer loop
      vertex  0.000000e+000  6.563095e+000  6.563095e+000
      vertex  0.000000e+000  1.668907e+000  7.311959e+000
      vertex  0.000000e+000  3.551921e+000  8.575097e+000
    endloop
  endfacet
  facet normal -1.000000e+000  0.000000e+000  0.000000e+000
    outer loop
      vertex  0.000000e+000  3.551921e+000  8.575097e+000
      vertex  0.000000e+000  1.668907e+000  7.311959e+000
      vertex  0.000000e+000 -1.668907e+000  7.311959e+000
    endloop
  endfacet
  facet normal -1.000000e+000  0.000000e+000  0.000000e+000
    outer loop
      vertex  0.000000e+000  3.551921e+000  8.575097e+000
      vertex  0.000000e+000 -1.668907e+000  7.311959e+000
      vertex  0.000000e+000 -7.591444e-008  9.281618e+000
    endloop
  endfacet
  facet normal -9.999999e-001  0.000000e+000  0.000000e+000
    outer loop
      vertex  0.000000e+000 -7.591444e-008  9.281618e+000
      vertex  0.000000e+000 -1.668907e+000  7.311959e+000
      vertex  0.000000e+000 -3.551921e+000  8.575097e+000
    endloop
  endfacet
  facet normal -1.000000e+000  0.000000e+000  -0.000000e+000
    outer loop
      vertex  0.000000e+000 -3.551921e+000  8.575097e+000
      vertex  0.000000e+000 -1.668907e+000  7.311959e+000
      vertex  0.000000e+000 -4.676174e+000  5.863736e+000
    endloop
  endfacet
  facet normal -9.999999e-001  0.000000e+000  0.000000e+000
    outer loop
      vertex  0.000000e+000 -3.551921e+000  8.575097e+000
      vertex  0.000000e+000 -4.676174e+000  5.863736e+000
      vertex  0.000000e+000 -6.563095e+000  6.563095e+000
    endloop
  endfacet
  facet normal -1.000000e+000  0.000000e+000  -0.000000e+000
    outer loop
      vertex  0.000000e+000 -6.563095e+000  6.563095e+000
      vertex  0.000000e+000 -4.676174e+000  5.863736e+000
      vertex  0.000000e+000 -6.757267e+000  3.254128e+000
    endloop
  endfacet
  facet normal -1.000000e+000  0.000000e+000  0.000000e+000
    outer loop
      vertex  0.000000e+000 -6.563095e+000  6.563095e+000
      vertex  0.000000e+000 -6.757267e+000  3.254128e+000
      vertex  0.000000e+000 -8.575097e+000  3.551921e+000
    endloop
  endfacet
  facet normal -1.000000e+000  0.000000e+000  0.000000e+000
    outer loop
      vertex  0.000000e+000 -8.575097e+000  3.551921e+000
      vertex  0.000000e+000 -6.757267e+000  3.254128e+000
      vertex  0.000000e+000 -7.500000e+000  4.249124e-015
    endloop
  endfacet
  facet normal -9.999999e-001  -0.000000e+000  0.000000e+000
    outer loop
      vertex  0.000000e+000 -8.575097e+000  3.551921e+000
      vertex  0.000000e+000 -7.500000e+000  4.249124e-015
      vertex  0.000000e+000 -9.281618e+000 -1.518289e-007
    endloop
  endfacet
  facet normal -1.000000e+000  0.000000e+000  0.000000e+000
    outer loop
      vertex  0.000000e+000 -9.281618e+000 -1.518289e-007
      vertex  0.000000e+000 -7.500000e+000  4.249124e-015
      vertex  0.000000e+000 -6.757267e+000 -3.254128e+000
    endloop
  endfacet
  facet normal -1.000000e+000  -0.000000e+000  0.000000e+000
    outer loop
      vertex  0.000000e+000 -9.281618e+000 -1.518289e-007
      vertex  0.000000e+000 -6.757267e+000 -3.254128e+000
      vertex  0.000000e+000 -8.575097e+000 -3.551921e+000
    endloop
  endfacet
  facet normal -1.000000e+000  0.000000e+000  0.000000e+000
    outer loop
      vertex  0.000000e+000 -8.575097e+000 -3.551921e+000
      vertex  0.000000e+000 -6.757267e+000 -3.254128e+000
      vertex  0.000000e+000 -4.676174e+000 -5.863736e+000
    endloop
  endfacet
  facet normal -1.000000e+000  -0.000000e+000  0.000000e+000
    outer loop
      vertex  0.000000e+000 -8.575097e+000 -3.551921e+000
      vertex  0.000000e+000 -4.676174e+000 -5.863736e+000
      vertex  0.000000e+000 -6.563095e+000 -6.563095e+000
    endloop
  endfacet
  facet normal -1.000000e+000  0.000000e+000  0.000000e+000
    outer loop
      vertex  0.000000e+000 -6.563095e+000 -6.563095e+000
      vertex  0.000000e+000 -4.676174e+000 -5.863736e+000
      vertex  0.000000e+000 -1.668907e+000 -7.311959e+000
    endloop
  endfacet
  facet normal -1.000000e+000  -0.000000e+000  0.000000e+000
    outer loop
      vertex  0.000000e+000 -6.563095e+000 -6.563095e+000
      vertex  0.000000e+000 -1.668907e+000 -7.311959e+000
      vertex  0.000000e+000 -3.551921e+000 -8.575097e+000
    endloop
  endfacet
  facet normal -3.361971e-001 -9.236954e-001 -1.837345e-001
    outer loop
      vertex  6.000000e-001 -9.500000e+000  5.382224e-015
      vertex  0.000000e+000 -9.281618e+000 -1.518289e-007
      vertex  6.000000e-001 -8.776855e+000 -3.635493e+000
    endloop
  endfacet
  facet normal -3.361970e-001 -9.236954e-001 -1.837344e-001
    outer loop
      vertex  6.000000e-001 -8.776855e+000 -3.635493e+000
      vertex  0.000000e+000 -9.281618e+000 -1.518289e-007
      vertex  0.000000e+000 -8.575097e+000 -3.551921e+000
    endloop
  endfacet
  facet normal -3.361970e-001 -7.830712e-001 -5.232314e-001
    outer loop
      vertex  6.000000e-001 -8.776855e+000 -3.635493e+000
      vertex  0.000000e+000 -8.575097e+000 -3.551921e+000
      vertex  6.000000e-001 -6.717515e+000 -6.717515e+000
    endloop
  endfacet
  facet normal -3.361974e-001 -7.830710e-001 -5.232313e-001
    outer loop
      vertex  6.000000e-001 -6.717515e+000 -6.717515e+000
      vertex  0.000000e+000 -8.575097e+000 -3.551921e+000
      vertex  0.000000e+000 -6.563095e+000 -6.563095e+000
    endloop
  endfacet
  facet normal -3.361974e-001 -5.232313e-001 -7.830711e-001
    outer loop
      vertex  6.000000e-001 -6.717515e+000 -6.717515e+000
      vertex  0.000000e+000 -6.563095e+000 -6.563095e+000
      vertex  6.000000e-001 -3.635493e+000 -8.776855e+000
    endloop
  endfacet
  facet normal -3.361970e-001 -5.232314e-001 -7.830712e-001
    outer loop
      vertex  6.000000e-001 -3.635493e+000 -8.776855e+000
      vertex  0.000000e+000 -6.563095e+000 -6.563095e+000
      vertex  0.000000e+000 -3.551921e+000 -8.575097e+000
    endloop
  endfacet
  facet normal -3.361970e-001 -1.837345e-001 -9.236955e-001
    outer loop
      vertex  6.000000e-001 -3.635493e+000 -8.776855e+000
      vertex  0.000000e+000 -3.551921e+000 -8.575097e+000
      vertex  6.000000e-001 -1.745064e-015 -9.500000e+000
    endloop
  endfacet
  facet normal -3.361972e-001 -1.837344e-001 -9.236953e-001
    outer loop
      vertex  6.000000e-001 -1.745064e-015 -9.500000e+000
      vertex  0.000000e+000 -3.551921e+000 -8.575097e+000
      vertex  0.000000e+000 -1.704949e-015 -9.281618e+000
    endloop
  endfacet
  facet normal -3.361972e-001  1.837345e-001 -9.236954e-001
    outer loop
      vertex  6.000000e-001 -1.745064e-015 -9.500000e+000
      vertex  0.000000e+000 -1.704949e-015 -9.281618e+000
      vertex  6.000000e-001  3.635493e+000 -8.776855e+000
    endloop
  endfacet
  facet normal -3.361970e-001  1.837344e-001 -9.236954e-001
    outer loop
      vertex  6.000000e-001  3.635493e+000 -8.776855e+000
      vertex  0.000000e+000 -1.704949e-015 -9.281618e+000
      vertex  0.000000e+000  3.551921e+000 -8.575097e+000
    endloop
  endfacet
  facet normal -3.361970e-001  5.232314e-001 -7.830712e-001
    outer loop
      vertex  6.000000e-001  3.635493e+000 -8.776855e+000
      vertex  0.000000e+000  3.551921e+000 -8.575097e+000
      vertex  6.000000e-001  6.717515e+000 -6.717515e+000
    endloop
  endfacet
  facet normal -3.361974e-001  5.232313e-001 -7.830710e-001
    outer loop
      vertex  6.000000e-001  6.717515e+000 -6.717515e+000
      vertex  0.000000e+000  3.551921e+000 -8.575097e+000
      vertex  0.000000e+000  6.563095e+000 -6.563095e+000
    endloop
  endfacet
  facet normal -3.361974e-001  7.830711e-001 -5.232313e-001
    outer loop
      vertex  6.000000e-001  6.717515e+000 -6.717515e+000
      vertex  0.000000e+000  6.563095e+000 -6.563095e+000
      vertex  6.000000e-001  8.776855e+000 -3.635493e+000
    endloop
  endfacet
  facet normal -3.361970e-001  7.830712e-001 -5.232314e-001
    outer loop
      vertex  6.000000e-001  8.776855e+000 -3.635493e+000
      vertex  0.000000e+000  6.563095e+000 -6.563095e+000
      vertex  0.000000e+000  8.575097e+000 -3.551921e+000
    endloop
  endfacet
  facet normal -3.361970e-001  9.236955e-001 -1.837345e-001
    outer loop
      vertex  6.000000e-001  8.776855e+000 -3.635493e+000
      vertex  0.000000e+000  8.575097e+000 -3.551921e+000
      vertex  6.000000e-001  9.500000e+000 -2.326752e-015
    endloop
  endfacet
  facet normal -3.361972e-001  9.236953e-001 -1.837344e-001
    outer loop
      vertex  6.000000e-001  9.500000e+000 -2.326752e-015
      vertex  0.000000e+000  8.575097e+000 -3.551921e+000
      vertex  0.000000e+000  9.281618e+000  7.182252e-015
    endloop
  endfacet
  facet normal -3.361972e-001  9.236954e-001  1.837345e-001
    outer loop
      vertex  6.000000e-001  9.500000e+000 -2.326752e-015
      vertex  0.000000e+000  9.281618e+000  7.182252e-015
      vertex  6.000000e-001  8.776855e+000  3.635493e+000
    endloop
  endfacet
  facet normal -3.361970e-001  9.236954e-001  1.837344e-001
    outer loop
      vertex  6.000000e-001  8.776855e+000  3.635493e+000
      vertex  0.000000e+000  9.281618e+000  7.182252e-015
      vertex  0.000000e+000  8.575097e+000  3.551921e+000
    endloop
  endfacet
  facet normal -3.361970e-001  7.830712e-001  5.232314e-001
    outer loop
      vertex  6.000000e-001  8.776855e+000  3.635493e+000
      vertex  0.000000e+000  8.575097e+000  3.551921e+000
      vertex  6.000000e-001  6.717515e+000  6.717515e+000
    endloop
  endfacet
  facet normal -3.361974e-001  7.830710e-001  5.232313e-001
    outer loop
      vertex  6.000000e-001  6.717515e+000  6.717515e+000
      vertex  0.000000e+000  8.575097e+000  3.551921e+000
      vertex  0.000000e+000  6.563095e+000  6.563095e+000
    endloop
  endfacet
  facet normal -3.361974e-001  5.232313e-001  7.830711e-001
    outer loop
      vertex  6.000000e-001  6.717515e+000  6.717515e+000
      vertex  0.000000e+000  6.563095e+000  6.563095e+000
      vertex  6.000000e-001  3.635493e+000  8.776855e+000
    endloop
  endfacet
  facet normal -3.361970e-001  5.232314e-001  7.830712e-001
    outer loop
      vertex  6.000000e-001  3.635493e+000  8.776855e+000
      vertex  0.000000e+000  6.563095e+000  6.563095e+000
      vertex  0.000000e+000  3.551921e+000  8.575097e+000
    endloop
  endfacet
  facet normal -3.361970e-001  1.837345e-001  9.236955e-001
    outer loop
      vertex  6.000000e-001  3.635493e+000  8.776855e+000
      vertex  0.000000e+000  3.551921e+000  8.575097e+000
      vertex  6.000000e-001  4.800536e-015  9.500000e+000
    endloop
  endfacet
  facet normal -3.361972e-001  1.837344e-001  9.236953e-001
    outer loop
      vertex  6.000000e-001  4.800536e-015  9.500000e+000
      vertex  0.000000e+000  3.551921e+000  8.575097e+000
      vertex  0.000000e+000 -7.591444e-008  9.281618e+000
    endloop
  endfacet
  facet normal -3.361972e-001 -1.837345e-001  9.236954e-001
    outer loop
      vertex  6.000000e-001  4.800536e-015  9.500000e+000
      vertex  0.000000e+000 -7.591444e-008  9.281618e+000
      vertex  6.000000e-001 -3.635493e+000  8.776855e+000
    endloop
  endfacet
  facet normal -3.361970e-001 -1.837344e-001  9.236954e-001
    outer loop
      vertex  6.000000e-001 -3.635493e+000  8.776855e+000
      vertex  0.000000e+000 -7.591444e-008  9.281618e+000
      vertex  0.000000e+000 -3.551921e+000  8.575097e+000
    endloop
  endfacet
  facet normal -3.361970e-001 -5.232314e-001  7.830712e-001
    outer loop
      vertex  6.000000e-001 -3.635493e+000  8.776855e+000
      vertex  0.000000e+000 -3.551921e+000  8.575097e+000
      vertex  6.000000e-001 -6.717515e+000  6.717515e+000
    endloop
  endfacet
  facet normal -3.361980e-001 -5.232313e-001  7.830708e-001
    outer loop
      vertex  6.000000e-001 -6.717515e+000  6.717515e+000
      vertex  0.000000e+000 -3.551921e+000  8.575097e+000
      vertex  0.000000e+000 -6.563095e+000  6.563095e+000
    endloop
  endfacet
  facet normal -3.361978e-001 -7.830709e-001  5.232312e-001
    outer loop
      vertex  6.000000e-001 -6.717515e+000  6.717515e+000
      vertex  0.000000e+000 -6.563095e+000  6.563095e+000
      vertex  6.000000e-001 -8.776855e+000  3.635493e+000
    endloop
  endfacet
  facet normal -3.361970e-001 -7.830711e-001  5.232314e-001
    outer loop
      vertex  6.000000e-001 -8.776855e+000  3.635493e+000
      vertex  0.000000e+000 -6.563095e+000  6.563095e+000
      vertex  0.000000e+000 -8.575097e+000  3.551921e+000
    endloop
  endfacet
  facet normal -3.361970e-001 -9.236955e-001  1.837345e-001
    outer loop
      vertex  6.000000e-001 -8.776855e+000  3.635493e+000
      vertex  0.000000e+000 -8.575097e+000  3.551921e+000
      vertex  6.000000e-001 -9.500000e+000  5.382224e-015
    endloop
  endfacet
  facet normal -3.361972e-001 -9.236953e-001  1.837344e-001
    outer loop
      vertex  6.000000e-001 -9.500000e+000  5.382224e-015
      vertex  0.000000e+000 -8.575097e+000  3.551921e+000
      vertex  0.000000e+000 -9.281618e+000 -1.518289e-007
    endloop
  endfacet
  facet normal  0.000000e+000  4.338837e-001 -9.009689e-001
    outer loop
      vertex  0.000000e+000 -1.668907e+000  7.311959e+000
      vertex  1.000000e+001 -4.676174e+000  5.863736e+000
      vertex  0.000000e+000 -4.676174e+000  5.863736e+000
    endloop
  endfacet
  facet normal  0.000000e+000  7.818315e-001 -6.234898e-001
    outer loop
      vertex  0.000000e+000 -4.676174e+000  5.863736e+000
      vertex  1.000000e+001 -4.676174e+000  5.863736e+000
      vertex  1.000000e+001 -6.757267e+000  3.254128e+000
    endloop
  endfacet
  facet normal  0.000000e+000  7.818315e-001 -6.234898e-001
    outer loop
      vertex  0.000000e+000 -4.676174e+000  5.863736e+000
      vertex  1.000000e+001 -6.757267e+000  3.254128e+000
      vertex  0.000000e+000 -6.757267e+000  3.254128e+000
    endloop
  endfacet
  facet normal  0.000000e+000  9.749279e-001 -2.225209e-001
    outer loop
      vertex  0.000000e+000 -6.757267e+000  3.254128e+000
      vertex  1.000000e+001 -6.757267e+000  3.254128e+000
      vertex  1.000000e+001 -7.500000e+000  4.249124e-015
    endloop
  endfacet
  facet normal  0.000000e+000  9.749279e-001 -2.225209e-001
    outer loop
      vertex  0.000000e+000 -6.757267e+000  3.254128e+000
      vertex  1.000000e+001 -7.500000e+000  4.249124e-015
      vertex  0.000000e+000 -7.500000e+000  4.249124e-015
    endloop
  endfacet
  facet normal  0.000000e+000  4.338837e-001 -9.009689e-001
    outer loop
      vertex  1.000000e+001 -4.676174e+000  5.863736e+000
      vertex  0.000000e+000 -1.668907e+000  7.311959e+000
      vertex  1.000000e+001 -1.668907e+000  7.311959e+000
    endloop
  endfacet
  facet normal  0.000000e+000  0.000000e+000 -1.000000e+000
    outer loop
      vertex  1.000000e+001 -1.668907e+000  7.311959e+000
      vertex  0.000000e+000 -1.668907e+000  7.311959e+000
      vertex  0.000000e+000  1.668907e+000  7.311959e+000
    endloop
  endfacet
  facet normal  0.000000e+000  0.000000e+000 -1.000000e+000
    outer loop
      vertex  1.000000e+001 -1.668907e+000  7.311959e+000
      vertex  0.000000e+000  1.668907e+000  7.311959e+000
      vertex  1.000000e+001  1.668907e+000  7.311959e+000
    endloop
  endfacet
  facet normal  -0.000000e+000 -4.338837e-001 -9.009689e-001
    outer loop
      vertex  1.000000e+001  1.668907e+000  7.311959e+000
      vertex  0.000000e+000  1.668907e+000  7.311959e+000
      vertex  0.000000e+000  4.676174e+000  5.863736e+000
    endloop
  endfacet
  facet normal  0.000000e+000 -4.338837e-001 -9.009689e-001
    outer loop
      vertex  1.000000e+001  1.668907e+000  7.311959e+000
      vertex  0.000000e+000  4.676174e+000  5.863736e+000
      vertex  1.000000e+001  4.676174e+000  5.863736e+000
    endloop
  endfacet
  facet normal  -0.000000e+000 -7.818315e-001 -6.234898e-001
    outer loop
      vertex  1.000000e+001  4.676174e+000  5.863736e+000
      vertex  0.000000e+000  4.676174e+000  5.863736e+000
      vertex  0.000000e+000  6.757267e+000  3.254128e+000
    endloop
  endfacet
  facet normal  0.000000e+000 -7.818315e-001 -6.234898e-001
    outer loop
      vertex  1.000000e+001  4.676174e+000  5.863736e+000
      vertex  0.000000e+000  6.757267e+000  3.254128e+000
      vertex  1.000000e+001  6.757267e+000  3.254128e+000
    endloop
  endfacet
  facet normal  -0.000000e+000 -9.749279e-001 -2.225209e-001
    outer loop
      vertex  1.000000e+001  6.757267e+000  3.254128e+000
      vertex  0.000000e+000  6.757267e+000  3.254128e+000
      vertex  0.000000e+000  7.500000e+000  0.000000e+000
    endloop
  endfacet
  facet normal  0.000000e+000 -9.749279e-001 -2.225209e-001
    outer loop
      vertex  1.000000e+001  6.757267e+000  3.254128e+000
      vertex  0.000000e+000  7.500000e+000  0.000000e+000
      vertex  1.000000e+001  7.500000e+000  0.000000e+000
    endloop
  endfacet
  facet normal  0.000000e+000 -4.338837e-001  9.009689e-001
    outer loop
      vertex  0.000000e+000  1.668907e+000 -7.311959e+000
      vertex  1.000000e+001  4.676174e+000 -5.863736e+000
      vertex  0.000000e+000  4.676174e+000 -5.863736e+000
    endloop
  endfacet
  facet normal  0.000000e+000 -7.818315e-001  6.234898e-001
    outer loop
      vertex  0.000000e+000  4.676174e+000 -5.863736e+000
      vertex  1.000000e+001  4.676174e+000 -5.863736e+000
      vertex  1.000000e+001  6.757267e+000 -3.254128e+000
    endloop
  endfacet
  facet normal  0.000000e+000 -7.818315e-001  6.234898e-001
    outer loop
      vertex  0.000000e+000  4.676174e+000 -5.863736e+000
      vertex  1.000000e+001  6.757267e+000 -3.254128e+000
      vertex  0.000000e+000  6.757267e+000 -3.254128e+000
    endloop
  endfacet
  facet normal  0.000000e+000 -9.749279e-001  2.225209e-001
    outer loop
      vertex  0.000000e+000  6.757267e+000 -3.254128e+000
      vertex  1.000000e+001  6.757267e+000 -3.254128e+000
      vertex  1.000000e+001  7.500000e+000  0.000000e+000
    endloop
  endfacet
  facet normal  0.000000e+000 -9.749279e-001  2.225209e-001
    outer loop
      vertex  0.000000e+000  6.757267e+000 -3.254128e+000
      vertex  1.000000e+001  7.500000e+000  0.000000e+000
      vertex  0.000000e+000  7.500000e+000  0.000000e+000
    endloop
  endfacet
  facet normal  0.000000e+000 -4.338837e-001  9.009689e-001
    outer loop
      vertex  1.000000e+001  4.676174e+000 -5.863736e+000
      vertex  0.000000e+000  1.668907e+000 -7.311959e+000
      vertex  1.000000e+001  1.668907e+000 -7.311959e+000
    endloop
  endfacet
  facet normal  0.000000e+000  0.000000e+000  1.000000e+000
    outer loop
      vertex  1.000000e+001  1.668907e+000 -7.311959e+000
      vertex  0.000000e+000  1.668907e+000 -7.311959e+000
      vertex  0.000000e+000 -1.668907e+000 -7.311959e+000
    endloop
  endfacet
  facet normal  0.000000e+000  0.000000e+000  1.000000e+000
    outer loop
      vertex  1.000000e+001  1.668907e+000 -7.311959e+000
      vertex  0.000000e+000 -1.668907e+000 -7.311959e+000
      vertex  1.000000e+001 -1.668907e+000 -7.311959e+000
    endloop
  endfacet
  facet normal  0.000000e+000  4.338837e-001  9.009689e-001
    outer loop
      vertex  1.000000e+001 -1.668907e+000 -7.311959e+000
      vertex  0.000000e+000 -1.668907e+000 -7.311959e+000
      vertex  0.000000e+000 -4.676174e+000 -5.863736e+000
    endloop
  endfacet
  facet normal  -0.000000e+000  4.338837e-001  9.009689e-001
    outer loop
      vertex  1.000000e+001 -1.668907e+000 -7.311959e+000
      vertex  0.000000e+000 -4.676174e+000 -5.863736e+000
      vertex  1.000000e+001 -4.676174e+000 -5.863736e+000
    endloop
  endfacet
  facet normal  0.000000e+000  7.818315e-001  6.234898e-001
    outer loop
      vertex  1.000000e+001 -4.676174e+000 -5.863736e+000
      vertex  0.000000e+000 -4.676174e+000 -5.863736e+000
      vertex  0.000000e+000 -6.757267e+000 -3.254128e+000
    endloop
  endfacet
  facet normal  -0.000000e+000  7.818315e-001  6.234898e-001
    outer loop
      vertex  1.000000e+001 -4.676174e+000 -5.863736e+000
      vertex  0.000000e+000 -6.757267e+000 -3.254128e+000
      vertex  1.000000e+001 -6.757267e+000 -3.254128e+000
    endloop
  endfacet
  facet normal  0.000000e+000  9.749279e-001  2.225209e-001
    outer loop
      vertex  1.000000e+001 -6.757267e+000 -3.254128e+000
      vertex  0.000000e+000 -6.757267e+000 -3.254128e+000
      vertex  0.000000e+000 -7.500000e+000  4.249124e-015
    endloop
  endfacet
  facet normal  -0.000000e+000  9.749279e-001  2.225209e-001
    outer loop
      vertex  1.000000e+001 -6.757267e+000 -3.254128e+000
      vertex  0.000000e+000 -7.500000e+000  4.249124e-015
      vertex  1.000000e+001 -7.500000e+000  4.249124e-015
    endloop
  endfacet
endsolid CATIA STL
