solid CATIA STL
  facet normal -1.000000e+000  -0.000000e+000  0.000000e+000
    outer loop
      vertex  0.000000e+000  6.390374e+000 -8.750000e-001
      vertex  0.000000e+000  9.911451e+000 -8.750000e-001
      vertex  0.000000e+000  8.345627e+000 -2.023959e+000
    endloop
  endfacet
  facet normal -1.000000e+000  0.000000e+000  0.000000e+000
    outer loop
      vertex  0.000000e+000  6.390374e+000 -8.750000e-001
      vertex  0.000000e+000  8.345627e+000 -2.023959e+000
      vertex  0.000000e+000  7.744586e+000 -1.775000e+000
    endloop
  endfacet
  facet normal -9.999999e-001  -0.000000e+000  0.000000e+000
    outer loop
      vertex  0.000000e+000  6.390374e+000 -8.750000e-001
      vertex  0.000000e+000  7.744586e+000 -1.775000e+000
      vertex  0.000000e+000  7.143545e+000 -2.023959e+000
    endloop
  endfacet
  facet normal -1.000000e+000  -0.000000e+000  0.000000e+000
    outer loop
      vertex  0.000000e+000  6.390374e+000 -8.750000e-001
      vertex  0.000000e+000  7.143545e+000 -2.023959e+000
      vertex  0.000000e+000  6.894586e+000 -2.625000e+000
    endloop
  endfacet
  facet normal -1.000000e+000  -0.000000e+000  0.000000e+000
    outer loop
      vertex  0.000000e+000  6.390374e+000 -8.750000e-001
      vertex  0.000000e+000  6.894586e+000 -2.625000e+000
      vertex  0.000000e+000  6.498888e+000 -4.375000e+000
    endloop
  endfacet
  facet normal -1.000000e+000  0.000000e+000  0.000000e+000
    outer loop
      vertex  0.000000e+000  6.390374e+000 -8.750000e-001
      vertex  0.000000e+000  6.498888e+000 -4.375000e+000
      vertex  0.000000e+000  5.328998e+000 -3.633770e+000
    endloop
  endfacet
  facet normal -1.000000e+000  -0.000000e+000  0.000000e+000
    outer loop
      vertex  0.000000e+000  6.498888e+000  4.375000e+000
      vertex  0.000000e+000  7.804286e+000  4.375000e+000
      vertex  0.000000e+000  7.744586e+000  3.475000e+000
    endloop
  endfacet
  facet normal -1.000000e+000  -0.000000e+000  0.000000e+000
    outer loop
      vertex  0.000000e+000  6.498888e+000  4.375000e+000
      vertex  0.000000e+000  7.744586e+000  3.475000e+000
      vertex  0.000000e+000  7.143545e+000  3.226041e+000
    endloop
  endfacet
  facet normal -1.000000e+000  -0.000000e+000  0.000000e+000
    outer loop
      vertex  0.000000e+000  6.498888e+000  4.375000e+000
      vertex  0.000000e+000  7.143545e+000  3.226041e+000
      vertex  0.000000e+000  6.894586e+000  2.625000e+000
    endloop
  endfacet
  facet normal -1.000000e+000  -0.000000e+000  0.000000e+000
    outer loop
      vertex  0.000000e+000  6.498888e+000  4.375000e+000
      vertex  0.000000e+000  6.894586e+000  2.625000e+000
      vertex  0.000000e+000  6.390374e+000  8.750000e-001
    endloop
  endfacet
  facet normal -1.000000e+000  0.000000e+000  0.000000e+000
    outer loop
      vertex  0.000000e+000  6.498888e+000  4.375000e+000
      vertex  0.000000e+000  6.390374e+000  8.750000e-001
      vertex  0.000000e+000  5.328998e+000  3.633770e+000
    endloop
  endfacet
  facet normal -9.999999e-001  0.000000e+000  0.000000e+000
    outer loop
      vertex  0.000000e+000  6.498888e+000  4.375000e+000
      vertex  0.000000e+000  5.328998e+000  3.633770e+000
      vertex  0.000000e+000  3.148429e+000  5.629378e+000
    endloop
  endfacet
  facet normal -1.000000e+000  0.000000e+000  0.000000e+000
    outer loop
      vertex  0.000000e+000  6.498888e+000  4.375000e+000
      vertex  0.000000e+000  3.148429e+000  5.629378e+000
      vertex  0.000000e+000  4.030457e+000  6.908215e+000
    endloop
  endfacet
  facet normal -1.000000e+000  0.000000e+000  -0.000000e+000
    outer loop
      vertex  0.000000e+000  6.390374e+000  8.750000e-001
      vertex  0.000000e+000  6.894586e+000  2.625000e+000
      vertex  0.000000e+000  7.143545e+000  2.023959e+000
    endloop
  endfacet
  facet normal -9.999999e-001  0.000000e+000  -0.000000e+000
    outer loop
      vertex  0.000000e+000  6.390374e+000  8.750000e-001
      vertex  0.000000e+000  7.143545e+000  2.023959e+000
      vertex  0.000000e+000  7.744586e+000  1.775000e+000
    endloop
  endfacet
  facet normal -1.000000e+000  0.000000e+000  -0.000000e+000
    outer loop
      vertex  0.000000e+000  6.390374e+000  8.750000e-001
      vertex  0.000000e+000  7.744586e+000  1.775000e+000
      vertex  0.000000e+000  8.345627e+000  2.023959e+000
    endloop
  endfacet
  facet normal -1.000000e+000  0.000000e+000  -0.000000e+000
    outer loop
      vertex  0.000000e+000  6.390374e+000  8.750000e-001
      vertex  0.000000e+000  8.345627e+000  2.023959e+000
      vertex  0.000000e+000  9.911451e+000  8.750000e-001
    endloop
  endfacet
  facet normal -1.000000e+000  -0.000000e+000  0.000000e+000
    outer loop
      vertex  0.000000e+000 -8.800000e+000  7.300001e-017
      vertex  0.000000e+000 -6.278389e+000 -1.477949e+000
      vertex  0.000000e+000 -8.044088e+000 -3.455275e+000
    endloop
  endfacet
  facet normal -1.000000e+000  0.000000e+000  0.000000e+000
    outer loop
      vertex  0.000000e+000 -8.044088e+000 -3.455275e+000
      vertex  0.000000e+000 -6.278389e+000 -1.477949e+000
      vertex  0.000000e+000 -4.959806e+000 -4.123448e+000
    endloop
  endfacet
  facet normal -1.000000e+000  -0.000000e+000  0.000000e+000
    outer loop
      vertex  0.000000e+000 -8.044088e+000 -3.455275e+000
      vertex  0.000000e+000 -4.959806e+000 -4.123448e+000
      vertex  0.000000e+000 -5.914458e+000 -6.279280e+000
    endloop
  endfacet
  facet normal -9.999999e-001  0.000000e+000  0.000000e+000
    outer loop
      vertex  0.000000e+000 -5.914458e+000 -6.279280e+000
      vertex  0.000000e+000 -4.959806e+000 -4.123448e+000
      vertex  0.000000e+000 -2.599568e+000 -5.902944e+000
    endloop
  endfacet
  facet normal -9.999999e-001  0.000000e+000  0.000000e+000
    outer loop
      vertex  0.000000e+000 -5.914458e+000 -6.279280e+000
      vertex  0.000000e+000 -2.599568e+000 -5.902944e+000
      vertex  0.000000e+000 -2.800187e+000 -7.956076e+000
    endloop
  endfacet
  facet normal -1.000000e+000  0.000000e+000  0.000000e+000
    outer loop
      vertex  0.000000e+000 -2.800187e+000 -7.956076e+000
      vertex  0.000000e+000 -2.599568e+000 -5.902944e+000
      vertex  0.000000e+000  3.066300e-001 -6.442708e+000
    endloop
  endfacet
  facet normal -1.000000e+000  0.000000e+000  -0.000000e+000
    outer loop
      vertex  0.000000e+000 -2.800187e+000 -7.956076e+000
      vertex  0.000000e+000  3.066300e-001 -6.442708e+000
      vertex  0.000000e+000  7.297553e-001 -8.179317e+000
    endloop
  endfacet
  facet normal -1.000000e+000  0.000000e+000  0.000000e+000
    outer loop
      vertex  0.000000e+000  7.297553e-001 -8.179317e+000
      vertex  0.000000e+000  3.066300e-001 -6.442708e+000
      vertex  0.000000e+000  3.148429e+000 -5.629378e+000
    endloop
  endfacet
  facet normal -9.999999e-001  0.000000e+000  -0.000000e+000
    outer loop
      vertex  0.000000e+000  7.297553e-001 -8.179317e+000
      vertex  0.000000e+000  3.148429e+000 -5.629378e+000
      vertex  0.000000e+000  4.030457e+000 -6.908215e+000
    endloop
  endfacet
  facet normal -1.000000e+000  0.000000e+000  0.000000e+000
    outer loop
      vertex  0.000000e+000  4.030457e+000 -6.908215e+000
      vertex  0.000000e+000  3.148429e+000 -5.629378e+000
      vertex  0.000000e+000  5.328998e+000 -3.633770e+000
    endloop
  endfacet
  facet normal -1.000000e+000  0.000000e+000  -0.000000e+000
    outer loop
      vertex  0.000000e+000  4.030457e+000 -6.908215e+000
      vertex  0.000000e+000  5.328998e+000 -3.633770e+000
      vertex  0.000000e+000  6.498888e+000 -4.375000e+000
    endloop
  endfacet
  facet normal -1.000000e+000  0.000000e+000  0.000000e+000
    outer loop
      vertex  0.000000e+000  9.911451e+000 -8.750000e-001
      vertex  0.000000e+000  9.412441e+000 -3.226212e+000
      vertex  0.000000e+000  8.345627e+000 -2.023959e+000
    endloop
  endfacet
  facet normal -1.000000e+000  0.000000e+000  0.000000e+000
    outer loop
      vertex  0.000000e+000  8.345627e+000 -2.023959e+000
      vertex  0.000000e+000  9.412441e+000 -3.226212e+000
      vertex  0.000000e+000  8.594585e+000 -2.625000e+000
    endloop
  endfacet
  facet normal -1.000000e+000  0.000000e+000  0.000000e+000
    outer loop
      vertex  0.000000e+000  9.412441e+000 -3.226212e+000
      vertex  0.000000e+000  8.792451e+000 -4.058304e+000
      vertex  0.000000e+000  8.594585e+000 -2.625000e+000
    endloop
  endfacet
  facet normal -1.000000e+000  0.000000e+000  -0.000000e+000
    outer loop
      vertex  0.000000e+000  8.594585e+000 -2.625000e+000
      vertex  0.000000e+000  8.792451e+000 -4.058304e+000
      vertex  0.000000e+000  8.345627e+000 -3.226041e+000
    endloop
  endfacet
  facet normal -1.000000e+000  0.000000e+000  0.000000e+000
    outer loop
      vertex  0.000000e+000 -5.914458e+000  6.279280e+000
      vertex  0.000000e+000 -6.278389e+000  1.477949e+000
      vertex  0.000000e+000 -8.044088e+000  3.455275e+000
    endloop
  endfacet
  facet normal -1.000000e+000  0.000000e+000  0.000000e+000
    outer loop
      vertex  0.000000e+000 -8.044088e+000  3.455275e+000
      vertex  0.000000e+000 -6.278389e+000  1.477949e+000
      vertex  0.000000e+000 -6.278389e+000 -1.477949e+000
    endloop
  endfacet
  facet normal -1.000000e+000  0.000000e+000  0.000000e+000
    outer loop
      vertex  0.000000e+000 -8.044088e+000  3.455275e+000
      vertex  0.000000e+000 -6.278389e+000 -1.477949e+000
      vertex  0.000000e+000 -8.800000e+000  7.300001e-017
    endloop
  endfacet
  facet normal -1.000000e+000  0.000000e+000  -0.000000e+000
    outer loop
      vertex  0.000000e+000 -6.278389e+000  1.477949e+000
      vertex  0.000000e+000 -5.914458e+000  6.279280e+000
      vertex  0.000000e+000 -4.959806e+000  4.123448e+000
    endloop
  endfacet
  facet normal -1.000000e+000  0.000000e+000  0.000000e+000
    outer loop
      vertex  0.000000e+000 -4.959806e+000  4.123448e+000
      vertex  0.000000e+000 -5.914458e+000  6.279280e+000
      vertex  0.000000e+000 -2.800187e+000  7.956076e+000
    endloop
  endfacet
  facet normal -1.000000e+000  0.000000e+000  -0.000000e+000
    outer loop
      vertex  0.000000e+000 -4.959806e+000  4.123448e+000
      vertex  0.000000e+000 -2.800187e+000  7.956076e+000
      vertex  0.000000e+000 -2.599568e+000  5.902944e+000
    endloop
  endfacet
  facet normal -1.000000e+000  0.000000e+000  0.000000e+000
    outer loop
      vertex  0.000000e+000 -2.599568e+000  5.902944e+000
      vertex  0.000000e+000 -2.800187e+000  7.956076e+000
      vertex  0.000000e+000  7.297553e-001  8.179317e+000
    endloop
  endfacet
  facet normal -1.000000e+000  0.000000e+000  0.000000e+000
    outer loop
      vertex  0.000000e+000 -2.599568e+000  5.902944e+000
      vertex  0.000000e+000  7.297553e-001  8.179317e+000
      vertex  0.000000e+000  3.066300e-001  6.442708e+000
    endloop
  endfacet
  facet normal -1.000000e+000  0.000000e+000  0.000000e+000
    outer loop
      vertex  0.000000e+000  3.066300e-001  6.442708e+000
      vertex  0.000000e+000  7.297553e-001  8.179317e+000
      vertex  0.000000e+000  4.030457e+000  6.908215e+000
    endloop
  endfacet
  facet normal -1.000000e+000  0.000000e+000  0.000000e+000
    outer loop
      vertex  0.000000e+000  3.066300e-001  6.442708e+000
      vertex  0.000000e+000  4.030457e+000  6.908215e+000
      vertex  0.000000e+000  3.148429e+000  5.629378e+000
    endloop
  endfacet
  facet normal -1.000000e+000  -0.000000e+000  0.000000e+000
    outer loop
      vertex  0.000000e+000  8.792451e+000  4.058304e+000
      vertex  0.000000e+000  9.412441e+000  3.226212e+000
      vertex  0.000000e+000  8.594585e+000  2.625000e+000
    endloop
  endfacet
  facet normal -1.000000e+000  0.000000e+000  0.000000e+000
    outer loop
      vertex  0.000000e+000  8.594585e+000  2.625000e+000
      vertex  0.000000e+000  9.412441e+000  3.226212e+000
      vertex  0.000000e+000  9.911451e+000  8.750000e-001
    endloop
  endfacet
  facet normal -1.000000e+000  0.000000e+000  0.000000e+000
    outer loop
      vertex  0.000000e+000  8.594585e+000  2.625000e+000
      vertex  0.000000e+000  9.911451e+000  8.750000e-001
      vertex  0.000000e+000  8.345627e+000  2.023959e+000
    endloop
  endfacet
  facet normal -1.000000e+000  0.000000e+000  0.000000e+000
    outer loop
      vertex  0.000000e+000  8.594585e+000  2.625000e+000
      vertex  0.000000e+000  8.345627e+000  3.226041e+000
      vertex  0.000000e+000  8.792451e+000  4.058304e+000
    endloop
  endfacet
  facet normal -1.000000e+000  0.000000e+000  0.000000e+000
    outer loop
      vertex  0.000000e+000  8.792451e+000  4.058304e+000
      vertex  0.000000e+000  8.345627e+000  3.226041e+000
      vertex  0.000000e+000  7.744586e+000  3.475000e+000
    endloop
  endfacet
  facet normal -1.000000e+000  0.000000e+000  0.000000e+000
    outer loop
      vertex  0.000000e+000  8.792451e+000  4.058304e+000
      vertex  0.000000e+000  7.744586e+000  3.475000e+000
      vertex  0.000000e+000  7.804286e+000  4.375000e+000
    endloop
  endfacet
  facet normal -1.000000e+000  -0.000000e+000  0.000000e+000
    outer loop
      vertex  0.000000e+000  6.894586e+000 -2.625000e+000
      vertex  0.000000e+000  7.143545e+000 -3.226041e+000
      vertex  0.000000e+000  6.498888e+000 -4.375000e+000
    endloop
  endfacet
  facet normal -1.000000e+000  0.000000e+000  0.000000e+000
    outer loop
      vertex  0.000000e+000  6.498888e+000 -4.375000e+000
      vertex  0.000000e+000  7.143545e+000 -3.226041e+000
      vertex  0.000000e+000  7.744586e+000 -3.475000e+000
    endloop
  endfacet
  facet normal -1.000000e+000  0.000000e+000  -0.000000e+000
    outer loop
      vertex  0.000000e+000  6.498888e+000 -4.375000e+000
      vertex  0.000000e+000  7.744586e+000 -3.475000e+000
      vertex  0.000000e+000  7.804286e+000 -4.375000e+000
    endloop
  endfacet
  facet normal -1.000000e+000  0.000000e+000  0.000000e+000
    outer loop
      vertex  0.000000e+000  7.804286e+000 -4.375000e+000
      vertex  0.000000e+000  7.744586e+000 -3.475000e+000
      vertex  0.000000e+000  8.345627e+000 -3.226041e+000
    endloop
  endfacet
  facet normal -1.000000e+000  0.000000e+000  -0.000000e+000
    outer loop
      vertex  0.000000e+000  7.804286e+000 -4.375000e+000
      vertex  0.000000e+000  8.345627e+000 -3.226041e+000
      vertex  0.000000e+000  8.792451e+000 -4.058304e+000
    endloop
  endfacet
  facet normal -2.895092e-002  7.068107e-001  7.068101e-001
    outer loop
      vertex  1.000000e+000  7.008464e+000 -3.050000e+000
      vertex  1.000000e+000  7.319586e+000 -3.361122e+000
      vertex  0.000000e+000  7.143545e+000 -3.226041e+000
    endloop
  endfacet
  facet normal  8.461097e-002  2.578905e-001  9.624622e-001
    outer loop
      vertex  0.000000e+000  7.143545e+000 -3.226041e+000
      vertex  1.000000e+000  7.319586e+000 -3.361122e+000
      vertex  1.000000e+000  7.744586e+000 -3.475000e+000
    endloop
  endfacet
  facet normal  0.000000e+000  3.826832e-001  9.238796e-001
    outer loop
      vertex  0.000000e+000  7.143545e+000 -3.226041e+000
      vertex  1.000000e+000  7.744586e+000 -3.475000e+000
      vertex  0.000000e+000  7.744586e+000 -3.475000e+000
    endloop
  endfacet
  facet normal -2.895097e-002  7.068105e-001 -7.068103e-001
    outer loop
      vertex  1.000000e+000  7.319586e+000 -1.888878e+000
      vertex  1.000000e+000  7.008464e+000 -2.200000e+000
      vertex  0.000000e+000  7.143545e+000 -2.023959e+000
    endloop
  endfacet
  facet normal  8.461066e-002  9.624619e-001 -2.578917e-001
    outer loop
      vertex  0.000000e+000  7.143545e+000 -2.023959e+000
      vertex  1.000000e+000  7.008464e+000 -2.200000e+000
      vertex  1.000000e+000  6.894586e+000 -2.625000e+000
    endloop
  endfacet
  facet normal  0.000000e+000  9.238793e-001 -3.826838e-001
    outer loop
      vertex  0.000000e+000  7.143545e+000 -2.023959e+000
      vertex  1.000000e+000  6.894586e+000 -2.625000e+000
      vertex  0.000000e+000  6.894586e+000 -2.625000e+000
    endloop
  endfacet
  facet normal  -0.000000e+000  9.659257e-001  2.588198e-001
    outer loop
      vertex  0.000000e+000  6.894586e+000 -2.625000e+000
      vertex  1.000000e+000  6.894586e+000 -2.625000e+000
      vertex  1.000000e+000  7.008464e+000 -3.050000e+000
    endloop
  endfacet
  facet normal  5.733591e-002  9.223596e-001  3.820543e-001
    outer loop
      vertex  0.000000e+000  6.894586e+000 -2.625000e+000
      vertex  1.000000e+000  7.008464e+000 -3.050000e+000
      vertex  0.000000e+000  7.143545e+000 -3.226041e+000
    endloop
  endfacet
  facet normal  0.000000e+000  2.588191e-001 -9.659258e-001
    outer loop
      vertex  1.000000e+000  7.744586e+000 -1.775000e+000
      vertex  1.000000e+000  7.319586e+000 -1.888878e+000
      vertex  0.000000e+000  7.744586e+000 -1.775000e+000
    endloop
  endfacet
  facet normal  5.733600e-002  3.820538e-001 -9.223597e-001
    outer loop
      vertex  0.000000e+000  7.744586e+000 -1.775000e+000
      vertex  1.000000e+000  7.319586e+000 -1.888878e+000
      vertex  0.000000e+000  7.143545e+000 -2.023959e+000
    endloop
  endfacet
  facet normal -2.895113e-002 -7.068111e-001 -7.068097e-001
    outer loop
      vertex  1.000000e+000  8.480707e+000 -2.200000e+000
      vertex  1.000000e+000  8.169586e+000 -1.888878e+000
      vertex  0.000000e+000  8.345627e+000 -2.023959e+000
    endloop
  endfacet
  facet normal  8.461075e-002 -2.578910e-001 -9.624621e-001
    outer loop
      vertex  0.000000e+000  8.345627e+000 -2.023959e+000
      vertex  1.000000e+000  8.169586e+000 -1.888878e+000
      vertex  1.000000e+000  7.744586e+000 -1.775000e+000
    endloop
  endfacet
  facet normal  -0.000000e+000 -3.826833e-001 -9.238796e-001
    outer loop
      vertex  0.000000e+000  8.345627e+000 -2.023959e+000
      vertex  1.000000e+000  7.744586e+000 -1.775000e+000
      vertex  0.000000e+000  7.744586e+000 -1.775000e+000
    endloop
  endfacet
  facet normal -2.895109e-002 -7.068112e-001  7.068096e-001
    outer loop
      vertex  1.000000e+000  8.169586e+000 -3.361122e+000
      vertex  1.000000e+000  8.480707e+000 -3.050000e+000
      vertex  0.000000e+000  8.345627e+000 -3.226041e+000
    endloop
  endfacet
  facet normal  8.461042e-002 -9.624622e-001  2.578906e-001
    outer loop
      vertex  0.000000e+000  8.345627e+000 -3.226041e+000
      vertex  1.000000e+000  8.480707e+000 -3.050000e+000
      vertex  1.000000e+000  8.594585e+000 -2.625000e+000
    endloop
  endfacet
  facet normal  0.000000e+000 -9.238799e-001  3.826825e-001
    outer loop
      vertex  0.000000e+000  8.345627e+000 -3.226041e+000
      vertex  1.000000e+000  8.594585e+000 -2.625000e+000
      vertex  0.000000e+000  8.594585e+000 -2.625000e+000
    endloop
  endfacet
  facet normal  0.000000e+000 -9.659259e-001 -2.588187e-001
    outer loop
      vertex  0.000000e+000  8.594585e+000 -2.625000e+000
      vertex  1.000000e+000  8.594585e+000 -2.625000e+000
      vertex  1.000000e+000  8.480707e+000 -2.200000e+000
    endloop
  endfacet
  facet normal  5.733576e-002 -9.223601e-001 -3.820530e-001
    outer loop
      vertex  0.000000e+000  8.594585e+000 -2.625000e+000
      vertex  1.000000e+000  8.480707e+000 -2.200000e+000
      vertex  0.000000e+000  8.345627e+000 -2.023959e+000
    endloop
  endfacet
  facet normal  0.000000e+000 -2.588186e-001  9.659259e-001
    outer loop
      vertex  1.000000e+000  7.744586e+000 -3.475000e+000
      vertex  1.000000e+000  8.169586e+000 -3.361122e+000
      vertex  0.000000e+000  7.744586e+000 -3.475000e+000
    endloop
  endfacet
  facet normal  5.733614e-002 -3.820536e-001  9.223597e-001
    outer loop
      vertex  0.000000e+000  7.744586e+000 -3.475000e+000
      vertex  1.000000e+000  8.169586e+000 -3.361122e+000
      vertex  0.000000e+000  8.345627e+000 -3.226041e+000
    endloop
  endfacet
  facet normal  -0.000000e+000  9.782114e-001  2.076109e-001
    outer loop
      vertex  1.000000e+000  9.911451e+000  8.750000e-001
      vertex  0.000000e+000  9.911451e+000  8.750000e-001
      vertex  1.000000e+000  9.412441e+000  3.226212e+000
    endloop
  endfacet
  facet normal  0.000000e+000  9.782114e-001  2.076109e-001
    outer loop
      vertex  1.000000e+000  9.412441e+000  3.226212e+000
      vertex  0.000000e+000  9.911451e+000  8.750000e-001
      vertex  0.000000e+000  9.412441e+000  3.226212e+000
    endloop
  endfacet
  facet normal  0.000000e+000  0.000000e+000 -1.000000e+000
    outer loop
      vertex  0.000000e+000  6.390374e+000  8.750000e-001
      vertex  0.000000e+000  9.911451e+000  8.750000e-001
      vertex  1.000000e+000  6.390374e+000  8.750000e-001
    endloop
  endfacet
  facet normal  0.000000e+000  0.000000e+000 -1.000000e+000
    outer loop
      vertex  1.000000e+000  6.390374e+000  8.750000e-001
      vertex  0.000000e+000  9.911451e+000  8.750000e-001
      vertex  1.000000e+000  9.911451e+000  8.750000e-001
    endloop
  endfacet
  facet normal  1.586742e-001 -6.665745e-001  7.283550e-001
    outer loop
      vertex  0.000000e+000  3.148429e+000 -5.629378e+000
      vertex  1.000000e+000  4.072346e+000 -5.001682e+000
      vertex  0.000000e+000  5.328998e+000 -3.633770e+000
    endloop
  endfacet
  facet normal -1.120943e-001 -4.725551e-001  8.741432e-001
    outer loop
      vertex  1.000000e+000  1.953279e+000 -6.147233e+000
      vertex  1.000000e+000  4.072346e+000 -5.001682e+000
      vertex  0.000000e+000  3.148429e+000 -5.629378e+000
    endloop
  endfacet
  facet normal  1.666514e-001 -2.713071e-001  9.479556e-001
    outer loop
      vertex  0.000000e+000  3.066300e-001 -6.442708e+000
      vertex  1.000000e+000  1.953279e+000 -6.147233e+000
      vertex  0.000000e+000  3.148429e+000 -5.629378e+000
    endloop
  endfacet
  facet normal -9.616164e-002 -1.189301e-001  9.882351e-001
    outer loop
      vertex  0.000000e+000  3.066300e-001 -6.442708e+000
      vertex  1.000000e+000 -4.385146e-001 -6.435076e+000
      vertex  1.000000e+000  1.953279e+000 -6.147233e+000
    endloop
  endfacet
  facet normal  1.459587e-001  8.854056e-001  4.413082e-001
    outer loop
      vertex  0.000000e+000 -6.278389e+000 -1.477949e+000
      vertex  1.000000e+000 -6.000252e+000 -2.366721e+000
      vertex  0.000000e+000 -4.959806e+000 -4.123448e+000
    endloop
  endfacet
  facet normal -1.067101e-001  9.768096e-001  1.856230e-001
    outer loop
      vertex  1.000000e+000 -6.450000e+000  1.342676e-015
      vertex  1.000000e+000 -6.000252e+000 -2.366721e+000
      vertex  0.000000e+000 -6.278389e+000 -1.477949e+000
    endloop
  endfacet
  facet normal  1.691383e-001  9.855923e-001  0.000000e+000
    outer loop
      vertex  0.000000e+000 -6.278389e+000  1.477949e+000
      vertex  1.000000e+000 -6.450000e+000  1.342676e-015
      vertex  0.000000e+000 -6.278389e+000 -1.477949e+000
    endloop
  endfacet
  facet normal -1.067101e-001  9.768096e-001 -1.856230e-001
    outer loop
      vertex  0.000000e+000 -6.278389e+000  1.477949e+000
      vertex  1.000000e+000 -6.000252e+000  2.366721e+000
      vertex  1.000000e+000 -6.450000e+000  1.342676e-015
    endloop
  endfacet
  facet normal  1.459587e-001  8.854056e-001 -4.413082e-001
    outer loop
      vertex  1.000000e+000 -6.000252e+000  2.366721e+000
      vertex  0.000000e+000 -6.278389e+000  1.477949e+000
      vertex  0.000000e+000 -4.959806e+000  4.123448e+000
    endloop
  endfacet
  facet normal -5.905303e-002  8.438143e-001 -5.333762e-001
    outer loop
      vertex  0.000000e+000 -4.959806e+000  4.123448e+000
      vertex  1.000000e+000 -4.713171e+000  4.402915e+000
      vertex  1.000000e+000 -6.000252e+000  2.366721e+000
    endloop
  endfacet
  facet normal  1.666514e-001 -2.713071e-001 -9.479556e-001
    outer loop
      vertex  0.000000e+000  3.148429e+000  5.629378e+000
      vertex  1.000000e+000  1.953279e+000  6.147233e+000
      vertex  0.000000e+000  3.066300e-001  6.442708e+000
    endloop
  endfacet
  facet normal -1.120943e-001 -4.725551e-001 -8.741432e-001
    outer loop
      vertex  0.000000e+000  3.148429e+000  5.629378e+000
      vertex  1.000000e+000  4.072346e+000  5.001682e+000
      vertex  1.000000e+000  1.953279e+000  6.147233e+000
    endloop
  endfacet
  facet normal  1.586742e-001 -6.665745e-001 -7.283550e-001
    outer loop
      vertex  1.000000e+000  4.072346e+000  5.001682e+000
      vertex  0.000000e+000  3.148429e+000  5.629378e+000
      vertex  0.000000e+000  5.328998e+000  3.633770e+000
    endloop
  endfacet
  facet normal -8.023191e-002 -7.625788e-001  6.419006e-001
    outer loop
      vertex  1.000000e+000  4.072346e+000 -5.001682e+000
      vertex  1.000000e+000  5.623659e+000 -3.158720e+000
      vertex  0.000000e+000  5.328998e+000 -3.633770e+000
    endloop
  endfacet
  facet normal  1.271045e-001 -9.403104e-001  3.156909e-001
    outer loop
      vertex  0.000000e+000  5.328998e+000 -3.633770e+000
      vertex  1.000000e+000  5.623659e+000 -3.158720e+000
      vertex  1.000000e+000  6.390374e+000 -8.750000e-001
    endloop
  endfacet
  facet normal  0.000000e+000 -9.333104e-001  3.590707e-001
    outer loop
      vertex  0.000000e+000  5.328998e+000 -3.633770e+000
      vertex  1.000000e+000  6.390374e+000 -8.750000e-001
      vertex  0.000000e+000  6.390374e+000 -8.750000e-001
    endloop
  endfacet
  facet normal -5.905303e-002  8.438143e-001  5.333762e-001
    outer loop
      vertex  1.000000e+000 -6.000252e+000 -2.366721e+000
      vertex  1.000000e+000 -4.713171e+000 -4.402915e+000
      vertex  0.000000e+000 -4.959806e+000 -4.123448e+000
    endloop
  endfacet
  facet normal  7.962957e-002  5.886675e-001  8.044437e-001
    outer loop
      vertex  0.000000e+000 -4.959806e+000 -4.123448e+000
      vertex  1.000000e+000 -4.713171e+000 -4.402915e+000
      vertex  1.000000e+000 -2.769174e+000 -5.825473e+000
    endloop
  endfacet
  facet normal  4.021406e-002  6.015283e-001  7.978386e-001
    outer loop
      vertex  0.000000e+000 -4.959806e+000 -4.123448e+000
      vertex  1.000000e+000 -2.769174e+000 -5.825473e+000
      vertex  0.000000e+000 -2.599568e+000 -5.902944e+000
    endloop
  endfacet
  facet normal -3.201481e-002  2.529158e-001  9.669584e-001
    outer loop
      vertex  0.000000e+000 -2.599568e+000 -5.902944e+000
      vertex  1.000000e+000 -2.769174e+000 -5.825473e+000
      vertex  1.000000e+000 -4.385146e-001 -6.435076e+000
    endloop
  endfacet
  facet normal  1.275151e-001  1.811149e-001  9.751601e-001
    outer loop
      vertex  0.000000e+000 -2.599568e+000 -5.902944e+000
      vertex  1.000000e+000 -4.385146e-001 -6.435076e+000
      vertex  0.000000e+000  3.066300e-001 -6.442708e+000
    endloop
  endfacet
  facet normal -9.616164e-002 -1.189301e-001 -9.882351e-001
    outer loop
      vertex  1.000000e+000  1.953279e+000  6.147233e+000
      vertex  1.000000e+000 -4.385146e-001  6.435076e+000
      vertex  0.000000e+000  3.066300e-001  6.442708e+000
    endloop
  endfacet
  facet normal  1.782705e-001  2.489921e-001 -9.519572e-001
    outer loop
      vertex  0.000000e+000  3.066300e-001  6.442708e+000
      vertex  1.000000e+000 -4.385146e-001  6.435076e+000
      vertex  1.000000e+000 -2.769174e+000  5.825473e+000
    endloop
  endfacet
  facet normal -4.515098e-002  1.824194e-001 -9.821836e-001
    outer loop
      vertex  0.000000e+000  3.066300e-001  6.442708e+000
      vertex  1.000000e+000 -2.769174e+000  5.825473e+000
      vertex  0.000000e+000 -2.599568e+000  5.902944e+000
    endloop
  endfacet
  facet normal  3.761395e-002  5.901249e-001 -8.064353e-001
    outer loop
      vertex  0.000000e+000 -2.599568e+000  5.902944e+000
      vertex  1.000000e+000 -2.769174e+000  5.825473e+000
      vertex  1.000000e+000 -4.713171e+000  4.402915e+000
    endloop
  endfacet
  facet normal  7.446480e-002  6.003439e-001 -7.962676e-001
    outer loop
      vertex  0.000000e+000 -2.599568e+000  5.902944e+000
      vertex  1.000000e+000 -4.713171e+000  4.402915e+000
      vertex  0.000000e+000 -4.959806e+000  4.123448e+000
    endloop
  endfacet
  facet normal -8.023191e-002 -7.625788e-001 -6.419006e-001
    outer loop
      vertex  1.000000e+000  4.072346e+000  5.001682e+000
      vertex  0.000000e+000  5.328998e+000  3.633770e+000
      vertex  1.000000e+000  5.623659e+000  3.158720e+000
    endloop
  endfacet
  facet normal  1.038694e-001 -9.282621e-001 -3.571285e-001
    outer loop
      vertex  1.000000e+000  5.623659e+000  3.158720e+000
      vertex  0.000000e+000  5.328998e+000  3.633770e+000
      vertex  0.000000e+000  6.390374e+000  8.750000e-001
    endloop
  endfacet
  facet normal  0.000000e+000 -9.479994e-001 -3.182723e-001
    outer loop
      vertex  1.000000e+000  5.623659e+000  3.158720e+000
      vertex  0.000000e+000  6.390374e+000  8.750000e-001
      vertex  1.000000e+000  6.390374e+000  8.750000e-001
    endloop
  endfacet
  facet normal  0.000000e+000  0.000000e+000  1.000000e+000
    outer loop
      vertex  1.000000e+000  6.390374e+000 -8.750000e-001
      vertex  1.000000e+000  9.911451e+000 -8.750000e-001
      vertex  0.000000e+000  6.390374e+000 -8.750000e-001
    endloop
  endfacet
  facet normal  0.000000e+000  0.000000e+000  1.000000e+000
    outer loop
      vertex  0.000000e+000  6.390374e+000 -8.750000e-001
      vertex  1.000000e+000  9.911451e+000 -8.750000e-001
      vertex  0.000000e+000  9.911451e+000 -8.750000e-001
    endloop
  endfacet
  facet normal  0.000000e+000  9.782115e-001 -2.076109e-001
    outer loop
      vertex  1.000000e+000  9.412441e+000 -3.226212e+000
      vertex  0.000000e+000  9.412441e+000 -3.226212e+000
      vertex  1.000000e+000  9.911451e+000 -8.750000e-001
    endloop
  endfacet
  facet normal  0.000000e+000  9.782115e-001 -2.076109e-001
    outer loop
      vertex  1.000000e+000  9.911451e+000 -8.750000e-001
      vertex  0.000000e+000  9.412441e+000 -3.226212e+000
      vertex  0.000000e+000  9.911451e+000 -8.750000e-001
    endloop
  endfacet
  facet normal  0.000000e+000  8.018827e-001 -5.974814e-001
    outer loop
      vertex  0.000000e+000  9.412441e+000 -3.226212e+000
      vertex  1.000000e+000  9.412441e+000 -3.226212e+000
      vertex  0.000000e+000  8.792451e+000 -4.058304e+000
    endloop
  endfacet
  facet normal  6.477771e-006  8.018790e-001 -5.974865e-001
    outer loop
      vertex  0.000000e+000  8.792451e+000 -4.058304e+000
      vertex  1.000000e+000  9.412441e+000 -3.226212e+000
      vertex  1.000000e+000  8.792447e+000 -4.058299e+000
    endloop
  endfacet
  facet normal  6.613278e-006  3.051977e-001 -9.522890e-001
    outer loop
      vertex  0.000000e+000  8.792451e+000 -4.058304e+000
      vertex  1.000000e+000  8.792447e+000 -4.058299e+000
      vertex  0.000000e+000  7.804286e+000 -4.375000e+000
    endloop
  endfacet
  facet normal  0.000000e+000  3.052038e-001 -9.522871e-001
    outer loop
      vertex  0.000000e+000  7.804286e+000 -4.375000e+000
      vertex  1.000000e+000  8.792447e+000 -4.058299e+000
      vertex  1.000000e+000  7.804286e+000 -4.375000e+000
    endloop
  endfacet
  facet normal  0.000000e+000  0.000000e+000 -1.000000e+000
    outer loop
      vertex  0.000000e+000  6.498888e+000 -4.375000e+000
      vertex  0.000000e+000  7.804286e+000 -4.375000e+000
      vertex  1.000000e+000  6.498888e+000 -4.375000e+000
    endloop
  endfacet
  facet normal  0.000000e+000  0.000000e+000 -1.000000e+000
    outer loop
      vertex  1.000000e+000  6.498888e+000 -4.375000e+000
      vertex  0.000000e+000  7.804286e+000 -4.375000e+000
      vertex  1.000000e+000  7.804286e+000 -4.375000e+000
    endloop
  endfacet
  facet normal  0.000000e+000  7.162056e-001 -6.978894e-001
    outer loop
      vertex  0.000000e+000  6.498888e+000 -4.375000e+000
      vertex  1.000000e+000  6.498888e+000 -4.375000e+000
      vertex  0.000000e+000  4.030457e+000 -6.908215e+000
    endloop
  endfacet
  facet normal  0.000000e+000  7.162056e-001 -6.978894e-001
    outer loop
      vertex  0.000000e+000  4.030457e+000 -6.908215e+000
      vertex  1.000000e+000  6.498888e+000 -4.375000e+000
      vertex  1.000000e+000  4.030457e+000 -6.908215e+000
    endloop
  endfacet
  facet normal  0.000000e+000  3.593734e-001 -9.331939e-001
    outer loop
      vertex  0.000000e+000  4.030457e+000 -6.908215e+000
      vertex  1.000000e+000  4.030457e+000 -6.908215e+000
      vertex  0.000000e+000  7.297553e-001 -8.179317e+000
    endloop
  endfacet
  facet normal  0.000000e+000  3.593734e-001 -9.331939e-001
    outer loop
      vertex  0.000000e+000  7.297553e-001 -8.179317e+000
      vertex  1.000000e+000  4.030457e+000 -6.908215e+000
      vertex  1.000000e+000  7.297553e-001 -8.179317e+000
    endloop
  endfacet
  facet normal  -0.000000e+000 -6.311584e-002 -9.980063e-001
    outer loop
      vertex  0.000000e+000  7.297553e-001 -8.179317e+000
      vertex  1.000000e+000  7.297553e-001 -8.179317e+000
      vertex  0.000000e+000 -2.800187e+000 -7.956076e+000
    endloop
  endfacet
  facet normal  0.000000e+000 -6.311584e-002 -9.980063e-001
    outer loop
      vertex  0.000000e+000 -2.800187e+000 -7.956076e+000
      vertex  1.000000e+000  7.297553e-001 -8.179317e+000
      vertex  1.000000e+000 -2.800187e+000 -7.956076e+000
    endloop
  endfacet
  facet normal  -0.000000e+000 -4.740737e-001 -8.804852e-001
    outer loop
      vertex  0.000000e+000 -2.800187e+000 -7.956076e+000
      vertex  1.000000e+000 -2.800187e+000 -7.956076e+000
      vertex  0.000000e+000 -5.914458e+000 -6.279280e+000
    endloop
  endfacet
  facet normal  0.000000e+000 -4.740737e-001 -8.804852e-001
    outer loop
      vertex  0.000000e+000 -5.914458e+000 -6.279280e+000
      vertex  1.000000e+000 -2.800187e+000 -7.956076e+000
      vertex  1.000000e+000 -5.914458e+000 -6.279280e+000
    endloop
  endfacet
  facet normal  -0.000000e+000 -7.984194e-001 -6.021016e-001
    outer loop
      vertex  0.000000e+000 -5.914458e+000 -6.279280e+000
      vertex  1.000000e+000 -5.914458e+000 -6.279280e+000
      vertex  0.000000e+000 -8.044088e+000 -3.455275e+000
    endloop
  endfacet
  facet normal  0.000000e+000 -7.984194e-001 -6.021016e-001
    outer loop
      vertex  0.000000e+000 -8.044088e+000 -3.455275e+000
      vertex  1.000000e+000 -5.914458e+000 -6.279280e+000
      vertex  1.000000e+000 -8.044088e+000 -3.455275e+000
    endloop
  endfacet
  facet normal  -0.000000e+000 -9.768959e-001 -2.137159e-001
    outer loop
      vertex  0.000000e+000 -8.044088e+000 -3.455275e+000
      vertex  1.000000e+000 -8.044088e+000 -3.455275e+000
      vertex  0.000000e+000 -8.800000e+000  7.300001e-017
    endloop
  endfacet
  facet normal  8.153208e-017 -9.768959e-001 -2.137159e-001
    outer loop
      vertex  0.000000e+000 -8.800000e+000  7.300001e-017
      vertex  1.000000e+000 -8.044088e+000 -3.455275e+000
      vertex  1.000000e+000 -8.800000e+000  4.544976e-016
    endloop
  endfacet
  facet normal -8.153208e-017 -9.768959e-001  2.137159e-001
    outer loop
      vertex  0.000000e+000 -8.800000e+000  7.300001e-017
      vertex  1.000000e+000 -8.800000e+000  4.544976e-016
      vertex  0.000000e+000 -8.044088e+000  3.455275e+000
    endloop
  endfacet
  facet normal  0.000000e+000 -9.768959e-001  2.137159e-001
    outer loop
      vertex  0.000000e+000 -8.044088e+000  3.455275e+000
      vertex  1.000000e+000 -8.800000e+000  4.544976e-016
      vertex  1.000000e+000 -8.044088e+000  3.455275e+000
    endloop
  endfacet
  facet normal  0.000000e+000 -7.984194e-001  6.021016e-001
    outer loop
      vertex  0.000000e+000 -8.044088e+000  3.455275e+000
      vertex  1.000000e+000 -8.044088e+000  3.455275e+000
      vertex  0.000000e+000 -5.914458e+000  6.279280e+000
    endloop
  endfacet
  facet normal  0.000000e+000 -7.984194e-001  6.021016e-001
    outer loop
      vertex  0.000000e+000 -5.914458e+000  6.279280e+000
      vertex  1.000000e+000 -8.044088e+000  3.455275e+000
      vertex  1.000000e+000 -5.914458e+000  6.279280e+000
    endloop
  endfacet
  facet normal  0.000000e+000 -4.740737e-001  8.804852e-001
    outer loop
      vertex  0.000000e+000 -5.914458e+000  6.279280e+000
      vertex  1.000000e+000 -5.914458e+000  6.279280e+000
      vertex  0.000000e+000 -2.800187e+000  7.956076e+000
    endloop
  endfacet
  facet normal  0.000000e+000 -4.740737e-001  8.804852e-001
    outer loop
      vertex  0.000000e+000 -2.800187e+000  7.956076e+000
      vertex  1.000000e+000 -5.914458e+000  6.279280e+000
      vertex  1.000000e+000 -2.800187e+000  7.956076e+000
    endloop
  endfacet
  facet normal  0.000000e+000 -6.311584e-002  9.980063e-001
    outer loop
      vertex  0.000000e+000 -2.800187e+000  7.956076e+000
      vertex  1.000000e+000 -2.800187e+000  7.956076e+000
      vertex  0.000000e+000  7.297553e-001  8.179317e+000
    endloop
  endfacet
  facet normal  0.000000e+000 -6.311584e-002  9.980063e-001
    outer loop
      vertex  0.000000e+000  7.297553e-001  8.179317e+000
      vertex  1.000000e+000 -2.800187e+000  7.956076e+000
      vertex  1.000000e+000  7.297553e-001  8.179317e+000
    endloop
  endfacet
  facet normal  0.000000e+000  3.593734e-001  9.331939e-001
    outer loop
      vertex  0.000000e+000  7.297553e-001  8.179317e+000
      vertex  1.000000e+000  7.297553e-001  8.179317e+000
      vertex  0.000000e+000  4.030457e+000  6.908215e+000
    endloop
  endfacet
  facet normal  -0.000000e+000  3.593734e-001  9.331939e-001
    outer loop
      vertex  0.000000e+000  4.030457e+000  6.908215e+000
      vertex  1.000000e+000  7.297553e-001  8.179317e+000
      vertex  1.000000e+000  4.030457e+000  6.908215e+000
    endloop
  endfacet
  facet normal  0.000000e+000  7.162056e-001  6.978894e-001
    outer loop
      vertex  0.000000e+000  4.030457e+000  6.908215e+000
      vertex  1.000000e+000  4.030457e+000  6.908215e+000
      vertex  0.000000e+000  6.498888e+000  4.375000e+000
    endloop
  endfacet
  facet normal  -0.000000e+000  7.162056e-001  6.978894e-001
    outer loop
      vertex  0.000000e+000  6.498888e+000  4.375000e+000
      vertex  1.000000e+000  4.030457e+000  6.908215e+000
      vertex  1.000000e+000  6.498888e+000  4.375000e+000
    endloop
  endfacet
  facet normal  0.000000e+000  0.000000e+000  1.000000e+000
    outer loop
      vertex  1.000000e+000  6.498888e+000  4.375000e+000
      vertex  1.000000e+000  7.804286e+000  4.375000e+000
      vertex  0.000000e+000  6.498888e+000  4.375000e+000
    endloop
  endfacet
  facet normal  0.000000e+000  0.000000e+000  1.000000e+000
    outer loop
      vertex  0.000000e+000  6.498888e+000  4.375000e+000
      vertex  1.000000e+000  7.804286e+000  4.375000e+000
      vertex  0.000000e+000  7.804286e+000  4.375000e+000
    endloop
  endfacet
  facet normal -2.895097e-002  7.068105e-001  7.068103e-001
    outer loop
      vertex  1.000000e+000  7.008464e+000  2.200000e+000
      vertex  1.000000e+000  7.319586e+000  1.888878e+000
      vertex  0.000000e+000  7.143545e+000  2.023959e+000
    endloop
  endfacet
  facet normal  8.461075e-002  2.578910e-001  9.624621e-001
    outer loop
      vertex  0.000000e+000  7.143545e+000  2.023959e+000
      vertex  1.000000e+000  7.319586e+000  1.888878e+000
      vertex  1.000000e+000  7.744586e+000  1.775000e+000
    endloop
  endfacet
  facet normal  0.000000e+000  3.826833e-001  9.238796e-001
    outer loop
      vertex  0.000000e+000  7.143545e+000  2.023959e+000
      vertex  1.000000e+000  7.744586e+000  1.775000e+000
      vertex  0.000000e+000  7.744586e+000  1.775000e+000
    endloop
  endfacet
  facet normal -2.895092e-002  7.068107e-001 -7.068101e-001
    outer loop
      vertex  1.000000e+000  7.319586e+000  3.361122e+000
      vertex  1.000000e+000  7.008464e+000  3.050000e+000
      vertex  0.000000e+000  7.143545e+000  3.226041e+000
    endloop
  endfacet
  facet normal  8.461066e-002  9.624619e-001 -2.578917e-001
    outer loop
      vertex  0.000000e+000  7.143545e+000  3.226041e+000
      vertex  1.000000e+000  7.008464e+000  3.050000e+000
      vertex  1.000000e+000  6.894586e+000  2.625000e+000
    endloop
  endfacet
  facet normal  0.000000e+000  9.238793e-001 -3.826838e-001
    outer loop
      vertex  0.000000e+000  7.143545e+000  3.226041e+000
      vertex  1.000000e+000  6.894586e+000  2.625000e+000
      vertex  0.000000e+000  6.894586e+000  2.625000e+000
    endloop
  endfacet
  facet normal  -0.000000e+000  9.659257e-001  2.588198e-001
    outer loop
      vertex  0.000000e+000  6.894586e+000  2.625000e+000
      vertex  1.000000e+000  6.894586e+000  2.625000e+000
      vertex  1.000000e+000  7.008464e+000  2.200000e+000
    endloop
  endfacet
  facet normal  5.733591e-002  9.223596e-001  3.820543e-001
    outer loop
      vertex  0.000000e+000  6.894586e+000  2.625000e+000
      vertex  1.000000e+000  7.008464e+000  2.200000e+000
      vertex  0.000000e+000  7.143545e+000  2.023959e+000
    endloop
  endfacet
  facet normal  0.000000e+000  2.588186e-001 -9.659259e-001
    outer loop
      vertex  1.000000e+000  7.744586e+000  3.475000e+000
      vertex  1.000000e+000  7.319586e+000  3.361122e+000
      vertex  0.000000e+000  7.744586e+000  3.475000e+000
    endloop
  endfacet
  facet normal  5.733614e-002  3.820536e-001 -9.223597e-001
    outer loop
      vertex  0.000000e+000  7.744586e+000  3.475000e+000
      vertex  1.000000e+000  7.319586e+000  3.361122e+000
      vertex  0.000000e+000  7.143545e+000  3.226041e+000
    endloop
  endfacet
  facet normal -2.895109e-002 -7.068112e-001 -7.068096e-001
    outer loop
      vertex  1.000000e+000  8.480707e+000  3.050000e+000
      vertex  1.000000e+000  8.169586e+000  3.361122e+000
      vertex  0.000000e+000  8.345627e+000  3.226041e+000
    endloop
  endfacet
  facet normal  8.461097e-002 -2.578905e-001 -9.624622e-001
    outer loop
      vertex  0.000000e+000  8.345627e+000  3.226041e+000
      vertex  1.000000e+000  8.169586e+000  3.361122e+000
      vertex  1.000000e+000  7.744586e+000  3.475000e+000
    endloop
  endfacet
  facet normal  -0.000000e+000 -3.826832e-001 -9.238796e-001
    outer loop
      vertex  0.000000e+000  8.345627e+000  3.226041e+000
      vertex  1.000000e+000  7.744586e+000  3.475000e+000
      vertex  0.000000e+000  7.744586e+000  3.475000e+000
    endloop
  endfacet
  facet normal -2.895113e-002 -7.068111e-001  7.068097e-001
    outer loop
      vertex  1.000000e+000  8.169586e+000  1.888878e+000
      vertex  1.000000e+000  8.480707e+000  2.200000e+000
      vertex  0.000000e+000  8.345627e+000  2.023959e+000
    endloop
  endfacet
  facet normal  8.461042e-002 -9.624622e-001  2.578906e-001
    outer loop
      vertex  0.000000e+000  8.345627e+000  2.023959e+000
      vertex  1.000000e+000  8.480707e+000  2.200000e+000
      vertex  1.000000e+000  8.594585e+000  2.625000e+000
    endloop
  endfacet
  facet normal  0.000000e+000 -9.238799e-001  3.826825e-001
    outer loop
      vertex  0.000000e+000  8.345627e+000  2.023959e+000
      vertex  1.000000e+000  8.594585e+000  2.625000e+000
      vertex  0.000000e+000  8.594585e+000  2.625000e+000
    endloop
  endfacet
  facet normal  0.000000e+000 -9.659259e-001 -2.588187e-001
    outer loop
      vertex  0.000000e+000  8.594585e+000  2.625000e+000
      vertex  1.000000e+000  8.594585e+000  2.625000e+000
      vertex  1.000000e+000  8.480707e+000  3.050000e+000
    endloop
  endfacet
  facet normal  5.733576e-002 -9.223601e-001 -3.820530e-001
    outer loop
      vertex  0.000000e+000  8.594585e+000  2.625000e+000
      vertex  1.000000e+000  8.480707e+000  3.050000e+000
      vertex  0.000000e+000  8.345627e+000  3.226041e+000
    endloop
  endfacet
  facet normal  0.000000e+000 -2.588191e-001  9.659258e-001
    outer loop
      vertex  1.000000e+000  7.744586e+000  1.775000e+000
      vertex  1.000000e+000  8.169586e+000  1.888878e+000
      vertex  0.000000e+000  7.744586e+000  1.775000e+000
    endloop
  endfacet
  facet normal  5.733600e-002 -3.820538e-001  9.223597e-001
    outer loop
      vertex  0.000000e+000  7.744586e+000  1.775000e+000
      vertex  1.000000e+000  8.169586e+000  1.888878e+000
      vertex  0.000000e+000  8.345627e+000  2.023959e+000
    endloop
  endfacet
  facet normal  1.000000e+000  0.000000e+000  0.000000e+000
    outer loop
      vertex  1.000000e+000  9.412441e+000  3.226212e+000
      vertex  1.000000e+000  8.792451e+000  4.058304e+000
      vertex  1.000000e+000  8.594585e+000  2.625000e+000
    endloop
  endfacet
  facet normal  1.000000e+000  -0.000000e+000  0.000000e+000
    outer loop
      vertex  1.000000e+000  9.412441e+000  3.226212e+000
      vertex  1.000000e+000  8.594585e+000  2.625000e+000
      vertex  1.000000e+000  8.480707e+000  2.200000e+000
    endloop
  endfacet
  facet normal  1.000000e+000  0.000000e+000  0.000000e+000
    outer loop
      vertex  1.000000e+000  7.744586e+000  3.475000e+000
      vertex  1.000000e+000  8.169586e+000  3.361122e+000
      vertex  1.000000e+000  7.804286e+000  4.375000e+000
    endloop
  endfacet
  facet normal  1.000000e+000  0.000000e+000  0.000000e+000
    outer loop
      vertex  1.000000e+000  9.412441e+000 -3.226212e+000
      vertex  1.000000e+000  8.594585e+000 -2.625000e+000
      vertex  1.000000e+000  8.792447e+000 -4.058299e+000
    endloop
  endfacet
  facet normal  9.999999e-001  0.000000e+000  0.000000e+000
    outer loop
      vertex  1.000000e+000  8.792447e+000 -4.058299e+000
      vertex  1.000000e+000  8.594585e+000 -2.625000e+000
      vertex  1.000000e+000  8.480707e+000 -3.050000e+000
    endloop
  endfacet
  facet normal  1.000000e+000  0.000000e+000  0.000000e+000
    outer loop
      vertex  1.000000e+000  7.804286e+000 -4.375000e+000
      vertex  1.000000e+000  8.792447e+000 -4.058299e+000
      vertex  1.000000e+000  8.480707e+000 -3.050000e+000
    endloop
  endfacet
  facet normal  1.000000e+000  0.000000e+000  0.000000e+000
    outer loop
      vertex  1.000000e+000  7.804286e+000 -4.375000e+000
      vertex  1.000000e+000  8.480707e+000 -3.050000e+000
      vertex  1.000000e+000  8.169586e+000 -3.361122e+000
    endloop
  endfacet
  facet normal  1.000000e+000  0.000000e+000  0.000000e+000
    outer loop
      vertex  1.000000e+000  7.804286e+000 -4.375000e+000
      vertex  1.000000e+000  8.169586e+000 -3.361122e+000
      vertex  1.000000e+000  7.744586e+000 -3.475000e+000
    endloop
  endfacet
  facet normal  1.000000e+000  0.000000e+000  0.000000e+000
    outer loop
      vertex  1.000000e+000  7.804286e+000 -4.375000e+000
      vertex  1.000000e+000  7.744586e+000 -3.475000e+000
      vertex  1.000000e+000  6.498888e+000 -4.375000e+000
    endloop
  endfacet
  facet normal  1.000000e+000  -0.000000e+000  0.000000e+000
    outer loop
      vertex  1.000000e+000  9.911451e+000 -8.750000e-001
      vertex  1.000000e+000  6.390374e+000 -8.750000e-001
      vertex  1.000000e+000  8.169586e+000 -1.888878e+000
    endloop
  endfacet
  facet normal  1.000000e+000  -0.000000e+000  0.000000e+000
    outer loop
      vertex  1.000000e+000  9.911451e+000 -8.750000e-001
      vertex  1.000000e+000  8.169586e+000 -1.888878e+000
      vertex  1.000000e+000  8.480707e+000 -2.200000e+000
    endloop
  endfacet
  facet normal  9.999999e-001  -0.000000e+000  0.000000e+000
    outer loop
      vertex  1.000000e+000  9.911451e+000 -8.750000e-001
      vertex  1.000000e+000  8.480707e+000 -2.200000e+000
      vertex  1.000000e+000  8.594585e+000 -2.625000e+000
    endloop
  endfacet
  facet normal  1.000000e+000  -0.000000e+000  0.000000e+000
    outer loop
      vertex  1.000000e+000  9.911451e+000 -8.750000e-001
      vertex  1.000000e+000  8.594585e+000 -2.625000e+000
      vertex  1.000000e+000  9.412441e+000 -3.226212e+000
    endloop
  endfacet
  facet normal  1.000000e+000  0.000000e+000  0.000000e+000
    outer loop
      vertex  1.000000e+000  9.911451e+000  8.750000e-001
      vertex  1.000000e+000  9.412441e+000  3.226212e+000
      vertex  1.000000e+000  8.480707e+000  2.200000e+000
    endloop
  endfacet
  facet normal  1.000000e+000  0.000000e+000  0.000000e+000
    outer loop
      vertex  1.000000e+000  9.911451e+000  8.750000e-001
      vertex  1.000000e+000  8.480707e+000  2.200000e+000
      vertex  1.000000e+000  8.169586e+000  1.888878e+000
    endloop
  endfacet
  facet normal  1.000000e+000  0.000000e+000  0.000000e+000
    outer loop
      vertex  1.000000e+000  9.911451e+000  8.750000e-001
      vertex  1.000000e+000  8.169586e+000  1.888878e+000
      vertex  1.000000e+000  6.390374e+000  8.750000e-001
    endloop
  endfacet
  facet normal  1.000000e+000  -0.000000e+000  0.000000e+000
    outer loop
      vertex  1.000000e+000  6.390374e+000 -8.750000e-001
      vertex  1.000000e+000  5.623659e+000 -3.158720e+000
      vertex  1.000000e+000  6.498888e+000 -4.375000e+000
    endloop
  endfacet
  facet normal  1.000000e+000  0.000000e+000  -0.000000e+000
    outer loop
      vertex  1.000000e+000  6.390374e+000 -8.750000e-001
      vertex  1.000000e+000  6.498888e+000 -4.375000e+000
      vertex  1.000000e+000  6.894586e+000 -2.625000e+000
    endloop
  endfacet
  facet normal  1.000000e+000  0.000000e+000  -0.000000e+000
    outer loop
      vertex  1.000000e+000  6.390374e+000 -8.750000e-001
      vertex  1.000000e+000  6.894586e+000 -2.625000e+000
      vertex  1.000000e+000  7.008464e+000 -2.200000e+000
    endloop
  endfacet
  facet normal  1.000000e+000  0.000000e+000  -0.000000e+000
    outer loop
      vertex  1.000000e+000  6.390374e+000 -8.750000e-001
      vertex  1.000000e+000  7.008464e+000 -2.200000e+000
      vertex  1.000000e+000  7.319586e+000 -1.888878e+000
    endloop
  endfacet
  facet normal  9.999999e-001  0.000000e+000  -0.000000e+000
    outer loop
      vertex  1.000000e+000  6.390374e+000 -8.750000e-001
      vertex  1.000000e+000  7.319586e+000 -1.888878e+000
      vertex  1.000000e+000  7.744586e+000 -1.775000e+000
    endloop
  endfacet
  facet normal  1.000000e+000  -0.000000e+000  -0.000000e+000
    outer loop
      vertex  1.000000e+000  6.390374e+000 -8.750000e-001
      vertex  1.000000e+000  7.744586e+000 -1.775000e+000
      vertex  1.000000e+000  8.169586e+000 -1.888878e+000
    endloop
  endfacet
  facet normal  1.000000e+000  0.000000e+000  0.000000e+000
    outer loop
      vertex  1.000000e+000  6.498888e+000  4.375000e+000
      vertex  1.000000e+000  4.030457e+000  6.908215e+000
      vertex  1.000000e+000  4.072346e+000  5.001682e+000
    endloop
  endfacet
  facet normal  1.000000e+000  0.000000e+000  0.000000e+000
    outer loop
      vertex  1.000000e+000  6.498888e+000  4.375000e+000
      vertex  1.000000e+000  4.072346e+000  5.001682e+000
      vertex  1.000000e+000  5.623659e+000  3.158720e+000
    endloop
  endfacet
  facet normal  1.000000e+000  -0.000000e+000  0.000000e+000
    outer loop
      vertex  1.000000e+000  6.498888e+000  4.375000e+000
      vertex  1.000000e+000  5.623659e+000  3.158720e+000
      vertex  1.000000e+000  6.390374e+000  8.750000e-001
    endloop
  endfacet
  facet normal  1.000000e+000  0.000000e+000  0.000000e+000
    outer loop
      vertex  1.000000e+000  6.498888e+000  4.375000e+000
      vertex  1.000000e+000  6.390374e+000  8.750000e-001
      vertex  1.000000e+000  6.894586e+000  2.625000e+000
    endloop
  endfacet
  facet normal  1.000000e+000  0.000000e+000  -0.000000e+000
    outer loop
      vertex  1.000000e+000  6.498888e+000  4.375000e+000
      vertex  1.000000e+000  6.894586e+000  2.625000e+000
      vertex  1.000000e+000  7.008464e+000  3.050000e+000
    endloop
  endfacet
  facet normal  1.000000e+000  0.000000e+000  -0.000000e+000
    outer loop
      vertex  1.000000e+000  6.498888e+000  4.375000e+000
      vertex  1.000000e+000  7.008464e+000  3.050000e+000
      vertex  1.000000e+000  7.319586e+000  3.361122e+000
    endloop
  endfacet
  facet normal  1.000000e+000  0.000000e+000  -0.000000e+000
    outer loop
      vertex  1.000000e+000  6.498888e+000  4.375000e+000
      vertex  1.000000e+000  7.319586e+000  3.361122e+000
      vertex  1.000000e+000  7.744586e+000  3.475000e+000
    endloop
  endfacet
  facet normal  1.000000e+000  0.000000e+000  -0.000000e+000
    outer loop
      vertex  1.000000e+000  6.498888e+000  4.375000e+000
      vertex  1.000000e+000  7.744586e+000  3.475000e+000
      vertex  1.000000e+000  7.804286e+000  4.375000e+000
    endloop
  endfacet
  facet normal  1.000000e+000  0.000000e+000  0.000000e+000
    outer loop
      vertex  1.000000e+000  6.390374e+000  8.750000e-001
      vertex  1.000000e+000  8.169586e+000  1.888878e+000
      vertex  1.000000e+000  7.744586e+000  1.775000e+000
    endloop
  endfacet
  facet normal  9.999999e-001  0.000000e+000  0.000000e+000
    outer loop
      vertex  1.000000e+000  6.390374e+000  8.750000e-001
      vertex  1.000000e+000  7.744586e+000  1.775000e+000
      vertex  1.000000e+000  7.319586e+000  1.888878e+000
    endloop
  endfacet
  facet normal  1.000000e+000  0.000000e+000  0.000000e+000
    outer loop
      vertex  1.000000e+000  6.390374e+000  8.750000e-001
      vertex  1.000000e+000  7.319586e+000  1.888878e+000
      vertex  1.000000e+000  7.008464e+000  2.200000e+000
    endloop
  endfacet
  facet normal  1.000000e+000  0.000000e+000  0.000000e+000
    outer loop
      vertex  1.000000e+000  6.390374e+000  8.750000e-001
      vertex  1.000000e+000  7.008464e+000  2.200000e+000
      vertex  1.000000e+000  6.894586e+000  2.625000e+000
    endloop
  endfacet
  facet normal  1.000000e+000  0.000000e+000  0.000000e+000
    outer loop
      vertex  1.000000e+000  6.498888e+000 -4.375000e+000
      vertex  1.000000e+000  7.744586e+000 -3.475000e+000
      vertex  1.000000e+000  7.319586e+000 -3.361122e+000
    endloop
  endfacet
  facet normal  1.000000e+000  0.000000e+000  0.000000e+000
    outer loop
      vertex  1.000000e+000  6.498888e+000 -4.375000e+000
      vertex  1.000000e+000  7.319586e+000 -3.361122e+000
      vertex  1.000000e+000  7.008464e+000 -3.050000e+000
    endloop
  endfacet
  facet normal  1.000000e+000  0.000000e+000  0.000000e+000
    outer loop
      vertex  1.000000e+000  6.498888e+000 -4.375000e+000
      vertex  1.000000e+000  7.008464e+000 -3.050000e+000
      vertex  1.000000e+000  6.894586e+000 -2.625000e+000
    endloop
  endfacet
  facet normal  1.000000e+000  -0.000000e+000  0.000000e+000
    outer loop
      vertex  1.000000e+000 -6.450000e+000  1.342676e-015
      vertex  1.000000e+000 -8.800000e+000  4.544976e-016
      vertex  1.000000e+000 -6.000252e+000 -2.366721e+000
    endloop
  endfacet
  facet normal  1.000000e+000  0.000000e+000  0.000000e+000
    outer loop
      vertex  1.000000e+000 -6.000252e+000 -2.366721e+000
      vertex  1.000000e+000 -8.800000e+000  4.544976e-016
      vertex  1.000000e+000 -8.044088e+000 -3.455275e+000
    endloop
  endfacet
  facet normal  1.000000e+000  -0.000000e+000  0.000000e+000
    outer loop
      vertex  1.000000e+000 -6.000252e+000 -2.366721e+000
      vertex  1.000000e+000 -8.044088e+000 -3.455275e+000
      vertex  1.000000e+000 -4.713171e+000 -4.402915e+000
    endloop
  endfacet
  facet normal  1.000000e+000  0.000000e+000  0.000000e+000
    outer loop
      vertex  1.000000e+000 -4.713171e+000 -4.402915e+000
      vertex  1.000000e+000 -8.044088e+000 -3.455275e+000
      vertex  1.000000e+000 -5.914458e+000 -6.279280e+000
    endloop
  endfacet
  facet normal  1.000000e+000  0.000000e+000  0.000000e+000
    outer loop
      vertex  1.000000e+000 -4.713171e+000 -4.402915e+000
      vertex  1.000000e+000 -5.914458e+000 -6.279280e+000
      vertex  1.000000e+000 -2.769174e+000 -5.825473e+000
    endloop
  endfacet
  facet normal  1.000000e+000  0.000000e+000  0.000000e+000
    outer loop
      vertex  1.000000e+000 -2.769174e+000 -5.825473e+000
      vertex  1.000000e+000 -5.914458e+000 -6.279280e+000
      vertex  1.000000e+000 -2.800187e+000 -7.956076e+000
    endloop
  endfacet
  facet normal  1.000000e+000  0.000000e+000  0.000000e+000
    outer loop
      vertex  1.000000e+000 -2.769174e+000 -5.825473e+000
      vertex  1.000000e+000 -2.800187e+000 -7.956076e+000
      vertex  1.000000e+000 -4.385146e-001 -6.435076e+000
    endloop
  endfacet
  facet normal  9.999999e-001  0.000000e+000  0.000000e+000
    outer loop
      vertex  1.000000e+000 -4.385146e-001 -6.435076e+000
      vertex  1.000000e+000 -2.800187e+000 -7.956076e+000
      vertex  1.000000e+000  7.297553e-001 -8.179317e+000
    endloop
  endfacet
  facet normal  1.000000e+000  0.000000e+000  -0.000000e+000
    outer loop
      vertex  1.000000e+000 -4.385146e-001 -6.435076e+000
      vertex  1.000000e+000  7.297553e-001 -8.179317e+000
      vertex  1.000000e+000  1.953279e+000 -6.147233e+000
    endloop
  endfacet
  facet normal  1.000000e+000  0.000000e+000  0.000000e+000
    outer loop
      vertex  1.000000e+000 -8.800000e+000  4.544976e-016
      vertex  1.000000e+000 -6.450000e+000  1.342676e-015
      vertex  1.000000e+000 -8.044088e+000  3.455275e+000
    endloop
  endfacet
  facet normal  1.000000e+000  0.000000e+000  0.000000e+000
    outer loop
      vertex  1.000000e+000 -8.044088e+000  3.455275e+000
      vertex  1.000000e+000 -6.450000e+000  1.342676e-015
      vertex  1.000000e+000 -6.000252e+000  2.366721e+000
    endloop
  endfacet
  facet normal  1.000000e+000  0.000000e+000  -0.000000e+000
    outer loop
      vertex  1.000000e+000 -8.044088e+000  3.455275e+000
      vertex  1.000000e+000 -6.000252e+000  2.366721e+000
      vertex  1.000000e+000 -5.914458e+000  6.279280e+000
    endloop
  endfacet
  facet normal  1.000000e+000  0.000000e+000  0.000000e+000
    outer loop
      vertex  1.000000e+000 -5.914458e+000  6.279280e+000
      vertex  1.000000e+000 -6.000252e+000  2.366721e+000
      vertex  1.000000e+000 -4.713171e+000  4.402915e+000
    endloop
  endfacet
  facet normal  1.000000e+000  0.000000e+000  -0.000000e+000
    outer loop
      vertex  1.000000e+000 -5.914458e+000  6.279280e+000
      vertex  1.000000e+000 -4.713171e+000  4.402915e+000
      vertex  1.000000e+000 -2.800187e+000  7.956076e+000
    endloop
  endfacet
  facet normal  1.000000e+000  0.000000e+000  0.000000e+000
    outer loop
      vertex  1.000000e+000 -2.800187e+000  7.956076e+000
      vertex  1.000000e+000 -4.713171e+000  4.402915e+000
      vertex  1.000000e+000 -2.769174e+000  5.825473e+000
    endloop
  endfacet
  facet normal  1.000000e+000  0.000000e+000  -0.000000e+000
    outer loop
      vertex  1.000000e+000 -2.800187e+000  7.956076e+000
      vertex  1.000000e+000 -2.769174e+000  5.825473e+000
      vertex  1.000000e+000  7.297553e-001  8.179317e+000
    endloop
  endfacet
  facet normal  1.000000e+000  0.000000e+000  0.000000e+000
    outer loop
      vertex  1.000000e+000  7.297553e-001  8.179317e+000
      vertex  1.000000e+000 -2.769174e+000  5.825473e+000
      vertex  1.000000e+000 -4.385146e-001  6.435076e+000
    endloop
  endfacet
  facet normal  9.999999e-001  -0.000000e+000  0.000000e+000
    outer loop
      vertex  1.000000e+000  7.297553e-001  8.179317e+000
      vertex  1.000000e+000 -4.385146e-001  6.435076e+000
      vertex  1.000000e+000  1.953279e+000  6.147233e+000
    endloop
  endfacet
  facet normal  1.000000e+000  0.000000e+000  -0.000000e+000
    outer loop
      vertex  1.000000e+000  7.804286e+000  4.375000e+000
      vertex  1.000000e+000  8.169586e+000  3.361122e+000
      vertex  1.000000e+000  8.792451e+000  4.058304e+000
    endloop
  endfacet
  facet normal  1.000000e+000  0.000000e+000  0.000000e+000
    outer loop
      vertex  1.000000e+000  8.792451e+000  4.058304e+000
      vertex  1.000000e+000  8.169586e+000  3.361122e+000
      vertex  1.000000e+000  8.480707e+000  3.050000e+000
    endloop
  endfacet
  facet normal  1.000000e+000  -0.000000e+000  0.000000e+000
    outer loop
      vertex  1.000000e+000  8.792451e+000  4.058304e+000
      vertex  1.000000e+000  8.480707e+000  3.050000e+000
      vertex  1.000000e+000  8.594585e+000  2.625000e+000
    endloop
  endfacet
  facet normal  9.999999e-001  0.000000e+000  0.000000e+000
    outer loop
      vertex  1.000000e+000  4.030457e+000  6.908215e+000
      vertex  1.000000e+000  7.297553e-001  8.179317e+000
      vertex  1.000000e+000  4.072346e+000  5.001682e+000
    endloop
  endfacet
  facet normal  1.000000e+000  0.000000e+000  0.000000e+000
    outer loop
      vertex  1.000000e+000  4.072346e+000  5.001682e+000
      vertex  1.000000e+000  7.297553e-001  8.179317e+000
      vertex  1.000000e+000  1.953279e+000  6.147233e+000
    endloop
  endfacet
  facet normal  1.000000e+000  0.000000e+000  0.000000e+000
    outer loop
      vertex  1.000000e+000  6.498888e+000 -4.375000e+000
      vertex  1.000000e+000  5.623659e+000 -3.158720e+000
      vertex  1.000000e+000  4.030457e+000 -6.908215e+000
    endloop
  endfacet
  facet normal  1.000000e+000  0.000000e+000  0.000000e+000
    outer loop
      vertex  1.000000e+000  4.030457e+000 -6.908215e+000
      vertex  1.000000e+000  5.623659e+000 -3.158720e+000
      vertex  1.000000e+000  4.072346e+000 -5.001682e+000
    endloop
  endfacet
  facet normal  9.999999e-001  0.000000e+000  0.000000e+000
    outer loop
      vertex  1.000000e+000  4.030457e+000 -6.908215e+000
      vertex  1.000000e+000  4.072346e+000 -5.001682e+000
      vertex  1.000000e+000  7.297553e-001 -8.179317e+000
    endloop
  endfacet
  facet normal  1.000000e+000  0.000000e+000  0.000000e+000
    outer loop
      vertex  1.000000e+000  7.297553e-001 -8.179317e+000
      vertex  1.000000e+000  4.072346e+000 -5.001682e+000
      vertex  1.000000e+000  1.953279e+000 -6.147233e+000
    endloop
  endfacet
  facet normal  0.000000e+000  3.051977e-001  9.522890e-001
    outer loop
      vertex  0.000000e+000  7.804286e+000  4.375000e+000
      vertex  1.000000e+000  7.804286e+000  4.375000e+000
      vertex  0.000000e+000  8.792451e+000  4.058304e+000
    endloop
  endfacet
  facet normal  -0.000000e+000  3.051977e-001  9.522890e-001
    outer loop
      vertex  0.000000e+000  8.792451e+000  4.058304e+000
      vertex  1.000000e+000  7.804286e+000  4.375000e+000
      vertex  1.000000e+000  8.792451e+000  4.058304e+000
    endloop
  endfacet
  facet normal  0.000000e+000  8.018827e-001  5.974813e-001
    outer loop
      vertex  0.000000e+000  8.792451e+000  4.058304e+000
      vertex  1.000000e+000  8.792451e+000  4.058304e+000
      vertex  0.000000e+000  9.412441e+000  3.226212e+000
    endloop
  endfacet
  facet normal  -0.000000e+000  8.018827e-001  5.974813e-001
    outer loop
      vertex  0.000000e+000  9.412441e+000  3.226212e+000
      vertex  1.000000e+000  8.792451e+000  4.058304e+000
      vertex  1.000000e+000  9.412441e+000  3.226212e+000
    endloop
  endfacet
endsolid CATIA STL
