solid CATIA STL
  facet normal  -0.000000e+000 -1.000000e+000  0.000000e+000
    outer loop
      vertex  3.839000e-001  2.000000e+001 -2.975335e+000
      vertex  2.745920e+000  2.000000e+001 -2.908595e+000
      vertex  2.059440e+000  2.000000e+001 -2.181446e+000
    endloop
  endfacet
  facet normal  0.000000e+000 -1.000000e+000  0.000000e+000
    outer loop
      vertex  2.059440e+000  2.000000e+001 -2.181446e+000
      vertex  2.745920e+000  2.000000e+001 -2.908595e+000
      vertex  3.931125e+000  2.000000e+001 -7.390915e-001
    endloop
  endfacet
  facet normal  -0.000000e+000 -9.999999e-001  0.000000e+000
    outer loop
      vertex  2.059440e+000  2.000000e+001 -2.181446e+000
      vertex  3.931125e+000  2.000000e+001 -7.390915e-001
      vertex  2.948344e+000  2.000000e+001 -5.543185e-001
    endloop
  endfacet
  facet normal  0.000000e+000 -1.000000e+000  0.000000e+000
    outer loop
      vertex  2.948344e+000  2.000000e+001 -5.543185e-001
      vertex  3.931125e+000  2.000000e+001 -7.390915e-001
      vertex  3.614774e+000  2.000000e+001  1.712720e+000
    endloop
  endfacet
  facet normal  0.000000e+000 -1.000000e+000  0.000000e+000
    outer loop
      vertex  2.948344e+000  2.000000e+001 -5.543185e-001
      vertex  3.614774e+000  2.000000e+001  1.712720e+000
      vertex  2.711081e+000  2.000000e+001  1.284540e+000
    endloop
  endfacet
  facet normal  0.000000e+000 -1.000000e+000  0.000000e+000
    outer loop
      vertex  2.711081e+000  2.000000e+001  1.284540e+000
      vertex  3.614774e+000  2.000000e+001  1.712720e+000
      vertex  1.917702e+000  2.000000e+001  3.510330e+000
    endloop
  endfacet
  facet normal  0.000000e+000 -1.000000e+000  -0.000000e+000
    outer loop
      vertex  2.711081e+000  2.000000e+001  1.284540e+000
      vertex  1.917702e+000  2.000000e+001  3.510330e+000
      vertex  1.438277e+000  2.000000e+001  2.632748e+000
    endloop
  endfacet
  facet normal  0.000000e+000 -1.000000e+000  0.000000e+000
    outer loop
      vertex  1.438277e+000  2.000000e+001  2.632748e+000
      vertex  1.917702e+000  2.000000e+001  3.510330e+000
      vertex -5.118667e-001  2.000000e+001  3.967114e+000
    endloop
  endfacet
  facet normal  0.000000e+000 -9.999999e-001  0.000000e+000
    outer loop
      vertex  1.438277e+000  2.000000e+001  2.632748e+000
      vertex -5.118667e-001  2.000000e+001  3.967114e+000
      vertex -3.839000e-001  2.000000e+001  2.975335e+000
    endloop
  endfacet
  facet normal  -0.000000e+000 -1.000000e+000  0.000000e+000
    outer loop
      vertex -3.839000e-001  2.000000e+001  2.975335e+000
      vertex -5.118667e-001  2.000000e+001  3.967114e+000
      vertex -2.745920e+000  2.000000e+001  2.908595e+000
    endloop
  endfacet
  facet normal  0.000000e+000 -1.000000e+000  0.000000e+000
    outer loop
      vertex -3.839000e-001  2.000000e+001  2.975335e+000
      vertex -2.745920e+000  2.000000e+001  2.908595e+000
      vertex -2.059440e+000  2.000000e+001  2.181446e+000
    endloop
  endfacet
  facet normal  0.000000e+000 -1.000000e+000  0.000000e+000
    outer loop
      vertex -1.438277e+000  2.000000e+001 -2.632748e+000
      vertex -1.917702e+000  2.000000e+001 -3.510330e+000
      vertex  3.839000e-001  2.000000e+001 -2.975335e+000
    endloop
  endfacet
  facet normal  0.000000e+000 -1.000000e+000  -0.000000e+000
    outer loop
      vertex  3.839000e-001  2.000000e+001 -2.975335e+000
      vertex -1.917702e+000  2.000000e+001 -3.510330e+000
      vertex  5.118667e-001  2.000000e+001 -3.967114e+000
    endloop
  endfacet
  facet normal  0.000000e+000 -1.000000e+000  0.000000e+000
    outer loop
      vertex  3.839000e-001  2.000000e+001 -2.975335e+000
      vertex  5.118667e-001  2.000000e+001 -3.967114e+000
      vertex  2.745920e+000  2.000000e+001 -2.908595e+000
    endloop
  endfacet
  facet normal  -0.000000e+000 -1.000000e+000  0.000000e+000
    outer loop
      vertex -3.931125e+000  2.000000e+001  7.390915e-001
      vertex -2.059440e+000  2.000000e+001  2.181446e+000
      vertex -2.745920e+000  2.000000e+001  2.908595e+000
    endloop
  endfacet
  facet normal  0.000000e+000 -9.999999e-001  0.000000e+000
    outer loop
      vertex -2.059440e+000  2.000000e+001  2.181446e+000
      vertex -3.931125e+000  2.000000e+001  7.390915e-001
      vertex -2.948344e+000  2.000000e+001  5.543185e-001
    endloop
  endfacet
  facet normal  -0.000000e+000 -1.000000e+000  0.000000e+000
    outer loop
      vertex -2.948344e+000  2.000000e+001  5.543185e-001
      vertex -3.931125e+000  2.000000e+001  7.390915e-001
      vertex -3.614774e+000  2.000000e+001 -1.712720e+000
    endloop
  endfacet
  facet normal  0.000000e+000 -1.000000e+000  0.000000e+000
    outer loop
      vertex -2.948344e+000  2.000000e+001  5.543185e-001
      vertex -3.614774e+000  2.000000e+001 -1.712720e+000
      vertex -2.711081e+000  2.000000e+001 -1.284540e+000
    endloop
  endfacet
  facet normal  0.000000e+000 -1.000000e+000  -0.000000e+000
    outer loop
      vertex -2.711081e+000  2.000000e+001 -1.284540e+000
      vertex -3.614774e+000  2.000000e+001 -1.712720e+000
      vertex -1.917702e+000  2.000000e+001 -3.510330e+000
    endloop
  endfacet
  facet normal  0.000000e+000 -1.000000e+000  0.000000e+000
    outer loop
      vertex -2.711081e+000  2.000000e+001 -1.284540e+000
      vertex -1.917702e+000  2.000000e+001 -3.510330e+000
      vertex -1.438277e+000  2.000000e+001 -2.632748e+000
    endloop
  endfacet
  facet normal  -0.000000e+000  1.000000e+000  0.000000e+000
    outer loop
      vertex -2.059440e+000  3.500000e+001  2.181446e+000
      vertex -2.745920e+000  3.500000e+001  2.908595e+000
      vertex -3.839000e-001  3.500000e+001  2.975335e+000
    endloop
  endfacet
  facet normal  0.000000e+000  1.000000e+000  0.000000e+000
    outer loop
      vertex -3.839000e-001  3.500000e+001  2.975335e+000
      vertex -2.745920e+000  3.500000e+001  2.908595e+000
      vertex -5.118667e-001  3.500000e+001  3.967114e+000
    endloop
  endfacet
  facet normal  0.000000e+000  9.999999e-001  0.000000e+000
    outer loop
      vertex -3.839000e-001  3.500000e+001  2.975335e+000
      vertex -5.118667e-001  3.500000e+001  3.967114e+000
      vertex  1.438277e+000  3.500000e+001  2.632748e+000
    endloop
  endfacet
  facet normal  0.000000e+000  1.000000e+000  -0.000000e+000
    outer loop
      vertex  1.438277e+000  3.500000e+001  2.632748e+000
      vertex -5.118667e-001  3.500000e+001  3.967114e+000
      vertex  1.917702e+000  3.500000e+001  3.510330e+000
    endloop
  endfacet
  facet normal  0.000000e+000  1.000000e+000  0.000000e+000
    outer loop
      vertex  1.438277e+000  3.500000e+001  2.632748e+000
      vertex  1.917702e+000  3.500000e+001  3.510330e+000
      vertex  2.711081e+000  3.500000e+001  1.284540e+000
    endloop
  endfacet
  facet normal  0.000000e+000  1.000000e+000  -0.000000e+000
    outer loop
      vertex  2.711081e+000  3.500000e+001  1.284540e+000
      vertex  1.917702e+000  3.500000e+001  3.510330e+000
      vertex  3.614774e+000  3.500000e+001  1.712720e+000
    endloop
  endfacet
  facet normal  0.000000e+000  1.000000e+000  0.000000e+000
    outer loop
      vertex  2.711081e+000  3.500000e+001  1.284540e+000
      vertex  3.614774e+000  3.500000e+001  1.712720e+000
      vertex  2.948344e+000  3.500000e+001 -5.543185e-001
    endloop
  endfacet
  facet normal  -0.000000e+000  1.000000e+000  0.000000e+000
    outer loop
      vertex  2.948344e+000  3.500000e+001 -5.543185e-001
      vertex  3.614774e+000  3.500000e+001  1.712720e+000
      vertex  3.931125e+000  3.500000e+001 -7.390915e-001
    endloop
  endfacet
  facet normal  0.000000e+000  9.999999e-001  0.000000e+000
    outer loop
      vertex  2.948344e+000  3.500000e+001 -5.543185e-001
      vertex  3.931125e+000  3.500000e+001 -7.390915e-001
      vertex  2.059440e+000  3.500000e+001 -2.181446e+000
    endloop
  endfacet
  facet normal  -0.000000e+000  1.000000e+000  0.000000e+000
    outer loop
      vertex  2.059440e+000  3.500000e+001 -2.181446e+000
      vertex  3.931125e+000  3.500000e+001 -7.390915e-001
      vertex  2.745920e+000  3.500000e+001 -2.908595e+000
    endloop
  endfacet
  facet normal  0.000000e+000  1.000000e+000  0.000000e+000
    outer loop
      vertex  2.059440e+000  3.500000e+001 -2.181446e+000
      vertex  2.745920e+000  3.500000e+001 -2.908595e+000
      vertex  3.839000e-001  3.500000e+001 -2.975335e+000
    endloop
  endfacet
  facet normal  0.000000e+000  1.000000e+000  -0.000000e+000
    outer loop
      vertex  2.745920e+000  3.500000e+001 -2.908595e+000
      vertex  5.118667e-001  3.500000e+001 -3.967114e+000
      vertex  3.839000e-001  3.500000e+001 -2.975335e+000
    endloop
  endfacet
  facet normal  0.000000e+000  1.000000e+000  0.000000e+000
    outer loop
      vertex  3.839000e-001  3.500000e+001 -2.975335e+000
      vertex  5.118667e-001  3.500000e+001 -3.967114e+000
      vertex -1.917702e+000  3.500000e+001 -3.510330e+000
    endloop
  endfacet
  facet normal  0.000000e+000  1.000000e+000  0.000000e+000
    outer loop
      vertex  3.839000e-001  3.500000e+001 -2.975335e+000
      vertex -1.917702e+000  3.500000e+001 -3.510330e+000
      vertex -1.438277e+000  3.500000e+001 -2.632748e+000
    endloop
  endfacet
  facet normal  0.000000e+000  1.000000e+000  0.000000e+000
    outer loop
      vertex -2.745920e+000  3.500000e+001  2.908595e+000
      vertex -2.059440e+000  3.500000e+001  2.181446e+000
      vertex -3.931125e+000  3.500000e+001  7.390915e-001
    endloop
  endfacet
  facet normal  -0.000000e+000  9.999999e-001  0.000000e+000
    outer loop
      vertex -3.931125e+000  3.500000e+001  7.390915e-001
      vertex -2.059440e+000  3.500000e+001  2.181446e+000
      vertex -2.948344e+000  3.500000e+001  5.543185e-001
    endloop
  endfacet
  facet normal  0.000000e+000  1.000000e+000  0.000000e+000
    outer loop
      vertex -3.931125e+000  3.500000e+001  7.390915e-001
      vertex -2.948344e+000  3.500000e+001  5.543185e-001
      vertex -3.614774e+000  3.500000e+001 -1.712720e+000
    endloop
  endfacet
  facet normal  0.000000e+000  1.000000e+000  0.000000e+000
    outer loop
      vertex -3.614774e+000  3.500000e+001 -1.712720e+000
      vertex -2.948344e+000  3.500000e+001  5.543185e-001
      vertex -2.711081e+000  3.500000e+001 -1.284540e+000
    endloop
  endfacet
  facet normal  0.000000e+000  1.000000e+000  0.000000e+000
    outer loop
      vertex -3.614774e+000  3.500000e+001 -1.712720e+000
      vertex -2.711081e+000  3.500000e+001 -1.284540e+000
      vertex -1.917702e+000  3.500000e+001 -3.510330e+000
    endloop
  endfacet
  facet normal  0.000000e+000  1.000000e+000  -0.000000e+000
    outer loop
      vertex -1.917702e+000  3.500000e+001 -3.510330e+000
      vertex -2.711081e+000  3.500000e+001 -1.284540e+000
      vertex -1.438277e+000  3.500000e+001 -2.632748e+000
    endloop
  endfacet
  facet normal  0.000000e+000  1.000000e+000  0.000000e+000
    outer loop
      vertex  1.438277e+000  1.350000e+002  2.632748e+000
      vertex  2.711081e+000  1.350000e+002  1.284540e+000
      vertex -3.839000e-001  1.350000e+002  2.975335e+000
    endloop
  endfacet
  facet normal  0.000000e+000  1.000000e+000  0.000000e+000
    outer loop
      vertex -3.839000e-001  1.350000e+002  2.975335e+000
      vertex  2.711081e+000  1.350000e+002  1.284540e+000
      vertex  3.835404e-001  1.350000e+002  7.020661e-001
    endloop
  endfacet
  facet normal  0.000000e+000  1.000000e+000  0.000000e+000
    outer loop
      vertex -3.839000e-001  1.350000e+002  2.975335e+000
      vertex  3.835404e-001  1.350000e+002  7.020661e-001
      vertex -2.059440e+000  1.350000e+002  2.181446e+000
    endloop
  endfacet
  facet normal  0.000000e+000  9.999999e-001  0.000000e+000
    outer loop
      vertex -2.059440e+000  1.350000e+002  2.181446e+000
      vertex  3.835404e-001  1.350000e+002  7.020661e-001
      vertex -2.252316e-001  1.350000e+002  7.676397e-001
    endloop
  endfacet
  facet normal  0.000000e+000  1.000000e+000  0.000000e+000
    outer loop
      vertex -2.059440e+000  1.350000e+002  2.181446e+000
      vertex -2.252316e-001  1.350000e+002  7.676397e-001
      vertex -2.948344e+000  1.350000e+002  5.543185e-001
    endloop
  endfacet
  facet normal  -0.000000e+000  1.000000e+000  0.000000e+000
    outer loop
      vertex -2.948344e+000  1.350000e+002  5.543185e-001
      vertex -2.252316e-001  1.350000e+002  7.676397e-001
      vertex -7.020661e-001  1.350000e+002  3.835404e-001
    endloop
  endfacet
  facet normal  0.000000e+000  9.999999e-001  0.000000e+000
    outer loop
      vertex -2.948344e+000  1.350000e+002  5.543185e-001
      vertex -7.020661e-001  1.350000e+002  3.835404e-001
      vertex -7.676397e-001  1.350000e+002 -2.252316e-001
    endloop
  endfacet
  facet normal  0.000000e+000  1.000000e+000  -0.000000e+000
    outer loop
      vertex  2.059440e+000  1.350000e+002 -2.181446e+000
      vertex  3.839000e-001  1.350000e+002 -2.975335e+000
      vertex  2.252316e-001  1.350000e+002 -7.676397e-001
    endloop
  endfacet
  facet normal  0.000000e+000  1.000000e+000  0.000000e+000
    outer loop
      vertex  2.252316e-001  1.350000e+002 -7.676397e-001
      vertex  3.839000e-001  1.350000e+002 -2.975335e+000
      vertex -1.438277e+000  1.350000e+002 -2.632748e+000
    endloop
  endfacet
  facet normal  0.000000e+000  1.000000e+000  0.000000e+000
    outer loop
      vertex  2.252316e-001  1.350000e+002 -7.676397e-001
      vertex -1.438277e+000  1.350000e+002 -2.632748e+000
      vertex -3.835404e-001  1.350000e+002 -7.020661e-001
    endloop
  endfacet
  facet normal  0.000000e+000  9.999999e-001  0.000000e+000
    outer loop
      vertex -3.835404e-001  1.350000e+002 -7.020661e-001
      vertex -1.438277e+000  1.350000e+002 -2.632748e+000
      vertex -2.711081e+000  1.350000e+002 -1.284540e+000
    endloop
  endfacet
  facet normal  0.000000e+000  1.000000e+000  0.000000e+000
    outer loop
      vertex -3.835404e-001  1.350000e+002 -7.020661e-001
      vertex -2.711081e+000  1.350000e+002 -1.284540e+000
      vertex -7.676397e-001  1.350000e+002 -2.252316e-001
    endloop
  endfacet
  facet normal  0.000000e+000  1.000000e+000  0.000000e+000
    outer loop
      vertex -7.676397e-001  1.350000e+002 -2.252316e-001
      vertex -2.711081e+000  1.350000e+002 -1.284540e+000
      vertex -2.948344e+000  1.350000e+002  5.543185e-001
    endloop
  endfacet
  facet normal  -0.000000e+000  1.000000e+000  0.000000e+000
    outer loop
      vertex  2.059440e+000  1.350000e+002 -2.181446e+000
      vertex  2.252316e-001  1.350000e+002 -7.676397e-001
      vertex  2.948344e+000  1.350000e+002 -5.543185e-001
    endloop
  endfacet
  facet normal  0.000000e+000  1.000000e+000  0.000000e+000
    outer loop
      vertex  2.948344e+000  1.350000e+002 -5.543185e-001
      vertex  2.252316e-001  1.350000e+002 -7.676397e-001
      vertex  7.020661e-001  1.350000e+002 -3.835404e-001
    endloop
  endfacet
  facet normal  -0.000000e+000  1.000000e+000  0.000000e+000
    outer loop
      vertex  2.948344e+000  1.350000e+002 -5.543185e-001
      vertex  7.020661e-001  1.350000e+002 -3.835404e-001
      vertex  2.711081e+000  1.350000e+002  1.284540e+000
    endloop
  endfacet
  facet normal  0.000000e+000  1.000000e+000  0.000000e+000
    outer loop
      vertex  2.711081e+000  1.350000e+002  1.284540e+000
      vertex  7.020661e-001  1.350000e+002 -3.835404e-001
      vertex  7.676397e-001  1.350000e+002  2.252316e-001
    endloop
  endfacet
  facet normal  0.000000e+000  9.999999e-001  -0.000000e+000
    outer loop
      vertex  2.711081e+000  1.350000e+002  1.284540e+000
      vertex  7.676397e-001  1.350000e+002  2.252316e-001
      vertex  3.835404e-001  1.350000e+002  7.020661e-001
    endloop
  endfacet
  facet normal  0.000000e+000 -1.000000e+000  0.000000e+000
    outer loop
      vertex  3.835404e-001  2.000000e+001  7.020661e-001
      vertex  7.676397e-001  2.000000e+001  2.252316e-001
      vertex  1.919099e+000  2.000000e+001  5.630791e-001
    endloop
  endfacet
  facet normal  0.000000e+000 -1.000000e+000  0.000000e+000
    outer loop
      vertex  3.835404e-001  2.000000e+001  7.020661e-001
      vertex  1.919099e+000  2.000000e+001  5.630791e-001
      vertex  9.588511e-001  2.000000e+001  1.755165e+000
    endloop
  endfacet
  facet normal  -0.000000e+000 -1.000000e+000  0.000000e+000
    outer loop
      vertex  3.835404e-001  2.000000e+001  7.020661e-001
      vertex  9.588511e-001  2.000000e+001  1.755165e+000
      vertex -5.630791e-001  2.000000e+001  1.919099e+000
    endloop
  endfacet
  facet normal  0.000000e+000 -1.000000e+000  0.000000e+000
    outer loop
      vertex  3.835404e-001  2.000000e+001  7.020661e-001
      vertex -5.630791e-001  2.000000e+001  1.919099e+000
      vertex -2.252316e-001  2.000000e+001  7.676397e-001
    endloop
  endfacet
  facet normal  0.000000e+000 -1.000000e+000  0.000000e+000
    outer loop
      vertex -9.588511e-001  2.000000e+001 -1.755165e+000
      vertex  5.630791e-001  2.000000e+001 -1.919099e+000
      vertex  1.755165e+000  2.000000e+001 -9.588511e-001
    endloop
  endfacet
  facet normal  -0.000000e+000 -1.000000e+000  0.000000e+000
    outer loop
      vertex -9.588511e-001  2.000000e+001 -1.755165e+000
      vertex  1.755165e+000  2.000000e+001 -9.588511e-001
      vertex  2.252316e-001  2.000000e+001 -7.676397e-001
    endloop
  endfacet
  facet normal  -0.000000e+000 -1.000000e+000  0.000000e+000
    outer loop
      vertex -9.588511e-001  2.000000e+001 -1.755165e+000
      vertex  2.252316e-001  2.000000e+001 -7.676397e-001
      vertex -3.835404e-001  2.000000e+001 -7.020661e-001
    endloop
  endfacet
  facet normal  -0.000000e+000 -1.000000e+000  0.000000e+000
    outer loop
      vertex -9.588511e-001  2.000000e+001 -1.755165e+000
      vertex -3.835404e-001  2.000000e+001 -7.020661e-001
      vertex -1.919099e+000  2.000000e+001 -5.630791e-001
    endloop
  endfacet
  facet normal  0.000000e+000 -1.000000e+000  -0.000000e+000
    outer loop
      vertex -3.835404e-001  2.000000e+001 -7.020661e-001
      vertex -7.676397e-001  2.000000e+001 -2.252316e-001
      vertex -1.919099e+000  2.000000e+001 -5.630791e-001
    endloop
  endfacet
  facet normal  0.000000e+000 -1.000000e+000  0.000000e+000
    outer loop
      vertex -1.919099e+000  2.000000e+001 -5.630791e-001
      vertex -7.676397e-001  2.000000e+001 -2.252316e-001
      vertex -7.020661e-001  2.000000e+001  3.835404e-001
    endloop
  endfacet
  facet normal  -0.000000e+000 -1.000000e+000  0.000000e+000
    outer loop
      vertex -1.919099e+000  2.000000e+001 -5.630791e-001
      vertex -7.020661e-001  2.000000e+001  3.835404e-001
      vertex -1.755165e+000  2.000000e+001  9.588511e-001
    endloop
  endfacet
  facet normal  0.000000e+000 -9.999999e-001  0.000000e+000
    outer loop
      vertex -1.755165e+000  2.000000e+001  9.588511e-001
      vertex -7.020661e-001  2.000000e+001  3.835404e-001
      vertex -2.252316e-001  2.000000e+001  7.676397e-001
    endloop
  endfacet
  facet normal  0.000000e+000 -1.000000e+000  0.000000e+000
    outer loop
      vertex -1.755165e+000  2.000000e+001  9.588511e-001
      vertex -2.252316e-001  2.000000e+001  7.676397e-001
      vertex -5.630791e-001  2.000000e+001  1.919099e+000
    endloop
  endfacet
  facet normal  0.000000e+000 -9.999999e-001  0.000000e+000
    outer loop
      vertex  2.252316e-001  2.000000e+001 -7.676397e-001
      vertex  1.755165e+000  2.000000e+001 -9.588511e-001
      vertex  7.020661e-001  2.000000e+001 -3.835404e-001
    endloop
  endfacet
  facet normal  0.000000e+000 -1.000000e+000  0.000000e+000
    outer loop
      vertex  7.020661e-001  2.000000e+001 -3.835404e-001
      vertex  1.755165e+000  2.000000e+001 -9.588511e-001
      vertex  1.919099e+000  2.000000e+001  5.630791e-001
    endloop
  endfacet
  facet normal  0.000000e+000 -1.000000e+000  0.000000e+000
    outer loop
      vertex  7.020661e-001  2.000000e+001 -3.835404e-001
      vertex  1.919099e+000  2.000000e+001  5.630791e-001
      vertex  7.676397e-001  2.000000e+001  2.252316e-001
    endloop
  endfacet
  facet normal -1.034923e-014 -1.000000e+000 -8.336502e-015
    outer loop
      vertex  9.588511e-001  1.421085e-014  1.755165e+000
      vertex  1.919099e+000  1.421085e-014  5.630791e-001
      vertex  2.711081e+000  0.000000e+000  1.284540e+000
    endloop
  endfacet
  facet normal -1.086518e-014 -9.999999e-001 -1.025751e-014
    outer loop
      vertex  9.588511e-001  1.421085e-014  1.755165e+000
      vertex  2.711081e+000  0.000000e+000  1.284540e+000
      vertex  1.438277e+000  0.000000e+000  2.632748e+000
    endloop
  endfacet
  facet normal -2.760909e-015 -9.999999e-001 -1.468489e-014
    outer loop
      vertex  9.588511e-001  1.421085e-014  1.755165e+000
      vertex  1.438277e+000  0.000000e+000  2.632748e+000
      vertex -3.839000e-001  0.000000e+000  2.975335e+000
    endloop
  endfacet
  facet normal -1.423212e-015 -9.999999e-001 -1.321281e-014
    outer loop
      vertex  9.588511e-001  1.421085e-014  1.755165e+000
      vertex -3.839000e-001  0.000000e+000  2.975335e+000
      vertex -5.630791e-001  1.421085e-014  1.919099e+000
    endloop
  endfacet
  facet normal  1.086518e-014 -9.999999e-001  1.025751e-014
    outer loop
      vertex -2.711081e+000  0.000000e+000 -1.284540e+000
      vertex -1.438277e+000  0.000000e+000 -2.632748e+000
      vertex -9.588511e-001  1.421085e-014 -1.755165e+000
    endloop
  endfacet
  facet normal  2.760909e-015 -9.999999e-001  1.468489e-014
    outer loop
      vertex -9.588511e-001  1.421085e-014 -1.755165e+000
      vertex -1.438277e+000  0.000000e+000 -2.632748e+000
      vertex  3.839000e-001  0.000000e+000 -2.975335e+000
    endloop
  endfacet
  facet normal  1.423212e-015 -9.999999e-001  1.321281e-014
    outer loop
      vertex -9.588511e-001  1.421085e-014 -1.755165e+000
      vertex  3.839000e-001  0.000000e+000 -2.975335e+000
      vertex  5.630791e-001  1.421085e-014 -1.919099e+000
    endloop
  endfacet
  facet normal  1.236152e-014 -1.000000e+000 -1.331516e-015
    outer loop
      vertex -1.755165e+000  1.421085e-014  9.588511e-001
      vertex -2.948344e+000  0.000000e+000  5.543185e-001
      vertex -1.919099e+000  1.421085e-014 -5.630791e-001
    endloop
  endfacet
  facet normal  1.605620e-014 -1.000000e+000  2.071691e-015
    outer loop
      vertex -1.919099e+000  1.421085e-014 -5.630791e-001
      vertex -2.948344e+000  0.000000e+000  5.543185e-001
      vertex -2.711081e+000  0.000000e+000 -1.284540e+000
    endloop
  endfacet
  facet normal  1.034923e-014 -9.999999e-001  8.336501e-015
    outer loop
      vertex -1.919099e+000  1.421085e-014 -5.630791e-001
      vertex -2.711081e+000  0.000000e+000 -1.284540e+000
      vertex -9.588511e-001  1.421085e-014 -1.755165e+000
    endloop
  endfacet
  facet normal  6.931935e-015 -1.000000e+000 -1.463017e-014
    outer loop
      vertex -3.839000e-001  0.000000e+000  2.975335e+000
      vertex -2.059440e+000  0.000000e+000  2.181446e+000
      vertex -5.630791e-001  1.421085e-014  1.919099e+000
    endloop
  endfacet
  facet normal  8.666839e-015 -1.000000e+000 -4.734716e-015
    outer loop
      vertex -5.630791e-001  1.421085e-014  1.919099e+000
      vertex -2.059440e+000  0.000000e+000  2.181446e+000
      vertex -2.948344e+000  0.000000e+000  5.543185e-001
    endloop
  endfacet
  facet normal  2.056630e-014 -1.000000e+000 -2.553173e-014
    outer loop
      vertex -5.630791e-001  1.421085e-014  1.919099e+000
      vertex -2.948344e+000  0.000000e+000  5.543185e-001
      vertex -1.755165e+000  1.421085e-014  9.588511e-001
    endloop
  endfacet
  facet normal -6.931935e-015 -1.000000e+000  1.463017e-014
    outer loop
      vertex  3.839000e-001  0.000000e+000 -2.975335e+000
      vertex  2.059440e+000  0.000000e+000 -2.181446e+000
      vertex  5.630791e-001  1.421085e-014 -1.919099e+000
    endloop
  endfacet
  facet normal -8.666839e-015 -1.000000e+000  4.734716e-015
    outer loop
      vertex  5.630791e-001  1.421085e-014 -1.919099e+000
      vertex  2.059440e+000  0.000000e+000 -2.181446e+000
      vertex  2.948344e+000  0.000000e+000 -5.543185e-001
    endloop
  endfacet
  facet normal -2.056630e-014 -1.000000e+000  2.553173e-014
    outer loop
      vertex  5.630791e-001  1.421085e-014 -1.919099e+000
      vertex  2.948344e+000  0.000000e+000 -5.543185e-001
      vertex  1.755165e+000  1.421085e-014 -9.588511e-001
    endloop
  endfacet
  facet normal -1.141091e-014 -1.000000e+000 -1.472320e-015
    outer loop
      vertex  1.755165e+000  1.421085e-014 -9.588511e-001
      vertex  2.948344e+000  0.000000e+000 -5.543185e-001
      vertex  2.711081e+000  0.000000e+000  1.284540e+000
    endloop
  endfacet
  facet normal -1.989565e-014 -1.000000e+000  2.143052e-015
    outer loop
      vertex  1.755165e+000  1.421085e-014 -9.588511e-001
      vertex  2.711081e+000  0.000000e+000  1.284540e+000
      vertex  1.919099e+000  1.421085e-014  5.630791e-001
    endloop
  endfacet
  facet normal  1.847728e-001  0.000000e+000  9.827812e-001
    outer loop
      vertex  1.438277e+000  0.000000e+000  2.632748e+000
      vertex  1.438277e+000  2.000000e+001  2.632748e+000
      vertex -3.839000e-001  0.000000e+000  2.975335e+000
    endloop
  endfacet
  facet normal  1.847728e-001  -0.000000e+000  9.827812e-001
    outer loop
      vertex -3.839000e-001  0.000000e+000  2.975335e+000
      vertex  1.438277e+000  2.000000e+001  2.632748e+000
      vertex -3.839000e-001  2.000000e+001  2.975335e+000
    endloop
  endfacet
  facet normal -4.281799e-001  0.000000e+000  9.036934e-001
    outer loop
      vertex -3.839000e-001  0.000000e+000  2.975335e+000
      vertex -3.839000e-001  2.000000e+001  2.975335e+000
      vertex -2.059440e+000  0.000000e+000  2.181446e+000
    endloop
  endfacet
  facet normal -4.281799e-001  0.000000e+000  9.036934e-001
    outer loop
      vertex -2.059440e+000  0.000000e+000  2.181446e+000
      vertex -3.839000e-001  2.000000e+001  2.975335e+000
      vertex -2.059440e+000  2.000000e+001  2.181446e+000
    endloop
  endfacet
  facet normal -8.775825e-001  0.000000e+000  4.794255e-001
    outer loop
      vertex -2.059440e+000  0.000000e+000  2.181446e+000
      vertex -2.059440e+000  2.000000e+001  2.181446e+000
      vertex -2.948344e+000  0.000000e+000  5.543185e-001
    endloop
  endfacet
  facet normal -8.775825e-001  0.000000e+000  4.794255e-001
    outer loop
      vertex -2.948344e+000  0.000000e+000  5.543185e-001
      vertex -2.059440e+000  2.000000e+001  2.181446e+000
      vertex -2.948344e+000  2.000000e+001  5.543185e-001
    endloop
  endfacet
  facet normal -9.917785e-001  -0.000000e+000 -1.279666e-001
    outer loop
      vertex -2.948344e+000  0.000000e+000  5.543185e-001
      vertex -2.948344e+000  2.000000e+001  5.543185e-001
      vertex -2.711081e+000  0.000000e+000 -1.284540e+000
    endloop
  endfacet
  facet normal -9.917785e-001  0.000000e+000 -1.279666e-001
    outer loop
      vertex -2.711081e+000  0.000000e+000 -1.284540e+000
      vertex -2.948344e+000  2.000000e+001  5.543185e-001
      vertex -2.711081e+000  2.000000e+001 -1.284540e+000
    endloop
  endfacet
  facet normal -7.271487e-001  -0.000000e+000 -6.864800e-001
    outer loop
      vertex -2.711081e+000  0.000000e+000 -1.284540e+000
      vertex -2.711081e+000  2.000000e+001 -1.284540e+000
      vertex -1.438277e+000  0.000000e+000 -2.632748e+000
    endloop
  endfacet
  facet normal -7.271487e-001  0.000000e+000 -6.864800e-001
    outer loop
      vertex -1.438277e+000  0.000000e+000 -2.632748e+000
      vertex -2.711081e+000  2.000000e+001 -1.284540e+000
      vertex -1.438277e+000  2.000000e+001 -2.632748e+000
    endloop
  endfacet
  facet normal  1.847729e-001  0.000000e+000  9.827812e-001
    outer loop
      vertex  1.917702e+000  2.000000e+001  3.510330e+000
      vertex  1.917702e+000  3.500000e+001  3.510330e+000
      vertex -5.118667e-001  2.000000e+001  3.967114e+000
    endloop
  endfacet
  facet normal  1.847729e-001  -0.000000e+000  9.827812e-001
    outer loop
      vertex -5.118667e-001  2.000000e+001  3.967114e+000
      vertex  1.917702e+000  3.500000e+001  3.510330e+000
      vertex -5.118667e-001  3.500000e+001  3.967114e+000
    endloop
  endfacet
  facet normal -4.281800e-001  0.000000e+000  9.036934e-001
    outer loop
      vertex -5.118667e-001  2.000000e+001  3.967114e+000
      vertex -5.118667e-001  3.500000e+001  3.967114e+000
      vertex -2.745920e+000  2.000000e+001  2.908595e+000
    endloop
  endfacet
  facet normal -4.281800e-001  0.000000e+000  9.036934e-001
    outer loop
      vertex -2.745920e+000  2.000000e+001  2.908595e+000
      vertex -5.118667e-001  3.500000e+001  3.967114e+000
      vertex -2.745920e+000  3.500000e+001  2.908595e+000
    endloop
  endfacet
  facet normal -8.775826e-001  0.000000e+000  4.794255e-001
    outer loop
      vertex -2.745920e+000  2.000000e+001  2.908595e+000
      vertex -2.745920e+000  3.500000e+001  2.908595e+000
      vertex -3.931125e+000  2.000000e+001  7.390915e-001
    endloop
  endfacet
  facet normal -8.775826e-001  0.000000e+000  4.794255e-001
    outer loop
      vertex -3.931125e+000  2.000000e+001  7.390915e-001
      vertex -2.745920e+000  3.500000e+001  2.908595e+000
      vertex -3.931125e+000  3.500000e+001  7.390915e-001
    endloop
  endfacet
  facet normal -9.917785e-001  -0.000000e+000 -1.279666e-001
    outer loop
      vertex -3.931125e+000  2.000000e+001  7.390915e-001
      vertex -3.931125e+000  3.500000e+001  7.390915e-001
      vertex -3.614774e+000  2.000000e+001 -1.712720e+000
    endloop
  endfacet
  facet normal -9.917785e-001  0.000000e+000 -1.279666e-001
    outer loop
      vertex -3.614774e+000  2.000000e+001 -1.712720e+000
      vertex -3.931125e+000  3.500000e+001  7.390915e-001
      vertex -3.614774e+000  3.500000e+001 -1.712720e+000
    endloop
  endfacet
  facet normal -7.271487e-001  -0.000000e+000 -6.864800e-001
    outer loop
      vertex -3.614774e+000  2.000000e+001 -1.712720e+000
      vertex -3.614774e+000  3.500000e+001 -1.712720e+000
      vertex -1.917702e+000  2.000000e+001 -3.510330e+000
    endloop
  endfacet
  facet normal -7.271487e-001  0.000000e+000 -6.864800e-001
    outer loop
      vertex -1.917702e+000  2.000000e+001 -3.510330e+000
      vertex -3.614774e+000  3.500000e+001 -1.712720e+000
      vertex -1.917702e+000  3.500000e+001 -3.510330e+000
    endloop
  endfacet
  facet normal  1.847728e-001  0.000000e+000  9.827812e-001
    outer loop
      vertex  1.438277e+000  3.500000e+001  2.632748e+000
      vertex  1.438277e+000  1.350000e+002  2.632748e+000
      vertex -3.839000e-001  3.500000e+001  2.975335e+000
    endloop
  endfacet
  facet normal  1.847728e-001  -0.000000e+000  9.827812e-001
    outer loop
      vertex -3.839000e-001  3.500000e+001  2.975335e+000
      vertex  1.438277e+000  1.350000e+002  2.632748e+000
      vertex -3.839000e-001  1.350000e+002  2.975335e+000
    endloop
  endfacet
  facet normal -4.281799e-001  0.000000e+000  9.036934e-001
    outer loop
      vertex -3.839000e-001  3.500000e+001  2.975335e+000
      vertex -3.839000e-001  1.350000e+002  2.975335e+000
      vertex -2.059440e+000  3.500000e+001  2.181446e+000
    endloop
  endfacet
  facet normal -4.281799e-001  0.000000e+000  9.036934e-001
    outer loop
      vertex -2.059440e+000  3.500000e+001  2.181446e+000
      vertex -3.839000e-001  1.350000e+002  2.975335e+000
      vertex -2.059440e+000  1.350000e+002  2.181446e+000
    endloop
  endfacet
  facet normal -8.775825e-001  0.000000e+000  4.794255e-001
    outer loop
      vertex -2.059440e+000  3.500000e+001  2.181446e+000
      vertex -2.059440e+000  1.350000e+002  2.181446e+000
      vertex -2.948344e+000  3.500000e+001  5.543185e-001
    endloop
  endfacet
  facet normal -8.775825e-001  0.000000e+000  4.794255e-001
    outer loop
      vertex -2.948344e+000  3.500000e+001  5.543185e-001
      vertex -2.059440e+000  1.350000e+002  2.181446e+000
      vertex -2.948344e+000  1.350000e+002  5.543185e-001
    endloop
  endfacet
  facet normal -9.917785e-001  -0.000000e+000 -1.279666e-001
    outer loop
      vertex -2.948344e+000  3.500000e+001  5.543185e-001
      vertex -2.948344e+000  1.350000e+002  5.543185e-001
      vertex -2.711081e+000  3.500000e+001 -1.284540e+000
    endloop
  endfacet
  facet normal -9.917785e-001  0.000000e+000 -1.279666e-001
    outer loop
      vertex -2.711081e+000  3.500000e+001 -1.284540e+000
      vertex -2.948344e+000  1.350000e+002  5.543185e-001
      vertex -2.711081e+000  1.350000e+002 -1.284540e+000
    endloop
  endfacet
  facet normal -7.271487e-001  -0.000000e+000 -6.864799e-001
    outer loop
      vertex -2.711081e+000  3.500000e+001 -1.284540e+000
      vertex -2.711081e+000  1.350000e+002 -1.284540e+000
      vertex -1.438277e+000  3.500000e+001 -2.632748e+000
    endloop
  endfacet
  facet normal -7.271487e-001  0.000000e+000 -6.864799e-001
    outer loop
      vertex -1.438277e+000  3.500000e+001 -2.632748e+000
      vertex -2.711081e+000  1.350000e+002 -1.284540e+000
      vertex -1.438277e+000  1.350000e+002 -2.632748e+000
    endloop
  endfacet
  facet normal  6.273124e-001  0.000000e+000 -7.787678e-001
    outer loop
      vertex -7.020661e-001  2.000000e+001  3.835404e-001
      vertex -2.252316e-001  1.350000e+002  7.676397e-001
      vertex -2.252316e-001  2.000000e+001  7.676397e-001
    endloop
  endfacet
  facet normal -1.070951e-001  0.000000e+000 -9.942487e-001
    outer loop
      vertex -2.252316e-001  2.000000e+001  7.676397e-001
      vertex -2.252316e-001  1.350000e+002  7.676397e-001
      vertex  3.835404e-001  1.350000e+002  7.020661e-001
    endloop
  endfacet
  facet normal -1.070951e-001  -0.000000e+000 -9.942487e-001
    outer loop
      vertex -2.252316e-001  2.000000e+001  7.676397e-001
      vertex  3.835404e-001  1.350000e+002  7.020661e-001
      vertex  3.835404e-001  2.000000e+001  7.020661e-001
    endloop
  endfacet
  facet normal  6.273124e-001  0.000000e+000 -7.787678e-001
    outer loop
      vertex -2.252316e-001  1.350000e+002  7.676397e-001
      vertex -7.020661e-001  2.000000e+001  3.835404e-001
      vertex -7.020661e-001  1.350000e+002  3.835404e-001
    endloop
  endfacet
  facet normal  9.942487e-001  0.000000e+000 -1.070951e-001
    outer loop
      vertex -7.020661e-001  1.350000e+002  3.835404e-001
      vertex -7.020661e-001  2.000000e+001  3.835404e-001
      vertex -7.676397e-001  2.000000e+001 -2.252316e-001
    endloop
  endfacet
  facet normal  9.942487e-001  0.000000e+000 -1.070951e-001
    outer loop
      vertex -7.020661e-001  1.350000e+002  3.835404e-001
      vertex -7.676397e-001  2.000000e+001 -2.252316e-001
      vertex -7.676397e-001  1.350000e+002 -2.252316e-001
    endloop
  endfacet
  facet normal  7.787678e-001  0.000000e+000  6.273124e-001
    outer loop
      vertex -7.676397e-001  1.350000e+002 -2.252316e-001
      vertex -7.676397e-001  2.000000e+001 -2.252316e-001
      vertex -3.835404e-001  2.000000e+001 -7.020661e-001
    endloop
  endfacet
  facet normal  7.787678e-001  -0.000000e+000  6.273124e-001
    outer loop
      vertex -7.676397e-001  1.350000e+002 -2.252316e-001
      vertex -3.835404e-001  2.000000e+001 -7.020661e-001
      vertex -3.835404e-001  1.350000e+002 -7.020661e-001
    endloop
  endfacet
  facet normal  6.273123e-001  0.000000e+000 -7.787678e-001
    outer loop
      vertex -1.755165e+000  1.421085e-014  9.588511e-001
      vertex -5.630791e-001  2.000000e+001  1.919099e+000
      vertex -5.630791e-001  1.421085e-014  1.919099e+000
    endloop
  endfacet
  facet normal -1.070951e-001  0.000000e+000 -9.942487e-001
    outer loop
      vertex -5.630791e-001  1.421085e-014  1.919099e+000
      vertex -5.630791e-001  2.000000e+001  1.919099e+000
      vertex  9.588511e-001  2.000000e+001  1.755165e+000
    endloop
  endfacet
  facet normal -1.070951e-001  -0.000000e+000 -9.942487e-001
    outer loop
      vertex -5.630791e-001  1.421085e-014  1.919099e+000
      vertex  9.588511e-001  2.000000e+001  1.755165e+000
      vertex  9.588511e-001  1.421085e-014  1.755165e+000
    endloop
  endfacet
  facet normal  6.273123e-001  0.000000e+000 -7.787678e-001
    outer loop
      vertex -5.630791e-001  2.000000e+001  1.919099e+000
      vertex -1.755165e+000  1.421085e-014  9.588511e-001
      vertex -1.755165e+000  2.000000e+001  9.588511e-001
    endloop
  endfacet
  facet normal  9.942487e-001  0.000000e+000 -1.070951e-001
    outer loop
      vertex -1.755165e+000  2.000000e+001  9.588511e-001
      vertex -1.755165e+000  1.421085e-014  9.588511e-001
      vertex -1.919099e+000  1.421085e-014 -5.630791e-001
    endloop
  endfacet
  facet normal  9.942487e-001  0.000000e+000 -1.070951e-001
    outer loop
      vertex -1.755165e+000  2.000000e+001  9.588511e-001
      vertex -1.919099e+000  1.421085e-014 -5.630791e-001
      vertex -1.919099e+000  2.000000e+001 -5.630791e-001
    endloop
  endfacet
  facet normal  7.787678e-001  0.000000e+000  6.273123e-001
    outer loop
      vertex -1.919099e+000  2.000000e+001 -5.630791e-001
      vertex -1.919099e+000  1.421085e-014 -5.630791e-001
      vertex -9.588511e-001  1.421085e-014 -1.755165e+000
    endloop
  endfacet
  facet normal  7.787678e-001  -0.000000e+000  6.273123e-001
    outer loop
      vertex -1.919099e+000  2.000000e+001 -5.630791e-001
      vertex -9.588511e-001  1.421085e-014 -1.755165e+000
      vertex -9.588511e-001  2.000000e+001 -1.755165e+000
    endloop
  endfacet
  facet normal -1.847728e-001  -0.000000e+000 -9.827812e-001
    outer loop
      vertex -1.438277e+000  0.000000e+000 -2.632748e+000
      vertex -1.438277e+000  2.000000e+001 -2.632748e+000
      vertex  3.839000e-001  0.000000e+000 -2.975335e+000
    endloop
  endfacet
  facet normal -1.847728e-001  0.000000e+000 -9.827812e-001
    outer loop
      vertex  3.839000e-001  0.000000e+000 -2.975335e+000
      vertex -1.438277e+000  2.000000e+001 -2.632748e+000
      vertex  3.839000e-001  2.000000e+001 -2.975335e+000
    endloop
  endfacet
  facet normal  4.281799e-001  0.000000e+000 -9.036934e-001
    outer loop
      vertex  3.839000e-001  0.000000e+000 -2.975335e+000
      vertex  3.839000e-001  2.000000e+001 -2.975335e+000
      vertex  2.059440e+000  0.000000e+000 -2.181446e+000
    endloop
  endfacet
  facet normal  4.281799e-001  0.000000e+000 -9.036934e-001
    outer loop
      vertex  2.059440e+000  0.000000e+000 -2.181446e+000
      vertex  3.839000e-001  2.000000e+001 -2.975335e+000
      vertex  2.059440e+000  2.000000e+001 -2.181446e+000
    endloop
  endfacet
  facet normal  8.775825e-001  0.000000e+000 -4.794255e-001
    outer loop
      vertex  2.059440e+000  0.000000e+000 -2.181446e+000
      vertex  2.059440e+000  2.000000e+001 -2.181446e+000
      vertex  2.948344e+000  0.000000e+000 -5.543185e-001
    endloop
  endfacet
  facet normal  8.775825e-001  0.000000e+000 -4.794255e-001
    outer loop
      vertex  2.948344e+000  0.000000e+000 -5.543185e-001
      vertex  2.059440e+000  2.000000e+001 -2.181446e+000
      vertex  2.948344e+000  2.000000e+001 -5.543185e-001
    endloop
  endfacet
  facet normal  9.917785e-001  0.000000e+000  1.279666e-001
    outer loop
      vertex  2.948344e+000  0.000000e+000 -5.543185e-001
      vertex  2.948344e+000  2.000000e+001 -5.543185e-001
      vertex  2.711081e+000  0.000000e+000  1.284540e+000
    endloop
  endfacet
  facet normal  9.917785e-001  -0.000000e+000  1.279666e-001
    outer loop
      vertex  2.711081e+000  0.000000e+000  1.284540e+000
      vertex  2.948344e+000  2.000000e+001 -5.543185e-001
      vertex  2.711081e+000  2.000000e+001  1.284540e+000
    endloop
  endfacet
  facet normal  7.271487e-001  0.000000e+000  6.864800e-001
    outer loop
      vertex  2.711081e+000  0.000000e+000  1.284540e+000
      vertex  2.711081e+000  2.000000e+001  1.284540e+000
      vertex  1.438277e+000  0.000000e+000  2.632748e+000
    endloop
  endfacet
  facet normal  7.271487e-001  -0.000000e+000  6.864800e-001
    outer loop
      vertex  1.438277e+000  0.000000e+000  2.632748e+000
      vertex  2.711081e+000  2.000000e+001  1.284540e+000
      vertex  1.438277e+000  2.000000e+001  2.632748e+000
    endloop
  endfacet
  facet normal -1.847729e-001  -0.000000e+000 -9.827812e-001
    outer loop
      vertex -1.917702e+000  2.000000e+001 -3.510330e+000
      vertex -1.917702e+000  3.500000e+001 -3.510330e+000
      vertex  5.118667e-001  2.000000e+001 -3.967114e+000
    endloop
  endfacet
  facet normal -1.847729e-001  0.000000e+000 -9.827812e-001
    outer loop
      vertex  5.118667e-001  2.000000e+001 -3.967114e+000
      vertex -1.917702e+000  3.500000e+001 -3.510330e+000
      vertex  5.118667e-001  3.500000e+001 -3.967114e+000
    endloop
  endfacet
  facet normal  4.281800e-001  0.000000e+000 -9.036934e-001
    outer loop
      vertex  5.118667e-001  2.000000e+001 -3.967114e+000
      vertex  5.118667e-001  3.500000e+001 -3.967114e+000
      vertex  2.745920e+000  2.000000e+001 -2.908595e+000
    endloop
  endfacet
  facet normal  4.281800e-001  0.000000e+000 -9.036934e-001
    outer loop
      vertex  2.745920e+000  2.000000e+001 -2.908595e+000
      vertex  5.118667e-001  3.500000e+001 -3.967114e+000
      vertex  2.745920e+000  3.500000e+001 -2.908595e+000
    endloop
  endfacet
  facet normal  8.775826e-001  0.000000e+000 -4.794255e-001
    outer loop
      vertex  2.745920e+000  2.000000e+001 -2.908595e+000
      vertex  2.745920e+000  3.500000e+001 -2.908595e+000
      vertex  3.931125e+000  2.000000e+001 -7.390915e-001
    endloop
  endfacet
  facet normal  8.775826e-001  0.000000e+000 -4.794255e-001
    outer loop
      vertex  3.931125e+000  2.000000e+001 -7.390915e-001
      vertex  2.745920e+000  3.500000e+001 -2.908595e+000
      vertex  3.931125e+000  3.500000e+001 -7.390915e-001
    endloop
  endfacet
  facet normal  9.917785e-001  0.000000e+000  1.279666e-001
    outer loop
      vertex  3.931125e+000  2.000000e+001 -7.390915e-001
      vertex  3.931125e+000  3.500000e+001 -7.390915e-001
      vertex  3.614774e+000  2.000000e+001  1.712720e+000
    endloop
  endfacet
  facet normal  9.917785e-001  -0.000000e+000  1.279666e-001
    outer loop
      vertex  3.614774e+000  2.000000e+001  1.712720e+000
      vertex  3.931125e+000  3.500000e+001 -7.390915e-001
      vertex  3.614774e+000  3.500000e+001  1.712720e+000
    endloop
  endfacet
  facet normal  7.271487e-001  0.000000e+000  6.864800e-001
    outer loop
      vertex  3.614774e+000  2.000000e+001  1.712720e+000
      vertex  3.614774e+000  3.500000e+001  1.712720e+000
      vertex  1.917702e+000  2.000000e+001  3.510330e+000
    endloop
  endfacet
  facet normal  7.271487e-001  -0.000000e+000  6.864800e-001
    outer loop
      vertex  1.917702e+000  2.000000e+001  3.510330e+000
      vertex  3.614774e+000  3.500000e+001  1.712720e+000
      vertex  1.917702e+000  3.500000e+001  3.510330e+000
    endloop
  endfacet
  facet normal -1.847728e-001  -0.000000e+000 -9.827812e-001
    outer loop
      vertex -1.438277e+000  3.500000e+001 -2.632748e+000
      vertex -1.438277e+000  1.350000e+002 -2.632748e+000
      vertex  3.839000e-001  3.500000e+001 -2.975335e+000
    endloop
  endfacet
  facet normal -1.847728e-001  0.000000e+000 -9.827812e-001
    outer loop
      vertex  3.839000e-001  3.500000e+001 -2.975335e+000
      vertex -1.438277e+000  1.350000e+002 -2.632748e+000
      vertex  3.839000e-001  1.350000e+002 -2.975335e+000
    endloop
  endfacet
  facet normal  4.281799e-001  0.000000e+000 -9.036934e-001
    outer loop
      vertex  3.839000e-001  3.500000e+001 -2.975335e+000
      vertex  3.839000e-001  1.350000e+002 -2.975335e+000
      vertex  2.059440e+000  3.500000e+001 -2.181446e+000
    endloop
  endfacet
  facet normal  4.281799e-001  0.000000e+000 -9.036934e-001
    outer loop
      vertex  2.059440e+000  3.500000e+001 -2.181446e+000
      vertex  3.839000e-001  1.350000e+002 -2.975335e+000
      vertex  2.059440e+000  1.350000e+002 -2.181446e+000
    endloop
  endfacet
  facet normal  8.775825e-001  0.000000e+000 -4.794255e-001
    outer loop
      vertex  2.059440e+000  3.500000e+001 -2.181446e+000
      vertex  2.059440e+000  1.350000e+002 -2.181446e+000
      vertex  2.948344e+000  3.500000e+001 -5.543185e-001
    endloop
  endfacet
  facet normal  8.775825e-001  0.000000e+000 -4.794255e-001
    outer loop
      vertex  2.948344e+000  3.500000e+001 -5.543185e-001
      vertex  2.059440e+000  1.350000e+002 -2.181446e+000
      vertex  2.948344e+000  1.350000e+002 -5.543185e-001
    endloop
  endfacet
  facet normal  9.917785e-001  0.000000e+000  1.279666e-001
    outer loop
      vertex  2.948344e+000  3.500000e+001 -5.543185e-001
      vertex  2.948344e+000  1.350000e+002 -5.543185e-001
      vertex  2.711081e+000  3.500000e+001  1.284540e+000
    endloop
  endfacet
  facet normal  9.917785e-001  -0.000000e+000  1.279666e-001
    outer loop
      vertex  2.711081e+000  3.500000e+001  1.284540e+000
      vertex  2.948344e+000  1.350000e+002 -5.543185e-001
      vertex  2.711081e+000  1.350000e+002  1.284540e+000
    endloop
  endfacet
  facet normal  7.271487e-001  0.000000e+000  6.864799e-001
    outer loop
      vertex  2.711081e+000  3.500000e+001  1.284540e+000
      vertex  2.711081e+000  1.350000e+002  1.284540e+000
      vertex  1.438277e+000  3.500000e+001  2.632748e+000
    endloop
  endfacet
  facet normal  7.271487e-001  -0.000000e+000  6.864799e-001
    outer loop
      vertex  1.438277e+000  3.500000e+001  2.632748e+000
      vertex  2.711081e+000  1.350000e+002  1.284540e+000
      vertex  1.438277e+000  1.350000e+002  2.632748e+000
    endloop
  endfacet
  facet normal -6.273124e-001  0.000000e+000  7.787678e-001
    outer loop
      vertex  7.020661e-001  2.000000e+001 -3.835404e-001
      vertex  2.252316e-001  1.350000e+002 -7.676397e-001
      vertex  2.252316e-001  2.000000e+001 -7.676397e-001
    endloop
  endfacet
  facet normal  1.070951e-001  -0.000000e+000  9.942487e-001
    outer loop
      vertex  2.252316e-001  2.000000e+001 -7.676397e-001
      vertex  2.252316e-001  1.350000e+002 -7.676397e-001
      vertex -3.835404e-001  1.350000e+002 -7.020661e-001
    endloop
  endfacet
  facet normal  1.070951e-001  0.000000e+000  9.942487e-001
    outer loop
      vertex  2.252316e-001  2.000000e+001 -7.676397e-001
      vertex -3.835404e-001  1.350000e+002 -7.020661e-001
      vertex -3.835404e-001  2.000000e+001 -7.020661e-001
    endloop
  endfacet
  facet normal -6.273124e-001  0.000000e+000  7.787678e-001
    outer loop
      vertex  2.252316e-001  1.350000e+002 -7.676397e-001
      vertex  7.020661e-001  2.000000e+001 -3.835404e-001
      vertex  7.020661e-001  1.350000e+002 -3.835404e-001
    endloop
  endfacet
  facet normal -9.942487e-001  0.000000e+000  1.070951e-001
    outer loop
      vertex  7.020661e-001  1.350000e+002 -3.835404e-001
      vertex  7.020661e-001  2.000000e+001 -3.835404e-001
      vertex  7.676397e-001  2.000000e+001  2.252316e-001
    endloop
  endfacet
  facet normal -9.942487e-001  0.000000e+000  1.070951e-001
    outer loop
      vertex  7.020661e-001  1.350000e+002 -3.835404e-001
      vertex  7.676397e-001  2.000000e+001  2.252316e-001
      vertex  7.676397e-001  1.350000e+002  2.252316e-001
    endloop
  endfacet
  facet normal -7.787678e-001  -0.000000e+000 -6.273124e-001
    outer loop
      vertex  7.676397e-001  1.350000e+002  2.252316e-001
      vertex  7.676397e-001  2.000000e+001  2.252316e-001
      vertex  3.835404e-001  2.000000e+001  7.020661e-001
    endloop
  endfacet
  facet normal -7.787678e-001  0.000000e+000 -6.273124e-001
    outer loop
      vertex  7.676397e-001  1.350000e+002  2.252316e-001
      vertex  3.835404e-001  2.000000e+001  7.020661e-001
      vertex  3.835404e-001  1.350000e+002  7.020661e-001
    endloop
  endfacet
  facet normal -6.273123e-001  0.000000e+000  7.787678e-001
    outer loop
      vertex  1.755165e+000  1.421085e-014 -9.588511e-001
      vertex  5.630791e-001  2.000000e+001 -1.919099e+000
      vertex  5.630791e-001  1.421085e-014 -1.919099e+000
    endloop
  endfacet
  facet normal  1.070951e-001  -0.000000e+000  9.942487e-001
    outer loop
      vertex  5.630791e-001  1.421085e-014 -1.919099e+000
      vertex  5.630791e-001  2.000000e+001 -1.919099e+000
      vertex -9.588511e-001  2.000000e+001 -1.755165e+000
    endloop
  endfacet
  facet normal  1.070951e-001  0.000000e+000  9.942487e-001
    outer loop
      vertex  5.630791e-001  1.421085e-014 -1.919099e+000
      vertex -9.588511e-001  2.000000e+001 -1.755165e+000
      vertex -9.588511e-001  1.421085e-014 -1.755165e+000
    endloop
  endfacet
  facet normal -6.273123e-001  0.000000e+000  7.787678e-001
    outer loop
      vertex  5.630791e-001  2.000000e+001 -1.919099e+000
      vertex  1.755165e+000  1.421085e-014 -9.588511e-001
      vertex  1.755165e+000  2.000000e+001 -9.588511e-001
    endloop
  endfacet
  facet normal -9.942487e-001  0.000000e+000  1.070951e-001
    outer loop
      vertex  1.755165e+000  2.000000e+001 -9.588511e-001
      vertex  1.755165e+000  1.421085e-014 -9.588511e-001
      vertex  1.919099e+000  1.421085e-014  5.630791e-001
    endloop
  endfacet
  facet normal -9.942487e-001  0.000000e+000  1.070951e-001
    outer loop
      vertex  1.755165e+000  2.000000e+001 -9.588511e-001
      vertex  1.919099e+000  1.421085e-014  5.630791e-001
      vertex  1.919099e+000  2.000000e+001  5.630791e-001
    endloop
  endfacet
  facet normal -7.787678e-001  -0.000000e+000 -6.273123e-001
    outer loop
      vertex  1.919099e+000  2.000000e+001  5.630791e-001
      vertex  1.919099e+000  1.421085e-014  5.630791e-001
      vertex  9.588511e-001  1.421085e-014  1.755165e+000
    endloop
  endfacet
  facet normal -7.787678e-001  0.000000e+000 -6.273123e-001
    outer loop
      vertex  1.919099e+000  2.000000e+001  5.630791e-001
      vertex  9.588511e-001  1.421085e-014  1.755165e+000
      vertex  9.588511e-001  2.000000e+001  1.755165e+000
    endloop
  endfacet
endsolid CATIA STL
