solid CATIA STL
  facet normal  0.000000e+000  1.000000e+000  -0.000000e+000
    outer loop
      vertex  1.500000e+000  7.500000e+000 -1.606858e+001
      vertex  1.500000e+000  7.500000e+000 -4.500000e+001
      vertex -1.500000e+000  7.500000e+000 -1.606858e+001
    endloop
  endfacet
  facet normal  0.000000e+000  1.000000e+000  0.000000e+000
    outer loop
      vertex -1.500000e+000  7.500000e+000 -1.606858e+001
      vertex  1.500000e+000  7.500000e+000 -4.500000e+001
      vertex -1.500000e+000  7.500000e+000 -4.500000e+001
    endloop
  endfacet
  facet normal -2.607080e-002  6.149929e-001 -7.881016e-001
    outer loop
      vertex  1.500000e+000  1.681954e+001 -6.340846e+000
      vertex  1.500000e+000  1.226738e+001 -9.893106e+000
      vertex -1.500000e+000  1.329641e+001 -8.990867e+000
    endloop
  endfacet
  facet normal  3.981356e-002  7.218491e-001 -6.909044e-001
    outer loop
      vertex -1.500000e+000  1.329641e+001 -8.990867e+000
      vertex  1.500000e+000  1.226738e+001 -9.893106e+000
      vertex  1.500000e+000  8.198541e+000 -1.414419e+001
    endloop
  endfacet
  facet normal  0.000000e+000  7.109213e-001 -7.032716e-001
    outer loop
      vertex -1.500000e+000  1.329641e+001 -8.990867e+000
      vertex  1.500000e+000  8.198541e+000 -1.414419e+001
      vertex -1.500000e+000  8.198541e+000 -1.414419e+001
    endloop
  endfacet
  facet normal  5.042056e-002  5.725745e-001 -8.183008e-001
    outer loop
      vertex -1.500000e+000  1.329641e+001 -8.990867e+000
      vertex -1.500000e+000  1.900000e+001 -5.000000e+000
      vertex  1.500000e+000  1.681954e+001 -6.340846e+000
    endloop
  endfacet
  facet normal -8.455568e-002  4.349418e-001 -8.964797e-001
    outer loop
      vertex  1.500000e+000  1.681954e+001 -6.340846e+000
      vertex -1.500000e+000  1.900000e+001 -5.000000e+000
      vertex -1.500000e+000  2.322763e+001 -2.948898e+000
    endloop
  endfacet
  facet normal  5.062678e-002  4.856377e-001 -8.726929e-001
    outer loop
      vertex  1.500000e+000  1.681954e+001 -6.340846e+000
      vertex -1.500000e+000  2.322763e+001 -2.948898e+000
      vertex  1.500000e+000  2.182406e+001 -3.555923e+000
    endloop
  endfacet
  facet normal -4.294703e-002  3.178428e-001 -9.471703e-001
    outer loop
      vertex  1.500000e+000  2.182406e+001 -3.555923e+000
      vertex -1.500000e+000  2.322763e+001 -2.948898e+000
      vertex -1.500000e+000  2.773575e+001 -1.436103e+000
    endloop
  endfacet
  facet normal -3.740440e-008  3.375365e-001 -9.413125e-001
    outer loop
      vertex  1.500000e+000  2.182406e+001 -3.555923e+000
      vertex -1.500000e+000  2.773575e+001 -1.436103e+000
      vertex  1.500000e+000  2.773575e+001 -1.436103e+000
    endloop
  endfacet
  facet normal -1.000000e+000  -0.000000e+000  0.000000e+000
    outer loop
      vertex -1.500000e+000 -1.520280e+000  2.147972e+001
      vertex -1.500000e+000 -8.390248e-016  2.085000e+001
      vertex -1.500000e+000 -2.286477e+001  1.942169e+001
    endloop
  endfacet
  facet normal -1.000000e+000  -0.000000e+000  0.000000e+000
    outer loop
      vertex -1.500000e+000  3.949355e-016 -2.415000e+001
      vertex -1.500000e+000 -6.090411e-016 -3.785000e+001
      vertex -1.500000e+000 -1.520280e+000 -3.847972e+001
    endloop
  endfacet
  facet normal -1.000000e+000  0.000000e+000  -0.000000e+000
    outer loop
      vertex -1.500000e+000 -8.390248e-016  2.085000e+001
      vertex -1.500000e+000  1.520280e+000  2.147972e+001
      vertex -1.500000e+000  2.286477e+001  1.942169e+001
    endloop
  endfacet
  facet normal -1.000000e+000  0.000000e+000  -0.000000e+000
    outer loop
      vertex -1.500000e+000 -6.090411e-016 -3.785000e+001
      vertex -1.500000e+000  3.949355e-016 -2.415000e+001
      vertex -1.500000e+000  1.520280e+000 -3.847972e+001
    endloop
  endfacet
  facet normal -1.000000e+000  0.000000e+000  0.000000e+000
    outer loop
      vertex -1.500000e+000  7.500000e+000 -1.606858e+001
      vertex -1.500000e+000  7.500000e+000 -4.500000e+001
      vertex -1.500000e+000  2.150000e+000 -2.200000e+001
    endloop
  endfacet
  facet normal -1.000000e+000  0.000000e+000  0.000000e+000
    outer loop
      vertex -1.500000e+000  7.500000e+000 -1.606858e+001
      vertex -1.500000e+000  2.150000e+000 -2.200000e+001
      vertex -1.500000e+000  1.520280e+000 -2.047972e+001
    endloop
  endfacet
  facet normal -1.000000e+000  0.000000e+000  0.000000e+000
    outer loop
      vertex -1.500000e+000  7.500000e+000 -1.606858e+001
      vertex -1.500000e+000  1.520280e+000 -2.047972e+001
      vertex -1.500000e+000 -6.090411e-016 -1.985000e+001
    endloop
  endfacet
  facet normal -1.000000e+000  0.000000e+000  0.000000e+000
    outer loop
      vertex -1.500000e+000 -8.198541e+000 -1.414419e+001
      vertex -1.500000e+000 -1.329641e+001 -8.990867e+000
      vertex -1.500000e+000 -3.635493e+000 -8.776855e+000
    endloop
  endfacet
  facet normal -1.000000e+000  0.000000e+000  -0.000000e+000
    outer loop
      vertex -1.500000e+000 -8.198541e+000 -1.414419e+001
      vertex -1.500000e+000 -3.635493e+000 -8.776855e+000
      vertex -1.500000e+000  1.018276e-014 -9.500000e+000
    endloop
  endfacet
  facet normal -1.000000e+000  0.000000e+000  0.000000e+000
    outer loop
      vertex -1.500000e+000 -8.198541e+000 -1.414419e+001
      vertex -1.500000e+000  1.018276e-014 -9.500000e+000
      vertex -1.500000e+000 -6.090411e-016 -1.985000e+001
    endloop
  endfacet
  facet normal -1.000000e+000  0.000000e+000  0.000000e+000
    outer loop
      vertex -1.500000e+000 -8.198541e+000 -1.414419e+001
      vertex -1.500000e+000 -6.090411e-016 -1.985000e+001
      vertex -1.500000e+000 -7.500000e+000 -1.606858e+001
    endloop
  endfacet
  facet normal -9.999999e-001  -0.000000e+000  0.000000e+000
    outer loop
      vertex -1.500000e+000  3.949355e-016 -4.215000e+001
      vertex -1.500000e+000  7.500000e+000 -4.500000e+001
      vertex -1.500000e+000  7.098076e+000 -4.650000e+001
    endloop
  endfacet
  facet normal -1.000000e+000  -0.000000e+000  0.000000e+000
    outer loop
      vertex -1.500000e+000  3.949355e-016 -4.215000e+001
      vertex -1.500000e+000  7.098076e+000 -4.650000e+001
      vertex -1.500000e+000  6.000000e+000 -4.759808e+001
    endloop
  endfacet
  facet normal -1.000000e+000  -0.000000e+000  0.000000e+000
    outer loop
      vertex -1.500000e+000  3.949355e-016 -4.215000e+001
      vertex -1.500000e+000  6.000000e+000 -4.759808e+001
      vertex -1.500000e+000  4.500000e+000 -4.800000e+001
    endloop
  endfacet
  facet normal -1.000000e+000  0.000000e+000  -0.000000e+000
    outer loop
      vertex -1.500000e+000 -7.500000e+000 -4.500000e+001
      vertex -1.500000e+000 -2.150000e+000 -2.200000e+001
      vertex -1.500000e+000 -1.520280e+000 -2.352028e+001
    endloop
  endfacet
  facet normal -1.000000e+000  0.000000e+000  -0.000000e+000
    outer loop
      vertex -1.500000e+000 -7.500000e+000 -4.500000e+001
      vertex -1.500000e+000 -1.520280e+000 -2.352028e+001
      vertex -1.500000e+000  3.949355e-016 -2.415000e+001
    endloop
  endfacet
  facet normal -1.000000e+000  0.000000e+000  0.000000e+000
    outer loop
      vertex -1.500000e+000 -7.500000e+000 -4.500000e+001
      vertex -1.500000e+000  3.949355e-016 -2.415000e+001
      vertex -1.500000e+000 -1.520280e+000 -3.847972e+001
    endloop
  endfacet
  facet normal -1.000000e+000  0.000000e+000  0.000000e+000
    outer loop
      vertex -1.500000e+000 -7.500000e+000 -4.500000e+001
      vertex -1.500000e+000 -1.520280e+000 -3.847972e+001
      vertex -1.500000e+000 -2.150000e+000 -4.000000e+001
    endloop
  endfacet
  facet normal -1.000000e+000  0.000000e+000  -0.000000e+000
    outer loop
      vertex -1.500000e+000 -7.500000e+000 -4.500000e+001
      vertex -1.500000e+000 -2.150000e+000 -4.000000e+001
      vertex -1.500000e+000 -1.520280e+000 -4.152028e+001
    endloop
  endfacet
  facet normal -1.000000e+000  0.000000e+000  -0.000000e+000
    outer loop
      vertex -1.500000e+000 -7.500000e+000 -4.500000e+001
      vertex -1.500000e+000 -1.520280e+000 -4.152028e+001
      vertex -1.500000e+000  3.949355e-016 -4.215000e+001
    endloop
  endfacet
  facet normal -1.000000e+000  -0.000000e+000  0.000000e+000
    outer loop
      vertex -1.500000e+000 -7.500000e+000 -1.606858e+001
      vertex -1.500000e+000 -6.090411e-016 -1.985000e+001
      vertex -1.500000e+000 -1.520280e+000 -2.047972e+001
    endloop
  endfacet
  facet normal -1.000000e+000  -0.000000e+000  0.000000e+000
    outer loop
      vertex -1.500000e+000 -7.500000e+000 -1.606858e+001
      vertex -1.500000e+000 -1.520280e+000 -2.047972e+001
      vertex -1.500000e+000 -2.150000e+000 -2.200000e+001
    endloop
  endfacet
  facet normal -1.000000e+000  -0.000000e+000  0.000000e+000
    outer loop
      vertex -1.500000e+000 -7.500000e+000 -1.606858e+001
      vertex -1.500000e+000 -2.150000e+000 -2.200000e+001
      vertex -1.500000e+000 -7.500000e+000 -4.500000e+001
    endloop
  endfacet
  facet normal -1.000000e+000  0.000000e+000  -0.000000e+000
    outer loop
      vertex -1.500000e+000  8.776855e+000 -3.635493e+000
      vertex -1.500000e+000  9.500000e+000  9.601071e-015
      vertex -1.500000e+000  2.938871e+001 -2.996456e-001
    endloop
  endfacet
  facet normal -1.000000e+000  0.000000e+000  0.000000e+000
    outer loop
      vertex -1.500000e+000  8.776855e+000 -3.635493e+000
      vertex -1.500000e+000  2.938871e+001 -2.996456e-001
      vertex -1.500000e+000  2.773575e+001 -1.436103e+000
    endloop
  endfacet
  facet normal -9.999999e-001  0.000000e+000  0.000000e+000
    outer loop
      vertex -1.500000e+000  8.776855e+000 -3.635493e+000
      vertex -1.500000e+000  2.773575e+001 -1.436103e+000
      vertex -1.500000e+000  2.322763e+001 -2.948898e+000
    endloop
  endfacet
  facet normal -1.000000e+000  0.000000e+000  0.000000e+000
    outer loop
      vertex -1.500000e+000  8.776855e+000 -3.635493e+000
      vertex -1.500000e+000  2.322763e+001 -2.948898e+000
      vertex -1.500000e+000  1.900000e+001 -5.000000e+000
    endloop
  endfacet
  facet normal -1.000000e+000  -0.000000e+000  0.000000e+000
    outer loop
      vertex -1.500000e+000  8.776855e+000 -3.635493e+000
      vertex -1.500000e+000  1.900000e+001 -5.000000e+000
      vertex -1.500000e+000  6.717515e+000 -6.717515e+000
    endloop
  endfacet
  facet normal -1.000000e+000  0.000000e+000  0.000000e+000
    outer loop
      vertex -1.500000e+000  7.500000e+000 -4.500000e+001
      vertex -1.500000e+000  3.949355e-016 -4.215000e+001
      vertex -1.500000e+000  1.520280e+000 -4.152028e+001
    endloop
  endfacet
  facet normal -1.000000e+000  0.000000e+000  0.000000e+000
    outer loop
      vertex -1.500000e+000  7.500000e+000 -4.500000e+001
      vertex -1.500000e+000  1.520280e+000 -4.152028e+001
      vertex -1.500000e+000  2.150000e+000 -4.000000e+001
    endloop
  endfacet
  facet normal -1.000000e+000  0.000000e+000  0.000000e+000
    outer loop
      vertex -1.500000e+000  7.500000e+000 -4.500000e+001
      vertex -1.500000e+000  2.150000e+000 -4.000000e+001
      vertex -1.500000e+000  1.520280e+000 -3.847972e+001
    endloop
  endfacet
  facet normal -1.000000e+000  0.000000e+000  0.000000e+000
    outer loop
      vertex -1.500000e+000  7.500000e+000 -4.500000e+001
      vertex -1.500000e+000  1.520280e+000 -3.847972e+001
      vertex -1.500000e+000  3.949355e-016 -2.415000e+001
    endloop
  endfacet
  facet normal -1.000000e+000  0.000000e+000  0.000000e+000
    outer loop
      vertex -1.500000e+000  7.500000e+000 -4.500000e+001
      vertex -1.500000e+000  3.949355e-016 -2.415000e+001
      vertex -1.500000e+000  1.520280e+000 -2.352028e+001
    endloop
  endfacet
  facet normal -1.000000e+000  0.000000e+000  0.000000e+000
    outer loop
      vertex -1.500000e+000  7.500000e+000 -4.500000e+001
      vertex -1.500000e+000  1.520280e+000 -2.352028e+001
      vertex -1.500000e+000  2.150000e+000 -2.200000e+001
    endloop
  endfacet
  facet normal -1.000000e+000  0.000000e+000  0.000000e+000
    outer loop
      vertex -1.500000e+000  4.500000e+000 -4.800000e+001
      vertex -1.500000e+000 -4.500000e+000 -4.800000e+001
      vertex -1.500000e+000  3.949355e-016 -4.215000e+001
    endloop
  endfacet
  facet normal -1.000000e+000  0.000000e+000  0.000000e+000
    outer loop
      vertex -1.500000e+000  3.949355e-016 -4.215000e+001
      vertex -1.500000e+000 -4.500000e+000 -4.800000e+001
      vertex -1.500000e+000 -7.500000e+000 -4.500000e+001
    endloop
  endfacet
  facet normal -1.000000e+000  0.000000e+000  0.000000e+000
    outer loop
      vertex -1.500000e+000 -4.500000e+000 -4.800000e+001
      vertex -1.500000e+000 -6.000000e+000 -4.759808e+001
      vertex -1.500000e+000 -7.500000e+000 -4.500000e+001
    endloop
  endfacet
  facet normal -1.000000e+000  0.000000e+000  0.000000e+000
    outer loop
      vertex -1.500000e+000 -7.500000e+000 -4.500000e+001
      vertex -1.500000e+000 -6.000000e+000 -4.759808e+001
      vertex -1.500000e+000 -7.098076e+000 -4.650000e+001
    endloop
  endfacet
  facet normal -1.000000e+000  0.000000e+000  0.000000e+000
    outer loop
      vertex -1.500000e+000  1.259661e+001  2.722729e+001
      vertex -1.500000e+000 -9.039942e-017  2.515000e+001
      vertex -1.500000e+000  6.449080e+000  2.929862e+001
    endloop
  endfacet
  facet normal -9.999999e-001  -0.000000e+000  0.000000e+000
    outer loop
      vertex -1.500000e+000  6.449080e+000  2.929862e+001
      vertex -1.500000e+000 -9.039942e-017  2.515000e+001
      vertex -1.500000e+000  8.498248e-015  3.000000e+001
    endloop
  endfacet
  facet normal -1.000000e+000  0.000000e+000  0.000000e+000
    outer loop
      vertex -1.500000e+000 -9.039942e-017  2.515000e+001
      vertex -1.500000e+000 -1.259661e+001  2.722729e+001
      vertex -1.500000e+000  8.498248e-015  3.000000e+001
    endloop
  endfacet
  facet normal -1.000000e+000  0.000000e+000  0.000000e+000
    outer loop
      vertex -1.500000e+000  8.498248e-015  3.000000e+001
      vertex -1.500000e+000 -1.259661e+001  2.722729e+001
      vertex -1.500000e+000 -6.449080e+000  2.929862e+001
    endloop
  endfacet
  facet normal -1.000000e+000  0.000000e+000  0.000000e+000
    outer loop
      vertex -1.500000e+000 -1.520280e+000  2.147972e+001
      vertex -1.500000e+000 -2.286477e+001  1.942169e+001
      vertex -1.500000e+000 -2.150000e+000  2.300000e+001
    endloop
  endfacet
  facet normal -1.000000e+000  -0.000000e+000  0.000000e+000
    outer loop
      vertex -1.500000e+000 -2.150000e+000  2.300000e+001
      vertex -1.500000e+000 -2.286477e+001  1.942169e+001
      vertex -1.500000e+000 -1.815514e+001  2.388285e+001
    endloop
  endfacet
  facet normal -9.999999e-001  0.000000e+000  0.000000e+000
    outer loop
      vertex -1.500000e+000 -2.150000e+000  2.300000e+001
      vertex -1.500000e+000 -1.815514e+001  2.388285e+001
      vertex -1.500000e+000 -1.520280e+000  2.452028e+001
    endloop
  endfacet
  facet normal -9.999999e-001  -0.000000e+000  0.000000e+000
    outer loop
      vertex -1.500000e+000 -1.520280e+000  2.452028e+001
      vertex -1.500000e+000 -1.815514e+001  2.388285e+001
      vertex -1.500000e+000 -1.259661e+001  2.722729e+001
    endloop
  endfacet
  facet normal -1.000000e+000  0.000000e+000  0.000000e+000
    outer loop
      vertex -1.500000e+000 -1.520280e+000  2.452028e+001
      vertex -1.500000e+000 -1.259661e+001  2.722729e+001
      vertex -1.500000e+000 -9.039942e-017  2.515000e+001
    endloop
  endfacet
  facet normal -1.000000e+000  0.000000e+000  0.000000e+000
    outer loop
      vertex -1.500000e+000  2.650528e+001  1.405241e+001
      vertex -1.500000e+000 -4.800536e-015  9.500000e+000
      vertex -1.500000e+000  2.286477e+001  1.942169e+001
    endloop
  endfacet
  facet normal -1.000000e+000  -0.000000e+000  0.000000e+000
    outer loop
      vertex -1.500000e+000  2.286477e+001  1.942169e+001
      vertex -1.500000e+000 -4.800536e-015  9.500000e+000
      vertex -1.500000e+000 -8.390248e-016  2.085000e+001
    endloop
  endfacet
  facet normal -1.000000e+000  0.000000e+000  0.000000e+000
    outer loop
      vertex -1.500000e+000 -4.800536e-015  9.500000e+000
      vertex -1.500000e+000 -2.650528e+001  1.405241e+001
      vertex -1.500000e+000 -8.390248e-016  2.085000e+001
    endloop
  endfacet
  facet normal -1.000000e+000  0.000000e+000  0.000000e+000
    outer loop
      vertex -1.500000e+000 -8.390248e-016  2.085000e+001
      vertex -1.500000e+000 -2.650528e+001  1.405241e+001
      vertex -1.500000e+000 -2.286477e+001  1.942169e+001
    endloop
  endfacet
  facet normal -9.999999e-001  0.000000e+000  0.000000e+000
    outer loop
      vertex -1.500000e+000 -8.776855e+000  3.635493e+000
      vertex -1.500000e+000 -2.995599e+001  1.624409e+000
      vertex -1.500000e+000 -6.717515e+000  6.717515e+000
    endloop
  endfacet
  facet normal -9.999999e-001  -0.000000e+000  0.000000e+000
    outer loop
      vertex -1.500000e+000 -6.717515e+000  6.717515e+000
      vertex -1.500000e+000 -2.995599e+001  1.624409e+000
      vertex -1.500000e+000 -2.890644e+001  8.026051e+000
    endloop
  endfacet
  facet normal -1.000000e+000  0.000000e+000  0.000000e+000
    outer loop
      vertex -1.500000e+000 -6.717515e+000  6.717515e+000
      vertex -1.500000e+000 -2.890644e+001  8.026051e+000
      vertex -1.500000e+000 -3.635493e+000  8.776855e+000
    endloop
  endfacet
  facet normal -1.000000e+000  -0.000000e+000  0.000000e+000
    outer loop
      vertex -1.500000e+000 -3.635493e+000  8.776855e+000
      vertex -1.500000e+000 -2.890644e+001  8.026051e+000
      vertex -1.500000e+000 -2.650528e+001  1.405241e+001
    endloop
  endfacet
  facet normal -1.000000e+000  0.000000e+000  0.000000e+000
    outer loop
      vertex -1.500000e+000 -3.635493e+000  8.776855e+000
      vertex -1.500000e+000 -2.650528e+001  1.405241e+001
      vertex -1.500000e+000 -4.800536e-015  9.500000e+000
    endloop
  endfacet
  facet normal -9.999999e-001  0.000000e+000  0.000000e+000
    outer loop
      vertex -1.500000e+000 -2.322763e+001 -2.948898e+000
      vertex -1.500000e+000 -2.773575e+001 -1.436103e+000
      vertex -1.500000e+000 -8.776855e+000 -3.635493e+000
    endloop
  endfacet
  facet normal -1.000000e+000  0.000000e+000  0.000000e+000
    outer loop
      vertex -1.500000e+000 -8.776855e+000 -3.635493e+000
      vertex -1.500000e+000 -2.773575e+001 -1.436103e+000
      vertex -1.500000e+000 -2.938871e+001 -2.996456e-001
    endloop
  endfacet
  facet normal -1.000000e+000  0.000000e+000  0.000000e+000
    outer loop
      vertex -1.500000e+000 -8.776855e+000 -3.635493e+000
      vertex -1.500000e+000 -2.938871e+001 -2.996456e-001
      vertex -1.500000e+000 -9.500000e+000  0.000000e+000
    endloop
  endfacet
  facet normal -1.000000e+000  -0.000000e+000  0.000000e+000
    outer loop
      vertex -1.500000e+000 -9.500000e+000  0.000000e+000
      vertex -1.500000e+000 -2.938871e+001 -2.996456e-001
      vertex -1.500000e+000 -2.995599e+001  1.624409e+000
    endloop
  endfacet
  facet normal -1.000000e+000  0.000000e+000  0.000000e+000
    outer loop
      vertex -1.500000e+000 -9.500000e+000  0.000000e+000
      vertex -1.500000e+000 -2.995599e+001  1.624409e+000
      vertex -1.500000e+000 -8.776855e+000  3.635493e+000
    endloop
  endfacet
  facet normal -1.000000e+000  0.000000e+000  0.000000e+000
    outer loop
      vertex -1.500000e+000 -8.776855e+000 -3.635493e+000
      vertex -1.500000e+000 -6.717515e+000 -6.717515e+000
      vertex -1.500000e+000 -2.322763e+001 -2.948898e+000
    endloop
  endfacet
  facet normal -1.000000e+000  0.000000e+000  0.000000e+000
    outer loop
      vertex -1.500000e+000 -2.322763e+001 -2.948898e+000
      vertex -1.500000e+000 -6.717515e+000 -6.717515e+000
      vertex -1.500000e+000 -1.900000e+001 -5.000000e+000
    endloop
  endfacet
  facet normal -1.000000e+000  0.000000e+000  0.000000e+000
    outer loop
      vertex -1.500000e+000 -6.717515e+000 -6.717515e+000
      vertex -1.500000e+000 -3.635493e+000 -8.776855e+000
      vertex -1.500000e+000 -1.900000e+001 -5.000000e+000
    endloop
  endfacet
  facet normal -1.000000e+000  0.000000e+000  0.000000e+000
    outer loop
      vertex -1.500000e+000 -1.900000e+001 -5.000000e+000
      vertex -1.500000e+000 -3.635493e+000 -8.776855e+000
      vertex -1.500000e+000 -1.329641e+001 -8.990867e+000
    endloop
  endfacet
  facet normal -1.000000e+000  0.000000e+000  -0.000000e+000
    outer loop
      vertex -1.500000e+000  1.520280e+000  2.147972e+001
      vertex -1.500000e+000  2.150000e+000  2.300000e+001
      vertex -1.500000e+000  2.286477e+001  1.942169e+001
    endloop
  endfacet
  facet normal -1.000000e+000  0.000000e+000  0.000000e+000
    outer loop
      vertex -1.500000e+000  2.286477e+001  1.942169e+001
      vertex -1.500000e+000  2.150000e+000  2.300000e+001
      vertex -1.500000e+000  1.520280e+000  2.452028e+001
    endloop
  endfacet
  facet normal -1.000000e+000  0.000000e+000  0.000000e+000
    outer loop
      vertex -1.500000e+000  2.286477e+001  1.942169e+001
      vertex -1.500000e+000  1.520280e+000  2.452028e+001
      vertex -1.500000e+000  1.815514e+001  2.388285e+001
    endloop
  endfacet
  facet normal -1.000000e+000  0.000000e+000  0.000000e+000
    outer loop
      vertex -1.500000e+000  1.815514e+001  2.388285e+001
      vertex -1.500000e+000  1.520280e+000  2.452028e+001
      vertex -1.500000e+000 -9.039942e-017  2.515000e+001
    endloop
  endfacet
  facet normal -9.999999e-001  0.000000e+000  0.000000e+000
    outer loop
      vertex -1.500000e+000  1.815514e+001  2.388285e+001
      vertex -1.500000e+000 -9.039942e-017  2.515000e+001
      vertex -1.500000e+000  1.259661e+001  2.722729e+001
    endloop
  endfacet
  facet normal -1.000000e+000  0.000000e+000  0.000000e+000
    outer loop
      vertex -1.500000e+000  8.776855e+000  3.635493e+000
      vertex -1.500000e+000  6.717515e+000  6.717515e+000
      vertex -1.500000e+000  2.995599e+001  1.624409e+000
    endloop
  endfacet
  facet normal -1.000000e+000  0.000000e+000  0.000000e+000
    outer loop
      vertex -1.500000e+000  2.995599e+001  1.624409e+000
      vertex -1.500000e+000  6.717515e+000  6.717515e+000
      vertex -1.500000e+000  3.635493e+000  8.776855e+000
    endloop
  endfacet
  facet normal -1.000000e+000  0.000000e+000  0.000000e+000
    outer loop
      vertex -1.500000e+000  2.995599e+001  1.624409e+000
      vertex -1.500000e+000  3.635493e+000  8.776855e+000
      vertex -1.500000e+000  2.890644e+001  8.026051e+000
    endloop
  endfacet
  facet normal -1.000000e+000  0.000000e+000  0.000000e+000
    outer loop
      vertex -1.500000e+000  2.890644e+001  8.026051e+000
      vertex -1.500000e+000  3.635493e+000  8.776855e+000
      vertex -1.500000e+000 -4.800536e-015  9.500000e+000
    endloop
  endfacet
  facet normal -1.000000e+000  0.000000e+000  0.000000e+000
    outer loop
      vertex -1.500000e+000  2.890644e+001  8.026051e+000
      vertex -1.500000e+000 -4.800536e-015  9.500000e+000
      vertex -1.500000e+000  2.650528e+001  1.405241e+001
    endloop
  endfacet
  facet normal -9.999999e-001  0.000000e+000  0.000000e+000
    outer loop
      vertex -1.500000e+000  9.500000e+000  9.601071e-015
      vertex -1.500000e+000  8.776855e+000  3.635493e+000
      vertex -1.500000e+000  2.938871e+001 -2.996456e-001
    endloop
  endfacet
  facet normal -1.000000e+000  0.000000e+000  0.000000e+000
    outer loop
      vertex -1.500000e+000  2.938871e+001 -2.996456e-001
      vertex -1.500000e+000  8.776855e+000  3.635493e+000
      vertex -1.500000e+000  2.995599e+001  1.624409e+000
    endloop
  endfacet
  facet normal -1.000000e+000  0.000000e+000  0.000000e+000
    outer loop
      vertex -1.500000e+000  1.329641e+001 -8.990867e+000
      vertex -1.500000e+000  6.717515e+000 -6.717515e+000
      vertex -1.500000e+000  1.900000e+001 -5.000000e+000
    endloop
  endfacet
  facet normal -1.000000e+000  0.000000e+000  0.000000e+000
    outer loop
      vertex -1.500000e+000  6.717515e+000 -6.717515e+000
      vertex -1.500000e+000  1.329641e+001 -8.990867e+000
      vertex -1.500000e+000  3.635493e+000 -8.776855e+000
    endloop
  endfacet
  facet normal -1.000000e+000  0.000000e+000  0.000000e+000
    outer loop
      vertex -1.500000e+000  3.635493e+000 -8.776855e+000
      vertex -1.500000e+000  1.329641e+001 -8.990867e+000
      vertex -1.500000e+000  8.198541e+000 -1.414419e+001
    endloop
  endfacet
  facet normal -1.000000e+000  0.000000e+000  0.000000e+000
    outer loop
      vertex -1.500000e+000  3.635493e+000 -8.776855e+000
      vertex -1.500000e+000  8.198541e+000 -1.414419e+001
      vertex -1.500000e+000  1.018276e-014 -9.500000e+000
    endloop
  endfacet
  facet normal -1.000000e+000  0.000000e+000  0.000000e+000
    outer loop
      vertex -1.500000e+000  1.018276e-014 -9.500000e+000
      vertex -1.500000e+000  8.198541e+000 -1.414419e+001
      vertex -1.500000e+000  7.500000e+000 -1.606858e+001
    endloop
  endfacet
  facet normal -1.000000e+000  -0.000000e+000  0.000000e+000
    outer loop
      vertex -1.500000e+000  1.018276e-014 -9.500000e+000
      vertex -1.500000e+000  7.500000e+000 -1.606858e+001
      vertex -1.500000e+000 -6.090411e-016 -1.985000e+001
    endloop
  endfacet
  facet normal  1.000000e+000  0.000000e+000  0.000000e+000
    outer loop
      vertex  1.500000e+000 -2.286477e+001  1.942169e+001
      vertex  1.500000e+000 -8.390248e-016  2.085000e+001
      vertex  1.500000e+000 -1.520280e+000  2.147972e+001
    endloop
  endfacet
  facet normal  1.000000e+000  0.000000e+000  0.000000e+000
    outer loop
      vertex  1.500000e+000 -1.520280e+000 -3.847972e+001
      vertex  1.500000e+000  3.536898e-016 -3.785000e+001
      vertex  1.500000e+000  4.915366e-017 -2.415000e+001
    endloop
  endfacet
  facet normal  1.000000e+000  0.000000e+000  0.000000e+000
    outer loop
      vertex  1.500000e+000  2.286477e+001  1.942169e+001
      vertex  1.500000e+000  1.520280e+000  2.147972e+001
      vertex  1.500000e+000 -8.390248e-016  2.085000e+001
    endloop
  endfacet
  facet normal  1.000000e+000  0.000000e+000  0.000000e+000
    outer loop
      vertex  1.500000e+000  1.520280e+000 -3.847972e+001
      vertex  1.500000e+000  4.915366e-017 -2.415000e+001
      vertex  1.500000e+000  3.536898e-016 -3.785000e+001
    endloop
  endfacet
  facet normal  1.000000e+000  -0.000000e+000  0.000000e+000
    outer loop
      vertex  1.500000e+000  7.500000e+000 -1.606858e+001
      vertex  1.500000e+000  3.536898e-016 -1.985000e+001
      vertex  1.500000e+000  1.520280e+000 -2.047972e+001
    endloop
  endfacet
  facet normal  1.000000e+000  -0.000000e+000  0.000000e+000
    outer loop
      vertex  1.500000e+000  7.500000e+000 -1.606858e+001
      vertex  1.500000e+000  1.520280e+000 -2.047972e+001
      vertex  1.500000e+000  2.150000e+000 -2.200000e+001
    endloop
  endfacet
  facet normal  1.000000e+000  -0.000000e+000  0.000000e+000
    outer loop
      vertex  1.500000e+000  7.500000e+000 -1.606858e+001
      vertex  1.500000e+000  2.150000e+000 -2.200000e+001
      vertex  1.500000e+000  7.500000e+000 -4.500000e+001
    endloop
  endfacet
  facet normal  1.000000e+000  0.000000e+000  -0.000000e+000
    outer loop
      vertex  1.500000e+000  4.915366e-017 -4.215000e+001
      vertex  1.500000e+000  4.500000e+000 -4.800000e+001
      vertex  1.500000e+000  6.000000e+000 -4.759808e+001
    endloop
  endfacet
  facet normal  1.000000e+000  0.000000e+000  -0.000000e+000
    outer loop
      vertex  1.500000e+000  4.915366e-017 -4.215000e+001
      vertex  1.500000e+000  6.000000e+000 -4.759808e+001
      vertex  1.500000e+000  7.098076e+000 -4.650000e+001
    endloop
  endfacet
  facet normal  9.999999e-001  0.000000e+000  -0.000000e+000
    outer loop
      vertex  1.500000e+000  4.915366e-017 -4.215000e+001
      vertex  1.500000e+000  7.098076e+000 -4.650000e+001
      vertex  1.500000e+000  7.500000e+000 -4.500000e+001
    endloop
  endfacet
  facet normal  1.000000e+000  -0.000000e+000  -0.000000e+000
    outer loop
      vertex  1.500000e+000 -1.226738e+001 -9.893106e+000
      vertex  1.500000e+000 -8.198541e+000 -1.414419e+001
      vertex  1.500000e+000  3.536898e-016 -1.985000e+001
    endloop
  endfacet
  facet normal  9.999999e-001  0.000000e+000  -0.000000e+000
    outer loop
      vertex  1.500000e+000 -1.226738e+001 -9.893106e+000
      vertex  1.500000e+000  3.536898e-016 -1.985000e+001
      vertex  1.500000e+000  6.692631e-015 -9.500000e+000
    endloop
  endfacet
  facet normal  1.000000e+000  0.000000e+000  0.000000e+000
    outer loop
      vertex  1.500000e+000 -1.226738e+001 -9.893106e+000
      vertex  1.500000e+000  6.692631e-015 -9.500000e+000
      vertex  1.500000e+000 -3.635493e+000 -8.776855e+000
    endloop
  endfacet
  facet normal  1.000000e+000  0.000000e+000  0.000000e+000
    outer loop
      vertex  1.500000e+000 -1.226738e+001 -9.893106e+000
      vertex  1.500000e+000 -3.635493e+000 -8.776855e+000
      vertex  1.500000e+000 -6.717515e+000 -6.717515e+000
    endloop
  endfacet
  facet normal  1.000000e+000  0.000000e+000  0.000000e+000
    outer loop
      vertex  1.500000e+000 -1.226738e+001 -9.893106e+000
      vertex  1.500000e+000 -6.717515e+000 -6.717515e+000
      vertex  1.500000e+000 -1.681954e+001 -6.340846e+000
    endloop
  endfacet
  facet normal  1.000000e+000  0.000000e+000  0.000000e+000
    outer loop
      vertex  1.500000e+000 -7.500000e+000 -4.500000e+001
      vertex  1.500000e+000  4.915366e-017 -4.215000e+001
      vertex  1.500000e+000 -1.520280e+000 -4.152028e+001
    endloop
  endfacet
  facet normal  1.000000e+000  0.000000e+000  0.000000e+000
    outer loop
      vertex  1.500000e+000 -7.500000e+000 -4.500000e+001
      vertex  1.500000e+000 -1.520280e+000 -4.152028e+001
      vertex  1.500000e+000 -2.150000e+000 -4.000000e+001
    endloop
  endfacet
  facet normal  1.000000e+000  0.000000e+000  -0.000000e+000
    outer loop
      vertex  1.500000e+000 -7.500000e+000 -4.500000e+001
      vertex  1.500000e+000 -2.150000e+000 -4.000000e+001
      vertex  1.500000e+000 -1.520280e+000 -3.847972e+001
    endloop
  endfacet
  facet normal  1.000000e+000  0.000000e+000  -0.000000e+000
    outer loop
      vertex  1.500000e+000 -7.500000e+000 -4.500000e+001
      vertex  1.500000e+000 -1.520280e+000 -3.847972e+001
      vertex  1.500000e+000  4.915366e-017 -2.415000e+001
    endloop
  endfacet
  facet normal  1.000000e+000  0.000000e+000  0.000000e+000
    outer loop
      vertex  1.500000e+000 -7.500000e+000 -4.500000e+001
      vertex  1.500000e+000  4.915366e-017 -2.415000e+001
      vertex  1.500000e+000 -1.520280e+000 -2.352028e+001
    endloop
  endfacet
  facet normal  1.000000e+000  0.000000e+000  0.000000e+000
    outer loop
      vertex  1.500000e+000 -7.500000e+000 -4.500000e+001
      vertex  1.500000e+000 -1.520280e+000 -2.352028e+001
      vertex  1.500000e+000 -2.150000e+000 -2.200000e+001
    endloop
  endfacet
  facet normal  1.000000e+000  0.000000e+000  0.000000e+000
    outer loop
      vertex  1.500000e+000 -7.500000e+000 -1.606858e+001
      vertex  1.500000e+000 -7.500000e+000 -4.500000e+001
      vertex  1.500000e+000 -2.150000e+000 -2.200000e+001
    endloop
  endfacet
  facet normal  1.000000e+000  0.000000e+000  -0.000000e+000
    outer loop
      vertex  1.500000e+000 -7.500000e+000 -1.606858e+001
      vertex  1.500000e+000 -2.150000e+000 -2.200000e+001
      vertex  1.500000e+000 -1.520280e+000 -2.047972e+001
    endloop
  endfacet
  facet normal  1.000000e+000  0.000000e+000  -0.000000e+000
    outer loop
      vertex  1.500000e+000 -7.500000e+000 -1.606858e+001
      vertex  1.500000e+000 -1.520280e+000 -2.047972e+001
      vertex  1.500000e+000  3.536898e-016 -1.985000e+001
    endloop
  endfacet
  facet normal  1.000000e+000  0.000000e+000  0.000000e+000
    outer loop
      vertex  1.500000e+000 -7.500000e+000 -1.606858e+001
      vertex  1.500000e+000  3.536898e-016 -1.985000e+001
      vertex  1.500000e+000 -8.198541e+000 -1.414419e+001
    endloop
  endfacet
  facet normal  9.999999e-001  0.000000e+000  0.000000e+000
    outer loop
      vertex  1.500000e+000  8.776855e+000 -3.635493e+000
      vertex  1.500000e+000  6.717515e+000 -6.717515e+000
      vertex  1.500000e+000  1.681954e+001 -6.340846e+000
    endloop
  endfacet
  facet normal  1.000000e+000  0.000000e+000  -0.000000e+000
    outer loop
      vertex  1.500000e+000  8.776855e+000 -3.635493e+000
      vertex  1.500000e+000  1.681954e+001 -6.340846e+000
      vertex  1.500000e+000  2.182406e+001 -3.555923e+000
    endloop
  endfacet
  facet normal  1.000000e+000  0.000000e+000  -0.000000e+000
    outer loop
      vertex  1.500000e+000  8.776855e+000 -3.635493e+000
      vertex  1.500000e+000  2.182406e+001 -3.555923e+000
      vertex  1.500000e+000  2.773575e+001 -1.436103e+000
    endloop
  endfacet
  facet normal  1.000000e+000  0.000000e+000  -0.000000e+000
    outer loop
      vertex  1.500000e+000  8.776855e+000 -3.635493e+000
      vertex  1.500000e+000  2.773575e+001 -1.436103e+000
      vertex  1.500000e+000  2.938871e+001 -2.996456e-001
    endloop
  endfacet
  facet normal  1.000000e+000  0.000000e+000  0.000000e+000
    outer loop
      vertex  1.500000e+000  8.776855e+000 -3.635493e+000
      vertex  1.500000e+000  2.938871e+001 -2.996456e-001
      vertex  1.500000e+000  9.500000e+000  5.382224e-015
    endloop
  endfacet
  facet normal  1.000000e+000  0.000000e+000  -0.000000e+000
    outer loop
      vertex  1.500000e+000  3.536898e-016 -1.985000e+001
      vertex  1.500000e+000  7.500000e+000 -1.606858e+001
      vertex  1.500000e+000  8.198541e+000 -1.414419e+001
    endloop
  endfacet
  facet normal  1.000000e+000  0.000000e+000  -0.000000e+000
    outer loop
      vertex  1.500000e+000  3.536898e-016 -1.985000e+001
      vertex  1.500000e+000  8.198541e+000 -1.414419e+001
      vertex  1.500000e+000  1.226738e+001 -9.893106e+000
    endloop
  endfacet
  facet normal  9.999999e-001  0.000000e+000  0.000000e+000
    outer loop
      vertex  1.500000e+000  3.536898e-016 -1.985000e+001
      vertex  1.500000e+000  1.226738e+001 -9.893106e+000
      vertex  1.500000e+000  6.692631e-015 -9.500000e+000
    endloop
  endfacet
  facet normal  1.000000e+000  0.000000e+000  0.000000e+000
    outer loop
      vertex  1.500000e+000  7.500000e+000 -4.500000e+001
      vertex  1.500000e+000  2.150000e+000 -2.200000e+001
      vertex  1.500000e+000  1.520280e+000 -2.352028e+001
    endloop
  endfacet
  facet normal  1.000000e+000  0.000000e+000  0.000000e+000
    outer loop
      vertex  1.500000e+000  7.500000e+000 -4.500000e+001
      vertex  1.500000e+000  1.520280e+000 -2.352028e+001
      vertex  1.500000e+000  4.915366e-017 -2.415000e+001
    endloop
  endfacet
  facet normal  1.000000e+000  0.000000e+000  0.000000e+000
    outer loop
      vertex  1.500000e+000  7.500000e+000 -4.500000e+001
      vertex  1.500000e+000  4.915366e-017 -2.415000e+001
      vertex  1.500000e+000  1.520280e+000 -3.847972e+001
    endloop
  endfacet
  facet normal  1.000000e+000  0.000000e+000  0.000000e+000
    outer loop
      vertex  1.500000e+000  7.500000e+000 -4.500000e+001
      vertex  1.500000e+000  1.520280e+000 -3.847972e+001
      vertex  1.500000e+000  2.150000e+000 -4.000000e+001
    endloop
  endfacet
  facet normal  1.000000e+000  0.000000e+000  0.000000e+000
    outer loop
      vertex  1.500000e+000  7.500000e+000 -4.500000e+001
      vertex  1.500000e+000  2.150000e+000 -4.000000e+001
      vertex  1.500000e+000  1.520280e+000 -4.152028e+001
    endloop
  endfacet
  facet normal  1.000000e+000  0.000000e+000  0.000000e+000
    outer loop
      vertex  1.500000e+000  7.500000e+000 -4.500000e+001
      vertex  1.500000e+000  1.520280e+000 -4.152028e+001
      vertex  1.500000e+000  4.915366e-017 -4.215000e+001
    endloop
  endfacet
  facet normal  1.000000e+000  0.000000e+000  0.000000e+000
    outer loop
      vertex  1.500000e+000  4.500000e+000 -4.800000e+001
      vertex  1.500000e+000  4.915366e-017 -4.215000e+001
      vertex  1.500000e+000 -4.500000e+000 -4.800000e+001
    endloop
  endfacet
  facet normal  1.000000e+000  0.000000e+000  -0.000000e+000
    outer loop
      vertex  1.500000e+000 -4.500000e+000 -4.800000e+001
      vertex  1.500000e+000  4.915366e-017 -4.215000e+001
      vertex  1.500000e+000 -7.500000e+000 -4.500000e+001
    endloop
  endfacet
  facet normal  1.000000e+000  0.000000e+000  0.000000e+000
    outer loop
      vertex  1.500000e+000 -4.500000e+000 -4.800000e+001
      vertex  1.500000e+000 -7.500000e+000 -4.500000e+001
      vertex  1.500000e+000 -6.000000e+000 -4.759808e+001
    endloop
  endfacet
  facet normal  1.000000e+000  0.000000e+000  0.000000e+000
    outer loop
      vertex  1.500000e+000 -6.000000e+000 -4.759808e+001
      vertex  1.500000e+000 -7.500000e+000 -4.500000e+001
      vertex  1.500000e+000 -7.098076e+000 -4.650000e+001
    endloop
  endfacet
  facet normal  1.000000e+000  0.000000e+000  0.000000e+000
    outer loop
      vertex  1.500000e+000  1.259661e+001  2.722729e+001
      vertex  1.500000e+000  6.449080e+000  2.929862e+001
      vertex  1.500000e+000 -9.039942e-017  2.515000e+001
    endloop
  endfacet
  facet normal  9.999999e-001  0.000000e+000  0.000000e+000
    outer loop
      vertex  1.500000e+000 -9.039942e-017  2.515000e+001
      vertex  1.500000e+000  6.449080e+000  2.929862e+001
      vertex  1.500000e+000  8.498248e-015  3.000000e+001
    endloop
  endfacet
  facet normal  1.000000e+000  0.000000e+000  0.000000e+000
    outer loop
      vertex  1.500000e+000 -9.039942e-017  2.515000e+001
      vertex  1.500000e+000  8.498248e-015  3.000000e+001
      vertex  1.500000e+000 -1.259661e+001  2.722729e+001
    endloop
  endfacet
  facet normal  1.000000e+000  0.000000e+000  0.000000e+000
    outer loop
      vertex  1.500000e+000 -1.259661e+001  2.722729e+001
      vertex  1.500000e+000  8.498248e-015  3.000000e+001
      vertex  1.500000e+000 -6.449080e+000  2.929862e+001
    endloop
  endfacet
  facet normal  1.000000e+000  0.000000e+000  0.000000e+000
    outer loop
      vertex  1.500000e+000 -9.039942e-017  2.515000e+001
      vertex  1.500000e+000 -1.259661e+001  2.722729e+001
      vertex  1.500000e+000 -1.520280e+000  2.452028e+001
    endloop
  endfacet
  facet normal  9.999999e-001  0.000000e+000  0.000000e+000
    outer loop
      vertex  1.500000e+000 -1.520280e+000  2.452028e+001
      vertex  1.500000e+000 -1.259661e+001  2.722729e+001
      vertex  1.500000e+000 -1.815514e+001  2.388285e+001
    endloop
  endfacet
  facet normal  9.999999e-001  -0.000000e+000  0.000000e+000
    outer loop
      vertex  1.500000e+000 -1.520280e+000  2.452028e+001
      vertex  1.500000e+000 -1.815514e+001  2.388285e+001
      vertex  1.500000e+000 -2.150000e+000  2.300000e+001
    endloop
  endfacet
  facet normal  1.000000e+000  0.000000e+000  0.000000e+000
    outer loop
      vertex  1.500000e+000 -2.150000e+000  2.300000e+001
      vertex  1.500000e+000 -1.815514e+001  2.388285e+001
      vertex  1.500000e+000 -2.286477e+001  1.942169e+001
    endloop
  endfacet
  facet normal  1.000000e+000  0.000000e+000  0.000000e+000
    outer loop
      vertex  1.500000e+000 -2.150000e+000  2.300000e+001
      vertex  1.500000e+000 -2.286477e+001  1.942169e+001
      vertex  1.500000e+000 -1.520280e+000  2.147972e+001
    endloop
  endfacet
  facet normal  1.000000e+000  0.000000e+000  0.000000e+000
    outer loop
      vertex  1.500000e+000  2.650528e+001  1.405241e+001
      vertex  1.500000e+000  2.286477e+001  1.942169e+001
      vertex  1.500000e+000  2.439048e-016  9.500000e+000
    endloop
  endfacet
  facet normal  1.000000e+000  0.000000e+000  -0.000000e+000
    outer loop
      vertex  1.500000e+000  2.439048e-016  9.500000e+000
      vertex  1.500000e+000  2.286477e+001  1.942169e+001
      vertex  1.500000e+000 -8.390248e-016  2.085000e+001
    endloop
  endfacet
  facet normal  1.000000e+000  0.000000e+000  0.000000e+000
    outer loop
      vertex  1.500000e+000  2.439048e-016  9.500000e+000
      vertex  1.500000e+000 -8.390248e-016  2.085000e+001
      vertex  1.500000e+000 -2.650528e+001  1.405241e+001
    endloop
  endfacet
  facet normal  1.000000e+000  0.000000e+000  0.000000e+000
    outer loop
      vertex  1.500000e+000 -2.650528e+001  1.405241e+001
      vertex  1.500000e+000 -8.390248e-016  2.085000e+001
      vertex  1.500000e+000 -2.286477e+001  1.942169e+001
    endloop
  endfacet
  facet normal  1.000000e+000  0.000000e+000  0.000000e+000
    outer loop
      vertex  1.500000e+000  2.439048e-016  9.500000e+000
      vertex  1.500000e+000 -2.650528e+001  1.405241e+001
      vertex  1.500000e+000 -3.635493e+000  8.776855e+000
    endloop
  endfacet
  facet normal  1.000000e+000  0.000000e+000  0.000000e+000
    outer loop
      vertex  1.500000e+000 -3.635493e+000  8.776855e+000
      vertex  1.500000e+000 -2.650528e+001  1.405241e+001
      vertex  1.500000e+000 -2.890644e+001  8.026051e+000
    endloop
  endfacet
  facet normal  1.000000e+000  -0.000000e+000  0.000000e+000
    outer loop
      vertex  1.500000e+000 -3.635493e+000  8.776855e+000
      vertex  1.500000e+000 -2.890644e+001  8.026051e+000
      vertex  1.500000e+000 -6.717515e+000  6.717515e+000
    endloop
  endfacet
  facet normal  9.999999e-001  0.000000e+000  0.000000e+000
    outer loop
      vertex  1.500000e+000 -6.717515e+000  6.717515e+000
      vertex  1.500000e+000 -2.890644e+001  8.026051e+000
      vertex  1.500000e+000 -2.995599e+001  1.624409e+000
    endloop
  endfacet
  facet normal  9.999999e-001  0.000000e+000  0.000000e+000
    outer loop
      vertex  1.500000e+000 -6.717515e+000  6.717515e+000
      vertex  1.500000e+000 -2.995599e+001  1.624409e+000
      vertex  1.500000e+000 -8.776855e+000  3.635493e+000
    endloop
  endfacet
  facet normal  1.000000e+000  -0.000000e+000  0.000000e+000
    outer loop
      vertex  1.500000e+000 -8.776855e+000  3.635493e+000
      vertex  1.500000e+000 -2.995599e+001  1.624409e+000
      vertex  1.500000e+000 -9.500000e+000  0.000000e+000
    endloop
  endfacet
  facet normal  1.000000e+000  0.000000e+000  0.000000e+000
    outer loop
      vertex  1.500000e+000 -9.500000e+000  0.000000e+000
      vertex  1.500000e+000 -2.995599e+001  1.624409e+000
      vertex  1.500000e+000 -2.938871e+001 -2.996456e-001
    endloop
  endfacet
  facet normal  1.000000e+000  -0.000000e+000  0.000000e+000
    outer loop
      vertex  1.500000e+000 -9.500000e+000  0.000000e+000
      vertex  1.500000e+000 -2.938871e+001 -2.996456e-001
      vertex  1.500000e+000 -8.776855e+000 -3.635493e+000
    endloop
  endfacet
  facet normal  1.000000e+000  0.000000e+000  0.000000e+000
    outer loop
      vertex  1.500000e+000 -8.776855e+000 -3.635493e+000
      vertex  1.500000e+000 -2.938871e+001 -2.996456e-001
      vertex  1.500000e+000 -2.773575e+001 -1.436103e+000
    endloop
  endfacet
  facet normal  1.000000e+000  0.000000e+000  0.000000e+000
    outer loop
      vertex  1.500000e+000 -8.776855e+000 -3.635493e+000
      vertex  1.500000e+000 -2.773575e+001 -1.436103e+000
      vertex  1.500000e+000 -2.182406e+001 -3.555923e+000
    endloop
  endfacet
  facet normal  1.000000e+000  0.000000e+000  0.000000e+000
    outer loop
      vertex  1.500000e+000 -1.681954e+001 -6.340846e+000
      vertex  1.500000e+000 -6.717515e+000 -6.717515e+000
      vertex  1.500000e+000 -2.182406e+001 -3.555923e+000
    endloop
  endfacet
  facet normal  1.000000e+000  0.000000e+000  0.000000e+000
    outer loop
      vertex  1.500000e+000 -2.182406e+001 -3.555923e+000
      vertex  1.500000e+000 -6.717515e+000 -6.717515e+000
      vertex  1.500000e+000 -8.776855e+000 -3.635493e+000
    endloop
  endfacet
  facet normal  9.999999e-001  -0.000000e+000  0.000000e+000
    outer loop
      vertex  1.500000e+000  1.259661e+001  2.722729e+001
      vertex  1.500000e+000 -9.039942e-017  2.515000e+001
      vertex  1.500000e+000  1.815514e+001  2.388285e+001
    endloop
  endfacet
  facet normal  1.000000e+000  0.000000e+000  0.000000e+000
    outer loop
      vertex  1.500000e+000  1.815514e+001  2.388285e+001
      vertex  1.500000e+000 -9.039942e-017  2.515000e+001
      vertex  1.500000e+000  1.520280e+000  2.452028e+001
    endloop
  endfacet
  facet normal  1.000000e+000  0.000000e+000  0.000000e+000
    outer loop
      vertex  1.500000e+000  1.815514e+001  2.388285e+001
      vertex  1.500000e+000  1.520280e+000  2.452028e+001
      vertex  1.500000e+000  2.286477e+001  1.942169e+001
    endloop
  endfacet
  facet normal  1.000000e+000  0.000000e+000  0.000000e+000
    outer loop
      vertex  1.500000e+000  2.286477e+001  1.942169e+001
      vertex  1.500000e+000  1.520280e+000  2.452028e+001
      vertex  1.500000e+000  2.150000e+000  2.300000e+001
    endloop
  endfacet
  facet normal  1.000000e+000  0.000000e+000  0.000000e+000
    outer loop
      vertex  1.500000e+000  2.286477e+001  1.942169e+001
      vertex  1.500000e+000  2.150000e+000  2.300000e+001
      vertex  1.500000e+000  1.520280e+000  2.147972e+001
    endloop
  endfacet
  facet normal  1.000000e+000  -0.000000e+000  0.000000e+000
    outer loop
      vertex  1.500000e+000  2.650528e+001  1.405241e+001
      vertex  1.500000e+000  2.439048e-016  9.500000e+000
      vertex  1.500000e+000  2.890644e+001  8.026051e+000
    endloop
  endfacet
  facet normal  1.000000e+000  0.000000e+000  0.000000e+000
    outer loop
      vertex  1.500000e+000  2.890644e+001  8.026051e+000
      vertex  1.500000e+000  2.439048e-016  9.500000e+000
      vertex  1.500000e+000  3.635493e+000  8.776855e+000
    endloop
  endfacet
  facet normal  1.000000e+000  0.000000e+000  0.000000e+000
    outer loop
      vertex  1.500000e+000  2.890644e+001  8.026051e+000
      vertex  1.500000e+000  3.635493e+000  8.776855e+000
      vertex  1.500000e+000  2.995599e+001  1.624409e+000
    endloop
  endfacet
  facet normal  1.000000e+000  0.000000e+000  0.000000e+000
    outer loop
      vertex  1.500000e+000  2.995599e+001  1.624409e+000
      vertex  1.500000e+000  3.635493e+000  8.776855e+000
      vertex  1.500000e+000  6.717515e+000  6.717515e+000
    endloop
  endfacet
  facet normal  1.000000e+000  0.000000e+000  0.000000e+000
    outer loop
      vertex  1.500000e+000  2.995599e+001  1.624409e+000
      vertex  1.500000e+000  6.717515e+000  6.717515e+000
      vertex  1.500000e+000  8.776855e+000  3.635493e+000
    endloop
  endfacet
  facet normal  9.999999e-001  0.000000e+000  0.000000e+000
    outer loop
      vertex  1.500000e+000  9.500000e+000  5.382224e-015
      vertex  1.500000e+000  2.938871e+001 -2.996456e-001
      vertex  1.500000e+000  8.776855e+000  3.635493e+000
    endloop
  endfacet
  facet normal  1.000000e+000  0.000000e+000  0.000000e+000
    outer loop
      vertex  1.500000e+000  8.776855e+000  3.635493e+000
      vertex  1.500000e+000  2.938871e+001 -2.996456e-001
      vertex  1.500000e+000  2.995599e+001  1.624409e+000
    endloop
  endfacet
  facet normal  1.000000e+000  -0.000000e+000  0.000000e+000
    outer loop
      vertex  1.500000e+000  1.681954e+001 -6.340846e+000
      vertex  1.500000e+000  6.717515e+000 -6.717515e+000
      vertex  1.500000e+000  1.226738e+001 -9.893106e+000
    endloop
  endfacet
  facet normal  1.000000e+000  0.000000e+000  0.000000e+000
    outer loop
      vertex  1.500000e+000  1.226738e+001 -9.893106e+000
      vertex  1.500000e+000  6.717515e+000 -6.717515e+000
      vertex  1.500000e+000  3.635493e+000 -8.776855e+000
    endloop
  endfacet
  facet normal  1.000000e+000  0.000000e+000  0.000000e+000
    outer loop
      vertex  1.500000e+000  1.226738e+001 -9.893106e+000
      vertex  1.500000e+000  3.635493e+000 -8.776855e+000
      vertex  1.500000e+000  6.692631e-015 -9.500000e+000
    endloop
  endfacet
  facet normal  0.000000e+000  9.399875e-001 -3.412089e-001
    outer loop
      vertex  1.500000e+000  8.198541e+000 -1.414419e+001
      vertex  1.500000e+000  7.500000e+000 -1.606858e+001
      vertex -1.500000e+000  8.198541e+000 -1.414419e+001
    endloop
  endfacet
  facet normal  0.000000e+000  9.399875e-001 -3.412089e-001
    outer loop
      vertex -1.500000e+000  8.198541e+000 -1.414419e+001
      vertex  1.500000e+000  7.500000e+000 -1.606858e+001
      vertex -1.500000e+000  7.500000e+000 -1.606858e+001
    endloop
  endfacet
  facet normal  0.000000e+000 -1.000000e+000  -0.000000e+000
    outer loop
      vertex  1.500000e+000 -7.500000e+000 -4.500000e+001
      vertex  1.500000e+000 -7.500000e+000 -1.606858e+001
      vertex -1.500000e+000 -7.500000e+000 -4.500000e+001
    endloop
  endfacet
  facet normal  0.000000e+000 -1.000000e+000  0.000000e+000
    outer loop
      vertex -1.500000e+000 -7.500000e+000 -4.500000e+001
      vertex  1.500000e+000 -7.500000e+000 -1.606858e+001
      vertex -1.500000e+000 -7.500000e+000 -1.606858e+001
    endloop
  endfacet
  facet normal  -0.000000e+000 -7.109213e-001 -7.032716e-001
    outer loop
      vertex -1.500000e+000 -8.198541e+000 -1.414419e+001
      vertex  1.500000e+000 -8.198541e+000 -1.414419e+001
      vertex -1.500000e+000 -1.329641e+001 -8.990867e+000
    endloop
  endfacet
  facet normal  3.981356e-002 -7.218491e-001 -6.909044e-001
    outer loop
      vertex -1.500000e+000 -1.329641e+001 -8.990867e+000
      vertex  1.500000e+000 -8.198541e+000 -1.414419e+001
      vertex  1.500000e+000 -1.226738e+001 -9.893106e+000
    endloop
  endfacet
  facet normal -2.607080e-002 -6.149929e-001 -7.881016e-001
    outer loop
      vertex -1.500000e+000 -1.329641e+001 -8.990867e+000
      vertex  1.500000e+000 -1.226738e+001 -9.893106e+000
      vertex  1.500000e+000 -1.681954e+001 -6.340846e+000
    endloop
  endfacet
  facet normal -3.740440e-008 -3.375365e-001 -9.413125e-001
    outer loop
      vertex  1.500000e+000 -2.773575e+001 -1.436103e+000
      vertex -1.500000e+000 -2.773575e+001 -1.436103e+000
      vertex  1.500000e+000 -2.182406e+001 -3.555923e+000
    endloop
  endfacet
  facet normal -4.294703e-002 -3.178428e-001 -9.471703e-001
    outer loop
      vertex  1.500000e+000 -2.182406e+001 -3.555923e+000
      vertex -1.500000e+000 -2.773575e+001 -1.436103e+000
      vertex -1.500000e+000 -2.322763e+001 -2.948898e+000
    endloop
  endfacet
  facet normal  5.062678e-002 -4.856377e-001 -8.726929e-001
    outer loop
      vertex  1.500000e+000 -2.182406e+001 -3.555923e+000
      vertex -1.500000e+000 -2.322763e+001 -2.948898e+000
      vertex  1.500000e+000 -1.681954e+001 -6.340846e+000
    endloop
  endfacet
  facet normal -8.455568e-002 -4.349418e-001 -8.964797e-001
    outer loop
      vertex  1.500000e+000 -1.681954e+001 -6.340846e+000
      vertex -1.500000e+000 -2.322763e+001 -2.948898e+000
      vertex -1.500000e+000 -1.900000e+001 -5.000000e+000
    endloop
  endfacet
  facet normal  5.042056e-002 -5.725745e-001 -8.183008e-001
    outer loop
      vertex  1.500000e+000 -1.681954e+001 -6.340846e+000
      vertex -1.500000e+000 -1.900000e+001 -5.000000e+000
      vertex -1.500000e+000 -1.329641e+001 -8.990867e+000
    endloop
  endfacet
  facet normal  0.000000e+000 -9.399875e-001 -3.412089e-001
    outer loop
      vertex -1.500000e+000 -8.198541e+000 -1.414419e+001
      vertex -1.500000e+000 -7.500000e+000 -1.606858e+001
      vertex  1.500000e+000 -8.198541e+000 -1.414419e+001
    endloop
  endfacet
  facet normal  0.000000e+000 -9.399875e-001 -3.412089e-001
    outer loop
      vertex  1.500000e+000 -8.198541e+000 -1.414419e+001
      vertex -1.500000e+000 -7.500000e+000 -1.606858e+001
      vertex  1.500000e+000 -7.500000e+000 -1.606858e+001
    endloop
  endfacet
  facet normal  0.000000e+000  0.000000e+000 -1.000000e+000
    outer loop
      vertex  1.500000e+000 -4.500000e+000 -4.800000e+001
      vertex -1.500000e+000 -4.500000e+000 -4.800000e+001
      vertex  1.500000e+000  4.500000e+000 -4.800000e+001
    endloop
  endfacet
  facet normal  -0.000000e+000  0.000000e+000 -1.000000e+000
    outer loop
      vertex  1.500000e+000  4.500000e+000 -4.800000e+001
      vertex -1.500000e+000 -4.500000e+000 -4.800000e+001
      vertex -1.500000e+000  4.500000e+000 -4.800000e+001
    endloop
  endfacet
  facet normal  0.000000e+000  9.659258e-001 -2.588190e-001
    outer loop
      vertex -1.500000e+000  7.500000e+000 -4.500000e+001
      vertex  1.500000e+000  7.500000e+000 -4.500000e+001
      vertex -1.500000e+000  7.098076e+000 -4.650000e+001
    endloop
  endfacet
  facet normal  0.000000e+000  9.659258e-001 -2.588190e-001
    outer loop
      vertex -1.500000e+000  7.098076e+000 -4.650000e+001
      vertex  1.500000e+000  7.500000e+000 -4.500000e+001
      vertex  1.500000e+000  7.098076e+000 -4.650000e+001
    endloop
  endfacet
  facet normal  0.000000e+000  7.071066e-001 -7.071069e-001
    outer loop
      vertex -1.500000e+000  7.098076e+000 -4.650000e+001
      vertex  1.500000e+000  7.098076e+000 -4.650000e+001
      vertex -1.500000e+000  6.000000e+000 -4.759808e+001
    endloop
  endfacet
  facet normal  0.000000e+000  7.071066e-001 -7.071069e-001
    outer loop
      vertex -1.500000e+000  6.000000e+000 -4.759808e+001
      vertex  1.500000e+000  7.098076e+000 -4.650000e+001
      vertex  1.500000e+000  6.000000e+000 -4.759808e+001
    endloop
  endfacet
  facet normal  0.000000e+000  2.588192e-001 -9.659257e-001
    outer loop
      vertex -1.500000e+000  6.000000e+000 -4.759808e+001
      vertex  1.500000e+000  6.000000e+000 -4.759808e+001
      vertex -1.500000e+000  4.500000e+000 -4.800000e+001
    endloop
  endfacet
  facet normal  0.000000e+000  2.588192e-001 -9.659257e-001
    outer loop
      vertex -1.500000e+000  4.500000e+000 -4.800000e+001
      vertex  1.500000e+000  6.000000e+000 -4.759808e+001
      vertex  1.500000e+000  4.500000e+000 -4.800000e+001
    endloop
  endfacet
  facet normal  -0.000000e+000 -2.588192e-001 -9.659257e-001
    outer loop
      vertex -1.500000e+000 -4.500000e+000 -4.800000e+001
      vertex  1.500000e+000 -4.500000e+000 -4.800000e+001
      vertex -1.500000e+000 -6.000000e+000 -4.759808e+001
    endloop
  endfacet
  facet normal  0.000000e+000 -2.588192e-001 -9.659257e-001
    outer loop
      vertex -1.500000e+000 -6.000000e+000 -4.759808e+001
      vertex  1.500000e+000 -4.500000e+000 -4.800000e+001
      vertex  1.500000e+000 -6.000000e+000 -4.759808e+001
    endloop
  endfacet
  facet normal  -0.000000e+000 -7.071066e-001 -7.071069e-001
    outer loop
      vertex -1.500000e+000 -6.000000e+000 -4.759808e+001
      vertex  1.500000e+000 -6.000000e+000 -4.759808e+001
      vertex -1.500000e+000 -7.098076e+000 -4.650000e+001
    endloop
  endfacet
  facet normal  0.000000e+000 -7.071066e-001 -7.071069e-001
    outer loop
      vertex -1.500000e+000 -7.098076e+000 -4.650000e+001
      vertex  1.500000e+000 -6.000000e+000 -4.759808e+001
      vertex  1.500000e+000 -7.098076e+000 -4.650000e+001
    endloop
  endfacet
  facet normal  -0.000000e+000 -9.659258e-001 -2.588190e-001
    outer loop
      vertex -1.500000e+000 -7.098076e+000 -4.650000e+001
      vertex  1.500000e+000 -7.098076e+000 -4.650000e+001
      vertex -1.500000e+000 -7.500000e+000 -4.500000e+001
    endloop
  endfacet
  facet normal  0.000000e+000 -9.659258e-001 -2.588190e-001
    outer loop
      vertex -1.500000e+000 -7.500000e+000 -4.500000e+001
      vertex  1.500000e+000 -7.098076e+000 -4.650000e+001
      vertex  1.500000e+000 -7.500000e+000 -4.500000e+001
    endloop
  endfacet
  facet normal  0.000000e+000 -9.868253e-001  1.617894e-001
    outer loop
      vertex -1.500000e+000 -2.995599e+001  1.624409e+000
      vertex  1.500000e+000 -2.995599e+001  1.624409e+000
      vertex -1.500000e+000 -2.890644e+001  8.026051e+000
    endloop
  endfacet
  facet normal  0.000000e+000 -9.868253e-001  1.617894e-001
    outer loop
      vertex -1.500000e+000 -2.890644e+001  8.026051e+000
      vertex  1.500000e+000 -2.995599e+001  1.624409e+000
      vertex  1.500000e+000 -2.890644e+001  8.026051e+000
    endloop
  endfacet
  facet normal  0.000000e+000 -9.289743e-001  3.701442e-001
    outer loop
      vertex -1.500000e+000 -2.890644e+001  8.026051e+000
      vertex  1.500000e+000 -2.890644e+001  8.026051e+000
      vertex -1.500000e+000 -2.650528e+001  1.405241e+001
    endloop
  endfacet
  facet normal  0.000000e+000 -9.289743e-001  3.701442e-001
    outer loop
      vertex -1.500000e+000 -2.650528e+001  1.405241e+001
      vertex  1.500000e+000 -2.890644e+001  8.026051e+000
      vertex  1.500000e+000 -2.650528e+001  1.405241e+001
    endloop
  endfacet
  facet normal  0.000000e+000 -8.276861e-001  5.611912e-001
    outer loop
      vertex -1.500000e+000 -2.650528e+001  1.405241e+001
      vertex  1.500000e+000 -2.650528e+001  1.405241e+001
      vertex -1.500000e+000 -2.286477e+001  1.942169e+001
    endloop
  endfacet
  facet normal  0.000000e+000 -8.276861e-001  5.611912e-001
    outer loop
      vertex -1.500000e+000 -2.286477e+001  1.942169e+001
      vertex  1.500000e+000 -2.650528e+001  1.405241e+001
      vertex  1.500000e+000 -2.286477e+001  1.942169e+001
    endloop
  endfacet
  facet normal  0.000000e+000 -6.876965e-001  7.259983e-001
    outer loop
      vertex -1.500000e+000 -2.286477e+001  1.942169e+001
      vertex  1.500000e+000 -2.286477e+001  1.942169e+001
      vertex -1.500000e+000 -1.815514e+001  2.388285e+001
    endloop
  endfacet
  facet normal  0.000000e+000 -6.876965e-001  7.259983e-001
    outer loop
      vertex -1.500000e+000 -1.815514e+001  2.388285e+001
      vertex  1.500000e+000 -2.286477e+001  1.942169e+001
      vertex  1.500000e+000 -1.815514e+001  2.388285e+001
    endloop
  endfacet
  facet normal  0.000000e+000 -5.155513e-001  8.568587e-001
    outer loop
      vertex -1.500000e+000 -1.815514e+001  2.388285e+001
      vertex  1.500000e+000 -1.815514e+001  2.388285e+001
      vertex -1.500000e+000 -1.259661e+001  2.722729e+001
    endloop
  endfacet
  facet normal  0.000000e+000 -5.155513e-001  8.568587e-001
    outer loop
      vertex -1.500000e+000 -1.259661e+001  2.722729e+001
      vertex  1.500000e+000 -1.815514e+001  2.388285e+001
      vertex  1.500000e+000 -1.259661e+001  2.722729e+001
    endloop
  endfacet
  facet normal  0.000000e+000 -3.192999e-001  9.476537e-001
    outer loop
      vertex -1.500000e+000 -1.259661e+001  2.722729e+001
      vertex  1.500000e+000 -1.259661e+001  2.722729e+001
      vertex -1.500000e+000 -6.449080e+000  2.929862e+001
    endloop
  endfacet
  facet normal  0.000000e+000 -3.192999e-001  9.476537e-001
    outer loop
      vertex -1.500000e+000 -6.449080e+000  2.929862e+001
      vertex  1.500000e+000 -1.259661e+001  2.722729e+001
      vertex  1.500000e+000 -6.449080e+000  2.929862e+001
    endloop
  endfacet
  facet normal  0.000000e+000 -1.081185e-001  9.941379e-001
    outer loop
      vertex -1.500000e+000 -6.449080e+000  2.929862e+001
      vertex  1.500000e+000 -6.449080e+000  2.929862e+001
      vertex -1.500000e+000  8.498248e-015  3.000000e+001
    endloop
  endfacet
  facet normal  0.000000e+000 -1.081185e-001  9.941379e-001
    outer loop
      vertex -1.500000e+000  8.498248e-015  3.000000e+001
      vertex  1.500000e+000 -6.449080e+000  2.929862e+001
      vertex  1.500000e+000  8.498248e-015  3.000000e+001
    endloop
  endfacet
  facet normal  0.000000e+000  1.081185e-001  9.941379e-001
    outer loop
      vertex -1.500000e+000  8.498248e-015  3.000000e+001
      vertex  1.500000e+000  8.498248e-015  3.000000e+001
      vertex -1.500000e+000  6.449080e+000  2.929862e+001
    endloop
  endfacet
  facet normal  -0.000000e+000  1.081185e-001  9.941379e-001
    outer loop
      vertex -1.500000e+000  6.449080e+000  2.929862e+001
      vertex  1.500000e+000  8.498248e-015  3.000000e+001
      vertex  1.500000e+000  6.449080e+000  2.929862e+001
    endloop
  endfacet
  facet normal  0.000000e+000  3.192999e-001  9.476537e-001
    outer loop
      vertex -1.500000e+000  6.449080e+000  2.929862e+001
      vertex  1.500000e+000  6.449080e+000  2.929862e+001
      vertex -1.500000e+000  1.259661e+001  2.722729e+001
    endloop
  endfacet
  facet normal  -0.000000e+000  3.192999e-001  9.476537e-001
    outer loop
      vertex -1.500000e+000  1.259661e+001  2.722729e+001
      vertex  1.500000e+000  6.449080e+000  2.929862e+001
      vertex  1.500000e+000  1.259661e+001  2.722729e+001
    endloop
  endfacet
  facet normal  0.000000e+000  5.155513e-001  8.568587e-001
    outer loop
      vertex -1.500000e+000  1.259661e+001  2.722729e+001
      vertex  1.500000e+000  1.259661e+001  2.722729e+001
      vertex -1.500000e+000  1.815514e+001  2.388285e+001
    endloop
  endfacet
  facet normal  -0.000000e+000  5.155513e-001  8.568587e-001
    outer loop
      vertex -1.500000e+000  1.815514e+001  2.388285e+001
      vertex  1.500000e+000  1.259661e+001  2.722729e+001
      vertex  1.500000e+000  1.815514e+001  2.388285e+001
    endloop
  endfacet
  facet normal  0.000000e+000  6.876965e-001  7.259983e-001
    outer loop
      vertex -1.500000e+000  1.815514e+001  2.388285e+001
      vertex  1.500000e+000  1.815514e+001  2.388285e+001
      vertex -1.500000e+000  2.286477e+001  1.942169e+001
    endloop
  endfacet
  facet normal  -0.000000e+000  6.876965e-001  7.259983e-001
    outer loop
      vertex -1.500000e+000  2.286477e+001  1.942169e+001
      vertex  1.500000e+000  1.815514e+001  2.388285e+001
      vertex  1.500000e+000  2.286477e+001  1.942169e+001
    endloop
  endfacet
  facet normal  0.000000e+000  8.276861e-001  5.611912e-001
    outer loop
      vertex -1.500000e+000  2.286477e+001  1.942169e+001
      vertex  1.500000e+000  2.286477e+001  1.942169e+001
      vertex -1.500000e+000  2.650528e+001  1.405241e+001
    endloop
  endfacet
  facet normal  -0.000000e+000  8.276861e-001  5.611912e-001
    outer loop
      vertex -1.500000e+000  2.650528e+001  1.405241e+001
      vertex  1.500000e+000  2.286477e+001  1.942169e+001
      vertex  1.500000e+000  2.650528e+001  1.405241e+001
    endloop
  endfacet
  facet normal  0.000000e+000  9.289743e-001  3.701442e-001
    outer loop
      vertex -1.500000e+000  2.650528e+001  1.405241e+001
      vertex  1.500000e+000  2.650528e+001  1.405241e+001
      vertex -1.500000e+000  2.890644e+001  8.026051e+000
    endloop
  endfacet
  facet normal  -0.000000e+000  9.289743e-001  3.701442e-001
    outer loop
      vertex -1.500000e+000  2.890644e+001  8.026051e+000
      vertex  1.500000e+000  2.650528e+001  1.405241e+001
      vertex  1.500000e+000  2.890644e+001  8.026051e+000
    endloop
  endfacet
  facet normal  0.000000e+000  9.868253e-001  1.617894e-001
    outer loop
      vertex -1.500000e+000  2.890644e+001  8.026051e+000
      vertex  1.500000e+000  2.890644e+001  8.026051e+000
      vertex -1.500000e+000  2.995599e+001  1.624409e+000
    endloop
  endfacet
  facet normal  -0.000000e+000  9.868253e-001  1.617894e-001
    outer loop
      vertex -1.500000e+000  2.995599e+001  1.624409e+000
      vertex  1.500000e+000  2.890644e+001  8.026051e+000
      vertex  1.500000e+000  2.995599e+001  1.624409e+000
    endloop
  endfacet
  facet normal  0.000000e+000 -9.591784e-001 -2.828018e-001
    outer loop
      vertex  1.500000e+000 -2.995599e+001  1.624409e+000
      vertex -1.500000e+000 -2.995599e+001  1.624409e+000
      vertex  1.500000e+000 -2.938871e+001 -2.996456e-001
    endloop
  endfacet
  facet normal  -0.000000e+000 -9.591784e-001 -2.828018e-001
    outer loop
      vertex  1.500000e+000 -2.938871e+001 -2.996456e-001
      vertex -1.500000e+000 -2.995599e+001  1.624409e+000
      vertex -1.500000e+000 -2.938871e+001 -2.996456e-001
    endloop
  endfacet
  facet normal  0.000000e+000 -5.665458e-001 -8.240303e-001
    outer loop
      vertex  1.500000e+000 -2.938871e+001 -2.996456e-001
      vertex -1.500000e+000 -2.938871e+001 -2.996456e-001
      vertex  1.500000e+000 -2.773575e+001 -1.436103e+000
    endloop
  endfacet
  facet normal -3.274402e-008 -5.665458e-001 -8.240303e-001
    outer loop
      vertex  1.500000e+000 -2.773575e+001 -1.436103e+000
      vertex -1.500000e+000 -2.938871e+001 -2.996456e-001
      vertex -1.500000e+000 -2.773575e+001 -1.436103e+000
    endloop
  endfacet
  facet normal  0.000000e+000  9.591784e-001 -2.828018e-001
    outer loop
      vertex -1.500000e+000  2.995599e+001  1.624409e+000
      vertex  1.500000e+000  2.995599e+001  1.624409e+000
      vertex -1.500000e+000  2.938871e+001 -2.996456e-001
    endloop
  endfacet
  facet normal  0.000000e+000  9.591784e-001 -2.828018e-001
    outer loop
      vertex -1.500000e+000  2.938871e+001 -2.996456e-001
      vertex  1.500000e+000  2.995599e+001  1.624409e+000
      vertex  1.500000e+000  2.938871e+001 -2.996456e-001
    endloop
  endfacet
  facet normal  0.000000e+000  5.665458e-001 -8.240303e-001
    outer loop
      vertex -1.500000e+000  2.938871e+001 -2.996456e-001
      vertex  1.500000e+000  2.938871e+001 -2.996456e-001
      vertex -1.500000e+000  2.773575e+001 -1.436103e+000
    endloop
  endfacet
  facet normal -3.274402e-008  5.665458e-001 -8.240302e-001
    outer loop
      vertex -1.500000e+000  2.773575e+001 -1.436103e+000
      vertex  1.500000e+000  2.938871e+001 -2.996456e-001
      vertex  1.500000e+000  2.773575e+001 -1.436103e+000
    endloop
  endfacet
  facet normal  0.000000e+000 -3.826846e-001 -9.238791e-001
    outer loop
      vertex  1.500000e+000  3.536898e-016 -3.785000e+001
      vertex -1.500000e+000  1.520280e+000 -3.847972e+001
      vertex  1.500000e+000  1.520280e+000 -3.847972e+001
    endloop
  endfacet
  facet normal  -0.000000e+000 -9.238795e-001 -3.826837e-001
    outer loop
      vertex  1.500000e+000  1.520280e+000 -3.847972e+001
      vertex -1.500000e+000  1.520280e+000 -3.847972e+001
      vertex -1.500000e+000  2.150000e+000 -4.000000e+001
    endloop
  endfacet
  facet normal  0.000000e+000 -9.238795e-001 -3.826837e-001
    outer loop
      vertex  1.500000e+000  1.520280e+000 -3.847972e+001
      vertex -1.500000e+000  2.150000e+000 -4.000000e+001
      vertex  1.500000e+000  2.150000e+000 -4.000000e+001
    endloop
  endfacet
  facet normal  1.228074e-016 -3.826846e-001 -9.238791e-001
    outer loop
      vertex -1.500000e+000  1.520280e+000 -3.847972e+001
      vertex  1.500000e+000  3.536898e-016 -3.785000e+001
      vertex -1.500000e+000 -6.090411e-016 -3.785000e+001
    endloop
  endfacet
  facet normal -1.228074e-016  3.826846e-001 -9.238791e-001
    outer loop
      vertex -1.500000e+000 -6.090411e-016 -3.785000e+001
      vertex  1.500000e+000  3.536898e-016 -3.785000e+001
      vertex  1.500000e+000 -1.520280e+000 -3.847972e+001
    endloop
  endfacet
  facet normal  0.000000e+000  3.826846e-001 -9.238791e-001
    outer loop
      vertex -1.500000e+000 -6.090411e-016 -3.785000e+001
      vertex  1.500000e+000 -1.520280e+000 -3.847972e+001
      vertex -1.500000e+000 -1.520280e+000 -3.847972e+001
    endloop
  endfacet
  facet normal  0.000000e+000  9.238795e-001 -3.826837e-001
    outer loop
      vertex -1.500000e+000 -1.520280e+000 -3.847972e+001
      vertex  1.500000e+000 -1.520280e+000 -3.847972e+001
      vertex  1.500000e+000 -2.150000e+000 -4.000000e+001
    endloop
  endfacet
  facet normal  0.000000e+000  9.238795e-001 -3.826837e-001
    outer loop
      vertex -1.500000e+000 -1.520280e+000 -3.847972e+001
      vertex  1.500000e+000 -2.150000e+000 -4.000000e+001
      vertex -1.500000e+000 -2.150000e+000 -4.000000e+001
    endloop
  endfacet
  facet normal  -0.000000e+000  3.826846e-001  9.238791e-001
    outer loop
      vertex  1.500000e+000  4.915366e-017 -4.215000e+001
      vertex -1.500000e+000 -1.520280e+000 -4.152028e+001
      vertex  1.500000e+000 -1.520280e+000 -4.152028e+001
    endloop
  endfacet
  facet normal  0.000000e+000  9.238795e-001  3.826837e-001
    outer loop
      vertex  1.500000e+000 -1.520280e+000 -4.152028e+001
      vertex -1.500000e+000 -1.520280e+000 -4.152028e+001
      vertex -1.500000e+000 -2.150000e+000 -4.000000e+001
    endloop
  endfacet
  facet normal  -0.000000e+000  9.238795e-001  3.826837e-001
    outer loop
      vertex  1.500000e+000 -1.520280e+000 -4.152028e+001
      vertex -1.500000e+000 -2.150000e+000 -4.000000e+001
      vertex  1.500000e+000 -2.150000e+000 -4.000000e+001
    endloop
  endfacet
  facet normal  4.410846e-017  3.826846e-001  9.238791e-001
    outer loop
      vertex -1.500000e+000 -1.520280e+000 -4.152028e+001
      vertex  1.500000e+000  4.915366e-017 -4.215000e+001
      vertex -1.500000e+000  3.949355e-016 -4.215000e+001
    endloop
  endfacet
  facet normal -4.410846e-017 -3.826846e-001  9.238791e-001
    outer loop
      vertex -1.500000e+000  3.949355e-016 -4.215000e+001
      vertex  1.500000e+000  4.915366e-017 -4.215000e+001
      vertex  1.500000e+000  1.520280e+000 -4.152028e+001
    endloop
  endfacet
  facet normal  0.000000e+000 -3.826846e-001  9.238791e-001
    outer loop
      vertex -1.500000e+000  3.949355e-016 -4.215000e+001
      vertex  1.500000e+000  1.520280e+000 -4.152028e+001
      vertex -1.500000e+000  1.520280e+000 -4.152028e+001
    endloop
  endfacet
  facet normal  0.000000e+000 -9.238795e-001  3.826837e-001
    outer loop
      vertex -1.500000e+000  1.520280e+000 -4.152028e+001
      vertex  1.500000e+000  1.520280e+000 -4.152028e+001
      vertex  1.500000e+000  2.150000e+000 -4.000000e+001
    endloop
  endfacet
  facet normal  0.000000e+000 -9.238795e-001  3.826837e-001
    outer loop
      vertex -1.500000e+000  1.520280e+000 -4.152028e+001
      vertex  1.500000e+000  2.150000e+000 -4.000000e+001
      vertex -1.500000e+000  2.150000e+000 -4.000000e+001
    endloop
  endfacet
  facet normal  0.000000e+000 -3.826836e-001 -9.238794e-001
    outer loop
      vertex  1.500000e+000  3.536898e-016 -1.985000e+001
      vertex -1.500000e+000  1.520280e+000 -2.047972e+001
      vertex  1.500000e+000  1.520280e+000 -2.047972e+001
    endloop
  endfacet
  facet normal  -0.000000e+000 -9.238795e-001 -3.826837e-001
    outer loop
      vertex  1.500000e+000  1.520280e+000 -2.047972e+001
      vertex -1.500000e+000  1.520280e+000 -2.047972e+001
      vertex -1.500000e+000  2.150000e+000 -2.200000e+001
    endloop
  endfacet
  facet normal  0.000000e+000 -9.238795e-001 -3.826837e-001
    outer loop
      vertex  1.500000e+000  1.520280e+000 -2.047972e+001
      vertex -1.500000e+000  2.150000e+000 -2.200000e+001
      vertex  1.500000e+000  2.150000e+000 -2.200000e+001
    endloop
  endfacet
  facet normal  1.228071e-016 -3.826836e-001 -9.238794e-001
    outer loop
      vertex -1.500000e+000  1.520280e+000 -2.047972e+001
      vertex  1.500000e+000  3.536898e-016 -1.985000e+001
      vertex -1.500000e+000 -6.090411e-016 -1.985000e+001
    endloop
  endfacet
  facet normal -1.228071e-016  3.826836e-001 -9.238794e-001
    outer loop
      vertex -1.500000e+000 -6.090411e-016 -1.985000e+001
      vertex  1.500000e+000  3.536898e-016 -1.985000e+001
      vertex  1.500000e+000 -1.520280e+000 -2.047972e+001
    endloop
  endfacet
  facet normal  0.000000e+000  3.826836e-001 -9.238794e-001
    outer loop
      vertex -1.500000e+000 -6.090411e-016 -1.985000e+001
      vertex  1.500000e+000 -1.520280e+000 -2.047972e+001
      vertex -1.500000e+000 -1.520280e+000 -2.047972e+001
    endloop
  endfacet
  facet normal  0.000000e+000  9.238795e-001 -3.826837e-001
    outer loop
      vertex -1.500000e+000 -1.520280e+000 -2.047972e+001
      vertex  1.500000e+000 -1.520280e+000 -2.047972e+001
      vertex  1.500000e+000 -2.150000e+000 -2.200000e+001
    endloop
  endfacet
  facet normal  0.000000e+000  9.238795e-001 -3.826837e-001
    outer loop
      vertex -1.500000e+000 -1.520280e+000 -2.047972e+001
      vertex  1.500000e+000 -2.150000e+000 -2.200000e+001
      vertex -1.500000e+000 -2.150000e+000 -2.200000e+001
    endloop
  endfacet
  facet normal  -0.000000e+000  3.826836e-001  9.238794e-001
    outer loop
      vertex  1.500000e+000  4.915366e-017 -2.415000e+001
      vertex -1.500000e+000 -1.520280e+000 -2.352028e+001
      vertex  1.500000e+000 -1.520280e+000 -2.352028e+001
    endloop
  endfacet
  facet normal  0.000000e+000  9.238795e-001  3.826837e-001
    outer loop
      vertex  1.500000e+000 -1.520280e+000 -2.352028e+001
      vertex -1.500000e+000 -1.520280e+000 -2.352028e+001
      vertex -1.500000e+000 -2.150000e+000 -2.200000e+001
    endloop
  endfacet
  facet normal  -0.000000e+000  9.238795e-001  3.826837e-001
    outer loop
      vertex  1.500000e+000 -1.520280e+000 -2.352028e+001
      vertex -1.500000e+000 -2.150000e+000 -2.200000e+001
      vertex  1.500000e+000 -2.150000e+000 -2.200000e+001
    endloop
  endfacet
  facet normal  4.410835e-017  3.826836e-001  9.238794e-001
    outer loop
      vertex -1.500000e+000 -1.520280e+000 -2.352028e+001
      vertex  1.500000e+000  4.915366e-017 -2.415000e+001
      vertex -1.500000e+000  3.949355e-016 -2.415000e+001
    endloop
  endfacet
  facet normal -4.410835e-017 -3.826836e-001  9.238794e-001
    outer loop
      vertex -1.500000e+000  3.949355e-016 -2.415000e+001
      vertex  1.500000e+000  4.915366e-017 -2.415000e+001
      vertex  1.500000e+000  1.520280e+000 -2.352028e+001
    endloop
  endfacet
  facet normal  0.000000e+000 -3.826836e-001  9.238794e-001
    outer loop
      vertex -1.500000e+000  3.949355e-016 -2.415000e+001
      vertex  1.500000e+000  1.520280e+000 -2.352028e+001
      vertex -1.500000e+000  1.520280e+000 -2.352028e+001
    endloop
  endfacet
  facet normal  0.000000e+000 -9.238795e-001  3.826837e-001
    outer loop
      vertex -1.500000e+000  1.520280e+000 -2.352028e+001
      vertex  1.500000e+000  1.520280e+000 -2.352028e+001
      vertex  1.500000e+000  2.150000e+000 -2.200000e+001
    endloop
  endfacet
  facet normal  0.000000e+000 -9.238795e-001  3.826837e-001
    outer loop
      vertex -1.500000e+000  1.520280e+000 -2.352028e+001
      vertex  1.500000e+000  2.150000e+000 -2.200000e+001
      vertex -1.500000e+000  2.150000e+000 -2.200000e+001
    endloop
  endfacet
  facet normal  0.000000e+000  3.826836e-001 -9.238794e-001
    outer loop
      vertex -1.500000e+000 -9.039942e-017  2.515000e+001
      vertex  1.500000e+000 -1.520280e+000  2.452028e+001
      vertex -1.500000e+000 -1.520280e+000  2.452028e+001
    endloop
  endfacet
  facet normal  0.000000e+000  9.238795e-001 -3.826837e-001
    outer loop
      vertex -1.500000e+000 -1.520280e+000  2.452028e+001
      vertex  1.500000e+000 -1.520280e+000  2.452028e+001
      vertex  1.500000e+000 -2.150000e+000  2.300000e+001
    endloop
  endfacet
  facet normal  0.000000e+000  9.238795e-001 -3.826837e-001
    outer loop
      vertex -1.500000e+000 -1.520280e+000  2.452028e+001
      vertex  1.500000e+000 -2.150000e+000  2.300000e+001
      vertex -1.500000e+000 -2.150000e+000  2.300000e+001
    endloop
  endfacet
  facet normal  0.000000e+000  3.826836e-001 -9.238794e-001
    outer loop
      vertex  1.500000e+000 -1.520280e+000  2.452028e+001
      vertex -1.500000e+000 -9.039942e-017  2.515000e+001
      vertex  1.500000e+000 -9.039942e-017  2.515000e+001
    endloop
  endfacet
  facet normal  -0.000000e+000 -3.826836e-001 -9.238794e-001
    outer loop
      vertex  1.500000e+000 -9.039942e-017  2.515000e+001
      vertex -1.500000e+000 -9.039942e-017  2.515000e+001
      vertex -1.500000e+000  1.520280e+000  2.452028e+001
    endloop
  endfacet
  facet normal  0.000000e+000 -3.826836e-001 -9.238794e-001
    outer loop
      vertex  1.500000e+000 -9.039942e-017  2.515000e+001
      vertex -1.500000e+000  1.520280e+000  2.452028e+001
      vertex  1.500000e+000  1.520280e+000  2.452028e+001
    endloop
  endfacet
  facet normal  -0.000000e+000 -9.238795e-001 -3.826837e-001
    outer loop
      vertex  1.500000e+000  1.520280e+000  2.452028e+001
      vertex -1.500000e+000  1.520280e+000  2.452028e+001
      vertex -1.500000e+000  2.150000e+000  2.300000e+001
    endloop
  endfacet
  facet normal  0.000000e+000 -9.238795e-001 -3.826837e-001
    outer loop
      vertex  1.500000e+000  1.520280e+000  2.452028e+001
      vertex -1.500000e+000  2.150000e+000  2.300000e+001
      vertex  1.500000e+000  2.150000e+000  2.300000e+001
    endloop
  endfacet
  facet normal  0.000000e+000 -3.826836e-001  9.238794e-001
    outer loop
      vertex -1.500000e+000 -8.390248e-016  2.085000e+001
      vertex  1.500000e+000  1.520280e+000  2.147972e+001
      vertex -1.500000e+000  1.520280e+000  2.147972e+001
    endloop
  endfacet
  facet normal  0.000000e+000 -9.238795e-001  3.826837e-001
    outer loop
      vertex -1.500000e+000  1.520280e+000  2.147972e+001
      vertex  1.500000e+000  1.520280e+000  2.147972e+001
      vertex  1.500000e+000  2.150000e+000  2.300000e+001
    endloop
  endfacet
  facet normal  0.000000e+000 -9.238795e-001  3.826837e-001
    outer loop
      vertex -1.500000e+000  1.520280e+000  2.147972e+001
      vertex  1.500000e+000  2.150000e+000  2.300000e+001
      vertex -1.500000e+000  2.150000e+000  2.300000e+001
    endloop
  endfacet
  facet normal  0.000000e+000 -3.826836e-001  9.238794e-001
    outer loop
      vertex  1.500000e+000  1.520280e+000  2.147972e+001
      vertex -1.500000e+000 -8.390248e-016  2.085000e+001
      vertex  1.500000e+000 -8.390248e-016  2.085000e+001
    endloop
  endfacet
  facet normal  0.000000e+000  3.826836e-001  9.238794e-001
    outer loop
      vertex  1.500000e+000 -8.390248e-016  2.085000e+001
      vertex -1.500000e+000 -8.390248e-016  2.085000e+001
      vertex -1.500000e+000 -1.520280e+000  2.147972e+001
    endloop
  endfacet
  facet normal  -0.000000e+000  3.826836e-001  9.238794e-001
    outer loop
      vertex  1.500000e+000 -8.390248e-016  2.085000e+001
      vertex -1.500000e+000 -1.520280e+000  2.147972e+001
      vertex  1.500000e+000 -1.520280e+000  2.147972e+001
    endloop
  endfacet
  facet normal  0.000000e+000  9.238795e-001  3.826837e-001
    outer loop
      vertex  1.500000e+000 -1.520280e+000  2.147972e+001
      vertex -1.500000e+000 -1.520280e+000  2.147972e+001
      vertex -1.500000e+000 -2.150000e+000  2.300000e+001
    endloop
  endfacet
  facet normal  -0.000000e+000  9.238795e-001  3.826837e-001
    outer loop
      vertex  1.500000e+000 -1.520280e+000  2.147972e+001
      vertex -1.500000e+000 -2.150000e+000  2.300000e+001
      vertex  1.500000e+000 -2.150000e+000  2.300000e+001
    endloop
  endfacet
  facet normal  0.000000e+000 -1.950903e-001 -9.807853e-001
    outer loop
      vertex  1.500000e+000  2.439048e-016  9.500000e+000
      vertex -1.500000e+000  3.635493e+000  8.776855e+000
      vertex  1.500000e+000  3.635493e+000  8.776855e+000
    endloop
  endfacet
  facet normal  -0.000000e+000 -5.555702e-001 -8.314697e-001
    outer loop
      vertex  1.500000e+000  3.635493e+000  8.776855e+000
      vertex -1.500000e+000  3.635493e+000  8.776855e+000
      vertex -1.500000e+000  6.717515e+000  6.717515e+000
    endloop
  endfacet
  facet normal  0.000000e+000 -5.555702e-001 -8.314697e-001
    outer loop
      vertex  1.500000e+000  3.635493e+000  8.776855e+000
      vertex -1.500000e+000  6.717515e+000  6.717515e+000
      vertex  1.500000e+000  6.717515e+000  6.717515e+000
    endloop
  endfacet
  facet normal  -0.000000e+000 -8.314697e-001 -5.555702e-001
    outer loop
      vertex  1.500000e+000  6.717515e+000  6.717515e+000
      vertex -1.500000e+000  6.717515e+000  6.717515e+000
      vertex -1.500000e+000  8.776855e+000  3.635493e+000
    endloop
  endfacet
  facet normal  0.000000e+000 -8.314697e-001 -5.555702e-001
    outer loop
      vertex  1.500000e+000  6.717515e+000  6.717515e+000
      vertex -1.500000e+000  8.776855e+000  3.635493e+000
      vertex  1.500000e+000  8.776855e+000  3.635493e+000
    endloop
  endfacet
  facet normal  -0.000000e+000 -9.807853e-001 -1.950903e-001
    outer loop
      vertex  1.500000e+000  8.776855e+000  3.635493e+000
      vertex -1.500000e+000  8.776855e+000  3.635493e+000
      vertex -1.500000e+000  9.500000e+000  9.601071e-015
    endloop
  endfacet
  facet normal -2.743521e-016 -9.807853e-001 -1.950903e-001
    outer loop
      vertex  1.500000e+000  8.776855e+000  3.635493e+000
      vertex -1.500000e+000  9.500000e+000  9.601071e-015
      vertex  1.500000e+000  9.500000e+000  5.382224e-015
    endloop
  endfacet
  facet normal  3.280405e-016 -1.950903e-001 -9.807853e-001
    outer loop
      vertex -1.500000e+000  3.635493e+000  8.776855e+000
      vertex  1.500000e+000  2.439048e-016  9.500000e+000
      vertex -1.500000e+000 -4.800536e-015  9.500000e+000
    endloop
  endfacet
  facet normal -3.280405e-016  1.950903e-001 -9.807853e-001
    outer loop
      vertex -1.500000e+000 -4.800536e-015  9.500000e+000
      vertex  1.500000e+000  2.439048e-016  9.500000e+000
      vertex  1.500000e+000 -3.635493e+000  8.776855e+000
    endloop
  endfacet
  facet normal  0.000000e+000  1.950903e-001 -9.807853e-001
    outer loop
      vertex -1.500000e+000 -4.800536e-015  9.500000e+000
      vertex  1.500000e+000 -3.635493e+000  8.776855e+000
      vertex -1.500000e+000 -3.635493e+000  8.776855e+000
    endloop
  endfacet
  facet normal  0.000000e+000  5.555702e-001 -8.314697e-001
    outer loop
      vertex -1.500000e+000 -3.635493e+000  8.776855e+000
      vertex  1.500000e+000 -3.635493e+000  8.776855e+000
      vertex  1.500000e+000 -6.717515e+000  6.717515e+000
    endloop
  endfacet
  facet normal  0.000000e+000  5.555702e-001 -8.314697e-001
    outer loop
      vertex -1.500000e+000 -3.635493e+000  8.776855e+000
      vertex  1.500000e+000 -6.717515e+000  6.717515e+000
      vertex -1.500000e+000 -6.717515e+000  6.717515e+000
    endloop
  endfacet
  facet normal  0.000000e+000  8.314697e-001 -5.555702e-001
    outer loop
      vertex -1.500000e+000 -6.717515e+000  6.717515e+000
      vertex  1.500000e+000 -6.717515e+000  6.717515e+000
      vertex  1.500000e+000 -8.776855e+000  3.635493e+000
    endloop
  endfacet
  facet normal  0.000000e+000  8.314697e-001 -5.555702e-001
    outer loop
      vertex -1.500000e+000 -6.717515e+000  6.717515e+000
      vertex  1.500000e+000 -8.776855e+000  3.635493e+000
      vertex -1.500000e+000 -8.776855e+000  3.635493e+000
    endloop
  endfacet
  facet normal  0.000000e+000  9.807853e-001 -1.950903e-001
    outer loop
      vertex -1.500000e+000 -8.776855e+000  3.635493e+000
      vertex  1.500000e+000 -8.776855e+000  3.635493e+000
      vertex  1.500000e+000 -9.500000e+000  0.000000e+000
    endloop
  endfacet
  facet normal  0.000000e+000  9.807853e-001 -1.950903e-001
    outer loop
      vertex -1.500000e+000 -8.776855e+000  3.635493e+000
      vertex  1.500000e+000 -9.500000e+000  0.000000e+000
      vertex -1.500000e+000 -9.500000e+000  0.000000e+000
    endloop
  endfacet
  facet normal  -0.000000e+000  1.950903e-001  9.807853e-001
    outer loop
      vertex  1.500000e+000  6.692631e-015 -9.500000e+000
      vertex -1.500000e+000 -3.635493e+000 -8.776855e+000
      vertex  1.500000e+000 -3.635493e+000 -8.776855e+000
    endloop
  endfacet
  facet normal  0.000000e+000  5.555702e-001  8.314697e-001
    outer loop
      vertex  1.500000e+000 -3.635493e+000 -8.776855e+000
      vertex -1.500000e+000 -3.635493e+000 -8.776855e+000
      vertex -1.500000e+000 -6.717515e+000 -6.717515e+000
    endloop
  endfacet
  facet normal  -0.000000e+000  5.555702e-001  8.314697e-001
    outer loop
      vertex  1.500000e+000 -3.635493e+000 -8.776855e+000
      vertex -1.500000e+000 -6.717515e+000 -6.717515e+000
      vertex  1.500000e+000 -6.717515e+000 -6.717515e+000
    endloop
  endfacet
  facet normal  0.000000e+000  8.314697e-001  5.555702e-001
    outer loop
      vertex  1.500000e+000 -6.717515e+000 -6.717515e+000
      vertex -1.500000e+000 -6.717515e+000 -6.717515e+000
      vertex -1.500000e+000 -8.776855e+000 -3.635493e+000
    endloop
  endfacet
  facet normal  -0.000000e+000  8.314697e-001  5.555702e-001
    outer loop
      vertex  1.500000e+000 -6.717515e+000 -6.717515e+000
      vertex -1.500000e+000 -8.776855e+000 -3.635493e+000
      vertex  1.500000e+000 -8.776855e+000 -3.635493e+000
    endloop
  endfacet
  facet normal  0.000000e+000  9.807853e-001  1.950903e-001
    outer loop
      vertex  1.500000e+000 -8.776855e+000 -3.635493e+000
      vertex -1.500000e+000 -8.776855e+000 -3.635493e+000
      vertex -1.500000e+000 -9.500000e+000  0.000000e+000
    endloop
  endfacet
  facet normal  -0.000000e+000  9.807853e-001  1.950903e-001
    outer loop
      vertex  1.500000e+000 -8.776855e+000 -3.635493e+000
      vertex -1.500000e+000 -9.500000e+000  0.000000e+000
      vertex  1.500000e+000 -9.500000e+000  0.000000e+000
    endloop
  endfacet
  facet normal  2.269634e-016  1.950903e-001  9.807853e-001
    outer loop
      vertex -1.500000e+000 -3.635493e+000 -8.776855e+000
      vertex  1.500000e+000  6.692631e-015 -9.500000e+000
      vertex -1.500000e+000  1.018276e-014 -9.500000e+000
    endloop
  endfacet
  facet normal -2.269634e-016 -1.950903e-001  9.807853e-001
    outer loop
      vertex -1.500000e+000  1.018276e-014 -9.500000e+000
      vertex  1.500000e+000  6.692631e-015 -9.500000e+000
      vertex  1.500000e+000  3.635493e+000 -8.776855e+000
    endloop
  endfacet
  facet normal  0.000000e+000 -1.950903e-001  9.807853e-001
    outer loop
      vertex -1.500000e+000  1.018276e-014 -9.500000e+000
      vertex  1.500000e+000  3.635493e+000 -8.776855e+000
      vertex -1.500000e+000  3.635493e+000 -8.776855e+000
    endloop
  endfacet
  facet normal  0.000000e+000 -5.555702e-001  8.314697e-001
    outer loop
      vertex -1.500000e+000  3.635493e+000 -8.776855e+000
      vertex  1.500000e+000  3.635493e+000 -8.776855e+000
      vertex  1.500000e+000  6.717515e+000 -6.717515e+000
    endloop
  endfacet
  facet normal  0.000000e+000 -5.555702e-001  8.314697e-001
    outer loop
      vertex -1.500000e+000  3.635493e+000 -8.776855e+000
      vertex  1.500000e+000  6.717515e+000 -6.717515e+000
      vertex -1.500000e+000  6.717515e+000 -6.717515e+000
    endloop
  endfacet
  facet normal  0.000000e+000 -8.314697e-001  5.555702e-001
    outer loop
      vertex -1.500000e+000  6.717515e+000 -6.717515e+000
      vertex  1.500000e+000  6.717515e+000 -6.717515e+000
      vertex  1.500000e+000  8.776855e+000 -3.635493e+000
    endloop
  endfacet
  facet normal  0.000000e+000 -8.314697e-001  5.555702e-001
    outer loop
      vertex -1.500000e+000  6.717515e+000 -6.717515e+000
      vertex  1.500000e+000  8.776855e+000 -3.635493e+000
      vertex -1.500000e+000  8.776855e+000 -3.635493e+000
    endloop
  endfacet
  facet normal  0.000000e+000 -9.807853e-001  1.950903e-001
    outer loop
      vertex -1.500000e+000  8.776855e+000 -3.635493e+000
      vertex  1.500000e+000  8.776855e+000 -3.635493e+000
      vertex  1.500000e+000  9.500000e+000  5.382224e-015
    endloop
  endfacet
  facet normal  2.743521e-016 -9.807853e-001  1.950903e-001
    outer loop
      vertex -1.500000e+000  8.776855e+000 -3.635493e+000
      vertex  1.500000e+000  9.500000e+000  5.382224e-015
      vertex -1.500000e+000  9.500000e+000  9.601071e-015
    endloop
  endfacet
endsolid CATIA STL
