solid CATIA STL
  facet normal  9.950372e-002  0.000000e+000 -9.950372e-001
    outer loop
      vertex  5.750000e+001  1.075000e+002 -6.787407e+000
      vertex  1.050746e+003  1.075000e+002  9.253722e+001
      vertex  5.750000e+001  9.250000e+001 -6.787407e+000
    endloop
  endfacet
  facet normal  9.950372e-002  0.000000e+000 -9.950372e-001
    outer loop
      vertex  5.750000e+001  9.250000e+001 -6.787407e+000
      vertex  1.050746e+003  1.075000e+002  9.253722e+001
      vertex  1.050746e+003  9.250000e+001  9.253722e+001
    endloop
  endfacet
  facet normal  0.000000e+000  1.000000e+000  0.000000e+000
    outer loop
      vertex  5.750000e+001  1.075000e+002  7.500000e+000
      vertex  4.962593e+001  1.075000e+002  7.500000e+000
      vertex  1.049254e+003  1.075000e+002  1.074628e+002
    endloop
  endfacet
  facet normal  0.000000e+000  1.000000e+000  0.000000e+000
    outer loop
      vertex  5.750000e+001  1.075000e+002  7.500000e+000
      vertex  1.049254e+003  1.075000e+002  1.074628e+002
      vertex  1.046620e+003  1.075000e+002  1.066954e+002
    endloop
  endfacet
  facet normal  0.000000e+000  1.000000e+000  0.000000e+000
    outer loop
      vertex  5.750000e+001  1.075000e+002  7.500000e+000
      vertex  1.046620e+003  1.075000e+002  1.066954e+002
      vertex  1.044439e+003  1.075000e+002  1.050325e+002
    endloop
  endfacet
  facet normal  0.000000e+000  1.000000e+000  0.000000e+000
    outer loop
      vertex  5.750000e+001  1.075000e+002  7.500000e+000
      vertex  1.044439e+003  1.075000e+002  1.050325e+002
      vertex  1.043002e+003  1.075000e+002  1.026966e+002
    endloop
  endfacet
  facet normal  0.000000e+000  1.000000e+000  0.000000e+000
    outer loop
      vertex  5.750000e+001  1.075000e+002  7.500000e+000
      vertex  1.043002e+003  1.075000e+002  1.026966e+002
      vertex  1.042500e+003  1.075000e+002  1.000000e+002
    endloop
  endfacet
  facet normal  -0.000000e+000  1.000000e+000  0.000000e+000
    outer loop
      vertex  5.750000e+001  1.075000e+002 -6.787407e+000
      vertex  5.750000e+001  1.075000e+002  7.500000e+000
      vertex  1.042500e+003  1.075000e+002  1.000000e+002
    endloop
  endfacet
  facet normal  0.000000e+000  1.000000e+000  0.000000e+000
    outer loop
      vertex  5.750000e+001  1.075000e+002 -6.787407e+000
      vertex  1.042500e+003  1.075000e+002  1.000000e+002
      vertex  1.043145e+003  1.075000e+002  9.695813e+001
    endloop
  endfacet
  facet normal  0.000000e+000  9.999999e-001  0.000000e+000
    outer loop
      vertex  5.750000e+001  1.075000e+002 -6.787407e+000
      vertex  1.043145e+003  1.075000e+002  9.695813e+001
      vertex  1.044967e+003  1.075000e+002  9.443911e+001
    endloop
  endfacet
  facet normal  0.000000e+000  1.000000e+000  0.000000e+000
    outer loop
      vertex  5.750000e+001  1.075000e+002 -6.787407e+000
      vertex  1.044967e+003  1.075000e+002  9.443911e+001
      vertex  1.047655e+003  1.075000e+002  9.287591e+001
    endloop
  endfacet
  facet normal  0.000000e+000  1.000000e+000  0.000000e+000
    outer loop
      vertex  5.750000e+001  1.075000e+002 -6.787407e+000
      vertex  1.047655e+003  1.075000e+002  9.287591e+001
      vertex  1.050746e+003  1.075000e+002  9.253722e+001
    endloop
  endfacet
  facet normal  -0.000000e+000 -1.000000e+000  0.000000e+000
    outer loop
      vertex  5.750000e+001  9.250000e+001 -6.787407e+000
      vertex  1.050746e+003  9.250000e+001  9.253722e+001
      vertex  1.047655e+003  9.250000e+001  9.287591e+001
    endloop
  endfacet
  facet normal  -0.000000e+000 -1.000000e+000  0.000000e+000
    outer loop
      vertex  5.750000e+001  9.250000e+001 -6.787407e+000
      vertex  1.047655e+003  9.250000e+001  9.287591e+001
      vertex  1.044967e+003  9.250000e+001  9.443911e+001
    endloop
  endfacet
  facet normal  -0.000000e+000 -9.999999e-001  0.000000e+000
    outer loop
      vertex  5.750000e+001  9.250000e+001 -6.787407e+000
      vertex  1.044967e+003  9.250000e+001  9.443911e+001
      vertex  1.043145e+003  9.250000e+001  9.695813e+001
    endloop
  endfacet
  facet normal  -0.000000e+000 -1.000000e+000  0.000000e+000
    outer loop
      vertex  5.750000e+001  9.250000e+001 -6.787407e+000
      vertex  1.043145e+003  9.250000e+001  9.695813e+001
      vertex  1.042500e+003  9.250000e+001  1.000000e+002
    endloop
  endfacet
  facet normal  0.000000e+000 -1.000000e+000  0.000000e+000
    outer loop
      vertex  5.750000e+001  9.250000e+001 -6.787407e+000
      vertex  1.042500e+003  9.250000e+001  1.000000e+002
      vertex  5.750000e+001  9.250000e+001  7.500000e+000
    endloop
  endfacet
  facet normal  -0.000000e+000 -1.000000e+000  0.000000e+000
    outer loop
      vertex  5.750000e+001  9.250000e+001  7.500000e+000
      vertex  1.042500e+003  9.250000e+001  1.000000e+002
      vertex  1.043002e+003  9.250000e+001  1.026966e+002
    endloop
  endfacet
  facet normal  -0.000000e+000 -1.000000e+000  0.000000e+000
    outer loop
      vertex  5.750000e+001  9.250000e+001  7.500000e+000
      vertex  1.043002e+003  9.250000e+001  1.026966e+002
      vertex  1.044439e+003  9.250000e+001  1.050325e+002
    endloop
  endfacet
  facet normal  -0.000000e+000 -1.000000e+000  0.000000e+000
    outer loop
      vertex  5.750000e+001  9.250000e+001  7.500000e+000
      vertex  1.044439e+003  9.250000e+001  1.050325e+002
      vertex  1.046620e+003  9.250000e+001  1.066954e+002
    endloop
  endfacet
  facet normal  -0.000000e+000 -1.000000e+000  0.000000e+000
    outer loop
      vertex  5.750000e+001  9.250000e+001  7.500000e+000
      vertex  1.046620e+003  9.250000e+001  1.066954e+002
      vertex  1.049254e+003  9.250000e+001  1.074628e+002
    endloop
  endfacet
  facet normal  0.000000e+000 -1.000000e+000  0.000000e+000
    outer loop
      vertex  5.750000e+001  9.250000e+001  7.500000e+000
      vertex  1.049254e+003  9.250000e+001  1.074628e+002
      vertex  4.962593e+001  9.250000e+001  7.500000e+000
    endloop
  endfacet
  facet normal -9.950373e-002  0.000000e+000  9.950372e-001
    outer loop
      vertex  4.962593e+001  9.250000e+001  7.500000e+000
      vertex  1.049254e+003  9.250000e+001  1.074628e+002
      vertex  4.962593e+001  1.075000e+002  7.500000e+000
    endloop
  endfacet
  facet normal -9.950373e-002  0.000000e+000  9.950372e-001
    outer loop
      vertex  4.962593e+001  1.075000e+002  7.500000e+000
      vertex  1.049254e+003  9.250000e+001  1.074628e+002
      vertex  1.049254e+003  1.075000e+002  1.074628e+002
    endloop
  endfacet
  facet normal  1.000000e+000  0.000000e+000  0.000000e+000
    outer loop
      vertex  5.750000e+001  5.000000e+001 -7.500000e+000
      vertex  5.750000e+001  9.250000e+001  7.500000e+000
      vertex  5.750000e+001  5.000000e+001  7.500000e+000
    endloop
  endfacet
  facet normal  1.000000e+000  0.000000e+000  0.000000e+000
    outer loop
      vertex  5.750000e+001  9.250000e+001  7.500000e+000
      vertex  5.750000e+001  5.000000e+001 -7.500000e+000
      vertex  5.750000e+001  9.250000e+001 -6.787407e+000
    endloop
  endfacet
  facet normal  1.000000e+000  0.000000e+000  0.000000e+000
    outer loop
      vertex  5.750000e+001  9.250000e+001 -6.787407e+000
      vertex  5.750000e+001  5.000000e+001 -7.500000e+000
      vertex  5.750000e+001  1.500000e+002 -7.500000e+000
    endloop
  endfacet
  facet normal  1.000000e+000  0.000000e+000  0.000000e+000
    outer loop
      vertex  5.750000e+001  9.250000e+001 -6.787407e+000
      vertex  5.750000e+001  1.500000e+002 -7.500000e+000
      vertex  5.750000e+001  1.075000e+002 -6.787407e+000
    endloop
  endfacet
  facet normal  1.000000e+000  -0.000000e+000  0.000000e+000
    outer loop
      vertex  5.750000e+001  1.075000e+002 -6.787407e+000
      vertex  5.750000e+001  1.500000e+002 -7.500000e+000
      vertex  5.750000e+001  1.500000e+002  7.500000e+000
    endloop
  endfacet
  facet normal  1.000000e+000  0.000000e+000  0.000000e+000
    outer loop
      vertex  5.750000e+001  1.075000e+002 -6.787407e+000
      vertex  5.750000e+001  1.500000e+002  7.500000e+000
      vertex  5.750000e+001  1.075000e+002  7.500000e+000
    endloop
  endfacet
  facet normal  0.000000e+000  0.000000e+000  1.000000e+000
    outer loop
      vertex  5.750000e+001  5.000000e+001  7.500000e+000
      vertex  5.750000e+001  9.250000e+001  7.500000e+000
      vertex  4.250000e+001  5.000000e+001  7.500000e+000
    endloop
  endfacet
  facet normal  0.000000e+000  0.000000e+000  9.999999e-001
    outer loop
      vertex  4.250000e+001  5.000000e+001  7.500000e+000
      vertex  5.750000e+001  9.250000e+001  7.500000e+000
      vertex  4.962593e+001  9.250000e+001  7.500000e+000
    endloop
  endfacet
  facet normal  0.000000e+000  0.000000e+000  1.000000e+000
    outer loop
      vertex  4.250000e+001  5.000000e+001  7.500000e+000
      vertex  4.962593e+001  9.250000e+001  7.500000e+000
      vertex  4.250000e+001  1.500000e+002  7.500000e+000
    endloop
  endfacet
  facet normal  0.000000e+000  0.000000e+000  1.000000e+000
    outer loop
      vertex  4.250000e+001  1.500000e+002  7.500000e+000
      vertex  4.962593e+001  9.250000e+001  7.500000e+000
      vertex  4.962593e+001  1.075000e+002  7.500000e+000
    endloop
  endfacet
  facet normal  0.000000e+000  -0.000000e+000  1.000000e+000
    outer loop
      vertex  4.250000e+001  1.500000e+002  7.500000e+000
      vertex  4.962593e+001  1.075000e+002  7.500000e+000
      vertex  5.750000e+001  1.500000e+002  7.500000e+000
    endloop
  endfacet
  facet normal  0.000000e+000  0.000000e+000  9.999999e-001
    outer loop
      vertex  5.750000e+001  1.500000e+002  7.500000e+000
      vertex  4.962593e+001  1.075000e+002  7.500000e+000
      vertex  5.750000e+001  1.075000e+002  7.500000e+000
    endloop
  endfacet
  facet normal  0.000000e+000  0.000000e+000  9.999999e-001
    outer loop
      vertex -7.500000e+000 -7.500000e+000  7.500000e+000
      vertex  5.750000e+001 -7.500000e+000  7.500000e+000
      vertex  7.500000e+000  7.500000e+000  7.500000e+000
    endloop
  endfacet
  facet normal  -0.000000e+000  0.000000e+000  1.000000e+000
    outer loop
      vertex  7.500000e+000  7.500000e+000  7.500000e+000
      vertex  5.750000e+001 -7.500000e+000  7.500000e+000
      vertex  4.250000e+001  7.500000e+000  7.500000e+000
    endloop
  endfacet
  facet normal  0.000000e+000  1.000000e+000  0.000000e+000
    outer loop
      vertex  4.250000e+001  7.500000e+000 -7.500000e+000
      vertex  7.500000e+000  7.500000e+000 -7.500000e+000
      vertex  4.250000e+001  7.500000e+000  7.500000e+000
    endloop
  endfacet
  facet normal  0.000000e+000  1.000000e+000  0.000000e+000
    outer loop
      vertex  4.250000e+001  7.500000e+000  7.500000e+000
      vertex  7.500000e+000  7.500000e+000 -7.500000e+000
      vertex  7.500000e+000  7.500000e+000  7.500000e+000
    endloop
  endfacet
  facet normal  0.000000e+000  0.000000e+000 -9.999999e-001
    outer loop
      vertex  5.750000e+001 -7.500000e+000 -7.500000e+000
      vertex -7.500000e+000 -7.500000e+000 -7.500000e+000
      vertex  4.250000e+001  7.500000e+000 -7.500000e+000
    endloop
  endfacet
  facet normal  -0.000000e+000  0.000000e+000 -1.000000e+000
    outer loop
      vertex  4.250000e+001  7.500000e+000 -7.500000e+000
      vertex -7.500000e+000 -7.500000e+000 -7.500000e+000
      vertex  7.500000e+000  7.500000e+000 -7.500000e+000
    endloop
  endfacet
  facet normal  0.000000e+000 -9.999999e-001  0.000000e+000
    outer loop
      vertex  5.750000e+001 -7.500000e+000  7.500000e+000
      vertex -7.500000e+000 -7.500000e+000  7.500000e+000
      vertex  5.750000e+001 -7.500000e+000 -7.500000e+000
    endloop
  endfacet
  facet normal  0.000000e+000 -9.999999e-001  0.000000e+000
    outer loop
      vertex  5.750000e+001 -7.500000e+000 -7.500000e+000
      vertex -7.500000e+000 -7.500000e+000  7.500000e+000
      vertex -7.500000e+000 -7.500000e+000 -7.500000e+000
    endloop
  endfacet
  facet normal  0.000000e+000  0.000000e+000  1.000000e+000
    outer loop
      vertex  4.250000e+001  7.500000e+000  7.500000e+000
      vertex  5.750000e+001 -7.500000e+000  7.500000e+000
      vertex  4.250000e+001  5.000000e+001  7.500000e+000
    endloop
  endfacet
  facet normal  -0.000000e+000  0.000000e+000  9.999999e-001
    outer loop
      vertex  4.250000e+001  5.000000e+001  7.500000e+000
      vertex  5.750000e+001 -7.500000e+000  7.500000e+000
      vertex  5.750000e+001  5.000000e+001  7.500000e+000
    endloop
  endfacet
  facet normal -1.000000e+000  0.000000e+000  0.000000e+000
    outer loop
      vertex  4.250000e+001  5.000000e+001 -7.500000e+000
      vertex  4.250000e+001  7.500000e+000 -7.500000e+000
      vertex  4.250000e+001  5.000000e+001  7.500000e+000
    endloop
  endfacet
  facet normal -1.000000e+000  -0.000000e+000  0.000000e+000
    outer loop
      vertex  4.250000e+001  5.000000e+001  7.500000e+000
      vertex  4.250000e+001  7.500000e+000 -7.500000e+000
      vertex  4.250000e+001  7.500000e+000  7.500000e+000
    endloop
  endfacet
  facet normal  0.000000e+000  0.000000e+000 -9.999999e-001
    outer loop
      vertex  5.750000e+001 -7.500000e+000 -7.500000e+000
      vertex  4.250000e+001  7.500000e+000 -7.500000e+000
      vertex  5.750000e+001  5.000000e+001 -7.500000e+000
    endloop
  endfacet
  facet normal  -0.000000e+000  0.000000e+000 -1.000000e+000
    outer loop
      vertex  5.750000e+001  5.000000e+001 -7.500000e+000
      vertex  4.250000e+001  7.500000e+000 -7.500000e+000
      vertex  4.250000e+001  5.000000e+001 -7.500000e+000
    endloop
  endfacet
  facet normal  9.999999e-001  -0.000000e+000  0.000000e+000
    outer loop
      vertex  5.750000e+001  5.000000e+001  7.500000e+000
      vertex  5.750000e+001 -7.500000e+000  7.500000e+000
      vertex  5.750000e+001  5.000000e+001 -7.500000e+000
    endloop
  endfacet
  facet normal  9.999999e-001  0.000000e+000  0.000000e+000
    outer loop
      vertex  5.750000e+001  5.000000e+001 -7.500000e+000
      vertex  5.750000e+001 -7.500000e+000  7.500000e+000
      vertex  5.750000e+001 -7.500000e+000 -7.500000e+000
    endloop
  endfacet
  facet normal -1.000000e+000  0.000000e+000  0.000000e+000
    outer loop
      vertex  4.250000e+001  1.500000e+002 -7.500000e+000
      vertex  4.250000e+001  5.000000e+001 -7.500000e+000
      vertex  4.250000e+001  1.500000e+002  7.500000e+000
    endloop
  endfacet
  facet normal -1.000000e+000  -0.000000e+000  0.000000e+000
    outer loop
      vertex  4.250000e+001  1.500000e+002  7.500000e+000
      vertex  4.250000e+001  5.000000e+001 -7.500000e+000
      vertex  4.250000e+001  5.000000e+001  7.500000e+000
    endloop
  endfacet
  facet normal  0.000000e+000  0.000000e+000 -1.000000e+000
    outer loop
      vertex  5.750000e+001  5.000000e+001 -7.500000e+000
      vertex  4.250000e+001  5.000000e+001 -7.500000e+000
      vertex  5.750000e+001  1.500000e+002 -7.500000e+000
    endloop
  endfacet
  facet normal  -0.000000e+000  0.000000e+000 -1.000000e+000
    outer loop
      vertex  5.750000e+001  1.500000e+002 -7.500000e+000
      vertex  4.250000e+001  5.000000e+001 -7.500000e+000
      vertex  4.250000e+001  1.500000e+002 -7.500000e+000
    endloop
  endfacet
  facet normal  0.000000e+000  0.000000e+000  1.000000e+000
    outer loop
      vertex  4.250000e+001  1.500000e+002  7.500000e+000
      vertex  5.750000e+001  1.500000e+002  7.500000e+000
      vertex  4.250000e+001  1.925000e+002  7.500000e+000
    endloop
  endfacet
  facet normal  -0.000000e+000  0.000000e+000  9.999999e-001
    outer loop
      vertex  4.250000e+001  1.925000e+002  7.500000e+000
      vertex  5.750000e+001  1.500000e+002  7.500000e+000
      vertex  5.750000e+001  2.075000e+002  7.500000e+000
    endloop
  endfacet
  facet normal -1.000000e+000  0.000000e+000  0.000000e+000
    outer loop
      vertex  4.250000e+001  1.925000e+002 -7.500000e+000
      vertex  4.250000e+001  1.500000e+002 -7.500000e+000
      vertex  4.250000e+001  1.925000e+002  7.500000e+000
    endloop
  endfacet
  facet normal -1.000000e+000  -0.000000e+000  0.000000e+000
    outer loop
      vertex  4.250000e+001  1.925000e+002  7.500000e+000
      vertex  4.250000e+001  1.500000e+002 -7.500000e+000
      vertex  4.250000e+001  1.500000e+002  7.500000e+000
    endloop
  endfacet
  facet normal  0.000000e+000  0.000000e+000 -9.999999e-001
    outer loop
      vertex  5.750000e+001  1.500000e+002 -7.500000e+000
      vertex  4.250000e+001  1.500000e+002 -7.500000e+000
      vertex  5.750000e+001  2.075000e+002 -7.500000e+000
    endloop
  endfacet
  facet normal  0.000000e+000  0.000000e+000 -1.000000e+000
    outer loop
      vertex  5.750000e+001  2.075000e+002 -7.500000e+000
      vertex  4.250000e+001  1.500000e+002 -7.500000e+000
      vertex  4.250000e+001  1.925000e+002 -7.500000e+000
    endloop
  endfacet
  facet normal  9.999999e-001  -0.000000e+000  0.000000e+000
    outer loop
      vertex  5.750000e+001  2.075000e+002  7.500000e+000
      vertex  5.750000e+001  1.500000e+002  7.500000e+000
      vertex  5.750000e+001  2.075000e+002 -7.500000e+000
    endloop
  endfacet
  facet normal  9.999999e-001  0.000000e+000  0.000000e+000
    outer loop
      vertex  5.750000e+001  2.075000e+002 -7.500000e+000
      vertex  5.750000e+001  1.500000e+002  7.500000e+000
      vertex  5.750000e+001  1.500000e+002 -7.500000e+000
    endloop
  endfacet
  facet normal  0.000000e+000  0.000000e+000  1.000000e+000
    outer loop
      vertex  7.500000e+000  1.925000e+002  7.500000e+000
      vertex  4.250000e+001  1.925000e+002  7.500000e+000
      vertex -7.500000e+000  2.075000e+002  7.500000e+000
    endloop
  endfacet
  facet normal  -0.000000e+000  0.000000e+000  9.999999e-001
    outer loop
      vertex -7.500000e+000  2.075000e+002  7.500000e+000
      vertex  4.250000e+001  1.925000e+002  7.500000e+000
      vertex  5.750000e+001  2.075000e+002  7.500000e+000
    endloop
  endfacet
  facet normal  0.000000e+000 -1.000000e+000  0.000000e+000
    outer loop
      vertex  7.500000e+000  1.925000e+002 -7.500000e+000
      vertex  4.250000e+001  1.925000e+002 -7.500000e+000
      vertex  7.500000e+000  1.925000e+002  7.500000e+000
    endloop
  endfacet
  facet normal  0.000000e+000 -1.000000e+000  0.000000e+000
    outer loop
      vertex  7.500000e+000  1.925000e+002  7.500000e+000
      vertex  4.250000e+001  1.925000e+002 -7.500000e+000
      vertex  4.250000e+001  1.925000e+002  7.500000e+000
    endloop
  endfacet
  facet normal  0.000000e+000  0.000000e+000 -1.000000e+000
    outer loop
      vertex  4.250000e+001  1.925000e+002 -7.500000e+000
      vertex  7.500000e+000  1.925000e+002 -7.500000e+000
      vertex  5.750000e+001  2.075000e+002 -7.500000e+000
    endloop
  endfacet
  facet normal  -0.000000e+000  0.000000e+000 -9.999999e-001
    outer loop
      vertex  5.750000e+001  2.075000e+002 -7.500000e+000
      vertex  7.500000e+000  1.925000e+002 -7.500000e+000
      vertex -7.500000e+000  2.075000e+002 -7.500000e+000
    endloop
  endfacet
  facet normal  0.000000e+000  9.999999e-001  0.000000e+000
    outer loop
      vertex -7.500000e+000  2.075000e+002  7.500000e+000
      vertex  5.750000e+001  2.075000e+002  7.500000e+000
      vertex -7.500000e+000  2.075000e+002 -7.500000e+000
    endloop
  endfacet
  facet normal  0.000000e+000  9.999999e-001  0.000000e+000
    outer loop
      vertex -7.500000e+000  2.075000e+002 -7.500000e+000
      vertex  5.750000e+001  2.075000e+002  7.500000e+000
      vertex  5.750000e+001  2.075000e+002 -7.500000e+000
    endloop
  endfacet
  facet normal  0.000000e+000  0.000000e+000  9.999999e-001
    outer loop
      vertex -7.500000e+000 -7.500000e+000  7.500000e+000
      vertex  7.500000e+000  7.500000e+000  7.500000e+000
      vertex -7.500000e+000  2.075000e+002  7.500000e+000
    endloop
  endfacet
  facet normal  0.000000e+000  0.000000e+000  1.000000e+000
    outer loop
      vertex -7.500000e+000  2.075000e+002  7.500000e+000
      vertex  7.500000e+000  7.500000e+000  7.500000e+000
      vertex  7.500000e+000  1.925000e+002  7.500000e+000
    endloop
  endfacet
  facet normal  1.000000e+000  0.000000e+000  0.000000e+000
    outer loop
      vertex  7.500000e+000  7.500000e+000 -7.500000e+000
      vertex  7.500000e+000  1.925000e+002 -7.500000e+000
      vertex  7.500000e+000  7.500000e+000  7.500000e+000
    endloop
  endfacet
  facet normal  1.000000e+000  -0.000000e+000  0.000000e+000
    outer loop
      vertex  7.500000e+000  7.500000e+000  7.500000e+000
      vertex  7.500000e+000  1.925000e+002 -7.500000e+000
      vertex  7.500000e+000  1.925000e+002  7.500000e+000
    endloop
  endfacet
  facet normal  0.000000e+000  0.000000e+000 -1.000000e+000
    outer loop
      vertex  7.500000e+000  7.500000e+000 -7.500000e+000
      vertex -7.500000e+000 -7.500000e+000 -7.500000e+000
      vertex  7.500000e+000  1.925000e+002 -7.500000e+000
    endloop
  endfacet
  facet normal  -0.000000e+000  0.000000e+000 -9.999999e-001
    outer loop
      vertex  7.500000e+000  1.925000e+002 -7.500000e+000
      vertex -7.500000e+000 -7.500000e+000 -7.500000e+000
      vertex -7.500000e+000  2.075000e+002 -7.500000e+000
    endloop
  endfacet
  facet normal -9.999999e-001  -0.000000e+000  0.000000e+000
    outer loop
      vertex -7.500000e+000 -7.500000e+000  7.500000e+000
      vertex -7.500000e+000  2.075000e+002  7.500000e+000
      vertex -7.500000e+000 -7.500000e+000 -7.500000e+000
    endloop
  endfacet
  facet normal -9.999999e-001  0.000000e+000  0.000000e+000
    outer loop
      vertex -7.500000e+000 -7.500000e+000 -7.500000e+000
      vertex -7.500000e+000  2.075000e+002  7.500000e+000
      vertex -7.500000e+000  2.075000e+002 -7.500000e+000
    endloop
  endfacet
  facet normal -1.089212e-001 -3.868543e-004 -9.940503e-001
    outer loop
      vertex  1.050746e+003  1.075000e+002  9.253722e+001
      vertex  1.047655e+003  1.075000e+002  9.287591e+001
      vertex  1.048331e+003  4.000000e+002  9.268804e+001
    endloop
  endfacet
  facet normal  0.000000e+000  5.156166e-004 -9.999998e-001
    outer loop
      vertex  1.050746e+003  1.075000e+002  9.253722e+001
      vertex  1.048331e+003  4.000000e+002  9.268804e+001
      vertex  1.051669e+003  4.000000e+002  9.268804e+001
    endloop
  endfacet
  facet normal -4.338903e-001 -4.235930e-004 -9.009656e-001
    outer loop
      vertex  1.047655e+003  9.250000e+001  9.287591e+001
      vertex  1.048331e+003 -2.000000e+002  9.268804e+001
      vertex  1.045324e+003 -2.000000e+002  9.413626e+001
    endloop
  endfacet
  facet normal -5.027209e-001  2.824095e-004 -8.644487e-001
    outer loop
      vertex  1.047655e+003  9.250000e+001  9.287591e+001
      vertex  1.045324e+003 -2.000000e+002  9.413626e+001
      vertex  1.044967e+003  9.250000e+001  9.443911e+001
    endloop
  endfacet
  facet normal -7.818195e-001 -3.071737e-004 -6.235046e-001
    outer loop
      vertex  1.044967e+003  9.250000e+001  9.443911e+001
      vertex  1.045324e+003 -2.000000e+002  9.413626e+001
      vertex  1.043243e+003 -2.000000e+002  9.674587e+001
    endloop
  endfacet
  facet normal -4.338903e-001  4.235930e-004 -9.009656e-001
    outer loop
      vertex  1.045324e+003  4.000000e+002  9.413626e+001
      vertex  1.048331e+003  4.000000e+002  9.268804e+001
      vertex  1.047655e+003  1.075000e+002  9.287591e+001
    endloop
  endfacet
  facet normal -5.027209e-001 -2.824095e-004 -8.644487e-001
    outer loop
      vertex  1.047655e+003  1.075000e+002  9.287591e+001
      vertex  1.044967e+003  1.075000e+002  9.443911e+001
      vertex  1.045324e+003  4.000000e+002  9.413626e+001
    endloop
  endfacet
  facet normal -7.818195e-001  3.071737e-004 -6.235046e-001
    outer loop
      vertex  1.043243e+003  4.000000e+002  9.674587e+001
      vertex  1.045324e+003  4.000000e+002  9.413626e+001
      vertex  1.044967e+003  1.075000e+002  9.443911e+001
    endloop
  endfacet
  facet normal  1.613279e-001  0.000000e+000 -9.869009e-001
    outer loop
      vertex  1.050746e+003  9.250000e+001  9.253722e+001
      vertex  1.050746e+003  1.075000e+002  9.253722e+001
      vertex  1.051669e+003  4.000000e+002  9.268804e+001
    endloop
  endfacet
  facet normal  1.613279e-001  0.000000e+000 -9.869009e-001
    outer loop
      vertex  1.050746e+003  9.250000e+001  9.253722e+001
      vertex  1.051669e+003  4.000000e+002  9.268804e+001
      vertex  1.051669e+003 -2.000000e+002  9.268804e+001
    endloop
  endfacet
  facet normal  -0.000000e+000 -5.156166e-004 -9.999998e-001
    outer loop
      vertex  1.050746e+003  9.250000e+001  9.253722e+001
      vertex  1.051669e+003 -2.000000e+002  9.268804e+001
      vertex  1.048331e+003 -2.000000e+002  9.268804e+001
    endloop
  endfacet
  facet normal -1.089212e-001  3.868543e-004 -9.940503e-001
    outer loop
      vertex  1.050746e+003  9.250000e+001  9.253722e+001
      vertex  1.048331e+003 -2.000000e+002  9.268804e+001
      vertex  1.047655e+003  9.250000e+001  9.287591e+001
    endloop
  endfacet
  facet normal -9.749317e-001  -0.000000e+000 -2.225045e-001
    outer loop
      vertex  1.042500e+003 -2.000000e+002  1.000000e+002
      vertex  1.042500e+003  9.250000e+001  1.000000e+002
      vertex  1.043243e+003 -2.000000e+002  9.674587e+001
    endloop
  endfacet
  facet normal -9.782807e-001 -1.778299e-004 -2.072845e-001
    outer loop
      vertex  1.043243e+003 -2.000000e+002  9.674587e+001
      vertex  1.042500e+003  9.250000e+001  1.000000e+002
      vertex  1.043145e+003  9.250000e+001  9.695813e+001
    endloop
  endfacet
  facet normal -8.101318e-001  1.535911e-004 -5.862478e-001
    outer loop
      vertex  1.043243e+003 -2.000000e+002  9.674587e+001
      vertex  1.043145e+003  9.250000e+001  9.695813e+001
      vertex  1.044967e+003  9.250000e+001  9.443911e+001
    endloop
  endfacet
  facet normal  9.749317e-001  0.000000e+000 -2.225045e-001
    outer loop
      vertex  1.057500e+003  4.000000e+002  1.000000e+002
      vertex  1.057500e+003 -2.000000e+002  1.000000e+002
      vertex  1.056757e+003  4.000000e+002  9.674587e+001
    endloop
  endfacet
  facet normal  9.749317e-001  0.000000e+000 -2.225045e-001
    outer loop
      vertex  1.056757e+003  4.000000e+002  9.674587e+001
      vertex  1.057500e+003 -2.000000e+002  1.000000e+002
      vertex  1.056757e+003 -2.000000e+002  9.674587e+001
    endloop
  endfacet
  facet normal  7.818197e-001  0.000000e+000 -6.235047e-001
    outer loop
      vertex  1.056757e+003  4.000000e+002  9.674587e+001
      vertex  1.056757e+003 -2.000000e+002  9.674587e+001
      vertex  1.054676e+003  4.000000e+002  9.413626e+001
    endloop
  endfacet
  facet normal  7.818197e-001  0.000000e+000 -6.235047e-001
    outer loop
      vertex  1.054676e+003  4.000000e+002  9.413626e+001
      vertex  1.056757e+003 -2.000000e+002  9.674587e+001
      vertex  1.054676e+003 -2.000000e+002  9.413626e+001
    endloop
  endfacet
  facet normal  4.338903e-001  0.000000e+000 -9.009657e-001
    outer loop
      vertex  1.054676e+003  4.000000e+002  9.413626e+001
      vertex  1.054676e+003 -2.000000e+002  9.413626e+001
      vertex  1.051669e+003  4.000000e+002  9.268804e+001
    endloop
  endfacet
  facet normal  4.338903e-001  0.000000e+000 -9.009657e-001
    outer loop
      vertex  1.051669e+003  4.000000e+002  9.268804e+001
      vertex  1.054676e+003 -2.000000e+002  9.413626e+001
      vertex  1.051669e+003 -2.000000e+002  9.268804e+001
    endloop
  endfacet
  facet normal -9.782807e-001  -0.000000e+000 -2.072845e-001
    outer loop
      vertex  1.042500e+003  1.075000e+002  1.000000e+002
      vertex  1.042500e+003  4.000000e+002  1.000000e+002
      vertex  1.043145e+003  1.075000e+002  9.695813e+001
    endloop
  endfacet
  facet normal -9.749317e-001  1.656615e-004 -2.225045e-001
    outer loop
      vertex  1.043145e+003  1.075000e+002  9.695813e+001
      vertex  1.042500e+003  4.000000e+002  1.000000e+002
      vertex  1.043243e+003  4.000000e+002  9.674587e+001
    endloop
  endfacet
  facet normal -8.101318e-001 -1.535911e-004 -5.862478e-001
    outer loop
      vertex  1.043145e+003  1.075000e+002  9.695813e+001
      vertex  1.043243e+003  4.000000e+002  9.674587e+001
      vertex  1.044967e+003  1.075000e+002  9.443911e+001
    endloop
  endfacet
  facet normal -7.818195e-001  5.930607e-004  6.235045e-001
    outer loop
      vertex  1.043243e+003  4.000000e+002  1.032541e+002
      vertex  1.044439e+003  1.075000e+002  1.050325e+002
      vertex  1.045324e+003  4.000000e+002  1.058637e+002
    endloop
  endfacet
  facet normal -6.062585e-001 -4.260833e-004  7.952675e-001
    outer loop
      vertex  1.045324e+003  4.000000e+002  1.058637e+002
      vertex  1.044439e+003  1.075000e+002  1.050325e+002
      vertex  1.046620e+003  1.075000e+002  1.066954e+002
    endloop
  endfacet
  facet normal -4.338903e-001  6.384689e-004  9.009655e-001
    outer loop
      vertex  1.045324e+003  4.000000e+002  1.058637e+002
      vertex  1.046620e+003  1.075000e+002  1.066954e+002
      vertex  1.048331e+003  4.000000e+002  1.073120e+002
    endloop
  endfacet
  facet normal -7.818195e-001 -5.930607e-004  6.235045e-001
    outer loop
      vertex  1.043243e+003 -2.000000e+002  1.032541e+002
      vertex  1.045324e+003 -2.000000e+002  1.058637e+002
      vertex  1.044439e+003  9.250000e+001  1.050325e+002
    endloop
  endfacet
  facet normal -6.062585e-001  4.260833e-004  7.952675e-001
    outer loop
      vertex  1.046620e+003  9.250000e+001  1.066954e+002
      vertex  1.044439e+003  9.250000e+001  1.050325e+002
      vertex  1.045324e+003 -2.000000e+002  1.058637e+002
    endloop
  endfacet
  facet normal -4.338903e-001 -6.384689e-004  9.009655e-001
    outer loop
      vertex  1.045324e+003 -2.000000e+002  1.058637e+002
      vertex  1.048331e+003 -2.000000e+002  1.073120e+002
      vertex  1.046620e+003  9.250000e+001  1.066954e+002
    endloop
  endfacet
  facet normal -2.797761e-001  3.874479e-004  9.600652e-001
    outer loop
      vertex  1.049254e+003  9.250000e+001  1.074628e+002
      vertex  1.046620e+003  9.250000e+001  1.066954e+002
      vertex  1.048331e+003 -2.000000e+002  1.073120e+002
    endloop
  endfacet
  facet normal  0.000000e+000 -5.156166e-004  9.999998e-001
    outer loop
      vertex  1.049254e+003  9.250000e+001  1.074628e+002
      vertex  1.048331e+003 -2.000000e+002  1.073120e+002
      vertex  1.051669e+003 -2.000000e+002  1.073120e+002
    endloop
  endfacet
  facet normal  6.232176e-002  -0.000000e+000  9.980562e-001
    outer loop
      vertex  1.049254e+003  9.250000e+001  1.074628e+002
      vertex  1.051669e+003 -2.000000e+002  1.073120e+002
      vertex  1.051669e+003  4.000000e+002  1.073120e+002
    endloop
  endfacet
  facet normal  6.232176e-002  -0.000000e+000  9.980561e-001
    outer loop
      vertex  1.049254e+003  1.075000e+002  1.074628e+002
      vertex  1.049254e+003  9.250000e+001  1.074628e+002
      vertex  1.051669e+003  4.000000e+002  1.073120e+002
    endloop
  endfacet
  facet normal  0.000000e+000  5.156166e-004  9.999998e-001
    outer loop
      vertex  1.049254e+003  1.075000e+002  1.074628e+002
      vertex  1.051669e+003  4.000000e+002  1.073120e+002
      vertex  1.048331e+003  4.000000e+002  1.073120e+002
    endloop
  endfacet
  facet normal -2.797761e-001 -3.874479e-004  9.600652e-001
    outer loop
      vertex  1.049254e+003  1.075000e+002  1.074628e+002
      vertex  1.048331e+003  4.000000e+002  1.073120e+002
      vertex  1.046620e+003  1.075000e+002  1.066954e+002
    endloop
  endfacet
  facet normal -9.749317e-001  0.000000e+000  2.225045e-001
    outer loop
      vertex  1.042500e+003  4.000000e+002  1.000000e+002
      vertex  1.042500e+003  1.075000e+002  1.000000e+002
      vertex  1.043243e+003  4.000000e+002  1.032541e+002
    endloop
  endfacet
  facet normal -9.831369e-001  4.617724e-004  1.828704e-001
    outer loop
      vertex  1.043243e+003  4.000000e+002  1.032541e+002
      vertex  1.042500e+003  1.075000e+002  1.000000e+002
      vertex  1.043002e+003  1.075000e+002  1.026966e+002
    endloop
  endfacet
  facet normal -8.516582e-001 -2.969997e-004  5.240974e-001
    outer loop
      vertex  1.043243e+003  4.000000e+002  1.032541e+002
      vertex  1.043002e+003  1.075000e+002  1.026966e+002
      vertex  1.044439e+003  1.075000e+002  1.050325e+002
    endloop
  endfacet
  facet normal  4.338903e-001  -0.000000e+000  9.009657e-001
    outer loop
      vertex  1.051669e+003  4.000000e+002  1.073120e+002
      vertex  1.051669e+003 -2.000000e+002  1.073120e+002
      vertex  1.054676e+003  4.000000e+002  1.058637e+002
    endloop
  endfacet
  facet normal  4.338903e-001  0.000000e+000  9.009657e-001
    outer loop
      vertex  1.054676e+003  4.000000e+002  1.058637e+002
      vertex  1.051669e+003 -2.000000e+002  1.073120e+002
      vertex  1.054676e+003 -2.000000e+002  1.058637e+002
    endloop
  endfacet
  facet normal  7.818197e-001  -0.000000e+000  6.235047e-001
    outer loop
      vertex  1.054676e+003  4.000000e+002  1.058637e+002
      vertex  1.054676e+003 -2.000000e+002  1.058637e+002
      vertex  1.056757e+003  4.000000e+002  1.032541e+002
    endloop
  endfacet
  facet normal  7.818197e-001  0.000000e+000  6.235047e-001
    outer loop
      vertex  1.056757e+003  4.000000e+002  1.032541e+002
      vertex  1.054676e+003 -2.000000e+002  1.058637e+002
      vertex  1.056757e+003 -2.000000e+002  1.032541e+002
    endloop
  endfacet
  facet normal  9.749317e-001  -0.000000e+000  2.225045e-001
    outer loop
      vertex  1.056757e+003  4.000000e+002  1.032541e+002
      vertex  1.056757e+003 -2.000000e+002  1.032541e+002
      vertex  1.057500e+003  4.000000e+002  1.000000e+002
    endloop
  endfacet
  facet normal  9.749317e-001  0.000000e+000  2.225045e-001
    outer loop
      vertex  1.057500e+003  4.000000e+002  1.000000e+002
      vertex  1.056757e+003 -2.000000e+002  1.032541e+002
      vertex  1.057500e+003 -2.000000e+002  1.000000e+002
    endloop
  endfacet
  facet normal -9.831371e-001  0.000000e+000  1.828704e-001
    outer loop
      vertex  1.042500e+003  9.250000e+001  1.000000e+002
      vertex  1.042500e+003 -2.000000e+002  1.000000e+002
      vertex  1.043002e+003  9.250000e+001  1.026966e+002
    endloop
  endfacet
  facet normal -9.749315e-001 -3.794638e-004  2.225045e-001
    outer loop
      vertex  1.043002e+003  9.250000e+001  1.026966e+002
      vertex  1.042500e+003 -2.000000e+002  1.000000e+002
      vertex  1.043243e+003 -2.000000e+002  1.032541e+002
    endloop
  endfacet
  facet normal -8.516582e-001  2.969997e-004  5.240974e-001
    outer loop
      vertex  1.043002e+003  9.250000e+001  1.026966e+002
      vertex  1.043243e+003 -2.000000e+002  1.032541e+002
      vertex  1.044439e+003  9.250000e+001  1.050325e+002
    endloop
  endfacet
  facet normal  0.000000e+000 -1.000000e+000  0.000000e+000
    outer loop
      vertex  1.051669e+003 -2.000000e+002  1.073120e+002
      vertex  1.048331e+003 -2.000000e+002  1.073120e+002
      vertex  1.054676e+003 -2.000000e+002  1.058637e+002
    endloop
  endfacet
  facet normal  0.000000e+000 -1.000000e+000  0.000000e+000
    outer loop
      vertex  1.054676e+003 -2.000000e+002  1.058637e+002
      vertex  1.048331e+003 -2.000000e+002  1.073120e+002
      vertex  1.045324e+003 -2.000000e+002  1.058637e+002
    endloop
  endfacet
  facet normal  0.000000e+000 -1.000000e+000  0.000000e+000
    outer loop
      vertex  1.054676e+003 -2.000000e+002  1.058637e+002
      vertex  1.045324e+003 -2.000000e+002  1.058637e+002
      vertex  1.056757e+003 -2.000000e+002  1.032541e+002
    endloop
  endfacet
  facet normal  0.000000e+000 -1.000000e+000  0.000000e+000
    outer loop
      vertex  1.056757e+003 -2.000000e+002  1.032541e+002
      vertex  1.045324e+003 -2.000000e+002  1.058637e+002
      vertex  1.043243e+003 -2.000000e+002  1.032541e+002
    endloop
  endfacet
  facet normal  0.000000e+000 -1.000000e+000  0.000000e+000
    outer loop
      vertex  1.056757e+003 -2.000000e+002  1.032541e+002
      vertex  1.043243e+003 -2.000000e+002  1.032541e+002
      vertex  1.057500e+003 -2.000000e+002  1.000000e+002
    endloop
  endfacet
  facet normal  0.000000e+000 -1.000000e+000  0.000000e+000
    outer loop
      vertex  1.057500e+003 -2.000000e+002  1.000000e+002
      vertex  1.043243e+003 -2.000000e+002  1.032541e+002
      vertex  1.042500e+003 -2.000000e+002  1.000000e+002
    endloop
  endfacet
  facet normal  0.000000e+000 -1.000000e+000  0.000000e+000
    outer loop
      vertex  1.057500e+003 -2.000000e+002  1.000000e+002
      vertex  1.042500e+003 -2.000000e+002  1.000000e+002
      vertex  1.056757e+003 -2.000000e+002  9.674587e+001
    endloop
  endfacet
  facet normal  0.000000e+000 -1.000000e+000  0.000000e+000
    outer loop
      vertex  1.056757e+003 -2.000000e+002  9.674587e+001
      vertex  1.042500e+003 -2.000000e+002  1.000000e+002
      vertex  1.043243e+003 -2.000000e+002  9.674587e+001
    endloop
  endfacet
  facet normal  0.000000e+000 -1.000000e+000  0.000000e+000
    outer loop
      vertex  1.056757e+003 -2.000000e+002  9.674587e+001
      vertex  1.043243e+003 -2.000000e+002  9.674587e+001
      vertex  1.054676e+003 -2.000000e+002  9.413626e+001
    endloop
  endfacet
  facet normal  0.000000e+000 -1.000000e+000  0.000000e+000
    outer loop
      vertex  1.054676e+003 -2.000000e+002  9.413626e+001
      vertex  1.043243e+003 -2.000000e+002  9.674587e+001
      vertex  1.045324e+003 -2.000000e+002  9.413626e+001
    endloop
  endfacet
  facet normal  0.000000e+000 -1.000000e+000  0.000000e+000
    outer loop
      vertex  1.054676e+003 -2.000000e+002  9.413626e+001
      vertex  1.045324e+003 -2.000000e+002  9.413626e+001
      vertex  1.051669e+003 -2.000000e+002  9.268804e+001
    endloop
  endfacet
  facet normal  0.000000e+000 -1.000000e+000  0.000000e+000
    outer loop
      vertex  1.051669e+003 -2.000000e+002  9.268804e+001
      vertex  1.045324e+003 -2.000000e+002  9.413626e+001
      vertex  1.048331e+003 -2.000000e+002  9.268804e+001
    endloop
  endfacet
  facet normal  -0.000000e+000  1.000000e+000  0.000000e+000
    outer loop
      vertex  1.057500e+003  4.000000e+002  1.000000e+002
      vertex  1.043243e+003  4.000000e+002  1.032541e+002
      vertex  1.056757e+003  4.000000e+002  1.032541e+002
    endloop
  endfacet
  facet normal  0.000000e+000  1.000000e+000  0.000000e+000
    outer loop
      vertex  1.056757e+003  4.000000e+002  1.032541e+002
      vertex  1.043243e+003  4.000000e+002  1.032541e+002
      vertex  1.045324e+003  4.000000e+002  1.058637e+002
    endloop
  endfacet
  facet normal  -0.000000e+000  1.000000e+000  0.000000e+000
    outer loop
      vertex  1.056757e+003  4.000000e+002  1.032541e+002
      vertex  1.045324e+003  4.000000e+002  1.058637e+002
      vertex  1.054676e+003  4.000000e+002  1.058637e+002
    endloop
  endfacet
  facet normal  0.000000e+000  1.000000e+000  0.000000e+000
    outer loop
      vertex  1.054676e+003  4.000000e+002  1.058637e+002
      vertex  1.045324e+003  4.000000e+002  1.058637e+002
      vertex  1.048331e+003  4.000000e+002  1.073120e+002
    endloop
  endfacet
  facet normal  -0.000000e+000  1.000000e+000  0.000000e+000
    outer loop
      vertex  1.054676e+003  4.000000e+002  1.058637e+002
      vertex  1.048331e+003  4.000000e+002  1.073120e+002
      vertex  1.051669e+003  4.000000e+002  1.073120e+002
    endloop
  endfacet
  facet normal  0.000000e+000  1.000000e+000  0.000000e+000
    outer loop
      vertex  1.043243e+003  4.000000e+002  1.032541e+002
      vertex  1.057500e+003  4.000000e+002  1.000000e+002
      vertex  1.042500e+003  4.000000e+002  1.000000e+002
    endloop
  endfacet
  facet normal  -0.000000e+000  1.000000e+000  0.000000e+000
    outer loop
      vertex  1.042500e+003  4.000000e+002  1.000000e+002
      vertex  1.057500e+003  4.000000e+002  1.000000e+002
      vertex  1.056757e+003  4.000000e+002  9.674587e+001
    endloop
  endfacet
  facet normal  0.000000e+000  1.000000e+000  0.000000e+000
    outer loop
      vertex  1.042500e+003  4.000000e+002  1.000000e+002
      vertex  1.056757e+003  4.000000e+002  9.674587e+001
      vertex  1.043243e+003  4.000000e+002  9.674587e+001
    endloop
  endfacet
  facet normal  -0.000000e+000  1.000000e+000  0.000000e+000
    outer loop
      vertex  1.043243e+003  4.000000e+002  9.674587e+001
      vertex  1.056757e+003  4.000000e+002  9.674587e+001
      vertex  1.054676e+003  4.000000e+002  9.413626e+001
    endloop
  endfacet
  facet normal  0.000000e+000  1.000000e+000  0.000000e+000
    outer loop
      vertex  1.043243e+003  4.000000e+002  9.674587e+001
      vertex  1.054676e+003  4.000000e+002  9.413626e+001
      vertex  1.045324e+003  4.000000e+002  9.413626e+001
    endloop
  endfacet
  facet normal  -0.000000e+000  1.000000e+000  0.000000e+000
    outer loop
      vertex  1.045324e+003  4.000000e+002  9.413626e+001
      vertex  1.054676e+003  4.000000e+002  9.413626e+001
      vertex  1.051669e+003  4.000000e+002  9.268804e+001
    endloop
  endfacet
  facet normal  0.000000e+000  1.000000e+000  0.000000e+000
    outer loop
      vertex  1.045324e+003  4.000000e+002  9.413626e+001
      vertex  1.051669e+003  4.000000e+002  9.268804e+001
      vertex  1.048331e+003  4.000000e+002  9.268804e+001
    endloop
  endfacet
endsolid CATIA STL
