solid CATIA STL
  facet normal  9.999999e-001  -0.000000e+000  0.000000e+000
    outer loop
      vertex -1.510561e+001 -8.303310e+000  2.217452e+001
      vertex -1.510561e+001 -1.637054e+001  2.113849e+001
      vertex -1.510561e+001 -1.472054e+001  1.993969e+001
    endloop
  endfacet
  facet normal  1.000000e+000  0.000000e+000  0.000000e+000
    outer loop
      vertex -1.510561e+001 -2.739030e+001  5.000000e+000
      vertex -1.510561e+001 -4.134197e-001  5.000000e+000
      vertex -1.510561e+001 -1.637054e+001  1.486151e+001
    endloop
  endfacet
  facet normal  1.000000e+000  0.000000e+000  0.000000e+000
    outer loop
      vertex -1.510561e+001 -2.739030e+001  5.000000e+000
      vertex -1.510561e+001 -1.637054e+001  1.486151e+001
      vertex -1.510561e+001 -1.841006e+001  1.486151e+001
    endloop
  endfacet
  facet normal  1.000000e+000  0.000000e+000  0.000000e+000
    outer loop
      vertex -1.510561e+001 -2.739030e+001  5.000000e+000
      vertex -1.510561e+001 -1.841006e+001  1.486151e+001
      vertex -1.510561e+001 -2.006006e+001  1.606031e+001
    endloop
  endfacet
  facet normal  1.000000e+000  0.000000e+000  0.000000e+000
    outer loop
      vertex -1.510561e+001 -2.739030e+001  5.000000e+000
      vertex -1.510561e+001 -2.006006e+001  1.606031e+001
      vertex -1.510561e+001 -2.069030e+001  1.800000e+001
    endloop
  endfacet
  facet normal  9.999999e-001  0.000000e+000  0.000000e+000
    outer loop
      vertex -1.510561e+001 -2.739030e+001  5.000000e+000
      vertex -1.510561e+001 -2.069030e+001  1.800000e+001
      vertex -1.510561e+001 -2.739030e+001  1.800000e+001
    endloop
  endfacet
  facet normal  1.000000e+000  0.000000e+000  0.000000e+000
    outer loop
      vertex -1.510561e+001 -4.134197e-001  5.000000e+000
      vertex -1.510561e+001 -8.303310e+000  2.217452e+001
      vertex -1.510561e+001 -1.472054e+001  1.993969e+001
    endloop
  endfacet
  facet normal  1.000000e+000  0.000000e+000  0.000000e+000
    outer loop
      vertex -1.510561e+001 -4.134197e-001  5.000000e+000
      vertex -1.510561e+001 -1.472054e+001  1.993969e+001
      vertex -1.510561e+001 -1.409030e+001  1.800000e+001
    endloop
  endfacet
  facet normal  1.000000e+000  0.000000e+000  0.000000e+000
    outer loop
      vertex -1.510561e+001 -4.134197e-001  5.000000e+000
      vertex -1.510561e+001 -1.409030e+001  1.800000e+001
      vertex -1.510561e+001 -1.472054e+001  1.606031e+001
    endloop
  endfacet
  facet normal  1.000000e+000  0.000000e+000  0.000000e+000
    outer loop
      vertex -1.510561e+001 -4.134197e-001  5.000000e+000
      vertex -1.510561e+001 -1.472054e+001  1.606031e+001
      vertex -1.510561e+001 -1.637054e+001  1.486151e+001
    endloop
  endfacet
  facet normal  1.000000e+000  0.000000e+000  0.000000e+000
    outer loop
      vertex -1.510561e+001 -8.303310e+000  2.217452e+001
      vertex -1.510561e+001 -1.055288e+001  2.529724e+001
      vertex -1.510561e+001 -1.637054e+001  2.113849e+001
    endloop
  endfacet
  facet normal  1.000000e+000  0.000000e+000  0.000000e+000
    outer loop
      vertex -1.510561e+001 -1.637054e+001  2.113849e+001
      vertex -1.510561e+001 -1.055288e+001  2.529724e+001
      vertex -1.510561e+001 -1.381521e+001  2.733910e+001
    endloop
  endfacet
  facet normal  1.000000e+000  0.000000e+000  0.000000e+000
    outer loop
      vertex -1.510561e+001 -1.637054e+001  2.113849e+001
      vertex -1.510561e+001 -1.381521e+001  2.733910e+001
      vertex -1.510561e+001 -1.841006e+001  2.113849e+001
    endloop
  endfacet
  facet normal  1.000000e+000  0.000000e+000  0.000000e+000
    outer loop
      vertex -1.510561e+001 -1.841006e+001  2.113849e+001
      vertex -1.510561e+001 -1.381521e+001  2.733910e+001
      vertex -1.510561e+001 -1.760709e+001  2.799765e+001
    endloop
  endfacet
  facet normal  1.000000e+000  0.000000e+000  0.000000e+000
    outer loop
      vertex -1.510561e+001 -1.841006e+001  2.113849e+001
      vertex -1.510561e+001 -1.760709e+001  2.799765e+001
      vertex -1.510561e+001 -2.664970e+001  2.177670e+001
    endloop
  endfacet
  facet normal  1.000000e+000  0.000000e+000  0.000000e+000
    outer loop
      vertex -1.510561e+001 -2.664970e+001  2.177670e+001
      vertex -1.510561e+001 -1.760709e+001  2.799765e+001
      vertex -1.510561e+001 -2.136685e+001  2.717535e+001
    endloop
  endfacet
  facet normal  1.000000e+000  0.000000e+000  0.000000e+000
    outer loop
      vertex -1.510561e+001 -2.664970e+001  2.177670e+001
      vertex -1.510561e+001 -2.136685e+001  2.717535e+001
      vertex -1.510561e+001 -2.453760e+001  2.499400e+001
    endloop
  endfacet
  facet normal  1.000000e+000  0.000000e+000  0.000000e+000
    outer loop
      vertex -1.510561e+001 -1.841006e+001  2.113849e+001
      vertex -1.510561e+001 -2.664970e+001  2.177670e+001
      vertex -1.510561e+001 -2.006006e+001  1.993969e+001
    endloop
  endfacet
  facet normal  1.000000e+000  0.000000e+000  0.000000e+000
    outer loop
      vertex -1.510561e+001 -2.006006e+001  1.993969e+001
      vertex -1.510561e+001 -2.664970e+001  2.177670e+001
      vertex -1.510561e+001 -2.739030e+001  1.800000e+001
    endloop
  endfacet
  facet normal  9.999999e-001  0.000000e+000  0.000000e+000
    outer loop
      vertex -1.510561e+001 -2.006006e+001  1.993969e+001
      vertex -1.510561e+001 -2.739030e+001  1.800000e+001
      vertex -1.510561e+001 -2.069030e+001  1.800000e+001
    endloop
  endfacet
  facet normal -9.999999e-001  0.000000e+000  0.000000e+000
    outer loop
      vertex -1.910561e+001 -1.472054e+001  1.993969e+001
      vertex -1.910561e+001 -1.637054e+001  2.113849e+001
      vertex -1.910561e+001 -8.303310e+000  2.217452e+001
    endloop
  endfacet
  facet normal -9.999999e-001  0.000000e+000  0.000000e+000
    outer loop
      vertex -1.910561e+001 -2.739030e+001  5.000000e+000
      vertex -1.910561e+001 -2.739030e+001  1.800000e+001
      vertex -1.910561e+001 -2.069030e+001  1.800000e+001
    endloop
  endfacet
  facet normal -1.000000e+000  0.000000e+000  -0.000000e+000
    outer loop
      vertex -1.910561e+001 -2.739030e+001  5.000000e+000
      vertex -1.910561e+001 -2.069030e+001  1.800000e+001
      vertex -1.910561e+001 -2.006006e+001  1.606031e+001
    endloop
  endfacet
  facet normal -1.000000e+000  0.000000e+000  -0.000000e+000
    outer loop
      vertex -1.910561e+001 -2.739030e+001  5.000000e+000
      vertex -1.910561e+001 -2.006006e+001  1.606031e+001
      vertex -1.910561e+001 -1.841006e+001  1.486151e+001
    endloop
  endfacet
  facet normal -1.000000e+000  0.000000e+000  -0.000000e+000
    outer loop
      vertex -1.910561e+001 -2.739030e+001  5.000000e+000
      vertex -1.910561e+001 -1.841006e+001  1.486151e+001
      vertex -1.910561e+001 -1.637054e+001  1.486151e+001
    endloop
  endfacet
  facet normal -1.000000e+000  0.000000e+000  -0.000000e+000
    outer loop
      vertex -1.910561e+001 -2.739030e+001  5.000000e+000
      vertex -1.910561e+001 -1.637054e+001  1.486151e+001
      vertex -1.910561e+001 -4.134197e-001  5.000000e+000
    endloop
  endfacet
  facet normal -1.000000e+000  0.000000e+000  0.000000e+000
    outer loop
      vertex -1.910561e+001 -4.134197e-001  5.000000e+000
      vertex -1.910561e+001 -1.637054e+001  1.486151e+001
      vertex -1.910561e+001 -1.472054e+001  1.606031e+001
    endloop
  endfacet
  facet normal -1.000000e+000  0.000000e+000  0.000000e+000
    outer loop
      vertex -1.910561e+001 -4.134197e-001  5.000000e+000
      vertex -1.910561e+001 -1.472054e+001  1.606031e+001
      vertex -1.910561e+001 -1.409030e+001  1.800000e+001
    endloop
  endfacet
  facet normal -1.000000e+000  0.000000e+000  0.000000e+000
    outer loop
      vertex -1.910561e+001 -4.134197e-001  5.000000e+000
      vertex -1.910561e+001 -1.409030e+001  1.800000e+001
      vertex -1.910561e+001 -1.472054e+001  1.993969e+001
    endloop
  endfacet
  facet normal -1.000000e+000  0.000000e+000  0.000000e+000
    outer loop
      vertex -1.910561e+001 -4.134197e-001  5.000000e+000
      vertex -1.910561e+001 -1.472054e+001  1.993969e+001
      vertex -1.910561e+001 -8.303310e+000  2.217452e+001
    endloop
  endfacet
  facet normal -1.000000e+000  0.000000e+000  0.000000e+000
    outer loop
      vertex -1.910561e+001 -2.453760e+001  2.499400e+001
      vertex -1.910561e+001 -2.136685e+001  2.717535e+001
      vertex -1.910561e+001 -2.664970e+001  2.177670e+001
    endloop
  endfacet
  facet normal -1.000000e+000  0.000000e+000  0.000000e+000
    outer loop
      vertex -1.910561e+001 -2.664970e+001  2.177670e+001
      vertex -1.910561e+001 -2.136685e+001  2.717535e+001
      vertex -1.910561e+001 -1.760709e+001  2.799765e+001
    endloop
  endfacet
  facet normal -1.000000e+000  0.000000e+000  0.000000e+000
    outer loop
      vertex -1.910561e+001 -2.664970e+001  2.177670e+001
      vertex -1.910561e+001 -1.760709e+001  2.799765e+001
      vertex -1.910561e+001 -1.841006e+001  2.113849e+001
    endloop
  endfacet
  facet normal -1.000000e+000  0.000000e+000  0.000000e+000
    outer loop
      vertex -1.910561e+001 -1.841006e+001  2.113849e+001
      vertex -1.910561e+001 -1.760709e+001  2.799765e+001
      vertex -1.910561e+001 -1.381521e+001  2.733910e+001
    endloop
  endfacet
  facet normal -1.000000e+000  0.000000e+000  0.000000e+000
    outer loop
      vertex -1.910561e+001 -1.841006e+001  2.113849e+001
      vertex -1.910561e+001 -1.381521e+001  2.733910e+001
      vertex -1.910561e+001 -1.637054e+001  2.113849e+001
    endloop
  endfacet
  facet normal -1.000000e+000  0.000000e+000  0.000000e+000
    outer loop
      vertex -1.910561e+001 -1.637054e+001  2.113849e+001
      vertex -1.910561e+001 -1.381521e+001  2.733910e+001
      vertex -1.910561e+001 -1.055288e+001  2.529724e+001
    endloop
  endfacet
  facet normal -1.000000e+000  0.000000e+000  -0.000000e+000
    outer loop
      vertex -1.910561e+001 -1.637054e+001  2.113849e+001
      vertex -1.910561e+001 -1.055288e+001  2.529724e+001
      vertex -1.910561e+001 -8.303310e+000  2.217452e+001
    endloop
  endfacet
  facet normal -9.999999e-001  0.000000e+000  0.000000e+000
    outer loop
      vertex -1.910561e+001 -2.069030e+001  1.800000e+001
      vertex -1.910561e+001 -2.739030e+001  1.800000e+001
      vertex -1.910561e+001 -2.006006e+001  1.993969e+001
    endloop
  endfacet
  facet normal -1.000000e+000  -0.000000e+000  0.000000e+000
    outer loop
      vertex -1.910561e+001 -2.006006e+001  1.993969e+001
      vertex -1.910561e+001 -2.739030e+001  1.800000e+001
      vertex -1.910561e+001 -2.664970e+001  2.177670e+001
    endloop
  endfacet
  facet normal -1.000000e+000  0.000000e+000  0.000000e+000
    outer loop
      vertex -1.910561e+001 -2.006006e+001  1.993969e+001
      vertex -1.910561e+001 -2.664970e+001  2.177670e+001
      vertex -1.910561e+001 -1.841006e+001  2.113849e+001
    endloop
  endfacet
  facet normal  0.000000e+000  5.877854e-001 -8.090169e-001
    outer loop
      vertex -1.910561e+001 -1.841006e+001  2.113849e+001
      vertex -1.510561e+001 -2.006006e+001  1.993969e+001
      vertex -1.910561e+001 -2.006006e+001  1.993969e+001
    endloop
  endfacet
  facet normal  0.000000e+000  9.510566e-001 -3.090167e-001
    outer loop
      vertex -1.910561e+001 -2.006006e+001  1.993969e+001
      vertex -1.510561e+001 -2.006006e+001  1.993969e+001
      vertex -1.510561e+001 -2.069030e+001  1.800000e+001
    endloop
  endfacet
  facet normal  0.000000e+000  9.510566e-001 -3.090167e-001
    outer loop
      vertex -1.910561e+001 -2.006006e+001  1.993969e+001
      vertex -1.510561e+001 -2.069030e+001  1.800000e+001
      vertex -1.910561e+001 -2.069030e+001  1.800000e+001
    endloop
  endfacet
  facet normal  0.000000e+000  5.877854e-001 -8.090169e-001
    outer loop
      vertex -1.510561e+001 -2.006006e+001  1.993969e+001
      vertex -1.910561e+001 -1.841006e+001  2.113849e+001
      vertex -1.510561e+001 -1.841006e+001  2.113849e+001
    endloop
  endfacet
  facet normal  0.000000e+000  0.000000e+000 -1.000000e+000
    outer loop
      vertex -1.510561e+001 -1.841006e+001  2.113849e+001
      vertex -1.910561e+001 -1.841006e+001  2.113849e+001
      vertex -1.910561e+001 -1.637054e+001  2.113849e+001
    endloop
  endfacet
  facet normal  0.000000e+000  0.000000e+000 -1.000000e+000
    outer loop
      vertex -1.510561e+001 -1.841006e+001  2.113849e+001
      vertex -1.910561e+001 -1.637054e+001  2.113849e+001
      vertex -1.510561e+001 -1.637054e+001  2.113849e+001
    endloop
  endfacet
  facet normal  -0.000000e+000 -5.877854e-001 -8.090169e-001
    outer loop
      vertex -1.510561e+001 -1.637054e+001  2.113849e+001
      vertex -1.910561e+001 -1.637054e+001  2.113849e+001
      vertex -1.910561e+001 -1.472054e+001  1.993969e+001
    endloop
  endfacet
  facet normal  0.000000e+000 -5.877854e-001 -8.090169e-001
    outer loop
      vertex -1.510561e+001 -1.637054e+001  2.113849e+001
      vertex -1.910561e+001 -1.472054e+001  1.993969e+001
      vertex -1.510561e+001 -1.472054e+001  1.993969e+001
    endloop
  endfacet
  facet normal  -0.000000e+000 -9.510565e-001 -3.090171e-001
    outer loop
      vertex -1.510561e+001 -1.472054e+001  1.993969e+001
      vertex -1.910561e+001 -1.472054e+001  1.993969e+001
      vertex -1.910561e+001 -1.409030e+001  1.800000e+001
    endloop
  endfacet
  facet normal  0.000000e+000 -9.510565e-001 -3.090171e-001
    outer loop
      vertex -1.510561e+001 -1.472054e+001  1.993969e+001
      vertex -1.910561e+001 -1.409030e+001  1.800000e+001
      vertex -1.510561e+001 -1.409030e+001  1.800000e+001
    endloop
  endfacet
  facet normal  0.000000e+000 -5.877854e-001  8.090169e-001
    outer loop
      vertex -1.910561e+001 -1.637054e+001  1.486151e+001
      vertex -1.510561e+001 -1.472054e+001  1.606031e+001
      vertex -1.910561e+001 -1.472054e+001  1.606031e+001
    endloop
  endfacet
  facet normal  0.000000e+000 -9.510565e-001  3.090171e-001
    outer loop
      vertex -1.910561e+001 -1.472054e+001  1.606031e+001
      vertex -1.510561e+001 -1.472054e+001  1.606031e+001
      vertex -1.510561e+001 -1.409030e+001  1.800000e+001
    endloop
  endfacet
  facet normal  0.000000e+000 -9.510565e-001  3.090171e-001
    outer loop
      vertex -1.910561e+001 -1.472054e+001  1.606031e+001
      vertex -1.510561e+001 -1.409030e+001  1.800000e+001
      vertex -1.910561e+001 -1.409030e+001  1.800000e+001
    endloop
  endfacet
  facet normal  0.000000e+000 -5.877854e-001  8.090169e-001
    outer loop
      vertex -1.510561e+001 -1.472054e+001  1.606031e+001
      vertex -1.910561e+001 -1.637054e+001  1.486151e+001
      vertex -1.510561e+001 -1.637054e+001  1.486151e+001
    endloop
  endfacet
  facet normal  0.000000e+000  0.000000e+000  1.000000e+000
    outer loop
      vertex -1.510561e+001 -1.637054e+001  1.486151e+001
      vertex -1.910561e+001 -1.637054e+001  1.486151e+001
      vertex -1.910561e+001 -1.841006e+001  1.486151e+001
    endloop
  endfacet
  facet normal  0.000000e+000  0.000000e+000  1.000000e+000
    outer loop
      vertex -1.510561e+001 -1.637054e+001  1.486151e+001
      vertex -1.910561e+001 -1.841006e+001  1.486151e+001
      vertex -1.510561e+001 -1.841006e+001  1.486151e+001
    endloop
  endfacet
  facet normal  0.000000e+000  5.877854e-001  8.090169e-001
    outer loop
      vertex -1.510561e+001 -1.841006e+001  1.486151e+001
      vertex -1.910561e+001 -1.841006e+001  1.486151e+001
      vertex -1.910561e+001 -2.006006e+001  1.606031e+001
    endloop
  endfacet
  facet normal  -0.000000e+000  5.877854e-001  8.090169e-001
    outer loop
      vertex -1.510561e+001 -1.841006e+001  1.486151e+001
      vertex -1.910561e+001 -2.006006e+001  1.606031e+001
      vertex -1.510561e+001 -2.006006e+001  1.606031e+001
    endloop
  endfacet
  facet normal  0.000000e+000  9.510566e-001  3.090167e-001
    outer loop
      vertex -1.510561e+001 -2.006006e+001  1.606031e+001
      vertex -1.910561e+001 -2.006006e+001  1.606031e+001
      vertex -1.910561e+001 -2.069030e+001  1.800000e+001
    endloop
  endfacet
  facet normal  -0.000000e+000  9.510566e-001  3.090167e-001
    outer loop
      vertex -1.510561e+001 -2.006006e+001  1.606031e+001
      vertex -1.910561e+001 -2.069030e+001  1.800000e+001
      vertex -1.510561e+001 -2.069030e+001  1.800000e+001
    endloop
  endfacet
  facet normal  0.000000e+000 -1.000000e+000  0.000000e+000
    outer loop
      vertex -1.510561e+001 -2.739030e+001  1.800000e+001
      vertex -1.910561e+001 -2.739030e+001  1.800000e+001
      vertex -1.510561e+001 -2.739030e+001  5.000000e+000
    endloop
  endfacet
  facet normal  0.000000e+000 -1.000000e+000  0.000000e+000
    outer loop
      vertex -1.510561e+001 -2.739030e+001  5.000000e+000
      vertex -1.910561e+001 -2.739030e+001  1.800000e+001
      vertex -1.910561e+001 -2.739030e+001  5.000000e+000
    endloop
  endfacet
  facet normal  0.000000e+000 -9.813104e-001  1.924317e-001
    outer loop
      vertex -1.910561e+001 -2.739030e+001  1.800000e+001
      vertex -1.510561e+001 -2.739030e+001  1.800000e+001
      vertex -1.910561e+001 -2.664970e+001  2.177670e+001
    endloop
  endfacet
  facet normal  0.000000e+000 -9.813104e-001  1.924317e-001
    outer loop
      vertex -1.910561e+001 -2.664970e+001  2.177670e+001
      vertex -1.510561e+001 -2.739030e+001  1.800000e+001
      vertex -1.510561e+001 -2.664970e+001  2.177670e+001
    endloop
  endfacet
  facet normal  0.000000e+000 -8.359590e-001  5.487918e-001
    outer loop
      vertex -1.910561e+001 -2.664970e+001  2.177670e+001
      vertex -1.510561e+001 -2.664970e+001  2.177670e+001
      vertex -1.910561e+001 -2.453760e+001  2.499400e+001
    endloop
  endfacet
  facet normal  0.000000e+000 -8.359590e-001  5.487918e-001
    outer loop
      vertex -1.910561e+001 -2.453760e+001  2.499400e+001
      vertex -1.510561e+001 -2.664970e+001  2.177670e+001
      vertex -1.510561e+001 -2.453760e+001  2.499400e+001
    endloop
  endfacet
  facet normal  0.000000e+000 -5.667852e-001  8.238656e-001
    outer loop
      vertex -1.910561e+001 -2.453760e+001  2.499400e+001
      vertex -1.510561e+001 -2.453760e+001  2.499400e+001
      vertex -1.910561e+001 -2.136685e+001  2.717535e+001
    endloop
  endfacet
  facet normal  0.000000e+000 -5.667852e-001  8.238656e-001
    outer loop
      vertex -1.910561e+001 -2.136685e+001  2.717535e+001
      vertex -1.510561e+001 -2.453760e+001  2.499400e+001
      vertex -1.510561e+001 -2.136685e+001  2.717535e+001
    endloop
  endfacet
  facet normal  0.000000e+000 -2.136598e-001  9.769081e-001
    outer loop
      vertex -1.910561e+001 -2.136685e+001  2.717535e+001
      vertex -1.510561e+001 -2.136685e+001  2.717535e+001
      vertex -1.910561e+001 -1.760709e+001  2.799765e+001
    endloop
  endfacet
  facet normal  0.000000e+000 -2.136598e-001  9.769081e-001
    outer loop
      vertex -1.910561e+001 -1.760709e+001  2.799765e+001
      vertex -1.510561e+001 -2.136685e+001  2.717535e+001
      vertex -1.510561e+001 -1.760709e+001  2.799765e+001
    endloop
  endfacet
  facet normal  0.000000e+000  1.711132e-001  9.852514e-001
    outer loop
      vertex -1.910561e+001 -1.760709e+001  2.799765e+001
      vertex -1.510561e+001 -1.760709e+001  2.799765e+001
      vertex -1.910561e+001 -1.381521e+001  2.733910e+001
    endloop
  endfacet
  facet normal  -0.000000e+000  1.711132e-001  9.852514e-001
    outer loop
      vertex -1.910561e+001 -1.381521e+001  2.733910e+001
      vertex -1.510561e+001 -1.760709e+001  2.799765e+001
      vertex -1.510561e+001 -1.381521e+001  2.733910e+001
    endloop
  endfacet
  facet normal  0.000000e+000  5.305408e-001  8.476593e-001
    outer loop
      vertex -1.910561e+001 -1.381521e+001  2.733910e+001
      vertex -1.510561e+001 -1.381521e+001  2.733910e+001
      vertex -1.910561e+001 -1.055288e+001  2.529724e+001
    endloop
  endfacet
  facet normal  -0.000000e+000  5.305408e-001  8.476593e-001
    outer loop
      vertex -1.910561e+001 -1.055288e+001  2.529724e+001
      vertex -1.510561e+001 -1.381521e+001  2.733910e+001
      vertex -1.510561e+001 -1.055288e+001  2.529724e+001
    endloop
  endfacet
  facet normal  0.000000e+000  8.113849e-001  5.845124e-001
    outer loop
      vertex -1.910561e+001 -1.055288e+001  2.529724e+001
      vertex -1.510561e+001 -1.055288e+001  2.529724e+001
      vertex -1.910561e+001 -8.303310e+000  2.217452e+001
    endloop
  endfacet
  facet normal  -0.000000e+000  8.113849e-001  5.845124e-001
    outer loop
      vertex -1.910561e+001 -8.303310e+000  2.217452e+001
      vertex -1.510561e+001 -1.055288e+001  2.529724e+001
      vertex -1.510561e+001 -8.303310e+000  2.217452e+001
    endloop
  endfacet
  facet normal  -0.000000e+000  9.086990e-001  4.174519e-001
    outer loop
      vertex -1.510561e+001 -4.134197e-001  5.000000e+000
      vertex -1.910561e+001 -4.134197e-001  5.000000e+000
      vertex -1.510561e+001 -8.303310e+000  2.217452e+001
    endloop
  endfacet
  facet normal  0.000000e+000  9.086990e-001  4.174519e-001
    outer loop
      vertex -1.510561e+001 -8.303310e+000  2.217452e+001
      vertex -1.910561e+001 -4.134197e-001  5.000000e+000
      vertex -1.910561e+001 -8.303310e+000  2.217452e+001
    endloop
  endfacet
  facet normal  0.000000e+000  0.000000e+000 -1.000000e+000
    outer loop
      vertex -1.510561e+001 -2.739030e+001  5.000000e+000
      vertex -1.910561e+001 -2.739030e+001  5.000000e+000
      vertex -1.510561e+001 -4.134197e-001  5.000000e+000
    endloop
  endfacet
  facet normal  -0.000000e+000  0.000000e+000 -1.000000e+000
    outer loop
      vertex -1.510561e+001 -4.134197e-001  5.000000e+000
      vertex -1.910561e+001 -2.739030e+001  5.000000e+000
      vertex -1.910561e+001 -4.134197e-001  5.000000e+000
    endloop
  endfacet
  facet normal  0.000000e+000  0.000000e+000  1.000000e+000
    outer loop
      vertex -3.010561e+001 -2.739030e+001  5.000000e+000
      vertex -1.510561e+001 -2.739030e+001  5.000000e+000
      vertex -3.010561e+001 -4.133008e-001  5.000000e+000
    endloop
  endfacet
  facet normal  -0.000000e+000  0.000000e+000  1.000000e+000
    outer loop
      vertex -3.010561e+001 -4.133008e-001  5.000000e+000
      vertex -1.510561e+001 -2.739030e+001  5.000000e+000
      vertex -1.510561e+001 -4.133008e-001  5.000000e+000
    endloop
  endfacet
  facet normal  0.000000e+000  0.000000e+000 -1.000000e+000
    outer loop
      vertex -3.010561e+001 -2.739030e+001  0.000000e+000
      vertex -3.010561e+001 -4.133008e-001  0.000000e+000
      vertex -1.510561e+001 -2.739030e+001  0.000000e+000
    endloop
  endfacet
  facet normal  0.000000e+000  0.000000e+000 -1.000000e+000
    outer loop
      vertex -1.510561e+001 -2.739030e+001  0.000000e+000
      vertex -3.010561e+001 -4.133008e-001  0.000000e+000
      vertex -1.510561e+001 -4.133008e-001  0.000000e+000
    endloop
  endfacet
  facet normal  0.000000e+000  1.000000e+000  0.000000e+000
    outer loop
      vertex -3.010561e+001 -4.133008e-001  5.000000e+000
      vertex -1.510561e+001 -4.133008e-001  5.000000e+000
      vertex -3.010561e+001 -4.133008e-001  0.000000e+000
    endloop
  endfacet
  facet normal  0.000000e+000  1.000000e+000  0.000000e+000
    outer loop
      vertex -3.010561e+001 -4.133008e-001  0.000000e+000
      vertex -1.510561e+001 -4.133008e-001  5.000000e+000
      vertex -1.510561e+001 -4.133008e-001  0.000000e+000
    endloop
  endfacet
  facet normal  1.000000e+000  0.000000e+000  0.000000e+000
    outer loop
      vertex -1.510561e+001 -2.739030e+001  5.000000e+000
      vertex -1.510561e+001 -2.739030e+001  0.000000e+000
      vertex -1.510561e+001 -4.133008e-001  5.000000e+000
    endloop
  endfacet
  facet normal  1.000000e+000  0.000000e+000  0.000000e+000
    outer loop
      vertex -1.510561e+001 -4.133008e-001  5.000000e+000
      vertex -1.510561e+001 -2.739030e+001  0.000000e+000
      vertex -1.510561e+001 -4.133008e-001  0.000000e+000
    endloop
  endfacet
  facet normal  0.000000e+000 -1.000000e+000  0.000000e+000
    outer loop
      vertex -1.510561e+001 -2.739030e+001  5.000000e+000
      vertex -3.010561e+001 -2.739030e+001  5.000000e+000
      vertex -1.510561e+001 -2.739030e+001  0.000000e+000
    endloop
  endfacet
  facet normal  0.000000e+000 -1.000000e+000  0.000000e+000
    outer loop
      vertex -1.510561e+001 -2.739030e+001  0.000000e+000
      vertex -3.010561e+001 -2.739030e+001  5.000000e+000
      vertex -3.010561e+001 -2.739030e+001  0.000000e+000
    endloop
  endfacet
  facet normal -1.000000e+000  0.000000e+000  0.000000e+000
    outer loop
      vertex -3.010561e+001 -4.133008e-001  5.000000e+000
      vertex -3.010561e+001 -4.133008e-001  0.000000e+000
      vertex -3.010561e+001 -2.739030e+001  5.000000e+000
    endloop
  endfacet
  facet normal -1.000000e+000  0.000000e+000  0.000000e+000
    outer loop
      vertex -3.010561e+001 -2.739030e+001  5.000000e+000
      vertex -3.010561e+001 -4.133008e-001  0.000000e+000
      vertex -3.010561e+001 -2.739030e+001  0.000000e+000
    endloop
  endfacet
  facet normal  9.999999e-001  -0.000000e+000  0.000000e+000
    outer loop
      vertex -2.610561e+001 -8.303310e+000  2.217452e+001
      vertex -2.610561e+001 -1.637054e+001  2.113849e+001
      vertex -2.610561e+001 -1.472054e+001  1.993969e+001
    endloop
  endfacet
  facet normal  1.000000e+000  0.000000e+000  0.000000e+000
    outer loop
      vertex -2.610561e+001 -2.739030e+001  5.000000e+000
      vertex -2.610561e+001 -4.134197e-001  5.000000e+000
      vertex -2.610561e+001 -1.637054e+001  1.486151e+001
    endloop
  endfacet
  facet normal  1.000000e+000  0.000000e+000  0.000000e+000
    outer loop
      vertex -2.610561e+001 -2.739030e+001  5.000000e+000
      vertex -2.610561e+001 -1.637054e+001  1.486151e+001
      vertex -2.610561e+001 -1.841006e+001  1.486151e+001
    endloop
  endfacet
  facet normal  1.000000e+000  0.000000e+000  0.000000e+000
    outer loop
      vertex -2.610561e+001 -2.739030e+001  5.000000e+000
      vertex -2.610561e+001 -1.841006e+001  1.486151e+001
      vertex -2.610561e+001 -2.006006e+001  1.606031e+001
    endloop
  endfacet
  facet normal  1.000000e+000  0.000000e+000  0.000000e+000
    outer loop
      vertex -2.610561e+001 -2.739030e+001  5.000000e+000
      vertex -2.610561e+001 -2.006006e+001  1.606031e+001
      vertex -2.610561e+001 -2.069030e+001  1.800000e+001
    endloop
  endfacet
  facet normal  9.999999e-001  0.000000e+000  0.000000e+000
    outer loop
      vertex -2.610561e+001 -2.739030e+001  5.000000e+000
      vertex -2.610561e+001 -2.069030e+001  1.800000e+001
      vertex -2.610561e+001 -2.739030e+001  1.800000e+001
    endloop
  endfacet
  facet normal  1.000000e+000  0.000000e+000  0.000000e+000
    outer loop
      vertex -2.610561e+001 -4.134197e-001  5.000000e+000
      vertex -2.610561e+001 -8.303310e+000  2.217452e+001
      vertex -2.610561e+001 -1.472054e+001  1.993969e+001
    endloop
  endfacet
  facet normal  1.000000e+000  0.000000e+000  0.000000e+000
    outer loop
      vertex -2.610561e+001 -4.134197e-001  5.000000e+000
      vertex -2.610561e+001 -1.472054e+001  1.993969e+001
      vertex -2.610561e+001 -1.409030e+001  1.800000e+001
    endloop
  endfacet
  facet normal  1.000000e+000  0.000000e+000  0.000000e+000
    outer loop
      vertex -2.610561e+001 -4.134197e-001  5.000000e+000
      vertex -2.610561e+001 -1.409030e+001  1.800000e+001
      vertex -2.610561e+001 -1.472054e+001  1.606031e+001
    endloop
  endfacet
  facet normal  1.000000e+000  0.000000e+000  0.000000e+000
    outer loop
      vertex -2.610561e+001 -4.134197e-001  5.000000e+000
      vertex -2.610561e+001 -1.472054e+001  1.606031e+001
      vertex -2.610561e+001 -1.637054e+001  1.486151e+001
    endloop
  endfacet
  facet normal  1.000000e+000  0.000000e+000  0.000000e+000
    outer loop
      vertex -2.610561e+001 -8.303310e+000  2.217452e+001
      vertex -2.610561e+001 -1.055288e+001  2.529724e+001
      vertex -2.610561e+001 -1.637054e+001  2.113849e+001
    endloop
  endfacet
  facet normal  1.000000e+000  0.000000e+000  0.000000e+000
    outer loop
      vertex -2.610561e+001 -1.637054e+001  2.113849e+001
      vertex -2.610561e+001 -1.055288e+001  2.529724e+001
      vertex -2.610561e+001 -1.381521e+001  2.733910e+001
    endloop
  endfacet
  facet normal  1.000000e+000  0.000000e+000  0.000000e+000
    outer loop
      vertex -2.610561e+001 -1.637054e+001  2.113849e+001
      vertex -2.610561e+001 -1.381521e+001  2.733910e+001
      vertex -2.610561e+001 -1.841006e+001  2.113849e+001
    endloop
  endfacet
  facet normal  1.000000e+000  0.000000e+000  0.000000e+000
    outer loop
      vertex -2.610561e+001 -1.841006e+001  2.113849e+001
      vertex -2.610561e+001 -1.381521e+001  2.733910e+001
      vertex -2.610561e+001 -1.760709e+001  2.799765e+001
    endloop
  endfacet
  facet normal  1.000000e+000  0.000000e+000  0.000000e+000
    outer loop
      vertex -2.610561e+001 -1.841006e+001  2.113849e+001
      vertex -2.610561e+001 -1.760709e+001  2.799765e+001
      vertex -2.610561e+001 -2.664970e+001  2.177670e+001
    endloop
  endfacet
  facet normal  1.000000e+000  0.000000e+000  0.000000e+000
    outer loop
      vertex -2.610561e+001 -2.664970e+001  2.177670e+001
      vertex -2.610561e+001 -1.760709e+001  2.799765e+001
      vertex -2.610561e+001 -2.136685e+001  2.717535e+001
    endloop
  endfacet
  facet normal  1.000000e+000  0.000000e+000  0.000000e+000
    outer loop
      vertex -2.610561e+001 -2.664970e+001  2.177670e+001
      vertex -2.610561e+001 -2.136685e+001  2.717535e+001
      vertex -2.610561e+001 -2.453760e+001  2.499400e+001
    endloop
  endfacet
  facet normal  1.000000e+000  0.000000e+000  0.000000e+000
    outer loop
      vertex -2.610561e+001 -1.841006e+001  2.113849e+001
      vertex -2.610561e+001 -2.664970e+001  2.177670e+001
      vertex -2.610561e+001 -2.006006e+001  1.993969e+001
    endloop
  endfacet
  facet normal  1.000000e+000  0.000000e+000  0.000000e+000
    outer loop
      vertex -2.610561e+001 -2.006006e+001  1.993969e+001
      vertex -2.610561e+001 -2.664970e+001  2.177670e+001
      vertex -2.610561e+001 -2.739030e+001  1.800000e+001
    endloop
  endfacet
  facet normal  9.999999e-001  0.000000e+000  0.000000e+000
    outer loop
      vertex -2.610561e+001 -2.006006e+001  1.993969e+001
      vertex -2.610561e+001 -2.739030e+001  1.800000e+001
      vertex -2.610561e+001 -2.069030e+001  1.800000e+001
    endloop
  endfacet
  facet normal -9.999999e-001  0.000000e+000  0.000000e+000
    outer loop
      vertex -3.010561e+001 -1.472054e+001  1.993969e+001
      vertex -3.010561e+001 -1.637054e+001  2.113849e+001
      vertex -3.010561e+001 -8.303310e+000  2.217452e+001
    endloop
  endfacet
  facet normal -9.999999e-001  0.000000e+000  0.000000e+000
    outer loop
      vertex -3.010561e+001 -2.739030e+001  5.000000e+000
      vertex -3.010561e+001 -2.739030e+001  1.800000e+001
      vertex -3.010561e+001 -2.069030e+001  1.800000e+001
    endloop
  endfacet
  facet normal -1.000000e+000  0.000000e+000  -0.000000e+000
    outer loop
      vertex -3.010561e+001 -2.739030e+001  5.000000e+000
      vertex -3.010561e+001 -2.069030e+001  1.800000e+001
      vertex -3.010561e+001 -2.006006e+001  1.606031e+001
    endloop
  endfacet
  facet normal -1.000000e+000  0.000000e+000  -0.000000e+000
    outer loop
      vertex -3.010561e+001 -2.739030e+001  5.000000e+000
      vertex -3.010561e+001 -2.006006e+001  1.606031e+001
      vertex -3.010561e+001 -1.841006e+001  1.486151e+001
    endloop
  endfacet
  facet normal -1.000000e+000  0.000000e+000  -0.000000e+000
    outer loop
      vertex -3.010561e+001 -2.739030e+001  5.000000e+000
      vertex -3.010561e+001 -1.841006e+001  1.486151e+001
      vertex -3.010561e+001 -1.637054e+001  1.486151e+001
    endloop
  endfacet
  facet normal -1.000000e+000  0.000000e+000  -0.000000e+000
    outer loop
      vertex -3.010561e+001 -2.739030e+001  5.000000e+000
      vertex -3.010561e+001 -1.637054e+001  1.486151e+001
      vertex -3.010561e+001 -4.134197e-001  5.000000e+000
    endloop
  endfacet
  facet normal -1.000000e+000  0.000000e+000  0.000000e+000
    outer loop
      vertex -3.010561e+001 -4.134197e-001  5.000000e+000
      vertex -3.010561e+001 -1.637054e+001  1.486151e+001
      vertex -3.010561e+001 -1.472054e+001  1.606031e+001
    endloop
  endfacet
  facet normal -1.000000e+000  0.000000e+000  0.000000e+000
    outer loop
      vertex -3.010561e+001 -4.134197e-001  5.000000e+000
      vertex -3.010561e+001 -1.472054e+001  1.606031e+001
      vertex -3.010561e+001 -1.409030e+001  1.800000e+001
    endloop
  endfacet
  facet normal -1.000000e+000  0.000000e+000  0.000000e+000
    outer loop
      vertex -3.010561e+001 -4.134197e-001  5.000000e+000
      vertex -3.010561e+001 -1.409030e+001  1.800000e+001
      vertex -3.010561e+001 -1.472054e+001  1.993969e+001
    endloop
  endfacet
  facet normal -1.000000e+000  0.000000e+000  0.000000e+000
    outer loop
      vertex -3.010561e+001 -4.134197e-001  5.000000e+000
      vertex -3.010561e+001 -1.472054e+001  1.993969e+001
      vertex -3.010561e+001 -8.303310e+000  2.217452e+001
    endloop
  endfacet
  facet normal -1.000000e+000  0.000000e+000  0.000000e+000
    outer loop
      vertex -3.010561e+001 -2.453760e+001  2.499400e+001
      vertex -3.010561e+001 -2.136685e+001  2.717535e+001
      vertex -3.010561e+001 -2.664970e+001  2.177670e+001
    endloop
  endfacet
  facet normal -1.000000e+000  0.000000e+000  0.000000e+000
    outer loop
      vertex -3.010561e+001 -2.664970e+001  2.177670e+001
      vertex -3.010561e+001 -2.136685e+001  2.717535e+001
      vertex -3.010561e+001 -1.760709e+001  2.799765e+001
    endloop
  endfacet
  facet normal -1.000000e+000  0.000000e+000  0.000000e+000
    outer loop
      vertex -3.010561e+001 -2.664970e+001  2.177670e+001
      vertex -3.010561e+001 -1.760709e+001  2.799765e+001
      vertex -3.010561e+001 -1.841006e+001  2.113849e+001
    endloop
  endfacet
  facet normal -1.000000e+000  0.000000e+000  0.000000e+000
    outer loop
      vertex -3.010561e+001 -1.841006e+001  2.113849e+001
      vertex -3.010561e+001 -1.760709e+001  2.799765e+001
      vertex -3.010561e+001 -1.381521e+001  2.733910e+001
    endloop
  endfacet
  facet normal -1.000000e+000  0.000000e+000  0.000000e+000
    outer loop
      vertex -3.010561e+001 -1.841006e+001  2.113849e+001
      vertex -3.010561e+001 -1.381521e+001  2.733910e+001
      vertex -3.010561e+001 -1.637054e+001  2.113849e+001
    endloop
  endfacet
  facet normal -1.000000e+000  0.000000e+000  0.000000e+000
    outer loop
      vertex -3.010561e+001 -1.637054e+001  2.113849e+001
      vertex -3.010561e+001 -1.381521e+001  2.733910e+001
      vertex -3.010561e+001 -1.055288e+001  2.529724e+001
    endloop
  endfacet
  facet normal -1.000000e+000  0.000000e+000  -0.000000e+000
    outer loop
      vertex -3.010561e+001 -1.637054e+001  2.113849e+001
      vertex -3.010561e+001 -1.055288e+001  2.529724e+001
      vertex -3.010561e+001 -8.303310e+000  2.217452e+001
    endloop
  endfacet
  facet normal -9.999999e-001  0.000000e+000  0.000000e+000
    outer loop
      vertex -3.010561e+001 -2.069030e+001  1.800000e+001
      vertex -3.010561e+001 -2.739030e+001  1.800000e+001
      vertex -3.010561e+001 -2.006006e+001  1.993969e+001
    endloop
  endfacet
  facet normal -1.000000e+000  -0.000000e+000  0.000000e+000
    outer loop
      vertex -3.010561e+001 -2.006006e+001  1.993969e+001
      vertex -3.010561e+001 -2.739030e+001  1.800000e+001
      vertex -3.010561e+001 -2.664970e+001  2.177670e+001
    endloop
  endfacet
  facet normal -1.000000e+000  0.000000e+000  0.000000e+000
    outer loop
      vertex -3.010561e+001 -2.006006e+001  1.993969e+001
      vertex -3.010561e+001 -2.664970e+001  2.177670e+001
      vertex -3.010561e+001 -1.841006e+001  2.113849e+001
    endloop
  endfacet
  facet normal  0.000000e+000  5.877854e-001 -8.090169e-001
    outer loop
      vertex -3.010561e+001 -1.841006e+001  2.113849e+001
      vertex -2.610561e+001 -2.006006e+001  1.993969e+001
      vertex -3.010561e+001 -2.006006e+001  1.993969e+001
    endloop
  endfacet
  facet normal  0.000000e+000  9.510566e-001 -3.090167e-001
    outer loop
      vertex -3.010561e+001 -2.006006e+001  1.993969e+001
      vertex -2.610561e+001 -2.006006e+001  1.993969e+001
      vertex -2.610561e+001 -2.069030e+001  1.800000e+001
    endloop
  endfacet
  facet normal  0.000000e+000  9.510566e-001 -3.090167e-001
    outer loop
      vertex -3.010561e+001 -2.006006e+001  1.993969e+001
      vertex -2.610561e+001 -2.069030e+001  1.800000e+001
      vertex -3.010561e+001 -2.069030e+001  1.800000e+001
    endloop
  endfacet
  facet normal  0.000000e+000  5.877854e-001 -8.090169e-001
    outer loop
      vertex -2.610561e+001 -2.006006e+001  1.993969e+001
      vertex -3.010561e+001 -1.841006e+001  2.113849e+001
      vertex -2.610561e+001 -1.841006e+001  2.113849e+001
    endloop
  endfacet
  facet normal  0.000000e+000  0.000000e+000 -1.000000e+000
    outer loop
      vertex -2.610561e+001 -1.841006e+001  2.113849e+001
      vertex -3.010561e+001 -1.841006e+001  2.113849e+001
      vertex -3.010561e+001 -1.637054e+001  2.113849e+001
    endloop
  endfacet
  facet normal  0.000000e+000  0.000000e+000 -1.000000e+000
    outer loop
      vertex -2.610561e+001 -1.841006e+001  2.113849e+001
      vertex -3.010561e+001 -1.637054e+001  2.113849e+001
      vertex -2.610561e+001 -1.637054e+001  2.113849e+001
    endloop
  endfacet
  facet normal  -0.000000e+000 -5.877854e-001 -8.090169e-001
    outer loop
      vertex -2.610561e+001 -1.637054e+001  2.113849e+001
      vertex -3.010561e+001 -1.637054e+001  2.113849e+001
      vertex -3.010561e+001 -1.472054e+001  1.993969e+001
    endloop
  endfacet
  facet normal  0.000000e+000 -5.877854e-001 -8.090169e-001
    outer loop
      vertex -2.610561e+001 -1.637054e+001  2.113849e+001
      vertex -3.010561e+001 -1.472054e+001  1.993969e+001
      vertex -2.610561e+001 -1.472054e+001  1.993969e+001
    endloop
  endfacet
  facet normal  -0.000000e+000 -9.510565e-001 -3.090171e-001
    outer loop
      vertex -2.610561e+001 -1.472054e+001  1.993969e+001
      vertex -3.010561e+001 -1.472054e+001  1.993969e+001
      vertex -3.010561e+001 -1.409030e+001  1.800000e+001
    endloop
  endfacet
  facet normal  0.000000e+000 -9.510565e-001 -3.090171e-001
    outer loop
      vertex -2.610561e+001 -1.472054e+001  1.993969e+001
      vertex -3.010561e+001 -1.409030e+001  1.800000e+001
      vertex -2.610561e+001 -1.409030e+001  1.800000e+001
    endloop
  endfacet
  facet normal  0.000000e+000 -5.877854e-001  8.090169e-001
    outer loop
      vertex -3.010561e+001 -1.637054e+001  1.486151e+001
      vertex -2.610561e+001 -1.472054e+001  1.606031e+001
      vertex -3.010561e+001 -1.472054e+001  1.606031e+001
    endloop
  endfacet
  facet normal  0.000000e+000 -9.510565e-001  3.090171e-001
    outer loop
      vertex -3.010561e+001 -1.472054e+001  1.606031e+001
      vertex -2.610561e+001 -1.472054e+001  1.606031e+001
      vertex -2.610561e+001 -1.409030e+001  1.800000e+001
    endloop
  endfacet
  facet normal  0.000000e+000 -9.510565e-001  3.090171e-001
    outer loop
      vertex -3.010561e+001 -1.472054e+001  1.606031e+001
      vertex -2.610561e+001 -1.409030e+001  1.800000e+001
      vertex -3.010561e+001 -1.409030e+001  1.800000e+001
    endloop
  endfacet
  facet normal  0.000000e+000 -5.877854e-001  8.090169e-001
    outer loop
      vertex -2.610561e+001 -1.472054e+001  1.606031e+001
      vertex -3.010561e+001 -1.637054e+001  1.486151e+001
      vertex -2.610561e+001 -1.637054e+001  1.486151e+001
    endloop
  endfacet
  facet normal  0.000000e+000  0.000000e+000  1.000000e+000
    outer loop
      vertex -2.610561e+001 -1.637054e+001  1.486151e+001
      vertex -3.010561e+001 -1.637054e+001  1.486151e+001
      vertex -3.010561e+001 -1.841006e+001  1.486151e+001
    endloop
  endfacet
  facet normal  0.000000e+000  0.000000e+000  1.000000e+000
    outer loop
      vertex -2.610561e+001 -1.637054e+001  1.486151e+001
      vertex -3.010561e+001 -1.841006e+001  1.486151e+001
      vertex -2.610561e+001 -1.841006e+001  1.486151e+001
    endloop
  endfacet
  facet normal  0.000000e+000  5.877854e-001  8.090169e-001
    outer loop
      vertex -2.610561e+001 -1.841006e+001  1.486151e+001
      vertex -3.010561e+001 -1.841006e+001  1.486151e+001
      vertex -3.010561e+001 -2.006006e+001  1.606031e+001
    endloop
  endfacet
  facet normal  -0.000000e+000  5.877854e-001  8.090169e-001
    outer loop
      vertex -2.610561e+001 -1.841006e+001  1.486151e+001
      vertex -3.010561e+001 -2.006006e+001  1.606031e+001
      vertex -2.610561e+001 -2.006006e+001  1.606031e+001
    endloop
  endfacet
  facet normal  0.000000e+000  9.510566e-001  3.090167e-001
    outer loop
      vertex -2.610561e+001 -2.006006e+001  1.606031e+001
      vertex -3.010561e+001 -2.006006e+001  1.606031e+001
      vertex -3.010561e+001 -2.069030e+001  1.800000e+001
    endloop
  endfacet
  facet normal  -0.000000e+000  9.510566e-001  3.090167e-001
    outer loop
      vertex -2.610561e+001 -2.006006e+001  1.606031e+001
      vertex -3.010561e+001 -2.069030e+001  1.800000e+001
      vertex -2.610561e+001 -2.069030e+001  1.800000e+001
    endloop
  endfacet
  facet normal  0.000000e+000 -1.000000e+000  0.000000e+000
    outer loop
      vertex -2.610561e+001 -2.739030e+001  1.800000e+001
      vertex -3.010561e+001 -2.739030e+001  1.800000e+001
      vertex -2.610561e+001 -2.739030e+001  5.000000e+000
    endloop
  endfacet
  facet normal  0.000000e+000 -1.000000e+000  0.000000e+000
    outer loop
      vertex -2.610561e+001 -2.739030e+001  5.000000e+000
      vertex -3.010561e+001 -2.739030e+001  1.800000e+001
      vertex -3.010561e+001 -2.739030e+001  5.000000e+000
    endloop
  endfacet
  facet normal  0.000000e+000 -9.813104e-001  1.924317e-001
    outer loop
      vertex -3.010561e+001 -2.739030e+001  1.800000e+001
      vertex -2.610561e+001 -2.739030e+001  1.800000e+001
      vertex -3.010561e+001 -2.664970e+001  2.177670e+001
    endloop
  endfacet
  facet normal  0.000000e+000 -9.813104e-001  1.924317e-001
    outer loop
      vertex -3.010561e+001 -2.664970e+001  2.177670e+001
      vertex -2.610561e+001 -2.739030e+001  1.800000e+001
      vertex -2.610561e+001 -2.664970e+001  2.177670e+001
    endloop
  endfacet
  facet normal  0.000000e+000 -8.359590e-001  5.487918e-001
    outer loop
      vertex -3.010561e+001 -2.664970e+001  2.177670e+001
      vertex -2.610561e+001 -2.664970e+001  2.177670e+001
      vertex -3.010561e+001 -2.453760e+001  2.499400e+001
    endloop
  endfacet
  facet normal  0.000000e+000 -8.359590e-001  5.487918e-001
    outer loop
      vertex -3.010561e+001 -2.453760e+001  2.499400e+001
      vertex -2.610561e+001 -2.664970e+001  2.177670e+001
      vertex -2.610561e+001 -2.453760e+001  2.499400e+001
    endloop
  endfacet
  facet normal  0.000000e+000 -5.667852e-001  8.238656e-001
    outer loop
      vertex -3.010561e+001 -2.453760e+001  2.499400e+001
      vertex -2.610561e+001 -2.453760e+001  2.499400e+001
      vertex -3.010561e+001 -2.136685e+001  2.717535e+001
    endloop
  endfacet
  facet normal  0.000000e+000 -5.667852e-001  8.238656e-001
    outer loop
      vertex -3.010561e+001 -2.136685e+001  2.717535e+001
      vertex -2.610561e+001 -2.453760e+001  2.499400e+001
      vertex -2.610561e+001 -2.136685e+001  2.717535e+001
    endloop
  endfacet
  facet normal  0.000000e+000 -2.136598e-001  9.769081e-001
    outer loop
      vertex -3.010561e+001 -2.136685e+001  2.717535e+001
      vertex -2.610561e+001 -2.136685e+001  2.717535e+001
      vertex -3.010561e+001 -1.760709e+001  2.799765e+001
    endloop
  endfacet
  facet normal  0.000000e+000 -2.136598e-001  9.769081e-001
    outer loop
      vertex -3.010561e+001 -1.760709e+001  2.799765e+001
      vertex -2.610561e+001 -2.136685e+001  2.717535e+001
      vertex -2.610561e+001 -1.760709e+001  2.799765e+001
    endloop
  endfacet
  facet normal  0.000000e+000  1.711132e-001  9.852514e-001
    outer loop
      vertex -3.010561e+001 -1.760709e+001  2.799765e+001
      vertex -2.610561e+001 -1.760709e+001  2.799765e+001
      vertex -3.010561e+001 -1.381521e+001  2.733910e+001
    endloop
  endfacet
  facet normal  -0.000000e+000  1.711132e-001  9.852514e-001
    outer loop
      vertex -3.010561e+001 -1.381521e+001  2.733910e+001
      vertex -2.610561e+001 -1.760709e+001  2.799765e+001
      vertex -2.610561e+001 -1.381521e+001  2.733910e+001
    endloop
  endfacet
  facet normal  0.000000e+000  5.305408e-001  8.476593e-001
    outer loop
      vertex -3.010561e+001 -1.381521e+001  2.733910e+001
      vertex -2.610561e+001 -1.381521e+001  2.733910e+001
      vertex -3.010561e+001 -1.055288e+001  2.529724e+001
    endloop
  endfacet
  facet normal  -0.000000e+000  5.305408e-001  8.476593e-001
    outer loop
      vertex -3.010561e+001 -1.055288e+001  2.529724e+001
      vertex -2.610561e+001 -1.381521e+001  2.733910e+001
      vertex -2.610561e+001 -1.055288e+001  2.529724e+001
    endloop
  endfacet
  facet normal  0.000000e+000  8.113849e-001  5.845124e-001
    outer loop
      vertex -3.010561e+001 -1.055288e+001  2.529724e+001
      vertex -2.610561e+001 -1.055288e+001  2.529724e+001
      vertex -3.010561e+001 -8.303310e+000  2.217452e+001
    endloop
  endfacet
  facet normal  -0.000000e+000  8.113849e-001  5.845124e-001
    outer loop
      vertex -3.010561e+001 -8.303310e+000  2.217452e+001
      vertex -2.610561e+001 -1.055288e+001  2.529724e+001
      vertex -2.610561e+001 -8.303310e+000  2.217452e+001
    endloop
  endfacet
  facet normal  -0.000000e+000  9.086990e-001  4.174519e-001
    outer loop
      vertex -2.610561e+001 -4.134197e-001  5.000000e+000
      vertex -3.010561e+001 -4.134197e-001  5.000000e+000
      vertex -2.610561e+001 -8.303310e+000  2.217452e+001
    endloop
  endfacet
  facet normal  0.000000e+000  9.086990e-001  4.174519e-001
    outer loop
      vertex -2.610561e+001 -8.303310e+000  2.217452e+001
      vertex -3.010561e+001 -4.134197e-001  5.000000e+000
      vertex -3.010561e+001 -8.303310e+000  2.217452e+001
    endloop
  endfacet
  facet normal  0.000000e+000  0.000000e+000 -1.000000e+000
    outer loop
      vertex -2.610561e+001 -2.739030e+001  5.000000e+000
      vertex -3.010561e+001 -2.739030e+001  5.000000e+000
      vertex -2.610561e+001 -4.134197e-001  5.000000e+000
    endloop
  endfacet
  facet normal  -0.000000e+000  0.000000e+000 -1.000000e+000
    outer loop
      vertex -2.610561e+001 -4.134197e-001  5.000000e+000
      vertex -3.010561e+001 -2.739030e+001  5.000000e+000
      vertex -3.010561e+001 -4.134197e-001  5.000000e+000
    endloop
  endfacet
endsolid CATIA STL
