solid CATIA STL
  facet normal  0.000000e+000  1.000000e+000  0.000000e+000
    outer loop
      vertex  5.889115e+000  3.000000e+000  3.783956e+000
      vertex  9.943328e-001  3.000000e+000  6.929019e+000
      vertex  3.783956e+000  3.000000e+000  5.889115e+000
    endloop
  endfacet
  facet normal  0.000000e+000  1.000000e+000  0.000000e+000
    outer loop
      vertex  5.287358e+000  3.000000e+000 -4.587358e+000
      vertex -2.244663e+001  3.000000e+000 -3.655337e+001
      vertex -2.057119e+001  3.000000e+000 -3.333131e+001
    endloop
  endfacet
  facet normal  0.000000e+000  1.000000e+000  0.000000e+000
    outer loop
      vertex  5.287358e+000  3.000000e+000 -4.587358e+000
      vertex -2.057119e+001  3.000000e+000 -3.333131e+001
      vertex -2.000626e+001  3.000000e+000 -2.964622e+001
    endloop
  endfacet
  facet normal  0.000000e+000  1.000000e+000  0.000000e+000
    outer loop
      vertex  5.287358e+000  3.000000e+000 -4.587358e+000
      vertex -2.000626e+001  3.000000e+000 -2.964622e+001
      vertex -9.579527e-001  3.000000e+000 -2.948275e+000
    endloop
  endfacet
  facet normal  -0.000000e+000  1.000000e+000  0.000000e+000
    outer loop
      vertex  5.287358e+000  3.000000e+000 -4.587358e+000
      vertex -9.579527e-001  3.000000e+000 -2.948275e+000
      vertex  9.579527e-001  3.000000e+000 -2.948275e+000
    endloop
  endfacet
  facet normal  -0.000000e+000  9.999999e-001  0.000000e+000
    outer loop
      vertex  5.287358e+000  3.000000e+000 -4.587358e+000
      vertex  9.579527e-001  3.000000e+000 -2.948275e+000
      vertex  2.507953e+000  3.000000e+000 -1.822134e+000
    endloop
  endfacet
  facet normal  0.000000e+000  1.000000e+000  0.000000e+000
    outer loop
      vertex  5.287358e+000  3.000000e+000 -4.587358e+000
      vertex  2.507953e+000  3.000000e+000 -1.822134e+000
      vertex  6.715562e+000  3.000000e+000 -1.975151e+000
    endloop
  endfacet
  facet normal  0.000000e+000  1.000000e+000  -0.000000e+000
    outer loop
      vertex -9.579527e-001  3.000000e+000 -2.948275e+000
      vertex -2.000626e+001  3.000000e+000 -2.964622e+001
      vertex -2.083035e+001  3.000000e+000 -2.601032e+001
    endloop
  endfacet
  facet normal  0.000000e+000  1.000000e+000  -0.000000e+000
    outer loop
      vertex -9.579527e-001  3.000000e+000 -2.948275e+000
      vertex -2.083035e+001  3.000000e+000 -2.601032e+001
      vertex -2.292893e+001  3.000000e+000 -2.292893e+001
    endloop
  endfacet
  facet normal  0.000000e+000  1.000000e+000  -0.000000e+000
    outer loop
      vertex -9.579527e-001  3.000000e+000 -2.948275e+000
      vertex -2.292893e+001  3.000000e+000 -2.292893e+001
      vertex -2.601032e+001  3.000000e+000 -2.083035e+001
    endloop
  endfacet
  facet normal  0.000000e+000  9.999999e-001  -0.000000e+000
    outer loop
      vertex -9.579527e-001  3.000000e+000 -2.948275e+000
      vertex -2.601032e+001  3.000000e+000 -2.083035e+001
      vertex -2.964622e+001  3.000000e+000 -2.000626e+001
    endloop
  endfacet
  facet normal  0.000000e+000  1.000000e+000  -0.000000e+000
    outer loop
      vertex -9.579527e-001  3.000000e+000 -2.948275e+000
      vertex -2.964622e+001  3.000000e+000 -2.000626e+001
      vertex -3.333131e+001  3.000000e+000 -2.057119e+001
    endloop
  endfacet
  facet normal  0.000000e+000  9.999999e-001  0.000000e+000
    outer loop
      vertex -9.579527e-001  3.000000e+000 -2.948275e+000
      vertex -3.333131e+001  3.000000e+000 -2.057119e+001
      vertex -2.507953e+000  3.000000e+000 -1.822134e+000
    endloop
  endfacet
  facet normal  0.000000e+000  1.000000e+000  0.000000e+000
    outer loop
      vertex -3.655337e+001  3.000000e+000 -2.244663e+001
      vertex -4.587358e+000  3.000000e+000  5.287358e+000
      vertex -9.579527e-001  3.000000e+000  2.948275e+000
    endloop
  endfacet
  facet normal  0.000000e+000  1.000000e+000  0.000000e+000
    outer loop
      vertex -3.655337e+001  3.000000e+000 -2.244663e+001
      vertex -9.579527e-001  3.000000e+000  2.948275e+000
      vertex -2.507953e+000  3.000000e+000  1.822134e+000
    endloop
  endfacet
  facet normal  0.000000e+000  1.000000e+000  0.000000e+000
    outer loop
      vertex -3.655337e+001  3.000000e+000 -2.244663e+001
      vertex -2.507953e+000  3.000000e+000  1.822134e+000
      vertex -3.100000e+000  3.000000e+000  0.000000e+000
    endloop
  endfacet
  facet normal  0.000000e+000  9.999999e-001  0.000000e+000
    outer loop
      vertex -3.655337e+001  3.000000e+000 -2.244663e+001
      vertex -3.100000e+000  3.000000e+000  0.000000e+000
      vertex -2.507953e+000  3.000000e+000 -1.822134e+000
    endloop
  endfacet
  facet normal  0.000000e+000  1.000000e+000  0.000000e+000
    outer loop
      vertex -3.655337e+001  3.000000e+000 -2.244663e+001
      vertex -2.507953e+000  3.000000e+000 -1.822134e+000
      vertex -3.333131e+001  3.000000e+000 -2.057119e+001
    endloop
  endfacet
  facet normal  0.000000e+000  1.000000e+000  0.000000e+000
    outer loop
      vertex -4.587358e+000  3.000000e+000  5.287358e+000
      vertex -1.975151e+000  3.000000e+000  6.715562e+000
      vertex -9.579527e-001  3.000000e+000  2.948275e+000
    endloop
  endfacet
  facet normal  0.000000e+000  9.999999e-001  -0.000000e+000
    outer loop
      vertex -9.579527e-001  3.000000e+000  2.948275e+000
      vertex -1.975151e+000  3.000000e+000  6.715562e+000
      vertex  9.943328e-001  3.000000e+000  6.929019e+000
    endloop
  endfacet
  facet normal  0.000000e+000  1.000000e+000  0.000000e+000
    outer loop
      vertex -9.579527e-001  3.000000e+000  2.948275e+000
      vertex  9.943328e-001  3.000000e+000  6.929019e+000
      vertex  9.579527e-001  3.000000e+000  2.948275e+000
    endloop
  endfacet
  facet normal  0.000000e+000  9.999999e-001  0.000000e+000
    outer loop
      vertex  9.579527e-001  3.000000e+000  2.948275e+000
      vertex  9.943328e-001  3.000000e+000  6.929019e+000
      vertex  5.889115e+000  3.000000e+000  3.783956e+000
    endloop
  endfacet
  facet normal  0.000000e+000  1.000000e+000  0.000000e+000
    outer loop
      vertex  9.579527e-001  3.000000e+000  2.948275e+000
      vertex  5.889115e+000  3.000000e+000  3.783956e+000
      vertex  2.507953e+000  3.000000e+000  1.822134e+000
    endloop
  endfacet
  facet normal  -0.000000e+000  9.999999e-001  0.000000e+000
    outer loop
      vertex  2.507953e+000  3.000000e+000  1.822134e+000
      vertex  5.889115e+000  3.000000e+000  3.783956e+000
      vertex  6.929019e+000  3.000000e+000  9.943328e-001
    endloop
  endfacet
  facet normal  0.000000e+000  1.000000e+000  0.000000e+000
    outer loop
      vertex  2.507953e+000  3.000000e+000  1.822134e+000
      vertex  6.929019e+000  3.000000e+000  9.943328e-001
      vertex  3.100000e+000  3.000000e+000  3.796280e-016
    endloop
  endfacet
  facet normal  -0.000000e+000  1.000000e+000  0.000000e+000
    outer loop
      vertex  3.100000e+000  3.000000e+000  3.796280e-016
      vertex  6.929019e+000  3.000000e+000  9.943328e-001
      vertex  6.715562e+000  3.000000e+000 -1.975151e+000
    endloop
  endfacet
  facet normal  0.000000e+000  1.000000e+000  0.000000e+000
    outer loop
      vertex  3.100000e+000  3.000000e+000  3.796280e-016
      vertex  6.715562e+000  3.000000e+000 -1.975151e+000
      vertex  2.507953e+000  3.000000e+000 -1.822134e+000
    endloop
  endfacet
  facet normal  0.000000e+000 -1.000000e+000  0.000000e+000
    outer loop
      vertex  3.783956e+000  0.000000e+000  5.889115e+000
      vertex  9.943328e-001  0.000000e+000  6.929019e+000
      vertex  5.889115e+000  0.000000e+000  3.783956e+000
    endloop
  endfacet
  facet normal  -0.000000e+000 -1.000000e+000  0.000000e+000
    outer loop
      vertex  5.287358e+000  0.000000e+000 -4.587358e+000
      vertex  6.715562e+000  0.000000e+000 -1.975151e+000
      vertex  2.507953e+000  0.000000e+000 -1.822134e+000
    endloop
  endfacet
  facet normal  0.000000e+000 -9.999999e-001  -0.000000e+000
    outer loop
      vertex  5.287358e+000  0.000000e+000 -4.587358e+000
      vertex  2.507953e+000  0.000000e+000 -1.822134e+000
      vertex  9.579527e-001  0.000000e+000 -2.948275e+000
    endloop
  endfacet
  facet normal  -0.000000e+000 -1.000000e+000  -0.000000e+000
    outer loop
      vertex  5.287358e+000  0.000000e+000 -4.587358e+000
      vertex  9.579527e-001  0.000000e+000 -2.948275e+000
      vertex -9.579527e-001  0.000000e+000 -2.948275e+000
    endloop
  endfacet
  facet normal  0.000000e+000 -9.999999e-001  -0.000000e+000
    outer loop
      vertex  5.287358e+000  0.000000e+000 -4.587358e+000
      vertex -9.579527e-001  0.000000e+000 -2.948275e+000
      vertex -2.000626e+001  0.000000e+000 -2.964622e+001
    endloop
  endfacet
  facet normal  0.000000e+000 -1.000000e+000  -0.000000e+000
    outer loop
      vertex  5.287358e+000  0.000000e+000 -4.587358e+000
      vertex -2.000626e+001  0.000000e+000 -2.964622e+001
      vertex -2.057119e+001  0.000000e+000 -3.333131e+001
    endloop
  endfacet
  facet normal  0.000000e+000 -1.000000e+000  -0.000000e+000
    outer loop
      vertex  5.287358e+000  0.000000e+000 -4.587358e+000
      vertex -2.057119e+001  0.000000e+000 -3.333131e+001
      vertex -2.244663e+001  0.000000e+000 -3.655337e+001
    endloop
  endfacet
  facet normal  0.000000e+000 -9.999999e-001  -0.000000e+000
    outer loop
      vertex -9.579527e-001  0.000000e+000 -2.948275e+000
      vertex -2.507953e+000  0.000000e+000 -1.822134e+000
      vertex -3.333131e+001  0.000000e+000 -2.057119e+001
    endloop
  endfacet
  facet normal  0.000000e+000 -1.000000e+000  0.000000e+000
    outer loop
      vertex -9.579527e-001  0.000000e+000 -2.948275e+000
      vertex -3.333131e+001  0.000000e+000 -2.057119e+001
      vertex -2.964622e+001  0.000000e+000 -2.000626e+001
    endloop
  endfacet
  facet normal  0.000000e+000 -9.999999e-001  0.000000e+000
    outer loop
      vertex -9.579527e-001  0.000000e+000 -2.948275e+000
      vertex -2.964622e+001  0.000000e+000 -2.000626e+001
      vertex -2.601032e+001  0.000000e+000 -2.083035e+001
    endloop
  endfacet
  facet normal  0.000000e+000 -1.000000e+000  0.000000e+000
    outer loop
      vertex -9.579527e-001  0.000000e+000 -2.948275e+000
      vertex -2.601032e+001  0.000000e+000 -2.083035e+001
      vertex -2.292893e+001  0.000000e+000 -2.292893e+001
    endloop
  endfacet
  facet normal  0.000000e+000 -1.000000e+000  0.000000e+000
    outer loop
      vertex -9.579527e-001  0.000000e+000 -2.948275e+000
      vertex -2.292893e+001  0.000000e+000 -2.292893e+001
      vertex -2.083035e+001  0.000000e+000 -2.601032e+001
    endloop
  endfacet
  facet normal  0.000000e+000 -1.000000e+000  0.000000e+000
    outer loop
      vertex -9.579527e-001  0.000000e+000 -2.948275e+000
      vertex -2.083035e+001  0.000000e+000 -2.601032e+001
      vertex -2.000626e+001  0.000000e+000 -2.964622e+001
    endloop
  endfacet
  facet normal  -0.000000e+000 -1.000000e+000  0.000000e+000
    outer loop
      vertex -3.655337e+001  0.000000e+000 -2.244663e+001
      vertex -3.333131e+001  0.000000e+000 -2.057119e+001
      vertex -2.507953e+000  0.000000e+000 -1.822134e+000
    endloop
  endfacet
  facet normal  -0.000000e+000 -9.999999e-001  0.000000e+000
    outer loop
      vertex -3.655337e+001  0.000000e+000 -2.244663e+001
      vertex -2.507953e+000  0.000000e+000 -1.822134e+000
      vertex -3.100000e+000  0.000000e+000  0.000000e+000
    endloop
  endfacet
  facet normal  -0.000000e+000 -1.000000e+000  0.000000e+000
    outer loop
      vertex -3.655337e+001  0.000000e+000 -2.244663e+001
      vertex -3.100000e+000  0.000000e+000  0.000000e+000
      vertex -2.507953e+000  0.000000e+000  1.822134e+000
    endloop
  endfacet
  facet normal  -0.000000e+000 -9.999999e-001  0.000000e+000
    outer loop
      vertex -3.655337e+001  0.000000e+000 -2.244663e+001
      vertex -2.507953e+000  0.000000e+000  1.822134e+000
      vertex -9.579527e-001  0.000000e+000  2.948275e+000
    endloop
  endfacet
  facet normal  -0.000000e+000 -1.000000e+000  0.000000e+000
    outer loop
      vertex -3.655337e+001  0.000000e+000 -2.244663e+001
      vertex -9.579527e-001  0.000000e+000  2.948275e+000
      vertex -4.587358e+000  0.000000e+000  5.287358e+000
    endloop
  endfacet
  facet normal  0.000000e+000 -1.000000e+000  0.000000e+000
    outer loop
      vertex  2.507953e+000  0.000000e+000 -1.822134e+000
      vertex  6.715562e+000  0.000000e+000 -1.975151e+000
      vertex  3.100000e+000  0.000000e+000  3.796280e-016
    endloop
  endfacet
  facet normal  0.000000e+000 -1.000000e+000  0.000000e+000
    outer loop
      vertex  3.100000e+000  0.000000e+000  3.796280e-016
      vertex  6.715562e+000  0.000000e+000 -1.975151e+000
      vertex  6.929019e+000  0.000000e+000  9.943328e-001
    endloop
  endfacet
  facet normal  -0.000000e+000 -1.000000e+000  0.000000e+000
    outer loop
      vertex  3.100000e+000  0.000000e+000  3.796280e-016
      vertex  6.929019e+000  0.000000e+000  9.943328e-001
      vertex  2.507953e+000  0.000000e+000  1.822134e+000
    endloop
  endfacet
  facet normal  0.000000e+000 -9.999999e-001  0.000000e+000
    outer loop
      vertex  2.507953e+000  0.000000e+000  1.822134e+000
      vertex  6.929019e+000  0.000000e+000  9.943328e-001
      vertex  5.889115e+000  0.000000e+000  3.783956e+000
    endloop
  endfacet
  facet normal  0.000000e+000 -1.000000e+000  0.000000e+000
    outer loop
      vertex  2.507953e+000  0.000000e+000  1.822134e+000
      vertex  5.889115e+000  0.000000e+000  3.783956e+000
      vertex  9.579527e-001  0.000000e+000  2.948275e+000
    endloop
  endfacet
  facet normal  0.000000e+000 -9.999999e-001  0.000000e+000
    outer loop
      vertex  9.579527e-001  0.000000e+000  2.948275e+000
      vertex  5.889115e+000  0.000000e+000  3.783956e+000
      vertex  9.943328e-001  0.000000e+000  6.929019e+000
    endloop
  endfacet
  facet normal  0.000000e+000 -1.000000e+000  0.000000e+000
    outer loop
      vertex  9.579527e-001  0.000000e+000  2.948275e+000
      vertex  9.943328e-001  0.000000e+000  6.929019e+000
      vertex -9.579527e-001  0.000000e+000  2.948275e+000
    endloop
  endfacet
  facet normal  0.000000e+000 -9.999999e-001  0.000000e+000
    outer loop
      vertex -9.579527e-001  0.000000e+000  2.948275e+000
      vertex  9.943328e-001  0.000000e+000  6.929019e+000
      vertex -1.975151e+000  0.000000e+000  6.715562e+000
    endloop
  endfacet
  facet normal  0.000000e+000 -1.000000e+000  -0.000000e+000
    outer loop
      vertex -9.579527e-001  0.000000e+000  2.948275e+000
      vertex -1.975151e+000  0.000000e+000  6.715562e+000
      vertex -4.587358e+000  0.000000e+000  5.287358e+000
    endloop
  endfacet
  facet normal -5.877853e-001  -0.000000e+000 -8.090171e-001
    outer loop
      vertex  9.579527e-001  0.000000e+000  2.948275e+000
      vertex  2.507953e+000  3.000000e+000  1.822134e+000
      vertex  2.507953e+000  0.000000e+000  1.822134e+000
    endloop
  endfacet
  facet normal -9.510566e-001  0.000000e+000 -3.090169e-001
    outer loop
      vertex  2.507953e+000  0.000000e+000  1.822134e+000
      vertex  2.507953e+000  3.000000e+000  1.822134e+000
      vertex  3.100000e+000  3.000000e+000  3.796280e-016
    endloop
  endfacet
  facet normal -9.510566e-001  -0.000000e+000 -3.090169e-001
    outer loop
      vertex  2.507953e+000  0.000000e+000  1.822134e+000
      vertex  3.100000e+000  3.000000e+000  3.796280e-016
      vertex  3.100000e+000  0.000000e+000  3.796280e-016
    endloop
  endfacet
  facet normal -5.877853e-001  0.000000e+000 -8.090171e-001
    outer loop
      vertex  2.507953e+000  3.000000e+000  1.822134e+000
      vertex  9.579527e-001  0.000000e+000  2.948275e+000
      vertex  9.579527e-001  3.000000e+000  2.948275e+000
    endloop
  endfacet
  facet normal  0.000000e+000  -0.000000e+000 -1.000000e+000
    outer loop
      vertex  9.579527e-001  3.000000e+000  2.948275e+000
      vertex  9.579527e-001  0.000000e+000  2.948275e+000
      vertex -9.579527e-001  0.000000e+000  2.948275e+000
    endloop
  endfacet
  facet normal  0.000000e+000  0.000000e+000 -1.000000e+000
    outer loop
      vertex  9.579527e-001  3.000000e+000  2.948275e+000
      vertex -9.579527e-001  0.000000e+000  2.948275e+000
      vertex -9.579527e-001  3.000000e+000  2.948275e+000
    endloop
  endfacet
  facet normal  5.877853e-001  0.000000e+000 -8.090171e-001
    outer loop
      vertex -9.579527e-001  3.000000e+000  2.948275e+000
      vertex -9.579527e-001  0.000000e+000  2.948275e+000
      vertex -2.507953e+000  0.000000e+000  1.822134e+000
    endloop
  endfacet
  facet normal  5.877853e-001  0.000000e+000 -8.090171e-001
    outer loop
      vertex -9.579527e-001  3.000000e+000  2.948275e+000
      vertex -2.507953e+000  0.000000e+000  1.822134e+000
      vertex -2.507953e+000  3.000000e+000  1.822134e+000
    endloop
  endfacet
  facet normal  9.510566e-001  0.000000e+000 -3.090169e-001
    outer loop
      vertex -2.507953e+000  3.000000e+000  1.822134e+000
      vertex -2.507953e+000  0.000000e+000  1.822134e+000
      vertex -3.100000e+000  0.000000e+000  0.000000e+000
    endloop
  endfacet
  facet normal  9.510566e-001  0.000000e+000 -3.090169e-001
    outer loop
      vertex -2.507953e+000  3.000000e+000  1.822134e+000
      vertex -3.100000e+000  0.000000e+000  0.000000e+000
      vertex -3.100000e+000  3.000000e+000  0.000000e+000
    endloop
  endfacet
  facet normal  5.877853e-001  0.000000e+000  8.090171e-001
    outer loop
      vertex -9.579527e-001  0.000000e+000 -2.948275e+000
      vertex -2.507953e+000  3.000000e+000 -1.822134e+000
      vertex -2.507953e+000  0.000000e+000 -1.822134e+000
    endloop
  endfacet
  facet normal  9.510566e-001  -0.000000e+000  3.090169e-001
    outer loop
      vertex -2.507953e+000  0.000000e+000 -1.822134e+000
      vertex -2.507953e+000  3.000000e+000 -1.822134e+000
      vertex -3.100000e+000  3.000000e+000  0.000000e+000
    endloop
  endfacet
  facet normal  9.510566e-001  0.000000e+000  3.090169e-001
    outer loop
      vertex -2.507953e+000  0.000000e+000 -1.822134e+000
      vertex -3.100000e+000  3.000000e+000  0.000000e+000
      vertex -3.100000e+000  0.000000e+000  0.000000e+000
    endloop
  endfacet
  facet normal  5.877853e-001  -0.000000e+000  8.090171e-001
    outer loop
      vertex -2.507953e+000  3.000000e+000 -1.822134e+000
      vertex -9.579527e-001  0.000000e+000 -2.948275e+000
      vertex -9.579527e-001  3.000000e+000 -2.948275e+000
    endloop
  endfacet
  facet normal  0.000000e+000  0.000000e+000  1.000000e+000
    outer loop
      vertex -9.579527e-001  3.000000e+000 -2.948275e+000
      vertex -9.579527e-001  0.000000e+000 -2.948275e+000
      vertex  9.579527e-001  0.000000e+000 -2.948275e+000
    endloop
  endfacet
  facet normal  0.000000e+000  -0.000000e+000  1.000000e+000
    outer loop
      vertex -9.579527e-001  3.000000e+000 -2.948275e+000
      vertex  9.579527e-001  0.000000e+000 -2.948275e+000
      vertex  9.579527e-001  3.000000e+000 -2.948275e+000
    endloop
  endfacet
  facet normal -5.877853e-001  0.000000e+000  8.090171e-001
    outer loop
      vertex  9.579527e-001  3.000000e+000 -2.948275e+000
      vertex  9.579527e-001  0.000000e+000 -2.948275e+000
      vertex  2.507953e+000  0.000000e+000 -1.822134e+000
    endloop
  endfacet
  facet normal -5.877853e-001  0.000000e+000  8.090171e-001
    outer loop
      vertex  9.579527e-001  3.000000e+000 -2.948275e+000
      vertex  2.507953e+000  0.000000e+000 -1.822134e+000
      vertex  2.507953e+000  3.000000e+000 -1.822134e+000
    endloop
  endfacet
  facet normal -9.510566e-001  0.000000e+000  3.090169e-001
    outer loop
      vertex  2.507953e+000  3.000000e+000 -1.822134e+000
      vertex  2.507953e+000  0.000000e+000 -1.822134e+000
      vertex  3.100000e+000  0.000000e+000  3.796280e-016
    endloop
  endfacet
  facet normal -9.510566e-001  0.000000e+000  3.090169e-001
    outer loop
      vertex  2.507953e+000  3.000000e+000 -1.822134e+000
      vertex  3.100000e+000  0.000000e+000  3.796280e-016
      vertex  3.100000e+000  3.000000e+000  3.796280e-016
    endloop
  endfacet
  facet normal -6.553367e-001  0.000000e+000  7.553368e-001
    outer loop
      vertex -3.655337e+001  3.000000e+000 -2.244663e+001
      vertex -3.655337e+001  0.000000e+000 -2.244663e+001
      vertex -4.587358e+000  3.000000e+000  5.287358e+000
    endloop
  endfacet
  facet normal -6.553367e-001  0.000000e+000  7.553368e-001
    outer loop
      vertex -4.587358e+000  3.000000e+000  5.287358e+000
      vertex -3.655337e+001  0.000000e+000 -2.244663e+001
      vertex -4.587358e+000  0.000000e+000  5.287358e+000
    endloop
  endfacet
  facet normal -8.265224e-001  -0.000000e+000 -5.629038e-001
    outer loop
      vertex -2.292893e+001  0.000000e+000 -2.292893e+001
      vertex -2.083035e+001  3.000000e+000 -2.601032e+001
      vertex -2.083035e+001  0.000000e+000 -2.601032e+001
    endloop
  endfacet
  facet normal -9.752631e-001  0.000000e+000 -2.210472e-001
    outer loop
      vertex -2.083035e+001  0.000000e+000 -2.601032e+001
      vertex -2.083035e+001  3.000000e+000 -2.601032e+001
      vertex -2.000626e+001  3.000000e+000 -2.964622e+001
    endloop
  endfacet
  facet normal -9.752631e-001  -0.000000e+000 -2.210472e-001
    outer loop
      vertex -2.083035e+001  0.000000e+000 -2.601032e+001
      vertex -2.000626e+001  3.000000e+000 -2.964622e+001
      vertex -2.000626e+001  0.000000e+000 -2.964622e+001
    endloop
  endfacet
  facet normal -9.884524e-001  0.000000e+000  1.515321e-001
    outer loop
      vertex -2.000626e+001  0.000000e+000 -2.964622e+001
      vertex -2.000626e+001  3.000000e+000 -2.964622e+001
      vertex -2.057119e+001  3.000000e+000 -3.333131e+001
    endloop
  endfacet
  facet normal -9.884524e-001  0.000000e+000  1.515321e-001
    outer loop
      vertex -2.000626e+001  0.000000e+000 -2.964622e+001
      vertex -2.057119e+001  3.000000e+000 -3.333131e+001
      vertex -2.057119e+001  0.000000e+000 -3.333131e+001
    endloop
  endfacet
  facet normal -8.642566e-001  0.000000e+000  5.030512e-001
    outer loop
      vertex -2.057119e+001  0.000000e+000 -3.333131e+001
      vertex -2.057119e+001  3.000000e+000 -3.333131e+001
      vertex -2.244663e+001  3.000000e+000 -3.655337e+001
    endloop
  endfacet
  facet normal -8.642566e-001  0.000000e+000  5.030512e-001
    outer loop
      vertex -2.057119e+001  0.000000e+000 -3.333131e+001
      vertex -2.244663e+001  3.000000e+000 -3.655337e+001
      vertex -2.244663e+001  0.000000e+000 -3.655337e+001
    endloop
  endfacet
  facet normal -8.265224e-001  0.000000e+000 -5.629038e-001
    outer loop
      vertex -2.083035e+001  3.000000e+000 -2.601032e+001
      vertex -2.292893e+001  0.000000e+000 -2.292893e+001
      vertex -2.292893e+001  3.000000e+000 -2.292893e+001
    endloop
  endfacet
  facet normal -5.629038e-001  -0.000000e+000 -8.265224e-001
    outer loop
      vertex -2.292893e+001  3.000000e+000 -2.292893e+001
      vertex -2.292893e+001  0.000000e+000 -2.292893e+001
      vertex -2.601032e+001  0.000000e+000 -2.083035e+001
    endloop
  endfacet
  facet normal -5.629038e-001  0.000000e+000 -8.265224e-001
    outer loop
      vertex -2.292893e+001  3.000000e+000 -2.292893e+001
      vertex -2.601032e+001  0.000000e+000 -2.083035e+001
      vertex -2.601032e+001  3.000000e+000 -2.083035e+001
    endloop
  endfacet
  facet normal -2.210472e-001  -0.000000e+000 -9.752631e-001
    outer loop
      vertex -2.601032e+001  3.000000e+000 -2.083035e+001
      vertex -2.601032e+001  0.000000e+000 -2.083035e+001
      vertex -2.964622e+001  0.000000e+000 -2.000626e+001
    endloop
  endfacet
  facet normal -2.210472e-001  0.000000e+000 -9.752631e-001
    outer loop
      vertex -2.601032e+001  3.000000e+000 -2.083035e+001
      vertex -2.964622e+001  0.000000e+000 -2.000626e+001
      vertex -2.964622e+001  3.000000e+000 -2.000626e+001
    endloop
  endfacet
  facet normal  1.515321e-001  0.000000e+000 -9.884524e-001
    outer loop
      vertex -2.964622e+001  3.000000e+000 -2.000626e+001
      vertex -2.964622e+001  0.000000e+000 -2.000626e+001
      vertex -3.333131e+001  0.000000e+000 -2.057119e+001
    endloop
  endfacet
  facet normal  1.515321e-001  0.000000e+000 -9.884524e-001
    outer loop
      vertex -2.964622e+001  3.000000e+000 -2.000626e+001
      vertex -3.333131e+001  0.000000e+000 -2.057119e+001
      vertex -3.333131e+001  3.000000e+000 -2.057119e+001
    endloop
  endfacet
  facet normal  5.030512e-001  0.000000e+000 -8.642566e-001
    outer loop
      vertex -3.333131e+001  3.000000e+000 -2.057119e+001
      vertex -3.333131e+001  0.000000e+000 -2.057119e+001
      vertex -3.655337e+001  0.000000e+000 -2.244663e+001
    endloop
  endfacet
  facet normal  5.030512e-001  0.000000e+000 -8.642566e-001
    outer loop
      vertex -3.333131e+001  3.000000e+000 -2.057119e+001
      vertex -3.655337e+001  0.000000e+000 -2.244663e+001
      vertex -3.655337e+001  3.000000e+000 -2.244663e+001
    endloop
  endfacet
  facet normal  7.553368e-001  0.000000e+000 -6.553367e-001
    outer loop
      vertex  5.287358e+000  3.000000e+000 -4.587358e+000
      vertex  5.287358e+000  0.000000e+000 -4.587358e+000
      vertex -2.244663e+001  3.000000e+000 -3.655337e+001
    endloop
  endfacet
  facet normal  7.553368e-001  0.000000e+000 -6.553367e-001
    outer loop
      vertex -2.244663e+001  3.000000e+000 -3.655337e+001
      vertex  5.287358e+000  0.000000e+000 -4.587358e+000
      vertex -2.244663e+001  0.000000e+000 -3.655337e+001
    endloop
  endfacet
  facet normal  8.774201e-001  0.000000e+000 -4.797228e-001
    outer loop
      vertex  5.287358e+000  0.000000e+000 -4.587358e+000
      vertex  5.287358e+000  3.000000e+000 -4.587358e+000
      vertex  6.715562e+000  0.000000e+000 -1.975151e+000
    endloop
  endfacet
  facet normal  8.774201e-001  0.000000e+000 -4.797228e-001
    outer loop
      vertex  6.715562e+000  0.000000e+000 -1.975151e+000
      vertex  5.287358e+000  3.000000e+000 -4.587358e+000
      vertex  6.715562e+000  3.000000e+000 -1.975151e+000
    endloop
  endfacet
  facet normal  9.974263e-001  0.000000e+000 -7.169842e-002
    outer loop
      vertex  6.715562e+000  0.000000e+000 -1.975151e+000
      vertex  6.715562e+000  3.000000e+000 -1.975151e+000
      vertex  6.929019e+000  0.000000e+000  9.943328e-001
    endloop
  endfacet
  facet normal  9.974263e-001  0.000000e+000 -7.169842e-002
    outer loop
      vertex  6.929019e+000  0.000000e+000  9.943328e-001
      vertex  6.715562e+000  3.000000e+000 -1.975151e+000
      vertex  6.929019e+000  3.000000e+000  9.943328e-001
    endloop
  endfacet
  facet normal  9.370126e-001  0.000000e+000  3.492956e-001
    outer loop
      vertex  6.929019e+000  0.000000e+000  9.943328e-001
      vertex  6.929019e+000  3.000000e+000  9.943328e-001
      vertex  5.889115e+000  0.000000e+000  3.783956e+000
    endloop
  endfacet
  facet normal  9.370126e-001  -0.000000e+000  3.492956e-001
    outer loop
      vertex  5.889115e+000  0.000000e+000  3.783956e+000
      vertex  6.929019e+000  3.000000e+000  9.943328e-001
      vertex  5.889115e+000  3.000000e+000  3.783956e+000
    endloop
  endfacet
  facet normal  7.071068e-001  0.000000e+000  7.071068e-001
    outer loop
      vertex  5.889115e+000  0.000000e+000  3.783956e+000
      vertex  5.889115e+000  3.000000e+000  3.783956e+000
      vertex  3.783956e+000  0.000000e+000  5.889115e+000
    endloop
  endfacet
  facet normal  7.071068e-001  -0.000000e+000  7.071068e-001
    outer loop
      vertex  3.783956e+000  0.000000e+000  5.889115e+000
      vertex  5.889115e+000  3.000000e+000  3.783956e+000
      vertex  3.783956e+000  3.000000e+000  5.889115e+000
    endloop
  endfacet
  facet normal  3.492956e-001  0.000000e+000  9.370126e-001
    outer loop
      vertex  3.783956e+000  0.000000e+000  5.889115e+000
      vertex  3.783956e+000  3.000000e+000  5.889115e+000
      vertex  9.943328e-001  0.000000e+000  6.929019e+000
    endloop
  endfacet
  facet normal  3.492956e-001  -0.000000e+000  9.370126e-001
    outer loop
      vertex  9.943328e-001  0.000000e+000  6.929019e+000
      vertex  3.783956e+000  3.000000e+000  5.889115e+000
      vertex  9.943328e-001  3.000000e+000  6.929019e+000
    endloop
  endfacet
  facet normal -7.169842e-002  0.000000e+000  9.974263e-001
    outer loop
      vertex  9.943328e-001  0.000000e+000  6.929019e+000
      vertex  9.943328e-001  3.000000e+000  6.929019e+000
      vertex -1.975151e+000  0.000000e+000  6.715562e+000
    endloop
  endfacet
  facet normal -7.169842e-002  0.000000e+000  9.974263e-001
    outer loop
      vertex -1.975151e+000  0.000000e+000  6.715562e+000
      vertex  9.943328e-001  3.000000e+000  6.929019e+000
      vertex -1.975151e+000  3.000000e+000  6.715562e+000
    endloop
  endfacet
  facet normal -4.797228e-001  0.000000e+000  8.774201e-001
    outer loop
      vertex -1.975151e+000  0.000000e+000  6.715562e+000
      vertex -1.975151e+000  3.000000e+000  6.715562e+000
      vertex -4.587358e+000  0.000000e+000  5.287358e+000
    endloop
  endfacet
  facet normal -4.797228e-001  0.000000e+000  8.774201e-001
    outer loop
      vertex -4.587358e+000  0.000000e+000  5.287358e+000
      vertex -1.975151e+000  3.000000e+000  6.715562e+000
      vertex -4.587358e+000  3.000000e+000  5.287358e+000
    endloop
  endfacet
endsolid CATIA STL
