solid CATIA STL
  facet normal -9.510565e-001  -0.000000e+000 -3.090169e-001
    outer loop
      vertex -3.000000e+000  5.000000e-001 -7.347638e-016
      vertex -3.000000e+000  1.115000e+002 -7.347638e-016
      vertex -2.427051e+000  5.000000e-001 -1.763356e+000
    endloop
  endfacet
  facet normal -9.510565e-001  0.000000e+000 -3.090169e-001
    outer loop
      vertex -2.427051e+000  5.000000e-001 -1.763356e+000
      vertex -3.000000e+000  1.115000e+002 -7.347638e-016
      vertex -2.427051e+000  1.115000e+002 -1.763356e+000
    endloop
  endfacet
  facet normal -5.877852e-001  -0.000000e+000 -8.090170e-001
    outer loop
      vertex -2.427051e+000  5.000000e-001 -1.763356e+000
      vertex -2.427051e+000  1.115000e+002 -1.763356e+000
      vertex -9.270510e-001  5.000000e-001 -2.853169e+000
    endloop
  endfacet
  facet normal -5.877852e-001  0.000000e+000 -8.090170e-001
    outer loop
      vertex -9.270510e-001  5.000000e-001 -2.853169e+000
      vertex -2.427051e+000  1.115000e+002 -1.763356e+000
      vertex -9.270510e-001  1.115000e+002 -2.853169e+000
    endloop
  endfacet
  facet normal  0.000000e+000  0.000000e+000 -1.000000e+000
    outer loop
      vertex -9.270510e-001  5.000000e-001 -2.853169e+000
      vertex -9.270510e-001  1.115000e+002 -2.853169e+000
      vertex  9.270510e-001  5.000000e-001 -2.853169e+000
    endloop
  endfacet
  facet normal  0.000000e+000  0.000000e+000 -1.000000e+000
    outer loop
      vertex  9.270510e-001  5.000000e-001 -2.853169e+000
      vertex -9.270510e-001  1.115000e+002 -2.853169e+000
      vertex  9.270510e-001  1.115000e+002 -2.853169e+000
    endloop
  endfacet
  facet normal  5.877852e-001  0.000000e+000 -8.090170e-001
    outer loop
      vertex  9.270510e-001  5.000000e-001 -2.853169e+000
      vertex  9.270510e-001  1.115000e+002 -2.853169e+000
      vertex  2.427051e+000  5.000000e-001 -1.763356e+000
    endloop
  endfacet
  facet normal  5.877852e-001  0.000000e+000 -8.090170e-001
    outer loop
      vertex  2.427051e+000  5.000000e-001 -1.763356e+000
      vertex  9.270510e-001  1.115000e+002 -2.853169e+000
      vertex  2.427051e+000  1.115000e+002 -1.763356e+000
    endloop
  endfacet
  facet normal  9.510565e-001  0.000000e+000 -3.090169e-001
    outer loop
      vertex  2.427051e+000  5.000000e-001 -1.763356e+000
      vertex  2.427051e+000  1.115000e+002 -1.763356e+000
      vertex  3.000000e+000  5.000000e-001  3.673819e-016
    endloop
  endfacet
  facet normal  9.510565e-001  0.000000e+000 -3.090169e-001
    outer loop
      vertex  3.000000e+000  5.000000e-001  3.673819e-016
      vertex  2.427051e+000  1.115000e+002 -1.763356e+000
      vertex  3.000000e+000  1.115000e+002  3.673819e-016
    endloop
  endfacet
  facet normal  9.510565e-001  0.000000e+000  3.090169e-001
    outer loop
      vertex  3.000000e+000  5.000000e-001  3.673819e-016
      vertex  3.000000e+000  1.115000e+002  3.673819e-016
      vertex  2.427051e+000  5.000000e-001  1.763356e+000
    endloop
  endfacet
  facet normal  9.510565e-001  -0.000000e+000  3.090169e-001
    outer loop
      vertex  2.427051e+000  5.000000e-001  1.763356e+000
      vertex  3.000000e+000  1.115000e+002  3.673819e-016
      vertex  2.427051e+000  1.115000e+002  1.763356e+000
    endloop
  endfacet
  facet normal  5.877852e-001  0.000000e+000  8.090170e-001
    outer loop
      vertex  2.427051e+000  5.000000e-001  1.763356e+000
      vertex  2.427051e+000  1.115000e+002  1.763356e+000
      vertex  9.270510e-001  5.000000e-001  2.853169e+000
    endloop
  endfacet
  facet normal  5.877852e-001  -0.000000e+000  8.090170e-001
    outer loop
      vertex  9.270510e-001  5.000000e-001  2.853169e+000
      vertex  2.427051e+000  1.115000e+002  1.763356e+000
      vertex  9.270510e-001  1.115000e+002  2.853169e+000
    endloop
  endfacet
  facet normal  0.000000e+000  0.000000e+000  1.000000e+000
    outer loop
      vertex  9.270510e-001  5.000000e-001  2.853169e+000
      vertex  9.270510e-001  1.115000e+002  2.853169e+000
      vertex -9.270510e-001  5.000000e-001  2.853169e+000
    endloop
  endfacet
  facet normal  0.000000e+000  0.000000e+000  1.000000e+000
    outer loop
      vertex -9.270510e-001  5.000000e-001  2.853169e+000
      vertex  9.270510e-001  1.115000e+002  2.853169e+000
      vertex -9.270510e-001  1.115000e+002  2.853169e+000
    endloop
  endfacet
  facet normal -5.877852e-001  0.000000e+000  8.090170e-001
    outer loop
      vertex -9.270510e-001  5.000000e-001  2.853169e+000
      vertex -9.270510e-001  1.115000e+002  2.853169e+000
      vertex -2.427051e+000  5.000000e-001  1.763356e+000
    endloop
  endfacet
  facet normal -5.877852e-001  0.000000e+000  8.090170e-001
    outer loop
      vertex -2.427051e+000  5.000000e-001  1.763356e+000
      vertex -9.270510e-001  1.115000e+002  2.853169e+000
      vertex -2.427051e+000  1.115000e+002  1.763356e+000
    endloop
  endfacet
  facet normal -9.510565e-001  0.000000e+000  3.090169e-001
    outer loop
      vertex -2.427051e+000  5.000000e-001  1.763356e+000
      vertex -2.427051e+000  1.115000e+002  1.763356e+000
      vertex -3.000000e+000  5.000000e-001 -7.347638e-016
    endloop
  endfacet
  facet normal -9.510565e-001  0.000000e+000  3.090169e-001
    outer loop
      vertex -3.000000e+000  5.000000e-001 -7.347638e-016
      vertex -2.427051e+000  1.115000e+002  1.763356e+000
      vertex -3.000000e+000  1.115000e+002 -7.347638e-016
    endloop
  endfacet
  facet normal  0.000000e+000  1.000000e+000  0.000000e+000
    outer loop
      vertex  1.767767e+000  1.120000e+002  1.767767e+000
      vertex -1.767767e+000  1.120000e+002  1.767767e+000
      vertex  3.416606e-008  1.120000e+002  2.500000e+000
    endloop
  endfacet
  facet normal  0.000000e+000  1.000000e+000  0.000000e+000
    outer loop
      vertex -1.767767e+000  1.120000e+002  1.767767e+000
      vertex  1.767767e+000  1.120000e+002  1.767767e+000
      vertex -2.500000e+000  1.120000e+002 -8.561267e-016
    endloop
  endfacet
  facet normal  -0.000000e+000  1.000000e+000  0.000000e+000
    outer loop
      vertex -2.500000e+000  1.120000e+002 -8.561267e-016
      vertex  1.767767e+000  1.120000e+002  1.767767e+000
      vertex  2.500000e+000  1.120000e+002 -6.833187e-008
    endloop
  endfacet
  facet normal  0.000000e+000  1.000000e+000  0.000000e+000
    outer loop
      vertex -2.500000e+000  1.120000e+002 -8.561267e-016
      vertex  2.500000e+000  1.120000e+002 -6.833187e-008
      vertex -1.767767e+000  1.120000e+002 -1.767767e+000
    endloop
  endfacet
  facet normal  0.000000e+000  1.000000e+000  0.000000e+000
    outer loop
      vertex -1.767767e+000  1.120000e+002 -1.767767e+000
      vertex  2.500000e+000  1.120000e+002 -6.833187e-008
      vertex  1.767767e+000  1.120000e+002 -1.767767e+000
    endloop
  endfacet
  facet normal  0.000000e+000  1.000000e+000  0.000000e+000
    outer loop
      vertex -1.767767e+000  1.120000e+002 -1.767767e+000
      vertex  1.767767e+000  1.120000e+002 -1.767767e+000
      vertex -4.063265e-013  1.120000e+002 -2.500000e+000
    endloop
  endfacet
  facet normal -6.891518e-001  6.891518e-001 -2.239190e-001
    outer loop
      vertex -2.427051e+000  1.115000e+002 -1.763356e+000
      vertex -3.000000e+000  1.115000e+002 -7.347638e-016
      vertex -2.500000e+000  1.120000e+002 -8.561267e-016
    endloop
  endfacet
  facet normal -5.871624e-001  7.720680e-001 -2.432106e-001
    outer loop
      vertex -1.767767e+000  1.120000e+002 -1.767767e+000
      vertex -2.427051e+000  1.115000e+002 -1.763356e+000
      vertex -2.500000e+000  1.120000e+002 -8.561267e-016
    endloop
  endfacet
  facet normal  5.871624e-001  7.720680e-001 -2.432106e-001
    outer loop
      vertex  2.427051e+000  1.115000e+002 -1.763356e+000
      vertex  1.767767e+000  1.120000e+002 -1.767767e+000
      vertex  2.500000e+000  1.120000e+002 -6.833187e-008
    endloop
  endfacet
  facet normal  6.891518e-001  6.891518e-001 -2.239190e-001
    outer loop
      vertex  3.000000e+000  1.115000e+002  3.673819e-016
      vertex  2.427051e+000  1.115000e+002 -1.763356e+000
      vertex  2.500000e+000  1.120000e+002 -6.833187e-008
    endloop
  endfacet
  facet normal  4.661929e-001  6.090462e-001 -6.416596e-001
    outer loop
      vertex  2.427051e+000  1.115000e+002 -1.763356e+000
      vertex  9.270510e-001  1.115000e+002 -2.853169e+000
      vertex  1.767767e+000  1.120000e+002 -1.767767e+000
    endloop
  endfacet
  facet normal  0.000000e+000  5.769320e-001 -8.167921e-001
    outer loop
      vertex  9.270510e-001  1.115000e+002 -2.853169e+000
      vertex -9.270510e-001  1.115000e+002 -2.853169e+000
      vertex -4.063265e-013  1.120000e+002 -2.500000e+000
    endloop
  endfacet
  facet normal  2.264703e-001  8.060881e-001 -5.467477e-001
    outer loop
      vertex  1.767767e+000  1.120000e+002 -1.767767e+000
      vertex  9.270510e-001  1.115000e+002 -2.853169e+000
      vertex -4.063265e-013  1.120000e+002 -2.500000e+000
    endloop
  endfacet
  facet normal -4.661929e-001  6.090462e-001 -6.416596e-001
    outer loop
      vertex -9.270510e-001  1.115000e+002 -2.853169e+000
      vertex -2.427051e+000  1.115000e+002 -1.763356e+000
      vertex -1.767767e+000  1.120000e+002 -1.767767e+000
    endloop
  endfacet
  facet normal -2.264703e-001  8.060881e-001 -5.467477e-001
    outer loop
      vertex -4.063265e-013  1.120000e+002 -2.500000e+000
      vertex -9.270510e-001  1.115000e+002 -2.853169e+000
      vertex -1.767767e+000  1.120000e+002 -1.767767e+000
    endloop
  endfacet
  facet normal  6.891518e-001  6.891518e-001  2.239189e-001
    outer loop
      vertex  2.427051e+000  1.115000e+002  1.763356e+000
      vertex  3.000000e+000  1.115000e+002  3.673819e-016
      vertex  2.500000e+000  1.120000e+002 -6.833187e-008
    endloop
  endfacet
  facet normal  5.871624e-001  7.720680e-001  2.432106e-001
    outer loop
      vertex  1.767767e+000  1.120000e+002  1.767767e+000
      vertex  2.427051e+000  1.115000e+002  1.763356e+000
      vertex  2.500000e+000  1.120000e+002 -6.833187e-008
    endloop
  endfacet
  facet normal -5.871624e-001  7.720680e-001  2.432106e-001
    outer loop
      vertex -2.427051e+000  1.115000e+002  1.763356e+000
      vertex -1.767767e+000  1.120000e+002  1.767767e+000
      vertex -2.500000e+000  1.120000e+002 -8.561267e-016
    endloop
  endfacet
  facet normal -6.891518e-001  6.891518e-001  2.239190e-001
    outer loop
      vertex -3.000000e+000  1.115000e+002 -7.347638e-016
      vertex -2.427051e+000  1.115000e+002  1.763356e+000
      vertex -2.500000e+000  1.120000e+002 -8.561267e-016
    endloop
  endfacet
  facet normal -4.661929e-001  6.090462e-001  6.416596e-001
    outer loop
      vertex -2.427051e+000  1.115000e+002  1.763356e+000
      vertex -9.270510e-001  1.115000e+002  2.853169e+000
      vertex -1.767767e+000  1.120000e+002  1.767767e+000
    endloop
  endfacet
  facet normal  0.000000e+000  5.769320e-001  8.167921e-001
    outer loop
      vertex -9.270510e-001  1.115000e+002  2.853169e+000
      vertex  9.270510e-001  1.115000e+002  2.853169e+000
      vertex  3.416606e-008  1.120000e+002  2.500000e+000
    endloop
  endfacet
  facet normal -2.264703e-001  8.060881e-001  5.467476e-001
    outer loop
      vertex -1.767767e+000  1.120000e+002  1.767767e+000
      vertex -9.270510e-001  1.115000e+002  2.853169e+000
      vertex  3.416606e-008  1.120000e+002  2.500000e+000
    endloop
  endfacet
  facet normal  4.661929e-001  6.090462e-001  6.416596e-001
    outer loop
      vertex  9.270510e-001  1.115000e+002  2.853169e+000
      vertex  2.427051e+000  1.115000e+002  1.763356e+000
      vertex  1.767767e+000  1.120000e+002  1.767767e+000
    endloop
  endfacet
  facet normal  2.264703e-001  8.060881e-001  5.467477e-001
    outer loop
      vertex  3.416606e-008  1.120000e+002  2.500000e+000
      vertex  9.270510e-001  1.115000e+002  2.853169e+000
      vertex  1.767767e+000  1.120000e+002  1.767767e+000
    endloop
  endfacet
  facet normal  0.000000e+000 -1.000000e+000  0.000000e+000
    outer loop
      vertex  3.416606e-008  0.000000e+000  2.500000e+000
      vertex -1.767767e+000  0.000000e+000  1.767767e+000
      vertex  1.767767e+000  0.000000e+000  1.767767e+000
    endloop
  endfacet
  facet normal  -0.000000e+000 -1.000000e+000  0.000000e+000
    outer loop
      vertex -4.063265e-013  0.000000e+000 -2.500000e+000
      vertex  1.767767e+000  0.000000e+000 -1.767767e+000
      vertex -1.767767e+000  0.000000e+000 -1.767767e+000
    endloop
  endfacet
  facet normal  0.000000e+000 -1.000000e+000  0.000000e+000
    outer loop
      vertex -1.767767e+000  0.000000e+000 -1.767767e+000
      vertex  1.767767e+000  0.000000e+000 -1.767767e+000
      vertex  2.500000e+000  0.000000e+000 -6.833187e-008
    endloop
  endfacet
  facet normal  -0.000000e+000 -1.000000e+000  0.000000e+000
    outer loop
      vertex -1.767767e+000  0.000000e+000 -1.767767e+000
      vertex  2.500000e+000  0.000000e+000 -6.833187e-008
      vertex -2.500000e+000  0.000000e+000 -8.561267e-016
    endloop
  endfacet
  facet normal  0.000000e+000 -1.000000e+000  0.000000e+000
    outer loop
      vertex -2.500000e+000  0.000000e+000 -8.561267e-016
      vertex  2.500000e+000  0.000000e+000 -6.833187e-008
      vertex  1.767767e+000  0.000000e+000  1.767767e+000
    endloop
  endfacet
  facet normal  -0.000000e+000 -1.000000e+000  0.000000e+000
    outer loop
      vertex -2.500000e+000  0.000000e+000 -8.561267e-016
      vertex  1.767767e+000  0.000000e+000  1.767767e+000
      vertex -1.767767e+000  0.000000e+000  1.767767e+000
    endloop
  endfacet
  facet normal  5.871624e-001 -7.720680e-001 -2.432106e-001
    outer loop
      vertex  2.500000e+000  0.000000e+000 -6.833187e-008
      vertex  1.767767e+000  0.000000e+000 -1.767767e+000
      vertex  2.427051e+000  5.000000e-001 -1.763356e+000
    endloop
  endfacet
  facet normal  6.891518e-001 -6.891518e-001 -2.239190e-001
    outer loop
      vertex  2.500000e+000  0.000000e+000 -6.833187e-008
      vertex  2.427051e+000  5.000000e-001 -1.763356e+000
      vertex  3.000000e+000  5.000000e-001  3.673819e-016
    endloop
  endfacet
  facet normal -6.891518e-001 -6.891518e-001 -2.239190e-001
    outer loop
      vertex -2.500000e+000  0.000000e+000 -8.561267e-016
      vertex -3.000000e+000  5.000000e-001 -7.347638e-016
      vertex -2.427051e+000  5.000000e-001 -1.763356e+000
    endloop
  endfacet
  facet normal -5.871624e-001 -7.720680e-001 -2.432106e-001
    outer loop
      vertex -2.500000e+000  0.000000e+000 -8.561267e-016
      vertex -2.427051e+000  5.000000e-001 -1.763356e+000
      vertex -1.767767e+000  0.000000e+000 -1.767767e+000
    endloop
  endfacet
  facet normal  4.661929e-001 -6.090462e-001 -6.416596e-001
    outer loop
      vertex  1.767767e+000  0.000000e+000 -1.767767e+000
      vertex  9.270510e-001  5.000000e-001 -2.853169e+000
      vertex  2.427051e+000  5.000000e-001 -1.763356e+000
    endloop
  endfacet
  facet normal  0.000000e+000 -5.769320e-001 -8.167921e-001
    outer loop
      vertex -4.063265e-013  0.000000e+000 -2.500000e+000
      vertex -9.270510e-001  5.000000e-001 -2.853169e+000
      vertex  9.270510e-001  5.000000e-001 -2.853169e+000
    endloop
  endfacet
  facet normal  2.264703e-001 -8.060881e-001 -5.467477e-001
    outer loop
      vertex -4.063265e-013  0.000000e+000 -2.500000e+000
      vertex  9.270510e-001  5.000000e-001 -2.853169e+000
      vertex  1.767767e+000  0.000000e+000 -1.767767e+000
    endloop
  endfacet
  facet normal -4.661929e-001 -6.090462e-001 -6.416596e-001
    outer loop
      vertex -1.767767e+000  0.000000e+000 -1.767767e+000
      vertex -2.427051e+000  5.000000e-001 -1.763356e+000
      vertex -9.270510e-001  5.000000e-001 -2.853169e+000
    endloop
  endfacet
  facet normal -2.264703e-001 -8.060881e-001 -5.467477e-001
    outer loop
      vertex -1.767767e+000  0.000000e+000 -1.767767e+000
      vertex -9.270510e-001  5.000000e-001 -2.853169e+000
      vertex -4.063265e-013  0.000000e+000 -2.500000e+000
    endloop
  endfacet
  facet normal -5.871624e-001 -7.720680e-001  2.432106e-001
    outer loop
      vertex -2.500000e+000  0.000000e+000 -8.561267e-016
      vertex -1.767767e+000  0.000000e+000  1.767767e+000
      vertex -2.427051e+000  5.000000e-001  1.763356e+000
    endloop
  endfacet
  facet normal -6.891518e-001 -6.891518e-001  2.239190e-001
    outer loop
      vertex -2.500000e+000  0.000000e+000 -8.561267e-016
      vertex -2.427051e+000  5.000000e-001  1.763356e+000
      vertex -3.000000e+000  5.000000e-001 -7.347638e-016
    endloop
  endfacet
  facet normal  6.891518e-001 -6.891518e-001  2.239189e-001
    outer loop
      vertex  2.500000e+000  0.000000e+000 -6.833187e-008
      vertex  3.000000e+000  5.000000e-001  3.673819e-016
      vertex  2.427051e+000  5.000000e-001  1.763356e+000
    endloop
  endfacet
  facet normal  5.871624e-001 -7.720680e-001  2.432106e-001
    outer loop
      vertex  2.500000e+000  0.000000e+000 -6.833187e-008
      vertex  2.427051e+000  5.000000e-001  1.763356e+000
      vertex  1.767767e+000  0.000000e+000  1.767767e+000
    endloop
  endfacet
  facet normal -4.661929e-001 -6.090462e-001  6.416596e-001
    outer loop
      vertex -1.767767e+000  0.000000e+000  1.767767e+000
      vertex -9.270510e-001  5.000000e-001  2.853169e+000
      vertex -2.427051e+000  5.000000e-001  1.763356e+000
    endloop
  endfacet
  facet normal  0.000000e+000 -5.769320e-001  8.167921e-001
    outer loop
      vertex  3.416606e-008  0.000000e+000  2.500000e+000
      vertex  9.270510e-001  5.000000e-001  2.853169e+000
      vertex -9.270510e-001  5.000000e-001  2.853169e+000
    endloop
  endfacet
  facet normal -2.264703e-001 -8.060881e-001  5.467476e-001
    outer loop
      vertex  3.416606e-008  0.000000e+000  2.500000e+000
      vertex -9.270510e-001  5.000000e-001  2.853169e+000
      vertex -1.767767e+000  0.000000e+000  1.767767e+000
    endloop
  endfacet
  facet normal  4.661929e-001 -6.090462e-001  6.416596e-001
    outer loop
      vertex  1.767767e+000  0.000000e+000  1.767767e+000
      vertex  2.427051e+000  5.000000e-001  1.763356e+000
      vertex  9.270510e-001  5.000000e-001  2.853169e+000
    endloop
  endfacet
  facet normal  2.264703e-001 -8.060881e-001  5.467477e-001
    outer loop
      vertex  1.767767e+000  0.000000e+000  1.767767e+000
      vertex  9.270510e-001  5.000000e-001  2.853169e+000
      vertex  3.416606e-008  0.000000e+000  2.500000e+000
    endloop
  endfacet
endsolid CATIA STL
