solid CATIA STL
  facet normal  1.000000e+000  0.000000e+000  -0.000000e+000
    outer loop
      vertex  1.600000e+000 -4.676537e+000 -2.700000e+000
      vertex  1.600000e+000 -2.700000e+000 -4.676537e+000
      vertex  1.600000e+000 -9.888544e-001 -3.043381e+000
    endloop
  endfacet
  facet normal  1.000000e+000  0.000000e+000  0.000000e+000
    outer loop
      vertex  1.600000e+000 -9.888544e-001 -3.043381e+000
      vertex  1.600000e+000 -2.700000e+000 -4.676537e+000
      vertex  1.600000e+000  1.138309e-015 -5.400000e+000
    endloop
  endfacet
  facet normal  1.000000e+000  0.000000e+000  -0.000000e+000
    outer loop
      vertex  1.600000e+000 -9.888544e-001 -3.043381e+000
      vertex  1.600000e+000  1.138309e-015 -5.400000e+000
      vertex  1.600000e+000  9.888544e-001 -3.043381e+000
    endloop
  endfacet
  facet normal  1.000000e+000  0.000000e+000  0.000000e+000
    outer loop
      vertex  1.600000e+000  9.888544e-001 -3.043381e+000
      vertex  1.600000e+000  1.138309e-015 -5.400000e+000
      vertex  1.600000e+000  2.700000e+000 -4.676537e+000
    endloop
  endfacet
  facet normal  1.000000e+000  0.000000e+000  -0.000000e+000
    outer loop
      vertex  1.600000e+000  9.888544e-001 -3.043381e+000
      vertex  1.600000e+000  2.700000e+000 -4.676537e+000
      vertex  1.600000e+000  4.676537e+000 -2.700000e+000
    endloop
  endfacet
  facet normal  9.999999e-001  0.000000e+000  0.000000e+000
    outer loop
      vertex  1.600000e+000 -2.311687e-015  5.400000e+000
      vertex  1.600000e+000 -9.888544e-001  3.043381e+000
      vertex  1.600000e+000  2.700000e+000  4.676537e+000
    endloop
  endfacet
  facet normal  1.000000e+000  0.000000e+000  0.000000e+000
    outer loop
      vertex  1.600000e+000  2.700000e+000  4.676537e+000
      vertex  1.600000e+000 -9.888544e-001  3.043381e+000
      vertex  1.600000e+000  9.888544e-001  3.043381e+000
    endloop
  endfacet
  facet normal  1.000000e+000  -0.000000e+000  0.000000e+000
    outer loop
      vertex  1.600000e+000  2.700000e+000  4.676537e+000
      vertex  1.600000e+000  9.888544e-001  3.043381e+000
      vertex  1.600000e+000  4.676537e+000  2.700000e+000
    endloop
  endfacet
  facet normal  1.000000e+000  -0.000000e+000  0.000000e+000
    outer loop
      vertex  1.600000e+000 -2.311687e-015  5.400000e+000
      vertex  1.600000e+000 -2.700000e+000  4.676537e+000
      vertex  1.600000e+000 -9.888544e-001  3.043381e+000
    endloop
  endfacet
  facet normal  1.000000e+000  0.000000e+000  0.000000e+000
    outer loop
      vertex  1.600000e+000 -9.888544e-001  3.043381e+000
      vertex  1.600000e+000 -2.700000e+000  4.676537e+000
      vertex  1.600000e+000 -4.676537e+000  2.700000e+000
    endloop
  endfacet
  facet normal  9.999999e-001  -0.000000e+000  0.000000e+000
    outer loop
      vertex  1.600000e+000 -9.888544e-001  3.043381e+000
      vertex  1.600000e+000 -4.676537e+000  2.700000e+000
      vertex  1.600000e+000 -2.588854e+000  1.880913e+000
    endloop
  endfacet
  facet normal  1.000000e+000  0.000000e+000  0.000000e+000
    outer loop
      vertex  1.600000e+000 -2.588854e+000  1.880913e+000
      vertex  1.600000e+000 -4.676537e+000  2.700000e+000
      vertex  1.600000e+000 -5.400000e+000 -3.957241e-015
    endloop
  endfacet
  facet normal  1.000000e+000  0.000000e+000  0.000000e+000
    outer loop
      vertex  1.600000e+000 -2.588854e+000  1.880913e+000
      vertex  1.600000e+000 -5.400000e+000 -3.957241e-015
      vertex  1.600000e+000 -3.200000e+000  3.918740e-016
    endloop
  endfacet
  facet normal  1.000000e+000  -0.000000e+000  0.000000e+000
    outer loop
      vertex  1.600000e+000 -3.200000e+000  3.918740e-016
      vertex  1.600000e+000 -5.400000e+000 -3.957241e-015
      vertex  1.600000e+000 -2.588854e+000 -1.880913e+000
    endloop
  endfacet
  facet normal  1.000000e+000  0.000000e+000  0.000000e+000
    outer loop
      vertex  1.600000e+000 -2.588854e+000 -1.880913e+000
      vertex  1.600000e+000 -5.400000e+000 -3.957241e-015
      vertex  1.600000e+000 -4.676537e+000 -2.700000e+000
    endloop
  endfacet
  facet normal  9.999999e-001  -0.000000e+000  0.000000e+000
    outer loop
      vertex  1.600000e+000 -2.588854e+000 -1.880913e+000
      vertex  1.600000e+000 -4.676537e+000 -2.700000e+000
      vertex  1.600000e+000 -9.888544e-001 -3.043381e+000
    endloop
  endfacet
  facet normal  9.999999e-001  0.000000e+000  0.000000e+000
    outer loop
      vertex  1.600000e+000  4.676537e+000  2.700000e+000
      vertex  1.600000e+000  9.888544e-001  3.043381e+000
      vertex  1.600000e+000  5.400000e+000 -4.431200e-015
    endloop
  endfacet
  facet normal  1.000000e+000  0.000000e+000  0.000000e+000
    outer loop
      vertex  1.600000e+000  5.400000e+000 -4.431200e-015
      vertex  1.600000e+000  9.888544e-001  3.043381e+000
      vertex  1.600000e+000  2.588854e+000  1.880913e+000
    endloop
  endfacet
  facet normal  1.000000e+000  0.000000e+000  0.000000e+000
    outer loop
      vertex  1.600000e+000  5.400000e+000 -4.431200e-015
      vertex  1.600000e+000  2.588854e+000  1.880913e+000
      vertex  1.600000e+000  3.200000e+000  0.000000e+000
    endloop
  endfacet
  facet normal  9.999999e-001  0.000000e+000  0.000000e+000
    outer loop
      vertex  1.600000e+000  5.400000e+000 -4.431200e-015
      vertex  1.600000e+000  3.200000e+000  0.000000e+000
      vertex  1.600000e+000  4.676537e+000 -2.700000e+000
    endloop
  endfacet
  facet normal  1.000000e+000  0.000000e+000  0.000000e+000
    outer loop
      vertex  1.600000e+000  4.676537e+000 -2.700000e+000
      vertex  1.600000e+000  3.200000e+000  0.000000e+000
      vertex  1.600000e+000  2.588854e+000 -1.880913e+000
    endloop
  endfacet
  facet normal  9.999999e-001  0.000000e+000  0.000000e+000
    outer loop
      vertex  1.600000e+000  4.676537e+000 -2.700000e+000
      vertex  1.600000e+000  2.588854e+000 -1.880913e+000
      vertex  1.600000e+000  9.888544e-001 -3.043381e+000
    endloop
  endfacet
  facet normal -2.869424e-016  9.749279e-001 -2.225209e-001
    outer loop
      vertex  0.000000e+000  6.000000e+000  0.000000e+000
      vertex  1.139604e+000  6.000000e+000 -1.469528e-015
      vertex  0.000000e+000  5.405813e+000 -2.603302e+000
    endloop
  endfacet
  facet normal  0.000000e+000  9.749279e-001 -2.225209e-001
    outer loop
      vertex  0.000000e+000  5.405813e+000 -2.603302e+000
      vertex  1.139604e+000  6.000000e+000 -1.469528e-015
      vertex  1.139604e+000  5.405813e+000 -2.603302e+000
    endloop
  endfacet
  facet normal  0.000000e+000  7.818315e-001 -6.234897e-001
    outer loop
      vertex  0.000000e+000  5.405813e+000 -2.603302e+000
      vertex  1.139604e+000  5.405813e+000 -2.603302e+000
      vertex  0.000000e+000  3.740939e+000 -4.690989e+000
    endloop
  endfacet
  facet normal  0.000000e+000  7.818315e-001 -6.234897e-001
    outer loop
      vertex  0.000000e+000  3.740939e+000 -4.690989e+000
      vertex  1.139604e+000  5.405813e+000 -2.603302e+000
      vertex  1.139604e+000  3.740939e+000 -4.690989e+000
    endloop
  endfacet
  facet normal  0.000000e+000  4.338837e-001 -9.009689e-001
    outer loop
      vertex  0.000000e+000  3.740939e+000 -4.690989e+000
      vertex  1.139604e+000  3.740939e+000 -4.690989e+000
      vertex  0.000000e+000  1.335126e+000 -5.849567e+000
    endloop
  endfacet
  facet normal  0.000000e+000  4.338837e-001 -9.009689e-001
    outer loop
      vertex  0.000000e+000  1.335126e+000 -5.849567e+000
      vertex  1.139604e+000  3.740939e+000 -4.690989e+000
      vertex  1.139604e+000  1.335126e+000 -5.849567e+000
    endloop
  endfacet
  facet normal  -0.000000e+000  0.000000e+000 -1.000000e+000
    outer loop
      vertex  0.000000e+000  1.335126e+000 -5.849567e+000
      vertex  1.139604e+000  1.335126e+000 -5.849567e+000
      vertex  0.000000e+000 -1.335126e+000 -5.849567e+000
    endloop
  endfacet
  facet normal  0.000000e+000  0.000000e+000 -1.000000e+000
    outer loop
      vertex  0.000000e+000 -1.335126e+000 -5.849567e+000
      vertex  1.139604e+000  1.335126e+000 -5.849567e+000
      vertex  1.139604e+000 -1.335126e+000 -5.849567e+000
    endloop
  endfacet
  facet normal  -0.000000e+000 -4.338837e-001 -9.009689e-001
    outer loop
      vertex  0.000000e+000 -1.335126e+000 -5.849567e+000
      vertex  1.139604e+000 -1.335126e+000 -5.849567e+000
      vertex  0.000000e+000 -3.740939e+000 -4.690989e+000
    endloop
  endfacet
  facet normal  0.000000e+000 -4.338837e-001 -9.009689e-001
    outer loop
      vertex  0.000000e+000 -3.740939e+000 -4.690989e+000
      vertex  1.139604e+000 -1.335126e+000 -5.849567e+000
      vertex  1.139604e+000 -3.740939e+000 -4.690989e+000
    endloop
  endfacet
  facet normal  -0.000000e+000 -7.818315e-001 -6.234897e-001
    outer loop
      vertex  0.000000e+000 -3.740939e+000 -4.690989e+000
      vertex  1.139604e+000 -3.740939e+000 -4.690989e+000
      vertex  0.000000e+000 -5.405813e+000 -2.603302e+000
    endloop
  endfacet
  facet normal  0.000000e+000 -7.818315e-001 -6.234897e-001
    outer loop
      vertex  0.000000e+000 -5.405813e+000 -2.603302e+000
      vertex  1.139604e+000 -3.740939e+000 -4.690989e+000
      vertex  1.139604e+000 -5.405813e+000 -2.603302e+000
    endloop
  endfacet
  facet normal  -0.000000e+000 -9.749279e-001 -2.225209e-001
    outer loop
      vertex  0.000000e+000 -5.405813e+000 -2.603302e+000
      vertex  1.139604e+000 -5.405813e+000 -2.603302e+000
      vertex  0.000000e+000 -6.000000e+000  7.347638e-016
    endloop
  endfacet
  facet normal  0.000000e+000 -9.749279e-001 -2.225209e-001
    outer loop
      vertex  0.000000e+000 -6.000000e+000  7.347638e-016
      vertex  1.139604e+000 -5.405813e+000 -2.603302e+000
      vertex  1.139604e+000 -6.000000e+000  7.347638e-016
    endloop
  endfacet
  facet normal  0.000000e+000 -9.749279e-001  2.225209e-001
    outer loop
      vertex  0.000000e+000 -6.000000e+000  7.347638e-016
      vertex  1.139604e+000 -6.000000e+000  7.347638e-016
      vertex  0.000000e+000 -5.405813e+000  2.603302e+000
    endloop
  endfacet
  facet normal  0.000000e+000 -9.749279e-001  2.225209e-001
    outer loop
      vertex  0.000000e+000 -5.405813e+000  2.603302e+000
      vertex  1.139604e+000 -6.000000e+000  7.347638e-016
      vertex  1.139604e+000 -5.405813e+000  2.603302e+000
    endloop
  endfacet
  facet normal  0.000000e+000 -7.818315e-001  6.234897e-001
    outer loop
      vertex  0.000000e+000 -5.405813e+000  2.603302e+000
      vertex  1.139604e+000 -5.405813e+000  2.603302e+000
      vertex  0.000000e+000 -3.740939e+000  4.690989e+000
    endloop
  endfacet
  facet normal  0.000000e+000 -7.818315e-001  6.234897e-001
    outer loop
      vertex  0.000000e+000 -3.740939e+000  4.690989e+000
      vertex  1.139604e+000 -5.405813e+000  2.603302e+000
      vertex  1.139604e+000 -3.740939e+000  4.690989e+000
    endloop
  endfacet
  facet normal  0.000000e+000 -4.338837e-001  9.009689e-001
    outer loop
      vertex  0.000000e+000 -3.740939e+000  4.690989e+000
      vertex  1.139604e+000 -3.740939e+000  4.690989e+000
      vertex  0.000000e+000 -1.335126e+000  5.849567e+000
    endloop
  endfacet
  facet normal  0.000000e+000 -4.338837e-001  9.009689e-001
    outer loop
      vertex  0.000000e+000 -1.335126e+000  5.849567e+000
      vertex  1.139604e+000 -3.740939e+000  4.690989e+000
      vertex  1.139604e+000 -1.335126e+000  5.849567e+000
    endloop
  endfacet
  facet normal  0.000000e+000  0.000000e+000  1.000000e+000
    outer loop
      vertex  0.000000e+000 -1.335126e+000  5.849567e+000
      vertex  1.139604e+000 -1.335126e+000  5.849567e+000
      vertex  0.000000e+000  1.335126e+000  5.849567e+000
    endloop
  endfacet
  facet normal  -0.000000e+000  0.000000e+000  1.000000e+000
    outer loop
      vertex  0.000000e+000  1.335126e+000  5.849567e+000
      vertex  1.139604e+000 -1.335126e+000  5.849567e+000
      vertex  1.139604e+000  1.335126e+000  5.849567e+000
    endloop
  endfacet
  facet normal  0.000000e+000  4.338837e-001  9.009689e-001
    outer loop
      vertex  0.000000e+000  1.335126e+000  5.849567e+000
      vertex  1.139604e+000  1.335126e+000  5.849567e+000
      vertex  0.000000e+000  3.740939e+000  4.690989e+000
    endloop
  endfacet
  facet normal  -0.000000e+000  4.338837e-001  9.009689e-001
    outer loop
      vertex  0.000000e+000  3.740939e+000  4.690989e+000
      vertex  1.139604e+000  1.335126e+000  5.849567e+000
      vertex  1.139604e+000  3.740939e+000  4.690989e+000
    endloop
  endfacet
  facet normal  0.000000e+000  7.818315e-001  6.234897e-001
    outer loop
      vertex  0.000000e+000  3.740939e+000  4.690989e+000
      vertex  1.139604e+000  3.740939e+000  4.690989e+000
      vertex  0.000000e+000  5.405813e+000  2.603302e+000
    endloop
  endfacet
  facet normal  -0.000000e+000  7.818315e-001  6.234897e-001
    outer loop
      vertex  0.000000e+000  5.405813e+000  2.603302e+000
      vertex  1.139604e+000  3.740939e+000  4.690989e+000
      vertex  1.139604e+000  5.405813e+000  2.603302e+000
    endloop
  endfacet
  facet normal  0.000000e+000  9.749279e-001  2.225209e-001
    outer loop
      vertex  0.000000e+000  5.405813e+000  2.603302e+000
      vertex  1.139604e+000  5.405813e+000  2.603302e+000
      vertex  0.000000e+000  6.000000e+000  0.000000e+000
    endloop
  endfacet
  facet normal  2.869424e-016  9.749279e-001  2.225209e-001
    outer loop
      vertex  0.000000e+000  6.000000e+000  0.000000e+000
      vertex  1.139604e+000  5.405813e+000  2.603302e+000
      vertex  1.139604e+000  6.000000e+000 -1.469528e-015
    endloop
  endfacet
  facet normal  7.858042e-001  6.029689e-001 -1.376237e-001
    outer loop
      vertex  1.139604e+000  5.405813e+000 -2.603302e+000
      vertex  1.139604e+000  6.000000e+000 -1.469528e-015
      vertex  1.600000e+000  5.400000e+000 -4.431200e-015
    endloop
  endfacet
  facet normal  8.278294e-001  5.418649e-001 -1.451923e-001
    outer loop
      vertex  1.600000e+000  4.676537e+000 -2.700000e+000
      vertex  1.139604e+000  5.405813e+000 -2.603302e+000
      vertex  1.600000e+000  5.400000e+000 -4.431200e-015
    endloop
  endfacet
  facet normal  8.278294e-001 -5.418649e-001 -1.451923e-001
    outer loop
      vertex  1.139604e+000 -5.405813e+000 -2.603302e+000
      vertex  1.600000e+000 -4.676537e+000 -2.700000e+000
      vertex  1.600000e+000 -5.400000e+000 -3.957241e-015
    endloop
  endfacet
  facet normal  7.858042e-001 -6.029689e-001 -1.376237e-001
    outer loop
      vertex  1.139604e+000 -6.000000e+000  7.347638e-016
      vertex  1.139604e+000 -5.405813e+000 -2.603302e+000
      vertex  1.600000e+000 -5.400000e+000 -3.957241e-015
    endloop
  endfacet
  facet normal  7.422053e-001 -5.239621e-001 -4.178459e-001
    outer loop
      vertex  1.139604e+000 -5.405813e+000 -2.603302e+000
      vertex  1.139604e+000 -3.740939e+000 -4.690989e+000
      vertex  1.600000e+000 -4.676537e+000 -2.700000e+000
    endloop
  endfacet
  facet normal  7.103639e-001 -3.053824e-001 -6.341331e-001
    outer loop
      vertex  1.139604e+000 -3.740939e+000 -4.690989e+000
      vertex  1.139604e+000 -1.335126e+000 -5.849567e+000
      vertex  1.600000e+000 -2.700000e+000 -4.676537e+000
    endloop
  endfacet
  facet normal  8.510721e-001 -3.712656e-001 -3.712656e-001
    outer loop
      vertex  1.600000e+000 -4.676537e+000 -2.700000e+000
      vertex  1.139604e+000 -3.740939e+000 -4.690989e+000
      vertex  1.600000e+000 -2.700000e+000 -4.676537e+000
    endloop
  endfacet
  facet normal  6.986426e-001  0.000000e+000 -7.154709e-001
    outer loop
      vertex  1.139604e+000 -1.335126e+000 -5.849567e+000
      vertex  1.139604e+000  1.335126e+000 -5.849567e+000
      vertex  1.600000e+000  1.138309e-015 -5.400000e+000
    endloop
  endfacet
  facet normal  8.611188e-001 -1.315847e-001 -4.910805e-001
    outer loop
      vertex  1.600000e+000 -2.700000e+000 -4.676537e+000
      vertex  1.139604e+000 -1.335126e+000 -5.849567e+000
      vertex  1.600000e+000  1.138309e-015 -5.400000e+000
    endloop
  endfacet
  facet normal  7.103639e-001  3.053823e-001 -6.341330e-001
    outer loop
      vertex  1.139604e+000  1.335126e+000 -5.849567e+000
      vertex  1.139604e+000  3.740939e+000 -4.690989e+000
      vertex  1.600000e+000  2.700000e+000 -4.676537e+000
    endloop
  endfacet
  facet normal  8.611188e-001  1.315847e-001 -4.910805e-001
    outer loop
      vertex  1.600000e+000  1.138309e-015 -5.400000e+000
      vertex  1.139604e+000  1.335126e+000 -5.849567e+000
      vertex  1.600000e+000  2.700000e+000 -4.676537e+000
    endloop
  endfacet
  facet normal  7.422053e-001  5.239621e-001 -4.178459e-001
    outer loop
      vertex  1.139604e+000  3.740939e+000 -4.690989e+000
      vertex  1.139604e+000  5.405813e+000 -2.603302e+000
      vertex  1.600000e+000  4.676537e+000 -2.700000e+000
    endloop
  endfacet
  facet normal  8.510721e-001  3.712656e-001 -3.712656e-001
    outer loop
      vertex  1.600000e+000  2.700000e+000 -4.676537e+000
      vertex  1.139604e+000  3.740939e+000 -4.690989e+000
      vertex  1.600000e+000  4.676537e+000 -2.700000e+000
    endloop
  endfacet
  facet normal  7.858042e-001 -6.029689e-001  1.376237e-001
    outer loop
      vertex  1.139604e+000 -5.405813e+000  2.603302e+000
      vertex  1.139604e+000 -6.000000e+000  7.347638e-016
      vertex  1.600000e+000 -5.400000e+000 -3.957241e-015
    endloop
  endfacet
  facet normal  8.278294e-001 -5.418649e-001  1.451923e-001
    outer loop
      vertex  1.600000e+000 -4.676537e+000  2.700000e+000
      vertex  1.139604e+000 -5.405813e+000  2.603302e+000
      vertex  1.600000e+000 -5.400000e+000 -3.957241e-015
    endloop
  endfacet
  facet normal  8.278294e-001  5.418649e-001  1.451923e-001
    outer loop
      vertex  1.139604e+000  5.405813e+000  2.603302e+000
      vertex  1.600000e+000  4.676537e+000  2.700000e+000
      vertex  1.600000e+000  5.400000e+000 -4.431200e-015
    endloop
  endfacet
  facet normal  7.858042e-001  6.029689e-001  1.376237e-001
    outer loop
      vertex  1.139604e+000  6.000000e+000 -1.469528e-015
      vertex  1.139604e+000  5.405813e+000  2.603302e+000
      vertex  1.600000e+000  5.400000e+000 -4.431200e-015
    endloop
  endfacet
  facet normal  7.422053e-001  5.239621e-001  4.178459e-001
    outer loop
      vertex  1.139604e+000  5.405813e+000  2.603302e+000
      vertex  1.139604e+000  3.740939e+000  4.690989e+000
      vertex  1.600000e+000  4.676537e+000  2.700000e+000
    endloop
  endfacet
  facet normal  7.103639e-001  3.053824e-001  6.341331e-001
    outer loop
      vertex  1.139604e+000  3.740939e+000  4.690989e+000
      vertex  1.139604e+000  1.335126e+000  5.849567e+000
      vertex  1.600000e+000  2.700000e+000  4.676537e+000
    endloop
  endfacet
  facet normal  8.510721e-001  3.712656e-001  3.712656e-001
    outer loop
      vertex  1.600000e+000  4.676537e+000  2.700000e+000
      vertex  1.139604e+000  3.740939e+000  4.690989e+000
      vertex  1.600000e+000  2.700000e+000  4.676537e+000
    endloop
  endfacet
  facet normal  6.986426e-001  -0.000000e+000  7.154709e-001
    outer loop
      vertex  1.139604e+000  1.335126e+000  5.849567e+000
      vertex  1.139604e+000 -1.335126e+000  5.849567e+000
      vertex  1.600000e+000 -2.311687e-015  5.400000e+000
    endloop
  endfacet
  facet normal  8.611188e-001  1.315847e-001  4.910805e-001
    outer loop
      vertex  1.600000e+000  2.700000e+000  4.676537e+000
      vertex  1.139604e+000  1.335126e+000  5.849567e+000
      vertex  1.600000e+000 -2.311687e-015  5.400000e+000
    endloop
  endfacet
  facet normal  7.103639e-001 -3.053823e-001  6.341330e-001
    outer loop
      vertex  1.139604e+000 -1.335126e+000  5.849567e+000
      vertex  1.139604e+000 -3.740939e+000  4.690989e+000
      vertex  1.600000e+000 -2.700000e+000  4.676537e+000
    endloop
  endfacet
  facet normal  8.611188e-001 -1.315847e-001  4.910805e-001
    outer loop
      vertex  1.600000e+000 -2.311687e-015  5.400000e+000
      vertex  1.139604e+000 -1.335126e+000  5.849567e+000
      vertex  1.600000e+000 -2.700000e+000  4.676537e+000
    endloop
  endfacet
  facet normal  7.422053e-001 -5.239621e-001  4.178459e-001
    outer loop
      vertex  1.139604e+000 -3.740939e+000  4.690989e+000
      vertex  1.139604e+000 -5.405813e+000  2.603302e+000
      vertex  1.600000e+000 -4.676537e+000  2.700000e+000
    endloop
  endfacet
  facet normal  8.510721e-001 -3.712656e-001  3.712656e-001
    outer loop
      vertex  1.600000e+000 -2.700000e+000  4.676537e+000
      vertex  1.139604e+000 -3.740939e+000  4.690989e+000
      vertex  1.600000e+000 -4.676537e+000  2.700000e+000
    endloop
  endfacet
  facet normal -1.000000e+000  0.000000e+000  0.000000e+000
    outer loop
      vertex  0.000000e+000  5.405813e+000 -2.603302e+000
      vertex  0.000000e+000  9.888544e-001 -3.043381e+000
      vertex  0.000000e+000  2.588854e+000 -1.880913e+000
    endloop
  endfacet
  facet normal -1.000000e+000  0.000000e+000  0.000000e+000
    outer loop
      vertex  0.000000e+000  5.405813e+000 -2.603302e+000
      vertex  0.000000e+000  3.740939e+000 -4.690989e+000
      vertex  0.000000e+000  9.888544e-001 -3.043381e+000
    endloop
  endfacet
  facet normal -1.000000e+000  0.000000e+000  0.000000e+000
    outer loop
      vertex  0.000000e+000 -1.335126e+000 -5.849567e+000
      vertex  0.000000e+000  3.740939e+000 -4.690989e+000
      vertex  0.000000e+000  1.335126e+000 -5.849567e+000
    endloop
  endfacet
  facet normal -1.000000e+000  0.000000e+000  0.000000e+000
    outer loop
      vertex  0.000000e+000  3.740939e+000 -4.690989e+000
      vertex  0.000000e+000 -1.335126e+000 -5.849567e+000
      vertex  0.000000e+000  9.888544e-001 -3.043381e+000
    endloop
  endfacet
  facet normal -1.000000e+000  0.000000e+000  0.000000e+000
    outer loop
      vertex  0.000000e+000  9.888544e-001 -3.043381e+000
      vertex  0.000000e+000 -1.335126e+000 -5.849567e+000
      vertex  0.000000e+000 -3.740939e+000 -4.690989e+000
    endloop
  endfacet
  facet normal -1.000000e+000  0.000000e+000  0.000000e+000
    outer loop
      vertex  0.000000e+000  9.888544e-001 -3.043381e+000
      vertex  0.000000e+000 -3.740939e+000 -4.690989e+000
      vertex  0.000000e+000 -9.888544e-001 -3.043381e+000
    endloop
  endfacet
  facet normal -1.000000e+000  -0.000000e+000  0.000000e+000
    outer loop
      vertex  0.000000e+000 -9.888544e-001 -3.043381e+000
      vertex  0.000000e+000 -3.740939e+000 -4.690989e+000
      vertex  0.000000e+000 -5.405813e+000 -2.603302e+000
    endloop
  endfacet
  facet normal -1.000000e+000  0.000000e+000  0.000000e+000
    outer loop
      vertex  0.000000e+000 -9.888544e-001 -3.043381e+000
      vertex  0.000000e+000 -5.405813e+000 -2.603302e+000
      vertex  0.000000e+000 -2.588854e+000 -1.880913e+000
    endloop
  endfacet
  facet normal -1.000000e+000  0.000000e+000  -0.000000e+000
    outer loop
      vertex  0.000000e+000 -5.405813e+000  2.603302e+000
      vertex  0.000000e+000 -3.740939e+000  4.690989e+000
      vertex  0.000000e+000 -9.888544e-001  3.043381e+000
    endloop
  endfacet
  facet normal -9.999999e-001  0.000000e+000  0.000000e+000
    outer loop
      vertex  0.000000e+000 -9.888544e-001  3.043381e+000
      vertex  0.000000e+000 -3.740939e+000  4.690989e+000
      vertex  0.000000e+000 -1.335126e+000  5.849567e+000
    endloop
  endfacet
  facet normal -9.999999e-001  0.000000e+000  0.000000e+000
    outer loop
      vertex  0.000000e+000 -9.888544e-001  3.043381e+000
      vertex  0.000000e+000 -1.335126e+000  5.849567e+000
      vertex  0.000000e+000  9.888544e-001  3.043381e+000
    endloop
  endfacet
  facet normal -9.999999e-001  0.000000e+000  0.000000e+000
    outer loop
      vertex  0.000000e+000  9.888544e-001  3.043381e+000
      vertex  0.000000e+000 -1.335126e+000  5.849567e+000
      vertex  0.000000e+000  1.335126e+000  5.849567e+000
    endloop
  endfacet
  facet normal -1.000000e+000  0.000000e+000  -0.000000e+000
    outer loop
      vertex  0.000000e+000  9.888544e-001  3.043381e+000
      vertex  0.000000e+000  1.335126e+000  5.849567e+000
      vertex  0.000000e+000  3.740939e+000  4.690989e+000
    endloop
  endfacet
  facet normal -1.000000e+000  0.000000e+000  0.000000e+000
    outer loop
      vertex  0.000000e+000 -3.200000e+000  3.918740e-016
      vertex  0.000000e+000 -6.000000e+000  7.347638e-016
      vertex  0.000000e+000 -2.588854e+000  1.880913e+000
    endloop
  endfacet
  facet normal -1.000000e+000  -0.000000e+000  0.000000e+000
    outer loop
      vertex  0.000000e+000 -2.588854e+000  1.880913e+000
      vertex  0.000000e+000 -6.000000e+000  7.347638e-016
      vertex  0.000000e+000 -5.405813e+000  2.603302e+000
    endloop
  endfacet
  facet normal -1.000000e+000  0.000000e+000  0.000000e+000
    outer loop
      vertex  0.000000e+000 -2.588854e+000  1.880913e+000
      vertex  0.000000e+000 -5.405813e+000  2.603302e+000
      vertex  0.000000e+000 -9.888544e-001  3.043381e+000
    endloop
  endfacet
  facet normal -1.000000e+000  0.000000e+000  0.000000e+000
    outer loop
      vertex  0.000000e+000 -5.405813e+000 -2.603302e+000
      vertex  0.000000e+000 -6.000000e+000  7.347638e-016
      vertex  0.000000e+000 -2.588854e+000 -1.880913e+000
    endloop
  endfacet
  facet normal -1.000000e+000  0.000000e+000  0.000000e+000
    outer loop
      vertex  0.000000e+000 -2.588854e+000 -1.880913e+000
      vertex  0.000000e+000 -6.000000e+000  7.347638e-016
      vertex  0.000000e+000 -3.200000e+000  3.918740e-016
    endloop
  endfacet
  facet normal -1.000000e+000  0.000000e+000  0.000000e+000
    outer loop
      vertex  0.000000e+000  3.740939e+000  4.690989e+000
      vertex  0.000000e+000  5.405813e+000  2.603302e+000
      vertex  0.000000e+000  9.888544e-001  3.043381e+000
    endloop
  endfacet
  facet normal -1.000000e+000  0.000000e+000  0.000000e+000
    outer loop
      vertex  0.000000e+000  9.888544e-001  3.043381e+000
      vertex  0.000000e+000  5.405813e+000  2.603302e+000
      vertex  0.000000e+000  6.000000e+000  0.000000e+000
    endloop
  endfacet
  facet normal -9.999999e-001  0.000000e+000  0.000000e+000
    outer loop
      vertex  0.000000e+000  9.888544e-001  3.043381e+000
      vertex  0.000000e+000  6.000000e+000  0.000000e+000
      vertex  0.000000e+000  2.588854e+000  1.880913e+000
    endloop
  endfacet
  facet normal -1.000000e+000  0.000000e+000  0.000000e+000
    outer loop
      vertex  0.000000e+000  2.588854e+000  1.880913e+000
      vertex  0.000000e+000  6.000000e+000  0.000000e+000
      vertex  0.000000e+000  3.200000e+000  0.000000e+000
    endloop
  endfacet
  facet normal -9.999999e-001  0.000000e+000  0.000000e+000
    outer loop
      vertex  0.000000e+000  3.200000e+000  0.000000e+000
      vertex  0.000000e+000  6.000000e+000  0.000000e+000
      vertex  0.000000e+000  5.405813e+000 -2.603302e+000
    endloop
  endfacet
  facet normal -1.000000e+000  0.000000e+000  0.000000e+000
    outer loop
      vertex  0.000000e+000  3.200000e+000  0.000000e+000
      vertex  0.000000e+000  5.405813e+000 -2.603302e+000
      vertex  0.000000e+000  2.588854e+000 -1.880913e+000
    endloop
  endfacet
  facet normal  0.000000e+000  5.877852e-001 -8.090170e-001
    outer loop
      vertex  0.000000e+000 -9.888544e-001  3.043381e+000
      vertex  1.600000e+000 -2.588854e+000  1.880913e+000
      vertex  0.000000e+000 -2.588854e+000  1.880913e+000
    endloop
  endfacet
  facet normal  0.000000e+000  9.510565e-001 -3.090171e-001
    outer loop
      vertex  0.000000e+000 -2.588854e+000  1.880913e+000
      vertex  1.600000e+000 -2.588854e+000  1.880913e+000
      vertex  1.600000e+000 -3.200000e+000  3.918740e-016
    endloop
  endfacet
  facet normal  0.000000e+000  9.510565e-001 -3.090171e-001
    outer loop
      vertex  0.000000e+000 -2.588854e+000  1.880913e+000
      vertex  1.600000e+000 -3.200000e+000  3.918740e-016
      vertex  0.000000e+000 -3.200000e+000  3.918740e-016
    endloop
  endfacet
  facet normal  0.000000e+000  5.877852e-001 -8.090170e-001
    outer loop
      vertex  1.600000e+000 -2.588854e+000  1.880913e+000
      vertex  0.000000e+000 -9.888544e-001  3.043381e+000
      vertex  1.600000e+000 -9.888544e-001  3.043381e+000
    endloop
  endfacet
  facet normal  0.000000e+000  0.000000e+000 -9.999999e-001
    outer loop
      vertex  1.600000e+000 -9.888544e-001  3.043381e+000
      vertex  0.000000e+000 -9.888544e-001  3.043381e+000
      vertex  0.000000e+000  9.888544e-001  3.043381e+000
    endloop
  endfacet
  facet normal  0.000000e+000  0.000000e+000 -9.999999e-001
    outer loop
      vertex  1.600000e+000 -9.888544e-001  3.043381e+000
      vertex  0.000000e+000  9.888544e-001  3.043381e+000
      vertex  1.600000e+000  9.888544e-001  3.043381e+000
    endloop
  endfacet
  facet normal  -0.000000e+000 -5.877852e-001 -8.090170e-001
    outer loop
      vertex  1.600000e+000  9.888544e-001  3.043381e+000
      vertex  0.000000e+000  9.888544e-001  3.043381e+000
      vertex  0.000000e+000  2.588854e+000  1.880913e+000
    endloop
  endfacet
  facet normal  0.000000e+000 -5.877852e-001 -8.090170e-001
    outer loop
      vertex  1.600000e+000  9.888544e-001  3.043381e+000
      vertex  0.000000e+000  2.588854e+000  1.880913e+000
      vertex  1.600000e+000  2.588854e+000  1.880913e+000
    endloop
  endfacet
  facet normal  -0.000000e+000 -9.510565e-001 -3.090171e-001
    outer loop
      vertex  1.600000e+000  2.588854e+000  1.880913e+000
      vertex  0.000000e+000  2.588854e+000  1.880913e+000
      vertex  0.000000e+000  3.200000e+000  0.000000e+000
    endloop
  endfacet
  facet normal  0.000000e+000 -9.510565e-001 -3.090171e-001
    outer loop
      vertex  1.600000e+000  2.588854e+000  1.880913e+000
      vertex  0.000000e+000  3.200000e+000  0.000000e+000
      vertex  1.600000e+000  3.200000e+000  0.000000e+000
    endloop
  endfacet
  facet normal  0.000000e+000 -5.877852e-001  8.090170e-001
    outer loop
      vertex  0.000000e+000  9.888544e-001 -3.043381e+000
      vertex  1.600000e+000  2.588854e+000 -1.880913e+000
      vertex  0.000000e+000  2.588854e+000 -1.880913e+000
    endloop
  endfacet
  facet normal  0.000000e+000 -9.510565e-001  3.090171e-001
    outer loop
      vertex  0.000000e+000  2.588854e+000 -1.880913e+000
      vertex  1.600000e+000  2.588854e+000 -1.880913e+000
      vertex  1.600000e+000  3.200000e+000  0.000000e+000
    endloop
  endfacet
  facet normal  0.000000e+000 -9.510565e-001  3.090171e-001
    outer loop
      vertex  0.000000e+000  2.588854e+000 -1.880913e+000
      vertex  1.600000e+000  3.200000e+000  0.000000e+000
      vertex  0.000000e+000  3.200000e+000  0.000000e+000
    endloop
  endfacet
  facet normal  0.000000e+000 -5.877852e-001  8.090170e-001
    outer loop
      vertex  1.600000e+000  2.588854e+000 -1.880913e+000
      vertex  0.000000e+000  9.888544e-001 -3.043381e+000
      vertex  1.600000e+000  9.888544e-001 -3.043381e+000
    endloop
  endfacet
  facet normal  0.000000e+000  0.000000e+000  9.999999e-001
    outer loop
      vertex  1.600000e+000  9.888544e-001 -3.043381e+000
      vertex  0.000000e+000  9.888544e-001 -3.043381e+000
      vertex  0.000000e+000 -9.888544e-001 -3.043381e+000
    endloop
  endfacet
  facet normal  0.000000e+000  0.000000e+000  9.999999e-001
    outer loop
      vertex  1.600000e+000  9.888544e-001 -3.043381e+000
      vertex  0.000000e+000 -9.888544e-001 -3.043381e+000
      vertex  1.600000e+000 -9.888544e-001 -3.043381e+000
    endloop
  endfacet
  facet normal  0.000000e+000  5.877852e-001  8.090170e-001
    outer loop
      vertex  1.600000e+000 -9.888544e-001 -3.043381e+000
      vertex  0.000000e+000 -9.888544e-001 -3.043381e+000
      vertex  0.000000e+000 -2.588854e+000 -1.880913e+000
    endloop
  endfacet
  facet normal  -0.000000e+000  5.877852e-001  8.090170e-001
    outer loop
      vertex  1.600000e+000 -9.888544e-001 -3.043381e+000
      vertex  0.000000e+000 -2.588854e+000 -1.880913e+000
      vertex  1.600000e+000 -2.588854e+000 -1.880913e+000
    endloop
  endfacet
  facet normal  0.000000e+000  9.510565e-001  3.090171e-001
    outer loop
      vertex  1.600000e+000 -2.588854e+000 -1.880913e+000
      vertex  0.000000e+000 -2.588854e+000 -1.880913e+000
      vertex  0.000000e+000 -3.200000e+000  3.918740e-016
    endloop
  endfacet
  facet normal  -0.000000e+000  9.510565e-001  3.090171e-001
    outer loop
      vertex  1.600000e+000 -2.588854e+000 -1.880913e+000
      vertex  0.000000e+000 -3.200000e+000  3.918740e-016
      vertex  1.600000e+000 -3.200000e+000  3.918740e-016
    endloop
  endfacet
endsolid CATIA STL
