solid CATIA STL
  facet normal  0.000000e+000  1.000000e+000  0.000000e+000
    outer loop
      vertex  0.000000e+000  3.600000e+001  2.200000e+001
      vertex  9.774748e+000  3.600000e+001  1.627094e+001
      vertex  7.792248e+000  3.600000e+001  1.483057e+001
    endloop
  endfacet
  facet normal  0.000000e+000  1.000000e+000  0.000000e+000
    outer loop
      vertex  0.000000e+000  3.600000e+001  2.200000e+001
      vertex  7.792248e+000  3.600000e+001  1.483057e+001
      vertex  7.035000e+000  3.600000e+001  1.250000e+001
    endloop
  endfacet
  facet normal  0.000000e+000  1.000000e+000  -0.000000e+000
    outer loop
      vertex  2.200000e+001  3.600000e+001  2.200000e+001
      vertex  1.496500e+001  3.600000e+001  1.250000e+001
      vertex  1.420775e+001  3.600000e+001  1.483057e+001
    endloop
  endfacet
  facet normal  0.000000e+000  1.000000e+000  -0.000000e+000
    outer loop
      vertex  2.200000e+001  3.600000e+001  2.200000e+001
      vertex  1.420775e+001  3.600000e+001  1.483057e+001
      vertex  1.222525e+001  3.600000e+001  1.627094e+001
    endloop
  endfacet
  facet normal  0.000000e+000  9.999999e-001  -0.000000e+000
    outer loop
      vertex  2.200000e+001  3.600000e+001  2.200000e+001
      vertex  1.222525e+001  3.600000e+001  1.627094e+001
      vertex  9.774748e+000  3.600000e+001  1.627094e+001
    endloop
  endfacet
  facet normal  0.000000e+000  9.999999e-001  -0.000000e+000
    outer loop
      vertex  2.200000e+001  3.600000e+001  2.200000e+001
      vertex  9.774748e+000  3.600000e+001  1.627094e+001
      vertex  0.000000e+000  3.600000e+001  2.200000e+001
    endloop
  endfacet
  facet normal  0.000000e+000  1.000000e+000  0.000000e+000
    outer loop
      vertex  0.000000e+000  3.600000e+001  0.000000e+000
      vertex  0.000000e+000  3.600000e+001  2.200000e+001
      vertex  7.035000e+000  3.600000e+001  1.250000e+001
    endloop
  endfacet
  facet normal  0.000000e+000  9.999999e-001  0.000000e+000
    outer loop
      vertex  0.000000e+000  3.600000e+001  0.000000e+000
      vertex  7.035000e+000  3.600000e+001  1.250000e+001
      vertex  7.792248e+000  3.600000e+001  1.016943e+001
    endloop
  endfacet
  facet normal  0.000000e+000  1.000000e+000  0.000000e+000
    outer loop
      vertex  0.000000e+000  3.600000e+001  0.000000e+000
      vertex  7.792248e+000  3.600000e+001  1.016943e+001
      vertex  9.774748e+000  3.600000e+001  8.729061e+000
    endloop
  endfacet
  facet normal  -0.000000e+000  1.000000e+000  0.000000e+000
    outer loop
      vertex  0.000000e+000  3.600000e+001  0.000000e+000
      vertex  9.774748e+000  3.600000e+001  8.729061e+000
      vertex  1.222525e+001  3.600000e+001  8.729061e+000
    endloop
  endfacet
  facet normal  0.000000e+000  1.000000e+000  0.000000e+000
    outer loop
      vertex  0.000000e+000  3.600000e+001  0.000000e+000
      vertex  1.222525e+001  3.600000e+001  8.729061e+000
      vertex  2.200000e+001  3.600000e+001  0.000000e+000
    endloop
  endfacet
  facet normal  -0.000000e+000  1.000000e+000  0.000000e+000
    outer loop
      vertex  2.200000e+001  3.600000e+001  0.000000e+000
      vertex  1.222525e+001  3.600000e+001  8.729061e+000
      vertex  1.420775e+001  3.600000e+001  1.016943e+001
    endloop
  endfacet
  facet normal  -0.000000e+000  9.999999e-001  0.000000e+000
    outer loop
      vertex  2.200000e+001  3.600000e+001  0.000000e+000
      vertex  1.420775e+001  3.600000e+001  1.016943e+001
      vertex  1.496500e+001  3.600000e+001  1.250000e+001
    endloop
  endfacet
  facet normal  -0.000000e+000  1.000000e+000  0.000000e+000
    outer loop
      vertex  2.200000e+001  3.600000e+001  0.000000e+000
      vertex  1.496500e+001  3.600000e+001  1.250000e+001
      vertex  2.200000e+001  3.600000e+001  2.200000e+001
    endloop
  endfacet
  facet normal  5.877852e-001  0.000000e+000  8.090171e-001
    outer loop
      vertex  9.774748e+000  2.300000e+001  8.729061e+000
      vertex  7.792248e+000  3.600000e+001  1.016943e+001
      vertex  7.792248e+000  2.300000e+001  1.016943e+001
    endloop
  endfacet
  facet normal  9.510565e-001  -0.000000e+000  3.090171e-001
    outer loop
      vertex  7.792248e+000  2.300000e+001  1.016943e+001
      vertex  7.792248e+000  3.600000e+001  1.016943e+001
      vertex  7.035000e+000  3.600000e+001  1.250000e+001
    endloop
  endfacet
  facet normal  9.510565e-001  0.000000e+000  3.090171e-001
    outer loop
      vertex  7.792248e+000  2.300000e+001  1.016943e+001
      vertex  7.035000e+000  3.600000e+001  1.250000e+001
      vertex  7.035000e+000  2.300000e+001  1.250000e+001
    endloop
  endfacet
  facet normal  5.877852e-001  -0.000000e+000  8.090171e-001
    outer loop
      vertex  7.792248e+000  3.600000e+001  1.016943e+001
      vertex  9.774748e+000  2.300000e+001  8.729061e+000
      vertex  9.774748e+000  3.600000e+001  8.729061e+000
    endloop
  endfacet
  facet normal  0.000000e+000  0.000000e+000  9.999999e-001
    outer loop
      vertex  9.774748e+000  3.600000e+001  8.729061e+000
      vertex  9.774748e+000  2.300000e+001  8.729061e+000
      vertex  1.222525e+001  2.300000e+001  8.729061e+000
    endloop
  endfacet
  facet normal  0.000000e+000  -0.000000e+000  9.999999e-001
    outer loop
      vertex  9.774748e+000  3.600000e+001  8.729061e+000
      vertex  1.222525e+001  2.300000e+001  8.729061e+000
      vertex  1.222525e+001  3.600000e+001  8.729061e+000
    endloop
  endfacet
  facet normal -5.877852e-001  0.000000e+000  8.090171e-001
    outer loop
      vertex  1.222525e+001  3.600000e+001  8.729061e+000
      vertex  1.222525e+001  2.300000e+001  8.729061e+000
      vertex  1.420775e+001  2.300000e+001  1.016943e+001
    endloop
  endfacet
  facet normal -5.877852e-001  0.000000e+000  8.090171e-001
    outer loop
      vertex  1.222525e+001  3.600000e+001  8.729061e+000
      vertex  1.420775e+001  2.300000e+001  1.016943e+001
      vertex  1.420775e+001  3.600000e+001  1.016943e+001
    endloop
  endfacet
  facet normal -9.510565e-001  0.000000e+000  3.090171e-001
    outer loop
      vertex  1.420775e+001  3.600000e+001  1.016943e+001
      vertex  1.420775e+001  2.300000e+001  1.016943e+001
      vertex  1.496500e+001  2.300000e+001  1.250000e+001
    endloop
  endfacet
  facet normal -9.510565e-001  0.000000e+000  3.090171e-001
    outer loop
      vertex  1.420775e+001  3.600000e+001  1.016943e+001
      vertex  1.496500e+001  2.300000e+001  1.250000e+001
      vertex  1.496500e+001  3.600000e+001  1.250000e+001
    endloop
  endfacet
  facet normal -5.877852e-001  -0.000000e+000 -8.090171e-001
    outer loop
      vertex  1.222525e+001  2.300000e+001  1.627094e+001
      vertex  1.420775e+001  3.600000e+001  1.483057e+001
      vertex  1.420775e+001  2.300000e+001  1.483057e+001
    endloop
  endfacet
  facet normal -9.510565e-001  0.000000e+000 -3.090171e-001
    outer loop
      vertex  1.420775e+001  2.300000e+001  1.483057e+001
      vertex  1.420775e+001  3.600000e+001  1.483057e+001
      vertex  1.496500e+001  3.600000e+001  1.250000e+001
    endloop
  endfacet
  facet normal -9.510565e-001  -0.000000e+000 -3.090171e-001
    outer loop
      vertex  1.420775e+001  2.300000e+001  1.483057e+001
      vertex  1.496500e+001  3.600000e+001  1.250000e+001
      vertex  1.496500e+001  2.300000e+001  1.250000e+001
    endloop
  endfacet
  facet normal -5.877852e-001  0.000000e+000 -8.090171e-001
    outer loop
      vertex  1.420775e+001  3.600000e+001  1.483057e+001
      vertex  1.222525e+001  2.300000e+001  1.627094e+001
      vertex  1.222525e+001  3.600000e+001  1.627094e+001
    endloop
  endfacet
  facet normal  0.000000e+000  -0.000000e+000 -9.999999e-001
    outer loop
      vertex  1.222525e+001  3.600000e+001  1.627094e+001
      vertex  1.222525e+001  2.300000e+001  1.627094e+001
      vertex  9.774748e+000  2.300000e+001  1.627094e+001
    endloop
  endfacet
  facet normal  0.000000e+000  0.000000e+000 -9.999999e-001
    outer loop
      vertex  1.222525e+001  3.600000e+001  1.627094e+001
      vertex  9.774748e+000  2.300000e+001  1.627094e+001
      vertex  9.774748e+000  3.600000e+001  1.627094e+001
    endloop
  endfacet
  facet normal  5.877852e-001  0.000000e+000 -8.090171e-001
    outer loop
      vertex  9.774748e+000  3.600000e+001  1.627094e+001
      vertex  9.774748e+000  2.300000e+001  1.627094e+001
      vertex  7.792248e+000  2.300000e+001  1.483057e+001
    endloop
  endfacet
  facet normal  5.877852e-001  0.000000e+000 -8.090171e-001
    outer loop
      vertex  9.774748e+000  3.600000e+001  1.627094e+001
      vertex  7.792248e+000  2.300000e+001  1.483057e+001
      vertex  7.792248e+000  3.600000e+001  1.483057e+001
    endloop
  endfacet
  facet normal  9.510565e-001  0.000000e+000 -3.090171e-001
    outer loop
      vertex  7.792248e+000  3.600000e+001  1.483057e+001
      vertex  7.792248e+000  2.300000e+001  1.483057e+001
      vertex  7.035000e+000  2.300000e+001  1.250000e+001
    endloop
  endfacet
  facet normal  9.510565e-001  0.000000e+000 -3.090171e-001
    outer loop
      vertex  7.792248e+000  3.600000e+001  1.483057e+001
      vertex  7.035000e+000  2.300000e+001  1.250000e+001
      vertex  7.035000e+000  3.600000e+001  1.250000e+001
    endloop
  endfacet
  facet normal  0.000000e+000  1.000000e+000  0.000000e+000
    outer loop
      vertex  9.774748e+000  2.300000e+001  1.627094e+001
      vertex  1.222525e+001  2.300000e+001  1.627094e+001
      vertex  7.792248e+000  2.300000e+001  1.483057e+001
    endloop
  endfacet
  facet normal  0.000000e+000  1.000000e+000  0.000000e+000
    outer loop
      vertex  7.792248e+000  2.300000e+001  1.483057e+001
      vertex  1.222525e+001  2.300000e+001  1.627094e+001
      vertex  1.420775e+001  2.300000e+001  1.483057e+001
    endloop
  endfacet
  facet normal  0.000000e+000  1.000000e+000  0.000000e+000
    outer loop
      vertex  7.792248e+000  2.300000e+001  1.483057e+001
      vertex  1.420775e+001  2.300000e+001  1.483057e+001
      vertex  7.035000e+000  2.300000e+001  1.250000e+001
    endloop
  endfacet
  facet normal  0.000000e+000  1.000000e+000  0.000000e+000
    outer loop
      vertex  7.035000e+000  2.300000e+001  1.250000e+001
      vertex  1.420775e+001  2.300000e+001  1.483057e+001
      vertex  1.496500e+001  2.300000e+001  1.250000e+001
    endloop
  endfacet
  facet normal  0.000000e+000  1.000000e+000  0.000000e+000
    outer loop
      vertex  7.035000e+000  2.300000e+001  1.250000e+001
      vertex  1.496500e+001  2.300000e+001  1.250000e+001
      vertex  7.792248e+000  2.300000e+001  1.016943e+001
    endloop
  endfacet
  facet normal  0.000000e+000  1.000000e+000  0.000000e+000
    outer loop
      vertex  7.792248e+000  2.300000e+001  1.016943e+001
      vertex  1.496500e+001  2.300000e+001  1.250000e+001
      vertex  1.420775e+001  2.300000e+001  1.016943e+001
    endloop
  endfacet
  facet normal  0.000000e+000  1.000000e+000  0.000000e+000
    outer loop
      vertex  7.792248e+000  2.300000e+001  1.016943e+001
      vertex  1.420775e+001  2.300000e+001  1.016943e+001
      vertex  9.774748e+000  2.300000e+001  8.729061e+000
    endloop
  endfacet
  facet normal  0.000000e+000  1.000000e+000  0.000000e+000
    outer loop
      vertex  9.774748e+000  2.300000e+001  8.729061e+000
      vertex  1.420775e+001  2.300000e+001  1.016943e+001
      vertex  1.222525e+001  2.300000e+001  8.729061e+000
    endloop
  endfacet
  facet normal  0.000000e+000 -1.000000e+000  -0.000000e+000
    outer loop
      vertex  2.200000e+001  2.000000e+001  1.050000e+001
      vertex  2.200000e+001  2.000000e+001  1.150000e+001
      vertex  0.000000e+000  2.000000e+001  1.050000e+001
    endloop
  endfacet
  facet normal  0.000000e+000 -1.000000e+000  0.000000e+000
    outer loop
      vertex  0.000000e+000  2.000000e+001  1.050000e+001
      vertex  2.200000e+001  2.000000e+001  1.150000e+001
      vertex  0.000000e+000  2.000000e+001  1.150000e+001
    endloop
  endfacet
  facet normal  -0.000000e+000  0.000000e+000  1.000000e+000
    outer loop
      vertex  1.905000e+001  1.000000e+001  5.000000e+000
      vertex  1.843723e+001  6.919398e+000  5.000000e+000
      vertex  1.950000e+001  6.698730e-001  5.000000e+000
    endloop
  endfacet
  facet normal  -0.000000e+000  0.000000e+000  9.999999e-001
    outer loop
      vertex  0.000000e+000  1.450000e+001  5.000000e+000
      vertex  0.000000e+000  5.000000e+000  5.000000e+000
      vertex  6.698730e-001  2.500000e+000  5.000000e+000
    endloop
  endfacet
  facet normal  0.000000e+000  -0.000000e+000  1.000000e+000
    outer loop
      vertex  0.000000e+000  1.450000e+001  5.000000e+000
      vertex  6.698730e-001  2.500000e+000  5.000000e+000
      vertex  2.950000e+000  1.000000e+001  5.000000e+000
    endloop
  endfacet
  facet normal  0.000000e+000  -0.000000e+000  1.000000e+000
    outer loop
      vertex  0.000000e+000  1.450000e+001  5.000000e+000
      vertex  2.950000e+000  1.000000e+001  5.000000e+000
      vertex  3.301482e+000  1.235273e+001  5.000000e+000
    endloop
  endfacet
  facet normal  0.000000e+000  -0.000000e+000  1.000000e+000
    outer loop
      vertex  0.000000e+000  1.450000e+001  5.000000e+000
      vertex  3.301482e+000  1.235273e+001  5.000000e+000
      vertex  4.325234e+000  1.450000e+001  5.000000e+000
    endloop
  endfacet
  facet normal  -0.000000e+000  0.000000e+000  1.000000e+000
    outer loop
      vertex  2.200000e+001  1.450000e+001  5.000000e+000
      vertex  1.767477e+001  1.450000e+001  5.000000e+000
      vertex  1.869852e+001  1.235273e+001  5.000000e+000
    endloop
  endfacet
  facet normal  -0.000000e+000  0.000000e+000  1.000000e+000
    outer loop
      vertex  2.200000e+001  1.450000e+001  5.000000e+000
      vertex  1.869852e+001  1.235273e+001  5.000000e+000
      vertex  1.905000e+001  1.000000e+001  5.000000e+000
    endloop
  endfacet
  facet normal  -0.000000e+000  0.000000e+000  1.000000e+000
    outer loop
      vertex  2.200000e+001  1.450000e+001  5.000000e+000
      vertex  1.905000e+001  1.000000e+001  5.000000e+000
      vertex  1.950000e+001  6.698730e-001  5.000000e+000
    endloop
  endfacet
  facet normal  0.000000e+000  0.000000e+000  1.000000e+000
    outer loop
      vertex  2.200000e+001  1.450000e+001  5.000000e+000
      vertex  1.950000e+001  6.698730e-001  5.000000e+000
      vertex  2.133013e+001  2.500000e+000  5.000000e+000
    endloop
  endfacet
  facet normal  0.000000e+000  0.000000e+000  1.000000e+000
    outer loop
      vertex  2.200000e+001  1.450000e+001  5.000000e+000
      vertex  2.133013e+001  2.500000e+000  5.000000e+000
      vertex  2.200000e+001  5.000000e+000  5.000000e+000
    endloop
  endfacet
  facet normal  0.000000e+000  0.000000e+000  1.000000e+000
    outer loop
      vertex  5.000000e+000  8.881784e-016  5.000000e+000
      vertex  1.700000e+001  0.000000e+000  5.000000e+000
      vertex  7.919398e+000  2.562770e+000  5.000000e+000
    endloop
  endfacet
  facet normal  0.000000e+000  0.000000e+000  1.000000e+000
    outer loop
      vertex  5.000000e+000  8.881784e-016  5.000000e+000
      vertex  7.919398e+000  2.562770e+000  5.000000e+000
      vertex  5.307790e+000  4.307790e+000  5.000000e+000
    endloop
  endfacet
  facet normal  0.000000e+000  0.000000e+000  1.000000e+000
    outer loop
      vertex  5.000000e+000  8.881784e-016  5.000000e+000
      vertex  5.307790e+000  4.307790e+000  5.000000e+000
      vertex  3.562770e+000  6.919398e+000  5.000000e+000
    endloop
  endfacet
  facet normal  0.000000e+000  0.000000e+000  1.000000e+000
    outer loop
      vertex  5.000000e+000  8.881784e-016  5.000000e+000
      vertex  3.562770e+000  6.919398e+000  5.000000e+000
      vertex  2.500000e+000  6.698730e-001  5.000000e+000
    endloop
  endfacet
  facet normal  0.000000e+000  0.000000e+000  1.000000e+000
    outer loop
      vertex  1.700000e+001  0.000000e+000  5.000000e+000
      vertex  1.950000e+001  6.698730e-001  5.000000e+000
      vertex  1.843723e+001  6.919398e+000  5.000000e+000
    endloop
  endfacet
  facet normal  0.000000e+000  0.000000e+000  1.000000e+000
    outer loop
      vertex  1.700000e+001  0.000000e+000  5.000000e+000
      vertex  1.843723e+001  6.919398e+000  5.000000e+000
      vertex  1.669221e+001  4.307790e+000  5.000000e+000
    endloop
  endfacet
  facet normal  0.000000e+000  0.000000e+000  1.000000e+000
    outer loop
      vertex  1.700000e+001  0.000000e+000  5.000000e+000
      vertex  1.669221e+001  4.307790e+000  5.000000e+000
      vertex  1.408060e+001  2.562770e+000  5.000000e+000
    endloop
  endfacet
  facet normal  0.000000e+000  0.000000e+000  1.000000e+000
    outer loop
      vertex  1.700000e+001  0.000000e+000  5.000000e+000
      vertex  1.408060e+001  2.562770e+000  5.000000e+000
      vertex  1.100000e+001  1.950000e+000  5.000000e+000
    endloop
  endfacet
  facet normal  0.000000e+000  0.000000e+000  1.000000e+000
    outer loop
      vertex  1.700000e+001  0.000000e+000  5.000000e+000
      vertex  1.100000e+001  1.950000e+000  5.000000e+000
      vertex  7.919398e+000  2.562770e+000  5.000000e+000
    endloop
  endfacet
  facet normal  0.000000e+000  0.000000e+000  1.000000e+000
    outer loop
      vertex  2.500000e+000  6.698730e-001  5.000000e+000
      vertex  3.562770e+000  6.919398e+000  5.000000e+000
      vertex  6.698730e-001  2.500000e+000  5.000000e+000
    endloop
  endfacet
  facet normal  0.000000e+000  0.000000e+000  1.000000e+000
    outer loop
      vertex  6.698730e-001  2.500000e+000  5.000000e+000
      vertex  3.562770e+000  6.919398e+000  5.000000e+000
      vertex  2.950000e+000  1.000000e+001  5.000000e+000
    endloop
  endfacet
  facet normal  9.025499e-001 -4.303070e-001 -1.547701e-002
    outer loop
      vertex  4.325234e+000  1.450000e+001  5.000000e+000
      vertex  3.301482e+000  1.235273e+001  5.000000e+000
      vertex  3.562770e+000  1.308060e+001  0.000000e+000
    endloop
  endfacet
  facet normal  8.310724e-001 -5.553049e-001  3.090716e-002
    outer loop
      vertex  4.325234e+000  1.450000e+001  5.000000e+000
      vertex  3.562770e+000  1.308060e+001  0.000000e+000
      vertex  5.307790e+000  1.569221e+001  0.000000e+000
    endloop
  endfacet
  facet normal  7.469509e-001 -6.647758e-001 -1.172609e-002
    outer loop
      vertex  4.325234e+000  1.450000e+001  5.000000e+000
      vertex  5.307790e+000  1.569221e+001  0.000000e+000
      vertex  5.772085e+000  1.612139e+001  5.244422e+000
    endloop
  endfacet
  facet normal -7.522493e-001 -6.588135e-001 -9.263096e-003
    outer loop
      vertex  1.767477e+001  1.450000e+001  5.000000e+000
      vertex  1.632887e+001  1.603370e+001  5.218168e+000
      vertex  1.669221e+001  1.569221e+001  0.000000e+000
    endloop
  endfacet
  facet normal -8.310722e-001 -5.553051e-001  3.090722e-002
    outer loop
      vertex  1.767477e+001  1.450000e+001  5.000000e+000
      vertex  1.669221e+001  1.569221e+001  0.000000e+000
      vertex  1.843723e+001  1.308060e+001  0.000000e+000
    endloop
  endfacet
  facet normal -9.025499e-001 -4.303070e-001 -1.547705e-002
    outer loop
      vertex  1.767477e+001  1.450000e+001  5.000000e+000
      vertex  1.843723e+001  1.308060e+001  0.000000e+000
      vertex  1.869852e+001  1.235273e+001  5.000000e+000
    endloop
  endfacet
  facet normal  9.885742e-001 -1.476865e-001  3.016099e-002
    outer loop
      vertex  3.301482e+000  1.235273e+001  5.000000e+000
      vertex  2.950000e+000  1.000000e+001  5.000000e+000
      vertex  3.562770e+000  1.308060e+001  0.000000e+000
    endloop
  endfacet
  facet normal  9.807853e-001 -1.950903e-001  0.000000e+000
    outer loop
      vertex  3.562770e+000  1.308060e+001  0.000000e+000
      vertex  2.950000e+000  1.000000e+001  5.000000e+000
      vertex  2.950000e+000  1.000000e+001  0.000000e+000
    endloop
  endfacet
  facet normal  9.274036e-002 -9.956899e-001 -9.776386e-004
    outer loop
      vertex  1.106370e+001  1.804975e+001  6.298894e+000
      vertex  9.451924e+000  1.789974e+001  6.176606e+000
      vertex  1.100000e+001  1.805000e+001  0.000000e+000
    endloop
  endfacet
  facet normal  2.957676e-001 -9.539015e-001  5.092472e-002
    outer loop
      vertex  1.100000e+001  1.805000e+001  0.000000e+000
      vertex  9.451924e+000  1.789974e+001  6.176606e+000
      vertex  7.649356e+000  1.731954e+001  5.777693e+000
    endloop
  endfacet
  facet normal  1.950783e-001 -9.807276e-001 -1.085929e-002
    outer loop
      vertex  1.100000e+001  1.805000e+001  0.000000e+000
      vertex  7.649356e+000  1.731954e+001  5.777693e+000
      vertex  7.919398e+000  1.743723e+001  0.000000e+000
    endloop
  endfacet
  facet normal  5.363935e-001 -8.439312e-001  7.879823e-003
    outer loop
      vertex  7.919398e+000  1.743723e+001  0.000000e+000
      vertex  7.649356e+000  1.731954e+001  5.777693e+000
      vertex  5.772085e+000  1.612139e+001  5.244422e+000
    endloop
  endfacet
  facet normal  5.554717e-001 -8.313217e-001  1.885514e-002
    outer loop
      vertex  7.919398e+000  1.743723e+001  0.000000e+000
      vertex  5.772085e+000  1.612139e+001  5.244422e+000
      vertex  5.307790e+000  1.569221e+001  0.000000e+000
    endloop
  endfacet
  facet normal -3.557707e-001 -9.345676e-001 -3.266947e-003
    outer loop
      vertex  1.441432e+001  1.729006e+001  5.760213e+000
      vertex  1.328612e+001  1.771856e+001  6.040081e+000
      vertex  1.408060e+001  1.743723e+001  0.000000e+000
    endloop
  endfacet
  facet normal -1.442515e-001 -9.891700e-001  2.709838e-002
    outer loop
      vertex  1.408060e+001  1.743723e+001  0.000000e+000
      vertex  1.328612e+001  1.771856e+001  6.040081e+000
      vertex  1.106370e+001  1.804975e+001  6.298894e+000
    endloop
  endfacet
  facet normal -1.950895e-001 -9.807835e-001  1.933648e-003
    outer loop
      vertex  1.408060e+001  1.743723e+001  0.000000e+000
      vertex  1.106370e+001  1.804975e+001  6.298894e+000
      vertex  1.100000e+001  1.805000e+001  0.000000e+000
    endloop
  endfacet
  facet normal -5.465700e-001 -8.373504e-001  1.027088e-002
    outer loop
      vertex  1.441432e+001  1.729006e+001  5.760213e+000
      vertex  1.408060e+001  1.743723e+001  0.000000e+000
      vertex  1.632887e+001  1.603370e+001  5.218168e+000
    endloop
  endfacet
  facet normal -5.555018e-001 -8.313665e-001  1.572868e-002
    outer loop
      vertex  1.632887e+001  1.603370e+001  5.218168e+000
      vertex  1.408060e+001  1.743723e+001  0.000000e+000
      vertex  1.669221e+001  1.569221e+001  0.000000e+000
    endloop
  endfacet
  facet normal -9.885742e-001 -1.476860e-001  3.016102e-002
    outer loop
      vertex  1.869852e+001  1.235273e+001  5.000000e+000
      vertex  1.843723e+001  1.308060e+001  0.000000e+000
      vertex  1.905000e+001  1.000000e+001  5.000000e+000
    endloop
  endfacet
  facet normal -9.807854e-001 -1.950898e-001  -0.000000e+000
    outer loop
      vertex  1.905000e+001  1.000000e+001  5.000000e+000
      vertex  1.843723e+001  1.308060e+001  0.000000e+000
      vertex  1.905000e+001  1.000000e+001  0.000000e+000
    endloop
  endfacet
  facet normal  1.000000e+000  -0.000000e+000  0.000000e+000
    outer loop
      vertex  2.200000e+001  3.600000e+001  2.200000e+001
      vertex  2.200000e+001  5.000000e+000  2.200000e+001
      vertex  2.200000e+001  5.000000e+000  1.700000e+001
    endloop
  endfacet
  facet normal  1.000000e+000  0.000000e+000  0.000000e+000
    outer loop
      vertex  2.200000e+001  3.600000e+001  2.200000e+001
      vertex  2.200000e+001  5.000000e+000  1.700000e+001
      vertex  2.200000e+001  1.450000e+001  1.700000e+001
    endloop
  endfacet
  facet normal  9.999999e-001  -0.000000e+000  0.000000e+000
    outer loop
      vertex  2.200000e+001  3.600000e+001  2.200000e+001
      vertex  2.200000e+001  1.450000e+001  1.700000e+001
      vertex  2.200000e+001  1.725000e+001  1.626314e+001
    endloop
  endfacet
  facet normal  1.000000e+000  -0.000000e+000  0.000000e+000
    outer loop
      vertex  2.200000e+001  3.600000e+001  2.200000e+001
      vertex  2.200000e+001  1.725000e+001  1.626314e+001
      vertex  2.200000e+001  1.926314e+001  1.425000e+001
    endloop
  endfacet
  facet normal  1.000000e+000  -0.000000e+000  0.000000e+000
    outer loop
      vertex  2.200000e+001  3.600000e+001  2.200000e+001
      vertex  2.200000e+001  1.926314e+001  1.425000e+001
      vertex  2.200000e+001  2.000000e+001  1.150000e+001
    endloop
  endfacet
  facet normal  1.000000e+000  -0.000000e+000  0.000000e+000
    outer loop
      vertex  2.200000e+001  3.600000e+001  2.200000e+001
      vertex  2.200000e+001  2.000000e+001  1.150000e+001
      vertex  2.200000e+001  2.000000e+001  1.050000e+001
    endloop
  endfacet
  facet normal  1.000000e+000  -0.000000e+000  0.000000e+000
    outer loop
      vertex  2.200000e+001  3.600000e+001  2.200000e+001
      vertex  2.200000e+001  2.000000e+001  1.050000e+001
      vertex  2.200000e+001  3.600000e+001  0.000000e+000
    endloop
  endfacet
  facet normal  1.000000e+000  0.000000e+000  0.000000e+000
    outer loop
      vertex  2.200000e+001  3.600000e+001  0.000000e+000
      vertex  2.200000e+001  2.000000e+001  1.050000e+001
      vertex  2.200000e+001  1.926314e+001  7.750000e+000
    endloop
  endfacet
  facet normal  1.000000e+000  0.000000e+000  0.000000e+000
    outer loop
      vertex  2.200000e+001  3.600000e+001  0.000000e+000
      vertex  2.200000e+001  1.926314e+001  7.750000e+000
      vertex  2.200000e+001  1.725000e+001  5.736860e+000
    endloop
  endfacet
  facet normal  9.999999e-001  0.000000e+000  0.000000e+000
    outer loop
      vertex  2.200000e+001  3.600000e+001  0.000000e+000
      vertex  2.200000e+001  1.725000e+001  5.736860e+000
      vertex  2.200000e+001  1.450000e+001  5.000000e+000
    endloop
  endfacet
  facet normal  1.000000e+000  0.000000e+000  0.000000e+000
    outer loop
      vertex  2.200000e+001  3.600000e+001  0.000000e+000
      vertex  2.200000e+001  1.450000e+001  5.000000e+000
      vertex  2.200000e+001  5.000000e+000  5.000000e+000
    endloop
  endfacet
  facet normal  1.000000e+000  0.000000e+000  0.000000e+000
    outer loop
      vertex  2.200000e+001  3.600000e+001  0.000000e+000
      vertex  2.200000e+001  5.000000e+000  5.000000e+000
      vertex  2.200000e+001  5.000000e+000  0.000000e+000
    endloop
  endfacet
  facet normal -1.000000e+000  0.000000e+000  0.000000e+000
    outer loop
      vertex  0.000000e+000  3.600000e+001  2.200000e+001
      vertex  0.000000e+000  3.600000e+001  0.000000e+000
      vertex  0.000000e+000  2.000000e+001  1.050000e+001
    endloop
  endfacet
  facet normal -1.000000e+000  0.000000e+000  0.000000e+000
    outer loop
      vertex  0.000000e+000  3.600000e+001  2.200000e+001
      vertex  0.000000e+000  2.000000e+001  1.050000e+001
      vertex  0.000000e+000  2.000000e+001  1.150000e+001
    endloop
  endfacet
  facet normal -1.000000e+000  0.000000e+000  0.000000e+000
    outer loop
      vertex  0.000000e+000  3.600000e+001  2.200000e+001
      vertex  0.000000e+000  2.000000e+001  1.150000e+001
      vertex  0.000000e+000  1.926314e+001  1.425000e+001
    endloop
  endfacet
  facet normal -1.000000e+000  0.000000e+000  0.000000e+000
    outer loop
      vertex  0.000000e+000  3.600000e+001  2.200000e+001
      vertex  0.000000e+000  1.926314e+001  1.425000e+001
      vertex  0.000000e+000  1.725000e+001  1.626314e+001
    endloop
  endfacet
  facet normal -9.999999e-001  0.000000e+000  0.000000e+000
    outer loop
      vertex  0.000000e+000  3.600000e+001  2.200000e+001
      vertex  0.000000e+000  1.725000e+001  1.626314e+001
      vertex  0.000000e+000  1.450000e+001  1.700000e+001
    endloop
  endfacet
  facet normal -1.000000e+000  0.000000e+000  0.000000e+000
    outer loop
      vertex  0.000000e+000  3.600000e+001  2.200000e+001
      vertex  0.000000e+000  1.450000e+001  1.700000e+001
      vertex  0.000000e+000  5.000000e+000  1.700000e+001
    endloop
  endfacet
  facet normal -1.000000e+000  0.000000e+000  0.000000e+000
    outer loop
      vertex  0.000000e+000  3.600000e+001  2.200000e+001
      vertex  0.000000e+000  5.000000e+000  1.700000e+001
      vertex  0.000000e+000  5.000000e+000  2.200000e+001
    endloop
  endfacet
  facet normal -1.000000e+000  0.000000e+000  0.000000e+000
    outer loop
      vertex  0.000000e+000  3.600000e+001  0.000000e+000
      vertex  0.000000e+000  5.000000e+000  0.000000e+000
      vertex  0.000000e+000  5.000000e+000  5.000000e+000
    endloop
  endfacet
  facet normal -1.000000e+000  0.000000e+000  0.000000e+000
    outer loop
      vertex  0.000000e+000  3.600000e+001  0.000000e+000
      vertex  0.000000e+000  5.000000e+000  5.000000e+000
      vertex  0.000000e+000  1.450000e+001  5.000000e+000
    endloop
  endfacet
  facet normal -9.999999e-001  0.000000e+000  0.000000e+000
    outer loop
      vertex  0.000000e+000  3.600000e+001  0.000000e+000
      vertex  0.000000e+000  1.450000e+001  5.000000e+000
      vertex  0.000000e+000  1.725000e+001  5.736860e+000
    endloop
  endfacet
  facet normal -1.000000e+000  0.000000e+000  0.000000e+000
    outer loop
      vertex  0.000000e+000  3.600000e+001  0.000000e+000
      vertex  0.000000e+000  1.725000e+001  5.736860e+000
      vertex  0.000000e+000  1.926314e+001  7.750000e+000
    endloop
  endfacet
  facet normal -1.000000e+000  0.000000e+000  0.000000e+000
    outer loop
      vertex  0.000000e+000  3.600000e+001  0.000000e+000
      vertex  0.000000e+000  1.926314e+001  7.750000e+000
      vertex  0.000000e+000  2.000000e+001  1.050000e+001
    endloop
  endfacet
  facet normal  2.653890e-003 -7.071043e-001  7.071043e-001
    outer loop
      vertex  0.000000e+000  1.926314e+001  7.750000e+000
      vertex  0.000000e+000  1.725000e+001  5.736860e+000
      vertex  7.649356e+000  1.731954e+001  5.777693e+000
    endloop
  endfacet
  facet normal  3.569803e-002 -6.391259e-001  7.682732e-001
    outer loop
      vertex  0.000000e+000  1.926314e+001  7.750000e+000
      vertex  7.649356e+000  1.731954e+001  5.777693e+000
      vertex  9.451924e+000  1.789974e+001  6.176606e+000
    endloop
  endfacet
  facet normal  1.340773e-002 -7.144074e-001  6.996014e-001
    outer loop
      vertex  0.000000e+000  1.926314e+001  7.750000e+000
      vertex  9.451924e+000  1.789974e+001  6.176606e+000
      vertex  1.106370e+001  1.804975e+001  6.298894e+000
    endloop
  endfacet
  facet normal  0.000000e+000 -7.671444e-001  6.414744e-001
    outer loop
      vertex  0.000000e+000  1.926314e+001  7.750000e+000
      vertex  1.106370e+001  1.804975e+001  6.298894e+000
      vertex  2.200000e+001  1.926314e+001  7.750000e+000
    endloop
  endfacet
  facet normal  0.000000e+000 -9.659259e-001  2.588190e-001
    outer loop
      vertex  0.000000e+000  1.926314e+001  7.750000e+000
      vertex  2.200000e+001  1.926314e+001  7.750000e+000
      vertex  2.200000e+001  2.000000e+001  1.050000e+001
    endloop
  endfacet
  facet normal  0.000000e+000 -9.659259e-001  2.588190e-001
    outer loop
      vertex  0.000000e+000  1.926314e+001  7.750000e+000
      vertex  2.200000e+001  2.000000e+001  1.050000e+001
      vertex  0.000000e+000  2.000000e+001  1.050000e+001
    endloop
  endfacet
  facet normal  7.410935e-004 -3.951936e-001  9.185976e-001
    outer loop
      vertex  1.441432e+001  1.729006e+001  5.760213e+000
      vertex  1.632887e+001  1.603370e+001  5.218168e+000
      vertex  2.200000e+001  1.725000e+001  5.736860e+000
    endloop
  endfacet
  facet normal -5.035822e-002 -1.838328e-001  9.816668e-001
    outer loop
      vertex  2.200000e+001  1.725000e+001  5.736860e+000
      vertex  1.632887e+001  1.603370e+001  5.218168e+000
      vertex  1.767477e+001  1.450000e+001  5.000000e+000
    endloop
  endfacet
  facet normal  0.000000e+000 -2.588190e-001  9.659258e-001
    outer loop
      vertex  2.200000e+001  1.725000e+001  5.736860e+000
      vertex  1.767477e+001  1.450000e+001  5.000000e+000
      vertex  2.200000e+001  1.450000e+001  5.000000e+000
    endloop
  endfacet
  facet normal -1.902655e-002 -6.917842e-001  7.218536e-001
    outer loop
      vertex  1.106370e+001  1.804975e+001  6.298894e+000
      vertex  1.328612e+001  1.771856e+001  6.040081e+000
      vertex  2.200000e+001  1.926314e+001  7.750000e+000
    endloop
  endfacet
  facet normal -4.284804e-002 -6.229594e-001  7.810797e-001
    outer loop
      vertex  2.200000e+001  1.926314e+001  7.750000e+000
      vertex  1.328612e+001  1.771856e+001  6.040081e+000
      vertex  1.441432e+001  1.729006e+001  5.760213e+000
    endloop
  endfacet
  facet normal -1.557041e-003 -7.071059e-001  7.071059e-001
    outer loop
      vertex  2.200000e+001  1.926314e+001  7.750000e+000
      vertex  1.441432e+001  1.729006e+001  5.760213e+000
      vertex  2.200000e+001  1.725000e+001  5.736860e+000
    endloop
  endfacet
  facet normal -1.198092e-003 -4.050537e-001  9.142921e-001
    outer loop
      vertex  7.649356e+000  1.731954e+001  5.777693e+000
      vertex  0.000000e+000  1.725000e+001  5.736860e+000
      vertex  5.772085e+000  1.612139e+001  5.244422e+000
    endloop
  endfacet
  facet normal  3.178405e-002 -2.586883e-001  9.654378e-001
    outer loop
      vertex  5.772085e+000  1.612139e+001  5.244422e+000
      vertex  0.000000e+000  1.725000e+001  5.736860e+000
      vertex  0.000000e+000  1.450000e+001  5.000000e+000
    endloop
  endfacet
  facet normal  0.000000e+000 -1.490642e-001  9.888275e-001
    outer loop
      vertex  5.772085e+000  1.612139e+001  5.244422e+000
      vertex  0.000000e+000  1.450000e+001  5.000000e+000
      vertex  4.325234e+000  1.450000e+001  5.000000e+000
    endloop
  endfacet
  facet normal  -0.000000e+000  0.000000e+000 -1.000000e+000
    outer loop
      vertex  0.000000e+000  1.450000e+001  1.700000e+001
      vertex  4.325234e+000  1.450000e+001  1.700000e+001
      vertex  3.301482e+000  1.235273e+001  1.700000e+001
    endloop
  endfacet
  facet normal  0.000000e+000  0.000000e+000 -1.000000e+000
    outer loop
      vertex  1.905000e+001  1.000000e+001  1.700000e+001
      vertex  1.950000e+001  6.698730e-001  1.700000e+001
      vertex  1.843723e+001  6.919398e+000  1.700000e+001
    endloop
  endfacet
  facet normal  -0.000000e+000  0.000000e+000 -1.000000e+000
    outer loop
      vertex  2.200000e+001  1.450000e+001  1.700000e+001
      vertex  2.200000e+001  5.000000e+000  1.700000e+001
      vertex  2.133013e+001  2.500000e+000  1.700000e+001
    endloop
  endfacet
  facet normal  -0.000000e+000  0.000000e+000 -1.000000e+000
    outer loop
      vertex  2.200000e+001  1.450000e+001  1.700000e+001
      vertex  2.133013e+001  2.500000e+000  1.700000e+001
      vertex  1.950000e+001  6.698730e-001  1.700000e+001
    endloop
  endfacet
  facet normal  0.000000e+000  0.000000e+000 -1.000000e+000
    outer loop
      vertex  2.200000e+001  1.450000e+001  1.700000e+001
      vertex  1.950000e+001  6.698730e-001  1.700000e+001
      vertex  1.905000e+001  1.000000e+001  1.700000e+001
    endloop
  endfacet
  facet normal  0.000000e+000  0.000000e+000 -1.000000e+000
    outer loop
      vertex  2.200000e+001  1.450000e+001  1.700000e+001
      vertex  1.905000e+001  1.000000e+001  1.700000e+001
      vertex  1.869852e+001  1.235273e+001  1.700000e+001
    endloop
  endfacet
  facet normal  0.000000e+000  0.000000e+000 -1.000000e+000
    outer loop
      vertex  2.200000e+001  1.450000e+001  1.700000e+001
      vertex  1.869852e+001  1.235273e+001  1.700000e+001
      vertex  1.767477e+001  1.450000e+001  1.700000e+001
    endloop
  endfacet
  facet normal  0.000000e+000  0.000000e+000 -1.000000e+000
    outer loop
      vertex  5.000000e+000  0.000000e+000  1.700000e+001
      vertex  2.500000e+000  6.698730e-001  1.700000e+001
      vertex  3.562770e+000  6.919398e+000  1.700000e+001
    endloop
  endfacet
  facet normal  0.000000e+000  0.000000e+000 -1.000000e+000
    outer loop
      vertex  5.000000e+000  0.000000e+000  1.700000e+001
      vertex  3.562770e+000  6.919398e+000  1.700000e+001
      vertex  5.307790e+000  4.307790e+000  1.700000e+001
    endloop
  endfacet
  facet normal  0.000000e+000  -0.000000e+000 -1.000000e+000
    outer loop
      vertex  5.000000e+000  0.000000e+000  1.700000e+001
      vertex  5.307790e+000  4.307790e+000  1.700000e+001
      vertex  7.919398e+000  2.562770e+000  1.700000e+001
    endloop
  endfacet
  facet normal  0.000000e+000  -0.000000e+000 -1.000000e+000
    outer loop
      vertex  5.000000e+000  0.000000e+000  1.700000e+001
      vertex  7.919398e+000  2.562770e+000  1.700000e+001
      vertex  1.700000e+001  0.000000e+000  1.700000e+001
    endloop
  endfacet
  facet normal  -0.000000e+000  0.000000e+000 -9.999999e-001
    outer loop
      vertex  2.950000e+000  1.000000e+001  1.700000e+001
      vertex  3.562770e+000  6.919398e+000  1.700000e+001
      vertex  2.500000e+000  6.698730e-001  1.700000e+001
    endloop
  endfacet
  facet normal  0.000000e+000  0.000000e+000 -1.000000e+000
    outer loop
      vertex  2.950000e+000  1.000000e+001  1.700000e+001
      vertex  2.500000e+000  6.698730e-001  1.700000e+001
      vertex  6.698730e-001  2.500000e+000  1.700000e+001
    endloop
  endfacet
  facet normal  0.000000e+000  0.000000e+000 -1.000000e+000
    outer loop
      vertex  2.950000e+000  1.000000e+001  1.700000e+001
      vertex  6.698730e-001  2.500000e+000  1.700000e+001
      vertex  0.000000e+000  5.000000e+000  1.700000e+001
    endloop
  endfacet
  facet normal  0.000000e+000  0.000000e+000 -1.000000e+000
    outer loop
      vertex  2.950000e+000  1.000000e+001  1.700000e+001
      vertex  0.000000e+000  5.000000e+000  1.700000e+001
      vertex  0.000000e+000  1.450000e+001  1.700000e+001
    endloop
  endfacet
  facet normal  0.000000e+000  0.000000e+000 -1.000000e+000
    outer loop
      vertex  2.950000e+000  1.000000e+001  1.700000e+001
      vertex  0.000000e+000  1.450000e+001  1.700000e+001
      vertex  3.301482e+000  1.235273e+001  1.700000e+001
    endloop
  endfacet
  facet normal  0.000000e+000  0.000000e+000 -1.000000e+000
    outer loop
      vertex  1.700000e+001  0.000000e+000  1.700000e+001
      vertex  7.919398e+000  2.562770e+000  1.700000e+001
      vertex  1.100000e+001  1.950000e+000  1.700000e+001
    endloop
  endfacet
  facet normal  0.000000e+000  0.000000e+000 -1.000000e+000
    outer loop
      vertex  1.700000e+001  0.000000e+000  1.700000e+001
      vertex  1.100000e+001  1.950000e+000  1.700000e+001
      vertex  1.408060e+001  2.562770e+000  1.700000e+001
    endloop
  endfacet
  facet normal  0.000000e+000  0.000000e+000 -1.000000e+000
    outer loop
      vertex  1.700000e+001  0.000000e+000  1.700000e+001
      vertex  1.408060e+001  2.562770e+000  1.700000e+001
      vertex  1.669221e+001  4.307790e+000  1.700000e+001
    endloop
  endfacet
  facet normal  0.000000e+000  0.000000e+000 -1.000000e+000
    outer loop
      vertex  1.700000e+001  0.000000e+000  1.700000e+001
      vertex  1.669221e+001  4.307790e+000  1.700000e+001
      vertex  1.843723e+001  6.919398e+000  1.700000e+001
    endloop
  endfacet
  facet normal  0.000000e+000  -0.000000e+000 -1.000000e+000
    outer loop
      vertex  1.700000e+001  0.000000e+000  1.700000e+001
      vertex  1.843723e+001  6.919398e+000  1.700000e+001
      vertex  1.950000e+001  6.698730e-001  1.700000e+001
    endloop
  endfacet
  facet normal -9.025499e-001 -4.303070e-001  1.547705e-002
    outer loop
      vertex  1.767477e+001  1.450000e+001  1.700000e+001
      vertex  1.869852e+001  1.235273e+001  1.700000e+001
      vertex  1.843723e+001  1.308060e+001  2.200000e+001
    endloop
  endfacet
  facet normal -8.310722e-001 -5.553051e-001 -3.090722e-002
    outer loop
      vertex  1.767477e+001  1.450000e+001  1.700000e+001
      vertex  1.843723e+001  1.308060e+001  2.200000e+001
      vertex  1.669221e+001  1.569221e+001  2.200000e+001
    endloop
  endfacet
  facet normal -7.522493e-001 -6.588135e-001  9.263096e-003
    outer loop
      vertex  1.767477e+001  1.450000e+001  1.700000e+001
      vertex  1.669221e+001  1.569221e+001  2.200000e+001
      vertex  1.632887e+001  1.603370e+001  1.678183e+001
    endloop
  endfacet
  facet normal  7.469509e-001 -6.647758e-001  1.172609e-002
    outer loop
      vertex  4.325234e+000  1.450000e+001  1.700000e+001
      vertex  5.772085e+000  1.612139e+001  1.675558e+001
      vertex  5.307790e+000  1.569221e+001  2.200000e+001
    endloop
  endfacet
  facet normal  8.310724e-001 -5.553049e-001 -3.090716e-002
    outer loop
      vertex  4.325234e+000  1.450000e+001  1.700000e+001
      vertex  5.307790e+000  1.569221e+001  2.200000e+001
      vertex  3.562770e+000  1.308060e+001  2.200000e+001
    endloop
  endfacet
  facet normal  9.025499e-001 -4.303070e-001  1.547701e-002
    outer loop
      vertex  4.325234e+000  1.450000e+001  1.700000e+001
      vertex  3.562770e+000  1.308060e+001  2.200000e+001
      vertex  3.301482e+000  1.235273e+001  1.700000e+001
    endloop
  endfacet
  facet normal  9.805293e-001 -1.950393e-001 -2.284718e-002
    outer loop
      vertex  3.562770e+000  1.308060e+001  2.200000e+001
      vertex  2.950000e+000  1.000000e+001  2.200000e+001
      vertex  3.301482e+000  1.235273e+001  1.700000e+001
    endloop
  endfacet
  facet normal  9.890242e-001 -1.477537e-001  0.000000e+000
    outer loop
      vertex  3.301482e+000  1.235273e+001  1.700000e+001
      vertex  2.950000e+000  1.000000e+001  2.200000e+001
      vertex  2.950000e+000  1.000000e+001  1.700000e+001
    endloop
  endfacet
  facet normal  9.274036e-002 -9.956899e-001  9.776388e-004
    outer loop
      vertex  1.106370e+001  1.804975e+001  1.570111e+001
      vertex  1.100000e+001  1.805000e+001  2.200000e+001
      vertex  9.451924e+000  1.789974e+001  1.582339e+001
    endloop
  endfacet
  facet normal  1.950287e-001 -9.804782e-001 -2.502948e-002
    outer loop
      vertex  9.451924e+000  1.789974e+001  1.582339e+001
      vertex  1.100000e+001  1.805000e+001  2.200000e+001
      vertex  7.919398e+000  1.743723e+001  2.200000e+001
    endloop
  endfacet
  facet normal  3.073964e-001 -9.515684e-001  5.015730e-003
    outer loop
      vertex  9.451924e+000  1.789974e+001  1.582339e+001
      vertex  7.919398e+000  1.743723e+001  2.200000e+001
      vertex  7.649356e+000  1.731954e+001  1.622231e+001
    endloop
  endfacet
  facet normal  5.555478e-001 -8.314355e-001 -9.029605e-003
    outer loop
      vertex  7.649356e+000  1.731954e+001  1.622231e+001
      vertex  7.919398e+000  1.743723e+001  2.200000e+001
      vertex  5.307790e+000  1.569221e+001  2.200000e+001
    endloop
  endfacet
  facet normal  5.334295e-001 -8.455592e-001 -2.197170e-002
    outer loop
      vertex  7.649356e+000  1.731954e+001  1.622231e+001
      vertex  5.307790e+000  1.569221e+001  2.200000e+001
      vertex  5.772085e+000  1.612139e+001  1.675558e+001
    endloop
  endfacet
  facet normal -3.557707e-001 -9.345676e-001  3.266946e-003
    outer loop
      vertex  1.441432e+001  1.729006e+001  1.623979e+001
      vertex  1.408060e+001  1.743723e+001  2.200000e+001
      vertex  1.328612e+001  1.771856e+001  1.595992e+001
    endloop
  endfacet
  facet normal -1.950507e-001 -9.805889e-001 -2.001684e-002
    outer loop
      vertex  1.328612e+001  1.771856e+001  1.595992e+001
      vertex  1.408060e+001  1.743723e+001  2.200000e+001
      vertex  1.100000e+001  1.805000e+001  2.200000e+001
    endloop
  endfacet
  facet normal -1.472283e-001 -9.891014e-001 -1.449317e-003
    outer loop
      vertex  1.328612e+001  1.771856e+001  1.595992e+001
      vertex  1.100000e+001  1.805000e+001  2.200000e+001
      vertex  1.106370e+001  1.804975e+001  1.570111e+001
    endloop
  endfacet
  facet normal -5.555018e-001 -8.313665e-001 -1.572868e-002
    outer loop
      vertex  1.669221e+001  1.569221e+001  2.200000e+001
      vertex  1.408060e+001  1.743723e+001  2.200000e+001
      vertex  1.632887e+001  1.603370e+001  1.678183e+001
    endloop
  endfacet
  facet normal -5.465699e-001 -8.373504e-001 -1.027088e-002
    outer loop
      vertex  1.632887e+001  1.603370e+001  1.678183e+001
      vertex  1.408060e+001  1.743723e+001  2.200000e+001
      vertex  1.441432e+001  1.729006e+001  1.623979e+001
    endloop
  endfacet
  facet normal -9.807854e-001 -1.950898e-001  0.000000e+000
    outer loop
      vertex  1.905000e+001  1.000000e+001  2.200000e+001
      vertex  1.843723e+001  1.308060e+001  2.200000e+001
      vertex  1.905000e+001  1.000000e+001  1.700000e+001
    endloop
  endfacet
  facet normal -9.885742e-001 -1.476860e-001 -3.016102e-002
    outer loop
      vertex  1.905000e+001  1.000000e+001  1.700000e+001
      vertex  1.843723e+001  1.308060e+001  2.200000e+001
      vertex  1.869852e+001  1.235273e+001  1.700000e+001
    endloop
  endfacet
  facet normal  0.000000e+000 -1.490648e-001 -9.888274e-001
    outer loop
      vertex  0.000000e+000  1.450000e+001  1.700000e+001
      vertex  5.772085e+000  1.612139e+001  1.675558e+001
      vertex  4.325234e+000  1.450000e+001  1.700000e+001
    endloop
  endfacet
  facet normal  0.000000e+000 -7.071068e-001 -7.071068e-001
    outer loop
      vertex  0.000000e+000  1.725000e+001  1.626314e+001
      vertex  0.000000e+000  1.926314e+001  1.425000e+001
      vertex  2.200000e+001  1.926314e+001  1.425000e+001
    endloop
  endfacet
  facet normal  4.363379e-002 -9.034038e-001 -4.265648e-001
    outer loop
      vertex  0.000000e+000  1.725000e+001  1.626314e+001
      vertex  2.200000e+001  1.926314e+001  1.425000e+001
      vertex  1.106370e+001  1.804975e+001  1.570111e+001
    endloop
  endfacet
  facet normal  2.322829e-002 -7.696953e-001 -6.379887e-001
    outer loop
      vertex  0.000000e+000  1.725000e+001  1.626314e+001
      vertex  1.106370e+001  1.804975e+001  1.570111e+001
      vertex  9.451924e+000  1.789974e+001  1.582339e+001
    endloop
  endfacet
  facet normal  7.727739e-004 -5.681813e-001 -8.229030e-001
    outer loop
      vertex  0.000000e+000  1.725000e+001  1.626314e+001
      vertex  9.451924e+000  1.789974e+001  1.582339e+001
      vertex  7.649356e+000  1.731954e+001  1.622231e+001
    endloop
  endfacet
  facet normal -1.198099e-003 -4.050531e-001 -9.142924e-001
    outer loop
      vertex  0.000000e+000  1.725000e+001  1.626314e+001
      vertex  7.649356e+000  1.731954e+001  1.622231e+001
      vertex  5.772085e+000  1.612139e+001  1.675558e+001
    endloop
  endfacet
  facet normal  3.178389e-002 -2.586883e-001 -9.654378e-001
    outer loop
      vertex  0.000000e+000  1.725000e+001  1.626314e+001
      vertex  5.772085e+000  1.612139e+001  1.675558e+001
      vertex  0.000000e+000  1.450000e+001  1.700000e+001
    endloop
  endfacet
  facet normal  0.000000e+000 -9.659259e-001 -2.588190e-001
    outer loop
      vertex  0.000000e+000  1.926314e+001  1.425000e+001
      vertex  0.000000e+000  2.000000e+001  1.150000e+001
      vertex  2.200000e+001  1.926314e+001  1.425000e+001
    endloop
  endfacet
  facet normal  0.000000e+000 -9.659259e-001 -2.588190e-001
    outer loop
      vertex  2.200000e+001  1.926314e+001  1.425000e+001
      vertex  0.000000e+000  2.000000e+001  1.150000e+001
      vertex  2.200000e+001  2.000000e+001  1.150000e+001
    endloop
  endfacet
  facet normal -3.141795e-004 -5.474076e-001 -8.368661e-001
    outer loop
      vertex  1.441432e+001  1.729006e+001  1.623979e+001
      vertex  1.328612e+001  1.771856e+001  1.595992e+001
      vertex  2.200000e+001  1.725000e+001  1.626314e+001
    endloop
  endfacet
  facet normal -8.579470e-003 -6.508377e-001 -7.591683e-001
    outer loop
      vertex  2.200000e+001  1.725000e+001  1.626314e+001
      vertex  1.328612e+001  1.771856e+001  1.595992e+001
      vertex  1.106370e+001  1.804975e+001  1.570111e+001
    endloop
  endfacet
  facet normal -1.536801e-002 -7.070233e-001 -7.070233e-001
    outer loop
      vertex  2.200000e+001  1.725000e+001  1.626314e+001
      vertex  1.106370e+001  1.804975e+001  1.570111e+001
      vertex  2.200000e+001  1.926314e+001  1.425000e+001
    endloop
  endfacet
  facet normal  0.000000e+000 -1.408315e-001 -9.900336e-001
    outer loop
      vertex  1.767477e+001  1.450000e+001  1.700000e+001
      vertex  1.632887e+001  1.603370e+001  1.678183e+001
      vertex  2.200000e+001  1.450000e+001  1.700000e+001
    endloop
  endfacet
  facet normal -1.116483e-001 -5.322154e-001 -8.392148e-001
    outer loop
      vertex  2.200000e+001  1.450000e+001  1.700000e+001
      vertex  1.632887e+001  1.603370e+001  1.678183e+001
      vertex  1.441432e+001  1.729006e+001  1.623979e+001
    endloop
  endfacet
  facet normal  1.607040e-003 -2.588187e-001 -9.659246e-001
    outer loop
      vertex  2.200000e+001  1.450000e+001  1.700000e+001
      vertex  1.441432e+001  1.729006e+001  1.623979e+001
      vertex  2.200000e+001  1.725000e+001  1.626314e+001
    endloop
  endfacet
  facet normal -1.950903e-001  9.807853e-001  0.000000e+000
    outer loop
      vertex  1.100000e+001  1.950000e+000  0.000000e+000
      vertex  1.408060e+001  2.562770e+000  5.000000e+000
      vertex  1.408060e+001  2.562770e+000  0.000000e+000
    endloop
  endfacet
  facet normal -5.555703e-001  8.314696e-001  0.000000e+000
    outer loop
      vertex  1.408060e+001  2.562770e+000  0.000000e+000
      vertex  1.408060e+001  2.562770e+000  5.000000e+000
      vertex  1.669221e+001  4.307790e+000  5.000000e+000
    endloop
  endfacet
  facet normal -5.555703e-001  8.314696e-001  0.000000e+000
    outer loop
      vertex  1.408060e+001  2.562770e+000  0.000000e+000
      vertex  1.669221e+001  4.307790e+000  5.000000e+000
      vertex  1.669221e+001  4.307790e+000  0.000000e+000
    endloop
  endfacet
  facet normal -8.314695e-001  5.555705e-001  0.000000e+000
    outer loop
      vertex  1.669221e+001  4.307790e+000  0.000000e+000
      vertex  1.669221e+001  4.307790e+000  5.000000e+000
      vertex  1.843723e+001  6.919398e+000  5.000000e+000
    endloop
  endfacet
  facet normal -8.314695e-001  5.555705e-001  0.000000e+000
    outer loop
      vertex  1.669221e+001  4.307790e+000  0.000000e+000
      vertex  1.843723e+001  6.919398e+000  5.000000e+000
      vertex  1.843723e+001  6.919398e+000  0.000000e+000
    endloop
  endfacet
  facet normal -9.807854e-001  1.950898e-001  0.000000e+000
    outer loop
      vertex  1.843723e+001  6.919398e+000  0.000000e+000
      vertex  1.843723e+001  6.919398e+000  5.000000e+000
      vertex  1.905000e+001  1.000000e+001  5.000000e+000
    endloop
  endfacet
  facet normal -9.807854e-001  1.950898e-001  0.000000e+000
    outer loop
      vertex  1.843723e+001  6.919398e+000  0.000000e+000
      vertex  1.905000e+001  1.000000e+001  5.000000e+000
      vertex  1.905000e+001  1.000000e+001  0.000000e+000
    endloop
  endfacet
  facet normal -1.950903e-001  9.807853e-001  0.000000e+000
    outer loop
      vertex  1.408060e+001  2.562770e+000  5.000000e+000
      vertex  1.100000e+001  1.950000e+000  0.000000e+000
      vertex  1.100000e+001  1.950000e+000  5.000000e+000
    endloop
  endfacet
  facet normal  1.950903e-001  9.807853e-001  0.000000e+000
    outer loop
      vertex  1.100000e+001  1.950000e+000  5.000000e+000
      vertex  1.100000e+001  1.950000e+000  0.000000e+000
      vertex  7.919398e+000  2.562770e+000  0.000000e+000
    endloop
  endfacet
  facet normal  1.950903e-001  9.807853e-001  -0.000000e+000
    outer loop
      vertex  1.100000e+001  1.950000e+000  5.000000e+000
      vertex  7.919398e+000  2.562770e+000  0.000000e+000
      vertex  7.919398e+000  2.562770e+000  5.000000e+000
    endloop
  endfacet
  facet normal  5.555702e-001  8.314697e-001  0.000000e+000
    outer loop
      vertex  7.919398e+000  2.562770e+000  5.000000e+000
      vertex  7.919398e+000  2.562770e+000  0.000000e+000
      vertex  5.307790e+000  4.307790e+000  0.000000e+000
    endloop
  endfacet
  facet normal  5.555702e-001  8.314697e-001  -0.000000e+000
    outer loop
      vertex  7.919398e+000  2.562770e+000  5.000000e+000
      vertex  5.307790e+000  4.307790e+000  0.000000e+000
      vertex  5.307790e+000  4.307790e+000  5.000000e+000
    endloop
  endfacet
  facet normal  8.314697e-001  5.555702e-001  0.000000e+000
    outer loop
      vertex  5.307790e+000  4.307790e+000  5.000000e+000
      vertex  5.307790e+000  4.307790e+000  0.000000e+000
      vertex  3.562770e+000  6.919398e+000  0.000000e+000
    endloop
  endfacet
  facet normal  8.314697e-001  5.555702e-001  -0.000000e+000
    outer loop
      vertex  5.307790e+000  4.307790e+000  5.000000e+000
      vertex  3.562770e+000  6.919398e+000  0.000000e+000
      vertex  3.562770e+000  6.919398e+000  5.000000e+000
    endloop
  endfacet
  facet normal  9.807853e-001  1.950903e-001  0.000000e+000
    outer loop
      vertex  3.562770e+000  6.919398e+000  5.000000e+000
      vertex  3.562770e+000  6.919398e+000  0.000000e+000
      vertex  2.950000e+000  1.000000e+001  0.000000e+000
    endloop
  endfacet
  facet normal  9.807853e-001  1.950903e-001  -0.000000e+000
    outer loop
      vertex  3.562770e+000  6.919398e+000  5.000000e+000
      vertex  2.950000e+000  1.000000e+001  0.000000e+000
      vertex  2.950000e+000  1.000000e+001  5.000000e+000
    endloop
  endfacet
  facet normal -1.950903e-001  9.807853e-001  0.000000e+000
    outer loop
      vertex  1.100000e+001  1.950000e+000  1.700000e+001
      vertex  1.408060e+001  2.562770e+000  2.200000e+001
      vertex  1.408060e+001  2.562770e+000  1.700000e+001
    endloop
  endfacet
  facet normal -5.555703e-001  8.314696e-001  0.000000e+000
    outer loop
      vertex  1.408060e+001  2.562770e+000  1.700000e+001
      vertex  1.408060e+001  2.562770e+000  2.200000e+001
      vertex  1.669221e+001  4.307790e+000  2.200000e+001
    endloop
  endfacet
  facet normal -5.555703e-001  8.314696e-001  0.000000e+000
    outer loop
      vertex  1.408060e+001  2.562770e+000  1.700000e+001
      vertex  1.669221e+001  4.307790e+000  2.200000e+001
      vertex  1.669221e+001  4.307790e+000  1.700000e+001
    endloop
  endfacet
  facet normal -8.314695e-001  5.555705e-001  0.000000e+000
    outer loop
      vertex  1.669221e+001  4.307790e+000  1.700000e+001
      vertex  1.669221e+001  4.307790e+000  2.200000e+001
      vertex  1.843723e+001  6.919398e+000  2.200000e+001
    endloop
  endfacet
  facet normal -8.314695e-001  5.555705e-001  0.000000e+000
    outer loop
      vertex  1.669221e+001  4.307790e+000  1.700000e+001
      vertex  1.843723e+001  6.919398e+000  2.200000e+001
      vertex  1.843723e+001  6.919398e+000  1.700000e+001
    endloop
  endfacet
  facet normal -9.807854e-001  1.950898e-001  0.000000e+000
    outer loop
      vertex  1.843723e+001  6.919398e+000  1.700000e+001
      vertex  1.843723e+001  6.919398e+000  2.200000e+001
      vertex  1.905000e+001  1.000000e+001  2.200000e+001
    endloop
  endfacet
  facet normal -9.807854e-001  1.950898e-001  0.000000e+000
    outer loop
      vertex  1.843723e+001  6.919398e+000  1.700000e+001
      vertex  1.905000e+001  1.000000e+001  2.200000e+001
      vertex  1.905000e+001  1.000000e+001  1.700000e+001
    endloop
  endfacet
  facet normal -1.950903e-001  9.807853e-001  0.000000e+000
    outer loop
      vertex  1.408060e+001  2.562770e+000  2.200000e+001
      vertex  1.100000e+001  1.950000e+000  1.700000e+001
      vertex  1.100000e+001  1.950000e+000  2.200000e+001
    endloop
  endfacet
  facet normal  1.950903e-001  9.807853e-001  0.000000e+000
    outer loop
      vertex  1.100000e+001  1.950000e+000  2.200000e+001
      vertex  1.100000e+001  1.950000e+000  1.700000e+001
      vertex  7.919398e+000  2.562770e+000  1.700000e+001
    endloop
  endfacet
  facet normal  1.950903e-001  9.807853e-001  -0.000000e+000
    outer loop
      vertex  1.100000e+001  1.950000e+000  2.200000e+001
      vertex  7.919398e+000  2.562770e+000  1.700000e+001
      vertex  7.919398e+000  2.562770e+000  2.200000e+001
    endloop
  endfacet
  facet normal  5.555702e-001  8.314697e-001  0.000000e+000
    outer loop
      vertex  7.919398e+000  2.562770e+000  2.200000e+001
      vertex  7.919398e+000  2.562770e+000  1.700000e+001
      vertex  5.307790e+000  4.307790e+000  1.700000e+001
    endloop
  endfacet
  facet normal  5.555702e-001  8.314697e-001  -0.000000e+000
    outer loop
      vertex  7.919398e+000  2.562770e+000  2.200000e+001
      vertex  5.307790e+000  4.307790e+000  1.700000e+001
      vertex  5.307790e+000  4.307790e+000  2.200000e+001
    endloop
  endfacet
  facet normal  8.314697e-001  5.555702e-001  0.000000e+000
    outer loop
      vertex  5.307790e+000  4.307790e+000  2.200000e+001
      vertex  5.307790e+000  4.307790e+000  1.700000e+001
      vertex  3.562770e+000  6.919398e+000  1.700000e+001
    endloop
  endfacet
  facet normal  8.314697e-001  5.555702e-001  -0.000000e+000
    outer loop
      vertex  5.307790e+000  4.307790e+000  2.200000e+001
      vertex  3.562770e+000  6.919398e+000  1.700000e+001
      vertex  3.562770e+000  6.919398e+000  2.200000e+001
    endloop
  endfacet
  facet normal  9.807853e-001  1.950903e-001  0.000000e+000
    outer loop
      vertex  3.562770e+000  6.919398e+000  2.200000e+001
      vertex  3.562770e+000  6.919398e+000  1.700000e+001
      vertex  2.950000e+000  1.000000e+001  1.700000e+001
    endloop
  endfacet
  facet normal  9.807853e-001  1.950903e-001  -0.000000e+000
    outer loop
      vertex  3.562770e+000  6.919398e+000  2.200000e+001
      vertex  2.950000e+000  1.000000e+001  1.700000e+001
      vertex  2.950000e+000  1.000000e+001  2.200000e+001
    endloop
  endfacet
  facet normal  9.659259e-001 -2.588188e-001  0.000000e+000
    outer loop
      vertex  2.200000e+001  5.000000e+000  0.000000e+000
      vertex  2.200000e+001  5.000000e+000  5.000000e+000
      vertex  2.133013e+001  2.500000e+000  0.000000e+000
    endloop
  endfacet
  facet normal  9.659259e-001 -2.588188e-001  0.000000e+000
    outer loop
      vertex  2.133013e+001  2.500000e+000  0.000000e+000
      vertex  2.200000e+001  5.000000e+000  5.000000e+000
      vertex  2.133013e+001  2.500000e+000  5.000000e+000
    endloop
  endfacet
  facet normal  7.071066e-001 -7.071069e-001  0.000000e+000
    outer loop
      vertex  2.133013e+001  2.500000e+000  0.000000e+000
      vertex  2.133013e+001  2.500000e+000  5.000000e+000
      vertex  1.950000e+001  6.698730e-001  0.000000e+000
    endloop
  endfacet
  facet normal  7.071066e-001 -7.071069e-001  0.000000e+000
    outer loop
      vertex  1.950000e+001  6.698730e-001  0.000000e+000
      vertex  2.133013e+001  2.500000e+000  5.000000e+000
      vertex  1.950000e+001  6.698730e-001  5.000000e+000
    endloop
  endfacet
  facet normal  2.588191e-001 -9.659259e-001  0.000000e+000
    outer loop
      vertex  1.950000e+001  6.698730e-001  0.000000e+000
      vertex  1.950000e+001  6.698730e-001  5.000000e+000
      vertex  1.700000e+001  0.000000e+000  0.000000e+000
    endloop
  endfacet
  facet normal  2.588191e-001 -9.659259e-001  0.000000e+000
    outer loop
      vertex  1.700000e+001  0.000000e+000  0.000000e+000
      vertex  1.950000e+001  6.698730e-001  5.000000e+000
      vertex  1.700000e+001  0.000000e+000  5.000000e+000
    endloop
  endfacet
  facet normal  9.659259e-001 -2.588188e-001  0.000000e+000
    outer loop
      vertex  2.200000e+001  5.000000e+000  1.700000e+001
      vertex  2.200000e+001  5.000000e+000  2.200000e+001
      vertex  2.133013e+001  2.500000e+000  1.700000e+001
    endloop
  endfacet
  facet normal  9.659259e-001 -2.588188e-001  0.000000e+000
    outer loop
      vertex  2.133013e+001  2.500000e+000  1.700000e+001
      vertex  2.200000e+001  5.000000e+000  2.200000e+001
      vertex  2.133013e+001  2.500000e+000  2.200000e+001
    endloop
  endfacet
  facet normal  7.071066e-001 -7.071069e-001  0.000000e+000
    outer loop
      vertex  2.133013e+001  2.500000e+000  1.700000e+001
      vertex  2.133013e+001  2.500000e+000  2.200000e+001
      vertex  1.950000e+001  6.698730e-001  1.700000e+001
    endloop
  endfacet
  facet normal  7.071066e-001 -7.071069e-001  0.000000e+000
    outer loop
      vertex  1.950000e+001  6.698730e-001  1.700000e+001
      vertex  2.133013e+001  2.500000e+000  2.200000e+001
      vertex  1.950000e+001  6.698730e-001  2.200000e+001
    endloop
  endfacet
  facet normal  2.588191e-001 -9.659259e-001  0.000000e+000
    outer loop
      vertex  1.950000e+001  6.698730e-001  1.700000e+001
      vertex  1.950000e+001  6.698730e-001  2.200000e+001
      vertex  1.700000e+001  0.000000e+000  1.700000e+001
    endloop
  endfacet
  facet normal  2.588191e-001 -9.659259e-001  1.372663e-015
    outer loop
      vertex  1.700000e+001  0.000000e+000  1.700000e+001
      vertex  1.950000e+001  6.698730e-001  2.200000e+001
      vertex  1.700000e+001  7.105427e-015  2.200000e+001
    endloop
  endfacet
  facet normal -7.401487e-017 -1.000000e+000  1.776357e-016
    outer loop
      vertex  5.000000e+000  8.881784e-016  5.000000e+000
      vertex  5.000000e+000  0.000000e+000  0.000000e+000
      vertex  1.700000e+001  0.000000e+000  5.000000e+000
    endloop
  endfacet
  facet normal  0.000000e+000 -1.000000e+000  -0.000000e+000
    outer loop
      vertex  1.700000e+001  0.000000e+000  5.000000e+000
      vertex  5.000000e+000  0.000000e+000  0.000000e+000
      vertex  1.700000e+001  0.000000e+000  0.000000e+000
    endloop
  endfacet
  facet normal  0.000000e+000 -1.000000e+000  1.421086e-015
    outer loop
      vertex  5.000000e+000  7.105427e-015  2.200000e+001
      vertex  5.000000e+000  0.000000e+000  1.700000e+001
      vertex  1.700000e+001  7.105427e-015  2.200000e+001
    endloop
  endfacet
  facet normal  0.000000e+000 -1.000000e+000  1.421086e-015
    outer loop
      vertex  1.700000e+001  7.105427e-015  2.200000e+001
      vertex  5.000000e+000  0.000000e+000  1.700000e+001
      vertex  1.700000e+001  0.000000e+000  1.700000e+001
    endloop
  endfacet
  facet normal -9.659259e-001 -2.588191e-001  0.000000e+000
    outer loop
      vertex  0.000000e+000  5.000000e+000  5.000000e+000
      vertex  0.000000e+000  5.000000e+000  0.000000e+000
      vertex  6.698730e-001  2.500000e+000  5.000000e+000
    endloop
  endfacet
  facet normal -9.659259e-001 -2.588191e-001  -0.000000e+000
    outer loop
      vertex  6.698730e-001  2.500000e+000  5.000000e+000
      vertex  0.000000e+000  5.000000e+000  0.000000e+000
      vertex  6.698730e-001  2.500000e+000  0.000000e+000
    endloop
  endfacet
  facet normal -7.071068e-001 -7.071068e-001  0.000000e+000
    outer loop
      vertex  6.698730e-001  2.500000e+000  5.000000e+000
      vertex  6.698730e-001  2.500000e+000  0.000000e+000
      vertex  2.500000e+000  6.698730e-001  5.000000e+000
    endloop
  endfacet
  facet normal -7.071068e-001 -7.071068e-001  -0.000000e+000
    outer loop
      vertex  2.500000e+000  6.698730e-001  5.000000e+000
      vertex  6.698730e-001  2.500000e+000  0.000000e+000
      vertex  2.500000e+000  6.698730e-001  0.000000e+000
    endloop
  endfacet
  facet normal -2.588191e-001 -9.659259e-001  0.000000e+000
    outer loop
      vertex  2.500000e+000  6.698730e-001  5.000000e+000
      vertex  2.500000e+000  6.698730e-001  0.000000e+000
      vertex  5.000000e+000  8.881784e-016  5.000000e+000
    endloop
  endfacet
  facet normal -2.588191e-001 -9.659259e-001  1.715829e-016
    outer loop
      vertex  5.000000e+000  8.881784e-016  5.000000e+000
      vertex  2.500000e+000  6.698730e-001  0.000000e+000
      vertex  5.000000e+000  0.000000e+000  0.000000e+000
    endloop
  endfacet
  facet normal -9.659259e-001 -2.588191e-001  0.000000e+000
    outer loop
      vertex  0.000000e+000  5.000000e+000  2.200000e+001
      vertex  0.000000e+000  5.000000e+000  1.700000e+001
      vertex  6.698730e-001  2.500000e+000  2.200000e+001
    endloop
  endfacet
  facet normal -9.659259e-001 -2.588191e-001  -0.000000e+000
    outer loop
      vertex  6.698730e-001  2.500000e+000  2.200000e+001
      vertex  0.000000e+000  5.000000e+000  1.700000e+001
      vertex  6.698730e-001  2.500000e+000  1.700000e+001
    endloop
  endfacet
  facet normal -7.071068e-001 -7.071068e-001  0.000000e+000
    outer loop
      vertex  6.698730e-001  2.500000e+000  2.200000e+001
      vertex  6.698730e-001  2.500000e+000  1.700000e+001
      vertex  2.500000e+000  6.698730e-001  2.200000e+001
    endloop
  endfacet
  facet normal -7.071068e-001 -7.071068e-001  -0.000000e+000
    outer loop
      vertex  2.500000e+000  6.698730e-001  2.200000e+001
      vertex  6.698730e-001  2.500000e+000  1.700000e+001
      vertex  2.500000e+000  6.698730e-001  1.700000e+001
    endloop
  endfacet
  facet normal -2.588191e-001 -9.659259e-001  0.000000e+000
    outer loop
      vertex  2.500000e+000  6.698730e-001  2.200000e+001
      vertex  2.500000e+000  6.698730e-001  1.700000e+001
      vertex  5.000000e+000  7.105427e-015  2.200000e+001
    endloop
  endfacet
  facet normal -2.588191e-001 -9.659259e-001  1.372663e-015
    outer loop
      vertex  5.000000e+000  7.105427e-015  2.200000e+001
      vertex  2.500000e+000  6.698730e-001  1.700000e+001
      vertex  5.000000e+000  0.000000e+000  1.700000e+001
    endloop
  endfacet
  facet normal  0.000000e+000  0.000000e+000 -1.000000e+000
    outer loop
      vertex  0.000000e+000  5.000000e+000  0.000000e+000
      vertex  3.562770e+000  1.308060e+001  0.000000e+000
      vertex  2.950000e+000  1.000000e+001  0.000000e+000
    endloop
  endfacet
  facet normal  0.000000e+000  -0.000000e+000 -9.999999e-001
    outer loop
      vertex  0.000000e+000  5.000000e+000  0.000000e+000
      vertex  2.950000e+000  1.000000e+001  0.000000e+000
      vertex  3.562770e+000  6.919398e+000  0.000000e+000
    endloop
  endfacet
  facet normal  0.000000e+000  -0.000000e+000 -1.000000e+000
    outer loop
      vertex  0.000000e+000  5.000000e+000  0.000000e+000
      vertex  3.562770e+000  6.919398e+000  0.000000e+000
      vertex  5.307790e+000  4.307790e+000  0.000000e+000
    endloop
  endfacet
  facet normal  -0.000000e+000  -0.000000e+000 -1.000000e+000
    outer loop
      vertex  0.000000e+000  5.000000e+000  0.000000e+000
      vertex  5.307790e+000  4.307790e+000  0.000000e+000
      vertex  7.919398e+000  2.562770e+000  0.000000e+000
    endloop
  endfacet
  facet normal  -0.000000e+000  0.000000e+000 -1.000000e+000
    outer loop
      vertex  0.000000e+000  5.000000e+000  0.000000e+000
      vertex  7.919398e+000  2.562770e+000  0.000000e+000
      vertex  6.698730e-001  2.500000e+000  0.000000e+000
    endloop
  endfacet
  facet normal  0.000000e+000  0.000000e+000 -1.000000e+000
    outer loop
      vertex  2.200000e+001  5.000000e+000  0.000000e+000
      vertex  2.133013e+001  2.500000e+000  0.000000e+000
      vertex  1.408060e+001  2.562770e+000  0.000000e+000
    endloop
  endfacet
  facet normal  0.000000e+000  0.000000e+000 -1.000000e+000
    outer loop
      vertex  2.200000e+001  5.000000e+000  0.000000e+000
      vertex  1.408060e+001  2.562770e+000  0.000000e+000
      vertex  1.669221e+001  4.307790e+000  0.000000e+000
    endloop
  endfacet
  facet normal  0.000000e+000  0.000000e+000 -1.000000e+000
    outer loop
      vertex  2.200000e+001  5.000000e+000  0.000000e+000
      vertex  1.669221e+001  4.307790e+000  0.000000e+000
      vertex  1.843723e+001  6.919398e+000  0.000000e+000
    endloop
  endfacet
  facet normal  0.000000e+000  0.000000e+000 -1.000000e+000
    outer loop
      vertex  2.200000e+001  5.000000e+000  0.000000e+000
      vertex  1.843723e+001  6.919398e+000  0.000000e+000
      vertex  1.905000e+001  1.000000e+001  0.000000e+000
    endloop
  endfacet
  facet normal  0.000000e+000  0.000000e+000 -1.000000e+000
    outer loop
      vertex  2.200000e+001  5.000000e+000  0.000000e+000
      vertex  1.905000e+001  1.000000e+001  0.000000e+000
      vertex  1.843723e+001  1.308060e+001  0.000000e+000
    endloop
  endfacet
  facet normal  0.000000e+000  0.000000e+000 -1.000000e+000
    outer loop
      vertex  2.200000e+001  3.600000e+001  0.000000e+000
      vertex  2.200000e+001  5.000000e+000  0.000000e+000
      vertex  1.843723e+001  1.308060e+001  0.000000e+000
    endloop
  endfacet
  facet normal  0.000000e+000  0.000000e+000 -1.000000e+000
    outer loop
      vertex  2.200000e+001  3.600000e+001  0.000000e+000
      vertex  1.843723e+001  1.308060e+001  0.000000e+000
      vertex  1.669221e+001  1.569221e+001  0.000000e+000
    endloop
  endfacet
  facet normal  0.000000e+000  0.000000e+000 -1.000000e+000
    outer loop
      vertex  2.200000e+001  3.600000e+001  0.000000e+000
      vertex  1.669221e+001  1.569221e+001  0.000000e+000
      vertex  1.408060e+001  1.743723e+001  0.000000e+000
    endloop
  endfacet
  facet normal  0.000000e+000  0.000000e+000 -1.000000e+000
    outer loop
      vertex  2.200000e+001  3.600000e+001  0.000000e+000
      vertex  1.408060e+001  1.743723e+001  0.000000e+000
      vertex  0.000000e+000  3.600000e+001  0.000000e+000
    endloop
  endfacet
  facet normal  0.000000e+000  0.000000e+000 -1.000000e+000
    outer loop
      vertex  0.000000e+000  3.600000e+001  0.000000e+000
      vertex  1.408060e+001  1.743723e+001  0.000000e+000
      vertex  1.100000e+001  1.805000e+001  0.000000e+000
    endloop
  endfacet
  facet normal  -0.000000e+000  0.000000e+000 -9.999999e-001
    outer loop
      vertex  0.000000e+000  3.600000e+001  0.000000e+000
      vertex  1.100000e+001  1.805000e+001  0.000000e+000
      vertex  7.919398e+000  1.743723e+001  0.000000e+000
    endloop
  endfacet
  facet normal  -0.000000e+000  0.000000e+000 -1.000000e+000
    outer loop
      vertex  0.000000e+000  3.600000e+001  0.000000e+000
      vertex  7.919398e+000  1.743723e+001  0.000000e+000
      vertex  5.307790e+000  1.569221e+001  0.000000e+000
    endloop
  endfacet
  facet normal  -0.000000e+000  0.000000e+000 -1.000000e+000
    outer loop
      vertex  0.000000e+000  3.600000e+001  0.000000e+000
      vertex  5.307790e+000  1.569221e+001  0.000000e+000
      vertex  3.562770e+000  1.308060e+001  0.000000e+000
    endloop
  endfacet
  facet normal  -0.000000e+000  0.000000e+000 -1.000000e+000
    outer loop
      vertex  0.000000e+000  3.600000e+001  0.000000e+000
      vertex  3.562770e+000  1.308060e+001  0.000000e+000
      vertex  0.000000e+000  5.000000e+000  0.000000e+000
    endloop
  endfacet
  facet normal  -0.000000e+000  0.000000e+000 -1.000000e+000
    outer loop
      vertex  1.408060e+001  2.562770e+000  0.000000e+000
      vertex  2.133013e+001  2.500000e+000  0.000000e+000
      vertex  1.100000e+001  1.950000e+000  0.000000e+000
    endloop
  endfacet
  facet normal  0.000000e+000  0.000000e+000 -1.000000e+000
    outer loop
      vertex  1.100000e+001  1.950000e+000  0.000000e+000
      vertex  2.133013e+001  2.500000e+000  0.000000e+000
      vertex  1.950000e+001  6.698730e-001  0.000000e+000
    endloop
  endfacet
  facet normal  -0.000000e+000  0.000000e+000 -1.000000e+000
    outer loop
      vertex  1.100000e+001  1.950000e+000  0.000000e+000
      vertex  1.950000e+001  6.698730e-001  0.000000e+000
      vertex  5.000000e+000  0.000000e+000  0.000000e+000
    endloop
  endfacet
  facet normal  0.000000e+000  0.000000e+000 -1.000000e+000
    outer loop
      vertex  5.000000e+000  0.000000e+000  0.000000e+000
      vertex  1.950000e+001  6.698730e-001  0.000000e+000
      vertex  1.700000e+001  0.000000e+000  0.000000e+000
    endloop
  endfacet
  facet normal  0.000000e+000  0.000000e+000 -1.000000e+000
    outer loop
      vertex  6.698730e-001  2.500000e+000  0.000000e+000
      vertex  7.919398e+000  2.562770e+000  0.000000e+000
      vertex  2.500000e+000  6.698730e-001  0.000000e+000
    endloop
  endfacet
  facet normal  0.000000e+000  0.000000e+000 -1.000000e+000
    outer loop
      vertex  2.500000e+000  6.698730e-001  0.000000e+000
      vertex  7.919398e+000  2.562770e+000  0.000000e+000
      vertex  1.100000e+001  1.950000e+000  0.000000e+000
    endloop
  endfacet
  facet normal  0.000000e+000  0.000000e+000 -1.000000e+000
    outer loop
      vertex  2.500000e+000  6.698730e-001  0.000000e+000
      vertex  1.100000e+001  1.950000e+000  0.000000e+000
      vertex  5.000000e+000  0.000000e+000  0.000000e+000
    endloop
  endfacet
  facet normal  0.000000e+000  0.000000e+000  1.000000e+000
    outer loop
      vertex  1.100000e+001  1.950000e+000  2.200000e+001
      vertex  7.919398e+000  2.562770e+000  2.200000e+001
      vertex  6.698730e-001  2.500000e+000  2.200000e+001
    endloop
  endfacet
  facet normal  0.000000e+000  -0.000000e+000  1.000000e+000
    outer loop
      vertex  0.000000e+000  5.000000e+000  2.200000e+001
      vertex  6.698730e-001  2.500000e+000  2.200000e+001
      vertex  7.919398e+000  2.562770e+000  2.200000e+001
    endloop
  endfacet
  facet normal  0.000000e+000  0.000000e+000  1.000000e+000
    outer loop
      vertex  0.000000e+000  5.000000e+000  2.200000e+001
      vertex  7.919398e+000  2.562770e+000  2.200000e+001
      vertex  5.307790e+000  4.307790e+000  2.200000e+001
    endloop
  endfacet
  facet normal  0.000000e+000  0.000000e+000  1.000000e+000
    outer loop
      vertex  0.000000e+000  5.000000e+000  2.200000e+001
      vertex  5.307790e+000  4.307790e+000  2.200000e+001
      vertex  3.562770e+000  6.919398e+000  2.200000e+001
    endloop
  endfacet
  facet normal  0.000000e+000  0.000000e+000  9.999999e-001
    outer loop
      vertex  0.000000e+000  5.000000e+000  2.200000e+001
      vertex  3.562770e+000  6.919398e+000  2.200000e+001
      vertex  2.950000e+000  1.000000e+001  2.200000e+001
    endloop
  endfacet
  facet normal  0.000000e+000  0.000000e+000  1.000000e+000
    outer loop
      vertex  0.000000e+000  5.000000e+000  2.200000e+001
      vertex  2.950000e+000  1.000000e+001  2.200000e+001
      vertex  0.000000e+000  3.600000e+001  2.200000e+001
    endloop
  endfacet
  facet normal  0.000000e+000  -0.000000e+000  9.999999e-001
    outer loop
      vertex  0.000000e+000  3.600000e+001  2.200000e+001
      vertex  2.950000e+000  1.000000e+001  2.200000e+001
      vertex  3.562770e+000  1.308060e+001  2.200000e+001
    endloop
  endfacet
  facet normal  0.000000e+000  -0.000000e+000  1.000000e+000
    outer loop
      vertex  0.000000e+000  3.600000e+001  2.200000e+001
      vertex  3.562770e+000  1.308060e+001  2.200000e+001
      vertex  5.307790e+000  1.569221e+001  2.200000e+001
    endloop
  endfacet
  facet normal  0.000000e+000  -0.000000e+000  1.000000e+000
    outer loop
      vertex  0.000000e+000  3.600000e+001  2.200000e+001
      vertex  5.307790e+000  1.569221e+001  2.200000e+001
      vertex  7.919398e+000  1.743723e+001  2.200000e+001
    endloop
  endfacet
  facet normal  0.000000e+000  -0.000000e+000  9.999999e-001
    outer loop
      vertex  0.000000e+000  3.600000e+001  2.200000e+001
      vertex  7.919398e+000  1.743723e+001  2.200000e+001
      vertex  1.100000e+001  1.805000e+001  2.200000e+001
    endloop
  endfacet
  facet normal  0.000000e+000  -0.000000e+000  1.000000e+000
    outer loop
      vertex  0.000000e+000  3.600000e+001  2.200000e+001
      vertex  1.100000e+001  1.805000e+001  2.200000e+001
      vertex  2.200000e+001  3.600000e+001  2.200000e+001
    endloop
  endfacet
  facet normal  -0.000000e+000  0.000000e+000  9.999999e-001
    outer loop
      vertex  2.200000e+001  3.600000e+001  2.200000e+001
      vertex  1.100000e+001  1.805000e+001  2.200000e+001
      vertex  1.408060e+001  1.743723e+001  2.200000e+001
    endloop
  endfacet
  facet normal  -0.000000e+000  0.000000e+000  1.000000e+000
    outer loop
      vertex  2.200000e+001  3.600000e+001  2.200000e+001
      vertex  1.408060e+001  1.743723e+001  2.200000e+001
      vertex  1.669221e+001  1.569221e+001  2.200000e+001
    endloop
  endfacet
  facet normal  -0.000000e+000  0.000000e+000  1.000000e+000
    outer loop
      vertex  2.200000e+001  3.600000e+001  2.200000e+001
      vertex  1.669221e+001  1.569221e+001  2.200000e+001
      vertex  1.843723e+001  1.308060e+001  2.200000e+001
    endloop
  endfacet
  facet normal  -0.000000e+000  0.000000e+000  1.000000e+000
    outer loop
      vertex  2.200000e+001  3.600000e+001  2.200000e+001
      vertex  1.843723e+001  1.308060e+001  2.200000e+001
      vertex  1.905000e+001  1.000000e+001  2.200000e+001
    endloop
  endfacet
  facet normal  0.000000e+000  0.000000e+000  1.000000e+000
    outer loop
      vertex  2.200000e+001  5.000000e+000  2.200000e+001
      vertex  2.200000e+001  3.600000e+001  2.200000e+001
      vertex  1.905000e+001  1.000000e+001  2.200000e+001
    endloop
  endfacet
  facet normal  0.000000e+000  0.000000e+000  1.000000e+000
    outer loop
      vertex  2.200000e+001  5.000000e+000  2.200000e+001
      vertex  1.905000e+001  1.000000e+001  2.200000e+001
      vertex  1.843723e+001  6.919398e+000  2.200000e+001
    endloop
  endfacet
  facet normal  0.000000e+000  0.000000e+000  1.000000e+000
    outer loop
      vertex  2.200000e+001  5.000000e+000  2.200000e+001
      vertex  1.843723e+001  6.919398e+000  2.200000e+001
      vertex  1.669221e+001  4.307790e+000  2.200000e+001
    endloop
  endfacet
  facet normal  -0.000000e+000  0.000000e+000  1.000000e+000
    outer loop
      vertex  2.200000e+001  5.000000e+000  2.200000e+001
      vertex  1.669221e+001  4.307790e+000  2.200000e+001
      vertex  1.408060e+001  2.562770e+000  2.200000e+001
    endloop
  endfacet
  facet normal  -0.000000e+000  0.000000e+000  1.000000e+000
    outer loop
      vertex  2.200000e+001  5.000000e+000  2.200000e+001
      vertex  1.408060e+001  2.562770e+000  2.200000e+001
      vertex  2.133013e+001  2.500000e+000  2.200000e+001
    endloop
  endfacet
  facet normal  0.000000e+000  0.000000e+000  1.000000e+000
    outer loop
      vertex  1.700000e+001  7.105427e-015  2.200000e+001
      vertex  1.950000e+001  6.698730e-001  2.200000e+001
      vertex  5.000000e+000  7.105427e-015  2.200000e+001
    endloop
  endfacet
  facet normal  0.000000e+000  0.000000e+000  1.000000e+000
    outer loop
      vertex  5.000000e+000  7.105427e-015  2.200000e+001
      vertex  1.950000e+001  6.698730e-001  2.200000e+001
      vertex  1.100000e+001  1.950000e+000  2.200000e+001
    endloop
  endfacet
  facet normal  0.000000e+000  0.000000e+000  1.000000e+000
    outer loop
      vertex  5.000000e+000  7.105427e-015  2.200000e+001
      vertex  1.100000e+001  1.950000e+000  2.200000e+001
      vertex  2.500000e+000  6.698730e-001  2.200000e+001
    endloop
  endfacet
  facet normal  0.000000e+000  -0.000000e+000  1.000000e+000
    outer loop
      vertex  2.500000e+000  6.698730e-001  2.200000e+001
      vertex  1.100000e+001  1.950000e+000  2.200000e+001
      vertex  6.698730e-001  2.500000e+000  2.200000e+001
    endloop
  endfacet
  facet normal  0.000000e+000  0.000000e+000  1.000000e+000
    outer loop
      vertex  1.408060e+001  2.562770e+000  2.200000e+001
      vertex  1.100000e+001  1.950000e+000  2.200000e+001
      vertex  2.133013e+001  2.500000e+000  2.200000e+001
    endloop
  endfacet
  facet normal  0.000000e+000  0.000000e+000  1.000000e+000
    outer loop
      vertex  2.133013e+001  2.500000e+000  2.200000e+001
      vertex  1.100000e+001  1.950000e+000  2.200000e+001
      vertex  1.950000e+001  6.698730e-001  2.200000e+001
    endloop
  endfacet
endsolid CATIA STL
