solid CATIA STL
  facet normal -2.588190e-001  -0.000000e+000 -9.659259e-001
    outer loop
      vertex -3.061516e-016  5.000000e-001  5.000000e+000
      vertex  2.500000e+000  2.500000e+000  4.330127e+000
      vertex  2.500000e+000  5.000000e-001  4.330127e+000
    endloop
  endfacet
  facet normal -7.071068e-001  0.000000e+000 -7.071068e-001
    outer loop
      vertex  2.500000e+000  5.000000e-001  4.330127e+000
      vertex  2.500000e+000  2.500000e+000  4.330127e+000
      vertex  4.330127e+000  2.500000e+000  2.500000e+000
    endloop
  endfacet
  facet normal -7.071068e-001  -0.000000e+000 -7.071068e-001
    outer loop
      vertex  2.500000e+000  5.000000e-001  4.330127e+000
      vertex  4.330127e+000  2.500000e+000  2.500000e+000
      vertex  4.330127e+000  5.000000e-001  2.500000e+000
    endloop
  endfacet
  facet normal -9.659259e-001  0.000000e+000 -2.588190e-001
    outer loop
      vertex  4.330127e+000  5.000000e-001  2.500000e+000
      vertex  4.330127e+000  2.500000e+000  2.500000e+000
      vertex  5.000000e+000  2.500000e+000  6.123032e-016
    endloop
  endfacet
  facet normal -9.659259e-001  -0.000000e+000 -2.588190e-001
    outer loop
      vertex  4.330127e+000  5.000000e-001  2.500000e+000
      vertex  5.000000e+000  2.500000e+000  6.123032e-016
      vertex  5.000000e+000  5.000000e-001  6.123032e-016
    endloop
  endfacet
  facet normal -2.588190e-001  0.000000e+000 -9.659259e-001
    outer loop
      vertex  2.500000e+000  2.500000e+000  4.330127e+000
      vertex -3.061516e-016  5.000000e-001  5.000000e+000
      vertex -3.061516e-016  2.500000e+000  5.000000e+000
    endloop
  endfacet
  facet normal  2.588190e-001  0.000000e+000 -9.659259e-001
    outer loop
      vertex -3.061516e-016  2.500000e+000  5.000000e+000
      vertex -3.061516e-016  5.000000e-001  5.000000e+000
      vertex -2.500000e+000  5.000000e-001  4.330127e+000
    endloop
  endfacet
  facet normal  2.588190e-001  0.000000e+000 -9.659259e-001
    outer loop
      vertex -3.061516e-016  2.500000e+000  5.000000e+000
      vertex -2.500000e+000  5.000000e-001  4.330127e+000
      vertex -2.500000e+000  2.500000e+000  4.330127e+000
    endloop
  endfacet
  facet normal  7.071068e-001  0.000000e+000 -7.071068e-001
    outer loop
      vertex -2.500000e+000  2.500000e+000  4.330127e+000
      vertex -2.500000e+000  5.000000e-001  4.330127e+000
      vertex -4.330127e+000  5.000000e-001  2.500000e+000
    endloop
  endfacet
  facet normal  7.071068e-001  0.000000e+000 -7.071068e-001
    outer loop
      vertex -2.500000e+000  2.500000e+000  4.330127e+000
      vertex -4.330127e+000  5.000000e-001  2.500000e+000
      vertex -4.330127e+000  2.500000e+000  2.500000e+000
    endloop
  endfacet
  facet normal  9.659259e-001  0.000000e+000 -2.588190e-001
    outer loop
      vertex -4.330127e+000  2.500000e+000  2.500000e+000
      vertex -4.330127e+000  5.000000e-001  2.500000e+000
      vertex -5.000000e+000  5.000000e-001 -1.224606e-015
    endloop
  endfacet
  facet normal  9.659259e-001  0.000000e+000 -2.588190e-001
    outer loop
      vertex -4.330127e+000  2.500000e+000  2.500000e+000
      vertex -5.000000e+000  5.000000e-001 -1.224606e-015
      vertex -5.000000e+000  2.500000e+000 -1.224606e-015
    endloop
  endfacet
  facet normal  2.588190e-001  0.000000e+000  9.659259e-001
    outer loop
      vertex  9.184548e-016  5.000000e-001 -5.000000e+000
      vertex -2.500000e+000  2.500000e+000 -4.330127e+000
      vertex -2.500000e+000  5.000000e-001 -4.330127e+000
    endloop
  endfacet
  facet normal  7.071068e-001  -0.000000e+000  7.071068e-001
    outer loop
      vertex -2.500000e+000  5.000000e-001 -4.330127e+000
      vertex -2.500000e+000  2.500000e+000 -4.330127e+000
      vertex -4.330127e+000  2.500000e+000 -2.500000e+000
    endloop
  endfacet
  facet normal  7.071068e-001  0.000000e+000  7.071068e-001
    outer loop
      vertex -2.500000e+000  5.000000e-001 -4.330127e+000
      vertex -4.330127e+000  2.500000e+000 -2.500000e+000
      vertex -4.330127e+000  5.000000e-001 -2.500000e+000
    endloop
  endfacet
  facet normal  9.659259e-001  -0.000000e+000  2.588190e-001
    outer loop
      vertex -4.330127e+000  5.000000e-001 -2.500000e+000
      vertex -4.330127e+000  2.500000e+000 -2.500000e+000
      vertex -5.000000e+000  2.500000e+000 -1.224606e-015
    endloop
  endfacet
  facet normal  9.659259e-001  0.000000e+000  2.588190e-001
    outer loop
      vertex -4.330127e+000  5.000000e-001 -2.500000e+000
      vertex -5.000000e+000  2.500000e+000 -1.224606e-015
      vertex -5.000000e+000  5.000000e-001 -1.224606e-015
    endloop
  endfacet
  facet normal  2.588190e-001  -0.000000e+000  9.659259e-001
    outer loop
      vertex -2.500000e+000  2.500000e+000 -4.330127e+000
      vertex  9.184548e-016  5.000000e-001 -5.000000e+000
      vertex  9.184548e-016  2.500000e+000 -5.000000e+000
    endloop
  endfacet
  facet normal -2.588190e-001  0.000000e+000  9.659259e-001
    outer loop
      vertex  9.184548e-016  2.500000e+000 -5.000000e+000
      vertex  9.184548e-016  5.000000e-001 -5.000000e+000
      vertex  2.500000e+000  5.000000e-001 -4.330127e+000
    endloop
  endfacet
  facet normal -2.588190e-001  0.000000e+000  9.659259e-001
    outer loop
      vertex  9.184548e-016  2.500000e+000 -5.000000e+000
      vertex  2.500000e+000  5.000000e-001 -4.330127e+000
      vertex  2.500000e+000  2.500000e+000 -4.330127e+000
    endloop
  endfacet
  facet normal -7.071068e-001  0.000000e+000  7.071068e-001
    outer loop
      vertex  2.500000e+000  2.500000e+000 -4.330127e+000
      vertex  2.500000e+000  5.000000e-001 -4.330127e+000
      vertex  4.330127e+000  5.000000e-001 -2.500000e+000
    endloop
  endfacet
  facet normal -7.071068e-001  0.000000e+000  7.071068e-001
    outer loop
      vertex  2.500000e+000  2.500000e+000 -4.330127e+000
      vertex  4.330127e+000  5.000000e-001 -2.500000e+000
      vertex  4.330127e+000  2.500000e+000 -2.500000e+000
    endloop
  endfacet
  facet normal -9.659259e-001  0.000000e+000  2.588190e-001
    outer loop
      vertex  4.330127e+000  2.500000e+000 -2.500000e+000
      vertex  4.330127e+000  5.000000e-001 -2.500000e+000
      vertex  5.000000e+000  5.000000e-001  6.123032e-016
    endloop
  endfacet
  facet normal -9.659259e-001  0.000000e+000  2.588190e-001
    outer loop
      vertex  4.330127e+000  2.500000e+000 -2.500000e+000
      vertex  5.000000e+000  5.000000e-001  6.123032e-016
      vertex  5.000000e+000  2.500000e+000  6.123032e-016
    endloop
  endfacet
  facet normal  0.000000e+000  1.000000e+000  0.000000e+000
    outer loop
      vertex -6.717515e+000  3.000000e+000  6.717515e+000
      vertex -3.635493e+000  3.000000e+000  8.776855e+000
      vertex  4.127529e-007  3.000000e+000  5.500000e+000
    endloop
  endfacet
  facet normal  0.000000e+000  1.000000e+000  0.000000e+000
    outer loop
      vertex  4.127529e-007  3.000000e+000  5.500000e+000
      vertex -3.635493e+000  3.000000e+000  8.776855e+000
      vertex -3.811871e-007  3.000000e+000  9.500000e+000
    endloop
  endfacet
  facet normal  0.000000e+000  1.000000e+000  0.000000e+000
    outer loop
      vertex  4.127529e-007  3.000000e+000  5.500000e+000
      vertex -3.811871e-007  3.000000e+000  9.500000e+000
      vertex  6.717514e+000  3.000000e+000  6.717515e+000
    endloop
  endfacet
  facet normal  0.000000e+000  1.000000e+000  0.000000e+000
    outer loop
      vertex  6.717514e+000  3.000000e+000  6.717515e+000
      vertex -3.811871e-007  3.000000e+000  9.500000e+000
      vertex  3.635492e+000  3.000000e+000  8.776855e+000
    endloop
  endfacet
  facet normal  0.000000e+000  1.000000e+000  0.000000e+000
    outer loop
      vertex  4.127529e-007  3.000000e+000  5.500000e+000
      vertex  6.717514e+000  3.000000e+000  6.717515e+000
      vertex  2.750000e+000  3.000000e+000  4.763139e+000
    endloop
  endfacet
  facet normal  -0.000000e+000  1.000000e+000  0.000000e+000
    outer loop
      vertex  2.750000e+000  3.000000e+000  4.763139e+000
      vertex  6.717514e+000  3.000000e+000  6.717515e+000
      vertex  8.776855e+000  3.000000e+000  3.635493e+000
    endloop
  endfacet
  facet normal  0.000000e+000  1.000000e+000  0.000000e+000
    outer loop
      vertex  2.750000e+000  3.000000e+000  4.763139e+000
      vertex  8.776855e+000  3.000000e+000  3.635493e+000
      vertex  4.763140e+000  3.000000e+000  2.750000e+000
    endloop
  endfacet
  facet normal  0.000000e+000  1.000000e+000  0.000000e+000
    outer loop
      vertex  4.763140e+000  3.000000e+000  2.750000e+000
      vertex  8.776855e+000  3.000000e+000  3.635493e+000
      vertex  5.500000e+000  3.000000e+000 -8.255057e-007
    endloop
  endfacet
  facet normal  0.000000e+000  1.000000e+000  0.000000e+000
    outer loop
      vertex  5.500000e+000  3.000000e+000 -8.255057e-007
      vertex  8.776855e+000  3.000000e+000  3.635493e+000
      vertex  9.500000e+000  3.000000e+000  7.623742e-007
    endloop
  endfacet
  facet normal  0.000000e+000  1.000000e+000  0.000000e+000
    outer loop
      vertex  5.500000e+000  3.000000e+000 -8.255057e-007
      vertex  9.500000e+000  3.000000e+000  7.623742e-007
      vertex  4.763140e+000  3.000000e+000 -2.750000e+000
    endloop
  endfacet
  facet normal  -0.000000e+000  1.000000e+000  0.000000e+000
    outer loop
      vertex  4.763140e+000  3.000000e+000 -2.750000e+000
      vertex  9.500000e+000  3.000000e+000  7.623742e-007
      vertex  8.776855e+000  3.000000e+000 -3.635492e+000
    endloop
  endfacet
  facet normal  0.000000e+000  1.000000e+000  0.000000e+000
    outer loop
      vertex  4.763140e+000  3.000000e+000 -2.750000e+000
      vertex  8.776855e+000  3.000000e+000 -3.635492e+000
      vertex  2.750000e+000  3.000000e+000 -4.763140e+000
    endloop
  endfacet
  facet normal  -0.000000e+000  1.000000e+000  0.000000e+000
    outer loop
      vertex  2.750000e+000  3.000000e+000 -4.763140e+000
      vertex  8.776855e+000  3.000000e+000 -3.635492e+000
      vertex  6.717515e+000  3.000000e+000 -6.717514e+000
    endloop
  endfacet
  facet normal  0.000000e+000  1.000000e+000  0.000000e+000
    outer loop
      vertex  2.750000e+000  3.000000e+000 -4.763140e+000
      vertex  6.717515e+000  3.000000e+000 -6.717514e+000
      vertex -3.430592e-015  3.000000e+000 -5.500000e+000
    endloop
  endfacet
  facet normal  0.000000e+000  1.000000e+000  0.000000e+000
    outer loop
      vertex -3.635493e+000  3.000000e+000 -8.776855e+000
      vertex -6.717515e+000  3.000000e+000 -6.717515e+000
      vertex  1.469210e-007  3.000000e+000 -9.500000e+000
    endloop
  endfacet
  facet normal  0.000000e+000  1.000000e+000  0.000000e+000
    outer loop
      vertex  1.469210e-007  3.000000e+000 -9.500000e+000
      vertex -6.717515e+000  3.000000e+000 -6.717515e+000
      vertex -3.430592e-015  3.000000e+000 -5.500000e+000
    endloop
  endfacet
  facet normal  0.000000e+000  1.000000e+000  0.000000e+000
    outer loop
      vertex  1.469210e-007  3.000000e+000 -9.500000e+000
      vertex -3.430592e-015  3.000000e+000 -5.500000e+000
      vertex  3.635493e+000  3.000000e+000 -8.776855e+000
    endloop
  endfacet
  facet normal  0.000000e+000  1.000000e+000  -0.000000e+000
    outer loop
      vertex  3.635493e+000  3.000000e+000 -8.776855e+000
      vertex -3.430592e-015  3.000000e+000 -5.500000e+000
      vertex  6.717515e+000  3.000000e+000 -6.717514e+000
    endloop
  endfacet
  facet normal  0.000000e+000  1.000000e+000  0.000000e+000
    outer loop
      vertex -6.717515e+000  3.000000e+000  6.717515e+000
      vertex  4.127529e-007  3.000000e+000  5.500000e+000
      vertex -8.776855e+000  3.000000e+000  3.635493e+000
    endloop
  endfacet
  facet normal  0.000000e+000  1.000000e+000  0.000000e+000
    outer loop
      vertex -8.776855e+000  3.000000e+000  3.635493e+000
      vertex  4.127529e-007  3.000000e+000  5.500000e+000
      vertex -2.750000e+000  3.000000e+000  4.763140e+000
    endloop
  endfacet
  facet normal  0.000000e+000  9.999999e-001  0.000000e+000
    outer loop
      vertex -8.776855e+000  3.000000e+000  3.635493e+000
      vertex -2.750000e+000  3.000000e+000  4.763140e+000
      vertex -4.763140e+000  3.000000e+000  2.750000e+000
    endloop
  endfacet
  facet normal  0.000000e+000  1.000000e+000  0.000000e+000
    outer loop
      vertex -8.776855e+000  3.000000e+000  3.635493e+000
      vertex -4.763140e+000  3.000000e+000  2.750000e+000
      vertex -9.500000e+000  3.000000e+000 -1.165263e-014
    endloop
  endfacet
  facet normal  0.000000e+000  1.000000e+000  0.000000e+000
    outer loop
      vertex -9.500000e+000  3.000000e+000 -1.165263e-014
      vertex -4.763140e+000  3.000000e+000  2.750000e+000
      vertex -5.500000e+000  3.000000e+000 -3.345916e-015
    endloop
  endfacet
  facet normal  0.000000e+000  1.000000e+000  0.000000e+000
    outer loop
      vertex -9.500000e+000  3.000000e+000 -1.165263e-014
      vertex -5.500000e+000  3.000000e+000 -3.345916e-015
      vertex -8.776855e+000  3.000000e+000 -3.635493e+000
    endloop
  endfacet
  facet normal  0.000000e+000  1.000000e+000  0.000000e+000
    outer loop
      vertex -8.776855e+000  3.000000e+000 -3.635493e+000
      vertex -5.500000e+000  3.000000e+000 -3.345916e-015
      vertex -4.763140e+000  3.000000e+000 -2.750000e+000
    endloop
  endfacet
  facet normal  0.000000e+000  9.999999e-001  0.000000e+000
    outer loop
      vertex -8.776855e+000  3.000000e+000 -3.635493e+000
      vertex -4.763140e+000  3.000000e+000 -2.750000e+000
      vertex -6.717515e+000  3.000000e+000 -6.717515e+000
    endloop
  endfacet
  facet normal  0.000000e+000  1.000000e+000  0.000000e+000
    outer loop
      vertex -6.717515e+000  3.000000e+000 -6.717515e+000
      vertex -4.763140e+000  3.000000e+000 -2.750000e+000
      vertex -2.750000e+000  3.000000e+000 -4.763140e+000
    endloop
  endfacet
  facet normal  0.000000e+000  1.000000e+000  0.000000e+000
    outer loop
      vertex -6.717515e+000  3.000000e+000 -6.717515e+000
      vertex -2.750000e+000  3.000000e+000 -4.763140e+000
      vertex -3.430592e-015  3.000000e+000 -5.500000e+000
    endloop
  endfacet
  facet normal -1.861568e-001  6.947464e-001  6.947467e-001
    outer loop
      vertex -3.430592e-015  3.000000e+000 -5.500000e+000
      vertex  2.500000e+000  2.500000e+000 -4.330127e+000
      vertex  2.750000e+000  3.000000e+000 -4.763140e+000
    endloop
  endfacet
  facet normal -5.085899e-001  6.947465e-001  5.085899e-001
    outer loop
      vertex  2.750000e+000  3.000000e+000 -4.763140e+000
      vertex  2.500000e+000  2.500000e+000 -4.330127e+000
      vertex  4.330127e+000  2.500000e+000 -2.500000e+000
    endloop
  endfacet
  facet normal -5.085899e-001  6.947464e-001  5.085899e-001
    outer loop
      vertex  2.750000e+000  3.000000e+000 -4.763140e+000
      vertex  4.330127e+000  2.500000e+000 -2.500000e+000
      vertex  4.763140e+000  3.000000e+000 -2.750000e+000
    endloop
  endfacet
  facet normal -6.947467e-001  6.947464e-001  1.861568e-001
    outer loop
      vertex  4.763140e+000  3.000000e+000 -2.750000e+000
      vertex  4.330127e+000  2.500000e+000 -2.500000e+000
      vertex  5.000000e+000  2.500000e+000  6.123032e-016
    endloop
  endfacet
  facet normal -6.947464e-001  6.947467e-001  1.861568e-001
    outer loop
      vertex  4.763140e+000  3.000000e+000 -2.750000e+000
      vertex  5.000000e+000  2.500000e+000  6.123032e-016
      vertex  5.500000e+000  3.000000e+000 -8.255057e-007
    endloop
  endfacet
  facet normal -1.861567e-001  6.947466e-001  6.947466e-001
    outer loop
      vertex  2.500000e+000  2.500000e+000 -4.330127e+000
      vertex -3.430592e-015  3.000000e+000 -5.500000e+000
      vertex  9.184548e-016  2.500000e+000 -5.000000e+000
    endloop
  endfacet
  facet normal  1.861568e-001  6.947466e-001  6.947466e-001
    outer loop
      vertex  9.184548e-016  2.500000e+000 -5.000000e+000
      vertex -3.430592e-015  3.000000e+000 -5.500000e+000
      vertex -2.750000e+000  3.000000e+000 -4.763140e+000
    endloop
  endfacet
  facet normal  1.861568e-001  6.947464e-001  6.947467e-001
    outer loop
      vertex  9.184548e-016  2.500000e+000 -5.000000e+000
      vertex -2.750000e+000  3.000000e+000 -4.763140e+000
      vertex -2.500000e+000  2.500000e+000 -4.330127e+000
    endloop
  endfacet
  facet normal  5.085899e-001  6.947464e-001  5.085899e-001
    outer loop
      vertex -2.500000e+000  2.500000e+000 -4.330127e+000
      vertex -2.750000e+000  3.000000e+000 -4.763140e+000
      vertex -4.763140e+000  3.000000e+000 -2.750000e+000
    endloop
  endfacet
  facet normal  5.085899e-001  6.947465e-001  5.085899e-001
    outer loop
      vertex -2.500000e+000  2.500000e+000 -4.330127e+000
      vertex -4.763140e+000  3.000000e+000 -2.750000e+000
      vertex -4.330127e+000  2.500000e+000 -2.500000e+000
    endloop
  endfacet
  facet normal  6.947467e-001  6.947464e-001  1.861568e-001
    outer loop
      vertex -4.330127e+000  2.500000e+000 -2.500000e+000
      vertex -4.763140e+000  3.000000e+000 -2.750000e+000
      vertex -5.500000e+000  3.000000e+000 -3.345916e-015
    endloop
  endfacet
  facet normal  6.947466e-001  6.947466e-001  1.861567e-001
    outer loop
      vertex -4.330127e+000  2.500000e+000 -2.500000e+000
      vertex -5.500000e+000  3.000000e+000 -3.345916e-015
      vertex -5.000000e+000  2.500000e+000 -1.224606e-015
    endloop
  endfacet
  facet normal  1.861568e-001  6.947464e-001 -6.947468e-001
    outer loop
      vertex  4.127529e-007  3.000000e+000  5.500000e+000
      vertex -2.500000e+000  2.500000e+000  4.330127e+000
      vertex -2.750000e+000  3.000000e+000  4.763140e+000
    endloop
  endfacet
  facet normal  5.085900e-001  6.947464e-001 -5.085900e-001
    outer loop
      vertex -2.750000e+000  3.000000e+000  4.763140e+000
      vertex -2.500000e+000  2.500000e+000  4.330127e+000
      vertex -4.330127e+000  2.500000e+000  2.500000e+000
    endloop
  endfacet
  facet normal  5.085899e-001  6.947465e-001 -5.085899e-001
    outer loop
      vertex -2.750000e+000  3.000000e+000  4.763140e+000
      vertex -4.330127e+000  2.500000e+000  2.500000e+000
      vertex -4.763140e+000  3.000000e+000  2.750000e+000
    endloop
  endfacet
  facet normal  6.947467e-001  6.947464e-001 -1.861568e-001
    outer loop
      vertex -4.763140e+000  3.000000e+000  2.750000e+000
      vertex -4.330127e+000  2.500000e+000  2.500000e+000
      vertex -5.000000e+000  2.500000e+000 -1.224606e-015
    endloop
  endfacet
  facet normal  6.947466e-001  6.947466e-001 -1.861568e-001
    outer loop
      vertex -4.763140e+000  3.000000e+000  2.750000e+000
      vertex -5.000000e+000  2.500000e+000 -1.224606e-015
      vertex -5.500000e+000  3.000000e+000 -3.345916e-015
    endloop
  endfacet
  facet normal  1.861567e-001  6.947466e-001 -6.947467e-001
    outer loop
      vertex -2.500000e+000  2.500000e+000  4.330127e+000
      vertex  4.127529e-007  3.000000e+000  5.500000e+000
      vertex -3.061516e-016  2.500000e+000  5.000000e+000
    endloop
  endfacet
  facet normal -1.861569e-001  6.947467e-001 -6.947465e-001
    outer loop
      vertex -3.061516e-016  2.500000e+000  5.000000e+000
      vertex  4.127529e-007  3.000000e+000  5.500000e+000
      vertex  2.750000e+000  3.000000e+000  4.763139e+000
    endloop
  endfacet
  facet normal -1.861568e-001  6.947462e-001 -6.947470e-001
    outer loop
      vertex -3.061516e-016  2.500000e+000  5.000000e+000
      vertex  2.750000e+000  3.000000e+000  4.763139e+000
      vertex  2.500000e+000  2.500000e+000  4.330127e+000
    endloop
  endfacet
  facet normal -5.085899e-001  6.947464e-001 -5.085899e-001
    outer loop
      vertex  2.500000e+000  2.500000e+000  4.330127e+000
      vertex  2.750000e+000  3.000000e+000  4.763139e+000
      vertex  4.763140e+000  3.000000e+000  2.750000e+000
    endloop
  endfacet
  facet normal -5.085899e-001  6.947465e-001 -5.085899e-001
    outer loop
      vertex  2.500000e+000  2.500000e+000  4.330127e+000
      vertex  4.763140e+000  3.000000e+000  2.750000e+000
      vertex  4.330127e+000  2.500000e+000  2.500000e+000
    endloop
  endfacet
  facet normal -6.947466e-001  6.947467e-001 -1.861566e-001
    outer loop
      vertex  4.330127e+000  2.500000e+000  2.500000e+000
      vertex  4.763140e+000  3.000000e+000  2.750000e+000
      vertex  5.500000e+000  3.000000e+000 -8.255057e-007
    endloop
  endfacet
  facet normal -6.947467e-001  6.947464e-001 -1.861568e-001
    outer loop
      vertex  4.330127e+000  2.500000e+000  2.500000e+000
      vertex  5.500000e+000  3.000000e+000 -8.255057e-007
      vertex  5.000000e+000  2.500000e+000  6.123032e-016
    endloop
  endfacet
  facet normal  0.000000e+000 -1.000000e+000  0.000000e+000
    outer loop
      vertex -6.717515e+000  0.000000e+000  6.717515e+000
      vertex  4.127529e-007  0.000000e+000  5.500000e+000
      vertex -3.635493e+000  0.000000e+000  8.776855e+000
    endloop
  endfacet
  facet normal  0.000000e+000 -1.000000e+000  0.000000e+000
    outer loop
      vertex -3.635493e+000  0.000000e+000  8.776855e+000
      vertex  4.127529e-007  0.000000e+000  5.500000e+000
      vertex -3.811871e-007  0.000000e+000  9.500000e+000
    endloop
  endfacet
  facet normal  -0.000000e+000 -1.000000e+000  0.000000e+000
    outer loop
      vertex  4.127529e-007  0.000000e+000  5.500000e+000
      vertex  6.717514e+000  0.000000e+000  6.717515e+000
      vertex -3.811871e-007  0.000000e+000  9.500000e+000
    endloop
  endfacet
  facet normal  0.000000e+000 -1.000000e+000  0.000000e+000
    outer loop
      vertex -3.811871e-007  0.000000e+000  9.500000e+000
      vertex  6.717514e+000  0.000000e+000  6.717515e+000
      vertex  3.635492e+000  0.000000e+000  8.776855e+000
    endloop
  endfacet
  facet normal  -0.000000e+000 -1.000000e+000  0.000000e+000
    outer loop
      vertex  4.763140e+000  0.000000e+000  2.750000e+000
      vertex  8.776855e+000  0.000000e+000  3.635493e+000
      vertex  2.750000e+000  0.000000e+000  4.763139e+000
    endloop
  endfacet
  facet normal  0.000000e+000 -1.000000e+000  0.000000e+000
    outer loop
      vertex  2.750000e+000  0.000000e+000  4.763139e+000
      vertex  8.776855e+000  0.000000e+000  3.635493e+000
      vertex  6.717514e+000  0.000000e+000  6.717515e+000
    endloop
  endfacet
  facet normal  0.000000e+000 -1.000000e+000  0.000000e+000
    outer loop
      vertex  2.750000e+000  0.000000e+000  4.763139e+000
      vertex  6.717514e+000  0.000000e+000  6.717515e+000
      vertex  4.127529e-007  0.000000e+000  5.500000e+000
    endloop
  endfacet
  facet normal  0.000000e+000 -1.000000e+000  0.000000e+000
    outer loop
      vertex -3.430592e-015  0.000000e+000 -5.500000e+000
      vertex  6.717515e+000  0.000000e+000 -6.717514e+000
      vertex  2.750000e+000  0.000000e+000 -4.763140e+000
    endloop
  endfacet
  facet normal  0.000000e+000 -1.000000e+000  0.000000e+000
    outer loop
      vertex  2.750000e+000  0.000000e+000 -4.763140e+000
      vertex  6.717515e+000  0.000000e+000 -6.717514e+000
      vertex  8.776855e+000  0.000000e+000 -3.635492e+000
    endloop
  endfacet
  facet normal  -0.000000e+000 -1.000000e+000  0.000000e+000
    outer loop
      vertex  2.750000e+000  0.000000e+000 -4.763140e+000
      vertex  8.776855e+000  0.000000e+000 -3.635492e+000
      vertex  4.763140e+000  0.000000e+000 -2.750000e+000
    endloop
  endfacet
  facet normal  0.000000e+000 -1.000000e+000  0.000000e+000
    outer loop
      vertex  4.763140e+000  0.000000e+000 -2.750000e+000
      vertex  8.776855e+000  0.000000e+000 -3.635492e+000
      vertex  9.500000e+000  0.000000e+000  7.623742e-007
    endloop
  endfacet
  facet normal  0.000000e+000 -1.000000e+000  0.000000e+000
    outer loop
      vertex  4.763140e+000  0.000000e+000 -2.750000e+000
      vertex  9.500000e+000  0.000000e+000  7.623742e-007
      vertex  5.500000e+000  0.000000e+000 -8.255057e-007
    endloop
  endfacet
  facet normal  0.000000e+000 -1.000000e+000  0.000000e+000
    outer loop
      vertex  5.500000e+000  0.000000e+000 -8.255057e-007
      vertex  9.500000e+000  0.000000e+000  7.623742e-007
      vertex  8.776855e+000  0.000000e+000  3.635493e+000
    endloop
  endfacet
  facet normal  0.000000e+000 -1.000000e+000  0.000000e+000
    outer loop
      vertex  5.500000e+000  0.000000e+000 -8.255057e-007
      vertex  8.776855e+000  0.000000e+000  3.635493e+000
      vertex  4.763140e+000  0.000000e+000  2.750000e+000
    endloop
  endfacet
  facet normal  0.000000e+000 -9.999999e-001  0.000000e+000
    outer loop
      vertex -3.635493e+000  0.000000e+000 -8.776855e+000
      vertex  1.469210e-007  0.000000e+000 -9.500000e+000
      vertex -6.717515e+000  0.000000e+000 -6.717515e+000
    endloop
  endfacet
  facet normal  0.000000e+000 -1.000000e+000  0.000000e+000
    outer loop
      vertex -6.717515e+000  0.000000e+000 -6.717515e+000
      vertex  1.469210e-007  0.000000e+000 -9.500000e+000
      vertex -3.430592e-015  0.000000e+000 -5.500000e+000
    endloop
  endfacet
  facet normal  -0.000000e+000 -1.000000e+000  0.000000e+000
    outer loop
      vertex  1.469210e-007  0.000000e+000 -9.500000e+000
      vertex  3.635493e+000  0.000000e+000 -8.776855e+000
      vertex -3.430592e-015  0.000000e+000 -5.500000e+000
    endloop
  endfacet
  facet normal  0.000000e+000 -1.000000e+000  0.000000e+000
    outer loop
      vertex -3.430592e-015  0.000000e+000 -5.500000e+000
      vertex  3.635493e+000  0.000000e+000 -8.776855e+000
      vertex  6.717515e+000  0.000000e+000 -6.717514e+000
    endloop
  endfacet
  facet normal  0.000000e+000 -9.999999e-001  0.000000e+000
    outer loop
      vertex -4.763140e+000  0.000000e+000  2.750000e+000
      vertex -2.750000e+000  0.000000e+000  4.763140e+000
      vertex -8.776855e+000  0.000000e+000  3.635493e+000
    endloop
  endfacet
  facet normal  0.000000e+000 -1.000000e+000  0.000000e+000
    outer loop
      vertex -8.776855e+000  0.000000e+000  3.635493e+000
      vertex -2.750000e+000  0.000000e+000  4.763140e+000
      vertex  4.127529e-007  0.000000e+000  5.500000e+000
    endloop
  endfacet
  facet normal  -0.000000e+000 -1.000000e+000  0.000000e+000
    outer loop
      vertex -8.776855e+000  0.000000e+000  3.635493e+000
      vertex  4.127529e-007  0.000000e+000  5.500000e+000
      vertex -6.717515e+000  0.000000e+000  6.717515e+000
    endloop
  endfacet
  facet normal  0.000000e+000 -1.000000e+000  -0.000000e+000
    outer loop
      vertex -3.430592e-015  0.000000e+000 -5.500000e+000
      vertex -2.750000e+000  0.000000e+000 -4.763140e+000
      vertex -6.717515e+000  0.000000e+000 -6.717515e+000
    endloop
  endfacet
  facet normal  0.000000e+000 -1.000000e+000  0.000000e+000
    outer loop
      vertex -6.717515e+000  0.000000e+000 -6.717515e+000
      vertex -2.750000e+000  0.000000e+000 -4.763140e+000
      vertex -4.763140e+000  0.000000e+000 -2.750000e+000
    endloop
  endfacet
  facet normal  0.000000e+000 -9.999999e-001  0.000000e+000
    outer loop
      vertex -6.717515e+000  0.000000e+000 -6.717515e+000
      vertex -4.763140e+000  0.000000e+000 -2.750000e+000
      vertex -8.776855e+000  0.000000e+000 -3.635493e+000
    endloop
  endfacet
  facet normal  0.000000e+000 -1.000000e+000  0.000000e+000
    outer loop
      vertex -8.776855e+000  0.000000e+000 -3.635493e+000
      vertex -4.763140e+000  0.000000e+000 -2.750000e+000
      vertex -5.500000e+000  0.000000e+000 -3.345916e-015
    endloop
  endfacet
  facet normal  0.000000e+000 -1.000000e+000  0.000000e+000
    outer loop
      vertex -8.776855e+000  0.000000e+000 -3.635493e+000
      vertex -5.500000e+000  0.000000e+000 -3.345916e-015
      vertex -9.500000e+000  0.000000e+000 -1.165263e-014
    endloop
  endfacet
  facet normal  0.000000e+000 -1.000000e+000  0.000000e+000
    outer loop
      vertex -9.500000e+000  0.000000e+000 -1.165263e-014
      vertex -5.500000e+000  0.000000e+000 -3.345916e-015
      vertex -4.763140e+000  0.000000e+000  2.750000e+000
    endloop
  endfacet
  facet normal  -0.000000e+000 -1.000000e+000  0.000000e+000
    outer loop
      vertex -9.500000e+000  0.000000e+000 -1.165263e-014
      vertex -4.763140e+000  0.000000e+000  2.750000e+000
      vertex -8.776855e+000  0.000000e+000  3.635493e+000
    endloop
  endfacet
  facet normal -6.947464e-001 -6.947467e-001  1.861568e-001
    outer loop
      vertex  5.500000e+000  0.000000e+000 -8.255057e-007
      vertex  5.000000e+000  5.000000e-001  6.123032e-016
      vertex  4.763140e+000  0.000000e+000 -2.750000e+000
    endloop
  endfacet
  facet normal -6.947467e-001 -6.947464e-001  1.861568e-001
    outer loop
      vertex  4.763140e+000  0.000000e+000 -2.750000e+000
      vertex  5.000000e+000  5.000000e-001  6.123032e-016
      vertex  4.330127e+000  5.000000e-001 -2.500000e+000
    endloop
  endfacet
  facet normal -5.085899e-001 -6.947464e-001  5.085899e-001
    outer loop
      vertex  4.763140e+000  0.000000e+000 -2.750000e+000
      vertex  4.330127e+000  5.000000e-001 -2.500000e+000
      vertex  2.750000e+000  0.000000e+000 -4.763140e+000
    endloop
  endfacet
  facet normal -5.085899e-001 -6.947465e-001  5.085899e-001
    outer loop
      vertex  2.750000e+000  0.000000e+000 -4.763140e+000
      vertex  4.330127e+000  5.000000e-001 -2.500000e+000
      vertex  2.500000e+000  5.000000e-001 -4.330127e+000
    endloop
  endfacet
  facet normal -1.861568e-001 -6.947464e-001  6.947467e-001
    outer loop
      vertex  2.750000e+000  0.000000e+000 -4.763140e+000
      vertex  2.500000e+000  5.000000e-001 -4.330127e+000
      vertex -3.430592e-015  0.000000e+000 -5.500000e+000
    endloop
  endfacet
  facet normal -1.861567e-001 -6.947466e-001  6.947466e-001
    outer loop
      vertex -3.430592e-015  0.000000e+000 -5.500000e+000
      vertex  2.500000e+000  5.000000e-001 -4.330127e+000
      vertex  9.184548e-016  5.000000e-001 -5.000000e+000
    endloop
  endfacet
  facet normal  1.861568e-001 -6.947466e-001  6.947466e-001
    outer loop
      vertex -3.430592e-015  0.000000e+000 -5.500000e+000
      vertex  9.184548e-016  5.000000e-001 -5.000000e+000
      vertex -2.750000e+000  0.000000e+000 -4.763140e+000
    endloop
  endfacet
  facet normal  1.861568e-001 -6.947464e-001  6.947467e-001
    outer loop
      vertex -2.750000e+000  0.000000e+000 -4.763140e+000
      vertex  9.184548e-016  5.000000e-001 -5.000000e+000
      vertex -2.500000e+000  5.000000e-001 -4.330127e+000
    endloop
  endfacet
  facet normal  5.085899e-001 -6.947464e-001  5.085899e-001
    outer loop
      vertex -2.750000e+000  0.000000e+000 -4.763140e+000
      vertex -2.500000e+000  5.000000e-001 -4.330127e+000
      vertex -4.763140e+000  0.000000e+000 -2.750000e+000
    endloop
  endfacet
  facet normal  5.085899e-001 -6.947465e-001  5.085899e-001
    outer loop
      vertex -4.763140e+000  0.000000e+000 -2.750000e+000
      vertex -2.500000e+000  5.000000e-001 -4.330127e+000
      vertex -4.330127e+000  5.000000e-001 -2.500000e+000
    endloop
  endfacet
  facet normal  6.947467e-001 -6.947464e-001  1.861568e-001
    outer loop
      vertex -4.763140e+000  0.000000e+000 -2.750000e+000
      vertex -4.330127e+000  5.000000e-001 -2.500000e+000
      vertex -5.500000e+000  0.000000e+000 -3.345916e-015
    endloop
  endfacet
  facet normal  6.947466e-001 -6.947466e-001  1.861567e-001
    outer loop
      vertex -5.500000e+000  0.000000e+000 -3.345916e-015
      vertex -4.330127e+000  5.000000e-001 -2.500000e+000
      vertex -5.000000e+000  5.000000e-001 -1.224606e-015
    endloop
  endfacet
  facet normal  6.947466e-001 -6.947466e-001 -1.861568e-001
    outer loop
      vertex -5.500000e+000  0.000000e+000 -3.345916e-015
      vertex -5.000000e+000  5.000000e-001 -1.224606e-015
      vertex -4.763140e+000  0.000000e+000  2.750000e+000
    endloop
  endfacet
  facet normal  6.947467e-001 -6.947464e-001 -1.861568e-001
    outer loop
      vertex -4.763140e+000  0.000000e+000  2.750000e+000
      vertex -5.000000e+000  5.000000e-001 -1.224606e-015
      vertex -4.330127e+000  5.000000e-001  2.500000e+000
    endloop
  endfacet
  facet normal  5.085899e-001 -6.947465e-001 -5.085899e-001
    outer loop
      vertex -4.763140e+000  0.000000e+000  2.750000e+000
      vertex -4.330127e+000  5.000000e-001  2.500000e+000
      vertex -2.750000e+000  0.000000e+000  4.763140e+000
    endloop
  endfacet
  facet normal  5.085900e-001 -6.947464e-001 -5.085900e-001
    outer loop
      vertex -2.750000e+000  0.000000e+000  4.763140e+000
      vertex -4.330127e+000  5.000000e-001  2.500000e+000
      vertex -2.500000e+000  5.000000e-001  4.330127e+000
    endloop
  endfacet
  facet normal  1.861568e-001 -6.947464e-001 -6.947468e-001
    outer loop
      vertex -2.750000e+000  0.000000e+000  4.763140e+000
      vertex -2.500000e+000  5.000000e-001  4.330127e+000
      vertex  4.127529e-007  0.000000e+000  5.500000e+000
    endloop
  endfacet
  facet normal  1.861567e-001 -6.947466e-001 -6.947467e-001
    outer loop
      vertex  4.127529e-007  0.000000e+000  5.500000e+000
      vertex -2.500000e+000  5.000000e-001  4.330127e+000
      vertex -3.061516e-016  5.000000e-001  5.000000e+000
    endloop
  endfacet
  facet normal -1.861569e-001 -6.947467e-001 -6.947465e-001
    outer loop
      vertex  4.127529e-007  0.000000e+000  5.500000e+000
      vertex -3.061516e-016  5.000000e-001  5.000000e+000
      vertex  2.750000e+000  0.000000e+000  4.763139e+000
    endloop
  endfacet
  facet normal -1.861568e-001 -6.947462e-001 -6.947470e-001
    outer loop
      vertex  2.750000e+000  0.000000e+000  4.763139e+000
      vertex -3.061516e-016  5.000000e-001  5.000000e+000
      vertex  2.500000e+000  5.000000e-001  4.330127e+000
    endloop
  endfacet
  facet normal -5.085899e-001 -6.947464e-001 -5.085899e-001
    outer loop
      vertex  2.750000e+000  0.000000e+000  4.763139e+000
      vertex  2.500000e+000  5.000000e-001  4.330127e+000
      vertex  4.763140e+000  0.000000e+000  2.750000e+000
    endloop
  endfacet
  facet normal -5.085899e-001 -6.947465e-001 -5.085899e-001
    outer loop
      vertex  4.763140e+000  0.000000e+000  2.750000e+000
      vertex  2.500000e+000  5.000000e-001  4.330127e+000
      vertex  4.330127e+000  5.000000e-001  2.500000e+000
    endloop
  endfacet
  facet normal -6.947466e-001 -6.947467e-001 -1.861566e-001
    outer loop
      vertex  4.763140e+000  0.000000e+000  2.750000e+000
      vertex  4.330127e+000  5.000000e-001  2.500000e+000
      vertex  5.500000e+000  0.000000e+000 -8.255057e-007
    endloop
  endfacet
  facet normal -6.947467e-001 -6.947464e-001 -1.861568e-001
    outer loop
      vertex  5.500000e+000  0.000000e+000 -8.255057e-007
      vertex  4.330127e+000  5.000000e-001  2.500000e+000
      vertex  5.000000e+000  5.000000e-001  6.123032e-016
    endloop
  endfacet
  facet normal -9.807853e-001  -0.000000e+000 -1.950903e-001
    outer loop
      vertex -1.000000e+001  5.000000e-001 -2.449213e-015
      vertex -1.000000e+001  2.500000e+000 -2.449213e-015
      vertex -9.238795e+000  5.000000e-001 -3.826834e+000
    endloop
  endfacet
  facet normal -9.807853e-001  0.000000e+000 -1.950903e-001
    outer loop
      vertex -9.238795e+000  5.000000e-001 -3.826834e+000
      vertex -1.000000e+001  2.500000e+000 -2.449213e-015
      vertex -9.238795e+000  2.500000e+000 -3.826834e+000
    endloop
  endfacet
  facet normal -8.314695e-001  -0.000000e+000 -5.555702e-001
    outer loop
      vertex -9.238795e+000  5.000000e-001 -3.826834e+000
      vertex -9.238795e+000  2.500000e+000 -3.826834e+000
      vertex -7.071068e+000  5.000000e-001 -7.071068e+000
    endloop
  endfacet
  facet normal -8.314695e-001  0.000000e+000 -5.555702e-001
    outer loop
      vertex -7.071068e+000  5.000000e-001 -7.071068e+000
      vertex -9.238795e+000  2.500000e+000 -3.826834e+000
      vertex -7.071068e+000  2.500000e+000 -7.071068e+000
    endloop
  endfacet
  facet normal -5.555702e-001  -0.000000e+000 -8.314695e-001
    outer loop
      vertex -7.071068e+000  5.000000e-001 -7.071068e+000
      vertex -7.071068e+000  2.500000e+000 -7.071068e+000
      vertex -3.826834e+000  5.000000e-001 -9.238795e+000
    endloop
  endfacet
  facet normal -5.555702e-001  0.000000e+000 -8.314695e-001
    outer loop
      vertex -3.826834e+000  5.000000e-001 -9.238795e+000
      vertex -7.071068e+000  2.500000e+000 -7.071068e+000
      vertex -3.826834e+000  2.500000e+000 -9.238795e+000
    endloop
  endfacet
  facet normal -1.950903e-001  -0.000000e+000 -9.807853e-001
    outer loop
      vertex -3.826834e+000  5.000000e-001 -9.238795e+000
      vertex -3.826834e+000  2.500000e+000 -9.238795e+000
      vertex  1.836910e-015  5.000000e-001 -1.000000e+001
    endloop
  endfacet
  facet normal -1.950903e-001  0.000000e+000 -9.807853e-001
    outer loop
      vertex  1.836910e-015  5.000000e-001 -1.000000e+001
      vertex -3.826834e+000  2.500000e+000 -9.238795e+000
      vertex  1.836910e-015  2.500000e+000 -1.000000e+001
    endloop
  endfacet
  facet normal  1.950903e-001  0.000000e+000 -9.807853e-001
    outer loop
      vertex  1.836910e-015  5.000000e-001 -1.000000e+001
      vertex  1.836910e-015  2.500000e+000 -1.000000e+001
      vertex  3.826834e+000  5.000000e-001 -9.238795e+000
    endloop
  endfacet
  facet normal  1.950903e-001  0.000000e+000 -9.807853e-001
    outer loop
      vertex  3.826834e+000  5.000000e-001 -9.238795e+000
      vertex  1.836910e-015  2.500000e+000 -1.000000e+001
      vertex  3.826834e+000  2.500000e+000 -9.238795e+000
    endloop
  endfacet
  facet normal  5.555702e-001  0.000000e+000 -8.314695e-001
    outer loop
      vertex  3.826834e+000  5.000000e-001 -9.238795e+000
      vertex  3.826834e+000  2.500000e+000 -9.238795e+000
      vertex  7.071068e+000  5.000000e-001 -7.071068e+000
    endloop
  endfacet
  facet normal  5.555702e-001  0.000000e+000 -8.314695e-001
    outer loop
      vertex  7.071068e+000  5.000000e-001 -7.071068e+000
      vertex  3.826834e+000  2.500000e+000 -9.238795e+000
      vertex  7.071068e+000  2.500000e+000 -7.071068e+000
    endloop
  endfacet
  facet normal  8.314695e-001  0.000000e+000 -5.555702e-001
    outer loop
      vertex  7.071068e+000  5.000000e-001 -7.071068e+000
      vertex  7.071068e+000  2.500000e+000 -7.071068e+000
      vertex  9.238795e+000  5.000000e-001 -3.826834e+000
    endloop
  endfacet
  facet normal  8.314695e-001  0.000000e+000 -5.555702e-001
    outer loop
      vertex  9.238795e+000  5.000000e-001 -3.826834e+000
      vertex  7.071068e+000  2.500000e+000 -7.071068e+000
      vertex  9.238795e+000  2.500000e+000 -3.826834e+000
    endloop
  endfacet
  facet normal  9.807853e-001  0.000000e+000 -1.950903e-001
    outer loop
      vertex  9.238795e+000  5.000000e-001 -3.826834e+000
      vertex  9.238795e+000  2.500000e+000 -3.826834e+000
      vertex  1.000000e+001  5.000000e-001  1.224606e-015
    endloop
  endfacet
  facet normal  9.807853e-001  0.000000e+000 -1.950903e-001
    outer loop
      vertex  1.000000e+001  5.000000e-001  1.224606e-015
      vertex  9.238795e+000  2.500000e+000 -3.826834e+000
      vertex  1.000000e+001  2.500000e+000  1.224606e-015
    endloop
  endfacet
  facet normal  9.807853e-001  0.000000e+000  1.950903e-001
    outer loop
      vertex  1.000000e+001  5.000000e-001  1.224606e-015
      vertex  1.000000e+001  2.500000e+000  1.224606e-015
      vertex  9.238795e+000  5.000000e-001  3.826834e+000
    endloop
  endfacet
  facet normal  9.807853e-001  -0.000000e+000  1.950903e-001
    outer loop
      vertex  9.238795e+000  5.000000e-001  3.826834e+000
      vertex  1.000000e+001  2.500000e+000  1.224606e-015
      vertex  9.238795e+000  2.500000e+000  3.826834e+000
    endloop
  endfacet
  facet normal  8.314695e-001  0.000000e+000  5.555702e-001
    outer loop
      vertex  9.238795e+000  5.000000e-001  3.826834e+000
      vertex  9.238795e+000  2.500000e+000  3.826834e+000
      vertex  7.071068e+000  5.000000e-001  7.071068e+000
    endloop
  endfacet
  facet normal  8.314695e-001  -0.000000e+000  5.555702e-001
    outer loop
      vertex  7.071068e+000  5.000000e-001  7.071068e+000
      vertex  9.238795e+000  2.500000e+000  3.826834e+000
      vertex  7.071068e+000  2.500000e+000  7.071068e+000
    endloop
  endfacet
  facet normal  5.555702e-001  0.000000e+000  8.314695e-001
    outer loop
      vertex  7.071068e+000  5.000000e-001  7.071068e+000
      vertex  7.071068e+000  2.500000e+000  7.071068e+000
      vertex  3.826834e+000  5.000000e-001  9.238795e+000
    endloop
  endfacet
  facet normal  5.555702e-001  -0.000000e+000  8.314695e-001
    outer loop
      vertex  3.826834e+000  5.000000e-001  9.238795e+000
      vertex  7.071068e+000  2.500000e+000  7.071068e+000
      vertex  3.826834e+000  2.500000e+000  9.238795e+000
    endloop
  endfacet
  facet normal  1.950903e-001  0.000000e+000  9.807853e-001
    outer loop
      vertex  3.826834e+000  5.000000e-001  9.238795e+000
      vertex  3.826834e+000  2.500000e+000  9.238795e+000
      vertex -6.123032e-016  5.000000e-001  1.000000e+001
    endloop
  endfacet
  facet normal  1.950903e-001  -0.000000e+000  9.807853e-001
    outer loop
      vertex -6.123032e-016  5.000000e-001  1.000000e+001
      vertex  3.826834e+000  2.500000e+000  9.238795e+000
      vertex -6.123032e-016  2.500000e+000  1.000000e+001
    endloop
  endfacet
  facet normal -1.950903e-001  0.000000e+000  9.807853e-001
    outer loop
      vertex -6.123032e-016  5.000000e-001  1.000000e+001
      vertex -6.123032e-016  2.500000e+000  1.000000e+001
      vertex -3.826834e+000  5.000000e-001  9.238795e+000
    endloop
  endfacet
  facet normal -1.950903e-001  0.000000e+000  9.807853e-001
    outer loop
      vertex -3.826834e+000  5.000000e-001  9.238795e+000
      vertex -6.123032e-016  2.500000e+000  1.000000e+001
      vertex -3.826834e+000  2.500000e+000  9.238795e+000
    endloop
  endfacet
  facet normal -5.555702e-001  0.000000e+000  8.314695e-001
    outer loop
      vertex -3.826834e+000  5.000000e-001  9.238795e+000
      vertex -3.826834e+000  2.500000e+000  9.238795e+000
      vertex -7.071068e+000  5.000000e-001  7.071068e+000
    endloop
  endfacet
  facet normal -5.555702e-001  0.000000e+000  8.314695e-001
    outer loop
      vertex -7.071068e+000  5.000000e-001  7.071068e+000
      vertex -3.826834e+000  2.500000e+000  9.238795e+000
      vertex -7.071068e+000  2.500000e+000  7.071068e+000
    endloop
  endfacet
  facet normal -8.314695e-001  0.000000e+000  5.555702e-001
    outer loop
      vertex -7.071068e+000  5.000000e-001  7.071068e+000
      vertex -7.071068e+000  2.500000e+000  7.071068e+000
      vertex -9.238795e+000  5.000000e-001  3.826834e+000
    endloop
  endfacet
  facet normal -8.314695e-001  0.000000e+000  5.555702e-001
    outer loop
      vertex -9.238795e+000  5.000000e-001  3.826834e+000
      vertex -7.071068e+000  2.500000e+000  7.071068e+000
      vertex -9.238795e+000  2.500000e+000  3.826834e+000
    endloop
  endfacet
  facet normal -9.807853e-001  0.000000e+000  1.950903e-001
    outer loop
      vertex -9.238795e+000  5.000000e-001  3.826834e+000
      vertex -9.238795e+000  2.500000e+000  3.826834e+000
      vertex -1.000000e+001  5.000000e-001 -2.449213e-015
    endloop
  endfacet
  facet normal -9.807853e-001  0.000000e+000  1.950903e-001
    outer loop
      vertex -1.000000e+001  5.000000e-001 -2.449213e-015
      vertex -9.238795e+000  2.500000e+000  3.826834e+000
      vertex -1.000000e+001  2.500000e+000 -2.449213e-015
    endloop
  endfacet
  facet normal -1.392813e-001  7.002145e-001  7.002144e-001
    outer loop
      vertex -6.123032e-016  2.500000e+000  1.000000e+001
      vertex -3.635493e+000  3.000000e+000  8.776855e+000
      vertex -3.826834e+000  2.500000e+000  9.238795e+000
    endloop
  endfacet
  facet normal -3.966396e-001  7.002145e-001  5.936132e-001
    outer loop
      vertex -3.826834e+000  2.500000e+000  9.238795e+000
      vertex -3.635493e+000  3.000000e+000  8.776855e+000
      vertex -6.717515e+000  3.000000e+000  6.717515e+000
    endloop
  endfacet
  facet normal -3.966397e-001  7.002144e-001  5.936133e-001
    outer loop
      vertex -3.826834e+000  2.500000e+000  9.238795e+000
      vertex -6.717515e+000  3.000000e+000  6.717515e+000
      vertex -7.071068e+000  2.500000e+000  7.071068e+000
    endloop
  endfacet
  facet normal -5.936133e-001  7.002144e-001  3.966397e-001
    outer loop
      vertex -7.071068e+000  2.500000e+000  7.071068e+000
      vertex -6.717515e+000  3.000000e+000  6.717515e+000
      vertex -8.776855e+000  3.000000e+000  3.635493e+000
    endloop
  endfacet
  facet normal -5.936131e-001  7.002146e-001  3.966396e-001
    outer loop
      vertex -7.071068e+000  2.500000e+000  7.071068e+000
      vertex -8.776855e+000  3.000000e+000  3.635493e+000
      vertex -9.238795e+000  2.500000e+000  3.826834e+000
    endloop
  endfacet
  facet normal -7.002144e-001  7.002146e-001  1.392813e-001
    outer loop
      vertex -9.238795e+000  2.500000e+000  3.826834e+000
      vertex -8.776855e+000  3.000000e+000  3.635493e+000
      vertex -9.500000e+000  3.000000e+000 -1.165263e-014
    endloop
  endfacet
  facet normal -7.002146e-001  7.002146e-001  1.392813e-001
    outer loop
      vertex -9.238795e+000  2.500000e+000  3.826834e+000
      vertex -9.500000e+000  3.000000e+000 -1.165263e-014
      vertex -1.000000e+001  2.500000e+000 -2.449213e-015
    endloop
  endfacet
  facet normal -1.392814e-001  7.002144e-001  7.002146e-001
    outer loop
      vertex -3.635493e+000  3.000000e+000  8.776855e+000
      vertex -6.123032e-016  2.500000e+000  1.000000e+001
      vertex -3.811871e-007  3.000000e+000  9.500000e+000
    endloop
  endfacet
  facet normal  1.392813e-001  7.002146e-001  7.002144e-001
    outer loop
      vertex -3.811871e-007  3.000000e+000  9.500000e+000
      vertex -6.123032e-016  2.500000e+000  1.000000e+001
      vertex  3.826834e+000  2.500000e+000  9.238795e+000
    endloop
  endfacet
  facet normal  1.392813e-001  7.002147e-001  7.002144e-001
    outer loop
      vertex -3.811871e-007  3.000000e+000  9.500000e+000
      vertex  3.826834e+000  2.500000e+000  9.238795e+000
      vertex  3.635492e+000  3.000000e+000  8.776855e+000
    endloop
  endfacet
  facet normal  3.966395e-001  7.002148e-001  5.936130e-001
    outer loop
      vertex  3.635492e+000  3.000000e+000  8.776855e+000
      vertex  3.826834e+000  2.500000e+000  9.238795e+000
      vertex  7.071068e+000  2.500000e+000  7.071068e+000
    endloop
  endfacet
  facet normal  3.966397e-001  7.002143e-001  5.936134e-001
    outer loop
      vertex  3.635492e+000  3.000000e+000  8.776855e+000
      vertex  7.071068e+000  2.500000e+000  7.071068e+000
      vertex  6.717514e+000  3.000000e+000  6.717515e+000
    endloop
  endfacet
  facet normal  5.936132e-001  7.002145e-001  3.966397e-001
    outer loop
      vertex  6.717514e+000  3.000000e+000  6.717515e+000
      vertex  7.071068e+000  2.500000e+000  7.071068e+000
      vertex  9.238795e+000  2.500000e+000  3.826834e+000
    endloop
  endfacet
  facet normal  5.936133e-001  7.002143e-001  3.966398e-001
    outer loop
      vertex  6.717514e+000  3.000000e+000  6.717515e+000
      vertex  9.238795e+000  2.500000e+000  3.826834e+000
      vertex  8.776855e+000  3.000000e+000  3.635493e+000
    endloop
  endfacet
  facet normal  7.002146e-001  7.002144e-001  1.392813e-001
    outer loop
      vertex  8.776855e+000  3.000000e+000  3.635493e+000
      vertex  9.238795e+000  2.500000e+000  3.826834e+000
      vertex  1.000000e+001  2.500000e+000  1.224606e-015
    endloop
  endfacet
  facet normal  7.002146e-001  7.002144e-001  1.392814e-001
    outer loop
      vertex  8.776855e+000  3.000000e+000  3.635493e+000
      vertex  1.000000e+001  2.500000e+000  1.224606e-015
      vertex  9.500000e+000  3.000000e+000  7.623742e-007
    endloop
  endfacet
  facet normal  1.392813e-001  7.002145e-001 -7.002144e-001
    outer loop
      vertex  1.836910e-015  2.500000e+000 -1.000000e+001
      vertex  3.635493e+000  3.000000e+000 -8.776855e+000
      vertex  3.826834e+000  2.500000e+000 -9.238795e+000
    endloop
  endfacet
  facet normal  3.966397e-001  7.002145e-001 -5.936131e-001
    outer loop
      vertex  3.826834e+000  2.500000e+000 -9.238795e+000
      vertex  3.635493e+000  3.000000e+000 -8.776855e+000
      vertex  6.717515e+000  3.000000e+000 -6.717514e+000
    endloop
  endfacet
  facet normal  3.966395e-001  7.002147e-001 -5.936130e-001
    outer loop
      vertex  3.826834e+000  2.500000e+000 -9.238795e+000
      vertex  6.717515e+000  3.000000e+000 -6.717514e+000
      vertex  7.071068e+000  2.500000e+000 -7.071068e+000
    endloop
  endfacet
  facet normal  5.936131e-001  7.002146e-001 -3.966396e-001
    outer loop
      vertex  7.071068e+000  2.500000e+000 -7.071068e+000
      vertex  6.717515e+000  3.000000e+000 -6.717514e+000
      vertex  8.776855e+000  3.000000e+000 -3.635492e+000
    endloop
  endfacet
  facet normal  5.936130e-001  7.002147e-001 -3.966396e-001
    outer loop
      vertex  7.071068e+000  2.500000e+000 -7.071068e+000
      vertex  8.776855e+000  3.000000e+000 -3.635492e+000
      vertex  9.238795e+000  2.500000e+000 -3.826834e+000
    endloop
  endfacet
  facet normal  7.002144e-001  7.002146e-001 -1.392813e-001
    outer loop
      vertex  9.238795e+000  2.500000e+000 -3.826834e+000
      vertex  8.776855e+000  3.000000e+000 -3.635492e+000
      vertex  9.500000e+000  3.000000e+000  7.623742e-007
    endloop
  endfacet
  facet normal  7.002144e-001  7.002146e-001 -1.392813e-001
    outer loop
      vertex  9.238795e+000  2.500000e+000 -3.826834e+000
      vertex  9.500000e+000  3.000000e+000  7.623742e-007
      vertex  1.000000e+001  2.500000e+000  1.224606e-015
    endloop
  endfacet
  facet normal  1.392813e-001  7.002144e-001 -7.002145e-001
    outer loop
      vertex  3.635493e+000  3.000000e+000 -8.776855e+000
      vertex  1.836910e-015  2.500000e+000 -1.000000e+001
      vertex  1.469210e-007  3.000000e+000 -9.500000e+000
    endloop
  endfacet
  facet normal -1.392813e-001  7.002145e-001 -7.002144e-001
    outer loop
      vertex  1.469210e-007  3.000000e+000 -9.500000e+000
      vertex  1.836910e-015  2.500000e+000 -1.000000e+001
      vertex -3.826834e+000  2.500000e+000 -9.238795e+000
    endloop
  endfacet
  facet normal -1.392813e-001  7.002146e-001 -7.002145e-001
    outer loop
      vertex  1.469210e-007  3.000000e+000 -9.500000e+000
      vertex -3.826834e+000  2.500000e+000 -9.238795e+000
      vertex -3.635493e+000  3.000000e+000 -8.776855e+000
    endloop
  endfacet
  facet normal -3.966396e-001  7.002146e-001 -5.936131e-001
    outer loop
      vertex -3.635493e+000  3.000000e+000 -8.776855e+000
      vertex -3.826834e+000  2.500000e+000 -9.238795e+000
      vertex -7.071068e+000  2.500000e+000 -7.071068e+000
    endloop
  endfacet
  facet normal -3.966397e-001  7.002144e-001 -5.936133e-001
    outer loop
      vertex -3.635493e+000  3.000000e+000 -8.776855e+000
      vertex -7.071068e+000  2.500000e+000 -7.071068e+000
      vertex -6.717515e+000  3.000000e+000 -6.717515e+000
    endloop
  endfacet
  facet normal -5.936133e-001  7.002144e-001 -3.966397e-001
    outer loop
      vertex -6.717515e+000  3.000000e+000 -6.717515e+000
      vertex -7.071068e+000  2.500000e+000 -7.071068e+000
      vertex -9.238795e+000  2.500000e+000 -3.826834e+000
    endloop
  endfacet
  facet normal -5.936131e-001  7.002146e-001 -3.966396e-001
    outer loop
      vertex -6.717515e+000  3.000000e+000 -6.717515e+000
      vertex -9.238795e+000  2.500000e+000 -3.826834e+000
      vertex -8.776855e+000  3.000000e+000 -3.635493e+000
    endloop
  endfacet
  facet normal -7.002144e-001  7.002146e-001 -1.392813e-001
    outer loop
      vertex -8.776855e+000  3.000000e+000 -3.635493e+000
      vertex -9.238795e+000  2.500000e+000 -3.826834e+000
      vertex -1.000000e+001  2.500000e+000 -2.449213e-015
    endloop
  endfacet
  facet normal -7.002145e-001  7.002145e-001 -1.392813e-001
    outer loop
      vertex -8.776855e+000  3.000000e+000 -3.635493e+000
      vertex -1.000000e+001  2.500000e+000 -2.449213e-015
      vertex -9.500000e+000  3.000000e+000 -1.165263e-014
    endloop
  endfacet
  facet normal -7.002146e-001 -7.002146e-001  1.392813e-001
    outer loop
      vertex -1.000000e+001  5.000000e-001 -2.449213e-015
      vertex -9.500000e+000  0.000000e+000 -1.165263e-014
      vertex -9.238795e+000  5.000000e-001  3.826834e+000
    endloop
  endfacet
  facet normal -7.002144e-001 -7.002146e-001  1.392813e-001
    outer loop
      vertex -9.238795e+000  5.000000e-001  3.826834e+000
      vertex -9.500000e+000  0.000000e+000 -1.165263e-014
      vertex -8.776855e+000  0.000000e+000  3.635493e+000
    endloop
  endfacet
  facet normal -5.936131e-001 -7.002146e-001  3.966396e-001
    outer loop
      vertex -9.238795e+000  5.000000e-001  3.826834e+000
      vertex -8.776855e+000  0.000000e+000  3.635493e+000
      vertex -7.071068e+000  5.000000e-001  7.071068e+000
    endloop
  endfacet
  facet normal -5.936133e-001 -7.002144e-001  3.966397e-001
    outer loop
      vertex -7.071068e+000  5.000000e-001  7.071068e+000
      vertex -8.776855e+000  0.000000e+000  3.635493e+000
      vertex -6.717515e+000  0.000000e+000  6.717515e+000
    endloop
  endfacet
  facet normal -3.966397e-001 -7.002144e-001  5.936133e-001
    outer loop
      vertex -7.071068e+000  5.000000e-001  7.071068e+000
      vertex -6.717515e+000  0.000000e+000  6.717515e+000
      vertex -3.826834e+000  5.000000e-001  9.238795e+000
    endloop
  endfacet
  facet normal -3.966396e-001 -7.002145e-001  5.936132e-001
    outer loop
      vertex -3.826834e+000  5.000000e-001  9.238795e+000
      vertex -6.717515e+000  0.000000e+000  6.717515e+000
      vertex -3.635493e+000  0.000000e+000  8.776855e+000
    endloop
  endfacet
  facet normal -1.392813e-001 -7.002145e-001  7.002144e-001
    outer loop
      vertex -3.826834e+000  5.000000e-001  9.238795e+000
      vertex -3.635493e+000  0.000000e+000  8.776855e+000
      vertex -6.123032e-016  5.000000e-001  1.000000e+001
    endloop
  endfacet
  facet normal -1.392814e-001 -7.002144e-001  7.002146e-001
    outer loop
      vertex -6.123032e-016  5.000000e-001  1.000000e+001
      vertex -3.635493e+000  0.000000e+000  8.776855e+000
      vertex -3.811871e-007  0.000000e+000  9.500000e+000
    endloop
  endfacet
  facet normal  1.392813e-001 -7.002146e-001  7.002144e-001
    outer loop
      vertex -6.123032e-016  5.000000e-001  1.000000e+001
      vertex -3.811871e-007  0.000000e+000  9.500000e+000
      vertex  3.826834e+000  5.000000e-001  9.238795e+000
    endloop
  endfacet
  facet normal  1.392813e-001 -7.002147e-001  7.002144e-001
    outer loop
      vertex  3.826834e+000  5.000000e-001  9.238795e+000
      vertex -3.811871e-007  0.000000e+000  9.500000e+000
      vertex  3.635492e+000  0.000000e+000  8.776855e+000
    endloop
  endfacet
  facet normal  3.966395e-001 -7.002148e-001  5.936130e-001
    outer loop
      vertex  3.826834e+000  5.000000e-001  9.238795e+000
      vertex  3.635492e+000  0.000000e+000  8.776855e+000
      vertex  7.071068e+000  5.000000e-001  7.071068e+000
    endloop
  endfacet
  facet normal  3.966397e-001 -7.002143e-001  5.936134e-001
    outer loop
      vertex  7.071068e+000  5.000000e-001  7.071068e+000
      vertex  3.635492e+000  0.000000e+000  8.776855e+000
      vertex  6.717514e+000  0.000000e+000  6.717515e+000
    endloop
  endfacet
  facet normal  5.936132e-001 -7.002145e-001  3.966397e-001
    outer loop
      vertex  7.071068e+000  5.000000e-001  7.071068e+000
      vertex  6.717514e+000  0.000000e+000  6.717515e+000
      vertex  9.238795e+000  5.000000e-001  3.826834e+000
    endloop
  endfacet
  facet normal  5.936133e-001 -7.002143e-001  3.966398e-001
    outer loop
      vertex  9.238795e+000  5.000000e-001  3.826834e+000
      vertex  6.717514e+000  0.000000e+000  6.717515e+000
      vertex  8.776855e+000  0.000000e+000  3.635493e+000
    endloop
  endfacet
  facet normal  7.002146e-001 -7.002144e-001  1.392813e-001
    outer loop
      vertex  9.238795e+000  5.000000e-001  3.826834e+000
      vertex  8.776855e+000  0.000000e+000  3.635493e+000
      vertex  1.000000e+001  5.000000e-001  1.224606e-015
    endloop
  endfacet
  facet normal  7.002146e-001 -7.002144e-001  1.392814e-001
    outer loop
      vertex  1.000000e+001  5.000000e-001  1.224606e-015
      vertex  8.776855e+000  0.000000e+000  3.635493e+000
      vertex  9.500000e+000  0.000000e+000  7.623742e-007
    endloop
  endfacet
  facet normal  7.002144e-001 -7.002146e-001 -1.392813e-001
    outer loop
      vertex  1.000000e+001  5.000000e-001  1.224606e-015
      vertex  9.500000e+000  0.000000e+000  7.623742e-007
      vertex  9.238795e+000  5.000000e-001 -3.826834e+000
    endloop
  endfacet
  facet normal  7.002144e-001 -7.002146e-001 -1.392813e-001
    outer loop
      vertex  9.238795e+000  5.000000e-001 -3.826834e+000
      vertex  9.500000e+000  0.000000e+000  7.623742e-007
      vertex  8.776855e+000  0.000000e+000 -3.635492e+000
    endloop
  endfacet
  facet normal  5.936130e-001 -7.002147e-001 -3.966396e-001
    outer loop
      vertex  9.238795e+000  5.000000e-001 -3.826834e+000
      vertex  8.776855e+000  0.000000e+000 -3.635492e+000
      vertex  7.071068e+000  5.000000e-001 -7.071068e+000
    endloop
  endfacet
  facet normal  5.936131e-001 -7.002146e-001 -3.966396e-001
    outer loop
      vertex  7.071068e+000  5.000000e-001 -7.071068e+000
      vertex  8.776855e+000  0.000000e+000 -3.635492e+000
      vertex  6.717515e+000  0.000000e+000 -6.717514e+000
    endloop
  endfacet
  facet normal  3.966395e-001 -7.002147e-001 -5.936130e-001
    outer loop
      vertex  7.071068e+000  5.000000e-001 -7.071068e+000
      vertex  6.717515e+000  0.000000e+000 -6.717514e+000
      vertex  3.826834e+000  5.000000e-001 -9.238795e+000
    endloop
  endfacet
  facet normal  3.966397e-001 -7.002145e-001 -5.936131e-001
    outer loop
      vertex  3.826834e+000  5.000000e-001 -9.238795e+000
      vertex  6.717515e+000  0.000000e+000 -6.717514e+000
      vertex  3.635493e+000  0.000000e+000 -8.776855e+000
    endloop
  endfacet
  facet normal  1.392813e-001 -7.002145e-001 -7.002144e-001
    outer loop
      vertex  3.826834e+000  5.000000e-001 -9.238795e+000
      vertex  3.635493e+000  0.000000e+000 -8.776855e+000
      vertex  1.836910e-015  5.000000e-001 -1.000000e+001
    endloop
  endfacet
  facet normal  1.392813e-001 -7.002144e-001 -7.002145e-001
    outer loop
      vertex  1.836910e-015  5.000000e-001 -1.000000e+001
      vertex  3.635493e+000  0.000000e+000 -8.776855e+000
      vertex  1.469210e-007  0.000000e+000 -9.500000e+000
    endloop
  endfacet
  facet normal -1.392813e-001 -7.002145e-001 -7.002144e-001
    outer loop
      vertex  1.836910e-015  5.000000e-001 -1.000000e+001
      vertex  1.469210e-007  0.000000e+000 -9.500000e+000
      vertex -3.826834e+000  5.000000e-001 -9.238795e+000
    endloop
  endfacet
  facet normal -1.392813e-001 -7.002146e-001 -7.002145e-001
    outer loop
      vertex -3.826834e+000  5.000000e-001 -9.238795e+000
      vertex  1.469210e-007  0.000000e+000 -9.500000e+000
      vertex -3.635493e+000  0.000000e+000 -8.776855e+000
    endloop
  endfacet
  facet normal -3.966396e-001 -7.002146e-001 -5.936131e-001
    outer loop
      vertex -3.826834e+000  5.000000e-001 -9.238795e+000
      vertex -3.635493e+000  0.000000e+000 -8.776855e+000
      vertex -7.071068e+000  5.000000e-001 -7.071068e+000
    endloop
  endfacet
  facet normal -3.966397e-001 -7.002144e-001 -5.936133e-001
    outer loop
      vertex -7.071068e+000  5.000000e-001 -7.071068e+000
      vertex -3.635493e+000  0.000000e+000 -8.776855e+000
      vertex -6.717515e+000  0.000000e+000 -6.717515e+000
    endloop
  endfacet
  facet normal -5.936133e-001 -7.002144e-001 -3.966397e-001
    outer loop
      vertex -7.071068e+000  5.000000e-001 -7.071068e+000
      vertex -6.717515e+000  0.000000e+000 -6.717515e+000
      vertex -9.238795e+000  5.000000e-001 -3.826834e+000
    endloop
  endfacet
  facet normal -5.936131e-001 -7.002146e-001 -3.966396e-001
    outer loop
      vertex -9.238795e+000  5.000000e-001 -3.826834e+000
      vertex -6.717515e+000  0.000000e+000 -6.717515e+000
      vertex -8.776855e+000  0.000000e+000 -3.635493e+000
    endloop
  endfacet
  facet normal -7.002144e-001 -7.002146e-001 -1.392813e-001
    outer loop
      vertex -9.238795e+000  5.000000e-001 -3.826834e+000
      vertex -8.776855e+000  0.000000e+000 -3.635493e+000
      vertex -1.000000e+001  5.000000e-001 -2.449213e-015
    endloop
  endfacet
  facet normal -7.002145e-001 -7.002145e-001 -1.392813e-001
    outer loop
      vertex -1.000000e+001  5.000000e-001 -2.449213e-015
      vertex -8.776855e+000  0.000000e+000 -3.635493e+000
      vertex -9.500000e+000  0.000000e+000 -1.165263e-014
    endloop
  endfacet
endsolid CATIA STL
