solid CATIA STL
  facet normal  8.715538e-002  -0.000000e+000  9.961947e-001
    outer loop
      vertex -1.541759e+001  3.000000e+000  2.017431e+001
      vertex -1.541759e+001 -3.000000e+000  2.017431e+001
      vertex -1.342520e+001  3.000000e+000  2.000000e+001
    endloop
  endfacet
  facet normal  8.715538e-002  0.000000e+000  9.961947e-001
    outer loop
      vertex -1.342520e+001  3.000000e+000  2.000000e+001
      vertex -1.541759e+001 -3.000000e+000  2.017431e+001
      vertex -1.342520e+001 -3.000000e+000  2.000000e+001
    endloop
  endfacet
  facet normal -9.961946e-001  1.309890e-007  8.715609e-002
    outer loop
      vertex -1.574345e+001 -5.912330e-001  1.644978e+001
      vertex -1.583132e+001 -1.842923e+000  1.544536e+001
      vertex -1.567906e+001 -6.000000e+000  1.718573e+001
    endloop
  endfacet
  facet normal -9.961947e-001  7.559277e-008  8.715568e-002
    outer loop
      vertex -1.574345e+001 -5.912330e-001  1.644978e+001
      vertex -1.567906e+001 -6.000000e+000  1.718573e+001
      vertex -1.554833e+001 -5.598076e+000  1.868002e+001
    endloop
  endfacet
  facet normal -9.961947e-001  2.118878e-007  8.715599e-002
    outer loop
      vertex -1.574345e+001 -5.912330e-001  1.644978e+001
      vertex -1.554833e+001 -5.598076e+000  1.868002e+001
      vertex -1.545262e+001 -4.500000e+000  1.977392e+001
    endloop
  endfacet
  facet normal -9.961947e-001  1.980376e-007  8.715597e-002
    outer loop
      vertex -1.574345e+001 -5.912330e-001  1.644978e+001
      vertex -1.545262e+001 -4.500000e+000  1.977392e+001
      vertex -1.541759e+001 -3.000000e+000  2.017431e+001
    endloop
  endfacet
  facet normal -9.961947e-001  0.000000e+000  8.715584e-002
    outer loop
      vertex -1.574345e+001 -5.912330e-001  1.644978e+001
      vertex -1.541759e+001 -3.000000e+000  2.017431e+001
      vertex -1.541759e+001  3.000000e+000  2.017431e+001
    endloop
  endfacet
  facet normal -9.961948e-001  0.000000e+000  8.715577e-002
    outer loop
      vertex -1.661193e+001 -6.000000e+000  6.522934e+000
      vertex -1.607969e+001 -1.006794e+000  1.260649e+001
      vertex -1.661193e+001  6.000000e+000  6.522934e+000
    endloop
  endfacet
  facet normal -9.961947e-001  6.115558e-007  8.715646e-002
    outer loop
      vertex -1.661193e+001  6.000000e+000  6.522934e+000
      vertex -1.607969e+001 -1.006794e+000  1.260649e+001
      vertex -1.609469e+001  5.912330e-001  1.243501e+001
    endloop
  endfacet
  facet normal -9.961947e-001 -2.363210e-007  8.715569e-002
    outer loop
      vertex -1.661193e+001  6.000000e+000  6.522934e+000
      vertex -1.609469e+001  5.912330e-001  1.243501e+001
      vertex -1.600682e+001  1.842923e+000  1.343943e+001
    endloop
  endfacet
  facet normal -9.961948e-001 -3.772555e-008  8.715548e-002
    outer loop
      vertex -1.575845e+001  1.006794e+000  1.627831e+001
      vertex -1.574345e+001 -5.912330e-001  1.644978e+001
      vertex -1.567906e+001  6.000000e+000  1.718573e+001
    endloop
  endfacet
  facet normal -9.961947e-001 -8.973790e-008  8.715594e-002
    outer loop
      vertex -1.567906e+001  6.000000e+000  1.718573e+001
      vertex -1.574345e+001 -5.912330e-001  1.644978e+001
      vertex -1.541759e+001  3.000000e+000  2.017431e+001
    endloop
  endfacet
  facet normal -9.961947e-001 -4.325953e-007  8.715560e-002
    outer loop
      vertex -1.567906e+001  6.000000e+000  1.718573e+001
      vertex -1.541759e+001  3.000000e+000  2.017431e+001
      vertex -1.554833e+001  5.598076e+000  1.868002e+001
    endloop
  endfacet
  facet normal -9.961946e-001 -1.870296e-007  8.715601e-002
    outer loop
      vertex -1.554833e+001  5.598076e+000  1.868002e+001
      vertex -1.541759e+001  3.000000e+000  2.017431e+001
      vertex -1.545262e+001  4.500000e+000  1.977392e+001
    endloop
  endfacet
  facet normal -9.961947e-001 -1.146364e-007  8.715576e-002
    outer loop
      vertex -1.661193e+001  6.000000e+000  6.522934e+000
      vertex -1.600682e+001  1.842923e+000  1.343943e+001
      vertex -1.567906e+001  6.000000e+000  1.718573e+001
    endloop
  endfacet
  facet normal -9.961946e-001 -2.750687e-007  8.715593e-002
    outer loop
      vertex -1.567906e+001  6.000000e+000  1.718573e+001
      vertex -1.600682e+001  1.842923e+000  1.343943e+001
      vertex -1.586754e+001  2.015054e+000  1.503138e+001
    endloop
  endfacet
  facet normal -9.961948e-001 -4.637200e-008  8.715551e-002
    outer loop
      vertex -1.567906e+001  6.000000e+000  1.718573e+001
      vertex -1.586754e+001  2.015054e+000  1.503138e+001
      vertex -1.575845e+001  1.006794e+000  1.627831e+001
    endloop
  endfacet
  facet normal -9.961947e-001 -9.734854e-009  8.715576e-002
    outer loop
      vertex -1.567906e+001 -6.000000e+000  1.718573e+001
      vertex -1.583132e+001 -1.842923e+000  1.544536e+001
      vertex -1.661193e+001 -6.000000e+000  6.522934e+000
    endloop
  endfacet
  facet normal -9.961947e-001  1.302935e-006  8.715514e-002
    outer loop
      vertex -1.661193e+001 -6.000000e+000  6.522934e+000
      vertex -1.583132e+001 -1.842923e+000  1.544536e+001
      vertex -1.597060e+001 -2.015054e+000  1.385341e+001
    endloop
  endfacet
  facet normal -9.961946e-001 -3.413665e-007  8.715604e-002
    outer loop
      vertex -1.661193e+001 -6.000000e+000  6.522934e+000
      vertex -1.597060e+001 -2.015054e+000  1.385341e+001
      vertex -1.607969e+001 -1.006794e+000  1.260649e+001
    endloop
  endfacet
  facet normal  9.961947e-001 -3.039857e-007 -8.715548e-002
    outer loop
      vertex -1.374681e+001  3.880230e-001  1.632407e+001
      vertex -1.346023e+001  4.500000e+000  1.959961e+001
      vertex -1.342520e+001  3.000000e+000  2.000000e+001
    endloop
  endfacet
  facet normal  9.961947e-001  4.319671e-008 -8.715577e-002
    outer loop
      vertex -1.368667e+001 -6.000000e+000  1.701142e+001
      vertex -1.461954e+001 -6.000000e+000  6.348623e+000
      vertex -1.383893e+001 -1.842923e+000  1.527105e+001
    endloop
  endfacet
  facet normal  9.961947e-001 -1.253703e-007 -8.715617e-002
    outer loop
      vertex -1.368667e+001 -6.000000e+000  1.701142e+001
      vertex -1.383893e+001 -1.842923e+000  1.527105e+001
      vertex -1.376128e+001 -8.991779e-001  1.615862e+001
    endloop
  endfacet
  facet normal  9.961947e-001 -6.514055e-008 -8.715581e-002
    outer loop
      vertex -1.368667e+001 -6.000000e+000  1.701142e+001
      vertex -1.376128e+001 -8.991779e-001  1.615862e+001
      vertex -1.346023e+001 -4.500000e+000  1.959961e+001
    endloop
  endfacet
  facet normal  9.961947e-001 -8.295487e-007 -8.715536e-002
    outer loop
      vertex -1.368667e+001 -6.000000e+000  1.701142e+001
      vertex -1.346023e+001 -4.500000e+000  1.959961e+001
      vertex -1.355594e+001 -5.598076e+000  1.850571e+001
    endloop
  endfacet
  facet normal  9.961948e-001  4.493139e-007 -8.715556e-002
    outer loop
      vertex -1.461954e+001  6.000000e+000  6.348623e+000
      vertex -1.390326e+001  2.082735e+000  1.453579e+001
      vertex -1.401443e+001  1.842923e+000  1.326512e+001
    endloop
  endfacet
  facet normal  9.961946e-001 -2.313802e-007 -8.715596e-002
    outer loop
      vertex -1.461954e+001  6.000000e+000  6.348623e+000
      vertex -1.401443e+001  1.842923e+000  1.326512e+001
      vertex -1.409208e+001  8.991779e-001  1.237755e+001
    endloop
  endfacet
  facet normal  9.961947e-001  2.749144e-007 -8.715554e-002
    outer loop
      vertex -1.461954e+001  6.000000e+000  6.348623e+000
      vertex -1.409208e+001  8.991779e-001  1.237755e+001
      vertex -1.410656e+001 -3.880230e-001  1.221210e+001
    endloop
  endfacet
  facet normal  9.961947e-001  0.000000e+000 -8.715583e-002
    outer loop
      vertex -1.461954e+001  6.000000e+000  6.348623e+000
      vertex -1.410656e+001 -3.880230e-001  1.221210e+001
      vertex -1.461954e+001 -6.000000e+000  6.348623e+000
    endloop
  endfacet
  facet normal  9.961947e-001  8.295487e-007 -8.715536e-002
    outer loop
      vertex -1.368667e+001  6.000000e+000  1.701142e+001
      vertex -1.355594e+001  5.598076e+000  1.850571e+001
      vertex -1.346023e+001  4.500000e+000  1.959961e+001
    endloop
  endfacet
  facet normal  9.961946e-001 -6.831999e-009 -8.715585e-002
    outer loop
      vertex -1.368667e+001  6.000000e+000  1.701142e+001
      vertex -1.346023e+001  4.500000e+000  1.959961e+001
      vertex -1.374681e+001  3.880230e-001  1.632407e+001
    endloop
  endfacet
  facet normal  9.961947e-001 -9.811292e-008 -8.715511e-002
    outer loop
      vertex -1.368667e+001  6.000000e+000  1.701142e+001
      vertex -1.374681e+001  3.880230e-001  1.632407e+001
      vertex -1.380104e+001  1.527012e+000  1.570421e+001
    endloop
  endfacet
  facet normal  9.961947e-001  1.656472e-007 -8.715601e-002
    outer loop
      vertex -1.368667e+001  6.000000e+000  1.701142e+001
      vertex -1.380104e+001  1.527012e+000  1.570421e+001
      vertex -1.390326e+001  2.082735e+000  1.453579e+001
    endloop
  endfacet
  facet normal  9.961947e-001  8.193785e-009 -8.715577e-002
    outer loop
      vertex -1.368667e+001  6.000000e+000  1.701142e+001
      vertex -1.390326e+001  2.082735e+000  1.453579e+001
      vertex -1.461954e+001  6.000000e+000  6.348623e+000
    endloop
  endfacet
  facet normal  9.961948e-001 -3.252331e-007 -8.715554e-002
    outer loop
      vertex -1.461954e+001 -6.000000e+000  6.348623e+000
      vertex -1.410656e+001 -3.880230e-001  1.221210e+001
      vertex -1.405233e+001 -1.527012e+000  1.283196e+001
    endloop
  endfacet
  facet normal  9.961947e-001  2.303346e-007 -8.715590e-002
    outer loop
      vertex -1.461954e+001 -6.000000e+000  6.348623e+000
      vertex -1.405233e+001 -1.527012e+000  1.283196e+001
      vertex -1.395010e+001 -2.082735e+000  1.400038e+001
    endloop
  endfacet
  facet normal  9.961948e-001 -1.006078e-006 -8.715528e-002
    outer loop
      vertex -1.461954e+001 -6.000000e+000  6.348623e+000
      vertex -1.395010e+001 -2.082735e+000  1.400038e+001
      vertex -1.383893e+001 -1.842923e+000  1.527105e+001
    endloop
  endfacet
  facet normal  9.961947e-001  2.925206e-007 -8.715544e-002
    outer loop
      vertex -1.346023e+001 -4.500000e+000  1.959961e+001
      vertex -1.376128e+001 -8.991779e-001  1.615862e+001
      vertex -1.342520e+001 -3.000000e+000  2.000000e+001
    endloop
  endfacet
  facet normal  9.961947e-001  2.640847e-007 -8.715545e-002
    outer loop
      vertex -1.342520e+001 -3.000000e+000  2.000000e+001
      vertex -1.376128e+001 -8.991779e-001  1.615862e+001
      vertex -1.374681e+001  3.880230e-001  1.632407e+001
    endloop
  endfacet
  facet normal  9.961947e-001  0.000000e+000 -8.715570e-002
    outer loop
      vertex -1.342520e+001 -3.000000e+000  2.000000e+001
      vertex -1.374681e+001  3.880230e-001  1.632407e+001
      vertex -1.342520e+001  3.000000e+000  2.000000e+001
    endloop
  endfacet
  facet normal  0.000000e+000  1.000000e+000  0.000000e+000
    outer loop
      vertex -1.661193e+001  6.000000e+000  6.522934e+000
      vertex -1.567906e+001  6.000000e+000  1.718573e+001
      vertex -1.461954e+001  6.000000e+000  6.348623e+000
    endloop
  endfacet
  facet normal  0.000000e+000  1.000000e+000  -0.000000e+000
    outer loop
      vertex -1.461954e+001  6.000000e+000  6.348623e+000
      vertex -1.567906e+001  6.000000e+000  1.718573e+001
      vertex -1.368667e+001  6.000000e+000  1.701142e+001
    endloop
  endfacet
  facet normal  8.418563e-002  2.588191e-001  9.622503e-001
    outer loop
      vertex -1.541759e+001  3.000000e+000  2.017431e+001
      vertex -1.342520e+001  3.000000e+000  2.000000e+001
      vertex -1.545262e+001  4.500000e+000  1.977392e+001
    endloop
  endfacet
  facet normal  8.418559e-002  2.588191e-001  9.622502e-001
    outer loop
      vertex -1.545262e+001  4.500000e+000  1.977392e+001
      vertex -1.342520e+001  3.000000e+000  2.000000e+001
      vertex -1.346023e+001  4.500000e+000  1.959961e+001
    endloop
  endfacet
  facet normal  6.162816e-002  7.071065e-001  7.044163e-001
    outer loop
      vertex -1.545262e+001  4.500000e+000  1.977392e+001
      vertex -1.346023e+001  4.500000e+000  1.959961e+001
      vertex -1.554833e+001  5.598076e+000  1.868002e+001
    endloop
  endfacet
  facet normal  6.162816e-002  7.071065e-001  7.044163e-001
    outer loop
      vertex -1.554833e+001  5.598076e+000  1.868002e+001
      vertex -1.346023e+001  4.500000e+000  1.959961e+001
      vertex -1.355594e+001  5.598076e+000  1.850571e+001
    endloop
  endfacet
  facet normal  2.255747e-002  9.659259e-001  2.578342e-001
    outer loop
      vertex -1.554833e+001  5.598076e+000  1.868002e+001
      vertex -1.355594e+001  5.598076e+000  1.850571e+001
      vertex -1.567906e+001  6.000000e+000  1.718573e+001
    endloop
  endfacet
  facet normal  2.255768e-002  9.659259e-001  2.578339e-001
    outer loop
      vertex -1.567906e+001  6.000000e+000  1.718573e+001
      vertex -1.355594e+001  5.598076e+000  1.850571e+001
      vertex -1.368667e+001  6.000000e+000  1.701142e+001
    endloop
  endfacet
  facet normal  0.000000e+000 -1.000000e+000  0.000000e+000
    outer loop
      vertex -1.661193e+001 -6.000000e+000  6.522934e+000
      vertex -1.461954e+001 -6.000000e+000  6.348623e+000
      vertex -1.567906e+001 -6.000000e+000  1.718573e+001
    endloop
  endfacet
  facet normal  0.000000e+000 -1.000000e+000  0.000000e+000
    outer loop
      vertex -1.567906e+001 -6.000000e+000  1.718573e+001
      vertex -1.461954e+001 -6.000000e+000  6.348623e+000
      vertex -1.368667e+001 -6.000000e+000  1.701142e+001
    endloop
  endfacet
  facet normal  2.255771e-002 -9.659258e-001  2.578342e-001
    outer loop
      vertex -1.567906e+001 -6.000000e+000  1.718573e+001
      vertex -1.368667e+001 -6.000000e+000  1.701142e+001
      vertex -1.554833e+001 -5.598076e+000  1.868002e+001
    endloop
  endfacet
  facet normal  2.255744e-002 -9.659259e-001  2.578339e-001
    outer loop
      vertex -1.554833e+001 -5.598076e+000  1.868002e+001
      vertex -1.368667e+001 -6.000000e+000  1.701142e+001
      vertex -1.355594e+001 -5.598076e+000  1.850571e+001
    endloop
  endfacet
  facet normal  6.162816e-002 -7.071065e-001  7.044163e-001
    outer loop
      vertex -1.554833e+001 -5.598076e+000  1.868002e+001
      vertex -1.355594e+001 -5.598076e+000  1.850571e+001
      vertex -1.545262e+001 -4.500000e+000  1.977392e+001
    endloop
  endfacet
  facet normal  6.162816e-002 -7.071065e-001  7.044163e-001
    outer loop
      vertex -1.545262e+001 -4.500000e+000  1.977392e+001
      vertex -1.355594e+001 -5.598076e+000  1.850571e+001
      vertex -1.346023e+001 -4.500000e+000  1.959961e+001
    endloop
  endfacet
  facet normal  8.418559e-002 -2.588191e-001  9.622502e-001
    outer loop
      vertex -1.545262e+001 -4.500000e+000  1.977392e+001
      vertex -1.346023e+001 -4.500000e+000  1.959961e+001
      vertex -1.541759e+001 -3.000000e+000  2.017431e+001
    endloop
  endfacet
  facet normal  8.418563e-002 -2.588191e-001  9.622503e-001
    outer loop
      vertex -1.541759e+001 -3.000000e+000  2.017431e+001
      vertex -1.346023e+001 -4.500000e+000  1.959961e+001
      vertex -1.342520e+001 -3.000000e+000  2.000000e+001
    endloop
  endfacet
  facet normal  1.306878e-001  7.764878e-001  6.164313e-001
    outer loop
      vertex -1.405233e+001 -1.527012e+000  1.283196e+001
      vertex -1.607969e+001 -1.006794e+000  1.260649e+001
      vertex -1.597060e+001 -2.015054e+000  1.385341e+001
    endloop
  endfacet
  facet normal  2.525784e-002  4.787940e-001  8.775639e-001
    outer loop
      vertex -1.410656e+001 -3.880230e-001  1.221210e+001
      vertex -1.607969e+001 -1.006794e+000  1.260649e+001
      vertex -1.405233e+001 -1.527012e+000  1.283196e+001
    endloop
  endfacet
  facet normal  1.625751e-001  1.067812e-001  9.809011e-001
    outer loop
      vertex -1.609469e+001  5.912330e-001  1.243501e+001
      vertex -1.607969e+001 -1.006794e+000  1.260649e+001
      vertex -1.410656e+001 -3.880230e-001  1.221210e+001
    endloop
  endfacet
  facet normal -9.981112e-004  9.030257e-001  4.295852e-001
    outer loop
      vertex -1.405233e+001 -1.527012e+000  1.283196e+001
      vertex -1.597060e+001 -2.015054e+000  1.385341e+001
      vertex -1.395010e+001 -2.082735e+000  1.400038e+001
    endloop
  endfacet
  facet normal  4.133372e-002  9.929625e-001 -1.109814e-001
    outer loop
      vertex -1.395010e+001 -2.082735e+000  1.400038e+001
      vertex -1.597060e+001 -2.015054e+000  1.385341e+001
      vertex -1.583132e+001 -1.842923e+000  1.544536e+001
    endloop
  endfacet
  facet normal -1.610394e-002  9.827813e-001 -1.840698e-001
    outer loop
      vertex -1.395010e+001 -2.082735e+000  1.400038e+001
      vertex -1.583132e+001 -1.842923e+000  1.544536e+001
      vertex -1.383893e+001 -1.842923e+000  1.527105e+001
    endloop
  endfacet
  facet normal  4.808660e-002 -1.278726e-001  9.906242e-001
    outer loop
      vertex -1.410656e+001 -3.880230e-001  1.221210e+001
      vertex -1.409208e+001  8.991779e-001  1.237755e+001
      vertex -1.609469e+001  5.912330e-001  1.243501e+001
    endloop
  endfacet
  facet normal  1.259377e-001 -6.851195e-001  7.174616e-001
    outer loop
      vertex -1.609469e+001  5.912330e-001  1.243501e+001
      vertex -1.409208e+001  8.991779e-001  1.237755e+001
      vertex -1.401443e+001  1.842923e+000  1.326512e+001
    endloop
  endfacet
  facet normal  6.787412e-002 -6.273124e-001  7.758042e-001
    outer loop
      vertex -1.609469e+001  5.912330e-001  1.243501e+001
      vertex -1.401443e+001  1.842923e+000  1.326512e+001
      vertex -1.600682e+001  1.842923e+000  1.343943e+001
    endloop
  endfacet
  facet normal  2.166014e-002 -7.764877e-001 -6.297600e-001
    outer loop
      vertex -1.380104e+001  1.527012e+000  1.570421e+001
      vertex -1.575845e+001  1.006794e+000  1.627831e+001
      vertex -1.586754e+001  2.015054e+000  1.503138e+001
    endloop
  endfacet
  facet normal -1.275134e-001 -4.787940e-001 -8.686177e-001
    outer loop
      vertex -1.374681e+001  3.880230e-001  1.632407e+001
      vertex -1.575845e+001  1.006794e+000  1.627831e+001
      vertex -1.380104e+001  1.527012e+000  1.570421e+001
    endloop
  endfacet
  facet normal -1.022679e-002 -1.067819e-001 -9.942299e-001
    outer loop
      vertex -1.574345e+001 -5.912330e-001  1.644978e+001
      vertex -1.575845e+001  1.006794e+000  1.627831e+001
      vertex -1.374681e+001  3.880230e-001  1.632407e+001
    endloop
  endfacet
  facet normal -7.557958e-002 -9.030256e-001 -4.228858e-001
    outer loop
      vertex -1.380104e+001  1.527012e+000  1.570421e+001
      vertex -1.586754e+001  2.015054e+000  1.503138e+001
      vertex -1.390326e+001  2.082735e+000  1.453579e+001
    endloop
  endfacet
  facet normal  5.997745e-002 -9.929625e-001  1.021178e-001
    outer loop
      vertex -1.390326e+001  2.082735e+000  1.453579e+001
      vertex -1.586754e+001  2.015054e+000  1.503138e+001
      vertex -1.600682e+001  1.842923e+000  1.343943e+001
    endloop
  endfacet
  facet normal  1.610403e-002 -9.827813e-001  1.840698e-001
    outer loop
      vertex -1.390326e+001  2.082735e+000  1.453579e+001
      vertex -1.600682e+001  1.842923e+000  1.343943e+001
      vertex -1.401443e+001  1.842923e+000  1.326512e+001
    endloop
  endfacet
  facet normal -1.246646e-001  1.278726e-001 -9.839244e-001
    outer loop
      vertex -1.374681e+001  3.880230e-001  1.632407e+001
      vertex -1.376128e+001 -8.991779e-001  1.615862e+001
      vertex -1.574345e+001 -5.912330e-001  1.644978e+001
    endloop
  endfacet
  facet normal -5.621247e-004  6.851190e-001 -7.284309e-001
    outer loop
      vertex -1.574345e+001 -5.912330e-001  1.644978e+001
      vertex -1.376128e+001 -8.991779e-001  1.615862e+001
      vertex -1.383893e+001 -1.842923e+000  1.527105e+001
    endloop
  endfacet
  facet normal -6.787373e-002  6.273128e-001 -7.758040e-001
    outer loop
      vertex -1.574345e+001 -5.912330e-001  1.644978e+001
      vertex -1.383893e+001 -1.842923e+000  1.527105e+001
      vertex -1.583132e+001 -1.842923e+000  1.544536e+001
    endloop
  endfacet
  facet normal -2.057772e-001  0.000000e+000 -9.785988e-001
    outer loop
      vertex -1.063477e+001  6.000000e+000  0.000000e+000
      vertex -1.063477e+001 -6.000000e+000  0.000000e+000
      vertex -1.305125e+001  6.000000e+000  5.081311e-001
    endloop
  endfacet
  facet normal -2.057772e-001  -0.000000e+000 -9.785988e-001
    outer loop
      vertex -1.305125e+001  6.000000e+000  5.081311e-001
      vertex -1.063477e+001 -6.000000e+000  0.000000e+000
      vertex -1.305125e+001 -6.000000e+000  5.081311e-001
    endloop
  endfacet
  facet normal -5.824776e-001  0.000000e+000 -8.128468e-001
    outer loop
      vertex -1.305125e+001  6.000000e+000  5.081311e-001
      vertex -1.305125e+001 -6.000000e+000  5.081311e-001
      vertex -1.505843e+001  6.000000e+000  1.946459e+000
    endloop
  endfacet
  facet normal -5.824776e-001  -0.000000e+000 -8.128468e-001
    outer loop
      vertex -1.505843e+001  6.000000e+000  1.946459e+000
      vertex -1.305125e+001 -6.000000e+000  5.081311e-001
      vertex -1.505843e+001 -6.000000e+000  1.946459e+000
    endloop
  endfacet
  facet normal -8.605196e-001  0.000000e+000 -5.094172e-001
    outer loop
      vertex -1.505843e+001  6.000000e+000  1.946459e+000
      vertex -1.505843e+001 -6.000000e+000  1.946459e+000
      vertex -1.631635e+001  6.000000e+000  4.071363e+000
    endloop
  endfacet
  facet normal -8.605196e-001  -0.000000e+000 -5.094172e-001
    outer loop
      vertex -1.631635e+001  6.000000e+000  4.071363e+000
      vertex -1.505843e+001 -6.000000e+000  1.946459e+000
      vertex -1.631635e+001 -6.000000e+000  4.071363e+000
    endloop
  endfacet
  facet normal -9.928097e-001  0.000000e+000 -1.197037e-001
    outer loop
      vertex -1.631635e+001  6.000000e+000  4.071363e+000
      vertex -1.631635e+001 -6.000000e+000  4.071363e+000
      vertex -1.661193e+001  6.000000e+000  6.522934e+000
    endloop
  endfacet
  facet normal -9.928097e-001  -0.000000e+000 -1.197037e-001
    outer loop
      vertex -1.661193e+001  6.000000e+000  6.522934e+000
      vertex -1.631635e+001 -6.000000e+000  4.071363e+000
      vertex -1.661193e+001 -6.000000e+000  6.522934e+000
    endloop
  endfacet
  facet normal  0.000000e+000  0.000000e+000  1.000000e+000
    outer loop
      vertex  1.000000e+001  1.100000e+001  2.000000e+000
      vertex  9.330127e+000  8.500000e+000  2.000000e+000
      vertex  1.516321e+001  8.732924e+000  2.000000e+000
    endloop
  endfacet
  facet normal  0.000000e+000  -0.000000e+000  1.000000e+000
    outer loop
      vertex  1.000000e+001  1.100000e+001  2.000000e+000
      vertex  1.516321e+001  8.732924e+000  2.000000e+000
      vertex  1.516321e+001  1.126708e+001  2.000000e+000
    endloop
  endfacet
  facet normal  0.000000e+000  -0.000000e+000  1.000000e+000
    outer loop
      vertex  1.000000e+001  1.100000e+001  2.000000e+000
      vertex  1.516321e+001  1.126708e+001  2.000000e+000
      vertex  1.640567e+001  1.347574e+001  2.000000e+000
    endloop
  endfacet
  facet normal  0.000000e+000  -0.000000e+000  1.000000e+000
    outer loop
      vertex  1.000000e+001  1.100000e+001  2.000000e+000
      vertex  1.640567e+001  1.347574e+001  2.000000e+000
      vertex  1.857143e+001  1.479157e+001  2.000000e+000
    endloop
  endfacet
  facet normal  0.000000e+000  0.000000e+000  1.000000e+000
    outer loop
      vertex  1.000000e+001  1.100000e+001  2.000000e+000
      vertex  1.857143e+001  1.479157e+001  2.000000e+000
      vertex  1.000000e+001  1.500000e+001  2.000000e+000
    endloop
  endfacet
  facet normal  0.000000e+000  -0.000000e+000  1.000000e+000
    outer loop
      vertex -1.063477e+001 -6.000000e+000  2.000000e+000
      vertex  5.000000e+000 -6.000000e+000  2.000000e+000
      vertex  1.857143e+001 -5.208426e+000  2.000000e+000
    endloop
  endfacet
  facet normal  0.000000e+000  -0.000000e+000  1.000000e+000
    outer loop
      vertex -1.063477e+001 -6.000000e+000  2.000000e+000
      vertex  1.857143e+001 -5.208426e+000  2.000000e+000
      vertex  1.960357e+001 -4.487025e+000  2.000000e+000
    endloop
  endfacet
  facet normal  0.000000e+000  -0.000000e+000  1.000000e+000
    outer loop
      vertex -1.063477e+001 -6.000000e+000  2.000000e+000
      vertex  1.960357e+001 -4.487025e+000  2.000000e+000
      vertex  2.000000e+001 -3.291796e+000  2.000000e+000
    endloop
  endfacet
  facet normal  0.000000e+000  -0.000000e+000  9.999999e-001
    outer loop
      vertex -1.063477e+001 -6.000000e+000  2.000000e+000
      vertex  2.000000e+001 -3.291796e+000  2.000000e+000
      vertex  2.000000e+001  3.291796e+000  2.000000e+000
    endloop
  endfacet
  facet normal  0.000000e+000  0.000000e+000  1.000000e+000
    outer loop
      vertex -1.063477e+001 -6.000000e+000  2.000000e+000
      vertex  2.000000e+001  3.291796e+000  2.000000e+000
      vertex  1.960357e+001  4.487025e+000  2.000000e+000
    endloop
  endfacet
  facet normal  0.000000e+000  0.000000e+000  1.000000e+000
    outer loop
      vertex -1.063477e+001 -6.000000e+000  2.000000e+000
      vertex  1.960357e+001  4.487025e+000  2.000000e+000
      vertex  1.857143e+001  5.208426e+000  2.000000e+000
    endloop
  endfacet
  facet normal  0.000000e+000  0.000000e+000  1.000000e+000
    outer loop
      vertex  1.000000e+001 -1.500000e+001  2.000000e+000
      vertex  1.857143e+001 -1.479157e+001  2.000000e+000
      vertex  1.640567e+001 -1.347574e+001  2.000000e+000
    endloop
  endfacet
  facet normal  0.000000e+000  0.000000e+000  1.000000e+000
    outer loop
      vertex  1.000000e+001 -1.500000e+001  2.000000e+000
      vertex  1.640567e+001 -1.347574e+001  2.000000e+000
      vertex  1.516321e+001 -1.126708e+001  2.000000e+000
    endloop
  endfacet
  facet normal  0.000000e+000  0.000000e+000  1.000000e+000
    outer loop
      vertex  1.000000e+001 -1.500000e+001  2.000000e+000
      vertex  1.516321e+001 -1.126708e+001  2.000000e+000
      vertex  1.000000e+001 -1.100000e+001  2.000000e+000
    endloop
  endfacet
  facet normal  -0.000000e+000  0.000000e+000  1.000000e+000
    outer loop
      vertex  1.800000e+001  2.000000e+001  2.000000e+000
      vertex  1.500000e+001  2.000000e+001  2.000000e+000
      vertex  1.941421e+001  1.941421e+001  2.000000e+000
    endloop
  endfacet
  facet normal  0.000000e+000  0.000000e+000  1.000000e+000
    outer loop
      vertex  1.941421e+001  1.941421e+001  2.000000e+000
      vertex  1.500000e+001  2.000000e+001  2.000000e+000
      vertex  1.250000e+001  1.933013e+001  2.000000e+000
    endloop
  endfacet
  facet normal  -0.000000e+000  0.000000e+000  1.000000e+000
    outer loop
      vertex  1.941421e+001  1.941421e+001  2.000000e+000
      vertex  1.250000e+001  1.933013e+001  2.000000e+000
      vertex  2.000000e+001  1.800000e+001  2.000000e+000
    endloop
  endfacet
  facet normal  0.000000e+000  0.000000e+000  1.000000e+000
    outer loop
      vertex  2.000000e+001  1.800000e+001  2.000000e+000
      vertex  1.250000e+001  1.933013e+001  2.000000e+000
      vertex  1.066987e+001  1.750000e+001  2.000000e+000
    endloop
  endfacet
  facet normal  -0.000000e+000  0.000000e+000  1.000000e+000
    outer loop
      vertex  2.000000e+001  1.800000e+001  2.000000e+000
      vertex  1.066987e+001  1.750000e+001  2.000000e+000
      vertex  2.000000e+001  1.670820e+001  2.000000e+000
    endloop
  endfacet
  facet normal  0.000000e+000  0.000000e+000  9.999999e-001
    outer loop
      vertex  2.000000e+001  1.670820e+001  2.000000e+000
      vertex  1.066987e+001  1.750000e+001  2.000000e+000
      vertex  1.000000e+001  1.500000e+001  2.000000e+000
    endloop
  endfacet
  facet normal  0.000000e+000  0.000000e+000  1.000000e+000
    outer loop
      vertex  2.000000e+001  1.670820e+001  2.000000e+000
      vertex  1.000000e+001  1.500000e+001  2.000000e+000
      vertex  1.960357e+001  1.551298e+001  2.000000e+000
    endloop
  endfacet
  facet normal  0.000000e+000  0.000000e+000  1.000000e+000
    outer loop
      vertex  1.960357e+001  1.551298e+001  2.000000e+000
      vertex  1.000000e+001  1.500000e+001  2.000000e+000
      vertex  1.857143e+001  1.479157e+001  2.000000e+000
    endloop
  endfacet
  facet normal  -0.000000e+000  0.000000e+000  1.000000e+000
    outer loop
      vertex  1.516321e+001  8.732924e+000  2.000000e+000
      vertex  9.330127e+000  8.500000e+000  2.000000e+000
      vertex  1.640567e+001  6.524256e+000  2.000000e+000
    endloop
  endfacet
  facet normal  0.000000e+000  0.000000e+000  1.000000e+000
    outer loop
      vertex  1.640567e+001  6.524256e+000  2.000000e+000
      vertex  9.330127e+000  8.500000e+000  2.000000e+000
      vertex  7.500000e+000  6.669873e+000  2.000000e+000
    endloop
  endfacet
  facet normal  0.000000e+000  0.000000e+000  1.000000e+000
    outer loop
      vertex  1.640567e+001  6.524256e+000  2.000000e+000
      vertex  7.500000e+000  6.669873e+000  2.000000e+000
      vertex  1.857143e+001  5.208426e+000  2.000000e+000
    endloop
  endfacet
  facet normal  0.000000e+000  0.000000e+000  1.000000e+000
    outer loop
      vertex  1.857143e+001  5.208426e+000  2.000000e+000
      vertex  7.500000e+000  6.669873e+000  2.000000e+000
      vertex  5.000000e+000  6.000000e+000  2.000000e+000
    endloop
  endfacet
  facet normal  0.000000e+000  0.000000e+000  9.999999e-001
    outer loop
      vertex  1.857143e+001  5.208426e+000  2.000000e+000
      vertex  5.000000e+000  6.000000e+000  2.000000e+000
      vertex -1.063477e+001 -6.000000e+000  2.000000e+000
    endloop
  endfacet
  facet normal  0.000000e+000  0.000000e+000  1.000000e+000
    outer loop
      vertex -1.063477e+001 -6.000000e+000  2.000000e+000
      vertex  5.000000e+000  6.000000e+000  2.000000e+000
      vertex -1.063477e+001  6.000000e+000  2.000000e+000
    endloop
  endfacet
  facet normal  -0.000000e+000  0.000000e+000  1.000000e+000
    outer loop
      vertex  1.857143e+001 -5.208426e+000  2.000000e+000
      vertex  5.000000e+000 -6.000000e+000  2.000000e+000
      vertex  1.640567e+001 -6.524256e+000  2.000000e+000
    endloop
  endfacet
  facet normal  0.000000e+000  0.000000e+000  1.000000e+000
    outer loop
      vertex  1.640567e+001 -6.524256e+000  2.000000e+000
      vertex  5.000000e+000 -6.000000e+000  2.000000e+000
      vertex  7.500000e+000 -6.669873e+000  2.000000e+000
    endloop
  endfacet
  facet normal  -0.000000e+000  0.000000e+000  1.000000e+000
    outer loop
      vertex  1.640567e+001 -6.524256e+000  2.000000e+000
      vertex  7.500000e+000 -6.669873e+000  2.000000e+000
      vertex  1.516321e+001 -8.732924e+000  2.000000e+000
    endloop
  endfacet
  facet normal  0.000000e+000  0.000000e+000  1.000000e+000
    outer loop
      vertex  1.516321e+001 -8.732924e+000  2.000000e+000
      vertex  7.500000e+000 -6.669873e+000  2.000000e+000
      vertex  9.330127e+000 -8.500000e+000  2.000000e+000
    endloop
  endfacet
  facet normal  0.000000e+000  0.000000e+000  9.999999e-001
    outer loop
      vertex  1.516321e+001 -8.732924e+000  2.000000e+000
      vertex  9.330127e+000 -8.500000e+000  2.000000e+000
      vertex  1.516321e+001 -1.126708e+001  2.000000e+000
    endloop
  endfacet
  facet normal  0.000000e+000  0.000000e+000  1.000000e+000
    outer loop
      vertex  1.516321e+001 -1.126708e+001  2.000000e+000
      vertex  9.330127e+000 -8.500000e+000  2.000000e+000
      vertex  1.000000e+001 -1.100000e+001  2.000000e+000
    endloop
  endfacet
  facet normal  -0.000000e+000  0.000000e+000  1.000000e+000
    outer loop
      vertex  1.857143e+001 -1.479157e+001  2.000000e+000
      vertex  1.000000e+001 -1.500000e+001  2.000000e+000
      vertex  1.960357e+001 -1.551298e+001  2.000000e+000
    endloop
  endfacet
  facet normal  0.000000e+000  0.000000e+000  1.000000e+000
    outer loop
      vertex  1.960357e+001 -1.551298e+001  2.000000e+000
      vertex  1.000000e+001 -1.500000e+001  2.000000e+000
      vertex  1.066987e+001 -1.750000e+001  2.000000e+000
    endloop
  endfacet
  facet normal  0.000000e+000  0.000000e+000  1.000000e+000
    outer loop
      vertex  1.960357e+001 -1.551298e+001  2.000000e+000
      vertex  1.066987e+001 -1.750000e+001  2.000000e+000
      vertex  2.000000e+001 -1.670820e+001  2.000000e+000
    endloop
  endfacet
  facet normal  0.000000e+000  0.000000e+000  1.000000e+000
    outer loop
      vertex  2.000000e+001 -1.670820e+001  2.000000e+000
      vertex  1.066987e+001 -1.750000e+001  2.000000e+000
      vertex  2.000000e+001 -1.800000e+001  2.000000e+000
    endloop
  endfacet
  facet normal  0.000000e+000  0.000000e+000  1.000000e+000
    outer loop
      vertex  2.000000e+001 -1.800000e+001  2.000000e+000
      vertex  1.066987e+001 -1.750000e+001  2.000000e+000
      vertex  1.941421e+001 -1.941421e+001  2.000000e+000
    endloop
  endfacet
  facet normal  0.000000e+000  0.000000e+000  9.999999e-001
    outer loop
      vertex  1.941421e+001 -1.941421e+001  2.000000e+000
      vertex  1.066987e+001 -1.750000e+001  2.000000e+000
      vertex  1.250000e+001 -1.933013e+001  2.000000e+000
    endloop
  endfacet
  facet normal  0.000000e+000  0.000000e+000  1.000000e+000
    outer loop
      vertex  1.941421e+001 -1.941421e+001  2.000000e+000
      vertex  1.250000e+001 -1.933013e+001  2.000000e+000
      vertex  1.800000e+001 -2.000000e+001  2.000000e+000
    endloop
  endfacet
  facet normal  0.000000e+000  0.000000e+000  1.000000e+000
    outer loop
      vertex  1.800000e+001 -2.000000e+001  2.000000e+000
      vertex  1.250000e+001 -1.933013e+001  2.000000e+000
      vertex  1.500000e+001 -2.000000e+001  2.000000e+000
    endloop
  endfacet
  facet normal  0.000000e+000 -1.000000e+000  0.000000e+000
    outer loop
      vertex -1.063477e+001 -6.000000e+000  0.000000e+000
      vertex  5.000000e+000 -6.000000e+000  0.000000e+000
      vertex -1.063477e+001 -6.000000e+000  2.000000e+000
    endloop
  endfacet
  facet normal  0.000000e+000 -1.000000e+000  0.000000e+000
    outer loop
      vertex -1.063477e+001 -6.000000e+000  2.000000e+000
      vertex  5.000000e+000 -6.000000e+000  0.000000e+000
      vertex  5.000000e+000 -6.000000e+000  2.000000e+000
    endloop
  endfacet
  facet normal  0.000000e+000 -1.000000e+000  -0.000000e+000
    outer loop
      vertex -1.063477e+001 -6.000000e+000  2.000000e+000
      vertex -1.273467e+001 -6.000000e+000  2.595533e+000
      vertex -1.505843e+001 -6.000000e+000  1.946459e+000
    endloop
  endfacet
  facet normal  0.000000e+000 -1.000000e+000  0.000000e+000
    outer loop
      vertex -1.505843e+001 -6.000000e+000  1.946459e+000
      vertex -1.273467e+001 -6.000000e+000  2.595533e+000
      vertex -1.420930e+001 -6.000000e+000  4.204803e+000
    endloop
  endfacet
  facet normal  0.000000e+000 -1.000000e+000  0.000000e+000
    outer loop
      vertex -1.505843e+001 -6.000000e+000  1.946459e+000
      vertex -1.420930e+001 -6.000000e+000  4.204803e+000
      vertex -1.631635e+001 -6.000000e+000  4.071363e+000
    endloop
  endfacet
  facet normal  0.000000e+000 -1.000000e+000  0.000000e+000
    outer loop
      vertex -1.631635e+001 -6.000000e+000  4.071363e+000
      vertex -1.420930e+001 -6.000000e+000  4.204803e+000
      vertex -1.461954e+001 -6.000000e+000  6.348623e+000
    endloop
  endfacet
  facet normal  -0.000000e+000 -1.000000e+000  0.000000e+000
    outer loop
      vertex -1.631635e+001 -6.000000e+000  4.071363e+000
      vertex -1.461954e+001 -6.000000e+000  6.348623e+000
      vertex -1.661193e+001 -6.000000e+000  6.522934e+000
    endloop
  endfacet
  facet normal  0.000000e+000 -1.000000e+000  -0.000000e+000
    outer loop
      vertex -1.063477e+001 -6.000000e+000  0.000000e+000
      vertex -1.063477e+001 -6.000000e+000  2.000000e+000
      vertex -1.305125e+001 -6.000000e+000  5.081311e-001
    endloop
  endfacet
  facet normal  0.000000e+000 -1.000000e+000  0.000000e+000
    outer loop
      vertex -1.305125e+001 -6.000000e+000  5.081311e-001
      vertex -1.063477e+001 -6.000000e+000  2.000000e+000
      vertex -1.505843e+001 -6.000000e+000  1.946459e+000
    endloop
  endfacet
  facet normal  2.728400e-001  -0.000000e+000  9.620595e-001
    outer loop
      vertex -1.273467e+001  6.000000e+000  2.595533e+000
      vertex -1.063477e+001 -6.000000e+000  2.000000e+000
      vertex -1.063477e+001  6.000000e+000  2.000000e+000
    endloop
  endfacet
  facet normal  2.728400e-001  0.000000e+000  9.620595e-001
    outer loop
      vertex -1.063477e+001 -6.000000e+000  2.000000e+000
      vertex -1.273467e+001  6.000000e+000  2.595533e+000
      vertex -1.273467e+001 -6.000000e+000  2.595533e+000
    endloop
  endfacet
  facet normal  7.372774e-001  -0.000000e+000  6.755900e-001
    outer loop
      vertex -1.273467e+001 -6.000000e+000  2.595533e+000
      vertex -1.273467e+001  6.000000e+000  2.595533e+000
      vertex -1.420930e+001  6.000000e+000  4.204803e+000
    endloop
  endfacet
  facet normal  7.372774e-001  0.000000e+000  6.755900e-001
    outer loop
      vertex -1.273467e+001 -6.000000e+000  2.595533e+000
      vertex -1.420930e+001  6.000000e+000  4.204803e+000
      vertex -1.420930e+001 -6.000000e+000  4.204803e+000
    endloop
  endfacet
  facet normal  9.821780e-001  -0.000000e+000  1.879530e-001
    outer loop
      vertex -1.420930e+001 -6.000000e+000  4.204803e+000
      vertex -1.420930e+001  6.000000e+000  4.204803e+000
      vertex -1.461954e+001  6.000000e+000  6.348623e+000
    endloop
  endfacet
  facet normal  9.821780e-001  0.000000e+000  1.879530e-001
    outer loop
      vertex -1.420930e+001 -6.000000e+000  4.204803e+000
      vertex -1.461954e+001  6.000000e+000  6.348623e+000
      vertex -1.461954e+001 -6.000000e+000  6.348623e+000
    endloop
  endfacet
  facet normal  0.000000e+000  1.000000e+000  0.000000e+000
    outer loop
      vertex -1.661193e+001  6.000000e+000  6.522934e+000
      vertex -1.461954e+001  6.000000e+000  6.348623e+000
      vertex -1.631635e+001  6.000000e+000  4.071363e+000
    endloop
  endfacet
  facet normal  0.000000e+000  1.000000e+000  0.000000e+000
    outer loop
      vertex -1.631635e+001  6.000000e+000  4.071363e+000
      vertex -1.461954e+001  6.000000e+000  6.348623e+000
      vertex -1.420930e+001  6.000000e+000  4.204803e+000
    endloop
  endfacet
  facet normal  0.000000e+000  1.000000e+000  0.000000e+000
    outer loop
      vertex -1.631635e+001  6.000000e+000  4.071363e+000
      vertex -1.420930e+001  6.000000e+000  4.204803e+000
      vertex -1.505843e+001  6.000000e+000  1.946459e+000
    endloop
  endfacet
  facet normal  0.000000e+000  1.000000e+000  0.000000e+000
    outer loop
      vertex -1.505843e+001  6.000000e+000  1.946459e+000
      vertex -1.420930e+001  6.000000e+000  4.204803e+000
      vertex -1.273467e+001  6.000000e+000  2.595533e+000
    endloop
  endfacet
  facet normal  0.000000e+000  1.000000e+000  0.000000e+000
    outer loop
      vertex -1.505843e+001  6.000000e+000  1.946459e+000
      vertex -1.273467e+001  6.000000e+000  2.595533e+000
      vertex -1.063477e+001  6.000000e+000  2.000000e+000
    endloop
  endfacet
  facet normal  -0.000000e+000  1.000000e+000  0.000000e+000
    outer loop
      vertex -1.063477e+001  6.000000e+000  0.000000e+000
      vertex -1.305125e+001  6.000000e+000  5.081311e-001
      vertex -1.063477e+001  6.000000e+000  2.000000e+000
    endloop
  endfacet
  facet normal  0.000000e+000  1.000000e+000  0.000000e+000
    outer loop
      vertex -1.063477e+001  6.000000e+000  2.000000e+000
      vertex -1.305125e+001  6.000000e+000  5.081311e-001
      vertex -1.505843e+001  6.000000e+000  1.946459e+000
    endloop
  endfacet
  facet normal  0.000000e+000  1.000000e+000  0.000000e+000
    outer loop
      vertex  5.000000e+000  6.000000e+000  0.000000e+000
      vertex -1.063477e+001  6.000000e+000  0.000000e+000
      vertex  5.000000e+000  6.000000e+000  2.000000e+000
    endloop
  endfacet
  facet normal  0.000000e+000  1.000000e+000  0.000000e+000
    outer loop
      vertex  5.000000e+000  6.000000e+000  2.000000e+000
      vertex -1.063477e+001  6.000000e+000  0.000000e+000
      vertex -1.063477e+001  6.000000e+000  2.000000e+000
    endloop
  endfacet
  facet normal  0.000000e+000  0.000000e+000 -1.000000e+000
    outer loop
      vertex  1.000000e+001  1.100000e+001  0.000000e+000
      vertex  1.000000e+001  1.500000e+001  0.000000e+000
      vertex  1.857143e+001  1.479157e+001  0.000000e+000
    endloop
  endfacet
  facet normal  0.000000e+000  0.000000e+000 -1.000000e+000
    outer loop
      vertex  1.000000e+001  1.100000e+001  0.000000e+000
      vertex  1.857143e+001  1.479157e+001  0.000000e+000
      vertex  1.640567e+001  1.347574e+001  0.000000e+000
    endloop
  endfacet
  facet normal  0.000000e+000  0.000000e+000 -1.000000e+000
    outer loop
      vertex  1.000000e+001  1.100000e+001  0.000000e+000
      vertex  1.640567e+001  1.347574e+001  0.000000e+000
      vertex  1.516321e+001  1.126708e+001  0.000000e+000
    endloop
  endfacet
  facet normal  0.000000e+000  -0.000000e+000 -1.000000e+000
    outer loop
      vertex  1.000000e+001  1.100000e+001  0.000000e+000
      vertex  1.516321e+001  1.126708e+001  0.000000e+000
      vertex  1.516321e+001  8.732924e+000  0.000000e+000
    endloop
  endfacet
  facet normal  -0.000000e+000  0.000000e+000 -1.000000e+000
    outer loop
      vertex  1.000000e+001  1.100000e+001  0.000000e+000
      vertex  1.516321e+001  8.732924e+000  0.000000e+000
      vertex  9.330127e+000  8.500000e+000  0.000000e+000
    endloop
  endfacet
  facet normal  0.000000e+000  -0.000000e+000 -1.000000e+000
    outer loop
      vertex -1.063477e+001 -6.000000e+000  0.000000e+000
      vertex  1.857143e+001  5.208426e+000  0.000000e+000
      vertex  1.960357e+001  4.487025e+000  0.000000e+000
    endloop
  endfacet
  facet normal  0.000000e+000  -0.000000e+000 -1.000000e+000
    outer loop
      vertex -1.063477e+001 -6.000000e+000  0.000000e+000
      vertex  1.960357e+001  4.487025e+000  0.000000e+000
      vertex  2.000000e+001  3.291796e+000  0.000000e+000
    endloop
  endfacet
  facet normal  0.000000e+000  -0.000000e+000 -9.999999e-001
    outer loop
      vertex -1.063477e+001 -6.000000e+000  0.000000e+000
      vertex  2.000000e+001  3.291796e+000  0.000000e+000
      vertex  2.000000e+001 -3.291796e+000  0.000000e+000
    endloop
  endfacet
  facet normal  0.000000e+000  0.000000e+000 -1.000000e+000
    outer loop
      vertex -1.063477e+001 -6.000000e+000  0.000000e+000
      vertex  2.000000e+001 -3.291796e+000  0.000000e+000
      vertex  1.960357e+001 -4.487025e+000  0.000000e+000
    endloop
  endfacet
  facet normal  0.000000e+000  0.000000e+000 -1.000000e+000
    outer loop
      vertex -1.063477e+001 -6.000000e+000  0.000000e+000
      vertex  1.960357e+001 -4.487025e+000  0.000000e+000
      vertex  1.857143e+001 -5.208426e+000  0.000000e+000
    endloop
  endfacet
  facet normal  0.000000e+000  0.000000e+000 -1.000000e+000
    outer loop
      vertex -1.063477e+001 -6.000000e+000  0.000000e+000
      vertex  1.857143e+001 -5.208426e+000  0.000000e+000
      vertex  5.000000e+000 -6.000000e+000  0.000000e+000
    endloop
  endfacet
  facet normal  0.000000e+000  0.000000e+000 -1.000000e+000
    outer loop
      vertex  1.000000e+001 -1.500000e+001  0.000000e+000
      vertex  1.000000e+001 -1.100000e+001  0.000000e+000
      vertex  1.516321e+001 -1.126708e+001  0.000000e+000
    endloop
  endfacet
  facet normal  0.000000e+000  -0.000000e+000 -1.000000e+000
    outer loop
      vertex  1.000000e+001 -1.500000e+001  0.000000e+000
      vertex  1.516321e+001 -1.126708e+001  0.000000e+000
      vertex  1.640567e+001 -1.347574e+001  0.000000e+000
    endloop
  endfacet
  facet normal  0.000000e+000  -0.000000e+000 -1.000000e+000
    outer loop
      vertex  1.000000e+001 -1.500000e+001  0.000000e+000
      vertex  1.640567e+001 -1.347574e+001  0.000000e+000
      vertex  1.857143e+001 -1.479157e+001  0.000000e+000
    endloop
  endfacet
  facet normal  0.000000e+000  0.000000e+000 -1.000000e+000
    outer loop
      vertex  2.000000e+001  1.800000e+001  0.000000e+000
      vertex  1.250000e+001  1.933013e+001  0.000000e+000
      vertex  1.941421e+001  1.941421e+001  0.000000e+000
    endloop
  endfacet
  facet normal  -0.000000e+000  0.000000e+000 -1.000000e+000
    outer loop
      vertex  1.941421e+001  1.941421e+001  0.000000e+000
      vertex  1.250000e+001  1.933013e+001  0.000000e+000
      vertex  1.500000e+001  2.000000e+001  0.000000e+000
    endloop
  endfacet
  facet normal  0.000000e+000  0.000000e+000 -1.000000e+000
    outer loop
      vertex  1.941421e+001  1.941421e+001  0.000000e+000
      vertex  1.500000e+001  2.000000e+001  0.000000e+000
      vertex  1.800000e+001  2.000000e+001  0.000000e+000
    endloop
  endfacet
  facet normal  -0.000000e+000  0.000000e+000 -1.000000e+000
    outer loop
      vertex  1.250000e+001  1.933013e+001  0.000000e+000
      vertex  2.000000e+001  1.800000e+001  0.000000e+000
      vertex  1.066987e+001  1.750000e+001  0.000000e+000
    endloop
  endfacet
  facet normal  0.000000e+000  0.000000e+000 -1.000000e+000
    outer loop
      vertex  1.066987e+001  1.750000e+001  0.000000e+000
      vertex  2.000000e+001  1.800000e+001  0.000000e+000
      vertex  2.000000e+001  1.670820e+001  0.000000e+000
    endloop
  endfacet
  facet normal  -0.000000e+000  0.000000e+000 -9.999999e-001
    outer loop
      vertex  1.066987e+001  1.750000e+001  0.000000e+000
      vertex  2.000000e+001  1.670820e+001  0.000000e+000
      vertex  1.000000e+001  1.500000e+001  0.000000e+000
    endloop
  endfacet
  facet normal  0.000000e+000  0.000000e+000 -1.000000e+000
    outer loop
      vertex  1.000000e+001  1.500000e+001  0.000000e+000
      vertex  2.000000e+001  1.670820e+001  0.000000e+000
      vertex  1.960357e+001  1.551298e+001  0.000000e+000
    endloop
  endfacet
  facet normal  0.000000e+000  0.000000e+000 -1.000000e+000
    outer loop
      vertex  1.000000e+001  1.500000e+001  0.000000e+000
      vertex  1.960357e+001  1.551298e+001  0.000000e+000
      vertex  1.857143e+001  1.479157e+001  0.000000e+000
    endloop
  endfacet
  facet normal  0.000000e+000  0.000000e+000 -1.000000e+000
    outer loop
      vertex  1.640567e+001  6.524256e+000  0.000000e+000
      vertex  9.330127e+000  8.500000e+000  0.000000e+000
      vertex  1.516321e+001  8.732924e+000  0.000000e+000
    endloop
  endfacet
  facet normal  0.000000e+000  0.000000e+000 -1.000000e+000
    outer loop
      vertex  9.330127e+000  8.500000e+000  0.000000e+000
      vertex  1.640567e+001  6.524256e+000  0.000000e+000
      vertex  7.500000e+000  6.669873e+000  0.000000e+000
    endloop
  endfacet
  facet normal  0.000000e+000  0.000000e+000 -1.000000e+000
    outer loop
      vertex  7.500000e+000  6.669873e+000  0.000000e+000
      vertex  1.640567e+001  6.524256e+000  0.000000e+000
      vertex  1.857143e+001  5.208426e+000  0.000000e+000
    endloop
  endfacet
  facet normal  0.000000e+000  0.000000e+000 -1.000000e+000
    outer loop
      vertex  7.500000e+000  6.669873e+000  0.000000e+000
      vertex  1.857143e+001  5.208426e+000  0.000000e+000
      vertex  5.000000e+000  6.000000e+000  0.000000e+000
    endloop
  endfacet
  facet normal  0.000000e+000  -0.000000e+000 -9.999999e-001
    outer loop
      vertex  5.000000e+000  6.000000e+000  0.000000e+000
      vertex  1.857143e+001  5.208426e+000  0.000000e+000
      vertex -1.063477e+001 -6.000000e+000  0.000000e+000
    endloop
  endfacet
  facet normal  0.000000e+000  0.000000e+000 -1.000000e+000
    outer loop
      vertex  5.000000e+000  6.000000e+000  0.000000e+000
      vertex -1.063477e+001 -6.000000e+000  0.000000e+000
      vertex -1.063477e+001  6.000000e+000  0.000000e+000
    endloop
  endfacet
  facet normal  0.000000e+000  0.000000e+000 -1.000000e+000
    outer loop
      vertex  1.640567e+001 -6.524256e+000  0.000000e+000
      vertex  5.000000e+000 -6.000000e+000  0.000000e+000
      vertex  1.857143e+001 -5.208426e+000  0.000000e+000
    endloop
  endfacet
  facet normal  -0.000000e+000  0.000000e+000 -1.000000e+000
    outer loop
      vertex  5.000000e+000 -6.000000e+000  0.000000e+000
      vertex  1.640567e+001 -6.524256e+000  0.000000e+000
      vertex  7.500000e+000 -6.669873e+000  0.000000e+000
    endloop
  endfacet
  facet normal  0.000000e+000  0.000000e+000 -1.000000e+000
    outer loop
      vertex  7.500000e+000 -6.669873e+000  0.000000e+000
      vertex  1.640567e+001 -6.524256e+000  0.000000e+000
      vertex  1.516321e+001 -8.732924e+000  0.000000e+000
    endloop
  endfacet
  facet normal  0.000000e+000  0.000000e+000 -1.000000e+000
    outer loop
      vertex  7.500000e+000 -6.669873e+000  0.000000e+000
      vertex  1.516321e+001 -8.732924e+000  0.000000e+000
      vertex  9.330127e+000 -8.500000e+000  0.000000e+000
    endloop
  endfacet
  facet normal  0.000000e+000  0.000000e+000 -9.999999e-001
    outer loop
      vertex  9.330127e+000 -8.500000e+000  0.000000e+000
      vertex  1.516321e+001 -8.732924e+000  0.000000e+000
      vertex  1.516321e+001 -1.126708e+001  0.000000e+000
    endloop
  endfacet
  facet normal  0.000000e+000  0.000000e+000 -1.000000e+000
    outer loop
      vertex  9.330127e+000 -8.500000e+000  0.000000e+000
      vertex  1.516321e+001 -1.126708e+001  0.000000e+000
      vertex  1.000000e+001 -1.100000e+001  0.000000e+000
    endloop
  endfacet
  facet normal  0.000000e+000  0.000000e+000 -1.000000e+000
    outer loop
      vertex  1.857143e+001 -1.479157e+001  0.000000e+000
      vertex  1.960357e+001 -1.551298e+001  0.000000e+000
      vertex  1.000000e+001 -1.500000e+001  0.000000e+000
    endloop
  endfacet
  facet normal  0.000000e+000  0.000000e+000 -1.000000e+000
    outer loop
      vertex  1.000000e+001 -1.500000e+001  0.000000e+000
      vertex  1.960357e+001 -1.551298e+001  0.000000e+000
      vertex  1.066987e+001 -1.750000e+001  0.000000e+000
    endloop
  endfacet
  facet normal  -0.000000e+000  0.000000e+000 -1.000000e+000
    outer loop
      vertex  1.960357e+001 -1.551298e+001  0.000000e+000
      vertex  2.000000e+001 -1.670820e+001  0.000000e+000
      vertex  1.066987e+001 -1.750000e+001  0.000000e+000
    endloop
  endfacet
  facet normal  0.000000e+000  0.000000e+000 -1.000000e+000
    outer loop
      vertex  1.066987e+001 -1.750000e+001  0.000000e+000
      vertex  2.000000e+001 -1.670820e+001  0.000000e+000
      vertex  2.000000e+001 -1.800000e+001  0.000000e+000
    endloop
  endfacet
  facet normal  0.000000e+000  0.000000e+000 -1.000000e+000
    outer loop
      vertex  2.000000e+001 -1.800000e+001  0.000000e+000
      vertex  1.941421e+001 -1.941421e+001  0.000000e+000
      vertex  1.066987e+001 -1.750000e+001  0.000000e+000
    endloop
  endfacet
  facet normal  0.000000e+000  0.000000e+000 -9.999999e-001
    outer loop
      vertex  1.066987e+001 -1.750000e+001  0.000000e+000
      vertex  1.941421e+001 -1.941421e+001  0.000000e+000
      vertex  1.250000e+001 -1.933013e+001  0.000000e+000
    endloop
  endfacet
  facet normal  0.000000e+000  0.000000e+000 -1.000000e+000
    outer loop
      vertex  1.941421e+001 -1.941421e+001  0.000000e+000
      vertex  1.800000e+001 -2.000000e+001  0.000000e+000
      vertex  1.250000e+001 -1.933013e+001  0.000000e+000
    endloop
  endfacet
  facet normal  0.000000e+000  0.000000e+000 -1.000000e+000
    outer loop
      vertex  1.250000e+001 -1.933013e+001  0.000000e+000
      vertex  1.800000e+001 -2.000000e+001  0.000000e+000
      vertex  1.500000e+001 -2.000000e+001  0.000000e+000
    endloop
  endfacet
  facet normal -9.659258e-001  2.588191e-001  0.000000e+000
    outer loop
      vertex  9.330127e+000  8.500000e+000  0.000000e+000
      vertex  1.000000e+001  1.100000e+001  2.000000e+000
      vertex  1.000000e+001  1.100000e+001  0.000000e+000
    endloop
  endfacet
  facet normal -9.659258e-001  2.588191e-001  0.000000e+000
    outer loop
      vertex  1.000000e+001  1.100000e+001  2.000000e+000
      vertex  9.330127e+000  8.500000e+000  0.000000e+000
      vertex  9.330127e+000  8.500000e+000  2.000000e+000
    endloop
  endfacet
  facet normal -7.071069e-001  7.071067e-001  0.000000e+000
    outer loop
      vertex  9.330127e+000  8.500000e+000  2.000000e+000
      vertex  9.330127e+000  8.500000e+000  0.000000e+000
      vertex  7.500000e+000  6.669873e+000  0.000000e+000
    endloop
  endfacet
  facet normal -7.071069e-001  7.071067e-001  0.000000e+000
    outer loop
      vertex  9.330127e+000  8.500000e+000  2.000000e+000
      vertex  7.500000e+000  6.669873e+000  0.000000e+000
      vertex  7.500000e+000  6.669873e+000  2.000000e+000
    endloop
  endfacet
  facet normal -2.588190e-001  9.659259e-001  0.000000e+000
    outer loop
      vertex  7.500000e+000  6.669873e+000  2.000000e+000
      vertex  7.500000e+000  6.669873e+000  0.000000e+000
      vertex  5.000000e+000  6.000000e+000  0.000000e+000
    endloop
  endfacet
  facet normal -2.588190e-001  9.659259e-001  0.000000e+000
    outer loop
      vertex  7.500000e+000  6.669873e+000  2.000000e+000
      vertex  5.000000e+000  6.000000e+000  0.000000e+000
      vertex  5.000000e+000  6.000000e+000  2.000000e+000
    endloop
  endfacet
  facet normal -1.000000e+000  0.000000e+000  0.000000e+000
    outer loop
      vertex  1.000000e+001  1.500000e+001  0.000000e+000
      vertex  1.000000e+001  1.100000e+001  0.000000e+000
      vertex  1.000000e+001  1.500000e+001  2.000000e+000
    endloop
  endfacet
  facet normal -1.000000e+000  -0.000000e+000  0.000000e+000
    outer loop
      vertex  1.000000e+001  1.500000e+001  2.000000e+000
      vertex  1.000000e+001  1.100000e+001  0.000000e+000
      vertex  1.000000e+001  1.100000e+001  2.000000e+000
    endloop
  endfacet
  facet normal -9.659258e-001  2.588191e-001  0.000000e+000
    outer loop
      vertex  1.000000e+001  1.500000e+001  0.000000e+000
      vertex  1.000000e+001  1.500000e+001  2.000000e+000
      vertex  1.066987e+001  1.750000e+001  0.000000e+000
    endloop
  endfacet
  facet normal -9.659258e-001  2.588191e-001  0.000000e+000
    outer loop
      vertex  1.066987e+001  1.750000e+001  0.000000e+000
      vertex  1.000000e+001  1.500000e+001  2.000000e+000
      vertex  1.066987e+001  1.750000e+001  2.000000e+000
    endloop
  endfacet
  facet normal -7.071069e-001  7.071066e-001  0.000000e+000
    outer loop
      vertex  1.066987e+001  1.750000e+001  0.000000e+000
      vertex  1.066987e+001  1.750000e+001  2.000000e+000
      vertex  1.250000e+001  1.933013e+001  0.000000e+000
    endloop
  endfacet
  facet normal -7.071069e-001  7.071066e-001  0.000000e+000
    outer loop
      vertex  1.250000e+001  1.933013e+001  0.000000e+000
      vertex  1.066987e+001  1.750000e+001  2.000000e+000
      vertex  1.250000e+001  1.933013e+001  2.000000e+000
    endloop
  endfacet
  facet normal -2.588188e-001  9.659259e-001  0.000000e+000
    outer loop
      vertex  1.250000e+001  1.933013e+001  0.000000e+000
      vertex  1.250000e+001  1.933013e+001  2.000000e+000
      vertex  1.500000e+001  2.000000e+001  0.000000e+000
    endloop
  endfacet
  facet normal -2.588188e-001  9.659259e-001  0.000000e+000
    outer loop
      vertex  1.500000e+001  2.000000e+001  0.000000e+000
      vertex  1.250000e+001  1.933013e+001  2.000000e+000
      vertex  1.500000e+001  2.000000e+001  2.000000e+000
    endloop
  endfacet
  facet normal  0.000000e+000  1.000000e+000  0.000000e+000
    outer loop
      vertex  1.800000e+001  2.000000e+001  0.000000e+000
      vertex  1.500000e+001  2.000000e+001  0.000000e+000
      vertex  1.800000e+001  2.000000e+001  2.000000e+000
    endloop
  endfacet
  facet normal  0.000000e+000  1.000000e+000  0.000000e+000
    outer loop
      vertex  1.800000e+001  2.000000e+001  2.000000e+000
      vertex  1.500000e+001  2.000000e+001  0.000000e+000
      vertex  1.500000e+001  2.000000e+001  2.000000e+000
    endloop
  endfacet
  facet normal  3.826837e-001  9.238794e-001  0.000000e+000
    outer loop
      vertex  1.800000e+001  2.000000e+001  0.000000e+000
      vertex  1.800000e+001  2.000000e+001  2.000000e+000
      vertex  1.941421e+001  1.941421e+001  0.000000e+000
    endloop
  endfacet
  facet normal  3.826837e-001  9.238794e-001  -0.000000e+000
    outer loop
      vertex  1.941421e+001  1.941421e+001  0.000000e+000
      vertex  1.800000e+001  2.000000e+001  2.000000e+000
      vertex  1.941421e+001  1.941421e+001  2.000000e+000
    endloop
  endfacet
  facet normal  9.238794e-001  3.826837e-001  0.000000e+000
    outer loop
      vertex  1.941421e+001  1.941421e+001  0.000000e+000
      vertex  1.941421e+001  1.941421e+001  2.000000e+000
      vertex  2.000000e+001  1.800000e+001  0.000000e+000
    endloop
  endfacet
  facet normal  9.238794e-001  3.826837e-001  -0.000000e+000
    outer loop
      vertex  2.000000e+001  1.800000e+001  0.000000e+000
      vertex  1.941421e+001  1.941421e+001  2.000000e+000
      vertex  2.000000e+001  1.800000e+001  2.000000e+000
    endloop
  endfacet
  facet normal  1.000000e+000  0.000000e+000  0.000000e+000
    outer loop
      vertex  2.000000e+001  1.670820e+001  0.000000e+000
      vertex  2.000000e+001  1.800000e+001  0.000000e+000
      vertex  2.000000e+001  1.670820e+001  2.000000e+000
    endloop
  endfacet
  facet normal  1.000000e+000  -0.000000e+000  0.000000e+000
    outer loop
      vertex  2.000000e+001  1.670820e+001  2.000000e+000
      vertex  2.000000e+001  1.800000e+001  0.000000e+000
      vertex  2.000000e+001  1.800000e+001  2.000000e+000
    endloop
  endfacet
  facet normal  9.491531e-001 -3.148147e-001  0.000000e+000
    outer loop
      vertex  2.000000e+001  1.670820e+001  0.000000e+000
      vertex  2.000000e+001  1.670820e+001  2.000000e+000
      vertex  1.960357e+001  1.551298e+001  0.000000e+000
    endloop
  endfacet
  facet normal  9.491531e-001 -3.148147e-001  0.000000e+000
    outer loop
      vertex  1.960357e+001  1.551298e+001  0.000000e+000
      vertex  2.000000e+001  1.670820e+001  2.000000e+000
      vertex  1.960357e+001  1.551298e+001  2.000000e+000
    endloop
  endfacet
  facet normal  5.728781e-001 -8.196406e-001  0.000000e+000
    outer loop
      vertex  1.960357e+001  1.551298e+001  0.000000e+000
      vertex  1.960357e+001  1.551298e+001  2.000000e+000
      vertex  1.857143e+001  1.479157e+001  0.000000e+000
    endloop
  endfacet
  facet normal  5.728781e-001 -8.196406e-001  0.000000e+000
    outer loop
      vertex  1.857143e+001  1.479157e+001  0.000000e+000
      vertex  1.960357e+001  1.551298e+001  2.000000e+000
      vertex  1.857143e+001  1.479157e+001  2.000000e+000
    endloop
  endfacet
  facet normal  8.715616e-001  4.902860e-001  0.000000e+000
    outer loop
      vertex  1.516321e+001  8.732924e+000  0.000000e+000
      vertex  1.640567e+001  6.524256e+000  2.000000e+000
      vertex  1.640567e+001  6.524256e+000  0.000000e+000
    endloop
  endfacet
  facet normal  5.192392e-001  8.546290e-001  -0.000000e+000
    outer loop
      vertex  1.640567e+001  6.524256e+000  0.000000e+000
      vertex  1.640567e+001  6.524256e+000  2.000000e+000
      vertex  1.857143e+001  5.208426e+000  2.000000e+000
    endloop
  endfacet
  facet normal  5.192392e-001  8.546290e-001  0.000000e+000
    outer loop
      vertex  1.640567e+001  6.524256e+000  0.000000e+000
      vertex  1.857143e+001  5.208426e+000  2.000000e+000
      vertex  1.857143e+001  5.208426e+000  0.000000e+000
    endloop
  endfacet
  facet normal  8.715616e-001  4.902860e-001  -0.000000e+000
    outer loop
      vertex  1.640567e+001  6.524256e+000  2.000000e+000
      vertex  1.516321e+001  8.732924e+000  0.000000e+000
      vertex  1.516321e+001  8.732924e+000  2.000000e+000
    endloop
  endfacet
  facet normal  9.999999e-001  0.000000e+000  0.000000e+000
    outer loop
      vertex  1.516321e+001  8.732924e+000  2.000000e+000
      vertex  1.516321e+001  8.732924e+000  0.000000e+000
      vertex  1.516321e+001  1.126708e+001  0.000000e+000
    endloop
  endfacet
  facet normal  9.999999e-001  0.000000e+000  -0.000000e+000
    outer loop
      vertex  1.516321e+001  8.732924e+000  2.000000e+000
      vertex  1.516321e+001  1.126708e+001  0.000000e+000
      vertex  1.516321e+001  1.126708e+001  2.000000e+000
    endloop
  endfacet
  facet normal  8.715616e-001 -4.902861e-001  0.000000e+000
    outer loop
      vertex  1.516321e+001  1.126708e+001  2.000000e+000
      vertex  1.516321e+001  1.126708e+001  0.000000e+000
      vertex  1.640567e+001  1.347574e+001  0.000000e+000
    endloop
  endfacet
  facet normal  8.715616e-001 -4.902861e-001  0.000000e+000
    outer loop
      vertex  1.516321e+001  1.126708e+001  2.000000e+000
      vertex  1.640567e+001  1.347574e+001  0.000000e+000
      vertex  1.640567e+001  1.347574e+001  2.000000e+000
    endloop
  endfacet
  facet normal  5.192395e-001 -8.546288e-001  0.000000e+000
    outer loop
      vertex  1.640567e+001  1.347574e+001  2.000000e+000
      vertex  1.640567e+001  1.347574e+001  0.000000e+000
      vertex  1.857143e+001  1.479157e+001  0.000000e+000
    endloop
  endfacet
  facet normal  5.192395e-001 -8.546288e-001  0.000000e+000
    outer loop
      vertex  1.640567e+001  1.347574e+001  2.000000e+000
      vertex  1.857143e+001  1.479157e+001  0.000000e+000
      vertex  1.857143e+001  1.479157e+001  2.000000e+000
    endloop
  endfacet
  facet normal  5.728781e-001  8.196406e-001  0.000000e+000
    outer loop
      vertex  1.857143e+001  5.208426e+000  0.000000e+000
      vertex  1.857143e+001  5.208426e+000  2.000000e+000
      vertex  1.960357e+001  4.487025e+000  0.000000e+000
    endloop
  endfacet
  facet normal  5.728781e-001  8.196406e-001  -0.000000e+000
    outer loop
      vertex  1.960357e+001  4.487025e+000  0.000000e+000
      vertex  1.857143e+001  5.208426e+000  2.000000e+000
      vertex  1.960357e+001  4.487025e+000  2.000000e+000
    endloop
  endfacet
  facet normal  9.491532e-001  3.148147e-001  0.000000e+000
    outer loop
      vertex  1.960357e+001  4.487025e+000  0.000000e+000
      vertex  1.960357e+001  4.487025e+000  2.000000e+000
      vertex  2.000000e+001  3.291796e+000  0.000000e+000
    endloop
  endfacet
  facet normal  9.491532e-001  3.148147e-001  -0.000000e+000
    outer loop
      vertex  2.000000e+001  3.291796e+000  0.000000e+000
      vertex  1.960357e+001  4.487025e+000  2.000000e+000
      vertex  2.000000e+001  3.291796e+000  2.000000e+000
    endloop
  endfacet
  facet normal  1.000000e+000  0.000000e+000  0.000000e+000
    outer loop
      vertex  2.000000e+001 -3.291796e+000  0.000000e+000
      vertex  2.000000e+001  3.291796e+000  0.000000e+000
      vertex  2.000000e+001 -3.291796e+000  2.000000e+000
    endloop
  endfacet
  facet normal  1.000000e+000  -0.000000e+000  0.000000e+000
    outer loop
      vertex  2.000000e+001 -3.291796e+000  2.000000e+000
      vertex  2.000000e+001  3.291796e+000  0.000000e+000
      vertex  2.000000e+001  3.291796e+000  2.000000e+000
    endloop
  endfacet
  facet normal  9.491532e-001 -3.148147e-001  0.000000e+000
    outer loop
      vertex  2.000000e+001 -3.291796e+000  0.000000e+000
      vertex  2.000000e+001 -3.291796e+000  2.000000e+000
      vertex  1.960357e+001 -4.487025e+000  0.000000e+000
    endloop
  endfacet
  facet normal  9.491532e-001 -3.148147e-001  0.000000e+000
    outer loop
      vertex  1.960357e+001 -4.487025e+000  0.000000e+000
      vertex  2.000000e+001 -3.291796e+000  2.000000e+000
      vertex  1.960357e+001 -4.487025e+000  2.000000e+000
    endloop
  endfacet
  facet normal  5.728781e-001 -8.196406e-001  0.000000e+000
    outer loop
      vertex  1.960357e+001 -4.487025e+000  0.000000e+000
      vertex  1.960357e+001 -4.487025e+000  2.000000e+000
      vertex  1.857143e+001 -5.208426e+000  0.000000e+000
    endloop
  endfacet
  facet normal  5.728781e-001 -8.196406e-001  0.000000e+000
    outer loop
      vertex  1.857143e+001 -5.208426e+000  0.000000e+000
      vertex  1.960357e+001 -4.487025e+000  2.000000e+000
      vertex  1.857143e+001 -5.208426e+000  2.000000e+000
    endloop
  endfacet
  facet normal  8.715616e-001  4.902861e-001  0.000000e+000
    outer loop
      vertex  1.516321e+001 -1.126708e+001  0.000000e+000
      vertex  1.640567e+001 -1.347574e+001  2.000000e+000
      vertex  1.640567e+001 -1.347574e+001  0.000000e+000
    endloop
  endfacet
  facet normal  5.192395e-001  8.546288e-001  -0.000000e+000
    outer loop
      vertex  1.640567e+001 -1.347574e+001  0.000000e+000
      vertex  1.640567e+001 -1.347574e+001  2.000000e+000
      vertex  1.857143e+001 -1.479157e+001  2.000000e+000
    endloop
  endfacet
  facet normal  5.192395e-001  8.546288e-001  0.000000e+000
    outer loop
      vertex  1.640567e+001 -1.347574e+001  0.000000e+000
      vertex  1.857143e+001 -1.479157e+001  2.000000e+000
      vertex  1.857143e+001 -1.479157e+001  0.000000e+000
    endloop
  endfacet
  facet normal  8.715616e-001  4.902861e-001  -0.000000e+000
    outer loop
      vertex  1.640567e+001 -1.347574e+001  2.000000e+000
      vertex  1.516321e+001 -1.126708e+001  0.000000e+000
      vertex  1.516321e+001 -1.126708e+001  2.000000e+000
    endloop
  endfacet
  facet normal  9.999999e-001  0.000000e+000  0.000000e+000
    outer loop
      vertex  1.516321e+001 -1.126708e+001  2.000000e+000
      vertex  1.516321e+001 -1.126708e+001  0.000000e+000
      vertex  1.516321e+001 -8.732924e+000  0.000000e+000
    endloop
  endfacet
  facet normal  9.999999e-001  0.000000e+000  -0.000000e+000
    outer loop
      vertex  1.516321e+001 -1.126708e+001  2.000000e+000
      vertex  1.516321e+001 -8.732924e+000  0.000000e+000
      vertex  1.516321e+001 -8.732924e+000  2.000000e+000
    endloop
  endfacet
  facet normal  8.715616e-001 -4.902860e-001  0.000000e+000
    outer loop
      vertex  1.516321e+001 -8.732924e+000  2.000000e+000
      vertex  1.516321e+001 -8.732924e+000  0.000000e+000
      vertex  1.640567e+001 -6.524256e+000  0.000000e+000
    endloop
  endfacet
  facet normal  8.715616e-001 -4.902860e-001  0.000000e+000
    outer loop
      vertex  1.516321e+001 -8.732924e+000  2.000000e+000
      vertex  1.640567e+001 -6.524256e+000  0.000000e+000
      vertex  1.640567e+001 -6.524256e+000  2.000000e+000
    endloop
  endfacet
  facet normal  5.192392e-001 -8.546290e-001  0.000000e+000
    outer loop
      vertex  1.640567e+001 -6.524256e+000  2.000000e+000
      vertex  1.640567e+001 -6.524256e+000  0.000000e+000
      vertex  1.857143e+001 -5.208426e+000  0.000000e+000
    endloop
  endfacet
  facet normal  5.192392e-001 -8.546290e-001  0.000000e+000
    outer loop
      vertex  1.640567e+001 -6.524256e+000  2.000000e+000
      vertex  1.857143e+001 -5.208426e+000  0.000000e+000
      vertex  1.857143e+001 -5.208426e+000  2.000000e+000
    endloop
  endfacet
  facet normal  5.728781e-001  8.196406e-001  0.000000e+000
    outer loop
      vertex  1.857143e+001 -1.479157e+001  0.000000e+000
      vertex  1.857143e+001 -1.479157e+001  2.000000e+000
      vertex  1.960357e+001 -1.551298e+001  0.000000e+000
    endloop
  endfacet
  facet normal  5.728781e-001  8.196406e-001  -0.000000e+000
    outer loop
      vertex  1.960357e+001 -1.551298e+001  0.000000e+000
      vertex  1.857143e+001 -1.479157e+001  2.000000e+000
      vertex  1.960357e+001 -1.551298e+001  2.000000e+000
    endloop
  endfacet
  facet normal  9.491531e-001  3.148147e-001  0.000000e+000
    outer loop
      vertex  1.960357e+001 -1.551298e+001  0.000000e+000
      vertex  1.960357e+001 -1.551298e+001  2.000000e+000
      vertex  2.000000e+001 -1.670820e+001  0.000000e+000
    endloop
  endfacet
  facet normal  9.491531e-001  3.148147e-001  -0.000000e+000
    outer loop
      vertex  2.000000e+001 -1.670820e+001  0.000000e+000
      vertex  1.960357e+001 -1.551298e+001  2.000000e+000
      vertex  2.000000e+001 -1.670820e+001  2.000000e+000
    endloop
  endfacet
  facet normal  1.000000e+000  0.000000e+000  0.000000e+000
    outer loop
      vertex  2.000000e+001 -1.800000e+001  0.000000e+000
      vertex  2.000000e+001 -1.670820e+001  0.000000e+000
      vertex  2.000000e+001 -1.800000e+001  2.000000e+000
    endloop
  endfacet
  facet normal  1.000000e+000  -0.000000e+000  0.000000e+000
    outer loop
      vertex  2.000000e+001 -1.800000e+001  2.000000e+000
      vertex  2.000000e+001 -1.670820e+001  0.000000e+000
      vertex  2.000000e+001 -1.670820e+001  2.000000e+000
    endloop
  endfacet
  facet normal  9.238794e-001 -3.826837e-001  0.000000e+000
    outer loop
      vertex  2.000000e+001 -1.800000e+001  0.000000e+000
      vertex  2.000000e+001 -1.800000e+001  2.000000e+000
      vertex  1.941421e+001 -1.941421e+001  0.000000e+000
    endloop
  endfacet
  facet normal  9.238794e-001 -3.826837e-001  0.000000e+000
    outer loop
      vertex  1.941421e+001 -1.941421e+001  0.000000e+000
      vertex  2.000000e+001 -1.800000e+001  2.000000e+000
      vertex  1.941421e+001 -1.941421e+001  2.000000e+000
    endloop
  endfacet
  facet normal  3.826837e-001 -9.238794e-001  0.000000e+000
    outer loop
      vertex  1.941421e+001 -1.941421e+001  0.000000e+000
      vertex  1.941421e+001 -1.941421e+001  2.000000e+000
      vertex  1.800000e+001 -2.000000e+001  0.000000e+000
    endloop
  endfacet
  facet normal  3.826837e-001 -9.238794e-001  0.000000e+000
    outer loop
      vertex  1.800000e+001 -2.000000e+001  0.000000e+000
      vertex  1.941421e+001 -1.941421e+001  2.000000e+000
      vertex  1.800000e+001 -2.000000e+001  2.000000e+000
    endloop
  endfacet
  facet normal  0.000000e+000 -1.000000e+000  0.000000e+000
    outer loop
      vertex  1.500000e+001 -2.000000e+001  0.000000e+000
      vertex  1.800000e+001 -2.000000e+001  0.000000e+000
      vertex  1.500000e+001 -2.000000e+001  2.000000e+000
    endloop
  endfacet
  facet normal  0.000000e+000 -1.000000e+000  0.000000e+000
    outer loop
      vertex  1.500000e+001 -2.000000e+001  2.000000e+000
      vertex  1.800000e+001 -2.000000e+001  0.000000e+000
      vertex  1.800000e+001 -2.000000e+001  2.000000e+000
    endloop
  endfacet
  facet normal -2.588188e-001 -9.659259e-001  -0.000000e+000
    outer loop
      vertex  1.500000e+001 -2.000000e+001  0.000000e+000
      vertex  1.500000e+001 -2.000000e+001  2.000000e+000
      vertex  1.250000e+001 -1.933013e+001  0.000000e+000
    endloop
  endfacet
  facet normal -2.588188e-001 -9.659259e-001  0.000000e+000
    outer loop
      vertex  1.250000e+001 -1.933013e+001  0.000000e+000
      vertex  1.500000e+001 -2.000000e+001  2.000000e+000
      vertex  1.250000e+001 -1.933013e+001  2.000000e+000
    endloop
  endfacet
  facet normal -7.071069e-001 -7.071066e-001  -0.000000e+000
    outer loop
      vertex  1.250000e+001 -1.933013e+001  0.000000e+000
      vertex  1.250000e+001 -1.933013e+001  2.000000e+000
      vertex  1.066987e+001 -1.750000e+001  0.000000e+000
    endloop
  endfacet
  facet normal -7.071069e-001 -7.071066e-001  0.000000e+000
    outer loop
      vertex  1.066987e+001 -1.750000e+001  0.000000e+000
      vertex  1.250000e+001 -1.933013e+001  2.000000e+000
      vertex  1.066987e+001 -1.750000e+001  2.000000e+000
    endloop
  endfacet
  facet normal -9.659258e-001 -2.588191e-001  -0.000000e+000
    outer loop
      vertex  1.066987e+001 -1.750000e+001  0.000000e+000
      vertex  1.066987e+001 -1.750000e+001  2.000000e+000
      vertex  1.000000e+001 -1.500000e+001  0.000000e+000
    endloop
  endfacet
  facet normal -9.659258e-001 -2.588191e-001  0.000000e+000
    outer loop
      vertex  1.000000e+001 -1.500000e+001  0.000000e+000
      vertex  1.066987e+001 -1.750000e+001  2.000000e+000
      vertex  1.000000e+001 -1.500000e+001  2.000000e+000
    endloop
  endfacet
  facet normal -1.000000e+000  0.000000e+000  0.000000e+000
    outer loop
      vertex  1.000000e+001 -1.100000e+001  0.000000e+000
      vertex  1.000000e+001 -1.500000e+001  0.000000e+000
      vertex  1.000000e+001 -1.100000e+001  2.000000e+000
    endloop
  endfacet
  facet normal -1.000000e+000  -0.000000e+000  0.000000e+000
    outer loop
      vertex  1.000000e+001 -1.100000e+001  2.000000e+000
      vertex  1.000000e+001 -1.500000e+001  0.000000e+000
      vertex  1.000000e+001 -1.500000e+001  2.000000e+000
    endloop
  endfacet
  facet normal -2.588190e-001 -9.659259e-001  -0.000000e+000
    outer loop
      vertex  7.500000e+000 -6.669873e+000  0.000000e+000
      vertex  5.000000e+000 -6.000000e+000  2.000000e+000
      vertex  5.000000e+000 -6.000000e+000  0.000000e+000
    endloop
  endfacet
  facet normal -2.588190e-001 -9.659259e-001  0.000000e+000
    outer loop
      vertex  5.000000e+000 -6.000000e+000  2.000000e+000
      vertex  7.500000e+000 -6.669873e+000  0.000000e+000
      vertex  7.500000e+000 -6.669873e+000  2.000000e+000
    endloop
  endfacet
  facet normal -7.071069e-001 -7.071067e-001  -0.000000e+000
    outer loop
      vertex  7.500000e+000 -6.669873e+000  2.000000e+000
      vertex  7.500000e+000 -6.669873e+000  0.000000e+000
      vertex  9.330127e+000 -8.500000e+000  0.000000e+000
    endloop
  endfacet
  facet normal -7.071069e-001 -7.071067e-001  0.000000e+000
    outer loop
      vertex  7.500000e+000 -6.669873e+000  2.000000e+000
      vertex  9.330127e+000 -8.500000e+000  0.000000e+000
      vertex  9.330127e+000 -8.500000e+000  2.000000e+000
    endloop
  endfacet
  facet normal -9.659258e-001 -2.588191e-001  -0.000000e+000
    outer loop
      vertex  9.330127e+000 -8.500000e+000  2.000000e+000
      vertex  9.330127e+000 -8.500000e+000  0.000000e+000
      vertex  1.000000e+001 -1.100000e+001  0.000000e+000
    endloop
  endfacet
  facet normal -9.659258e-001 -2.588191e-001  0.000000e+000
    outer loop
      vertex  9.330127e+000 -8.500000e+000  2.000000e+000
      vertex  1.000000e+001 -1.100000e+001  0.000000e+000
      vertex  1.000000e+001 -1.100000e+001  2.000000e+000
    endloop
  endfacet
endsolid CATIA STL
