solid CATIA STL
  facet normal -1.000000e+000  0.000000e+000  0.000000e+000
    outer loop
      vertex -3.400000e+001 -1.300000e+001 -1.510102e+001
      vertex -3.400000e+001 -4.100000e+001 -1.510102e+001
      vertex -3.400000e+001 -1.300000e+001 -2.000000e+000
    endloop
  endfacet
  facet normal -1.000000e+000  -0.000000e+000  0.000000e+000
    outer loop
      vertex -3.400000e+001 -1.300000e+001 -2.000000e+000
      vertex -3.400000e+001 -4.100000e+001 -1.510102e+001
      vertex -3.400000e+001 -4.100000e+001 -2.000000e+000
    endloop
  endfacet
  facet normal  1.000000e+000  0.000000e+000  0.000000e+000
    outer loop
      vertex -3.200000e+001 -1.300000e+001 -1.510102e+001
      vertex -3.200000e+001 -1.300000e+001 -2.000000e+000
      vertex -3.200000e+001 -4.100000e+001 -1.510102e+001
    endloop
  endfacet
  facet normal  1.000000e+000  0.000000e+000  0.000000e+000
    outer loop
      vertex -3.200000e+001 -4.100000e+001 -1.510102e+001
      vertex -3.200000e+001 -1.300000e+001 -2.000000e+000
      vertex -3.200000e+001 -4.100000e+001 -2.000000e+000
    endloop
  endfacet
  facet normal  0.000000e+000 -1.000000e+000  0.000000e+000
    outer loop
      vertex -3.400000e+001 -4.100000e+001 -2.000000e+000
      vertex -3.400000e+001 -4.100000e+001 -1.510102e+001
      vertex -3.200000e+001 -4.100000e+001 -2.000000e+000
    endloop
  endfacet
  facet normal  0.000000e+000 -1.000000e+000  -0.000000e+000
    outer loop
      vertex -3.200000e+001 -4.100000e+001 -2.000000e+000
      vertex -3.400000e+001 -4.100000e+001 -1.510102e+001
      vertex -3.200000e+001 -4.100000e+001 -1.510102e+001
    endloop
  endfacet
  facet normal  0.000000e+000  0.000000e+000 -1.000000e+000
    outer loop
      vertex -3.400000e+001 -4.100000e+001 -1.510102e+001
      vertex -3.400000e+001 -1.300000e+001 -1.510102e+001
      vertex -3.200000e+001 -4.100000e+001 -1.510102e+001
    endloop
  endfacet
  facet normal  0.000000e+000  0.000000e+000 -1.000000e+000
    outer loop
      vertex -3.200000e+001 -4.100000e+001 -1.510102e+001
      vertex -3.400000e+001 -1.300000e+001 -1.510102e+001
      vertex -3.200000e+001 -1.300000e+001 -1.510102e+001
    endloop
  endfacet
  facet normal  0.000000e+000  1.000000e+000  0.000000e+000
    outer loop
      vertex -3.400000e+001 -1.300000e+001 -1.510102e+001
      vertex -3.400000e+001 -1.300000e+001 -2.000000e+000
      vertex -3.200000e+001 -1.300000e+001 -1.510102e+001
    endloop
  endfacet
  facet normal  0.000000e+000  1.000000e+000  -0.000000e+000
    outer loop
      vertex -3.200000e+001 -1.300000e+001 -1.510102e+001
      vertex -3.400000e+001 -1.300000e+001 -2.000000e+000
      vertex -3.200000e+001 -1.300000e+001 -2.000000e+000
    endloop
  endfacet
  facet normal  0.000000e+000  0.000000e+000  1.000000e+000
    outer loop
      vertex -3.400000e+001 -1.300000e+001 -2.000000e+000
      vertex -3.400000e+001 -4.100000e+001 -2.000000e+000
      vertex -3.200000e+001 -1.300000e+001 -2.000000e+000
    endloop
  endfacet
  facet normal  0.000000e+000  0.000000e+000  1.000000e+000
    outer loop
      vertex -3.200000e+001 -1.300000e+001 -2.000000e+000
      vertex -3.400000e+001 -4.100000e+001 -2.000000e+000
      vertex -3.200000e+001 -4.100000e+001 -2.000000e+000
    endloop
  endfacet
  facet normal -1.000000e+000  0.000000e+000  0.000000e+000
    outer loop
      vertex -3.400000e+001  1.100000e+001 -1.510102e+001
      vertex -3.400000e+001 -1.100000e+001 -1.510102e+001
      vertex -3.400000e+001  1.100000e+001 -2.000000e+000
    endloop
  endfacet
  facet normal -1.000000e+000  -0.000000e+000  0.000000e+000
    outer loop
      vertex -3.400000e+001  1.100000e+001 -2.000000e+000
      vertex -3.400000e+001 -1.100000e+001 -1.510102e+001
      vertex -3.400000e+001 -1.100000e+001 -2.000000e+000
    endloop
  endfacet
  facet normal  1.000000e+000  0.000000e+000  0.000000e+000
    outer loop
      vertex -3.200000e+001  1.100000e+001 -1.510102e+001
      vertex -3.200000e+001  1.100000e+001 -2.000000e+000
      vertex -3.200000e+001 -1.100000e+001 -1.510102e+001
    endloop
  endfacet
  facet normal  1.000000e+000  0.000000e+000  0.000000e+000
    outer loop
      vertex -3.200000e+001 -1.100000e+001 -1.510102e+001
      vertex -3.200000e+001  1.100000e+001 -2.000000e+000
      vertex -3.200000e+001 -1.100000e+001 -2.000000e+000
    endloop
  endfacet
  facet normal  0.000000e+000  0.000000e+000 -1.000000e+000
    outer loop
      vertex -3.400000e+001 -1.100000e+001 -1.510102e+001
      vertex -3.400000e+001  1.100000e+001 -1.510102e+001
      vertex -3.200000e+001 -1.100000e+001 -1.510102e+001
    endloop
  endfacet
  facet normal  0.000000e+000  0.000000e+000 -1.000000e+000
    outer loop
      vertex -3.200000e+001 -1.100000e+001 -1.510102e+001
      vertex -3.400000e+001  1.100000e+001 -1.510102e+001
      vertex -3.200000e+001  1.100000e+001 -1.510102e+001
    endloop
  endfacet
  facet normal  0.000000e+000  1.000000e+000  0.000000e+000
    outer loop
      vertex -3.400000e+001  1.100000e+001 -1.510102e+001
      vertex -3.400000e+001  1.100000e+001 -2.000000e+000
      vertex -3.200000e+001  1.100000e+001 -1.510102e+001
    endloop
  endfacet
  facet normal  0.000000e+000  1.000000e+000  -0.000000e+000
    outer loop
      vertex -3.200000e+001  1.100000e+001 -1.510102e+001
      vertex -3.400000e+001  1.100000e+001 -2.000000e+000
      vertex -3.200000e+001  1.100000e+001 -2.000000e+000
    endloop
  endfacet
  facet normal  0.000000e+000  0.000000e+000  1.000000e+000
    outer loop
      vertex -3.400000e+001  1.100000e+001 -2.000000e+000
      vertex -3.400000e+001 -1.100000e+001 -2.000000e+000
      vertex -3.200000e+001  1.100000e+001 -2.000000e+000
    endloop
  endfacet
  facet normal  0.000000e+000  0.000000e+000  1.000000e+000
    outer loop
      vertex -3.200000e+001  1.100000e+001 -2.000000e+000
      vertex -3.400000e+001 -1.100000e+001 -2.000000e+000
      vertex -3.200000e+001 -1.100000e+001 -2.000000e+000
    endloop
  endfacet
  facet normal  0.000000e+000 -1.000000e+000  0.000000e+000
    outer loop
      vertex -3.400000e+001 -1.100000e+001 -2.000000e+000
      vertex -3.400000e+001 -1.100000e+001 -1.510102e+001
      vertex -3.200000e+001 -1.100000e+001 -2.000000e+000
    endloop
  endfacet
  facet normal  0.000000e+000 -1.000000e+000  -0.000000e+000
    outer loop
      vertex -3.200000e+001 -1.100000e+001 -2.000000e+000
      vertex -3.400000e+001 -1.100000e+001 -1.510102e+001
      vertex -3.200000e+001 -1.100000e+001 -1.510102e+001
    endloop
  endfacet
  facet normal -1.000000e+000  0.000000e+000  0.000000e+000
    outer loop
      vertex -3.400000e+001  4.100000e+001 -1.510102e+001
      vertex -3.400000e+001  1.300000e+001 -1.510102e+001
      vertex -3.400000e+001  4.100000e+001 -2.000000e+000
    endloop
  endfacet
  facet normal -1.000000e+000  -0.000000e+000  0.000000e+000
    outer loop
      vertex -3.400000e+001  4.100000e+001 -2.000000e+000
      vertex -3.400000e+001  1.300000e+001 -1.510102e+001
      vertex -3.400000e+001  1.300000e+001 -2.000000e+000
    endloop
  endfacet
  facet normal  1.000000e+000  0.000000e+000  0.000000e+000
    outer loop
      vertex -3.200000e+001  4.100000e+001 -1.510102e+001
      vertex -3.200000e+001  4.100000e+001 -2.000000e+000
      vertex -3.200000e+001  1.300000e+001 -1.510102e+001
    endloop
  endfacet
  facet normal  1.000000e+000  0.000000e+000  0.000000e+000
    outer loop
      vertex -3.200000e+001  1.300000e+001 -1.510102e+001
      vertex -3.200000e+001  4.100000e+001 -2.000000e+000
      vertex -3.200000e+001  1.300000e+001 -2.000000e+000
    endloop
  endfacet
  facet normal  0.000000e+000  1.000000e+000  0.000000e+000
    outer loop
      vertex -3.400000e+001  4.100000e+001 -1.510102e+001
      vertex -3.400000e+001  4.100000e+001 -2.000000e+000
      vertex -3.200000e+001  4.100000e+001 -1.510102e+001
    endloop
  endfacet
  facet normal  0.000000e+000  1.000000e+000  -0.000000e+000
    outer loop
      vertex -3.200000e+001  4.100000e+001 -1.510102e+001
      vertex -3.400000e+001  4.100000e+001 -2.000000e+000
      vertex -3.200000e+001  4.100000e+001 -2.000000e+000
    endloop
  endfacet
  facet normal  0.000000e+000  0.000000e+000  1.000000e+000
    outer loop
      vertex -3.400000e+001  4.100000e+001 -2.000000e+000
      vertex -3.400000e+001  1.300000e+001 -2.000000e+000
      vertex -3.200000e+001  4.100000e+001 -2.000000e+000
    endloop
  endfacet
  facet normal  0.000000e+000  0.000000e+000  1.000000e+000
    outer loop
      vertex -3.200000e+001  4.100000e+001 -2.000000e+000
      vertex -3.400000e+001  1.300000e+001 -2.000000e+000
      vertex -3.200000e+001  1.300000e+001 -2.000000e+000
    endloop
  endfacet
  facet normal  0.000000e+000 -1.000000e+000  0.000000e+000
    outer loop
      vertex -3.400000e+001  1.300000e+001 -2.000000e+000
      vertex -3.400000e+001  1.300000e+001 -1.510102e+001
      vertex -3.200000e+001  1.300000e+001 -2.000000e+000
    endloop
  endfacet
  facet normal  0.000000e+000 -1.000000e+000  -0.000000e+000
    outer loop
      vertex -3.200000e+001  1.300000e+001 -2.000000e+000
      vertex -3.400000e+001  1.300000e+001 -1.510102e+001
      vertex -3.200000e+001  1.300000e+001 -1.510102e+001
    endloop
  endfacet
  facet normal  0.000000e+000  0.000000e+000 -1.000000e+000
    outer loop
      vertex -3.400000e+001  1.300000e+001 -1.510102e+001
      vertex -3.400000e+001  4.100000e+001 -1.510102e+001
      vertex -3.200000e+001  1.300000e+001 -1.510102e+001
    endloop
  endfacet
  facet normal  0.000000e+000  0.000000e+000 -1.000000e+000
    outer loop
      vertex -3.200000e+001  1.300000e+001 -1.510102e+001
      vertex -3.400000e+001  4.100000e+001 -1.510102e+001
      vertex -3.200000e+001  4.100000e+001 -1.510102e+001
    endloop
  endfacet
endsolid CATIA STL
