solid CATIA STL
  facet normal  0.000000e+000  0.000000e+000 -1.000000e+000
    outer loop
      vertex  1.767767e+000 -1.767767e+000  0.000000e+000
      vertex  4.330127e+000 -2.500000e+000  0.000000e+000
      vertex -4.592274e-016 -2.500000e+000  0.000000e+000
    endloop
  endfacet
  facet normal  -0.000000e+000  0.000000e+000 -1.000000e+000
    outer loop
      vertex -4.330127e+000  2.500000e+000  0.000000e+000
      vertex  1.530758e-016  2.500000e+000  0.000000e+000
      vertex -1.767767e+000  1.767767e+000  0.000000e+000
    endloop
  endfacet
  facet normal  0.000000e+000  -0.000000e+000 -1.000000e+000
    outer loop
      vertex -4.330127e+000  2.500000e+000  0.000000e+000
      vertex -2.500000e+000  4.330127e+000  0.000000e+000
      vertex  1.530758e-016  2.500000e+000  0.000000e+000
    endloop
  endfacet
  facet normal  0.000000e+000  0.000000e+000 -1.000000e+000
    outer loop
      vertex  1.530758e-016  2.500000e+000  0.000000e+000
      vertex -2.500000e+000  4.330127e+000  0.000000e+000
      vertex  3.061516e-016  5.000000e+000  0.000000e+000
    endloop
  endfacet
  facet normal  0.000000e+000  -0.000000e+000 -1.000000e+000
    outer loop
      vertex  1.530758e-016  2.500000e+000  0.000000e+000
      vertex  3.061516e-016  5.000000e+000  0.000000e+000
      vertex  4.330127e+000  2.500000e+000  0.000000e+000
    endloop
  endfacet
  facet normal  0.000000e+000  0.000000e+000 -1.000000e+000
    outer loop
      vertex  4.330127e+000  2.500000e+000  0.000000e+000
      vertex  3.061516e-016  5.000000e+000  0.000000e+000
      vertex  2.500000e+000  4.330127e+000  0.000000e+000
    endloop
  endfacet
  facet normal  0.000000e+000  0.000000e+000 -1.000000e+000
    outer loop
      vertex  4.330127e+000 -2.500000e+000  0.000000e+000
      vertex  1.767767e+000 -1.767767e+000  0.000000e+000
      vertex  5.000000e+000  0.000000e+000  0.000000e+000
    endloop
  endfacet
  facet normal  0.000000e+000  0.000000e+000 -1.000000e+000
    outer loop
      vertex  5.000000e+000  0.000000e+000  0.000000e+000
      vertex  1.767767e+000 -1.767767e+000  0.000000e+000
      vertex  2.500000e+000 -6.123032e-016  0.000000e+000
    endloop
  endfacet
  facet normal  0.000000e+000  0.000000e+000 -1.000000e+000
    outer loop
      vertex  5.000000e+000  0.000000e+000  0.000000e+000
      vertex  2.500000e+000 -6.123032e-016  0.000000e+000
      vertex  4.330127e+000  2.500000e+000  0.000000e+000
    endloop
  endfacet
  facet normal  0.000000e+000  0.000000e+000 -1.000000e+000
    outer loop
      vertex  4.330127e+000  2.500000e+000  0.000000e+000
      vertex  2.500000e+000 -6.123032e-016  0.000000e+000
      vertex  1.767767e+000  1.767767e+000  0.000000e+000
    endloop
  endfacet
  facet normal  0.000000e+000  0.000000e+000 -1.000000e+000
    outer loop
      vertex  4.330127e+000  2.500000e+000  0.000000e+000
      vertex  1.767767e+000  1.767767e+000  0.000000e+000
      vertex  1.530758e-016  2.500000e+000  0.000000e+000
    endloop
  endfacet
  facet normal  0.000000e+000  0.000000e+000 -1.000000e+000
    outer loop
      vertex  4.330127e+000 -2.500000e+000  0.000000e+000
      vertex  2.500000e+000 -4.330127e+000  0.000000e+000
      vertex -4.592274e-016 -2.500000e+000  0.000000e+000
    endloop
  endfacet
  facet normal  0.000000e+000  -0.000000e+000 -1.000000e+000
    outer loop
      vertex -4.592274e-016 -2.500000e+000  0.000000e+000
      vertex  2.500000e+000 -4.330127e+000  0.000000e+000
      vertex -9.184548e-016 -5.000000e+000  0.000000e+000
    endloop
  endfacet
  facet normal  0.000000e+000  0.000000e+000 -1.000000e+000
    outer loop
      vertex -4.592274e-016 -2.500000e+000  0.000000e+000
      vertex -9.184548e-016 -5.000000e+000  0.000000e+000
      vertex -4.330127e+000 -2.500000e+000  0.000000e+000
    endloop
  endfacet
  facet normal  0.000000e+000  0.000000e+000 -1.000000e+000
    outer loop
      vertex -4.330127e+000 -2.500000e+000  0.000000e+000
      vertex -9.184548e-016 -5.000000e+000  0.000000e+000
      vertex -2.500000e+000 -4.330127e+000  0.000000e+000
    endloop
  endfacet
  facet normal  -0.000000e+000  0.000000e+000 -1.000000e+000
    outer loop
      vertex -4.330127e+000  2.500000e+000  0.000000e+000
      vertex -1.767767e+000  1.767767e+000  0.000000e+000
      vertex -5.000000e+000  6.123032e-016  0.000000e+000
    endloop
  endfacet
  facet normal  0.000000e+000  0.000000e+000 -1.000000e+000
    outer loop
      vertex -5.000000e+000  6.123032e-016  0.000000e+000
      vertex -1.767767e+000  1.767767e+000  0.000000e+000
      vertex -2.500000e+000  3.061516e-016  0.000000e+000
    endloop
  endfacet
  facet normal  -0.000000e+000  0.000000e+000 -1.000000e+000
    outer loop
      vertex -5.000000e+000  6.123032e-016  0.000000e+000
      vertex -2.500000e+000  3.061516e-016  0.000000e+000
      vertex -4.330127e+000 -2.500000e+000  0.000000e+000
    endloop
  endfacet
  facet normal  0.000000e+000  0.000000e+000 -1.000000e+000
    outer loop
      vertex -4.330127e+000 -2.500000e+000  0.000000e+000
      vertex -2.500000e+000  3.061516e-016  0.000000e+000
      vertex -1.767767e+000 -1.767767e+000  0.000000e+000
    endloop
  endfacet
  facet normal  0.000000e+000  -0.000000e+000 -1.000000e+000
    outer loop
      vertex -4.330127e+000 -2.500000e+000  0.000000e+000
      vertex -1.767767e+000 -1.767767e+000  0.000000e+000
      vertex -4.592274e-016 -2.500000e+000  0.000000e+000
    endloop
  endfacet
  facet normal  3.826834e-001 -9.238795e-001  0.000000e+000
    outer loop
      vertex  1.530758e-016  2.500000e+000  0.000000e+000
      vertex -1.767767e+000  1.767767e+000  3.500000e+000
      vertex -1.767767e+000  1.767767e+000  0.000000e+000
    endloop
  endfacet
  facet normal  9.238795e-001 -3.826834e-001  0.000000e+000
    outer loop
      vertex -1.767767e+000  1.767767e+000  0.000000e+000
      vertex -1.767767e+000  1.767767e+000  3.500000e+000
      vertex -2.500000e+000  3.061516e-016  3.500000e+000
    endloop
  endfacet
  facet normal  9.238795e-001 -3.826834e-001  0.000000e+000
    outer loop
      vertex -1.767767e+000  1.767767e+000  0.000000e+000
      vertex -2.500000e+000  3.061516e-016  3.500000e+000
      vertex -2.500000e+000  3.061516e-016  0.000000e+000
    endloop
  endfacet
  facet normal  3.826834e-001 -9.238795e-001 -5.150379e-011
    outer loop
      vertex -1.767767e+000  1.767767e+000  3.500000e+000
      vertex  1.530758e-016  2.500000e+000  0.000000e+000
      vertex  4.710508e-010  2.500000e+000  3.500000e+000
    endloop
  endfacet
  facet normal -3.826834e-001 -9.238795e-001  5.150379e-011
    outer loop
      vertex  4.710508e-010  2.500000e+000  3.500000e+000
      vertex  1.530758e-016  2.500000e+000  0.000000e+000
      vertex  1.767767e+000  1.767767e+000  0.000000e+000
    endloop
  endfacet
  facet normal -3.826834e-001 -9.238795e-001  0.000000e+000
    outer loop
      vertex  4.710508e-010  2.500000e+000  3.500000e+000
      vertex  1.767767e+000  1.767767e+000  0.000000e+000
      vertex  1.767767e+000  1.767767e+000  3.500000e+000
    endloop
  endfacet
  facet normal -9.238795e-001 -3.826834e-001  -0.000000e+000
    outer loop
      vertex  1.767767e+000  1.767767e+000  3.500000e+000
      vertex  1.767767e+000  1.767767e+000  0.000000e+000
      vertex  2.500000e+000 -6.123032e-016  0.000000e+000
    endloop
  endfacet
  facet normal -9.238795e-001 -3.826834e-001  6.694808e-017
    outer loop
      vertex  1.767767e+000  1.767767e+000  3.500000e+000
      vertex  2.500000e+000 -6.123032e-016  0.000000e+000
      vertex  2.500000e+000  0.000000e+000  3.500000e+000
    endloop
  endfacet
  facet normal  0.000000e+000  0.000000e+000  1.000000e+000
    outer loop
      vertex  4.710508e-010  2.500000e+000  3.500000e+000
      vertex -8.933091e-001  2.749323e+000  3.500000e+000
      vertex -2.338714e+000  1.699175e+000  3.500000e+000
    endloop
  endfacet
  facet normal  0.000000e+000  -0.000000e+000  1.000000e+000
    outer loop
      vertex -2.338714e+000  1.699175e+000  3.500000e+000
      vertex -1.767767e+000  1.767767e+000  3.500000e+000
      vertex  4.710508e-010  2.500000e+000  3.500000e+000
    endloop
  endfacet
  facet normal  -0.000000e+000  0.000000e+000  1.000000e+000
    outer loop
      vertex -1.767767e+000  1.767767e+000  3.500000e+000
      vertex -2.338714e+000  1.699175e+000  3.500000e+000
      vertex -2.500000e+000  3.061516e-016  3.500000e+000
    endloop
  endfacet
  facet normal  0.000000e+000  -0.000000e+000  1.000000e+000
    outer loop
      vertex -2.500000e+000  3.061516e-016  3.500000e+000
      vertex -2.338714e+000  1.699175e+000  3.500000e+000
      vertex -2.890809e+000 -3.540103e-016  3.500000e+000
    endloop
  endfacet
  facet normal  -0.000000e+000  0.000000e+000  9.999999e-001
    outer loop
      vertex -2.500000e+000  3.061516e-016  3.500000e+000
      vertex -2.890809e+000 -3.540103e-016  3.500000e+000
      vertex -1.767767e+000 -1.767767e+000  3.500000e+000
    endloop
  endfacet
  facet normal  0.000000e+000  0.000000e+000  1.000000e+000
    outer loop
      vertex -1.767767e+000 -1.767767e+000  3.500000e+000
      vertex -2.890809e+000 -3.540103e-016  3.500000e+000
      vertex -2.338714e+000 -1.699175e+000  3.500000e+000
    endloop
  endfacet
  facet normal  0.000000e+000  0.000000e+000  1.000000e+000
    outer loop
      vertex -1.767767e+000 -1.767767e+000  3.500000e+000
      vertex -2.338714e+000 -1.699175e+000  3.500000e+000
      vertex -4.592274e-016 -2.500000e+000  3.500000e+000
    endloop
  endfacet
  facet normal  0.000000e+000  0.000000e+000  1.000000e+000
    outer loop
      vertex -4.592274e-016 -2.500000e+000  3.500000e+000
      vertex -2.338714e+000 -1.699175e+000  3.500000e+000
      vertex -8.933091e-001 -2.749323e+000  3.500000e+000
    endloop
  endfacet
  facet normal  0.000000e+000  0.000000e+000  1.000000e+000
    outer loop
      vertex -4.592274e-016 -2.500000e+000  3.500000e+000
      vertex -8.933091e-001 -2.749323e+000  3.500000e+000
      vertex  8.933091e-001 -2.749323e+000  3.500000e+000
    endloop
  endfacet
  facet normal  0.000000e+000  -0.000000e+000  1.000000e+000
    outer loop
      vertex -4.592274e-016 -2.500000e+000  3.500000e+000
      vertex  8.933091e-001 -2.749323e+000  3.500000e+000
      vertex  1.767767e+000 -1.767767e+000  3.500000e+000
    endloop
  endfacet
  facet normal  -0.000000e+000  0.000000e+000  1.000000e+000
    outer loop
      vertex  1.767767e+000 -1.767767e+000  3.500000e+000
      vertex  8.933091e-001 -2.749323e+000  3.500000e+000
      vertex  2.338714e+000 -1.699175e+000  3.500000e+000
    endloop
  endfacet
  facet normal  0.000000e+000  -0.000000e+000  1.000000e+000
    outer loop
      vertex  1.767767e+000 -1.767767e+000  3.500000e+000
      vertex  2.338714e+000 -1.699175e+000  3.500000e+000
      vertex  2.500000e+000  0.000000e+000  3.500000e+000
    endloop
  endfacet
  facet normal  -0.000000e+000  0.000000e+000  1.000000e+000
    outer loop
      vertex  2.500000e+000  0.000000e+000  3.500000e+000
      vertex  2.338714e+000 -1.699175e+000  3.500000e+000
      vertex  2.890809e+000  7.080206e-016  3.500000e+000
    endloop
  endfacet
  facet normal  0.000000e+000  0.000000e+000  9.999999e-001
    outer loop
      vertex  2.500000e+000  0.000000e+000  3.500000e+000
      vertex  2.890809e+000  7.080206e-016  3.500000e+000
      vertex  1.767767e+000  1.767767e+000  3.500000e+000
    endloop
  endfacet
  facet normal  0.000000e+000  0.000000e+000  1.000000e+000
    outer loop
      vertex  1.767767e+000  1.767767e+000  3.500000e+000
      vertex  2.890809e+000  7.080206e-016  3.500000e+000
      vertex  2.338714e+000  1.699175e+000  3.500000e+000
    endloop
  endfacet
  facet normal  0.000000e+000  0.000000e+000  1.000000e+000
    outer loop
      vertex  1.767767e+000  1.767767e+000  3.500000e+000
      vertex  2.338714e+000  1.699175e+000  3.500000e+000
      vertex  4.710508e-010  2.500000e+000  3.500000e+000
    endloop
  endfacet
  facet normal  -0.000000e+000  0.000000e+000  1.000000e+000
    outer loop
      vertex  4.710508e-010  2.500000e+000  3.500000e+000
      vertex  2.338714e+000  1.699175e+000  3.500000e+000
      vertex  8.933091e-001  2.749323e+000  3.500000e+000
    endloop
  endfacet
  facet normal  0.000000e+000  0.000000e+000  1.000000e+000
    outer loop
      vertex  4.710508e-010  2.500000e+000  3.500000e+000
      vertex  8.933091e-001  2.749323e+000  3.500000e+000
      vertex -8.933091e-001  2.749323e+000  3.500000e+000
    endloop
  endfacet
  facet normal  8.987344e-001 -2.920164e-001  3.271129e-001
    outer loop
      vertex  3.000000e+000  0.000000e+000  3.200000e+000
      vertex  2.890809e+000  7.080206e-016  3.500000e+000
      vertex  2.427051e+000 -1.763356e+000  3.200000e+000
    endloop
  endfacet
  facet normal  8.987346e-001 -2.920164e-001  3.271126e-001
    outer loop
      vertex  2.427051e+000 -1.763356e+000  3.200000e+000
      vertex  2.890809e+000  7.080206e-016  3.500000e+000
      vertex  2.338714e+000 -1.699175e+000  3.500000e+000
    endloop
  endfacet
  facet normal  5.554485e-001 -7.645093e-001  3.271125e-001
    outer loop
      vertex  2.427051e+000 -1.763356e+000  3.200000e+000
      vertex  2.338714e+000 -1.699175e+000  3.500000e+000
      vertex  9.270510e-001 -2.853169e+000  3.200000e+000
    endloop
  endfacet
  facet normal  5.554485e-001 -7.645092e-001  3.271124e-001
    outer loop
      vertex  9.270510e-001 -2.853169e+000  3.200000e+000
      vertex  2.338714e+000 -1.699175e+000  3.500000e+000
      vertex  8.933091e-001 -2.749323e+000  3.500000e+000
    endloop
  endfacet
  facet normal  0.000000e+000 -9.449855e-001  3.271124e-001
    outer loop
      vertex  9.270510e-001 -2.853169e+000  3.200000e+000
      vertex  8.933091e-001 -2.749323e+000  3.500000e+000
      vertex -9.270510e-001 -2.853169e+000  3.200000e+000
    endloop
  endfacet
  facet normal  0.000000e+000 -9.449854e-001  3.271124e-001
    outer loop
      vertex -9.270510e-001 -2.853169e+000  3.200000e+000
      vertex  8.933091e-001 -2.749323e+000  3.500000e+000
      vertex -8.933091e-001 -2.749323e+000  3.500000e+000
    endloop
  endfacet
  facet normal -5.554485e-001 -7.645093e-001  3.271124e-001
    outer loop
      vertex -9.270510e-001 -2.853169e+000  3.200000e+000
      vertex -8.933091e-001 -2.749323e+000  3.500000e+000
      vertex -2.427051e+000 -1.763356e+000  3.200000e+000
    endloop
  endfacet
  facet normal -5.554485e-001 -7.645093e-001  3.271125e-001
    outer loop
      vertex -2.427051e+000 -1.763356e+000  3.200000e+000
      vertex -8.933091e-001 -2.749323e+000  3.500000e+000
      vertex -2.338714e+000 -1.699175e+000  3.500000e+000
    endloop
  endfacet
  facet normal -8.987346e-001 -2.920165e-001  3.271126e-001
    outer loop
      vertex -2.427051e+000 -1.763356e+000  3.200000e+000
      vertex -2.338714e+000 -1.699175e+000  3.500000e+000
      vertex -3.000000e+000 -1.699650e-015  3.200000e+000
    endloop
  endfacet
  facet normal -8.987344e-001 -2.920164e-001  3.271129e-001
    outer loop
      vertex -3.000000e+000 -1.699650e-015  3.200000e+000
      vertex -2.338714e+000 -1.699175e+000  3.500000e+000
      vertex -2.890809e+000 -3.540103e-016  3.500000e+000
    endloop
  endfacet
  facet normal  9.510565e-001 -3.090169e-001  0.000000e+000
    outer loop
      vertex  3.000000e+000  0.000000e+000  1.000000e+000
      vertex  3.000000e+000  0.000000e+000  3.200000e+000
      vertex  2.427051e+000 -1.763356e+000  1.000000e+000
    endloop
  endfacet
  facet normal  9.510565e-001 -3.090169e-001  0.000000e+000
    outer loop
      vertex  2.427051e+000 -1.763356e+000  1.000000e+000
      vertex  3.000000e+000  0.000000e+000  3.200000e+000
      vertex  2.427051e+000 -1.763356e+000  3.200000e+000
    endloop
  endfacet
  facet normal  5.877852e-001 -8.090170e-001  0.000000e+000
    outer loop
      vertex  2.427051e+000 -1.763356e+000  1.000000e+000
      vertex  2.427051e+000 -1.763356e+000  3.200000e+000
      vertex  9.270510e-001 -2.853169e+000  1.000000e+000
    endloop
  endfacet
  facet normal  5.877852e-001 -8.090170e-001  0.000000e+000
    outer loop
      vertex  9.270510e-001 -2.853169e+000  1.000000e+000
      vertex  2.427051e+000 -1.763356e+000  3.200000e+000
      vertex  9.270510e-001 -2.853169e+000  3.200000e+000
    endloop
  endfacet
  facet normal  0.000000e+000 -1.000000e+000  -0.000000e+000
    outer loop
      vertex  9.270510e-001 -2.853169e+000  1.000000e+000
      vertex  9.270510e-001 -2.853169e+000  3.200000e+000
      vertex -9.270510e-001 -2.853169e+000  1.000000e+000
    endloop
  endfacet
  facet normal  0.000000e+000 -1.000000e+000  0.000000e+000
    outer loop
      vertex -9.270510e-001 -2.853169e+000  1.000000e+000
      vertex  9.270510e-001 -2.853169e+000  3.200000e+000
      vertex -9.270510e-001 -2.853169e+000  3.200000e+000
    endloop
  endfacet
  facet normal -5.877852e-001 -8.090170e-001  -0.000000e+000
    outer loop
      vertex -9.270510e-001 -2.853169e+000  1.000000e+000
      vertex -9.270510e-001 -2.853169e+000  3.200000e+000
      vertex -2.427051e+000 -1.763356e+000  1.000000e+000
    endloop
  endfacet
  facet normal -5.877852e-001 -8.090170e-001  0.000000e+000
    outer loop
      vertex -2.427051e+000 -1.763356e+000  1.000000e+000
      vertex -9.270510e-001 -2.853169e+000  3.200000e+000
      vertex -2.427051e+000 -1.763356e+000  3.200000e+000
    endloop
  endfacet
  facet normal -9.510565e-001 -3.090169e-001  -0.000000e+000
    outer loop
      vertex -2.427051e+000 -1.763356e+000  1.000000e+000
      vertex -2.427051e+000 -1.763356e+000  3.200000e+000
      vertex -3.000000e+000  3.673819e-016  1.000000e+000
    endloop
  endfacet
  facet normal -9.510565e-001 -3.090169e-001 -2.903399e-016
    outer loop
      vertex -3.000000e+000  3.673819e-016  1.000000e+000
      vertex -2.427051e+000 -1.763356e+000  3.200000e+000
      vertex -3.000000e+000 -1.699650e-015  3.200000e+000
    endloop
  endfacet
  facet normal -3.797590e-001  1.233912e-001  9.168193e-001
    outer loop
      vertex -3.500000e+000  4.286122e-016  5.000000e-001
      vertex -3.146447e+000  3.853158e-016  6.464466e-001
      vertex -2.831559e+000  2.057248e+000  5.000000e-001
    endloop
  endfacet
  facet normal -3.797591e-001  1.233912e-001  9.168193e-001
    outer loop
      vertex -2.831559e+000  2.057248e+000  5.000000e-001
      vertex -3.146447e+000  3.853158e-016  6.464466e-001
      vertex -2.545529e+000  1.849435e+000  6.464466e-001
    endloop
  endfacet
  facet normal -8.848706e-001  2.875119e-001  3.665256e-001
    outer loop
      vertex -3.146447e+000  3.853158e-016  6.464466e-001
      vertex -3.000000e+000  3.673819e-016  1.000000e+000
      vertex -2.545529e+000  1.849435e+000  6.464466e-001
    endloop
  endfacet
  facet normal -8.848706e-001  2.875119e-001  3.665255e-001
    outer loop
      vertex -2.545529e+000  1.849435e+000  6.464466e-001
      vertex -3.000000e+000  3.673819e-016  1.000000e+000
      vertex -2.427051e+000  1.763356e+000  1.000000e+000
    endloop
  endfacet
  facet normal  3.797592e-001  1.233912e-001  9.168193e-001
    outer loop
      vertex  2.831559e+000  2.057248e+000  5.000000e-001
      vertex  2.545529e+000  1.849435e+000  6.464466e-001
      vertex  3.500000e+000  0.000000e+000  5.000000e-001
    endloop
  endfacet
  facet normal  3.797590e-001  1.233912e-001  9.168193e-001
    outer loop
      vertex  3.500000e+000  0.000000e+000  5.000000e-001
      vertex  2.545529e+000  1.849435e+000  6.464466e-001
      vertex  3.146447e+000  0.000000e+000  6.464466e-001
    endloop
  endfacet
  facet normal  8.848706e-001  2.875119e-001  3.665255e-001
    outer loop
      vertex  2.545529e+000  1.849435e+000  6.464466e-001
      vertex  2.427051e+000  1.763356e+000  1.000000e+000
      vertex  3.146447e+000  0.000000e+000  6.464466e-001
    endloop
  endfacet
  facet normal  8.848705e-001  2.875118e-001  3.665256e-001
    outer loop
      vertex  3.146447e+000  0.000000e+000  6.464466e-001
      vertex  2.427051e+000  1.763356e+000  1.000000e+000
      vertex  3.000000e+000  0.000000e+000  1.000000e+000
    endloop
  endfacet
  facet normal  2.347039e-001  3.230422e-001  9.168193e-001
    outer loop
      vertex  1.081560e+000  3.328698e+000  5.000000e-001
      vertex  9.723055e-001  2.992449e+000  6.464466e-001
      vertex  2.831559e+000  2.057248e+000  5.000000e-001
    endloop
  endfacet
  facet normal  2.347040e-001  3.230424e-001  9.168193e-001
    outer loop
      vertex  2.831559e+000  2.057248e+000  5.000000e-001
      vertex  9.723055e-001  2.992449e+000  6.464466e-001
      vertex  2.545529e+000  1.849435e+000  6.464466e-001
    endloop
  endfacet
  facet normal  5.468801e-001  7.527159e-001  3.665256e-001
    outer loop
      vertex  9.723055e-001  2.992449e+000  6.464466e-001
      vertex  9.270510e-001  2.853169e+000  1.000000e+000
      vertex  2.545529e+000  1.849435e+000  6.464466e-001
    endloop
  endfacet
  facet normal  5.468801e-001  7.527158e-001  3.665255e-001
    outer loop
      vertex  2.545529e+000  1.849435e+000  6.464466e-001
      vertex  9.270510e-001  2.853169e+000  1.000000e+000
      vertex  2.427051e+000  1.763356e+000  1.000000e+000
    endloop
  endfacet
  facet normal  0.000000e+000  3.993021e-001  9.168195e-001
    outer loop
      vertex -1.081560e+000  3.328698e+000  5.000000e-001
      vertex -9.723055e-001  2.992449e+000  6.464466e-001
      vertex  1.081560e+000  3.328698e+000  5.000000e-001
    endloop
  endfacet
  facet normal  0.000000e+000  3.993021e-001  9.168194e-001
    outer loop
      vertex  1.081560e+000  3.328698e+000  5.000000e-001
      vertex -9.723055e-001  2.992449e+000  6.464466e-001
      vertex  9.723055e-001  2.992449e+000  6.464466e-001
    endloop
  endfacet
  facet normal  0.000000e+000  9.304079e-001  3.665257e-001
    outer loop
      vertex -9.723055e-001  2.992449e+000  6.464466e-001
      vertex -9.270510e-001  2.853169e+000  1.000000e+000
      vertex  9.723055e-001  2.992449e+000  6.464466e-001
    endloop
  endfacet
  facet normal  0.000000e+000  9.304079e-001  3.665257e-001
    outer loop
      vertex  9.723055e-001  2.992449e+000  6.464466e-001
      vertex -9.270510e-001  2.853169e+000  1.000000e+000
      vertex  9.270510e-001  2.853169e+000  1.000000e+000
    endloop
  endfacet
  facet normal -2.347040e-001  3.230424e-001  9.168193e-001
    outer loop
      vertex -2.831559e+000  2.057248e+000  5.000000e-001
      vertex -2.545529e+000  1.849435e+000  6.464466e-001
      vertex -1.081560e+000  3.328698e+000  5.000000e-001
    endloop
  endfacet
  facet normal -2.347039e-001  3.230422e-001  9.168194e-001
    outer loop
      vertex -1.081560e+000  3.328698e+000  5.000000e-001
      vertex -2.545529e+000  1.849435e+000  6.464466e-001
      vertex -9.723055e-001  2.992449e+000  6.464466e-001
    endloop
  endfacet
  facet normal -5.468801e-001  7.527159e-001  3.665256e-001
    outer loop
      vertex -2.545529e+000  1.849435e+000  6.464466e-001
      vertex -2.427051e+000  1.763356e+000  1.000000e+000
      vertex -9.723055e-001  2.992449e+000  6.464466e-001
    endloop
  endfacet
  facet normal -5.468801e-001  7.527158e-001  3.665256e-001
    outer loop
      vertex -9.723055e-001  2.992449e+000  6.464466e-001
      vertex -2.427051e+000  1.763356e+000  1.000000e+000
      vertex -9.270510e-001  2.853169e+000  1.000000e+000
    endloop
  endfacet
  facet normal  0.000000e+000  0.000000e+000  1.000000e+000
    outer loop
      vertex  3.061516e-016  5.000000e+000  5.000000e-001
      vertex -1.081560e+000  3.328698e+000  5.000000e-001
      vertex  2.500000e+000  4.330127e+000  5.000000e-001
    endloop
  endfacet
  facet normal  0.000000e+000  0.000000e+000  1.000000e+000
    outer loop
      vertex  2.500000e+000  4.330127e+000  5.000000e-001
      vertex -1.081560e+000  3.328698e+000  5.000000e-001
      vertex  1.081560e+000  3.328698e+000  5.000000e-001
    endloop
  endfacet
  facet normal  -0.000000e+000  0.000000e+000  1.000000e+000
    outer loop
      vertex  2.500000e+000  4.330127e+000  5.000000e-001
      vertex  1.081560e+000  3.328698e+000  5.000000e-001
      vertex  4.330127e+000  2.500000e+000  5.000000e-001
    endloop
  endfacet
  facet normal  0.000000e+000  0.000000e+000  1.000000e+000
    outer loop
      vertex  4.330127e+000  2.500000e+000  5.000000e-001
      vertex  1.081560e+000  3.328698e+000  5.000000e-001
      vertex  2.831559e+000  2.057248e+000  5.000000e-001
    endloop
  endfacet
  facet normal  -0.000000e+000  0.000000e+000  1.000000e+000
    outer loop
      vertex  4.330127e+000  2.500000e+000  5.000000e-001
      vertex  2.831559e+000  2.057248e+000  5.000000e-001
      vertex  5.000000e+000  0.000000e+000  5.000000e-001
    endloop
  endfacet
  facet normal  0.000000e+000  0.000000e+000  9.999999e-001
    outer loop
      vertex  5.000000e+000  0.000000e+000  5.000000e-001
      vertex  2.831559e+000  2.057248e+000  5.000000e-001
      vertex  3.500000e+000  0.000000e+000  5.000000e-001
    endloop
  endfacet
  facet normal  -0.000000e+000  0.000000e+000  1.000000e+000
    outer loop
      vertex  5.000000e+000  0.000000e+000  5.000000e-001
      vertex  3.500000e+000  0.000000e+000  5.000000e-001
      vertex  4.330127e+000 -2.500000e+000  5.000000e-001
    endloop
  endfacet
  facet normal  0.000000e+000  0.000000e+000  9.999999e-001
    outer loop
      vertex  4.330127e+000 -2.500000e+000  5.000000e-001
      vertex  3.500000e+000  0.000000e+000  5.000000e-001
      vertex  2.831559e+000 -2.057248e+000  5.000000e-001
    endloop
  endfacet
  facet normal  0.000000e+000  0.000000e+000  9.999999e-001
    outer loop
      vertex  4.330127e+000 -2.500000e+000  5.000000e-001
      vertex  2.831559e+000 -2.057248e+000  5.000000e-001
      vertex  2.500000e+000 -4.330127e+000  5.000000e-001
    endloop
  endfacet
  facet normal  0.000000e+000  -0.000000e+000  1.000000e+000
    outer loop
      vertex  2.500000e+000 -4.330127e+000  5.000000e-001
      vertex  2.831559e+000 -2.057248e+000  5.000000e-001
      vertex  1.081560e+000 -3.328698e+000  5.000000e-001
    endloop
  endfacet
  facet normal  0.000000e+000  0.000000e+000  1.000000e+000
    outer loop
      vertex  2.500000e+000 -4.330127e+000  5.000000e-001
      vertex  1.081560e+000 -3.328698e+000  5.000000e-001
      vertex -9.184548e-016 -5.000000e+000  5.000000e-001
    endloop
  endfacet
  facet normal  0.000000e+000  -0.000000e+000  1.000000e+000
    outer loop
      vertex -9.184548e-016 -5.000000e+000  5.000000e-001
      vertex  1.081560e+000 -3.328698e+000  5.000000e-001
      vertex -1.081560e+000 -3.328698e+000  5.000000e-001
    endloop
  endfacet
  facet normal  0.000000e+000  0.000000e+000  1.000000e+000
    outer loop
      vertex -9.184548e-016 -5.000000e+000  5.000000e-001
      vertex -1.081560e+000 -3.328698e+000  5.000000e-001
      vertex -2.500000e+000 -4.330127e+000  5.000000e-001
    endloop
  endfacet
  facet normal  0.000000e+000  0.000000e+000  1.000000e+000
    outer loop
      vertex -2.500000e+000 -4.330127e+000  5.000000e-001
      vertex -1.081560e+000 -3.328698e+000  5.000000e-001
      vertex -4.330127e+000 -2.500000e+000  5.000000e-001
    endloop
  endfacet
  facet normal  -0.000000e+000  0.000000e+000  1.000000e+000
    outer loop
      vertex -4.330127e+000 -2.500000e+000  5.000000e-001
      vertex -1.081560e+000 -3.328698e+000  5.000000e-001
      vertex -2.831559e+000 -2.057248e+000  5.000000e-001
    endloop
  endfacet
  facet normal  0.000000e+000  0.000000e+000  1.000000e+000
    outer loop
      vertex -4.330127e+000 -2.500000e+000  5.000000e-001
      vertex -2.831559e+000 -2.057248e+000  5.000000e-001
      vertex -5.000000e+000  6.123032e-016  5.000000e-001
    endloop
  endfacet
  facet normal  0.000000e+000  0.000000e+000  1.000000e+000
    outer loop
      vertex -5.000000e+000  6.123032e-016  5.000000e-001
      vertex -2.831559e+000 -2.057248e+000  5.000000e-001
      vertex -3.500000e+000  4.286122e-016  5.000000e-001
    endloop
  endfacet
  facet normal  0.000000e+000  0.000000e+000  1.000000e+000
    outer loop
      vertex -5.000000e+000  6.123032e-016  5.000000e-001
      vertex -3.500000e+000  4.286122e-016  5.000000e-001
      vertex -4.330127e+000  2.500000e+000  5.000000e-001
    endloop
  endfacet
  facet normal  0.000000e+000  0.000000e+000  9.999999e-001
    outer loop
      vertex -4.330127e+000  2.500000e+000  5.000000e-001
      vertex -3.500000e+000  4.286122e-016  5.000000e-001
      vertex -2.831559e+000  2.057248e+000  5.000000e-001
    endloop
  endfacet
  facet normal  0.000000e+000  -0.000000e+000  9.999999e-001
    outer loop
      vertex -4.330127e+000  2.500000e+000  5.000000e-001
      vertex -2.831559e+000  2.057248e+000  5.000000e-001
      vertex -2.500000e+000  4.330127e+000  5.000000e-001
    endloop
  endfacet
  facet normal  0.000000e+000  0.000000e+000  1.000000e+000
    outer loop
      vertex -2.500000e+000  4.330127e+000  5.000000e-001
      vertex -2.831559e+000  2.057248e+000  5.000000e-001
      vertex -1.081560e+000  3.328698e+000  5.000000e-001
    endloop
  endfacet
  facet normal  0.000000e+000  -0.000000e+000  1.000000e+000
    outer loop
      vertex -2.500000e+000  4.330127e+000  5.000000e-001
      vertex -1.081560e+000  3.328698e+000  5.000000e-001
      vertex  3.061516e-016  5.000000e+000  5.000000e-001
    endloop
  endfacet
  facet normal  9.659259e-001 -2.588190e-001  0.000000e+000
    outer loop
      vertex  5.000000e+000  0.000000e+000  0.000000e+000
      vertex  5.000000e+000  0.000000e+000  5.000000e-001
      vertex  4.330127e+000 -2.500000e+000  0.000000e+000
    endloop
  endfacet
  facet normal  9.659259e-001 -2.588190e-001  0.000000e+000
    outer loop
      vertex  4.330127e+000 -2.500000e+000  0.000000e+000
      vertex  5.000000e+000  0.000000e+000  5.000000e-001
      vertex  4.330127e+000 -2.500000e+000  5.000000e-001
    endloop
  endfacet
  facet normal  7.071068e-001 -7.071068e-001  0.000000e+000
    outer loop
      vertex  4.330127e+000 -2.500000e+000  0.000000e+000
      vertex  4.330127e+000 -2.500000e+000  5.000000e-001
      vertex  2.500000e+000 -4.330127e+000  0.000000e+000
    endloop
  endfacet
  facet normal  7.071068e-001 -7.071068e-001  0.000000e+000
    outer loop
      vertex  2.500000e+000 -4.330127e+000  0.000000e+000
      vertex  4.330127e+000 -2.500000e+000  5.000000e-001
      vertex  2.500000e+000 -4.330127e+000  5.000000e-001
    endloop
  endfacet
  facet normal  2.588190e-001 -9.659259e-001  0.000000e+000
    outer loop
      vertex  2.500000e+000 -4.330127e+000  0.000000e+000
      vertex  2.500000e+000 -4.330127e+000  5.000000e-001
      vertex -9.184548e-016 -5.000000e+000  0.000000e+000
    endloop
  endfacet
  facet normal  2.588190e-001 -9.659259e-001  0.000000e+000
    outer loop
      vertex -9.184548e-016 -5.000000e+000  0.000000e+000
      vertex  2.500000e+000 -4.330127e+000  5.000000e-001
      vertex -9.184548e-016 -5.000000e+000  5.000000e-001
    endloop
  endfacet
  facet normal -2.588190e-001 -9.659259e-001  -0.000000e+000
    outer loop
      vertex -9.184548e-016 -5.000000e+000  0.000000e+000
      vertex -9.184548e-016 -5.000000e+000  5.000000e-001
      vertex -2.500000e+000 -4.330127e+000  0.000000e+000
    endloop
  endfacet
  facet normal -2.588190e-001 -9.659259e-001  0.000000e+000
    outer loop
      vertex -2.500000e+000 -4.330127e+000  0.000000e+000
      vertex -9.184548e-016 -5.000000e+000  5.000000e-001
      vertex -2.500000e+000 -4.330127e+000  5.000000e-001
    endloop
  endfacet
  facet normal -7.071068e-001 -7.071068e-001  -0.000000e+000
    outer loop
      vertex -2.500000e+000 -4.330127e+000  0.000000e+000
      vertex -2.500000e+000 -4.330127e+000  5.000000e-001
      vertex -4.330127e+000 -2.500000e+000  0.000000e+000
    endloop
  endfacet
  facet normal -7.071068e-001 -7.071068e-001  0.000000e+000
    outer loop
      vertex -4.330127e+000 -2.500000e+000  0.000000e+000
      vertex -2.500000e+000 -4.330127e+000  5.000000e-001
      vertex -4.330127e+000 -2.500000e+000  5.000000e-001
    endloop
  endfacet
  facet normal -9.659259e-001 -2.588190e-001  -0.000000e+000
    outer loop
      vertex -4.330127e+000 -2.500000e+000  0.000000e+000
      vertex -4.330127e+000 -2.500000e+000  5.000000e-001
      vertex -5.000000e+000  6.123032e-016  0.000000e+000
    endloop
  endfacet
  facet normal -9.659259e-001 -2.588190e-001  0.000000e+000
    outer loop
      vertex -5.000000e+000  6.123032e-016  0.000000e+000
      vertex -4.330127e+000 -2.500000e+000  5.000000e-001
      vertex -5.000000e+000  6.123032e-016  5.000000e-001
    endloop
  endfacet
  facet normal -9.659259e-001  2.588190e-001  0.000000e+000
    outer loop
      vertex -5.000000e+000  6.123032e-016  0.000000e+000
      vertex -5.000000e+000  6.123032e-016  5.000000e-001
      vertex -4.330127e+000  2.500000e+000  0.000000e+000
    endloop
  endfacet
  facet normal -9.659259e-001  2.588190e-001  0.000000e+000
    outer loop
      vertex -4.330127e+000  2.500000e+000  0.000000e+000
      vertex -5.000000e+000  6.123032e-016  5.000000e-001
      vertex -4.330127e+000  2.500000e+000  5.000000e-001
    endloop
  endfacet
  facet normal -7.071068e-001  7.071068e-001  0.000000e+000
    outer loop
      vertex -4.330127e+000  2.500000e+000  0.000000e+000
      vertex -4.330127e+000  2.500000e+000  5.000000e-001
      vertex -2.500000e+000  4.330127e+000  0.000000e+000
    endloop
  endfacet
  facet normal -7.071068e-001  7.071068e-001  0.000000e+000
    outer loop
      vertex -2.500000e+000  4.330127e+000  0.000000e+000
      vertex -4.330127e+000  2.500000e+000  5.000000e-001
      vertex -2.500000e+000  4.330127e+000  5.000000e-001
    endloop
  endfacet
  facet normal -2.588190e-001  9.659259e-001  0.000000e+000
    outer loop
      vertex -2.500000e+000  4.330127e+000  0.000000e+000
      vertex -2.500000e+000  4.330127e+000  5.000000e-001
      vertex  3.061516e-016  5.000000e+000  0.000000e+000
    endloop
  endfacet
  facet normal -2.588190e-001  9.659259e-001  0.000000e+000
    outer loop
      vertex  3.061516e-016  5.000000e+000  0.000000e+000
      vertex -2.500000e+000  4.330127e+000  5.000000e-001
      vertex  3.061516e-016  5.000000e+000  5.000000e-001
    endloop
  endfacet
  facet normal  2.588190e-001  9.659259e-001  0.000000e+000
    outer loop
      vertex  3.061516e-016  5.000000e+000  0.000000e+000
      vertex  3.061516e-016  5.000000e+000  5.000000e-001
      vertex  2.500000e+000  4.330127e+000  0.000000e+000
    endloop
  endfacet
  facet normal  2.588190e-001  9.659259e-001  -0.000000e+000
    outer loop
      vertex  2.500000e+000  4.330127e+000  0.000000e+000
      vertex  3.061516e-016  5.000000e+000  5.000000e-001
      vertex  2.500000e+000  4.330127e+000  5.000000e-001
    endloop
  endfacet
  facet normal  7.071068e-001  7.071068e-001  0.000000e+000
    outer loop
      vertex  2.500000e+000  4.330127e+000  0.000000e+000
      vertex  2.500000e+000  4.330127e+000  5.000000e-001
      vertex  4.330127e+000  2.500000e+000  0.000000e+000
    endloop
  endfacet
  facet normal  7.071068e-001  7.071068e-001  -0.000000e+000
    outer loop
      vertex  4.330127e+000  2.500000e+000  0.000000e+000
      vertex  2.500000e+000  4.330127e+000  5.000000e-001
      vertex  4.330127e+000  2.500000e+000  5.000000e-001
    endloop
  endfacet
  facet normal  9.659259e-001  2.588190e-001  0.000000e+000
    outer loop
      vertex  4.330127e+000  2.500000e+000  0.000000e+000
      vertex  4.330127e+000  2.500000e+000  5.000000e-001
      vertex  5.000000e+000  0.000000e+000  0.000000e+000
    endloop
  endfacet
  facet normal  9.659259e-001  2.588190e-001  -0.000000e+000
    outer loop
      vertex  5.000000e+000  0.000000e+000  0.000000e+000
      vertex  4.330127e+000  2.500000e+000  5.000000e-001
      vertex  5.000000e+000  0.000000e+000  5.000000e-001
    endloop
  endfacet
  facet normal  3.797590e-001 -1.233912e-001  9.168193e-001
    outer loop
      vertex  3.500000e+000  0.000000e+000  5.000000e-001
      vertex  3.146447e+000  0.000000e+000  6.464466e-001
      vertex  2.831559e+000 -2.057248e+000  5.000000e-001
    endloop
  endfacet
  facet normal  3.797591e-001 -1.233912e-001  9.168193e-001
    outer loop
      vertex  2.831559e+000 -2.057248e+000  5.000000e-001
      vertex  3.146447e+000  0.000000e+000  6.464466e-001
      vertex  2.545529e+000 -1.849435e+000  6.464466e-001
    endloop
  endfacet
  facet normal  8.848706e-001 -2.875119e-001  3.665256e-001
    outer loop
      vertex  3.146447e+000  0.000000e+000  6.464466e-001
      vertex  3.000000e+000  0.000000e+000  1.000000e+000
      vertex  2.545529e+000 -1.849435e+000  6.464466e-001
    endloop
  endfacet
  facet normal  8.848706e-001 -2.875119e-001  3.665255e-001
    outer loop
      vertex  2.545529e+000 -1.849435e+000  6.464466e-001
      vertex  3.000000e+000  0.000000e+000  1.000000e+000
      vertex  2.427051e+000 -1.763356e+000  1.000000e+000
    endloop
  endfacet
  facet normal -3.797592e-001 -1.233912e-001  9.168193e-001
    outer loop
      vertex -2.831559e+000 -2.057248e+000  5.000000e-001
      vertex -2.545529e+000 -1.849435e+000  6.464466e-001
      vertex -3.500000e+000  4.286122e-016  5.000000e-001
    endloop
  endfacet
  facet normal -3.797590e-001 -1.233912e-001  9.168193e-001
    outer loop
      vertex -3.500000e+000  4.286122e-016  5.000000e-001
      vertex -2.545529e+000 -1.849435e+000  6.464466e-001
      vertex -3.146447e+000  3.853158e-016  6.464466e-001
    endloop
  endfacet
  facet normal -8.848706e-001 -2.875119e-001  3.665255e-001
    outer loop
      vertex -2.545529e+000 -1.849435e+000  6.464466e-001
      vertex -2.427051e+000 -1.763356e+000  1.000000e+000
      vertex -3.146447e+000  3.853158e-016  6.464466e-001
    endloop
  endfacet
  facet normal -8.848705e-001 -2.875118e-001  3.665256e-001
    outer loop
      vertex -3.146447e+000  3.853158e-016  6.464466e-001
      vertex -2.427051e+000 -1.763356e+000  1.000000e+000
      vertex -3.000000e+000  3.673819e-016  1.000000e+000
    endloop
  endfacet
  facet normal -2.347039e-001 -3.230422e-001  9.168193e-001
    outer loop
      vertex -1.081560e+000 -3.328698e+000  5.000000e-001
      vertex -9.723055e-001 -2.992449e+000  6.464466e-001
      vertex -2.831559e+000 -2.057248e+000  5.000000e-001
    endloop
  endfacet
  facet normal -2.347040e-001 -3.230424e-001  9.168193e-001
    outer loop
      vertex -2.831559e+000 -2.057248e+000  5.000000e-001
      vertex -9.723055e-001 -2.992449e+000  6.464466e-001
      vertex -2.545529e+000 -1.849435e+000  6.464466e-001
    endloop
  endfacet
  facet normal -5.468801e-001 -7.527159e-001  3.665256e-001
    outer loop
      vertex -9.723055e-001 -2.992449e+000  6.464466e-001
      vertex -9.270510e-001 -2.853169e+000  1.000000e+000
      vertex -2.545529e+000 -1.849435e+000  6.464466e-001
    endloop
  endfacet
  facet normal -5.468801e-001 -7.527158e-001  3.665255e-001
    outer loop
      vertex -2.545529e+000 -1.849435e+000  6.464466e-001
      vertex -9.270510e-001 -2.853169e+000  1.000000e+000
      vertex -2.427051e+000 -1.763356e+000  1.000000e+000
    endloop
  endfacet
  facet normal  0.000000e+000 -3.993021e-001  9.168195e-001
    outer loop
      vertex  1.081560e+000 -3.328698e+000  5.000000e-001
      vertex  9.723055e-001 -2.992449e+000  6.464466e-001
      vertex -1.081560e+000 -3.328698e+000  5.000000e-001
    endloop
  endfacet
  facet normal  0.000000e+000 -3.993021e-001  9.168194e-001
    outer loop
      vertex -1.081560e+000 -3.328698e+000  5.000000e-001
      vertex  9.723055e-001 -2.992449e+000  6.464466e-001
      vertex -9.723055e-001 -2.992449e+000  6.464466e-001
    endloop
  endfacet
  facet normal  0.000000e+000 -9.304079e-001  3.665257e-001
    outer loop
      vertex  9.723055e-001 -2.992449e+000  6.464466e-001
      vertex  9.270510e-001 -2.853169e+000  1.000000e+000
      vertex -9.723055e-001 -2.992449e+000  6.464466e-001
    endloop
  endfacet
  facet normal  0.000000e+000 -9.304079e-001  3.665257e-001
    outer loop
      vertex -9.723055e-001 -2.992449e+000  6.464466e-001
      vertex  9.270510e-001 -2.853169e+000  1.000000e+000
      vertex -9.270510e-001 -2.853169e+000  1.000000e+000
    endloop
  endfacet
  facet normal  2.347040e-001 -3.230424e-001  9.168193e-001
    outer loop
      vertex  2.831559e+000 -2.057248e+000  5.000000e-001
      vertex  2.545529e+000 -1.849435e+000  6.464466e-001
      vertex  1.081560e+000 -3.328698e+000  5.000000e-001
    endloop
  endfacet
  facet normal  2.347039e-001 -3.230422e-001  9.168194e-001
    outer loop
      vertex  1.081560e+000 -3.328698e+000  5.000000e-001
      vertex  2.545529e+000 -1.849435e+000  6.464466e-001
      vertex  9.723055e-001 -2.992449e+000  6.464466e-001
    endloop
  endfacet
  facet normal  5.468801e-001 -7.527159e-001  3.665256e-001
    outer loop
      vertex  2.545529e+000 -1.849435e+000  6.464466e-001
      vertex  2.427051e+000 -1.763356e+000  1.000000e+000
      vertex  9.723055e-001 -2.992449e+000  6.464466e-001
    endloop
  endfacet
  facet normal  5.468801e-001 -7.527158e-001  3.665256e-001
    outer loop
      vertex  9.723055e-001 -2.992449e+000  6.464466e-001
      vertex  2.427051e+000 -1.763356e+000  1.000000e+000
      vertex  9.270510e-001 -2.853169e+000  1.000000e+000
    endloop
  endfacet
  facet normal -9.510565e-001  3.090169e-001  2.903399e-016
    outer loop
      vertex -3.000000e+000  3.673819e-016  1.000000e+000
      vertex -3.000000e+000 -1.699650e-015  3.200000e+000
      vertex -2.427051e+000  1.763356e+000  1.000000e+000
    endloop
  endfacet
  facet normal -9.510565e-001  3.090169e-001  0.000000e+000
    outer loop
      vertex -2.427051e+000  1.763356e+000  1.000000e+000
      vertex -3.000000e+000 -1.699650e-015  3.200000e+000
      vertex -2.427051e+000  1.763356e+000  3.200000e+000
    endloop
  endfacet
  facet normal -5.877852e-001  8.090170e-001  0.000000e+000
    outer loop
      vertex -2.427051e+000  1.763356e+000  1.000000e+000
      vertex -2.427051e+000  1.763356e+000  3.200000e+000
      vertex -9.270510e-001  2.853169e+000  1.000000e+000
    endloop
  endfacet
  facet normal -5.877852e-001  8.090170e-001  0.000000e+000
    outer loop
      vertex -9.270510e-001  2.853169e+000  1.000000e+000
      vertex -2.427051e+000  1.763356e+000  3.200000e+000
      vertex -9.270510e-001  2.853169e+000  3.200000e+000
    endloop
  endfacet
  facet normal  0.000000e+000  1.000000e+000  0.000000e+000
    outer loop
      vertex -9.270510e-001  2.853169e+000  1.000000e+000
      vertex -9.270510e-001  2.853169e+000  3.200000e+000
      vertex  9.270510e-001  2.853169e+000  1.000000e+000
    endloop
  endfacet
  facet normal  0.000000e+000  1.000000e+000  -0.000000e+000
    outer loop
      vertex  9.270510e-001  2.853169e+000  1.000000e+000
      vertex -9.270510e-001  2.853169e+000  3.200000e+000
      vertex  9.270510e-001  2.853169e+000  3.200000e+000
    endloop
  endfacet
  facet normal  5.877852e-001  8.090170e-001  0.000000e+000
    outer loop
      vertex  9.270510e-001  2.853169e+000  1.000000e+000
      vertex  9.270510e-001  2.853169e+000  3.200000e+000
      vertex  2.427051e+000  1.763356e+000  1.000000e+000
    endloop
  endfacet
  facet normal  5.877852e-001  8.090170e-001  -0.000000e+000
    outer loop
      vertex  2.427051e+000  1.763356e+000  1.000000e+000
      vertex  9.270510e-001  2.853169e+000  3.200000e+000
      vertex  2.427051e+000  1.763356e+000  3.200000e+000
    endloop
  endfacet
  facet normal  9.510565e-001  3.090169e-001  0.000000e+000
    outer loop
      vertex  2.427051e+000  1.763356e+000  1.000000e+000
      vertex  2.427051e+000  1.763356e+000  3.200000e+000
      vertex  3.000000e+000  0.000000e+000  1.000000e+000
    endloop
  endfacet
  facet normal  9.510565e-001  3.090169e-001  -0.000000e+000
    outer loop
      vertex  3.000000e+000  0.000000e+000  1.000000e+000
      vertex  2.427051e+000  1.763356e+000  3.200000e+000
      vertex  3.000000e+000  0.000000e+000  3.200000e+000
    endloop
  endfacet
  facet normal -8.987344e-001  2.920164e-001  3.271129e-001
    outer loop
      vertex -3.000000e+000 -1.699650e-015  3.200000e+000
      vertex -2.890809e+000 -3.540103e-016  3.500000e+000
      vertex -2.427051e+000  1.763356e+000  3.200000e+000
    endloop
  endfacet
  facet normal -8.987346e-001  2.920164e-001  3.271126e-001
    outer loop
      vertex -2.427051e+000  1.763356e+000  3.200000e+000
      vertex -2.890809e+000 -3.540103e-016  3.500000e+000
      vertex -2.338714e+000  1.699175e+000  3.500000e+000
    endloop
  endfacet
  facet normal -5.554485e-001  7.645093e-001  3.271125e-001
    outer loop
      vertex -2.427051e+000  1.763356e+000  3.200000e+000
      vertex -2.338714e+000  1.699175e+000  3.500000e+000
      vertex -9.270510e-001  2.853169e+000  3.200000e+000
    endloop
  endfacet
  facet normal -5.554485e-001  7.645092e-001  3.271124e-001
    outer loop
      vertex -9.270510e-001  2.853169e+000  3.200000e+000
      vertex -2.338714e+000  1.699175e+000  3.500000e+000
      vertex -8.933091e-001  2.749323e+000  3.500000e+000
    endloop
  endfacet
  facet normal  0.000000e+000  9.449855e-001  3.271124e-001
    outer loop
      vertex -9.270510e-001  2.853169e+000  3.200000e+000
      vertex -8.933091e-001  2.749323e+000  3.500000e+000
      vertex  9.270510e-001  2.853169e+000  3.200000e+000
    endloop
  endfacet
  facet normal  0.000000e+000  9.449854e-001  3.271124e-001
    outer loop
      vertex  9.270510e-001  2.853169e+000  3.200000e+000
      vertex -8.933091e-001  2.749323e+000  3.500000e+000
      vertex  8.933091e-001  2.749323e+000  3.500000e+000
    endloop
  endfacet
  facet normal  5.554485e-001  7.645093e-001  3.271124e-001
    outer loop
      vertex  9.270510e-001  2.853169e+000  3.200000e+000
      vertex  8.933091e-001  2.749323e+000  3.500000e+000
      vertex  2.427051e+000  1.763356e+000  3.200000e+000
    endloop
  endfacet
  facet normal  5.554485e-001  7.645093e-001  3.271125e-001
    outer loop
      vertex  2.427051e+000  1.763356e+000  3.200000e+000
      vertex  8.933091e-001  2.749323e+000  3.500000e+000
      vertex  2.338714e+000  1.699175e+000  3.500000e+000
    endloop
  endfacet
  facet normal  8.987346e-001  2.920165e-001  3.271126e-001
    outer loop
      vertex  2.427051e+000  1.763356e+000  3.200000e+000
      vertex  2.338714e+000  1.699175e+000  3.500000e+000
      vertex  3.000000e+000  0.000000e+000  3.200000e+000
    endloop
  endfacet
  facet normal  8.987344e-001  2.920164e-001  3.271129e-001
    outer loop
      vertex  3.000000e+000  0.000000e+000  3.200000e+000
      vertex  2.338714e+000  1.699175e+000  3.500000e+000
      vertex  2.890809e+000  7.080206e-016  3.500000e+000
    endloop
  endfacet
  facet normal -3.826834e-001  9.238795e-001  0.000000e+000
    outer loop
      vertex -4.592274e-016 -2.500000e+000  0.000000e+000
      vertex  1.767767e+000 -1.767767e+000  3.500000e+000
      vertex  1.767767e+000 -1.767767e+000  0.000000e+000
    endloop
  endfacet
  facet normal -9.238795e-001  3.826834e-001  0.000000e+000
    outer loop
      vertex  1.767767e+000 -1.767767e+000  0.000000e+000
      vertex  1.767767e+000 -1.767767e+000  3.500000e+000
      vertex  2.500000e+000  0.000000e+000  3.500000e+000
    endloop
  endfacet
  facet normal -9.238795e-001  3.826834e-001 -6.694808e-017
    outer loop
      vertex  1.767767e+000 -1.767767e+000  0.000000e+000
      vertex  2.500000e+000  0.000000e+000  3.500000e+000
      vertex  2.500000e+000 -6.123032e-016  0.000000e+000
    endloop
  endfacet
  facet normal -3.826834e-001  9.238795e-001  0.000000e+000
    outer loop
      vertex  1.767767e+000 -1.767767e+000  3.500000e+000
      vertex -4.592274e-016 -2.500000e+000  0.000000e+000
      vertex -4.592274e-016 -2.500000e+000  3.500000e+000
    endloop
  endfacet
  facet normal  3.826834e-001  9.238795e-001  0.000000e+000
    outer loop
      vertex -4.592274e-016 -2.500000e+000  3.500000e+000
      vertex -4.592274e-016 -2.500000e+000  0.000000e+000
      vertex -1.767767e+000 -1.767767e+000  0.000000e+000
    endloop
  endfacet
  facet normal  3.826834e-001  9.238795e-001  -0.000000e+000
    outer loop
      vertex -4.592274e-016 -2.500000e+000  3.500000e+000
      vertex -1.767767e+000 -1.767767e+000  0.000000e+000
      vertex -1.767767e+000 -1.767767e+000  3.500000e+000
    endloop
  endfacet
  facet normal  9.238795e-001  3.826834e-001  0.000000e+000
    outer loop
      vertex -1.767767e+000 -1.767767e+000  3.500000e+000
      vertex -1.767767e+000 -1.767767e+000  0.000000e+000
      vertex -2.500000e+000  3.061516e-016  0.000000e+000
    endloop
  endfacet
  facet normal  9.238795e-001  3.826834e-001  -0.000000e+000
    outer loop
      vertex -1.767767e+000 -1.767767e+000  3.500000e+000
      vertex -2.500000e+000  3.061516e-016  0.000000e+000
      vertex -2.500000e+000  3.061516e-016  3.500000e+000
    endloop
  endfacet
endsolid CATIA STL
