solid CATIA STL
  facet normal  2.721248e-001  0.000000e+000  9.622620e-001
    outer loop
      vertex  2.876553e+000  0.000000e+000  5.265495e+000
      vertex  2.876553e+000  1.200000e+001  5.265495e+000
      vertex  3.070721e-001  0.000000e+000  5.992137e+000
    endloop
  endfacet
  facet normal  2.721248e-001  -0.000000e+000  9.622620e-001
    outer loop
      vertex  3.070721e-001  0.000000e+000  5.992137e+000
      vertex  2.876553e+000  1.200000e+001  5.265495e+000
      vertex  3.070721e-001  1.200000e+001  5.992137e+000
    endloop
  endfacet
  facet normal -1.723338e-001  0.000000e+000  9.850386e-001
    outer loop
      vertex  3.070721e-001  0.000000e+000  5.992137e+000
      vertex  3.070721e-001  1.200000e+001  5.992137e+000
      vertex -2.323228e+000  0.000000e+000  5.531962e+000
    endloop
  endfacet
  facet normal -1.723338e-001  0.000000e+000  9.850386e-001
    outer loop
      vertex -2.323228e+000  0.000000e+000  5.531962e+000
      vertex  3.070721e-001  1.200000e+001  5.992137e+000
      vertex -2.323228e+000  1.200000e+001  5.531962e+000
    endloop
  endfacet
  facet normal -5.826596e-001  0.000000e+000  8.127164e-001
    outer loop
      vertex -2.323228e+000  0.000000e+000  5.531962e+000
      vertex -2.323228e+000  1.200000e+001  5.531962e+000
      vertex -4.493385e+000  0.000000e+000  3.976115e+000
    endloop
  endfacet
  facet normal -5.826596e-001  0.000000e+000  8.127164e-001
    outer loop
      vertex -4.493385e+000  0.000000e+000  3.976115e+000
      vertex -2.323228e+000  1.200000e+001  5.531962e+000
      vertex -4.493385e+000  1.200000e+001  3.976115e+000
    endloop
  endfacet
  facet normal -8.775827e-001  0.000000e+000  4.794254e-001
    outer loop
      vertex -4.493385e+000  0.000000e+000  3.976115e+000
      vertex -4.493385e+000  1.200000e+001  3.976115e+000
      vertex -5.773571e+000  0.000000e+000  1.632749e+000
    endloop
  endfacet
  facet normal -8.775827e-001  0.000000e+000  4.794254e-001
    outer loop
      vertex -5.773571e+000  0.000000e+000  1.632749e+000
      vertex -4.493385e+000  1.200000e+001  3.976115e+000
      vertex -5.773571e+000  1.200000e+001  1.632749e+000
    endloop
  endfacet
  facet normal -9.986895e-001  0.000000e+000  5.117874e-002
    outer loop
      vertex -5.773571e+000  0.000000e+000  1.632749e+000
      vertex -5.773571e+000  1.200000e+001  1.632749e+000
      vertex -5.910232e+000  0.000000e+000 -1.034003e+000
    endloop
  endfacet
  facet normal -9.986895e-001  0.000000e+000  5.117874e-002
    outer loop
      vertex -5.910232e+000  0.000000e+000 -1.034003e+000
      vertex -5.773571e+000  1.200000e+001  1.632749e+000
      vertex -5.910232e+000  1.200000e+001 -1.034003e+000
    endloop
  endfacet
  facet normal -9.219938e-001  -0.000000e+000 -3.872047e-001
    outer loop
      vertex -5.910232e+000  0.000000e+000 -1.034003e+000
      vertex -5.910232e+000  1.200000e+001 -1.034003e+000
      vertex -4.876298e+000  0.000000e+000 -3.495958e+000
    endloop
  endfacet
  facet normal -9.219938e-001  0.000000e+000 -3.872047e-001
    outer loop
      vertex -4.876298e+000  0.000000e+000 -3.495958e+000
      vertex -5.910232e+000  1.200000e+001 -1.034003e+000
      vertex -4.876298e+000  1.200000e+001 -3.495958e+000
    endloop
  endfacet
  facet normal -6.626858e-001  -0.000000e+000 -7.488976e-001
    outer loop
      vertex -4.876298e+000  0.000000e+000 -3.495958e+000
      vertex -4.876298e+000  1.200000e+001 -3.495958e+000
      vertex -2.876553e+000  0.000000e+000 -5.265495e+000
    endloop
  endfacet
  facet normal -6.626858e-001  0.000000e+000 -7.488976e-001
    outer loop
      vertex -2.876553e+000  0.000000e+000 -5.265495e+000
      vertex -4.876298e+000  1.200000e+001 -3.495958e+000
      vertex -2.876553e+000  1.200000e+001 -5.265495e+000
    endloop
  endfacet
  facet normal -2.721248e-001  -0.000000e+000 -9.622620e-001
    outer loop
      vertex -2.876553e+000  0.000000e+000 -5.265495e+000
      vertex -2.876553e+000  1.200000e+001 -5.265495e+000
      vertex -3.070721e-001  0.000000e+000 -5.992137e+000
    endloop
  endfacet
  facet normal -2.721248e-001  0.000000e+000 -9.622620e-001
    outer loop
      vertex -3.070721e-001  0.000000e+000 -5.992137e+000
      vertex -2.876553e+000  1.200000e+001 -5.265495e+000
      vertex -3.070721e-001  1.200000e+001 -5.992137e+000
    endloop
  endfacet
  facet normal  1.723338e-001  0.000000e+000 -9.850386e-001
    outer loop
      vertex -3.070721e-001  0.000000e+000 -5.992137e+000
      vertex -3.070721e-001  1.200000e+001 -5.992137e+000
      vertex  2.323228e+000  0.000000e+000 -5.531962e+000
    endloop
  endfacet
  facet normal  1.723338e-001  0.000000e+000 -9.850386e-001
    outer loop
      vertex  2.323228e+000  0.000000e+000 -5.531962e+000
      vertex -3.070721e-001  1.200000e+001 -5.992137e+000
      vertex  2.323228e+000  1.200000e+001 -5.531962e+000
    endloop
  endfacet
  facet normal  5.826596e-001  0.000000e+000 -8.127164e-001
    outer loop
      vertex  2.323228e+000  0.000000e+000 -5.531962e+000
      vertex  2.323228e+000  1.200000e+001 -5.531962e+000
      vertex  4.493385e+000  0.000000e+000 -3.976115e+000
    endloop
  endfacet
  facet normal  5.826596e-001  0.000000e+000 -8.127164e-001
    outer loop
      vertex  4.493385e+000  0.000000e+000 -3.976115e+000
      vertex  2.323228e+000  1.200000e+001 -5.531962e+000
      vertex  4.493385e+000  1.200000e+001 -3.976115e+000
    endloop
  endfacet
  facet normal  8.775827e-001  0.000000e+000 -4.794254e-001
    outer loop
      vertex  4.493385e+000  0.000000e+000 -3.976115e+000
      vertex  4.493385e+000  1.200000e+001 -3.976115e+000
      vertex  5.773571e+000  0.000000e+000 -1.632749e+000
    endloop
  endfacet
  facet normal  8.775827e-001  0.000000e+000 -4.794254e-001
    outer loop
      vertex  5.773571e+000  0.000000e+000 -1.632749e+000
      vertex  4.493385e+000  1.200000e+001 -3.976115e+000
      vertex  5.773571e+000  1.200000e+001 -1.632749e+000
    endloop
  endfacet
  facet normal  9.986895e-001  0.000000e+000 -5.117874e-002
    outer loop
      vertex  5.773571e+000  0.000000e+000 -1.632749e+000
      vertex  5.773571e+000  1.200000e+001 -1.632749e+000
      vertex  5.910232e+000  0.000000e+000  1.034003e+000
    endloop
  endfacet
  facet normal  9.986895e-001  0.000000e+000 -5.117874e-002
    outer loop
      vertex  5.910232e+000  0.000000e+000  1.034003e+000
      vertex  5.773571e+000  1.200000e+001 -1.632749e+000
      vertex  5.910232e+000  1.200000e+001  1.034003e+000
    endloop
  endfacet
  facet normal  9.219938e-001  0.000000e+000  3.872047e-001
    outer loop
      vertex  5.910232e+000  0.000000e+000  1.034003e+000
      vertex  5.910232e+000  1.200000e+001  1.034003e+000
      vertex  4.876298e+000  0.000000e+000  3.495958e+000
    endloop
  endfacet
  facet normal  9.219938e-001  -0.000000e+000  3.872047e-001
    outer loop
      vertex  4.876298e+000  0.000000e+000  3.495958e+000
      vertex  5.910232e+000  1.200000e+001  1.034003e+000
      vertex  4.876298e+000  1.200000e+001  3.495958e+000
    endloop
  endfacet
  facet normal  6.626858e-001  0.000000e+000  7.488976e-001
    outer loop
      vertex  4.876298e+000  0.000000e+000  3.495958e+000
      vertex  4.876298e+000  1.200000e+001  3.495958e+000
      vertex  2.876553e+000  0.000000e+000  5.265495e+000
    endloop
  endfacet
  facet normal  6.626858e-001  -0.000000e+000  7.488976e-001
    outer loop
      vertex  2.876553e+000  0.000000e+000  5.265495e+000
      vertex  4.876298e+000  1.200000e+001  3.495958e+000
      vertex  2.876553e+000  1.200000e+001  5.265495e+000
    endloop
  endfacet
  facet normal -1.948484e-001  6.980737e-001 -6.890045e-001
    outer loop
      vertex -3.070721e-001  1.200000e+001 -5.992137e+000
      vertex -2.876553e+000  1.200000e+001 -5.265495e+000
      vertex -2.397128e+000  1.300000e+001 -4.387913e+000
    endloop
  endfacet
  facet normal -1.614511e-001  7.292501e-001 -6.649269e-001
    outer loop
      vertex  1.179829e-001  1.300000e+001 -4.998608e+000
      vertex -3.070721e-001  1.200000e+001 -5.992137e+000
      vertex -2.397128e+000  1.300000e+001 -4.387913e+000
    endloop
  endfacet
  facet normal  4.722843e-001  7.292501e-001  4.951180e-001
    outer loop
      vertex  4.876298e+000  1.200000e+001  3.495958e+000
      vertex  4.269930e+000  1.300000e+001  2.601480e+000
      vertex  2.397128e+000  1.300000e+001  4.387913e+000
    endloop
  endfacet
  facet normal  4.745002e-001  6.980737e-001  5.362300e-001
    outer loop
      vertex  2.876553e+000  1.200000e+001  5.265495e+000
      vertex  4.876298e+000  1.200000e+001  3.495958e+000
      vertex  2.397128e+000  1.300000e+001  4.387913e+000
    endloop
  endfacet
  facet normal  6.834698e-001  6.711789e-001  2.870331e-001
    outer loop
      vertex  4.876298e+000  1.200000e+001  3.495958e+000
      vertex  5.910232e+000  1.200000e+001  1.034003e+000
      vertex  4.269930e+000  1.300000e+001  2.601480e+000
    endloop
  endfacet
  facet normal  7.558640e-001  6.535818e-001 -3.873494e-002
    outer loop
      vertex  5.910232e+000  1.200000e+001  1.034003e+000
      vertex  5.773571e+000  1.200000e+001 -1.632749e+000
      vertex  4.998608e+000  1.300000e+001  1.179829e-001
    endloop
  endfacet
  facet normal  6.350759e-001  7.496381e-001  1.863363e-001
    outer loop
      vertex  4.269930e+000  1.300000e+001  2.601480e+000
      vertex  5.910232e+000  1.200000e+001  1.034003e+000
      vertex  4.998608e+000  1.300000e+001  1.179829e-001
    endloop
  endfacet
  facet normal  6.688074e-001  6.474570e-001 -3.653710e-001
    outer loop
      vertex  5.773571e+000  1.200000e+001 -1.632749e+000
      vertex  4.493385e+000  1.200000e+001 -3.976115e+000
      vertex  4.387913e+000  1.300000e+001 -2.397128e+000
    endloop
  endfacet
  facet normal  6.325694e-001  7.591211e-001 -1.535944e-001
    outer loop
      vertex  4.998608e+000  1.300000e+001  1.179829e-001
      vertex  5.773571e+000  1.200000e+001 -1.632749e+000
      vertex  4.387913e+000  1.300000e+001 -2.397128e+000
    endloop
  endfacet
  facet normal  4.409893e-001  6.535817e-001 -6.151091e-001
    outer loop
      vertex  4.493385e+000  1.200000e+001 -3.976115e+000
      vertex  2.323228e+000  1.200000e+001 -5.531962e+000
      vertex  2.601480e+000  1.300000e+001 -4.269930e+000
    endloop
  endfacet
  facet normal  4.710239e-001  7.591211e-001 -4.493013e-001
    outer loop
      vertex  4.387913e+000  1.300000e+001 -2.397128e+000
      vertex  4.493385e+000  1.200000e+001 -3.976115e+000
      vertex  2.601480e+000  1.300000e+001 -4.269930e+000
    endloop
  endfacet
  facet normal  1.277503e-001  6.711788e-001 -7.302046e-001
    outer loop
      vertex  2.323228e+000  1.200000e+001 -5.531962e+000
      vertex -3.070721e-001  1.200000e+001 -5.992137e+000
      vertex  1.179829e-001  1.300000e+001 -4.998608e+000
    endloop
  endfacet
  facet normal  1.863363e-001  7.496381e-001 -6.350759e-001
    outer loop
      vertex  2.601480e+000  1.300000e+001 -4.269930e+000
      vertex  2.323228e+000  1.200000e+001 -5.531962e+000
      vertex  1.179829e-001  1.300000e+001 -4.998608e+000
    endloop
  endfacet
  facet normal  1.948484e-001  6.980737e-001  6.890045e-001
    outer loop
      vertex  3.070721e-001  1.200000e+001  5.992137e+000
      vertex  2.876553e+000  1.200000e+001  5.265495e+000
      vertex  2.397128e+000  1.300000e+001  4.387913e+000
    endloop
  endfacet
  facet normal  1.614511e-001  7.292501e-001  6.649269e-001
    outer loop
      vertex -1.179829e-001  1.300000e+001  4.998608e+000
      vertex  3.070721e-001  1.200000e+001  5.992137e+000
      vertex  2.397128e+000  1.300000e+001  4.387913e+000
    endloop
  endfacet
  facet normal -4.722843e-001  7.292501e-001 -4.951180e-001
    outer loop
      vertex -4.876298e+000  1.200000e+001 -3.495958e+000
      vertex -4.269930e+000  1.300000e+001 -2.601480e+000
      vertex -2.397128e+000  1.300000e+001 -4.387913e+000
    endloop
  endfacet
  facet normal -4.745002e-001  6.980737e-001 -5.362300e-001
    outer loop
      vertex -2.876553e+000  1.200000e+001 -5.265495e+000
      vertex -4.876298e+000  1.200000e+001 -3.495958e+000
      vertex -2.397128e+000  1.300000e+001 -4.387913e+000
    endloop
  endfacet
  facet normal -6.834698e-001  6.711789e-001 -2.870331e-001
    outer loop
      vertex -4.876298e+000  1.200000e+001 -3.495958e+000
      vertex -5.910232e+000  1.200000e+001 -1.034003e+000
      vertex -4.269930e+000  1.300000e+001 -2.601480e+000
    endloop
  endfacet
  facet normal -7.558640e-001  6.535818e-001  3.873494e-002
    outer loop
      vertex -5.910232e+000  1.200000e+001 -1.034003e+000
      vertex -5.773571e+000  1.200000e+001  1.632749e+000
      vertex -4.998608e+000  1.300000e+001 -1.179829e-001
    endloop
  endfacet
  facet normal -6.350759e-001  7.496381e-001 -1.863363e-001
    outer loop
      vertex -4.269930e+000  1.300000e+001 -2.601480e+000
      vertex -5.910232e+000  1.200000e+001 -1.034003e+000
      vertex -4.998608e+000  1.300000e+001 -1.179829e-001
    endloop
  endfacet
  facet normal -6.688074e-001  6.474570e-001  3.653710e-001
    outer loop
      vertex -5.773571e+000  1.200000e+001  1.632749e+000
      vertex -4.493385e+000  1.200000e+001  3.976115e+000
      vertex -4.387913e+000  1.300000e+001  2.397128e+000
    endloop
  endfacet
  facet normal -6.325694e-001  7.591211e-001  1.535944e-001
    outer loop
      vertex -4.998608e+000  1.300000e+001 -1.179829e-001
      vertex -5.773571e+000  1.200000e+001  1.632749e+000
      vertex -4.387913e+000  1.300000e+001  2.397128e+000
    endloop
  endfacet
  facet normal -4.409893e-001  6.535817e-001  6.151091e-001
    outer loop
      vertex -4.493385e+000  1.200000e+001  3.976115e+000
      vertex -2.323228e+000  1.200000e+001  5.531962e+000
      vertex -2.601480e+000  1.300000e+001  4.269930e+000
    endloop
  endfacet
  facet normal -4.710239e-001  7.591211e-001  4.493013e-001
    outer loop
      vertex -4.387913e+000  1.300000e+001  2.397128e+000
      vertex -4.493385e+000  1.200000e+001  3.976115e+000
      vertex -2.601480e+000  1.300000e+001  4.269930e+000
    endloop
  endfacet
  facet normal -1.277503e-001  6.711788e-001  7.302046e-001
    outer loop
      vertex -2.323228e+000  1.200000e+001  5.531962e+000
      vertex  3.070721e-001  1.200000e+001  5.992137e+000
      vertex -1.179829e-001  1.300000e+001  4.998608e+000
    endloop
  endfacet
  facet normal -1.863363e-001  7.496381e-001  6.350759e-001
    outer loop
      vertex -2.601480e+000  1.300000e+001  4.269930e+000
      vertex -2.323228e+000  1.200000e+001  5.531962e+000
      vertex -1.179829e-001  1.300000e+001  4.998608e+000
    endloop
  endfacet
  facet normal  2.721248e-001  0.000000e+000  9.622620e-001
    outer loop
      vertex  2.876553e+000 -1.200000e+001  5.265495e+000
      vertex  2.876553e+000  0.000000e+000  5.265495e+000
      vertex  3.070721e-001 -1.200000e+001  5.992137e+000
    endloop
  endfacet
  facet normal  2.721248e-001  -0.000000e+000  9.622620e-001
    outer loop
      vertex  3.070721e-001 -1.200000e+001  5.992137e+000
      vertex  2.876553e+000  0.000000e+000  5.265495e+000
      vertex  3.070721e-001  0.000000e+000  5.992137e+000
    endloop
  endfacet
  facet normal -1.723338e-001  0.000000e+000  9.850386e-001
    outer loop
      vertex  3.070721e-001 -1.200000e+001  5.992137e+000
      vertex  3.070721e-001  0.000000e+000  5.992137e+000
      vertex -2.323228e+000 -1.200000e+001  5.531962e+000
    endloop
  endfacet
  facet normal -1.723338e-001  0.000000e+000  9.850386e-001
    outer loop
      vertex -2.323228e+000 -1.200000e+001  5.531962e+000
      vertex  3.070721e-001  0.000000e+000  5.992137e+000
      vertex -2.323228e+000  0.000000e+000  5.531962e+000
    endloop
  endfacet
  facet normal -5.826596e-001  0.000000e+000  8.127164e-001
    outer loop
      vertex -2.323228e+000 -1.200000e+001  5.531962e+000
      vertex -2.323228e+000  0.000000e+000  5.531962e+000
      vertex -4.493385e+000 -1.200000e+001  3.976115e+000
    endloop
  endfacet
  facet normal -5.826596e-001  0.000000e+000  8.127164e-001
    outer loop
      vertex -4.493385e+000 -1.200000e+001  3.976115e+000
      vertex -2.323228e+000  0.000000e+000  5.531962e+000
      vertex -4.493385e+000  0.000000e+000  3.976115e+000
    endloop
  endfacet
  facet normal -8.775827e-001  0.000000e+000  4.794254e-001
    outer loop
      vertex -4.493385e+000 -1.200000e+001  3.976115e+000
      vertex -4.493385e+000  0.000000e+000  3.976115e+000
      vertex -5.773571e+000 -1.200000e+001  1.632749e+000
    endloop
  endfacet
  facet normal -8.775827e-001  0.000000e+000  4.794254e-001
    outer loop
      vertex -5.773571e+000 -1.200000e+001  1.632749e+000
      vertex -4.493385e+000  0.000000e+000  3.976115e+000
      vertex -5.773571e+000  0.000000e+000  1.632749e+000
    endloop
  endfacet
  facet normal -9.986895e-001  0.000000e+000  5.117874e-002
    outer loop
      vertex -5.773571e+000 -1.200000e+001  1.632749e+000
      vertex -5.773571e+000  0.000000e+000  1.632749e+000
      vertex -5.910232e+000 -1.200000e+001 -1.034003e+000
    endloop
  endfacet
  facet normal -9.986895e-001  0.000000e+000  5.117874e-002
    outer loop
      vertex -5.910232e+000 -1.200000e+001 -1.034003e+000
      vertex -5.773571e+000  0.000000e+000  1.632749e+000
      vertex -5.910232e+000  0.000000e+000 -1.034003e+000
    endloop
  endfacet
  facet normal -9.219938e-001  -0.000000e+000 -3.872047e-001
    outer loop
      vertex -5.910232e+000 -1.200000e+001 -1.034003e+000
      vertex -5.910232e+000  0.000000e+000 -1.034003e+000
      vertex -4.876298e+000 -1.200000e+001 -3.495958e+000
    endloop
  endfacet
  facet normal -9.219938e-001  0.000000e+000 -3.872047e-001
    outer loop
      vertex -4.876298e+000 -1.200000e+001 -3.495958e+000
      vertex -5.910232e+000  0.000000e+000 -1.034003e+000
      vertex -4.876298e+000  0.000000e+000 -3.495958e+000
    endloop
  endfacet
  facet normal -6.626858e-001  -0.000000e+000 -7.488976e-001
    outer loop
      vertex -4.876298e+000 -1.200000e+001 -3.495958e+000
      vertex -4.876298e+000  0.000000e+000 -3.495958e+000
      vertex -2.876553e+000 -1.200000e+001 -5.265495e+000
    endloop
  endfacet
  facet normal -6.626858e-001  0.000000e+000 -7.488976e-001
    outer loop
      vertex -2.876553e+000 -1.200000e+001 -5.265495e+000
      vertex -4.876298e+000  0.000000e+000 -3.495958e+000
      vertex -2.876553e+000  0.000000e+000 -5.265495e+000
    endloop
  endfacet
  facet normal -2.721248e-001  -0.000000e+000 -9.622620e-001
    outer loop
      vertex -2.876553e+000 -1.200000e+001 -5.265495e+000
      vertex -2.876553e+000  0.000000e+000 -5.265495e+000
      vertex -3.070721e-001 -1.200000e+001 -5.992137e+000
    endloop
  endfacet
  facet normal -2.721248e-001  0.000000e+000 -9.622620e-001
    outer loop
      vertex -3.070721e-001 -1.200000e+001 -5.992137e+000
      vertex -2.876553e+000  0.000000e+000 -5.265495e+000
      vertex -3.070721e-001  0.000000e+000 -5.992137e+000
    endloop
  endfacet
  facet normal  1.723338e-001  0.000000e+000 -9.850386e-001
    outer loop
      vertex -3.070721e-001 -1.200000e+001 -5.992137e+000
      vertex -3.070721e-001  0.000000e+000 -5.992137e+000
      vertex  2.323228e+000 -1.200000e+001 -5.531962e+000
    endloop
  endfacet
  facet normal  1.723338e-001  0.000000e+000 -9.850386e-001
    outer loop
      vertex  2.323228e+000 -1.200000e+001 -5.531962e+000
      vertex -3.070721e-001  0.000000e+000 -5.992137e+000
      vertex  2.323228e+000  0.000000e+000 -5.531962e+000
    endloop
  endfacet
  facet normal  5.826596e-001  0.000000e+000 -8.127164e-001
    outer loop
      vertex  2.323228e+000 -1.200000e+001 -5.531962e+000
      vertex  2.323228e+000  0.000000e+000 -5.531962e+000
      vertex  4.493385e+000 -1.200000e+001 -3.976115e+000
    endloop
  endfacet
  facet normal  5.826596e-001  0.000000e+000 -8.127164e-001
    outer loop
      vertex  4.493385e+000 -1.200000e+001 -3.976115e+000
      vertex  2.323228e+000  0.000000e+000 -5.531962e+000
      vertex  4.493385e+000  0.000000e+000 -3.976115e+000
    endloop
  endfacet
  facet normal  8.775827e-001  0.000000e+000 -4.794254e-001
    outer loop
      vertex  4.493385e+000 -1.200000e+001 -3.976115e+000
      vertex  4.493385e+000  0.000000e+000 -3.976115e+000
      vertex  5.773571e+000 -1.200000e+001 -1.632749e+000
    endloop
  endfacet
  facet normal  8.775827e-001  0.000000e+000 -4.794254e-001
    outer loop
      vertex  5.773571e+000 -1.200000e+001 -1.632749e+000
      vertex  4.493385e+000  0.000000e+000 -3.976115e+000
      vertex  5.773571e+000  0.000000e+000 -1.632749e+000
    endloop
  endfacet
  facet normal  9.986895e-001  0.000000e+000 -5.117874e-002
    outer loop
      vertex  5.773571e+000 -1.200000e+001 -1.632749e+000
      vertex  5.773571e+000  0.000000e+000 -1.632749e+000
      vertex  5.910232e+000 -1.200000e+001  1.034003e+000
    endloop
  endfacet
  facet normal  9.986895e-001  0.000000e+000 -5.117874e-002
    outer loop
      vertex  5.910232e+000 -1.200000e+001  1.034003e+000
      vertex  5.773571e+000  0.000000e+000 -1.632749e+000
      vertex  5.910232e+000  0.000000e+000  1.034003e+000
    endloop
  endfacet
  facet normal  9.219938e-001  0.000000e+000  3.872047e-001
    outer loop
      vertex  5.910232e+000 -1.200000e+001  1.034003e+000
      vertex  5.910232e+000  0.000000e+000  1.034003e+000
      vertex  4.876298e+000 -1.200000e+001  3.495958e+000
    endloop
  endfacet
  facet normal  9.219938e-001  -0.000000e+000  3.872047e-001
    outer loop
      vertex  4.876298e+000 -1.200000e+001  3.495958e+000
      vertex  5.910232e+000  0.000000e+000  1.034003e+000
      vertex  4.876298e+000  0.000000e+000  3.495958e+000
    endloop
  endfacet
  facet normal  6.626858e-001  0.000000e+000  7.488976e-001
    outer loop
      vertex  4.876298e+000 -1.200000e+001  3.495958e+000
      vertex  4.876298e+000  0.000000e+000  3.495958e+000
      vertex  2.876553e+000 -1.200000e+001  5.265495e+000
    endloop
  endfacet
  facet normal  6.626858e-001  -0.000000e+000  7.488976e-001
    outer loop
      vertex  2.876553e+000 -1.200000e+001  5.265495e+000
      vertex  4.876298e+000  0.000000e+000  3.495958e+000
      vertex  2.876553e+000  0.000000e+000  5.265495e+000
    endloop
  endfacet
  facet normal  4.722843e-001 -7.292501e-001  4.951180e-001
    outer loop
      vertex  2.397128e+000 -1.300000e+001  4.387913e+000
      vertex  4.269930e+000 -1.300000e+001  2.601480e+000
      vertex  4.876298e+000 -1.200000e+001  3.495958e+000
    endloop
  endfacet
  facet normal  4.745002e-001 -6.980737e-001  5.362300e-001
    outer loop
      vertex  2.397128e+000 -1.300000e+001  4.387913e+000
      vertex  4.876298e+000 -1.200000e+001  3.495958e+000
      vertex  2.876553e+000 -1.200000e+001  5.265495e+000
    endloop
  endfacet
  facet normal -1.948484e-001 -6.980737e-001 -6.890045e-001
    outer loop
      vertex -2.397128e+000 -1.300000e+001 -4.387913e+000
      vertex -2.876553e+000 -1.200000e+001 -5.265495e+000
      vertex -3.070721e-001 -1.200000e+001 -5.992137e+000
    endloop
  endfacet
  facet normal -1.614511e-001 -7.292501e-001 -6.649269e-001
    outer loop
      vertex -2.397128e+000 -1.300000e+001 -4.387913e+000
      vertex -3.070721e-001 -1.200000e+001 -5.992137e+000
      vertex  1.179829e-001 -1.300000e+001 -4.998608e+000
    endloop
  endfacet
  facet normal  6.834698e-001 -6.711789e-001  2.870331e-001
    outer loop
      vertex  4.269930e+000 -1.300000e+001  2.601480e+000
      vertex  5.910232e+000 -1.200000e+001  1.034003e+000
      vertex  4.876298e+000 -1.200000e+001  3.495958e+000
    endloop
  endfacet
  facet normal  7.558640e-001 -6.535818e-001 -3.873494e-002
    outer loop
      vertex  4.998608e+000 -1.300000e+001  1.179829e-001
      vertex  5.773571e+000 -1.200000e+001 -1.632749e+000
      vertex  5.910232e+000 -1.200000e+001  1.034003e+000
    endloop
  endfacet
  facet normal  6.350759e-001 -7.496381e-001  1.863363e-001
    outer loop
      vertex  4.998608e+000 -1.300000e+001  1.179829e-001
      vertex  5.910232e+000 -1.200000e+001  1.034003e+000
      vertex  4.269930e+000 -1.300000e+001  2.601480e+000
    endloop
  endfacet
  facet normal  6.688074e-001 -6.474570e-001 -3.653710e-001
    outer loop
      vertex  4.387913e+000 -1.300000e+001 -2.397128e+000
      vertex  4.493385e+000 -1.200000e+001 -3.976115e+000
      vertex  5.773571e+000 -1.200000e+001 -1.632749e+000
    endloop
  endfacet
  facet normal  6.325694e-001 -7.591211e-001 -1.535944e-001
    outer loop
      vertex  4.387913e+000 -1.300000e+001 -2.397128e+000
      vertex  5.773571e+000 -1.200000e+001 -1.632749e+000
      vertex  4.998608e+000 -1.300000e+001  1.179829e-001
    endloop
  endfacet
  facet normal  4.409893e-001 -6.535817e-001 -6.151091e-001
    outer loop
      vertex  2.601480e+000 -1.300000e+001 -4.269930e+000
      vertex  2.323228e+000 -1.200000e+001 -5.531962e+000
      vertex  4.493385e+000 -1.200000e+001 -3.976115e+000
    endloop
  endfacet
  facet normal  4.710239e-001 -7.591211e-001 -4.493013e-001
    outer loop
      vertex  2.601480e+000 -1.300000e+001 -4.269930e+000
      vertex  4.493385e+000 -1.200000e+001 -3.976115e+000
      vertex  4.387913e+000 -1.300000e+001 -2.397128e+000
    endloop
  endfacet
  facet normal  1.277503e-001 -6.711788e-001 -7.302046e-001
    outer loop
      vertex  1.179829e-001 -1.300000e+001 -4.998608e+000
      vertex -3.070721e-001 -1.200000e+001 -5.992137e+000
      vertex  2.323228e+000 -1.200000e+001 -5.531962e+000
    endloop
  endfacet
  facet normal  1.863363e-001 -7.496381e-001 -6.350759e-001
    outer loop
      vertex  1.179829e-001 -1.300000e+001 -4.998608e+000
      vertex  2.323228e+000 -1.200000e+001 -5.531962e+000
      vertex  2.601480e+000 -1.300000e+001 -4.269930e+000
    endloop
  endfacet
  facet normal -4.722843e-001 -7.292501e-001 -4.951180e-001
    outer loop
      vertex -2.397128e+000 -1.300000e+001 -4.387913e+000
      vertex -4.269930e+000 -1.300000e+001 -2.601480e+000
      vertex -4.876298e+000 -1.200000e+001 -3.495958e+000
    endloop
  endfacet
  facet normal -4.745002e-001 -6.980737e-001 -5.362300e-001
    outer loop
      vertex -2.397128e+000 -1.300000e+001 -4.387913e+000
      vertex -4.876298e+000 -1.200000e+001 -3.495958e+000
      vertex -2.876553e+000 -1.200000e+001 -5.265495e+000
    endloop
  endfacet
  facet normal  1.948484e-001 -6.980737e-001  6.890045e-001
    outer loop
      vertex  2.397128e+000 -1.300000e+001  4.387913e+000
      vertex  2.876553e+000 -1.200000e+001  5.265495e+000
      vertex  3.070721e-001 -1.200000e+001  5.992137e+000
    endloop
  endfacet
  facet normal  1.614511e-001 -7.292501e-001  6.649269e-001
    outer loop
      vertex  2.397128e+000 -1.300000e+001  4.387913e+000
      vertex  3.070721e-001 -1.200000e+001  5.992137e+000
      vertex -1.179829e-001 -1.300000e+001  4.998608e+000
    endloop
  endfacet
  facet normal -6.834698e-001 -6.711789e-001 -2.870331e-001
    outer loop
      vertex -4.269930e+000 -1.300000e+001 -2.601480e+000
      vertex -5.910232e+000 -1.200000e+001 -1.034003e+000
      vertex -4.876298e+000 -1.200000e+001 -3.495958e+000
    endloop
  endfacet
  facet normal -7.558640e-001 -6.535818e-001  3.873494e-002
    outer loop
      vertex -4.998608e+000 -1.300000e+001 -1.179829e-001
      vertex -5.773571e+000 -1.200000e+001  1.632749e+000
      vertex -5.910232e+000 -1.200000e+001 -1.034003e+000
    endloop
  endfacet
  facet normal -6.350759e-001 -7.496381e-001 -1.863363e-001
    outer loop
      vertex -4.998608e+000 -1.300000e+001 -1.179829e-001
      vertex -5.910232e+000 -1.200000e+001 -1.034003e+000
      vertex -4.269930e+000 -1.300000e+001 -2.601480e+000
    endloop
  endfacet
  facet normal -6.688074e-001 -6.474570e-001  3.653710e-001
    outer loop
      vertex -4.387913e+000 -1.300000e+001  2.397128e+000
      vertex -4.493385e+000 -1.200000e+001  3.976115e+000
      vertex -5.773571e+000 -1.200000e+001  1.632749e+000
    endloop
  endfacet
  facet normal -6.325694e-001 -7.591211e-001  1.535944e-001
    outer loop
      vertex -4.387913e+000 -1.300000e+001  2.397128e+000
      vertex -5.773571e+000 -1.200000e+001  1.632749e+000
      vertex -4.998608e+000 -1.300000e+001 -1.179829e-001
    endloop
  endfacet
  facet normal -4.409893e-001 -6.535817e-001  6.151091e-001
    outer loop
      vertex -2.601480e+000 -1.300000e+001  4.269930e+000
      vertex -2.323228e+000 -1.200000e+001  5.531962e+000
      vertex -4.493385e+000 -1.200000e+001  3.976115e+000
    endloop
  endfacet
  facet normal -4.710239e-001 -7.591211e-001  4.493013e-001
    outer loop
      vertex -2.601480e+000 -1.300000e+001  4.269930e+000
      vertex -4.493385e+000 -1.200000e+001  3.976115e+000
      vertex -4.387913e+000 -1.300000e+001  2.397128e+000
    endloop
  endfacet
  facet normal -1.277503e-001 -6.711788e-001  7.302046e-001
    outer loop
      vertex -1.179829e-001 -1.300000e+001  4.998608e+000
      vertex  3.070721e-001 -1.200000e+001  5.992137e+000
      vertex -2.323228e+000 -1.200000e+001  5.531962e+000
    endloop
  endfacet
  facet normal -1.863363e-001 -7.496381e-001  6.350759e-001
    outer loop
      vertex -1.179829e-001 -1.300000e+001  4.998608e+000
      vertex -2.323228e+000 -1.200000e+001  5.531962e+000
      vertex -2.601480e+000 -1.300000e+001  4.269930e+000
    endloop
  endfacet
  facet normal  0.000000e+000 -9.999999e-001  0.000000e+000
    outer loop
      vertex  3.931125e+000 -5.500000e+001 -7.390912e-001
      vertex -3.614774e+000 -5.500000e+001 -1.712720e+000
      vertex  2.745920e+000 -5.500000e+001 -2.908595e+000
    endloop
  endfacet
  facet normal  -0.000000e+000 -1.000000e+000  0.000000e+000
    outer loop
      vertex  2.745920e+000 -5.500000e+001 -2.908595e+000
      vertex -3.614774e+000 -5.500000e+001 -1.712720e+000
      vertex -1.917702e+000 -5.500000e+001 -3.510330e+000
    endloop
  endfacet
  facet normal  0.000000e+000 -1.000000e+000  0.000000e+000
    outer loop
      vertex  2.745920e+000 -5.500000e+001 -2.908595e+000
      vertex -1.917702e+000 -5.500000e+001 -3.510330e+000
      vertex  5.118671e-001 -5.500000e+001 -3.967114e+000
    endloop
  endfacet
  facet normal  0.000000e+000 -9.999999e-001  0.000000e+000
    outer loop
      vertex -5.118669e-001 -5.500000e+001  3.967114e+000
      vertex -2.745920e+000 -5.500000e+001  2.908595e+000
      vertex  1.917702e+000 -5.500000e+001  3.510330e+000
    endloop
  endfacet
  facet normal  0.000000e+000 -1.000000e+000  0.000000e+000
    outer loop
      vertex  1.917702e+000 -5.500000e+001  3.510330e+000
      vertex -2.745920e+000 -5.500000e+001  2.908595e+000
      vertex -3.931125e+000 -5.500000e+001  7.390909e-001
    endloop
  endfacet
  facet normal  0.000000e+000 -1.000000e+000  0.000000e+000
    outer loop
      vertex  1.917702e+000 -5.500000e+001  3.510330e+000
      vertex -3.931125e+000 -5.500000e+001  7.390909e-001
      vertex  3.614774e+000 -5.500000e+001  1.712720e+000
    endloop
  endfacet
  facet normal  0.000000e+000 -1.000000e+000  0.000000e+000
    outer loop
      vertex  3.614774e+000 -5.500000e+001  1.712720e+000
      vertex -3.931125e+000 -5.500000e+001  7.390909e-001
      vertex -3.614774e+000 -5.500000e+001 -1.712720e+000
    endloop
  endfacet
  facet normal  0.000000e+000 -1.000000e+000  0.000000e+000
    outer loop
      vertex  3.614774e+000 -5.500000e+001  1.712720e+000
      vertex -3.614774e+000 -5.500000e+001 -1.712720e+000
      vertex  3.931125e+000 -5.500000e+001 -7.390912e-001
    endloop
  endfacet
  facet normal  2.359544e-001  0.000000e+000  9.717641e-001
    outer loop
      vertex  2.397128e+000 -5.400000e+001  4.387913e+000
      vertex  2.397128e+000 -1.300000e+001  4.387913e+000
      vertex -1.179829e-001 -5.400000e+001  4.998608e+000
    endloop
  endfacet
  facet normal  2.359544e-001  -0.000000e+000  9.717641e-001
    outer loop
      vertex -1.179829e-001 -5.400000e+001  4.998608e+000
      vertex  2.397128e+000 -1.300000e+001  4.387913e+000
      vertex -1.179829e-001 -1.300000e+001  4.998608e+000
    endloop
  endfacet
  facet normal -2.815395e-001  0.000000e+000  9.595497e-001
    outer loop
      vertex -1.179829e-001 -5.400000e+001  4.998608e+000
      vertex -1.179829e-001 -1.300000e+001  4.998608e+000
      vertex -2.601480e+000 -5.400000e+001  4.269930e+000
    endloop
  endfacet
  facet normal -2.815395e-001  0.000000e+000  9.595497e-001
    outer loop
      vertex -2.601480e+000 -5.400000e+001  4.269930e+000
      vertex -1.179829e-001 -1.300000e+001  4.998608e+000
      vertex -2.601480e+000 -1.300000e+001  4.269930e+000
    endloop
  endfacet
  facet normal -7.235951e-001  0.000000e+000  6.902245e-001
    outer loop
      vertex -2.601480e+000 -5.400000e+001  4.269930e+000
      vertex -2.601480e+000 -1.300000e+001  4.269930e+000
      vertex -4.387913e+000 -5.400000e+001  2.397128e+000
    endloop
  endfacet
  facet normal -7.235951e-001  0.000000e+000  6.902245e-001
    outer loop
      vertex -4.387913e+000 -5.400000e+001  2.397128e+000
      vertex -2.601480e+000 -1.300000e+001  4.269930e+000
      vertex -4.387913e+000 -1.300000e+001  2.397128e+000
    endloop
  endfacet
  facet normal -9.717641e-001  0.000000e+000  2.359544e-001
    outer loop
      vertex -4.387913e+000 -5.400000e+001  2.397128e+000
      vertex -4.387913e+000 -1.300000e+001  2.397128e+000
      vertex -4.998608e+000 -5.400000e+001 -1.179829e-001
    endloop
  endfacet
  facet normal -9.717641e-001  0.000000e+000  2.359544e-001
    outer loop
      vertex -4.998608e+000 -5.400000e+001 -1.179829e-001
      vertex -4.387913e+000 -1.300000e+001  2.397128e+000
      vertex -4.998608e+000 -1.300000e+001 -1.179829e-001
    endloop
  endfacet
  facet normal -9.595497e-001  -0.000000e+000 -2.815395e-001
    outer loop
      vertex -4.998608e+000 -5.400000e+001 -1.179829e-001
      vertex -4.998608e+000 -1.300000e+001 -1.179829e-001
      vertex -4.269930e+000 -5.400000e+001 -2.601480e+000
    endloop
  endfacet
  facet normal -9.595497e-001  0.000000e+000 -2.815395e-001
    outer loop
      vertex -4.269930e+000 -5.400000e+001 -2.601480e+000
      vertex -4.998608e+000 -1.300000e+001 -1.179829e-001
      vertex -4.269930e+000 -1.300000e+001 -2.601480e+000
    endloop
  endfacet
  facet normal -6.902245e-001  -0.000000e+000 -7.235951e-001
    outer loop
      vertex -4.269930e+000 -5.400000e+001 -2.601480e+000
      vertex -4.269930e+000 -1.300000e+001 -2.601480e+000
      vertex -2.397128e+000 -5.400000e+001 -4.387913e+000
    endloop
  endfacet
  facet normal -6.902245e-001  0.000000e+000 -7.235951e-001
    outer loop
      vertex -2.397128e+000 -5.400000e+001 -4.387913e+000
      vertex -4.269930e+000 -1.300000e+001 -2.601480e+000
      vertex -2.397128e+000 -1.300000e+001 -4.387913e+000
    endloop
  endfacet
  facet normal -2.359544e-001  -0.000000e+000 -9.717641e-001
    outer loop
      vertex -2.397128e+000 -5.400000e+001 -4.387913e+000
      vertex -2.397128e+000 -1.300000e+001 -4.387913e+000
      vertex  1.179829e-001 -5.400000e+001 -4.998608e+000
    endloop
  endfacet
  facet normal -2.359544e-001  0.000000e+000 -9.717641e-001
    outer loop
      vertex  1.179829e-001 -5.400000e+001 -4.998608e+000
      vertex -2.397128e+000 -1.300000e+001 -4.387913e+000
      vertex  1.179829e-001 -1.300000e+001 -4.998608e+000
    endloop
  endfacet
  facet normal  2.815395e-001  0.000000e+000 -9.595497e-001
    outer loop
      vertex  1.179829e-001 -5.400000e+001 -4.998608e+000
      vertex  1.179829e-001 -1.300000e+001 -4.998608e+000
      vertex  2.601480e+000 -5.400000e+001 -4.269930e+000
    endloop
  endfacet
  facet normal  2.815395e-001  0.000000e+000 -9.595497e-001
    outer loop
      vertex  2.601480e+000 -5.400000e+001 -4.269930e+000
      vertex  1.179829e-001 -1.300000e+001 -4.998608e+000
      vertex  2.601480e+000 -1.300000e+001 -4.269930e+000
    endloop
  endfacet
  facet normal  7.235951e-001  0.000000e+000 -6.902245e-001
    outer loop
      vertex  2.601480e+000 -5.400000e+001 -4.269930e+000
      vertex  2.601480e+000 -1.300000e+001 -4.269930e+000
      vertex  4.387913e+000 -5.400000e+001 -2.397128e+000
    endloop
  endfacet
  facet normal  7.235951e-001  0.000000e+000 -6.902245e-001
    outer loop
      vertex  4.387913e+000 -5.400000e+001 -2.397128e+000
      vertex  2.601480e+000 -1.300000e+001 -4.269930e+000
      vertex  4.387913e+000 -1.300000e+001 -2.397128e+000
    endloop
  endfacet
  facet normal  9.717641e-001  0.000000e+000 -2.359544e-001
    outer loop
      vertex  4.387913e+000 -5.400000e+001 -2.397128e+000
      vertex  4.387913e+000 -1.300000e+001 -2.397128e+000
      vertex  4.998608e+000 -5.400000e+001  1.179829e-001
    endloop
  endfacet
  facet normal  9.717641e-001  0.000000e+000 -2.359544e-001
    outer loop
      vertex  4.998608e+000 -5.400000e+001  1.179829e-001
      vertex  4.387913e+000 -1.300000e+001 -2.397128e+000
      vertex  4.998608e+000 -1.300000e+001  1.179829e-001
    endloop
  endfacet
  facet normal  9.595497e-001  0.000000e+000  2.815395e-001
    outer loop
      vertex  4.998608e+000 -5.400000e+001  1.179829e-001
      vertex  4.998608e+000 -1.300000e+001  1.179829e-001
      vertex  4.269930e+000 -5.400000e+001  2.601480e+000
    endloop
  endfacet
  facet normal  9.595497e-001  -0.000000e+000  2.815395e-001
    outer loop
      vertex  4.269930e+000 -5.400000e+001  2.601480e+000
      vertex  4.998608e+000 -1.300000e+001  1.179829e-001
      vertex  4.269930e+000 -1.300000e+001  2.601480e+000
    endloop
  endfacet
  facet normal  6.902245e-001  0.000000e+000  7.235951e-001
    outer loop
      vertex  4.269930e+000 -5.400000e+001  2.601480e+000
      vertex  4.269930e+000 -1.300000e+001  2.601480e+000
      vertex  2.397128e+000 -5.400000e+001  4.387913e+000
    endloop
  endfacet
  facet normal  6.902245e-001  -0.000000e+000  7.235951e-001
    outer loop
      vertex  2.397128e+000 -5.400000e+001  4.387913e+000
      vertex  4.269930e+000 -1.300000e+001  2.601480e+000
      vertex  2.397128e+000 -1.300000e+001  4.387913e+000
    endloop
  endfacet
  facet normal  4.924299e-001 -7.357930e-001  4.648888e-001
    outer loop
      vertex  1.917702e+000 -5.500000e+001  3.510330e+000
      vertex  3.614774e+000 -5.500000e+001  1.712720e+000
      vertex  4.269930e+000 -5.400000e+001  2.601480e+000
    endloop
  endfacet
  facet normal  4.964472e-001 -6.947466e-001  5.204492e-001
    outer loop
      vertex  1.917702e+000 -5.500000e+001  3.510330e+000
      vertex  4.269930e+000 -5.400000e+001  2.601480e+000
      vertex  2.397128e+000 -5.400000e+001  4.387913e+000
    endloop
  endfacet
  facet normal -1.697113e-001 -6.947466e-001 -6.989459e-001
    outer loop
      vertex -1.917702e+000 -5.500000e+001 -3.510330e+000
      vertex -2.397128e+000 -5.400000e+001 -4.387913e+000
      vertex  1.179829e-001 -5.400000e+001 -4.998608e+000
    endloop
  endfacet
  facet normal -1.251293e-001 -7.357931e-001 -6.655459e-001
    outer loop
      vertex -1.917702e+000 -5.500000e+001 -3.510330e+000
      vertex  1.179829e-001 -5.400000e+001 -4.998608e+000
      vertex  5.118671e-001 -5.500000e+001 -3.967114e+000
    endloop
  endfacet
  facet normal  7.207487e-001 -6.601518e-001  2.114734e-001
    outer loop
      vertex  3.614774e+000 -5.500000e+001  1.712720e+000
      vertex  4.998608e+000 -5.400000e+001  1.179829e-001
      vertex  4.269930e+000 -5.400000e+001  2.601480e+000
    endloop
  endfacet
  facet normal  7.458774e-001 -6.409892e-001 -1.811068e-001
    outer loop
      vertex  3.931125e+000 -5.500000e+001 -7.390912e-001
      vertex  4.387913e+000 -5.400000e+001 -2.397128e+000
      vertex  4.998608e+000 -5.400000e+001  1.179829e-001
    endloop
  endfacet
  facet normal  6.448938e-001 -7.597291e-001  8.320905e-002
    outer loop
      vertex  3.931125e+000 -5.500000e+001 -7.390912e-001
      vertex  4.998608e+000 -5.400000e+001  1.179829e-001
      vertex  3.614774e+000 -5.500000e+001  1.712720e+000
    endloop
  endfacet
  facet normal  5.553954e-001 -6.409892e-001 -5.297818e-001
    outer loop
      vertex  2.745920e+000 -5.500000e+001 -2.908595e+000
      vertex  2.601480e+000 -5.400000e+001 -4.269930e+000
      vertex  4.387913e+000 -5.400000e+001 -2.397128e+000
    endloop
  endfacet
  facet normal  5.629840e-001 -7.671090e-001 -3.075595e-001
    outer loop
      vertex  2.745920e+000 -5.500000e+001 -2.908595e+000
      vertex  4.387913e+000 -5.400000e+001 -2.397128e+000
      vertex  3.931125e+000 -5.500000e+001 -7.390912e-001
    endloop
  endfacet
  facet normal  2.114734e-001 -6.601518e-001 -7.207487e-001
    outer loop
      vertex  5.118671e-001 -5.500000e+001 -3.967114e+000
      vertex  1.179829e-001 -5.400000e+001 -4.998608e+000
      vertex  2.601480e+000 -5.400000e+001 -4.269930e+000
    endloop
  endfacet
  facet normal  2.784196e-001 -7.597291e-001 -5.876173e-001
    outer loop
      vertex  5.118671e-001 -5.500000e+001 -3.967114e+000
      vertex  2.601480e+000 -5.400000e+001 -4.269930e+000
      vertex  2.745920e+000 -5.500000e+001 -2.908595e+000
    endloop
  endfacet
  facet normal -4.924299e-001 -7.357929e-001 -4.648889e-001
    outer loop
      vertex -1.917702e+000 -5.500000e+001 -3.510330e+000
      vertex -3.614774e+000 -5.500000e+001 -1.712720e+000
      vertex -4.269930e+000 -5.400000e+001 -2.601480e+000
    endloop
  endfacet
  facet normal -4.964472e-001 -6.947466e-001 -5.204492e-001
    outer loop
      vertex -1.917702e+000 -5.500000e+001 -3.510330e+000
      vertex -4.269930e+000 -5.400000e+001 -2.601480e+000
      vertex -2.397128e+000 -5.400000e+001 -4.387913e+000
    endloop
  endfacet
  facet normal  1.697113e-001 -6.947466e-001  6.989459e-001
    outer loop
      vertex  1.917702e+000 -5.500000e+001  3.510330e+000
      vertex  2.397128e+000 -5.400000e+001  4.387913e+000
      vertex -1.179829e-001 -5.400000e+001  4.998608e+000
    endloop
  endfacet
  facet normal  1.251294e-001 -7.357930e-001  6.655459e-001
    outer loop
      vertex  1.917702e+000 -5.500000e+001  3.510330e+000
      vertex -1.179829e-001 -5.400000e+001  4.998608e+000
      vertex -5.118669e-001 -5.500000e+001  3.967114e+000
    endloop
  endfacet
  facet normal -7.207486e-001 -6.601518e-001 -2.114734e-001
    outer loop
      vertex -3.614774e+000 -5.500000e+001 -1.712720e+000
      vertex -4.998608e+000 -5.400000e+001 -1.179829e-001
      vertex -4.269930e+000 -5.400000e+001 -2.601480e+000
    endloop
  endfacet
  facet normal -7.458774e-001 -6.409892e-001  1.811068e-001
    outer loop
      vertex -3.931125e+000 -5.500000e+001  7.390909e-001
      vertex -4.387913e+000 -5.400000e+001  2.397128e+000
      vertex -4.998608e+000 -5.400000e+001 -1.179829e-001
    endloop
  endfacet
  facet normal -6.448937e-001 -7.597291e-001 -8.320911e-002
    outer loop
      vertex -3.931125e+000 -5.500000e+001  7.390909e-001
      vertex -4.998608e+000 -5.400000e+001 -1.179829e-001
      vertex -3.614774e+000 -5.500000e+001 -1.712720e+000
    endloop
  endfacet
  facet normal -5.553954e-001 -6.409892e-001  5.297818e-001
    outer loop
      vertex -2.745920e+000 -5.500000e+001  2.908595e+000
      vertex -2.601480e+000 -5.400000e+001  4.269930e+000
      vertex -4.387913e+000 -5.400000e+001  2.397128e+000
    endloop
  endfacet
  facet normal -5.629840e-001 -7.671090e-001  3.075595e-001
    outer loop
      vertex -2.745920e+000 -5.500000e+001  2.908595e+000
      vertex -4.387913e+000 -5.400000e+001  2.397128e+000
      vertex -3.931125e+000 -5.500000e+001  7.390909e-001
    endloop
  endfacet
  facet normal -2.114734e-001 -6.601518e-001  7.207486e-001
    outer loop
      vertex -5.118669e-001 -5.500000e+001  3.967114e+000
      vertex -1.179829e-001 -5.400000e+001  4.998608e+000
      vertex -2.601480e+000 -5.400000e+001  4.269930e+000
    endloop
  endfacet
  facet normal -2.784196e-001 -7.597292e-001  5.876173e-001
    outer loop
      vertex -5.118669e-001 -5.500000e+001  3.967114e+000
      vertex -2.601480e+000 -5.400000e+001  4.269930e+000
      vertex -2.745920e+000 -5.500000e+001  2.908595e+000
    endloop
  endfacet
  facet normal  -0.000000e+000  1.000000e+000  0.000000e+000
    outer loop
      vertex  5.118671e-001  8.000000e+001 -3.967114e+000
      vertex -1.917702e+000  8.000000e+001 -3.510330e+000
      vertex  2.745920e+000  8.000000e+001 -2.908595e+000
    endloop
  endfacet
  facet normal  0.000000e+000  1.000000e+000  0.000000e+000
    outer loop
      vertex  2.745920e+000  8.000000e+001 -2.908595e+000
      vertex -1.917702e+000  8.000000e+001 -3.510330e+000
      vertex -3.614774e+000  8.000000e+001 -1.712720e+000
    endloop
  endfacet
  facet normal  -0.000000e+000  1.000000e+000  0.000000e+000
    outer loop
      vertex  2.745920e+000  8.000000e+001 -2.908595e+000
      vertex -3.614774e+000  8.000000e+001 -1.712720e+000
      vertex  3.931125e+000  8.000000e+001 -7.390912e-001
    endloop
  endfacet
  facet normal  0.000000e+000  1.000000e+000  0.000000e+000
    outer loop
      vertex  3.931125e+000  8.000000e+001 -7.390912e-001
      vertex -3.614774e+000  8.000000e+001 -1.712720e+000
      vertex  3.614774e+000  8.000000e+001  1.712720e+000
    endloop
  endfacet
  facet normal  0.000000e+000  1.000000e+000  0.000000e+000
    outer loop
      vertex  3.614774e+000  8.000000e+001  1.712720e+000
      vertex -3.614774e+000  8.000000e+001 -1.712720e+000
      vertex -3.931125e+000  8.000000e+001  7.390914e-001
    endloop
  endfacet
  facet normal  0.000000e+000  9.999999e-001  0.000000e+000
    outer loop
      vertex  3.614774e+000  8.000000e+001  1.712720e+000
      vertex -3.931125e+000  8.000000e+001  7.390914e-001
      vertex  1.917702e+000  8.000000e+001  3.510330e+000
    endloop
  endfacet
  facet normal  0.000000e+000  1.000000e+000  0.000000e+000
    outer loop
      vertex  1.917702e+000  8.000000e+001  3.510330e+000
      vertex -3.931125e+000  8.000000e+001  7.390914e-001
      vertex -2.745920e+000  8.000000e+001  2.908595e+000
    endloop
  endfacet
  facet normal  0.000000e+000  9.999999e-001  0.000000e+000
    outer loop
      vertex  1.917702e+000  8.000000e+001  3.510330e+000
      vertex -2.745920e+000  8.000000e+001  2.908595e+000
      vertex -5.118667e-001  8.000000e+001  3.967114e+000
    endloop
  endfacet
  facet normal  2.359544e-001  0.000000e+000  9.717641e-001
    outer loop
      vertex  2.397128e+000  1.300000e+001  4.387913e+000
      vertex  2.397128e+000  7.900000e+001  4.387913e+000
      vertex -1.179829e-001  1.300000e+001  4.998608e+000
    endloop
  endfacet
  facet normal  2.359544e-001  -0.000000e+000  9.717641e-001
    outer loop
      vertex -1.179829e-001  1.300000e+001  4.998608e+000
      vertex  2.397128e+000  7.900000e+001  4.387913e+000
      vertex -1.179829e-001  7.900000e+001  4.998608e+000
    endloop
  endfacet
  facet normal -2.815395e-001  0.000000e+000  9.595496e-001
    outer loop
      vertex -1.179829e-001  1.300000e+001  4.998608e+000
      vertex -1.179829e-001  7.900000e+001  4.998608e+000
      vertex -2.601480e+000  1.300000e+001  4.269930e+000
    endloop
  endfacet
  facet normal -2.815395e-001  0.000000e+000  9.595496e-001
    outer loop
      vertex -2.601480e+000  1.300000e+001  4.269930e+000
      vertex -1.179829e-001  7.900000e+001  4.998608e+000
      vertex -2.601480e+000  7.900000e+001  4.269930e+000
    endloop
  endfacet
  facet normal -7.235952e-001  0.000000e+000  6.902246e-001
    outer loop
      vertex -2.601480e+000  1.300000e+001  4.269930e+000
      vertex -2.601480e+000  7.900000e+001  4.269930e+000
      vertex -4.387913e+000  1.300000e+001  2.397128e+000
    endloop
  endfacet
  facet normal -7.235952e-001  0.000000e+000  6.902246e-001
    outer loop
      vertex -4.387913e+000  1.300000e+001  2.397128e+000
      vertex -2.601480e+000  7.900000e+001  4.269930e+000
      vertex -4.387913e+000  7.900000e+001  2.397128e+000
    endloop
  endfacet
  facet normal -9.717641e-001  0.000000e+000  2.359544e-001
    outer loop
      vertex -4.387913e+000  1.300000e+001  2.397128e+000
      vertex -4.387913e+000  7.900000e+001  2.397128e+000
      vertex -4.998608e+000  1.300000e+001 -1.179829e-001
    endloop
  endfacet
  facet normal -9.717641e-001  0.000000e+000  2.359544e-001
    outer loop
      vertex -4.998608e+000  1.300000e+001 -1.179829e-001
      vertex -4.387913e+000  7.900000e+001  2.397128e+000
      vertex -4.998608e+000  7.900000e+001 -1.179829e-001
    endloop
  endfacet
  facet normal -9.595496e-001  -0.000000e+000 -2.815395e-001
    outer loop
      vertex -4.998608e+000  1.300000e+001 -1.179829e-001
      vertex -4.998608e+000  7.900000e+001 -1.179829e-001
      vertex -4.269930e+000  1.300000e+001 -2.601480e+000
    endloop
  endfacet
  facet normal -9.595496e-001  0.000000e+000 -2.815395e-001
    outer loop
      vertex -4.269930e+000  1.300000e+001 -2.601480e+000
      vertex -4.998608e+000  7.900000e+001 -1.179829e-001
      vertex -4.269930e+000  7.900000e+001 -2.601480e+000
    endloop
  endfacet
  facet normal -6.902246e-001  -0.000000e+000 -7.235952e-001
    outer loop
      vertex -4.269930e+000  1.300000e+001 -2.601480e+000
      vertex -4.269930e+000  7.900000e+001 -2.601480e+000
      vertex -2.397128e+000  1.300000e+001 -4.387913e+000
    endloop
  endfacet
  facet normal -6.902246e-001  0.000000e+000 -7.235952e-001
    outer loop
      vertex -2.397128e+000  1.300000e+001 -4.387913e+000
      vertex -4.269930e+000  7.900000e+001 -2.601480e+000
      vertex -2.397128e+000  7.900000e+001 -4.387913e+000
    endloop
  endfacet
  facet normal -2.359544e-001  -0.000000e+000 -9.717641e-001
    outer loop
      vertex -2.397128e+000  1.300000e+001 -4.387913e+000
      vertex -2.397128e+000  7.900000e+001 -4.387913e+000
      vertex  1.179829e-001  1.300000e+001 -4.998608e+000
    endloop
  endfacet
  facet normal -2.359544e-001  0.000000e+000 -9.717641e-001
    outer loop
      vertex  1.179829e-001  1.300000e+001 -4.998608e+000
      vertex -2.397128e+000  7.900000e+001 -4.387913e+000
      vertex  1.179829e-001  7.900000e+001 -4.998608e+000
    endloop
  endfacet
  facet normal  2.815395e-001  0.000000e+000 -9.595496e-001
    outer loop
      vertex  1.179829e-001  1.300000e+001 -4.998608e+000
      vertex  1.179829e-001  7.900000e+001 -4.998608e+000
      vertex  2.601480e+000  1.300000e+001 -4.269930e+000
    endloop
  endfacet
  facet normal  2.815395e-001  0.000000e+000 -9.595496e-001
    outer loop
      vertex  2.601480e+000  1.300000e+001 -4.269930e+000
      vertex  1.179829e-001  7.900000e+001 -4.998608e+000
      vertex  2.601480e+000  7.900000e+001 -4.269930e+000
    endloop
  endfacet
  facet normal  7.235952e-001  0.000000e+000 -6.902246e-001
    outer loop
      vertex  2.601480e+000  1.300000e+001 -4.269930e+000
      vertex  2.601480e+000  7.900000e+001 -4.269930e+000
      vertex  4.387913e+000  1.300000e+001 -2.397128e+000
    endloop
  endfacet
  facet normal  7.235952e-001  0.000000e+000 -6.902246e-001
    outer loop
      vertex  4.387913e+000  1.300000e+001 -2.397128e+000
      vertex  2.601480e+000  7.900000e+001 -4.269930e+000
      vertex  4.387913e+000  7.900000e+001 -2.397128e+000
    endloop
  endfacet
  facet normal  9.717641e-001  0.000000e+000 -2.359544e-001
    outer loop
      vertex  4.387913e+000  1.300000e+001 -2.397128e+000
      vertex  4.387913e+000  7.900000e+001 -2.397128e+000
      vertex  4.998608e+000  1.300000e+001  1.179829e-001
    endloop
  endfacet
  facet normal  9.717641e-001  0.000000e+000 -2.359544e-001
    outer loop
      vertex  4.998608e+000  1.300000e+001  1.179829e-001
      vertex  4.387913e+000  7.900000e+001 -2.397128e+000
      vertex  4.998608e+000  7.900000e+001  1.179829e-001
    endloop
  endfacet
  facet normal  9.595496e-001  0.000000e+000  2.815395e-001
    outer loop
      vertex  4.998608e+000  1.300000e+001  1.179829e-001
      vertex  4.998608e+000  7.900000e+001  1.179829e-001
      vertex  4.269930e+000  1.300000e+001  2.601480e+000
    endloop
  endfacet
  facet normal  9.595496e-001  -0.000000e+000  2.815395e-001
    outer loop
      vertex  4.269930e+000  1.300000e+001  2.601480e+000
      vertex  4.998608e+000  7.900000e+001  1.179829e-001
      vertex  4.269930e+000  7.900000e+001  2.601480e+000
    endloop
  endfacet
  facet normal  6.902246e-001  0.000000e+000  7.235952e-001
    outer loop
      vertex  4.269930e+000  1.300000e+001  2.601480e+000
      vertex  4.269930e+000  7.900000e+001  2.601480e+000
      vertex  2.397128e+000  1.300000e+001  4.387913e+000
    endloop
  endfacet
  facet normal  6.902246e-001  -0.000000e+000  7.235952e-001
    outer loop
      vertex  2.397128e+000  1.300000e+001  4.387913e+000
      vertex  4.269930e+000  7.900000e+001  2.601480e+000
      vertex  2.397128e+000  7.900000e+001  4.387913e+000
    endloop
  endfacet
  facet normal -1.697113e-001  6.947466e-001 -6.989459e-001
    outer loop
      vertex  1.179829e-001  7.900000e+001 -4.998608e+000
      vertex -2.397128e+000  7.900000e+001 -4.387913e+000
      vertex -1.917702e+000  8.000000e+001 -3.510330e+000
    endloop
  endfacet
  facet normal -1.251293e-001  7.357931e-001 -6.655459e-001
    outer loop
      vertex  5.118671e-001  8.000000e+001 -3.967114e+000
      vertex  1.179829e-001  7.900000e+001 -4.998608e+000
      vertex -1.917702e+000  8.000000e+001 -3.510330e+000
    endloop
  endfacet
  facet normal  4.924299e-001  7.357930e-001  4.648888e-001
    outer loop
      vertex  4.269930e+000  7.900000e+001  2.601480e+000
      vertex  3.614774e+000  8.000000e+001  1.712720e+000
      vertex  1.917702e+000  8.000000e+001  3.510330e+000
    endloop
  endfacet
  facet normal  4.964472e-001  6.947466e-001  5.204492e-001
    outer loop
      vertex  2.397128e+000  7.900000e+001  4.387913e+000
      vertex  4.269930e+000  7.900000e+001  2.601480e+000
      vertex  1.917702e+000  8.000000e+001  3.510330e+000
    endloop
  endfacet
  facet normal  7.207487e-001  6.601518e-001  2.114734e-001
    outer loop
      vertex  4.269930e+000  7.900000e+001  2.601480e+000
      vertex  4.998608e+000  7.900000e+001  1.179829e-001
      vertex  3.614774e+000  8.000000e+001  1.712720e+000
    endloop
  endfacet
  facet normal  7.458774e-001  6.409892e-001 -1.811068e-001
    outer loop
      vertex  4.998608e+000  7.900000e+001  1.179829e-001
      vertex  4.387913e+000  7.900000e+001 -2.397128e+000
      vertex  3.931125e+000  8.000000e+001 -7.390912e-001
    endloop
  endfacet
  facet normal  6.448938e-001  7.597291e-001  8.320905e-002
    outer loop
      vertex  3.614774e+000  8.000000e+001  1.712720e+000
      vertex  4.998608e+000  7.900000e+001  1.179829e-001
      vertex  3.931125e+000  8.000000e+001 -7.390912e-001
    endloop
  endfacet
  facet normal  5.553954e-001  6.409892e-001 -5.297818e-001
    outer loop
      vertex  4.387913e+000  7.900000e+001 -2.397128e+000
      vertex  2.601480e+000  7.900000e+001 -4.269930e+000
      vertex  2.745920e+000  8.000000e+001 -2.908595e+000
    endloop
  endfacet
  facet normal  5.629840e-001  7.671090e-001 -3.075595e-001
    outer loop
      vertex  3.931125e+000  8.000000e+001 -7.390912e-001
      vertex  4.387913e+000  7.900000e+001 -2.397128e+000
      vertex  2.745920e+000  8.000000e+001 -2.908595e+000
    endloop
  endfacet
  facet normal  2.114734e-001  6.601518e-001 -7.207487e-001
    outer loop
      vertex  2.601480e+000  7.900000e+001 -4.269930e+000
      vertex  1.179829e-001  7.900000e+001 -4.998608e+000
      vertex  5.118671e-001  8.000000e+001 -3.967114e+000
    endloop
  endfacet
  facet normal  2.784196e-001  7.597291e-001 -5.876173e-001
    outer loop
      vertex  2.745920e+000  8.000000e+001 -2.908595e+000
      vertex  2.601480e+000  7.900000e+001 -4.269930e+000
      vertex  5.118671e-001  8.000000e+001 -3.967114e+000
    endloop
  endfacet
  facet normal  1.697113e-001  6.947466e-001  6.989459e-001
    outer loop
      vertex -1.179829e-001  7.900000e+001  4.998608e+000
      vertex  2.397128e+000  7.900000e+001  4.387913e+000
      vertex  1.917702e+000  8.000000e+001  3.510330e+000
    endloop
  endfacet
  facet normal  1.251294e-001  7.357930e-001  6.655460e-001
    outer loop
      vertex -5.118667e-001  8.000000e+001  3.967114e+000
      vertex -1.179829e-001  7.900000e+001  4.998608e+000
      vertex  1.917702e+000  8.000000e+001  3.510330e+000
    endloop
  endfacet
  facet normal -4.924299e-001  7.357930e-001 -4.648888e-001
    outer loop
      vertex -4.269930e+000  7.900000e+001 -2.601480e+000
      vertex -3.614774e+000  8.000000e+001 -1.712720e+000
      vertex -1.917702e+000  8.000000e+001 -3.510330e+000
    endloop
  endfacet
  facet normal -4.964472e-001  6.947466e-001 -5.204492e-001
    outer loop
      vertex -2.397128e+000  7.900000e+001 -4.387913e+000
      vertex -4.269930e+000  7.900000e+001 -2.601480e+000
      vertex -1.917702e+000  8.000000e+001 -3.510330e+000
    endloop
  endfacet
  facet normal -7.207486e-001  6.601518e-001 -2.114734e-001
    outer loop
      vertex -4.269930e+000  7.900000e+001 -2.601480e+000
      vertex -4.998608e+000  7.900000e+001 -1.179829e-001
      vertex -3.614774e+000  8.000000e+001 -1.712720e+000
    endloop
  endfacet
  facet normal -7.458774e-001  6.409892e-001  1.811068e-001
    outer loop
      vertex -4.998608e+000  7.900000e+001 -1.179829e-001
      vertex -4.387913e+000  7.900000e+001  2.397128e+000
      vertex -3.931125e+000  8.000000e+001  7.390914e-001
    endloop
  endfacet
  facet normal -6.448937e-001  7.597292e-001 -8.320899e-002
    outer loop
      vertex -3.614774e+000  8.000000e+001 -1.712720e+000
      vertex -4.998608e+000  7.900000e+001 -1.179829e-001
      vertex -3.931125e+000  8.000000e+001  7.390914e-001
    endloop
  endfacet
  facet normal -5.553954e-001  6.409892e-001  5.297818e-001
    outer loop
      vertex -4.387913e+000  7.900000e+001  2.397128e+000
      vertex -2.601480e+000  7.900000e+001  4.269930e+000
      vertex -2.745920e+000  8.000000e+001  2.908595e+000
    endloop
  endfacet
  facet normal -5.629839e-001  7.671090e-001  3.075595e-001
    outer loop
      vertex -3.931125e+000  8.000000e+001  7.390914e-001
      vertex -4.387913e+000  7.900000e+001  2.397128e+000
      vertex -2.745920e+000  8.000000e+001  2.908595e+000
    endloop
  endfacet
  facet normal -2.114734e-001  6.601518e-001  7.207487e-001
    outer loop
      vertex -2.601480e+000  7.900000e+001  4.269930e+000
      vertex -1.179829e-001  7.900000e+001  4.998608e+000
      vertex -5.118667e-001  8.000000e+001  3.967114e+000
    endloop
  endfacet
  facet normal -2.784196e-001  7.597291e-001  5.876173e-001
    outer loop
      vertex -2.745920e+000  8.000000e+001  2.908595e+000
      vertex -2.601480e+000  7.900000e+001  4.269930e+000
      vertex -5.118667e-001  8.000000e+001  3.967114e+000
    endloop
  endfacet
endsolid CATIA STL
