solid CATIA STL
  facet normal  0.000000e+000  1.000000e+000  -0.000000e+000
    outer loop
      vertex  2.323228e+000  5.975000e+000 -5.531962e+000
      vertex  2.272599e+000  5.975000e+000 -1.131966e+001
      vertex -3.070721e-001  5.975000e+000 -5.992137e+000
    endloop
  endfacet
  facet normal  0.000000e+000  1.000000e+000  0.000000e+000
    outer loop
      vertex  2.272599e+000  5.975000e+000 -1.131966e+001
      vertex -1.736007e+000  5.975000e+000 -1.141427e+001
      vertex -3.070721e-001  5.975000e+000 -5.992137e+000
    endloop
  endfacet
  facet normal  -0.000000e+000  1.000000e+000  0.000000e+000
    outer loop
      vertex -1.736007e+000  5.975000e+000 -1.141427e+001
      vertex -5.535224e+000  5.975000e+000 -1.013216e+001
      vertex -3.070721e-001  5.975000e+000 -5.992137e+000
    endloop
  endfacet
  facet normal  0.000000e+000  1.000000e+000  0.000000e+000
    outer loop
      vertex -3.070721e-001  5.975000e+000 -5.992137e+000
      vertex -5.535224e+000  5.975000e+000 -1.013216e+001
      vertex -8.666812e+000  5.975000e+000 -7.627958e+000
    endloop
  endfacet
  facet normal  0.000000e+000  1.000000e+000  0.000000e+000
    outer loop
      vertex -3.070721e-001  5.975000e+000 -5.992137e+000
      vertex -8.666812e+000  5.975000e+000 -7.627958e+000
      vertex -2.876553e+000  5.975000e+000 -5.265495e+000
    endloop
  endfacet
  facet normal  0.000000e+000  1.000000e+000  0.000000e+000
    outer loop
      vertex -2.876553e+000  5.975000e+000 -5.265495e+000
      vertex -8.666812e+000  5.975000e+000 -7.627958e+000
      vertex -1.075305e+001  5.975000e+000 -4.203712e+000
    endloop
  endfacet
  facet normal  -0.000000e+000  9.999999e-001  0.000000e+000
    outer loop
      vertex -2.876553e+000  5.975000e+000 -5.265495e+000
      vertex -1.075305e+001  5.975000e+000 -4.203712e+000
      vertex -4.876298e+000  5.975000e+000 -3.495958e+000
    endloop
  endfacet
  facet normal  0.000000e+000  1.000000e+000  0.000000e+000
    outer loop
      vertex  5.535224e+000  5.975000e+000  1.013216e+001
      vertex  8.666812e+000  5.975000e+000  7.627958e+000
      vertex  1.736007e+000  5.975000e+000  1.141427e+001
    endloop
  endfacet
  facet normal  0.000000e+000  1.000000e+000  0.000000e+000
    outer loop
      vertex  1.736007e+000  5.975000e+000  1.141427e+001
      vertex  8.666812e+000  5.975000e+000  7.627958e+000
      vertex  3.070721e-001  5.975000e+000  5.992137e+000
    endloop
  endfacet
  facet normal  0.000000e+000  1.000000e+000  -0.000000e+000
    outer loop
      vertex  1.736007e+000  5.975000e+000  1.141427e+001
      vertex  3.070721e-001  5.975000e+000  5.992137e+000
      vertex -2.272599e+000  5.975000e+000  1.131966e+001
    endloop
  endfacet
  facet normal  0.000000e+000  1.000000e+000  0.000000e+000
    outer loop
      vertex -2.272599e+000  5.975000e+000  1.131966e+001
      vertex  3.070721e-001  5.975000e+000  5.992137e+000
      vertex -2.323228e+000  5.975000e+000  5.531962e+000
    endloop
  endfacet
  facet normal  0.000000e+000  9.999999e-001  -0.000000e+000
    outer loop
      vertex -2.272599e+000  5.975000e+000  1.131966e+001
      vertex -2.323228e+000  5.975000e+000  5.531962e+000
      vertex -6.007096e+000  5.975000e+000  9.859725e+000
    endloop
  endfacet
  facet normal  0.000000e+000  1.000000e+000  0.000000e+000
    outer loop
      vertex -6.007096e+000  5.975000e+000  9.859725e+000
      vertex -2.323228e+000  5.975000e+000  5.531962e+000
      vertex -9.017048e+000  5.975000e+000  7.210563e+000
    endloop
  endfacet
  facet normal  0.000000e+000  9.999999e-001  0.000000e+000
    outer loop
      vertex  6.007096e+000  5.975000e+000 -9.859725e+000
      vertex  2.272599e+000  5.975000e+000 -1.131966e+001
      vertex  9.017048e+000  5.975000e+000 -7.210563e+000
    endloop
  endfacet
  facet normal  0.000000e+000  1.000000e+000  0.000000e+000
    outer loop
      vertex  9.017048e+000  5.975000e+000 -7.210563e+000
      vertex  2.272599e+000  5.975000e+000 -1.131966e+001
      vertex  2.323228e+000  5.975000e+000 -5.531962e+000
    endloop
  endfacet
  facet normal  -0.000000e+000  1.000000e+000  0.000000e+000
    outer loop
      vertex  9.017048e+000  5.975000e+000 -7.210563e+000
      vertex  2.323228e+000  5.975000e+000 -5.531962e+000
      vertex  1.093941e+001  5.975000e+000 -3.691701e+000
    endloop
  endfacet
  facet normal  0.000000e+000  1.000000e+000  0.000000e+000
    outer loop
      vertex  1.093941e+001  5.975000e+000 -3.691701e+000
      vertex  2.323228e+000  5.975000e+000 -5.531962e+000
      vertex  4.493385e+000  5.975000e+000 -3.976115e+000
    endloop
  endfacet
  facet normal  0.000000e+000  9.999999e-001  0.000000e+000
    outer loop
      vertex  1.093941e+001  5.975000e+000 -3.691701e+000
      vertex  4.493385e+000  5.975000e+000 -3.976115e+000
      vertex  1.154232e+001  5.975000e+000  2.724352e-001
    endloop
  endfacet
  facet normal  0.000000e+000  1.000000e+000  0.000000e+000
    outer loop
      vertex  1.154232e+001  5.975000e+000  2.724352e-001
      vertex  4.493385e+000  5.975000e+000 -3.976115e+000
      vertex  5.773571e+000  5.975000e+000 -1.632749e+000
    endloop
  endfacet
  facet normal  0.000000e+000  1.000000e+000  0.000000e+000
    outer loop
      vertex  1.154232e+001  5.975000e+000  2.724352e-001
      vertex  5.773571e+000  5.975000e+000 -1.632749e+000
      vertex  5.910232e+000  5.975000e+000  1.034003e+000
    endloop
  endfacet
  facet normal  0.000000e+000  1.000000e+000  0.000000e+000
    outer loop
      vertex -4.876298e+000  5.975000e+000 -3.495958e+000
      vertex -1.075305e+001  5.975000e+000 -4.203712e+000
      vertex -5.910232e+000  5.975000e+000 -1.034003e+000
    endloop
  endfacet
  facet normal  0.000000e+000  1.000000e+000  0.000000e+000
    outer loop
      vertex -5.910232e+000  5.975000e+000 -1.034003e+000
      vertex -1.075305e+001  5.975000e+000 -4.203712e+000
      vertex -1.154232e+001  5.975000e+000 -2.724352e-001
    endloop
  endfacet
  facet normal  -0.000000e+000  1.000000e+000  0.000000e+000
    outer loop
      vertex -5.910232e+000  5.975000e+000 -1.034003e+000
      vertex -1.154232e+001  5.975000e+000 -2.724352e-001
      vertex -5.773571e+000  5.975000e+000  1.632749e+000
    endloop
  endfacet
  facet normal  0.000000e+000  1.000000e+000  0.000000e+000
    outer loop
      vertex -5.773571e+000  5.975000e+000  1.632749e+000
      vertex -1.154232e+001  5.975000e+000 -2.724352e-001
      vertex -1.093941e+001  5.975000e+000  3.691701e+000
    endloop
  endfacet
  facet normal  -0.000000e+000  1.000000e+000  0.000000e+000
    outer loop
      vertex -5.773571e+000  5.975000e+000  1.632749e+000
      vertex -1.093941e+001  5.975000e+000  3.691701e+000
      vertex -4.493385e+000  5.975000e+000  3.976115e+000
    endloop
  endfacet
  facet normal  0.000000e+000  1.000000e+000  0.000000e+000
    outer loop
      vertex -9.017048e+000  5.975000e+000  7.210563e+000
      vertex -2.323228e+000  5.975000e+000  5.531962e+000
      vertex -1.093941e+001  5.975000e+000  3.691701e+000
    endloop
  endfacet
  facet normal  0.000000e+000  1.000000e+000  0.000000e+000
    outer loop
      vertex -1.093941e+001  5.975000e+000  3.691701e+000
      vertex -2.323228e+000  5.975000e+000  5.531962e+000
      vertex -4.493385e+000  5.975000e+000  3.976115e+000
    endloop
  endfacet
  facet normal  -0.000000e+000  1.000000e+000  0.000000e+000
    outer loop
      vertex  1.154232e+001  5.975000e+000  2.724352e-001
      vertex  5.910232e+000  5.975000e+000  1.034003e+000
      vertex  1.075305e+001  5.975000e+000  4.203712e+000
    endloop
  endfacet
  facet normal  0.000000e+000  1.000000e+000  0.000000e+000
    outer loop
      vertex  1.075305e+001  5.975000e+000  4.203712e+000
      vertex  5.910232e+000  5.975000e+000  1.034003e+000
      vertex  4.876298e+000  5.975000e+000  3.495958e+000
    endloop
  endfacet
  facet normal  0.000000e+000  1.000000e+000  0.000000e+000
    outer loop
      vertex  1.075305e+001  5.975000e+000  4.203712e+000
      vertex  4.876298e+000  5.975000e+000  3.495958e+000
      vertex  8.666812e+000  5.975000e+000  7.627958e+000
    endloop
  endfacet
  facet normal  0.000000e+000  1.000000e+000  0.000000e+000
    outer loop
      vertex  8.666812e+000  5.975000e+000  7.627958e+000
      vertex  4.876298e+000  5.975000e+000  3.495958e+000
      vertex  2.876553e+000  5.975000e+000  5.265495e+000
    endloop
  endfacet
  facet normal  0.000000e+000  1.000000e+000  -0.000000e+000
    outer loop
      vertex  8.666812e+000  5.975000e+000  7.627958e+000
      vertex  2.876553e+000  5.975000e+000  5.265495e+000
      vertex  3.070721e-001  5.975000e+000  5.992137e+000
    endloop
  endfacet
  facet normal  0.000000e+000 -1.000000e+000  0.000000e+000
    outer loop
      vertex -3.070721e-001 -5.975000e+000 -5.992137e+000
      vertex  2.272599e+000 -5.975000e+000 -1.131966e+001
      vertex  2.323228e+000 -5.975000e+000 -5.531962e+000
    endloop
  endfacet
  facet normal  0.000000e+000 -1.000000e+000  0.000000e+000
    outer loop
      vertex -3.070721e-001 -5.975000e+000 -5.992137e+000
      vertex -1.736007e+000 -5.975000e+000 -1.141427e+001
      vertex  2.272599e+000 -5.975000e+000 -1.131966e+001
    endloop
  endfacet
  facet normal  0.000000e+000 -9.999999e-001  0.000000e+000
    outer loop
      vertex -4.876298e+000 -5.975000e+000 -3.495958e+000
      vertex -1.075305e+001 -5.975000e+000 -4.203712e+000
      vertex -2.876553e+000 -5.975000e+000 -5.265495e+000
    endloop
  endfacet
  facet normal  -0.000000e+000 -1.000000e+000  0.000000e+000
    outer loop
      vertex -2.876553e+000 -5.975000e+000 -5.265495e+000
      vertex -1.075305e+001 -5.975000e+000 -4.203712e+000
      vertex -8.666812e+000 -5.975000e+000 -7.627958e+000
    endloop
  endfacet
  facet normal  0.000000e+000 -1.000000e+000  0.000000e+000
    outer loop
      vertex -2.876553e+000 -5.975000e+000 -5.265495e+000
      vertex -8.666812e+000 -5.975000e+000 -7.627958e+000
      vertex -3.070721e-001 -5.975000e+000 -5.992137e+000
    endloop
  endfacet
  facet normal  0.000000e+000 -1.000000e+000  0.000000e+000
    outer loop
      vertex -3.070721e-001 -5.975000e+000 -5.992137e+000
      vertex -8.666812e+000 -5.975000e+000 -7.627958e+000
      vertex -5.535224e+000 -5.975000e+000 -1.013216e+001
    endloop
  endfacet
  facet normal  0.000000e+000 -1.000000e+000  0.000000e+000
    outer loop
      vertex -3.070721e-001 -5.975000e+000 -5.992137e+000
      vertex -5.535224e+000 -5.975000e+000 -1.013216e+001
      vertex -1.736007e+000 -5.975000e+000 -1.141427e+001
    endloop
  endfacet
  facet normal  0.000000e+000 -1.000000e+000  0.000000e+000
    outer loop
      vertex  1.736007e+000 -5.975000e+000  1.141427e+001
      vertex  8.666812e+000 -5.975000e+000  7.627958e+000
      vertex  5.535224e+000 -5.975000e+000  1.013216e+001
    endloop
  endfacet
  facet normal  0.000000e+000 -1.000000e+000  -0.000000e+000
    outer loop
      vertex  8.666812e+000 -5.975000e+000  7.627958e+000
      vertex  1.736007e+000 -5.975000e+000  1.141427e+001
      vertex  3.070721e-001 -5.975000e+000  5.992137e+000
    endloop
  endfacet
  facet normal  0.000000e+000 -1.000000e+000  0.000000e+000
    outer loop
      vertex  3.070721e-001 -5.975000e+000  5.992137e+000
      vertex  1.736007e+000 -5.975000e+000  1.141427e+001
      vertex -2.272599e+000 -5.975000e+000  1.131966e+001
    endloop
  endfacet
  facet normal  0.000000e+000 -1.000000e+000  -0.000000e+000
    outer loop
      vertex  3.070721e-001 -5.975000e+000  5.992137e+000
      vertex -2.272599e+000 -5.975000e+000  1.131966e+001
      vertex -2.323228e+000 -5.975000e+000  5.531962e+000
    endloop
  endfacet
  facet normal  0.000000e+000 -9.999999e-001  0.000000e+000
    outer loop
      vertex -2.323228e+000 -5.975000e+000  5.531962e+000
      vertex -2.272599e+000 -5.975000e+000  1.131966e+001
      vertex -6.007096e+000 -5.975000e+000  9.859725e+000
    endloop
  endfacet
  facet normal  0.000000e+000 -1.000000e+000  -0.000000e+000
    outer loop
      vertex -2.323228e+000 -5.975000e+000  5.531962e+000
      vertex -6.007096e+000 -5.975000e+000  9.859725e+000
      vertex -9.017048e+000 -5.975000e+000  7.210563e+000
    endloop
  endfacet
  facet normal  0.000000e+000 -1.000000e+000  0.000000e+000
    outer loop
      vertex  5.910232e+000 -5.975000e+000  1.034003e+000
      vertex  5.773571e+000 -5.975000e+000 -1.632749e+000
      vertex  1.154232e+001 -5.975000e+000  2.724352e-001
    endloop
  endfacet
  facet normal  0.000000e+000 -1.000000e+000  0.000000e+000
    outer loop
      vertex  1.154232e+001 -5.975000e+000  2.724352e-001
      vertex  5.773571e+000 -5.975000e+000 -1.632749e+000
      vertex  4.493385e+000 -5.975000e+000 -3.976115e+000
    endloop
  endfacet
  facet normal  0.000000e+000 -9.999999e-001  0.000000e+000
    outer loop
      vertex  1.154232e+001 -5.975000e+000  2.724352e-001
      vertex  4.493385e+000 -5.975000e+000 -3.976115e+000
      vertex  1.093941e+001 -5.975000e+000 -3.691701e+000
    endloop
  endfacet
  facet normal  0.000000e+000 -1.000000e+000  0.000000e+000
    outer loop
      vertex  1.093941e+001 -5.975000e+000 -3.691701e+000
      vertex  4.493385e+000 -5.975000e+000 -3.976115e+000
      vertex  2.323228e+000 -5.975000e+000 -5.531962e+000
    endloop
  endfacet
  facet normal  0.000000e+000 -1.000000e+000  0.000000e+000
    outer loop
      vertex  1.093941e+001 -5.975000e+000 -3.691701e+000
      vertex  2.323228e+000 -5.975000e+000 -5.531962e+000
      vertex  9.017048e+000 -5.975000e+000 -7.210563e+000
    endloop
  endfacet
  facet normal  -0.000000e+000 -1.000000e+000  0.000000e+000
    outer loop
      vertex  9.017048e+000 -5.975000e+000 -7.210563e+000
      vertex  2.323228e+000 -5.975000e+000 -5.531962e+000
      vertex  2.272599e+000 -5.975000e+000 -1.131966e+001
    endloop
  endfacet
  facet normal  0.000000e+000 -9.999999e-001  0.000000e+000
    outer loop
      vertex  9.017048e+000 -5.975000e+000 -7.210563e+000
      vertex  2.272599e+000 -5.975000e+000 -1.131966e+001
      vertex  6.007096e+000 -5.975000e+000 -9.859725e+000
    endloop
  endfacet
  facet normal  0.000000e+000 -1.000000e+000  0.000000e+000
    outer loop
      vertex -4.493385e+000 -5.975000e+000  3.976115e+000
      vertex -1.093941e+001 -5.975000e+000  3.691701e+000
      vertex -5.773571e+000 -5.975000e+000  1.632749e+000
    endloop
  endfacet
  facet normal  -0.000000e+000 -1.000000e+000  0.000000e+000
    outer loop
      vertex -5.773571e+000 -5.975000e+000  1.632749e+000
      vertex -1.093941e+001 -5.975000e+000  3.691701e+000
      vertex -1.154232e+001 -5.975000e+000 -2.724352e-001
    endloop
  endfacet
  facet normal  0.000000e+000 -1.000000e+000  0.000000e+000
    outer loop
      vertex -5.773571e+000 -5.975000e+000  1.632749e+000
      vertex -1.154232e+001 -5.975000e+000 -2.724352e-001
      vertex -5.910232e+000 -5.975000e+000 -1.034003e+000
    endloop
  endfacet
  facet normal  -0.000000e+000 -1.000000e+000  0.000000e+000
    outer loop
      vertex -5.910232e+000 -5.975000e+000 -1.034003e+000
      vertex -1.154232e+001 -5.975000e+000 -2.724352e-001
      vertex -1.075305e+001 -5.975000e+000 -4.203712e+000
    endloop
  endfacet
  facet normal  0.000000e+000 -1.000000e+000  0.000000e+000
    outer loop
      vertex -5.910232e+000 -5.975000e+000 -1.034003e+000
      vertex -1.075305e+001 -5.975000e+000 -4.203712e+000
      vertex -4.876298e+000 -5.975000e+000 -3.495958e+000
    endloop
  endfacet
  facet normal  0.000000e+000 -1.000000e+000  0.000000e+000
    outer loop
      vertex -9.017048e+000 -5.975000e+000  7.210563e+000
      vertex -1.093941e+001 -5.975000e+000  3.691701e+000
      vertex -2.323228e+000 -5.975000e+000  5.531962e+000
    endloop
  endfacet
  facet normal  0.000000e+000 -1.000000e+000  0.000000e+000
    outer loop
      vertex -2.323228e+000 -5.975000e+000  5.531962e+000
      vertex -1.093941e+001 -5.975000e+000  3.691701e+000
      vertex -4.493385e+000 -5.975000e+000  3.976115e+000
    endloop
  endfacet
  facet normal  0.000000e+000 -1.000000e+000  0.000000e+000
    outer loop
      vertex  3.070721e-001 -5.975000e+000  5.992137e+000
      vertex  2.876553e+000 -5.975000e+000  5.265495e+000
      vertex  8.666812e+000 -5.975000e+000  7.627958e+000
    endloop
  endfacet
  facet normal  0.000000e+000 -1.000000e+000  0.000000e+000
    outer loop
      vertex  8.666812e+000 -5.975000e+000  7.627958e+000
      vertex  2.876553e+000 -5.975000e+000  5.265495e+000
      vertex  4.876298e+000 -5.975000e+000  3.495958e+000
    endloop
  endfacet
  facet normal  0.000000e+000 -1.000000e+000  0.000000e+000
    outer loop
      vertex  8.666812e+000 -5.975000e+000  7.627958e+000
      vertex  4.876298e+000 -5.975000e+000  3.495958e+000
      vertex  1.075305e+001 -5.975000e+000  4.203712e+000
    endloop
  endfacet
  facet normal  0.000000e+000 -1.000000e+000  0.000000e+000
    outer loop
      vertex  1.075305e+001 -5.975000e+000  4.203712e+000
      vertex  4.876298e+000 -5.975000e+000  3.495958e+000
      vertex  5.910232e+000 -5.975000e+000  1.034003e+000
    endloop
  endfacet
  facet normal  0.000000e+000 -1.000000e+000  0.000000e+000
    outer loop
      vertex  1.075305e+001 -5.975000e+000  4.203712e+000
      vertex  5.910232e+000 -5.975000e+000  1.034003e+000
      vertex  1.154232e+001 -5.975000e+000  2.724352e-001
    endloop
  endfacet
  facet normal  5.826596e-001  0.000000e+000 -8.127164e-001
    outer loop
      vertex -4.493385e+000 -5.975000e+000  3.976115e+000
      vertex -2.323228e+000  5.975000e+000  5.531962e+000
      vertex -2.323228e+000 -5.975000e+000  5.531962e+000
    endloop
  endfacet
  facet normal  1.723338e-001  0.000000e+000 -9.850386e-001
    outer loop
      vertex -2.323228e+000 -5.975000e+000  5.531962e+000
      vertex -2.323228e+000  5.975000e+000  5.531962e+000
      vertex  3.070721e-001  5.975000e+000  5.992137e+000
    endloop
  endfacet
  facet normal  1.723338e-001  0.000000e+000 -9.850386e-001
    outer loop
      vertex -2.323228e+000 -5.975000e+000  5.531962e+000
      vertex  3.070721e-001  5.975000e+000  5.992137e+000
      vertex  3.070721e-001 -5.975000e+000  5.992137e+000
    endloop
  endfacet
  facet normal -2.721248e-001  0.000000e+000 -9.622620e-001
    outer loop
      vertex  3.070721e-001 -5.975000e+000  5.992137e+000
      vertex  3.070721e-001  5.975000e+000  5.992137e+000
      vertex  2.876553e+000  5.975000e+000  5.265495e+000
    endloop
  endfacet
  facet normal -2.721248e-001  -0.000000e+000 -9.622620e-001
    outer loop
      vertex  3.070721e-001 -5.975000e+000  5.992137e+000
      vertex  2.876553e+000  5.975000e+000  5.265495e+000
      vertex  2.876553e+000 -5.975000e+000  5.265495e+000
    endloop
  endfacet
  facet normal  5.826596e-001  0.000000e+000 -8.127164e-001
    outer loop
      vertex -2.323228e+000  5.975000e+000  5.531962e+000
      vertex -4.493385e+000 -5.975000e+000  3.976115e+000
      vertex -4.493385e+000  5.975000e+000  3.976115e+000
    endloop
  endfacet
  facet normal  8.775827e-001  0.000000e+000 -4.794254e-001
    outer loop
      vertex -4.493385e+000  5.975000e+000  3.976115e+000
      vertex -4.493385e+000 -5.975000e+000  3.976115e+000
      vertex -5.773571e+000 -5.975000e+000  1.632749e+000
    endloop
  endfacet
  facet normal  8.775827e-001  0.000000e+000 -4.794254e-001
    outer loop
      vertex -4.493385e+000  5.975000e+000  3.976115e+000
      vertex -5.773571e+000 -5.975000e+000  1.632749e+000
      vertex -5.773571e+000  5.975000e+000  1.632749e+000
    endloop
  endfacet
  facet normal  9.986895e-001  0.000000e+000 -5.117874e-002
    outer loop
      vertex -5.773571e+000  5.975000e+000  1.632749e+000
      vertex -5.773571e+000 -5.975000e+000  1.632749e+000
      vertex -5.910232e+000 -5.975000e+000 -1.034003e+000
    endloop
  endfacet
  facet normal  9.986895e-001  0.000000e+000 -5.117874e-002
    outer loop
      vertex -5.773571e+000  5.975000e+000  1.632749e+000
      vertex -5.910232e+000 -5.975000e+000 -1.034003e+000
      vertex -5.910232e+000  5.975000e+000 -1.034003e+000
    endloop
  endfacet
  facet normal  9.219937e-001  0.000000e+000  3.872046e-001
    outer loop
      vertex -5.910232e+000  5.975000e+000 -1.034003e+000
      vertex -5.910232e+000 -5.975000e+000 -1.034003e+000
      vertex -4.876298e+000 -5.975000e+000 -3.495958e+000
    endloop
  endfacet
  facet normal  9.219937e-001  -0.000000e+000  3.872046e-001
    outer loop
      vertex -5.910232e+000  5.975000e+000 -1.034003e+000
      vertex -4.876298e+000 -5.975000e+000 -3.495958e+000
      vertex -4.876298e+000  5.975000e+000 -3.495958e+000
    endloop
  endfacet
  facet normal  6.626859e-001  0.000000e+000  7.488976e-001
    outer loop
      vertex -4.876298e+000  5.975000e+000 -3.495958e+000
      vertex -4.876298e+000 -5.975000e+000 -3.495958e+000
      vertex -2.876553e+000 -5.975000e+000 -5.265495e+000
    endloop
  endfacet
  facet normal  6.626859e-001  -0.000000e+000  7.488976e-001
    outer loop
      vertex -4.876298e+000  5.975000e+000 -3.495958e+000
      vertex -2.876553e+000 -5.975000e+000 -5.265495e+000
      vertex -2.876553e+000  5.975000e+000 -5.265495e+000
    endloop
  endfacet
  facet normal  3.041320e-001  3.087242e-001  9.012176e-001
    outer loop
      vertex  5.535224e+000  5.975000e+000  1.013216e+001
      vertex  1.736007e+000  5.975000e+000  1.141427e+001
      vertex  6.153730e+000  2.060707e+000  1.126433e+001
    endloop
  endfacet
  facet normal  3.041321e-001  3.087243e-001  9.012175e-001
    outer loop
      vertex  6.153730e+000  2.060707e+000  1.126433e+001
      vertex  1.736007e+000  5.975000e+000  1.141427e+001
      vertex  1.929988e+000  2.060707e+000  1.268971e+001
    endloop
  endfacet
  facet normal  3.197514e-001  0.000000e+000  9.475015e-001
    outer loop
      vertex  6.153730e+000  2.060707e+000  1.126433e+001
      vertex  1.929988e+000  2.060707e+000  1.268971e+001
      vertex  6.153730e+000 -2.060707e+000  1.126433e+001
    endloop
  endfacet
  facet normal  3.197514e-001  0.000000e+000  9.475015e-001
    outer loop
      vertex  6.153730e+000 -2.060707e+000  1.126433e+001
      vertex  1.929988e+000  2.060707e+000  1.268971e+001
      vertex  1.929988e+000 -2.060707e+000  1.268971e+001
    endloop
  endfacet
  facet normal  3.041321e-001 -3.087242e-001  9.012176e-001
    outer loop
      vertex  6.153730e+000 -2.060707e+000  1.126433e+001
      vertex  1.929988e+000 -2.060707e+000  1.268971e+001
      vertex  5.535224e+000 -5.975000e+000  1.013216e+001
    endloop
  endfacet
  facet normal  3.041320e-001 -3.087243e-001  9.012176e-001
    outer loop
      vertex  5.535224e+000 -5.975000e+000  1.013216e+001
      vertex  1.929988e+000 -2.060707e+000  1.268971e+001
      vertex  1.736007e+000 -5.975000e+000  1.141427e+001
    endloop
  endfacet
  facet normal -5.940252e-001  3.087244e-001 -7.428481e-001
    outer loop
      vertex -8.666812e+000  5.975000e+000 -7.627958e+000
      vertex -5.535224e+000  5.975000e+000 -1.013216e+001
      vertex -9.635242e+000  2.060707e+000 -8.480307e+000
    endloop
  endfacet
  facet normal -5.940251e-001  3.087242e-001 -7.428483e-001
    outer loop
      vertex -9.635242e+000  2.060707e+000 -8.480307e+000
      vertex -5.535224e+000  5.975000e+000 -1.013216e+001
      vertex -6.153730e+000  2.060707e+000 -1.126433e+001
    endloop
  endfacet
  facet normal -6.245325e-001  0.000000e+000 -7.809988e-001
    outer loop
      vertex -9.635242e+000  2.060707e+000 -8.480307e+000
      vertex -6.153730e+000  2.060707e+000 -1.126433e+001
      vertex -9.635242e+000 -2.060707e+000 -8.480307e+000
    endloop
  endfacet
  facet normal -6.245325e-001  0.000000e+000 -7.809988e-001
    outer loop
      vertex -9.635242e+000 -2.060707e+000 -8.480307e+000
      vertex -6.153730e+000  2.060707e+000 -1.126433e+001
      vertex -6.153730e+000 -2.060707e+000 -1.126433e+001
    endloop
  endfacet
  facet normal -5.940251e-001 -3.087244e-001 -7.428483e-001
    outer loop
      vertex -9.635242e+000 -2.060707e+000 -8.480307e+000
      vertex -6.153730e+000 -2.060707e+000 -1.126433e+001
      vertex -8.666812e+000 -5.975000e+000 -7.627958e+000
    endloop
  endfacet
  facet normal -5.940253e-001 -3.087242e-001 -7.428482e-001
    outer loop
      vertex -8.666812e+000 -5.975000e+000 -7.627958e+000
      vertex -6.153730e+000 -2.060707e+000 -1.126433e+001
      vertex -5.535224e+000 -5.975000e+000 -1.013216e+001
    endloop
  endfacet
  facet normal -8.122701e-001  3.087242e-001 -4.948804e-001
    outer loop
      vertex -1.075305e+001  5.975000e+000 -4.203712e+000
      vertex -8.666812e+000  5.975000e+000 -7.627958e+000
      vertex -1.195460e+001  2.060707e+000 -4.673434e+000
    endloop
  endfacet
  facet normal -8.122702e-001  3.087244e-001 -4.948803e-001
    outer loop
      vertex -1.195460e+001  2.060707e+000 -4.673434e+000
      vertex -8.666812e+000  5.975000e+000 -7.627958e+000
      vertex -9.635242e+000  2.060707e+000 -8.480307e+000
    endloop
  endfacet
  facet normal -8.539861e-001  0.000000e+000 -5.202959e-001
    outer loop
      vertex -1.195460e+001  2.060707e+000 -4.673434e+000
      vertex -9.635242e+000  2.060707e+000 -8.480307e+000
      vertex -1.195460e+001 -2.060707e+000 -4.673434e+000
    endloop
  endfacet
  facet normal -8.539861e-001  0.000000e+000 -5.202959e-001
    outer loop
      vertex -1.195460e+001 -2.060707e+000 -4.673434e+000
      vertex -9.635242e+000  2.060707e+000 -8.480307e+000
      vertex -9.635242e+000 -2.060707e+000 -8.480307e+000
    endloop
  endfacet
  facet normal -8.122702e-001 -3.087242e-001 -4.948803e-001
    outer loop
      vertex -1.195460e+001 -2.060707e+000 -4.673434e+000
      vertex -9.635242e+000 -2.060707e+000 -8.480307e+000
      vertex -1.075305e+001 -5.975000e+000 -4.203712e+000
    endloop
  endfacet
  facet normal -8.122700e-001 -3.087244e-001 -4.948804e-001
    outer loop
      vertex -1.075305e+001 -5.975000e+000 -4.203712e+000
      vertex -9.635242e+000 -2.060707e+000 -8.480307e+000
      vertex -8.666812e+000 -5.975000e+000 -7.627958e+000
    endloop
  endfacet
  facet normal -9.325433e-001  3.087243e-001 -1.872227e-001
    outer loop
      vertex -1.154232e+001  5.975000e+000 -2.724352e-001
      vertex -1.075305e+001  5.975000e+000 -4.203712e+000
      vertex -1.283206e+001  2.060707e+000 -3.028771e-001
    endloop
  endfacet
  facet normal -9.325433e-001  3.087242e-001 -1.872228e-001
    outer loop
      vertex -1.283206e+001  2.060707e+000 -3.028771e-001
      vertex -1.075305e+001  5.975000e+000 -4.203712e+000
      vertex -1.195460e+001  2.060707e+000 -4.673434e+000
    endloop
  endfacet
  facet normal -9.804360e-001  0.000000e+000 -1.968381e-001
    outer loop
      vertex -1.283206e+001  2.060707e+000 -3.028771e-001
      vertex -1.195460e+001  2.060707e+000 -4.673434e+000
      vertex -1.283206e+001 -2.060707e+000 -3.028771e-001
    endloop
  endfacet
  facet normal -9.804360e-001  0.000000e+000 -1.968381e-001
    outer loop
      vertex -1.283206e+001 -2.060707e+000 -3.028771e-001
      vertex -1.195460e+001  2.060707e+000 -4.673434e+000
      vertex -1.195460e+001 -2.060707e+000 -4.673434e+000
    endloop
  endfacet
  facet normal -9.325433e-001 -3.087243e-001 -1.872228e-001
    outer loop
      vertex -1.283206e+001 -2.060707e+000 -3.028771e-001
      vertex -1.195460e+001 -2.060707e+000 -4.673434e+000
      vertex -1.154232e+001 -5.975000e+000 -2.724352e-001
    endloop
  endfacet
  facet normal -9.325433e-001 -3.087242e-001 -1.872227e-001
    outer loop
      vertex -1.154232e+001 -5.975000e+000 -2.724352e-001
      vertex -1.195460e+001 -2.060707e+000 -4.673434e+000
      vertex -1.075305e+001 -5.975000e+000 -4.203712e+000
    endloop
  endfacet
  facet normal -9.403379e-001  3.087244e-001  1.430169e-001
    outer loop
      vertex -1.093941e+001  5.975000e+000  3.691701e+000
      vertex -1.154232e+001  5.975000e+000 -2.724352e-001
      vertex -1.216178e+001  2.060707e+000  4.104211e+000
    endloop
  endfacet
  facet normal -9.403381e-001  3.087243e-001  1.430168e-001
    outer loop
      vertex -1.216178e+001  2.060707e+000  4.104211e+000
      vertex -1.154232e+001  5.975000e+000 -2.724352e-001
      vertex -1.283206e+001  2.060707e+000 -3.028771e-001
    endloop
  endfacet
  facet normal -9.886310e-001  0.000000e+000  1.503617e-001
    outer loop
      vertex -1.216178e+001  2.060707e+000  4.104211e+000
      vertex -1.283206e+001  2.060707e+000 -3.028771e-001
      vertex -1.216178e+001 -2.060707e+000  4.104211e+000
    endloop
  endfacet
  facet normal -9.886310e-001  0.000000e+000  1.503617e-001
    outer loop
      vertex -1.216178e+001 -2.060707e+000  4.104211e+000
      vertex -1.283206e+001  2.060707e+000 -3.028771e-001
      vertex -1.283206e+001 -2.060707e+000 -3.028771e-001
    endloop
  endfacet
  facet normal -9.403379e-001 -3.087244e-001  1.430168e-001
    outer loop
      vertex -1.216178e+001 -2.060707e+000  4.104211e+000
      vertex -1.283206e+001 -2.060707e+000 -3.028771e-001
      vertex -1.093941e+001 -5.975000e+000  3.691701e+000
    endloop
  endfacet
  facet normal -9.403379e-001 -3.087243e-001  1.430169e-001
    outer loop
      vertex -1.093941e+001 -5.975000e+000  3.691701e+000
      vertex -1.283206e+001 -2.060707e+000 -3.028771e-001
      vertex -1.154232e+001 -5.975000e+000 -2.724352e-001
    endloop
  endfacet
  facet normal -8.347141e-001  3.087243e-001  4.560064e-001
    outer loop
      vertex -9.017048e+000  5.975000e+000  7.210563e+000
      vertex -1.093941e+001  5.975000e+000  3.691701e+000
      vertex -1.002461e+001  2.060707e+000  8.016272e+000
    endloop
  endfacet
  facet normal -8.347139e-001  3.087243e-001  4.560065e-001
    outer loop
      vertex -1.002461e+001  2.060707e+000  8.016272e+000
      vertex -1.093941e+001  5.975000e+000  3.691701e+000
      vertex -1.216178e+001  2.060707e+000  4.104211e+000
    endloop
  endfacet
  facet normal -8.775825e-001  0.000000e+000  4.794256e-001
    outer loop
      vertex -1.002461e+001  2.060707e+000  8.016272e+000
      vertex -1.216178e+001  2.060707e+000  4.104211e+000
      vertex -1.002461e+001 -2.060707e+000  8.016272e+000
    endloop
  endfacet
  facet normal -8.775825e-001  0.000000e+000  4.794256e-001
    outer loop
      vertex -1.002461e+001 -2.060707e+000  8.016272e+000
      vertex -1.216178e+001  2.060707e+000  4.104211e+000
      vertex -1.216178e+001 -2.060707e+000  4.104211e+000
    endloop
  endfacet
  facet normal -8.347139e-001 -3.087243e-001  4.560065e-001
    outer loop
      vertex -1.002461e+001 -2.060707e+000  8.016272e+000
      vertex -1.216178e+001 -2.060707e+000  4.104211e+000
      vertex -9.017048e+000 -5.975000e+000  7.210563e+000
    endloop
  endfacet
  facet normal -8.347141e-001 -3.087244e-001  4.560064e-001
    outer loop
      vertex -9.017048e+000 -5.975000e+000  7.210563e+000
      vertex -1.216178e+001 -2.060707e+000  4.104211e+000
      vertex -1.093941e+001 -5.975000e+000  3.691701e+000
    endloop
  endfacet
  facet normal -6.284113e-001  3.087241e-001  7.139947e-001
    outer loop
      vertex -6.007096e+000  5.975000e+000  9.859725e+000
      vertex -9.017048e+000  5.975000e+000  7.210563e+000
      vertex -6.678329e+000  2.060707e+000  1.096145e+001
    endloop
  endfacet
  facet normal -6.284112e-001  3.087243e-001  7.139948e-001
    outer loop
      vertex -6.678329e+000  2.060707e+000  1.096145e+001
      vertex -9.017048e+000  5.975000e+000  7.210563e+000
      vertex -1.002461e+001  2.060707e+000  8.016272e+000
    endloop
  endfacet
  facet normal -6.606846e-001  0.000000e+000  7.506636e-001
    outer loop
      vertex -6.678329e+000  2.060707e+000  1.096145e+001
      vertex -1.002461e+001  2.060707e+000  8.016272e+000
      vertex -6.678329e+000 -2.060707e+000  1.096145e+001
    endloop
  endfacet
  facet normal -6.606846e-001  0.000000e+000  7.506636e-001
    outer loop
      vertex -6.678329e+000 -2.060707e+000  1.096145e+001
      vertex -1.002461e+001  2.060707e+000  8.016272e+000
      vertex -1.002461e+001 -2.060707e+000  8.016272e+000
    endloop
  endfacet
  facet normal -6.284113e-001 -3.087242e-001  7.139949e-001
    outer loop
      vertex -6.678329e+000 -2.060707e+000  1.096145e+001
      vertex -1.002461e+001 -2.060707e+000  8.016272e+000
      vertex -6.007096e+000 -5.975000e+000  9.859725e+000
    endloop
  endfacet
  facet normal -6.284113e-001 -3.087243e-001  7.139947e-001
    outer loop
      vertex -6.007096e+000 -5.975000e+000  9.859725e+000
      vertex -1.002461e+001 -2.060707e+000  8.016272e+000
      vertex -9.017048e+000 -5.975000e+000  7.210563e+000
    endloop
  endfacet
  facet normal -3.463128e-001  3.087243e-001  8.858650e-001
    outer loop
      vertex -2.272599e+000  5.975000e+000  1.131966e+001
      vertex -6.007096e+000  5.975000e+000  9.859725e+000
      vertex -2.526540e+000  2.060707e+000  1.258452e+001
    endloop
  endfacet
  facet normal -3.463129e-001  3.087242e-001  8.858650e-001
    outer loop
      vertex -2.526540e+000  2.060707e+000  1.258452e+001
      vertex -6.007096e+000  5.975000e+000  9.859725e+000
      vertex -6.678329e+000  2.060707e+000  1.096145e+001
    endloop
  endfacet
  facet normal -3.640985e-001  0.000000e+000  9.313605e-001
    outer loop
      vertex -2.526540e+000  2.060707e+000  1.258452e+001
      vertex -6.678329e+000  2.060707e+000  1.096145e+001
      vertex -2.526540e+000 -2.060707e+000  1.258452e+001
    endloop
  endfacet
  facet normal -3.640985e-001  0.000000e+000  9.313605e-001
    outer loop
      vertex -2.526540e+000 -2.060707e+000  1.258452e+001
      vertex -6.678329e+000  2.060707e+000  1.096145e+001
      vertex -6.678329e+000 -2.060707e+000  1.096145e+001
    endloop
  endfacet
  facet normal -3.463129e-001 -3.087242e-001  8.858650e-001
    outer loop
      vertex -2.526540e+000 -2.060707e+000  1.258452e+001
      vertex -6.678329e+000 -2.060707e+000  1.096145e+001
      vertex -2.272599e+000 -5.975000e+000  1.131966e+001
    endloop
  endfacet
  facet normal -3.463128e-001 -3.087241e-001  8.858650e-001
    outer loop
      vertex -2.272599e+000 -5.975000e+000  1.131966e+001
      vertex -6.678329e+000 -2.060707e+000  1.096145e+001
      vertex -6.007096e+000 -5.975000e+000  9.859725e+000
    endloop
  endfacet
  facet normal -2.244397e-002  3.087243e-001  9.508868e-001
    outer loop
      vertex  1.736007e+000  5.975000e+000  1.141427e+001
      vertex -2.272599e+000  5.975000e+000  1.131966e+001
      vertex  1.929988e+000  2.060707e+000  1.268971e+001
    endloop
  endfacet
  facet normal -2.244398e-002  3.087243e-001  9.508868e-001
    outer loop
      vertex  1.929988e+000  2.060707e+000  1.268971e+001
      vertex -2.272599e+000  5.975000e+000  1.131966e+001
      vertex -2.526540e+000  2.060707e+000  1.258452e+001
    endloop
  endfacet
  facet normal -2.359664e-002  0.000000e+000  9.997216e-001
    outer loop
      vertex  1.929988e+000  2.060707e+000  1.268971e+001
      vertex -2.526540e+000  2.060707e+000  1.258452e+001
      vertex  1.929988e+000 -2.060707e+000  1.268971e+001
    endloop
  endfacet
  facet normal -2.359664e-002  0.000000e+000  9.997216e-001
    outer loop
      vertex  1.929988e+000 -2.060707e+000  1.268971e+001
      vertex -2.526540e+000  2.060707e+000  1.258452e+001
      vertex -2.526540e+000 -2.060707e+000  1.258452e+001
    endloop
  endfacet
  facet normal -2.244398e-002 -3.087243e-001  9.508868e-001
    outer loop
      vertex  1.929988e+000 -2.060707e+000  1.268971e+001
      vertex -2.526540e+000 -2.060707e+000  1.258452e+001
      vertex  1.736007e+000 -5.975000e+000  1.141427e+001
    endloop
  endfacet
  facet normal -2.244397e-002 -3.087243e-001  9.508868e-001
    outer loop
      vertex  1.736007e+000 -5.975000e+000  1.141427e+001
      vertex -2.526540e+000 -2.060707e+000  1.258452e+001
      vertex -2.272599e+000 -5.975000e+000  1.131966e+001
    endloop
  endfacet
  facet normal -5.826596e-001  0.000000e+000  8.127164e-001
    outer loop
      vertex  4.493385e+000 -5.975000e+000 -3.976115e+000
      vertex  2.323228e+000  5.975000e+000 -5.531962e+000
      vertex  2.323228e+000 -5.975000e+000 -5.531962e+000
    endloop
  endfacet
  facet normal -1.723338e-001  0.000000e+000  9.850386e-001
    outer loop
      vertex  2.323228e+000 -5.975000e+000 -5.531962e+000
      vertex  2.323228e+000  5.975000e+000 -5.531962e+000
      vertex -3.070721e-001  5.975000e+000 -5.992137e+000
    endloop
  endfacet
  facet normal -1.723338e-001  0.000000e+000  9.850386e-001
    outer loop
      vertex  2.323228e+000 -5.975000e+000 -5.531962e+000
      vertex -3.070721e-001  5.975000e+000 -5.992137e+000
      vertex -3.070721e-001 -5.975000e+000 -5.992137e+000
    endloop
  endfacet
  facet normal  2.721248e-001  -0.000000e+000  9.622620e-001
    outer loop
      vertex -3.070721e-001 -5.975000e+000 -5.992137e+000
      vertex -3.070721e-001  5.975000e+000 -5.992137e+000
      vertex -2.876553e+000  5.975000e+000 -5.265495e+000
    endloop
  endfacet
  facet normal  2.721248e-001  0.000000e+000  9.622620e-001
    outer loop
      vertex -3.070721e-001 -5.975000e+000 -5.992137e+000
      vertex -2.876553e+000  5.975000e+000 -5.265495e+000
      vertex -2.876553e+000 -5.975000e+000 -5.265495e+000
    endloop
  endfacet
  facet normal -5.826596e-001  0.000000e+000  8.127164e-001
    outer loop
      vertex  2.323228e+000  5.975000e+000 -5.531962e+000
      vertex  4.493385e+000 -5.975000e+000 -3.976115e+000
      vertex  4.493385e+000  5.975000e+000 -3.976115e+000
    endloop
  endfacet
  facet normal -8.775827e-001  0.000000e+000  4.794254e-001
    outer loop
      vertex  4.493385e+000  5.975000e+000 -3.976115e+000
      vertex  4.493385e+000 -5.975000e+000 -3.976115e+000
      vertex  5.773571e+000 -5.975000e+000 -1.632749e+000
    endloop
  endfacet
  facet normal -8.775827e-001  0.000000e+000  4.794254e-001
    outer loop
      vertex  4.493385e+000  5.975000e+000 -3.976115e+000
      vertex  5.773571e+000 -5.975000e+000 -1.632749e+000
      vertex  5.773571e+000  5.975000e+000 -1.632749e+000
    endloop
  endfacet
  facet normal -9.986895e-001  0.000000e+000  5.117874e-002
    outer loop
      vertex  5.773571e+000  5.975000e+000 -1.632749e+000
      vertex  5.773571e+000 -5.975000e+000 -1.632749e+000
      vertex  5.910232e+000 -5.975000e+000  1.034003e+000
    endloop
  endfacet
  facet normal -9.986895e-001  0.000000e+000  5.117874e-002
    outer loop
      vertex  5.773571e+000  5.975000e+000 -1.632749e+000
      vertex  5.910232e+000 -5.975000e+000  1.034003e+000
      vertex  5.910232e+000  5.975000e+000  1.034003e+000
    endloop
  endfacet
  facet normal -9.219937e-001  -0.000000e+000 -3.872046e-001
    outer loop
      vertex  5.910232e+000  5.975000e+000  1.034003e+000
      vertex  5.910232e+000 -5.975000e+000  1.034003e+000
      vertex  4.876298e+000 -5.975000e+000  3.495958e+000
    endloop
  endfacet
  facet normal -9.219937e-001  0.000000e+000 -3.872046e-001
    outer loop
      vertex  5.910232e+000  5.975000e+000  1.034003e+000
      vertex  4.876298e+000 -5.975000e+000  3.495958e+000
      vertex  4.876298e+000  5.975000e+000  3.495958e+000
    endloop
  endfacet
  facet normal -6.626859e-001  -0.000000e+000 -7.488976e-001
    outer loop
      vertex  4.876298e+000  5.975000e+000  3.495958e+000
      vertex  4.876298e+000 -5.975000e+000  3.495958e+000
      vertex  2.876553e+000 -5.975000e+000  5.265495e+000
    endloop
  endfacet
  facet normal -6.626859e-001  0.000000e+000 -7.488976e-001
    outer loop
      vertex  4.876298e+000  5.975000e+000  3.495958e+000
      vertex  2.876553e+000 -5.975000e+000  5.265495e+000
      vertex  2.876553e+000  5.975000e+000  5.265495e+000
    endloop
  endfacet
  facet normal -3.041320e-001  3.087242e-001 -9.012176e-001
    outer loop
      vertex -5.535224e+000  5.975000e+000 -1.013216e+001
      vertex -1.736007e+000  5.975000e+000 -1.141427e+001
      vertex -6.153730e+000  2.060707e+000 -1.126433e+001
    endloop
  endfacet
  facet normal -3.041321e-001  3.087243e-001 -9.012175e-001
    outer loop
      vertex -6.153730e+000  2.060707e+000 -1.126433e+001
      vertex -1.736007e+000  5.975000e+000 -1.141427e+001
      vertex -1.929988e+000  2.060707e+000 -1.268971e+001
    endloop
  endfacet
  facet normal -3.197514e-001  0.000000e+000 -9.475015e-001
    outer loop
      vertex -6.153730e+000  2.060707e+000 -1.126433e+001
      vertex -1.929988e+000  2.060707e+000 -1.268971e+001
      vertex -6.153730e+000 -2.060707e+000 -1.126433e+001
    endloop
  endfacet
  facet normal -3.197514e-001  0.000000e+000 -9.475015e-001
    outer loop
      vertex -6.153730e+000 -2.060707e+000 -1.126433e+001
      vertex -1.929988e+000  2.060707e+000 -1.268971e+001
      vertex -1.929988e+000 -2.060707e+000 -1.268971e+001
    endloop
  endfacet
  facet normal -3.041321e-001 -3.087242e-001 -9.012176e-001
    outer loop
      vertex -6.153730e+000 -2.060707e+000 -1.126433e+001
      vertex -1.929988e+000 -2.060707e+000 -1.268971e+001
      vertex -5.535224e+000 -5.975000e+000 -1.013216e+001
    endloop
  endfacet
  facet normal -3.041320e-001 -3.087243e-001 -9.012176e-001
    outer loop
      vertex -5.535224e+000 -5.975000e+000 -1.013216e+001
      vertex -1.929988e+000 -2.060707e+000 -1.268971e+001
      vertex -1.736007e+000 -5.975000e+000 -1.141427e+001
    endloop
  endfacet
  facet normal  5.940252e-001  3.087244e-001  7.428481e-001
    outer loop
      vertex  8.666812e+000  5.975000e+000  7.627958e+000
      vertex  5.535224e+000  5.975000e+000  1.013216e+001
      vertex  9.635242e+000  2.060707e+000  8.480307e+000
    endloop
  endfacet
  facet normal  5.940251e-001  3.087242e-001  7.428483e-001
    outer loop
      vertex  9.635242e+000  2.060707e+000  8.480307e+000
      vertex  5.535224e+000  5.975000e+000  1.013216e+001
      vertex  6.153730e+000  2.060707e+000  1.126433e+001
    endloop
  endfacet
  facet normal  6.245325e-001  0.000000e+000  7.809988e-001
    outer loop
      vertex  9.635242e+000  2.060707e+000  8.480307e+000
      vertex  6.153730e+000  2.060707e+000  1.126433e+001
      vertex  9.635242e+000 -2.060707e+000  8.480307e+000
    endloop
  endfacet
  facet normal  6.245325e-001  0.000000e+000  7.809988e-001
    outer loop
      vertex  9.635242e+000 -2.060707e+000  8.480307e+000
      vertex  6.153730e+000  2.060707e+000  1.126433e+001
      vertex  6.153730e+000 -2.060707e+000  1.126433e+001
    endloop
  endfacet
  facet normal  5.940251e-001 -3.087244e-001  7.428483e-001
    outer loop
      vertex  9.635242e+000 -2.060707e+000  8.480307e+000
      vertex  6.153730e+000 -2.060707e+000  1.126433e+001
      vertex  8.666812e+000 -5.975000e+000  7.627958e+000
    endloop
  endfacet
  facet normal  5.940253e-001 -3.087242e-001  7.428482e-001
    outer loop
      vertex  8.666812e+000 -5.975000e+000  7.627958e+000
      vertex  6.153730e+000 -2.060707e+000  1.126433e+001
      vertex  5.535224e+000 -5.975000e+000  1.013216e+001
    endloop
  endfacet
  facet normal  8.122701e-001  3.087242e-001  4.948804e-001
    outer loop
      vertex  1.075305e+001  5.975000e+000  4.203712e+000
      vertex  8.666812e+000  5.975000e+000  7.627958e+000
      vertex  1.195460e+001  2.060707e+000  4.673434e+000
    endloop
  endfacet
  facet normal  8.122702e-001  3.087244e-001  4.948803e-001
    outer loop
      vertex  1.195460e+001  2.060707e+000  4.673434e+000
      vertex  8.666812e+000  5.975000e+000  7.627958e+000
      vertex  9.635242e+000  2.060707e+000  8.480307e+000
    endloop
  endfacet
  facet normal  8.539861e-001  0.000000e+000  5.202959e-001
    outer loop
      vertex  1.195460e+001  2.060707e+000  4.673434e+000
      vertex  9.635242e+000  2.060707e+000  8.480307e+000
      vertex  1.195460e+001 -2.060707e+000  4.673434e+000
    endloop
  endfacet
  facet normal  8.539861e-001  0.000000e+000  5.202959e-001
    outer loop
      vertex  1.195460e+001 -2.060707e+000  4.673434e+000
      vertex  9.635242e+000  2.060707e+000  8.480307e+000
      vertex  9.635242e+000 -2.060707e+000  8.480307e+000
    endloop
  endfacet
  facet normal  8.122702e-001 -3.087242e-001  4.948803e-001
    outer loop
      vertex  1.195460e+001 -2.060707e+000  4.673434e+000
      vertex  9.635242e+000 -2.060707e+000  8.480307e+000
      vertex  1.075305e+001 -5.975000e+000  4.203712e+000
    endloop
  endfacet
  facet normal  8.122700e-001 -3.087244e-001  4.948804e-001
    outer loop
      vertex  1.075305e+001 -5.975000e+000  4.203712e+000
      vertex  9.635242e+000 -2.060707e+000  8.480307e+000
      vertex  8.666812e+000 -5.975000e+000  7.627958e+000
    endloop
  endfacet
  facet normal  9.325433e-001  3.087243e-001  1.872227e-001
    outer loop
      vertex  1.154232e+001  5.975000e+000  2.724352e-001
      vertex  1.075305e+001  5.975000e+000  4.203712e+000
      vertex  1.283206e+001  2.060707e+000  3.028771e-001
    endloop
  endfacet
  facet normal  9.325433e-001  3.087242e-001  1.872228e-001
    outer loop
      vertex  1.283206e+001  2.060707e+000  3.028771e-001
      vertex  1.075305e+001  5.975000e+000  4.203712e+000
      vertex  1.195460e+001  2.060707e+000  4.673434e+000
    endloop
  endfacet
  facet normal  9.804360e-001  0.000000e+000  1.968381e-001
    outer loop
      vertex  1.283206e+001  2.060707e+000  3.028771e-001
      vertex  1.195460e+001  2.060707e+000  4.673434e+000
      vertex  1.283206e+001 -2.060707e+000  3.028771e-001
    endloop
  endfacet
  facet normal  9.804360e-001  0.000000e+000  1.968381e-001
    outer loop
      vertex  1.283206e+001 -2.060707e+000  3.028771e-001
      vertex  1.195460e+001  2.060707e+000  4.673434e+000
      vertex  1.195460e+001 -2.060707e+000  4.673434e+000
    endloop
  endfacet
  facet normal  9.325433e-001 -3.087243e-001  1.872228e-001
    outer loop
      vertex  1.283206e+001 -2.060707e+000  3.028771e-001
      vertex  1.195460e+001 -2.060707e+000  4.673434e+000
      vertex  1.154232e+001 -5.975000e+000  2.724352e-001
    endloop
  endfacet
  facet normal  9.325433e-001 -3.087242e-001  1.872227e-001
    outer loop
      vertex  1.154232e+001 -5.975000e+000  2.724352e-001
      vertex  1.195460e+001 -2.060707e+000  4.673434e+000
      vertex  1.075305e+001 -5.975000e+000  4.203712e+000
    endloop
  endfacet
  facet normal  9.403379e-001  3.087244e-001 -1.430169e-001
    outer loop
      vertex  1.093941e+001  5.975000e+000 -3.691701e+000
      vertex  1.154232e+001  5.975000e+000  2.724352e-001
      vertex  1.216178e+001  2.060707e+000 -4.104211e+000
    endloop
  endfacet
  facet normal  9.403381e-001  3.087243e-001 -1.430168e-001
    outer loop
      vertex  1.216178e+001  2.060707e+000 -4.104211e+000
      vertex  1.154232e+001  5.975000e+000  2.724352e-001
      vertex  1.283206e+001  2.060707e+000  3.028771e-001
    endloop
  endfacet
  facet normal  9.886310e-001  0.000000e+000 -1.503617e-001
    outer loop
      vertex  1.216178e+001  2.060707e+000 -4.104211e+000
      vertex  1.283206e+001  2.060707e+000  3.028771e-001
      vertex  1.216178e+001 -2.060707e+000 -4.104211e+000
    endloop
  endfacet
  facet normal  9.886310e-001  0.000000e+000 -1.503617e-001
    outer loop
      vertex  1.216178e+001 -2.060707e+000 -4.104211e+000
      vertex  1.283206e+001  2.060707e+000  3.028771e-001
      vertex  1.283206e+001 -2.060707e+000  3.028771e-001
    endloop
  endfacet
  facet normal  9.403379e-001 -3.087244e-001 -1.430168e-001
    outer loop
      vertex  1.216178e+001 -2.060707e+000 -4.104211e+000
      vertex  1.283206e+001 -2.060707e+000  3.028771e-001
      vertex  1.093941e+001 -5.975000e+000 -3.691701e+000
    endloop
  endfacet
  facet normal  9.403379e-001 -3.087243e-001 -1.430169e-001
    outer loop
      vertex  1.093941e+001 -5.975000e+000 -3.691701e+000
      vertex  1.283206e+001 -2.060707e+000  3.028771e-001
      vertex  1.154232e+001 -5.975000e+000  2.724352e-001
    endloop
  endfacet
  facet normal  8.347141e-001  3.087243e-001 -4.560064e-001
    outer loop
      vertex  9.017048e+000  5.975000e+000 -7.210563e+000
      vertex  1.093941e+001  5.975000e+000 -3.691701e+000
      vertex  1.002461e+001  2.060707e+000 -8.016272e+000
    endloop
  endfacet
  facet normal  8.347139e-001  3.087243e-001 -4.560065e-001
    outer loop
      vertex  1.002461e+001  2.060707e+000 -8.016272e+000
      vertex  1.093941e+001  5.975000e+000 -3.691701e+000
      vertex  1.216178e+001  2.060707e+000 -4.104211e+000
    endloop
  endfacet
  facet normal  8.775825e-001  0.000000e+000 -4.794256e-001
    outer loop
      vertex  1.002461e+001  2.060707e+000 -8.016272e+000
      vertex  1.216178e+001  2.060707e+000 -4.104211e+000
      vertex  1.002461e+001 -2.060707e+000 -8.016272e+000
    endloop
  endfacet
  facet normal  8.775825e-001  0.000000e+000 -4.794256e-001
    outer loop
      vertex  1.002461e+001 -2.060707e+000 -8.016272e+000
      vertex  1.216178e+001  2.060707e+000 -4.104211e+000
      vertex  1.216178e+001 -2.060707e+000 -4.104211e+000
    endloop
  endfacet
  facet normal  8.347139e-001 -3.087243e-001 -4.560065e-001
    outer loop
      vertex  1.002461e+001 -2.060707e+000 -8.016272e+000
      vertex  1.216178e+001 -2.060707e+000 -4.104211e+000
      vertex  9.017048e+000 -5.975000e+000 -7.210563e+000
    endloop
  endfacet
  facet normal  8.347141e-001 -3.087244e-001 -4.560064e-001
    outer loop
      vertex  9.017048e+000 -5.975000e+000 -7.210563e+000
      vertex  1.216178e+001 -2.060707e+000 -4.104211e+000
      vertex  1.093941e+001 -5.975000e+000 -3.691701e+000
    endloop
  endfacet
  facet normal  6.284113e-001  3.087241e-001 -7.139947e-001
    outer loop
      vertex  6.007096e+000  5.975000e+000 -9.859725e+000
      vertex  9.017048e+000  5.975000e+000 -7.210563e+000
      vertex  6.678329e+000  2.060707e+000 -1.096145e+001
    endloop
  endfacet
  facet normal  6.284112e-001  3.087243e-001 -7.139948e-001
    outer loop
      vertex  6.678329e+000  2.060707e+000 -1.096145e+001
      vertex  9.017048e+000  5.975000e+000 -7.210563e+000
      vertex  1.002461e+001  2.060707e+000 -8.016272e+000
    endloop
  endfacet
  facet normal  6.606846e-001  0.000000e+000 -7.506636e-001
    outer loop
      vertex  6.678329e+000  2.060707e+000 -1.096145e+001
      vertex  1.002461e+001  2.060707e+000 -8.016272e+000
      vertex  6.678329e+000 -2.060707e+000 -1.096145e+001
    endloop
  endfacet
  facet normal  6.606846e-001  0.000000e+000 -7.506636e-001
    outer loop
      vertex  6.678329e+000 -2.060707e+000 -1.096145e+001
      vertex  1.002461e+001  2.060707e+000 -8.016272e+000
      vertex  1.002461e+001 -2.060707e+000 -8.016272e+000
    endloop
  endfacet
  facet normal  6.284113e-001 -3.087242e-001 -7.139949e-001
    outer loop
      vertex  6.678329e+000 -2.060707e+000 -1.096145e+001
      vertex  1.002461e+001 -2.060707e+000 -8.016272e+000
      vertex  6.007096e+000 -5.975000e+000 -9.859725e+000
    endloop
  endfacet
  facet normal  6.284113e-001 -3.087243e-001 -7.139947e-001
    outer loop
      vertex  6.007096e+000 -5.975000e+000 -9.859725e+000
      vertex  1.002461e+001 -2.060707e+000 -8.016272e+000
      vertex  9.017048e+000 -5.975000e+000 -7.210563e+000
    endloop
  endfacet
  facet normal  3.463128e-001  3.087243e-001 -8.858650e-001
    outer loop
      vertex  2.272599e+000  5.975000e+000 -1.131966e+001
      vertex  6.007096e+000  5.975000e+000 -9.859725e+000
      vertex  2.526540e+000  2.060707e+000 -1.258452e+001
    endloop
  endfacet
  facet normal  3.463129e-001  3.087242e-001 -8.858650e-001
    outer loop
      vertex  2.526540e+000  2.060707e+000 -1.258452e+001
      vertex  6.007096e+000  5.975000e+000 -9.859725e+000
      vertex  6.678329e+000  2.060707e+000 -1.096145e+001
    endloop
  endfacet
  facet normal  3.640985e-001  0.000000e+000 -9.313605e-001
    outer loop
      vertex  2.526540e+000  2.060707e+000 -1.258452e+001
      vertex  6.678329e+000  2.060707e+000 -1.096145e+001
      vertex  2.526540e+000 -2.060707e+000 -1.258452e+001
    endloop
  endfacet
  facet normal  3.640985e-001  0.000000e+000 -9.313605e-001
    outer loop
      vertex  2.526540e+000 -2.060707e+000 -1.258452e+001
      vertex  6.678329e+000  2.060707e+000 -1.096145e+001
      vertex  6.678329e+000 -2.060707e+000 -1.096145e+001
    endloop
  endfacet
  facet normal  3.463129e-001 -3.087242e-001 -8.858650e-001
    outer loop
      vertex  2.526540e+000 -2.060707e+000 -1.258452e+001
      vertex  6.678329e+000 -2.060707e+000 -1.096145e+001
      vertex  2.272599e+000 -5.975000e+000 -1.131966e+001
    endloop
  endfacet
  facet normal  3.463128e-001 -3.087241e-001 -8.858650e-001
    outer loop
      vertex  2.272599e+000 -5.975000e+000 -1.131966e+001
      vertex  6.678329e+000 -2.060707e+000 -1.096145e+001
      vertex  6.007096e+000 -5.975000e+000 -9.859725e+000
    endloop
  endfacet
  facet normal  2.244397e-002  3.087243e-001 -9.508868e-001
    outer loop
      vertex -1.736007e+000  5.975000e+000 -1.141427e+001
      vertex  2.272599e+000  5.975000e+000 -1.131966e+001
      vertex -1.929988e+000  2.060707e+000 -1.268971e+001
    endloop
  endfacet
  facet normal  2.244398e-002  3.087243e-001 -9.508868e-001
    outer loop
      vertex -1.929988e+000  2.060707e+000 -1.268971e+001
      vertex  2.272599e+000  5.975000e+000 -1.131966e+001
      vertex  2.526540e+000  2.060707e+000 -1.258452e+001
    endloop
  endfacet
  facet normal  2.359664e-002  0.000000e+000 -9.997216e-001
    outer loop
      vertex -1.929988e+000  2.060707e+000 -1.268971e+001
      vertex  2.526540e+000  2.060707e+000 -1.258452e+001
      vertex -1.929988e+000 -2.060707e+000 -1.268971e+001
    endloop
  endfacet
  facet normal  2.359664e-002  0.000000e+000 -9.997216e-001
    outer loop
      vertex -1.929988e+000 -2.060707e+000 -1.268971e+001
      vertex  2.526540e+000  2.060707e+000 -1.258452e+001
      vertex  2.526540e+000 -2.060707e+000 -1.258452e+001
    endloop
  endfacet
  facet normal  2.244398e-002 -3.087243e-001 -9.508868e-001
    outer loop
      vertex -1.929988e+000 -2.060707e+000 -1.268971e+001
      vertex  2.526540e+000 -2.060707e+000 -1.258452e+001
      vertex -1.736007e+000 -5.975000e+000 -1.141427e+001
    endloop
  endfacet
  facet normal  2.244397e-002 -3.087243e-001 -9.508868e-001
    outer loop
      vertex -1.736007e+000 -5.975000e+000 -1.141427e+001
      vertex  2.526540e+000 -2.060707e+000 -1.258452e+001
      vertex  2.272599e+000 -5.975000e+000 -1.131966e+001
    endloop
  endfacet
endsolid CATIA STL
