solid CATIA STL
  facet normal  0.000000e+000  1.000000e+000  0.000000e+000
    outer loop
      vertex  6.583247e+001  1.300000e+001  4.181573e+001
      vertex  9.102142e+001  1.300000e+001  1.302835e+001
      vertex  9.003362e+001  1.300000e+001  1.057880e+001
    endloop
  endfacet
  facet normal  0.000000e+000  1.000000e+000  0.000000e+000
    outer loop
      vertex  6.583247e+001  1.300000e+001  4.181573e+001
      vertex  9.003362e+001  1.300000e+001  1.057880e+001
      vertex  9.043164e+001  1.300000e+001  7.967738e+000
    endloop
  endfacet
  facet normal  0.000000e+000  1.000000e+000  0.000000e+000
    outer loop
      vertex  9.458521e+001  1.300000e+001  5.017234e+000
      vertex  1.000565e+002  1.300000e+001  3.800687e+000
      vertex  9.730505e+001  1.300000e+001  2.339271e+000
    endloop
  endfacet
  facet normal  0.000000e+000  1.000000e+000  -0.000000e+000
    outer loop
      vertex  6.733762e+001  1.300000e+001  4.313274e+001
      vertex  6.583247e+001  1.300000e+001  4.181573e+001
      vertex  6.000000e+001  1.300000e+001  4.500000e+001
    endloop
  endfacet
  facet normal  -0.000000e+000  9.999999e-001  0.000000e+000
    outer loop
      vertex  6.733762e+001  1.300000e+001  4.313274e+001
      vertex  6.000000e+001  1.300000e+001  4.500000e+001
      vertex  6.250000e+001  1.300000e+001  4.566987e+001
    endloop
  endfacet
  facet normal  -0.000000e+000  1.000000e+000  0.000000e+000
    outer loop
      vertex  6.733762e+001  1.300000e+001  4.313274e+001
      vertex  6.250000e+001  1.300000e+001  4.566987e+001
      vertex  6.433012e+001  1.300000e+001  4.750000e+001
    endloop
  endfacet
  facet normal  -0.000000e+000  1.000000e+000  0.000000e+000
    outer loop
      vertex  6.733762e+001  1.300000e+001  4.313274e+001
      vertex  6.433012e+001  1.300000e+001  4.750000e+001
      vertex  6.500000e+001  1.300000e+001  5.000000e+001
    endloop
  endfacet
  facet normal  -0.000000e+000  1.000000e+000  0.000000e+000
    outer loop
      vertex  6.733762e+001  1.300000e+001  4.313274e+001
      vertex  6.500000e+001  1.300000e+001  5.000000e+001
      vertex  6.776823e+001  1.300000e+001  5.629720e+001
    endloop
  endfacet
  facet normal  0.000000e+000  1.000000e+000  -0.000000e+000
    outer loop
      vertex  6.776823e+001  1.300000e+001  5.629720e+001
      vertex  6.500000e+001  1.300000e+001  5.000000e+001
      vertex  6.433012e+001  1.300000e+001  5.250000e+001
    endloop
  endfacet
  facet normal  0.000000e+000  1.000000e+000  -0.000000e+000
    outer loop
      vertex  6.776823e+001  1.300000e+001  5.629720e+001
      vertex  6.433012e+001  1.300000e+001  5.250000e+001
      vertex  6.250000e+001  1.300000e+001  5.433013e+001
    endloop
  endfacet
  facet normal  0.000000e+000  1.000000e+000  -0.000000e+000
    outer loop
      vertex  6.776823e+001  1.300000e+001  5.629720e+001
      vertex  6.250000e+001  1.300000e+001  5.433013e+001
      vertex  6.000000e+001  1.300000e+001  5.500000e+001
    endloop
  endfacet
  facet normal  0.000000e+000  1.000000e+000  0.000000e+000
    outer loop
      vertex  6.776823e+001  1.300000e+001  5.629720e+001
      vertex  6.000000e+001  1.300000e+001  5.500000e+001
      vertex  6.185551e+001  1.300000e+001  5.982635e+001
    endloop
  endfacet
  facet normal  0.000000e+000  1.000000e+000  0.000000e+000
    outer loop
      vertex  6.776823e+001  1.300000e+001  5.629720e+001
      vertex  6.185551e+001  1.300000e+001  5.982635e+001
      vertex  6.512521e+001  1.300000e+001  5.858675e+001
    endloop
  endfacet
  facet normal  0.000000e+000  1.000000e+000  0.000000e+000
    outer loop
      vertex -1.300000e+001  1.300000e+001  2.000000e+001
      vertex -1.300000e+001  1.300000e+001  4.800000e+001
      vertex -8.356443e+000  1.300000e+001  2.370598e+001
    endloop
  endfacet
  facet normal  0.000000e+000  1.000000e+000  0.000000e+000
    outer loop
      vertex -1.300000e+001  1.300000e+001  2.000000e+001
      vertex -8.356443e+000  1.300000e+001  2.370598e+001
      vertex -9.776295e+000  1.300000e+001  2.147885e+001
    endloop
  endfacet
  facet normal  0.000000e+000  1.000000e+000  0.000000e+000
    outer loop
      vertex -1.300000e+001  1.300000e+001  2.000000e+001
      vertex -9.776295e+000  1.300000e+001  2.147885e+001
      vertex -9.863356e+000  1.300000e+001  1.883906e+001
    endloop
  endfacet
  facet normal  0.000000e+000  9.999999e-001  0.000000e+000
    outer loop
      vertex -1.300000e+001  1.300000e+001  2.000000e+001
      vertex -9.863356e+000  1.300000e+001  1.883906e+001
      vertex -8.593330e+000  1.300000e+001  1.652322e+001
    endloop
  endfacet
  facet normal  0.000000e+000  1.000000e+000  0.000000e+000
    outer loop
      vertex -1.300000e+001  1.300000e+001  2.000000e+001
      vertex -8.593330e+000  1.300000e+001  1.652322e+001
      vertex -1.246502e+001  1.300000e+001  1.712363e+001
    endloop
  endfacet
  facet normal  0.000000e+000  1.000000e+000  0.000000e+000
    outer loop
      vertex  6.776823e+001  1.300000e+001  5.629720e+001
      vertex  1.012146e+002  1.300000e+001  1.503776e+001
      vertex  9.508558e+001  1.300000e+001  1.499927e+001
    endloop
  endfacet
  facet normal  0.000000e+000  1.000000e+000  0.000000e+000
    outer loop
      vertex  6.776823e+001  1.300000e+001  5.629720e+001
      vertex  9.508558e+001  1.300000e+001  1.499927e+001
      vertex  9.252657e+001  1.300000e+001  1.434536e+001
    endloop
  endfacet
  facet normal  0.000000e+000  1.000000e+000  0.000000e+000
    outer loop
      vertex  6.776823e+001  1.300000e+001  5.629720e+001
      vertex  9.252657e+001  1.300000e+001  1.434536e+001
      vertex  6.733762e+001  1.300000e+001  4.313274e+001
    endloop
  endfacet
  facet normal  -0.000000e+000  1.000000e+000  0.000000e+000
    outer loop
      vertex  9.420397e+001  1.300000e+001  2.039702e+000
      vertex -5.796030e+000  1.300000e+001  1.203970e+001
      vertex -3.679387e+000  1.300000e+001  1.517755e+001
    endloop
  endfacet
  facet normal  -0.000000e+000  1.000000e+000  0.000000e+000
    outer loop
      vertex  9.420397e+001  1.300000e+001  2.039702e+000
      vertex -3.679387e+000  1.300000e+001  1.517755e+001
      vertex -1.406669e+000  1.300000e+001  1.652322e+001
    endloop
  endfacet
  facet normal  -0.000000e+000  1.000000e+000  0.000000e+000
    outer loop
      vertex  9.420397e+001  1.300000e+001  2.039702e+000
      vertex -1.406669e+000  1.300000e+001  1.652322e+001
      vertex -1.366447e-001  1.300000e+001  1.883906e+001
    endloop
  endfacet
  facet normal  -0.000000e+000  1.000000e+000  0.000000e+000
    outer loop
      vertex  9.420397e+001  1.300000e+001  2.039702e+000
      vertex -1.366447e-001  1.300000e+001  1.883906e+001
      vertex  6.000000e+001  1.300000e+001  4.500000e+001
    endloop
  endfacet
  facet normal  0.000000e+000  1.000000e+000  0.000000e+000
    outer loop
      vertex  9.420397e+001  1.300000e+001  2.039702e+000
      vertex  6.000000e+001  1.300000e+001  4.500000e+001
      vertex  6.583247e+001  1.300000e+001  4.181573e+001
    endloop
  endfacet
  facet normal  0.000000e+000  1.000000e+000  0.000000e+000
    outer loop
      vertex  9.420397e+001  1.300000e+001  2.039702e+000
      vertex  6.583247e+001  1.300000e+001  4.181573e+001
      vertex  9.043164e+001  1.300000e+001  7.967738e+000
    endloop
  endfacet
  facet normal  0.000000e+000  1.000000e+000  0.000000e+000
    outer loop
      vertex  9.420397e+001  1.300000e+001  2.039702e+000
      vertex  9.043164e+001  1.300000e+001  7.967738e+000
      vertex  9.210443e+001  1.300000e+001  5.923764e+000
    endloop
  endfacet
  facet normal  0.000000e+000  1.000000e+000  0.000000e+000
    outer loop
      vertex  9.420397e+001  1.300000e+001  2.039702e+000
      vertex  9.210443e+001  1.300000e+001  5.923764e+000
      vertex  9.458521e+001  1.300000e+001  5.017234e+000
    endloop
  endfacet
  facet normal  0.000000e+000  1.000000e+000  0.000000e+000
    outer loop
      vertex  9.420397e+001  1.300000e+001  2.039702e+000
      vertex  9.458521e+001  1.300000e+001  5.017234e+000
      vertex  9.730505e+001  1.300000e+001  2.339271e+000
    endloop
  endfacet
  facet normal  0.000000e+000  1.000000e+000  -0.000000e+000
    outer loop
      vertex  6.000000e+001  1.300000e+001  4.500000e+001
      vertex -1.366447e-001  1.300000e+001  1.883906e+001
      vertex -2.237051e-001  1.300000e+001  2.147885e+001
    endloop
  endfacet
  facet normal  0.000000e+000  1.000000e+000  -0.000000e+000
    outer loop
      vertex  6.000000e+001  1.300000e+001  4.500000e+001
      vertex -2.237051e-001  1.300000e+001  2.147885e+001
      vertex -1.643557e+000  1.300000e+001  2.370598e+001
    endloop
  endfacet
  facet normal  0.000000e+000  9.999999e-001  -0.000000e+000
    outer loop
      vertex  6.000000e+001  1.300000e+001  4.500000e+001
      vertex -1.643557e+000  1.300000e+001  2.370598e+001
      vertex -4.000000e+000  1.300000e+001  2.489898e+001
    endloop
  endfacet
  facet normal  0.000000e+000  1.000000e+000  0.000000e+000
    outer loop
      vertex  6.000000e+001  1.300000e+001  4.500000e+001
      vertex -4.000000e+000  1.300000e+001  2.489898e+001
      vertex  5.750000e+001  1.300000e+001  4.566987e+001
    endloop
  endfacet
  facet normal  -0.000000e+000  9.999999e-001  0.000000e+000
    outer loop
      vertex -5.796030e+000  1.300000e+001  1.203970e+001
      vertex -8.604895e+000  1.300000e+001  1.285824e+001
      vertex -3.679387e+000  1.300000e+001  1.517755e+001
    endloop
  endfacet
  facet normal  0.000000e+000  1.000000e+000  0.000000e+000
    outer loop
      vertex -3.679387e+000  1.300000e+001  1.517755e+001
      vertex -8.604895e+000  1.300000e+001  1.285824e+001
      vertex -1.093162e+001  1.300000e+001  1.463196e+001
    endloop
  endfacet
  facet normal  0.000000e+000  1.000000e+000  0.000000e+000
    outer loop
      vertex -3.679387e+000  1.300000e+001  1.517755e+001
      vertex -1.093162e+001  1.300000e+001  1.463196e+001
      vertex -6.320613e+000  1.300000e+001  1.517755e+001
    endloop
  endfacet
  facet normal  0.000000e+000  1.000000e+000  0.000000e+000
    outer loop
      vertex  5.835892e+001  1.300000e+001  5.986443e+001
      vertex  6.185551e+001  1.300000e+001  5.982635e+001
      vertex  5.506300e+001  1.300000e+001  5.869632e+001
    endloop
  endfacet
  facet normal  -0.000000e+000  1.000000e+000  0.000000e+000
    outer loop
      vertex  5.506300e+001  1.300000e+001  5.869632e+001
      vertex  6.185551e+001  1.300000e+001  5.982635e+001
      vertex  6.000000e+001  1.300000e+001  5.500000e+001
    endloop
  endfacet
  facet normal  0.000000e+000  1.000000e+000  0.000000e+000
    outer loop
      vertex  5.506300e+001  1.300000e+001  5.869632e+001
      vertex  6.000000e+001  1.300000e+001  5.500000e+001
      vertex  5.237075e+001  1.300000e+001  5.646487e+001
    endloop
  endfacet
  facet normal  -0.000000e+000  1.000000e+000  0.000000e+000
    outer loop
      vertex  1.020411e+002  1.300000e+001  6.202307e+000
      vertex  9.916946e+001  1.300000e+001  7.240369e+000
      vertex  1.029579e+002  1.300000e+001  9.179895e+000
    endloop
  endfacet
  facet normal  0.000000e+000  1.000000e+000  0.000000e+000
    outer loop
      vertex  1.029579e+002  1.300000e+001  9.179895e+000
      vertex  9.916946e+001  1.300000e+001  7.240369e+000
      vertex  9.999373e+001  1.300000e+001  9.749684e+000
    endloop
  endfacet
  facet normal  -0.000000e+000  1.000000e+000  0.000000e+000
    outer loop
      vertex  1.029579e+002  1.300000e+001  9.179895e+000
      vertex  9.999373e+001  1.300000e+001  9.749684e+000
      vertex  1.026677e+002  1.300000e+001  1.228186e+001
    endloop
  endfacet
  facet normal  0.000000e+000  1.000000e+000  0.000000e+000
    outer loop
      vertex  1.026677e+002  1.300000e+001  1.228186e+001
      vertex  9.999373e+001  1.300000e+001  9.749684e+000
      vertex  9.942453e+001  1.300000e+001  1.232885e+001
    endloop
  endfacet
  facet normal  -0.000000e+000  9.999999e-001  0.000000e+000
    outer loop
      vertex  1.026677e+002  1.300000e+001  1.228186e+001
      vertex  9.942453e+001  1.300000e+001  1.232885e+001
      vertex  1.012146e+002  1.300000e+001  1.503776e+001
    endloop
  endfacet
  facet normal  0.000000e+000  1.000000e+000  0.000000e+000
    outer loop
      vertex  1.012146e+002  1.300000e+001  1.503776e+001
      vertex  9.942453e+001  1.300000e+001  1.232885e+001
      vertex  9.762070e+001  1.300000e+001  1.425816e+001
    endloop
  endfacet
  facet normal  0.000000e+000  1.000000e+000  -0.000000e+000
    outer loop
      vertex  1.012146e+002  1.300000e+001  1.503776e+001
      vertex  9.762070e+001  1.300000e+001  1.425816e+001
      vertex  9.508558e+001  1.300000e+001  1.499927e+001
    endloop
  endfacet
  facet normal  -0.000000e+000  1.000000e+000  0.000000e+000
    outer loop
      vertex  1.000565e+002  1.300000e+001  3.800687e+000
      vertex  9.458521e+001  1.300000e+001  5.017234e+000
      vertex  1.020411e+002  1.300000e+001  6.202307e+000
    endloop
  endfacet
  facet normal  0.000000e+000  1.000000e+000  0.000000e+000
    outer loop
      vertex  1.020411e+002  1.300000e+001  6.202307e+000
      vertex  9.458521e+001  1.300000e+001  5.017234e+000
      vertex  9.718174e+001  1.300000e+001  5.501110e+000
    endloop
  endfacet
  facet normal  0.000000e+000  1.000000e+000  0.000000e+000
    outer loop
      vertex  1.020411e+002  1.300000e+001  6.202307e+000
      vertex  9.718174e+001  1.300000e+001  5.501110e+000
      vertex  9.916946e+001  1.300000e+001  7.240369e+000
    endloop
  endfacet
  facet normal  0.000000e+000  1.000000e+000  0.000000e+000
    outer loop
      vertex -6.000000e+000  1.300000e+001  2.489898e+001
      vertex -8.356443e+000  1.300000e+001  2.370598e+001
      vertex -6.000000e+000  1.300000e+001  4.800000e+001
    endloop
  endfacet
  facet normal  0.000000e+000  1.000000e+000  0.000000e+000
    outer loop
      vertex -6.000000e+000  1.300000e+001  4.800000e+001
      vertex -8.356443e+000  1.300000e+001  2.370598e+001
      vertex -1.300000e+001  1.300000e+001  4.800000e+001
    endloop
  endfacet
  facet normal  0.000000e+000  1.000000e+000  0.000000e+000
    outer loop
      vertex -8.593330e+000  1.300000e+001  1.652322e+001
      vertex -6.320613e+000  1.300000e+001  1.517755e+001
      vertex -1.246502e+001  1.300000e+001  1.712363e+001
    endloop
  endfacet
  facet normal  0.000000e+000  1.000000e+000  0.000000e+000
    outer loop
      vertex -1.246502e+001  1.300000e+001  1.712363e+001
      vertex -6.320613e+000  1.300000e+001  1.517755e+001
      vertex -1.093162e+001  1.300000e+001  1.463196e+001
    endloop
  endfacet
  facet normal  0.000000e+000  1.000000e+000  0.000000e+000
    outer loop
      vertex  5.237075e+001  1.300000e+001  5.646487e+001
      vertex  6.000000e+001  1.300000e+001  5.500000e+001
      vertex  5.061138e+001  1.300000e+001  5.344293e+001
    endloop
  endfacet
  facet normal  0.000000e+000  1.000000e+000  0.000000e+000
    outer loop
      vertex  5.061138e+001  1.300000e+001  5.344293e+001
      vertex  6.000000e+001  1.300000e+001  5.500000e+001
      vertex  5.750000e+001  1.300000e+001  5.433013e+001
    endloop
  endfacet
  facet normal  0.000000e+000  1.000000e+000  0.000000e+000
    outer loop
      vertex  5.061138e+001  1.300000e+001  5.344293e+001
      vertex  5.750000e+001  1.300000e+001  5.433013e+001
      vertex  5.000000e+001  1.300000e+001  5.000000e+001
    endloop
  endfacet
  facet normal  0.000000e+000  1.000000e+000  0.000000e+000
    outer loop
      vertex  5.000000e+001  1.300000e+001  5.000000e+001
      vertex  5.750000e+001  1.300000e+001  5.433013e+001
      vertex  5.566987e+001  1.300000e+001  5.250000e+001
    endloop
  endfacet
  facet normal  0.000000e+000  1.000000e+000  0.000000e+000
    outer loop
      vertex  5.000000e+001  1.300000e+001  5.000000e+001
      vertex  5.566987e+001  1.300000e+001  5.250000e+001
      vertex  5.500000e+001  1.300000e+001  5.000000e+001
    endloop
  endfacet
  facet normal  0.000000e+000  1.000000e+000  0.000000e+000
    outer loop
      vertex  5.000000e+001  1.300000e+001  5.000000e+001
      vertex  5.500000e+001  1.300000e+001  5.000000e+001
      vertex  5.000000e+001  1.300000e+001  4.800000e+001
    endloop
  endfacet
  facet normal  -0.000000e+000  1.000000e+000  0.000000e+000
    outer loop
      vertex  5.000000e+001  1.300000e+001  4.800000e+001
      vertex  5.500000e+001  1.300000e+001  5.000000e+001
      vertex  5.566987e+001  1.300000e+001  4.750000e+001
    endloop
  endfacet
  facet normal  0.000000e+000  1.000000e+000  0.000000e+000
    outer loop
      vertex  5.000000e+001  1.300000e+001  4.800000e+001
      vertex  5.566987e+001  1.300000e+001  4.750000e+001
      vertex -4.000000e+000  1.300000e+001  4.800000e+001
    endloop
  endfacet
  facet normal  0.000000e+000  1.000000e+000  0.000000e+000
    outer loop
      vertex  5.566987e+001  1.300000e+001  4.750000e+001
      vertex  5.750000e+001  1.300000e+001  4.566987e+001
      vertex -4.000000e+000  1.300000e+001  4.800000e+001
    endloop
  endfacet
  facet normal  0.000000e+000  1.000000e+000  0.000000e+000
    outer loop
      vertex -4.000000e+000  1.300000e+001  4.800000e+001
      vertex  5.750000e+001  1.300000e+001  4.566987e+001
      vertex -4.000000e+000  1.300000e+001  2.489898e+001
    endloop
  endfacet
  facet normal  -0.000000e+000 -1.000000e+000  0.000000e+000
    outer loop
      vertex  9.003362e+001  1.100000e+001  1.057880e+001
      vertex  9.102142e+001  1.100000e+001  1.302835e+001
      vertex  6.583247e+001  1.100000e+001  4.181573e+001
    endloop
  endfacet
  facet normal  -0.000000e+000 -1.000000e+000  -0.000000e+000
    outer loop
      vertex  9.043164e+001  1.100000e+001  7.967738e+000
      vertex  9.003362e+001  1.100000e+001  1.057880e+001
      vertex  6.583247e+001  1.100000e+001  4.181573e+001
    endloop
  endfacet
  facet normal  -0.000000e+000 -1.000000e+000  0.000000e+000
    outer loop
      vertex  9.730505e+001  1.100000e+001  2.339271e+000
      vertex  1.000565e+002  1.100000e+001  3.800687e+000
      vertex  9.458521e+001  1.100000e+001  5.017234e+000
    endloop
  endfacet
  facet normal  0.000000e+000 -1.000000e+000  0.000000e+000
    outer loop
      vertex  6.733762e+001  1.100000e+001  4.313274e+001
      vertex  6.776823e+001  1.100000e+001  5.629720e+001
      vertex  6.500000e+001  1.100000e+001  5.000000e+001
    endloop
  endfacet
  facet normal  0.000000e+000 -1.000000e+000  -0.000000e+000
    outer loop
      vertex  6.733762e+001  1.100000e+001  4.313274e+001
      vertex  6.500000e+001  1.100000e+001  5.000000e+001
      vertex  6.433012e+001  1.100000e+001  4.750000e+001
    endloop
  endfacet
  facet normal  0.000000e+000 -1.000000e+000  -0.000000e+000
    outer loop
      vertex  6.733762e+001  1.100000e+001  4.313274e+001
      vertex  6.433012e+001  1.100000e+001  4.750000e+001
      vertex  6.250000e+001  1.100000e+001  4.566987e+001
    endloop
  endfacet
  facet normal  0.000000e+000 -9.999999e-001  -0.000000e+000
    outer loop
      vertex  6.733762e+001  1.100000e+001  4.313274e+001
      vertex  6.250000e+001  1.100000e+001  4.566987e+001
      vertex  6.000000e+001  1.100000e+001  4.500000e+001
    endloop
  endfacet
  facet normal  0.000000e+000 -1.000000e+000  0.000000e+000
    outer loop
      vertex  6.733762e+001  1.100000e+001  4.313274e+001
      vertex  6.000000e+001  1.100000e+001  4.500000e+001
      vertex  6.583247e+001  1.100000e+001  4.181573e+001
    endloop
  endfacet
  facet normal  -0.000000e+000 -1.000000e+000  -0.000000e+000
    outer loop
      vertex  6.776823e+001  1.100000e+001  5.629720e+001
      vertex  6.512521e+001  1.100000e+001  5.858675e+001
      vertex  6.185551e+001  1.100000e+001  5.982635e+001
    endloop
  endfacet
  facet normal  0.000000e+000 -1.000000e+000  -0.000000e+000
    outer loop
      vertex  6.776823e+001  1.100000e+001  5.629720e+001
      vertex  6.185551e+001  1.100000e+001  5.982635e+001
      vertex  6.000000e+001  1.100000e+001  5.500000e+001
    endloop
  endfacet
  facet normal  0.000000e+000 -1.000000e+000  0.000000e+000
    outer loop
      vertex  6.776823e+001  1.100000e+001  5.629720e+001
      vertex  6.000000e+001  1.100000e+001  5.500000e+001
      vertex  6.250000e+001  1.100000e+001  5.433013e+001
    endloop
  endfacet
  facet normal  0.000000e+000 -1.000000e+000  0.000000e+000
    outer loop
      vertex  6.776823e+001  1.100000e+001  5.629720e+001
      vertex  6.250000e+001  1.100000e+001  5.433013e+001
      vertex  6.433012e+001  1.100000e+001  5.250000e+001
    endloop
  endfacet
  facet normal  0.000000e+000 -1.000000e+000  0.000000e+000
    outer loop
      vertex  6.776823e+001  1.100000e+001  5.629720e+001
      vertex  6.433012e+001  1.100000e+001  5.250000e+001
      vertex  6.500000e+001  1.100000e+001  5.000000e+001
    endloop
  endfacet
  facet normal  0.000000e+000 -1.000000e+000  0.000000e+000
    outer loop
      vertex -1.300000e+001  1.100000e+001  2.000000e+001
      vertex -1.246502e+001  1.100000e+001  1.712363e+001
      vertex -8.593330e+000  1.100000e+001  1.652322e+001
    endloop
  endfacet
  facet normal  0.000000e+000 -9.999999e-001  0.000000e+000
    outer loop
      vertex -1.300000e+001  1.100000e+001  2.000000e+001
      vertex -8.593330e+000  1.100000e+001  1.652322e+001
      vertex -9.863356e+000  1.100000e+001  1.883906e+001
    endloop
  endfacet
  facet normal  0.000000e+000 -1.000000e+000  0.000000e+000
    outer loop
      vertex -1.300000e+001  1.100000e+001  2.000000e+001
      vertex -9.863356e+000  1.100000e+001  1.883906e+001
      vertex -9.776295e+000  1.100000e+001  2.147885e+001
    endloop
  endfacet
  facet normal  -0.000000e+000 -1.000000e+000  0.000000e+000
    outer loop
      vertex -1.300000e+001  1.100000e+001  2.000000e+001
      vertex -9.776295e+000  1.100000e+001  2.147885e+001
      vertex -8.356443e+000  1.100000e+001  2.370598e+001
    endloop
  endfacet
  facet normal  -0.000000e+000 -1.000000e+000  0.000000e+000
    outer loop
      vertex -1.300000e+001  1.100000e+001  2.000000e+001
      vertex -8.356443e+000  1.100000e+001  2.370598e+001
      vertex -1.300000e+001  1.100000e+001  4.800000e+001
    endloop
  endfacet
  facet normal  0.000000e+000 -1.000000e+000  0.000000e+000
    outer loop
      vertex  6.776823e+001  1.100000e+001  5.629720e+001
      vertex  6.733762e+001  1.100000e+001  4.313274e+001
      vertex  9.252657e+001  1.100000e+001  1.434536e+001
    endloop
  endfacet
  facet normal  0.000000e+000 -1.000000e+000  0.000000e+000
    outer loop
      vertex  6.776823e+001  1.100000e+001  5.629720e+001
      vertex  9.252657e+001  1.100000e+001  1.434536e+001
      vertex  9.508558e+001  1.100000e+001  1.499927e+001
    endloop
  endfacet
  facet normal  0.000000e+000 -1.000000e+000  0.000000e+000
    outer loop
      vertex  6.776823e+001  1.100000e+001  5.629720e+001
      vertex  9.508558e+001  1.100000e+001  1.499927e+001
      vertex  1.012146e+002  1.100000e+001  1.503776e+001
    endloop
  endfacet
  facet normal  -0.000000e+000 -1.000000e+000  0.000000e+000
    outer loop
      vertex  9.420397e+001  1.100000e+001  2.039702e+000
      vertex  9.730505e+001  1.100000e+001  2.339271e+000
      vertex  9.458521e+001  1.100000e+001  5.017234e+000
    endloop
  endfacet
  facet normal  -0.000000e+000 -1.000000e+000  0.000000e+000
    outer loop
      vertex  9.420397e+001  1.100000e+001  2.039702e+000
      vertex  9.458521e+001  1.100000e+001  5.017234e+000
      vertex  9.210443e+001  1.100000e+001  5.923764e+000
    endloop
  endfacet
  facet normal  -0.000000e+000 -1.000000e+000  -0.000000e+000
    outer loop
      vertex  9.420397e+001  1.100000e+001  2.039702e+000
      vertex  9.210443e+001  1.100000e+001  5.923764e+000
      vertex  9.043164e+001  1.100000e+001  7.967738e+000
    endloop
  endfacet
  facet normal  -0.000000e+000 -1.000000e+000  -0.000000e+000
    outer loop
      vertex  9.420397e+001  1.100000e+001  2.039702e+000
      vertex  9.043164e+001  1.100000e+001  7.967738e+000
      vertex  6.583247e+001  1.100000e+001  4.181573e+001
    endloop
  endfacet
  facet normal  -0.000000e+000 -1.000000e+000  -0.000000e+000
    outer loop
      vertex  9.420397e+001  1.100000e+001  2.039702e+000
      vertex  6.583247e+001  1.100000e+001  4.181573e+001
      vertex  6.000000e+001  1.100000e+001  4.500000e+001
    endloop
  endfacet
  facet normal  0.000000e+000 -1.000000e+000  -0.000000e+000
    outer loop
      vertex  9.420397e+001  1.100000e+001  2.039702e+000
      vertex  6.000000e+001  1.100000e+001  4.500000e+001
      vertex -1.366447e-001  1.100000e+001  1.883906e+001
    endloop
  endfacet
  facet normal  0.000000e+000 -1.000000e+000  -0.000000e+000
    outer loop
      vertex  9.420397e+001  1.100000e+001  2.039702e+000
      vertex -1.366447e-001  1.100000e+001  1.883906e+001
      vertex -1.406669e+000  1.100000e+001  1.652322e+001
    endloop
  endfacet
  facet normal  0.000000e+000 -1.000000e+000  -0.000000e+000
    outer loop
      vertex  9.420397e+001  1.100000e+001  2.039702e+000
      vertex -1.406669e+000  1.100000e+001  1.652322e+001
      vertex -3.679387e+000  1.100000e+001  1.517755e+001
    endloop
  endfacet
  facet normal  0.000000e+000 -1.000000e+000  -0.000000e+000
    outer loop
      vertex  9.420397e+001  1.100000e+001  2.039702e+000
      vertex -3.679387e+000  1.100000e+001  1.517755e+001
      vertex -5.796030e+000  1.100000e+001  1.203970e+001
    endloop
  endfacet
  facet normal  0.000000e+000 -1.000000e+000  -0.000000e+000
    outer loop
      vertex  6.000000e+001  1.100000e+001  4.500000e+001
      vertex  5.750000e+001  1.100000e+001  4.566987e+001
      vertex -4.000000e+000  1.100000e+001  2.489898e+001
    endloop
  endfacet
  facet normal  0.000000e+000 -9.999999e-001  0.000000e+000
    outer loop
      vertex  6.000000e+001  1.100000e+001  4.500000e+001
      vertex -4.000000e+000  1.100000e+001  2.489898e+001
      vertex -1.643557e+000  1.100000e+001  2.370598e+001
    endloop
  endfacet
  facet normal  0.000000e+000 -1.000000e+000  0.000000e+000
    outer loop
      vertex  6.000000e+001  1.100000e+001  4.500000e+001
      vertex -1.643557e+000  1.100000e+001  2.370598e+001
      vertex -2.237051e-001  1.100000e+001  2.147885e+001
    endloop
  endfacet
  facet normal  0.000000e+000 -1.000000e+000  0.000000e+000
    outer loop
      vertex  6.000000e+001  1.100000e+001  4.500000e+001
      vertex -2.237051e-001  1.100000e+001  2.147885e+001
      vertex -1.366447e-001  1.100000e+001  1.883906e+001
    endloop
  endfacet
  facet normal  0.000000e+000 -1.000000e+000  0.000000e+000
    outer loop
      vertex -6.320613e+000  1.100000e+001  1.517755e+001
      vertex -1.093162e+001  1.100000e+001  1.463196e+001
      vertex -3.679387e+000  1.100000e+001  1.517755e+001
    endloop
  endfacet
  facet normal  0.000000e+000 -1.000000e+000  0.000000e+000
    outer loop
      vertex -3.679387e+000  1.100000e+001  1.517755e+001
      vertex -1.093162e+001  1.100000e+001  1.463196e+001
      vertex -8.604895e+000  1.100000e+001  1.285824e+001
    endloop
  endfacet
  facet normal  0.000000e+000 -9.999999e-001  0.000000e+000
    outer loop
      vertex -3.679387e+000  1.100000e+001  1.517755e+001
      vertex -8.604895e+000  1.100000e+001  1.285824e+001
      vertex -5.796030e+000  1.100000e+001  1.203970e+001
    endloop
  endfacet
  facet normal  0.000000e+000 -1.000000e+000  0.000000e+000
    outer loop
      vertex  5.237075e+001  1.100000e+001  5.646487e+001
      vertex  6.000000e+001  1.100000e+001  5.500000e+001
      vertex  5.506300e+001  1.100000e+001  5.869632e+001
    endloop
  endfacet
  facet normal  0.000000e+000 -1.000000e+000  0.000000e+000
    outer loop
      vertex  5.506300e+001  1.100000e+001  5.869632e+001
      vertex  6.000000e+001  1.100000e+001  5.500000e+001
      vertex  6.185551e+001  1.100000e+001  5.982635e+001
    endloop
  endfacet
  facet normal  -0.000000e+000 -1.000000e+000  0.000000e+000
    outer loop
      vertex  5.506300e+001  1.100000e+001  5.869632e+001
      vertex  6.185551e+001  1.100000e+001  5.982635e+001
      vertex  5.835892e+001  1.100000e+001  5.986443e+001
    endloop
  endfacet
  facet normal  0.000000e+000 -1.000000e+000  0.000000e+000
    outer loop
      vertex  9.508558e+001  1.100000e+001  1.499927e+001
      vertex  9.762070e+001  1.100000e+001  1.425816e+001
      vertex  1.012146e+002  1.100000e+001  1.503776e+001
    endloop
  endfacet
  facet normal  0.000000e+000 -1.000000e+000  0.000000e+000
    outer loop
      vertex  1.012146e+002  1.100000e+001  1.503776e+001
      vertex  9.762070e+001  1.100000e+001  1.425816e+001
      vertex  9.942453e+001  1.100000e+001  1.232885e+001
    endloop
  endfacet
  facet normal  0.000000e+000 -9.999999e-001  0.000000e+000
    outer loop
      vertex  1.012146e+002  1.100000e+001  1.503776e+001
      vertex  9.942453e+001  1.100000e+001  1.232885e+001
      vertex  1.026677e+002  1.100000e+001  1.228186e+001
    endloop
  endfacet
  facet normal  -0.000000e+000 -1.000000e+000  0.000000e+000
    outer loop
      vertex  1.026677e+002  1.100000e+001  1.228186e+001
      vertex  9.942453e+001  1.100000e+001  1.232885e+001
      vertex  9.999373e+001  1.100000e+001  9.749684e+000
    endloop
  endfacet
  facet normal  0.000000e+000 -1.000000e+000  0.000000e+000
    outer loop
      vertex  1.026677e+002  1.100000e+001  1.228186e+001
      vertex  9.999373e+001  1.100000e+001  9.749684e+000
      vertex  1.029579e+002  1.100000e+001  9.179895e+000
    endloop
  endfacet
  facet normal  -0.000000e+000 -1.000000e+000  0.000000e+000
    outer loop
      vertex  1.029579e+002  1.100000e+001  9.179895e+000
      vertex  9.999373e+001  1.100000e+001  9.749684e+000
      vertex  9.916946e+001  1.100000e+001  7.240369e+000
    endloop
  endfacet
  facet normal  0.000000e+000 -1.000000e+000  0.000000e+000
    outer loop
      vertex  1.029579e+002  1.100000e+001  9.179895e+000
      vertex  9.916946e+001  1.100000e+001  7.240369e+000
      vertex  1.020411e+002  1.100000e+001  6.202307e+000
    endloop
  endfacet
  facet normal  0.000000e+000 -1.000000e+000  0.000000e+000
    outer loop
      vertex  9.916946e+001  1.100000e+001  7.240369e+000
      vertex  9.718174e+001  1.100000e+001  5.501110e+000
      vertex  1.020411e+002  1.100000e+001  6.202307e+000
    endloop
  endfacet
  facet normal  0.000000e+000 -1.000000e+000  0.000000e+000
    outer loop
      vertex  1.020411e+002  1.100000e+001  6.202307e+000
      vertex  9.718174e+001  1.100000e+001  5.501110e+000
      vertex  9.458521e+001  1.100000e+001  5.017234e+000
    endloop
  endfacet
  facet normal  0.000000e+000 -1.000000e+000  0.000000e+000
    outer loop
      vertex  1.020411e+002  1.100000e+001  6.202307e+000
      vertex  9.458521e+001  1.100000e+001  5.017234e+000
      vertex  1.000565e+002  1.100000e+001  3.800687e+000
    endloop
  endfacet
  facet normal  0.000000e+000 -1.000000e+000  -0.000000e+000
    outer loop
      vertex -6.000000e+000  1.100000e+001  2.489898e+001
      vertex -6.000000e+000  1.100000e+001  4.800000e+001
      vertex -8.356443e+000  1.100000e+001  2.370598e+001
    endloop
  endfacet
  facet normal  0.000000e+000 -1.000000e+000  0.000000e+000
    outer loop
      vertex -8.356443e+000  1.100000e+001  2.370598e+001
      vertex -6.000000e+000  1.100000e+001  4.800000e+001
      vertex -1.300000e+001  1.100000e+001  4.800000e+001
    endloop
  endfacet
  facet normal  0.000000e+000 -1.000000e+000  0.000000e+000
    outer loop
      vertex -8.593330e+000  1.100000e+001  1.652322e+001
      vertex -1.246502e+001  1.100000e+001  1.712363e+001
      vertex -6.320613e+000  1.100000e+001  1.517755e+001
    endloop
  endfacet
  facet normal  -0.000000e+000 -1.000000e+000  0.000000e+000
    outer loop
      vertex -6.320613e+000  1.100000e+001  1.517755e+001
      vertex -1.246502e+001  1.100000e+001  1.712363e+001
      vertex -1.093162e+001  1.100000e+001  1.463196e+001
    endloop
  endfacet
  facet normal  0.000000e+000 -1.000000e+000  0.000000e+000
    outer loop
      vertex  5.500000e+001  1.100000e+001  5.000000e+001
      vertex  5.566987e+001  1.100000e+001  5.250000e+001
      vertex  5.000000e+001  1.100000e+001  5.000000e+001
    endloop
  endfacet
  facet normal  0.000000e+000 -1.000000e+000  0.000000e+000
    outer loop
      vertex  5.000000e+001  1.100000e+001  5.000000e+001
      vertex  5.566987e+001  1.100000e+001  5.250000e+001
      vertex  5.750000e+001  1.100000e+001  5.433013e+001
    endloop
  endfacet
  facet normal  0.000000e+000 -1.000000e+000  0.000000e+000
    outer loop
      vertex  5.000000e+001  1.100000e+001  5.000000e+001
      vertex  5.750000e+001  1.100000e+001  5.433013e+001
      vertex  5.061138e+001  1.100000e+001  5.344293e+001
    endloop
  endfacet
  facet normal  0.000000e+000 -1.000000e+000  0.000000e+000
    outer loop
      vertex  5.061138e+001  1.100000e+001  5.344293e+001
      vertex  5.750000e+001  1.100000e+001  5.433013e+001
      vertex  6.000000e+001  1.100000e+001  5.500000e+001
    endloop
  endfacet
  facet normal  -0.000000e+000 -1.000000e+000  0.000000e+000
    outer loop
      vertex  5.061138e+001  1.100000e+001  5.344293e+001
      vertex  6.000000e+001  1.100000e+001  5.500000e+001
      vertex  5.237075e+001  1.100000e+001  5.646487e+001
    endloop
  endfacet
  facet normal  0.000000e+000 -1.000000e+000  0.000000e+000
    outer loop
      vertex -4.000000e+000  1.100000e+001  4.800000e+001
      vertex  5.566987e+001  1.100000e+001  4.750000e+001
      vertex  5.000000e+001  1.100000e+001  4.800000e+001
    endloop
  endfacet
  facet normal  0.000000e+000 -1.000000e+000  0.000000e+000
    outer loop
      vertex  5.000000e+001  1.100000e+001  4.800000e+001
      vertex  5.566987e+001  1.100000e+001  4.750000e+001
      vertex  5.500000e+001  1.100000e+001  5.000000e+001
    endloop
  endfacet
  facet normal  -0.000000e+000 -1.000000e+000  0.000000e+000
    outer loop
      vertex  5.000000e+001  1.100000e+001  4.800000e+001
      vertex  5.500000e+001  1.100000e+001  5.000000e+001
      vertex  5.000000e+001  1.100000e+001  5.000000e+001
    endloop
  endfacet
  facet normal  0.000000e+000 -1.000000e+000  0.000000e+000
    outer loop
      vertex  5.566987e+001  1.100000e+001  4.750000e+001
      vertex -4.000000e+000  1.100000e+001  4.800000e+001
      vertex  5.750000e+001  1.100000e+001  4.566987e+001
    endloop
  endfacet
  facet normal  -0.000000e+000 -1.000000e+000  0.000000e+000
    outer loop
      vertex  5.750000e+001  1.100000e+001  4.566987e+001
      vertex -4.000000e+000  1.100000e+001  4.800000e+001
      vertex -4.000000e+000  1.100000e+001  2.489898e+001
    endloop
  endfacet
  facet normal -7.525767e-001  0.000000e+000 -6.585045e-001
    outer loop
      vertex  6.733762e+001  1.300000e+001  4.313274e+001
      vertex  9.252657e+001  1.300000e+001  1.434536e+001
      vertex  6.733762e+001  1.100000e+001  4.313274e+001
    endloop
  endfacet
  facet normal -7.525767e-001  0.000000e+000 -6.585045e-001
    outer loop
      vertex  6.733762e+001  1.100000e+001  4.313274e+001
      vertex  9.252657e+001  1.300000e+001  1.434536e+001
      vertex  9.252657e+001  1.100000e+001  1.434536e+001
    endloop
  endfacet
  facet normal -1.832010e-001  0.000000e+000  9.830755e-001
    outer loop
      vertex  9.718174e+001  1.100000e+001  5.501110e+000
      vertex  9.458521e+001  1.300000e+001  5.017234e+000
      vertex  9.458521e+001  1.100000e+001  5.017234e+000
    endloop
  endfacet
  facet normal  3.432230e-001  -0.000000e+000  9.392539e-001
    outer loop
      vertex  9.458521e+001  1.100000e+001  5.017234e+000
      vertex  9.458521e+001  1.300000e+001  5.017234e+000
      vertex  9.210443e+001  1.300000e+001  5.923764e+000
    endloop
  endfacet
  facet normal  3.432230e-001  0.000000e+000  9.392539e-001
    outer loop
      vertex  9.458521e+001  1.100000e+001  5.017234e+000
      vertex  9.210443e+001  1.300000e+001  5.923764e+000
      vertex  9.210443e+001  1.100000e+001  5.923764e+000
    endloop
  endfacet
  facet normal  7.738742e-001  -0.000000e+000  6.333393e-001
    outer loop
      vertex  9.210443e+001  1.100000e+001  5.923764e+000
      vertex  9.210443e+001  1.300000e+001  5.923764e+000
      vertex  9.043164e+001  1.300000e+001  7.967738e+000
    endloop
  endfacet
  facet normal  7.738742e-001  0.000000e+000  6.333393e-001
    outer loop
      vertex  9.210443e+001  1.100000e+001  5.923764e+000
      vertex  9.043164e+001  1.300000e+001  7.967738e+000
      vertex  9.043164e+001  1.100000e+001  7.967738e+000
    endloop
  endfacet
  facet normal  9.885800e-001  -0.000000e+000  1.506973e-001
    outer loop
      vertex  9.043164e+001  1.100000e+001  7.967738e+000
      vertex  9.043164e+001  1.300000e+001  7.967738e+000
      vertex  9.003362e+001  1.300000e+001  1.057880e+001
    endloop
  endfacet
  facet normal  9.885800e-001  0.000000e+000  1.506973e-001
    outer loop
      vertex  9.043164e+001  1.100000e+001  7.967738e+000
      vertex  9.003362e+001  1.300000e+001  1.057880e+001
      vertex  9.003362e+001  1.100000e+001  1.057880e+001
    endloop
  endfacet
  facet normal  9.274302e-001  0.000000e+000 -3.739963e-001
    outer loop
      vertex  9.003362e+001  1.100000e+001  1.057880e+001
      vertex  9.003362e+001  1.300000e+001  1.057880e+001
      vertex  9.102142e+001  1.300000e+001  1.302835e+001
    endloop
  endfacet
  facet normal  9.274302e-001  0.000000e+000 -3.739963e-001
    outer loop
      vertex  9.003362e+001  1.100000e+001  1.057880e+001
      vertex  9.102142e+001  1.300000e+001  1.302835e+001
      vertex  9.102142e+001  1.100000e+001  1.302835e+001
    endloop
  endfacet
  facet normal -1.832010e-001  0.000000e+000  9.830755e-001
    outer loop
      vertex  9.458521e+001  1.300000e+001  5.017234e+000
      vertex  9.718174e+001  1.100000e+001  5.501110e+000
      vertex  9.718174e+001  1.300000e+001  5.501110e+000
    endloop
  endfacet
  facet normal -6.585047e-001  0.000000e+000  7.525766e-001
    outer loop
      vertex  9.718174e+001  1.300000e+001  5.501110e+000
      vertex  9.718174e+001  1.100000e+001  5.501110e+000
      vertex  9.916946e+001  1.100000e+001  7.240369e+000
    endloop
  endfacet
  facet normal -6.585047e-001  0.000000e+000  7.525766e-001
    outer loop
      vertex  9.718174e+001  1.300000e+001  5.501110e+000
      vertex  9.916946e+001  1.100000e+001  7.240369e+000
      vertex  9.916946e+001  1.300000e+001  7.240369e+000
    endloop
  endfacet
  facet normal -9.500570e-001  0.000000e+000  3.120765e-001
    outer loop
      vertex  9.916946e+001  1.300000e+001  7.240369e+000
      vertex  9.916946e+001  1.100000e+001  7.240369e+000
      vertex  9.999373e+001  1.100000e+001  9.749684e+000
    endloop
  endfacet
  facet normal -9.500570e-001  0.000000e+000  3.120765e-001
    outer loop
      vertex  9.916946e+001  1.300000e+001  7.240369e+000
      vertex  9.999373e+001  1.100000e+001  9.749684e+000
      vertex  9.999373e+001  1.300000e+001  9.749684e+000
    endloop
  endfacet
  facet normal -9.765027e-001  -0.000000e+000 -2.155055e-001
    outer loop
      vertex  9.999373e+001  1.300000e+001  9.749684e+000
      vertex  9.999373e+001  1.100000e+001  9.749684e+000
      vertex  9.942453e+001  1.100000e+001  1.232885e+001
    endloop
  endfacet
  facet normal -9.765027e-001  0.000000e+000 -2.155055e-001
    outer loop
      vertex  9.999373e+001  1.300000e+001  9.749684e+000
      vertex  9.942453e+001  1.100000e+001  1.232885e+001
      vertex  9.942453e+001  1.300000e+001  1.232885e+001
    endloop
  endfacet
  facet normal -7.304621e-001  -0.000000e+000 -6.829532e-001
    outer loop
      vertex  9.942453e+001  1.300000e+001  1.232885e+001
      vertex  9.942453e+001  1.100000e+001  1.232885e+001
      vertex  9.762070e+001  1.100000e+001  1.425816e+001
    endloop
  endfacet
  facet normal -7.304621e-001  0.000000e+000 -6.829532e-001
    outer loop
      vertex  9.942453e+001  1.300000e+001  1.232885e+001
      vertex  9.762070e+001  1.100000e+001  1.425816e+001
      vertex  9.762070e+001  1.300000e+001  1.425816e+001
    endloop
  endfacet
  facet normal -2.805916e-001  -0.000000e+000 -9.598273e-001
    outer loop
      vertex  9.762070e+001  1.300000e+001  1.425816e+001
      vertex  9.762070e+001  1.100000e+001  1.425816e+001
      vertex  9.508558e+001  1.100000e+001  1.499927e+001
    endloop
  endfacet
  facet normal -2.805916e-001  0.000000e+000 -9.598273e-001
    outer loop
      vertex  9.762070e+001  1.300000e+001  1.425816e+001
      vertex  9.508558e+001  1.100000e+001  1.499927e+001
      vertex  9.508558e+001  1.300000e+001  1.499927e+001
    endloop
  endfacet
  facet normal  2.475758e-001  0.000000e+000 -9.688686e-001
    outer loop
      vertex  9.508558e+001  1.300000e+001  1.499927e+001
      vertex  9.508558e+001  1.100000e+001  1.499927e+001
      vertex  9.252657e+001  1.100000e+001  1.434536e+001
    endloop
  endfacet
  facet normal  2.475758e-001  0.000000e+000 -9.688686e-001
    outer loop
      vertex  9.508558e+001  1.300000e+001  1.499927e+001
      vertex  9.252657e+001  1.100000e+001  1.434536e+001
      vertex  9.252657e+001  1.300000e+001  1.434536e+001
    endloop
  endfacet
  facet normal  7.525766e-001  0.000000e+000  6.585047e-001
    outer loop
      vertex  9.102142e+001  1.300000e+001  1.302835e+001
      vertex  6.583247e+001  1.300000e+001  4.181573e+001
      vertex  9.102142e+001  1.100000e+001  1.302835e+001
    endloop
  endfacet
  facet normal  7.525766e-001  0.000000e+000  6.585047e-001
    outer loop
      vertex  9.102142e+001  1.100000e+001  1.302835e+001
      vertex  6.583247e+001  1.300000e+001  4.181573e+001
      vertex  6.583247e+001  1.100000e+001  4.181573e+001
    endloop
  endfacet
  facet normal  6.585035e-001  0.000000e+000 -7.525777e-001
    outer loop
      vertex  6.583247e+001  1.100000e+001  4.181573e+001
      vertex  6.583247e+001  1.300000e+001  4.181573e+001
      vertex  6.733762e+001  1.100000e+001  4.313274e+001
    endloop
  endfacet
  facet normal  6.585035e-001  0.000000e+000 -7.525777e-001
    outer loop
      vertex  6.733762e+001  1.100000e+001  4.313274e+001
      vertex  6.583247e+001  1.300000e+001  4.181573e+001
      vertex  6.733762e+001  1.300000e+001  4.313274e+001
    endloop
  endfacet
  facet normal -2.588188e-001  -0.000000e+000 -9.659259e-001
    outer loop
      vertex  6.000000e+001  1.100000e+001  5.500000e+001
      vertex  6.250000e+001  1.300000e+001  5.433013e+001
      vertex  6.250000e+001  1.100000e+001  5.433013e+001
    endloop
  endfacet
  facet normal -7.071075e-001  0.000000e+000 -7.071061e-001
    outer loop
      vertex  6.250000e+001  1.100000e+001  5.433013e+001
      vertex  6.250000e+001  1.300000e+001  5.433013e+001
      vertex  6.433012e+001  1.300000e+001  5.250000e+001
    endloop
  endfacet
  facet normal -7.071075e-001  -0.000000e+000 -7.071061e-001
    outer loop
      vertex  6.250000e+001  1.100000e+001  5.433013e+001
      vertex  6.433012e+001  1.300000e+001  5.250000e+001
      vertex  6.433012e+001  1.100000e+001  5.250000e+001
    endloop
  endfacet
  facet normal -9.659255e-001  0.000000e+000 -2.588202e-001
    outer loop
      vertex  6.433012e+001  1.100000e+001  5.250000e+001
      vertex  6.433012e+001  1.300000e+001  5.250000e+001
      vertex  6.500000e+001  1.300000e+001  5.000000e+001
    endloop
  endfacet
  facet normal -9.659255e-001  -0.000000e+000 -2.588202e-001
    outer loop
      vertex  6.433012e+001  1.100000e+001  5.250000e+001
      vertex  6.500000e+001  1.300000e+001  5.000000e+001
      vertex  6.500000e+001  1.100000e+001  5.000000e+001
    endloop
  endfacet
  facet normal -2.588188e-001  0.000000e+000 -9.659259e-001
    outer loop
      vertex  6.250000e+001  1.300000e+001  5.433013e+001
      vertex  6.000000e+001  1.100000e+001  5.500000e+001
      vertex  6.000000e+001  1.300000e+001  5.500000e+001
    endloop
  endfacet
  facet normal  2.588188e-001  0.000000e+000 -9.659259e-001
    outer loop
      vertex  6.000000e+001  1.300000e+001  5.500000e+001
      vertex  6.000000e+001  1.100000e+001  5.500000e+001
      vertex  5.750000e+001  1.100000e+001  5.433013e+001
    endloop
  endfacet
  facet normal  2.588188e-001  0.000000e+000 -9.659259e-001
    outer loop
      vertex  6.000000e+001  1.300000e+001  5.500000e+001
      vertex  5.750000e+001  1.100000e+001  5.433013e+001
      vertex  5.750000e+001  1.300000e+001  5.433013e+001
    endloop
  endfacet
  facet normal  7.071068e-001  0.000000e+000 -7.071068e-001
    outer loop
      vertex  5.750000e+001  1.300000e+001  5.433013e+001
      vertex  5.750000e+001  1.100000e+001  5.433013e+001
      vertex  5.566987e+001  1.100000e+001  5.250000e+001
    endloop
  endfacet
  facet normal  7.071068e-001  0.000000e+000 -7.071068e-001
    outer loop
      vertex  5.750000e+001  1.300000e+001  5.433013e+001
      vertex  5.566987e+001  1.100000e+001  5.250000e+001
      vertex  5.566987e+001  1.300000e+001  5.250000e+001
    endloop
  endfacet
  facet normal  9.659259e-001  0.000000e+000 -2.588188e-001
    outer loop
      vertex  5.566987e+001  1.300000e+001  5.250000e+001
      vertex  5.566987e+001  1.100000e+001  5.250000e+001
      vertex  5.500000e+001  1.100000e+001  5.000000e+001
    endloop
  endfacet
  facet normal  9.659259e-001  0.000000e+000 -2.588188e-001
    outer loop
      vertex  5.566987e+001  1.300000e+001  5.250000e+001
      vertex  5.500000e+001  1.100000e+001  5.000000e+001
      vertex  5.500000e+001  1.300000e+001  5.000000e+001
    endloop
  endfacet
  facet normal  2.588188e-001  0.000000e+000  9.659259e-001
    outer loop
      vertex  6.000000e+001  1.100000e+001  4.500000e+001
      vertex  5.750000e+001  1.300000e+001  4.566987e+001
      vertex  5.750000e+001  1.100000e+001  4.566987e+001
    endloop
  endfacet
  facet normal  7.071068e-001  -0.000000e+000  7.071068e-001
    outer loop
      vertex  5.750000e+001  1.100000e+001  4.566987e+001
      vertex  5.750000e+001  1.300000e+001  4.566987e+001
      vertex  5.566987e+001  1.300000e+001  4.750000e+001
    endloop
  endfacet
  facet normal  7.071068e-001  0.000000e+000  7.071068e-001
    outer loop
      vertex  5.750000e+001  1.100000e+001  4.566987e+001
      vertex  5.566987e+001  1.300000e+001  4.750000e+001
      vertex  5.566987e+001  1.100000e+001  4.750000e+001
    endloop
  endfacet
  facet normal  9.659259e-001  -0.000000e+000  2.588188e-001
    outer loop
      vertex  5.566987e+001  1.100000e+001  4.750000e+001
      vertex  5.566987e+001  1.300000e+001  4.750000e+001
      vertex  5.500000e+001  1.300000e+001  5.000000e+001
    endloop
  endfacet
  facet normal  9.659259e-001  0.000000e+000  2.588188e-001
    outer loop
      vertex  5.566987e+001  1.100000e+001  4.750000e+001
      vertex  5.500000e+001  1.300000e+001  5.000000e+001
      vertex  5.500000e+001  1.100000e+001  5.000000e+001
    endloop
  endfacet
  facet normal  2.588188e-001  -0.000000e+000  9.659259e-001
    outer loop
      vertex  5.750000e+001  1.300000e+001  4.566987e+001
      vertex  6.000000e+001  1.100000e+001  4.500000e+001
      vertex  6.000000e+001  1.300000e+001  4.500000e+001
    endloop
  endfacet
  facet normal -2.588188e-001  0.000000e+000  9.659259e-001
    outer loop
      vertex  6.000000e+001  1.300000e+001  4.500000e+001
      vertex  6.000000e+001  1.100000e+001  4.500000e+001
      vertex  6.250000e+001  1.100000e+001  4.566987e+001
    endloop
  endfacet
  facet normal -2.588188e-001  0.000000e+000  9.659259e-001
    outer loop
      vertex  6.000000e+001  1.300000e+001  4.500000e+001
      vertex  6.250000e+001  1.100000e+001  4.566987e+001
      vertex  6.250000e+001  1.300000e+001  4.566987e+001
    endloop
  endfacet
  facet normal -7.071075e-001  0.000000e+000  7.071061e-001
    outer loop
      vertex  6.250000e+001  1.300000e+001  4.566987e+001
      vertex  6.250000e+001  1.100000e+001  4.566987e+001
      vertex  6.433012e+001  1.100000e+001  4.750000e+001
    endloop
  endfacet
  facet normal -7.071075e-001  0.000000e+000  7.071061e-001
    outer loop
      vertex  6.250000e+001  1.300000e+001  4.566987e+001
      vertex  6.433012e+001  1.100000e+001  4.750000e+001
      vertex  6.433012e+001  1.300000e+001  4.750000e+001
    endloop
  endfacet
  facet normal -9.659255e-001  0.000000e+000  2.588202e-001
    outer loop
      vertex  6.433012e+001  1.300000e+001  4.750000e+001
      vertex  6.433012e+001  1.100000e+001  4.750000e+001
      vertex  6.500000e+001  1.100000e+001  5.000000e+001
    endloop
  endfacet
  facet normal -9.659255e-001  0.000000e+000  2.588202e-001
    outer loop
      vertex  6.433012e+001  1.300000e+001  4.750000e+001
      vertex  6.500000e+001  1.100000e+001  5.000000e+001
      vertex  6.500000e+001  1.300000e+001  5.000000e+001
    endloop
  endfacet
  facet normal -9.950371e-002  0.000000e+000 -9.950371e-001
    outer loop
      vertex -5.796030e+000  1.300000e+001  1.203970e+001
      vertex  9.420397e+001  1.300000e+001  2.039702e+000
      vertex -5.796030e+000  1.100000e+001  1.203970e+001
    endloop
  endfacet
  facet normal -9.950371e-002  0.000000e+000 -9.950371e-001
    outer loop
      vertex -5.796030e+000  1.100000e+001  1.203970e+001
      vertex  9.420397e+001  1.300000e+001  2.039702e+000
      vertex  9.420397e+001  1.100000e+001  2.039702e+000
    endloop
  endfacet
  facet normal  9.615405e-002  0.000000e+000 -9.953665e-001
    outer loop
      vertex  9.420397e+001  1.100000e+001  2.039702e+000
      vertex  9.420397e+001  1.300000e+001  2.039702e+000
      vertex  9.730505e+001  1.100000e+001  2.339271e+000
    endloop
  endfacet
  facet normal  9.615405e-002  0.000000e+000 -9.953665e-001
    outer loop
      vertex  9.730505e+001  1.100000e+001  2.339271e+000
      vertex  9.420397e+001  1.300000e+001  2.039702e+000
      vertex  9.730505e+001  1.300000e+001  2.339271e+000
    endloop
  endfacet
  facet normal  4.690771e-001  0.000000e+000 -8.831573e-001
    outer loop
      vertex  9.730505e+001  1.100000e+001  2.339271e+000
      vertex  9.730505e+001  1.300000e+001  2.339271e+000
      vertex  1.000565e+002  1.100000e+001  3.800687e+000
    endloop
  endfacet
  facet normal  4.690771e-001  0.000000e+000 -8.831573e-001
    outer loop
      vertex  1.000565e+002  1.100000e+001  3.800687e+000
      vertex  9.730505e+001  1.300000e+001  2.339271e+000
      vertex  1.000565e+002  1.300000e+001  3.800687e+000
    endloop
  endfacet
  facet normal  7.708594e-001  0.000000e+000 -6.370053e-001
    outer loop
      vertex  1.000565e+002  1.100000e+001  3.800687e+000
      vertex  1.000565e+002  1.300000e+001  3.800687e+000
      vertex  1.020411e+002  1.100000e+001  6.202307e+000
    endloop
  endfacet
  facet normal  7.708594e-001  0.000000e+000 -6.370053e-001
    outer loop
      vertex  1.020411e+002  1.100000e+001  6.202307e+000
      vertex  1.000565e+002  1.300000e+001  3.800687e+000
      vertex  1.020411e+002  1.300000e+001  6.202307e+000
    endloop
  endfacet
  facet normal  9.557300e-001  0.000000e+000 -2.942454e-001
    outer loop
      vertex  1.020411e+002  1.100000e+001  6.202307e+000
      vertex  1.020411e+002  1.300000e+001  6.202307e+000
      vertex  1.029579e+002  1.100000e+001  9.179895e+000
    endloop
  endfacet
  facet normal  9.557300e-001  0.000000e+000 -2.942454e-001
    outer loop
      vertex  1.029579e+002  1.100000e+001  9.179895e+000
      vertex  1.020411e+002  1.300000e+001  6.202307e+000
      vertex  1.029579e+002  1.300000e+001  9.179895e+000
    endloop
  endfacet
  facet normal  9.956527e-001  0.000000e+000  9.314413e-002
    outer loop
      vertex  1.029579e+002  1.100000e+001  9.179895e+000
      vertex  1.029579e+002  1.300000e+001  9.179895e+000
      vertex  1.026677e+002  1.100000e+001  1.228186e+001
    endloop
  endfacet
  facet normal  9.956527e-001  -0.000000e+000  9.314413e-002
    outer loop
      vertex  1.026677e+002  1.100000e+001  1.228186e+001
      vertex  1.029579e+002  1.300000e+001  9.179895e+000
      vertex  1.026677e+002  1.300000e+001  1.228186e+001
    endloop
  endfacet
  facet normal  8.845719e-001  0.000000e+000  4.664040e-001
    outer loop
      vertex  1.026677e+002  1.100000e+001  1.228186e+001
      vertex  1.026677e+002  1.300000e+001  1.228186e+001
      vertex  1.012146e+002  1.100000e+001  1.503776e+001
    endloop
  endfacet
  facet normal  8.845719e-001  -0.000000e+000  4.664040e-001
    outer loop
      vertex  1.012146e+002  1.100000e+001  1.503776e+001
      vertex  1.026677e+002  1.300000e+001  1.228186e+001
      vertex  1.012146e+002  1.300000e+001  1.503776e+001
    endloop
  endfacet
  facet normal  7.768225e-001  0.000000e+000  6.297196e-001
    outer loop
      vertex  1.012146e+002  1.300000e+001  1.503776e+001
      vertex  6.776823e+001  1.300000e+001  5.629720e+001
      vertex  1.012146e+002  1.100000e+001  1.503776e+001
    endloop
  endfacet
  facet normal  7.768225e-001  0.000000e+000  6.297196e-001
    outer loop
      vertex  1.012146e+002  1.100000e+001  1.503776e+001
      vertex  6.776823e+001  1.300000e+001  5.629720e+001
      vertex  6.776823e+001  1.100000e+001  5.629720e+001
    endloop
  endfacet
  facet normal  6.547574e-001  0.000000e+000  7.558392e-001
    outer loop
      vertex  6.776823e+001  1.100000e+001  5.629720e+001
      vertex  6.776823e+001  1.300000e+001  5.629720e+001
      vertex  6.512521e+001  1.100000e+001  5.858675e+001
    endloop
  endfacet
  facet normal  6.547574e-001  -0.000000e+000  7.558392e-001
    outer loop
      vertex  6.512521e+001  1.100000e+001  5.858675e+001
      vertex  6.776823e+001  1.300000e+001  5.629720e+001
      vertex  6.512521e+001  1.300000e+001  5.858675e+001
    endloop
  endfacet
  facet normal  3.544964e-001  0.000000e+000  9.350573e-001
    outer loop
      vertex  6.512521e+001  1.100000e+001  5.858675e+001
      vertex  6.512521e+001  1.300000e+001  5.858675e+001
      vertex  6.185551e+001  1.100000e+001  5.982635e+001
    endloop
  endfacet
  facet normal  3.544964e-001  -0.000000e+000  9.350573e-001
    outer loop
      vertex  6.185551e+001  1.100000e+001  5.982635e+001
      vertex  6.512521e+001  1.300000e+001  5.858675e+001
      vertex  6.185551e+001  1.300000e+001  5.982635e+001
    endloop
  endfacet
  facet normal  1.088949e-002  0.000000e+000  9.999406e-001
    outer loop
      vertex  6.185551e+001  1.100000e+001  5.982635e+001
      vertex  6.185551e+001  1.300000e+001  5.982635e+001
      vertex  5.835892e+001  1.100000e+001  5.986443e+001
    endloop
  endfacet
  facet normal  1.088949e-002  -0.000000e+000  9.999406e-001
    outer loop
      vertex  5.835892e+001  1.100000e+001  5.986443e+001
      vertex  6.185551e+001  1.300000e+001  5.982635e+001
      vertex  5.835892e+001  1.300000e+001  5.986443e+001
    endloop
  endfacet
  facet normal -3.340496e-001  0.000000e+000  9.425555e-001
    outer loop
      vertex  5.835892e+001  1.100000e+001  5.986443e+001
      vertex  5.835892e+001  1.300000e+001  5.986443e+001
      vertex  5.506300e+001  1.100000e+001  5.869632e+001
    endloop
  endfacet
  facet normal -3.340496e-001  0.000000e+000  9.425555e-001
    outer loop
      vertex  5.506300e+001  1.100000e+001  5.869632e+001
      vertex  5.835892e+001  1.300000e+001  5.986443e+001
      vertex  5.506300e+001  1.300000e+001  5.869632e+001
    endloop
  endfacet
  facet normal -6.381413e-001  0.000000e+000  7.699192e-001
    outer loop
      vertex  5.506300e+001  1.100000e+001  5.869632e+001
      vertex  5.506300e+001  1.300000e+001  5.869632e+001
      vertex  5.237075e+001  1.100000e+001  5.646487e+001
    endloop
  endfacet
  facet normal -6.381413e-001  0.000000e+000  7.699192e-001
    outer loop
      vertex  5.237075e+001  1.100000e+001  5.646487e+001
      vertex  5.506300e+001  1.300000e+001  5.869632e+001
      vertex  5.237075e+001  1.300000e+001  5.646487e+001
    endloop
  endfacet
  facet normal -8.642046e-001  0.000000e+000  5.031404e-001
    outer loop
      vertex  5.237075e+001  1.100000e+001  5.646487e+001
      vertex  5.237075e+001  1.300000e+001  5.646487e+001
      vertex  5.061138e+001  1.100000e+001  5.344293e+001
    endloop
  endfacet
  facet normal -8.642046e-001  0.000000e+000  5.031404e-001
    outer loop
      vertex  5.061138e+001  1.100000e+001  5.344293e+001
      vertex  5.237075e+001  1.300000e+001  5.646487e+001
      vertex  5.061138e+001  1.300000e+001  5.344293e+001
    endloop
  endfacet
  facet normal -9.845970e-001  0.000000e+000  1.748395e-001
    outer loop
      vertex  5.061138e+001  1.100000e+001  5.344293e+001
      vertex  5.061138e+001  1.300000e+001  5.344293e+001
      vertex  5.000000e+001  1.100000e+001  5.000000e+001
    endloop
  endfacet
  facet normal -9.845970e-001  0.000000e+000  1.748395e-001
    outer loop
      vertex  5.000000e+001  1.100000e+001  5.000000e+001
      vertex  5.061138e+001  1.300000e+001  5.344293e+001
      vertex  5.000000e+001  1.300000e+001  5.000000e+001
    endloop
  endfacet
  facet normal -1.000000e+000  -0.000000e+000  0.000000e+000
    outer loop
      vertex  5.000000e+001  1.100000e+001  5.000000e+001
      vertex  5.000000e+001  1.300000e+001  5.000000e+001
      vertex  5.000000e+001  1.100000e+001  4.800000e+001
    endloop
  endfacet
  facet normal -1.000000e+000  0.000000e+000  0.000000e+000
    outer loop
      vertex  5.000000e+001  1.100000e+001  4.800000e+001
      vertex  5.000000e+001  1.300000e+001  5.000000e+001
      vertex  5.000000e+001  1.300000e+001  4.800000e+001
    endloop
  endfacet
  facet normal  -0.000000e+000  0.000000e+000  1.000000e+000
    outer loop
      vertex  5.000000e+001  1.300000e+001  4.800000e+001
      vertex -4.000000e+000  1.300000e+001  4.800000e+001
      vertex  5.000000e+001  1.100000e+001  4.800000e+001
    endloop
  endfacet
  facet normal  0.000000e+000  0.000000e+000  1.000000e+000
    outer loop
      vertex  5.000000e+001  1.100000e+001  4.800000e+001
      vertex -4.000000e+000  1.300000e+001  4.800000e+001
      vertex -4.000000e+000  1.100000e+001  4.800000e+001
    endloop
  endfacet
  facet normal -1.000000e+000  0.000000e+000  0.000000e+000
    outer loop
      vertex -4.000000e+000  1.300000e+001  4.800000e+001
      vertex -4.000000e+000  1.300000e+001  2.489898e+001
      vertex -4.000000e+000  1.100000e+001  4.800000e+001
    endloop
  endfacet
  facet normal -1.000000e+000  0.000000e+000  0.000000e+000
    outer loop
      vertex -4.000000e+000  1.100000e+001  4.800000e+001
      vertex -4.000000e+000  1.300000e+001  2.489898e+001
      vertex -4.000000e+000  1.100000e+001  2.489898e+001
    endloop
  endfacet
  facet normal  5.094869e-001  0.000000e+000  8.604785e-001
    outer loop
      vertex -6.320613e+000  1.100000e+001  1.517755e+001
      vertex -8.593330e+000  1.300000e+001  1.652322e+001
      vertex -8.593330e+000  1.100000e+001  1.652322e+001
    endloop
  endfacet
  facet normal  8.768047e-001  -0.000000e+000  4.808468e-001
    outer loop
      vertex -8.593330e+000  1.100000e+001  1.652322e+001
      vertex -8.593330e+000  1.300000e+001  1.652322e+001
      vertex -9.863356e+000  1.300000e+001  1.883906e+001
    endloop
  endfacet
  facet normal  8.768047e-001  0.000000e+000  4.808468e-001
    outer loop
      vertex -8.593330e+000  1.100000e+001  1.652322e+001
      vertex -9.863356e+000  1.300000e+001  1.883906e+001
      vertex -9.863356e+000  1.100000e+001  1.883906e+001
    endloop
  endfacet
  facet normal  9.994566e-001  0.000000e+000 -3.296233e-002
    outer loop
      vertex -9.863356e+000  1.100000e+001  1.883906e+001
      vertex -9.863356e+000  1.300000e+001  1.883906e+001
      vertex -9.776295e+000  1.300000e+001  2.147885e+001
    endloop
  endfacet
  facet normal  9.994566e-001  0.000000e+000 -3.296233e-002
    outer loop
      vertex -9.863356e+000  1.100000e+001  1.883906e+001
      vertex -9.776295e+000  1.300000e+001  2.147885e+001
      vertex -9.776295e+000  1.100000e+001  2.147885e+001
    endloop
  endfacet
  facet normal  8.432173e-001  0.000000e+000 -5.375729e-001
    outer loop
      vertex -9.776295e+000  1.100000e+001  2.147885e+001
      vertex -9.776295e+000  1.300000e+001  2.147885e+001
      vertex -8.356443e+000  1.300000e+001  2.370598e+001
    endloop
  endfacet
  facet normal  8.432173e-001  0.000000e+000 -5.375729e-001
    outer loop
      vertex -9.776295e+000  1.100000e+001  2.147885e+001
      vertex -8.356443e+000  1.300000e+001  2.370598e+001
      vertex -8.356443e+000  1.100000e+001  2.370598e+001
    endloop
  endfacet
  facet normal  4.516839e-001  0.000000e+000 -8.921781e-001
    outer loop
      vertex -8.356443e+000  1.100000e+001  2.370598e+001
      vertex -8.356443e+000  1.300000e+001  2.370598e+001
      vertex -6.000000e+000  1.300000e+001  2.489898e+001
    endloop
  endfacet
  facet normal  4.516839e-001  0.000000e+000 -8.921781e-001
    outer loop
      vertex -8.356443e+000  1.100000e+001  2.370598e+001
      vertex -6.000000e+000  1.300000e+001  2.489898e+001
      vertex -6.000000e+000  1.100000e+001  2.489898e+001
    endloop
  endfacet
  facet normal  5.094869e-001  -0.000000e+000  8.604785e-001
    outer loop
      vertex -8.593330e+000  1.300000e+001  1.652322e+001
      vertex -6.320613e+000  1.100000e+001  1.517755e+001
      vertex -6.320613e+000  1.300000e+001  1.517755e+001
    endloop
  endfacet
  facet normal  0.000000e+000  0.000000e+000  1.000000e+000
    outer loop
      vertex -6.320613e+000  1.300000e+001  1.517755e+001
      vertex -6.320613e+000  1.100000e+001  1.517755e+001
      vertex -3.679387e+000  1.100000e+001  1.517755e+001
    endloop
  endfacet
  facet normal  0.000000e+000  -0.000000e+000  1.000000e+000
    outer loop
      vertex -6.320613e+000  1.300000e+001  1.517755e+001
      vertex -3.679387e+000  1.100000e+001  1.517755e+001
      vertex -3.679387e+000  1.300000e+001  1.517755e+001
    endloop
  endfacet
  facet normal -5.094868e-001  0.000000e+000  8.604785e-001
    outer loop
      vertex -3.679387e+000  1.300000e+001  1.517755e+001
      vertex -3.679387e+000  1.100000e+001  1.517755e+001
      vertex -1.406669e+000  1.100000e+001  1.652322e+001
    endloop
  endfacet
  facet normal -5.094868e-001  0.000000e+000  8.604785e-001
    outer loop
      vertex -3.679387e+000  1.300000e+001  1.517755e+001
      vertex -1.406669e+000  1.100000e+001  1.652322e+001
      vertex -1.406669e+000  1.300000e+001  1.652322e+001
    endloop
  endfacet
  facet normal -8.768048e-001  0.000000e+000  4.808465e-001
    outer loop
      vertex -1.406669e+000  1.300000e+001  1.652322e+001
      vertex -1.406669e+000  1.100000e+001  1.652322e+001
      vertex -1.366447e-001  1.100000e+001  1.883906e+001
    endloop
  endfacet
  facet normal -8.768048e-001  0.000000e+000  4.808465e-001
    outer loop
      vertex -1.406669e+000  1.300000e+001  1.652322e+001
      vertex -1.366447e-001  1.100000e+001  1.883906e+001
      vertex -1.366447e-001  1.300000e+001  1.883906e+001
    endloop
  endfacet
  facet normal -9.994566e-001  -0.000000e+000 -3.296211e-002
    outer loop
      vertex -1.366447e-001  1.300000e+001  1.883906e+001
      vertex -1.366447e-001  1.100000e+001  1.883906e+001
      vertex -2.237051e-001  1.100000e+001  2.147885e+001
    endloop
  endfacet
  facet normal -9.994566e-001  0.000000e+000 -3.296211e-002
    outer loop
      vertex -1.366447e-001  1.300000e+001  1.883906e+001
      vertex -2.237051e-001  1.100000e+001  2.147885e+001
      vertex -2.237051e-001  1.300000e+001  2.147885e+001
    endloop
  endfacet
  facet normal -8.432172e-001  -0.000000e+000 -5.375730e-001
    outer loop
      vertex -2.237051e-001  1.300000e+001  2.147885e+001
      vertex -2.237051e-001  1.100000e+001  2.147885e+001
      vertex -1.643557e+000  1.100000e+001  2.370598e+001
    endloop
  endfacet
  facet normal -8.432172e-001  0.000000e+000 -5.375730e-001
    outer loop
      vertex -2.237051e-001  1.300000e+001  2.147885e+001
      vertex -1.643557e+000  1.100000e+001  2.370598e+001
      vertex -1.643557e+000  1.300000e+001  2.370598e+001
    endloop
  endfacet
  facet normal -4.516839e-001  -0.000000e+000 -8.921781e-001
    outer loop
      vertex -1.643557e+000  1.300000e+001  2.370598e+001
      vertex -1.643557e+000  1.100000e+001  2.370598e+001
      vertex -4.000000e+000  1.100000e+001  2.489898e+001
    endloop
  endfacet
  facet normal -4.516839e-001  0.000000e+000 -8.921781e-001
    outer loop
      vertex -1.643557e+000  1.300000e+001  2.370598e+001
      vertex -4.000000e+000  1.100000e+001  2.489898e+001
      vertex -4.000000e+000  1.300000e+001  2.489898e+001
    endloop
  endfacet
  facet normal  1.000000e+000  0.000000e+000  0.000000e+000
    outer loop
      vertex -6.000000e+000  1.300000e+001  2.489898e+001
      vertex -6.000000e+000  1.300000e+001  4.800000e+001
      vertex -6.000000e+000  1.100000e+001  2.489898e+001
    endloop
  endfacet
  facet normal  1.000000e+000  0.000000e+000  0.000000e+000
    outer loop
      vertex -6.000000e+000  1.100000e+001  2.489898e+001
      vertex -6.000000e+000  1.300000e+001  4.800000e+001
      vertex -6.000000e+000  1.100000e+001  4.800000e+001
    endloop
  endfacet
  facet normal  -0.000000e+000  0.000000e+000  1.000000e+000
    outer loop
      vertex -6.000000e+000  1.300000e+001  4.800000e+001
      vertex -1.300000e+001  1.300000e+001  4.800000e+001
      vertex -6.000000e+000  1.100000e+001  4.800000e+001
    endloop
  endfacet
  facet normal  0.000000e+000  0.000000e+000  1.000000e+000
    outer loop
      vertex -6.000000e+000  1.100000e+001  4.800000e+001
      vertex -1.300000e+001  1.300000e+001  4.800000e+001
      vertex -1.300000e+001  1.100000e+001  4.800000e+001
    endloop
  endfacet
  facet normal -1.000000e+000  0.000000e+000  0.000000e+000
    outer loop
      vertex -1.300000e+001  1.300000e+001  4.800000e+001
      vertex -1.300000e+001  1.300000e+001  2.000000e+001
      vertex -1.300000e+001  1.100000e+001  4.800000e+001
    endloop
  endfacet
  facet normal -1.000000e+000  0.000000e+000  0.000000e+000
    outer loop
      vertex -1.300000e+001  1.100000e+001  4.800000e+001
      vertex -1.300000e+001  1.300000e+001  2.000000e+001
      vertex -1.300000e+001  1.100000e+001  2.000000e+001
    endloop
  endfacet
  facet normal -9.831397e-001  -0.000000e+000 -1.828562e-001
    outer loop
      vertex -1.300000e+001  1.100000e+001  2.000000e+001
      vertex -1.300000e+001  1.300000e+001  2.000000e+001
      vertex -1.246502e+001  1.100000e+001  1.712363e+001
    endloop
  endfacet
  facet normal -9.831397e-001  0.000000e+000 -1.828562e-001
    outer loop
      vertex -1.246502e+001  1.100000e+001  1.712363e+001
      vertex -1.300000e+001  1.300000e+001  2.000000e+001
      vertex -1.246502e+001  1.300000e+001  1.712363e+001
    endloop
  endfacet
  facet normal -8.516489e-001  -0.000000e+000 -5.241127e-001
    outer loop
      vertex -1.246502e+001  1.100000e+001  1.712363e+001
      vertex -1.246502e+001  1.300000e+001  1.712363e+001
      vertex -1.093162e+001  1.100000e+001  1.463196e+001
    endloop
  endfacet
  facet normal -8.516489e-001  0.000000e+000 -5.241127e-001
    outer loop
      vertex -1.093162e+001  1.100000e+001  1.463196e+001
      vertex -1.246502e+001  1.300000e+001  1.712363e+001
      vertex -1.093162e+001  1.300000e+001  1.463196e+001
    endloop
  endfacet
  facet normal -6.062536e-001  -0.000000e+000 -7.952713e-001
    outer loop
      vertex -1.093162e+001  1.100000e+001  1.463196e+001
      vertex -1.093162e+001  1.300000e+001  1.463196e+001
      vertex -8.604895e+000  1.100000e+001  1.285824e+001
    endloop
  endfacet
  facet normal -6.062536e-001  0.000000e+000 -7.952713e-001
    outer loop
      vertex -8.604895e+000  1.100000e+001  1.285824e+001
      vertex -1.093162e+001  1.300000e+001  1.463196e+001
      vertex -8.604895e+000  1.300000e+001  1.285824e+001
    endloop
  endfacet
  facet normal -2.797749e-001  -0.000000e+000 -9.600657e-001
    outer loop
      vertex -8.604895e+000  1.100000e+001  1.285824e+001
      vertex -8.604895e+000  1.300000e+001  1.285824e+001
      vertex -5.796030e+000  1.100000e+001  1.203970e+001
    endloop
  endfacet
  facet normal -2.797749e-001  0.000000e+000 -9.600657e-001
    outer loop
      vertex -5.796030e+000  1.100000e+001  1.203970e+001
      vertex -8.604895e+000  1.300000e+001  1.285824e+001
      vertex -5.796030e+000  1.300000e+001  1.203970e+001
    endloop
  endfacet
endsolid CATIA STL
