solid CATIA STL
  facet normal -1.000000e+000  0.000000e+000  0.000000e+000
    outer loop
      vertex -8.000000e+000 -1.100000e+001  2.489898e+001
      vertex -8.000000e+000 -3.700000e+001  2.489898e+001
      vertex -8.000000e+000 -1.100000e+001  4.800000e+001
    endloop
  endfacet
  facet normal -1.000000e+000  -0.000000e+000  0.000000e+000
    outer loop
      vertex -8.000000e+000 -1.100000e+001  4.800000e+001
      vertex -8.000000e+000 -3.700000e+001  2.489898e+001
      vertex -8.000000e+000 -3.700000e+001  4.800000e+001
    endloop
  endfacet
  facet normal  1.000000e+000  0.000000e+000  0.000000e+000
    outer loop
      vertex -6.000000e+000 -1.100000e+001  2.489898e+001
      vertex -6.000000e+000 -1.100000e+001  4.800000e+001
      vertex -6.000000e+000 -3.700000e+001  2.489898e+001
    endloop
  endfacet
  facet normal  1.000000e+000  0.000000e+000  0.000000e+000
    outer loop
      vertex -6.000000e+000 -3.700000e+001  2.489898e+001
      vertex -6.000000e+000 -1.100000e+001  4.800000e+001
      vertex -6.000000e+000 -3.700000e+001  4.800000e+001
    endloop
  endfacet
  facet normal  0.000000e+000 -1.000000e+000  0.000000e+000
    outer loop
      vertex -8.000000e+000 -3.700000e+001  4.800000e+001
      vertex -8.000000e+000 -3.700000e+001  2.489898e+001
      vertex -6.000000e+000 -3.700000e+001  4.800000e+001
    endloop
  endfacet
  facet normal  0.000000e+000 -1.000000e+000  -0.000000e+000
    outer loop
      vertex -6.000000e+000 -3.700000e+001  4.800000e+001
      vertex -8.000000e+000 -3.700000e+001  2.489898e+001
      vertex -6.000000e+000 -3.700000e+001  2.489898e+001
    endloop
  endfacet
  facet normal  0.000000e+000  0.000000e+000 -1.000000e+000
    outer loop
      vertex -8.000000e+000 -3.700000e+001  2.489898e+001
      vertex -8.000000e+000 -1.100000e+001  2.489898e+001
      vertex -6.000000e+000 -3.700000e+001  2.489898e+001
    endloop
  endfacet
  facet normal  0.000000e+000  0.000000e+000 -1.000000e+000
    outer loop
      vertex -6.000000e+000 -3.700000e+001  2.489898e+001
      vertex -8.000000e+000 -1.100000e+001  2.489898e+001
      vertex -6.000000e+000 -1.100000e+001  2.489898e+001
    endloop
  endfacet
  facet normal  0.000000e+000  1.000000e+000  0.000000e+000
    outer loop
      vertex -8.000000e+000 -1.100000e+001  2.489898e+001
      vertex -8.000000e+000 -1.100000e+001  4.800000e+001
      vertex -6.000000e+000 -1.100000e+001  2.489898e+001
    endloop
  endfacet
  facet normal  0.000000e+000  1.000000e+000  -0.000000e+000
    outer loop
      vertex -6.000000e+000 -1.100000e+001  2.489898e+001
      vertex -8.000000e+000 -1.100000e+001  4.800000e+001
      vertex -6.000000e+000 -1.100000e+001  4.800000e+001
    endloop
  endfacet
  facet normal  0.000000e+000  0.000000e+000  1.000000e+000
    outer loop
      vertex -8.000000e+000 -1.100000e+001  4.800000e+001
      vertex -8.000000e+000 -3.700000e+001  4.800000e+001
      vertex -6.000000e+000 -1.100000e+001  4.800000e+001
    endloop
  endfacet
  facet normal  0.000000e+000  0.000000e+000  1.000000e+000
    outer loop
      vertex -6.000000e+000 -1.100000e+001  4.800000e+001
      vertex -8.000000e+000 -3.700000e+001  4.800000e+001
      vertex -6.000000e+000 -3.700000e+001  4.800000e+001
    endloop
  endfacet
  facet normal -1.000000e+000  0.000000e+000  0.000000e+000
    outer loop
      vertex -8.000000e+000  9.000000e+000  2.489898e+001
      vertex -8.000000e+000 -9.000000e+000  2.489898e+001
      vertex -8.000000e+000  9.000000e+000  4.800000e+001
    endloop
  endfacet
  facet normal -1.000000e+000  -0.000000e+000  0.000000e+000
    outer loop
      vertex -8.000000e+000  9.000000e+000  4.800000e+001
      vertex -8.000000e+000 -9.000000e+000  2.489898e+001
      vertex -8.000000e+000 -9.000000e+000  4.800000e+001
    endloop
  endfacet
  facet normal  1.000000e+000  0.000000e+000  0.000000e+000
    outer loop
      vertex -6.000000e+000  9.000000e+000  2.489898e+001
      vertex -6.000000e+000  9.000000e+000  4.800000e+001
      vertex -6.000000e+000 -9.000000e+000  2.489898e+001
    endloop
  endfacet
  facet normal  1.000000e+000  0.000000e+000  0.000000e+000
    outer loop
      vertex -6.000000e+000 -9.000000e+000  2.489898e+001
      vertex -6.000000e+000  9.000000e+000  4.800000e+001
      vertex -6.000000e+000 -9.000000e+000  4.800000e+001
    endloop
  endfacet
  facet normal  0.000000e+000  0.000000e+000  1.000000e+000
    outer loop
      vertex -8.000000e+000  9.000000e+000  4.800000e+001
      vertex -8.000000e+000 -9.000000e+000  4.800000e+001
      vertex -6.000000e+000  9.000000e+000  4.800000e+001
    endloop
  endfacet
  facet normal  0.000000e+000  0.000000e+000  1.000000e+000
    outer loop
      vertex -6.000000e+000  9.000000e+000  4.800000e+001
      vertex -8.000000e+000 -9.000000e+000  4.800000e+001
      vertex -6.000000e+000 -9.000000e+000  4.800000e+001
    endloop
  endfacet
  facet normal  0.000000e+000 -1.000000e+000  0.000000e+000
    outer loop
      vertex -8.000000e+000 -9.000000e+000  4.800000e+001
      vertex -8.000000e+000 -9.000000e+000  2.489898e+001
      vertex -6.000000e+000 -9.000000e+000  4.800000e+001
    endloop
  endfacet
  facet normal  0.000000e+000 -1.000000e+000  -0.000000e+000
    outer loop
      vertex -6.000000e+000 -9.000000e+000  4.800000e+001
      vertex -8.000000e+000 -9.000000e+000  2.489898e+001
      vertex -6.000000e+000 -9.000000e+000  2.489898e+001
    endloop
  endfacet
  facet normal  0.000000e+000  0.000000e+000 -1.000000e+000
    outer loop
      vertex -8.000000e+000 -9.000000e+000  2.489898e+001
      vertex -8.000000e+000  9.000000e+000  2.489898e+001
      vertex -6.000000e+000 -9.000000e+000  2.489898e+001
    endloop
  endfacet
  facet normal  0.000000e+000  0.000000e+000 -1.000000e+000
    outer loop
      vertex -6.000000e+000 -9.000000e+000  2.489898e+001
      vertex -8.000000e+000  9.000000e+000  2.489898e+001
      vertex -6.000000e+000  9.000000e+000  2.489898e+001
    endloop
  endfacet
  facet normal  0.000000e+000  1.000000e+000  0.000000e+000
    outer loop
      vertex -8.000000e+000  9.000000e+000  2.489898e+001
      vertex -8.000000e+000  9.000000e+000  4.800000e+001
      vertex -6.000000e+000  9.000000e+000  2.489898e+001
    endloop
  endfacet
  facet normal  0.000000e+000  1.000000e+000  -0.000000e+000
    outer loop
      vertex -6.000000e+000  9.000000e+000  2.489898e+001
      vertex -8.000000e+000  9.000000e+000  4.800000e+001
      vertex -6.000000e+000  9.000000e+000  4.800000e+001
    endloop
  endfacet
  facet normal -1.000000e+000  0.000000e+000  0.000000e+000
    outer loop
      vertex -8.000000e+000  3.800000e+001  2.489898e+001
      vertex -8.000000e+000  1.100000e+001  2.489898e+001
      vertex -8.000000e+000  3.800000e+001  4.800000e+001
    endloop
  endfacet
  facet normal -1.000000e+000  -0.000000e+000  0.000000e+000
    outer loop
      vertex -8.000000e+000  3.800000e+001  4.800000e+001
      vertex -8.000000e+000  1.100000e+001  2.489898e+001
      vertex -8.000000e+000  1.100000e+001  4.800000e+001
    endloop
  endfacet
  facet normal  1.000000e+000  0.000000e+000  0.000000e+000
    outer loop
      vertex -6.000000e+000  3.800000e+001  2.489898e+001
      vertex -6.000000e+000  3.800000e+001  4.800000e+001
      vertex -6.000000e+000  1.100000e+001  2.489898e+001
    endloop
  endfacet
  facet normal  1.000000e+000  0.000000e+000  0.000000e+000
    outer loop
      vertex -6.000000e+000  1.100000e+001  2.489898e+001
      vertex -6.000000e+000  3.800000e+001  4.800000e+001
      vertex -6.000000e+000  1.100000e+001  4.800000e+001
    endloop
  endfacet
  facet normal  0.000000e+000  0.000000e+000  1.000000e+000
    outer loop
      vertex -8.000000e+000  3.800000e+001  4.800000e+001
      vertex -8.000000e+000  1.100000e+001  4.800000e+001
      vertex -6.000000e+000  3.800000e+001  4.800000e+001
    endloop
  endfacet
  facet normal  0.000000e+000  0.000000e+000  1.000000e+000
    outer loop
      vertex -6.000000e+000  3.800000e+001  4.800000e+001
      vertex -8.000000e+000  1.100000e+001  4.800000e+001
      vertex -6.000000e+000  1.100000e+001  4.800000e+001
    endloop
  endfacet
  facet normal  0.000000e+000 -1.000000e+000  0.000000e+000
    outer loop
      vertex -8.000000e+000  1.100000e+001  4.800000e+001
      vertex -8.000000e+000  1.100000e+001  2.489898e+001
      vertex -6.000000e+000  1.100000e+001  4.800000e+001
    endloop
  endfacet
  facet normal  0.000000e+000 -1.000000e+000  -0.000000e+000
    outer loop
      vertex -6.000000e+000  1.100000e+001  4.800000e+001
      vertex -8.000000e+000  1.100000e+001  2.489898e+001
      vertex -6.000000e+000  1.100000e+001  2.489898e+001
    endloop
  endfacet
  facet normal  0.000000e+000  0.000000e+000 -1.000000e+000
    outer loop
      vertex -8.000000e+000  1.100000e+001  2.489898e+001
      vertex -8.000000e+000  3.800000e+001  2.489898e+001
      vertex -6.000000e+000  1.100000e+001  2.489898e+001
    endloop
  endfacet
  facet normal  0.000000e+000  0.000000e+000 -1.000000e+000
    outer loop
      vertex -6.000000e+000  1.100000e+001  2.489898e+001
      vertex -8.000000e+000  3.800000e+001  2.489898e+001
      vertex -6.000000e+000  3.800000e+001  2.489898e+001
    endloop
  endfacet
  facet normal  0.000000e+000  1.000000e+000  0.000000e+000
    outer loop
      vertex -8.000000e+000  3.800000e+001  2.489898e+001
      vertex -8.000000e+000  3.800000e+001  4.800000e+001
      vertex -6.000000e+000  3.800000e+001  2.489898e+001
    endloop
  endfacet
  facet normal  0.000000e+000  1.000000e+000  -0.000000e+000
    outer loop
      vertex -6.000000e+000  3.800000e+001  2.489898e+001
      vertex -8.000000e+000  3.800000e+001  4.800000e+001
      vertex -6.000000e+000  3.800000e+001  4.800000e+001
    endloop
  endfacet
endsolid CATIA STL
