solid CATIA STL
  facet normal  9.950424e-002 -5.725583e-007  9.950371e-001
    outer loop
      vertex  3.191588e+001  9.000000e+000  1.731340e+001
      vertex  2.485112e+001  2.100000e+000  1.801988e+001
      vertex  2.632867e+001  1.484924e+000  1.787212e+001
    endloop
  endfacet
  facet normal  9.950290e-002  4.303078e-007  9.950373e-001
    outer loop
      vertex  3.191588e+001  9.000000e+000  1.731340e+001
      vertex  2.632867e+001  1.484924e+000  1.787212e+001
      vertex  2.694069e+001 -1.329272e-015  1.781092e+001
    endloop
  endfacet
  facet normal  9.950290e-002 -4.577927e-007  9.950373e-001
    outer loop
      vertex -2.582950e-002  9.000000e+000  2.050757e+001
      vertex  4.552357e+000  1.285837e-016  2.004975e+001
      vertex  5.164380e+000  1.484924e+000  1.998855e+001
    endloop
  endfacet
  facet normal  9.950422e-002  4.672273e-007  9.950371e-001
    outer loop
      vertex -2.582950e-002  9.000000e+000  2.050757e+001
      vertex  5.164380e+000  1.484924e+000  1.998855e+001
      vertex  6.641935e+000  2.100000e+000  1.984079e+001
    endloop
  endfacet
  facet normal  9.950366e-002 -7.786490e-008  9.950371e-001
    outer loop
      vertex -2.582950e-002  9.000000e+000  2.050757e+001
      vertex  6.641935e+000  2.100000e+000  1.984079e+001
      vertex  2.485112e+001  2.100000e+000  1.801988e+001
    endloop
  endfacet
  facet normal  9.950369e-002  2.912393e-009  9.950372e-001
    outer loop
      vertex -2.582950e-002  9.000000e+000  2.050757e+001
      vertex  2.485112e+001  2.100000e+000  1.801988e+001
      vertex  3.191588e+001  9.000000e+000  1.731340e+001
    endloop
  endfacet
  facet normal  9.950367e-002  0.000000e+000  9.950372e-001
    outer loop
      vertex  3.191588e+001 -9.000000e+000  1.731340e+001
      vertex  3.191588e+001  9.000000e+000  1.731340e+001
      vertex  2.694069e+001 -1.329272e-015  1.781092e+001
    endloop
  endfacet
  facet normal  9.950290e-002 -4.303078e-007  9.950373e-001
    outer loop
      vertex  3.191588e+001 -9.000000e+000  1.731340e+001
      vertex  2.694069e+001 -1.329272e-015  1.781092e+001
      vertex  2.632867e+001 -1.484924e+000  1.787212e+001
    endloop
  endfacet
  facet normal  9.950425e-002  5.725584e-007  9.950372e-001
    outer loop
      vertex  3.191588e+001 -9.000000e+000  1.731340e+001
      vertex  2.632867e+001 -1.484924e+000  1.787212e+001
      vertex  2.485112e+001 -2.100000e+000  1.801988e+001
    endloop
  endfacet
  facet normal  9.950366e-002 -2.585221e-008  9.950371e-001
    outer loop
      vertex  3.191588e+001 -9.000000e+000  1.731340e+001
      vertex  2.485112e+001 -2.100000e+000  1.801988e+001
      vertex  6.641935e+000 -2.100000e+000  1.984079e+001
    endloop
  endfacet
  facet normal  9.950369e-002  5.621417e-008  9.950372e-001
    outer loop
      vertex  3.191588e+001 -9.000000e+000  1.731340e+001
      vertex  6.641935e+000 -2.100000e+000  1.984079e+001
      vertex -2.582950e-002 -9.000000e+000  2.050757e+001
    endloop
  endfacet
  facet normal  9.950422e-002 -4.672273e-007  9.950371e-001
    outer loop
      vertex -2.582950e-002 -9.000000e+000  2.050757e+001
      vertex  6.641935e+000 -2.100000e+000  1.984079e+001
      vertex  5.164380e+000 -1.484924e+000  1.998855e+001
    endloop
  endfacet
  facet normal  9.950290e-002  4.577927e-007  9.950373e-001
    outer loop
      vertex -2.582950e-002 -9.000000e+000  2.050757e+001
      vertex  5.164380e+000 -1.484924e+000  1.998855e+001
      vertex  4.552357e+000  1.285837e-016  2.004975e+001
    endloop
  endfacet
  facet normal  9.950379e-002  0.000000e+000  9.950371e-001
    outer loop
      vertex -2.582950e-002 -9.000000e+000  2.050757e+001
      vertex  4.552357e+000  1.285837e-016  2.004975e+001
      vertex -2.582950e-002  9.000000e+000  2.050757e+001
    endloop
  endfacet
  facet normal -9.950428e-002  4.761302e-007 -9.950371e-001
    outer loop
      vertex  2.612966e+001  1.484924e+000  1.588205e+001
      vertex  2.465211e+001  2.100000e+000  1.602980e+001
      vertex  3.171687e+001  9.000000e+000  1.532333e+001
    endloop
  endfacet
  facet normal -9.950356e-002 -6.421208e-008 -9.950373e-001
    outer loop
      vertex  2.674169e+001 -1.329272e-015  1.582084e+001
      vertex  2.612966e+001  1.484924e+000  1.588205e+001
      vertex  3.171687e+001  9.000000e+000  1.532333e+001
    endloop
  endfacet
  facet normal -9.950372e-002 -1.100222e-007 -9.950372e-001
    outer loop
      vertex -2.248369e-001  9.000000e+000  1.851750e+001
      vertex  3.171687e+001  9.000000e+000  1.532333e+001
      vertex  2.465211e+001  2.100000e+000  1.602980e+001
    endloop
  endfacet
  facet normal -9.950366e-002  7.786490e-008 -9.950371e-001
    outer loop
      vertex -2.248369e-001  9.000000e+000  1.851750e+001
      vertex  2.465211e+001  2.100000e+000  1.602980e+001
      vertex  6.442928e+000  2.100000e+000  1.785072e+001
    endloop
  endfacet
  facet normal -9.950425e-002 -4.893566e-007 -9.950371e-001
    outer loop
      vertex -2.248369e-001  9.000000e+000  1.851750e+001
      vertex  6.442928e+000  2.100000e+000  1.785072e+001
      vertex  4.965373e+000  1.484924e+000  1.799848e+001
    endloop
  endfacet
  facet normal -9.950287e-002  4.754435e-007 -9.950373e-001
    outer loop
      vertex -2.248369e-001  9.000000e+000  1.851750e+001
      vertex  4.965373e+000  1.484924e+000  1.799848e+001
      vertex  4.353350e+000  1.285837e-016  1.805968e+001
    endloop
  endfacet
  facet normal -9.950372e-002 -2.750555e-008 -9.950372e-001
    outer loop
      vertex  3.171687e+001 -9.000000e+000  1.532333e+001
      vertex -2.248369e-001 -9.000000e+000  1.851750e+001
      vertex  6.442928e+000 -2.100000e+000  1.785072e+001
    endloop
  endfacet
  facet normal -9.950366e-002  1.633799e-007 -9.950371e-001
    outer loop
      vertex  3.171687e+001 -9.000000e+000  1.532333e+001
      vertex  6.442928e+000 -2.100000e+000  1.785072e+001
      vertex  2.465211e+001 -2.100000e+000  1.602980e+001
    endloop
  endfacet
  facet normal -9.950428e-002 -4.761302e-007 -9.950371e-001
    outer loop
      vertex  3.171687e+001 -9.000000e+000  1.532333e+001
      vertex  2.465211e+001 -2.100000e+000  1.602980e+001
      vertex  2.612966e+001 -1.484924e+000  1.588205e+001
    endloop
  endfacet
  facet normal -9.950356e-002  6.421208e-008 -9.950373e-001
    outer loop
      vertex  3.171687e+001 -9.000000e+000  1.532333e+001
      vertex  2.612966e+001 -1.484924e+000  1.588205e+001
      vertex  2.674169e+001 -1.329272e-015  1.582084e+001
    endloop
  endfacet
  facet normal -9.950367e-002  0.000000e+000 -9.950372e-001
    outer loop
      vertex  3.171687e+001 -9.000000e+000  1.532333e+001
      vertex  2.674169e+001 -1.329272e-015  1.582084e+001
      vertex  3.171687e+001  9.000000e+000  1.532333e+001
    endloop
  endfacet
  facet normal -9.950379e-002  -0.000000e+000 -9.950371e-001
    outer loop
      vertex -2.248369e-001 -9.000000e+000  1.851750e+001
      vertex -2.248369e-001  9.000000e+000  1.851750e+001
      vertex  4.353350e+000  1.285837e-016  1.805968e+001
    endloop
  endfacet
  facet normal -9.950287e-002 -4.754435e-007 -9.950373e-001
    outer loop
      vertex -2.248369e-001 -9.000000e+000  1.851750e+001
      vertex  4.353350e+000  1.285837e-016  1.805968e+001
      vertex  4.965373e+000 -1.484924e+000  1.799848e+001
    endloop
  endfacet
  facet normal -9.950425e-002  4.893566e-007 -9.950371e-001
    outer loop
      vertex -2.248369e-001 -9.000000e+000  1.851750e+001
      vertex  4.965373e+000 -1.484924e+000  1.799848e+001
      vertex  6.442928e+000 -2.100000e+000  1.785072e+001
    endloop
  endfacet
  facet normal -9.192947e-001 -3.826830e-001  9.192929e-002
    outer loop
      vertex  2.674169e+001 -1.329272e-015  1.582084e+001
      vertex  2.632867e+001  1.484924e+000  1.787212e+001
      vertex  2.612966e+001  1.484924e+000  1.588205e+001
    endloop
  endfacet
  facet normal -3.807843e-001 -9.238795e-001  3.807836e-002
    outer loop
      vertex  2.612966e+001  1.484924e+000  1.588205e+001
      vertex  2.632867e+001  1.484924e+000  1.787212e+001
      vertex  2.485112e+001  2.100000e+000  1.801988e+001
    endloop
  endfacet
  facet normal -3.807843e-001 -9.238795e-001  3.807836e-002
    outer loop
      vertex  2.612966e+001  1.484924e+000  1.588205e+001
      vertex  2.485112e+001  2.100000e+000  1.801988e+001
      vertex  2.465211e+001  2.100000e+000  1.602980e+001
    endloop
  endfacet
  facet normal -9.192947e-001 -3.826829e-001  9.192925e-002
    outer loop
      vertex  2.632867e+001  1.484924e+000  1.787212e+001
      vertex  2.674169e+001 -1.329272e-015  1.582084e+001
      vertex  2.694069e+001 -1.329272e-015  1.781092e+001
    endloop
  endfacet
  facet normal -9.192947e-001  3.826830e-001  9.192925e-002
    outer loop
      vertex  2.694069e+001 -1.329272e-015  1.781092e+001
      vertex  2.674169e+001 -1.329272e-015  1.582084e+001
      vertex  2.612966e+001 -1.484924e+000  1.588205e+001
    endloop
  endfacet
  facet normal -9.192947e-001  3.826829e-001  9.192929e-002
    outer loop
      vertex  2.694069e+001 -1.329272e-015  1.781092e+001
      vertex  2.612966e+001 -1.484924e+000  1.588205e+001
      vertex  2.632867e+001 -1.484924e+000  1.787212e+001
    endloop
  endfacet
  facet normal -3.807843e-001  9.238795e-001  3.807836e-002
    outer loop
      vertex  2.632867e+001 -1.484924e+000  1.787212e+001
      vertex  2.612966e+001 -1.484924e+000  1.588205e+001
      vertex  2.465211e+001 -2.100000e+000  1.602980e+001
    endloop
  endfacet
  facet normal -3.807843e-001  9.238795e-001  3.807836e-002
    outer loop
      vertex  2.632867e+001 -1.484924e+000  1.787212e+001
      vertex  2.465211e+001 -2.100000e+000  1.602980e+001
      vertex  2.485112e+001 -2.100000e+000  1.801988e+001
    endloop
  endfacet
  facet normal  0.000000e+000 -1.000000e+000  0.000000e+000
    outer loop
      vertex  6.641935e+000  2.100000e+000  1.984079e+001
      vertex  6.442928e+000  2.100000e+000  1.785072e+001
      vertex  2.485112e+001  2.100000e+000  1.801988e+001
    endloop
  endfacet
  facet normal  0.000000e+000 -1.000000e+000  0.000000e+000
    outer loop
      vertex  2.485112e+001  2.100000e+000  1.801988e+001
      vertex  6.442928e+000  2.100000e+000  1.785072e+001
      vertex  2.465211e+001  2.100000e+000  1.602980e+001
    endloop
  endfacet
  facet normal  9.192945e-001  3.826834e-001 -9.192926e-002
    outer loop
      vertex  4.353350e+000  1.285837e-016  1.805968e+001
      vertex  5.164380e+000 -1.484924e+000  1.998855e+001
      vertex  4.965373e+000 -1.484924e+000  1.799848e+001
    endloop
  endfacet
  facet normal  3.807841e-001  9.238796e-001 -3.807834e-002
    outer loop
      vertex  4.965373e+000 -1.484924e+000  1.799848e+001
      vertex  5.164380e+000 -1.484924e+000  1.998855e+001
      vertex  6.641935e+000 -2.100000e+000  1.984079e+001
    endloop
  endfacet
  facet normal  3.807842e-001  9.238795e-001 -3.807843e-002
    outer loop
      vertex  4.965373e+000 -1.484924e+000  1.799848e+001
      vertex  6.641935e+000 -2.100000e+000  1.984079e+001
      vertex  6.442928e+000 -2.100000e+000  1.785072e+001
    endloop
  endfacet
  facet normal  9.192947e-001  3.826832e-001 -9.192950e-002
    outer loop
      vertex  5.164380e+000 -1.484924e+000  1.998855e+001
      vertex  4.353350e+000  1.285837e-016  1.805968e+001
      vertex  4.552357e+000  1.285837e-016  2.004975e+001
    endloop
  endfacet
  facet normal  9.192945e-001 -3.826834e-001 -9.192949e-002
    outer loop
      vertex  4.552357e+000  1.285837e-016  2.004975e+001
      vertex  4.353350e+000  1.285837e-016  1.805968e+001
      vertex  4.965373e+000  1.484924e+000  1.799848e+001
    endloop
  endfacet
  facet normal  9.192947e-001 -3.826832e-001 -9.192928e-002
    outer loop
      vertex  4.552357e+000  1.285837e-016  2.004975e+001
      vertex  4.965373e+000  1.484924e+000  1.799848e+001
      vertex  5.164380e+000  1.484924e+000  1.998855e+001
    endloop
  endfacet
  facet normal  3.807842e-001 -9.238795e-001 -3.807835e-002
    outer loop
      vertex  5.164380e+000  1.484924e+000  1.998855e+001
      vertex  4.965373e+000  1.484924e+000  1.799848e+001
      vertex  6.442928e+000  2.100000e+000  1.785072e+001
    endloop
  endfacet
  facet normal  3.807840e-001 -9.238795e-001 -3.807842e-002
    outer loop
      vertex  5.164380e+000  1.484924e+000  1.998855e+001
      vertex  6.442928e+000  2.100000e+000  1.785072e+001
      vertex  6.641935e+000  2.100000e+000  1.984079e+001
    endloop
  endfacet
  facet normal  0.000000e+000  1.000000e+000  -0.000000e+000
    outer loop
      vertex  2.485112e+001 -2.100000e+000  1.801988e+001
      vertex  2.465211e+001 -2.100000e+000  1.602980e+001
      vertex  6.641935e+000 -2.100000e+000  1.984079e+001
    endloop
  endfacet
  facet normal  0.000000e+000  1.000000e+000  0.000000e+000
    outer loop
      vertex  6.641935e+000 -2.100000e+000  1.984079e+001
      vertex  2.465211e+001 -2.100000e+000  1.602980e+001
      vertex  6.442928e+000 -2.100000e+000  1.785072e+001
    endloop
  endfacet
  facet normal  0.000000e+000  1.000000e+000  -0.000000e+000
    outer loop
      vertex  3.191588e+001  9.000000e+000  1.731340e+001
      vertex  3.171687e+001  9.000000e+000  1.532333e+001
      vertex -2.582950e-002  9.000000e+000  2.050757e+001
    endloop
  endfacet
  facet normal  0.000000e+000  1.000000e+000  0.000000e+000
    outer loop
      vertex -2.582950e-002  9.000000e+000  2.050757e+001
      vertex  3.171687e+001  9.000000e+000  1.532333e+001
      vertex -2.248369e-001  9.000000e+000  1.851750e+001
    endloop
  endfacet
  facet normal  9.950372e-001  0.000000e+000 -9.950349e-002
    outer loop
      vertex  3.191588e+001 -9.000000e+000  1.731340e+001
      vertex  3.171687e+001 -9.000000e+000  1.532333e+001
      vertex  3.191588e+001  9.000000e+000  1.731340e+001
    endloop
  endfacet
  facet normal  9.950372e-001  0.000000e+000 -9.950349e-002
    outer loop
      vertex  3.191588e+001  9.000000e+000  1.731340e+001
      vertex  3.171687e+001 -9.000000e+000  1.532333e+001
      vertex  3.171687e+001  9.000000e+000  1.532333e+001
    endloop
  endfacet
  facet normal  0.000000e+000 -1.000000e+000  0.000000e+000
    outer loop
      vertex -2.582950e-002 -9.000000e+000  2.050757e+001
      vertex -2.248369e-001 -9.000000e+000  1.851750e+001
      vertex  3.191588e+001 -9.000000e+000  1.731340e+001
    endloop
  endfacet
  facet normal  -0.000000e+000 -1.000000e+000  0.000000e+000
    outer loop
      vertex  3.191588e+001 -9.000000e+000  1.731340e+001
      vertex -2.248369e-001 -9.000000e+000  1.851750e+001
      vertex  3.171687e+001 -9.000000e+000  1.532333e+001
    endloop
  endfacet
  facet normal -9.950371e-001  0.000000e+000  9.950373e-002
    outer loop
      vertex -2.582950e-002  9.000000e+000  2.050757e+001
      vertex -2.248369e-001  9.000000e+000  1.851750e+001
      vertex -2.582950e-002 -9.000000e+000  2.050757e+001
    endloop
  endfacet
  facet normal -9.950371e-001  0.000000e+000  9.950373e-002
    outer loop
      vertex -2.582950e-002 -9.000000e+000  2.050757e+001
      vertex -2.248369e-001  9.000000e+000  1.851750e+001
      vertex -2.248369e-001 -9.000000e+000  1.851750e+001
    endloop
  endfacet
endsolid CATIA STL
