solid CATIA STL
  facet normal -7.549286e-001  6.334613e-001 -1.697336e-001
    outer loop
      vertex  2.848875e+000  0.000000e+000  0.000000e+000
      vertex  1.800000e+000 -1.249998e+000  3.295975e-016
      vertex  1.800000e+000 -1.082532e+000  6.250000e-001
    endloop
  endfacet
  facet normal -7.549286e-001  4.637243e-001 -4.637267e-001
    outer loop
      vertex  1.800000e+000 -6.249991e-001  1.082530e+000
      vertex  2.848875e+000  0.000000e+000  0.000000e+000
      vertex  1.800000e+000 -1.082532e+000  6.250000e-001
    endloop
  endfacet
  facet normal -7.549286e-001  4.637243e-001  4.637267e-001
    outer loop
      vertex  2.848875e+000  0.000000e+000  0.000000e+000
      vertex  1.800000e+000 -6.249991e-001 -1.082530e+000
      vertex  1.800000e+000 -1.082532e+000 -6.250000e-001
    endloop
  endfacet
  facet normal -7.549286e-001  6.334613e-001  1.697336e-001
    outer loop
      vertex  1.800000e+000 -1.249998e+000  3.295975e-016
      vertex  2.848875e+000  0.000000e+000  0.000000e+000
      vertex  1.800000e+000 -1.082532e+000 -6.250000e-001
    endloop
  endfacet
  facet normal -7.549286e-001  1.697370e-001 -6.334604e-001
    outer loop
      vertex  1.800000e+000 -6.249991e-001  1.082530e+000
      vertex  1.800000e+000  0.000000e+000  1.250000e+000
      vertex  2.848875e+000  0.000000e+000  0.000000e+000
    endloop
  endfacet
  facet normal -7.549286e-001  1.697370e-001  6.334604e-001
    outer loop
      vertex  1.800000e+000  0.000000e+000 -1.250000e+000
      vertex  1.800000e+000 -6.249991e-001 -1.082530e+000
      vertex  2.848875e+000  0.000000e+000  0.000000e+000
    endloop
  endfacet
  facet normal -7.549286e-001 -6.334613e-001  1.697336e-001
    outer loop
      vertex  2.848875e+000  0.000000e+000  0.000000e+000
      vertex  1.800000e+000  1.249998e+000  2.983724e-016
      vertex  1.800000e+000  1.082532e+000 -6.250000e-001
    endloop
  endfacet
  facet normal -7.549286e-001 -4.637243e-001  4.637267e-001
    outer loop
      vertex  1.800000e+000  6.249991e-001 -1.082530e+000
      vertex  2.848875e+000  0.000000e+000  0.000000e+000
      vertex  1.800000e+000  1.082532e+000 -6.250000e-001
    endloop
  endfacet
  facet normal -7.549286e-001 -4.637243e-001 -4.637267e-001
    outer loop
      vertex  2.848875e+000  0.000000e+000  0.000000e+000
      vertex  1.800000e+000  6.249991e-001  1.082530e+000
      vertex  1.800000e+000  1.082532e+000  6.250000e-001
    endloop
  endfacet
  facet normal -7.549286e-001 -6.334612e-001 -1.697336e-001
    outer loop
      vertex  1.800000e+000  1.249998e+000  2.983724e-016
      vertex  2.848875e+000  0.000000e+000  0.000000e+000
      vertex  1.800000e+000  1.082532e+000  6.250000e-001
    endloop
  endfacet
  facet normal -7.549286e-001 -1.697370e-001  6.334604e-001
    outer loop
      vertex  1.800000e+000  6.249991e-001 -1.082530e+000
      vertex  1.800000e+000  0.000000e+000 -1.250000e+000
      vertex  2.848875e+000  0.000000e+000  0.000000e+000
    endloop
  endfacet
  facet normal -7.549286e-001 -1.697370e-001 -6.334604e-001
    outer loop
      vertex  1.800000e+000  0.000000e+000  1.250000e+000
      vertex  1.800000e+000  6.249991e-001  1.082530e+000
      vertex  2.848875e+000  0.000000e+000  0.000000e+000
    endloop
  endfacet
  facet normal  0.000000e+000  8.660254e-001  5.000000e-001
    outer loop
      vertex  2.066243e-001 -1.443376e+000  2.220446e-016
      vertex  1.800000e+000 -1.443376e+000  2.220446e-016
      vertex  2.066243e-001 -7.216879e-001 -1.250000e+000
    endloop
  endfacet
  facet normal  3.239609e-008  8.660254e-001  4.999999e-001
    outer loop
      vertex  2.066243e-001 -7.216879e-001 -1.250000e+000
      vertex  1.800000e+000 -1.443376e+000  2.220446e-016
      vertex  1.800000e+000 -1.082532e+000 -6.250000e-001
    endloop
  endfacet
  facet normal  0.000000e+000  8.660254e-001  5.000001e-001
    outer loop
      vertex  2.066243e-001 -7.216879e-001 -1.250000e+000
      vertex  1.800000e+000 -1.082532e+000 -6.250000e-001
      vertex  1.800000e+000 -7.216879e-001 -1.250000e+000
    endloop
  endfacet
  facet normal -1.000000e+000  0.000000e+000  0.000000e+000
    outer loop
      vertex  1.800000e+000  6.249991e-001 -1.082530e+000
      vertex  1.800000e+000  1.082532e+000 -6.250000e-001
      vertex  1.800000e+000  7.216879e-001 -1.250000e+000
    endloop
  endfacet
  facet normal -1.000000e+000  0.000000e+000  -0.000000e+000
    outer loop
      vertex  1.800000e+000  0.000000e+000 -1.250000e+000
      vertex  1.800000e+000  6.249991e-001 -1.082530e+000
      vertex  1.800000e+000  7.216879e-001 -1.250000e+000
    endloop
  endfacet
  facet normal -1.000000e+000  0.000000e+000  0.000000e+000
    outer loop
      vertex  1.800000e+000 -6.249991e-001 -1.082530e+000
      vertex  1.800000e+000  0.000000e+000 -1.250000e+000
      vertex  1.800000e+000 -7.216879e-001 -1.250000e+000
    endloop
  endfacet
  facet normal -1.000000e+000  -0.000000e+000  0.000000e+000
    outer loop
      vertex  1.800000e+000 -1.082532e+000 -6.250000e-001
      vertex  1.800000e+000 -6.249991e-001 -1.082530e+000
      vertex  1.800000e+000 -7.216879e-001 -1.250000e+000
    endloop
  endfacet
  facet normal -1.000000e+000  0.000000e+000  0.000000e+000
    outer loop
      vertex  1.800000e+000 -1.249998e+000  3.295975e-016
      vertex  1.800000e+000 -1.082532e+000 -6.250000e-001
      vertex  1.800000e+000 -1.443376e+000  2.220446e-016
    endloop
  endfacet
  facet normal -1.000000e+000  -0.000000e+000  0.000000e+000
    outer loop
      vertex  1.800000e+000 -1.082532e+000  6.250000e-001
      vertex  1.800000e+000 -1.249998e+000  3.295975e-016
      vertex  1.800000e+000 -1.443376e+000  2.220446e-016
    endloop
  endfacet
  facet normal -1.000000e+000  0.000000e+000  0.000000e+000
    outer loop
      vertex  1.800000e+000 -6.249991e-001  1.082530e+000
      vertex  1.800000e+000 -1.082532e+000  6.250000e-001
      vertex  1.800000e+000 -7.216879e-001  1.250000e+000
    endloop
  endfacet
  facet normal -1.000000e+000  0.000000e+000  0.000000e+000
    outer loop
      vertex  1.800000e+000  0.000000e+000  1.250000e+000
      vertex  1.800000e+000 -6.249991e-001  1.082530e+000
      vertex  1.800000e+000 -7.216879e-001  1.250000e+000
    endloop
  endfacet
  facet normal -1.000000e+000  0.000000e+000  0.000000e+000
    outer loop
      vertex  1.800000e+000  1.249998e+000  2.983724e-016
      vertex  1.800000e+000  1.082532e+000  6.250000e-001
      vertex  1.800000e+000  1.443376e+000  0.000000e+000
    endloop
  endfacet
  facet normal -1.000000e+000  0.000000e+000  -0.000000e+000
    outer loop
      vertex  1.800000e+000  1.082532e+000 -6.250000e-001
      vertex  1.800000e+000  1.249998e+000  2.983724e-016
      vertex  1.800000e+000  1.443376e+000  0.000000e+000
    endloop
  endfacet
  facet normal -1.000000e+000  0.000000e+000  0.000000e+000
    outer loop
      vertex  1.800000e+000  6.249991e-001  1.082530e+000
      vertex  1.800000e+000  0.000000e+000  1.250000e+000
      vertex  1.800000e+000  7.216879e-001  1.250000e+000
    endloop
  endfacet
  facet normal -1.000000e+000  0.000000e+000  0.000000e+000
    outer loop
      vertex  1.800000e+000  1.082532e+000  6.250000e-001
      vertex  1.800000e+000  6.249991e-001  1.082530e+000
      vertex  1.800000e+000  7.216879e-001  1.250000e+000
    endloop
  endfacet
  facet normal -7.273644e-001  5.542240e-001  4.046934e-001
    outer loop
      vertex  0.000000e+000 -8.920514e-001 -1.388059e+000
      vertex  0.000000e+000 -1.593778e+000 -4.270514e-001
      vertex  2.066243e-001 -7.216879e-001 -1.250000e+000
    endloop
  endfacet
  facet normal -6.897051e-001  5.357978e-001 -4.870599e-001
    outer loop
      vertex  2.066243e-001 -7.216879e-001  1.250000e+000
      vertex  0.000000e+000 -1.500881e+000  6.854286e-001
      vertex  0.000000e+000 -8.250000e-001  1.428942e+000
    endloop
  endfacet
  facet normal -6.578207e-001  2.122019e-001  7.226633e-001
    outer loop
      vertex  0.000000e+000  0.000000e+000 -1.650000e+000
      vertex  0.000000e+000 -8.920514e-001 -1.388059e+000
      vertex  2.066243e-001 -7.216879e-001 -1.250000e+000
    endloop
  endfacet
  facet normal -8.884642e-001  0.000000e+000  4.589458e-001
    outer loop
      vertex  0.000000e+000  0.000000e+000 -1.650000e+000
      vertex  2.066243e-001 -7.216879e-001 -1.250000e+000
      vertex  2.066243e-001  7.216879e-001 -1.250000e+000
    endloop
  endfacet
  facet normal -6.947467e-001 -1.861567e-001  6.947466e-001
    outer loop
      vertex  0.000000e+000  0.000000e+000 -1.650000e+000
      vertex  2.066243e-001  7.216879e-001 -1.250000e+000
      vertex  0.000000e+000  8.250000e-001 -1.428942e+000
    endloop
  endfacet
  facet normal -8.570992e-001  4.461342e-001  2.575758e-001
    outer loop
      vertex  2.066243e-001 -1.443376e+000  2.220446e-016
      vertex  2.066243e-001 -7.216879e-001 -1.250000e+000
      vertex  0.000000e+000 -1.593778e+000 -4.270514e-001
    endloop
  endfacet
  facet normal -4.841928e-001  8.719266e-001 -7.280958e-002
    outer loop
      vertex  2.066243e-001 -1.443376e+000  2.220446e-016
      vertex  0.000000e+000 -1.593778e+000 -4.270514e-001
      vertex  0.000000e+000 -1.500881e+000  6.854286e-001
    endloop
  endfacet
  facet normal -8.848836e-001  4.034054e-001 -2.329062e-001
    outer loop
      vertex  2.066243e-001 -1.443376e+000  2.220446e-016
      vertex  0.000000e+000 -1.500881e+000  6.854286e-001
      vertex  2.066243e-001 -7.216879e-001  1.250000e+000
    endloop
  endfacet
  facet normal -6.897064e-001 -5.357920e-001  4.870647e-001
    outer loop
      vertex  2.066243e-001  7.216879e-001 -1.250000e+000
      vertex  0.000000e+000  1.500891e+000 -6.854332e-001
      vertex  0.000000e+000  8.250000e-001 -1.428942e+000
    endloop
  endfacet
  facet normal -7.045933e-001  2.793405e-001 -6.523169e-001
    outer loop
      vertex  0.000000e+000 -4.648588e-001  1.583165e+000
      vertex  2.066243e-001 -7.216879e-001  1.250000e+000
      vertex  0.000000e+000 -8.250000e-001  1.428942e+000
    endloop
  endfacet
  facet normal -8.731872e-001 -4.220877e-001 -2.436925e-001
    outer loop
      vertex  2.066243e-001  1.443376e+000 -1.968152e-013
      vertex  2.066243e-001  7.216879e-001  1.250000e+000
      vertex  0.000000e+000  1.246988e+000  1.080521e+000
    endloop
  endfacet
  facet normal -7.943882e-001 -5.525186e-001 -2.523302e-001
    outer loop
      vertex  2.066243e-001  1.443376e+000 -1.968152e-013
      vertex  0.000000e+000  1.246988e+000  1.080521e+000
      vertex  0.000000e+000  1.633210e+000  2.348232e-001
    endloop
  endfacet
  facet normal -5.987917e-001 -7.927520e-001  1.139860e-001
    outer loop
      vertex  2.066243e-001  1.443376e+000 -1.968152e-013
      vertex  0.000000e+000  1.633210e+000  2.348232e-001
      vertex  0.000000e+000  1.500891e+000 -6.854332e-001
    endloop
  endfacet
  facet normal -8.848888e-001 -4.033966e-001  2.329012e-001
    outer loop
      vertex  2.066243e-001  1.443376e+000 -1.968152e-013
      vertex  0.000000e+000  1.500891e+000 -6.854332e-001
      vertex  2.066243e-001  7.216879e-001 -1.250000e+000
    endloop
  endfacet
  facet normal -5.648196e-001 -4.461460e-001 -6.942136e-001
    outer loop
      vertex  0.000000e+000  1.246988e+000  1.080521e+000
      vertex  2.066243e-001  7.216879e-001  1.250000e+000
      vertex  0.000000e+000  4.648579e-001  1.583167e+000
    endloop
  endfacet
  facet normal -8.498333e-001  0.000000e+000 -5.270516e-001
    outer loop
      vertex  0.000000e+000  4.648579e-001  1.583167e+000
      vertex  2.066243e-001  7.216879e-001  1.250000e+000
      vertex  2.066243e-001 -7.216879e-001  1.250000e+000
    endloop
  endfacet
  facet normal -8.498310e-001  1.419171e-006 -5.270552e-001
    outer loop
      vertex  0.000000e+000  4.648579e-001  1.583167e+000
      vertex  2.066243e-001 -7.216879e-001  1.250000e+000
      vertex  0.000000e+000 -4.648588e-001  1.583165e+000
    endloop
  endfacet
  facet normal -1.000000e+000  -0.000000e+000  0.000000e+000
    outer loop
      vertex  0.000000e+000 -2.351141e+000  3.236068e+000
      vertex  0.000000e+000 -4.648588e-001  1.583165e+000
      vertex  0.000000e+000 -8.250000e-001  1.428942e+000
    endloop
  endfacet
  facet normal -1.000000e+000  0.000000e+000  -0.000000e+000
    outer loop
      vertex  0.000000e+000  1.500891e+000 -6.854332e-001
      vertex  0.000000e+000  1.633210e+000  2.348232e-001
      vertex  0.000000e+000  3.804226e+000  1.236068e+000
    endloop
  endfacet
  facet normal -9.999999e-001  -0.000000e+000  0.000000e+000
    outer loop
      vertex  0.000000e+000  2.351141e+000  3.236068e+000
      vertex  0.000000e+000  3.804226e+000  1.236068e+000
      vertex  0.000000e+000  1.633210e+000  2.348232e-001
    endloop
  endfacet
  facet normal -1.000000e+000  -0.000000e+000  0.000000e+000
    outer loop
      vertex  0.000000e+000 -4.898425e-016  4.000000e+000
      vertex  0.000000e+000  2.351141e+000  3.236068e+000
      vertex  0.000000e+000  1.633210e+000  2.348232e-001
    endloop
  endfacet
  facet normal -1.000000e+000  0.000000e+000  0.000000e+000
    outer loop
      vertex  0.000000e+000 -4.898425e-016  4.000000e+000
      vertex  0.000000e+000  1.633210e+000  2.348232e-001
      vertex  0.000000e+000  1.246988e+000  1.080521e+000
    endloop
  endfacet
  facet normal -1.000000e+000  0.000000e+000  0.000000e+000
    outer loop
      vertex  0.000000e+000 -4.898425e-016  4.000000e+000
      vertex  0.000000e+000  1.246988e+000  1.080521e+000
      vertex  0.000000e+000  4.648579e-001  1.583167e+000
    endloop
  endfacet
  facet normal -1.000000e+000  -0.000000e+000  0.000000e+000
    outer loop
      vertex  0.000000e+000 -4.898425e-016  4.000000e+000
      vertex  0.000000e+000  4.648579e-001  1.583167e+000
      vertex  0.000000e+000 -4.648588e-001  1.583165e+000
    endloop
  endfacet
  facet normal -1.000000e+000  0.000000e+000  0.000000e+000
    outer loop
      vertex  0.000000e+000 -4.898425e-016  4.000000e+000
      vertex  0.000000e+000 -4.648588e-001  1.583165e+000
      vertex  0.000000e+000 -2.351141e+000  3.236068e+000
    endloop
  endfacet
  facet normal -1.000000e+000  0.000000e+000  0.000000e+000
    outer loop
      vertex  0.000000e+000 -8.250000e-001  1.428942e+000
      vertex  0.000000e+000 -1.500881e+000  6.854286e-001
      vertex  0.000000e+000 -2.351141e+000  3.236068e+000
    endloop
  endfacet
  facet normal -1.000000e+000  0.000000e+000  0.000000e+000
    outer loop
      vertex  0.000000e+000 -2.351141e+000  3.236068e+000
      vertex  0.000000e+000 -1.500881e+000  6.854286e-001
      vertex  0.000000e+000 -1.593778e+000 -4.270514e-001
    endloop
  endfacet
  facet normal -9.999999e-001  0.000000e+000  0.000000e+000
    outer loop
      vertex  0.000000e+000 -2.351141e+000  3.236068e+000
      vertex  0.000000e+000 -1.593778e+000 -4.270514e-001
      vertex  0.000000e+000 -3.804226e+000  1.236068e+000
    endloop
  endfacet
  facet normal -1.000000e+000  0.000000e+000  0.000000e+000
    outer loop
      vertex  0.000000e+000 -3.804226e+000  1.236068e+000
      vertex  0.000000e+000 -1.593778e+000 -4.270514e-001
      vertex  0.000000e+000 -2.351141e+000 -3.236068e+000
    endloop
  endfacet
  facet normal -9.999999e-001  0.000000e+000  0.000000e+000
    outer loop
      vertex  0.000000e+000 -3.804226e+000  1.236068e+000
      vertex  0.000000e+000 -2.351141e+000 -3.236068e+000
      vertex  0.000000e+000 -3.804226e+000 -1.236068e+000
    endloop
  endfacet
  facet normal -1.000000e+000  0.000000e+000  0.000000e+000
    outer loop
      vertex  0.000000e+000  0.000000e+000 -1.650000e+000
      vertex  0.000000e+000  8.250000e-001 -1.428942e+000
      vertex  0.000000e+000  9.796851e-016 -4.000000e+000
    endloop
  endfacet
  facet normal -1.000000e+000  0.000000e+000  0.000000e+000
    outer loop
      vertex  0.000000e+000  9.796851e-016 -4.000000e+000
      vertex  0.000000e+000  8.250000e-001 -1.428942e+000
      vertex  0.000000e+000  1.500891e+000 -6.854332e-001
    endloop
  endfacet
  facet normal -1.000000e+000  0.000000e+000  -0.000000e+000
    outer loop
      vertex  0.000000e+000  9.796851e-016 -4.000000e+000
      vertex  0.000000e+000  1.500891e+000 -6.854332e-001
      vertex  0.000000e+000  2.351141e+000 -3.236068e+000
    endloop
  endfacet
  facet normal -1.000000e+000  0.000000e+000  0.000000e+000
    outer loop
      vertex  0.000000e+000  2.351141e+000 -3.236068e+000
      vertex  0.000000e+000  1.500891e+000 -6.854332e-001
      vertex  0.000000e+000  3.804226e+000  1.236068e+000
    endloop
  endfacet
  facet normal -9.999999e-001  0.000000e+000  -0.000000e+000
    outer loop
      vertex  0.000000e+000  2.351141e+000 -3.236068e+000
      vertex  0.000000e+000  3.804226e+000  1.236068e+000
      vertex  0.000000e+000  3.804226e+000 -1.236068e+000
    endloop
  endfacet
  facet normal -9.999999e-001  -0.000000e+000  0.000000e+000
    outer loop
      vertex  0.000000e+000 -1.593778e+000 -4.270514e-001
      vertex  0.000000e+000 -8.920514e-001 -1.388059e+000
      vertex  0.000000e+000 -2.351141e+000 -3.236068e+000
    endloop
  endfacet
  facet normal -1.000000e+000  0.000000e+000  0.000000e+000
    outer loop
      vertex  0.000000e+000 -2.351141e+000 -3.236068e+000
      vertex  0.000000e+000 -8.920514e-001 -1.388059e+000
      vertex  0.000000e+000  0.000000e+000 -1.650000e+000
    endloop
  endfacet
  facet normal -1.000000e+000  0.000000e+000  -0.000000e+000
    outer loop
      vertex  0.000000e+000 -2.351141e+000 -3.236068e+000
      vertex  0.000000e+000  0.000000e+000 -1.650000e+000
      vertex  0.000000e+000  9.796851e-016 -4.000000e+000
    endloop
  endfacet
  facet normal -3.609264e-001 -7.544845e-001  5.481651e-001
    outer loop
      vertex  0.000000e+000 -2.351141e+000  3.236068e+000
      vertex  0.000000e+000 -3.804226e+000  1.236068e+000
      vertex  3.000000e-001 -3.638528e+000  1.661660e+000
    endloop
  endfacet
  facet normal  3.259777e-001 -9.357550e-001  1.345413e-001
    outer loop
      vertex  3.000000e-001 -3.959286e+000 -5.692593e-001
      vertex  3.000000e-001 -3.638528e+000  1.661660e+000
      vertex  0.000000e+000 -3.804226e+000  1.236068e+000
    endloop
  endfacet
  facet normal -4.591593e-001 -8.883539e-001  0.000000e+000
    outer loop
      vertex  0.000000e+000 -3.804226e+000  1.236068e+000
      vertex  0.000000e+000 -3.804226e+000 -1.236068e+000
      vertex  3.000000e-001 -3.959286e+000 -5.692593e-001
    endloop
  endfacet
  facet normal  4.127749e-001 -8.285230e-001 -3.783737e-001
    outer loop
      vertex  3.000000e-001 -3.022998e+000 -2.619443e+000
      vertex  3.000000e-001 -3.959286e+000 -5.692593e-001
      vertex  0.000000e+000 -3.804226e+000 -1.236068e+000
    endloop
  endfacet
  facet normal -5.168038e-001 -6.926025e-001 -5.032052e-001
    outer loop
      vertex  0.000000e+000 -3.804226e+000 -1.236068e+000
      vertex  0.000000e+000 -2.351141e+000 -3.236068e+000
      vertex  3.000000e-001 -3.022998e+000 -2.619443e+000
    endloop
  endfacet
  facet normal  5.267429e-016 -2.817326e-001  9.594929e-001
    outer loop
      vertex  3.000000e-001  7.105427e-017  4.000000e+000
      vertex  0.000000e+000 -4.898425e-016  4.000000e+000
      vertex  3.000000e-001 -2.162563e+000  3.365014e+000
    endloop
  endfacet
  facet normal -2.097646e-001 -3.021420e-001  9.298973e-001
    outer loop
      vertex  3.000000e-001 -2.162563e+000  3.365014e+000
      vertex  0.000000e+000 -4.898425e-016  4.000000e+000
      vertex  0.000000e+000 -2.351141e+000  3.236068e+000
    endloop
  endfacet
  facet normal  1.900574e-001 -7.419745e-001  6.429245e-001
    outer loop
      vertex  3.000000e-001 -2.162563e+000  3.365014e+000
      vertex  0.000000e+000 -2.351141e+000  3.236068e+000
      vertex  3.000000e-001 -3.638528e+000  1.661660e+000
    endloop
  endfacet
  facet normal -5.045656e-016 -3.090170e-001 -9.510565e-001
    outer loop
      vertex  0.000000e+000  9.796851e-016 -4.000000e+000
      vertex  3.000000e-001  4.898425e-016 -4.000000e+000
      vertex  0.000000e+000 -2.351141e+000 -3.236068e+000
    endloop
  endfacet
  facet normal -8.147469e-001 -8.251651e-002 -5.739150e-001
    outer loop
      vertex  0.000000e+000 -2.351141e+000 -3.236068e+000
      vertex  3.000000e-001  4.898425e-016 -4.000000e+000
      vertex  3.000000e-001 -1.126930e+000 -3.837972e+000
    endloop
  endfacet
  facet normal  4.601981e-001 -4.799897e-001 -7.468786e-001
    outer loop
      vertex  0.000000e+000 -2.351141e+000 -3.236068e+000
      vertex  3.000000e-001 -1.126930e+000 -3.837972e+000
      vertex  3.000000e-001 -3.022998e+000 -2.619443e+000
    endloop
  endfacet
  facet normal -3.609264e-001  7.544845e-001 -5.481651e-001
    outer loop
      vertex  0.000000e+000  2.351141e+000 -3.236068e+000
      vertex  0.000000e+000  3.804226e+000 -1.236068e+000
      vertex  3.000000e-001  3.638528e+000 -1.661660e+000
    endloop
  endfacet
  facet normal  3.259777e-001  9.357550e-001 -1.345413e-001
    outer loop
      vertex  3.000000e-001  3.959286e+000  5.692593e-001
      vertex  3.000000e-001  3.638528e+000 -1.661660e+000
      vertex  0.000000e+000  3.804226e+000 -1.236068e+000
    endloop
  endfacet
  facet normal -4.591593e-001  8.883539e-001  0.000000e+000
    outer loop
      vertex  0.000000e+000  3.804226e+000 -1.236068e+000
      vertex  0.000000e+000  3.804226e+000  1.236068e+000
      vertex  3.000000e-001  3.959286e+000  5.692593e-001
    endloop
  endfacet
  facet normal  4.127749e-001  8.285230e-001  3.783737e-001
    outer loop
      vertex  3.000000e-001  3.022998e+000  2.619443e+000
      vertex  3.000000e-001  3.959286e+000  5.692593e-001
      vertex  0.000000e+000  3.804226e+000  1.236068e+000
    endloop
  endfacet
  facet normal -5.168038e-001  6.926025e-001  5.032052e-001
    outer loop
      vertex  0.000000e+000  3.804226e+000  1.236068e+000
      vertex  0.000000e+000  2.351141e+000  3.236068e+000
      vertex  3.000000e-001  3.022998e+000  2.619443e+000
    endloop
  endfacet
  facet normal  4.600153e-016  2.817326e-001 -9.594929e-001
    outer loop
      vertex  3.000000e-001  4.898425e-016 -4.000000e+000
      vertex  0.000000e+000  9.796851e-016 -4.000000e+000
      vertex  3.000000e-001  2.162563e+000 -3.365014e+000
    endloop
  endfacet
  facet normal -2.097646e-001  3.021420e-001 -9.298973e-001
    outer loop
      vertex  3.000000e-001  2.162563e+000 -3.365014e+000
      vertex  0.000000e+000  9.796851e-016 -4.000000e+000
      vertex  0.000000e+000  2.351141e+000 -3.236068e+000
    endloop
  endfacet
  facet normal  1.900574e-001  7.419745e-001 -6.429245e-001
    outer loop
      vertex  3.000000e-001  2.162563e+000 -3.365014e+000
      vertex  0.000000e+000  2.351141e+000 -3.236068e+000
      vertex  3.000000e-001  3.638528e+000 -1.661660e+000
    endloop
  endfacet
  facet normal -5.777555e-016  3.090170e-001  9.510565e-001
    outer loop
      vertex  0.000000e+000 -4.898425e-016  4.000000e+000
      vertex  3.000000e-001  7.105427e-017  4.000000e+000
      vertex  0.000000e+000  2.351141e+000  3.236068e+000
    endloop
  endfacet
  facet normal -8.147469e-001  8.251651e-002  5.739150e-001
    outer loop
      vertex  0.000000e+000  2.351141e+000  3.236068e+000
      vertex  3.000000e-001  7.105427e-017  4.000000e+000
      vertex  3.000000e-001  1.126930e+000  3.837972e+000
    endloop
  endfacet
  facet normal  4.601981e-001  4.799897e-001  7.468786e-001
    outer loop
      vertex  0.000000e+000  2.351141e+000  3.236068e+000
      vertex  3.000000e-001  1.126930e+000  3.837972e+000
      vertex  3.000000e-001  3.022998e+000  2.619443e+000
    endloop
  endfacet
  facet normal  6.923414e-001 -2.032898e-001  6.923415e-001
    outer loop
      vertex  2.241421e+000 -6.620977e-016  2.058579e+000
      vertex  3.000000e-001  7.105427e-017  4.000000e+000
      vertex  2.241421e+000 -1.112952e+000  1.731787e+000
    endloop
  endfacet
  facet normal  6.923414e-001 -2.032898e-001  6.923414e-001
    outer loop
      vertex  2.241421e+000 -1.112952e+000  1.731787e+000
      vertex  3.000000e-001  7.105427e-017  4.000000e+000
      vertex  3.000000e-001 -2.162563e+000  3.365014e+000
    endloop
  endfacet
  facet normal  6.923414e-001 -5.453263e-001  4.725280e-001
    outer loop
      vertex  2.241421e+000 -1.112952e+000  1.731787e+000
      vertex  3.000000e-001 -2.162563e+000  3.365014e+000
      vertex  2.241421e+000 -1.872549e+000  8.551645e-001
    endloop
  endfacet
  facet normal  6.923414e-001 -5.453264e-001  4.725279e-001
    outer loop
      vertex  2.241421e+000 -1.872549e+000  8.551645e-001
      vertex  3.000000e-001 -2.162563e+000  3.365014e+000
      vertex  3.000000e-001 -3.638528e+000  1.661660e+000
    endloop
  endfacet
  facet normal  6.923414e-001 -7.142256e-001  1.026901e-001
    outer loop
      vertex  2.241421e+000 -1.872549e+000  8.551645e-001
      vertex  3.000000e-001 -3.638528e+000  1.661660e+000
      vertex  2.241421e+000 -2.037625e+000 -2.929663e-001
    endloop
  endfacet
  facet normal  6.923414e-001 -7.142256e-001  1.026902e-001
    outer loop
      vertex  2.241421e+000 -2.037625e+000 -2.929663e-001
      vertex  3.000000e-001 -3.638528e+000  1.661660e+000
      vertex  3.000000e-001 -3.959286e+000 -5.692593e-001
    endloop
  endfacet
  facet normal  6.923414e-001 -6.563633e-001 -2.997511e-001
    outer loop
      vertex  2.241421e+000 -2.037625e+000 -2.929663e-001
      vertex  3.000000e-001 -3.959286e+000 -5.692593e-001
      vertex  2.241421e+000 -1.555770e+000 -1.348082e+000
    endloop
  endfacet
  facet normal  6.923414e-001 -6.563632e-001 -2.997510e-001
    outer loop
      vertex  2.241421e+000 -1.555770e+000 -1.348082e+000
      vertex  3.000000e-001 -3.959286e+000 -5.692593e-001
      vertex  3.000000e-001 -3.022998e+000 -2.619443e+000
    endloop
  endfacet
  facet normal  6.923414e-001 -3.901103e-001 -6.070234e-001
    outer loop
      vertex  2.241421e+000 -1.555770e+000 -1.348082e+000
      vertex  3.000000e-001 -3.022998e+000 -2.619443e+000
      vertex  2.241421e+000 -5.799686e-001 -1.975192e+000
    endloop
  endfacet
  facet normal  6.923414e-001 -3.901103e-001 -6.070234e-001
    outer loop
      vertex  2.241421e+000 -5.799686e-001 -1.975192e+000
      vertex  3.000000e-001 -3.022998e+000 -2.619443e+000
      vertex  3.000000e-001 -1.126930e+000 -3.837972e+000
    endloop
  endfacet
  facet normal  7.034805e-001 -1.011454e-001 -7.034805e-001
    outer loop
      vertex  2.241421e+000 -5.799686e-001 -1.975192e+000
      vertex  3.000000e-001 -1.126930e+000 -3.837972e+000
      vertex  2.241421e+000  3.152581e-015 -2.058579e+000
    endloop
  endfacet
  facet normal  7.034805e-001 -1.011452e-001 -7.034806e-001
    outer loop
      vertex  2.241421e+000  3.152581e-015 -2.058579e+000
      vertex  3.000000e-001 -1.126930e+000 -3.837972e+000
      vertex  3.000000e-001  4.898425e-016 -4.000000e+000
    endloop
  endfacet
  facet normal  7.034805e-001  1.011452e-001  7.034806e-001
    outer loop
      vertex  3.000000e-001  7.105427e-017  4.000000e+000
      vertex  2.241421e+000 -6.620977e-016  2.058579e+000
      vertex  3.000000e-001  1.126930e+000  3.837972e+000
    endloop
  endfacet
  facet normal  7.034805e-001  1.011454e-001  7.034805e-001
    outer loop
      vertex  3.000000e-001  1.126930e+000  3.837972e+000
      vertex  2.241421e+000 -6.620977e-016  2.058579e+000
      vertex  2.241421e+000  5.799686e-001  1.975192e+000
    endloop
  endfacet
  facet normal  6.923414e-001  3.901103e-001  6.070234e-001
    outer loop
      vertex  3.000000e-001  1.126930e+000  3.837972e+000
      vertex  2.241421e+000  5.799686e-001  1.975192e+000
      vertex  3.000000e-001  3.022998e+000  2.619443e+000
    endloop
  endfacet
  facet normal  6.923414e-001  3.901103e-001  6.070234e-001
    outer loop
      vertex  3.000000e-001  3.022998e+000  2.619443e+000
      vertex  2.241421e+000  5.799686e-001  1.975192e+000
      vertex  2.241421e+000  1.555770e+000  1.348082e+000
    endloop
  endfacet
  facet normal  6.923414e-001  6.563632e-001  2.997510e-001
    outer loop
      vertex  3.000000e-001  3.022998e+000  2.619443e+000
      vertex  2.241421e+000  1.555770e+000  1.348082e+000
      vertex  3.000000e-001  3.959286e+000  5.692593e-001
    endloop
  endfacet
  facet normal  6.923414e-001  6.563633e-001  2.997511e-001
    outer loop
      vertex  3.000000e-001  3.959286e+000  5.692593e-001
      vertex  2.241421e+000  1.555770e+000  1.348082e+000
      vertex  2.241421e+000  2.037625e+000  2.929663e-001
    endloop
  endfacet
  facet normal  6.923414e-001  7.142256e-001 -1.026902e-001
    outer loop
      vertex  3.000000e-001  3.959286e+000  5.692593e-001
      vertex  2.241421e+000  2.037625e+000  2.929663e-001
      vertex  3.000000e-001  3.638528e+000 -1.661660e+000
    endloop
  endfacet
  facet normal  6.923414e-001  7.142256e-001 -1.026901e-001
    outer loop
      vertex  3.000000e-001  3.638528e+000 -1.661660e+000
      vertex  2.241421e+000  2.037625e+000  2.929663e-001
      vertex  2.241421e+000  1.872549e+000 -8.551645e-001
    endloop
  endfacet
  facet normal  6.923414e-001  5.453264e-001 -4.725279e-001
    outer loop
      vertex  3.000000e-001  3.638528e+000 -1.661660e+000
      vertex  2.241421e+000  1.872549e+000 -8.551645e-001
      vertex  3.000000e-001  2.162563e+000 -3.365014e+000
    endloop
  endfacet
  facet normal  6.923414e-001  5.453263e-001 -4.725280e-001
    outer loop
      vertex  3.000000e-001  2.162563e+000 -3.365014e+000
      vertex  2.241421e+000  1.872549e+000 -8.551645e-001
      vertex  2.241421e+000  1.112952e+000 -1.731787e+000
    endloop
  endfacet
  facet normal  6.923414e-001  2.032898e-001 -6.923414e-001
    outer loop
      vertex  3.000000e-001  2.162563e+000 -3.365014e+000
      vertex  2.241421e+000  1.112952e+000 -1.731787e+000
      vertex  3.000000e-001  4.898425e-016 -4.000000e+000
    endloop
  endfacet
  facet normal  6.923414e-001  2.032898e-001 -6.923415e-001
    outer loop
      vertex  3.000000e-001  4.898425e-016 -4.000000e+000
      vertex  2.241421e+000  1.112952e+000 -1.731787e+000
      vertex  2.241421e+000  3.152581e-015 -2.058579e+000
    endloop
  endfacet
  facet normal -3.145846e-002  9.893316e-001 -1.422444e-001
    outer loop
      vertex  2.241421e+000  1.872549e+000 -8.551645e-001
      vertex  2.241421e+000  2.037625e+000  2.929663e-001
      vertex  2.382843e+000  2.000000e+000  3.673819e-016
    endloop
  endfacet
  facet normal  8.288423e-001  5.168942e-001 -2.141046e-001
    outer loop
      vertex  2.382843e+000  1.414214e+000 -1.414214e+000
      vertex  2.241421e+000  1.872549e+000 -8.551645e-001
      vertex  2.382843e+000  2.000000e+000  3.673819e-016
    endloop
  endfacet
  facet normal  5.978492e-001  7.405897e-001  3.067623e-001
    outer loop
      vertex  2.382843e+000  2.000000e+000  3.673819e-016
      vertex  2.241421e+000  1.555770e+000  1.348082e+000
      vertex  2.382843e+000  1.414214e+000  1.414214e+000
    endloop
  endfacet
  facet normal  7.407227e-001  6.111007e-001  2.790804e-001
    outer loop
      vertex  2.241421e+000  2.037625e+000  2.929663e-001
      vertex  2.241421e+000  1.555770e+000  1.348082e+000
      vertex  2.382843e+000  2.000000e+000  3.673819e-016
    endloop
  endfacet
  facet normal -1.380532e-001  7.485131e-001 -6.485903e-001
    outer loop
      vertex  2.241421e+000  1.872549e+000 -8.551645e-001
      vertex  2.382843e+000  1.414214e+000 -1.414214e+000
      vertex  2.241421e+000  1.112952e+000 -1.731787e+000
    endloop
  endfacet
  facet normal  7.831537e-001  2.379633e-001 -5.744943e-001
    outer loop
      vertex  2.241421e+000  1.112952e+000 -1.731787e+000
      vertex  2.382843e+000  1.414214e+000 -1.414214e+000
      vertex  2.382843e+000  4.898425e-016 -2.000000e+000
    endloop
  endfacet
  facet normal  3.693354e-001  2.618130e-001 -8.916531e-001
    outer loop
      vertex  2.241421e+000  1.112952e+000 -1.731787e+000
      vertex  2.382843e+000  4.898425e-016 -2.000000e+000
      vertex  2.241421e+000  3.152581e-015 -2.058579e+000
    endloop
  endfacet
  facet normal  1.461839e-001  5.348329e-001  8.322163e-001
    outer loop
      vertex  2.241421e+000  1.555770e+000  1.348082e+000
      vertex  2.241421e+000  5.799686e-001  1.975192e+000
      vertex  2.382843e+000  1.414214e+000  1.414214e+000
    endloop
  endfacet
  facet normal  9.513251e-001  4.385994e-002  3.050521e-001
    outer loop
      vertex  2.382843e+000  1.414214e+000  1.414214e+000
      vertex  2.241421e+000  5.799686e-001  1.975192e+000
      vertex  2.241421e+000 -6.620977e-016  2.058579e+000
    endloop
  endfacet
  facet normal  3.574073e-001  3.574066e-001  8.628560e-001
    outer loop
      vertex  2.382843e+000  1.414214e+000  1.414214e+000
      vertex  2.241421e+000 -6.620977e-016  2.058579e+000
      vertex  2.382843e+000 -2.449213e-016  2.000000e+000
    endloop
  endfacet
  facet normal -3.145846e-002 -9.893316e-001  1.422444e-001
    outer loop
      vertex  2.241421e+000 -1.872549e+000  8.551645e-001
      vertex  2.241421e+000 -2.037625e+000 -2.929663e-001
      vertex  2.382843e+000 -2.000000e+000 -1.224606e-016
    endloop
  endfacet
  facet normal  8.288423e-001 -5.168942e-001  2.141046e-001
    outer loop
      vertex  2.382843e+000 -1.414214e+000  1.414214e+000
      vertex  2.241421e+000 -1.872549e+000  8.551645e-001
      vertex  2.382843e+000 -2.000000e+000 -1.224606e-016
    endloop
  endfacet
  facet normal  5.978492e-001 -7.405897e-001 -3.067623e-001
    outer loop
      vertex  2.382843e+000 -2.000000e+000 -1.224606e-016
      vertex  2.241421e+000 -1.555770e+000 -1.348082e+000
      vertex  2.382843e+000 -1.414214e+000 -1.414214e+000
    endloop
  endfacet
  facet normal  7.407227e-001 -6.111007e-001 -2.790804e-001
    outer loop
      vertex  2.241421e+000 -2.037625e+000 -2.929663e-001
      vertex  2.241421e+000 -1.555770e+000 -1.348082e+000
      vertex  2.382843e+000 -2.000000e+000 -1.224606e-016
    endloop
  endfacet
  facet normal -1.380532e-001 -7.485131e-001  6.485903e-001
    outer loop
      vertex  2.241421e+000 -1.872549e+000  8.551645e-001
      vertex  2.382843e+000 -1.414214e+000  1.414214e+000
      vertex  2.241421e+000 -1.112952e+000  1.731787e+000
    endloop
  endfacet
  facet normal  7.831537e-001 -2.379633e-001  5.744943e-001
    outer loop
      vertex  2.241421e+000 -1.112952e+000  1.731787e+000
      vertex  2.382843e+000 -1.414214e+000  1.414214e+000
      vertex  2.382843e+000 -2.449213e-016  2.000000e+000
    endloop
  endfacet
  facet normal  3.693354e-001 -2.618130e-001  8.916531e-001
    outer loop
      vertex  2.241421e+000 -1.112952e+000  1.731787e+000
      vertex  2.382843e+000 -2.449213e-016  2.000000e+000
      vertex  2.241421e+000 -6.620977e-016  2.058579e+000
    endloop
  endfacet
  facet normal  1.461839e-001 -5.348329e-001 -8.322163e-001
    outer loop
      vertex  2.241421e+000 -1.555770e+000 -1.348082e+000
      vertex  2.241421e+000 -5.799686e-001 -1.975192e+000
      vertex  2.382843e+000 -1.414214e+000 -1.414214e+000
    endloop
  endfacet
  facet normal  9.513251e-001 -4.385994e-002 -3.050521e-001
    outer loop
      vertex  2.382843e+000 -1.414214e+000 -1.414214e+000
      vertex  2.241421e+000 -5.799686e-001 -1.975192e+000
      vertex  2.241421e+000  3.152581e-015 -2.058579e+000
    endloop
  endfacet
  facet normal  3.574073e-001 -3.574066e-001 -8.628560e-001
    outer loop
      vertex  2.382843e+000 -1.414214e+000 -1.414214e+000
      vertex  2.241421e+000  3.152581e-015 -2.058579e+000
      vertex  2.382843e+000  4.898425e-016 -2.000000e+000
    endloop
  endfacet
  facet normal -1.642923e-002 -9.237548e-001  3.826318e-001
    outer loop
      vertex  2.382843e+000 -1.414214e+000  1.414214e+000
      vertex  2.382843e+000 -2.000000e+000 -1.224606e-016
      vertex  1.157050e+001 -1.819264e+000  8.308300e-001
    endloop
  endfacet
  facet normal  8.599739e-018 -2.817326e-001  9.594930e-001
    outer loop
      vertex  1.157050e+001  3.552714e-017  2.000000e+000
      vertex  2.382843e+000 -2.449213e-016  2.000000e+000
      vertex  1.157050e+001 -1.081282e+000  1.682507e+000
    endloop
  endfacet
  facet normal -1.311031e-002 -3.826506e-001  9.238001e-001
    outer loop
      vertex  1.157050e+001 -1.081282e+000  1.682507e+000
      vertex  2.382843e+000 -2.449213e-016  2.000000e+000
      vertex  2.382843e+000 -1.414214e+000  1.414214e+000
    endloop
  endfacet
  facet normal  8.262789e-003 -7.557238e-001  6.548384e-001
    outer loop
      vertex  1.157050e+001 -1.081282e+000  1.682507e+000
      vertex  2.382843e+000 -1.414214e+000  1.414214e+000
      vertex  1.157050e+001 -1.819264e+000  8.308300e-001
    endloop
  endfacet
  facet normal -5.430338e-003 -9.238659e-001 -3.826778e-001
    outer loop
      vertex  2.382843e+000 -1.414214e+000 -1.414214e+000
      vertex  1.157050e+001 -1.511499e+000 -1.309721e+000
      vertex  2.382843e+000 -2.000000e+000 -1.224606e-016
    endloop
  endfacet
  facet normal -1.085326e-002 -9.095784e-001 -4.153906e-001
    outer loop
      vertex  2.382843e+000 -2.000000e+000 -1.224606e-016
      vertex  1.157050e+001 -1.511499e+000 -1.309721e+000
      vertex  1.157050e+001 -1.979643e+000 -2.846297e-001
    endloop
  endfacet
  facet normal  6.601861e-003 -9.897999e-001  1.423118e-001
    outer loop
      vertex  2.382843e+000 -2.000000e+000 -1.224606e-016
      vertex  1.157050e+001 -1.979643e+000 -2.846297e-001
      vertex  1.157050e+001 -1.819264e+000  8.308300e-001
    endloop
  endfacet
  facet normal -1.020144e-017 -3.826835e-001 -9.238795e-001
    outer loop
      vertex  2.382843e+000  4.898425e-016 -2.000000e+000
      vertex  1.157050e+001  2.449213e-016 -2.000000e+000
      vertex  2.382843e+000 -1.414214e+000 -1.414214e+000
    endloop
  endfacet
  facet normal -4.116822e-002 -1.421942e-001 -9.889822e-001
    outer loop
      vertex  2.382843e+000 -1.414214e+000 -1.414214e+000
      vertex  1.157050e+001  2.449213e-016 -2.000000e+000
      vertex  1.157050e+001 -5.634651e-001 -1.918986e+000
    endloop
  endfacet
  facet normal  3.842925e-003 -5.406369e-001 -8.412474e-001
    outer loop
      vertex  2.382843e+000 -1.414214e+000 -1.414214e+000
      vertex  1.157050e+001 -5.634651e-001 -1.918986e+000
      vertex  1.157050e+001 -1.511499e+000 -1.309721e+000
    endloop
  endfacet
  facet normal -1.642923e-002  9.237548e-001 -3.826318e-001
    outer loop
      vertex  2.382843e+000  1.414214e+000 -1.414214e+000
      vertex  2.382843e+000  2.000000e+000  3.673819e-016
      vertex  1.157050e+001  1.819264e+000 -8.308300e-001
    endloop
  endfacet
  facet normal  7.510326e-018  2.817326e-001 -9.594930e-001
    outer loop
      vertex  1.157050e+001  2.449213e-016 -2.000000e+000
      vertex  2.382843e+000  4.898425e-016 -2.000000e+000
      vertex  1.157050e+001  1.081282e+000 -1.682507e+000
    endloop
  endfacet
  facet normal -1.311031e-002  3.826506e-001 -9.238001e-001
    outer loop
      vertex  1.157050e+001  1.081282e+000 -1.682507e+000
      vertex  2.382843e+000  4.898425e-016 -2.000000e+000
      vertex  2.382843e+000  1.414214e+000 -1.414214e+000
    endloop
  endfacet
  facet normal  8.262789e-003  7.557238e-001 -6.548384e-001
    outer loop
      vertex  1.157050e+001  1.081282e+000 -1.682507e+000
      vertex  2.382843e+000  1.414214e+000 -1.414214e+000
      vertex  1.157050e+001  1.819264e+000 -8.308300e-001
    endloop
  endfacet
  facet normal -5.430338e-003  9.238659e-001  3.826778e-001
    outer loop
      vertex  2.382843e+000  1.414214e+000  1.414214e+000
      vertex  1.157050e+001  1.511499e+000  1.309721e+000
      vertex  2.382843e+000  2.000000e+000  3.673819e-016
    endloop
  endfacet
  facet normal -1.085326e-002  9.095784e-001  4.153906e-001
    outer loop
      vertex  2.382843e+000  2.000000e+000  3.673819e-016
      vertex  1.157050e+001  1.511499e+000  1.309721e+000
      vertex  1.157050e+001  1.979643e+000  2.846297e-001
    endloop
  endfacet
  facet normal  6.601861e-003  9.897999e-001 -1.423118e-001
    outer loop
      vertex  2.382843e+000  2.000000e+000  3.673819e-016
      vertex  1.157050e+001  1.979643e+000  2.846297e-001
      vertex  1.157050e+001  1.819264e+000 -8.308300e-001
    endloop
  endfacet
  facet normal -1.168121e-017  3.826835e-001  9.238795e-001
    outer loop
      vertex  2.382843e+000 -2.449213e-016  2.000000e+000
      vertex  1.157050e+001  3.552714e-017  2.000000e+000
      vertex  2.382843e+000  1.414214e+000  1.414214e+000
    endloop
  endfacet
  facet normal -4.116822e-002  1.421942e-001  9.889822e-001
    outer loop
      vertex  2.382843e+000  1.414214e+000  1.414214e+000
      vertex  1.157050e+001  3.552714e-017  2.000000e+000
      vertex  1.157050e+001  5.634651e-001  1.918986e+000
    endloop
  endfacet
  facet normal  3.842925e-003  5.406369e-001  8.412474e-001
    outer loop
      vertex  2.382843e+000  1.414214e+000  1.414214e+000
      vertex  1.157050e+001  5.634651e-001  1.918986e+000
      vertex  1.157050e+001  1.511499e+000  1.309721e+000
    endloop
  endfacet
  facet normal  6.923032e-001 -6.563726e-001 -2.998188e-001
    outer loop
      vertex  1.200000e+001 -1.554534e+000 -2.235449e-001
      vertex  1.157050e+001 -1.979643e+000 -2.846297e-001
      vertex  1.200000e+001 -1.186879e+000 -1.028428e+000
    endloop
  endfacet
  facet normal  6.923736e-001 -6.563352e-001 -2.997382e-001
    outer loop
      vertex  1.200000e+001 -1.186879e+000 -1.028428e+000
      vertex  1.157050e+001 -1.979643e+000 -2.846297e-001
      vertex  1.157050e+001 -1.511499e+000 -1.309721e+000
    endloop
  endfacet
  facet normal  6.923819e-001 -3.901197e-001 -6.069711e-001
    outer loop
      vertex  1.200000e+001 -1.186879e+000 -1.028428e+000
      vertex  1.157050e+001 -1.511499e+000 -1.309721e+000
      vertex  1.200000e+001 -4.424639e-001 -1.506887e+000
    endloop
  endfacet
  facet normal  6.923377e-001 -3.901122e-001 -6.070264e-001
    outer loop
      vertex  1.200000e+001 -4.424639e-001 -1.506887e+000
      vertex  1.157050e+001 -1.511499e+000 -1.309721e+000
      vertex  1.157050e+001 -5.634651e-001 -1.918986e+000
    endloop
  endfacet
  facet normal  7.034770e-001 -1.011395e-001 -7.034848e-001
    outer loop
      vertex  1.200000e+001 -4.424639e-001 -1.506887e+000
      vertex  1.157050e+001 -5.634651e-001 -1.918986e+000
      vertex  1.200000e+001 -4.440892e-016 -1.570500e+000
    endloop
  endfacet
  facet normal  7.034808e-001 -1.011452e-001 -7.034802e-001
    outer loop
      vertex  1.200000e+001 -4.440892e-016 -1.570500e+000
      vertex  1.157050e+001 -5.634651e-001 -1.918986e+000
      vertex  1.157050e+001  2.449213e-016 -2.000000e+000
    endloop
  endfacet
  facet normal  6.923295e-001 -7.142369e-001  1.026918e-001
    outer loop
      vertex  1.157050e+001 -1.979643e+000 -2.846297e-001
      vertex  1.200000e+001 -1.554534e+000 -2.235449e-001
      vertex  1.157050e+001 -1.819264e+000  8.308300e-001
    endloop
  endfacet
  facet normal  6.923226e-001 -7.142441e-001  1.026871e-001
    outer loop
      vertex  1.157050e+001 -1.819264e+000  8.308300e-001
      vertex  1.200000e+001 -1.554534e+000 -2.235449e-001
      vertex  1.200000e+001 -1.428595e+000  6.524317e-001
    endloop
  endfacet
  facet normal  6.923171e-001 -5.453439e-001  4.725432e-001
    outer loop
      vertex  1.157050e+001 -1.819264e+000  8.308300e-001
      vertex  1.200000e+001 -1.428595e+000  6.524317e-001
      vertex  1.157050e+001 -1.081282e+000  1.682507e+000
    endloop
  endfacet
  facet normal  6.923544e-001 -5.452970e-001  4.725429e-001
    outer loop
      vertex  1.157050e+001 -1.081282e+000  1.682507e+000
      vertex  1.200000e+001 -1.428595e+000  6.524317e-001
      vertex  1.200000e+001 -8.490703e-001  1.321182e+000
    endloop
  endfacet
  facet normal  6.923492e-001 -2.032877e-001  6.923342e-001
    outer loop
      vertex  1.157050e+001 -1.081282e+000  1.682507e+000
      vertex  1.200000e+001 -8.490703e-001  1.321182e+000
      vertex  1.157050e+001  3.552714e-017  2.000000e+000
    endloop
  endfacet
  facet normal  6.923406e-001 -2.032967e-001  6.923401e-001
    outer loop
      vertex  1.157050e+001  3.552714e-017  2.000000e+000
      vertex  1.200000e+001 -8.490703e-001  1.321182e+000
      vertex  1.200000e+001  0.000000e+000  1.570500e+000
    endloop
  endfacet
  facet normal  6.923736e-001  6.563352e-001  2.997382e-001
    outer loop
      vertex  1.157050e+001  1.511499e+000  1.309721e+000
      vertex  1.200000e+001  1.186879e+000  1.028428e+000
      vertex  1.157050e+001  1.979643e+000  2.846297e-001
    endloop
  endfacet
  facet normal  6.923032e-001  6.563726e-001  2.998188e-001
    outer loop
      vertex  1.157050e+001  1.979643e+000  2.846297e-001
      vertex  1.200000e+001  1.186879e+000  1.028428e+000
      vertex  1.200000e+001  1.554534e+000  2.235449e-001
    endloop
  endfacet
  facet normal  6.923295e-001  7.142369e-001 -1.026918e-001
    outer loop
      vertex  1.157050e+001  1.979643e+000  2.846297e-001
      vertex  1.200000e+001  1.554534e+000  2.235449e-001
      vertex  1.157050e+001  1.819264e+000 -8.308300e-001
    endloop
  endfacet
  facet normal  6.923226e-001  7.142441e-001 -1.026871e-001
    outer loop
      vertex  1.157050e+001  1.819264e+000 -8.308300e-001
      vertex  1.200000e+001  1.554534e+000  2.235449e-001
      vertex  1.200000e+001  1.428595e+000 -6.524317e-001
    endloop
  endfacet
  facet normal  6.923171e-001  5.453439e-001 -4.725432e-001
    outer loop
      vertex  1.157050e+001  1.819264e+000 -8.308300e-001
      vertex  1.200000e+001  1.428595e+000 -6.524317e-001
      vertex  1.157050e+001  1.081282e+000 -1.682507e+000
    endloop
  endfacet
  facet normal  6.923544e-001  5.452970e-001 -4.725429e-001
    outer loop
      vertex  1.157050e+001  1.081282e+000 -1.682507e+000
      vertex  1.200000e+001  1.428595e+000 -6.524317e-001
      vertex  1.200000e+001  8.490703e-001 -1.321182e+000
    endloop
  endfacet
  facet normal  6.923492e-001  2.032877e-001 -6.923342e-001
    outer loop
      vertex  1.157050e+001  1.081282e+000 -1.682507e+000
      vertex  1.200000e+001  8.490703e-001 -1.321182e+000
      vertex  1.157050e+001  2.449213e-016 -2.000000e+000
    endloop
  endfacet
  facet normal  6.923406e-001  2.032967e-001 -6.923401e-001
    outer loop
      vertex  1.157050e+001  2.449213e-016 -2.000000e+000
      vertex  1.200000e+001  8.490703e-001 -1.321182e+000
      vertex  1.200000e+001 -4.440892e-016 -1.570500e+000
    endloop
  endfacet
  facet normal  6.923819e-001  3.901197e-001  6.069711e-001
    outer loop
      vertex  1.200000e+001  1.186879e+000  1.028428e+000
      vertex  1.157050e+001  1.511499e+000  1.309721e+000
      vertex  1.200000e+001  4.424639e-001  1.506887e+000
    endloop
  endfacet
  facet normal  6.923377e-001  3.901122e-001  6.070264e-001
    outer loop
      vertex  1.200000e+001  4.424639e-001  1.506887e+000
      vertex  1.157050e+001  1.511499e+000  1.309721e+000
      vertex  1.157050e+001  5.634651e-001  1.918986e+000
    endloop
  endfacet
  facet normal  7.034770e-001  1.011395e-001  7.034848e-001
    outer loop
      vertex  1.200000e+001  4.424639e-001  1.506887e+000
      vertex  1.157050e+001  5.634651e-001  1.918986e+000
      vertex  1.200000e+001  0.000000e+000  1.570500e+000
    endloop
  endfacet
  facet normal  7.034808e-001  1.011452e-001  7.034802e-001
    outer loop
      vertex  1.200000e+001  0.000000e+000  1.570500e+000
      vertex  1.157050e+001  5.634651e-001  1.918986e+000
      vertex  1.157050e+001  3.552714e-017  2.000000e+000
    endloop
  endfacet
  facet normal  9.999999e-001  0.000000e+000  0.000000e+000
    outer loop
      vertex  1.200000e+001  1.554534e+000  2.235449e-001
      vertex  1.200000e+001  1.186879e+000  1.028428e+000
      vertex  1.200000e+001  1.428595e+000 -6.524317e-001
    endloop
  endfacet
  facet normal  1.000000e+000  0.000000e+000  0.000000e+000
    outer loop
      vertex  1.200000e+001 -1.186879e+000 -1.028428e+000
      vertex  1.200000e+001 -4.424639e-001 -1.506887e+000
      vertex  1.200000e+001 -8.490703e-001  1.321182e+000
    endloop
  endfacet
  facet normal  1.000000e+000  0.000000e+000  0.000000e+000
    outer loop
      vertex  1.200000e+001 -8.490703e-001  1.321182e+000
      vertex  1.200000e+001 -4.424639e-001 -1.506887e+000
      vertex  1.200000e+001 -4.440892e-016 -1.570500e+000
    endloop
  endfacet
  facet normal  1.000000e+000  0.000000e+000  -0.000000e+000
    outer loop
      vertex  1.200000e+001 -8.490703e-001  1.321182e+000
      vertex  1.200000e+001 -4.440892e-016 -1.570500e+000
      vertex  1.200000e+001  0.000000e+000  1.570500e+000
    endloop
  endfacet
  facet normal  1.000000e+000  0.000000e+000  0.000000e+000
    outer loop
      vertex  1.200000e+001  0.000000e+000  1.570500e+000
      vertex  1.200000e+001 -4.440892e-016 -1.570500e+000
      vertex  1.200000e+001  8.490703e-001 -1.321182e+000
    endloop
  endfacet
  facet normal  1.000000e+000  0.000000e+000  0.000000e+000
    outer loop
      vertex  1.200000e+001  0.000000e+000  1.570500e+000
      vertex  1.200000e+001  8.490703e-001 -1.321182e+000
      vertex  1.200000e+001  4.424639e-001  1.506887e+000
    endloop
  endfacet
  facet normal  1.000000e+000  0.000000e+000  0.000000e+000
    outer loop
      vertex  1.200000e+001  4.424639e-001  1.506887e+000
      vertex  1.200000e+001  8.490703e-001 -1.321182e+000
      vertex  1.200000e+001  1.428595e+000 -6.524317e-001
    endloop
  endfacet
  facet normal  1.000000e+000  0.000000e+000  0.000000e+000
    outer loop
      vertex  1.200000e+001  4.424639e-001  1.506887e+000
      vertex  1.200000e+001  1.428595e+000 -6.524317e-001
      vertex  1.200000e+001  1.186879e+000  1.028428e+000
    endloop
  endfacet
  facet normal  1.000000e+000  0.000000e+000  0.000000e+000
    outer loop
      vertex  1.200000e+001 -1.186879e+000 -1.028428e+000
      vertex  1.200000e+001 -8.490703e-001  1.321182e+000
      vertex  1.200000e+001 -1.554534e+000 -2.235449e-001
    endloop
  endfacet
  facet normal  9.999999e-001  0.000000e+000  0.000000e+000
    outer loop
      vertex  1.200000e+001 -1.554534e+000 -2.235449e-001
      vertex  1.200000e+001 -8.490703e-001  1.321182e+000
      vertex  1.200000e+001 -1.428595e+000  6.524317e-001
    endloop
  endfacet
  facet normal  -0.000000e+000  0.000000e+000 -1.000000e+000
    outer loop
      vertex  2.066243e-001  7.216879e-001  1.250000e+000
      vertex  1.800000e+000  7.216879e-001  1.250000e+000
      vertex  2.066243e-001 -7.216879e-001  1.250000e+000
    endloop
  endfacet
  facet normal  0.000000e+000  0.000000e+000 -1.000000e+000
    outer loop
      vertex  2.066243e-001 -7.216879e-001  1.250000e+000
      vertex  1.800000e+000  7.216879e-001  1.250000e+000
      vertex  1.800000e+000  0.000000e+000  1.250000e+000
    endloop
  endfacet
  facet normal  0.000000e+000  -0.000000e+000 -1.000000e+000
    outer loop
      vertex  2.066243e-001 -7.216879e-001  1.250000e+000
      vertex  1.800000e+000  0.000000e+000  1.250000e+000
      vertex  1.800000e+000 -7.216879e-001  1.250000e+000
    endloop
  endfacet
  facet normal  0.000000e+000  8.660254e-001 -5.000000e-001
    outer loop
      vertex  2.066243e-001 -7.216879e-001  1.250000e+000
      vertex  1.800000e+000 -7.216879e-001  1.250000e+000
      vertex  2.066243e-001 -1.443376e+000  2.220446e-016
    endloop
  endfacet
  facet normal  3.239609e-008  8.660254e-001 -5.000001e-001
    outer loop
      vertex  2.066243e-001 -1.443376e+000  2.220446e-016
      vertex  1.800000e+000 -7.216879e-001  1.250000e+000
      vertex  1.800000e+000 -1.082532e+000  6.250000e-001
    endloop
  endfacet
  facet normal  0.000000e+000  8.660254e-001 -4.999999e-001
    outer loop
      vertex  2.066243e-001 -1.443376e+000  2.220446e-016
      vertex  1.800000e+000 -1.082532e+000  6.250000e-001
      vertex  1.800000e+000 -1.443376e+000  2.220446e-016
    endloop
  endfacet
  facet normal  -0.000000e+000  0.000000e+000  1.000000e+000
    outer loop
      vertex  1.800000e+000  7.216879e-001 -1.250000e+000
      vertex  2.066243e-001  7.216879e-001 -1.250000e+000
      vertex  1.800000e+000  0.000000e+000 -1.250000e+000
    endloop
  endfacet
  facet normal  0.000000e+000  0.000000e+000  1.000000e+000
    outer loop
      vertex  1.800000e+000  0.000000e+000 -1.250000e+000
      vertex  2.066243e-001  7.216879e-001 -1.250000e+000
      vertex  2.066243e-001 -7.216879e-001 -1.250000e+000
    endloop
  endfacet
  facet normal  0.000000e+000  0.000000e+000  1.000000e+000
    outer loop
      vertex  1.800000e+000  0.000000e+000 -1.250000e+000
      vertex  2.066243e-001 -7.216879e-001 -1.250000e+000
      vertex  1.800000e+000 -7.216879e-001 -1.250000e+000
    endloop
  endfacet
  facet normal  0.000000e+000 -8.660254e-001  5.000000e-001
    outer loop
      vertex  2.066243e-001  7.216879e-001 -1.250000e+000
      vertex  1.800000e+000  7.216879e-001 -1.250000e+000
      vertex  2.066243e-001  1.443376e+000 -1.968152e-013
    endloop
  endfacet
  facet normal  3.239609e-008 -8.660254e-001  5.000001e-001
    outer loop
      vertex  2.066243e-001  1.443376e+000 -1.968152e-013
      vertex  1.800000e+000  7.216879e-001 -1.250000e+000
      vertex  1.800000e+000  1.082532e+000 -6.250000e-001
    endloop
  endfacet
  facet normal  0.000000e+000 -8.660254e-001  4.999999e-001
    outer loop
      vertex  2.066243e-001  1.443376e+000 -1.968152e-013
      vertex  1.800000e+000  1.082532e+000 -6.250000e-001
      vertex  1.800000e+000  1.443376e+000  0.000000e+000
    endloop
  endfacet
  facet normal  6.176046e-014 -8.660254e-001 -5.000000e-001
    outer loop
      vertex  2.066243e-001  1.443376e+000 -1.968152e-013
      vertex  1.800000e+000  1.443376e+000  0.000000e+000
      vertex  2.066243e-001  7.216879e-001  1.250000e+000
    endloop
  endfacet
  facet normal  3.239609e-008 -8.660254e-001 -4.999999e-001
    outer loop
      vertex  2.066243e-001  7.216879e-001  1.250000e+000
      vertex  1.800000e+000  1.443376e+000  0.000000e+000
      vertex  1.800000e+000  1.082532e+000  6.250000e-001
    endloop
  endfacet
  facet normal  0.000000e+000 -8.660254e-001 -5.000001e-001
    outer loop
      vertex  2.066243e-001  7.216879e-001  1.250000e+000
      vertex  1.800000e+000  1.082532e+000  6.250000e-001
      vertex  1.800000e+000  7.216879e-001  1.250000e+000
    endloop
  endfacet
endsolid CATIA STL
