solid CATIA STL
  facet normal  1.000000e+000  0.000000e+000  0.000000e+000
    outer loop
      vertex  1.600000e+000 -1.646655e+000 -7.214467e+000
      vertex  1.600000e+000  1.646655e+000 -7.214467e+000
      vertex  1.600000e+000 -7.715020e-016 -4.200000e+000
    endloop
  endfacet
  facet normal  1.000000e+000  0.000000e+000  0.000000e+000
    outer loop
      vertex  1.600000e+000 -7.715020e-016 -4.200000e+000
      vertex  1.600000e+000  1.646655e+000 -7.214467e+000
      vertex  1.600000e+000  4.613824e+000 -5.785553e+000
    endloop
  endfacet
  facet normal  1.000000e+000  0.000000e+000  0.000000e+000
    outer loop
      vertex  1.600000e+000 -7.715020e-016 -4.200000e+000
      vertex  1.600000e+000  4.613824e+000 -5.785553e+000
      vertex  1.600000e+000  2.100000e+000 -3.637307e+000
    endloop
  endfacet
  facet normal  1.000000e+000  -0.000000e+000  0.000000e+000
    outer loop
      vertex  1.600000e+000  2.100000e+000 -3.637307e+000
      vertex  1.600000e+000  4.613824e+000 -5.785553e+000
      vertex  1.600000e+000  6.667170e+000 -3.210740e+000
    endloop
  endfacet
  facet normal  1.000000e+000  0.000000e+000  0.000000e+000
    outer loop
      vertex  1.600000e+000  2.100000e+000 -3.637307e+000
      vertex  1.600000e+000  6.667170e+000 -3.210740e+000
      vertex  1.600000e+000  3.637307e+000 -2.100000e+000
    endloop
  endfacet
  facet normal  9.999999e-001  0.000000e+000  0.000000e+000
    outer loop
      vertex  1.600000e+000  6.667170e+000  3.210740e+000
      vertex  1.600000e+000  4.613824e+000  5.785553e+000
      vertex  1.600000e+000  1.189755e-015  4.200000e+000
    endloop
  endfacet
  facet normal  1.000000e+000  0.000000e+000  0.000000e+000
    outer loop
      vertex  1.600000e+000  1.189755e-015  4.200000e+000
      vertex  1.600000e+000  4.613824e+000  5.785553e+000
      vertex  1.600000e+000  1.646655e+000  7.214467e+000
    endloop
  endfacet
  facet normal  1.000000e+000  0.000000e+000  0.000000e+000
    outer loop
      vertex  1.600000e+000  1.189755e-015  4.200000e+000
      vertex  1.600000e+000  1.646655e+000  7.214467e+000
      vertex  1.600000e+000 -4.613824e+000  5.785553e+000
    endloop
  endfacet
  facet normal  1.000000e+000  0.000000e+000  0.000000e+000
    outer loop
      vertex  1.600000e+000 -4.613824e+000  5.785553e+000
      vertex  1.600000e+000  1.646655e+000  7.214467e+000
      vertex  1.600000e+000 -1.646655e+000  7.214467e+000
    endloop
  endfacet
  facet normal  1.000000e+000  0.000000e+000  0.000000e+000
    outer loop
      vertex  1.600000e+000  1.189755e-015  4.200000e+000
      vertex  1.600000e+000 -4.613824e+000  5.785553e+000
      vertex  1.600000e+000 -2.100000e+000  3.637307e+000
    endloop
  endfacet
  facet normal  1.000000e+000  0.000000e+000  0.000000e+000
    outer loop
      vertex  1.600000e+000 -2.100000e+000  3.637307e+000
      vertex  1.600000e+000 -4.613824e+000  5.785553e+000
      vertex  1.600000e+000 -6.667170e+000  3.210740e+000
    endloop
  endfacet
  facet normal  1.000000e+000  -0.000000e+000  0.000000e+000
    outer loop
      vertex  1.600000e+000 -2.100000e+000  3.637307e+000
      vertex  1.600000e+000 -6.667170e+000  3.210740e+000
      vertex  1.600000e+000 -3.637307e+000  2.100000e+000
    endloop
  endfacet
  facet normal  1.000000e+000  0.000000e+000  0.000000e+000
    outer loop
      vertex  1.600000e+000 -3.637307e+000  2.100000e+000
      vertex  1.600000e+000 -6.667170e+000  3.210740e+000
      vertex  1.600000e+000 -7.400000e+000  6.841641e-016
    endloop
  endfacet
  facet normal  1.000000e+000  -0.000000e+000  0.000000e+000
    outer loop
      vertex  1.600000e+000 -3.637307e+000  2.100000e+000
      vertex  1.600000e+000 -7.400000e+000  6.841641e-016
      vertex  1.600000e+000 -4.200000e+000  5.143347e-016
    endloop
  endfacet
  facet normal  1.000000e+000  0.000000e+000  0.000000e+000
    outer loop
      vertex  1.600000e+000 -4.200000e+000  5.143347e-016
      vertex  1.600000e+000 -7.400000e+000  6.841641e-016
      vertex  1.600000e+000 -3.637307e+000 -2.100000e+000
    endloop
  endfacet
  facet normal  1.000000e+000  0.000000e+000  0.000000e+000
    outer loop
      vertex  1.600000e+000 -3.637307e+000 -2.100000e+000
      vertex  1.600000e+000 -7.400000e+000  6.841641e-016
      vertex  1.600000e+000 -6.667170e+000 -3.210740e+000
    endloop
  endfacet
  facet normal  1.000000e+000  -0.000000e+000  0.000000e+000
    outer loop
      vertex  1.600000e+000 -3.637307e+000 -2.100000e+000
      vertex  1.600000e+000 -6.667170e+000 -3.210740e+000
      vertex  1.600000e+000 -2.100000e+000 -3.637307e+000
    endloop
  endfacet
  facet normal  1.000000e+000  0.000000e+000  0.000000e+000
    outer loop
      vertex  1.600000e+000 -2.100000e+000 -3.637307e+000
      vertex  1.600000e+000 -6.667170e+000 -3.210740e+000
      vertex  1.600000e+000 -7.715020e-016 -4.200000e+000
    endloop
  endfacet
  facet normal  9.999999e-001  0.000000e+000  0.000000e+000
    outer loop
      vertex  1.600000e+000 -7.715020e-016 -4.200000e+000
      vertex  1.600000e+000 -6.667170e+000 -3.210740e+000
      vertex  1.600000e+000 -4.613824e+000 -5.785553e+000
    endloop
  endfacet
  facet normal  1.000000e+000  -0.000000e+000  0.000000e+000
    outer loop
      vertex  1.600000e+000 -7.715020e-016 -4.200000e+000
      vertex  1.600000e+000 -4.613824e+000 -5.785553e+000
      vertex  1.600000e+000 -1.646655e+000 -7.214467e+000
    endloop
  endfacet
  facet normal  1.000000e+000  0.000000e+000  0.000000e+000
    outer loop
      vertex  1.600000e+000  3.637307e+000  2.100000e+000
      vertex  1.600000e+000  7.400000e+000 -9.242389e-016
      vertex  1.600000e+000  2.100000e+000  3.637307e+000
    endloop
  endfacet
  facet normal  9.999999e-001  0.000000e+000  0.000000e+000
    outer loop
      vertex  1.600000e+000  2.100000e+000  3.637307e+000
      vertex  1.600000e+000  7.400000e+000 -9.242389e-016
      vertex  1.600000e+000  6.667170e+000  3.210740e+000
    endloop
  endfacet
  facet normal  1.000000e+000  0.000000e+000  0.000000e+000
    outer loop
      vertex  1.600000e+000  2.100000e+000  3.637307e+000
      vertex  1.600000e+000  6.667170e+000  3.210740e+000
      vertex  1.600000e+000  1.189755e-015  4.200000e+000
    endloop
  endfacet
  facet normal  9.999999e-001  0.000000e+000  0.000000e+000
    outer loop
      vertex  1.600000e+000  3.637307e+000 -2.100000e+000
      vertex  1.600000e+000  6.667170e+000 -3.210740e+000
      vertex  1.600000e+000  4.200000e+000  0.000000e+000
    endloop
  endfacet
  facet normal  1.000000e+000  0.000000e+000  0.000000e+000
    outer loop
      vertex  1.600000e+000  4.200000e+000  0.000000e+000
      vertex  1.600000e+000  6.667170e+000 -3.210740e+000
      vertex  1.600000e+000  7.400000e+000 -9.242389e-016
    endloop
  endfacet
  facet normal  1.000000e+000  0.000000e+000  0.000000e+000
    outer loop
      vertex  1.600000e+000  4.200000e+000  0.000000e+000
      vertex  1.600000e+000  7.400000e+000 -9.242389e-016
      vertex  1.600000e+000  3.637307e+000  2.100000e+000
    endloop
  endfacet
  facet normal -3.354273e-016  9.807853e-001 -1.950904e-001
    outer loop
      vertex  0.000000e+000  8.000000e+000  0.000000e+000
      vertex  1.139604e+000  8.000000e+000 -1.959370e-015
      vertex  0.000000e+000  7.391036e+000 -3.061467e+000
    endloop
  endfacet
  facet normal  0.000000e+000  9.807853e-001 -1.950904e-001
    outer loop
      vertex  0.000000e+000  7.391036e+000 -3.061467e+000
      vertex  1.139604e+000  8.000000e+000 -1.959370e-015
      vertex  1.139604e+000  7.391036e+000 -3.061467e+000
    endloop
  endfacet
  facet normal  0.000000e+000  8.314697e-001 -5.555702e-001
    outer loop
      vertex  0.000000e+000  7.391036e+000 -3.061467e+000
      vertex  1.139604e+000  7.391036e+000 -3.061467e+000
      vertex  0.000000e+000  5.656854e+000 -5.656854e+000
    endloop
  endfacet
  facet normal  0.000000e+000  8.314697e-001 -5.555702e-001
    outer loop
      vertex  0.000000e+000  5.656854e+000 -5.656854e+000
      vertex  1.139604e+000  7.391036e+000 -3.061467e+000
      vertex  1.139604e+000  5.656854e+000 -5.656854e+000
    endloop
  endfacet
  facet normal  0.000000e+000  5.555702e-001 -8.314697e-001
    outer loop
      vertex  0.000000e+000  5.656854e+000 -5.656854e+000
      vertex  1.139604e+000  5.656854e+000 -5.656854e+000
      vertex  0.000000e+000  3.061467e+000 -7.391036e+000
    endloop
  endfacet
  facet normal  0.000000e+000  5.555702e-001 -8.314697e-001
    outer loop
      vertex  0.000000e+000  3.061467e+000 -7.391036e+000
      vertex  1.139604e+000  5.656854e+000 -5.656854e+000
      vertex  1.139604e+000  3.061467e+000 -7.391036e+000
    endloop
  endfacet
  facet normal  0.000000e+000  1.950904e-001 -9.807853e-001
    outer loop
      vertex  0.000000e+000  3.061467e+000 -7.391036e+000
      vertex  1.139604e+000  3.061467e+000 -7.391036e+000
      vertex  0.000000e+000 -1.469528e-015 -8.000000e+000
    endloop
  endfacet
  facet normal  0.000000e+000  1.950904e-001 -9.807853e-001
    outer loop
      vertex  0.000000e+000 -1.469528e-015 -8.000000e+000
      vertex  1.139604e+000  3.061467e+000 -7.391036e+000
      vertex  1.139604e+000 -1.469528e-015 -8.000000e+000
    endloop
  endfacet
  facet normal  -0.000000e+000 -1.950904e-001 -9.807853e-001
    outer loop
      vertex  0.000000e+000 -1.469528e-015 -8.000000e+000
      vertex  1.139604e+000 -1.469528e-015 -8.000000e+000
      vertex  0.000000e+000 -3.061467e+000 -7.391036e+000
    endloop
  endfacet
  facet normal  0.000000e+000 -1.950904e-001 -9.807853e-001
    outer loop
      vertex  0.000000e+000 -3.061467e+000 -7.391036e+000
      vertex  1.139604e+000 -1.469528e-015 -8.000000e+000
      vertex  1.139604e+000 -3.061467e+000 -7.391036e+000
    endloop
  endfacet
  facet normal  -0.000000e+000 -5.555702e-001 -8.314697e-001
    outer loop
      vertex  0.000000e+000 -3.061467e+000 -7.391036e+000
      vertex  1.139604e+000 -3.061467e+000 -7.391036e+000
      vertex  0.000000e+000 -5.656854e+000 -5.656854e+000
    endloop
  endfacet
  facet normal  0.000000e+000 -5.555702e-001 -8.314697e-001
    outer loop
      vertex  0.000000e+000 -5.656854e+000 -5.656854e+000
      vertex  1.139604e+000 -3.061467e+000 -7.391036e+000
      vertex  1.139604e+000 -5.656854e+000 -5.656854e+000
    endloop
  endfacet
  facet normal  -0.000000e+000 -8.314697e-001 -5.555702e-001
    outer loop
      vertex  0.000000e+000 -5.656854e+000 -5.656854e+000
      vertex  1.139604e+000 -5.656854e+000 -5.656854e+000
      vertex  0.000000e+000 -7.391036e+000 -3.061467e+000
    endloop
  endfacet
  facet normal  0.000000e+000 -8.314697e-001 -5.555702e-001
    outer loop
      vertex  0.000000e+000 -7.391036e+000 -3.061467e+000
      vertex  1.139604e+000 -5.656854e+000 -5.656854e+000
      vertex  1.139604e+000 -7.391036e+000 -3.061467e+000
    endloop
  endfacet
  facet normal  -0.000000e+000 -9.807853e-001 -1.950904e-001
    outer loop
      vertex  0.000000e+000 -7.391036e+000 -3.061467e+000
      vertex  1.139604e+000 -7.391036e+000 -3.061467e+000
      vertex  0.000000e+000 -8.000000e+000  9.796851e-016
    endloop
  endfacet
  facet normal  0.000000e+000 -9.807853e-001 -1.950904e-001
    outer loop
      vertex  0.000000e+000 -8.000000e+000  9.796851e-016
      vertex  1.139604e+000 -7.391036e+000 -3.061467e+000
      vertex  1.139604e+000 -8.000000e+000  9.796851e-016
    endloop
  endfacet
  facet normal  0.000000e+000 -9.807853e-001  1.950904e-001
    outer loop
      vertex  0.000000e+000 -8.000000e+000  9.796851e-016
      vertex  1.139604e+000 -8.000000e+000  9.796851e-016
      vertex  0.000000e+000 -7.391036e+000  3.061467e+000
    endloop
  endfacet
  facet normal  0.000000e+000 -9.807853e-001  1.950904e-001
    outer loop
      vertex  0.000000e+000 -7.391036e+000  3.061467e+000
      vertex  1.139604e+000 -8.000000e+000  9.796851e-016
      vertex  1.139604e+000 -7.391036e+000  3.061467e+000
    endloop
  endfacet
  facet normal  0.000000e+000 -8.314697e-001  5.555702e-001
    outer loop
      vertex  0.000000e+000 -7.391036e+000  3.061467e+000
      vertex  1.139604e+000 -7.391036e+000  3.061467e+000
      vertex  0.000000e+000 -5.656854e+000  5.656854e+000
    endloop
  endfacet
  facet normal  0.000000e+000 -8.314697e-001  5.555702e-001
    outer loop
      vertex  0.000000e+000 -5.656854e+000  5.656854e+000
      vertex  1.139604e+000 -7.391036e+000  3.061467e+000
      vertex  1.139604e+000 -5.656854e+000  5.656854e+000
    endloop
  endfacet
  facet normal  0.000000e+000 -5.555702e-001  8.314697e-001
    outer loop
      vertex  0.000000e+000 -5.656854e+000  5.656854e+000
      vertex  1.139604e+000 -5.656854e+000  5.656854e+000
      vertex  0.000000e+000 -3.061467e+000  7.391036e+000
    endloop
  endfacet
  facet normal  0.000000e+000 -5.555702e-001  8.314697e-001
    outer loop
      vertex  0.000000e+000 -3.061467e+000  7.391036e+000
      vertex  1.139604e+000 -5.656854e+000  5.656854e+000
      vertex  1.139604e+000 -3.061467e+000  7.391036e+000
    endloop
  endfacet
  facet normal  0.000000e+000 -1.950904e-001  9.807853e-001
    outer loop
      vertex  0.000000e+000 -3.061467e+000  7.391036e+000
      vertex  1.139604e+000 -3.061467e+000  7.391036e+000
      vertex  0.000000e+000  4.898425e-016  8.000000e+000
    endloop
  endfacet
  facet normal  0.000000e+000 -1.950904e-001  9.807853e-001
    outer loop
      vertex  0.000000e+000  4.898425e-016  8.000000e+000
      vertex  1.139604e+000 -3.061467e+000  7.391036e+000
      vertex  1.139604e+000  4.898425e-016  8.000000e+000
    endloop
  endfacet
  facet normal  0.000000e+000  1.950904e-001  9.807853e-001
    outer loop
      vertex  0.000000e+000  4.898425e-016  8.000000e+000
      vertex  1.139604e+000  4.898425e-016  8.000000e+000
      vertex  0.000000e+000  3.061467e+000  7.391036e+000
    endloop
  endfacet
  facet normal  -0.000000e+000  1.950904e-001  9.807853e-001
    outer loop
      vertex  0.000000e+000  3.061467e+000  7.391036e+000
      vertex  1.139604e+000  4.898425e-016  8.000000e+000
      vertex  1.139604e+000  3.061467e+000  7.391036e+000
    endloop
  endfacet
  facet normal  0.000000e+000  5.555702e-001  8.314697e-001
    outer loop
      vertex  0.000000e+000  3.061467e+000  7.391036e+000
      vertex  1.139604e+000  3.061467e+000  7.391036e+000
      vertex  0.000000e+000  5.656854e+000  5.656854e+000
    endloop
  endfacet
  facet normal  -0.000000e+000  5.555702e-001  8.314697e-001
    outer loop
      vertex  0.000000e+000  5.656854e+000  5.656854e+000
      vertex  1.139604e+000  3.061467e+000  7.391036e+000
      vertex  1.139604e+000  5.656854e+000  5.656854e+000
    endloop
  endfacet
  facet normal  0.000000e+000  8.314697e-001  5.555702e-001
    outer loop
      vertex  0.000000e+000  5.656854e+000  5.656854e+000
      vertex  1.139604e+000  5.656854e+000  5.656854e+000
      vertex  0.000000e+000  7.391036e+000  3.061467e+000
    endloop
  endfacet
  facet normal  -0.000000e+000  8.314697e-001  5.555702e-001
    outer loop
      vertex  0.000000e+000  7.391036e+000  3.061467e+000
      vertex  1.139604e+000  5.656854e+000  5.656854e+000
      vertex  1.139604e+000  7.391036e+000  3.061467e+000
    endloop
  endfacet
  facet normal  0.000000e+000  9.807853e-001  1.950904e-001
    outer loop
      vertex  0.000000e+000  7.391036e+000  3.061467e+000
      vertex  1.139604e+000  7.391036e+000  3.061467e+000
      vertex  0.000000e+000  8.000000e+000  0.000000e+000
    endloop
  endfacet
  facet normal  3.354273e-016  9.807853e-001  1.950904e-001
    outer loop
      vertex  0.000000e+000  8.000000e+000  0.000000e+000
      vertex  1.139604e+000  7.391036e+000  3.061467e+000
      vertex  1.139604e+000  8.000000e+000 -1.959370e-015
    endloop
  endfacet
  facet normal  7.876000e-001  6.043468e-001 -1.202121e-001
    outer loop
      vertex  1.139604e+000  7.391036e+000 -3.061467e+000
      vertex  1.139604e+000  8.000000e+000 -1.959370e-015
      vertex  1.600000e+000  7.400000e+000 -9.242389e-016
    endloop
  endfacet
  facet normal  8.251565e-001  5.507408e-001 -1.257030e-001
    outer loop
      vertex  1.600000e+000  6.667170e+000 -3.210740e+000
      vertex  1.139604e+000  7.391036e+000 -3.061467e+000
      vertex  1.600000e+000  7.400000e+000 -9.242389e-016
    endloop
  endfacet
  facet normal  8.251565e-001 -5.507408e-001 -1.257030e-001
    outer loop
      vertex  1.139604e+000 -7.391036e+000 -3.061467e+000
      vertex  1.600000e+000 -6.667170e+000 -3.210740e+000
      vertex  1.600000e+000 -7.400000e+000  6.841641e-016
    endloop
  endfacet
  facet normal  7.876000e-001 -6.043468e-001 -1.202121e-001
    outer loop
      vertex  1.139604e+000 -8.000000e+000  9.796851e-016
      vertex  1.139604e+000 -7.391036e+000 -3.061467e+000
      vertex  1.600000e+000 -7.400000e+000  6.841641e-016
    endloop
  endfacet
  facet normal  7.480427e-001 -5.518053e-001 -3.687045e-001
    outer loop
      vertex  1.139604e+000 -7.391036e+000 -3.061467e+000
      vertex  1.139604e+000 -5.656854e+000 -5.656854e+000
      vertex  1.600000e+000 -6.667170e+000 -3.210740e+000
    endloop
  endfacet
  facet normal  7.161965e-001 -3.877317e-001 -5.802815e-001
    outer loop
      vertex  1.139604e+000 -5.656854e+000 -5.656854e+000
      vertex  1.139604e+000 -3.061467e+000 -7.391036e+000
      vertex  1.600000e+000 -4.613824e+000 -5.785553e+000
    endloop
  endfacet
  facet normal  8.475437e-001 -4.149379e-001 -3.309020e-001
    outer loop
      vertex  1.600000e+000 -6.667170e+000 -3.210740e+000
      vertex  1.139604e+000 -5.656854e+000 -5.656854e+000
      vertex  1.600000e+000 -4.613824e+000 -5.785553e+000
    endloop
  endfacet
  facet normal  6.983446e-001 -1.396382e-001 -7.020085e-001
    outer loop
      vertex  1.139604e+000 -3.061467e+000 -7.391036e+000
      vertex  1.139604e+000 -1.469528e-015 -8.000000e+000
      vertex  1.600000e+000 -1.646655e+000 -7.214467e+000
    endloop
  endfacet
  facet normal  8.591422e-001 -2.220343e-001 -4.610589e-001
    outer loop
      vertex  1.600000e+000 -4.613824e+000 -5.785553e+000
      vertex  1.139604e+000 -3.061467e+000 -7.391036e+000
      vertex  1.600000e+000 -1.646655e+000 -7.214467e+000
    endloop
  endfacet
  facet normal  6.983446e-001  1.396382e-001 -7.020085e-001
    outer loop
      vertex  1.139604e+000 -1.469528e-015 -8.000000e+000
      vertex  1.139604e+000  3.061467e+000 -7.391036e+000
      vertex  1.600000e+000  1.646655e+000 -7.214467e+000
    endloop
  endfacet
  facet normal  8.627406e-001  0.000000e+000 -5.056468e-001
    outer loop
      vertex  1.600000e+000 -1.646655e+000 -7.214467e+000
      vertex  1.139604e+000 -1.469528e-015 -8.000000e+000
      vertex  1.600000e+000  1.646655e+000 -7.214467e+000
    endloop
  endfacet
  facet normal  7.161965e-001  3.877317e-001 -5.802815e-001
    outer loop
      vertex  1.139604e+000  3.061467e+000 -7.391036e+000
      vertex  1.139604e+000  5.656854e+000 -5.656854e+000
      vertex  1.600000e+000  4.613824e+000 -5.785553e+000
    endloop
  endfacet
  facet normal  8.591422e-001  2.220343e-001 -4.610589e-001
    outer loop
      vertex  1.600000e+000  1.646655e+000 -7.214467e+000
      vertex  1.139604e+000  3.061467e+000 -7.391036e+000
      vertex  1.600000e+000  4.613824e+000 -5.785553e+000
    endloop
  endfacet
  facet normal  7.480427e-001  5.518053e-001 -3.687045e-001
    outer loop
      vertex  1.139604e+000  5.656854e+000 -5.656854e+000
      vertex  1.139604e+000  7.391036e+000 -3.061467e+000
      vertex  1.600000e+000  6.667170e+000 -3.210740e+000
    endloop
  endfacet
  facet normal  8.475437e-001  4.149379e-001 -3.309020e-001
    outer loop
      vertex  1.600000e+000  4.613824e+000 -5.785553e+000
      vertex  1.139604e+000  5.656854e+000 -5.656854e+000
      vertex  1.600000e+000  6.667170e+000 -3.210740e+000
    endloop
  endfacet
  facet normal  7.876000e-001 -6.043468e-001  1.202121e-001
    outer loop
      vertex  1.139604e+000 -7.391036e+000  3.061467e+000
      vertex  1.139604e+000 -8.000000e+000  9.796851e-016
      vertex  1.600000e+000 -7.400000e+000  6.841641e-016
    endloop
  endfacet
  facet normal  8.251565e-001 -5.507408e-001  1.257030e-001
    outer loop
      vertex  1.600000e+000 -6.667170e+000  3.210740e+000
      vertex  1.139604e+000 -7.391036e+000  3.061467e+000
      vertex  1.600000e+000 -7.400000e+000  6.841641e-016
    endloop
  endfacet
  facet normal  8.251565e-001  5.507408e-001  1.257030e-001
    outer loop
      vertex  1.139604e+000  7.391036e+000  3.061467e+000
      vertex  1.600000e+000  6.667170e+000  3.210740e+000
      vertex  1.600000e+000  7.400000e+000 -9.242389e-016
    endloop
  endfacet
  facet normal  7.876000e-001  6.043468e-001  1.202121e-001
    outer loop
      vertex  1.139604e+000  8.000000e+000 -1.959370e-015
      vertex  1.139604e+000  7.391036e+000  3.061467e+000
      vertex  1.600000e+000  7.400000e+000 -9.242389e-016
    endloop
  endfacet
  facet normal  7.480427e-001  5.518053e-001  3.687045e-001
    outer loop
      vertex  1.139604e+000  7.391036e+000  3.061467e+000
      vertex  1.139604e+000  5.656854e+000  5.656854e+000
      vertex  1.600000e+000  6.667170e+000  3.210740e+000
    endloop
  endfacet
  facet normal  7.161965e-001  3.877317e-001  5.802815e-001
    outer loop
      vertex  1.139604e+000  5.656854e+000  5.656854e+000
      vertex  1.139604e+000  3.061467e+000  7.391036e+000
      vertex  1.600000e+000  4.613824e+000  5.785553e+000
    endloop
  endfacet
  facet normal  8.475437e-001  4.149379e-001  3.309020e-001
    outer loop
      vertex  1.600000e+000  6.667170e+000  3.210740e+000
      vertex  1.139604e+000  5.656854e+000  5.656854e+000
      vertex  1.600000e+000  4.613824e+000  5.785553e+000
    endloop
  endfacet
  facet normal  6.983446e-001  1.396382e-001  7.020085e-001
    outer loop
      vertex  1.139604e+000  3.061467e+000  7.391036e+000
      vertex  1.139604e+000  4.898425e-016  8.000000e+000
      vertex  1.600000e+000  1.646655e+000  7.214467e+000
    endloop
  endfacet
  facet normal  8.591422e-001  2.220343e-001  4.610589e-001
    outer loop
      vertex  1.600000e+000  4.613824e+000  5.785553e+000
      vertex  1.139604e+000  3.061467e+000  7.391036e+000
      vertex  1.600000e+000  1.646655e+000  7.214467e+000
    endloop
  endfacet
  facet normal  6.983446e-001 -1.396382e-001  7.020085e-001
    outer loop
      vertex  1.139604e+000  4.898425e-016  8.000000e+000
      vertex  1.139604e+000 -3.061467e+000  7.391036e+000
      vertex  1.600000e+000 -1.646655e+000  7.214467e+000
    endloop
  endfacet
  facet normal  8.627406e-001  0.000000e+000  5.056468e-001
    outer loop
      vertex  1.600000e+000  1.646655e+000  7.214467e+000
      vertex  1.139604e+000  4.898425e-016  8.000000e+000
      vertex  1.600000e+000 -1.646655e+000  7.214467e+000
    endloop
  endfacet
  facet normal  7.161965e-001 -3.877317e-001  5.802815e-001
    outer loop
      vertex  1.139604e+000 -3.061467e+000  7.391036e+000
      vertex  1.139604e+000 -5.656854e+000  5.656854e+000
      vertex  1.600000e+000 -4.613824e+000  5.785553e+000
    endloop
  endfacet
  facet normal  8.591422e-001 -2.220343e-001  4.610589e-001
    outer loop
      vertex  1.600000e+000 -1.646655e+000  7.214467e+000
      vertex  1.139604e+000 -3.061467e+000  7.391036e+000
      vertex  1.600000e+000 -4.613824e+000  5.785553e+000
    endloop
  endfacet
  facet normal  7.480427e-001 -5.518053e-001  3.687045e-001
    outer loop
      vertex  1.139604e+000 -5.656854e+000  5.656854e+000
      vertex  1.139604e+000 -7.391036e+000  3.061467e+000
      vertex  1.600000e+000 -6.667170e+000  3.210740e+000
    endloop
  endfacet
  facet normal  8.475437e-001 -4.149379e-001  3.309020e-001
    outer loop
      vertex  1.600000e+000 -4.613824e+000  5.785553e+000
      vertex  1.139604e+000 -5.656854e+000  5.656854e+000
      vertex  1.600000e+000 -6.667170e+000  3.210740e+000
    endloop
  endfacet
  facet normal -1.000000e+000  0.000000e+000  0.000000e+000
    outer loop
      vertex  0.000000e+000  5.656854e+000  5.656854e+000
      vertex  0.000000e+000  1.189755e-015  4.200000e+000
      vertex  0.000000e+000  3.061467e+000  7.391036e+000
    endloop
  endfacet
  facet normal -9.999999e-001  -0.000000e+000  0.000000e+000
    outer loop
      vertex  0.000000e+000  3.061467e+000  7.391036e+000
      vertex  0.000000e+000  1.189755e-015  4.200000e+000
      vertex  0.000000e+000  4.898425e-016  8.000000e+000
    endloop
  endfacet
  facet normal -1.000000e+000  0.000000e+000  0.000000e+000
    outer loop
      vertex  0.000000e+000  1.189755e-015  4.200000e+000
      vertex  0.000000e+000 -5.656854e+000  5.656854e+000
      vertex  0.000000e+000  4.898425e-016  8.000000e+000
    endloop
  endfacet
  facet normal -1.000000e+000  0.000000e+000  0.000000e+000
    outer loop
      vertex  0.000000e+000  4.898425e-016  8.000000e+000
      vertex  0.000000e+000 -5.656854e+000  5.656854e+000
      vertex  0.000000e+000 -3.061467e+000  7.391036e+000
    endloop
  endfacet
  facet normal -1.000000e+000  0.000000e+000  0.000000e+000
    outer loop
      vertex  0.000000e+000 -4.200000e+000  5.143347e-016
      vertex  0.000000e+000 -8.000000e+000  9.796851e-016
      vertex  0.000000e+000 -3.637307e+000  2.100000e+000
    endloop
  endfacet
  facet normal -1.000000e+000  -0.000000e+000  0.000000e+000
    outer loop
      vertex  0.000000e+000 -3.637307e+000  2.100000e+000
      vertex  0.000000e+000 -8.000000e+000  9.796851e-016
      vertex  0.000000e+000 -7.391036e+000  3.061467e+000
    endloop
  endfacet
  facet normal -1.000000e+000  0.000000e+000  0.000000e+000
    outer loop
      vertex  0.000000e+000 -3.637307e+000  2.100000e+000
      vertex  0.000000e+000 -7.391036e+000  3.061467e+000
      vertex  0.000000e+000 -2.100000e+000  3.637307e+000
    endloop
  endfacet
  facet normal -9.999999e-001  -0.000000e+000  0.000000e+000
    outer loop
      vertex  0.000000e+000 -2.100000e+000  3.637307e+000
      vertex  0.000000e+000 -7.391036e+000  3.061467e+000
      vertex  0.000000e+000 -5.656854e+000  5.656854e+000
    endloop
  endfacet
  facet normal -1.000000e+000  0.000000e+000  0.000000e+000
    outer loop
      vertex  0.000000e+000 -2.100000e+000  3.637307e+000
      vertex  0.000000e+000 -5.656854e+000  5.656854e+000
      vertex  0.000000e+000  1.189755e-015  4.200000e+000
    endloop
  endfacet
  facet normal -1.000000e+000  0.000000e+000  0.000000e+000
    outer loop
      vertex  0.000000e+000 -2.100000e+000 -3.637307e+000
      vertex  0.000000e+000 -7.391036e+000 -3.061467e+000
      vertex  0.000000e+000 -3.637307e+000 -2.100000e+000
    endloop
  endfacet
  facet normal -1.000000e+000  -0.000000e+000  0.000000e+000
    outer loop
      vertex  0.000000e+000 -3.637307e+000 -2.100000e+000
      vertex  0.000000e+000 -7.391036e+000 -3.061467e+000
      vertex  0.000000e+000 -8.000000e+000  9.796851e-016
    endloop
  endfacet
  facet normal -1.000000e+000  0.000000e+000  0.000000e+000
    outer loop
      vertex  0.000000e+000 -3.637307e+000 -2.100000e+000
      vertex  0.000000e+000 -8.000000e+000  9.796851e-016
      vertex  0.000000e+000 -4.200000e+000  5.143347e-016
    endloop
  endfacet
  facet normal -9.999999e-001  0.000000e+000  0.000000e+000
    outer loop
      vertex  0.000000e+000 -2.100000e+000 -3.637307e+000
      vertex  0.000000e+000 -7.715020e-016 -4.200000e+000
      vertex  0.000000e+000 -7.391036e+000 -3.061467e+000
    endloop
  endfacet
  facet normal -9.999999e-001  0.000000e+000  0.000000e+000
    outer loop
      vertex  0.000000e+000 -7.391036e+000 -3.061467e+000
      vertex  0.000000e+000 -7.715020e-016 -4.200000e+000
      vertex  0.000000e+000 -5.656854e+000 -5.656854e+000
    endloop
  endfacet
  facet normal -1.000000e+000  0.000000e+000  0.000000e+000
    outer loop
      vertex  0.000000e+000 -7.715020e-016 -4.200000e+000
      vertex  0.000000e+000 -1.469528e-015 -8.000000e+000
      vertex  0.000000e+000 -5.656854e+000 -5.656854e+000
    endloop
  endfacet
  facet normal -1.000000e+000  0.000000e+000  0.000000e+000
    outer loop
      vertex  0.000000e+000 -5.656854e+000 -5.656854e+000
      vertex  0.000000e+000 -1.469528e-015 -8.000000e+000
      vertex  0.000000e+000 -3.061467e+000 -7.391036e+000
    endloop
  endfacet
  facet normal -1.000000e+000  0.000000e+000  0.000000e+000
    outer loop
      vertex  0.000000e+000  4.200000e+000  0.000000e+000
      vertex  0.000000e+000  3.637307e+000  2.100000e+000
      vertex  0.000000e+000  8.000000e+000  0.000000e+000
    endloop
  endfacet
  facet normal -1.000000e+000  0.000000e+000  0.000000e+000
    outer loop
      vertex  0.000000e+000  8.000000e+000  0.000000e+000
      vertex  0.000000e+000  3.637307e+000  2.100000e+000
      vertex  0.000000e+000  2.100000e+000  3.637307e+000
    endloop
  endfacet
  facet normal -1.000000e+000  0.000000e+000  0.000000e+000
    outer loop
      vertex  0.000000e+000  8.000000e+000  0.000000e+000
      vertex  0.000000e+000  2.100000e+000  3.637307e+000
      vertex  0.000000e+000  7.391036e+000  3.061467e+000
    endloop
  endfacet
  facet normal -9.999999e-001  0.000000e+000  0.000000e+000
    outer loop
      vertex  0.000000e+000  7.391036e+000  3.061467e+000
      vertex  0.000000e+000  2.100000e+000  3.637307e+000
      vertex  0.000000e+000  1.189755e-015  4.200000e+000
    endloop
  endfacet
  facet normal -9.999999e-001  0.000000e+000  0.000000e+000
    outer loop
      vertex  0.000000e+000  7.391036e+000  3.061467e+000
      vertex  0.000000e+000  1.189755e-015  4.200000e+000
      vertex  0.000000e+000  5.656854e+000  5.656854e+000
    endloop
  endfacet
  facet normal -1.000000e+000  0.000000e+000  -0.000000e+000
    outer loop
      vertex  0.000000e+000  2.100000e+000 -3.637307e+000
      vertex  0.000000e+000  3.637307e+000 -2.100000e+000
      vertex  0.000000e+000  7.391036e+000 -3.061467e+000
    endloop
  endfacet
  facet normal -1.000000e+000  0.000000e+000  0.000000e+000
    outer loop
      vertex  0.000000e+000  7.391036e+000 -3.061467e+000
      vertex  0.000000e+000  3.637307e+000 -2.100000e+000
      vertex  0.000000e+000  4.200000e+000  0.000000e+000
    endloop
  endfacet
  facet normal -9.999999e-001  0.000000e+000  0.000000e+000
    outer loop
      vertex  0.000000e+000  7.391036e+000 -3.061467e+000
      vertex  0.000000e+000  4.200000e+000  0.000000e+000
      vertex  0.000000e+000  8.000000e+000  0.000000e+000
    endloop
  endfacet
  facet normal -9.999999e-001  0.000000e+000  0.000000e+000
    outer loop
      vertex  0.000000e+000  7.391036e+000 -3.061467e+000
      vertex  0.000000e+000  5.656854e+000 -5.656854e+000
      vertex  0.000000e+000  2.100000e+000 -3.637307e+000
    endloop
  endfacet
  facet normal -1.000000e+000  0.000000e+000  -0.000000e+000
    outer loop
      vertex  0.000000e+000  2.100000e+000 -3.637307e+000
      vertex  0.000000e+000  5.656854e+000 -5.656854e+000
      vertex  0.000000e+000 -7.715020e-016 -4.200000e+000
    endloop
  endfacet
  facet normal -1.000000e+000  0.000000e+000  0.000000e+000
    outer loop
      vertex  0.000000e+000  5.656854e+000 -5.656854e+000
      vertex  0.000000e+000  3.061467e+000 -7.391036e+000
      vertex  0.000000e+000 -7.715020e-016 -4.200000e+000
    endloop
  endfacet
  facet normal -9.999999e-001  0.000000e+000  -0.000000e+000
    outer loop
      vertex  0.000000e+000 -7.715020e-016 -4.200000e+000
      vertex  0.000000e+000  3.061467e+000 -7.391036e+000
      vertex  0.000000e+000 -1.469528e-015 -8.000000e+000
    endloop
  endfacet
  facet normal  0.000000e+000  2.588190e-001 -9.659259e-001
    outer loop
      vertex  0.000000e+000  1.189755e-015  4.200000e+000
      vertex  1.600000e+000 -2.100000e+000  3.637307e+000
      vertex  0.000000e+000 -2.100000e+000  3.637307e+000
    endloop
  endfacet
  facet normal  0.000000e+000  7.071068e-001 -7.071068e-001
    outer loop
      vertex  0.000000e+000 -2.100000e+000  3.637307e+000
      vertex  1.600000e+000 -2.100000e+000  3.637307e+000
      vertex  1.600000e+000 -3.637307e+000  2.100000e+000
    endloop
  endfacet
  facet normal  0.000000e+000  7.071068e-001 -7.071068e-001
    outer loop
      vertex  0.000000e+000 -2.100000e+000  3.637307e+000
      vertex  1.600000e+000 -3.637307e+000  2.100000e+000
      vertex  0.000000e+000 -3.637307e+000  2.100000e+000
    endloop
  endfacet
  facet normal  0.000000e+000  9.659259e-001 -2.588190e-001
    outer loop
      vertex  0.000000e+000 -3.637307e+000  2.100000e+000
      vertex  1.600000e+000 -3.637307e+000  2.100000e+000
      vertex  1.600000e+000 -4.200000e+000  5.143347e-016
    endloop
  endfacet
  facet normal  0.000000e+000  9.659259e-001 -2.588190e-001
    outer loop
      vertex  0.000000e+000 -3.637307e+000  2.100000e+000
      vertex  1.600000e+000 -4.200000e+000  5.143347e-016
      vertex  0.000000e+000 -4.200000e+000  5.143347e-016
    endloop
  endfacet
  facet normal  0.000000e+000  2.588190e-001 -9.659259e-001
    outer loop
      vertex  1.600000e+000 -2.100000e+000  3.637307e+000
      vertex  0.000000e+000  1.189755e-015  4.200000e+000
      vertex  1.600000e+000  1.189755e-015  4.200000e+000
    endloop
  endfacet
  facet normal  -0.000000e+000 -2.588190e-001 -9.659259e-001
    outer loop
      vertex  1.600000e+000  1.189755e-015  4.200000e+000
      vertex  0.000000e+000  1.189755e-015  4.200000e+000
      vertex  0.000000e+000  2.100000e+000  3.637307e+000
    endloop
  endfacet
  facet normal  0.000000e+000 -2.588190e-001 -9.659259e-001
    outer loop
      vertex  1.600000e+000  1.189755e-015  4.200000e+000
      vertex  0.000000e+000  2.100000e+000  3.637307e+000
      vertex  1.600000e+000  2.100000e+000  3.637307e+000
    endloop
  endfacet
  facet normal  -0.000000e+000 -7.071068e-001 -7.071068e-001
    outer loop
      vertex  1.600000e+000  2.100000e+000  3.637307e+000
      vertex  0.000000e+000  2.100000e+000  3.637307e+000
      vertex  0.000000e+000  3.637307e+000  2.100000e+000
    endloop
  endfacet
  facet normal  0.000000e+000 -7.071068e-001 -7.071068e-001
    outer loop
      vertex  1.600000e+000  2.100000e+000  3.637307e+000
      vertex  0.000000e+000  3.637307e+000  2.100000e+000
      vertex  1.600000e+000  3.637307e+000  2.100000e+000
    endloop
  endfacet
  facet normal  -0.000000e+000 -9.659259e-001 -2.588190e-001
    outer loop
      vertex  1.600000e+000  3.637307e+000  2.100000e+000
      vertex  0.000000e+000  3.637307e+000  2.100000e+000
      vertex  0.000000e+000  4.200000e+000  0.000000e+000
    endloop
  endfacet
  facet normal  0.000000e+000 -9.659259e-001 -2.588190e-001
    outer loop
      vertex  1.600000e+000  3.637307e+000  2.100000e+000
      vertex  0.000000e+000  4.200000e+000  0.000000e+000
      vertex  1.600000e+000  4.200000e+000  0.000000e+000
    endloop
  endfacet
  facet normal  0.000000e+000 -2.588190e-001  9.659259e-001
    outer loop
      vertex  0.000000e+000 -7.715020e-016 -4.200000e+000
      vertex  1.600000e+000  2.100000e+000 -3.637307e+000
      vertex  0.000000e+000  2.100000e+000 -3.637307e+000
    endloop
  endfacet
  facet normal  0.000000e+000 -7.071068e-001  7.071068e-001
    outer loop
      vertex  0.000000e+000  2.100000e+000 -3.637307e+000
      vertex  1.600000e+000  2.100000e+000 -3.637307e+000
      vertex  1.600000e+000  3.637307e+000 -2.100000e+000
    endloop
  endfacet
  facet normal  0.000000e+000 -7.071068e-001  7.071068e-001
    outer loop
      vertex  0.000000e+000  2.100000e+000 -3.637307e+000
      vertex  1.600000e+000  3.637307e+000 -2.100000e+000
      vertex  0.000000e+000  3.637307e+000 -2.100000e+000
    endloop
  endfacet
  facet normal  0.000000e+000 -9.659259e-001  2.588190e-001
    outer loop
      vertex  0.000000e+000  3.637307e+000 -2.100000e+000
      vertex  1.600000e+000  3.637307e+000 -2.100000e+000
      vertex  1.600000e+000  4.200000e+000  0.000000e+000
    endloop
  endfacet
  facet normal  0.000000e+000 -9.659259e-001  2.588190e-001
    outer loop
      vertex  0.000000e+000  3.637307e+000 -2.100000e+000
      vertex  1.600000e+000  4.200000e+000  0.000000e+000
      vertex  0.000000e+000  4.200000e+000  0.000000e+000
    endloop
  endfacet
  facet normal  0.000000e+000 -2.588190e-001  9.659259e-001
    outer loop
      vertex  1.600000e+000  2.100000e+000 -3.637307e+000
      vertex  0.000000e+000 -7.715020e-016 -4.200000e+000
      vertex  1.600000e+000 -7.715020e-016 -4.200000e+000
    endloop
  endfacet
  facet normal  0.000000e+000  2.588190e-001  9.659259e-001
    outer loop
      vertex  1.600000e+000 -7.715020e-016 -4.200000e+000
      vertex  0.000000e+000 -7.715020e-016 -4.200000e+000
      vertex  0.000000e+000 -2.100000e+000 -3.637307e+000
    endloop
  endfacet
  facet normal  -0.000000e+000  2.588190e-001  9.659259e-001
    outer loop
      vertex  1.600000e+000 -7.715020e-016 -4.200000e+000
      vertex  0.000000e+000 -2.100000e+000 -3.637307e+000
      vertex  1.600000e+000 -2.100000e+000 -3.637307e+000
    endloop
  endfacet
  facet normal  0.000000e+000  7.071068e-001  7.071068e-001
    outer loop
      vertex  1.600000e+000 -2.100000e+000 -3.637307e+000
      vertex  0.000000e+000 -2.100000e+000 -3.637307e+000
      vertex  0.000000e+000 -3.637307e+000 -2.100000e+000
    endloop
  endfacet
  facet normal  -0.000000e+000  7.071068e-001  7.071068e-001
    outer loop
      vertex  1.600000e+000 -2.100000e+000 -3.637307e+000
      vertex  0.000000e+000 -3.637307e+000 -2.100000e+000
      vertex  1.600000e+000 -3.637307e+000 -2.100000e+000
    endloop
  endfacet
  facet normal  0.000000e+000  9.659259e-001  2.588190e-001
    outer loop
      vertex  1.600000e+000 -3.637307e+000 -2.100000e+000
      vertex  0.000000e+000 -3.637307e+000 -2.100000e+000
      vertex  0.000000e+000 -4.200000e+000  5.143347e-016
    endloop
  endfacet
  facet normal  -0.000000e+000  9.659259e-001  2.588190e-001
    outer loop
      vertex  1.600000e+000 -3.637307e+000 -2.100000e+000
      vertex  0.000000e+000 -4.200000e+000  5.143347e-016
      vertex  1.600000e+000 -4.200000e+000  5.143347e-016
    endloop
  endfacet
endsolid CATIA STL
