solid CATIA STL
  facet normal  0.000000e+000  1.000000e+000  0.000000e+000
    outer loop
      vertex  5.000000e+000  8.500000e+000  0.000000e+000
      vertex -1.039604e+001  8.500000e+000  0.000000e+000
      vertex  5.000000e+000  8.500000e+000  4.000000e+000
    endloop
  endfacet
  facet normal  0.000000e+000  1.000000e+000  0.000000e+000
    outer loop
      vertex  5.000000e+000  8.500000e+000  4.000000e+000
      vertex -1.039604e+001  8.500000e+000  0.000000e+000
      vertex -1.039604e+001  8.500000e+000  4.000000e+000
    endloop
  endfacet
  facet normal  2.588190e-001  9.659259e-001  0.000000e+000
    outer loop
      vertex  5.000000e+000  8.500000e+000  0.000000e+000
      vertex  5.000000e+000  8.500000e+000  4.000000e+000
      vertex  7.500000e+000  7.830127e+000  0.000000e+000
    endloop
  endfacet
  facet normal  2.588190e-001  9.659259e-001  -0.000000e+000
    outer loop
      vertex  7.500000e+000  7.830127e+000  0.000000e+000
      vertex  5.000000e+000  8.500000e+000  4.000000e+000
      vertex  7.500000e+000  7.830127e+000  4.000000e+000
    endloop
  endfacet
  facet normal  7.071069e-001  7.071067e-001  0.000000e+000
    outer loop
      vertex  7.500000e+000  7.830127e+000  0.000000e+000
      vertex  7.500000e+000  7.830127e+000  4.000000e+000
      vertex  9.330127e+000  6.000000e+000  0.000000e+000
    endloop
  endfacet
  facet normal  7.071069e-001  7.071067e-001  -0.000000e+000
    outer loop
      vertex  9.330127e+000  6.000000e+000  0.000000e+000
      vertex  7.500000e+000  7.830127e+000  4.000000e+000
      vertex  9.330127e+000  6.000000e+000  4.000000e+000
    endloop
  endfacet
  facet normal  9.659258e-001  2.588191e-001  0.000000e+000
    outer loop
      vertex  9.330127e+000  6.000000e+000  0.000000e+000
      vertex  9.330127e+000  6.000000e+000  4.000000e+000
      vertex  1.000000e+001  3.500000e+000  0.000000e+000
    endloop
  endfacet
  facet normal  9.659258e-001  2.588191e-001  -0.000000e+000
    outer loop
      vertex  1.000000e+001  3.500000e+000  0.000000e+000
      vertex  9.330127e+000  6.000000e+000  4.000000e+000
      vertex  1.000000e+001  3.500000e+000  4.000000e+000
    endloop
  endfacet
  facet normal  1.000000e+000  0.000000e+000  0.000000e+000
    outer loop
      vertex  1.000000e+001 -3.500000e+000  0.000000e+000
      vertex  1.000000e+001  3.500000e+000  0.000000e+000
      vertex  1.000000e+001 -3.500000e+000  4.000000e+000
    endloop
  endfacet
  facet normal  1.000000e+000  -0.000000e+000  0.000000e+000
    outer loop
      vertex  1.000000e+001 -3.500000e+000  4.000000e+000
      vertex  1.000000e+001  3.500000e+000  0.000000e+000
      vertex  1.000000e+001  3.500000e+000  4.000000e+000
    endloop
  endfacet
  facet normal  9.659258e-001 -2.588191e-001  0.000000e+000
    outer loop
      vertex  1.000000e+001 -3.500000e+000  0.000000e+000
      vertex  1.000000e+001 -3.500000e+000  4.000000e+000
      vertex  9.330127e+000 -6.000000e+000  0.000000e+000
    endloop
  endfacet
  facet normal  9.659258e-001 -2.588191e-001  0.000000e+000
    outer loop
      vertex  9.330127e+000 -6.000000e+000  0.000000e+000
      vertex  1.000000e+001 -3.500000e+000  4.000000e+000
      vertex  9.330127e+000 -6.000000e+000  4.000000e+000
    endloop
  endfacet
  facet normal  7.071069e-001 -7.071067e-001  0.000000e+000
    outer loop
      vertex  9.330127e+000 -6.000000e+000  0.000000e+000
      vertex  9.330127e+000 -6.000000e+000  4.000000e+000
      vertex  7.500000e+000 -7.830127e+000  0.000000e+000
    endloop
  endfacet
  facet normal  7.071069e-001 -7.071067e-001  0.000000e+000
    outer loop
      vertex  7.500000e+000 -7.830127e+000  0.000000e+000
      vertex  9.330127e+000 -6.000000e+000  4.000000e+000
      vertex  7.500000e+000 -7.830127e+000  4.000000e+000
    endloop
  endfacet
  facet normal  2.588190e-001 -9.659259e-001  0.000000e+000
    outer loop
      vertex  7.500000e+000 -7.830127e+000  0.000000e+000
      vertex  7.500000e+000 -7.830127e+000  4.000000e+000
      vertex  5.000000e+000 -8.500000e+000  0.000000e+000
    endloop
  endfacet
  facet normal  2.588190e-001 -9.659259e-001  0.000000e+000
    outer loop
      vertex  5.000000e+000 -8.500000e+000  0.000000e+000
      vertex  7.500000e+000 -7.830127e+000  4.000000e+000
      vertex  5.000000e+000 -8.500000e+000  4.000000e+000
    endloop
  endfacet
  facet normal  -0.000000e+000  0.000000e+000 -1.000000e+000
    outer loop
      vertex -2.250926e-015 -2.100000e+000  0.000000e+000
      vertex  1.000000e+001 -3.500000e+000  0.000000e+000
      vertex  9.330127e+000 -6.000000e+000  0.000000e+000
    endloop
  endfacet
  facet normal  -0.000000e+000  0.000000e+000 -1.000000e+000
    outer loop
      vertex -2.250926e-015 -2.100000e+000  0.000000e+000
      vertex  9.330127e+000 -6.000000e+000  0.000000e+000
      vertex  7.500000e+000 -7.830127e+000  0.000000e+000
    endloop
  endfacet
  facet normal  -0.000000e+000  0.000000e+000 -1.000000e+000
    outer loop
      vertex -2.250926e-015 -2.100000e+000  0.000000e+000
      vertex  7.500000e+000 -7.830127e+000  0.000000e+000
      vertex  5.000000e+000 -8.500000e+000  0.000000e+000
    endloop
  endfacet
  facet normal  0.000000e+000  0.000000e+000 -9.999999e-001
    outer loop
      vertex -2.250926e-015 -2.100000e+000  0.000000e+000
      vertex  5.000000e+000 -8.500000e+000  0.000000e+000
      vertex -1.039604e+001 -8.500000e+000  0.000000e+000
    endloop
  endfacet
  facet normal  0.000000e+000  0.000000e+000 -1.000000e+000
    outer loop
      vertex -1.039604e+001 -8.500000e+000  0.000000e+000
      vertex -1.039604e+001  8.500000e+000  0.000000e+000
      vertex -1.484924e+000  1.484924e+000  0.000000e+000
    endloop
  endfacet
  facet normal  0.000000e+000  0.000000e+000 -1.000000e+000
    outer loop
      vertex -1.039604e+001 -8.500000e+000  0.000000e+000
      vertex -1.484924e+000  1.484924e+000  0.000000e+000
      vertex -2.100000e+000  2.571673e-016  0.000000e+000
    endloop
  endfacet
  facet normal  0.000000e+000  -0.000000e+000 -1.000000e+000
    outer loop
      vertex -1.039604e+001 -8.500000e+000  0.000000e+000
      vertex -2.100000e+000  2.571673e-016  0.000000e+000
      vertex -1.484924e+000 -1.484924e+000  0.000000e+000
    endloop
  endfacet
  facet normal  0.000000e+000  -0.000000e+000 -1.000000e+000
    outer loop
      vertex -1.039604e+001 -8.500000e+000  0.000000e+000
      vertex -1.484924e+000 -1.484924e+000  0.000000e+000
      vertex -2.250926e-015 -2.100000e+000  0.000000e+000
    endloop
  endfacet
  facet normal  0.000000e+000  0.000000e+000 -1.000000e+000
    outer loop
      vertex  1.285837e-016  2.100000e+000  0.000000e+000
      vertex -1.484924e+000  1.484924e+000  0.000000e+000
      vertex -1.039604e+001  8.500000e+000  0.000000e+000
    endloop
  endfacet
  facet normal  0.000000e+000  0.000000e+000 -9.999999e-001
    outer loop
      vertex  1.285837e-016  2.100000e+000  0.000000e+000
      vertex -1.039604e+001  8.500000e+000  0.000000e+000
      vertex  5.000000e+000  8.500000e+000  0.000000e+000
    endloop
  endfacet
  facet normal  0.000000e+000  -0.000000e+000 -1.000000e+000
    outer loop
      vertex  1.285837e-016  2.100000e+000  0.000000e+000
      vertex  5.000000e+000  8.500000e+000  0.000000e+000
      vertex  7.500000e+000  7.830127e+000  0.000000e+000
    endloop
  endfacet
  facet normal  0.000000e+000  -0.000000e+000 -1.000000e+000
    outer loop
      vertex  1.285837e-016  2.100000e+000  0.000000e+000
      vertex  7.500000e+000  7.830127e+000  0.000000e+000
      vertex  9.330127e+000  6.000000e+000  0.000000e+000
    endloop
  endfacet
  facet normal  0.000000e+000  -0.000000e+000 -1.000000e+000
    outer loop
      vertex  1.285837e-016  2.100000e+000  0.000000e+000
      vertex  9.330127e+000  6.000000e+000  0.000000e+000
      vertex  1.000000e+001  3.500000e+000  0.000000e+000
    endloop
  endfacet
  facet normal  0.000000e+000  0.000000e+000 -1.000000e+000
    outer loop
      vertex  1.285837e-016  2.100000e+000  0.000000e+000
      vertex  1.000000e+001  3.500000e+000  0.000000e+000
      vertex  1.484924e+000  1.484924e+000  0.000000e+000
    endloop
  endfacet
  facet normal  0.000000e+000  0.000000e+000 -1.000000e+000
    outer loop
      vertex  1.000000e+001 -3.500000e+000  0.000000e+000
      vertex -2.250926e-015 -2.100000e+000  0.000000e+000
      vertex  1.484924e+000 -1.484924e+000  0.000000e+000
    endloop
  endfacet
  facet normal  0.000000e+000  0.000000e+000 -1.000000e+000
    outer loop
      vertex  1.000000e+001 -3.500000e+000  0.000000e+000
      vertex  1.484924e+000 -1.484924e+000  0.000000e+000
      vertex  2.100000e+000  0.000000e+000  0.000000e+000
    endloop
  endfacet
  facet normal  0.000000e+000  0.000000e+000 -1.000000e+000
    outer loop
      vertex  1.000000e+001 -3.500000e+000  0.000000e+000
      vertex  2.100000e+000  0.000000e+000  0.000000e+000
      vertex  1.484924e+000  1.484924e+000  0.000000e+000
    endloop
  endfacet
  facet normal  0.000000e+000  0.000000e+000 -1.000000e+000
    outer loop
      vertex  1.000000e+001 -3.500000e+000  0.000000e+000
      vertex  1.484924e+000  1.484924e+000  0.000000e+000
      vertex  1.000000e+001  3.500000e+000  0.000000e+000
    endloop
  endfacet
  facet normal  0.000000e+000 -1.000000e+000  0.000000e+000
    outer loop
      vertex -1.039604e+001 -8.500000e+000  0.000000e+000
      vertex  5.000000e+000 -8.500000e+000  0.000000e+000
      vertex -1.039604e+001 -8.500000e+000  4.000000e+000
    endloop
  endfacet
  facet normal  0.000000e+000 -1.000000e+000  0.000000e+000
    outer loop
      vertex -1.039604e+001 -8.500000e+000  4.000000e+000
      vertex  5.000000e+000 -8.500000e+000  0.000000e+000
      vertex  5.000000e+000 -8.500000e+000  4.000000e+000
    endloop
  endfacet
  facet normal  -0.000000e+000  0.000000e+000  1.000000e+000
    outer loop
      vertex  5.000000e+000  8.500000e+000  4.000000e+000
      vertex -1.039604e+001  8.500000e+000  4.000000e+000
      vertex  1.484924e+000  1.484924e+000  4.000000e+000
    endloop
  endfacet
  facet normal  -0.000000e+000  0.000000e+000  1.000000e+000
    outer loop
      vertex  5.000000e+000  8.500000e+000  4.000000e+000
      vertex  1.484924e+000  1.484924e+000  4.000000e+000
      vertex  2.100000e+000  0.000000e+000  4.000000e+000
    endloop
  endfacet
  facet normal  0.000000e+000  0.000000e+000  1.000000e+000
    outer loop
      vertex  5.000000e+000  8.500000e+000  4.000000e+000
      vertex  2.100000e+000  0.000000e+000  4.000000e+000
      vertex  9.330127e+000  6.000000e+000  4.000000e+000
    endloop
  endfacet
  facet normal  0.000000e+000  0.000000e+000  9.999999e-001
    outer loop
      vertex  5.000000e+000  8.500000e+000  4.000000e+000
      vertex  9.330127e+000  6.000000e+000  4.000000e+000
      vertex  7.500000e+000  7.830127e+000  4.000000e+000
    endloop
  endfacet
  facet normal  -0.000000e+000  0.000000e+000  1.000000e+000
    outer loop
      vertex  2.100000e+000  0.000000e+000  4.000000e+000
      vertex  1.484924e+000 -1.484924e+000  4.000000e+000
      vertex  5.000000e+000 -8.500000e+000  4.000000e+000
    endloop
  endfacet
  facet normal  0.000000e+000  -0.000000e+000  1.000000e+000
    outer loop
      vertex  2.100000e+000  0.000000e+000  4.000000e+000
      vertex  5.000000e+000 -8.500000e+000  4.000000e+000
      vertex  7.500000e+000 -7.830127e+000  4.000000e+000
    endloop
  endfacet
  facet normal  0.000000e+000  -0.000000e+000  1.000000e+000
    outer loop
      vertex  2.100000e+000  0.000000e+000  4.000000e+000
      vertex  7.500000e+000 -7.830127e+000  4.000000e+000
      vertex  9.330127e+000 -6.000000e+000  4.000000e+000
    endloop
  endfacet
  facet normal  0.000000e+000  -0.000000e+000  1.000000e+000
    outer loop
      vertex  2.100000e+000  0.000000e+000  4.000000e+000
      vertex  9.330127e+000 -6.000000e+000  4.000000e+000
      vertex  1.000000e+001 -3.500000e+000  4.000000e+000
    endloop
  endfacet
  facet normal  0.000000e+000  -0.000000e+000  1.000000e+000
    outer loop
      vertex  2.100000e+000  0.000000e+000  4.000000e+000
      vertex  1.000000e+001 -3.500000e+000  4.000000e+000
      vertex  1.000000e+001  3.500000e+000  4.000000e+000
    endloop
  endfacet
  facet normal  0.000000e+000  0.000000e+000  1.000000e+000
    outer loop
      vertex  2.100000e+000  0.000000e+000  4.000000e+000
      vertex  1.000000e+001  3.500000e+000  4.000000e+000
      vertex  9.330127e+000  6.000000e+000  4.000000e+000
    endloop
  endfacet
  facet normal  0.000000e+000  0.000000e+000  1.000000e+000
    outer loop
      vertex -1.039604e+001 -8.500000e+000  4.000000e+000
      vertex  5.000000e+000 -8.500000e+000  4.000000e+000
      vertex  1.484924e+000 -1.484924e+000  4.000000e+000
    endloop
  endfacet
  facet normal  0.000000e+000  0.000000e+000  1.000000e+000
    outer loop
      vertex -1.039604e+001 -8.500000e+000  4.000000e+000
      vertex  1.484924e+000 -1.484924e+000  4.000000e+000
      vertex -2.250926e-015 -2.100000e+000  4.000000e+000
    endloop
  endfacet
  facet normal  0.000000e+000  0.000000e+000  1.000000e+000
    outer loop
      vertex -1.039604e+001 -8.500000e+000  4.000000e+000
      vertex -2.250926e-015 -2.100000e+000  4.000000e+000
      vertex -1.484924e+000 -1.484924e+000  4.000000e+000
    endloop
  endfacet
  facet normal  0.000000e+000  0.000000e+000  1.000000e+000
    outer loop
      vertex -1.039604e+001 -8.500000e+000  4.000000e+000
      vertex -1.484924e+000 -1.484924e+000  4.000000e+000
      vertex -2.100000e+000  2.571673e-016  4.000000e+000
    endloop
  endfacet
  facet normal  0.000000e+000  0.000000e+000  1.000000e+000
    outer loop
      vertex -1.039604e+001 -8.500000e+000  4.000000e+000
      vertex -2.100000e+000  2.571673e-016  4.000000e+000
      vertex -1.039604e+001  8.500000e+000  4.000000e+000
    endloop
  endfacet
  facet normal  0.000000e+000  -0.000000e+000  1.000000e+000
    outer loop
      vertex -1.039604e+001  8.500000e+000  4.000000e+000
      vertex -2.100000e+000  2.571673e-016  4.000000e+000
      vertex -1.484924e+000  1.484924e+000  4.000000e+000
    endloop
  endfacet
  facet normal  0.000000e+000  -0.000000e+000  1.000000e+000
    outer loop
      vertex -1.039604e+001  8.500000e+000  4.000000e+000
      vertex -1.484924e+000  1.484924e+000  4.000000e+000
      vertex  1.285837e-016  2.100000e+000  4.000000e+000
    endloop
  endfacet
  facet normal  -0.000000e+000  -0.000000e+000  1.000000e+000
    outer loop
      vertex -1.039604e+001  8.500000e+000  4.000000e+000
      vertex  1.285837e-016  2.100000e+000  4.000000e+000
      vertex  1.484924e+000  1.484924e+000  4.000000e+000
    endloop
  endfacet
  facet normal  9.659257e-001 -3.499420e-008  2.588196e-001
    outer loop
      vertex -1.911381e+001 -6.000000e+000  1.935295e+001
      vertex -1.864014e+001 -7.830127e+000  1.758519e+001
      vertex -1.928719e+001 -3.500000e+000  2.000000e+001
    endloop
  endfacet
  facet normal  9.659258e-001  6.829485e-007  2.588190e-001
    outer loop
      vertex -1.799309e+001  8.500000e+000  1.517037e+001
      vertex -1.864014e+001  7.830127e+000  1.758519e+001
      vertex -1.619159e+001  8.500000e+000  8.447085e+000
    endloop
  endfacet
  facet normal  9.659258e-001 -6.829485e-007  2.588190e-001
    outer loop
      vertex -1.619159e+001 -8.500000e+000  8.447085e+000
      vertex -1.864014e+001 -7.830127e+000  1.758519e+001
      vertex -1.799309e+001 -8.500000e+000  1.517037e+001
    endloop
  endfacet
  facet normal  9.659258e-001  4.219954e-007  2.588189e-001
    outer loop
      vertex -1.864014e+001 -7.830127e+000  1.758519e+001
      vertex -1.619159e+001 -8.500000e+000  8.447085e+000
      vertex -1.928719e+001 -3.500000e+000  2.000000e+001
    endloop
  endfacet
  facet normal  9.659258e-001  0.000000e+000  2.588190e-001
    outer loop
      vertex -1.928719e+001 -3.500000e+000  2.000000e+001
      vertex -1.619159e+001 -8.500000e+000  8.447085e+000
      vertex -1.619159e+001  8.500000e+000  8.447085e+000
    endloop
  endfacet
  facet normal  9.659258e-001  0.000000e+000  2.588191e-001
    outer loop
      vertex -1.928719e+001 -3.500000e+000  2.000000e+001
      vertex -1.619159e+001  8.500000e+000  8.447085e+000
      vertex -1.928719e+001  3.500000e+000  2.000000e+001
    endloop
  endfacet
  facet normal  9.659258e-001 -4.219954e-007  2.588189e-001
    outer loop
      vertex -1.928719e+001  3.500000e+000  2.000000e+001
      vertex -1.619159e+001  8.500000e+000  8.447085e+000
      vertex -1.864014e+001  7.830127e+000  1.758519e+001
    endloop
  endfacet
  facet normal  9.659257e-001  3.499420e-008  2.588196e-001
    outer loop
      vertex -1.928719e+001  3.500000e+000  2.000000e+001
      vertex -1.864014e+001  7.830127e+000  1.758519e+001
      vertex -1.911381e+001  6.000000e+000  1.935295e+001
    endloop
  endfacet
  facet normal -2.500001e-001 -2.588189e-001  9.330127e-001
    outer loop
      vertex -1.928719e+001 -3.500000e+000  2.000000e+001
      vertex -2.315089e+001 -3.500000e+000  1.896472e+001
      vertex -1.911381e+001 -6.000000e+000  1.935295e+001
    endloop
  endfacet
  facet normal -2.500001e-001 -2.588189e-001  9.330127e-001
    outer loop
      vertex -1.911381e+001 -6.000000e+000  1.935295e+001
      vertex -2.315089e+001 -3.500000e+000  1.896472e+001
      vertex -2.297751e+001 -6.000000e+000  1.831768e+001
    endloop
  endfacet
  facet normal -1.830128e-001 -7.071068e-001  6.830127e-001
    outer loop
      vertex -1.911381e+001 -6.000000e+000  1.935295e+001
      vertex -2.297751e+001 -6.000000e+000  1.831768e+001
      vertex -1.864014e+001 -7.830127e+000  1.758519e+001
    endloop
  endfacet
  facet normal -1.830127e-001 -7.071067e-001  6.830128e-001
    outer loop
      vertex -1.864014e+001 -7.830127e+000  1.758519e+001
      vertex -2.297751e+001 -6.000000e+000  1.831768e+001
      vertex -2.250384e+001 -7.830127e+000  1.654991e+001
    endloop
  endfacet
  facet normal -6.698726e-002 -9.659259e-001  2.499999e-001
    outer loop
      vertex -1.864014e+001 -7.830127e+000  1.758519e+001
      vertex -2.250384e+001 -7.830127e+000  1.654991e+001
      vertex -1.799309e+001 -8.500000e+000  1.517037e+001
    endloop
  endfacet
  facet normal -6.698728e-002 -9.659259e-001  2.499998e-001
    outer loop
      vertex -1.799309e+001 -8.500000e+000  1.517037e+001
      vertex -2.250384e+001 -7.830127e+000  1.654991e+001
      vertex -2.185679e+001 -8.500000e+000  1.413509e+001
    endloop
  endfacet
  facet normal -2.588191e-001  0.000000e+000  9.659258e-001
    outer loop
      vertex -2.315089e+001  3.500000e+000  1.896472e+001
      vertex -2.315089e+001 -3.500000e+000  1.896472e+001
      vertex -1.928719e+001  3.500000e+000  2.000000e+001
    endloop
  endfacet
  facet normal -2.588191e-001  0.000000e+000  9.659258e-001
    outer loop
      vertex -1.928719e+001  3.500000e+000  2.000000e+001
      vertex -2.315089e+001 -3.500000e+000  1.896472e+001
      vertex -1.928719e+001 -3.500000e+000  2.000000e+001
    endloop
  endfacet
  facet normal -6.698729e-002  9.659259e-001  2.499999e-001
    outer loop
      vertex -1.799309e+001  8.500000e+000  1.517037e+001
      vertex -2.185679e+001  8.500000e+000  1.413509e+001
      vertex -1.864014e+001  7.830127e+000  1.758519e+001
    endloop
  endfacet
  facet normal -6.698725e-002  9.659259e-001  2.499999e-001
    outer loop
      vertex -1.864014e+001  7.830127e+000  1.758519e+001
      vertex -2.185679e+001  8.500000e+000  1.413509e+001
      vertex -2.250384e+001  7.830127e+000  1.654991e+001
    endloop
  endfacet
  facet normal -1.830127e-001  7.071068e-001  6.830127e-001
    outer loop
      vertex -1.864014e+001  7.830127e+000  1.758519e+001
      vertex -2.250384e+001  7.830127e+000  1.654991e+001
      vertex -1.911381e+001  6.000000e+000  1.935295e+001
    endloop
  endfacet
  facet normal -1.830128e-001  7.071067e-001  6.830128e-001
    outer loop
      vertex -1.911381e+001  6.000000e+000  1.935295e+001
      vertex -2.250384e+001  7.830127e+000  1.654991e+001
      vertex -2.297751e+001  6.000000e+000  1.831768e+001
    endloop
  endfacet
  facet normal -2.500001e-001  2.588189e-001  9.330127e-001
    outer loop
      vertex -1.911381e+001  6.000000e+000  1.935295e+001
      vertex -2.297751e+001  6.000000e+000  1.831768e+001
      vertex -1.928719e+001  3.500000e+000  2.000000e+001
    endloop
  endfacet
  facet normal -2.500001e-001  2.588189e-001  9.330127e-001
    outer loop
      vertex -1.928719e+001  3.500000e+000  2.000000e+001
      vertex -2.297751e+001  6.000000e+000  1.831768e+001
      vertex -2.315089e+001  3.500000e+000  1.896472e+001
    endloop
  endfacet
  facet normal  0.000000e+000  1.000000e+000  0.000000e+000
    outer loop
      vertex -2.185679e+001  8.500000e+000  1.413509e+001
      vertex -1.799309e+001  8.500000e+000  1.517037e+001
      vertex -2.005530e+001  8.500000e+000  7.411809e+000
    endloop
  endfacet
  facet normal  0.000000e+000  1.000000e+000  0.000000e+000
    outer loop
      vertex -2.005530e+001  8.500000e+000  7.411809e+000
      vertex -1.799309e+001  8.500000e+000  1.517037e+001
      vertex -1.619159e+001  8.500000e+000  8.447085e+000
    endloop
  endfacet
  facet normal -9.659257e-001  -0.000000e+000 -2.588195e-001
    outer loop
      vertex -2.315089e+001 -3.500000e+000  1.896472e+001
      vertex -2.315089e+001  3.500000e+000  1.896472e+001
      vertex -2.297751e+001 -6.000000e+000  1.831768e+001
    endloop
  endfacet
  facet normal -9.659256e-001  0.000000e+000 -2.588195e-001
    outer loop
      vertex -2.297751e+001 -6.000000e+000  1.831768e+001
      vertex -2.315089e+001  3.500000e+000  1.896472e+001
      vertex -2.297751e+001  6.000000e+000  1.831768e+001
    endloop
  endfacet
  facet normal -9.659259e-001  -0.000000e+000 -2.588187e-001
    outer loop
      vertex -2.297751e+001 -6.000000e+000  1.831768e+001
      vertex -2.297751e+001  6.000000e+000  1.831768e+001
      vertex -2.250384e+001 -7.830127e+000  1.654991e+001
    endloop
  endfacet
  facet normal -9.659259e-001  0.000000e+000 -2.588186e-001
    outer loop
      vertex -2.250384e+001 -7.830127e+000  1.654991e+001
      vertex -2.297751e+001  6.000000e+000  1.831768e+001
      vertex -2.250384e+001  7.830127e+000  1.654991e+001
    endloop
  endfacet
  facet normal -9.659257e-001  -0.000000e+000 -2.588195e-001
    outer loop
      vertex -2.250384e+001 -7.830127e+000  1.654991e+001
      vertex -2.250384e+001  7.830127e+000  1.654991e+001
      vertex -2.185679e+001 -8.500000e+000  1.413509e+001
    endloop
  endfacet
  facet normal -9.659257e-001  0.000000e+000 -2.588195e-001
    outer loop
      vertex -2.185679e+001 -8.500000e+000  1.413509e+001
      vertex -2.250384e+001  7.830127e+000  1.654991e+001
      vertex -2.185679e+001  8.500000e+000  1.413509e+001
    endloop
  endfacet
  facet normal -9.659258e-001  -0.000000e+000 -2.588190e-001
    outer loop
      vertex -2.185679e+001 -8.500000e+000  1.413509e+001
      vertex -2.185679e+001  8.500000e+000  1.413509e+001
      vertex -2.005530e+001 -8.500000e+000  7.411809e+000
    endloop
  endfacet
  facet normal -9.659258e-001  0.000000e+000 -2.588190e-001
    outer loop
      vertex -2.005530e+001 -8.500000e+000  7.411809e+000
      vertex -2.185679e+001  8.500000e+000  1.413509e+001
      vertex -2.005530e+001  8.500000e+000  7.411809e+000
    endloop
  endfacet
  facet normal  0.000000e+000 -1.000000e+000  0.000000e+000
    outer loop
      vertex -2.185679e+001 -8.500000e+000  1.413509e+001
      vertex -2.005530e+001 -8.500000e+000  7.411809e+000
      vertex -1.799309e+001 -8.500000e+000  1.517037e+001
    endloop
  endfacet
  facet normal  0.000000e+000 -1.000000e+000  -0.000000e+000
    outer loop
      vertex -1.799309e+001 -8.500000e+000  1.517037e+001
      vertex -2.005530e+001 -8.500000e+000  7.411809e+000
      vertex -1.619159e+001 -8.500000e+000  8.447085e+000
    endloop
  endfacet
  facet normal  8.870108e-001  0.000000e+000  4.617487e-001
    outer loop
      vertex -1.499230e+001 -8.500000e+000  6.143274e+000
      vertex -1.619159e+001  8.500000e+000  8.447085e+000
      vertex -1.619159e+001 -8.500000e+000  8.447085e+000
    endloop
  endfacet
  facet normal  8.870108e-001  -0.000000e+000  4.617487e-001
    outer loop
      vertex -1.619159e+001  8.500000e+000  8.447085e+000
      vertex -1.499230e+001 -8.500000e+000  6.143274e+000
      vertex -1.499230e+001  8.500000e+000  6.143274e+000
    endloop
  endfacet
  facet normal  6.087614e-001  0.000000e+000  7.933534e-001
    outer loop
      vertex -1.499230e+001  8.500000e+000  6.143274e+000
      vertex -1.499230e+001 -8.500000e+000  6.143274e+000
      vertex -1.293175e+001 -8.500000e+000  4.562153e+000
    endloop
  endfacet
  facet normal  6.087614e-001  -0.000000e+000  7.933534e-001
    outer loop
      vertex -1.499230e+001  8.500000e+000  6.143274e+000
      vertex -1.293175e+001 -8.500000e+000  4.562153e+000
      vertex -1.293175e+001  8.500000e+000  4.562153e+000
    endloop
  endfacet
  facet normal  2.164396e-001  0.000000e+000  9.762959e-001
    outer loop
      vertex -1.293175e+001  8.500000e+000  4.562153e+000
      vertex -1.293175e+001 -8.500000e+000  4.562153e+000
      vertex -1.039604e+001 -8.500000e+000  4.000000e+000
    endloop
  endfacet
  facet normal  2.164396e-001  -0.000000e+000  9.762959e-001
    outer loop
      vertex -1.293175e+001  8.500000e+000  4.562153e+000
      vertex -1.039604e+001 -8.500000e+000  4.000000e+000
      vertex -1.039604e+001  8.500000e+000  4.000000e+000
    endloop
  endfacet
  facet normal  0.000000e+000 -1.000000e+000  -0.000000e+000
    outer loop
      vertex -1.293175e+001 -8.500000e+000  4.562153e+000
      vertex -1.499230e+001 -8.500000e+000  6.143274e+000
      vertex -1.871073e+001 -8.500000e+000  4.444298e+000
    endloop
  endfacet
  facet normal  0.000000e+000 -1.000000e+000  0.000000e+000
    outer loop
      vertex -1.871073e+001 -8.500000e+000  4.444298e+000
      vertex -1.499230e+001 -8.500000e+000  6.143274e+000
      vertex -1.619159e+001 -8.500000e+000  8.447085e+000
    endloop
  endfacet
  facet normal  0.000000e+000 -1.000000e+000  0.000000e+000
    outer loop
      vertex -1.871073e+001 -8.500000e+000  4.444298e+000
      vertex -1.619159e+001 -8.500000e+000  8.447085e+000
      vertex -2.005530e+001 -8.500000e+000  7.411809e+000
    endloop
  endfacet
  facet normal  0.000000e+000 -1.000000e+000  0.000000e+000
    outer loop
      vertex -1.871073e+001 -8.500000e+000  4.444298e+000
      vertex -1.648365e+001 -8.500000e+000  2.066467e+000
      vertex -1.293175e+001 -8.500000e+000  4.562153e+000
    endloop
  endfacet
  facet normal  0.000000e+000 -1.000000e+000  -0.000000e+000
    outer loop
      vertex -1.293175e+001 -8.500000e+000  4.562153e+000
      vertex -1.648365e+001 -8.500000e+000  2.066467e+000
      vertex -1.039604e+001 -8.500000e+000  4.000000e+000
    endloop
  endfacet
  facet normal  0.000000e+000 -9.999999e-001  0.000000e+000
    outer loop
      vertex -1.648365e+001 -8.500000e+000  2.066467e+000
      vertex -1.361043e+001 -8.500000e+000  5.306987e-001
      vertex -1.039604e+001 -8.500000e+000  4.000000e+000
    endloop
  endfacet
  facet normal  0.000000e+000 -1.000000e+000  -0.000000e+000
    outer loop
      vertex -1.039604e+001 -8.500000e+000  4.000000e+000
      vertex -1.361043e+001 -8.500000e+000  5.306987e-001
      vertex -1.039604e+001 -8.500000e+000  0.000000e+000
    endloop
  endfacet
  facet normal -9.108638e-001  -0.000000e+000 -4.127072e-001
    outer loop
      vertex -2.005530e+001 -8.500000e+000  7.411809e+000
      vertex -2.005530e+001  8.500000e+000  7.411809e+000
      vertex -1.871073e+001 -8.500000e+000  4.444298e+000
    endloop
  endfacet
  facet normal -9.108638e-001  0.000000e+000 -4.127072e-001
    outer loop
      vertex -1.871073e+001 -8.500000e+000  4.444298e+000
      vertex -2.005530e+001  8.500000e+000  7.411809e+000
      vertex -1.871073e+001  8.500000e+000  4.444298e+000
    endloop
  endfacet
  facet normal -7.298641e-001  -0.000000e+000 -6.835921e-001
    outer loop
      vertex -1.871073e+001 -8.500000e+000  4.444298e+000
      vertex -1.871073e+001  8.500000e+000  4.444298e+000
      vertex -1.648365e+001 -8.500000e+000  2.066467e+000
    endloop
  endfacet
  facet normal -7.298641e-001  0.000000e+000 -6.835921e-001
    outer loop
      vertex -1.648365e+001 -8.500000e+000  2.066467e+000
      vertex -1.871073e+001  8.500000e+000  4.444298e+000
      vertex -1.648365e+001  8.500000e+000  2.066467e+000
    endloop
  endfacet
  facet normal -4.713967e-001  -0.000000e+000 -8.819212e-001
    outer loop
      vertex -1.648365e+001 -8.500000e+000  2.066467e+000
      vertex -1.648365e+001  8.500000e+000  2.066467e+000
      vertex -1.361043e+001 -8.500000e+000  5.306987e-001
    endloop
  endfacet
  facet normal -4.713967e-001  0.000000e+000 -8.819212e-001
    outer loop
      vertex -1.361043e+001 -8.500000e+000  5.306987e-001
      vertex -1.648365e+001  8.500000e+000  2.066467e+000
      vertex -1.361043e+001  8.500000e+000  5.306987e-001
    endloop
  endfacet
  facet normal -1.628955e-001  -0.000000e+000 -9.866433e-001
    outer loop
      vertex -1.361043e+001 -8.500000e+000  5.306987e-001
      vertex -1.361043e+001  8.500000e+000  5.306987e-001
      vertex -1.039604e+001 -8.500000e+000  0.000000e+000
    endloop
  endfacet
  facet normal -1.628955e-001  0.000000e+000 -9.866433e-001
    outer loop
      vertex -1.039604e+001 -8.500000e+000  0.000000e+000
      vertex -1.361043e+001  8.500000e+000  5.306987e-001
      vertex -1.039604e+001  8.500000e+000  0.000000e+000
    endloop
  endfacet
  facet normal  0.000000e+000  1.000000e+000  0.000000e+000
    outer loop
      vertex -2.005530e+001  8.500000e+000  7.411809e+000
      vertex -1.619159e+001  8.500000e+000  8.447085e+000
      vertex -1.871073e+001  8.500000e+000  4.444298e+000
    endloop
  endfacet
  facet normal  0.000000e+000  1.000000e+000  0.000000e+000
    outer loop
      vertex -1.871073e+001  8.500000e+000  4.444298e+000
      vertex -1.619159e+001  8.500000e+000  8.447085e+000
      vertex -1.499230e+001  8.500000e+000  6.143274e+000
    endloop
  endfacet
  facet normal  0.000000e+000  1.000000e+000  0.000000e+000
    outer loop
      vertex -1.871073e+001  8.500000e+000  4.444298e+000
      vertex -1.499230e+001  8.500000e+000  6.143274e+000
      vertex -1.293175e+001  8.500000e+000  4.562153e+000
    endloop
  endfacet
  facet normal  0.000000e+000  1.000000e+000  0.000000e+000
    outer loop
      vertex -1.871073e+001  8.500000e+000  4.444298e+000
      vertex -1.293175e+001  8.500000e+000  4.562153e+000
      vertex -1.648365e+001  8.500000e+000  2.066467e+000
    endloop
  endfacet
  facet normal  0.000000e+000  1.000000e+000  0.000000e+000
    outer loop
      vertex -1.648365e+001  8.500000e+000  2.066467e+000
      vertex -1.293175e+001  8.500000e+000  4.562153e+000
      vertex -1.039604e+001  8.500000e+000  4.000000e+000
    endloop
  endfacet
  facet normal  0.000000e+000  9.999999e-001  0.000000e+000
    outer loop
      vertex -1.648365e+001  8.500000e+000  2.066467e+000
      vertex -1.039604e+001  8.500000e+000  4.000000e+000
      vertex -1.361043e+001  8.500000e+000  5.306987e-001
    endloop
  endfacet
  facet normal  -0.000000e+000  1.000000e+000  0.000000e+000
    outer loop
      vertex -1.361043e+001  8.500000e+000  5.306987e-001
      vertex -1.039604e+001  8.500000e+000  4.000000e+000
      vertex -1.039604e+001  8.500000e+000  0.000000e+000
    endloop
  endfacet
  facet normal -3.826834e-001  9.238795e-001  0.000000e+000
    outer loop
      vertex -2.250926e-015 -2.100000e+000  0.000000e+000
      vertex  1.484924e+000 -1.484924e+000  4.000000e+000
      vertex  1.484924e+000 -1.484924e+000  0.000000e+000
    endloop
  endfacet
  facet normal -9.238795e-001  3.826834e-001  0.000000e+000
    outer loop
      vertex  1.484924e+000 -1.484924e+000  0.000000e+000
      vertex  1.484924e+000 -1.484924e+000  4.000000e+000
      vertex  2.100000e+000  0.000000e+000  4.000000e+000
    endloop
  endfacet
  facet normal -9.238795e-001  3.826834e-001  0.000000e+000
    outer loop
      vertex  1.484924e+000 -1.484924e+000  0.000000e+000
      vertex  2.100000e+000  0.000000e+000  4.000000e+000
      vertex  2.100000e+000  0.000000e+000  0.000000e+000
    endloop
  endfacet
  facet normal -3.826834e-001  9.238795e-001  0.000000e+000
    outer loop
      vertex  1.484924e+000 -1.484924e+000  4.000000e+000
      vertex -2.250926e-015 -2.100000e+000  0.000000e+000
      vertex -2.250926e-015 -2.100000e+000  4.000000e+000
    endloop
  endfacet
  facet normal  3.826834e-001  9.238795e-001  0.000000e+000
    outer loop
      vertex -2.250926e-015 -2.100000e+000  4.000000e+000
      vertex -2.250926e-015 -2.100000e+000  0.000000e+000
      vertex -1.484924e+000 -1.484924e+000  0.000000e+000
    endloop
  endfacet
  facet normal  3.826834e-001  9.238795e-001  -0.000000e+000
    outer loop
      vertex -2.250926e-015 -2.100000e+000  4.000000e+000
      vertex -1.484924e+000 -1.484924e+000  0.000000e+000
      vertex -1.484924e+000 -1.484924e+000  4.000000e+000
    endloop
  endfacet
  facet normal  9.238795e-001  3.826834e-001  0.000000e+000
    outer loop
      vertex -1.484924e+000 -1.484924e+000  4.000000e+000
      vertex -1.484924e+000 -1.484924e+000  0.000000e+000
      vertex -2.100000e+000  2.571673e-016  0.000000e+000
    endloop
  endfacet
  facet normal  9.238795e-001  3.826834e-001  -0.000000e+000
    outer loop
      vertex -1.484924e+000 -1.484924e+000  4.000000e+000
      vertex -2.100000e+000  2.571673e-016  0.000000e+000
      vertex -2.100000e+000  2.571673e-016  4.000000e+000
    endloop
  endfacet
  facet normal  3.826834e-001 -9.238795e-001  0.000000e+000
    outer loop
      vertex  1.285837e-016  2.100000e+000  0.000000e+000
      vertex -1.484924e+000  1.484924e+000  4.000000e+000
      vertex -1.484924e+000  1.484924e+000  0.000000e+000
    endloop
  endfacet
  facet normal  9.238795e-001 -3.826834e-001  0.000000e+000
    outer loop
      vertex -1.484924e+000  1.484924e+000  0.000000e+000
      vertex -1.484924e+000  1.484924e+000  4.000000e+000
      vertex -2.100000e+000  2.571673e-016  4.000000e+000
    endloop
  endfacet
  facet normal  9.238795e-001 -3.826834e-001  0.000000e+000
    outer loop
      vertex -1.484924e+000  1.484924e+000  0.000000e+000
      vertex -2.100000e+000  2.571673e-016  4.000000e+000
      vertex -2.100000e+000  2.571673e-016  0.000000e+000
    endloop
  endfacet
  facet normal  3.826834e-001 -9.238795e-001  0.000000e+000
    outer loop
      vertex -1.484924e+000  1.484924e+000  4.000000e+000
      vertex  1.285837e-016  2.100000e+000  0.000000e+000
      vertex  1.285837e-016  2.100000e+000  4.000000e+000
    endloop
  endfacet
  facet normal -3.826834e-001 -9.238795e-001  -0.000000e+000
    outer loop
      vertex  1.285837e-016  2.100000e+000  4.000000e+000
      vertex  1.285837e-016  2.100000e+000  0.000000e+000
      vertex  1.484924e+000  1.484924e+000  0.000000e+000
    endloop
  endfacet
  facet normal -3.826834e-001 -9.238795e-001  0.000000e+000
    outer loop
      vertex  1.285837e-016  2.100000e+000  4.000000e+000
      vertex  1.484924e+000  1.484924e+000  0.000000e+000
      vertex  1.484924e+000  1.484924e+000  4.000000e+000
    endloop
  endfacet
  facet normal -9.238795e-001 -3.826834e-001  -0.000000e+000
    outer loop
      vertex  1.484924e+000  1.484924e+000  4.000000e+000
      vertex  1.484924e+000  1.484924e+000  0.000000e+000
      vertex  2.100000e+000  0.000000e+000  0.000000e+000
    endloop
  endfacet
  facet normal -9.238795e-001 -3.826834e-001  0.000000e+000
    outer loop
      vertex  1.484924e+000  1.484924e+000  4.000000e+000
      vertex  2.100000e+000  0.000000e+000  0.000000e+000
      vertex  2.100000e+000  0.000000e+000  4.000000e+000
    endloop
  endfacet
endsolid CATIA STL
