solid CATIA STL
  facet normal  0.000000e+000  1.000000e+000  0.000000e+000
    outer loop
      vertex -8.000000e+000 -3.700000e+001  6.000000e+001
      vertex -6.081560e+000 -3.700000e+001  2.332870e+001
      vertex -1.050000e+001 -3.700000e+001  5.933013e+001
    endloop
  endfacet
  facet normal  0.000000e+000  9.999999e-001  0.000000e+000
    outer loop
      vertex  9.942354e+001 -3.700000e+001  3.334244e+000
      vertex  9.608156e+001 -3.700000e+001  6.671302e+000
      vertex  1.017824e+002 -3.700000e+001  5.757486e+000
    endloop
  endfacet
  facet normal  0.000000e+000  1.000000e+000  0.000000e+000
    outer loop
      vertex  6.235835e+001 -3.700000e+001  3.077793e+000
      vertex  6.000959e+001 -3.700000e+001  4.903309e+000
      vertex  7.300000e+001 -3.700000e+001 -4.500000e+000
    endloop
  endfacet
  facet normal  0.000000e+000  1.000000e+000  0.000000e+000
    outer loop
      vertex  3.043057e+000 -3.700000e+001  9.408314e+000
      vertex  2.564767e+001 -3.700000e+001  8.581544e+000
      vertex  2.404391e+001 -3.700000e+001  7.839743e+000
    endloop
  endfacet
  facet normal  0.000000e+000  1.000000e+000  -0.000000e+000
    outer loop
      vertex -6.081560e+000 -3.700000e+001  1.667130e+001
      vertex -1.093162e+001 -3.700000e+001  1.463196e+001
      vertex -1.246502e+001 -3.700000e+001  1.712363e+001
    endloop
  endfacet
  facet normal  0.000000e+000  1.000000e+000  -0.000000e+000
    outer loop
      vertex  1.314657e+001 -3.700000e+001  2.093452e-001
      vertex  1.168731e+001 -3.700000e+001 -3.217827e-001
      vertex  1.015798e+001 -3.700000e+001 -5.212201e-002
    endloop
  endfacet
  facet normal  0.000000e+000  1.000000e+000  -0.000000e+000
    outer loop
      vertex  1.314657e+001 -3.700000e+001  2.093452e-001
      vertex  1.015798e+001 -3.700000e+001 -5.212201e-002
      vertex  8.968383e+000 -3.700000e+001  9.460720e-001
    endloop
  endfacet
  facet normal  -0.000000e+000  9.999999e-001  -0.000000e+000
    outer loop
      vertex  1.314657e+001 -3.700000e+001  2.093452e-001
      vertex  8.968383e+000 -3.700000e+001  9.460720e-001
      vertex  3.043057e+000 -3.700000e+001  9.408314e+000
    endloop
  endfacet
  facet normal  0.000000e+000  9.999999e-001  0.000000e+000
    outer loop
      vertex  1.314657e+001 -3.700000e+001  2.093452e-001
      vertex  3.043057e+000 -3.700000e+001  9.408314e+000
      vertex  2.404391e+001 -3.700000e+001  7.839743e+000
    endloop
  endfacet
  facet normal  0.000000e+000  1.000000e+000  -0.000000e+000
    outer loop
      vertex  2.740931e+001 -3.700000e+001  8.719169e+000
      vertex  2.564767e+001 -3.700000e+001  8.581544e+000
      vertex  3.043057e+000 -3.700000e+001  9.408314e+000
    endloop
  endfacet
  facet normal  -0.000000e+000  1.000000e+000  -0.000000e+000
    outer loop
      vertex  2.740931e+001 -3.700000e+001  8.719169e+000
      vertex  3.043057e+000 -3.700000e+001  9.408314e+000
      vertex  1.474100e+000 -3.700000e+001  1.085497e+001
    endloop
  endfacet
  facet normal  -0.000000e+000  1.000000e+000  -0.000000e+000
    outer loop
      vertex  2.740931e+001 -3.700000e+001  8.719169e+000
      vertex  1.474100e+000 -3.700000e+001  1.085497e+001
      vertex -5.551846e-001 -3.700000e+001  1.151562e+001
    endloop
  endfacet
  facet normal  -0.000000e+000  1.000000e+000  -0.000000e+000
    outer loop
      vertex  2.740931e+001 -3.700000e+001  8.719169e+000
      vertex -5.551846e-001 -3.700000e+001  1.151562e+001
      vertex -3.918441e+000 -3.700000e+001  1.667130e+001
    endloop
  endfacet
  facet normal  0.000000e+000  1.000000e+000  0.000000e+000
    outer loop
      vertex  2.740931e+001 -3.700000e+001  8.719169e+000
      vertex -3.918441e+000 -3.700000e+001  1.667130e+001
      vertex  5.715624e+001 -3.700000e+001  5.744475e+000
    endloop
  endfacet
  facet normal  0.000000e+000  1.000000e+000  0.000000e+000
    outer loop
      vertex  6.387775e+001 -3.700000e+001  5.203388e-001
      vertex  6.235835e+001 -3.700000e+001  3.077793e+000
      vertex  7.300000e+001 -3.700000e+001 -4.500000e+000
    endloop
  endfacet
  facet normal  0.000000e+000  1.000000e+000  0.000000e+000
    outer loop
      vertex  6.387775e+001 -3.700000e+001  5.203388e-001
      vertex  7.300000e+001 -3.700000e+001 -4.500000e+000
      vertex  7.123223e+001 -3.700000e+001 -5.232233e+000
    endloop
  endfacet
  facet normal  0.000000e+000  1.000000e+000  0.000000e+000
    outer loop
      vertex  6.387775e+001 -3.700000e+001  5.203388e-001
      vertex  7.123223e+001 -3.700000e+001 -5.232233e+000
      vertex  7.050000e+001 -3.700000e+001 -7.000000e+000
    endloop
  endfacet
  facet normal  0.000000e+000  1.000000e+000  0.000000e+000
    outer loop
      vertex  6.387775e+001 -3.700000e+001  5.203388e-001
      vertex  7.050000e+001 -3.700000e+001 -7.000000e+000
      vertex  6.736185e+001 -3.700000e+001 -9.052121e+000
    endloop
  endfacet
  facet normal  0.000000e+000  1.000000e+000  -0.000000e+000
    outer loop
      vertex  7.631766e+001 -3.700000e+001 -1.199932e+001
      vertex  7.380151e+001 -3.700000e+001 -1.294622e+001
      vertex  7.300000e+001 -3.700000e+001 -9.500000e+000
    endloop
  endfacet
  facet normal  -0.000000e+000  1.000000e+000  0.000000e+000
    outer loop
      vertex  7.631766e+001 -3.700000e+001 -1.199932e+001
      vertex  7.300000e+001 -3.700000e+001 -9.500000e+000
      vertex  7.476777e+001 -3.700000e+001 -8.767767e+000
    endloop
  endfacet
  facet normal  -0.000000e+000  1.000000e+000  0.000000e+000
    outer loop
      vertex  7.631766e+001 -3.700000e+001 -1.199932e+001
      vertex  7.476777e+001 -3.700000e+001 -8.767767e+000
      vertex  7.550000e+001 -3.700000e+001 -7.000000e+000
    endloop
  endfacet
  facet normal  -0.000000e+000  9.999999e-001  0.000000e+000
    outer loop
      vertex  5.715624e+001 -3.700000e+001  5.744475e+000
      vertex -3.918441e+000 -3.700000e+001  1.667130e+001
      vertex -2.168441e+000 -3.700000e+001  1.794275e+001
    endloop
  endfacet
  facet normal  -0.000000e+000  1.000000e+000  0.000000e+000
    outer loop
      vertex  5.715624e+001 -3.700000e+001  5.744475e+000
      vertex -2.168441e+000 -3.700000e+001  1.794275e+001
      vertex -1.500000e+000 -3.700000e+001  2.000000e+001
    endloop
  endfacet
  facet normal  -0.000000e+000  1.000000e+000  -0.000000e+000
    outer loop
      vertex  5.715624e+001 -3.700000e+001  5.744475e+000
      vertex -1.500000e+000 -3.700000e+001  2.000000e+001
      vertex -2.168441e+000 -3.700000e+001  2.205725e+001
    endloop
  endfacet
  facet normal  -0.000000e+000  9.999999e-001  -0.000000e+000
    outer loop
      vertex  5.715624e+001 -3.700000e+001  5.744475e+000
      vertex -2.168441e+000 -3.700000e+001  2.205725e+001
      vertex -3.918441e+000 -3.700000e+001  2.332870e+001
    endloop
  endfacet
  facet normal  0.000000e+000  1.000000e+000  -0.000000e+000
    outer loop
      vertex -3.918441e+000 -3.700000e+001  2.332870e+001
      vertex -6.081560e+000 -3.700000e+001  2.332870e+001
      vertex -8.000000e+000 -3.700000e+001  6.000000e+001
    endloop
  endfacet
  facet normal  -0.000000e+000  1.000000e+000  0.000000e+000
    outer loop
      vertex -3.918441e+000 -3.700000e+001  2.332870e+001
      vertex -8.000000e+000 -3.700000e+001  6.000000e+001
      vertex  4.500000e+001 -3.700000e+001  6.000000e+001
    endloop
  endfacet
  facet normal  0.000000e+000  9.999999e-001  0.000000e+000
    outer loop
      vertex -3.918441e+000 -3.700000e+001  2.332870e+001
      vertex  4.500000e+001 -3.700000e+001  6.000000e+001
      vertex  5.061016e+001 -3.700000e+001  4.656039e+001
    endloop
  endfacet
  facet normal  0.000000e+000  1.000000e+000  0.000000e+000
    outer loop
      vertex -3.918441e+000 -3.700000e+001  2.332870e+001
      vertex  5.061016e+001 -3.700000e+001  4.656039e+001
      vertex  5.236618e+001 -3.700000e+001  4.354053e+001
    endloop
  endfacet
  facet normal  0.000000e+000  1.000000e+000  0.000000e+000
    outer loop
      vertex -3.918441e+000 -3.700000e+001  2.332870e+001
      vertex  5.236618e+001 -3.700000e+001  4.354053e+001
      vertex  5.505377e+001 -3.700000e+001  4.130892e+001
    endloop
  endfacet
  facet normal  0.000000e+000  1.000000e+000  0.000000e+000
    outer loop
      vertex -3.918441e+000 -3.700000e+001  2.332870e+001
      vertex  5.505377e+001 -3.700000e+001  4.130892e+001
      vertex  5.834496e+001 -3.700000e+001  4.013791e+001
    endloop
  endfacet
  facet normal  0.000000e+000  1.000000e+000  0.000000e+000
    outer loop
      vertex  9.391844e+001 -3.700000e+001  6.671302e+000
      vertex  9.608156e+001 -3.700000e+001  6.671302e+000
      vertex  9.942354e+001 -3.700000e+001  3.334244e+000
    endloop
  endfacet
  facet normal  0.000000e+000  9.999999e-001  0.000000e+000
    outer loop
      vertex  9.391844e+001 -3.700000e+001  6.671302e+000
      vertex  9.942354e+001 -3.700000e+001  3.334244e+000
      vertex  7.631766e+001 -3.700000e+001 -1.199932e+001
    endloop
  endfacet
  facet normal  0.000000e+000  1.000000e+000  -0.000000e+000
    outer loop
      vertex  9.391844e+001 -3.700000e+001  6.671302e+000
      vertex  7.631766e+001 -3.700000e+001 -1.199932e+001
      vertex  7.550000e+001 -3.700000e+001 -7.000000e+000
    endloop
  endfacet
  facet normal  0.000000e+000  1.000000e+000  -0.000000e+000
    outer loop
      vertex  9.391844e+001 -3.700000e+001  6.671302e+000
      vertex  7.550000e+001 -3.700000e+001 -7.000000e+000
      vertex  7.476777e+001 -3.700000e+001 -5.232233e+000
    endloop
  endfacet
  facet normal  0.000000e+000  1.000000e+000  -0.000000e+000
    outer loop
      vertex  9.391844e+001 -3.700000e+001  6.671302e+000
      vertex  7.476777e+001 -3.700000e+001 -5.232233e+000
      vertex  7.300000e+001 -3.700000e+001 -4.500000e+000
    endloop
  endfacet
  facet normal  0.000000e+000  1.000000e+000  0.000000e+000
    outer loop
      vertex  8.026624e+001 -3.700000e+001  3.898731e+001
      vertex  1.010206e+002 -3.700000e+001  1.526804e+001
      vertex  9.391844e+001 -3.700000e+001  1.332870e+001
    endloop
  endfacet
  facet normal  0.000000e+000  1.000000e+000  0.000000e+000
    outer loop
      vertex  8.026624e+001 -3.700000e+001  3.898731e+001
      vertex  9.391844e+001 -3.700000e+001  1.332870e+001
      vertex  9.216844e+001 -3.700000e+001  1.205725e+001
    endloop
  endfacet
  facet normal  0.000000e+000  1.000000e+000  0.000000e+000
    outer loop
      vertex  8.026624e+001 -3.700000e+001  3.898731e+001
      vertex  9.216844e+001 -3.700000e+001  1.205725e+001
      vertex  7.300000e+001 -3.700000e+001 -4.500000e+000
    endloop
  endfacet
  facet normal  0.000000e+000  1.000000e+000  0.000000e+000
    outer loop
      vertex  7.300000e+001 -3.700000e+001 -4.500000e+000
      vertex  9.216844e+001 -3.700000e+001  1.205725e+001
      vertex  9.150000e+001 -3.700000e+001  1.000000e+001
    endloop
  endfacet
  facet normal  0.000000e+000  1.000000e+000  0.000000e+000
    outer loop
      vertex  7.300000e+001 -3.700000e+001 -4.500000e+000
      vertex  9.150000e+001 -3.700000e+001  1.000000e+001
      vertex  9.216844e+001 -3.700000e+001  7.942751e+000
    endloop
  endfacet
  facet normal  0.000000e+000  1.000000e+000  0.000000e+000
    outer loop
      vertex  7.300000e+001 -3.700000e+001 -4.500000e+000
      vertex  9.216844e+001 -3.700000e+001  7.942751e+000
      vertex  9.391844e+001 -3.700000e+001  6.671302e+000
    endloop
  endfacet
  facet normal  -0.000000e+000  1.000000e+000  0.000000e+000
    outer loop
      vertex  7.300000e+001 -3.700000e+001 -4.500000e+000
      vertex  5.834496e+001 -3.700000e+001  4.013791e+001
      vertex  6.183812e+001 -3.700000e+001  4.017039e+001
    endloop
  endfacet
  facet normal  -0.000000e+000  1.000000e+000  0.000000e+000
    outer loop
      vertex  7.300000e+001 -3.700000e+001 -4.500000e+000
      vertex  6.183812e+001 -3.700000e+001  4.017039e+001
      vertex  6.510696e+001 -3.700000e+001  4.140239e+001
    endloop
  endfacet
  facet normal  -0.000000e+000  1.000000e+000  0.000000e+000
    outer loop
      vertex  7.300000e+001 -3.700000e+001 -4.500000e+000
      vertex  6.510696e+001 -3.700000e+001  4.140239e+001
      vertex  6.898075e+001 -3.700000e+001  4.287156e+001
    endloop
  endfacet
  facet normal  -0.000000e+000  9.999999e-001  0.000000e+000
    outer loop
      vertex  7.300000e+001 -3.700000e+001 -4.500000e+000
      vertex  6.898075e+001 -3.700000e+001  4.287156e+001
      vertex  7.312328e+001 -3.700000e+001  4.293581e+001
    endloop
  endfacet
  facet normal  0.000000e+000  1.000000e+000  0.000000e+000
    outer loop
      vertex  7.300000e+001 -3.700000e+001 -4.500000e+000
      vertex  7.312328e+001 -3.700000e+001  4.293581e+001
      vertex  7.704076e+001 -3.700000e+001  4.158749e+001
    endloop
  endfacet
  facet normal  0.000000e+000  1.000000e+000  0.000000e+000
    outer loop
      vertex  7.300000e+001 -3.700000e+001 -4.500000e+000
      vertex  7.704076e+001 -3.700000e+001  4.158749e+001
      vertex  8.026624e+001 -3.700000e+001  3.898731e+001
    endloop
  endfacet
  facet normal  0.000000e+000  1.000000e+000  0.000000e+000
    outer loop
      vertex  5.834496e+001 -3.700000e+001  4.013791e+001
      vertex  7.300000e+001 -3.700000e+001 -4.500000e+000
      vertex  6.000959e+001 -3.700000e+001  4.903309e+000
    endloop
  endfacet
  facet normal  0.000000e+000  1.000000e+000  0.000000e+000
    outer loop
      vertex  5.834496e+001 -3.700000e+001  4.013791e+001
      vertex  6.000959e+001 -3.700000e+001  4.903309e+000
      vertex  5.715624e+001 -3.700000e+001  5.744475e+000
    endloop
  endfacet
  facet normal  0.000000e+000  1.000000e+000  -0.000000e+000
    outer loop
      vertex  5.834496e+001 -3.700000e+001  4.013791e+001
      vertex  5.715624e+001 -3.700000e+001  5.744475e+000
      vertex -3.918441e+000 -3.700000e+001  2.332870e+001
    endloop
  endfacet
  facet normal  -0.000000e+000  1.000000e+000  0.000000e+000
    outer loop
      vertex  7.380151e+001 -3.700000e+001 -1.294622e+001
      vertex  7.112445e+001 -3.700000e+001 -1.269933e+001
      vertex  7.300000e+001 -3.700000e+001 -9.500000e+000
    endloop
  endfacet
  facet normal  0.000000e+000  1.000000e+000  0.000000e+000
    outer loop
      vertex  7.300000e+001 -3.700000e+001 -9.500000e+000
      vertex  7.112445e+001 -3.700000e+001 -1.269933e+001
      vertex  6.882394e+001 -3.700000e+001 -1.130820e+001
    endloop
  endfacet
  facet normal  0.000000e+000  9.999999e-001  0.000000e+000
    outer loop
      vertex  7.300000e+001 -3.700000e+001 -9.500000e+000
      vertex  6.882394e+001 -3.700000e+001 -1.130820e+001
      vertex  7.123223e+001 -3.700000e+001 -8.767767e+000
    endloop
  endfacet
  facet normal  0.000000e+000  1.000000e+000  0.000000e+000
    outer loop
      vertex  7.123223e+001 -3.700000e+001 -8.767767e+000
      vertex  6.882394e+001 -3.700000e+001 -1.130820e+001
      vertex  6.736185e+001 -3.700000e+001 -9.052121e+000
    endloop
  endfacet
  facet normal  0.000000e+000  1.000000e+000  0.000000e+000
    outer loop
      vertex  7.123223e+001 -3.700000e+001 -8.767767e+000
      vertex  6.736185e+001 -3.700000e+001 -9.052121e+000
      vertex  7.050000e+001 -3.700000e+001 -7.000000e+000
    endloop
  endfacet
  facet normal  0.000000e+000  1.000000e+000  0.000000e+000
    outer loop
      vertex -8.604895e+000 -3.700000e+001  1.285824e+001
      vertex -1.093162e+001 -3.700000e+001  1.463196e+001
      vertex -5.796030e+000 -3.700000e+001  1.203970e+001
    endloop
  endfacet
  facet normal  0.000000e+000  9.999999e-001  0.000000e+000
    outer loop
      vertex -5.796030e+000 -3.700000e+001  1.203970e+001
      vertex -1.093162e+001 -3.700000e+001  1.463196e+001
      vertex -6.081560e+000 -3.700000e+001  1.667130e+001
    endloop
  endfacet
  facet normal  0.000000e+000  1.000000e+000  0.000000e+000
    outer loop
      vertex -5.796030e+000 -3.700000e+001  1.203970e+001
      vertex -6.081560e+000 -3.700000e+001  1.667130e+001
      vertex -5.551846e-001 -3.700000e+001  1.151562e+001
    endloop
  endfacet
  facet normal  0.000000e+000  1.000000e+000  0.000000e+000
    outer loop
      vertex -5.551846e-001 -3.700000e+001  1.151562e+001
      vertex -6.081560e+000 -3.700000e+001  1.667130e+001
      vertex -3.918441e+000 -3.700000e+001  1.667130e+001
    endloop
  endfacet
  facet normal  0.000000e+000  1.000000e+000  0.000000e+000
    outer loop
      vertex  5.061016e+001 -3.700000e+001  4.656039e+001
      vertex  4.500000e+001 -3.700000e+001  6.000000e+001
      vertex  5.000000e+001 -3.700000e+001  5.000000e+001
    endloop
  endfacet
  facet normal  0.000000e+000  1.000000e+000  0.000000e+000
    outer loop
      vertex  5.000000e+001 -3.700000e+001  5.000000e+001
      vertex  4.500000e+001 -3.700000e+001  6.000000e+001
      vertex  4.750000e+001 -3.700000e+001  5.933013e+001
    endloop
  endfacet
  facet normal  0.000000e+000  1.000000e+000  0.000000e+000
    outer loop
      vertex  5.000000e+001 -3.700000e+001  5.000000e+001
      vertex  4.750000e+001 -3.700000e+001  5.933013e+001
      vertex  5.000000e+001 -3.700000e+001  5.500000e+001
    endloop
  endfacet
  facet normal  0.000000e+000  1.000000e+000  0.000000e+000
    outer loop
      vertex  5.000000e+001 -3.700000e+001  5.500000e+001
      vertex  4.750000e+001 -3.700000e+001  5.933013e+001
      vertex  4.933013e+001 -3.700000e+001  5.750000e+001
    endloop
  endfacet
  facet normal  0.000000e+000  9.999999e-001  0.000000e+000
    outer loop
      vertex -1.233013e+001 -3.700000e+001  5.750000e+001
      vertex -1.050000e+001 -3.700000e+001  5.933013e+001
      vertex -1.300000e+001 -3.700000e+001  5.500000e+001
    endloop
  endfacet
  facet normal  -0.000000e+000  1.000000e+000  0.000000e+000
    outer loop
      vertex -1.300000e+001 -3.700000e+001  5.500000e+001
      vertex -1.050000e+001 -3.700000e+001  5.933013e+001
      vertex -6.081560e+000 -3.700000e+001  2.332870e+001
    endloop
  endfacet
  facet normal  0.000000e+000  9.999999e-001  0.000000e+000
    outer loop
      vertex -1.300000e+001 -3.700000e+001  5.500000e+001
      vertex -6.081560e+000 -3.700000e+001  2.332870e+001
      vertex -1.300000e+001 -3.700000e+001  2.000000e+001
    endloop
  endfacet
  facet normal  0.000000e+000  1.000000e+000  0.000000e+000
    outer loop
      vertex -1.300000e+001 -3.700000e+001  2.000000e+001
      vertex -6.081560e+000 -3.700000e+001  2.332870e+001
      vertex -7.831560e+000 -3.700000e+001  2.205725e+001
    endloop
  endfacet
  facet normal  0.000000e+000  1.000000e+000  0.000000e+000
    outer loop
      vertex -1.300000e+001 -3.700000e+001  2.000000e+001
      vertex -7.831560e+000 -3.700000e+001  2.205725e+001
      vertex -8.500000e+000 -3.700000e+001  2.000000e+001
    endloop
  endfacet
  facet normal  -0.000000e+000  1.000000e+000  0.000000e+000
    outer loop
      vertex  1.029293e+002 -3.700000e+001  8.938837e+000
      vertex  9.850000e+001 -3.700000e+001  1.000000e+001
      vertex  1.026593e+002 -3.700000e+001  1.230981e+001
    endloop
  endfacet
  facet normal  0.000000e+000  1.000000e+000  0.000000e+000
    outer loop
      vertex  1.026593e+002 -3.700000e+001  1.230981e+001
      vertex  9.850000e+001 -3.700000e+001  1.000000e+001
      vertex  9.783156e+001 -3.700000e+001  1.205725e+001
    endloop
  endfacet
  facet normal  0.000000e+000  1.000000e+000  0.000000e+000
    outer loop
      vertex  1.026593e+002 -3.700000e+001  1.230981e+001
      vertex  9.783156e+001 -3.700000e+001  1.205725e+001
      vertex  1.010206e+002 -3.700000e+001  1.526804e+001
    endloop
  endfacet
  facet normal  0.000000e+000  1.000000e+000  0.000000e+000
    outer loop
      vertex  1.010206e+002 -3.700000e+001  1.526804e+001
      vertex  9.783156e+001 -3.700000e+001  1.205725e+001
      vertex  9.608156e+001 -3.700000e+001  1.332870e+001
    endloop
  endfacet
  facet normal  0.000000e+000  1.000000e+000  -0.000000e+000
    outer loop
      vertex  1.010206e+002 -3.700000e+001  1.526804e+001
      vertex  9.608156e+001 -3.700000e+001  1.332870e+001
      vertex  9.391844e+001 -3.700000e+001  1.332870e+001
    endloop
  endfacet
  facet normal  -0.000000e+000  1.000000e+000  0.000000e+000
    outer loop
      vertex  1.017824e+002 -3.700000e+001  5.757486e+000
      vertex  9.608156e+001 -3.700000e+001  6.671302e+000
      vertex  1.029293e+002 -3.700000e+001  8.938837e+000
    endloop
  endfacet
  facet normal  0.000000e+000  1.000000e+000  0.000000e+000
    outer loop
      vertex  1.029293e+002 -3.700000e+001  8.938837e+000
      vertex  9.608156e+001 -3.700000e+001  6.671302e+000
      vertex  9.783156e+001 -3.700000e+001  7.942751e+000
    endloop
  endfacet
  facet normal  0.000000e+000  1.000000e+000  0.000000e+000
    outer loop
      vertex  1.029293e+002 -3.700000e+001  8.938837e+000
      vertex  9.783156e+001 -3.700000e+001  7.942751e+000
      vertex  9.850000e+001 -3.700000e+001  1.000000e+001
    endloop
  endfacet
  facet normal  0.000000e+000  1.000000e+000  0.000000e+000
    outer loop
      vertex -1.300000e+001 -3.700000e+001  2.000000e+001
      vertex -8.500000e+000 -3.700000e+001  2.000000e+001
      vertex -1.246502e+001 -3.700000e+001  1.712363e+001
    endloop
  endfacet
  facet normal  0.000000e+000  1.000000e+000  0.000000e+000
    outer loop
      vertex -1.246502e+001 -3.700000e+001  1.712363e+001
      vertex -8.500000e+000 -3.700000e+001  2.000000e+001
      vertex -7.831560e+000 -3.700000e+001  1.794275e+001
    endloop
  endfacet
  facet normal  0.000000e+000  9.999999e-001  0.000000e+000
    outer loop
      vertex -1.246502e+001 -3.700000e+001  1.712363e+001
      vertex -7.831560e+000 -3.700000e+001  1.794275e+001
      vertex -6.081560e+000 -3.700000e+001  1.667130e+001
    endloop
  endfacet
  facet normal  0.000000e+000 -1.000000e+000  0.000000e+000
    outer loop
      vertex -1.050000e+001 -3.900000e+001  5.933013e+001
      vertex -6.081560e+000 -3.900000e+001  2.332870e+001
      vertex -8.000000e+000 -3.900000e+001  6.000000e+001
    endloop
  endfacet
  facet normal  0.000000e+000 -9.999999e-001  0.000000e+000
    outer loop
      vertex  1.017824e+002 -3.900000e+001  5.757486e+000
      vertex  9.608156e+001 -3.900000e+001  6.671302e+000
      vertex  9.942354e+001 -3.900000e+001  3.334244e+000
    endloop
  endfacet
  facet normal  0.000000e+000 -1.000000e+000  0.000000e+000
    outer loop
      vertex  7.300000e+001 -3.900000e+001 -4.500000e+000
      vertex  6.000959e+001 -3.900000e+001  4.903309e+000
      vertex  6.235835e+001 -3.900000e+001  3.077793e+000
    endloop
  endfacet
  facet normal  -0.000000e+000 -1.000000e+000  0.000000e+000
    outer loop
      vertex  2.404391e+001 -3.900000e+001  7.839743e+000
      vertex  2.564767e+001 -3.900000e+001  8.581544e+000
      vertex  3.043057e+000 -3.900000e+001  9.408314e+000
    endloop
  endfacet
  facet normal  0.000000e+000 -1.000000e+000  0.000000e+000
    outer loop
      vertex -1.246502e+001 -3.900000e+001  1.712363e+001
      vertex -1.093162e+001 -3.900000e+001  1.463196e+001
      vertex -6.081560e+000 -3.900000e+001  1.667130e+001
    endloop
  endfacet
  facet normal  -0.000000e+000 -9.999999e-001  0.000000e+000
    outer loop
      vertex  1.314657e+001 -3.900000e+001  2.093452e-001
      vertex  2.404391e+001 -3.900000e+001  7.839743e+000
      vertex  3.043057e+000 -3.900000e+001  9.408314e+000
    endloop
  endfacet
  facet normal  0.000000e+000 -9.999999e-001  0.000000e+000
    outer loop
      vertex  1.314657e+001 -3.900000e+001  2.093452e-001
      vertex  3.043057e+000 -3.900000e+001  9.408314e+000
      vertex  8.968383e+000 -3.900000e+001  9.460720e-001
    endloop
  endfacet
  facet normal  0.000000e+000 -1.000000e+000  0.000000e+000
    outer loop
      vertex  1.314657e+001 -3.900000e+001  2.093452e-001
      vertex  8.968383e+000 -3.900000e+001  9.460720e-001
      vertex  1.015798e+001 -3.900000e+001 -5.212201e-002
    endloop
  endfacet
  facet normal  0.000000e+000 -1.000000e+000  0.000000e+000
    outer loop
      vertex  1.314657e+001 -3.900000e+001  2.093452e-001
      vertex  1.015798e+001 -3.900000e+001 -5.212201e-002
      vertex  1.168731e+001 -3.900000e+001 -3.217827e-001
    endloop
  endfacet
  facet normal  0.000000e+000 -1.000000e+000  0.000000e+000
    outer loop
      vertex  2.740931e+001 -3.900000e+001  8.719169e+000
      vertex  5.715624e+001 -3.900000e+001  5.744475e+000
      vertex -3.918441e+000 -3.900000e+001  1.667130e+001
    endloop
  endfacet
  facet normal  0.000000e+000 -1.000000e+000  0.000000e+000
    outer loop
      vertex  2.740931e+001 -3.900000e+001  8.719169e+000
      vertex -3.918441e+000 -3.900000e+001  1.667130e+001
      vertex -5.551846e-001 -3.900000e+001  1.151562e+001
    endloop
  endfacet
  facet normal  0.000000e+000 -9.999999e-001  0.000000e+000
    outer loop
      vertex  2.740931e+001 -3.900000e+001  8.719169e+000
      vertex -5.551846e-001 -3.900000e+001  1.151562e+001
      vertex  1.474100e+000 -3.900000e+001  1.085497e+001
    endloop
  endfacet
  facet normal  0.000000e+000 -1.000000e+000  0.000000e+000
    outer loop
      vertex  2.740931e+001 -3.900000e+001  8.719169e+000
      vertex  1.474100e+000 -3.900000e+001  1.085497e+001
      vertex  3.043057e+000 -3.900000e+001  9.408314e+000
    endloop
  endfacet
  facet normal  0.000000e+000 -1.000000e+000  0.000000e+000
    outer loop
      vertex  2.740931e+001 -3.900000e+001  8.719169e+000
      vertex  3.043057e+000 -3.900000e+001  9.408314e+000
      vertex  2.564767e+001 -3.900000e+001  8.581544e+000
    endloop
  endfacet
  facet normal  0.000000e+000 -1.000000e+000  0.000000e+000
    outer loop
      vertex  6.387775e+001 -3.900000e+001  5.203388e-001
      vertex  6.736185e+001 -3.900000e+001 -9.052121e+000
      vertex  7.050000e+001 -3.900000e+001 -7.000000e+000
    endloop
  endfacet
  facet normal  0.000000e+000 -1.000000e+000  0.000000e+000
    outer loop
      vertex  6.387775e+001 -3.900000e+001  5.203388e-001
      vertex  7.050000e+001 -3.900000e+001 -7.000000e+000
      vertex  7.123223e+001 -3.900000e+001 -5.232233e+000
    endloop
  endfacet
  facet normal  0.000000e+000 -1.000000e+000  0.000000e+000
    outer loop
      vertex  6.387775e+001 -3.900000e+001  5.203388e-001
      vertex  7.123223e+001 -3.900000e+001 -5.232233e+000
      vertex  7.300000e+001 -3.900000e+001 -4.500000e+000
    endloop
  endfacet
  facet normal  0.000000e+000 -1.000000e+000  0.000000e+000
    outer loop
      vertex  6.387775e+001 -3.900000e+001  5.203388e-001
      vertex  7.300000e+001 -3.900000e+001 -4.500000e+000
      vertex  6.235835e+001 -3.900000e+001  3.077793e+000
    endloop
  endfacet
  facet normal  0.000000e+000 -1.000000e+000  -0.000000e+000
    outer loop
      vertex  7.631766e+001 -3.900000e+001 -1.199932e+001
      vertex  7.550000e+001 -3.900000e+001 -7.000000e+000
      vertex  7.476777e+001 -3.900000e+001 -8.767767e+000
    endloop
  endfacet
  facet normal  0.000000e+000 -1.000000e+000  -0.000000e+000
    outer loop
      vertex  7.631766e+001 -3.900000e+001 -1.199932e+001
      vertex  7.476777e+001 -3.900000e+001 -8.767767e+000
      vertex  7.300000e+001 -3.900000e+001 -9.500000e+000
    endloop
  endfacet
  facet normal  0.000000e+000 -1.000000e+000  0.000000e+000
    outer loop
      vertex  7.631766e+001 -3.900000e+001 -1.199932e+001
      vertex  7.300000e+001 -3.900000e+001 -9.500000e+000
      vertex  7.380151e+001 -3.900000e+001 -1.294622e+001
    endloop
  endfacet
  facet normal  0.000000e+000 -9.999999e-001  0.000000e+000
    outer loop
      vertex  5.715624e+001 -3.900000e+001  5.744475e+000
      vertex -3.918441e+000 -3.900000e+001  2.332870e+001
      vertex -2.168441e+000 -3.900000e+001  2.205725e+001
    endloop
  endfacet
  facet normal  0.000000e+000 -1.000000e+000  0.000000e+000
    outer loop
      vertex  5.715624e+001 -3.900000e+001  5.744475e+000
      vertex -2.168441e+000 -3.900000e+001  2.205725e+001
      vertex -1.500000e+000 -3.900000e+001  2.000000e+001
    endloop
  endfacet
  facet normal  0.000000e+000 -1.000000e+000  -0.000000e+000
    outer loop
      vertex  5.715624e+001 -3.900000e+001  5.744475e+000
      vertex -1.500000e+000 -3.900000e+001  2.000000e+001
      vertex -2.168441e+000 -3.900000e+001  1.794275e+001
    endloop
  endfacet
  facet normal  0.000000e+000 -9.999999e-001  -0.000000e+000
    outer loop
      vertex  5.715624e+001 -3.900000e+001  5.744475e+000
      vertex -2.168441e+000 -3.900000e+001  1.794275e+001
      vertex -3.918441e+000 -3.900000e+001  1.667130e+001
    endloop
  endfacet
  facet normal  -0.000000e+000 -1.000000e+000  0.000000e+000
    outer loop
      vertex -3.918441e+000 -3.900000e+001  2.332870e+001
      vertex  5.834496e+001 -3.900000e+001  4.013791e+001
      vertex  5.505377e+001 -3.900000e+001  4.130892e+001
    endloop
  endfacet
  facet normal  -0.000000e+000 -1.000000e+000  0.000000e+000
    outer loop
      vertex -3.918441e+000 -3.900000e+001  2.332870e+001
      vertex  5.505377e+001 -3.900000e+001  4.130892e+001
      vertex  5.236618e+001 -3.900000e+001  4.354053e+001
    endloop
  endfacet
  facet normal  -0.000000e+000 -1.000000e+000  0.000000e+000
    outer loop
      vertex -3.918441e+000 -3.900000e+001  2.332870e+001
      vertex  5.236618e+001 -3.900000e+001  4.354053e+001
      vertex  5.061016e+001 -3.900000e+001  4.656039e+001
    endloop
  endfacet
  facet normal  -0.000000e+000 -9.999999e-001  0.000000e+000
    outer loop
      vertex -3.918441e+000 -3.900000e+001  2.332870e+001
      vertex  5.061016e+001 -3.900000e+001  4.656039e+001
      vertex  4.500000e+001 -3.900000e+001  6.000000e+001
    endloop
  endfacet
  facet normal  -0.000000e+000 -1.000000e+000  0.000000e+000
    outer loop
      vertex -3.918441e+000 -3.900000e+001  2.332870e+001
      vertex  4.500000e+001 -3.900000e+001  6.000000e+001
      vertex -8.000000e+000 -3.900000e+001  6.000000e+001
    endloop
  endfacet
  facet normal  0.000000e+000 -1.000000e+000  0.000000e+000
    outer loop
      vertex -3.918441e+000 -3.900000e+001  2.332870e+001
      vertex -8.000000e+000 -3.900000e+001  6.000000e+001
      vertex -6.081560e+000 -3.900000e+001  2.332870e+001
    endloop
  endfacet
  facet normal  0.000000e+000 -1.000000e+000  0.000000e+000
    outer loop
      vertex  9.391844e+001 -3.900000e+001  6.671302e+000
      vertex  7.300000e+001 -3.900000e+001 -4.500000e+000
      vertex  7.476777e+001 -3.900000e+001 -5.232233e+000
    endloop
  endfacet
  facet normal  0.000000e+000 -1.000000e+000  0.000000e+000
    outer loop
      vertex  9.391844e+001 -3.900000e+001  6.671302e+000
      vertex  7.476777e+001 -3.900000e+001 -5.232233e+000
      vertex  7.550000e+001 -3.900000e+001 -7.000000e+000
    endloop
  endfacet
  facet normal  0.000000e+000 -1.000000e+000  0.000000e+000
    outer loop
      vertex  9.391844e+001 -3.900000e+001  6.671302e+000
      vertex  7.550000e+001 -3.900000e+001 -7.000000e+000
      vertex  7.631766e+001 -3.900000e+001 -1.199932e+001
    endloop
  endfacet
  facet normal  0.000000e+000 -1.000000e+000  0.000000e+000
    outer loop
      vertex  9.391844e+001 -3.900000e+001  6.671302e+000
      vertex  7.631766e+001 -3.900000e+001 -1.199932e+001
      vertex  9.942354e+001 -3.900000e+001  3.334244e+000
    endloop
  endfacet
  facet normal  0.000000e+000 -1.000000e+000  0.000000e+000
    outer loop
      vertex  9.391844e+001 -3.900000e+001  6.671302e+000
      vertex  9.942354e+001 -3.900000e+001  3.334244e+000
      vertex  9.608156e+001 -3.900000e+001  6.671302e+000
    endloop
  endfacet
  facet normal  0.000000e+000 -1.000000e+000  0.000000e+000
    outer loop
      vertex  8.026624e+001 -3.900000e+001  3.898731e+001
      vertex  7.300000e+001 -3.900000e+001 -4.500000e+000
      vertex  9.216844e+001 -3.900000e+001  1.205725e+001
    endloop
  endfacet
  facet normal  0.000000e+000 -1.000000e+000  0.000000e+000
    outer loop
      vertex  8.026624e+001 -3.900000e+001  3.898731e+001
      vertex  9.216844e+001 -3.900000e+001  1.205725e+001
      vertex  9.391844e+001 -3.900000e+001  1.332870e+001
    endloop
  endfacet
  facet normal  0.000000e+000 -1.000000e+000  0.000000e+000
    outer loop
      vertex  8.026624e+001 -3.900000e+001  3.898731e+001
      vertex  9.391844e+001 -3.900000e+001  1.332870e+001
      vertex  1.010206e+002 -3.900000e+001  1.526804e+001
    endloop
  endfacet
  facet normal  -0.000000e+000 -1.000000e+000  0.000000e+000
    outer loop
      vertex  7.300000e+001 -3.900000e+001 -4.500000e+000
      vertex  9.391844e+001 -3.900000e+001  6.671302e+000
      vertex  9.216844e+001 -3.900000e+001  7.942751e+000
    endloop
  endfacet
  facet normal  -0.000000e+000 -1.000000e+000  0.000000e+000
    outer loop
      vertex  7.300000e+001 -3.900000e+001 -4.500000e+000
      vertex  9.216844e+001 -3.900000e+001  7.942751e+000
      vertex  9.150000e+001 -3.900000e+001  1.000000e+001
    endloop
  endfacet
  facet normal  -0.000000e+000 -1.000000e+000  0.000000e+000
    outer loop
      vertex  7.300000e+001 -3.900000e+001 -4.500000e+000
      vertex  9.150000e+001 -3.900000e+001  1.000000e+001
      vertex  9.216844e+001 -3.900000e+001  1.205725e+001
    endloop
  endfacet
  facet normal  -0.000000e+000 -1.000000e+000  0.000000e+000
    outer loop
      vertex  7.300000e+001 -3.900000e+001 -4.500000e+000
      vertex  8.026624e+001 -3.900000e+001  3.898731e+001
      vertex  7.704076e+001 -3.900000e+001  4.158749e+001
    endloop
  endfacet
  facet normal  -0.000000e+000 -1.000000e+000  0.000000e+000
    outer loop
      vertex  7.300000e+001 -3.900000e+001 -4.500000e+000
      vertex  7.704076e+001 -3.900000e+001  4.158749e+001
      vertex  7.312328e+001 -3.900000e+001  4.293581e+001
    endloop
  endfacet
  facet normal  0.000000e+000 -9.999999e-001  0.000000e+000
    outer loop
      vertex  7.300000e+001 -3.900000e+001 -4.500000e+000
      vertex  7.312328e+001 -3.900000e+001  4.293581e+001
      vertex  6.898075e+001 -3.900000e+001  4.287156e+001
    endloop
  endfacet
  facet normal  0.000000e+000 -1.000000e+000  -0.000000e+000
    outer loop
      vertex  7.300000e+001 -3.900000e+001 -4.500000e+000
      vertex  6.898075e+001 -3.900000e+001  4.287156e+001
      vertex  6.510696e+001 -3.900000e+001  4.140239e+001
    endloop
  endfacet
  facet normal  0.000000e+000 -1.000000e+000  -0.000000e+000
    outer loop
      vertex  7.300000e+001 -3.900000e+001 -4.500000e+000
      vertex  6.510696e+001 -3.900000e+001  4.140239e+001
      vertex  6.183812e+001 -3.900000e+001  4.017039e+001
    endloop
  endfacet
  facet normal  0.000000e+000 -1.000000e+000  -0.000000e+000
    outer loop
      vertex  7.300000e+001 -3.900000e+001 -4.500000e+000
      vertex  6.183812e+001 -3.900000e+001  4.017039e+001
      vertex  5.834496e+001 -3.900000e+001  4.013791e+001
    endloop
  endfacet
  facet normal  0.000000e+000 -1.000000e+000  0.000000e+000
    outer loop
      vertex  5.834496e+001 -3.900000e+001  4.013791e+001
      vertex -3.918441e+000 -3.900000e+001  2.332870e+001
      vertex  5.715624e+001 -3.900000e+001  5.744475e+000
    endloop
  endfacet
  facet normal  0.000000e+000 -1.000000e+000  0.000000e+000
    outer loop
      vertex  5.834496e+001 -3.900000e+001  4.013791e+001
      vertex  5.715624e+001 -3.900000e+001  5.744475e+000
      vertex  6.000959e+001 -3.900000e+001  4.903309e+000
    endloop
  endfacet
  facet normal  0.000000e+000 -1.000000e+000  0.000000e+000
    outer loop
      vertex  5.834496e+001 -3.900000e+001  4.013791e+001
      vertex  6.000959e+001 -3.900000e+001  4.903309e+000
      vertex  7.300000e+001 -3.900000e+001 -4.500000e+000
    endloop
  endfacet
  facet normal  0.000000e+000 -1.000000e+000  0.000000e+000
    outer loop
      vertex  7.050000e+001 -3.900000e+001 -7.000000e+000
      vertex  6.736185e+001 -3.900000e+001 -9.052121e+000
      vertex  7.123223e+001 -3.900000e+001 -8.767767e+000
    endloop
  endfacet
  facet normal  0.000000e+000 -1.000000e+000  0.000000e+000
    outer loop
      vertex  7.123223e+001 -3.900000e+001 -8.767767e+000
      vertex  6.736185e+001 -3.900000e+001 -9.052121e+000
      vertex  6.882394e+001 -3.900000e+001 -1.130820e+001
    endloop
  endfacet
  facet normal  0.000000e+000 -9.999999e-001  0.000000e+000
    outer loop
      vertex  7.123223e+001 -3.900000e+001 -8.767767e+000
      vertex  6.882394e+001 -3.900000e+001 -1.130820e+001
      vertex  7.300000e+001 -3.900000e+001 -9.500000e+000
    endloop
  endfacet
  facet normal  0.000000e+000 -1.000000e+000  0.000000e+000
    outer loop
      vertex  7.300000e+001 -3.900000e+001 -9.500000e+000
      vertex  6.882394e+001 -3.900000e+001 -1.130820e+001
      vertex  7.112445e+001 -3.900000e+001 -1.269933e+001
    endloop
  endfacet
  facet normal  0.000000e+000 -1.000000e+000  0.000000e+000
    outer loop
      vertex  7.300000e+001 -3.900000e+001 -9.500000e+000
      vertex  7.112445e+001 -3.900000e+001 -1.269933e+001
      vertex  7.380151e+001 -3.900000e+001 -1.294622e+001
    endloop
  endfacet
  facet normal  0.000000e+000 -1.000000e+000  0.000000e+000
    outer loop
      vertex -8.604895e+000 -3.900000e+001  1.285824e+001
      vertex -5.796030e+000 -3.900000e+001  1.203970e+001
      vertex -1.093162e+001 -3.900000e+001  1.463196e+001
    endloop
  endfacet
  facet normal  0.000000e+000 -9.999999e-001  0.000000e+000
    outer loop
      vertex -1.093162e+001 -3.900000e+001  1.463196e+001
      vertex -5.796030e+000 -3.900000e+001  1.203970e+001
      vertex -6.081560e+000 -3.900000e+001  1.667130e+001
    endloop
  endfacet
  facet normal  0.000000e+000 -1.000000e+000  0.000000e+000
    outer loop
      vertex -5.796030e+000 -3.900000e+001  1.203970e+001
      vertex -5.551846e-001 -3.900000e+001  1.151562e+001
      vertex -6.081560e+000 -3.900000e+001  1.667130e+001
    endloop
  endfacet
  facet normal  0.000000e+000 -1.000000e+000  0.000000e+000
    outer loop
      vertex -6.081560e+000 -3.900000e+001  1.667130e+001
      vertex -5.551846e-001 -3.900000e+001  1.151562e+001
      vertex -3.918441e+000 -3.900000e+001  1.667130e+001
    endloop
  endfacet
  facet normal  -0.000000e+000 -1.000000e+000  -0.000000e+000
    outer loop
      vertex  5.061016e+001 -3.900000e+001  4.656039e+001
      vertex  5.000000e+001 -3.900000e+001  5.000000e+001
      vertex  4.500000e+001 -3.900000e+001  6.000000e+001
    endloop
  endfacet
  facet normal  0.000000e+000 -1.000000e+000  0.000000e+000
    outer loop
      vertex  4.500000e+001 -3.900000e+001  6.000000e+001
      vertex  5.000000e+001 -3.900000e+001  5.000000e+001
      vertex  4.750000e+001 -3.900000e+001  5.933013e+001
    endloop
  endfacet
  facet normal  -0.000000e+000 -1.000000e+000  -0.000000e+000
    outer loop
      vertex  5.000000e+001 -3.900000e+001  5.000000e+001
      vertex  5.000000e+001 -3.900000e+001  5.500000e+001
      vertex  4.750000e+001 -3.900000e+001  5.933013e+001
    endloop
  endfacet
  facet normal  0.000000e+000 -1.000000e+000  0.000000e+000
    outer loop
      vertex  4.750000e+001 -3.900000e+001  5.933013e+001
      vertex  5.000000e+001 -3.900000e+001  5.500000e+001
      vertex  4.933013e+001 -3.900000e+001  5.750000e+001
    endloop
  endfacet
  facet normal  0.000000e+000 -1.000000e+000  0.000000e+000
    outer loop
      vertex -8.500000e+000 -3.900000e+001  2.000000e+001
      vertex -7.831560e+000 -3.900000e+001  2.205725e+001
      vertex -1.300000e+001 -3.900000e+001  2.000000e+001
    endloop
  endfacet
  facet normal  0.000000e+000 -1.000000e+000  0.000000e+000
    outer loop
      vertex -1.300000e+001 -3.900000e+001  2.000000e+001
      vertex -7.831560e+000 -3.900000e+001  2.205725e+001
      vertex -6.081560e+000 -3.900000e+001  2.332870e+001
    endloop
  endfacet
  facet normal  -0.000000e+000 -9.999999e-001  0.000000e+000
    outer loop
      vertex -1.300000e+001 -3.900000e+001  2.000000e+001
      vertex -6.081560e+000 -3.900000e+001  2.332870e+001
      vertex -1.300000e+001 -3.900000e+001  5.500000e+001
    endloop
  endfacet
  facet normal  0.000000e+000 -1.000000e+000  0.000000e+000
    outer loop
      vertex -1.300000e+001 -3.900000e+001  5.500000e+001
      vertex -6.081560e+000 -3.900000e+001  2.332870e+001
      vertex -1.050000e+001 -3.900000e+001  5.933013e+001
    endloop
  endfacet
  facet normal  0.000000e+000 -9.999999e-001  0.000000e+000
    outer loop
      vertex -1.300000e+001 -3.900000e+001  5.500000e+001
      vertex -1.050000e+001 -3.900000e+001  5.933013e+001
      vertex -1.233013e+001 -3.900000e+001  5.750000e+001
    endloop
  endfacet
  facet normal  0.000000e+000 -1.000000e+000  0.000000e+000
    outer loop
      vertex  9.391844e+001 -3.900000e+001  1.332870e+001
      vertex  9.608156e+001 -3.900000e+001  1.332870e+001
      vertex  1.010206e+002 -3.900000e+001  1.526804e+001
    endloop
  endfacet
  facet normal  0.000000e+000 -1.000000e+000  0.000000e+000
    outer loop
      vertex  1.010206e+002 -3.900000e+001  1.526804e+001
      vertex  9.608156e+001 -3.900000e+001  1.332870e+001
      vertex  9.783156e+001 -3.900000e+001  1.205725e+001
    endloop
  endfacet
  facet normal  0.000000e+000 -1.000000e+000  0.000000e+000
    outer loop
      vertex  1.010206e+002 -3.900000e+001  1.526804e+001
      vertex  9.783156e+001 -3.900000e+001  1.205725e+001
      vertex  1.026593e+002 -3.900000e+001  1.230981e+001
    endloop
  endfacet
  facet normal  0.000000e+000 -1.000000e+000  0.000000e+000
    outer loop
      vertex  1.026593e+002 -3.900000e+001  1.230981e+001
      vertex  9.783156e+001 -3.900000e+001  1.205725e+001
      vertex  9.850000e+001 -3.900000e+001  1.000000e+001
    endloop
  endfacet
  facet normal  0.000000e+000 -1.000000e+000  0.000000e+000
    outer loop
      vertex  1.026593e+002 -3.900000e+001  1.230981e+001
      vertex  9.850000e+001 -3.900000e+001  1.000000e+001
      vertex  1.029293e+002 -3.900000e+001  8.938837e+000
    endloop
  endfacet
  facet normal  0.000000e+000 -1.000000e+000  0.000000e+000
    outer loop
      vertex  9.850000e+001 -3.900000e+001  1.000000e+001
      vertex  9.783156e+001 -3.900000e+001  7.942751e+000
      vertex  1.029293e+002 -3.900000e+001  8.938837e+000
    endloop
  endfacet
  facet normal  0.000000e+000 -1.000000e+000  0.000000e+000
    outer loop
      vertex  1.029293e+002 -3.900000e+001  8.938837e+000
      vertex  9.783156e+001 -3.900000e+001  7.942751e+000
      vertex  9.608156e+001 -3.900000e+001  6.671302e+000
    endloop
  endfacet
  facet normal  0.000000e+000 -1.000000e+000  0.000000e+000
    outer loop
      vertex  1.029293e+002 -3.900000e+001  8.938837e+000
      vertex  9.608156e+001 -3.900000e+001  6.671302e+000
      vertex  1.017824e+002 -3.900000e+001  5.757486e+000
    endloop
  endfacet
  facet normal  0.000000e+000 -9.999999e-001  -0.000000e+000
    outer loop
      vertex -6.081560e+000 -3.900000e+001  1.667130e+001
      vertex -7.831560e+000 -3.900000e+001  1.794275e+001
      vertex -1.246502e+001 -3.900000e+001  1.712363e+001
    endloop
  endfacet
  facet normal  0.000000e+000 -1.000000e+000  0.000000e+000
    outer loop
      vertex -1.246502e+001 -3.900000e+001  1.712363e+001
      vertex -7.831560e+000 -3.900000e+001  1.794275e+001
      vertex -8.500000e+000 -3.900000e+001  2.000000e+001
    endloop
  endfacet
  facet normal  -0.000000e+000 -1.000000e+000  0.000000e+000
    outer loop
      vertex -1.246502e+001 -3.900000e+001  1.712363e+001
      vertex -8.500000e+000 -3.900000e+001  2.000000e+001
      vertex -1.300000e+001 -3.900000e+001  2.000000e+001
    endloop
  endfacet
  facet normal -3.826831e-001  -0.000000e+000 -9.238797e-001
    outer loop
      vertex  7.300000e+001 -3.900000e+001 -4.500000e+000
      vertex  7.476777e+001 -3.700000e+001 -5.232233e+000
      vertex  7.476777e+001 -3.900000e+001 -5.232233e+000
    endloop
  endfacet
  facet normal -9.238799e-001  0.000000e+000 -3.826826e-001
    outer loop
      vertex  7.476777e+001 -3.900000e+001 -5.232233e+000
      vertex  7.476777e+001 -3.700000e+001 -5.232233e+000
      vertex  7.550000e+001 -3.700000e+001 -7.000000e+000
    endloop
  endfacet
  facet normal -9.238799e-001  -0.000000e+000 -3.826826e-001
    outer loop
      vertex  7.476777e+001 -3.900000e+001 -5.232233e+000
      vertex  7.550000e+001 -3.700000e+001 -7.000000e+000
      vertex  7.550000e+001 -3.900000e+001 -7.000000e+000
    endloop
  endfacet
  facet normal -3.826831e-001  0.000000e+000 -9.238797e-001
    outer loop
      vertex  7.476777e+001 -3.700000e+001 -5.232233e+000
      vertex  7.300000e+001 -3.900000e+001 -4.500000e+000
      vertex  7.300000e+001 -3.700000e+001 -4.500000e+000
    endloop
  endfacet
  facet normal  3.826831e-001  0.000000e+000 -9.238797e-001
    outer loop
      vertex  7.300000e+001 -3.700000e+001 -4.500000e+000
      vertex  7.300000e+001 -3.900000e+001 -4.500000e+000
      vertex  7.123223e+001 -3.900000e+001 -5.232233e+000
    endloop
  endfacet
  facet normal  3.826831e-001  0.000000e+000 -9.238797e-001
    outer loop
      vertex  7.300000e+001 -3.700000e+001 -4.500000e+000
      vertex  7.123223e+001 -3.900000e+001 -5.232233e+000
      vertex  7.123223e+001 -3.700000e+001 -5.232233e+000
    endloop
  endfacet
  facet normal  9.238799e-001  0.000000e+000 -3.826826e-001
    outer loop
      vertex  7.123223e+001 -3.700000e+001 -5.232233e+000
      vertex  7.123223e+001 -3.900000e+001 -5.232233e+000
      vertex  7.050000e+001 -3.900000e+001 -7.000000e+000
    endloop
  endfacet
  facet normal  9.238799e-001  0.000000e+000 -3.826826e-001
    outer loop
      vertex  7.123223e+001 -3.700000e+001 -5.232233e+000
      vertex  7.050000e+001 -3.900000e+001 -7.000000e+000
      vertex  7.050000e+001 -3.700000e+001 -7.000000e+000
    endloop
  endfacet
  facet normal  3.826831e-001  0.000000e+000  9.238797e-001
    outer loop
      vertex  7.300000e+001 -3.900000e+001 -9.500000e+000
      vertex  7.123223e+001 -3.700000e+001 -8.767767e+000
      vertex  7.123223e+001 -3.900000e+001 -8.767767e+000
    endloop
  endfacet
  facet normal  9.238799e-001  -0.000000e+000  3.826826e-001
    outer loop
      vertex  7.123223e+001 -3.900000e+001 -8.767767e+000
      vertex  7.123223e+001 -3.700000e+001 -8.767767e+000
      vertex  7.050000e+001 -3.700000e+001 -7.000000e+000
    endloop
  endfacet
  facet normal  9.238799e-001  0.000000e+000  3.826826e-001
    outer loop
      vertex  7.123223e+001 -3.900000e+001 -8.767767e+000
      vertex  7.050000e+001 -3.700000e+001 -7.000000e+000
      vertex  7.050000e+001 -3.900000e+001 -7.000000e+000
    endloop
  endfacet
  facet normal  3.826831e-001  -0.000000e+000  9.238797e-001
    outer loop
      vertex  7.123223e+001 -3.700000e+001 -8.767767e+000
      vertex  7.300000e+001 -3.900000e+001 -9.500000e+000
      vertex  7.300000e+001 -3.700000e+001 -9.500000e+000
    endloop
  endfacet
  facet normal -3.826831e-001  0.000000e+000  9.238797e-001
    outer loop
      vertex  7.300000e+001 -3.700000e+001 -9.500000e+000
      vertex  7.300000e+001 -3.900000e+001 -9.500000e+000
      vertex  7.476777e+001 -3.900000e+001 -8.767767e+000
    endloop
  endfacet
  facet normal -3.826831e-001  0.000000e+000  9.238797e-001
    outer loop
      vertex  7.300000e+001 -3.700000e+001 -9.500000e+000
      vertex  7.476777e+001 -3.900000e+001 -8.767767e+000
      vertex  7.476777e+001 -3.700000e+001 -8.767767e+000
    endloop
  endfacet
  facet normal -9.238799e-001  0.000000e+000  3.826826e-001
    outer loop
      vertex  7.476777e+001 -3.700000e+001 -8.767767e+000
      vertex  7.476777e+001 -3.900000e+001 -8.767767e+000
      vertex  7.550000e+001 -3.900000e+001 -7.000000e+000
    endloop
  endfacet
  facet normal -9.238799e-001  0.000000e+000  3.826826e-001
    outer loop
      vertex  7.476777e+001 -3.700000e+001 -8.767767e+000
      vertex  7.550000e+001 -3.900000e+001 -7.000000e+000
      vertex  7.550000e+001 -3.700000e+001 -7.000000e+000
    endloop
  endfacet
  facet normal -5.877849e-001  -0.000000e+000 -8.090173e-001
    outer loop
      vertex -3.918441e+000 -3.900000e+001  2.332870e+001
      vertex -2.168441e+000 -3.700000e+001  2.205725e+001
      vertex -2.168441e+000 -3.900000e+001  2.205725e+001
    endloop
  endfacet
  facet normal -9.510565e-001  0.000000e+000 -3.090169e-001
    outer loop
      vertex -2.168441e+000 -3.900000e+001  2.205725e+001
      vertex -2.168441e+000 -3.700000e+001  2.205725e+001
      vertex -1.500000e+000 -3.700000e+001  2.000000e+001
    endloop
  endfacet
  facet normal -9.510565e-001  -0.000000e+000 -3.090169e-001
    outer loop
      vertex -2.168441e+000 -3.900000e+001  2.205725e+001
      vertex -1.500000e+000 -3.700000e+001  2.000000e+001
      vertex -1.500000e+000 -3.900000e+001  2.000000e+001
    endloop
  endfacet
  facet normal -5.877849e-001  0.000000e+000 -8.090173e-001
    outer loop
      vertex -2.168441e+000 -3.700000e+001  2.205725e+001
      vertex -3.918441e+000 -3.900000e+001  2.332870e+001
      vertex -3.918441e+000 -3.700000e+001  2.332870e+001
    endloop
  endfacet
  facet normal  0.000000e+000  -0.000000e+000 -1.000000e+000
    outer loop
      vertex -3.918441e+000 -3.700000e+001  2.332870e+001
      vertex -3.918441e+000 -3.900000e+001  2.332870e+001
      vertex -6.081560e+000 -3.900000e+001  2.332870e+001
    endloop
  endfacet
  facet normal  0.000000e+000  0.000000e+000 -1.000000e+000
    outer loop
      vertex -3.918441e+000 -3.700000e+001  2.332870e+001
      vertex -6.081560e+000 -3.900000e+001  2.332870e+001
      vertex -6.081560e+000 -3.700000e+001  2.332870e+001
    endloop
  endfacet
  facet normal  5.877849e-001  0.000000e+000 -8.090173e-001
    outer loop
      vertex -6.081560e+000 -3.700000e+001  2.332870e+001
      vertex -6.081560e+000 -3.900000e+001  2.332870e+001
      vertex -7.831560e+000 -3.900000e+001  2.205725e+001
    endloop
  endfacet
  facet normal  5.877849e-001  0.000000e+000 -8.090173e-001
    outer loop
      vertex -6.081560e+000 -3.700000e+001  2.332870e+001
      vertex -7.831560e+000 -3.900000e+001  2.205725e+001
      vertex -7.831560e+000 -3.700000e+001  2.205725e+001
    endloop
  endfacet
  facet normal  9.510565e-001  0.000000e+000 -3.090168e-001
    outer loop
      vertex -7.831560e+000 -3.700000e+001  2.205725e+001
      vertex -7.831560e+000 -3.900000e+001  2.205725e+001
      vertex -8.500000e+000 -3.900000e+001  2.000000e+001
    endloop
  endfacet
  facet normal  9.510565e-001  0.000000e+000 -3.090168e-001
    outer loop
      vertex -7.831560e+000 -3.700000e+001  2.205725e+001
      vertex -8.500000e+000 -3.900000e+001  2.000000e+001
      vertex -8.500000e+000 -3.700000e+001  2.000000e+001
    endloop
  endfacet
  facet normal  5.877849e-001  0.000000e+000  8.090173e-001
    outer loop
      vertex -6.081560e+000 -3.900000e+001  1.667130e+001
      vertex -7.831560e+000 -3.700000e+001  1.794275e+001
      vertex -7.831560e+000 -3.900000e+001  1.794275e+001
    endloop
  endfacet
  facet normal  9.510565e-001  -0.000000e+000  3.090168e-001
    outer loop
      vertex -7.831560e+000 -3.900000e+001  1.794275e+001
      vertex -7.831560e+000 -3.700000e+001  1.794275e+001
      vertex -8.500000e+000 -3.700000e+001  2.000000e+001
    endloop
  endfacet
  facet normal  9.510565e-001  0.000000e+000  3.090168e-001
    outer loop
      vertex -7.831560e+000 -3.900000e+001  1.794275e+001
      vertex -8.500000e+000 -3.700000e+001  2.000000e+001
      vertex -8.500000e+000 -3.900000e+001  2.000000e+001
    endloop
  endfacet
  facet normal  5.877849e-001  -0.000000e+000  8.090173e-001
    outer loop
      vertex -7.831560e+000 -3.700000e+001  1.794275e+001
      vertex -6.081560e+000 -3.900000e+001  1.667130e+001
      vertex -6.081560e+000 -3.700000e+001  1.667130e+001
    endloop
  endfacet
  facet normal  0.000000e+000  0.000000e+000  1.000000e+000
    outer loop
      vertex -6.081560e+000 -3.700000e+001  1.667130e+001
      vertex -6.081560e+000 -3.900000e+001  1.667130e+001
      vertex -3.918441e+000 -3.900000e+001  1.667130e+001
    endloop
  endfacet
  facet normal  0.000000e+000  -0.000000e+000  1.000000e+000
    outer loop
      vertex -6.081560e+000 -3.700000e+001  1.667130e+001
      vertex -3.918441e+000 -3.900000e+001  1.667130e+001
      vertex -3.918441e+000 -3.700000e+001  1.667130e+001
    endloop
  endfacet
  facet normal -5.877849e-001  0.000000e+000  8.090173e-001
    outer loop
      vertex -3.918441e+000 -3.700000e+001  1.667130e+001
      vertex -3.918441e+000 -3.900000e+001  1.667130e+001
      vertex -2.168441e+000 -3.900000e+001  1.794275e+001
    endloop
  endfacet
  facet normal -5.877849e-001  0.000000e+000  8.090173e-001
    outer loop
      vertex -3.918441e+000 -3.700000e+001  1.667130e+001
      vertex -2.168441e+000 -3.900000e+001  1.794275e+001
      vertex -2.168441e+000 -3.700000e+001  1.794275e+001
    endloop
  endfacet
  facet normal -9.510565e-001  0.000000e+000  3.090169e-001
    outer loop
      vertex -2.168441e+000 -3.700000e+001  1.794275e+001
      vertex -2.168441e+000 -3.900000e+001  1.794275e+001
      vertex -1.500000e+000 -3.900000e+001  2.000000e+001
    endloop
  endfacet
  facet normal -9.510565e-001  0.000000e+000  3.090169e-001
    outer loop
      vertex -2.168441e+000 -3.700000e+001  1.794275e+001
      vertex -1.500000e+000 -3.900000e+001  2.000000e+001
      vertex -1.500000e+000 -3.700000e+001  2.000000e+001
    endloop
  endfacet
  facet normal -5.877854e-001  -0.000000e+000 -8.090169e-001
    outer loop
      vertex  9.608156e+001 -3.900000e+001  1.332870e+001
      vertex  9.783156e+001 -3.700000e+001  1.205725e+001
      vertex  9.783156e+001 -3.900000e+001  1.205725e+001
    endloop
  endfacet
  facet normal -9.510564e-001  0.000000e+000 -3.090176e-001
    outer loop
      vertex  9.783156e+001 -3.900000e+001  1.205725e+001
      vertex  9.783156e+001 -3.700000e+001  1.205725e+001
      vertex  9.850000e+001 -3.700000e+001  1.000000e+001
    endloop
  endfacet
  facet normal -9.510564e-001  -0.000000e+000 -3.090176e-001
    outer loop
      vertex  9.783156e+001 -3.900000e+001  1.205725e+001
      vertex  9.850000e+001 -3.700000e+001  1.000000e+001
      vertex  9.850000e+001 -3.900000e+001  1.000000e+001
    endloop
  endfacet
  facet normal -5.877854e-001  0.000000e+000 -8.090169e-001
    outer loop
      vertex  9.783156e+001 -3.700000e+001  1.205725e+001
      vertex  9.608156e+001 -3.900000e+001  1.332870e+001
      vertex  9.608156e+001 -3.700000e+001  1.332870e+001
    endloop
  endfacet
  facet normal  0.000000e+000  -0.000000e+000 -1.000000e+000
    outer loop
      vertex  9.608156e+001 -3.700000e+001  1.332870e+001
      vertex  9.608156e+001 -3.900000e+001  1.332870e+001
      vertex  9.391844e+001 -3.900000e+001  1.332870e+001
    endloop
  endfacet
  facet normal  0.000000e+000  0.000000e+000 -1.000000e+000
    outer loop
      vertex  9.608156e+001 -3.700000e+001  1.332870e+001
      vertex  9.391844e+001 -3.900000e+001  1.332870e+001
      vertex  9.391844e+001 -3.700000e+001  1.332870e+001
    endloop
  endfacet
  facet normal  5.877854e-001  0.000000e+000 -8.090169e-001
    outer loop
      vertex  9.391844e+001 -3.700000e+001  1.332870e+001
      vertex  9.391844e+001 -3.900000e+001  1.332870e+001
      vertex  9.216844e+001 -3.900000e+001  1.205725e+001
    endloop
  endfacet
  facet normal  5.877854e-001  0.000000e+000 -8.090169e-001
    outer loop
      vertex  9.391844e+001 -3.700000e+001  1.332870e+001
      vertex  9.216844e+001 -3.900000e+001  1.205725e+001
      vertex  9.216844e+001 -3.700000e+001  1.205725e+001
    endloop
  endfacet
  facet normal  9.510564e-001  0.000000e+000 -3.090176e-001
    outer loop
      vertex  9.216844e+001 -3.700000e+001  1.205725e+001
      vertex  9.216844e+001 -3.900000e+001  1.205725e+001
      vertex  9.150000e+001 -3.900000e+001  1.000000e+001
    endloop
  endfacet
  facet normal  9.510564e-001  0.000000e+000 -3.090176e-001
    outer loop
      vertex  9.216844e+001 -3.700000e+001  1.205725e+001
      vertex  9.150000e+001 -3.900000e+001  1.000000e+001
      vertex  9.150000e+001 -3.700000e+001  1.000000e+001
    endloop
  endfacet
  facet normal  5.877851e-001  0.000000e+000  8.090170e-001
    outer loop
      vertex  9.391844e+001 -3.900000e+001  6.671302e+000
      vertex  9.216844e+001 -3.700000e+001  7.942751e+000
      vertex  9.216844e+001 -3.900000e+001  7.942751e+000
    endloop
  endfacet
  facet normal  9.510564e-001  -0.000000e+000  3.090175e-001
    outer loop
      vertex  9.216844e+001 -3.900000e+001  7.942751e+000
      vertex  9.216844e+001 -3.700000e+001  7.942751e+000
      vertex  9.150000e+001 -3.700000e+001  1.000000e+001
    endloop
  endfacet
  facet normal  9.510564e-001  0.000000e+000  3.090175e-001
    outer loop
      vertex  9.216844e+001 -3.900000e+001  7.942751e+000
      vertex  9.150000e+001 -3.700000e+001  1.000000e+001
      vertex  9.150000e+001 -3.900000e+001  1.000000e+001
    endloop
  endfacet
  facet normal  5.877851e-001  -0.000000e+000  8.090170e-001
    outer loop
      vertex  9.216844e+001 -3.700000e+001  7.942751e+000
      vertex  9.391844e+001 -3.900000e+001  6.671302e+000
      vertex  9.391844e+001 -3.700000e+001  6.671302e+000
    endloop
  endfacet
  facet normal  0.000000e+000  0.000000e+000  1.000000e+000
    outer loop
      vertex  9.391844e+001 -3.700000e+001  6.671302e+000
      vertex  9.391844e+001 -3.900000e+001  6.671302e+000
      vertex  9.608156e+001 -3.900000e+001  6.671302e+000
    endloop
  endfacet
  facet normal  0.000000e+000  -0.000000e+000  1.000000e+000
    outer loop
      vertex  9.391844e+001 -3.700000e+001  6.671302e+000
      vertex  9.608156e+001 -3.900000e+001  6.671302e+000
      vertex  9.608156e+001 -3.700000e+001  6.671302e+000
    endloop
  endfacet
  facet normal -5.877851e-001  0.000000e+000  8.090170e-001
    outer loop
      vertex  9.608156e+001 -3.700000e+001  6.671302e+000
      vertex  9.608156e+001 -3.900000e+001  6.671302e+000
      vertex  9.783156e+001 -3.900000e+001  7.942751e+000
    endloop
  endfacet
  facet normal -5.877851e-001  0.000000e+000  8.090170e-001
    outer loop
      vertex  9.608156e+001 -3.700000e+001  6.671302e+000
      vertex  9.783156e+001 -3.900000e+001  7.942751e+000
      vertex  9.783156e+001 -3.700000e+001  7.942751e+000
    endloop
  endfacet
  facet normal -9.510564e-001  0.000000e+000  3.090175e-001
    outer loop
      vertex  9.783156e+001 -3.700000e+001  7.942751e+000
      vertex  9.783156e+001 -3.900000e+001  7.942751e+000
      vertex  9.850000e+001 -3.900000e+001  1.000000e+001
    endloop
  endfacet
  facet normal -9.510564e-001  0.000000e+000  3.090175e-001
    outer loop
      vertex  9.783156e+001 -3.700000e+001  7.942751e+000
      vertex  9.850000e+001 -3.900000e+001  1.000000e+001
      vertex  9.850000e+001 -3.700000e+001  1.000000e+001
    endloop
  endfacet
  facet normal -9.831397e-001  -0.000000e+000 -1.828562e-001
    outer loop
      vertex -1.300000e+001 -3.900000e+001  2.000000e+001
      vertex -1.300000e+001 -3.700000e+001  2.000000e+001
      vertex -1.246502e+001 -3.900000e+001  1.712363e+001
    endloop
  endfacet
  facet normal -9.831397e-001  0.000000e+000 -1.828562e-001
    outer loop
      vertex -1.246502e+001 -3.900000e+001  1.712363e+001
      vertex -1.300000e+001 -3.700000e+001  2.000000e+001
      vertex -1.246502e+001 -3.700000e+001  1.712363e+001
    endloop
  endfacet
  facet normal -8.516489e-001  -0.000000e+000 -5.241127e-001
    outer loop
      vertex -1.246502e+001 -3.900000e+001  1.712363e+001
      vertex -1.246502e+001 -3.700000e+001  1.712363e+001
      vertex -1.093162e+001 -3.900000e+001  1.463196e+001
    endloop
  endfacet
  facet normal -8.516489e-001  0.000000e+000 -5.241127e-001
    outer loop
      vertex -1.093162e+001 -3.900000e+001  1.463196e+001
      vertex -1.246502e+001 -3.700000e+001  1.712363e+001
      vertex -1.093162e+001 -3.700000e+001  1.463196e+001
    endloop
  endfacet
  facet normal -6.062536e-001  -0.000000e+000 -7.952713e-001
    outer loop
      vertex -1.093162e+001 -3.900000e+001  1.463196e+001
      vertex -1.093162e+001 -3.700000e+001  1.463196e+001
      vertex -8.604895e+000 -3.900000e+001  1.285824e+001
    endloop
  endfacet
  facet normal -6.062536e-001  0.000000e+000 -7.952713e-001
    outer loop
      vertex -8.604895e+000 -3.900000e+001  1.285824e+001
      vertex -1.093162e+001 -3.700000e+001  1.463196e+001
      vertex -8.604895e+000 -3.700000e+001  1.285824e+001
    endloop
  endfacet
  facet normal -2.797749e-001  -0.000000e+000 -9.600657e-001
    outer loop
      vertex -8.604895e+000 -3.900000e+001  1.285824e+001
      vertex -8.604895e+000 -3.700000e+001  1.285824e+001
      vertex -5.796030e+000 -3.900000e+001  1.203970e+001
    endloop
  endfacet
  facet normal -2.797749e-001  0.000000e+000 -9.600657e-001
    outer loop
      vertex -5.796030e+000 -3.900000e+001  1.203970e+001
      vertex -8.604895e+000 -3.700000e+001  1.285824e+001
      vertex -5.796030e+000 -3.700000e+001  1.203970e+001
    endloop
  endfacet
  facet normal -9.950365e-002  0.000000e+000 -9.950373e-001
    outer loop
      vertex -5.551846e-001 -3.700000e+001  1.151562e+001
      vertex -5.551846e-001 -3.900000e+001  1.151562e+001
      vertex -5.796030e+000 -3.700000e+001  1.203970e+001
    endloop
  endfacet
  facet normal -9.950365e-002  -0.000000e+000 -9.950373e-001
    outer loop
      vertex -5.796030e+000 -3.700000e+001  1.203970e+001
      vertex -5.551846e-001 -3.900000e+001  1.151562e+001
      vertex -5.796030e+000 -3.900000e+001  1.203970e+001
    endloop
  endfacet
  facet normal -6.778730e-001  0.000000e+000 -7.351791e-001
    outer loop
      vertex  3.043057e+000 -3.900000e+001  9.408314e+000
      vertex  1.474100e+000 -3.900000e+001  1.085497e+001
      vertex  3.043057e+000 -3.700000e+001  9.408314e+000
    endloop
  endfacet
  facet normal -6.778730e-001  0.000000e+000 -7.351791e-001
    outer loop
      vertex  3.043057e+000 -3.700000e+001  9.408314e+000
      vertex  1.474100e+000 -3.900000e+001  1.085497e+001
      vertex  1.474100e+000 -3.700000e+001  1.085497e+001
    endloop
  endfacet
  facet normal -3.095641e-001  0.000000e+000 -9.508786e-001
    outer loop
      vertex  1.474100e+000 -3.900000e+001  1.085497e+001
      vertex -5.551846e-001 -3.900000e+001  1.151562e+001
      vertex  1.474100e+000 -3.700000e+001  1.085497e+001
    endloop
  endfacet
  facet normal -3.095641e-001  0.000000e+000 -9.508786e-001
    outer loop
      vertex  1.474100e+000 -3.700000e+001  1.085497e+001
      vertex -5.551846e-001 -3.900000e+001  1.151562e+001
      vertex -5.551846e-001 -3.700000e+001  1.151562e+001
    endloop
  endfacet
  facet normal -8.191521e-001  0.000000e+000 -5.735765e-001
    outer loop
      vertex  8.968383e+000 -3.700000e+001  9.460720e-001
      vertex  8.968383e+000 -3.900000e+001  9.460720e-001
      vertex  3.043057e+000 -3.700000e+001  9.408314e+000
    endloop
  endfacet
  facet normal -8.191521e-001  -0.000000e+000 -5.735765e-001
    outer loop
      vertex  3.043057e+000 -3.700000e+001  9.408314e+000
      vertex  8.968383e+000 -3.900000e+001  9.460720e-001
      vertex  3.043057e+000 -3.900000e+001  9.408314e+000
    endloop
  endfacet
  facet normal -6.427878e-001  -0.000000e+000 -7.660444e-001
    outer loop
      vertex  8.968383e+000 -3.900000e+001  9.460720e-001
      vertex  8.968383e+000 -3.700000e+001  9.460720e-001
      vertex  1.015798e+001 -3.900000e+001 -5.212201e-002
    endloop
  endfacet
  facet normal -6.427878e-001  0.000000e+000 -7.660444e-001
    outer loop
      vertex  1.015798e+001 -3.900000e+001 -5.212201e-002
      vertex  8.968383e+000 -3.700000e+001  9.460720e-001
      vertex  1.015798e+001 -3.700000e+001 -5.212201e-002
    endloop
  endfacet
  facet normal -1.736481e-001  -0.000000e+000 -9.848077e-001
    outer loop
      vertex  1.015798e+001 -3.900000e+001 -5.212201e-002
      vertex  1.015798e+001 -3.700000e+001 -5.212201e-002
      vertex  1.168731e+001 -3.900000e+001 -3.217827e-001
    endloop
  endfacet
  facet normal -1.736481e-001  0.000000e+000 -9.848077e-001
    outer loop
      vertex  1.168731e+001 -3.900000e+001 -3.217827e-001
      vertex  1.015798e+001 -3.700000e+001 -5.212201e-002
      vertex  1.168731e+001 -3.700000e+001 -3.217827e-001
    endloop
  endfacet
  facet normal  3.420202e-001  0.000000e+000 -9.396926e-001
    outer loop
      vertex  1.168731e+001 -3.900000e+001 -3.217827e-001
      vertex  1.168731e+001 -3.700000e+001 -3.217827e-001
      vertex  1.314657e+001 -3.900000e+001  2.093452e-001
    endloop
  endfacet
  facet normal  3.420202e-001  0.000000e+000 -9.396926e-001
    outer loop
      vertex  1.314657e+001 -3.900000e+001  2.093452e-001
      vertex  1.168731e+001 -3.700000e+001 -3.217827e-001
      vertex  1.314657e+001 -3.700000e+001  2.093452e-001
    endloop
  endfacet
  facet normal  5.735765e-001  0.000000e+000 -8.191521e-001
    outer loop
      vertex  2.404391e+001 -3.700000e+001  7.839743e+000
      vertex  2.404391e+001 -3.900000e+001  7.839743e+000
      vertex  1.314657e+001 -3.700000e+001  2.093452e-001
    endloop
  endfacet
  facet normal  5.735765e-001  0.000000e+000 -8.191521e-001
    outer loop
      vertex  1.314657e+001 -3.700000e+001  2.093452e-001
      vertex  2.404391e+001 -3.900000e+001  7.839743e+000
      vertex  1.314657e+001 -3.900000e+001  2.093452e-001
    endloop
  endfacet
  facet normal  7.788574e-002  0.000000e+000 -9.969623e-001
    outer loop
      vertex  2.740931e+001 -3.900000e+001  8.719169e+000
      vertex  2.564767e+001 -3.900000e+001  8.581544e+000
      vertex  2.740931e+001 -3.700000e+001  8.719169e+000
    endloop
  endfacet
  facet normal  7.788574e-002  0.000000e+000 -9.969623e-001
    outer loop
      vertex  2.740931e+001 -3.700000e+001  8.719169e+000
      vertex  2.564767e+001 -3.900000e+001  8.581544e+000
      vertex  2.564767e+001 -3.700000e+001  8.581544e+000
    endloop
  endfacet
  facet normal  4.198059e-001  0.000000e+000 -9.076139e-001
    outer loop
      vertex  2.564767e+001 -3.900000e+001  8.581544e+000
      vertex  2.404391e+001 -3.900000e+001  7.839743e+000
      vertex  2.564767e+001 -3.700000e+001  8.581544e+000
    endloop
  endfacet
  facet normal  4.198059e-001  0.000000e+000 -9.076139e-001
    outer loop
      vertex  2.564767e+001 -3.700000e+001  8.581544e+000
      vertex  2.404391e+001 -3.900000e+001  7.839743e+000
      vertex  2.404391e+001 -3.700000e+001  7.839743e+000
    endloop
  endfacet
  facet normal -9.950371e-002  0.000000e+000 -9.950372e-001
    outer loop
      vertex  5.715624e+001 -3.700000e+001  5.744475e+000
      vertex  5.715624e+001 -3.900000e+001  5.744475e+000
      vertex  2.740931e+001 -3.700000e+001  8.719169e+000
    endloop
  endfacet
  facet normal -9.950371e-002  -0.000000e+000 -9.950372e-001
    outer loop
      vertex  2.740931e+001 -3.700000e+001  8.719169e+000
      vertex  5.715624e+001 -3.900000e+001  5.744475e+000
      vertex  2.740931e+001 -3.900000e+001  8.719169e+000
    endloop
  endfacet
  facet normal -8.597195e-001  -0.000000e+000 -5.107666e-001
    outer loop
      vertex  6.235835e+001 -3.900000e+001  3.077793e+000
      vertex  6.387775e+001 -3.700000e+001  5.203388e-001
      vertex  6.387775e+001 -3.900000e+001  5.203388e-001
    endloop
  endfacet
  facet normal -8.597195e-001  0.000000e+000 -5.107666e-001
    outer loop
      vertex  6.387775e+001 -3.700000e+001  5.203388e-001
      vertex  6.235835e+001 -3.900000e+001  3.077793e+000
      vertex  6.235835e+001 -3.700000e+001  3.077793e+000
    endloop
  endfacet
  facet normal -6.136696e-001  -0.000000e+000 -7.895630e-001
    outer loop
      vertex  6.235835e+001 -3.700000e+001  3.077793e+000
      vertex  6.235835e+001 -3.900000e+001  3.077793e+000
      vertex  6.000959e+001 -3.900000e+001  4.903309e+000
    endloop
  endfacet
  facet normal -6.136696e-001  0.000000e+000 -7.895630e-001
    outer loop
      vertex  6.235835e+001 -3.700000e+001  3.077793e+000
      vertex  6.000959e+001 -3.900000e+001  4.903309e+000
      vertex  6.000959e+001 -3.700000e+001  4.903309e+000
    endloop
  endfacet
  facet normal -2.827682e-001  -0.000000e+000 -9.591883e-001
    outer loop
      vertex  6.000959e+001 -3.700000e+001  4.903309e+000
      vertex  6.000959e+001 -3.900000e+001  4.903309e+000
      vertex  5.715624e+001 -3.900000e+001  5.744475e+000
    endloop
  endfacet
  facet normal -2.827682e-001  0.000000e+000 -9.591883e-001
    outer loop
      vertex  6.000959e+001 -3.700000e+001  4.903309e+000
      vertex  5.715624e+001 -3.900000e+001  5.744475e+000
      vertex  5.715624e+001 -3.700000e+001  5.744475e+000
    endloop
  endfacet
  facet normal -9.396926e-001  0.000000e+000 -3.420203e-001
    outer loop
      vertex  6.736185e+001 -3.700000e+001 -9.052121e+000
      vertex  6.736185e+001 -3.900000e+001 -9.052121e+000
      vertex  6.387775e+001 -3.700000e+001  5.203388e-001
    endloop
  endfacet
  facet normal -9.396926e-001  -0.000000e+000 -3.420203e-001
    outer loop
      vertex  6.387775e+001 -3.700000e+001  5.203388e-001
      vertex  6.736185e+001 -3.900000e+001 -9.052121e+000
      vertex  6.387775e+001 -3.900000e+001  5.203388e-001
    endloop
  endfacet
  facet normal -8.391824e-001  -0.000000e+000 -5.438502e-001
    outer loop
      vertex  6.736185e+001 -3.900000e+001 -9.052121e+000
      vertex  6.736185e+001 -3.700000e+001 -9.052121e+000
      vertex  6.882394e+001 -3.900000e+001 -1.130820e+001
    endloop
  endfacet
  facet normal -8.391824e-001  0.000000e+000 -5.438502e-001
    outer loop
      vertex  6.882394e+001 -3.900000e+001 -1.130820e+001
      vertex  6.736185e+001 -3.700000e+001 -9.052121e+000
      vertex  6.882394e+001 -3.700000e+001 -1.130820e+001
    endloop
  endfacet
  facet normal -5.174540e-001  -0.000000e+000 -8.557110e-001
    outer loop
      vertex  6.882394e+001 -3.900000e+001 -1.130820e+001
      vertex  6.882394e+001 -3.700000e+001 -1.130820e+001
      vertex  7.112445e+001 -3.900000e+001 -1.269933e+001
    endloop
  endfacet
  facet normal -5.174540e-001  0.000000e+000 -8.557110e-001
    outer loop
      vertex  7.112445e+001 -3.900000e+001 -1.269933e+001
      vertex  6.882394e+001 -3.700000e+001 -1.130820e+001
      vertex  7.112445e+001 -3.700000e+001 -1.269933e+001
    endloop
  endfacet
  facet normal -9.183732e-002  -0.000000e+000 -9.957740e-001
    outer loop
      vertex  7.112445e+001 -3.900000e+001 -1.269933e+001
      vertex  7.112445e+001 -3.700000e+001 -1.269933e+001
      vertex  7.380151e+001 -3.900000e+001 -1.294622e+001
    endloop
  endfacet
  facet normal -9.183732e-002  0.000000e+000 -9.957740e-001
    outer loop
      vertex  7.380151e+001 -3.900000e+001 -1.294622e+001
      vertex  7.112445e+001 -3.700000e+001 -1.269933e+001
      vertex  7.380151e+001 -3.700000e+001 -1.294622e+001
    endloop
  endfacet
  facet normal  3.522167e-001  0.000000e+000 -9.359185e-001
    outer loop
      vertex  7.380151e+001 -3.900000e+001 -1.294622e+001
      vertex  7.380151e+001 -3.700000e+001 -1.294622e+001
      vertex  7.631766e+001 -3.900000e+001 -1.199932e+001
    endloop
  endfacet
  facet normal  3.522167e-001  0.000000e+000 -9.359185e-001
    outer loop
      vertex  7.631766e+001 -3.900000e+001 -1.199932e+001
      vertex  7.380151e+001 -3.700000e+001 -1.294622e+001
      vertex  7.631766e+001 -3.700000e+001 -1.199932e+001
    endloop
  endfacet
  facet normal  5.529424e-001  0.000000e+000 -8.332195e-001
    outer loop
      vertex  9.942354e+001 -3.700000e+001  3.334244e+000
      vertex  9.942354e+001 -3.900000e+001  3.334244e+000
      vertex  7.631766e+001 -3.700000e+001 -1.199932e+001
    endloop
  endfacet
  facet normal  5.529424e-001  0.000000e+000 -8.332195e-001
    outer loop
      vertex  7.631766e+001 -3.700000e+001 -1.199932e+001
      vertex  9.942354e+001 -3.900000e+001  3.334244e+000
      vertex  7.631766e+001 -3.900000e+001 -1.199932e+001
    endloop
  endfacet
  facet normal  7.165600e-001  0.000000e+000 -6.975255e-001
    outer loop
      vertex  9.942354e+001 -3.900000e+001  3.334244e+000
      vertex  9.942354e+001 -3.700000e+001  3.334244e+000
      vertex  1.017824e+002 -3.900000e+001  5.757486e+000
    endloop
  endfacet
  facet normal  7.165600e-001  0.000000e+000 -6.975255e-001
    outer loop
      vertex  1.017824e+002 -3.900000e+001  5.757486e+000
      vertex  9.942354e+001 -3.700000e+001  3.334244e+000
      vertex  1.017824e+002 -3.700000e+001  5.757486e+000
    endloop
  endfacet
  facet normal  9.407355e-001  0.000000e+000 -3.391409e-001
    outer loop
      vertex  1.017824e+002 -3.900000e+001  5.757486e+000
      vertex  1.017824e+002 -3.700000e+001  5.757486e+000
      vertex  1.029293e+002 -3.900000e+001  8.938837e+000
    endloop
  endfacet
  facet normal  9.407355e-001  0.000000e+000 -3.391409e-001
    outer loop
      vertex  1.029293e+002 -3.900000e+001  8.938837e+000
      vertex  1.017824e+002 -3.700000e+001  5.757486e+000
      vertex  1.029293e+002 -3.700000e+001  8.938837e+000
    endloop
  endfacet
  facet normal  9.968074e-001  0.000000e+000  7.984336e-002
    outer loop
      vertex  1.029293e+002 -3.900000e+001  8.938837e+000
      vertex  1.029293e+002 -3.700000e+001  8.938837e+000
      vertex  1.026593e+002 -3.900000e+001  1.230981e+001
    endloop
  endfacet
  facet normal  9.968074e-001  -0.000000e+000  7.984336e-002
    outer loop
      vertex  1.026593e+002 -3.900000e+001  1.230981e+001
      vertex  1.029293e+002 -3.700000e+001  8.938837e+000
      vertex  1.026593e+002 -3.700000e+001  1.230981e+001
    endloop
  endfacet
  facet normal  8.747566e-001  0.000000e+000  4.845626e-001
    outer loop
      vertex  1.026593e+002 -3.900000e+001  1.230981e+001
      vertex  1.026593e+002 -3.700000e+001  1.230981e+001
      vertex  1.010206e+002 -3.900000e+001  1.526804e+001
    endloop
  endfacet
  facet normal  8.747566e-001  -0.000000e+000  4.845626e-001
    outer loop
      vertex  1.010206e+002 -3.900000e+001  1.526804e+001
      vertex  1.026593e+002 -3.700000e+001  1.230981e+001
      vertex  1.010206e+002 -3.700000e+001  1.526804e+001
    endloop
  endfacet
  facet normal  7.525766e-001  -0.000000e+000  6.585047e-001
    outer loop
      vertex  8.026624e+001 -3.700000e+001  3.898731e+001
      vertex  8.026624e+001 -3.900000e+001  3.898731e+001
      vertex  1.010206e+002 -3.700000e+001  1.526804e+001
    endloop
  endfacet
  facet normal  7.525766e-001  0.000000e+000  6.585047e-001
    outer loop
      vertex  1.010206e+002 -3.700000e+001  1.526804e+001
      vertex  8.026624e+001 -3.900000e+001  3.898731e+001
      vertex  1.010206e+002 -3.900000e+001  1.526804e+001
    endloop
  endfacet
  facet normal  6.276040e-001  0.000000e+000  7.785327e-001
    outer loop
      vertex  8.026624e+001 -3.900000e+001  3.898731e+001
      vertex  8.026624e+001 -3.700000e+001  3.898731e+001
      vertex  7.704076e+001 -3.900000e+001  4.158749e+001
    endloop
  endfacet
  facet normal  6.276040e-001  -0.000000e+000  7.785327e-001
    outer loop
      vertex  7.704076e+001 -3.900000e+001  4.158749e+001
      vertex  8.026624e+001 -3.700000e+001  3.898731e+001
      vertex  7.704076e+001 -3.700000e+001  4.158749e+001
    endloop
  endfacet
  facet normal  3.254440e-001  0.000000e+000  9.455613e-001
    outer loop
      vertex  7.704076e+001 -3.900000e+001  4.158749e+001
      vertex  7.704076e+001 -3.700000e+001  4.158749e+001
      vertex  7.312328e+001 -3.900000e+001  4.293581e+001
    endloop
  endfacet
  facet normal  3.254440e-001  -0.000000e+000  9.455613e-001
    outer loop
      vertex  7.312328e+001 -3.900000e+001  4.293581e+001
      vertex  7.704076e+001 -3.700000e+001  4.158749e+001
      vertex  7.312328e+001 -3.700000e+001  4.293581e+001
    endloop
  endfacet
  facet normal -1.550915e-002  0.000000e+000  9.998797e-001
    outer loop
      vertex  7.312328e+001 -3.900000e+001  4.293581e+001
      vertex  7.312328e+001 -3.700000e+001  4.293581e+001
      vertex  6.898075e+001 -3.900000e+001  4.287156e+001
    endloop
  endfacet
  facet normal -1.550915e-002  0.000000e+000  9.998797e-001
    outer loop
      vertex  6.898075e+001 -3.900000e+001  4.287156e+001
      vertex  7.312328e+001 -3.700000e+001  4.293581e+001
      vertex  6.898075e+001 -3.700000e+001  4.287156e+001
    endloop
  endfacet
  facet normal -3.546125e-001  0.000000e+000  9.350134e-001
    outer loop
      vertex  6.898075e+001 -3.900000e+001  4.287156e+001
      vertex  6.898075e+001 -3.700000e+001  4.287156e+001
      vertex  6.510696e+001 -3.900000e+001  4.140239e+001
    endloop
  endfacet
  facet normal -3.546125e-001  0.000000e+000  9.350134e-001
    outer loop
      vertex  6.510696e+001 -3.900000e+001  4.140239e+001
      vertex  6.898075e+001 -3.700000e+001  4.287156e+001
      vertex  6.510696e+001 -3.700000e+001  4.140239e+001
    endloop
  endfacet
  facet normal  6.388227e-001  0.000000e+000  7.693540e-001
    outer loop
      vertex  5.505377e+001 -3.900000e+001  4.130892e+001
      vertex  5.236618e+001 -3.700000e+001  4.354053e+001
      vertex  5.236618e+001 -3.900000e+001  4.354053e+001
    endloop
  endfacet
  facet normal  8.644717e-001  -0.000000e+000  5.026815e-001
    outer loop
      vertex  5.236618e+001 -3.900000e+001  4.354053e+001
      vertex  5.236618e+001 -3.700000e+001  4.354053e+001
      vertex  5.061016e+001 -3.700000e+001  4.656039e+001
    endloop
  endfacet
  facet normal  8.644717e-001  0.000000e+000  5.026815e-001
    outer loop
      vertex  5.236618e+001 -3.900000e+001  4.354053e+001
      vertex  5.061016e+001 -3.700000e+001  4.656039e+001
      vertex  5.061016e+001 -3.900000e+001  4.656039e+001
    endloop
  endfacet
  facet normal  9.846279e-001  -0.000000e+000  1.746656e-001
    outer loop
      vertex  5.061016e+001 -3.900000e+001  4.656039e+001
      vertex  5.061016e+001 -3.700000e+001  4.656039e+001
      vertex  5.000000e+001 -3.700000e+001  5.000000e+001
    endloop
  endfacet
  facet normal  9.846279e-001  0.000000e+000  1.746656e-001
    outer loop
      vertex  5.061016e+001 -3.900000e+001  4.656039e+001
      vertex  5.000000e+001 -3.700000e+001  5.000000e+001
      vertex  5.000000e+001 -3.900000e+001  5.000000e+001
    endloop
  endfacet
  facet normal  6.388227e-001  -0.000000e+000  7.693540e-001
    outer loop
      vertex  5.236618e+001 -3.700000e+001  4.354053e+001
      vertex  5.505377e+001 -3.900000e+001  4.130892e+001
      vertex  5.505377e+001 -3.700000e+001  4.130892e+001
    endloop
  endfacet
  facet normal  3.352159e-001  0.000000e+000  9.421414e-001
    outer loop
      vertex  5.505377e+001 -3.700000e+001  4.130892e+001
      vertex  5.505377e+001 -3.900000e+001  4.130892e+001
      vertex  5.834496e+001 -3.900000e+001  4.013791e+001
    endloop
  endfacet
  facet normal  3.352159e-001  -0.000000e+000  9.421414e-001
    outer loop
      vertex  5.505377e+001 -3.700000e+001  4.130892e+001
      vertex  5.834496e+001 -3.900000e+001  4.013791e+001
      vertex  5.834496e+001 -3.700000e+001  4.013791e+001
    endloop
  endfacet
  facet normal -9.297302e-003  0.000000e+000  9.999568e-001
    outer loop
      vertex  5.834496e+001 -3.700000e+001  4.013791e+001
      vertex  5.834496e+001 -3.900000e+001  4.013791e+001
      vertex  6.183812e+001 -3.900000e+001  4.017039e+001
    endloop
  endfacet
  facet normal -9.297302e-003  0.000000e+000  9.999568e-001
    outer loop
      vertex  5.834496e+001 -3.700000e+001  4.013791e+001
      vertex  6.183812e+001 -3.900000e+001  4.017039e+001
      vertex  6.183812e+001 -3.700000e+001  4.017039e+001
    endloop
  endfacet
  facet normal -3.526753e-001  0.000000e+000  9.357457e-001
    outer loop
      vertex  6.183812e+001 -3.700000e+001  4.017039e+001
      vertex  6.183812e+001 -3.900000e+001  4.017039e+001
      vertex  6.510696e+001 -3.900000e+001  4.140239e+001
    endloop
  endfacet
  facet normal -3.526753e-001  0.000000e+000  9.357457e-001
    outer loop
      vertex  6.183812e+001 -3.700000e+001  4.017039e+001
      vertex  6.510696e+001 -3.900000e+001  4.140239e+001
      vertex  6.510696e+001 -3.700000e+001  4.140239e+001
    endloop
  endfacet
  facet normal  1.000000e+000  -0.000000e+000  0.000000e+000
    outer loop
      vertex  5.000000e+001 -3.700000e+001  5.500000e+001
      vertex  5.000000e+001 -3.900000e+001  5.500000e+001
      vertex  5.000000e+001 -3.700000e+001  5.000000e+001
    endloop
  endfacet
  facet normal  1.000000e+000  0.000000e+000  0.000000e+000
    outer loop
      vertex  5.000000e+001 -3.700000e+001  5.000000e+001
      vertex  5.000000e+001 -3.900000e+001  5.500000e+001
      vertex  5.000000e+001 -3.900000e+001  5.000000e+001
    endloop
  endfacet
  facet normal  9.659259e-001  0.000000e+000  2.588188e-001
    outer loop
      vertex  5.000000e+001 -3.900000e+001  5.500000e+001
      vertex  5.000000e+001 -3.700000e+001  5.500000e+001
      vertex  4.933013e+001 -3.900000e+001  5.750000e+001
    endloop
  endfacet
  facet normal  9.659259e-001  -0.000000e+000  2.588188e-001
    outer loop
      vertex  4.933013e+001 -3.900000e+001  5.750000e+001
      vertex  5.000000e+001 -3.700000e+001  5.500000e+001
      vertex  4.933013e+001 -3.700000e+001  5.750000e+001
    endloop
  endfacet
  facet normal  7.071068e-001  0.000000e+000  7.071068e-001
    outer loop
      vertex  4.933013e+001 -3.900000e+001  5.750000e+001
      vertex  4.933013e+001 -3.700000e+001  5.750000e+001
      vertex  4.750000e+001 -3.900000e+001  5.933013e+001
    endloop
  endfacet
  facet normal  7.071068e-001  -0.000000e+000  7.071068e-001
    outer loop
      vertex  4.750000e+001 -3.900000e+001  5.933013e+001
      vertex  4.933013e+001 -3.700000e+001  5.750000e+001
      vertex  4.750000e+001 -3.700000e+001  5.933013e+001
    endloop
  endfacet
  facet normal  2.588188e-001  0.000000e+000  9.659259e-001
    outer loop
      vertex  4.750000e+001 -3.900000e+001  5.933013e+001
      vertex  4.750000e+001 -3.700000e+001  5.933013e+001
      vertex  4.500000e+001 -3.900000e+001  6.000000e+001
    endloop
  endfacet
  facet normal  2.588188e-001  -0.000000e+000  9.659259e-001
    outer loop
      vertex  4.500000e+001 -3.900000e+001  6.000000e+001
      vertex  4.750000e+001 -3.700000e+001  5.933013e+001
      vertex  4.500000e+001 -3.700000e+001  6.000000e+001
    endloop
  endfacet
  facet normal  0.000000e+000  0.000000e+000  1.000000e+000
    outer loop
      vertex -8.000000e+000 -3.700000e+001  6.000000e+001
      vertex -8.000000e+000 -3.900000e+001  6.000000e+001
      vertex  4.500000e+001 -3.700000e+001  6.000000e+001
    endloop
  endfacet
  facet normal  0.000000e+000  0.000000e+000  1.000000e+000
    outer loop
      vertex  4.500000e+001 -3.700000e+001  6.000000e+001
      vertex -8.000000e+000 -3.900000e+001  6.000000e+001
      vertex  4.500000e+001 -3.900000e+001  6.000000e+001
    endloop
  endfacet
  facet normal -2.588188e-001  0.000000e+000  9.659259e-001
    outer loop
      vertex -8.000000e+000 -3.900000e+001  6.000000e+001
      vertex -8.000000e+000 -3.700000e+001  6.000000e+001
      vertex -1.050000e+001 -3.900000e+001  5.933013e+001
    endloop
  endfacet
  facet normal -2.588188e-001  0.000000e+000  9.659259e-001
    outer loop
      vertex -1.050000e+001 -3.900000e+001  5.933013e+001
      vertex -8.000000e+000 -3.700000e+001  6.000000e+001
      vertex -1.050000e+001 -3.700000e+001  5.933013e+001
    endloop
  endfacet
  facet normal -7.071069e-001  0.000000e+000  7.071066e-001
    outer loop
      vertex -1.050000e+001 -3.900000e+001  5.933013e+001
      vertex -1.050000e+001 -3.700000e+001  5.933013e+001
      vertex -1.233013e+001 -3.900000e+001  5.750000e+001
    endloop
  endfacet
  facet normal -7.071069e-001  0.000000e+000  7.071066e-001
    outer loop
      vertex -1.233013e+001 -3.900000e+001  5.750000e+001
      vertex -1.050000e+001 -3.700000e+001  5.933013e+001
      vertex -1.233013e+001 -3.700000e+001  5.750000e+001
    endloop
  endfacet
  facet normal -9.659258e-001  0.000000e+000  2.588191e-001
    outer loop
      vertex -1.233013e+001 -3.900000e+001  5.750000e+001
      vertex -1.233013e+001 -3.700000e+001  5.750000e+001
      vertex -1.300000e+001 -3.900000e+001  5.500000e+001
    endloop
  endfacet
  facet normal -9.659258e-001  0.000000e+000  2.588191e-001
    outer loop
      vertex -1.300000e+001 -3.900000e+001  5.500000e+001
      vertex -1.233013e+001 -3.700000e+001  5.750000e+001
      vertex -1.300000e+001 -3.700000e+001  5.500000e+001
    endloop
  endfacet
  facet normal -1.000000e+000  0.000000e+000  0.000000e+000
    outer loop
      vertex -1.300000e+001 -3.700000e+001  2.000000e+001
      vertex -1.300000e+001 -3.900000e+001  2.000000e+001
      vertex -1.300000e+001 -3.700000e+001  5.500000e+001
    endloop
  endfacet
  facet normal -1.000000e+000  -0.000000e+000  0.000000e+000
    outer loop
      vertex -1.300000e+001 -3.700000e+001  5.500000e+001
      vertex -1.300000e+001 -3.900000e+001  2.000000e+001
      vertex -1.300000e+001 -3.900000e+001  5.500000e+001
    endloop
  endfacet
endsolid CATIA STL
