solid CATIA STL
  facet normal  0.000000e+000 -3.826835e-001  9.238795e-001
    outer loop
      vertex  0.000000e+000 -2.635727e-015 -2.459000e+000
      vertex  6.000000e+000  1.738776e+000 -1.738776e+000
      vertex  0.000000e+000  1.738776e+000 -1.738776e+000
    endloop
  endfacet
  facet normal  0.000000e+000 -9.238795e-001  3.826835e-001
    outer loop
      vertex  0.000000e+000  1.738776e+000 -1.738776e+000
      vertex  6.000000e+000  1.738776e+000 -1.738776e+000
      vertex  6.000000e+000  2.459000e+000  0.000000e+000
    endloop
  endfacet
  facet normal  0.000000e+000 -9.238795e-001  3.826835e-001
    outer loop
      vertex  0.000000e+000  1.738776e+000 -1.738776e+000
      vertex  6.000000e+000  2.459000e+000  0.000000e+000
      vertex  0.000000e+000  2.459000e+000  0.000000e+000
    endloop
  endfacet
  facet normal  0.000000e+000 -3.826835e-001  9.238795e-001
    outer loop
      vertex  6.000000e+000  1.738776e+000 -1.738776e+000
      vertex  0.000000e+000 -2.635727e-015 -2.459000e+000
      vertex  6.000000e+000 -2.635727e-015 -2.459000e+000
    endloop
  endfacet
  facet normal  0.000000e+000  3.826835e-001  9.238795e-001
    outer loop
      vertex  6.000000e+000 -2.635727e-015 -2.459000e+000
      vertex  0.000000e+000 -2.635727e-015 -2.459000e+000
      vertex  0.000000e+000 -1.738776e+000 -1.738776e+000
    endloop
  endfacet
  facet normal  -0.000000e+000  3.826835e-001  9.238795e-001
    outer loop
      vertex  6.000000e+000 -2.635727e-015 -2.459000e+000
      vertex  0.000000e+000 -1.738776e+000 -1.738776e+000
      vertex  6.000000e+000 -1.738776e+000 -1.738776e+000
    endloop
  endfacet
  facet normal  0.000000e+000  9.238795e-001  3.826835e-001
    outer loop
      vertex  6.000000e+000 -1.738776e+000 -1.738776e+000
      vertex  0.000000e+000 -1.738776e+000 -1.738776e+000
      vertex  0.000000e+000 -2.459000e+000  1.393146e-015
    endloop
  endfacet
  facet normal  -0.000000e+000  9.238795e-001  3.826835e-001
    outer loop
      vertex  6.000000e+000 -1.738776e+000 -1.738776e+000
      vertex  0.000000e+000 -2.459000e+000  1.393146e-015
      vertex  6.000000e+000 -2.459000e+000  1.393146e-015
    endloop
  endfacet
  facet normal  0.000000e+000  3.826835e-001 -9.238795e-001
    outer loop
      vertex  0.000000e+000  3.380947e-015  2.459000e+000
      vertex  6.000000e+000 -1.738776e+000  1.738776e+000
      vertex  0.000000e+000 -1.738776e+000  1.738776e+000
    endloop
  endfacet
  facet normal  0.000000e+000  9.238795e-001 -3.826835e-001
    outer loop
      vertex  0.000000e+000 -1.738776e+000  1.738776e+000
      vertex  6.000000e+000 -1.738776e+000  1.738776e+000
      vertex  6.000000e+000 -2.459000e+000  1.393146e-015
    endloop
  endfacet
  facet normal  0.000000e+000  9.238795e-001 -3.826835e-001
    outer loop
      vertex  0.000000e+000 -1.738776e+000  1.738776e+000
      vertex  6.000000e+000 -2.459000e+000  1.393146e-015
      vertex  0.000000e+000 -2.459000e+000  1.393146e-015
    endloop
  endfacet
  facet normal  0.000000e+000  3.826835e-001 -9.238795e-001
    outer loop
      vertex  6.000000e+000 -1.738776e+000  1.738776e+000
      vertex  0.000000e+000  3.380947e-015  2.459000e+000
      vertex  6.000000e+000  3.380947e-015  2.459000e+000
    endloop
  endfacet
  facet normal  -0.000000e+000 -3.826835e-001 -9.238795e-001
    outer loop
      vertex  6.000000e+000  3.380947e-015  2.459000e+000
      vertex  0.000000e+000  3.380947e-015  2.459000e+000
      vertex  0.000000e+000  1.738776e+000  1.738776e+000
    endloop
  endfacet
  facet normal  0.000000e+000 -3.826835e-001 -9.238795e-001
    outer loop
      vertex  6.000000e+000  3.380947e-015  2.459000e+000
      vertex  0.000000e+000  1.738776e+000  1.738776e+000
      vertex  6.000000e+000  1.738776e+000  1.738776e+000
    endloop
  endfacet
  facet normal  -0.000000e+000 -9.238795e-001 -3.826835e-001
    outer loop
      vertex  6.000000e+000  1.738776e+000  1.738776e+000
      vertex  0.000000e+000  1.738776e+000  1.738776e+000
      vertex  0.000000e+000  2.459000e+000  0.000000e+000
    endloop
  endfacet
  facet normal  0.000000e+000 -9.238795e-001 -3.826835e-001
    outer loop
      vertex  6.000000e+000  1.738776e+000  1.738776e+000
      vertex  0.000000e+000  2.459000e+000  0.000000e+000
      vertex  6.000000e+000  2.459000e+000  0.000000e+000
    endloop
  endfacet
  facet normal -8.619899e-001  3.827825e-001  3.323416e-001
    outer loop
      vertex  0.000000e+000  4.373428e+000  2.525000e+000
      vertex -1.387779e-017  3.113901e+000  3.975691e+000
      vertex  4.177145e-001  5.000000e+000  2.886751e+000
    endloop
  endfacet
  facet normal -8.619899e-001  4.792075e-001  1.653286e-001
    outer loop
      vertex  2.775558e-017  5.000000e+000  7.088723e-001
      vertex  0.000000e+000  4.373428e+000  2.525000e+000
      vertex  4.177145e-001  5.000000e+000  2.886751e+000
    endloop
  endfacet
  facet normal -8.619899e-001  9.642503e-002 -4.976702e-001
    outer loop
      vertex  0.000000e+000  3.557662e-015 -5.050000e+000
      vertex -1.387779e-017  1.886099e+000 -4.684563e+000
      vertex  4.177145e-001  3.552714e-015 -5.773503e+000
    endloop
  endfacet
  facet normal -8.619899e-001 -9.642503e-002 -4.976702e-001
    outer loop
      vertex  1.387779e-017 -1.886099e+000 -4.684563e+000
      vertex  0.000000e+000  3.557662e-015 -5.050000e+000
      vertex  4.177145e-001  3.552714e-015 -5.773503e+000
    endloop
  endfacet
  facet normal -8.619899e-001  4.792075e-001 -1.653286e-001
    outer loop
      vertex  0.000000e+000  4.373428e+000 -2.525000e+000
      vertex -1.387779e-017  5.000000e+000 -7.088723e-001
      vertex  4.177145e-001  5.000000e+000 -2.886751e+000
    endloop
  endfacet
  facet normal -8.619899e-001  3.827825e-001 -3.323416e-001
    outer loop
      vertex  2.775558e-017  3.113901e+000 -3.975691e+000
      vertex  0.000000e+000  4.373428e+000 -2.525000e+000
      vertex  4.177145e-001  5.000000e+000 -2.886751e+000
    endloop
  endfacet
  facet normal -8.619899e-001 -3.827825e-001 -3.323416e-001
    outer loop
      vertex  0.000000e+000 -4.373428e+000 -2.525000e+000
      vertex  0.000000e+000 -3.113901e+000 -3.975691e+000
      vertex  4.177145e-001 -5.000000e+000 -2.886751e+000
    endloop
  endfacet
  facet normal -8.619899e-001 -4.792075e-001 -1.653286e-001
    outer loop
      vertex  0.000000e+000 -5.000000e+000 -7.088723e-001
      vertex  0.000000e+000 -4.373428e+000 -2.525000e+000
      vertex  4.177145e-001 -5.000000e+000 -2.886751e+000
    endloop
  endfacet
  facet normal -8.619899e-001 -9.642503e-002  4.976702e-001
    outer loop
      vertex  0.000000e+000  8.158490e-015  5.050000e+000
      vertex -2.775558e-017 -1.886099e+000  4.684563e+000
      vertex  4.177145e-001  2.664535e-015  5.773503e+000
    endloop
  endfacet
  facet normal -8.619899e-001  9.642503e-002  4.976702e-001
    outer loop
      vertex  1.387779e-017  1.886099e+000  4.684563e+000
      vertex  0.000000e+000  8.158490e-015  5.050000e+000
      vertex  4.177145e-001  2.664535e-015  5.773503e+000
    endloop
  endfacet
  facet normal -8.619899e-001 -4.792075e-001  1.653286e-001
    outer loop
      vertex  0.000000e+000 -4.373428e+000  2.525000e+000
      vertex -4.163336e-017 -5.000000e+000  7.088723e-001
      vertex  4.177145e-001 -5.000000e+000  2.886751e+000
    endloop
  endfacet
  facet normal -8.619899e-001 -3.827825e-001  3.323416e-001
    outer loop
      vertex  4.163336e-017 -3.113901e+000  3.975691e+000
      vertex  0.000000e+000 -4.373428e+000  2.525000e+000
      vertex  4.177145e-001 -5.000000e+000  2.886751e+000
    endloop
  endfacet
  facet normal  8.619899e-001  3.827825e-001  3.323417e-001
    outer loop
      vertex  2.482285e+000  5.000000e+000  2.886751e+000
      vertex  2.900000e+000  3.113901e+000  3.975691e+000
      vertex  2.900000e+000  4.373428e+000  2.525000e+000
    endloop
  endfacet
  facet normal  8.619899e-001  4.792076e-001  1.653286e-001
    outer loop
      vertex  2.482285e+000  5.000000e+000  2.886751e+000
      vertex  2.900000e+000  4.373428e+000  2.525000e+000
      vertex  2.900000e+000  5.000000e+000  7.088723e-001
    endloop
  endfacet
  facet normal  8.619899e-001  9.642504e-002 -4.976703e-001
    outer loop
      vertex  2.482285e+000  3.552714e-015 -5.773503e+000
      vertex  2.900000e+000  1.886099e+000 -4.684563e+000
      vertex  2.900000e+000  3.557662e-015 -5.050000e+000
    endloop
  endfacet
  facet normal  8.619899e-001 -9.642504e-002 -4.976703e-001
    outer loop
      vertex  2.482285e+000  3.552714e-015 -5.773503e+000
      vertex  2.900000e+000  3.557662e-015 -5.050000e+000
      vertex  2.900000e+000 -1.886099e+000 -4.684563e+000
    endloop
  endfacet
  facet normal  8.619899e-001  4.792076e-001 -1.653286e-001
    outer loop
      vertex  2.482285e+000  5.000000e+000 -2.886751e+000
      vertex  2.900000e+000  5.000000e+000 -7.088723e-001
      vertex  2.900000e+000  4.373428e+000 -2.525000e+000
    endloop
  endfacet
  facet normal  8.619899e-001  3.827825e-001 -3.323417e-001
    outer loop
      vertex  2.482285e+000  5.000000e+000 -2.886751e+000
      vertex  2.900000e+000  4.373428e+000 -2.525000e+000
      vertex  2.900000e+000  3.113901e+000 -3.975691e+000
    endloop
  endfacet
  facet normal  8.619899e-001 -3.827825e-001 -3.323417e-001
    outer loop
      vertex  2.482285e+000 -5.000000e+000 -2.886751e+000
      vertex  2.900000e+000 -3.113901e+000 -3.975691e+000
      vertex  2.900000e+000 -4.373428e+000 -2.525000e+000
    endloop
  endfacet
  facet normal  8.619899e-001 -4.792076e-001 -1.653286e-001
    outer loop
      vertex  2.482285e+000 -5.000000e+000 -2.886751e+000
      vertex  2.900000e+000 -4.373428e+000 -2.525000e+000
      vertex  2.900000e+000 -5.000000e+000 -7.088723e-001
    endloop
  endfacet
  facet normal  8.619899e-001 -9.642504e-002  4.976703e-001
    outer loop
      vertex  2.482285e+000 -2.403703e-017  5.773503e+000
      vertex  2.900000e+000 -1.886099e+000  4.684563e+000
      vertex  2.900000e+000  4.794514e-015  5.050000e+000
    endloop
  endfacet
  facet normal  8.619899e-001  9.642504e-002  4.976703e-001
    outer loop
      vertex  2.482285e+000 -2.403703e-017  5.773503e+000
      vertex  2.900000e+000  4.794514e-015  5.050000e+000
      vertex  2.900000e+000  1.886099e+000  4.684563e+000
    endloop
  endfacet
  facet normal  8.619899e-001 -4.792076e-001  1.653286e-001
    outer loop
      vertex  2.482285e+000 -5.000000e+000  2.886751e+000
      vertex  2.900000e+000 -5.000000e+000  7.088723e-001
      vertex  2.900000e+000 -4.373428e+000  2.525000e+000
    endloop
  endfacet
  facet normal  8.619899e-001 -3.827825e-001  3.323417e-001
    outer loop
      vertex  2.482285e+000 -5.000000e+000  2.886751e+000
      vertex  2.900000e+000 -4.373428e+000  2.525000e+000
      vertex  2.900000e+000 -3.113901e+000  3.975691e+000
    endloop
  endfacet
  facet normal -1.000000e+000  5.373309e-017 -1.297231e-016
    outer loop
      vertex  0.000000e+000  3.380947e-015  2.459000e+000
      vertex  0.000000e+000 -1.738776e+000  1.738776e+000
      vertex -4.163336e-017 -5.000000e+000  7.088723e-001
    endloop
  endfacet
  facet normal -9.999999e-001  3.441610e-019  2.280551e-017
    outer loop
      vertex  0.000000e+000  3.380947e-015  2.459000e+000
      vertex -4.163336e-017 -5.000000e+000  7.088723e-001
      vertex  0.000000e+000 -4.373428e+000  2.525000e+000
    endloop
  endfacet
  facet normal -9.999999e-001  4.274990e-019  2.832783e-017
    outer loop
      vertex  0.000000e+000  3.380947e-015  2.459000e+000
      vertex  0.000000e+000 -4.373428e+000  2.525000e+000
      vertex  4.163336e-017 -3.113901e+000  3.975691e+000
    endloop
  endfacet
  facet normal -1.000000e+000 -3.311278e-017 -4.053335e-017
    outer loop
      vertex  0.000000e+000  3.380947e-015  2.459000e+000
      vertex  4.163336e-017 -3.113901e+000  3.975691e+000
      vertex -2.775558e-017 -1.886099e+000  4.684563e+000
    endloop
  endfacet
  facet normal -1.000000e+000  1.471587e-017  0.000000e+000
    outer loop
      vertex  0.000000e+000  3.380947e-015  2.459000e+000
      vertex -2.775558e-017 -1.886099e+000  4.684563e+000
      vertex  0.000000e+000  8.158490e-015  5.050000e+000
    endloop
  endfacet
  facet normal -1.000000e+000  7.357934e-018 -1.356729e-032
    outer loop
      vertex  0.000000e+000  3.380947e-015  2.459000e+000
      vertex  0.000000e+000  8.158490e-015  5.050000e+000
      vertex  1.387779e-017  1.886099e+000  4.684563e+000
    endloop
  endfacet
  facet normal -1.000000e+000 -1.276164e-017  1.705074e-017
    outer loop
      vertex  0.000000e+000  3.380947e-015  2.459000e+000
      vertex  1.387779e-017  1.886099e+000  4.684563e+000
      vertex -1.387779e-017  3.113901e+000  3.975691e+000
    endloop
  endfacet
  facet normal -9.999999e-001  1.424997e-019 -9.442608e-018
    outer loop
      vertex  0.000000e+000  3.380947e-015  2.459000e+000
      vertex -1.387779e-017  3.113901e+000  3.975691e+000
      vertex  0.000000e+000  4.373428e+000  2.525000e+000
    endloop
  endfacet
  facet normal -1.000000e+000 -1.678344e-017 -4.864704e-017
    outer loop
      vertex  0.000000e+000  3.557662e-015 -5.050000e+000
      vertex  1.387779e-017 -1.886099e+000 -4.684563e+000
      vertex  0.000000e+000 -3.113901e+000 -3.975691e+000
    endloop
  endfacet
  facet normal -1.000000e+000  0.000000e+000  0.000000e+000
    outer loop
      vertex  0.000000e+000  3.557662e-015 -5.050000e+000
      vertex  0.000000e+000 -3.113901e+000 -3.975691e+000
      vertex  0.000000e+000 -4.373428e+000 -2.525000e+000
    endloop
  endfacet
  facet normal -1.000000e+000  0.000000e+000  0.000000e+000
    outer loop
      vertex  0.000000e+000  3.557662e-015 -5.050000e+000
      vertex  0.000000e+000 -4.373428e+000 -2.525000e+000
      vertex  0.000000e+000 -2.635727e-015 -2.459000e+000
    endloop
  endfacet
  facet normal -1.000000e+000  0.000000e+000  0.000000e+000
    outer loop
      vertex  0.000000e+000  3.557662e-015 -5.050000e+000
      vertex  0.000000e+000 -2.635727e-015 -2.459000e+000
      vertex  0.000000e+000  4.373428e+000 -2.525000e+000
    endloop
  endfacet
  facet normal -1.000000e+000  2.214877e-017 -3.836279e-017
    outer loop
      vertex  0.000000e+000  3.557662e-015 -5.050000e+000
      vertex  0.000000e+000  4.373428e+000 -2.525000e+000
      vertex  2.775558e-017  3.113901e+000 -3.975691e+000
    endloop
  endfacet
  facet normal -1.000000e+000 -2.820155e-017  1.075783e-016
    outer loop
      vertex  0.000000e+000  3.557662e-015 -5.050000e+000
      vertex  2.775558e-017  3.113901e+000 -3.975691e+000
      vertex -1.387779e-017  1.886099e+000 -4.684563e+000
    endloop
  endfacet
  facet normal -1.000000e+000  1.468744e-017 -6.083736e-018
    outer loop
      vertex  0.000000e+000 -1.738776e+000  1.738776e+000
      vertex  0.000000e+000 -2.459000e+000  1.393146e-015
      vertex -4.163336e-017 -5.000000e+000  7.088723e-001
    endloop
  endfacet
  facet normal -9.999999e-001  1.852533e-017  7.673440e-018
    outer loop
      vertex -4.163336e-017 -5.000000e+000  7.088723e-001
      vertex  0.000000e+000 -2.459000e+000  1.393146e-015
      vertex  0.000000e+000 -1.738776e+000 -1.738776e+000
    endloop
  endfacet
  facet normal -1.000000e+000 -9.273831e-018 -2.936591e-017
    outer loop
      vertex -4.163336e-017 -5.000000e+000  7.088723e-001
      vertex  0.000000e+000 -1.738776e+000 -1.738776e+000
      vertex  0.000000e+000 -5.000000e+000 -7.088723e-001
    endloop
  endfacet
  facet normal -1.000000e+000  0.000000e+000  0.000000e+000
    outer loop
      vertex  0.000000e+000 -5.000000e+000 -7.088723e-001
      vertex  0.000000e+000 -1.738776e+000 -1.738776e+000
      vertex  0.000000e+000 -2.635727e-015 -2.459000e+000
    endloop
  endfacet
  facet normal -9.999999e-001  -0.000000e+000  0.000000e+000
    outer loop
      vertex  0.000000e+000 -5.000000e+000 -7.088723e-001
      vertex  0.000000e+000 -2.635727e-015 -2.459000e+000
      vertex  0.000000e+000 -4.373428e+000 -2.525000e+000
    endloop
  endfacet
  facet normal -1.000000e+000  0.000000e+000  -0.000000e+000
    outer loop
      vertex  0.000000e+000 -2.635727e-015 -2.459000e+000
      vertex  0.000000e+000  1.738776e+000 -1.738776e+000
      vertex  0.000000e+000  4.373428e+000 -2.525000e+000
    endloop
  endfacet
  facet normal -1.000000e+000  0.000000e+000  0.000000e+000
    outer loop
      vertex  0.000000e+000  4.373428e+000 -2.525000e+000
      vertex  0.000000e+000  1.738776e+000 -1.738776e+000
      vertex  0.000000e+000  2.459000e+000  0.000000e+000
    endloop
  endfacet
  facet normal -9.999999e-001 -6.926632e-018 -5.251699e-018
    outer loop
      vertex  0.000000e+000  4.373428e+000 -2.525000e+000
      vertex  0.000000e+000  2.459000e+000  0.000000e+000
      vertex -1.387779e-017  5.000000e+000 -7.088723e-001
    endloop
  endfacet
  facet normal -9.999999e-001 -6.175109e-018 -2.557813e-018
    outer loop
      vertex -1.387779e-017  5.000000e+000 -7.088723e-001
      vertex  0.000000e+000  2.459000e+000  0.000000e+000
      vertex  0.000000e+000  1.738776e+000  1.738776e+000
    endloop
  endfacet
  facet normal -1.000000e+000  1.778462e-017  2.936591e-017
    outer loop
      vertex -1.387779e-017  5.000000e+000 -7.088723e-001
      vertex  0.000000e+000  1.738776e+000  1.738776e+000
      vertex  2.775558e-017  5.000000e+000  7.088723e-001
    endloop
  endfacet
  facet normal -1.000000e+000  3.582207e-017  8.648212e-017
    outer loop
      vertex  2.775558e-017  5.000000e+000  7.088723e-001
      vertex  0.000000e+000  1.738776e+000  1.738776e+000
      vertex  0.000000e+000  3.380947e-015  2.459000e+000
    endloop
  endfacet
  facet normal -9.999999e-001  2.294406e-019 -1.520367e-017
    outer loop
      vertex  2.775558e-017  5.000000e+000  7.088723e-001
      vertex  0.000000e+000  3.380947e-015  2.459000e+000
      vertex  0.000000e+000  4.373428e+000  2.525000e+000
    endloop
  endfacet
  facet normal  6.511214e-016  5.000001e-001  8.660253e-001
    outer loop
      vertex  4.177145e-001  2.664535e-015  5.773503e+000
      vertex  2.482285e+000 -2.403703e-017  5.773503e+000
      vertex  1.387779e-017  1.886099e+000  4.684563e+000
    endloop
  endfacet
  facet normal  -0.000000e+000  5.000001e-001  8.660254e-001
    outer loop
      vertex  1.387779e-017  1.886099e+000  4.684563e+000
      vertex  2.482285e+000 -2.403703e-017  5.773503e+000
      vertex  2.900000e+000  1.886099e+000  4.684563e+000
    endloop
  endfacet
  facet normal  0.000000e+000  5.000000e-001  8.660254e-001
    outer loop
      vertex  1.387779e-017  1.886099e+000  4.684563e+000
      vertex  2.900000e+000  1.886099e+000  4.684563e+000
      vertex -1.387779e-017  3.113901e+000  3.975691e+000
    endloop
  endfacet
  facet normal -1.629509e-007  4.999997e-001  8.660256e-001
    outer loop
      vertex -1.387779e-017  3.113901e+000  3.975691e+000
      vertex  2.900000e+000  1.886099e+000  4.684563e+000
      vertex  2.900000e+000  2.500000e+000  4.330127e+000
    endloop
  endfacet
  facet normal  0.000000e+000  5.000003e-001  8.660253e-001
    outer loop
      vertex -1.387779e-017  3.113901e+000  3.975691e+000
      vertex  2.900000e+000  2.500000e+000  4.330127e+000
      vertex  2.900000e+000  3.113901e+000  3.975691e+000
    endloop
  endfacet
  facet normal  -0.000000e+000  4.999999e-001  8.660254e-001
    outer loop
      vertex  2.482285e+000  5.000000e+000  2.886751e+000
      vertex  4.177145e-001  5.000000e+000  2.886751e+000
      vertex  2.900000e+000  3.113901e+000  3.975691e+000
    endloop
  endfacet
  facet normal  0.000000e+000  4.999999e-001  8.660254e-001
    outer loop
      vertex  2.900000e+000  3.113901e+000  3.975691e+000
      vertex  4.177145e-001  5.000000e+000  2.886751e+000
      vertex -1.387779e-017  3.113901e+000  3.975691e+000
    endloop
  endfacet
  facet normal  0.000000e+000 -4.999999e-001  8.660254e-001
    outer loop
      vertex  4.177145e-001 -5.000000e+000  2.886751e+000
      vertex  2.482285e+000 -5.000000e+000  2.886751e+000
      vertex  4.163336e-017 -3.113901e+000  3.975691e+000
    endloop
  endfacet
  facet normal  0.000000e+000 -4.999999e-001  8.660254e-001
    outer loop
      vertex  4.163336e-017 -3.113901e+000  3.975691e+000
      vertex  2.482285e+000 -5.000000e+000  2.886751e+000
      vertex  2.900000e+000 -3.113901e+000  3.975691e+000
    endloop
  endfacet
  facet normal  0.000000e+000 -5.000000e-001  8.660254e-001
    outer loop
      vertex  4.163336e-017 -3.113901e+000  3.975691e+000
      vertex  2.900000e+000 -3.113901e+000  3.975691e+000
      vertex -2.775558e-017 -1.886099e+000  4.684563e+000
    endloop
  endfacet
  facet normal -1.629509e-007 -5.000003e-001  8.660253e-001
    outer loop
      vertex -2.775558e-017 -1.886099e+000  4.684563e+000
      vertex  2.900000e+000 -3.113901e+000  3.975691e+000
      vertex  2.900000e+000 -2.500000e+000  4.330127e+000
    endloop
  endfacet
  facet normal  0.000000e+000 -4.999997e-001  8.660256e-001
    outer loop
      vertex -2.775558e-017 -1.886099e+000  4.684563e+000
      vertex  2.900000e+000 -2.500000e+000  4.330127e+000
      vertex  2.900000e+000 -1.886099e+000  4.684563e+000
    endloop
  endfacet
  facet normal -6.511214e-016 -5.000001e-001  8.660253e-001
    outer loop
      vertex  2.482285e+000 -2.403703e-017  5.773503e+000
      vertex  4.177145e-001  2.664535e-015  5.773503e+000
      vertex  2.900000e+000 -1.886099e+000  4.684563e+000
    endloop
  endfacet
  facet normal  0.000000e+000 -5.000001e-001  8.660254e-001
    outer loop
      vertex  2.900000e+000 -1.886099e+000  4.684563e+000
      vertex  4.177145e-001  2.664535e-015  5.773503e+000
      vertex -2.775558e-017 -1.886099e+000  4.684563e+000
    endloop
  endfacet
  facet normal  0.000000e+000 -1.000000e+000  0.000000e+000
    outer loop
      vertex  4.177145e-001 -5.000000e+000 -2.886751e+000
      vertex  2.482285e+000 -5.000000e+000 -2.886751e+000
      vertex  0.000000e+000 -5.000000e+000 -7.088723e-001
    endloop
  endfacet
  facet normal  0.000000e+000 -1.000000e+000  0.000000e+000
    outer loop
      vertex  0.000000e+000 -5.000000e+000 -7.088723e-001
      vertex  2.482285e+000 -5.000000e+000 -2.886751e+000
      vertex  2.900000e+000 -5.000000e+000 -7.088723e-001
    endloop
  endfacet
  facet normal  0.000000e+000 -1.000000e+000  0.000000e+000
    outer loop
      vertex  0.000000e+000 -5.000000e+000 -7.088723e-001
      vertex  2.900000e+000 -5.000000e+000 -7.088723e-001
      vertex -4.163336e-017 -5.000000e+000  7.088723e-001
    endloop
  endfacet
  facet normal  0.000000e+000 -1.000000e+000  0.000000e+000
    outer loop
      vertex -4.163336e-017 -5.000000e+000  7.088723e-001
      vertex  2.900000e+000 -5.000000e+000 -7.088723e-001
      vertex  2.900000e+000 -5.000000e+000  4.440892e-016
    endloop
  endfacet
  facet normal  0.000000e+000 -1.000000e+000  0.000000e+000
    outer loop
      vertex -4.163336e-017 -5.000000e+000  7.088723e-001
      vertex  2.900000e+000 -5.000000e+000  4.440892e-016
      vertex  2.900000e+000 -5.000000e+000  7.088723e-001
    endloop
  endfacet
  facet normal  0.000000e+000 -1.000000e+000  0.000000e+000
    outer loop
      vertex  2.482285e+000 -5.000000e+000  2.886751e+000
      vertex  4.177145e-001 -5.000000e+000  2.886751e+000
      vertex  2.900000e+000 -5.000000e+000  7.088723e-001
    endloop
  endfacet
  facet normal  0.000000e+000 -1.000000e+000  0.000000e+000
    outer loop
      vertex  2.900000e+000 -5.000000e+000  7.088723e-001
      vertex  4.177145e-001 -5.000000e+000  2.886751e+000
      vertex -4.163336e-017 -5.000000e+000  7.088723e-001
    endloop
  endfacet
  facet normal  -0.000000e+000 -5.000001e-001 -8.660253e-001
    outer loop
      vertex  4.177145e-001  3.552714e-015 -5.773503e+000
      vertex  2.482285e+000  3.552714e-015 -5.773503e+000
      vertex  1.387779e-017 -1.886099e+000 -4.684563e+000
    endloop
  endfacet
  facet normal  0.000000e+000 -5.000001e-001 -8.660254e-001
    outer loop
      vertex  1.387779e-017 -1.886099e+000 -4.684563e+000
      vertex  2.482285e+000  3.552714e-015 -5.773503e+000
      vertex  2.900000e+000 -1.886099e+000 -4.684563e+000
    endloop
  endfacet
  facet normal  -0.000000e+000 -5.000000e-001 -8.660254e-001
    outer loop
      vertex  1.387779e-017 -1.886099e+000 -4.684563e+000
      vertex  2.900000e+000 -1.886099e+000 -4.684563e+000
      vertex  0.000000e+000 -3.113901e+000 -3.975691e+000
    endloop
  endfacet
  facet normal -1.629509e-007 -4.999997e-001 -8.660256e-001
    outer loop
      vertex  0.000000e+000 -3.113901e+000 -3.975691e+000
      vertex  2.900000e+000 -1.886099e+000 -4.684563e+000
      vertex  2.900000e+000 -2.500000e+000 -4.330127e+000
    endloop
  endfacet
  facet normal  0.000000e+000 -5.000003e-001 -8.660253e-001
    outer loop
      vertex  0.000000e+000 -3.113901e+000 -3.975691e+000
      vertex  2.900000e+000 -2.500000e+000 -4.330127e+000
      vertex  2.900000e+000 -3.113901e+000 -3.975691e+000
    endloop
  endfacet
  facet normal  0.000000e+000 -4.999999e-001 -8.660254e-001
    outer loop
      vertex  2.482285e+000 -5.000000e+000 -2.886751e+000
      vertex  4.177145e-001 -5.000000e+000 -2.886751e+000
      vertex  2.900000e+000 -3.113901e+000 -3.975691e+000
    endloop
  endfacet
  facet normal  -0.000000e+000 -4.999999e-001 -8.660254e-001
    outer loop
      vertex  2.900000e+000 -3.113901e+000 -3.975691e+000
      vertex  4.177145e-001 -5.000000e+000 -2.886751e+000
      vertex  0.000000e+000 -3.113901e+000 -3.975691e+000
    endloop
  endfacet
  facet normal  0.000000e+000  4.999999e-001 -8.660254e-001
    outer loop
      vertex  4.177145e-001  5.000000e+000 -2.886751e+000
      vertex  2.482285e+000  5.000000e+000 -2.886751e+000
      vertex  2.775558e-017  3.113901e+000 -3.975691e+000
    endloop
  endfacet
  facet normal  0.000000e+000  4.999999e-001 -8.660254e-001
    outer loop
      vertex  2.775558e-017  3.113901e+000 -3.975691e+000
      vertex  2.482285e+000  5.000000e+000 -2.886751e+000
      vertex  2.900000e+000  3.113901e+000 -3.975691e+000
    endloop
  endfacet
  facet normal  0.000000e+000  5.000000e-001 -8.660254e-001
    outer loop
      vertex  2.775558e-017  3.113901e+000 -3.975691e+000
      vertex  2.900000e+000  3.113901e+000 -3.975691e+000
      vertex -1.387779e-017  1.886099e+000 -4.684563e+000
    endloop
  endfacet
  facet normal -1.629509e-007  5.000003e-001 -8.660253e-001
    outer loop
      vertex -1.387779e-017  1.886099e+000 -4.684563e+000
      vertex  2.900000e+000  3.113901e+000 -3.975691e+000
      vertex  2.900000e+000  2.500000e+000 -4.330127e+000
    endloop
  endfacet
  facet normal  0.000000e+000  4.999997e-001 -8.660256e-001
    outer loop
      vertex -1.387779e-017  1.886099e+000 -4.684563e+000
      vertex  2.900000e+000  2.500000e+000 -4.330127e+000
      vertex  2.900000e+000  1.886099e+000 -4.684563e+000
    endloop
  endfacet
  facet normal  0.000000e+000  5.000001e-001 -8.660253e-001
    outer loop
      vertex  2.482285e+000  3.552714e-015 -5.773503e+000
      vertex  4.177145e-001  3.552714e-015 -5.773503e+000
      vertex  2.900000e+000  1.886099e+000 -4.684563e+000
    endloop
  endfacet
  facet normal  0.000000e+000  5.000001e-001 -8.660254e-001
    outer loop
      vertex  2.900000e+000  1.886099e+000 -4.684563e+000
      vertex  4.177145e-001  3.552714e-015 -5.773503e+000
      vertex -1.387779e-017  1.886099e+000 -4.684563e+000
    endloop
  endfacet
  facet normal  0.000000e+000  1.000000e+000  0.000000e+000
    outer loop
      vertex  4.177145e-001  5.000000e+000  2.886751e+000
      vertex  2.482285e+000  5.000000e+000  2.886751e+000
      vertex  2.775558e-017  5.000000e+000  7.088723e-001
    endloop
  endfacet
  facet normal  0.000000e+000  1.000000e+000  0.000000e+000
    outer loop
      vertex  2.775558e-017  5.000000e+000  7.088723e-001
      vertex  2.482285e+000  5.000000e+000  2.886751e+000
      vertex  2.900000e+000  5.000000e+000  7.088723e-001
    endloop
  endfacet
  facet normal  0.000000e+000  1.000000e+000  0.000000e+000
    outer loop
      vertex  2.775558e-017  5.000000e+000  7.088723e-001
      vertex  2.900000e+000  5.000000e+000  7.088723e-001
      vertex -1.387779e-017  5.000000e+000 -7.088723e-001
    endloop
  endfacet
  facet normal  0.000000e+000  1.000000e+000  0.000000e+000
    outer loop
      vertex -1.387779e-017  5.000000e+000 -7.088723e-001
      vertex  2.900000e+000  5.000000e+000  7.088723e-001
      vertex  2.900000e+000  5.000000e+000 -2.556874e-015
    endloop
  endfacet
  facet normal  0.000000e+000  1.000000e+000  0.000000e+000
    outer loop
      vertex -1.387779e-017  5.000000e+000 -7.088723e-001
      vertex  2.900000e+000  5.000000e+000 -2.556874e-015
      vertex  2.900000e+000  5.000000e+000 -7.088723e-001
    endloop
  endfacet
  facet normal  0.000000e+000  1.000000e+000  0.000000e+000
    outer loop
      vertex  2.482285e+000  5.000000e+000 -2.886751e+000
      vertex  4.177145e-001  5.000000e+000 -2.886751e+000
      vertex  2.900000e+000  5.000000e+000 -7.088723e-001
    endloop
  endfacet
  facet normal  0.000000e+000  1.000000e+000  0.000000e+000
    outer loop
      vertex  2.900000e+000  5.000000e+000 -7.088723e-001
      vertex  4.177145e-001  5.000000e+000 -2.886751e+000
      vertex -1.387779e-017  5.000000e+000 -7.088723e-001
    endloop
  endfacet
  facet normal  1.000000e+000  -0.000000e+000  0.000000e+000
    outer loop
      vertex  2.900000e+000 -2.500000e+000  4.330127e+000
      vertex  2.900000e+000 -3.113901e+000  3.975691e+000
      vertex  2.900000e+000 -4.330127e+000  2.500000e+000
    endloop
  endfacet
  facet normal  1.000000e+000  0.000000e+000  -0.000000e+000
    outer loop
      vertex  2.900000e+000 -4.330127e+000  2.500000e+000
      vertex  2.900000e+000 -3.113901e+000  3.975691e+000
      vertex  2.900000e+000 -4.373428e+000  2.525000e+000
    endloop
  endfacet
  facet normal  1.000000e+000  0.000000e+000  0.000000e+000
    outer loop
      vertex  2.900000e+000 -4.330127e+000  2.500000e+000
      vertex  2.900000e+000 -4.373428e+000  2.525000e+000
      vertex  2.900000e+000 -5.000000e+000  4.440892e-016
    endloop
  endfacet
  facet normal  1.000000e+000  0.000000e+000  0.000000e+000
    outer loop
      vertex  2.900000e+000 -5.000000e+000  4.440892e-016
      vertex  2.900000e+000 -4.373428e+000  2.525000e+000
      vertex  2.900000e+000 -5.000000e+000  7.088723e-001
    endloop
  endfacet
  facet normal  1.000000e+000  0.000000e+000  0.000000e+000
    outer loop
      vertex  2.900000e+000  3.113901e+000  3.975691e+000
      vertex  2.900000e+000  2.500000e+000  4.330127e+000
      vertex  2.900000e+000  4.373428e+000  2.525000e+000
    endloop
  endfacet
  facet normal  1.000000e+000  0.000000e+000  0.000000e+000
    outer loop
      vertex  2.900000e+000  4.373428e+000  2.525000e+000
      vertex  2.900000e+000  2.500000e+000  4.330127e+000
      vertex  2.900000e+000  4.330127e+000  2.500000e+000
    endloop
  endfacet
  facet normal  1.000000e+000  -0.000000e+000  0.000000e+000
    outer loop
      vertex  2.900000e+000  4.373428e+000  2.525000e+000
      vertex  2.900000e+000  4.330127e+000  2.500000e+000
      vertex  2.900000e+000  5.000000e+000  7.088723e-001
    endloop
  endfacet
  facet normal  1.000000e+000  0.000000e+000  0.000000e+000
    outer loop
      vertex  2.900000e+000  5.000000e+000  7.088723e-001
      vertex  2.900000e+000  4.330127e+000  2.500000e+000
      vertex  2.900000e+000  5.000000e+000 -2.556874e-015
    endloop
  endfacet
  facet normal  1.000000e+000  0.000000e+000  0.000000e+000
    outer loop
      vertex  2.900000e+000  5.000000e+000 -7.088723e-001
      vertex  2.900000e+000  5.000000e+000 -2.556874e-015
      vertex  2.900000e+000  4.373428e+000 -2.525000e+000
    endloop
  endfacet
  facet normal  1.000000e+000  0.000000e+000  -0.000000e+000
    outer loop
      vertex  2.900000e+000  4.373428e+000 -2.525000e+000
      vertex  2.900000e+000  5.000000e+000 -2.556874e-015
      vertex  2.900000e+000  4.330127e+000 -2.500000e+000
    endloop
  endfacet
  facet normal  1.000000e+000  0.000000e+000  0.000000e+000
    outer loop
      vertex  2.900000e+000  4.373428e+000 -2.525000e+000
      vertex  2.900000e+000  4.330127e+000 -2.500000e+000
      vertex  2.900000e+000  3.113901e+000 -3.975691e+000
    endloop
  endfacet
  facet normal  1.000000e+000  0.000000e+000  -0.000000e+000
    outer loop
      vertex  2.900000e+000  3.113901e+000 -3.975691e+000
      vertex  2.900000e+000  4.330127e+000 -2.500000e+000
      vertex  2.900000e+000  2.500000e+000 -4.330127e+000
    endloop
  endfacet
  facet normal  1.000000e+000  0.000000e+000  0.000000e+000
    outer loop
      vertex  2.900000e+000  1.886099e+000 -4.684563e+000
      vertex  2.900000e+000  2.500000e+000 -4.330127e+000
      vertex  2.900000e+000  3.557662e-015 -5.050000e+000
    endloop
  endfacet
  facet normal  1.000000e+000  0.000000e+000  -0.000000e+000
    outer loop
      vertex  2.900000e+000  3.557662e-015 -5.050000e+000
      vertex  2.900000e+000  2.500000e+000 -4.330127e+000
      vertex  2.900000e+000  2.634259e-015 -5.000000e+000
    endloop
  endfacet
  facet normal  1.000000e+000  0.000000e+000  0.000000e+000
    outer loop
      vertex  2.900000e+000  3.557662e-015 -5.050000e+000
      vertex  2.900000e+000  2.634259e-015 -5.000000e+000
      vertex  2.900000e+000 -1.886099e+000 -4.684563e+000
    endloop
  endfacet
  facet normal  9.999999e-001  -0.000000e+000  -0.000000e+000
    outer loop
      vertex  2.900000e+000 -1.886099e+000 -4.684563e+000
      vertex  2.900000e+000  2.634259e-015 -5.000000e+000
      vertex  2.900000e+000 -2.500000e+000 -4.330127e+000
    endloop
  endfacet
  facet normal  1.000000e+000  -0.000000e+000  0.000000e+000
    outer loop
      vertex  2.900000e+000 -5.000000e+000  4.440892e-016
      vertex  2.900000e+000 -5.000000e+000 -7.088723e-001
      vertex  2.900000e+000 -4.330127e+000 -2.500000e+000
    endloop
  endfacet
  facet normal  1.000000e+000  0.000000e+000  0.000000e+000
    outer loop
      vertex  2.900000e+000 -4.330127e+000 -2.500000e+000
      vertex  2.900000e+000 -5.000000e+000 -7.088723e-001
      vertex  2.900000e+000 -4.373428e+000 -2.525000e+000
    endloop
  endfacet
  facet normal  1.000000e+000  -0.000000e+000  0.000000e+000
    outer loop
      vertex  2.900000e+000 -4.330127e+000 -2.500000e+000
      vertex  2.900000e+000 -4.373428e+000 -2.525000e+000
      vertex  2.900000e+000 -2.500000e+000 -4.330127e+000
    endloop
  endfacet
  facet normal  1.000000e+000  0.000000e+000  0.000000e+000
    outer loop
      vertex  2.900000e+000 -2.500000e+000 -4.330127e+000
      vertex  2.900000e+000 -4.373428e+000 -2.525000e+000
      vertex  2.900000e+000 -3.113901e+000 -3.975691e+000
    endloop
  endfacet
  facet normal  9.999999e-001  0.000000e+000  0.000000e+000
    outer loop
      vertex  2.900000e+000  2.500000e+000  4.330127e+000
      vertex  2.900000e+000  1.886099e+000  4.684563e+000
      vertex  2.900000e+000 -2.021956e-015  5.000000e+000
    endloop
  endfacet
  facet normal  1.000000e+000  -0.000000e+000  0.000000e+000
    outer loop
      vertex  2.900000e+000 -2.021956e-015  5.000000e+000
      vertex  2.900000e+000  1.886099e+000  4.684563e+000
      vertex  2.900000e+000  4.794514e-015  5.050000e+000
    endloop
  endfacet
  facet normal  1.000000e+000  0.000000e+000  0.000000e+000
    outer loop
      vertex  2.900000e+000 -2.021956e-015  5.000000e+000
      vertex  2.900000e+000  4.794514e-015  5.050000e+000
      vertex  2.900000e+000 -2.500000e+000  4.330127e+000
    endloop
  endfacet
  facet normal  1.000000e+000  0.000000e+000  0.000000e+000
    outer loop
      vertex  2.900000e+000 -2.500000e+000  4.330127e+000
      vertex  2.900000e+000  4.794514e-015  5.050000e+000
      vertex  2.900000e+000 -1.886099e+000  4.684563e+000
    endloop
  endfacet
  facet normal  1.000000e+000  -0.000000e+000  0.000000e+000
    outer loop
      vertex  6.000000e+000 -1.738776e+000 -1.738776e+000
      vertex  6.000000e+000 -4.156922e+000 -2.400000e+000
      vertex  6.000000e+000 -2.635727e-015 -2.459000e+000
    endloop
  endfacet
  facet normal  1.000000e+000  0.000000e+000  0.000000e+000
    outer loop
      vertex  6.000000e+000  4.156922e+000  2.400000e+000
      vertex  6.000000e+000  3.380947e-015  2.459000e+000
      vertex  6.000000e+000  1.738776e+000  1.738776e+000
    endloop
  endfacet
  facet normal  1.000000e+000  0.000000e+000  0.000000e+000
    outer loop
      vertex  6.000000e+000  4.156922e+000  2.400000e+000
      vertex  6.000000e+000  2.400000e+000  4.156922e+000
      vertex  6.000000e+000  3.380947e-015  2.459000e+000
    endloop
  endfacet
  facet normal  1.000000e+000  0.000000e+000  -0.000000e+000
    outer loop
      vertex  6.000000e+000  3.380947e-015  2.459000e+000
      vertex  6.000000e+000  2.400000e+000  4.156922e+000
      vertex  6.000000e+000  1.371863e-015  4.800000e+000
    endloop
  endfacet
  facet normal  1.000000e+000  0.000000e+000  0.000000e+000
    outer loop
      vertex  6.000000e+000  3.380947e-015  2.459000e+000
      vertex  6.000000e+000  1.371863e-015  4.800000e+000
      vertex  6.000000e+000 -4.156922e+000  2.400000e+000
    endloop
  endfacet
  facet normal  1.000000e+000  0.000000e+000  0.000000e+000
    outer loop
      vertex  6.000000e+000 -4.156922e+000  2.400000e+000
      vertex  6.000000e+000  1.371863e-015  4.800000e+000
      vertex  6.000000e+000 -2.400000e+000  4.156922e+000
    endloop
  endfacet
  facet normal  1.000000e+000  0.000000e+000  0.000000e+000
    outer loop
      vertex  6.000000e+000 -4.156922e+000 -2.400000e+000
      vertex  6.000000e+000 -1.738776e+000 -1.738776e+000
      vertex  6.000000e+000 -4.800000e+000  5.547169e-014
    endloop
  endfacet
  facet normal  1.000000e+000  0.000000e+000  0.000000e+000
    outer loop
      vertex  6.000000e+000 -4.800000e+000  5.547169e-014
      vertex  6.000000e+000 -1.738776e+000 -1.738776e+000
      vertex  6.000000e+000 -2.459000e+000  1.393146e-015
    endloop
  endfacet
  facet normal  1.000000e+000  0.000000e+000  0.000000e+000
    outer loop
      vertex  6.000000e+000 -4.800000e+000  5.547169e-014
      vertex  6.000000e+000 -2.459000e+000  1.393146e-015
      vertex  6.000000e+000 -4.156922e+000  2.400000e+000
    endloop
  endfacet
  facet normal  1.000000e+000  0.000000e+000  0.000000e+000
    outer loop
      vertex  6.000000e+000 -4.156922e+000  2.400000e+000
      vertex  6.000000e+000 -2.459000e+000  1.393146e-015
      vertex  6.000000e+000 -1.738776e+000  1.738776e+000
    endloop
  endfacet
  facet normal  1.000000e+000  0.000000e+000  -0.000000e+000
    outer loop
      vertex  6.000000e+000 -4.156922e+000  2.400000e+000
      vertex  6.000000e+000 -1.738776e+000  1.738776e+000
      vertex  6.000000e+000  3.380947e-015  2.459000e+000
    endloop
  endfacet
  facet normal  1.000000e+000  0.000000e+000  -0.000000e+000
    outer loop
      vertex  6.000000e+000 -4.156922e+000 -2.400000e+000
      vertex  6.000000e+000 -2.400000e+000 -4.156922e+000
      vertex  6.000000e+000 -2.635727e-015 -2.459000e+000
    endloop
  endfacet
  facet normal  1.000000e+000  0.000000e+000  0.000000e+000
    outer loop
      vertex  6.000000e+000 -2.635727e-015 -2.459000e+000
      vertex  6.000000e+000 -2.400000e+000 -4.156922e+000
      vertex  6.000000e+000  6.610217e-014 -4.800000e+000
    endloop
  endfacet
  facet normal  1.000000e+000  0.000000e+000  -0.000000e+000
    outer loop
      vertex  6.000000e+000 -2.635727e-015 -2.459000e+000
      vertex  6.000000e+000  6.610217e-014 -4.800000e+000
      vertex  6.000000e+000  4.156922e+000 -2.400000e+000
    endloop
  endfacet
  facet normal  1.000000e+000  0.000000e+000  0.000000e+000
    outer loop
      vertex  6.000000e+000  4.156922e+000 -2.400000e+000
      vertex  6.000000e+000  6.610217e-014 -4.800000e+000
      vertex  6.000000e+000  2.400000e+000 -4.156922e+000
    endloop
  endfacet
  facet normal  1.000000e+000  -0.000000e+000  0.000000e+000
    outer loop
      vertex  6.000000e+000  4.156922e+000  2.400000e+000
      vertex  6.000000e+000  1.738776e+000  1.738776e+000
      vertex  6.000000e+000  4.800000e+000  5.188558e-016
    endloop
  endfacet
  facet normal  1.000000e+000  0.000000e+000  0.000000e+000
    outer loop
      vertex  6.000000e+000  4.800000e+000  5.188558e-016
      vertex  6.000000e+000  1.738776e+000  1.738776e+000
      vertex  6.000000e+000  2.459000e+000  0.000000e+000
    endloop
  endfacet
  facet normal  1.000000e+000  -0.000000e+000  0.000000e+000
    outer loop
      vertex  6.000000e+000  4.800000e+000  5.188558e-016
      vertex  6.000000e+000  2.459000e+000  0.000000e+000
      vertex  6.000000e+000  4.156922e+000 -2.400000e+000
    endloop
  endfacet
  facet normal  1.000000e+000  0.000000e+000  0.000000e+000
    outer loop
      vertex  6.000000e+000  4.156922e+000 -2.400000e+000
      vertex  6.000000e+000  2.459000e+000  0.000000e+000
      vertex  6.000000e+000  1.738776e+000 -1.738776e+000
    endloop
  endfacet
  facet normal  1.000000e+000  0.000000e+000  0.000000e+000
    outer loop
      vertex  6.000000e+000  4.156922e+000 -2.400000e+000
      vertex  6.000000e+000  1.738776e+000 -1.738776e+000
      vertex  6.000000e+000 -2.635727e-015 -2.459000e+000
    endloop
  endfacet
  facet normal  1.189021e-016  9.659258e-001 -2.588190e-001
    outer loop
      vertex  2.900000e+000  5.000000e+000 -2.556874e-015
      vertex  5.800000e+000  5.000000e+000 -1.224606e-015
      vertex  2.900000e+000  4.330127e+000 -2.500000e+000
    endloop
  endfacet
  facet normal  0.000000e+000  9.659258e-001 -2.588190e-001
    outer loop
      vertex  2.900000e+000  4.330127e+000 -2.500000e+000
      vertex  5.800000e+000  5.000000e+000 -1.224606e-015
      vertex  5.800000e+000  4.330127e+000 -2.500000e+000
    endloop
  endfacet
  facet normal  0.000000e+000  7.071068e-001 -7.071068e-001
    outer loop
      vertex  2.900000e+000  4.330127e+000 -2.500000e+000
      vertex  5.800000e+000  4.330127e+000 -2.500000e+000
      vertex  2.900000e+000  2.500000e+000 -4.330127e+000
    endloop
  endfacet
  facet normal  0.000000e+000  7.071068e-001 -7.071068e-001
    outer loop
      vertex  2.900000e+000  2.500000e+000 -4.330127e+000
      vertex  5.800000e+000  4.330127e+000 -2.500000e+000
      vertex  5.800000e+000  2.500000e+000 -4.330127e+000
    endloop
  endfacet
  facet normal  0.000000e+000  2.588190e-001 -9.659258e-001
    outer loop
      vertex  2.900000e+000  2.500000e+000 -4.330127e+000
      vertex  5.800000e+000  2.500000e+000 -4.330127e+000
      vertex  2.900000e+000  2.634259e-015 -5.000000e+000
    endloop
  endfacet
  facet normal  3.170723e-016  2.588190e-001 -9.659259e-001
    outer loop
      vertex  2.900000e+000  2.634259e-015 -5.000000e+000
      vertex  5.800000e+000  2.500000e+000 -4.330127e+000
      vertex  5.800000e+000 -9.184548e-016 -5.000000e+000
    endloop
  endfacet
  facet normal -3.170723e-016 -2.588190e-001 -9.659259e-001
    outer loop
      vertex  2.900000e+000  2.634259e-015 -5.000000e+000
      vertex  5.800000e+000 -9.184548e-016 -5.000000e+000
      vertex  2.900000e+000 -2.500000e+000 -4.330127e+000
    endloop
  endfacet
  facet normal  0.000000e+000 -2.588190e-001 -9.659258e-001
    outer loop
      vertex  2.900000e+000 -2.500000e+000 -4.330127e+000
      vertex  5.800000e+000 -9.184548e-016 -5.000000e+000
      vertex  5.800000e+000 -2.500000e+000 -4.330127e+000
    endloop
  endfacet
  facet normal  -0.000000e+000 -7.071068e-001 -7.071068e-001
    outer loop
      vertex  2.900000e+000 -2.500000e+000 -4.330127e+000
      vertex  5.800000e+000 -2.500000e+000 -4.330127e+000
      vertex  2.900000e+000 -4.330127e+000 -2.500000e+000
    endloop
  endfacet
  facet normal  0.000000e+000 -7.071068e-001 -7.071068e-001
    outer loop
      vertex  2.900000e+000 -4.330127e+000 -2.500000e+000
      vertex  5.800000e+000 -2.500000e+000 -4.330127e+000
      vertex  5.800000e+000 -4.330127e+000 -2.500000e+000
    endloop
  endfacet
  facet normal  -0.000000e+000 -9.659258e-001 -2.588190e-001
    outer loop
      vertex  2.900000e+000 -4.330127e+000 -2.500000e+000
      vertex  5.800000e+000 -4.330127e+000 -2.500000e+000
      vertex  2.900000e+000 -5.000000e+000  4.440892e-016
    endloop
  endfacet
  facet normal  1.501275e-017 -9.659259e-001 -2.588190e-001
    outer loop
      vertex  2.900000e+000 -5.000000e+000  4.440892e-016
      vertex  5.800000e+000 -4.330127e+000 -2.500000e+000
      vertex  5.800000e+000 -5.000000e+000  6.123032e-016
    endloop
  endfacet
  facet normal -1.501275e-017 -9.659259e-001  2.588190e-001
    outer loop
      vertex  2.900000e+000 -5.000000e+000  4.440892e-016
      vertex  5.800000e+000 -5.000000e+000  6.123032e-016
      vertex  2.900000e+000 -4.330127e+000  2.500000e+000
    endloop
  endfacet
  facet normal  0.000000e+000 -9.659258e-001  2.588190e-001
    outer loop
      vertex  2.900000e+000 -4.330127e+000  2.500000e+000
      vertex  5.800000e+000 -5.000000e+000  6.123032e-016
      vertex  5.800000e+000 -4.330127e+000  2.500000e+000
    endloop
  endfacet
  facet normal  0.000000e+000 -7.071068e-001  7.071068e-001
    outer loop
      vertex  2.900000e+000 -4.330127e+000  2.500000e+000
      vertex  5.800000e+000 -4.330127e+000  2.500000e+000
      vertex  2.900000e+000 -2.500000e+000  4.330127e+000
    endloop
  endfacet
  facet normal  0.000000e+000 -7.071068e-001  7.071068e-001
    outer loop
      vertex  2.900000e+000 -2.500000e+000  4.330127e+000
      vertex  5.800000e+000 -4.330127e+000  2.500000e+000
      vertex  5.800000e+000 -2.500000e+000  4.330127e+000
    endloop
  endfacet
  facet normal  0.000000e+000 -2.588190e-001  9.659258e-001
    outer loop
      vertex  2.900000e+000 -2.500000e+000  4.330127e+000
      vertex  5.800000e+000 -2.500000e+000  4.330127e+000
      vertex  2.900000e+000 -2.021956e-015  5.000000e+000
    endloop
  endfacet
  facet normal  2.077787e-016 -2.588190e-001  9.659259e-001
    outer loop
      vertex  2.900000e+000 -2.021956e-015  5.000000e+000
      vertex  5.800000e+000 -2.500000e+000  4.330127e+000
      vertex  5.800000e+000  3.061516e-016  5.000000e+000
    endloop
  endfacet
  facet normal -2.077787e-016  2.588190e-001  9.659259e-001
    outer loop
      vertex  2.900000e+000 -2.021956e-015  5.000000e+000
      vertex  5.800000e+000  3.061516e-016  5.000000e+000
      vertex  2.900000e+000  2.500000e+000  4.330127e+000
    endloop
  endfacet
  facet normal  -0.000000e+000  2.588190e-001  9.659258e-001
    outer loop
      vertex  2.900000e+000  2.500000e+000  4.330127e+000
      vertex  5.800000e+000  3.061516e-016  5.000000e+000
      vertex  5.800000e+000  2.500000e+000  4.330127e+000
    endloop
  endfacet
  facet normal  0.000000e+000  7.071068e-001  7.071068e-001
    outer loop
      vertex  2.900000e+000  2.500000e+000  4.330127e+000
      vertex  5.800000e+000  2.500000e+000  4.330127e+000
      vertex  2.900000e+000  4.330127e+000  2.500000e+000
    endloop
  endfacet
  facet normal  -0.000000e+000  7.071068e-001  7.071068e-001
    outer loop
      vertex  2.900000e+000  4.330127e+000  2.500000e+000
      vertex  5.800000e+000  2.500000e+000  4.330127e+000
      vertex  5.800000e+000  4.330127e+000  2.500000e+000
    endloop
  endfacet
  facet normal  0.000000e+000  9.659258e-001  2.588190e-001
    outer loop
      vertex  2.900000e+000  4.330127e+000  2.500000e+000
      vertex  5.800000e+000  4.330127e+000  2.500000e+000
      vertex  2.900000e+000  5.000000e+000 -2.556874e-015
    endloop
  endfacet
  facet normal -1.189021e-016  9.659258e-001  2.588190e-001
    outer loop
      vertex  2.900000e+000  5.000000e+000 -2.556874e-015
      vertex  5.800000e+000  4.330127e+000  2.500000e+000
      vertex  5.800000e+000  5.000000e+000 -1.224606e-015
    endloop
  endfacet
  facet normal  9.190608e-001 -3.806866e-001  1.020047e-001
    outer loop
      vertex  6.000000e+000 -4.800000e+000  5.547169e-014
      vertex  6.000000e+000 -4.156922e+000  2.400000e+000
      vertex  5.941422e+000 -4.941422e+000  0.000000e+000
    endloop
  endfacet
  facet normal  9.190610e-001 -3.806861e-001  1.020045e-001
    outer loop
      vertex  5.941422e+000 -4.941422e+000  0.000000e+000
      vertex  6.000000e+000 -4.156922e+000  2.400000e+000
      vertex  5.941422e+000 -4.279397e+000  2.470711e+000
    endloop
  endfacet
  facet normal  3.714696e-001 -8.968091e-001  2.402993e-001
    outer loop
      vertex  5.941422e+000 -4.941422e+000  0.000000e+000
      vertex  5.941422e+000 -4.279397e+000  2.470711e+000
      vertex  5.800000e+000 -5.000000e+000  6.123032e-016
    endloop
  endfacet
  facet normal  3.714709e-001 -8.968086e-001  2.402991e-001
    outer loop
      vertex  5.800000e+000 -5.000000e+000  6.123032e-016
      vertex  5.941422e+000 -4.279397e+000  2.470711e+000
      vertex  5.800000e+000 -4.330127e+000  2.500000e+000
    endloop
  endfacet
  facet normal  9.190610e-001  3.806861e-001  1.020046e-001
    outer loop
      vertex  6.000000e+000  4.156922e+000  2.400000e+000
      vertex  6.000000e+000  4.800000e+000  5.188558e-016
      vertex  5.941422e+000  4.279397e+000  2.470711e+000
    endloop
  endfacet
  facet normal  9.190608e-001  3.806866e-001  1.020047e-001
    outer loop
      vertex  5.941422e+000  4.279397e+000  2.470711e+000
      vertex  6.000000e+000  4.800000e+000  5.188558e-016
      vertex  5.941422e+000  4.941422e+000  1.332268e-015
    endloop
  endfacet
  facet normal  3.714710e-001  8.968086e-001  2.402992e-001
    outer loop
      vertex  5.941422e+000  4.279397e+000  2.470711e+000
      vertex  5.941422e+000  4.941422e+000  1.332268e-015
      vertex  5.800000e+000  4.330127e+000  2.500000e+000
    endloop
  endfacet
  facet normal  3.714696e-001  8.968092e-001  2.402992e-001
    outer loop
      vertex  5.800000e+000  4.330127e+000  2.500000e+000
      vertex  5.941422e+000  4.941422e+000  1.332268e-015
      vertex  5.800000e+000  5.000000e+000 -1.224606e-015
    endloop
  endfacet
  facet normal  9.190609e-001  2.786816e-001  2.786816e-001
    outer loop
      vertex  6.000000e+000  2.400000e+000  4.156922e+000
      vertex  6.000000e+000  4.156922e+000  2.400000e+000
      vertex  5.941422e+000  2.470711e+000  4.279397e+000
    endloop
  endfacet
  facet normal  9.190611e-001  2.786817e-001  2.786817e-001
    outer loop
      vertex  5.941422e+000  2.470711e+000  4.279397e+000
      vertex  6.000000e+000  4.156922e+000  2.400000e+000
      vertex  5.941422e+000  4.279397e+000  2.470711e+000
    endloop
  endfacet
  facet normal  3.714706e-001  6.565096e-001  6.565096e-001
    outer loop
      vertex  5.941422e+000  2.470711e+000  4.279397e+000
      vertex  5.941422e+000  4.279397e+000  2.470711e+000
      vertex  5.800000e+000  2.500000e+000  4.330127e+000
    endloop
  endfacet
  facet normal  3.714706e-001  6.565095e-001  6.565095e-001
    outer loop
      vertex  5.800000e+000  2.500000e+000  4.330127e+000
      vertex  5.941422e+000  4.279397e+000  2.470711e+000
      vertex  5.800000e+000  4.330127e+000  2.500000e+000
    endloop
  endfacet
  facet normal  9.190608e-001  1.020047e-001  3.806866e-001
    outer loop
      vertex  6.000000e+000  1.371863e-015  4.800000e+000
      vertex  6.000000e+000  2.400000e+000  4.156922e+000
      vertex  5.941422e+000 -1.332268e-015  4.941422e+000
    endloop
  endfacet
  facet normal  9.190610e-001  1.020045e-001  3.806861e-001
    outer loop
      vertex  5.941422e+000 -1.332268e-015  4.941422e+000
      vertex  6.000000e+000  2.400000e+000  4.156922e+000
      vertex  5.941422e+000  2.470711e+000  4.279397e+000
    endloop
  endfacet
  facet normal  3.714696e-001  2.402993e-001  8.968091e-001
    outer loop
      vertex  5.941422e+000 -1.332268e-015  4.941422e+000
      vertex  5.941422e+000  2.470711e+000  4.279397e+000
      vertex  5.800000e+000  3.061516e-016  5.000000e+000
    endloop
  endfacet
  facet normal  3.714709e-001  2.402991e-001  8.968086e-001
    outer loop
      vertex  5.800000e+000  3.061516e-016  5.000000e+000
      vertex  5.941422e+000  2.470711e+000  4.279397e+000
      vertex  5.800000e+000  2.500000e+000  4.330127e+000
    endloop
  endfacet
  facet normal  9.190610e-001 -1.020046e-001  3.806861e-001
    outer loop
      vertex  6.000000e+000 -2.400000e+000  4.156922e+000
      vertex  6.000000e+000  1.371863e-015  4.800000e+000
      vertex  5.941422e+000 -2.470711e+000  4.279397e+000
    endloop
  endfacet
  facet normal  9.190608e-001 -1.020047e-001  3.806866e-001
    outer loop
      vertex  5.941422e+000 -2.470711e+000  4.279397e+000
      vertex  6.000000e+000  1.371863e-015  4.800000e+000
      vertex  5.941422e+000 -1.332268e-015  4.941422e+000
    endloop
  endfacet
  facet normal  3.714710e-001 -2.402992e-001  8.968086e-001
    outer loop
      vertex  5.941422e+000 -2.470711e+000  4.279397e+000
      vertex  5.941422e+000 -1.332268e-015  4.941422e+000
      vertex  5.800000e+000 -2.500000e+000  4.330127e+000
    endloop
  endfacet
  facet normal  3.714696e-001 -2.402992e-001  8.968092e-001
    outer loop
      vertex  5.800000e+000 -2.500000e+000  4.330127e+000
      vertex  5.941422e+000 -1.332268e-015  4.941422e+000
      vertex  5.800000e+000  3.061516e-016  5.000000e+000
    endloop
  endfacet
  facet normal  9.190609e-001 -2.786816e-001  2.786816e-001
    outer loop
      vertex  6.000000e+000 -4.156922e+000  2.400000e+000
      vertex  6.000000e+000 -2.400000e+000  4.156922e+000
      vertex  5.941422e+000 -4.279397e+000  2.470711e+000
    endloop
  endfacet
  facet normal  9.190611e-001 -2.786817e-001  2.786817e-001
    outer loop
      vertex  5.941422e+000 -4.279397e+000  2.470711e+000
      vertex  6.000000e+000 -2.400000e+000  4.156922e+000
      vertex  5.941422e+000 -2.470711e+000  4.279397e+000
    endloop
  endfacet
  facet normal  3.714706e-001 -6.565096e-001  6.565096e-001
    outer loop
      vertex  5.941422e+000 -4.279397e+000  2.470711e+000
      vertex  5.941422e+000 -2.470711e+000  4.279397e+000
      vertex  5.800000e+000 -4.330127e+000  2.500000e+000
    endloop
  endfacet
  facet normal  3.714706e-001 -6.565095e-001  6.565095e-001
    outer loop
      vertex  5.800000e+000 -4.330127e+000  2.500000e+000
      vertex  5.941422e+000 -2.470711e+000  4.279397e+000
      vertex  5.800000e+000 -2.500000e+000  4.330127e+000
    endloop
  endfacet
  facet normal  9.190608e-001  3.806866e-001 -1.020047e-001
    outer loop
      vertex  6.000000e+000  4.800000e+000  5.188558e-016
      vertex  6.000000e+000  4.156922e+000 -2.400000e+000
      vertex  5.941422e+000  4.941422e+000  1.332268e-015
    endloop
  endfacet
  facet normal  9.190610e-001  3.806861e-001 -1.020045e-001
    outer loop
      vertex  5.941422e+000  4.941422e+000  1.332268e-015
      vertex  6.000000e+000  4.156922e+000 -2.400000e+000
      vertex  5.941422e+000  4.279397e+000 -2.470711e+000
    endloop
  endfacet
  facet normal  3.714696e-001  8.968091e-001 -2.402993e-001
    outer loop
      vertex  5.941422e+000  4.941422e+000  1.332268e-015
      vertex  5.941422e+000  4.279397e+000 -2.470711e+000
      vertex  5.800000e+000  5.000000e+000 -1.224606e-015
    endloop
  endfacet
  facet normal  3.714709e-001  8.968086e-001 -2.402991e-001
    outer loop
      vertex  5.800000e+000  5.000000e+000 -1.224606e-015
      vertex  5.941422e+000  4.279397e+000 -2.470711e+000
      vertex  5.800000e+000  4.330127e+000 -2.500000e+000
    endloop
  endfacet
  facet normal  9.190610e-001 -3.806861e-001 -1.020046e-001
    outer loop
      vertex  6.000000e+000 -4.156922e+000 -2.400000e+000
      vertex  6.000000e+000 -4.800000e+000  5.547169e-014
      vertex  5.941422e+000 -4.279397e+000 -2.470711e+000
    endloop
  endfacet
  facet normal  9.190608e-001 -3.806866e-001 -1.020047e-001
    outer loop
      vertex  5.941422e+000 -4.279397e+000 -2.470711e+000
      vertex  6.000000e+000 -4.800000e+000  5.547169e-014
      vertex  5.941422e+000 -4.941422e+000  0.000000e+000
    endloop
  endfacet
  facet normal  3.714710e-001 -8.968086e-001 -2.402992e-001
    outer loop
      vertex  5.941422e+000 -4.279397e+000 -2.470711e+000
      vertex  5.941422e+000 -4.941422e+000  0.000000e+000
      vertex  5.800000e+000 -4.330127e+000 -2.500000e+000
    endloop
  endfacet
  facet normal  3.714696e-001 -8.968092e-001 -2.402992e-001
    outer loop
      vertex  5.800000e+000 -4.330127e+000 -2.500000e+000
      vertex  5.941422e+000 -4.941422e+000  0.000000e+000
      vertex  5.800000e+000 -5.000000e+000  6.123032e-016
    endloop
  endfacet
  facet normal  9.190609e-001 -2.786816e-001 -2.786816e-001
    outer loop
      vertex  6.000000e+000 -2.400000e+000 -4.156922e+000
      vertex  6.000000e+000 -4.156922e+000 -2.400000e+000
      vertex  5.941422e+000 -2.470711e+000 -4.279397e+000
    endloop
  endfacet
  facet normal  9.190611e-001 -2.786817e-001 -2.786817e-001
    outer loop
      vertex  5.941422e+000 -2.470711e+000 -4.279397e+000
      vertex  6.000000e+000 -4.156922e+000 -2.400000e+000
      vertex  5.941422e+000 -4.279397e+000 -2.470711e+000
    endloop
  endfacet
  facet normal  3.714706e-001 -6.565096e-001 -6.565096e-001
    outer loop
      vertex  5.941422e+000 -2.470711e+000 -4.279397e+000
      vertex  5.941422e+000 -4.279397e+000 -2.470711e+000
      vertex  5.800000e+000 -2.500000e+000 -4.330127e+000
    endloop
  endfacet
  facet normal  3.714706e-001 -6.565095e-001 -6.565095e-001
    outer loop
      vertex  5.800000e+000 -2.500000e+000 -4.330127e+000
      vertex  5.941422e+000 -4.279397e+000 -2.470711e+000
      vertex  5.800000e+000 -4.330127e+000 -2.500000e+000
    endloop
  endfacet
  facet normal  9.190608e-001 -1.020047e-001 -3.806866e-001
    outer loop
      vertex  6.000000e+000  6.610217e-014 -4.800000e+000
      vertex  6.000000e+000 -2.400000e+000 -4.156922e+000
      vertex  5.941422e+000 -1.554312e-015 -4.941422e+000
    endloop
  endfacet
  facet normal  9.190610e-001 -1.020045e-001 -3.806861e-001
    outer loop
      vertex  5.941422e+000 -1.554312e-015 -4.941422e+000
      vertex  6.000000e+000 -2.400000e+000 -4.156922e+000
      vertex  5.941422e+000 -2.470711e+000 -4.279397e+000
    endloop
  endfacet
  facet normal  3.714696e-001 -2.402993e-001 -8.968091e-001
    outer loop
      vertex  5.941422e+000 -1.554312e-015 -4.941422e+000
      vertex  5.941422e+000 -2.470711e+000 -4.279397e+000
      vertex  5.800000e+000 -9.184548e-016 -5.000000e+000
    endloop
  endfacet
  facet normal  3.714709e-001 -2.402991e-001 -8.968086e-001
    outer loop
      vertex  5.800000e+000 -9.184548e-016 -5.000000e+000
      vertex  5.941422e+000 -2.470711e+000 -4.279397e+000
      vertex  5.800000e+000 -2.500000e+000 -4.330127e+000
    endloop
  endfacet
  facet normal  9.190610e-001  1.020046e-001 -3.806861e-001
    outer loop
      vertex  6.000000e+000  2.400000e+000 -4.156922e+000
      vertex  6.000000e+000  6.610217e-014 -4.800000e+000
      vertex  5.941422e+000  2.470711e+000 -4.279397e+000
    endloop
  endfacet
  facet normal  9.190608e-001  1.020047e-001 -3.806866e-001
    outer loop
      vertex  5.941422e+000  2.470711e+000 -4.279397e+000
      vertex  6.000000e+000  6.610217e-014 -4.800000e+000
      vertex  5.941422e+000 -1.554312e-015 -4.941422e+000
    endloop
  endfacet
  facet normal  3.714710e-001  2.402992e-001 -8.968086e-001
    outer loop
      vertex  5.941422e+000  2.470711e+000 -4.279397e+000
      vertex  5.941422e+000 -1.554312e-015 -4.941422e+000
      vertex  5.800000e+000  2.500000e+000 -4.330127e+000
    endloop
  endfacet
  facet normal  3.714696e-001  2.402992e-001 -8.968092e-001
    outer loop
      vertex  5.800000e+000  2.500000e+000 -4.330127e+000
      vertex  5.941422e+000 -1.554312e-015 -4.941422e+000
      vertex  5.800000e+000 -9.184548e-016 -5.000000e+000
    endloop
  endfacet
  facet normal  9.190609e-001  2.786816e-001 -2.786816e-001
    outer loop
      vertex  6.000000e+000  4.156922e+000 -2.400000e+000
      vertex  6.000000e+000  2.400000e+000 -4.156922e+000
      vertex  5.941422e+000  4.279397e+000 -2.470711e+000
    endloop
  endfacet
  facet normal  9.190611e-001  2.786817e-001 -2.786817e-001
    outer loop
      vertex  5.941422e+000  4.279397e+000 -2.470711e+000
      vertex  6.000000e+000  2.400000e+000 -4.156922e+000
      vertex  5.941422e+000  2.470711e+000 -4.279397e+000
    endloop
  endfacet
  facet normal  3.714706e-001  6.565096e-001 -6.565096e-001
    outer loop
      vertex  5.941422e+000  4.279397e+000 -2.470711e+000
      vertex  5.941422e+000  2.470711e+000 -4.279397e+000
      vertex  5.800000e+000  4.330127e+000 -2.500000e+000
    endloop
  endfacet
  facet normal  3.714706e-001  6.565095e-001 -6.565095e-001
    outer loop
      vertex  5.800000e+000  4.330127e+000 -2.500000e+000
      vertex  5.941422e+000  2.470711e+000 -4.279397e+000
      vertex  5.800000e+000  2.500000e+000 -4.330127e+000
    endloop
  endfacet
endsolid CATIA STL
