solid CATIA STL
  facet normal  1.000000e+000  -0.000000e+000  0.000000e+000
    outer loop
      vertex  8.000000e-001 -1.520280e+000 -1.520280e+000
      vertex  8.000000e-001 -3.637307e+000 -2.100000e+000
      vertex  8.000000e-001 -3.949355e-016 -2.150000e+000
    endloop
  endfacet
  facet normal  1.000000e+000  0.000000e+000  0.000000e+000
    outer loop
      vertex  8.000000e-001  3.637307e+000  2.100000e+000
      vertex  8.000000e-001  1.316452e-016  2.150000e+000
      vertex  8.000000e-001  1.520280e+000  1.520280e+000
    endloop
  endfacet
  facet normal  1.000000e+000  0.000000e+000  0.000000e+000
    outer loop
      vertex  8.000000e-001  3.637307e+000  2.100000e+000
      vertex  8.000000e-001  2.100000e+000  3.637307e+000
      vertex  8.000000e-001  1.316452e-016  2.150000e+000
    endloop
  endfacet
  facet normal  1.000000e+000  0.000000e+000  0.000000e+000
    outer loop
      vertex  8.000000e-001  1.316452e-016  2.150000e+000
      vertex  8.000000e-001  2.100000e+000  3.637307e+000
      vertex  8.000000e-001  5.936683e-014  4.200000e+000
    endloop
  endfacet
  facet normal  1.000000e+000  0.000000e+000  0.000000e+000
    outer loop
      vertex  8.000000e-001  1.316452e-016  2.150000e+000
      vertex  8.000000e-001  5.936683e-014  4.200000e+000
      vertex  8.000000e-001 -3.637307e+000  2.100000e+000
    endloop
  endfacet
  facet normal  1.000000e+000  0.000000e+000  0.000000e+000
    outer loop
      vertex  8.000000e-001 -3.637307e+000  2.100000e+000
      vertex  8.000000e-001  5.936683e-014  4.200000e+000
      vertex  8.000000e-001 -2.100000e+000  3.637307e+000
    endloop
  endfacet
  facet normal  1.000000e+000  0.000000e+000  0.000000e+000
    outer loop
      vertex  8.000000e-001 -3.637307e+000 -2.100000e+000
      vertex  8.000000e-001 -1.520280e+000 -1.520280e+000
      vertex  8.000000e-001 -4.200000e+000  1.560816e-013
    endloop
  endfacet
  facet normal  1.000000e+000  0.000000e+000  0.000000e+000
    outer loop
      vertex  8.000000e-001 -4.200000e+000  1.560816e-013
      vertex  8.000000e-001 -1.520280e+000 -1.520280e+000
      vertex  8.000000e-001 -2.150000e+000  2.632904e-016
    endloop
  endfacet
  facet normal  1.000000e+000  0.000000e+000  0.000000e+000
    outer loop
      vertex  8.000000e-001 -4.200000e+000  1.560816e-013
      vertex  8.000000e-001 -2.150000e+000  2.632904e-016
      vertex  8.000000e-001 -3.637307e+000  2.100000e+000
    endloop
  endfacet
  facet normal  1.000000e+000  0.000000e+000  0.000000e+000
    outer loop
      vertex  8.000000e-001 -3.637307e+000  2.100000e+000
      vertex  8.000000e-001 -2.150000e+000  2.632904e-016
      vertex  8.000000e-001 -1.520280e+000  1.520280e+000
    endloop
  endfacet
  facet normal  1.000000e+000  0.000000e+000  -0.000000e+000
    outer loop
      vertex  8.000000e-001 -3.637307e+000  2.100000e+000
      vertex  8.000000e-001 -1.520280e+000  1.520280e+000
      vertex  8.000000e-001  1.316452e-016  2.150000e+000
    endloop
  endfacet
  facet normal  1.000000e+000  0.000000e+000  -0.000000e+000
    outer loop
      vertex  8.000000e-001 -3.637307e+000 -2.100000e+000
      vertex  8.000000e-001 -2.100000e+000 -3.637307e+000
      vertex  8.000000e-001 -3.949355e-016 -2.150000e+000
    endloop
  endfacet
  facet normal  1.000000e+000  0.000000e+000  0.000000e+000
    outer loop
      vertex  8.000000e-001 -3.949355e-016 -2.150000e+000
      vertex  8.000000e-001 -2.100000e+000 -3.637307e+000
      vertex  8.000000e-001  6.157862e-014 -4.200000e+000
    endloop
  endfacet
  facet normal  1.000000e+000  0.000000e+000  -0.000000e+000
    outer loop
      vertex  8.000000e-001 -3.949355e-016 -2.150000e+000
      vertex  8.000000e-001  6.157862e-014 -4.200000e+000
      vertex  8.000000e-001  3.637307e+000 -2.100000e+000
    endloop
  endfacet
  facet normal  1.000000e+000  0.000000e+000  0.000000e+000
    outer loop
      vertex  8.000000e-001  3.637307e+000 -2.100000e+000
      vertex  8.000000e-001  6.157862e-014 -4.200000e+000
      vertex  8.000000e-001  2.100000e+000 -3.637307e+000
    endloop
  endfacet
  facet normal  1.000000e+000  -0.000000e+000  0.000000e+000
    outer loop
      vertex  8.000000e-001  3.637307e+000  2.100000e+000
      vertex  8.000000e-001  1.520280e+000  1.520280e+000
      vertex  8.000000e-001  4.200000e+000  1.178470e-015
    endloop
  endfacet
  facet normal  1.000000e+000  0.000000e+000  0.000000e+000
    outer loop
      vertex  8.000000e-001  4.200000e+000  1.178470e-015
      vertex  8.000000e-001  1.520280e+000  1.520280e+000
      vertex  8.000000e-001  2.150000e+000  0.000000e+000
    endloop
  endfacet
  facet normal  1.000000e+000  -0.000000e+000  0.000000e+000
    outer loop
      vertex  8.000000e-001  4.200000e+000  1.178470e-015
      vertex  8.000000e-001  2.150000e+000  0.000000e+000
      vertex  8.000000e-001  3.637307e+000 -2.100000e+000
    endloop
  endfacet
  facet normal  1.000000e+000  0.000000e+000  0.000000e+000
    outer loop
      vertex  8.000000e-001  3.637307e+000 -2.100000e+000
      vertex  8.000000e-001  2.150000e+000  0.000000e+000
      vertex  8.000000e-001  1.520280e+000 -1.520280e+000
    endloop
  endfacet
  facet normal  1.000000e+000  0.000000e+000  0.000000e+000
    outer loop
      vertex  8.000000e-001  3.637307e+000 -2.100000e+000
      vertex  8.000000e-001  1.520280e+000 -1.520280e+000
      vertex  8.000000e-001 -3.949355e-016 -2.150000e+000
    endloop
  endfacet
  facet normal -5.006236e-016  9.659258e-001 -2.588190e-001
    outer loop
      vertex  0.000000e+000  4.500000e+000  0.000000e+000
      vertex  5.698019e-001  4.500000e+000 -1.102146e-015
      vertex  0.000000e+000  3.897114e+000 -2.250000e+000
    endloop
  endfacet
  facet normal  0.000000e+000  9.659258e-001 -2.588190e-001
    outer loop
      vertex  0.000000e+000  3.897114e+000 -2.250000e+000
      vertex  5.698019e-001  4.500000e+000 -1.102146e-015
      vertex  5.698019e-001  3.897114e+000 -2.250000e+000
    endloop
  endfacet
  facet normal  0.000000e+000  7.071068e-001 -7.071068e-001
    outer loop
      vertex  0.000000e+000  3.897114e+000 -2.250000e+000
      vertex  5.698019e-001  3.897114e+000 -2.250000e+000
      vertex  0.000000e+000  2.250000e+000 -3.897114e+000
    endloop
  endfacet
  facet normal  0.000000e+000  7.071068e-001 -7.071068e-001
    outer loop
      vertex  0.000000e+000  2.250000e+000 -3.897114e+000
      vertex  5.698019e-001  3.897114e+000 -2.250000e+000
      vertex  5.698019e-001  2.250000e+000 -3.897114e+000
    endloop
  endfacet
  facet normal  0.000000e+000  2.588190e-001 -9.659258e-001
    outer loop
      vertex  0.000000e+000  2.250000e+000 -3.897114e+000
      vertex  5.698019e-001  2.250000e+000 -3.897114e+000
      vertex  0.000000e+000 -4.823412e-015 -4.500000e+000
    endloop
  endfacet
  facet normal -1.815453e-015  2.588190e-001 -9.659258e-001
    outer loop
      vertex  0.000000e+000 -4.823412e-015 -4.500000e+000
      vertex  5.698019e-001  2.250000e+000 -3.897114e+000
      vertex  5.698019e-001 -8.266093e-016 -4.500000e+000
    endloop
  endfacet
  facet normal  1.815453e-015 -2.588190e-001 -9.659258e-001
    outer loop
      vertex  0.000000e+000 -4.823412e-015 -4.500000e+000
      vertex  5.698019e-001 -8.266093e-016 -4.500000e+000
      vertex  0.000000e+000 -2.250000e+000 -3.897114e+000
    endloop
  endfacet
  facet normal  0.000000e+000 -2.588190e-001 -9.659258e-001
    outer loop
      vertex  0.000000e+000 -2.250000e+000 -3.897114e+000
      vertex  5.698019e-001 -8.266093e-016 -4.500000e+000
      vertex  5.698019e-001 -2.250000e+000 -3.897114e+000
    endloop
  endfacet
  facet normal  -0.000000e+000 -7.071068e-001 -7.071068e-001
    outer loop
      vertex  0.000000e+000 -2.250000e+000 -3.897114e+000
      vertex  5.698019e-001 -2.250000e+000 -3.897114e+000
      vertex  0.000000e+000 -3.897114e+000 -2.250000e+000
    endloop
  endfacet
  facet normal  0.000000e+000 -7.071068e-001 -7.071068e-001
    outer loop
      vertex  0.000000e+000 -3.897114e+000 -2.250000e+000
      vertex  5.698019e-001 -2.250000e+000 -3.897114e+000
      vertex  5.698019e-001 -3.897114e+000 -2.250000e+000
    endloop
  endfacet
  facet normal  -0.000000e+000 -9.659258e-001 -2.588190e-001
    outer loop
      vertex  0.000000e+000 -3.897114e+000 -2.250000e+000
      vertex  5.698019e-001 -3.897114e+000 -2.250000e+000
      vertex  0.000000e+000 -4.500000e+000  5.510729e-016
    endloop
  endfacet
  facet normal  0.000000e+000 -9.659258e-001 -2.588190e-001
    outer loop
      vertex  0.000000e+000 -4.500000e+000  5.510729e-016
      vertex  5.698019e-001 -3.897114e+000 -2.250000e+000
      vertex  5.698019e-001 -4.500000e+000  5.510729e-016
    endloop
  endfacet
  facet normal  0.000000e+000 -9.659258e-001  2.588190e-001
    outer loop
      vertex  0.000000e+000 -4.500000e+000  5.510729e-016
      vertex  5.698019e-001 -4.500000e+000  5.510729e-016
      vertex  0.000000e+000 -3.897114e+000  2.250000e+000
    endloop
  endfacet
  facet normal  0.000000e+000 -9.659258e-001  2.588190e-001
    outer loop
      vertex  0.000000e+000 -3.897114e+000  2.250000e+000
      vertex  5.698019e-001 -4.500000e+000  5.510729e-016
      vertex  5.698019e-001 -3.897114e+000  2.250000e+000
    endloop
  endfacet
  facet normal  0.000000e+000 -7.071068e-001  7.071068e-001
    outer loop
      vertex  0.000000e+000 -3.897114e+000  2.250000e+000
      vertex  5.698019e-001 -3.897114e+000  2.250000e+000
      vertex  0.000000e+000 -2.250000e+000  3.897114e+000
    endloop
  endfacet
  facet normal  0.000000e+000 -7.071068e-001  7.071068e-001
    outer loop
      vertex  0.000000e+000 -2.250000e+000  3.897114e+000
      vertex  5.698019e-001 -3.897114e+000  2.250000e+000
      vertex  5.698019e-001 -2.250000e+000  3.897114e+000
    endloop
  endfacet
  facet normal  0.000000e+000 -2.588190e-001  9.659258e-001
    outer loop
      vertex  0.000000e+000 -2.250000e+000  3.897114e+000
      vertex  5.698019e-001 -2.250000e+000  3.897114e+000
      vertex  0.000000e+000  2.755364e-016  4.500000e+000
    endloop
  endfacet
  facet normal  0.000000e+000 -2.588190e-001  9.659258e-001
    outer loop
      vertex  0.000000e+000  2.755364e-016  4.500000e+000
      vertex  5.698019e-001 -2.250000e+000  3.897114e+000
      vertex  5.698019e-001  2.755364e-016  4.500000e+000
    endloop
  endfacet
  facet normal  0.000000e+000  2.588190e-001  9.659258e-001
    outer loop
      vertex  0.000000e+000  2.755364e-016  4.500000e+000
      vertex  5.698019e-001  2.755364e-016  4.500000e+000
      vertex  0.000000e+000  2.250000e+000  3.897114e+000
    endloop
  endfacet
  facet normal  -0.000000e+000  2.588190e-001  9.659258e-001
    outer loop
      vertex  0.000000e+000  2.250000e+000  3.897114e+000
      vertex  5.698019e-001  2.755364e-016  4.500000e+000
      vertex  5.698019e-001  2.250000e+000  3.897114e+000
    endloop
  endfacet
  facet normal  0.000000e+000  7.071068e-001  7.071068e-001
    outer loop
      vertex  0.000000e+000  2.250000e+000  3.897114e+000
      vertex  5.698019e-001  2.250000e+000  3.897114e+000
      vertex  0.000000e+000  3.897114e+000  2.250000e+000
    endloop
  endfacet
  facet normal  -0.000000e+000  7.071068e-001  7.071068e-001
    outer loop
      vertex  0.000000e+000  3.897114e+000  2.250000e+000
      vertex  5.698019e-001  2.250000e+000  3.897114e+000
      vertex  5.698019e-001  3.897114e+000  2.250000e+000
    endloop
  endfacet
  facet normal  0.000000e+000  9.659258e-001  2.588190e-001
    outer loop
      vertex  0.000000e+000  3.897114e+000  2.250000e+000
      vertex  5.698019e-001  3.897114e+000  2.250000e+000
      vertex  0.000000e+000  4.500000e+000  0.000000e+000
    endloop
  endfacet
  facet normal  5.006236e-016  9.659258e-001  2.588190e-001
    outer loop
      vertex  0.000000e+000  4.500000e+000  0.000000e+000
      vertex  5.698019e-001  3.897114e+000  2.250000e+000
      vertex  5.698019e-001  4.500000e+000 -1.102146e-015
    endloop
  endfacet
  facet normal  7.830050e-001 -1.609895e-001 -6.008208e-001
    outer loop
      vertex  5.698019e-001 -8.266093e-016 -4.500000e+000
      vertex  8.000000e-001 -2.100000e+000 -3.637307e+000
      vertex  5.698019e-001 -2.250000e+000 -3.897114e+000
    endloop
  endfacet
  facet normal  7.830050e-001 -4.398313e-001 -4.398313e-001
    outer loop
      vertex  5.698019e-001 -2.250000e+000 -3.897114e+000
      vertex  8.000000e-001 -2.100000e+000 -3.637307e+000
      vertex  8.000000e-001 -3.637307e+000 -2.100000e+000
    endloop
  endfacet
  facet normal  7.830051e-001 -4.398313e-001 -4.398313e-001
    outer loop
      vertex  5.698019e-001 -2.250000e+000 -3.897114e+000
      vertex  8.000000e-001 -3.637307e+000 -2.100000e+000
      vertex  5.698019e-001 -3.897114e+000 -2.250000e+000
    endloop
  endfacet
  facet normal  7.830049e-001 -6.008208e-001 -1.609894e-001
    outer loop
      vertex  5.698019e-001 -3.897114e+000 -2.250000e+000
      vertex  8.000000e-001 -3.637307e+000 -2.100000e+000
      vertex  8.000000e-001 -4.200000e+000  1.560816e-013
    endloop
  endfacet
  facet normal  7.830051e-001 -6.008206e-001 -1.609894e-001
    outer loop
      vertex  5.698019e-001 -3.897114e+000 -2.250000e+000
      vertex  8.000000e-001 -4.200000e+000  1.560816e-013
      vertex  5.698019e-001 -4.500000e+000  5.510729e-016
    endloop
  endfacet
  facet normal  7.830051e-001 -1.609893e-001 -6.008206e-001
    outer loop
      vertex  8.000000e-001 -2.100000e+000 -3.637307e+000
      vertex  5.698019e-001 -8.266093e-016 -4.500000e+000
      vertex  8.000000e-001  6.157862e-014 -4.200000e+000
    endloop
  endfacet
  facet normal  7.830051e-001  1.609894e-001 -6.008206e-001
    outer loop
      vertex  8.000000e-001  6.157862e-014 -4.200000e+000
      vertex  5.698019e-001 -8.266093e-016 -4.500000e+000
      vertex  5.698019e-001  2.250000e+000 -3.897114e+000
    endloop
  endfacet
  facet normal  7.830049e-001  1.609894e-001 -6.008208e-001
    outer loop
      vertex  8.000000e-001  6.157862e-014 -4.200000e+000
      vertex  5.698019e-001  2.250000e+000 -3.897114e+000
      vertex  8.000000e-001  2.100000e+000 -3.637307e+000
    endloop
  endfacet
  facet normal  7.830051e-001  4.398313e-001 -4.398313e-001
    outer loop
      vertex  8.000000e-001  2.100000e+000 -3.637307e+000
      vertex  5.698019e-001  2.250000e+000 -3.897114e+000
      vertex  5.698019e-001  3.897114e+000 -2.250000e+000
    endloop
  endfacet
  facet normal  7.830050e-001  4.398313e-001 -4.398313e-001
    outer loop
      vertex  8.000000e-001  2.100000e+000 -3.637307e+000
      vertex  5.698019e-001  3.897114e+000 -2.250000e+000
      vertex  8.000000e-001  3.637307e+000 -2.100000e+000
    endloop
  endfacet
  facet normal  7.830050e-001  6.008208e-001 -1.609895e-001
    outer loop
      vertex  8.000000e-001  3.637307e+000 -2.100000e+000
      vertex  5.698019e-001  3.897114e+000 -2.250000e+000
      vertex  5.698019e-001  4.500000e+000 -1.102146e-015
    endloop
  endfacet
  facet normal  7.830051e-001  6.008206e-001 -1.609893e-001
    outer loop
      vertex  8.000000e-001  3.637307e+000 -2.100000e+000
      vertex  5.698019e-001  4.500000e+000 -1.102146e-015
      vertex  8.000000e-001  4.200000e+000  1.178470e-015
    endloop
  endfacet
  facet normal  7.830050e-001  1.609895e-001  6.008208e-001
    outer loop
      vertex  5.698019e-001  2.755364e-016  4.500000e+000
      vertex  8.000000e-001  2.100000e+000  3.637307e+000
      vertex  5.698019e-001  2.250000e+000  3.897114e+000
    endloop
  endfacet
  facet normal  7.830050e-001  4.398313e-001  4.398313e-001
    outer loop
      vertex  5.698019e-001  2.250000e+000  3.897114e+000
      vertex  8.000000e-001  2.100000e+000  3.637307e+000
      vertex  8.000000e-001  3.637307e+000  2.100000e+000
    endloop
  endfacet
  facet normal  7.830051e-001  4.398313e-001  4.398313e-001
    outer loop
      vertex  5.698019e-001  2.250000e+000  3.897114e+000
      vertex  8.000000e-001  3.637307e+000  2.100000e+000
      vertex  5.698019e-001  3.897114e+000  2.250000e+000
    endloop
  endfacet
  facet normal  7.830049e-001  6.008208e-001  1.609894e-001
    outer loop
      vertex  5.698019e-001  3.897114e+000  2.250000e+000
      vertex  8.000000e-001  3.637307e+000  2.100000e+000
      vertex  8.000000e-001  4.200000e+000  1.178470e-015
    endloop
  endfacet
  facet normal  7.830051e-001  6.008206e-001  1.609894e-001
    outer loop
      vertex  5.698019e-001  3.897114e+000  2.250000e+000
      vertex  8.000000e-001  4.200000e+000  1.178470e-015
      vertex  5.698019e-001  4.500000e+000 -1.102146e-015
    endloop
  endfacet
  facet normal  7.830051e-001  1.609893e-001  6.008206e-001
    outer loop
      vertex  8.000000e-001  2.100000e+000  3.637307e+000
      vertex  5.698019e-001  2.755364e-016  4.500000e+000
      vertex  8.000000e-001  5.936683e-014  4.200000e+000
    endloop
  endfacet
  facet normal  7.830051e-001 -1.609894e-001  6.008206e-001
    outer loop
      vertex  8.000000e-001  5.936683e-014  4.200000e+000
      vertex  5.698019e-001  2.755364e-016  4.500000e+000
      vertex  5.698019e-001 -2.250000e+000  3.897114e+000
    endloop
  endfacet
  facet normal  7.830049e-001 -1.609894e-001  6.008208e-001
    outer loop
      vertex  8.000000e-001  5.936683e-014  4.200000e+000
      vertex  5.698019e-001 -2.250000e+000  3.897114e+000
      vertex  8.000000e-001 -2.100000e+000  3.637307e+000
    endloop
  endfacet
  facet normal  7.830051e-001 -4.398313e-001  4.398313e-001
    outer loop
      vertex  8.000000e-001 -2.100000e+000  3.637307e+000
      vertex  5.698019e-001 -2.250000e+000  3.897114e+000
      vertex  5.698019e-001 -3.897114e+000  2.250000e+000
    endloop
  endfacet
  facet normal  7.830050e-001 -4.398313e-001  4.398313e-001
    outer loop
      vertex  8.000000e-001 -2.100000e+000  3.637307e+000
      vertex  5.698019e-001 -3.897114e+000  2.250000e+000
      vertex  8.000000e-001 -3.637307e+000  2.100000e+000
    endloop
  endfacet
  facet normal  7.830050e-001 -6.008208e-001  1.609895e-001
    outer loop
      vertex  8.000000e-001 -3.637307e+000  2.100000e+000
      vertex  5.698019e-001 -3.897114e+000  2.250000e+000
      vertex  5.698019e-001 -4.500000e+000  5.510729e-016
    endloop
  endfacet
  facet normal  7.830051e-001 -6.008206e-001  1.609893e-001
    outer loop
      vertex  8.000000e-001 -3.637307e+000  2.100000e+000
      vertex  5.698019e-001 -4.500000e+000  5.510729e-016
      vertex  8.000000e-001 -4.200000e+000  1.560816e-013
    endloop
  endfacet
  facet normal -1.000000e+000  0.000000e+000  0.000000e+000
    outer loop
      vertex  0.000000e+000  1.520280e+000  1.520280e+000
      vertex  0.000000e+000  1.316452e-016  2.150000e+000
      vertex  0.000000e+000  3.897114e+000  2.250000e+000
    endloop
  endfacet
  facet normal -1.000000e+000  0.000000e+000  0.000000e+000
    outer loop
      vertex  0.000000e+000 -3.897114e+000 -2.250000e+000
      vertex  0.000000e+000 -4.500000e+000  5.510729e-016
      vertex  0.000000e+000 -2.150000e+000  2.632904e-016
    endloop
  endfacet
  facet normal -1.000000e+000  0.000000e+000  -0.000000e+000
    outer loop
      vertex  0.000000e+000 -3.897114e+000 -2.250000e+000
      vertex  0.000000e+000 -2.150000e+000  2.632904e-016
      vertex  0.000000e+000 -1.520280e+000 -1.520280e+000
    endloop
  endfacet
  facet normal -1.000000e+000  0.000000e+000  -0.000000e+000
    outer loop
      vertex  0.000000e+000 -3.897114e+000 -2.250000e+000
      vertex  0.000000e+000 -1.520280e+000 -1.520280e+000
      vertex  0.000000e+000 -3.949355e-016 -2.150000e+000
    endloop
  endfacet
  facet normal -1.000000e+000  0.000000e+000  0.000000e+000
    outer loop
      vertex  0.000000e+000 -3.897114e+000 -2.250000e+000
      vertex  0.000000e+000 -3.949355e-016 -2.150000e+000
      vertex  0.000000e+000 -4.823412e-015 -4.500000e+000
    endloop
  endfacet
  facet normal -1.000000e+000  0.000000e+000  0.000000e+000
    outer loop
      vertex  0.000000e+000 -3.897114e+000 -2.250000e+000
      vertex  0.000000e+000 -4.823412e-015 -4.500000e+000
      vertex  0.000000e+000 -2.250000e+000 -3.897114e+000
    endloop
  endfacet
  facet normal -1.000000e+000  0.000000e+000  0.000000e+000
    outer loop
      vertex  0.000000e+000  3.897114e+000  2.250000e+000
      vertex  0.000000e+000  1.316452e-016  2.150000e+000
      vertex  0.000000e+000  2.250000e+000  3.897114e+000
    endloop
  endfacet
  facet normal -1.000000e+000  -0.000000e+000  0.000000e+000
    outer loop
      vertex  0.000000e+000  2.250000e+000  3.897114e+000
      vertex  0.000000e+000  1.316452e-016  2.150000e+000
      vertex  0.000000e+000  2.755364e-016  4.500000e+000
    endloop
  endfacet
  facet normal -1.000000e+000  0.000000e+000  0.000000e+000
    outer loop
      vertex  0.000000e+000  1.316452e-016  2.150000e+000
      vertex  0.000000e+000 -3.897114e+000  2.250000e+000
      vertex  0.000000e+000  2.755364e-016  4.500000e+000
    endloop
  endfacet
  facet normal -1.000000e+000  0.000000e+000  0.000000e+000
    outer loop
      vertex  0.000000e+000  2.755364e-016  4.500000e+000
      vertex  0.000000e+000 -3.897114e+000  2.250000e+000
      vertex  0.000000e+000 -2.250000e+000  3.897114e+000
    endloop
  endfacet
  facet normal -1.000000e+000  0.000000e+000  0.000000e+000
    outer loop
      vertex  0.000000e+000  1.316452e-016  2.150000e+000
      vertex  0.000000e+000 -1.520280e+000  1.520280e+000
      vertex  0.000000e+000 -3.897114e+000  2.250000e+000
    endloop
  endfacet
  facet normal -1.000000e+000  0.000000e+000  0.000000e+000
    outer loop
      vertex  0.000000e+000 -3.897114e+000  2.250000e+000
      vertex  0.000000e+000 -1.520280e+000  1.520280e+000
      vertex  0.000000e+000 -2.150000e+000  2.632904e-016
    endloop
  endfacet
  facet normal -1.000000e+000  0.000000e+000  0.000000e+000
    outer loop
      vertex  0.000000e+000 -3.897114e+000  2.250000e+000
      vertex  0.000000e+000 -2.150000e+000  2.632904e-016
      vertex  0.000000e+000 -4.500000e+000  5.510729e-016
    endloop
  endfacet
  facet normal -1.000000e+000  0.000000e+000  -0.000000e+000
    outer loop
      vertex  0.000000e+000 -3.949355e-016 -2.150000e+000
      vertex  0.000000e+000  1.520280e+000 -1.520280e+000
      vertex  0.000000e+000  3.897114e+000 -2.250000e+000
    endloop
  endfacet
  facet normal -1.000000e+000  0.000000e+000  0.000000e+000
    outer loop
      vertex  0.000000e+000  3.897114e+000 -2.250000e+000
      vertex  0.000000e+000  1.520280e+000 -1.520280e+000
      vertex  0.000000e+000  2.150000e+000  0.000000e+000
    endloop
  endfacet
  facet normal -1.000000e+000  0.000000e+000  0.000000e+000
    outer loop
      vertex  0.000000e+000  3.897114e+000 -2.250000e+000
      vertex  0.000000e+000  2.150000e+000  0.000000e+000
      vertex  0.000000e+000  4.500000e+000  0.000000e+000
    endloop
  endfacet
  facet normal -9.999999e-001  0.000000e+000  0.000000e+000
    outer loop
      vertex  0.000000e+000  4.500000e+000  0.000000e+000
      vertex  0.000000e+000  2.150000e+000  0.000000e+000
      vertex  0.000000e+000  1.520280e+000  1.520280e+000
    endloop
  endfacet
  facet normal -1.000000e+000  0.000000e+000  0.000000e+000
    outer loop
      vertex  0.000000e+000  4.500000e+000  0.000000e+000
      vertex  0.000000e+000  1.520280e+000  1.520280e+000
      vertex  0.000000e+000  3.897114e+000  2.250000e+000
    endloop
  endfacet
  facet normal -1.000000e+000  0.000000e+000  -0.000000e+000
    outer loop
      vertex  0.000000e+000 -4.823412e-015 -4.500000e+000
      vertex  0.000000e+000 -3.949355e-016 -2.150000e+000
      vertex  0.000000e+000  2.250000e+000 -3.897114e+000
    endloop
  endfacet
  facet normal -1.000000e+000  0.000000e+000  0.000000e+000
    outer loop
      vertex  0.000000e+000  2.250000e+000 -3.897114e+000
      vertex  0.000000e+000 -3.949355e-016 -2.150000e+000
      vertex  0.000000e+000  3.897114e+000 -2.250000e+000
    endloop
  endfacet
  facet normal  0.000000e+000  3.826835e-001 -9.238794e-001
    outer loop
      vertex  0.000000e+000  1.316452e-016  2.150000e+000
      vertex  8.000000e-001 -1.520280e+000  1.520280e+000
      vertex  0.000000e+000 -1.520280e+000  1.520280e+000
    endloop
  endfacet
  facet normal  0.000000e+000  9.238794e-001 -3.826835e-001
    outer loop
      vertex  0.000000e+000 -1.520280e+000  1.520280e+000
      vertex  8.000000e-001 -1.520280e+000  1.520280e+000
      vertex  8.000000e-001 -2.150000e+000  2.632904e-016
    endloop
  endfacet
  facet normal  0.000000e+000  9.238794e-001 -3.826835e-001
    outer loop
      vertex  0.000000e+000 -1.520280e+000  1.520280e+000
      vertex  8.000000e-001 -2.150000e+000  2.632904e-016
      vertex  0.000000e+000 -2.150000e+000  2.632904e-016
    endloop
  endfacet
  facet normal  0.000000e+000  3.826835e-001 -9.238794e-001
    outer loop
      vertex  8.000000e-001 -1.520280e+000  1.520280e+000
      vertex  0.000000e+000  1.316452e-016  2.150000e+000
      vertex  8.000000e-001  1.316452e-016  2.150000e+000
    endloop
  endfacet
  facet normal  -0.000000e+000 -3.826835e-001 -9.238794e-001
    outer loop
      vertex  8.000000e-001  1.316452e-016  2.150000e+000
      vertex  0.000000e+000  1.316452e-016  2.150000e+000
      vertex  0.000000e+000  1.520280e+000  1.520280e+000
    endloop
  endfacet
  facet normal  0.000000e+000 -3.826835e-001 -9.238794e-001
    outer loop
      vertex  8.000000e-001  1.316452e-016  2.150000e+000
      vertex  0.000000e+000  1.520280e+000  1.520280e+000
      vertex  8.000000e-001  1.520280e+000  1.520280e+000
    endloop
  endfacet
  facet normal  -0.000000e+000 -9.238794e-001 -3.826835e-001
    outer loop
      vertex  8.000000e-001  1.520280e+000  1.520280e+000
      vertex  0.000000e+000  1.520280e+000  1.520280e+000
      vertex  0.000000e+000  2.150000e+000  0.000000e+000
    endloop
  endfacet
  facet normal  0.000000e+000 -9.238794e-001 -3.826835e-001
    outer loop
      vertex  8.000000e-001  1.520280e+000  1.520280e+000
      vertex  0.000000e+000  2.150000e+000  0.000000e+000
      vertex  8.000000e-001  2.150000e+000  0.000000e+000
    endloop
  endfacet
  facet normal  0.000000e+000 -3.826835e-001  9.238794e-001
    outer loop
      vertex  0.000000e+000 -3.949355e-016 -2.150000e+000
      vertex  8.000000e-001  1.520280e+000 -1.520280e+000
      vertex  0.000000e+000  1.520280e+000 -1.520280e+000
    endloop
  endfacet
  facet normal  0.000000e+000 -9.238794e-001  3.826835e-001
    outer loop
      vertex  0.000000e+000  1.520280e+000 -1.520280e+000
      vertex  8.000000e-001  1.520280e+000 -1.520280e+000
      vertex  8.000000e-001  2.150000e+000  0.000000e+000
    endloop
  endfacet
  facet normal  0.000000e+000 -9.238794e-001  3.826835e-001
    outer loop
      vertex  0.000000e+000  1.520280e+000 -1.520280e+000
      vertex  8.000000e-001  2.150000e+000  0.000000e+000
      vertex  0.000000e+000  2.150000e+000  0.000000e+000
    endloop
  endfacet
  facet normal  0.000000e+000 -3.826835e-001  9.238794e-001
    outer loop
      vertex  8.000000e-001  1.520280e+000 -1.520280e+000
      vertex  0.000000e+000 -3.949355e-016 -2.150000e+000
      vertex  8.000000e-001 -3.949355e-016 -2.150000e+000
    endloop
  endfacet
  facet normal  0.000000e+000  3.826835e-001  9.238794e-001
    outer loop
      vertex  8.000000e-001 -3.949355e-016 -2.150000e+000
      vertex  0.000000e+000 -3.949355e-016 -2.150000e+000
      vertex  0.000000e+000 -1.520280e+000 -1.520280e+000
    endloop
  endfacet
  facet normal  -0.000000e+000  3.826835e-001  9.238794e-001
    outer loop
      vertex  8.000000e-001 -3.949355e-016 -2.150000e+000
      vertex  0.000000e+000 -1.520280e+000 -1.520280e+000
      vertex  8.000000e-001 -1.520280e+000 -1.520280e+000
    endloop
  endfacet
  facet normal  0.000000e+000  9.238794e-001  3.826835e-001
    outer loop
      vertex  8.000000e-001 -1.520280e+000 -1.520280e+000
      vertex  0.000000e+000 -1.520280e+000 -1.520280e+000
      vertex  0.000000e+000 -2.150000e+000  2.632904e-016
    endloop
  endfacet
  facet normal  -0.000000e+000  9.238794e-001  3.826835e-001
    outer loop
      vertex  8.000000e-001 -1.520280e+000 -1.520280e+000
      vertex  0.000000e+000 -2.150000e+000  2.632904e-016
      vertex  8.000000e-001 -2.150000e+000  2.632904e-016
    endloop
  endfacet
endsolid CATIA STL
