solid CATIA STL
  facet normal  -0.000000e+000 -1.000000e+000  0.000000e+000
    outer loop
      vertex  2.788500e+001  0.000000e+000  5.505000e+000
      vertex  2.987808e+001  0.000000e+000  9.610000e+000
      vertex  2.878000e+001  0.000000e+000  1.070808e+001
    endloop
  endfacet
  facet normal  0.000000e+000 -1.000000e+000  0.000000e+000
    outer loop
      vertex  2.728000e+001  0.000000e+000  1.111000e+001
      vertex  0.000000e+000  0.000000e+000  1.111000e+001
      vertex  2.563931e+001  0.000000e+000  8.595934e+000
    endloop
  endfacet
  facet normal  0.000000e+000 -1.000000e+000  0.000000e+000
    outer loop
      vertex  2.728000e+001  0.000000e+000  1.111000e+001
      vertex  2.563931e+001  0.000000e+000  8.595934e+000
      vertex  2.726431e+001  0.000000e+000  7.415302e+000
    endloop
  endfacet
  facet normal  0.000000e+000 -9.999999e-001  0.000000e+000
    outer loop
      vertex  2.728000e+001  0.000000e+000  1.111000e+001
      vertex  2.726431e+001  0.000000e+000  7.415302e+000
      vertex  2.788500e+001  0.000000e+000  5.505000e+000
    endloop
  endfacet
  facet normal  0.000000e+000 -1.000000e+000  0.000000e+000
    outer loop
      vertex  2.728000e+001  0.000000e+000  1.111000e+001
      vertex  2.788500e+001  0.000000e+000  5.505000e+000
      vertex  2.878000e+001  0.000000e+000  1.070808e+001
    endloop
  endfacet
  facet normal  -0.000000e+000 -1.000000e+000  0.000000e+000
    outer loop
      vertex  2.728000e+001  0.000000e+000  0.000000e+000
      vertex  2.878000e+001  0.000000e+000  4.019238e-001
      vertex  2.788500e+001  0.000000e+000  5.505000e+000
    endloop
  endfacet
  facet normal  0.000000e+000 -1.000000e+000  0.000000e+000
    outer loop
      vertex  2.728000e+001  0.000000e+000  0.000000e+000
      vertex  2.788500e+001  0.000000e+000  5.505000e+000
      vertex  2.726431e+001  0.000000e+000  3.594698e+000
    endloop
  endfacet
  facet normal  0.000000e+000 -1.000000e+000  -0.000000e+000
    outer loop
      vertex  2.728000e+001  0.000000e+000  0.000000e+000
      vertex  2.726431e+001  0.000000e+000  3.594698e+000
      vertex  2.563931e+001  0.000000e+000  2.414066e+000
    endloop
  endfacet
  facet normal  0.000000e+000 -1.000000e+000  -0.000000e+000
    outer loop
      vertex  2.728000e+001  0.000000e+000  0.000000e+000
      vertex  2.563931e+001  0.000000e+000  2.414066e+000
      vertex  0.000000e+000  0.000000e+000  0.000000e+000
    endloop
  endfacet
  facet normal  -0.000000e+000 -1.000000e+000  0.000000e+000
    outer loop
      vertex  0.000000e+000  0.000000e+000  0.000000e+000
      vertex  2.563931e+001  0.000000e+000  2.414066e+000
      vertex  2.363070e+001  0.000000e+000  2.414066e+000
    endloop
  endfacet
  facet normal  -0.000000e+000 -9.999999e-001  0.000000e+000
    outer loop
      vertex  0.000000e+000  0.000000e+000  0.000000e+000
      vertex  2.363070e+001  0.000000e+000  2.414066e+000
      vertex  2.200570e+001  0.000000e+000  3.594698e+000
    endloop
  endfacet
  facet normal  -0.000000e+000 -1.000000e+000  0.000000e+000
    outer loop
      vertex  0.000000e+000  0.000000e+000  0.000000e+000
      vertex  2.200570e+001  0.000000e+000  3.594698e+000
      vertex  2.138500e+001  0.000000e+000  5.505000e+000
    endloop
  endfacet
  facet normal  -0.000000e+000 -9.999999e-001  0.000000e+000
    outer loop
      vertex  0.000000e+000  0.000000e+000  0.000000e+000
      vertex  2.138500e+001  0.000000e+000  5.505000e+000
      vertex  0.000000e+000  0.000000e+000  1.111000e+001
    endloop
  endfacet
  facet normal  0.000000e+000 -9.999999e-001  0.000000e+000
    outer loop
      vertex  0.000000e+000  0.000000e+000  1.111000e+001
      vertex  2.138500e+001  0.000000e+000  5.505000e+000
      vertex  2.200570e+001  0.000000e+000  7.415302e+000
    endloop
  endfacet
  facet normal  0.000000e+000 -9.999999e-001  0.000000e+000
    outer loop
      vertex  0.000000e+000  0.000000e+000  1.111000e+001
      vertex  2.200570e+001  0.000000e+000  7.415302e+000
      vertex  2.363070e+001  0.000000e+000  8.595934e+000
    endloop
  endfacet
  facet normal  0.000000e+000 -1.000000e+000  0.000000e+000
    outer loop
      vertex  0.000000e+000  0.000000e+000  1.111000e+001
      vertex  2.363070e+001  0.000000e+000  8.595934e+000
      vertex  2.563931e+001  0.000000e+000  8.595934e+000
    endloop
  endfacet
  facet normal  0.000000e+000 -1.000000e+000  0.000000e+000
    outer loop
      vertex  3.028000e+001  0.000000e+000  8.110000e+000
      vertex  2.987808e+001  0.000000e+000  9.610000e+000
      vertex  3.028000e+001  0.000000e+000  3.000000e+000
    endloop
  endfacet
  facet normal  0.000000e+000 -1.000000e+000  0.000000e+000
    outer loop
      vertex  3.028000e+001  0.000000e+000  3.000000e+000
      vertex  2.987808e+001  0.000000e+000  9.610000e+000
      vertex  2.788500e+001  0.000000e+000  5.505000e+000
    endloop
  endfacet
  facet normal  0.000000e+000 -1.000000e+000  0.000000e+000
    outer loop
      vertex  3.028000e+001  0.000000e+000  3.000000e+000
      vertex  2.788500e+001  0.000000e+000  5.505000e+000
      vertex  2.987808e+001  0.000000e+000  1.500000e+000
    endloop
  endfacet
  facet normal  -0.000000e+000 -1.000000e+000  0.000000e+000
    outer loop
      vertex  2.987808e+001  0.000000e+000  1.500000e+000
      vertex  2.788500e+001  0.000000e+000  5.505000e+000
      vertex  2.878000e+001  0.000000e+000  4.019238e-001
    endloop
  endfacet
  facet normal  0.000000e+000  1.000000e+000  0.000000e+000
    outer loop
      vertex  2.728000e+001  1.588000e+001  1.111000e+001
      vertex  2.878000e+001  1.588000e+001  1.070808e+001
      vertex  2.788500e+001  1.588000e+001  5.505000e+000
    endloop
  endfacet
  facet normal  0.000000e+000  9.999999e-001  0.000000e+000
    outer loop
      vertex  2.728000e+001  1.588000e+001  1.111000e+001
      vertex  2.788500e+001  1.588000e+001  5.505000e+000
      vertex  2.726431e+001  1.588000e+001  7.415302e+000
    endloop
  endfacet
  facet normal  0.000000e+000  1.000000e+000  -0.000000e+000
    outer loop
      vertex  2.728000e+001  1.588000e+001  1.111000e+001
      vertex  2.726431e+001  1.588000e+001  7.415302e+000
      vertex  2.563931e+001  1.588000e+001  8.595934e+000
    endloop
  endfacet
  facet normal  0.000000e+000  1.000000e+000  -0.000000e+000
    outer loop
      vertex  2.728000e+001  1.588000e+001  1.111000e+001
      vertex  2.563931e+001  1.588000e+001  8.595934e+000
      vertex  2.363070e+001  1.588000e+001  8.595934e+000
    endloop
  endfacet
  facet normal  0.000000e+000  1.000000e+000  0.000000e+000
    outer loop
      vertex  1.270000e+001  1.588000e+001  1.111000e+001
      vertex  2.728000e+001  1.588000e+001  1.111000e+001
      vertex  2.363070e+001  1.588000e+001  8.595934e+000
    endloop
  endfacet
  facet normal  0.000000e+000  1.000000e+000  0.000000e+000
    outer loop
      vertex  1.270000e+001  1.588000e+001  1.111000e+001
      vertex  2.363070e+001  1.588000e+001  8.595934e+000
      vertex  2.200570e+001  1.588000e+001  7.415302e+000
    endloop
  endfacet
  facet normal  0.000000e+000  1.000000e+000  0.000000e+000
    outer loop
      vertex  1.270000e+001  1.588000e+001  1.111000e+001
      vertex  2.200570e+001  1.588000e+001  7.415302e+000
      vertex  2.138500e+001  1.588000e+001  5.505000e+000
    endloop
  endfacet
  facet normal  0.000000e+000  1.000000e+000  0.000000e+000
    outer loop
      vertex  1.270000e+001  1.588000e+001  1.111000e+001
      vertex  2.138500e+001  1.588000e+001  5.505000e+000
      vertex  1.270000e+001  1.588000e+001  0.000000e+000
    endloop
  endfacet
  facet normal  -0.000000e+000  1.000000e+000  0.000000e+000
    outer loop
      vertex  2.728000e+001  1.588000e+001  0.000000e+000
      vertex  2.363070e+001  1.588000e+001  2.414066e+000
      vertex  2.563931e+001  1.588000e+001  2.414066e+000
    endloop
  endfacet
  facet normal  -0.000000e+000  1.000000e+000  0.000000e+000
    outer loop
      vertex  2.728000e+001  1.588000e+001  0.000000e+000
      vertex  2.563931e+001  1.588000e+001  2.414066e+000
      vertex  2.726431e+001  1.588000e+001  3.594698e+000
    endloop
  endfacet
  facet normal  -0.000000e+000  1.000000e+000  0.000000e+000
    outer loop
      vertex  2.728000e+001  1.588000e+001  0.000000e+000
      vertex  2.726431e+001  1.588000e+001  3.594698e+000
      vertex  2.788500e+001  1.588000e+001  5.505000e+000
    endloop
  endfacet
  facet normal  0.000000e+000  1.000000e+000  0.000000e+000
    outer loop
      vertex  2.728000e+001  1.588000e+001  0.000000e+000
      vertex  2.788500e+001  1.588000e+001  5.505000e+000
      vertex  2.878000e+001  1.588000e+001  4.019238e-001
    endloop
  endfacet
  facet normal  0.000000e+000  1.000000e+000  0.000000e+000
    outer loop
      vertex  1.270000e+001  1.588000e+001  0.000000e+000
      vertex  2.138500e+001  1.588000e+001  5.505000e+000
      vertex  2.200570e+001  1.588000e+001  3.594698e+000
    endloop
  endfacet
  facet normal  0.000000e+000  1.000000e+000  0.000000e+000
    outer loop
      vertex  1.270000e+001  1.588000e+001  0.000000e+000
      vertex  2.200570e+001  1.588000e+001  3.594698e+000
      vertex  2.363070e+001  1.588000e+001  2.414066e+000
    endloop
  endfacet
  facet normal  0.000000e+000  9.999999e-001  0.000000e+000
    outer loop
      vertex  1.270000e+001  1.588000e+001  0.000000e+000
      vertex  2.363070e+001  1.588000e+001  2.414066e+000
      vertex  2.728000e+001  1.588000e+001  0.000000e+000
    endloop
  endfacet
  facet normal  0.000000e+000  1.000000e+000  0.000000e+000
    outer loop
      vertex  2.878000e+001  1.588000e+001  1.070808e+001
      vertex  2.987808e+001  1.588000e+001  9.610000e+000
      vertex  2.788500e+001  1.588000e+001  5.505000e+000
    endloop
  endfacet
  facet normal  0.000000e+000  1.000000e+000  0.000000e+000
    outer loop
      vertex  2.788500e+001  1.588000e+001  5.505000e+000
      vertex  2.987808e+001  1.588000e+001  9.610000e+000
      vertex  3.028000e+001  1.588000e+001  8.110000e+000
    endloop
  endfacet
  facet normal  0.000000e+000  1.000000e+000  0.000000e+000
    outer loop
      vertex  2.788500e+001  1.588000e+001  5.505000e+000
      vertex  3.028000e+001  1.588000e+001  8.110000e+000
      vertex  2.878000e+001  1.588000e+001  4.019238e-001
    endloop
  endfacet
  facet normal  0.000000e+000  1.000000e+000  0.000000e+000
    outer loop
      vertex  2.878000e+001  1.588000e+001  4.019238e-001
      vertex  3.028000e+001  1.588000e+001  8.110000e+000
      vertex  3.028000e+001  1.588000e+001  3.000000e+000
    endloop
  endfacet
  facet normal  0.000000e+000  1.000000e+000  0.000000e+000
    outer loop
      vertex  2.878000e+001  1.588000e+001  4.019238e-001
      vertex  3.028000e+001  1.588000e+001  3.000000e+000
      vertex  2.987808e+001  1.588000e+001  1.500000e+000
    endloop
  endfacet
  facet normal  1.000000e+000  0.000000e+000  0.000000e+000
    outer loop
      vertex  3.028000e+001  0.000000e+000  8.110000e+000
      vertex  3.028000e+001  0.000000e+000  3.000000e+000
      vertex  3.028000e+001  1.588000e+001  8.110000e+000
    endloop
  endfacet
  facet normal  1.000000e+000  0.000000e+000  0.000000e+000
    outer loop
      vertex  3.028000e+001  1.588000e+001  8.110000e+000
      vertex  3.028000e+001  0.000000e+000  3.000000e+000
      vertex  3.028000e+001  1.588000e+001  3.000000e+000
    endloop
  endfacet
  facet normal  0.000000e+000  0.000000e+000  1.000000e+000
    outer loop
      vertex  2.728000e+001  0.000000e+000  1.111000e+001
      vertex  2.728000e+001  1.588000e+001  1.111000e+001
      vertex  1.270000e+001  1.588000e+001  1.111000e+001
    endloop
  endfacet
  facet normal  0.000000e+000  0.000000e+000  1.000000e+000
    outer loop
      vertex  2.728000e+001  0.000000e+000  1.111000e+001
      vertex  1.270000e+001  1.588000e+001  1.111000e+001
      vertex  1.193410e+001  1.153634e+001  1.111000e+001
    endloop
  endfacet
  facet normal  0.000000e+000  0.000000e+000  1.000000e+000
    outer loop
      vertex  2.728000e+001  0.000000e+000  1.111000e+001
      vertex  1.193410e+001  1.153634e+001  1.111000e+001
      vertex  9.728765e+000  7.716598e+000  1.111000e+001
    endloop
  endfacet
  facet normal  0.000000e+000  0.000000e+000  1.000000e+000
    outer loop
      vertex  2.728000e+001  0.000000e+000  1.111000e+001
      vertex  9.728765e+000  7.716598e+000  1.111000e+001
      vertex  6.350000e+000  4.881477e+000  1.111000e+001
    endloop
  endfacet
  facet normal  0.000000e+000  0.000000e+000  1.000000e+000
    outer loop
      vertex  2.728000e+001  0.000000e+000  1.111000e+001
      vertex  6.350000e+000  4.881477e+000  1.111000e+001
      vertex  2.205332e+000  3.372941e+000  1.111000e+001
    endloop
  endfacet
  facet normal  0.000000e+000  0.000000e+000  1.000000e+000
    outer loop
      vertex  2.728000e+001  0.000000e+000  1.111000e+001
      vertex  2.205332e+000  3.372941e+000  1.111000e+001
      vertex -2.205332e+000  3.372941e+000  1.111000e+001
    endloop
  endfacet
  facet normal  0.000000e+000  0.000000e+000  9.999999e-001
    outer loop
      vertex  2.728000e+001  0.000000e+000  1.111000e+001
      vertex -2.205332e+000  3.372941e+000  1.111000e+001
      vertex  0.000000e+000  0.000000e+000  1.111000e+001
    endloop
  endfacet
  facet normal  0.000000e+000  0.000000e+000  9.999999e-001
    outer loop
      vertex -2.728000e+001  0.000000e+000  1.111000e+001
      vertex  0.000000e+000  0.000000e+000  1.111000e+001
      vertex -2.205332e+000  3.372941e+000  1.111000e+001
    endloop
  endfacet
  facet normal  0.000000e+000  0.000000e+000  1.000000e+000
    outer loop
      vertex -2.728000e+001  0.000000e+000  1.111000e+001
      vertex -2.205332e+000  3.372941e+000  1.111000e+001
      vertex -6.350000e+000  4.881477e+000  1.111000e+001
    endloop
  endfacet
  facet normal  0.000000e+000  0.000000e+000  1.000000e+000
    outer loop
      vertex -2.728000e+001  0.000000e+000  1.111000e+001
      vertex -6.350000e+000  4.881477e+000  1.111000e+001
      vertex -9.728765e+000  7.716598e+000  1.111000e+001
    endloop
  endfacet
  facet normal  0.000000e+000  0.000000e+000  1.000000e+000
    outer loop
      vertex -2.728000e+001  0.000000e+000  1.111000e+001
      vertex -9.728765e+000  7.716598e+000  1.111000e+001
      vertex -1.193410e+001  1.153634e+001  1.111000e+001
    endloop
  endfacet
  facet normal  0.000000e+000  0.000000e+000  1.000000e+000
    outer loop
      vertex -2.728000e+001  0.000000e+000  1.111000e+001
      vertex -1.193410e+001  1.153634e+001  1.111000e+001
      vertex -1.270000e+001  1.588000e+001  1.111000e+001
    endloop
  endfacet
  facet normal  0.000000e+000  0.000000e+000  1.000000e+000
    outer loop
      vertex -2.728000e+001  0.000000e+000  1.111000e+001
      vertex -1.270000e+001  1.588000e+001  1.111000e+001
      vertex -2.728000e+001  1.588000e+001  1.111000e+001
    endloop
  endfacet
  facet normal  9.659258e-001  0.000000e+000  2.588193e-001
    outer loop
      vertex  3.028000e+001  0.000000e+000  8.110000e+000
      vertex  3.028000e+001  1.588000e+001  8.110000e+000
      vertex  2.987808e+001  0.000000e+000  9.610000e+000
    endloop
  endfacet
  facet normal  9.659258e-001  -0.000000e+000  2.588193e-001
    outer loop
      vertex  2.987808e+001  0.000000e+000  9.610000e+000
      vertex  3.028000e+001  1.588000e+001  8.110000e+000
      vertex  2.987808e+001  1.588000e+001  9.610000e+000
    endloop
  endfacet
  facet normal  7.071071e-001  0.000000e+000  7.071065e-001
    outer loop
      vertex  2.987808e+001  0.000000e+000  9.610000e+000
      vertex  2.987808e+001  1.588000e+001  9.610000e+000
      vertex  2.878000e+001  0.000000e+000  1.070808e+001
    endloop
  endfacet
  facet normal  7.071071e-001  -0.000000e+000  7.071065e-001
    outer loop
      vertex  2.878000e+001  0.000000e+000  1.070808e+001
      vertex  2.987808e+001  1.588000e+001  9.610000e+000
      vertex  2.878000e+001  1.588000e+001  1.070808e+001
    endloop
  endfacet
  facet normal  2.588187e-001  0.000000e+000  9.659259e-001
    outer loop
      vertex  2.878000e+001  0.000000e+000  1.070808e+001
      vertex  2.878000e+001  1.588000e+001  1.070808e+001
      vertex  2.728000e+001  0.000000e+000  1.111000e+001
    endloop
  endfacet
  facet normal  2.588187e-001  -0.000000e+000  9.659259e-001
    outer loop
      vertex  2.728000e+001  0.000000e+000  1.111000e+001
      vertex  2.878000e+001  1.588000e+001  1.070808e+001
      vertex  2.728000e+001  1.588000e+001  1.111000e+001
    endloop
  endfacet
  facet normal  0.000000e+000  0.000000e+000 -9.999999e-001
    outer loop
      vertex  2.728000e+001  0.000000e+000  0.000000e+000
      vertex  0.000000e+000  0.000000e+000  0.000000e+000
      vertex -2.205332e+000  3.372941e+000  0.000000e+000
    endloop
  endfacet
  facet normal  0.000000e+000  0.000000e+000 -1.000000e+000
    outer loop
      vertex  2.728000e+001  0.000000e+000  0.000000e+000
      vertex -2.205332e+000  3.372941e+000  0.000000e+000
      vertex  2.205332e+000  3.372941e+000  0.000000e+000
    endloop
  endfacet
  facet normal  0.000000e+000  0.000000e+000 -1.000000e+000
    outer loop
      vertex  2.728000e+001  0.000000e+000  0.000000e+000
      vertex  2.205332e+000  3.372941e+000  0.000000e+000
      vertex  6.350000e+000  4.881477e+000  0.000000e+000
    endloop
  endfacet
  facet normal  0.000000e+000  0.000000e+000 -1.000000e+000
    outer loop
      vertex  2.728000e+001  0.000000e+000  0.000000e+000
      vertex  6.350000e+000  4.881477e+000  0.000000e+000
      vertex  9.728765e+000  7.716598e+000  0.000000e+000
    endloop
  endfacet
  facet normal  0.000000e+000  0.000000e+000 -1.000000e+000
    outer loop
      vertex  2.728000e+001  0.000000e+000  0.000000e+000
      vertex  9.728765e+000  7.716598e+000  0.000000e+000
      vertex  1.193410e+001  1.153634e+001  0.000000e+000
    endloop
  endfacet
  facet normal  0.000000e+000  0.000000e+000 -1.000000e+000
    outer loop
      vertex  2.728000e+001  0.000000e+000  0.000000e+000
      vertex  1.193410e+001  1.153634e+001  0.000000e+000
      vertex  1.270000e+001  1.588000e+001  0.000000e+000
    endloop
  endfacet
  facet normal  0.000000e+000  0.000000e+000 -1.000000e+000
    outer loop
      vertex  2.728000e+001  0.000000e+000  0.000000e+000
      vertex  1.270000e+001  1.588000e+001  0.000000e+000
      vertex  2.728000e+001  1.588000e+001  0.000000e+000
    endloop
  endfacet
  facet normal  0.000000e+000  0.000000e+000 -1.000000e+000
    outer loop
      vertex -2.728000e+001  0.000000e+000  0.000000e+000
      vertex -2.728000e+001  1.588000e+001  0.000000e+000
      vertex -1.270000e+001  1.588000e+001  0.000000e+000
    endloop
  endfacet
  facet normal  0.000000e+000  -0.000000e+000 -1.000000e+000
    outer loop
      vertex -2.728000e+001  0.000000e+000  0.000000e+000
      vertex -1.270000e+001  1.588000e+001  0.000000e+000
      vertex -1.193410e+001  1.153634e+001  0.000000e+000
    endloop
  endfacet
  facet normal  0.000000e+000  -0.000000e+000 -1.000000e+000
    outer loop
      vertex -2.728000e+001  0.000000e+000  0.000000e+000
      vertex -1.193410e+001  1.153634e+001  0.000000e+000
      vertex -9.728765e+000  7.716598e+000  0.000000e+000
    endloop
  endfacet
  facet normal  0.000000e+000  -0.000000e+000 -1.000000e+000
    outer loop
      vertex -2.728000e+001  0.000000e+000  0.000000e+000
      vertex -9.728765e+000  7.716598e+000  0.000000e+000
      vertex -6.350000e+000  4.881477e+000  0.000000e+000
    endloop
  endfacet
  facet normal  0.000000e+000  -0.000000e+000 -1.000000e+000
    outer loop
      vertex -2.728000e+001  0.000000e+000  0.000000e+000
      vertex -6.350000e+000  4.881477e+000  0.000000e+000
      vertex -2.205332e+000  3.372941e+000  0.000000e+000
    endloop
  endfacet
  facet normal  0.000000e+000  -0.000000e+000 -9.999999e-001
    outer loop
      vertex -2.728000e+001  0.000000e+000  0.000000e+000
      vertex -2.205332e+000  3.372941e+000  0.000000e+000
      vertex  0.000000e+000  0.000000e+000  0.000000e+000
    endloop
  endfacet
  facet normal  2.588190e-001  0.000000e+000 -9.659259e-001
    outer loop
      vertex  2.728000e+001  0.000000e+000  0.000000e+000
      vertex  2.728000e+001  1.588000e+001  0.000000e+000
      vertex  2.878000e+001  0.000000e+000  4.019238e-001
    endloop
  endfacet
  facet normal  2.588190e-001  0.000000e+000 -9.659259e-001
    outer loop
      vertex  2.878000e+001  0.000000e+000  4.019238e-001
      vertex  2.728000e+001  1.588000e+001  0.000000e+000
      vertex  2.878000e+001  1.588000e+001  4.019238e-001
    endloop
  endfacet
  facet normal  7.071069e-001  0.000000e+000 -7.071066e-001
    outer loop
      vertex  2.878000e+001  0.000000e+000  4.019238e-001
      vertex  2.878000e+001  1.588000e+001  4.019238e-001
      vertex  2.987808e+001  0.000000e+000  1.500000e+000
    endloop
  endfacet
  facet normal  7.071069e-001  0.000000e+000 -7.071066e-001
    outer loop
      vertex  2.987808e+001  0.000000e+000  1.500000e+000
      vertex  2.878000e+001  1.588000e+001  4.019238e-001
      vertex  2.987808e+001  1.588000e+001  1.500000e+000
    endloop
  endfacet
  facet normal  9.659258e-001  0.000000e+000 -2.588193e-001
    outer loop
      vertex  2.987808e+001  0.000000e+000  1.500000e+000
      vertex  2.987808e+001  1.588000e+001  1.500000e+000
      vertex  3.028000e+001  0.000000e+000  3.000000e+000
    endloop
  endfacet
  facet normal  9.659258e-001  0.000000e+000 -2.588193e-001
    outer loop
      vertex  3.028000e+001  0.000000e+000  3.000000e+000
      vertex  2.987808e+001  1.588000e+001  1.500000e+000
      vertex  3.028000e+001  1.588000e+001  3.000000e+000
    endloop
  endfacet
  facet normal  -0.000000e+000  1.000000e+000  0.000000e+000
    outer loop
      vertex -2.788500e+001  1.588000e+001  5.505000e+000
      vertex -2.987808e+001  1.588000e+001  9.610000e+000
      vertex -2.878000e+001  1.588000e+001  1.070808e+001
    endloop
  endfacet
  facet normal  -0.000000e+000  1.000000e+000  0.000000e+000
    outer loop
      vertex -2.728000e+001  1.588000e+001  0.000000e+000
      vertex -2.878000e+001  1.588000e+001  4.019238e-001
      vertex -2.788500e+001  1.588000e+001  5.505000e+000
    endloop
  endfacet
  facet normal  0.000000e+000  1.000000e+000  0.000000e+000
    outer loop
      vertex -2.728000e+001  1.588000e+001  0.000000e+000
      vertex -2.788500e+001  1.588000e+001  5.505000e+000
      vertex -2.726431e+001  1.588000e+001  3.594698e+000
    endloop
  endfacet
  facet normal  0.000000e+000  1.000000e+000  0.000000e+000
    outer loop
      vertex -2.728000e+001  1.588000e+001  0.000000e+000
      vertex -2.726431e+001  1.588000e+001  3.594698e+000
      vertex -2.563931e+001  1.588000e+001  2.414066e+000
    endloop
  endfacet
  facet normal  0.000000e+000  9.999999e-001  0.000000e+000
    outer loop
      vertex -2.728000e+001  1.588000e+001  0.000000e+000
      vertex -2.563931e+001  1.588000e+001  2.414066e+000
      vertex -1.270000e+001  1.588000e+001  0.000000e+000
    endloop
  endfacet
  facet normal  0.000000e+000  1.000000e+000  0.000000e+000
    outer loop
      vertex -2.728000e+001  1.588000e+001  1.111000e+001
      vertex -1.270000e+001  1.588000e+001  1.111000e+001
      vertex -2.563931e+001  1.588000e+001  8.595934e+000
    endloop
  endfacet
  facet normal  0.000000e+000  1.000000e+000  0.000000e+000
    outer loop
      vertex -2.728000e+001  1.588000e+001  1.111000e+001
      vertex -2.563931e+001  1.588000e+001  8.595934e+000
      vertex -2.726431e+001  1.588000e+001  7.415302e+000
    endloop
  endfacet
  facet normal  0.000000e+000  9.999999e-001  0.000000e+000
    outer loop
      vertex -2.728000e+001  1.588000e+001  1.111000e+001
      vertex -2.726431e+001  1.588000e+001  7.415302e+000
      vertex -2.788500e+001  1.588000e+001  5.505000e+000
    endloop
  endfacet
  facet normal  0.000000e+000  1.000000e+000  -0.000000e+000
    outer loop
      vertex -2.728000e+001  1.588000e+001  1.111000e+001
      vertex -2.788500e+001  1.588000e+001  5.505000e+000
      vertex -2.878000e+001  1.588000e+001  1.070808e+001
    endloop
  endfacet
  facet normal  -0.000000e+000  1.000000e+000  0.000000e+000
    outer loop
      vertex -1.270000e+001  1.588000e+001  0.000000e+000
      vertex -2.563931e+001  1.588000e+001  2.414066e+000
      vertex -2.363070e+001  1.588000e+001  2.414066e+000
    endloop
  endfacet
  facet normal  -0.000000e+000  1.000000e+000  0.000000e+000
    outer loop
      vertex -1.270000e+001  1.588000e+001  0.000000e+000
      vertex -2.363070e+001  1.588000e+001  2.414066e+000
      vertex -2.200570e+001  1.588000e+001  3.594698e+000
    endloop
  endfacet
  facet normal  -0.000000e+000  1.000000e+000  0.000000e+000
    outer loop
      vertex -1.270000e+001  1.588000e+001  0.000000e+000
      vertex -2.200570e+001  1.588000e+001  3.594698e+000
      vertex -2.138500e+001  1.588000e+001  5.505000e+000
    endloop
  endfacet
  facet normal  -0.000000e+000  1.000000e+000  0.000000e+000
    outer loop
      vertex -1.270000e+001  1.588000e+001  0.000000e+000
      vertex -2.138500e+001  1.588000e+001  5.505000e+000
      vertex -1.270000e+001  1.588000e+001  1.111000e+001
    endloop
  endfacet
  facet normal  0.000000e+000  1.000000e+000  -0.000000e+000
    outer loop
      vertex -1.270000e+001  1.588000e+001  1.111000e+001
      vertex -2.138500e+001  1.588000e+001  5.505000e+000
      vertex -2.200570e+001  1.588000e+001  7.415302e+000
    endloop
  endfacet
  facet normal  0.000000e+000  1.000000e+000  -0.000000e+000
    outer loop
      vertex -1.270000e+001  1.588000e+001  1.111000e+001
      vertex -2.200570e+001  1.588000e+001  7.415302e+000
      vertex -2.363070e+001  1.588000e+001  8.595934e+000
    endloop
  endfacet
  facet normal  0.000000e+000  1.000000e+000  -0.000000e+000
    outer loop
      vertex -1.270000e+001  1.588000e+001  1.111000e+001
      vertex -2.363070e+001  1.588000e+001  8.595934e+000
      vertex -2.563931e+001  1.588000e+001  8.595934e+000
    endloop
  endfacet
  facet normal  0.000000e+000  1.000000e+000  0.000000e+000
    outer loop
      vertex -3.028000e+001  1.588000e+001  8.110000e+000
      vertex -2.987808e+001  1.588000e+001  9.610000e+000
      vertex -3.028000e+001  1.588000e+001  3.000000e+000
    endloop
  endfacet
  facet normal  0.000000e+000  1.000000e+000  0.000000e+000
    outer loop
      vertex -3.028000e+001  1.588000e+001  3.000000e+000
      vertex -2.987808e+001  1.588000e+001  9.610000e+000
      vertex -2.788500e+001  1.588000e+001  5.505000e+000
    endloop
  endfacet
  facet normal  0.000000e+000  1.000000e+000  0.000000e+000
    outer loop
      vertex -3.028000e+001  1.588000e+001  3.000000e+000
      vertex -2.788500e+001  1.588000e+001  5.505000e+000
      vertex -2.987808e+001  1.588000e+001  1.500000e+000
    endloop
  endfacet
  facet normal  -0.000000e+000  1.000000e+000  0.000000e+000
    outer loop
      vertex -2.987808e+001  1.588000e+001  1.500000e+000
      vertex -2.788500e+001  1.588000e+001  5.505000e+000
      vertex -2.878000e+001  1.588000e+001  4.019238e-001
    endloop
  endfacet
  facet normal  -0.000000e+000 -1.000000e+000  0.000000e+000
    outer loop
      vertex -2.728000e+001  0.000000e+000  0.000000e+000
      vertex -2.363070e+001  0.000000e+000  2.414066e+000
      vertex -2.563931e+001  0.000000e+000  2.414066e+000
    endloop
  endfacet
  facet normal  -0.000000e+000 -1.000000e+000  0.000000e+000
    outer loop
      vertex -2.728000e+001  0.000000e+000  0.000000e+000
      vertex -2.563931e+001  0.000000e+000  2.414066e+000
      vertex -2.726431e+001  0.000000e+000  3.594698e+000
    endloop
  endfacet
  facet normal  -0.000000e+000 -1.000000e+000  0.000000e+000
    outer loop
      vertex -2.728000e+001  0.000000e+000  0.000000e+000
      vertex -2.726431e+001  0.000000e+000  3.594698e+000
      vertex -2.788500e+001  0.000000e+000  5.505000e+000
    endloop
  endfacet
  facet normal  0.000000e+000 -1.000000e+000  -0.000000e+000
    outer loop
      vertex -2.728000e+001  0.000000e+000  0.000000e+000
      vertex -2.788500e+001  0.000000e+000  5.505000e+000
      vertex -2.878000e+001  0.000000e+000  4.019238e-001
    endloop
  endfacet
  facet normal  0.000000e+000 -1.000000e+000  0.000000e+000
    outer loop
      vertex -2.728000e+001  0.000000e+000  1.111000e+001
      vertex -2.878000e+001  0.000000e+000  1.070808e+001
      vertex -2.788500e+001  0.000000e+000  5.505000e+000
    endloop
  endfacet
  facet normal  0.000000e+000 -9.999999e-001  0.000000e+000
    outer loop
      vertex -2.728000e+001  0.000000e+000  1.111000e+001
      vertex -2.788500e+001  0.000000e+000  5.505000e+000
      vertex -2.726431e+001  0.000000e+000  7.415302e+000
    endloop
  endfacet
  facet normal  0.000000e+000 -1.000000e+000  0.000000e+000
    outer loop
      vertex -2.728000e+001  0.000000e+000  1.111000e+001
      vertex -2.726431e+001  0.000000e+000  7.415302e+000
      vertex -2.563931e+001  0.000000e+000  8.595934e+000
    endloop
  endfacet
  facet normal  0.000000e+000 -1.000000e+000  0.000000e+000
    outer loop
      vertex -2.728000e+001  0.000000e+000  1.111000e+001
      vertex -2.563931e+001  0.000000e+000  8.595934e+000
      vertex -2.363070e+001  0.000000e+000  8.595934e+000
    endloop
  endfacet
  facet normal  0.000000e+000 -1.000000e+000  0.000000e+000
    outer loop
      vertex -2.728000e+001  0.000000e+000  1.111000e+001
      vertex -2.363070e+001  0.000000e+000  8.595934e+000
      vertex  0.000000e+000  0.000000e+000  0.000000e+000
    endloop
  endfacet
  facet normal  0.000000e+000 -1.000000e+000  0.000000e+000
    outer loop
      vertex -2.728000e+001  0.000000e+000  1.111000e+001
      vertex  0.000000e+000  0.000000e+000  0.000000e+000
      vertex  0.000000e+000  0.000000e+000  1.111000e+001
    endloop
  endfacet
  facet normal  0.000000e+000 -1.000000e+000  0.000000e+000
    outer loop
      vertex  0.000000e+000  0.000000e+000  0.000000e+000
      vertex -2.363070e+001  0.000000e+000  8.595934e+000
      vertex -2.200570e+001  0.000000e+000  7.415302e+000
    endloop
  endfacet
  facet normal  0.000000e+000 -1.000000e+000  0.000000e+000
    outer loop
      vertex  0.000000e+000  0.000000e+000  0.000000e+000
      vertex -2.200570e+001  0.000000e+000  7.415302e+000
      vertex -2.138500e+001  0.000000e+000  5.505000e+000
    endloop
  endfacet
  facet normal  0.000000e+000 -1.000000e+000  -0.000000e+000
    outer loop
      vertex  0.000000e+000  0.000000e+000  0.000000e+000
      vertex -2.138500e+001  0.000000e+000  5.505000e+000
      vertex -2.200570e+001  0.000000e+000  3.594698e+000
    endloop
  endfacet
  facet normal  0.000000e+000 -9.999999e-001  -0.000000e+000
    outer loop
      vertex  0.000000e+000  0.000000e+000  0.000000e+000
      vertex -2.200570e+001  0.000000e+000  3.594698e+000
      vertex -2.363070e+001  0.000000e+000  2.414066e+000
    endloop
  endfacet
  facet normal  0.000000e+000 -1.000000e+000  -0.000000e+000
    outer loop
      vertex  0.000000e+000  0.000000e+000  0.000000e+000
      vertex -2.363070e+001  0.000000e+000  2.414066e+000
      vertex -2.728000e+001  0.000000e+000  0.000000e+000
    endloop
  endfacet
  facet normal  0.000000e+000 -1.000000e+000  0.000000e+000
    outer loop
      vertex -2.878000e+001  0.000000e+000  1.070808e+001
      vertex -2.987808e+001  0.000000e+000  9.610000e+000
      vertex -2.788500e+001  0.000000e+000  5.505000e+000
    endloop
  endfacet
  facet normal  3.281009e-015 -1.000000e+000  1.593009e-015
    outer loop
      vertex -2.788500e+001  0.000000e+000  5.505000e+000
      vertex -2.987808e+001  0.000000e+000  9.610000e+000
      vertex -3.028000e+001 -3.708231e-015  8.110000e+000
    endloop
  endfacet
  facet normal  1.300277e-015 -1.000000e+000 -2.280485e-016
    outer loop
      vertex -2.788500e+001  0.000000e+000  5.505000e+000
      vertex -3.028000e+001 -3.708231e-015  8.110000e+000
      vertex -2.878000e+001  0.000000e+000  4.019238e-001
    endloop
  endfacet
  facet normal  2.472154e-015 -1.000000e+000  0.000000e+000
    outer loop
      vertex -2.878000e+001  0.000000e+000  4.019238e-001
      vertex -3.028000e+001 -3.708231e-015  8.110000e+000
      vertex -3.028000e+001 -3.708231e-015  3.000000e+000
    endloop
  endfacet
  facet normal -3.377028e-015 -1.000000e+000 -3.377027e-015
    outer loop
      vertex -2.878000e+001  0.000000e+000  4.019238e-001
      vertex -3.028000e+001 -3.708231e-015  3.000000e+000
      vertex -2.987808e+001  0.000000e+000  1.500000e+000
    endloop
  endfacet
  facet normal -1.000000e+000  -0.000000e+000  0.000000e+000
    outer loop
      vertex -3.028000e+001 -3.708231e-015  8.110000e+000
      vertex -3.028000e+001  1.588000e+001  8.110000e+000
      vertex -3.028000e+001 -3.708231e-015  3.000000e+000
    endloop
  endfacet
  facet normal -1.000000e+000  0.000000e+000  0.000000e+000
    outer loop
      vertex -3.028000e+001 -3.708231e-015  3.000000e+000
      vertex -3.028000e+001  1.588000e+001  8.110000e+000
      vertex -3.028000e+001  1.588000e+001  3.000000e+000
    endloop
  endfacet
  facet normal -9.659258e-001  -0.000000e+000 -2.588193e-001
    outer loop
      vertex -3.028000e+001 -3.708231e-015  3.000000e+000
      vertex -3.028000e+001  1.588000e+001  3.000000e+000
      vertex -2.987808e+001  0.000000e+000  1.500000e+000
    endloop
  endfacet
  facet normal -9.659258e-001  0.000000e+000 -2.588193e-001
    outer loop
      vertex -2.987808e+001  0.000000e+000  1.500000e+000
      vertex -3.028000e+001  1.588000e+001  3.000000e+000
      vertex -2.987808e+001  1.588000e+001  1.500000e+000
    endloop
  endfacet
  facet normal -7.071069e-001  -0.000000e+000 -7.071066e-001
    outer loop
      vertex -2.987808e+001  0.000000e+000  1.500000e+000
      vertex -2.987808e+001  1.588000e+001  1.500000e+000
      vertex -2.878000e+001  0.000000e+000  4.019238e-001
    endloop
  endfacet
  facet normal -7.071069e-001  0.000000e+000 -7.071066e-001
    outer loop
      vertex -2.878000e+001  0.000000e+000  4.019238e-001
      vertex -2.987808e+001  1.588000e+001  1.500000e+000
      vertex -2.878000e+001  1.588000e+001  4.019238e-001
    endloop
  endfacet
  facet normal -2.588190e-001  -0.000000e+000 -9.659259e-001
    outer loop
      vertex -2.878000e+001  0.000000e+000  4.019238e-001
      vertex -2.878000e+001  1.588000e+001  4.019238e-001
      vertex -2.728000e+001  0.000000e+000  0.000000e+000
    endloop
  endfacet
  facet normal -2.588190e-001  0.000000e+000 -9.659259e-001
    outer loop
      vertex -2.728000e+001  0.000000e+000  0.000000e+000
      vertex -2.878000e+001  1.588000e+001  4.019238e-001
      vertex -2.728000e+001  1.588000e+001  0.000000e+000
    endloop
  endfacet
  facet normal -2.588187e-001  0.000000e+000  9.659259e-001
    outer loop
      vertex -2.728000e+001  0.000000e+000  1.111000e+001
      vertex -2.728000e+001  1.588000e+001  1.111000e+001
      vertex -2.878000e+001  0.000000e+000  1.070808e+001
    endloop
  endfacet
  facet normal -2.588187e-001  0.000000e+000  9.659259e-001
    outer loop
      vertex -2.878000e+001  0.000000e+000  1.070808e+001
      vertex -2.728000e+001  1.588000e+001  1.111000e+001
      vertex -2.878000e+001  1.588000e+001  1.070808e+001
    endloop
  endfacet
  facet normal -7.071071e-001  0.000000e+000  7.071065e-001
    outer loop
      vertex -2.878000e+001  0.000000e+000  1.070808e+001
      vertex -2.878000e+001  1.588000e+001  1.070808e+001
      vertex -2.987808e+001  0.000000e+000  9.610000e+000
    endloop
  endfacet
  facet normal -7.071071e-001  0.000000e+000  7.071065e-001
    outer loop
      vertex -2.987808e+001  0.000000e+000  9.610000e+000
      vertex -2.878000e+001  1.588000e+001  1.070808e+001
      vertex -2.987808e+001  1.588000e+001  9.610000e+000
    endloop
  endfacet
  facet normal -9.659258e-001  0.000000e+000  2.588193e-001
    outer loop
      vertex -2.987808e+001  0.000000e+000  9.610000e+000
      vertex -2.987808e+001  1.588000e+001  9.610000e+000
      vertex -3.028000e+001 -3.708231e-015  8.110000e+000
    endloop
  endfacet
  facet normal -9.659258e-001  0.000000e+000  2.588193e-001
    outer loop
      vertex -3.028000e+001 -3.708231e-015  8.110000e+000
      vertex -2.987808e+001  1.588000e+001  9.610000e+000
      vertex -3.028000e+001  1.588000e+001  8.110000e+000
    endloop
  endfacet
  facet normal  5.877852e-001  0.000000e+000  8.090170e-001
    outer loop
      vertex  2.363070e+001  0.000000e+000  2.414066e+000
      vertex  2.200570e+001  1.588000e+001  3.594698e+000
      vertex  2.200570e+001  0.000000e+000  3.594698e+000
    endloop
  endfacet
  facet normal  9.510564e-001  -0.000000e+000  3.090172e-001
    outer loop
      vertex  2.200570e+001  0.000000e+000  3.594698e+000
      vertex  2.200570e+001  1.588000e+001  3.594698e+000
      vertex  2.138500e+001  1.588000e+001  5.505000e+000
    endloop
  endfacet
  facet normal  9.510564e-001  0.000000e+000  3.090172e-001
    outer loop
      vertex  2.200570e+001  0.000000e+000  3.594698e+000
      vertex  2.138500e+001  1.588000e+001  5.505000e+000
      vertex  2.138500e+001  0.000000e+000  5.505000e+000
    endloop
  endfacet
  facet normal  5.877852e-001  -0.000000e+000  8.090170e-001
    outer loop
      vertex  2.200570e+001  1.588000e+001  3.594698e+000
      vertex  2.363070e+001  0.000000e+000  2.414066e+000
      vertex  2.363070e+001  1.588000e+001  2.414066e+000
    endloop
  endfacet
  facet normal  0.000000e+000  0.000000e+000  1.000000e+000
    outer loop
      vertex  2.363070e+001  1.588000e+001  2.414066e+000
      vertex  2.363070e+001  0.000000e+000  2.414066e+000
      vertex  2.563931e+001  0.000000e+000  2.414066e+000
    endloop
  endfacet
  facet normal  0.000000e+000  -0.000000e+000  1.000000e+000
    outer loop
      vertex  2.363070e+001  1.588000e+001  2.414066e+000
      vertex  2.563931e+001  0.000000e+000  2.414066e+000
      vertex  2.563931e+001  1.588000e+001  2.414066e+000
    endloop
  endfacet
  facet normal -5.877852e-001  0.000000e+000  8.090170e-001
    outer loop
      vertex  2.563931e+001  1.588000e+001  2.414066e+000
      vertex  2.563931e+001  0.000000e+000  2.414066e+000
      vertex  2.726431e+001  0.000000e+000  3.594698e+000
    endloop
  endfacet
  facet normal -5.877852e-001  0.000000e+000  8.090170e-001
    outer loop
      vertex  2.563931e+001  1.588000e+001  2.414066e+000
      vertex  2.726431e+001  0.000000e+000  3.594698e+000
      vertex  2.726431e+001  1.588000e+001  3.594698e+000
    endloop
  endfacet
  facet normal -9.510564e-001  0.000000e+000  3.090172e-001
    outer loop
      vertex  2.726431e+001  1.588000e+001  3.594698e+000
      vertex  2.726431e+001  0.000000e+000  3.594698e+000
      vertex  2.788500e+001  0.000000e+000  5.505000e+000
    endloop
  endfacet
  facet normal -9.510564e-001  0.000000e+000  3.090172e-001
    outer loop
      vertex  2.726431e+001  1.588000e+001  3.594698e+000
      vertex  2.788500e+001  0.000000e+000  5.505000e+000
      vertex  2.788500e+001  1.588000e+001  5.505000e+000
    endloop
  endfacet
  facet normal -5.877852e-001  -0.000000e+000 -8.090170e-001
    outer loop
      vertex  2.563931e+001  0.000000e+000  8.595934e+000
      vertex  2.726431e+001  1.588000e+001  7.415302e+000
      vertex  2.726431e+001  0.000000e+000  7.415302e+000
    endloop
  endfacet
  facet normal -9.510564e-001  0.000000e+000 -3.090172e-001
    outer loop
      vertex  2.726431e+001  0.000000e+000  7.415302e+000
      vertex  2.726431e+001  1.588000e+001  7.415302e+000
      vertex  2.788500e+001  1.588000e+001  5.505000e+000
    endloop
  endfacet
  facet normal -9.510564e-001  -0.000000e+000 -3.090172e-001
    outer loop
      vertex  2.726431e+001  0.000000e+000  7.415302e+000
      vertex  2.788500e+001  1.588000e+001  5.505000e+000
      vertex  2.788500e+001  0.000000e+000  5.505000e+000
    endloop
  endfacet
  facet normal -5.877852e-001  0.000000e+000 -8.090170e-001
    outer loop
      vertex  2.726431e+001  1.588000e+001  7.415302e+000
      vertex  2.563931e+001  0.000000e+000  8.595934e+000
      vertex  2.563931e+001  1.588000e+001  8.595934e+000
    endloop
  endfacet
  facet normal  0.000000e+000  -0.000000e+000 -1.000000e+000
    outer loop
      vertex  2.563931e+001  1.588000e+001  8.595934e+000
      vertex  2.563931e+001  0.000000e+000  8.595934e+000
      vertex  2.363070e+001  0.000000e+000  8.595934e+000
    endloop
  endfacet
  facet normal  0.000000e+000  0.000000e+000 -1.000000e+000
    outer loop
      vertex  2.563931e+001  1.588000e+001  8.595934e+000
      vertex  2.363070e+001  0.000000e+000  8.595934e+000
      vertex  2.363070e+001  1.588000e+001  8.595934e+000
    endloop
  endfacet
  facet normal  5.877852e-001  0.000000e+000 -8.090170e-001
    outer loop
      vertex  2.363070e+001  1.588000e+001  8.595934e+000
      vertex  2.363070e+001  0.000000e+000  8.595934e+000
      vertex  2.200570e+001  0.000000e+000  7.415302e+000
    endloop
  endfacet
  facet normal  5.877852e-001  0.000000e+000 -8.090170e-001
    outer loop
      vertex  2.363070e+001  1.588000e+001  8.595934e+000
      vertex  2.200570e+001  0.000000e+000  7.415302e+000
      vertex  2.200570e+001  1.588000e+001  7.415302e+000
    endloop
  endfacet
  facet normal  9.510564e-001  0.000000e+000 -3.090172e-001
    outer loop
      vertex  2.200570e+001  1.588000e+001  7.415302e+000
      vertex  2.200570e+001  0.000000e+000  7.415302e+000
      vertex  2.138500e+001  0.000000e+000  5.505000e+000
    endloop
  endfacet
  facet normal  9.510564e-001  0.000000e+000 -3.090172e-001
    outer loop
      vertex  2.200570e+001  1.588000e+001  7.415302e+000
      vertex  2.138500e+001  0.000000e+000  5.505000e+000
      vertex  2.138500e+001  1.588000e+001  5.505000e+000
    endloop
  endfacet
  facet normal -5.877852e-001  -0.000000e+000 -8.090170e-001
    outer loop
      vertex -2.363070e+001  0.000000e+000  8.595934e+000
      vertex -2.200570e+001  1.588000e+001  7.415302e+000
      vertex -2.200570e+001  0.000000e+000  7.415302e+000
    endloop
  endfacet
  facet normal -9.510564e-001  0.000000e+000 -3.090172e-001
    outer loop
      vertex -2.200570e+001  0.000000e+000  7.415302e+000
      vertex -2.200570e+001  1.588000e+001  7.415302e+000
      vertex -2.138500e+001  1.588000e+001  5.505000e+000
    endloop
  endfacet
  facet normal -9.510564e-001  -0.000000e+000 -3.090172e-001
    outer loop
      vertex -2.200570e+001  0.000000e+000  7.415302e+000
      vertex -2.138500e+001  1.588000e+001  5.505000e+000
      vertex -2.138500e+001  0.000000e+000  5.505000e+000
    endloop
  endfacet
  facet normal -5.877852e-001  0.000000e+000 -8.090170e-001
    outer loop
      vertex -2.200570e+001  1.588000e+001  7.415302e+000
      vertex -2.363070e+001  0.000000e+000  8.595934e+000
      vertex -2.363070e+001  1.588000e+001  8.595934e+000
    endloop
  endfacet
  facet normal  0.000000e+000  -0.000000e+000 -1.000000e+000
    outer loop
      vertex -2.363070e+001  1.588000e+001  8.595934e+000
      vertex -2.363070e+001  0.000000e+000  8.595934e+000
      vertex -2.563931e+001  0.000000e+000  8.595934e+000
    endloop
  endfacet
  facet normal  0.000000e+000  0.000000e+000 -1.000000e+000
    outer loop
      vertex -2.363070e+001  1.588000e+001  8.595934e+000
      vertex -2.563931e+001  0.000000e+000  8.595934e+000
      vertex -2.563931e+001  1.588000e+001  8.595934e+000
    endloop
  endfacet
  facet normal  5.877852e-001  0.000000e+000 -8.090170e-001
    outer loop
      vertex -2.563931e+001  1.588000e+001  8.595934e+000
      vertex -2.563931e+001  0.000000e+000  8.595934e+000
      vertex -2.726431e+001  0.000000e+000  7.415302e+000
    endloop
  endfacet
  facet normal  5.877852e-001  0.000000e+000 -8.090170e-001
    outer loop
      vertex -2.563931e+001  1.588000e+001  8.595934e+000
      vertex -2.726431e+001  0.000000e+000  7.415302e+000
      vertex -2.726431e+001  1.588000e+001  7.415302e+000
    endloop
  endfacet
  facet normal  9.510564e-001  0.000000e+000 -3.090172e-001
    outer loop
      vertex -2.726431e+001  1.588000e+001  7.415302e+000
      vertex -2.726431e+001  0.000000e+000  7.415302e+000
      vertex -2.788500e+001  0.000000e+000  5.505000e+000
    endloop
  endfacet
  facet normal  9.510564e-001  0.000000e+000 -3.090172e-001
    outer loop
      vertex -2.726431e+001  1.588000e+001  7.415302e+000
      vertex -2.788500e+001  0.000000e+000  5.505000e+000
      vertex -2.788500e+001  1.588000e+001  5.505000e+000
    endloop
  endfacet
  facet normal  5.877852e-001  0.000000e+000  8.090170e-001
    outer loop
      vertex -2.563931e+001  0.000000e+000  2.414066e+000
      vertex -2.726431e+001  1.588000e+001  3.594698e+000
      vertex -2.726431e+001  0.000000e+000  3.594698e+000
    endloop
  endfacet
  facet normal  9.510564e-001  -0.000000e+000  3.090172e-001
    outer loop
      vertex -2.726431e+001  0.000000e+000  3.594698e+000
      vertex -2.726431e+001  1.588000e+001  3.594698e+000
      vertex -2.788500e+001  1.588000e+001  5.505000e+000
    endloop
  endfacet
  facet normal  9.510564e-001  0.000000e+000  3.090172e-001
    outer loop
      vertex -2.726431e+001  0.000000e+000  3.594698e+000
      vertex -2.788500e+001  1.588000e+001  5.505000e+000
      vertex -2.788500e+001  0.000000e+000  5.505000e+000
    endloop
  endfacet
  facet normal  5.877852e-001  -0.000000e+000  8.090170e-001
    outer loop
      vertex -2.726431e+001  1.588000e+001  3.594698e+000
      vertex -2.563931e+001  0.000000e+000  2.414066e+000
      vertex -2.563931e+001  1.588000e+001  2.414066e+000
    endloop
  endfacet
  facet normal  0.000000e+000  0.000000e+000  1.000000e+000
    outer loop
      vertex -2.563931e+001  1.588000e+001  2.414066e+000
      vertex -2.563931e+001  0.000000e+000  2.414066e+000
      vertex -2.363070e+001  0.000000e+000  2.414066e+000
    endloop
  endfacet
  facet normal  0.000000e+000  -0.000000e+000  1.000000e+000
    outer loop
      vertex -2.563931e+001  1.588000e+001  2.414066e+000
      vertex -2.363070e+001  0.000000e+000  2.414066e+000
      vertex -2.363070e+001  1.588000e+001  2.414066e+000
    endloop
  endfacet
  facet normal -5.877852e-001  0.000000e+000  8.090170e-001
    outer loop
      vertex -2.363070e+001  1.588000e+001  2.414066e+000
      vertex -2.363070e+001  0.000000e+000  2.414066e+000
      vertex -2.200570e+001  0.000000e+000  3.594698e+000
    endloop
  endfacet
  facet normal -5.877852e-001  0.000000e+000  8.090170e-001
    outer loop
      vertex -2.363070e+001  1.588000e+001  2.414066e+000
      vertex -2.200570e+001  0.000000e+000  3.594698e+000
      vertex -2.200570e+001  1.588000e+001  3.594698e+000
    endloop
  endfacet
  facet normal -9.510564e-001  0.000000e+000  3.090172e-001
    outer loop
      vertex -2.200570e+001  1.588000e+001  3.594698e+000
      vertex -2.200570e+001  0.000000e+000  3.594698e+000
      vertex -2.138500e+001  0.000000e+000  5.505000e+000
    endloop
  endfacet
  facet normal -9.510564e-001  0.000000e+000  3.090172e-001
    outer loop
      vertex -2.200570e+001  1.588000e+001  3.594698e+000
      vertex -2.138500e+001  0.000000e+000  5.505000e+000
      vertex -2.138500e+001  1.588000e+001  5.505000e+000
    endloop
  endfacet
  facet normal -3.420202e-001  9.396926e-001  0.000000e+000
    outer loop
      vertex  2.205332e+000  3.372941e+000  0.000000e+000
      vertex  6.350000e+000  4.881477e+000  1.111000e+001
      vertex  6.350000e+000  4.881477e+000  0.000000e+000
    endloop
  endfacet
  facet normal -6.427876e-001  7.660445e-001  0.000000e+000
    outer loop
      vertex  6.350000e+000  4.881477e+000  0.000000e+000
      vertex  6.350000e+000  4.881477e+000  1.111000e+001
      vertex  9.728765e+000  7.716598e+000  1.111000e+001
    endloop
  endfacet
  facet normal -6.427876e-001  7.660445e-001  0.000000e+000
    outer loop
      vertex  6.350000e+000  4.881477e+000  0.000000e+000
      vertex  9.728765e+000  7.716598e+000  1.111000e+001
      vertex  9.728765e+000  7.716598e+000  0.000000e+000
    endloop
  endfacet
  facet normal -8.660254e-001  5.000000e-001  0.000000e+000
    outer loop
      vertex  9.728765e+000  7.716598e+000  0.000000e+000
      vertex  9.728765e+000  7.716598e+000  1.111000e+001
      vertex  1.193410e+001  1.153634e+001  1.111000e+001
    endloop
  endfacet
  facet normal -8.660254e-001  5.000000e-001  0.000000e+000
    outer loop
      vertex  9.728765e+000  7.716598e+000  0.000000e+000
      vertex  1.193410e+001  1.153634e+001  1.111000e+001
      vertex  1.193410e+001  1.153634e+001  0.000000e+000
    endloop
  endfacet
  facet normal -9.848077e-001  1.736481e-001  0.000000e+000
    outer loop
      vertex  1.193410e+001  1.153634e+001  0.000000e+000
      vertex  1.193410e+001  1.153634e+001  1.111000e+001
      vertex  1.270000e+001  1.588000e+001  1.111000e+001
    endloop
  endfacet
  facet normal -9.848077e-001  1.736481e-001  0.000000e+000
    outer loop
      vertex  1.193410e+001  1.153634e+001  0.000000e+000
      vertex  1.270000e+001  1.588000e+001  1.111000e+001
      vertex  1.270000e+001  1.588000e+001  0.000000e+000
    endloop
  endfacet
  facet normal -3.420202e-001  9.396926e-001  0.000000e+000
    outer loop
      vertex  6.350000e+000  4.881477e+000  1.111000e+001
      vertex  2.205332e+000  3.372941e+000  0.000000e+000
      vertex  2.205332e+000  3.372941e+000  1.111000e+001
    endloop
  endfacet
  facet normal  0.000000e+000  1.000000e+000  0.000000e+000
    outer loop
      vertex  2.205332e+000  3.372941e+000  1.111000e+001
      vertex  2.205332e+000  3.372941e+000  0.000000e+000
      vertex -2.205332e+000  3.372941e+000  0.000000e+000
    endloop
  endfacet
  facet normal  0.000000e+000  1.000000e+000  0.000000e+000
    outer loop
      vertex  2.205332e+000  3.372941e+000  1.111000e+001
      vertex -2.205332e+000  3.372941e+000  0.000000e+000
      vertex -2.205332e+000  3.372941e+000  1.111000e+001
    endloop
  endfacet
  facet normal  3.420202e-001  9.396926e-001  0.000000e+000
    outer loop
      vertex -2.205332e+000  3.372941e+000  1.111000e+001
      vertex -2.205332e+000  3.372941e+000  0.000000e+000
      vertex -6.350000e+000  4.881477e+000  0.000000e+000
    endloop
  endfacet
  facet normal  3.420202e-001  9.396926e-001  -0.000000e+000
    outer loop
      vertex -2.205332e+000  3.372941e+000  1.111000e+001
      vertex -6.350000e+000  4.881477e+000  0.000000e+000
      vertex -6.350000e+000  4.881477e+000  1.111000e+001
    endloop
  endfacet
  facet normal  6.427876e-001  7.660445e-001  0.000000e+000
    outer loop
      vertex -6.350000e+000  4.881477e+000  1.111000e+001
      vertex -6.350000e+000  4.881477e+000  0.000000e+000
      vertex -9.728765e+000  7.716598e+000  0.000000e+000
    endloop
  endfacet
  facet normal  6.427876e-001  7.660445e-001  -0.000000e+000
    outer loop
      vertex -6.350000e+000  4.881477e+000  1.111000e+001
      vertex -9.728765e+000  7.716598e+000  0.000000e+000
      vertex -9.728765e+000  7.716598e+000  1.111000e+001
    endloop
  endfacet
  facet normal  8.660254e-001  5.000000e-001  0.000000e+000
    outer loop
      vertex -9.728765e+000  7.716598e+000  1.111000e+001
      vertex -9.728765e+000  7.716598e+000  0.000000e+000
      vertex -1.193410e+001  1.153634e+001  0.000000e+000
    endloop
  endfacet
  facet normal  8.660254e-001  5.000000e-001  -0.000000e+000
    outer loop
      vertex -9.728765e+000  7.716598e+000  1.111000e+001
      vertex -1.193410e+001  1.153634e+001  0.000000e+000
      vertex -1.193410e+001  1.153634e+001  1.111000e+001
    endloop
  endfacet
  facet normal  9.848077e-001  1.736481e-001  0.000000e+000
    outer loop
      vertex -1.193410e+001  1.153634e+001  1.111000e+001
      vertex -1.193410e+001  1.153634e+001  0.000000e+000
      vertex -1.270000e+001  1.588000e+001  0.000000e+000
    endloop
  endfacet
  facet normal  9.848077e-001  1.736481e-001  -0.000000e+000
    outer loop
      vertex -1.193410e+001  1.153634e+001  1.111000e+001
      vertex -1.270000e+001  1.588000e+001  0.000000e+000
      vertex -1.270000e+001  1.588000e+001  1.111000e+001
    endloop
  endfacet
endsolid CATIA STL
