solid CATIA STL
  facet normal  -0.000000e+000  9.999999e-001  0.000000e+000
    outer loop
      vertex -2.788500e+001  3.180000e+000  5.605000e+000
      vertex -2.987808e+001  3.180000e+000  9.610000e+000
      vertex -2.878000e+001  3.180000e+000  1.070808e+001
    endloop
  endfacet
  facet normal  0.000000e+000  1.000000e+000  0.000000e+000
    outer loop
      vertex -2.728000e+001  3.180000e+000  1.111000e+001
      vertex -1.781051e+001  3.180000e+000  1.111000e+001
      vertex -2.563931e+001  3.180000e+000  8.695933e+000
    endloop
  endfacet
  facet normal  0.000000e+000  1.000000e+000  0.000000e+000
    outer loop
      vertex -2.728000e+001  3.180000e+000  1.111000e+001
      vertex -2.563931e+001  3.180000e+000  8.695933e+000
      vertex -2.726431e+001  3.180000e+000  7.515302e+000
    endloop
  endfacet
  facet normal  0.000000e+000  1.000000e+000  0.000000e+000
    outer loop
      vertex -2.728000e+001  3.180000e+000  1.111000e+001
      vertex -2.726431e+001  3.180000e+000  7.515302e+000
      vertex -2.788500e+001  3.180000e+000  5.605000e+000
    endloop
  endfacet
  facet normal  0.000000e+000  1.000000e+000  -0.000000e+000
    outer loop
      vertex -2.728000e+001  3.180000e+000  1.111000e+001
      vertex -2.788500e+001  3.180000e+000  5.605000e+000
      vertex -2.878000e+001  3.180000e+000  1.070808e+001
    endloop
  endfacet
  facet normal  -0.000000e+000  1.000000e+000  0.000000e+000
    outer loop
      vertex -2.728000e+001  3.180000e+000  0.000000e+000
      vertex -2.878000e+001  3.180000e+000  4.019238e-001
      vertex -2.788500e+001  3.180000e+000  5.605000e+000
    endloop
  endfacet
  facet normal  0.000000e+000  1.000000e+000  0.000000e+000
    outer loop
      vertex -2.728000e+001  3.180000e+000  0.000000e+000
      vertex -2.788500e+001  3.180000e+000  5.605000e+000
      vertex -2.726431e+001  3.180000e+000  3.694698e+000
    endloop
  endfacet
  facet normal  0.000000e+000  1.000000e+000  0.000000e+000
    outer loop
      vertex -2.728000e+001  3.180000e+000  0.000000e+000
      vertex -2.726431e+001  3.180000e+000  3.694698e+000
      vertex -2.563931e+001  3.180000e+000  2.514066e+000
    endloop
  endfacet
  facet normal  0.000000e+000  1.000000e+000  0.000000e+000
    outer loop
      vertex -2.728000e+001  3.180000e+000  0.000000e+000
      vertex -2.563931e+001  3.180000e+000  2.514066e+000
      vertex -1.781051e+001  3.180000e+000  0.000000e+000
    endloop
  endfacet
  facet normal  -0.000000e+000  1.000000e+000  0.000000e+000
    outer loop
      vertex -1.781051e+001  3.180000e+000  0.000000e+000
      vertex -2.563931e+001  3.180000e+000  2.514066e+000
      vertex -2.363070e+001  3.180000e+000  2.514066e+000
    endloop
  endfacet
  facet normal  -0.000000e+000  1.000000e+000  0.000000e+000
    outer loop
      vertex -1.781051e+001  3.180000e+000  0.000000e+000
      vertex -2.363070e+001  3.180000e+000  2.514066e+000
      vertex -2.200570e+001  3.180000e+000  3.694698e+000
    endloop
  endfacet
  facet normal  -0.000000e+000  1.000000e+000  0.000000e+000
    outer loop
      vertex -1.781051e+001  3.180000e+000  0.000000e+000
      vertex -2.200570e+001  3.180000e+000  3.694698e+000
      vertex -2.138500e+001  3.180000e+000  5.605000e+000
    endloop
  endfacet
  facet normal  -0.000000e+000  1.000000e+000  0.000000e+000
    outer loop
      vertex -1.781051e+001  3.180000e+000  0.000000e+000
      vertex -2.138500e+001  3.180000e+000  5.605000e+000
      vertex -1.781051e+001  3.180000e+000  1.111000e+001
    endloop
  endfacet
  facet normal  0.000000e+000  1.000000e+000  -0.000000e+000
    outer loop
      vertex -1.781051e+001  3.180000e+000  1.111000e+001
      vertex -2.138500e+001  3.180000e+000  5.605000e+000
      vertex -2.200570e+001  3.180000e+000  7.515302e+000
    endloop
  endfacet
  facet normal  0.000000e+000  1.000000e+000  -0.000000e+000
    outer loop
      vertex -1.781051e+001  3.180000e+000  1.111000e+001
      vertex -2.200570e+001  3.180000e+000  7.515302e+000
      vertex -2.363070e+001  3.180000e+000  8.695933e+000
    endloop
  endfacet
  facet normal  0.000000e+000  1.000000e+000  -0.000000e+000
    outer loop
      vertex -1.781051e+001  3.180000e+000  1.111000e+001
      vertex -2.363070e+001  3.180000e+000  8.695933e+000
      vertex -2.563931e+001  3.180000e+000  8.695933e+000
    endloop
  endfacet
  facet normal  0.000000e+000  1.000000e+000  0.000000e+000
    outer loop
      vertex -3.028000e+001  3.180000e+000  8.110000e+000
      vertex -2.987808e+001  3.180000e+000  9.610000e+000
      vertex -3.028000e+001  3.180000e+000  3.000000e+000
    endloop
  endfacet
  facet normal  0.000000e+000  9.999999e-001  0.000000e+000
    outer loop
      vertex -3.028000e+001  3.180000e+000  3.000000e+000
      vertex -2.987808e+001  3.180000e+000  9.610000e+000
      vertex -2.788500e+001  3.180000e+000  5.605000e+000
    endloop
  endfacet
  facet normal  0.000000e+000  1.000000e+000  0.000000e+000
    outer loop
      vertex -3.028000e+001  3.180000e+000  3.000000e+000
      vertex -2.788500e+001  3.180000e+000  5.605000e+000
      vertex -2.987808e+001  3.180000e+000  1.500000e+000
    endloop
  endfacet
  facet normal  -0.000000e+000  9.999999e-001  0.000000e+000
    outer loop
      vertex -2.987808e+001  3.180000e+000  1.500000e+000
      vertex -2.788500e+001  3.180000e+000  5.605000e+000
      vertex -2.878000e+001  3.180000e+000  4.019238e-001
    endloop
  endfacet
  facet normal  1.311384e-016 -9.999999e-001 -2.062119e-017
    outer loop
      vertex -2.878000e+001 -3.180682e-015  1.070808e+001
      vertex -2.987808e+001 -3.302038e-015  9.610000e+000
      vertex -2.788500e+001 -2.958081e-015  5.605000e+000
    endloop
  endfacet
  facet normal -3.241284e-015 -1.000000e+000 -6.120917e-016
    outer loop
      vertex -2.728000e+001 -8.288621e-015  1.111000e+001
      vertex -2.878000e+001 -3.180682e-015  1.070808e+001
      vertex -2.788500e+001 -2.958081e-015  5.605000e+000
    endloop
  endfacet
  facet normal  4.369226e-015 -1.000000e+000 -1.448487e-015
    outer loop
      vertex -2.728000e+001 -8.288621e-015  1.111000e+001
      vertex -2.788500e+001 -2.958081e-015  5.605000e+000
      vertex -2.726431e+001 -3.013171e-015  7.515302e+000
    endloop
  endfacet
  facet normal  1.173043e-015 -1.000000e+000 -1.462442e-015
    outer loop
      vertex -2.728000e+001 -8.288621e-015  1.111000e+001
      vertex -2.726431e+001 -3.013171e-015  7.515302e+000
      vertex -2.563931e+001 -2.833581e-015  8.695933e+000
    endloop
  endfacet
  facet normal  2.204056e-016 -9.999999e-001 -2.109893e-015
    outer loop
      vertex -2.728000e+001 -8.288621e-015  1.111000e+001
      vertex -2.563931e+001 -2.833581e-015  8.695933e+000
      vertex -1.270000e+001 -5.075108e-015  1.111000e+001
    endloop
  endfacet
  facet normal  2.204056e-016 -1.000000e+000  2.025970e-015
    outer loop
      vertex -2.728000e+001 -8.288621e-015  0.000000e+000
      vertex -1.270000e+001 -5.075108e-015  0.000000e+000
      vertex -2.563931e+001 -2.833581e-015  2.514066e+000
    endloop
  endfacet
  facet normal  1.144374e-015 -1.000000e+000  1.422982e-015
    outer loop
      vertex -2.728000e+001 -8.288621e-015  0.000000e+000
      vertex -2.563931e+001 -2.833581e-015  2.514066e+000
      vertex -2.726431e+001 -3.013171e-015  3.694698e+000
    endloop
  endfacet
  facet normal  4.250124e-015 -1.000000e+000  1.409788e-015
    outer loop
      vertex -2.728000e+001 -8.288621e-015  0.000000e+000
      vertex -2.726431e+001 -3.013171e-015  3.694698e+000
      vertex -2.788500e+001 -2.958081e-015  5.605000e+000
    endloop
  endfacet
  facet normal -3.244297e-015 -1.000000e+000  6.008461e-016
    outer loop
      vertex -2.728000e+001 -8.288621e-015  0.000000e+000
      vertex -2.788500e+001 -2.958081e-015  5.605000e+000
      vertex -2.878000e+001 -3.180682e-015  4.019238e-001
    endloop
  endfacet
  facet normal -3.113550e-016 -1.000000e+000  -0.000000e+000
    outer loop
      vertex -1.270000e+001 -5.075108e-015  0.000000e+000
      vertex -1.270000e+001 -5.075108e-015  1.111000e+001
      vertex -2.138500e+001 -2.370989e-015  5.605000e+000
    endloop
  endfacet
  facet normal -2.403436e-016 -1.000000e+000  1.100328e-016
    outer loop
      vertex -1.270000e+001 -5.075108e-015  0.000000e+000
      vertex -2.138500e+001 -2.370989e-015  5.605000e+000
      vertex -2.200570e+001 -2.432005e-015  3.694698e+000
    endloop
  endfacet
  facet normal -1.446103e-016 -1.000000e+000  3.511527e-016
    outer loop
      vertex -1.270000e+001 -5.075108e-015  0.000000e+000
      vertex -2.200570e+001 -2.432005e-015  3.694698e+000
      vertex -2.363070e+001 -2.611595e-015  2.514066e+000
    endloop
  endfacet
  facet normal  1.105171e-016 -1.000000e+000  1.460400e-015
    outer loop
      vertex -1.270000e+001 -5.075108e-015  0.000000e+000
      vertex -2.363070e+001 -2.611595e-015  2.514066e+000
      vertex -2.563931e+001 -2.833581e-015  2.514066e+000
    endloop
  endfacet
  facet normal  1.105171e-016 -1.000000e+000 -1.520895e-015
    outer loop
      vertex -1.270000e+001 -5.075108e-015  1.111000e+001
      vertex -2.563931e+001 -2.833581e-015  8.695933e+000
      vertex -2.363070e+001 -2.611595e-015  8.695933e+000
    endloop
  endfacet
  facet normal -1.470739e-016 -9.999999e-001 -3.545437e-016
    outer loop
      vertex -1.270000e+001 -5.075108e-015  1.111000e+001
      vertex -2.363070e+001 -2.611595e-015  8.695933e+000
      vertex -2.200570e+001 -2.432005e-015  7.515302e+000
    endloop
  endfacet
  facet normal -2.413942e-016 -1.000000e+000 -1.103742e-016
    outer loop
      vertex -1.270000e+001 -5.075108e-015  1.111000e+001
      vertex -2.200570e+001 -2.432005e-015  7.515302e+000
      vertex -2.138500e+001 -2.370989e-015  5.605000e+000
    endloop
  endfacet
  facet normal  6.677912e-015 -1.000000e+000  0.000000e+000
    outer loop
      vertex -3.028000e+001 -5.986052e-015  8.110000e+000
      vertex -3.028000e+001 -5.986052e-015  3.000000e+000
      vertex -2.987808e+001 -3.302038e-015  9.610000e+000
    endloop
  endfacet
  facet normal  8.808904e-016 -9.999999e-001  3.524907e-016
    outer loop
      vertex -2.987808e+001 -3.302038e-015  9.610000e+000
      vertex -3.028000e+001 -5.986052e-015  3.000000e+000
      vertex -2.788500e+001 -2.958081e-015  5.605000e+000
    endloop
  endfacet
  facet normal  2.485997e-015 -1.000000e+000 -1.123221e-015
    outer loop
      vertex -3.028000e+001 -5.986052e-015  3.000000e+000
      vertex -2.987808e+001 -3.302038e-015  1.500000e+000
      vertex -2.788500e+001 -2.958081e-015  5.605000e+000
    endloop
  endfacet
  facet normal  1.308003e-016 -9.999999e-001  2.028303e-017
    outer loop
      vertex -2.788500e+001 -2.958081e-015  5.605000e+000
      vertex -2.987808e+001 -3.302038e-015  1.500000e+000
      vertex -2.878000e+001 -3.180682e-015  4.019238e-001
    endloop
  endfacet
  facet normal -1.000000e+000  0.000000e+000  0.000000e+000
    outer loop
      vertex -3.028000e+001 -5.986052e-015  3.000000e+000
      vertex -3.028000e+001 -5.986052e-015  8.110000e+000
      vertex -3.028000e+001  3.180000e+000  3.000000e+000
    endloop
  endfacet
  facet normal -1.000000e+000  0.000000e+000  0.000000e+000
    outer loop
      vertex -3.028000e+001  3.180000e+000  3.000000e+000
      vertex -3.028000e+001 -5.986052e-015  8.110000e+000
      vertex -3.028000e+001  3.180000e+000  8.110000e+000
    endloop
  endfacet
  facet normal  0.000000e+000  0.000000e+000  9.999999e-001
    outer loop
      vertex -4.823816e+000  1.510047e+001  1.111000e+001
      vertex  4.823816e+000  1.510047e+001  1.111000e+001
      vertex -2.549266e-015  1.585223e+001  1.111000e+001
    endloop
  endfacet
  facet normal  0.000000e+000  0.000000e+000  9.999999e-001
    outer loop
      vertex -6.350000e+000  1.099852e+001  1.111000e+001
      vertex -2.205332e+000  1.250706e+001  1.111000e+001
      vertex -1.268475e+001  9.507389e+000  1.111000e+001
    endloop
  endfacet
  facet normal  0.000000e+000  0.000000e+000  1.000000e+000
    outer loop
      vertex -1.497628e+001  5.196562e+000  1.111000e+001
      vertex -1.607130e+001  3.735587e+000  1.111000e+001
      vertex -1.193410e+001  4.343656e+000  1.111000e+001
    endloop
  endfacet
  facet normal  0.000000e+000  0.000000e+000  9.999999e-001
    outer loop
      vertex -9.190108e+000  1.291647e+001  1.111000e+001
      vertex -1.268475e+001  9.507389e+000  1.111000e+001
      vertex -2.205332e+000  1.250706e+001  1.111000e+001
    endloop
  endfacet
  facet normal  0.000000e+000  -0.000000e+000  1.000000e+000
    outer loop
      vertex -9.190108e+000  1.291647e+001  1.111000e+001
      vertex -2.205332e+000  1.250706e+001  1.111000e+001
      vertex  2.205332e+000  1.250706e+001  1.111000e+001
    endloop
  endfacet
  facet normal  0.000000e+000  -0.000000e+000  1.000000e+000
    outer loop
      vertex -9.190108e+000  1.291647e+001  1.111000e+001
      vertex  2.205332e+000  1.250706e+001  1.111000e+001
      vertex  9.190108e+000  1.291647e+001  1.111000e+001
    endloop
  endfacet
  facet normal  0.000000e+000  0.000000e+000  1.000000e+000
    outer loop
      vertex -9.190108e+000  1.291647e+001  1.111000e+001
      vertex  9.190108e+000  1.291647e+001  1.111000e+001
      vertex  4.823816e+000  1.510047e+001  1.111000e+001
    endloop
  endfacet
  facet normal  0.000000e+000  0.000000e+000  1.000000e+000
    outer loop
      vertex -9.190108e+000  1.291647e+001  1.111000e+001
      vertex  4.823816e+000  1.510047e+001  1.111000e+001
      vertex -4.823816e+000  1.510047e+001  1.111000e+001
    endloop
  endfacet
  facet normal  0.000000e+000  0.000000e+000  1.000000e+000
    outer loop
      vertex -1.270000e+001 -5.075108e-015  1.111000e+001
      vertex -1.193410e+001  4.343656e+000  1.111000e+001
      vertex -1.607130e+001  3.735587e+000  1.111000e+001
    endloop
  endfacet
  facet normal  0.000000e+000  0.000000e+000  9.999999e-001
    outer loop
      vertex -1.270000e+001 -5.075108e-015  1.111000e+001
      vertex -1.607130e+001  3.735587e+000  1.111000e+001
      vertex -1.781051e+001  3.180000e+000  1.111000e+001
    endloop
  endfacet
  facet normal  0.000000e+000  0.000000e+000  9.999999e-001
    outer loop
      vertex -1.270000e+001 -5.075108e-015  1.111000e+001
      vertex -1.781051e+001  3.180000e+000  1.111000e+001
      vertex -2.728000e+001  3.180000e+000  1.111000e+001
    endloop
  endfacet
  facet normal  0.000000e+000  0.000000e+000  1.000000e+000
    outer loop
      vertex -1.270000e+001 -5.075108e-015  1.111000e+001
      vertex -2.728000e+001  3.180000e+000  1.111000e+001
      vertex -2.728000e+001 -8.288621e-015  1.111000e+001
    endloop
  endfacet
  facet normal  0.000000e+000  -0.000000e+000  1.000000e+000
    outer loop
      vertex  1.270000e+001  1.403567e-015  1.111000e+001
      vertex  2.728000e+001  3.014906e-015  1.111000e+001
      vertex  2.728000e+001  3.180000e+000  1.111000e+001
    endloop
  endfacet
  facet normal  0.000000e+000  0.000000e+000  9.999999e-001
    outer loop
      vertex  1.270000e+001  1.403567e-015  1.111000e+001
      vertex  2.728000e+001  3.180000e+000  1.111000e+001
      vertex  1.781051e+001  3.180000e+000  1.111000e+001
    endloop
  endfacet
  facet normal  0.000000e+000  0.000000e+000  9.999999e-001
    outer loop
      vertex  1.270000e+001  1.403567e-015  1.111000e+001
      vertex  1.781051e+001  3.180000e+000  1.111000e+001
      vertex  1.607130e+001  3.735587e+000  1.111000e+001
    endloop
  endfacet
  facet normal  0.000000e+000  0.000000e+000  1.000000e+000
    outer loop
      vertex  1.270000e+001  1.403567e-015  1.111000e+001
      vertex  1.607130e+001  3.735587e+000  1.111000e+001
      vertex  1.193410e+001  4.343656e+000  1.111000e+001
    endloop
  endfacet
  facet normal  0.000000e+000  0.000000e+000  9.999999e-001
    outer loop
      vertex -1.497628e+001  5.196562e+000  1.111000e+001
      vertex -1.193410e+001  4.343656e+000  1.111000e+001
      vertex -1.268475e+001  9.507389e+000  1.111000e+001
    endloop
  endfacet
  facet normal  0.000000e+000  0.000000e+000  1.000000e+000
    outer loop
      vertex -1.268475e+001  9.507389e+000  1.111000e+001
      vertex -1.193410e+001  4.343656e+000  1.111000e+001
      vertex -9.728765e+000  8.163403e+000  1.111000e+001
    endloop
  endfacet
  facet normal  0.000000e+000  -0.000000e+000  9.999999e-001
    outer loop
      vertex -1.268475e+001  9.507389e+000  1.111000e+001
      vertex -9.728765e+000  8.163403e+000  1.111000e+001
      vertex -6.350000e+000  1.099852e+001  1.111000e+001
    endloop
  endfacet
  facet normal  -0.000000e+000  0.000000e+000  9.999999e-001
    outer loop
      vertex  9.190108e+000  1.291647e+001  1.111000e+001
      vertex  2.205332e+000  1.250706e+001  1.111000e+001
      vertex  1.268475e+001  9.507389e+000  1.111000e+001
    endloop
  endfacet
  facet normal  0.000000e+000  0.000000e+000  9.999999e-001
    outer loop
      vertex  1.268475e+001  9.507389e+000  1.111000e+001
      vertex  2.205332e+000  1.250706e+001  1.111000e+001
      vertex  6.350000e+000  1.099852e+001  1.111000e+001
    endloop
  endfacet
  facet normal  0.000000e+000  0.000000e+000  9.999999e-001
    outer loop
      vertex  1.268475e+001  9.507389e+000  1.111000e+001
      vertex  6.350000e+000  1.099852e+001  1.111000e+001
      vertex  9.728765e+000  8.163403e+000  1.111000e+001
    endloop
  endfacet
  facet normal  -0.000000e+000  0.000000e+000  1.000000e+000
    outer loop
      vertex  1.268475e+001  9.507389e+000  1.111000e+001
      vertex  9.728765e+000  8.163403e+000  1.111000e+001
      vertex  1.497628e+001  5.196562e+000  1.111000e+001
    endloop
  endfacet
  facet normal  0.000000e+000  0.000000e+000  1.000000e+000
    outer loop
      vertex  1.497628e+001  5.196562e+000  1.111000e+001
      vertex  9.728765e+000  8.163403e+000  1.111000e+001
      vertex  1.193410e+001  4.343656e+000  1.111000e+001
    endloop
  endfacet
  facet normal  -0.000000e+000  0.000000e+000  1.000000e+000
    outer loop
      vertex  1.497628e+001  5.196562e+000  1.111000e+001
      vertex  1.193410e+001  4.343656e+000  1.111000e+001
      vertex  1.607130e+001  3.735587e+000  1.111000e+001
    endloop
  endfacet
  facet normal -2.588187e-001  0.000000e+000  9.659259e-001
    outer loop
      vertex -2.728000e+001 -8.288621e-015  1.111000e+001
      vertex -2.728000e+001  3.180000e+000  1.111000e+001
      vertex -2.878000e+001 -3.180682e-015  1.070808e+001
    endloop
  endfacet
  facet normal -2.588187e-001  0.000000e+000  9.659259e-001
    outer loop
      vertex -2.878000e+001 -3.180682e-015  1.070808e+001
      vertex -2.728000e+001  3.180000e+000  1.111000e+001
      vertex -2.878000e+001  3.180000e+000  1.070808e+001
    endloop
  endfacet
  facet normal -7.071071e-001  0.000000e+000  7.071065e-001
    outer loop
      vertex -2.878000e+001 -3.180682e-015  1.070808e+001
      vertex -2.878000e+001  3.180000e+000  1.070808e+001
      vertex -2.987808e+001 -3.302038e-015  9.610000e+000
    endloop
  endfacet
  facet normal -7.071071e-001  0.000000e+000  7.071065e-001
    outer loop
      vertex -2.987808e+001 -3.302038e-015  9.610000e+000
      vertex -2.878000e+001  3.180000e+000  1.070808e+001
      vertex -2.987808e+001  3.180000e+000  9.610000e+000
    endloop
  endfacet
  facet normal -9.659258e-001  0.000000e+000  2.588193e-001
    outer loop
      vertex -2.987808e+001 -3.302038e-015  9.610000e+000
      vertex -2.987808e+001  3.180000e+000  9.610000e+000
      vertex -3.028000e+001 -5.986052e-015  8.110000e+000
    endloop
  endfacet
  facet normal -9.659258e-001  0.000000e+000  2.588193e-001
    outer loop
      vertex -3.028000e+001 -5.986052e-015  8.110000e+000
      vertex -2.987808e+001  3.180000e+000  9.610000e+000
      vertex -3.028000e+001  3.180000e+000  8.110000e+000
    endloop
  endfacet
  facet normal  0.000000e+000  0.000000e+000 -9.999999e-001
    outer loop
      vertex -2.549266e-015  1.585223e+001  0.000000e+000
      vertex  4.823816e+000  1.510047e+001  0.000000e+000
      vertex -4.823816e+000  1.510047e+001  0.000000e+000
    endloop
  endfacet
  facet normal  0.000000e+000  0.000000e+000 -9.999999e-001
    outer loop
      vertex -1.268475e+001  9.507389e+000  0.000000e+000
      vertex -2.205332e+000  1.250706e+001  0.000000e+000
      vertex -6.350000e+000  1.099852e+001  0.000000e+000
    endloop
  endfacet
  facet normal  0.000000e+000  0.000000e+000 -1.000000e+000
    outer loop
      vertex -1.193410e+001  4.343656e+000  0.000000e+000
      vertex -1.607130e+001  3.735587e+000  0.000000e+000
      vertex -1.497628e+001  5.196562e+000  0.000000e+000
    endloop
  endfacet
  facet normal  0.000000e+000  -0.000000e+000 -1.000000e+000
    outer loop
      vertex -9.190108e+000  1.291647e+001  0.000000e+000
      vertex -4.823816e+000  1.510047e+001  0.000000e+000
      vertex  4.823816e+000  1.510047e+001  0.000000e+000
    endloop
  endfacet
  facet normal  0.000000e+000  -0.000000e+000 -1.000000e+000
    outer loop
      vertex -9.190108e+000  1.291647e+001  0.000000e+000
      vertex  4.823816e+000  1.510047e+001  0.000000e+000
      vertex  9.190108e+000  1.291647e+001  0.000000e+000
    endloop
  endfacet
  facet normal  -0.000000e+000  0.000000e+000 -1.000000e+000
    outer loop
      vertex -9.190108e+000  1.291647e+001  0.000000e+000
      vertex  9.190108e+000  1.291647e+001  0.000000e+000
      vertex  2.205332e+000  1.250706e+001  0.000000e+000
    endloop
  endfacet
  facet normal  0.000000e+000  0.000000e+000 -1.000000e+000
    outer loop
      vertex -9.190108e+000  1.291647e+001  0.000000e+000
      vertex  2.205332e+000  1.250706e+001  0.000000e+000
      vertex -2.205332e+000  1.250706e+001  0.000000e+000
    endloop
  endfacet
  facet normal  -0.000000e+000  0.000000e+000 -9.999999e-001
    outer loop
      vertex -9.190108e+000  1.291647e+001  0.000000e+000
      vertex -2.205332e+000  1.250706e+001  0.000000e+000
      vertex -1.268475e+001  9.507389e+000  0.000000e+000
    endloop
  endfacet
  facet normal  0.000000e+000  0.000000e+000 -1.000000e+000
    outer loop
      vertex -1.270000e+001 -5.075108e-015  0.000000e+000
      vertex -2.728000e+001 -8.288621e-015  0.000000e+000
      vertex -2.728000e+001  3.180000e+000  0.000000e+000
    endloop
  endfacet
  facet normal  0.000000e+000  0.000000e+000 -9.999999e-001
    outer loop
      vertex -1.270000e+001 -5.075108e-015  0.000000e+000
      vertex -2.728000e+001  3.180000e+000  0.000000e+000
      vertex -1.781051e+001  3.180000e+000  0.000000e+000
    endloop
  endfacet
  facet normal  0.000000e+000  0.000000e+000 -9.999999e-001
    outer loop
      vertex -1.270000e+001 -5.075108e-015  0.000000e+000
      vertex -1.781051e+001  3.180000e+000  0.000000e+000
      vertex -1.607130e+001  3.735587e+000  0.000000e+000
    endloop
  endfacet
  facet normal  0.000000e+000  0.000000e+000 -1.000000e+000
    outer loop
      vertex -1.270000e+001 -5.075108e-015  0.000000e+000
      vertex -1.607130e+001  3.735587e+000  0.000000e+000
      vertex -1.193410e+001  4.343656e+000  0.000000e+000
    endloop
  endfacet
  facet normal  0.000000e+000  0.000000e+000 -1.000000e+000
    outer loop
      vertex  1.270000e+001  1.403567e-015  0.000000e+000
      vertex  1.193410e+001  4.343656e+000  0.000000e+000
      vertex  1.607130e+001  3.735587e+000  0.000000e+000
    endloop
  endfacet
  facet normal  0.000000e+000  -0.000000e+000 -9.999999e-001
    outer loop
      vertex  1.270000e+001  1.403567e-015  0.000000e+000
      vertex  1.607130e+001  3.735587e+000  0.000000e+000
      vertex  1.781051e+001  3.180000e+000  0.000000e+000
    endloop
  endfacet
  facet normal  0.000000e+000  -0.000000e+000 -9.999999e-001
    outer loop
      vertex  1.270000e+001  1.403567e-015  0.000000e+000
      vertex  1.781051e+001  3.180000e+000  0.000000e+000
      vertex  2.728000e+001  3.180000e+000  0.000000e+000
    endloop
  endfacet
  facet normal  0.000000e+000  -0.000000e+000 -1.000000e+000
    outer loop
      vertex  1.270000e+001  1.403567e-015  0.000000e+000
      vertex  2.728000e+001  3.180000e+000  0.000000e+000
      vertex  2.728000e+001  3.014906e-015  0.000000e+000
    endloop
  endfacet
  facet normal  0.000000e+000  0.000000e+000 -9.999999e-001
    outer loop
      vertex -6.350000e+000  1.099852e+001  0.000000e+000
      vertex -9.728765e+000  8.163403e+000  0.000000e+000
      vertex -1.268475e+001  9.507389e+000  0.000000e+000
    endloop
  endfacet
  facet normal  0.000000e+000  0.000000e+000 -1.000000e+000
    outer loop
      vertex -1.268475e+001  9.507389e+000  0.000000e+000
      vertex -9.728765e+000  8.163403e+000  0.000000e+000
      vertex -1.193410e+001  4.343656e+000  0.000000e+000
    endloop
  endfacet
  facet normal  0.000000e+000  0.000000e+000 -9.999999e-001
    outer loop
      vertex -1.268475e+001  9.507389e+000  0.000000e+000
      vertex -1.193410e+001  4.343656e+000  0.000000e+000
      vertex -1.497628e+001  5.196562e+000  0.000000e+000
    endloop
  endfacet
  facet normal  0.000000e+000  0.000000e+000 -9.999999e-001
    outer loop
      vertex  9.728765e+000  8.163403e+000  0.000000e+000
      vertex  6.350000e+000  1.099852e+001  0.000000e+000
      vertex  1.268475e+001  9.507389e+000  0.000000e+000
    endloop
  endfacet
  facet normal  0.000000e+000  0.000000e+000 -9.999999e-001
    outer loop
      vertex  1.268475e+001  9.507389e+000  0.000000e+000
      vertex  6.350000e+000  1.099852e+001  0.000000e+000
      vertex  2.205332e+000  1.250706e+001  0.000000e+000
    endloop
  endfacet
  facet normal  0.000000e+000  0.000000e+000 -9.999999e-001
    outer loop
      vertex  1.268475e+001  9.507389e+000  0.000000e+000
      vertex  2.205332e+000  1.250706e+001  0.000000e+000
      vertex  9.190108e+000  1.291647e+001  0.000000e+000
    endloop
  endfacet
  facet normal  0.000000e+000  0.000000e+000 -1.000000e+000
    outer loop
      vertex  1.607130e+001  3.735587e+000  0.000000e+000
      vertex  1.193410e+001  4.343656e+000  0.000000e+000
      vertex  1.497628e+001  5.196562e+000  0.000000e+000
    endloop
  endfacet
  facet normal  -0.000000e+000  0.000000e+000 -1.000000e+000
    outer loop
      vertex  1.497628e+001  5.196562e+000  0.000000e+000
      vertex  1.193410e+001  4.343656e+000  0.000000e+000
      vertex  9.728765e+000  8.163403e+000  0.000000e+000
    endloop
  endfacet
  facet normal  0.000000e+000  0.000000e+000 -1.000000e+000
    outer loop
      vertex  1.497628e+001  5.196562e+000  0.000000e+000
      vertex  9.728765e+000  8.163403e+000  0.000000e+000
      vertex  1.268475e+001  9.507389e+000  0.000000e+000
    endloop
  endfacet
  facet normal -9.659258e-001  -0.000000e+000 -2.588193e-001
    outer loop
      vertex -3.028000e+001 -5.986052e-015  3.000000e+000
      vertex -3.028000e+001  3.180000e+000  3.000000e+000
      vertex -2.987808e+001 -3.302038e-015  1.500000e+000
    endloop
  endfacet
  facet normal -9.659258e-001  0.000000e+000 -2.588193e-001
    outer loop
      vertex -2.987808e+001 -3.302038e-015  1.500000e+000
      vertex -3.028000e+001  3.180000e+000  3.000000e+000
      vertex -2.987808e+001  3.180000e+000  1.500000e+000
    endloop
  endfacet
  facet normal -7.071069e-001  -0.000000e+000 -7.071066e-001
    outer loop
      vertex -2.987808e+001 -3.302038e-015  1.500000e+000
      vertex -2.987808e+001  3.180000e+000  1.500000e+000
      vertex -2.878000e+001 -3.180682e-015  4.019238e-001
    endloop
  endfacet
  facet normal -7.071069e-001  0.000000e+000 -7.071066e-001
    outer loop
      vertex -2.878000e+001 -3.180682e-015  4.019238e-001
      vertex -2.987808e+001  3.180000e+000  1.500000e+000
      vertex -2.878000e+001  3.180000e+000  4.019238e-001
    endloop
  endfacet
  facet normal -2.588190e-001  -0.000000e+000 -9.659259e-001
    outer loop
      vertex -2.878000e+001 -3.180682e-015  4.019238e-001
      vertex -2.878000e+001  3.180000e+000  4.019238e-001
      vertex -2.728000e+001 -8.288621e-015  0.000000e+000
    endloop
  endfacet
  facet normal -2.588190e-001  0.000000e+000 -9.659259e-001
    outer loop
      vertex -2.728000e+001 -8.288621e-015  0.000000e+000
      vertex -2.878000e+001  3.180000e+000  4.019238e-001
      vertex -2.728000e+001  3.180000e+000  0.000000e+000
    endloop
  endfacet
  facet normal  -0.000000e+000  1.000000e+000  0.000000e+000
    outer loop
      vertex  2.728000e+001  3.180000e+000  0.000000e+000
      vertex  2.363070e+001  3.180000e+000  2.514066e+000
      vertex  2.563931e+001  3.180000e+000  2.514066e+000
    endloop
  endfacet
  facet normal  -0.000000e+000  1.000000e+000  0.000000e+000
    outer loop
      vertex  2.728000e+001  3.180000e+000  0.000000e+000
      vertex  2.563931e+001  3.180000e+000  2.514066e+000
      vertex  2.726431e+001  3.180000e+000  3.694698e+000
    endloop
  endfacet
  facet normal  -0.000000e+000  1.000000e+000  0.000000e+000
    outer loop
      vertex  2.728000e+001  3.180000e+000  0.000000e+000
      vertex  2.726431e+001  3.180000e+000  3.694698e+000
      vertex  2.788500e+001  3.180000e+000  5.605000e+000
    endloop
  endfacet
  facet normal  0.000000e+000  1.000000e+000  0.000000e+000
    outer loop
      vertex  2.728000e+001  3.180000e+000  0.000000e+000
      vertex  2.788500e+001  3.180000e+000  5.605000e+000
      vertex  2.878000e+001  3.180000e+000  4.019238e-001
    endloop
  endfacet
  facet normal  0.000000e+000  1.000000e+000  0.000000e+000
    outer loop
      vertex  2.728000e+001  3.180000e+000  1.111000e+001
      vertex  2.878000e+001  3.180000e+000  1.070808e+001
      vertex  2.788500e+001  3.180000e+000  5.605000e+000
    endloop
  endfacet
  facet normal  0.000000e+000  1.000000e+000  0.000000e+000
    outer loop
      vertex  2.728000e+001  3.180000e+000  1.111000e+001
      vertex  2.788500e+001  3.180000e+000  5.605000e+000
      vertex  2.726431e+001  3.180000e+000  7.515302e+000
    endloop
  endfacet
  facet normal  0.000000e+000  1.000000e+000  -0.000000e+000
    outer loop
      vertex  2.728000e+001  3.180000e+000  1.111000e+001
      vertex  2.726431e+001  3.180000e+000  7.515302e+000
      vertex  2.563931e+001  3.180000e+000  8.695933e+000
    endloop
  endfacet
  facet normal  0.000000e+000  1.000000e+000  -0.000000e+000
    outer loop
      vertex  2.728000e+001  3.180000e+000  1.111000e+001
      vertex  2.563931e+001  3.180000e+000  8.695933e+000
      vertex  2.363070e+001  3.180000e+000  8.695933e+000
    endloop
  endfacet
  facet normal  0.000000e+000  1.000000e+000  0.000000e+000
    outer loop
      vertex  1.781051e+001  3.180000e+000  1.111000e+001
      vertex  2.728000e+001  3.180000e+000  1.111000e+001
      vertex  2.363070e+001  3.180000e+000  8.695933e+000
    endloop
  endfacet
  facet normal  0.000000e+000  1.000000e+000  0.000000e+000
    outer loop
      vertex  1.781051e+001  3.180000e+000  1.111000e+001
      vertex  2.363070e+001  3.180000e+000  8.695933e+000
      vertex  2.200570e+001  3.180000e+000  7.515302e+000
    endloop
  endfacet
  facet normal  0.000000e+000  1.000000e+000  0.000000e+000
    outer loop
      vertex  1.781051e+001  3.180000e+000  1.111000e+001
      vertex  2.200570e+001  3.180000e+000  7.515302e+000
      vertex  2.138500e+001  3.180000e+000  5.605000e+000
    endloop
  endfacet
  facet normal  0.000000e+000  1.000000e+000  0.000000e+000
    outer loop
      vertex  1.781051e+001  3.180000e+000  1.111000e+001
      vertex  2.138500e+001  3.180000e+000  5.605000e+000
      vertex  1.781051e+001  3.180000e+000  0.000000e+000
    endloop
  endfacet
  facet normal  0.000000e+000  1.000000e+000  0.000000e+000
    outer loop
      vertex  1.781051e+001  3.180000e+000  0.000000e+000
      vertex  2.138500e+001  3.180000e+000  5.605000e+000
      vertex  2.200570e+001  3.180000e+000  3.694698e+000
    endloop
  endfacet
  facet normal  0.000000e+000  1.000000e+000  0.000000e+000
    outer loop
      vertex  1.781051e+001  3.180000e+000  0.000000e+000
      vertex  2.200570e+001  3.180000e+000  3.694698e+000
      vertex  2.363070e+001  3.180000e+000  2.514066e+000
    endloop
  endfacet
  facet normal  0.000000e+000  1.000000e+000  0.000000e+000
    outer loop
      vertex  1.781051e+001  3.180000e+000  0.000000e+000
      vertex  2.363070e+001  3.180000e+000  2.514066e+000
      vertex  2.728000e+001  3.180000e+000  0.000000e+000
    endloop
  endfacet
  facet normal  0.000000e+000  9.999999e-001  0.000000e+000
    outer loop
      vertex  2.878000e+001  3.180000e+000  1.070808e+001
      vertex  2.987808e+001  3.180000e+000  9.610000e+000
      vertex  2.788500e+001  3.180000e+000  5.605000e+000
    endloop
  endfacet
  facet normal  0.000000e+000  1.000000e+000  0.000000e+000
    outer loop
      vertex  2.788500e+001  3.180000e+000  5.605000e+000
      vertex  2.987808e+001  3.180000e+000  9.610000e+000
      vertex  3.028000e+001  3.180000e+000  8.110000e+000
    endloop
  endfacet
  facet normal  0.000000e+000  1.000000e+000  0.000000e+000
    outer loop
      vertex  2.788500e+001  3.180000e+000  5.605000e+000
      vertex  3.028000e+001  3.180000e+000  8.110000e+000
      vertex  2.878000e+001  3.180000e+000  4.019238e-001
    endloop
  endfacet
  facet normal  0.000000e+000  1.000000e+000  0.000000e+000
    outer loop
      vertex  2.878000e+001  3.180000e+000  4.019238e-001
      vertex  3.028000e+001  3.180000e+000  8.110000e+000
      vertex  3.028000e+001  3.180000e+000  3.000000e+000
    endloop
  endfacet
  facet normal  0.000000e+000  1.000000e+000  0.000000e+000
    outer loop
      vertex  2.878000e+001  3.180000e+000  4.019238e-001
      vertex  3.028000e+001  3.180000e+000  3.000000e+000
      vertex  2.987808e+001  3.180000e+000  1.500000e+000
    endloop
  endfacet
  facet normal  1.166061e-016 -1.000000e+000 -2.272463e-017
    outer loop
      vertex  2.728000e+001  3.014906e-015  0.000000e+000
      vertex  2.878000e+001  3.180682e-015  4.019238e-001
      vertex  2.788500e+001  2.958081e-015  5.605000e+000
    endloop
  endfacet
  facet normal -8.618431e-017 -1.000000e+000 -8.355822e-019
    outer loop
      vertex  2.728000e+001  3.014906e-015  0.000000e+000
      vertex  2.788500e+001  2.958081e-015  5.605000e+000
      vertex  2.726431e+001  3.013171e-015  3.694698e+000
    endloop
  endfacet
  facet normal  1.105171e-016 -1.000000e+000  3.158461e-023
    outer loop
      vertex  2.728000e+001  3.014906e-015  0.000000e+000
      vertex  2.726431e+001  3.013171e-015  3.694698e+000
      vertex  2.563931e+001  2.833581e-015  2.514066e+000
    endloop
  endfacet
  facet normal  1.105171e-016 -1.000000e+000  6.265282e-023
    outer loop
      vertex  2.728000e+001  3.014906e-015  0.000000e+000
      vertex  2.563931e+001  2.833581e-015  2.514066e+000
      vertex  2.363070e+001  2.611595e-015  2.514066e+000
    endloop
  endfacet
  facet normal  1.105171e-016 -1.000000e+000 -6.524815e-023
    outer loop
      vertex  2.728000e+001  3.014906e-015  1.111000e+001
      vertex  2.363070e+001  2.611595e-015  8.695933e+000
      vertex  2.563931e+001  2.833581e-015  8.695933e+000
    endloop
  endfacet
  facet normal  1.105171e-016 -1.000000e+000 -3.246047e-023
    outer loop
      vertex  2.728000e+001  3.014906e-015  1.111000e+001
      vertex  2.563931e+001  2.833581e-015  8.695933e+000
      vertex  2.726431e+001  3.013171e-015  7.515302e+000
    endloop
  endfacet
  facet normal -8.611371e-017 -1.000000e+000  8.585189e-019
    outer loop
      vertex  2.728000e+001  3.014906e-015  1.111000e+001
      vertex  2.726431e+001  3.013171e-015  7.515302e+000
      vertex  2.788500e+001  2.958081e-015  5.605000e+000
    endloop
  endfacet
  facet normal  1.167201e-016 -1.000000e+000  2.314995e-017
    outer loop
      vertex  2.728000e+001  3.014906e-015  1.111000e+001
      vertex  2.788500e+001  2.958081e-015  5.605000e+000
      vertex  2.878000e+001  3.180682e-015  1.070808e+001
    endloop
  endfacet
  facet normal  1.113900e-016 -1.000000e+000  0.000000e+000
    outer loop
      vertex  1.270000e+001  1.403567e-015  1.111000e+001
      vertex  1.270000e+001  1.403567e-015  0.000000e+000
      vertex  2.138500e+001  2.370989e-015  5.605000e+000
    endloop
  endfacet
  facet normal  1.091549e-016 -1.000000e+000 -3.526212e-018
    outer loop
      vertex  1.270000e+001  1.403567e-015  1.111000e+001
      vertex  2.138500e+001  2.370989e-015  5.605000e+000
      vertex  2.200570e+001  2.432005e-015  7.515302e+000
    endloop
  endfacet
  facet normal  1.105171e-016 -9.999999e-001  8.609220e-025
    outer loop
      vertex  1.270000e+001  1.403567e-015  1.111000e+001
      vertex  2.200570e+001  2.432005e-015  7.515302e+000
      vertex  2.363070e+001  2.611595e-015  8.695933e+000
    endloop
  endfacet
  facet normal  1.105171e-016 -9.999999e-001 -2.004623e-023
    outer loop
      vertex  1.270000e+001  1.403567e-015  1.111000e+001
      vertex  2.363070e+001  2.611595e-015  8.695933e+000
      vertex  2.728000e+001  3.014906e-015  1.111000e+001
    endloop
  endfacet
  facet normal  1.105171e-016 -1.000000e+000  1.924887e-023
    outer loop
      vertex  1.270000e+001  1.403567e-015  0.000000e+000
      vertex  2.728000e+001  3.014906e-015  0.000000e+000
      vertex  2.363070e+001  2.611595e-015  2.514066e+000
    endloop
  endfacet
  facet normal  1.105171e-016 -1.000000e+000 -8.526877e-025
    outer loop
      vertex  1.270000e+001  1.403567e-015  0.000000e+000
      vertex  2.363070e+001  2.611595e-015  2.514066e+000
      vertex  2.200570e+001  2.432005e-015  3.694698e+000
    endloop
  endfacet
  facet normal  1.091214e-016 -1.000000e+000  3.515307e-018
    outer loop
      vertex  1.270000e+001  1.403567e-015  0.000000e+000
      vertex  2.200570e+001  2.432005e-015  3.694698e+000
      vertex  2.138500e+001  2.370989e-015  5.605000e+000
    endloop
  endfacet
  facet normal  1.105175e-016 -1.000000e+000 -2.658066e-022
    outer loop
      vertex  2.987808e+001  3.302038e-015  1.500000e+000
      vertex  3.028000e+001  3.346457e-015  3.000000e+000
      vertex  2.878000e+001  3.180682e-015  4.019238e-001
    endloop
  endfacet
  facet normal  1.105170e-016 -1.000000e+000  0.000000e+000
    outer loop
      vertex  2.878000e+001  3.180682e-015  4.019238e-001
      vertex  3.028000e+001  3.346457e-015  3.000000e+000
      vertex  3.028000e+001  3.346457e-015  8.110000e+000
    endloop
  endfacet
  facet normal  1.753590e-016 -1.000000e+000 -1.261832e-017
    outer loop
      vertex  2.878000e+001  3.180682e-015  4.019238e-001
      vertex  3.028000e+001  3.346457e-015  8.110000e+000
      vertex  2.788500e+001  2.958081e-015  5.605000e+000
    endloop
  endfacet
  facet normal  1.508558e-016 -1.000000e+000  1.080889e-017
    outer loop
      vertex  2.788500e+001  2.958081e-015  5.605000e+000
      vertex  3.028000e+001  3.346457e-015  8.110000e+000
      vertex  2.987808e+001  3.302038e-015  9.610000e+000
    endloop
  endfacet
  facet normal  1.311384e-016 -9.999999e-001  2.062119e-017
    outer loop
      vertex  2.788500e+001  2.958081e-015  5.605000e+000
      vertex  2.987808e+001  3.302038e-015  9.610000e+000
      vertex  2.878000e+001  3.180682e-015  1.070808e+001
    endloop
  endfacet
  facet normal  1.000000e+000  0.000000e+000  0.000000e+000
    outer loop
      vertex  3.028000e+001  3.346457e-015  3.000000e+000
      vertex  3.028000e+001  3.180000e+000  3.000000e+000
      vertex  3.028000e+001  3.346457e-015  8.110000e+000
    endloop
  endfacet
  facet normal  1.000000e+000  -0.000000e+000  0.000000e+000
    outer loop
      vertex  3.028000e+001  3.346457e-015  8.110000e+000
      vertex  3.028000e+001  3.180000e+000  3.000000e+000
      vertex  3.028000e+001  3.180000e+000  8.110000e+000
    endloop
  endfacet
  facet normal  2.588190e-001  0.000000e+000 -9.659259e-001
    outer loop
      vertex  2.728000e+001  3.014906e-015  0.000000e+000
      vertex  2.728000e+001  3.180000e+000  0.000000e+000
      vertex  2.878000e+001  3.180682e-015  4.019238e-001
    endloop
  endfacet
  facet normal  2.588190e-001  0.000000e+000 -9.659259e-001
    outer loop
      vertex  2.878000e+001  3.180682e-015  4.019238e-001
      vertex  2.728000e+001  3.180000e+000  0.000000e+000
      vertex  2.878000e+001  3.180000e+000  4.019238e-001
    endloop
  endfacet
  facet normal  7.071069e-001  0.000000e+000 -7.071066e-001
    outer loop
      vertex  2.878000e+001  3.180682e-015  4.019238e-001
      vertex  2.878000e+001  3.180000e+000  4.019238e-001
      vertex  2.987808e+001  3.302038e-015  1.500000e+000
    endloop
  endfacet
  facet normal  7.071069e-001  0.000000e+000 -7.071066e-001
    outer loop
      vertex  2.987808e+001  3.302038e-015  1.500000e+000
      vertex  2.878000e+001  3.180000e+000  4.019238e-001
      vertex  2.987808e+001  3.180000e+000  1.500000e+000
    endloop
  endfacet
  facet normal  9.659258e-001  0.000000e+000 -2.588193e-001
    outer loop
      vertex  2.987808e+001  3.302038e-015  1.500000e+000
      vertex  2.987808e+001  3.180000e+000  1.500000e+000
      vertex  3.028000e+001  3.346457e-015  3.000000e+000
    endloop
  endfacet
  facet normal  9.659258e-001  0.000000e+000 -2.588193e-001
    outer loop
      vertex  3.028000e+001  3.346457e-015  3.000000e+000
      vertex  2.987808e+001  3.180000e+000  1.500000e+000
      vertex  3.028000e+001  3.180000e+000  3.000000e+000
    endloop
  endfacet
  facet normal  9.659258e-001  0.000000e+000  2.588193e-001
    outer loop
      vertex  3.028000e+001  3.346457e-015  8.110000e+000
      vertex  3.028000e+001  3.180000e+000  8.110000e+000
      vertex  2.987808e+001  3.302038e-015  9.610000e+000
    endloop
  endfacet
  facet normal  9.659258e-001  -0.000000e+000  2.588193e-001
    outer loop
      vertex  2.987808e+001  3.302038e-015  9.610000e+000
      vertex  3.028000e+001  3.180000e+000  8.110000e+000
      vertex  2.987808e+001  3.180000e+000  9.610000e+000
    endloop
  endfacet
  facet normal  7.071071e-001  0.000000e+000  7.071065e-001
    outer loop
      vertex  2.987808e+001  3.302038e-015  9.610000e+000
      vertex  2.987808e+001  3.180000e+000  9.610000e+000
      vertex  2.878000e+001  3.180682e-015  1.070808e+001
    endloop
  endfacet
  facet normal  7.071071e-001  -0.000000e+000  7.071065e-001
    outer loop
      vertex  2.878000e+001  3.180682e-015  1.070808e+001
      vertex  2.987808e+001  3.180000e+000  9.610000e+000
      vertex  2.878000e+001  3.180000e+000  1.070808e+001
    endloop
  endfacet
  facet normal  2.588187e-001  0.000000e+000  9.659259e-001
    outer loop
      vertex  2.878000e+001  3.180682e-015  1.070808e+001
      vertex  2.878000e+001  3.180000e+000  1.070808e+001
      vertex  2.728000e+001  3.014906e-015  1.111000e+001
    endloop
  endfacet
  facet normal  2.588187e-001  -0.000000e+000  9.659259e-001
    outer loop
      vertex  2.728000e+001  3.014906e-015  1.111000e+001
      vertex  2.878000e+001  3.180000e+000  1.070808e+001
      vertex  2.728000e+001  3.180000e+000  1.111000e+001
    endloop
  endfacet
  facet normal -8.829963e-001  4.693801e-001  0.000000e+000
    outer loop
      vertex -1.497628e+001  5.196562e+000  0.000000e+000
      vertex -1.497628e+001  5.196562e+000  1.111000e+001
      vertex -1.268475e+001  9.507389e+000  0.000000e+000
    endloop
  endfacet
  facet normal -8.829963e-001  4.693801e-001  0.000000e+000
    outer loop
      vertex -1.268475e+001  9.507389e+000  0.000000e+000
      vertex -1.497628e+001  5.196562e+000  1.111000e+001
      vertex -1.268475e+001  9.507389e+000  1.111000e+001
    endloop
  endfacet
  facet normal -6.982898e-001  7.158151e-001  0.000000e+000
    outer loop
      vertex -1.268475e+001  9.507389e+000  0.000000e+000
      vertex -1.268475e+001  9.507389e+000  1.111000e+001
      vertex -9.190108e+000  1.291647e+001  0.000000e+000
    endloop
  endfacet
  facet normal -6.982898e-001  7.158151e-001  0.000000e+000
    outer loop
      vertex -9.190108e+000  1.291647e+001  0.000000e+000
      vertex -1.268475e+001  9.507389e+000  1.111000e+001
      vertex -9.190108e+000  1.291647e+001  1.111000e+001
    endloop
  endfacet
  facet normal -4.473529e-001  8.943576e-001  0.000000e+000
    outer loop
      vertex -9.190108e+000  1.291647e+001  0.000000e+000
      vertex -9.190108e+000  1.291647e+001  1.111000e+001
      vertex -4.823816e+000  1.510047e+001  0.000000e+000
    endloop
  endfacet
  facet normal -4.473529e-001  8.943576e-001  0.000000e+000
    outer loop
      vertex -4.823816e+000  1.510047e+001  0.000000e+000
      vertex -9.190108e+000  1.291647e+001  1.111000e+001
      vertex -4.823816e+000  1.510047e+001  1.111000e+001
    endloop
  endfacet
  facet normal -1.539860e-001  9.880730e-001  0.000000e+000
    outer loop
      vertex -4.823816e+000  1.510047e+001  0.000000e+000
      vertex -4.823816e+000  1.510047e+001  1.111000e+001
      vertex -2.549266e-015  1.585223e+001  0.000000e+000
    endloop
  endfacet
  facet normal -1.539860e-001  9.880730e-001  0.000000e+000
    outer loop
      vertex -2.549266e-015  1.585223e+001  0.000000e+000
      vertex -4.823816e+000  1.510047e+001  1.111000e+001
      vertex -2.549266e-015  1.585223e+001  1.111000e+001
    endloop
  endfacet
  facet normal  1.539860e-001  9.880730e-001  0.000000e+000
    outer loop
      vertex -2.549266e-015  1.585223e+001  0.000000e+000
      vertex -2.549266e-015  1.585223e+001  1.111000e+001
      vertex  4.823816e+000  1.510047e+001  0.000000e+000
    endloop
  endfacet
  facet normal  1.539860e-001  9.880730e-001  -0.000000e+000
    outer loop
      vertex  4.823816e+000  1.510047e+001  0.000000e+000
      vertex -2.549266e-015  1.585223e+001  1.111000e+001
      vertex  4.823816e+000  1.510047e+001  1.111000e+001
    endloop
  endfacet
  facet normal  4.473529e-001  8.943576e-001  0.000000e+000
    outer loop
      vertex  4.823816e+000  1.510047e+001  0.000000e+000
      vertex  4.823816e+000  1.510047e+001  1.111000e+001
      vertex  9.190108e+000  1.291647e+001  0.000000e+000
    endloop
  endfacet
  facet normal  4.473529e-001  8.943576e-001  -0.000000e+000
    outer loop
      vertex  9.190108e+000  1.291647e+001  0.000000e+000
      vertex  4.823816e+000  1.510047e+001  1.111000e+001
      vertex  9.190108e+000  1.291647e+001  1.111000e+001
    endloop
  endfacet
  facet normal  6.982898e-001  7.158151e-001  0.000000e+000
    outer loop
      vertex  9.190108e+000  1.291647e+001  0.000000e+000
      vertex  9.190108e+000  1.291647e+001  1.111000e+001
      vertex  1.268475e+001  9.507389e+000  0.000000e+000
    endloop
  endfacet
  facet normal  6.982898e-001  7.158151e-001  -0.000000e+000
    outer loop
      vertex  1.268475e+001  9.507389e+000  0.000000e+000
      vertex  9.190108e+000  1.291647e+001  1.111000e+001
      vertex  1.268475e+001  9.507389e+000  1.111000e+001
    endloop
  endfacet
  facet normal  8.829963e-001  4.693801e-001  0.000000e+000
    outer loop
      vertex  1.268475e+001  9.507389e+000  0.000000e+000
      vertex  1.268475e+001  9.507389e+000  1.111000e+001
      vertex  1.497628e+001  5.196562e+000  0.000000e+000
    endloop
  endfacet
  facet normal  8.829963e-001  4.693801e-001  -0.000000e+000
    outer loop
      vertex  1.497628e+001  5.196562e+000  0.000000e+000
      vertex  1.268475e+001  9.507389e+000  1.111000e+001
      vertex  1.497628e+001  5.196562e+000  1.111000e+001
    endloop
  endfacet
  facet normal -8.001872e-001  5.997502e-001  0.000000e+000
    outer loop
      vertex -1.497628e+001  5.196562e+000  0.000000e+000
      vertex -1.607130e+001  3.735587e+000  0.000000e+000
      vertex -1.497628e+001  5.196562e+000  1.111000e+001
    endloop
  endfacet
  facet normal -8.001872e-001  5.997502e-001  0.000000e+000
    outer loop
      vertex -1.497628e+001  5.196562e+000  1.111000e+001
      vertex -1.607130e+001  3.735587e+000  0.000000e+000
      vertex -1.607130e+001  3.735587e+000  1.111000e+001
    endloop
  endfacet
  facet normal -3.042987e-001  9.525767e-001  0.000000e+000
    outer loop
      vertex -1.607130e+001  3.735587e+000  0.000000e+000
      vertex -1.781051e+001  3.180000e+000  0.000000e+000
      vertex -1.607130e+001  3.735587e+000  1.111000e+001
    endloop
  endfacet
  facet normal -3.042987e-001  9.525767e-001  0.000000e+000
    outer loop
      vertex -1.607130e+001  3.735587e+000  1.111000e+001
      vertex -1.781051e+001  3.180000e+000  0.000000e+000
      vertex -1.781051e+001  3.180000e+000  1.111000e+001
    endloop
  endfacet
  facet normal  3.042987e-001  9.525767e-001  0.000000e+000
    outer loop
      vertex  1.781051e+001  3.180000e+000  0.000000e+000
      vertex  1.607130e+001  3.735587e+000  0.000000e+000
      vertex  1.781051e+001  3.180000e+000  1.111000e+001
    endloop
  endfacet
  facet normal  3.042987e-001  9.525767e-001  0.000000e+000
    outer loop
      vertex  1.781051e+001  3.180000e+000  1.111000e+001
      vertex  1.607130e+001  3.735587e+000  0.000000e+000
      vertex  1.607130e+001  3.735587e+000  1.111000e+001
    endloop
  endfacet
  facet normal  8.001872e-001  5.997502e-001  0.000000e+000
    outer loop
      vertex  1.607130e+001  3.735587e+000  0.000000e+000
      vertex  1.497628e+001  5.196562e+000  0.000000e+000
      vertex  1.607130e+001  3.735587e+000  1.111000e+001
    endloop
  endfacet
  facet normal  8.001872e-001  5.997502e-001  0.000000e+000
    outer loop
      vertex  1.607130e+001  3.735587e+000  1.111000e+001
      vertex  1.497628e+001  5.196562e+000  0.000000e+000
      vertex  1.497628e+001  5.196562e+000  1.111000e+001
    endloop
  endfacet
  facet normal  5.877852e-001  0.000000e+000  8.090169e-001
    outer loop
      vertex  2.363070e+001  2.611595e-015  2.514066e+000
      vertex  2.200570e+001  3.180000e+000  3.694698e+000
      vertex  2.200570e+001  2.432005e-015  3.694698e+000
    endloop
  endfacet
  facet normal  9.510564e-001  -0.000000e+000  3.090172e-001
    outer loop
      vertex  2.200570e+001  2.432005e-015  3.694698e+000
      vertex  2.200570e+001  3.180000e+000  3.694698e+000
      vertex  2.138500e+001  3.180000e+000  5.605000e+000
    endloop
  endfacet
  facet normal  9.510564e-001  0.000000e+000  3.090172e-001
    outer loop
      vertex  2.200570e+001  2.432005e-015  3.694698e+000
      vertex  2.138500e+001  3.180000e+000  5.605000e+000
      vertex  2.138500e+001  2.370989e-015  5.605000e+000
    endloop
  endfacet
  facet normal  5.877852e-001  -0.000000e+000  8.090169e-001
    outer loop
      vertex  2.200570e+001  3.180000e+000  3.694698e+000
      vertex  2.363070e+001  2.611595e-015  2.514066e+000
      vertex  2.363070e+001  3.180000e+000  2.514066e+000
    endloop
  endfacet
  facet normal  0.000000e+000  0.000000e+000  1.000000e+000
    outer loop
      vertex  2.363070e+001  3.180000e+000  2.514066e+000
      vertex  2.363070e+001  2.611595e-015  2.514066e+000
      vertex  2.563931e+001  2.833581e-015  2.514066e+000
    endloop
  endfacet
  facet normal  0.000000e+000  -0.000000e+000  1.000000e+000
    outer loop
      vertex  2.363070e+001  3.180000e+000  2.514066e+000
      vertex  2.563931e+001  2.833581e-015  2.514066e+000
      vertex  2.563931e+001  3.180000e+000  2.514066e+000
    endloop
  endfacet
  facet normal -5.877852e-001  0.000000e+000  8.090169e-001
    outer loop
      vertex  2.563931e+001  3.180000e+000  2.514066e+000
      vertex  2.563931e+001  2.833581e-015  2.514066e+000
      vertex  2.726431e+001  3.013171e-015  3.694698e+000
    endloop
  endfacet
  facet normal -5.877852e-001  0.000000e+000  8.090169e-001
    outer loop
      vertex  2.563931e+001  3.180000e+000  2.514066e+000
      vertex  2.726431e+001  3.013171e-015  3.694698e+000
      vertex  2.726431e+001  3.180000e+000  3.694698e+000
    endloop
  endfacet
  facet normal -9.510564e-001  0.000000e+000  3.090172e-001
    outer loop
      vertex  2.726431e+001  3.180000e+000  3.694698e+000
      vertex  2.726431e+001  3.013171e-015  3.694698e+000
      vertex  2.788500e+001  2.958081e-015  5.605000e+000
    endloop
  endfacet
  facet normal -9.510564e-001  0.000000e+000  3.090172e-001
    outer loop
      vertex  2.726431e+001  3.180000e+000  3.694698e+000
      vertex  2.788500e+001  2.958081e-015  5.605000e+000
      vertex  2.788500e+001  3.180000e+000  5.605000e+000
    endloop
  endfacet
  facet normal -5.877851e-001  -0.000000e+000 -8.090171e-001
    outer loop
      vertex  2.563931e+001  2.833581e-015  8.695933e+000
      vertex  2.726431e+001  3.180000e+000  7.515302e+000
      vertex  2.726431e+001  3.013171e-015  7.515302e+000
    endloop
  endfacet
  facet normal -9.510564e-001  0.000000e+000 -3.090172e-001
    outer loop
      vertex  2.726431e+001  3.013171e-015  7.515302e+000
      vertex  2.726431e+001  3.180000e+000  7.515302e+000
      vertex  2.788500e+001  3.180000e+000  5.605000e+000
    endloop
  endfacet
  facet normal -9.510564e-001  -0.000000e+000 -3.090172e-001
    outer loop
      vertex  2.726431e+001  3.013171e-015  7.515302e+000
      vertex  2.788500e+001  3.180000e+000  5.605000e+000
      vertex  2.788500e+001  2.958081e-015  5.605000e+000
    endloop
  endfacet
  facet normal -5.877851e-001  0.000000e+000 -8.090171e-001
    outer loop
      vertex  2.726431e+001  3.180000e+000  7.515302e+000
      vertex  2.563931e+001  2.833581e-015  8.695933e+000
      vertex  2.563931e+001  3.180000e+000  8.695933e+000
    endloop
  endfacet
  facet normal  0.000000e+000  -0.000000e+000 -1.000000e+000
    outer loop
      vertex  2.563931e+001  3.180000e+000  8.695933e+000
      vertex  2.563931e+001  2.833581e-015  8.695933e+000
      vertex  2.363070e+001  2.611595e-015  8.695933e+000
    endloop
  endfacet
  facet normal  0.000000e+000  0.000000e+000 -1.000000e+000
    outer loop
      vertex  2.563931e+001  3.180000e+000  8.695933e+000
      vertex  2.363070e+001  2.611595e-015  8.695933e+000
      vertex  2.363070e+001  3.180000e+000  8.695933e+000
    endloop
  endfacet
  facet normal  5.877851e-001  0.000000e+000 -8.090171e-001
    outer loop
      vertex  2.363070e+001  3.180000e+000  8.695933e+000
      vertex  2.363070e+001  2.611595e-015  8.695933e+000
      vertex  2.200570e+001  2.432005e-015  7.515302e+000
    endloop
  endfacet
  facet normal  5.877851e-001  0.000000e+000 -8.090171e-001
    outer loop
      vertex  2.363070e+001  3.180000e+000  8.695933e+000
      vertex  2.200570e+001  2.432005e-015  7.515302e+000
      vertex  2.200570e+001  3.180000e+000  7.515302e+000
    endloop
  endfacet
  facet normal  9.510564e-001  0.000000e+000 -3.090172e-001
    outer loop
      vertex  2.200570e+001  3.180000e+000  7.515302e+000
      vertex  2.200570e+001  2.432005e-015  7.515302e+000
      vertex  2.138500e+001  2.370989e-015  5.605000e+000
    endloop
  endfacet
  facet normal  9.510564e-001  0.000000e+000 -3.090172e-001
    outer loop
      vertex  2.200570e+001  3.180000e+000  7.515302e+000
      vertex  2.138500e+001  2.370989e-015  5.605000e+000
      vertex  2.138500e+001  3.180000e+000  5.605000e+000
    endloop
  endfacet
  facet normal -5.877851e-001  -0.000000e+000 -8.090171e-001
    outer loop
      vertex -2.363070e+001 -2.611595e-015  8.695933e+000
      vertex -2.200570e+001  3.180000e+000  7.515302e+000
      vertex -2.200570e+001 -2.432005e-015  7.515302e+000
    endloop
  endfacet
  facet normal -9.510564e-001  0.000000e+000 -3.090172e-001
    outer loop
      vertex -2.200570e+001 -2.432005e-015  7.515302e+000
      vertex -2.200570e+001  3.180000e+000  7.515302e+000
      vertex -2.138500e+001  3.180000e+000  5.605000e+000
    endloop
  endfacet
  facet normal -9.510564e-001  -0.000000e+000 -3.090172e-001
    outer loop
      vertex -2.200570e+001 -2.432005e-015  7.515302e+000
      vertex -2.138500e+001  3.180000e+000  5.605000e+000
      vertex -2.138500e+001 -2.370989e-015  5.605000e+000
    endloop
  endfacet
  facet normal -5.877851e-001  0.000000e+000 -8.090171e-001
    outer loop
      vertex -2.200570e+001  3.180000e+000  7.515302e+000
      vertex -2.363070e+001 -2.611595e-015  8.695933e+000
      vertex -2.363070e+001  3.180000e+000  8.695933e+000
    endloop
  endfacet
  facet normal  0.000000e+000  -0.000000e+000 -1.000000e+000
    outer loop
      vertex -2.363070e+001  3.180000e+000  8.695933e+000
      vertex -2.363070e+001 -2.611595e-015  8.695933e+000
      vertex -2.563931e+001 -2.833581e-015  8.695933e+000
    endloop
  endfacet
  facet normal  0.000000e+000  0.000000e+000 -1.000000e+000
    outer loop
      vertex -2.363070e+001  3.180000e+000  8.695933e+000
      vertex -2.563931e+001 -2.833581e-015  8.695933e+000
      vertex -2.563931e+001  3.180000e+000  8.695933e+000
    endloop
  endfacet
  facet normal  5.877851e-001  0.000000e+000 -8.090171e-001
    outer loop
      vertex -2.563931e+001  3.180000e+000  8.695933e+000
      vertex -2.563931e+001 -2.833581e-015  8.695933e+000
      vertex -2.726431e+001 -3.013171e-015  7.515302e+000
    endloop
  endfacet
  facet normal  5.877851e-001  0.000000e+000 -8.090171e-001
    outer loop
      vertex -2.563931e+001  3.180000e+000  8.695933e+000
      vertex -2.726431e+001 -3.013171e-015  7.515302e+000
      vertex -2.726431e+001  3.180000e+000  7.515302e+000
    endloop
  endfacet
  facet normal  9.510564e-001  0.000000e+000 -3.090172e-001
    outer loop
      vertex -2.726431e+001  3.180000e+000  7.515302e+000
      vertex -2.726431e+001 -3.013171e-015  7.515302e+000
      vertex -2.788500e+001 -2.958081e-015  5.605000e+000
    endloop
  endfacet
  facet normal  9.510564e-001  0.000000e+000 -3.090172e-001
    outer loop
      vertex -2.726431e+001  3.180000e+000  7.515302e+000
      vertex -2.788500e+001 -2.958081e-015  5.605000e+000
      vertex -2.788500e+001  3.180000e+000  5.605000e+000
    endloop
  endfacet
  facet normal  5.877852e-001  0.000000e+000  8.090169e-001
    outer loop
      vertex -2.563931e+001 -2.833581e-015  2.514066e+000
      vertex -2.726431e+001  3.180000e+000  3.694698e+000
      vertex -2.726431e+001 -3.013171e-015  3.694698e+000
    endloop
  endfacet
  facet normal  9.510564e-001  -0.000000e+000  3.090172e-001
    outer loop
      vertex -2.726431e+001 -3.013171e-015  3.694698e+000
      vertex -2.726431e+001  3.180000e+000  3.694698e+000
      vertex -2.788500e+001  3.180000e+000  5.605000e+000
    endloop
  endfacet
  facet normal  9.510564e-001  0.000000e+000  3.090172e-001
    outer loop
      vertex -2.726431e+001 -3.013171e-015  3.694698e+000
      vertex -2.788500e+001  3.180000e+000  5.605000e+000
      vertex -2.788500e+001 -2.958081e-015  5.605000e+000
    endloop
  endfacet
  facet normal  5.877852e-001  -0.000000e+000  8.090169e-001
    outer loop
      vertex -2.726431e+001  3.180000e+000  3.694698e+000
      vertex -2.563931e+001 -2.833581e-015  2.514066e+000
      vertex -2.563931e+001  3.180000e+000  2.514066e+000
    endloop
  endfacet
  facet normal  0.000000e+000  0.000000e+000  1.000000e+000
    outer loop
      vertex -2.563931e+001  3.180000e+000  2.514066e+000
      vertex -2.563931e+001 -2.833581e-015  2.514066e+000
      vertex -2.363070e+001 -2.611595e-015  2.514066e+000
    endloop
  endfacet
  facet normal  0.000000e+000  -0.000000e+000  1.000000e+000
    outer loop
      vertex -2.563931e+001  3.180000e+000  2.514066e+000
      vertex -2.363070e+001 -2.611595e-015  2.514066e+000
      vertex -2.363070e+001  3.180000e+000  2.514066e+000
    endloop
  endfacet
  facet normal -5.877852e-001  0.000000e+000  8.090169e-001
    outer loop
      vertex -2.363070e+001  3.180000e+000  2.514066e+000
      vertex -2.363070e+001 -2.611595e-015  2.514066e+000
      vertex -2.200570e+001 -2.432005e-015  3.694698e+000
    endloop
  endfacet
  facet normal -5.877852e-001  0.000000e+000  8.090169e-001
    outer loop
      vertex -2.363070e+001  3.180000e+000  2.514066e+000
      vertex -2.200570e+001 -2.432005e-015  3.694698e+000
      vertex -2.200570e+001  3.180000e+000  3.694698e+000
    endloop
  endfacet
  facet normal -9.510564e-001  0.000000e+000  3.090172e-001
    outer loop
      vertex -2.200570e+001  3.180000e+000  3.694698e+000
      vertex -2.200570e+001 -2.432005e-015  3.694698e+000
      vertex -2.138500e+001 -2.370989e-015  5.605000e+000
    endloop
  endfacet
  facet normal -9.510564e-001  0.000000e+000  3.090172e-001
    outer loop
      vertex -2.200570e+001  3.180000e+000  3.694698e+000
      vertex -2.138500e+001 -2.370989e-015  5.605000e+000
      vertex -2.138500e+001  3.180000e+000  5.605000e+000
    endloop
  endfacet
  facet normal  3.420200e-001 -9.396926e-001  0.000000e+000
    outer loop
      vertex -2.205332e+000  1.250706e+001  0.000000e+000
      vertex -6.350000e+000  1.099852e+001  1.111000e+001
      vertex -6.350000e+000  1.099852e+001  0.000000e+000
    endloop
  endfacet
  facet normal  6.427876e-001 -7.660445e-001  0.000000e+000
    outer loop
      vertex -6.350000e+000  1.099852e+001  0.000000e+000
      vertex -6.350000e+000  1.099852e+001  1.111000e+001
      vertex -9.728765e+000  8.163403e+000  1.111000e+001
    endloop
  endfacet
  facet normal  6.427876e-001 -7.660445e-001  0.000000e+000
    outer loop
      vertex -6.350000e+000  1.099852e+001  0.000000e+000
      vertex -9.728765e+000  8.163403e+000  1.111000e+001
      vertex -9.728765e+000  8.163403e+000  0.000000e+000
    endloop
  endfacet
  facet normal  8.660254e-001 -5.000000e-001  0.000000e+000
    outer loop
      vertex -9.728765e+000  8.163403e+000  0.000000e+000
      vertex -9.728765e+000  8.163403e+000  1.111000e+001
      vertex -1.193410e+001  4.343656e+000  1.111000e+001
    endloop
  endfacet
  facet normal  8.660254e-001 -5.000000e-001  0.000000e+000
    outer loop
      vertex -9.728765e+000  8.163403e+000  0.000000e+000
      vertex -1.193410e+001  4.343656e+000  1.111000e+001
      vertex -1.193410e+001  4.343656e+000  0.000000e+000
    endloop
  endfacet
  facet normal  9.848077e-001 -1.736481e-001  0.000000e+000
    outer loop
      vertex -1.193410e+001  4.343656e+000  0.000000e+000
      vertex -1.193410e+001  4.343656e+000  1.111000e+001
      vertex -1.270000e+001 -5.075108e-015  1.111000e+001
    endloop
  endfacet
  facet normal  9.848077e-001 -1.736481e-001  0.000000e+000
    outer loop
      vertex -1.193410e+001  4.343656e+000  0.000000e+000
      vertex -1.270000e+001 -5.075108e-015  1.111000e+001
      vertex -1.270000e+001 -5.075108e-015  0.000000e+000
    endloop
  endfacet
  facet normal  3.420200e-001 -9.396926e-001  0.000000e+000
    outer loop
      vertex -6.350000e+000  1.099852e+001  1.111000e+001
      vertex -2.205332e+000  1.250706e+001  0.000000e+000
      vertex -2.205332e+000  1.250706e+001  1.111000e+001
    endloop
  endfacet
  facet normal  0.000000e+000 -1.000000e+000  0.000000e+000
    outer loop
      vertex -2.205332e+000  1.250706e+001  1.111000e+001
      vertex -2.205332e+000  1.250706e+001  0.000000e+000
      vertex  2.205332e+000  1.250706e+001  0.000000e+000
    endloop
  endfacet
  facet normal  0.000000e+000 -1.000000e+000  0.000000e+000
    outer loop
      vertex -2.205332e+000  1.250706e+001  1.111000e+001
      vertex  2.205332e+000  1.250706e+001  0.000000e+000
      vertex  2.205332e+000  1.250706e+001  1.111000e+001
    endloop
  endfacet
  facet normal -3.420200e-001 -9.396926e-001  -0.000000e+000
    outer loop
      vertex  2.205332e+000  1.250706e+001  1.111000e+001
      vertex  2.205332e+000  1.250706e+001  0.000000e+000
      vertex  6.350000e+000  1.099852e+001  0.000000e+000
    endloop
  endfacet
  facet normal -3.420200e-001 -9.396926e-001  0.000000e+000
    outer loop
      vertex  2.205332e+000  1.250706e+001  1.111000e+001
      vertex  6.350000e+000  1.099852e+001  0.000000e+000
      vertex  6.350000e+000  1.099852e+001  1.111000e+001
    endloop
  endfacet
  facet normal -6.427876e-001 -7.660445e-001  -0.000000e+000
    outer loop
      vertex  6.350000e+000  1.099852e+001  1.111000e+001
      vertex  6.350000e+000  1.099852e+001  0.000000e+000
      vertex  9.728765e+000  8.163403e+000  0.000000e+000
    endloop
  endfacet
  facet normal -6.427876e-001 -7.660445e-001  0.000000e+000
    outer loop
      vertex  6.350000e+000  1.099852e+001  1.111000e+001
      vertex  9.728765e+000  8.163403e+000  0.000000e+000
      vertex  9.728765e+000  8.163403e+000  1.111000e+001
    endloop
  endfacet
  facet normal -8.660254e-001 -5.000000e-001  -0.000000e+000
    outer loop
      vertex  9.728765e+000  8.163403e+000  1.111000e+001
      vertex  9.728765e+000  8.163403e+000  0.000000e+000
      vertex  1.193410e+001  4.343656e+000  0.000000e+000
    endloop
  endfacet
  facet normal -8.660254e-001 -5.000000e-001  0.000000e+000
    outer loop
      vertex  9.728765e+000  8.163403e+000  1.111000e+001
      vertex  1.193410e+001  4.343656e+000  0.000000e+000
      vertex  1.193410e+001  4.343656e+000  1.111000e+001
    endloop
  endfacet
  facet normal -9.848077e-001 -1.736481e-001  -0.000000e+000
    outer loop
      vertex  1.193410e+001  4.343656e+000  1.111000e+001
      vertex  1.193410e+001  4.343656e+000  0.000000e+000
      vertex  1.270000e+001  1.403567e-015  0.000000e+000
    endloop
  endfacet
  facet normal -9.848077e-001 -1.736481e-001  0.000000e+000
    outer loop
      vertex  1.193410e+001  4.343656e+000  1.111000e+001
      vertex  1.270000e+001  1.403567e-015  0.000000e+000
      vertex  1.270000e+001  1.403567e-015  1.111000e+001
    endloop
  endfacet
endsolid CATIA STL
